<svg width="150" height="150" viewBox="0 0 150 150" fill="none" xmlns="http://www.w3.org/2000/svg">
<mask id="mask0" style="mask-type:alpha" maskUnits="userSpaceOnUse" x="0" y="0" width="150" height="150">
<rect width="150" height="150" rx="75" fill="#C4C4C4"/>
</mask>
<g mask="url(#mask0)">
<rect width="150" height="150" rx="75" fill="#F3F3F3"/>
<path d="M152.388 73.0893L108.917 30.0957L51.5923 114.172L120.86 180.573L152.388 73.0893Z" fill="#E2E2E2"/>
</g>
<mask id="mask1" style="mask-type:alpha" maskUnits="userSpaceOnUse" x="39" y="27" width="73" height="98">
<path d="M39.1719 36.4795C39.1719 31.6346 43.0994 27.707 47.9443 27.707H103.011C107.856 27.707 111.783 31.6346 111.783 36.4795V87.8981C111.783 107.949 95.5287 124.204 75.4776 124.204C55.4265 124.204 39.1719 107.949 39.1719 87.8981V36.4795Z" fill="#D4D8FF"/>
</mask>
<g mask="url(#mask1)">
<path d="M39.1719 36.4795C39.1719 31.6346 43.0994 27.707 47.9443 27.707H103.011C107.856 27.707 111.783 31.6346 111.783 36.4795V87.8981C111.783 107.949 95.5287 124.204 75.4776 124.204C55.4265 124.204 39.1719 107.949 39.1719 87.8981V36.4795Z" fill="#897AC2"/>
<rect x="75.4778" y="23.8853" width="42.9936" height="111.783" fill="#6959AB"/>
</g>
<rect x="65.5574" y="53.1372" width="20.7962" height="35.1274" rx="10.3981" stroke="#F3F7FD" stroke-width="5"/>
<rect x="61.1465" y="70.7007" width="29.6178" height="29.6178" rx="8" fill="#FFA8AA"/>
<path fill-rule="evenodd" clip-rule="evenodd" d="M77.3885 85.666C78.5183 85.1293 79.2995 83.9777 79.2995 82.6438C79.2995 80.7969 77.8023 79.2998 75.9555 79.2998C74.1087 79.2998 72.6116 80.7969 72.6116 82.6438C72.6116 83.9777 73.3926 85.1291 74.5223 85.6659V92.6756H77.3885V85.666Z" fill="#6959AB"/>
</svg>
