<svg width="157" height="157" viewBox="0 0 157 157" fill="none" xmlns="http://www.w3.org/2000/svg">
<mask id="mask0" mask-type="alpha" maskUnits="userSpaceOnUse" x="0" y="0" width="157" height="157">
<rect width="157" height="157" rx="78.5" fill="#C4C4C4"/>
</mask>
<g mask="url(#mask0)">
<rect width="157" height="157" rx="78.5" fill="#F3F7FD"/>
<path d="M159.5 76.5L114 31.5L54 119.5L126.5 189L159.5 76.5Z" fill="#EAF2FF"/>
</g>
<mask id="mask1" mask-type="alpha" maskUnits="userSpaceOnUse" x="41" y="29" width="76" height="101">
<path d="M41 38.1818C41 33.1108 45.1108 29 50.1818 29H107.818C112.889 29 117 33.1108 117 38.1818V92C117 112.987 99.9868 130 79 130C58.0132 130 41 112.987 41 92V38.1818Z" fill="#D4D8FF"/>
</mask>
<g mask="url(#mask1)">
<path d="M41 38.1818C41 33.1108 45.1108 29 50.1818 29H107.818C112.889 29 117 33.1108 117 38.1818V92C117 112.987 99.9868 130 79 130C58.0132 130 41 112.987 41 92V38.1818Z" fill="#C1C6FE"/>
<rect x="79" y="25" width="45" height="117" fill="#B4BAF9"/>
</g>
<rect x="68.5" y="55.5" width="22" height="37" rx="11" stroke="#F3F7FD" stroke-width="5"/>
<rect x="64" y="74" width="31" height="31" rx="8" fill="#6D6DF6"/>
<path fill-rule="evenodd" clip-rule="evenodd" d="M81 89.6631C82.1825 89.1016 83 87.8955 83 86.5C83 84.5674 81.433 83 79.5 83C77.567 83 76 84.5674 76 86.5C76 87.8955 76.8175 89.1016 78 89.6631V97H81V89.6631Z" fill="#3D3DAC"/>
</svg>
