<svg width="32" height="32" viewBox="0 0 32 32" fill="none" xmlns="http://www.w3.org/2000/svg">
<path d="M32 25.1425C32 26.1872 31.1531 27.0341 30.1084 27.0341H1.89156C0.846875 27.0342 0 26.1872 0 25.1425V6.8572C0 5.81251 0.846875 4.96558 1.89156 4.96558H30.1084C31.1532 4.96558 32 5.81251 32 6.8572V25.1425Z" fill="#7C8A95"/>
<path opacity="0.15" d="M1.34481 25.1425V6.8572C1.34481 5.81251 2.19181 4.96558 3.2365 4.96558H1.8915C0.846875 4.96558 0 5.81245 0 6.8572V25.1425C0 26.1873 0.846875 27.0342 1.89156 27.0342H3.23656C2.19187 27.0342 1.34481 26.1872 1.34481 25.1425Z" fill="#202121"/>
<path d="M4.66211 13.7967H5.61823L5.1403 12.5798L4.66211 13.7967Z" fill="white"/>
<path d="M9.74658 17.8818V18.4469H11.3546V19.0555H9.74658V19.7075H11.5284L12.3541 18.7946L11.5719 17.8818H9.74658Z" fill="white"/>
<path d="M22.3062 12.5798L21.7847 13.7967H22.7844L22.3062 12.5798Z" fill="white"/>
<path d="M14.3966 20.0548V17.5776L13.2666 18.7946L14.3966 20.0548Z" fill="white"/>
<path d="M16.5266 18.2731C16.4831 18.0124 16.3091 17.8818 16.0482 17.8818H15.1357V18.6641H16.0919C16.3526 18.6641 16.5266 18.5338 16.5266 18.2731Z" fill="white"/>
<path d="M19.5684 18.5775C19.6553 18.5339 19.6989 18.4034 19.6989 18.2733C19.7424 18.0996 19.6553 18.0125 19.5684 17.969C19.4817 17.9255 19.3511 17.9255 19.2209 17.9255H18.3516V18.621H19.2209C19.3511 18.621 19.4816 18.621 19.5684 18.5775Z" fill="white"/>
<path d="M25.8262 11.45V11.9715L25.5656 11.45H23.5233V11.9715L23.2624 11.45H20.481C20.003 11.45 19.6117 11.537 19.2642 11.7108V11.45H17.3086V11.4935V11.7108C17.0914 11.537 16.8306 11.45 16.4829 11.45H9.48606L9.00781 12.5365L8.52988 11.45H6.96544H6.3135V11.9715L6.09619 11.45H6.05269H4.184L3.31469 13.4925L2.31525 15.7088L2.29688 15.7524H2.31525H4.53169H4.55944L4.57519 15.7088L4.83606 15.0571H5.401L5.66175 15.7524H8.18213V15.7088V15.2309L8.39956 15.7523H9.65975L9.87694 15.2309V15.7088V15.7524H10.8765H15.8743H15.9178V14.6224H16.0049C16.0918 14.6224 16.0918 14.6224 16.0918 14.7528V15.7089H19.2208V15.4481C19.4816 15.5787 19.8724 15.7089 20.394 15.7089H21.6979L21.9587 15.0137H22.5669L22.8277 15.7089H25.3482V15.2744V15.0571L25.7395 15.7089H25.8262H25.8698H27.782V11.45H25.8263H25.8262ZM11.0939 15.1006H10.6593H10.3986V14.8401V12.7103L10.3551 12.81V12.8088L9.34406 15.1006H9.31206H9.07963H8.70356L7.66063 12.7103V15.1006H6.18313L5.87894 14.4488H4.40119L4.09694 15.1006H3.333L4.61863 12.0585H5.705L6.92181 14.9701V12.0585H7.1825H8.07319L8.09369 12.102H8.09519L8.6435 13.2954L9.03725 14.1895L9.05119 14.1445L9.92031 12.0585H11.0939V15.1006H11.0939ZM14.0927 12.7103H12.3978V13.2753H14.0492V13.8836H12.3978V14.4923H14.0927V15.144H11.659V12.0585H14.0927V12.7103ZM17.1924 13.831C17.1935 13.832 17.1949 13.8326 17.1963 13.8336C17.2128 13.851 17.2268 13.8684 17.2388 13.8851C17.3221 13.9942 17.3894 14.1565 17.3928 14.3945C17.393 14.3986 17.3932 14.4027 17.3934 14.4068C17.3934 14.4092 17.3939 14.4113 17.3939 14.4137C17.3939 14.4151 17.3938 14.4161 17.3938 14.4175C17.3948 14.4414 17.3954 14.4658 17.3954 14.4923V15.1007H16.7436V14.7529C16.7436 14.5791 16.7436 14.3183 16.6131 14.1445C16.572 14.1034 16.5304 14.0763 16.4852 14.0571C16.4201 14.0149 16.2966 14.0142 16.0918 14.0142H15.3093V15.1007H14.5706V12.0585H16.2222C16.6131 12.0585 16.8739 12.0585 17.0913 12.1889C17.3043 12.3168 17.4329 12.5288 17.4378 12.8646C17.4277 13.3271 17.1308 13.5809 16.9174 13.6665C16.9174 13.6665 17.0624 13.6956 17.1924 13.831ZM18.6558 15.1006H17.9169V12.0585H18.6558V15.1006ZM27.1303 15.1006H26.1741L24.7834 12.7972V14.7094L24.7789 14.7049V15.1025H24.0447V15.1007H23.3058L23.0451 14.4488H21.5239L21.2631 15.144H20.4374C20.09 15.144 19.6551 15.0572 19.3945 14.7965C19.1338 14.5357 19.0035 14.188 19.0035 13.6231C19.0035 13.1886 19.0903 12.7537 19.3945 12.4061C19.6116 12.1452 20.0029 12.0585 20.4809 12.0585H21.1764V12.7103H20.4809C20.2201 12.7103 20.09 12.7536 19.9158 12.8843C19.7857 13.0146 19.6987 13.2753 19.6987 13.5795C19.6987 13.9272 19.7422 14.1445 19.9158 14.3183C20.0465 14.4488 20.2202 14.4923 20.4374 14.4923H20.7416L21.7411 12.1021H22.1759H22.8276L24.0446 15.0138V14.8653V13.8838V13.797V12.1022H25.131L26.3911 14.2316V12.1022H27.1302V15.1008H27.1303V15.1006Z" fill="white"/>
<path d="M16.5726 13.3256C16.5853 13.3121 16.5968 13.2967 16.6065 13.2791C16.6459 13.2168 16.691 13.1045 16.6667 12.9513C16.6657 12.9373 16.6631 12.9243 16.6601 12.9117C16.6593 12.9082 16.6595 12.9051 16.6585 12.9016L16.6581 12.9017C16.6365 12.8273 16.5813 12.7815 16.5262 12.7538C16.4391 12.7104 16.3087 12.7104 16.1784 12.7104H15.3091V13.4059H16.1784C16.3087 13.4059 16.4391 13.4059 16.5262 13.3623C16.5393 13.3557 16.5509 13.3467 16.5621 13.3365L16.5622 13.3371C16.5623 13.337 16.5667 13.3324 16.5726 13.3256Z" fill="white"/>
<path d="M29.6941 19.4467C29.6941 19.1425 29.6073 18.8382 29.477 18.6209V16.6654H29.475V16.5348C29.475 16.5348 27.6534 16.5348 27.3823 16.5348C27.1113 16.5348 26.7824 16.7955 26.7824 16.7955V16.5348H24.7834C24.479 16.5348 24.0881 16.6218 23.9141 16.7955V16.5348H20.3506V16.6654V16.7954C20.09 16.5783 19.6116 16.5347 19.3945 16.5347H17.0476V16.6653V16.7954C16.8304 16.5782 16.3086 16.5347 16.0478 16.5347H13.4406L12.8321 17.1866L12.2671 16.5347H12.0851H11.7891H8.35596V16.6652V17.0085V20.9242H12.1803L12.8087 20.2957L13.3534 20.9242H13.397H15.6006H15.7005H15.744H15.7873V20.4897V19.9247H16.0047C16.3086 19.9247 16.7 19.9247 17.0041 19.7942V20.8805V20.9677H18.9598V20.8805V19.8377H19.0465C19.1771 19.8377 19.1771 19.8377 19.1771 19.968V20.8805V20.9677H25.0873C25.4787 20.9677 25.8696 20.8805 26.0868 20.7067V20.8805V20.9677H27.9557C28.3466 20.9677 28.738 20.9242 28.9988 20.7503C29.3989 20.5102 29.6511 20.0853 29.6886 19.5785C29.6903 19.5635 29.6925 19.5485 29.6939 19.5334L29.6913 19.531C29.693 19.5029 29.6941 19.475 29.6941 19.4467ZM16.0048 19.186H15.1354V19.316V19.5769V19.8377V20.3158H13.707L12.8756 19.3596L12.8727 19.3628L12.8321 19.316L11.876 20.3158H9.09471V17.2737H11.9195L12.6913 18.119L12.8535 18.296L12.8755 18.2732L13.7883 17.2738H16.0915C16.5385 17.2738 17.0391 17.3841 17.2288 17.8389C17.2516 17.929 17.2648 18.0291 17.2648 18.1429C17.2648 19.012 16.6564 19.186 16.0048 19.186ZM20.3506 19.1424C20.4374 19.2725 20.4809 19.4466 20.4809 19.7075V20.3157H19.7422V19.9247C19.7422 19.7506 19.7422 19.4466 19.6116 19.316C19.525 19.186 19.3509 19.186 19.0903 19.186H18.3081V20.3158H17.5694V17.2302H19.2207C19.5681 17.2302 19.8723 17.2302 20.09 17.3605C20.3071 17.491 20.4809 17.7083 20.4809 18.056C20.4809 18.5339 20.1768 18.7947 19.9595 18.8817C20.1768 18.9683 20.3071 19.0555 20.3506 19.1424ZM23.3493 17.8819H21.6542V18.4469H23.3057V19.0554H21.6542V19.6639H23.3493V20.3157H20.9156V17.2302H23.3493V17.8819ZM25.1745 20.3158H23.7837V19.664H25.1745C25.3046 19.664 25.3917 19.664 25.4788 19.577C25.5223 19.5334 25.5655 19.4467 25.5655 19.3597C25.5655 19.2725 25.5223 19.186 25.4788 19.1425C25.4352 19.099 25.3481 19.0555 25.2178 19.0555C24.5225 19.012 23.6968 19.0555 23.6968 18.0995C23.6968 17.6649 23.9575 17.1868 24.7398 17.1868H26.1739V17.9255H24.8268C24.6965 17.9255 24.6094 17.9255 24.5224 17.969C24.4357 18.0125 24.4357 18.0995 24.4357 18.1864C24.4357 18.3168 24.5224 18.3603 24.6093 18.4034C24.6965 18.447 24.7833 18.447 24.8701 18.447H25.2613C25.6525 18.447 25.9131 18.5339 26.087 18.7078C26.2174 18.8382 26.3043 19.0555 26.3043 19.3597C26.3043 20.0114 25.9132 20.3158 25.1745 20.3158ZM28.9119 20.0114C28.7383 20.1854 28.4339 20.3158 27.9991 20.3158H26.6088V19.664H27.9991C28.1295 19.664 28.2166 19.664 28.3035 19.577C28.3468 19.5334 28.3904 19.4467 28.3904 19.3597C28.3904 19.2725 28.3468 19.186 28.3035 19.1425C28.26 19.099 28.1731 19.0555 28.0427 19.0555C27.3476 19.012 26.5216 19.0555 26.5216 18.0996C26.5216 17.6865 26.758 17.3134 27.3408 17.2026C27.4105 17.193 27.4841 17.1868 27.5647 17.1868H28.999V17.9255H28.0427H27.6951H27.6516C27.5212 17.9255 27.4344 17.9255 27.3476 17.969C27.3038 18.0125 27.2603 18.0995 27.2603 18.1864C27.2603 18.3168 27.3038 18.3603 27.4344 18.4034C27.5212 18.447 27.6081 18.447 27.6951 18.447H27.7383H28.0861C28.2761 18.447 28.4197 18.4704 28.5511 18.5166C28.6715 18.5602 29.07 18.7384 29.1591 19.2037C29.1669 19.2525 29.1726 19.3034 29.1726 19.3597C29.1726 19.6205 29.0856 19.8377 28.9119 20.0114Z" fill="white"/>
</svg>
