<svg width="1920" height="1080" viewBox="0 0 1920 1080" fill="none" xmlns="http://www.w3.org/2000/svg">
<path d="M2328.53 1371L-392.65 1242.91L-429.19 1015.9C-356.461 1036.54 -192.616 1070.01 -31.7773 1044.12C61.4769 1029.1 472.686 1128.67 1096.53 611C1595.6 196.861 2118.16 167.431 2280.53 151L2328.53 1371Z" fill="#9CA4FF" fill-opacity="0.2"/>
<path d="M1165.78 423.065C820.82 478.593 62.4398 852.598 -515.474 1051C-587.474 1715 1938.14 992.262 2208.53 1307C2400.62 1530.61 2174.92 539.785 2241.58 451.968C2013 351.452 1653.53 344.553 1165.78 423.065Z" fill="#9CA4FF" fill-opacity="0.26"/>
<path d="M550.238 524.677C201.73 463.945 -282.036 260.003 -512.005 305.857L-391.799 1208.37L2248.53 1259C2243.9 1230.29 2308.05 599.965 2272 376C2056.36 397.455 1222.46 641.821 550.238 524.677Z" fill="#9CA4FF" fill-opacity="0.2"/>
</svg>
