<svg width="24" height="29" viewBox="0 0 24 29" fill="none" xmlns="http://www.w3.org/2000/svg">
    <path d="M3.55019 14.32C2.88226 15.2673 2.29837 16.2711 1.80519 17.32C0.833483 19.2577 0.28308 21.3792 0.190186 23.545C0.190186 25.86 1.15519 27.44 3.05519 28.24C4.73019 28.945 7.00019 29 9.22518 29H14.7752C18.5902 29 23.8152 29 23.8152 23.535C23.7214 21.3672 23.1693 19.2439 22.1952 17.305C21.702 16.2561 21.1181 15.2523 20.4502 14.305C18.3802 11.39 15.9052 9.59498 13.3552 9.11998L13.1752 9.08498L12.9402 9.05498C12.3166 8.96735 11.6838 8.96735 11.0602 9.05498L10.8252 9.08498L10.6452 9.11998C8.09519 9.60998 5.61519 11.405 3.55019 14.32ZM11.0502 15.025C11.1147 14.8231 11.2418 14.6469 11.413 14.5219C11.5842 14.3969 11.7907 14.3295 12.0027 14.3295C12.2147 14.3295 12.4212 14.3969 12.5924 14.5219C12.7636 14.6469 12.8906 14.8231 12.9552 15.025H13.8152C14.0804 15.025 14.3348 15.1303 14.5223 15.3179C14.7098 15.5054 14.8152 15.7598 14.8152 16.025C14.8152 16.2902 14.7098 16.5446 14.5223 16.7321C14.3348 16.9196 14.0804 17.025 13.8152 17.025H11.3752C11.1714 17.0263 10.9763 17.1078 10.8322 17.252C10.688 17.3961 10.6065 17.5912 10.6052 17.795V18.25C10.6116 18.4503 10.6955 18.6403 10.839 18.7802C10.9826 18.92 11.1748 18.9988 11.3752 19H12.6302C13.3644 19.0013 14.0682 19.2936 14.5874 19.8128C15.1066 20.3319 15.3989 21.0357 15.4002 21.77V22.225C15.405 22.9072 15.1584 23.5673 14.7074 24.0792C14.2564 24.5911 13.6326 24.9189 12.9552 25C12.8906 25.2019 12.7636 25.3781 12.5924 25.5031C12.4212 25.6281 12.2147 25.6954 12.0027 25.6954C11.7907 25.6954 11.5842 25.6281 11.413 25.5031C11.2418 25.3781 11.1147 25.2019 11.0502 25H10.1902C9.92497 25 9.67061 24.8946 9.48308 24.7071C9.29554 24.5196 9.19018 24.2652 9.19018 24C9.19018 23.7348 9.29554 23.4804 9.48308 23.2929C9.67061 23.1053 9.92497 23 10.1902 23H12.6252C12.829 22.9987 13.0241 22.9171 13.1682 22.773C13.3123 22.6289 13.3939 22.4338 13.3952 22.23V21.775C13.3952 21.5703 13.3142 21.3739 13.17 21.2287C13.0257 21.0835 12.8299 21.0013 12.6252 21H11.3752C10.6401 20.9987 9.93553 20.7057 9.41619 20.1854C8.89686 19.6652 8.60518 18.9601 8.60518 18.225V17.77C8.60755 17.0937 8.8568 16.4415 9.30611 15.9361C9.75541 15.4306 10.3738 15.1066 11.0452 15.025H11.0502Z" fill="#EC7F5C"/>
    <path d="M9.16008 7.46523C11.0048 6.84776 13.0004 6.84776 14.8451 7.46523C15.0243 7.52533 15.2136 7.5493 15.4022 7.53575C15.5907 7.52221 15.7747 7.47143 15.9434 7.38634C16.1122 7.30125 16.2625 7.18355 16.3855 7.04004C16.5085 6.89652 16.6018 6.73005 16.6601 6.55023L17.9451 2.55023C18.0019 2.375 18.0171 2.18893 17.9894 2.00681C17.9617 1.82468 17.892 1.65151 17.7857 1.50106C17.6794 1.3506 17.5395 1.227 17.3771 1.14006C17.2147 1.05312 17.0342 1.00525 16.8501 1.00023C16.536 1.0011 16.2254 1.06531 15.9367 1.18902C15.648 1.31273 15.3873 1.49341 15.1701 1.72023L14.2001 2.72023C14.1254 2.79725 14.029 2.84977 13.9238 2.87086C13.8186 2.89195 13.7095 2.88062 13.6109 2.83835C13.5123 2.79608 13.4288 2.72488 13.3715 2.63415C13.3142 2.54342 13.2858 2.43745 13.2901 2.33023C13.301 2.15441 13.2759 1.9782 13.2161 1.81248C13.1564 1.64675 13.0633 1.49502 12.9427 1.36663C12.8221 1.23824 12.6764 1.13593 12.5147 1.06599C12.353 0.996044 12.1787 0.959961 12.0026 0.959961C11.8264 0.959961 11.6521 0.996044 11.4904 1.06599C11.3287 1.13593 11.1831 1.23824 11.0625 1.36663C10.9418 1.49502 10.8488 1.64675 10.789 1.81248C10.7293 1.9782 10.7041 2.15441 10.7151 2.33023C10.7193 2.43745 10.6909 2.54342 10.6336 2.63415C10.5764 2.72488 10.4929 2.79608 10.3943 2.83835C10.2956 2.88062 10.1865 2.89195 10.0813 2.87086C9.97611 2.84977 9.87979 2.79725 9.80508 2.72023L8.83508 1.72023C8.61634 1.49266 8.35391 1.31158 8.06352 1.18786C7.77312 1.06414 7.46073 1.00033 7.14508 1.00023C6.96023 1.00525 6.77914 1.05364 6.61643 1.14149C6.45371 1.22935 6.31393 1.35422 6.20834 1.50604C6.10275 1.65785 6.03432 1.83235 6.00857 2.01546C5.98282 2.19858 6.00046 2.38519 6.06008 2.56023L7.34508 6.56023C7.40437 6.73915 7.49844 6.90457 7.62188 7.047C7.74533 7.18943 7.89571 7.30605 8.06439 7.39016C8.23306 7.47426 8.4167 7.52419 8.60474 7.53708C8.79278 7.54996 8.98151 7.52555 9.16008 7.46523Z" fill="#EC7F5C"/>
</svg>
