<svg width="80" height="80" viewBox="0 0 80 80" fill="none" xmlns="http://www.w3.org/2000/svg">
<path d="M45.475 15.475C45.475 16.5579 45.1539 17.6164 44.5523 18.5167C43.9507 19.4171 43.0956 20.1188 42.0952 20.5332C41.0948 20.9476 39.994 21.0561 38.9319 20.8448C37.8699 20.6335 36.8943 20.1121 36.1286 19.3464C35.3629 18.5807 34.8415 17.6052 34.6302 16.5431C34.419 15.4811 34.5274 14.3802 34.9418 13.3798C35.3562 12.3794 36.0579 11.5243 36.9583 10.9227C37.8586 10.3211 38.9172 10 40 10C40.719 10 41.431 10.1416 42.0952 10.4168C42.7595 10.6919 43.363 11.0952 43.8714 11.6036C44.3798 12.112 44.7831 12.7156 45.0583 13.3798C45.3334 14.0441 45.475 14.756 45.475 15.475Z" fill="#CCD8E5"/>
<path d="M41.25 22.1875H40.875C40.8413 21.9965 40.7414 21.8234 40.5928 21.6987C40.4442 21.574 40.2565 21.5056 40.0625 21.5056C39.8685 21.5056 39.6807 21.574 39.5321 21.6987C39.3835 21.8234 39.2836 21.9965 39.25 22.1875H38.875C38.8344 22.1845 38.7939 22.1931 38.7581 22.2123C38.7223 22.2316 38.6928 22.2607 38.6731 22.2962C38.6534 22.3318 38.6442 22.3722 38.6468 22.4127C38.6493 22.4533 38.6634 22.4923 38.6875 22.525L39.9375 24.225C39.957 24.2534 39.9831 24.2766 40.0136 24.2926C40.0441 24.3086 40.078 24.317 40.1125 24.317C40.1469 24.317 40.1808 24.3086 40.2113 24.2926C40.2418 24.2766 40.2679 24.2534 40.2875 24.225L41.5375 22.525C41.5596 22.5062 41.5778 22.4831 41.5911 22.4572C41.6043 22.4313 41.6124 22.403 41.6147 22.374C41.617 22.345 41.6136 22.3158 41.6046 22.2881C41.5957 22.2604 41.5813 22.2347 41.5625 22.2125C41.5436 22.1904 41.5205 22.1722 41.4946 22.1589C41.4687 22.1457 41.4404 22.1376 41.4114 22.1353C41.3824 22.133 41.3532 22.1364 41.3255 22.1454C41.2978 22.1543 41.2721 22.1687 41.25 22.1875Z" fill="#DFE8F4"/>
<path d="M39.9999 14.9125C39.8722 14.9129 39.7482 14.8697 39.6482 14.7902C39.5482 14.7107 39.4783 14.5995 39.4499 14.475C39.428 14.3517 39.4498 14.2246 39.5116 14.1157C39.5733 14.0067 39.6712 13.9228 39.7883 13.8783C39.9054 13.8339 40.0343 13.8317 40.1528 13.8721C40.2714 13.9126 40.372 13.9932 40.4374 14.1C40.4856 14.1834 40.5548 14.2527 40.6382 14.301C40.7215 14.3492 40.8161 14.3748 40.9124 14.375C41.0106 14.3776 41.1078 14.3545 41.1943 14.3079C41.2808 14.2614 41.3535 14.193 41.4054 14.1095C41.4572 14.0261 41.4863 13.9305 41.4897 13.8324C41.4931 13.7342 41.4708 13.6369 41.4249 13.55C41.2225 13.2096 40.9092 12.9492 40.5374 12.8125C40.5375 12.7425 40.5235 12.6732 40.4963 12.6087C40.4692 12.5441 40.4294 12.4857 40.3793 12.4368C40.3292 12.3879 40.2698 12.3495 40.2047 12.3238C40.1395 12.2982 40.0699 12.2858 39.9999 12.2875C39.8607 12.2875 39.7272 12.3428 39.6287 12.4413C39.5303 12.5397 39.4749 12.6733 39.4749 12.8125C39.2592 12.8906 39.0618 13.0123 38.895 13.1699C38.7282 13.3275 38.5956 13.5176 38.5054 13.7286C38.4151 13.9396 38.3692 14.1668 38.3704 14.3963C38.3716 14.6257 38.42 14.8525 38.5124 15.0625C38.652 15.3551 38.8718 15.602 39.1462 15.7746C39.4206 15.9472 39.7383 16.0383 40.0624 16.0375C40.205 16.0375 40.3417 16.0941 40.4425 16.1949C40.5433 16.2957 40.5999 16.4324 40.5999 16.575C40.5999 16.7176 40.5433 16.8543 40.4425 16.9551C40.3417 17.0559 40.205 17.1125 40.0624 17.1125C39.9677 17.1127 39.8747 17.0872 39.7933 17.0388C39.7119 16.9903 39.6451 16.9208 39.5999 16.8375C39.5493 16.7572 39.4792 16.6911 39.3962 16.6452C39.3131 16.5993 39.2198 16.5751 39.1249 16.575C39.0268 16.5724 38.9296 16.5955 38.8431 16.6421C38.7566 16.6886 38.6838 16.757 38.632 16.8405C38.5802 16.9239 38.5511 17.0195 38.5477 17.1176C38.5442 17.2158 38.5666 17.3131 38.6124 17.4C38.8148 17.7404 39.1282 18.0008 39.4999 18.1375C39.4999 18.2767 39.5553 18.4103 39.6537 18.5087C39.7522 18.6072 39.8857 18.6625 40.0249 18.6625H39.9999C40.1392 18.6625 40.2727 18.6072 40.3712 18.5087C40.4696 18.4103 40.5249 18.2767 40.5249 18.1375C40.8457 18.0203 41.123 17.8078 41.3196 17.5285C41.5162 17.2492 41.6228 16.9165 41.6249 16.575C41.6251 16.1405 41.4551 15.7232 41.1513 15.4125C40.8476 15.1018 40.4343 14.9223 39.9999 14.9125Z" fill="white"/>
<path d="M26.5251 18.7501C27.2862 19.5176 27.8031 20.4932 28.0107 21.554C28.2183 22.6148 28.1072 23.7133 27.6915 24.7111C27.2757 25.7089 26.574 26.5612 25.6746 27.1608C24.7752 27.7604 23.7185 28.0804 22.6376 28.0804C21.5567 28.0804 20.5 27.7604 19.6006 27.1608C18.7012 26.5612 17.9995 25.7089 17.5837 24.7111C17.168 23.7133 17.0569 22.6148 17.2645 21.554C17.4721 20.4932 17.989 19.5176 18.7501 18.7501C19.2591 18.2369 19.8647 17.8295 20.5319 17.5515C21.1991 17.2735 21.9148 17.1304 22.6376 17.1304C23.3604 17.1304 24.0761 17.2735 24.7433 17.5515C25.4105 17.8295 26.0161 18.2369 26.5251 18.7501Z" fill="#CCD8E5"/>
<path d="M28.25 26.5625L27.975 26.825C27.8161 26.7125 27.6225 26.6599 27.4286 26.6764C27.2346 26.6929 27.0527 26.7774 26.9151 26.9151C26.7774 27.0527 26.6929 27.2346 26.6764 27.4286C26.6599 27.6225 26.7125 27.8161 26.825 27.975L26.5625 28.25C26.5342 28.2773 26.514 28.312 26.5042 28.3501C26.4944 28.3882 26.4954 28.4283 26.5071 28.4659C26.5188 28.5035 26.5406 28.5371 26.5703 28.563C26.5999 28.5889 26.6362 28.606 26.675 28.6125L28.725 28.975C28.7593 28.9818 28.7948 28.9801 28.8282 28.97C28.8617 28.9598 28.8921 28.9416 28.9169 28.9169C28.9416 28.8921 28.9598 28.8617 28.97 28.8282C28.9801 28.7948 28.9818 28.7593 28.975 28.725L28.6125 26.675C28.606 26.6362 28.5889 26.5999 28.563 26.5703C28.5371 26.5406 28.5035 26.5188 28.4659 26.5071C28.4283 26.4954 28.3882 26.4944 28.3501 26.5042C28.312 26.514 28.2773 26.5342 28.25 26.5625Z" fill="#DFE8F4"/>
<path d="M22.2751 22.2374C22.1871 22.3318 22.0689 22.3922 21.9409 22.4082C21.813 22.4242 21.6835 22.3947 21.5751 22.3249C21.5098 22.2802 21.4551 22.2217 21.4151 22.1534C21.375 22.0852 21.3506 22.0089 21.3434 21.9301C21.3362 21.8513 21.3466 21.7719 21.3736 21.6975C21.4007 21.6231 21.4439 21.5557 21.5001 21.4999C21.5656 21.4336 21.6476 21.3858 21.7377 21.3617C21.8277 21.3375 21.9226 21.3378 22.0126 21.3624C22.097 21.3826 22.1849 21.3829 22.2695 21.3634C22.3541 21.3439 22.433 21.305 22.5001 21.2499C22.5693 21.1819 22.6197 21.0971 22.6464 21.0038C22.6732 20.9105 22.6753 20.8119 22.6527 20.7176C22.63 20.6232 22.5833 20.5363 22.5172 20.4653C22.451 20.3943 22.3676 20.3417 22.2751 20.3124C21.8921 20.2074 21.4841 20.2428 21.1251 20.4124C21.0232 20.3175 20.8892 20.2648 20.7501 20.2648C20.6109 20.2648 20.4769 20.3175 20.3751 20.4124C20.2802 20.5143 20.2274 20.6483 20.2274 20.7874C20.2274 20.9266 20.2802 21.0606 20.3751 21.1624C20.2742 21.3688 20.2169 21.5937 20.2066 21.8232C20.1964 22.0527 20.2334 22.2818 20.3155 22.4963C20.3976 22.7109 20.5229 22.9062 20.6836 23.0703C20.8444 23.2343 21.0372 23.3636 21.2501 23.4499C21.5564 23.5578 21.8872 23.5763 22.2037 23.5032C22.5202 23.4302 22.8094 23.2686 23.0376 23.0374C23.1358 22.9405 23.2683 22.8861 23.4063 22.8861C23.5443 22.8861 23.6768 22.9405 23.7751 23.0374C23.8249 23.0863 23.8646 23.1447 23.8916 23.2091C23.9187 23.2735 23.9326 23.3426 23.9326 23.4124C23.9326 23.4823 23.9187 23.5514 23.8916 23.6158C23.8646 23.6802 23.8249 23.7386 23.7751 23.7874C23.7095 23.8538 23.6275 23.9015 23.5375 23.9257C23.4474 23.9499 23.3525 23.9496 23.2626 23.9249C23.1676 23.9023 23.0684 23.9041 22.9744 23.9304C22.8803 23.9566 22.7945 24.0064 22.7251 24.0749C22.6559 24.143 22.6054 24.2278 22.5787 24.321C22.552 24.4143 22.5498 24.513 22.5724 24.6073C22.5951 24.7017 22.6418 24.7886 22.7079 24.8596C22.7741 24.9306 22.8575 24.9832 22.9501 25.0124C23.3329 25.1187 23.7413 25.0832 24.1001 24.9124C24.1489 24.9623 24.2073 25.002 24.2717 25.029C24.3361 25.0561 24.4052 25.07 24.4751 25.07C24.5449 25.07 24.614 25.0561 24.6784 25.029C24.7428 25.002 24.8012 24.9623 24.8501 24.9124C24.8999 24.8636 24.9396 24.8052 24.9666 24.7408C24.9937 24.6764 25.0076 24.6073 25.0076 24.5374C25.0076 24.4676 24.9937 24.3985 24.9666 24.3341C24.9396 24.2697 24.8999 24.2113 24.8501 24.1624C24.9961 23.8546 25.0433 23.5091 24.9851 23.1734C24.9269 22.8376 24.7662 22.5282 24.5251 22.2874C24.2246 21.9986 23.8265 21.8331 23.4098 21.8238C22.9931 21.8146 22.5881 21.9622 22.2751 22.2374Z" fill="white"/>
<path d="M61.2501 26.5251C60.4826 27.2862 59.5069 27.8031 58.4461 28.0107C57.3853 28.2183 56.2868 28.1072 55.2891 27.6915C54.2913 27.2757 53.4389 26.574 52.8393 25.6746C52.2398 24.7752 51.9198 23.7185 51.9198 22.6376C51.9198 21.5567 52.2398 20.5 52.8393 19.6006C53.4389 18.7012 54.2913 17.9995 55.2891 17.5837C56.2868 17.168 57.3853 17.0569 58.4461 17.2645C59.5069 17.4721 60.4826 17.989 61.2501 18.7501C61.7633 19.2591 62.1707 19.8647 62.4487 20.5319C62.7267 21.1991 62.8698 21.9148 62.8698 22.6376C62.8698 23.3604 62.7267 24.0761 62.4487 24.7433C62.1707 25.4105 61.7633 26.0161 61.2501 26.5251Z" fill="#CCD8E5"/>
<path d="M53.4374 28.25L53.1749 27.975C53.2873 27.8161 53.34 27.6225 53.3235 27.4286C53.307 27.2346 53.2225 27.0527 53.0848 26.9151C52.9471 26.7774 52.7653 26.6929 52.5713 26.6764C52.3773 26.6599 52.1838 26.7125 52.0249 26.825L51.7499 26.5625C51.7225 26.5342 51.6879 26.514 51.6498 26.5042C51.6116 26.4944 51.5716 26.4954 51.534 26.5071C51.4964 26.5188 51.4628 26.5406 51.4369 26.5703C51.411 26.5999 51.3939 26.6362 51.3874 26.675L51.0249 28.75C51.018 28.7843 51.0197 28.8198 51.0299 28.8532C51.04 28.8867 51.0583 28.9171 51.083 28.9419C51.1077 28.9666 51.1382 28.9848 51.1716 28.995C51.2051 29.0051 51.2406 29.0069 51.2749 29L53.3249 28.6375C53.3695 28.6359 53.4125 28.6202 53.4477 28.5927C53.483 28.5652 53.5086 28.5273 53.5211 28.4844C53.5336 28.4415 53.5322 28.3957 53.5171 28.3537C53.5021 28.3116 53.4742 28.2753 53.4374 28.25Z" fill="#DFE8F4"/>
<path d="M57.7625 22.2749C57.6682 22.187 57.6077 22.0687 57.5917 21.9408C57.5757 21.8128 57.6052 21.6833 57.675 21.5749C57.7197 21.5096 57.7783 21.455 57.8465 21.4149C57.9148 21.3749 57.991 21.3504 58.0698 21.3433C58.1487 21.3361 58.2281 21.3464 58.3024 21.3735C58.3768 21.4006 58.4442 21.4437 58.5 21.4999C58.5664 21.5654 58.6141 21.6474 58.6383 21.7375C58.6624 21.8276 58.6622 21.9225 58.6375 22.0124C58.6174 22.0968 58.617 22.1848 58.6366 22.2693C58.6561 22.3539 58.6949 22.4328 58.75 22.4999C58.818 22.5691 58.9028 22.6195 58.9961 22.6463C59.0894 22.673 59.188 22.6752 59.2824 22.6525C59.3767 22.6299 59.4636 22.5832 59.5346 22.517C59.6056 22.4508 59.6583 22.3674 59.6875 22.2749C59.7926 21.8919 59.7571 21.484 59.5875 21.1249C59.6824 21.0231 59.7352 20.8891 59.7352 20.7499C59.7352 20.6107 59.6824 20.4767 59.5875 20.3749C59.4857 20.28 59.3517 20.2272 59.2125 20.2272C59.0733 20.2272 58.9393 20.28 58.8375 20.3749C58.6294 20.2771 58.4034 20.2232 58.1735 20.2165C57.9437 20.2099 57.7149 20.2506 57.5015 20.3362C57.2881 20.4218 57.0945 20.5504 56.933 20.7141C56.7715 20.8777 56.6453 21.0729 56.5625 21.2874C56.4546 21.5938 56.4362 21.9245 56.5092 22.241C56.5822 22.5575 56.7438 22.8467 56.975 23.0749C57.0719 23.1731 57.1263 23.3056 57.1263 23.4436C57.1263 23.5817 57.0719 23.7142 56.975 23.8124C56.9261 23.8623 56.8678 23.9019 56.8034 23.929C56.739 23.956 56.6698 23.97 56.6 23.97C56.5301 23.97 56.461 23.956 56.3966 23.929C56.3322 23.9019 56.2739 23.8623 56.225 23.8124C56.1586 23.7469 56.1109 23.6649 56.0867 23.5748C56.0626 23.4847 56.0628 23.3898 56.0875 23.2999C56.1102 23.2049 56.1083 23.1058 56.0821 23.0117C56.0558 22.9177 56.0061 22.8319 55.9375 22.7624C55.8695 22.6932 55.7847 22.6428 55.6914 22.616C55.5981 22.5893 55.4995 22.5871 55.4051 22.6098C55.3108 22.6324 55.2239 22.6791 55.1529 22.7453C55.0819 22.8115 55.0292 22.8949 55 22.9874C54.8938 23.3703 54.9293 23.7786 55.1 24.1374C55.0501 24.1863 55.0105 24.2446 54.9834 24.309C54.9564 24.3734 54.9424 24.4426 54.9424 24.5124C54.9424 24.5822 54.9564 24.6514 54.9834 24.7158C55.0105 24.7802 55.0501 24.8385 55.1 24.8874C55.1489 24.9373 55.2072 24.9769 55.2716 25.004C55.336 25.031 55.4051 25.045 55.475 25.045C55.5448 25.045 55.614 25.031 55.6784 25.004C55.7428 24.9769 55.8011 24.9373 55.85 24.8874C56.1578 25.0335 56.5033 25.0806 56.8391 25.0224C57.1748 24.9642 57.4843 24.8035 57.725 24.5624C58.0229 24.2584 58.1928 23.8517 58.1998 23.4261C58.2068 23.0006 58.0503 22.5885 57.7625 22.2749Z" fill="white"/>
<path opacity="0.8" d="M39.9999 70.0001C51.6738 70.0001 61.1374 60.5365 61.1374 48.8626C61.1374 37.1887 51.6738 27.7251 39.9999 27.7251C28.326 27.7251 18.8624 37.1887 18.8624 48.8626C18.8624 60.5365 28.326 70.0001 39.9999 70.0001Z" fill="#6D6DF6"/>
<path d="M40.1001 46.6876C39.6053 46.6958 39.123 46.532 38.7355 46.2243C38.3479 45.9165 38.0792 45.4839 37.9751 45.0001C37.8806 44.5204 37.9597 44.0228 38.1981 43.596C38.4364 43.1692 38.8187 42.8409 39.2766 42.6698C39.7346 42.4986 40.2384 42.4957 40.6983 42.6615C41.1582 42.8273 41.5442 43.1511 41.7876 43.5751C41.9799 43.8932 42.2515 44.156 42.5757 44.3379C42.9 44.5197 43.2658 44.6143 43.6376 44.6126C44.0125 44.6158 44.3818 44.522 44.7098 44.3404C45.0378 44.1588 45.3133 43.8954 45.5095 43.576C45.7057 43.2565 45.816 42.8917 45.8297 42.517C45.8434 42.1424 45.76 41.7705 45.5876 41.4376C44.821 40.1127 43.6131 39.0995 42.1751 38.5751C42.1767 38.3087 42.1255 38.0446 42.0243 37.7982C41.9231 37.5518 41.774 37.3279 41.5857 37.1395C41.3973 36.9511 41.1734 36.802 40.927 36.7009C40.6805 36.5997 40.4165 36.5484 40.1501 36.5501H39.8501C39.5837 36.5484 39.3196 36.5997 39.0732 36.7009C38.8267 36.802 38.6029 36.9511 38.4145 37.1395C38.2261 37.3279 38.077 37.5518 37.9758 37.7982C37.8747 38.0446 37.8234 38.3087 37.8251 38.5751C36.9808 38.8718 36.2073 39.3407 35.5536 39.952C34.9 40.5633 34.3804 41.3037 34.0279 42.1263C33.6754 42.9489 33.4975 43.8357 33.5056 44.7306C33.5138 45.6256 33.7077 46.509 34.0751 47.3251C34.614 48.4542 35.4633 49.4065 36.5236 50.0706C37.5839 50.7347 38.8115 51.0831 40.0626 51.0751C40.4228 51.092 40.7724 51.2024 41.0769 51.3956C41.3814 51.5888 41.6304 51.858 41.7991 52.1767C41.9679 52.4953 42.0507 52.8525 42.0394 53.213C42.0281 53.5734 41.923 53.9247 41.7346 54.2321C41.5461 54.5396 41.2808 54.7926 40.9648 54.9663C40.6487 55.14 40.2929 55.2283 39.9323 55.2225C39.5717 55.2168 39.2189 55.1172 38.9086 54.9335C38.5982 54.7498 38.3411 54.4884 38.1626 54.1751C37.9702 53.857 37.6987 53.5942 37.3744 53.4123C37.0502 53.2305 36.6843 53.1358 36.3126 53.1376C35.9505 53.1479 35.5967 53.2486 35.2834 53.4303C34.97 53.6121 34.707 53.8693 34.5183 54.1784C34.3295 54.4876 34.221 54.8391 34.2026 55.2009C34.1841 55.5626 34.2563 55.9233 34.4126 56.2501C35.1791 57.575 36.387 58.5882 37.8251 59.1126C37.8234 59.379 37.8747 59.643 37.9758 59.8895C38.077 60.1359 38.2261 60.3598 38.4145 60.5482C38.6029 60.7365 38.8267 60.8856 39.0732 60.9868C39.3196 61.088 39.5837 61.1392 39.8501 61.1376H40.1501C40.4165 61.1392 40.6805 61.088 40.927 60.9868C41.1734 60.8856 41.3973 60.7365 41.5857 60.5482C41.774 60.3598 41.9231 60.1359 42.0243 59.8895C42.1255 59.643 42.1767 59.379 42.1751 59.1126C43.6111 58.6182 44.8256 57.631 45.603 56.3263C46.3804 55.0216 46.6705 53.4837 46.4217 51.9854C46.173 50.4872 45.4016 49.1254 44.2444 48.1419C43.0871 47.1583 41.6188 46.6165 40.1001 46.6126V46.6876Z" fill="white"/>
</svg>
