<svg width="296" height="180" viewBox="0 0 296 180" fill="none" xmlns="http://www.w3.org/2000/svg">
<rect width="296" height="180" rx="5" fill="#FF5256"/>
<mask id="mask0" style="mask-type:alpha" maskUnits="userSpaceOnUse" x="0" y="0" width="296" height="180">
<rect width="296" height="180" rx="4" fill="#CFEA06"/>
</mask>
<g mask="url(#mask0)">
</g>
<mask id="mask1" style="mask-type:alpha" maskUnits="userSpaceOnUse" x="0" y="0" width="296" height="180">
<rect width="296" height="180" rx="4" fill="#CFEA06"/>
</mask>
<g mask="url(#mask1)">
<path opacity="0.05" d="M0 180H296L0 0V180Z" fill="url(#paint0_linear)"/>
<path opacity="0.05" d="M0 180L290 108L0 0V180Z" fill="url(#paint1_linear)"/>
<path opacity="0.05" fill-rule="evenodd" clip-rule="evenodd" d="M324.162 157.726C334.613 147.275 334.613 130.332 324.162 119.881L298.119 93.8379C287.668 83.3874 270.724 83.3874 260.274 93.8379L209.837 144.274C204.819 149.292 202 156.099 202 163.196V189.24C202 204.019 213.981 216 228.76 216H254.804C261.901 216 268.707 213.18 273.726 208.162L324.162 157.726Z" fill="url(#paint2_linear)"/>
<path opacity="0.05" fill-rule="evenodd" clip-rule="evenodd" d="M-60.1621 119.726C-70.6126 109.275 -70.6126 92.3318 -60.1621 81.8813L-34.1185 55.8378C-23.668 45.3874 -6.72432 45.3874 3.72618 55.8378L54.1628 106.274C59.1813 111.292 62 118.099 62 125.196V151.24C62 166.019 50.0194 178 35.2398 178H9.19642C2.09916 178 -4.7074 175.18 -9.72593 170.162L-60.1621 119.726Z" fill="url(#paint3_linear)"/>
</g>
<defs>
<linearGradient id="paint0_linear" x1="148" y1="0" x2="148" y2="180" gradientUnits="userSpaceOnUse">
<stop stop-color="white"/>
<stop offset="1" stop-color="white" stop-opacity="0"/>
</linearGradient>
<linearGradient id="paint1_linear" x1="148" y1="0" x2="148" y2="180" gradientUnits="userSpaceOnUse">
<stop stop-color="white"/>
<stop offset="1" stop-color="white" stop-opacity="0"/>
</linearGradient>
<linearGradient id="paint2_linear" x1="265.655" y1="86" x2="265.655" y2="216" gradientUnits="userSpaceOnUse">
<stop stop-color="white"/>
<stop offset="1" stop-color="white" stop-opacity="0"/>
</linearGradient>
<linearGradient id="paint3_linear" x1="-1.65518" y1="48" x2="-1.65518" y2="178" gradientUnits="userSpaceOnUse">
<stop stop-color="white"/>
<stop offset="1" stop-color="white" stop-opacity="0"/>
</linearGradient>
</defs>
</svg>
