<svg width="350" height="213" viewBox="0 0 350 213" fill="none" xmlns="http://www.w3.org/2000/svg">
<rect width="350" height="212.838" rx="5" fill="#6959AB"/>
<mask id="mask0" style="mask-type:alpha" maskUnits="userSpaceOnUse" x="0" y="0" width="350" height="213">
<rect width="350" height="212.838" rx="4" fill="#CFEA06"/>
</mask>
<g mask="url(#mask0)">
</g>
<mask id="mask1" style="mask-type:alpha" maskUnits="userSpaceOnUse" x="0" y="0" width="350" height="213">
<rect width="350" height="212.838" rx="4" fill="#CFEA06"/>
</mask>
<g mask="url(#mask1)">
<path opacity="0.05" d="M0 212.838H350L0 0V212.838Z" fill="url(#paint0_linear)"/>
<path opacity="0.05" d="M0 212.838L342.905 127.703L0 0V212.838Z" fill="url(#paint1_linear)"/>
<path opacity="0.05" fill-rule="evenodd" clip-rule="evenodd" d="M383.3 186.498C395.657 174.142 395.657 154.107 383.3 141.75L352.505 110.955C340.148 98.5983 320.114 98.5983 307.757 110.955L248.119 170.592C242.185 176.526 238.852 184.575 238.852 192.967V223.762C238.852 241.237 253.018 255.404 270.494 255.404H301.288C309.68 255.404 317.729 252.07 323.663 246.136L383.3 186.498Z" fill="url(#paint2_linear)"/>
<path opacity="0.05" fill-rule="evenodd" clip-rule="evenodd" d="M-71.1375 141.567C-83.4945 129.21 -83.4945 109.175 -71.1375 96.8182L-40.3427 66.0236C-27.9857 53.6666 -7.95092 53.6666 4.40609 66.0236L64.044 125.661C69.978 131.595 73.3109 139.643 73.3109 148.035V178.83C73.3109 196.305 59.1447 210.472 41.6688 210.472H10.8743C2.48225 210.472 -5.56605 207.138 -11.5001 201.204L-71.1375 141.567Z" fill="url(#paint3_linear)"/>
</g>
<defs>
<linearGradient id="paint0_linear" x1="175" y1="0" x2="175" y2="212.838" gradientUnits="userSpaceOnUse">
<stop stop-color="white"/>
<stop offset="1" stop-color="white" stop-opacity="0"/>
</linearGradient>
<linearGradient id="paint1_linear" x1="175" y1="0" x2="175" y2="212.838" gradientUnits="userSpaceOnUse">
<stop stop-color="white"/>
<stop offset="1" stop-color="white" stop-opacity="0"/>
</linearGradient>
<linearGradient id="paint2_linear" x1="314.12" y1="101.687" x2="314.12" y2="255.404" gradientUnits="userSpaceOnUse">
<stop stop-color="white"/>
<stop offset="1" stop-color="white" stop-opacity="0"/>
</linearGradient>
<linearGradient id="paint3_linear" x1="-1.957" y1="56.7559" x2="-1.957" y2="210.472" gradientUnits="userSpaceOnUse">
<stop stop-color="white"/>
<stop offset="1" stop-color="white" stop-opacity="0"/>
</linearGradient>
</defs>
</svg>
