<svg width="55" height="55" viewBox="0 0 55 55" fill="none" xmlns="http://www.w3.org/2000/svg">
<g clip-path="url(#clip0)">
<path d="M48.969 49.8474C40.553 56.7176 14.2746 56.7176 6.0304 49.8474C-2.38557 42.9772 -1.52681 13.6072 6.0304 5.87825C13.5876 -1.85069 41.4118 -1.85069 48.969 5.87825C56.5262 13.6072 57.385 42.9773 48.969 49.8474Z" fill="#8DC640"/>
<g opacity="0.2">
<path opacity="0.7" d="M27.6718 37.8246C20.1146 43.836 11.6986 46.9276 3.79794 47.0993C-2.04176 37.1375 -0.839424 12.9202 6.03076 5.8783C12.2139 -0.476578 31.6221 -1.67891 42.7862 2.27142C45.5342 13.6072 39.8664 28.0345 27.6718 37.8246Z" fill="white"/>
</g>
<path d="M23.5498 42.8054C22.3475 42.8054 21.1452 42.2901 20.4582 41.2596L10.84 28.8933C9.46597 27.1758 9.80954 24.7713 11.5271 23.3972C13.2446 22.0231 15.6491 22.3667 17.0232 24.0842L23.5498 32.5002L37.9772 13.779C39.3513 12.0615 41.7558 11.7179 43.4733 13.092C45.1908 14.466 45.5344 16.8706 44.1603 18.5881L26.6414 41.2596C25.7826 42.1184 24.7521 42.8054 23.5498 42.8054Z" fill="white"/>
</g>
<defs>
<clipPath id="clip0">
<rect width="55" height="55" fill="white"/>
</clipPath>
</defs>
</svg>
