<svg width="148" height="148" viewBox="0 0 148 148" fill="none" xmlns="http://www.w3.org/2000/svg">
<path d="M35 78.6733L34 80L33 78.6733L33.898 65.1354C33.898 65.0995 33.9087 65.065 33.9279 65.0397C33.947 65.0143 33.9729 65 34 65C34.0271 65 34.053 65.0143 34.0722 65.0397C34.0913 65.065 34.102 65.0995 34.102 65.1354L35 78.6733Z" fill="url(#paint0_linear)"/>
<path d="M31.8207 85H34V80H31L31.8207 85Z" fill="url(#paint1_linear)"/>
<path d="M37 80H34V85H36.1793L37 80Z" fill="url(#paint2_linear)"/>
<path d="M30.1831 80H27L28.2676 85H31L30.1831 80Z" fill="url(#paint3_linear)"/>
<path d="M37.8169 80L37 85H39.7324L41 80H37.8169Z" fill="url(#paint4_linear)"/>
<path d="M27.249 80H40.751C40.817 80 40.8804 79.9725 40.9271 79.9236C40.9738 79.8747 41 79.8083 41 79.7391V79.1594C41 78.8519 40.8834 78.557 40.6759 78.3396C40.4683 78.1222 40.1868 78 39.8933 78H28.1067C27.8132 78 27.5317 78.1222 27.3241 78.3396C27.1166 78.557 27 78.8519 27 79.1594V79.7391C27 79.8083 27.0262 79.8747 27.0729 79.9236C27.1196 79.9725 27.183 80 27.249 80Z" fill="url(#paint5_linear)"/>
<path d="M48.9997 132.922C48.9961 131.925 48.6584 130.956 48.0373 130.161C47.4162 129.367 46.5454 128.789 45.5563 128.516C45.2341 128.427 44.9407 128.259 44.7037 128.029C44.4667 127.799 44.2939 127.515 44.2016 127.202C43.8722 126.2 43.1981 125.337 42.2918 124.758C41.3855 124.179 40.3018 123.919 39.2217 124.022C38.1416 124.124 37.1305 124.583 36.3571 125.321C35.5837 126.06 35.0949 127.033 34.9722 128.078C34.9321 128.424 34.9321 128.773 34.9722 129.118C35.0135 129.458 34.9561 129.802 34.8064 130.111C34.6568 130.421 34.421 130.683 34.1255 130.87C33.5361 131.248 33.0414 131.749 32.6774 132.336C32.3134 132.924 32.0894 133.582 32.0218 134.264C31.9541 134.946 32.0446 135.635 32.2865 136.278C32.5284 136.922 32.9156 137.505 33.4199 137.986C33.7184 138.256 33.9582 138.582 34.1255 138.943C34.3818 139.536 34.8134 140.043 35.3659 140.398C35.9184 140.754 36.5671 140.943 37.2302 140.941H37.6535C38.4141 140.832 39.1905 140.977 39.855 141.352C40.5721 141.766 41.3893 141.99 42.224 142C43.0587 142.01 43.8813 141.806 44.6087 141.409C45.3361 141.012 45.9425 140.435 46.3666 139.738C46.7907 139.041 47.0175 138.248 47.024 137.438C47.024 137.223 47.069 137.01 47.1564 136.813C47.2437 136.615 47.3715 136.437 47.532 136.289C48.0023 135.856 48.3754 135.333 48.628 134.754C48.8805 134.175 49.0071 133.551 48.9997 132.922Z" fill="url(#paint6_linear)"/>
<path d="M21.9491 71.5212C21.8926 71.3687 21.7928 71.2374 21.6628 71.1444C21.5327 71.0515 21.3785 71.0013 21.2204 71.0004H18.4174C17.8575 70.9924 17.3026 71.1109 16.7917 71.3476L6.78519 75.8906C6.65865 75.9545 6.51965 75.9877 6.37878 75.9877C6.2379 75.9877 6.09889 75.9545 5.97235 75.8906L5.15949 75.4566C5.04707 75.3957 4.92204 75.3639 4.79511 75.3639C4.66818 75.3639 4.54314 75.3957 4.43072 75.4566H4.15043C4.10418 75.4882 4.06624 75.5312 4.03999 75.5817C4.01374 75.6322 4 75.6886 4 75.7459C4 75.8032 4.01374 75.8596 4.03999 75.9101C4.06624 75.9606 4.10418 76.0036 4.15043 76.0353L5.86023 77.7425C5.98084 77.8619 6.13133 77.9441 6.29476 77.9798C6.45818 78.0156 6.62804 78.0036 6.78519 77.9451L10.3449 76.614L16.1751 74.5595L21.5006 72.5629C21.6932 72.4853 21.8484 72.3323 21.9324 72.1373C22.0163 71.9422 22.0224 71.7208 21.9491 71.5212Z" fill="url(#paint7_linear)"/>
<path d="M16 74.6416L7.25911 71.099C6.90359 70.967 6.50783 70.967 6.15231 71.099C6.10548 71.1282 6.06705 71.1678 6.04048 71.2142C6.0139 71.2607 6 71.3126 6 71.3654C6 71.4181 6.0139 71.4701 6.04048 71.5165C6.06705 71.563 6.10548 71.6026 6.15231 71.6317L11.8282 76" fill="url(#paint8_linear)"/>
<path d="M17.4006 46C17.4006 46 2.26381 67.7487 2.00677 83.5937C1.74973 99.4388 8.83263 116.203 19 124" fill="#6D6DF6"/>
<path d="M26.4362 32.7852C24.8564 30.4021 24.02 27.6243 24.0283 24.7881C23.925 23.0746 24.1701 21.358 24.7496 19.7369C25.329 18.1158 26.2315 16.6219 27.4053 15.341C28.5791 14.06 30.001 13.0172 31.5896 12.2723C33.1782 11.5274 34.9022 11.095 36.6628 11C39.0233 11.0555 41.3193 11.7611 43.2847 13.0349C45.2502 14.3088 46.8045 16.0988 47.7675 18.1974L51.7618 25.6154C51.9009 25.8766 51.9811 26.1637 51.997 26.4575C52.013 26.7513 51.9644 27.045 51.8545 27.3191C51.7445 27.5931 51.5758 27.8412 51.3595 28.0467C51.1433 28.2523 50.8845 28.4105 50.6004 28.5109C50.174 28.676 49.7986 28.9455 49.5108 29.2934C49.2229 29.6413 49.0322 30.0557 48.9573 30.4964C48.8391 31.7814 48.4138 33.0217 47.7153 34.1182C47.0169 35.2147 46.0646 36.137 44.9347 36.8113C44.1447 37.2501 43.4749 37.8676 42.9818 38.6116C42.4888 39.3556 42.1869 40.2041 42.1019 41.0856L41.3653 49L24 45.5254C30.7705 40.672 26.4362 32.7852 26.4362 32.7852Z" fill="#F9AA8F"/>
<path d="M40.3199 12.2744L40.9372 12C43.7016 13.2514 45.9339 15.4057 47.2503 18.0926V18.3396C46.8575 18.7787 45.8754 19.9039 45.8754 20.3156C45.8754 20.7273 48.9618 26.2436 49.1583 27.1767C49.1899 27.4326 49.2826 27.6777 49.4288 27.8922C49.575 28.1067 49.7706 28.2846 50 28.4117C49.639 28.5498 49.3135 28.764 49.0468 29.0391C48.7801 29.3142 48.5786 29.6435 48.4568 30.0034L47.9517 29.5094C47.9517 29.5094 47.6712 24.0206 44.5286 24.0206C41.3861 24.0206 41.2738 33.928 44.2761 32.2539C46.6049 31.0463 45.7351 34.4494 45.202 36.0412L44.3883 36.5626C43.6059 36.9993 42.9425 37.6138 42.4541 38.3543C41.9657 39.0947 41.6668 39.9392 41.5825 40.8165L41.33 43.5609L41.0774 44C41.0774 44 40.6846 41.2556 34.9607 38.5112C32.6326 37.3146 29.9345 37.0018 27.385 37.6329C27.2874 35.8575 26.8195 34.1203 26.0101 32.5283C25.6308 31.9673 25.2932 31.3803 25 30.7719C25 26.7925 25.2245 22.8405 25.2806 22.813L40.3199 12.2744Z" fill="url(#paint9_linear)"/>
<path d="M50.4609 28.1407C50.4609 28.1407 49.5145 29.2101 52.5209 37.231C55.5273 45.2518 53.9962 50.2613 47.5102 51.9218C41.0242 53.5823 40.1891 28.2814 36.2084 25.073C32.2277 21.8647 31.8936 28.5628 34.0092 30.3358C36.1248 32.1089 38.0734 36.1615 32.7287 35.1484C27.384 34.1352 27.9964 36.2178 27.1613 35.1484C25.7496 30.6184 23.1066 26.581 19.534 23.497C15.4419 19.4162 35.93 -4.95593 44.8657 2.36134C53.8014 9.67862 48.3175 15.5324 44.0862 19.2474C39.855 22.9623 40.6344 32.0244 42.1376 33.319C43.6408 34.6136 44.6987 31.9119 46.9813 30.1107C47.9985 29.2243 49.1819 28.5543 50.4609 28.1407Z" fill="url(#paint10_linear)"/>
<path d="M36.1509 25.5278C32.1038 22.3611 31.7641 28.9722 33.9151 30.7222C36.066 32.4722 38.0472 36.4722 32.6132 35.4722C27.1792 34.4722 27.8019 36.5278 26.9528 35.4722C25.5097 30.9979 22.8125 27.0126 19.1698 23.9722L19 23.7778C20.4434 24.75 25.9623 24.5278 29.9528 19.6944C34.5943 14.1389 35.1604 19.1389 38.6698 20.6389C42.1792 22.1389 46.849 17.1944 47.1604 17C46.2849 17.9903 45.3392 18.9186 44.3302 19.7778C40.0283 23.3889 40.8208 32.3889 42.3491 33.6667C43.8774 34.9444 44.9528 32.2778 47.2736 30.5C48.2491 29.6472 49.383 28.987 50.6132 28.5556C49.7924 29.1944 48.0377 31.1667 46.0283 37.3056C43.1981 45.8611 52 49.8333 52 49.8333C50.7469 50.9065 49.238 51.6518 47.6132 52H47.1321L45.1509 51.1944C40.7358 47.1111 39.6321 28.25 36.1509 25.5278Z" fill="url(#paint11_linear)"/>
<path d="M38.5985 114.136C40.38 120.665 40.2704 129.669 39.3385 144C31.7012 139.669 24.8514 138.055 19.0838 131.4C16.946 115.076 15 104.369 15 104.369C15 104.369 33.2539 94.7964 38.5985 114.136Z" fill="#31337F"/>
<path d="M54.3806 112.41C56.5392 120.191 56.2589 129.261 55.1655 147C48.416 146.964 41.9748 146.027 36.0179 142.27C32.2052 120.515 28 109.76 28 109.76C28 109.76 48.9699 92.9134 54.3806 112.41Z" fill="#363694"/>
<path d="M32.0064 42.0452C52.547 43.2675 53.3946 62.7142 53.3946 62.7142C56.4101 85.4584 57.9483 108.368 58 131.305C57.9852 131.764 57.7873 132.2 57.449 132.517C57.1106 132.834 56.6591 133.007 56.1918 133C11.4093 131.889 5.16521 88.5504 4.37411 80.4939C4.37411 79.7438 4.23283 78.9937 4.14807 78.2437C2.76363 65.7978 11.0138 40.795 32.0064 42.0452Z" fill="#6D6DF6"/>
<path opacity="0.5" d="M31.6816 42.0454C51.984 43.2729 52.8218 62.8017 52.8218 62.8017C53.6875 69.6368 54.4135 76.2487 55 82.4979L54.4136 106.211C47.6633 100.347 39.469 96.3892 30.6763 94.7452C7.80469 90.4768 21.1534 121.416 32.8266 128C9.00552 115.892 4.90036 87.1848 4.36976 80.5729C4.36976 79.8197 4.23013 79.0664 4.14635 78.3131C2.77797 65.8984 10.9324 40.79 31.6816 42.0454Z" fill="#363694"/>
<path d="M105.221 71.9999H98.4037C97.9713 72.0045 97.5457 71.8953 97.1729 71.6843C96.8001 71.4732 96.4941 71.1681 96.2878 70.8019C96.0816 70.4357 95.9829 70.0222 96.0024 69.606C96.0219 69.1898 96.1589 68.7866 96.3986 68.4398L104.19 56.9318C104.595 56.3369 105.147 55.8486 105.797 55.5113C106.448 55.174 107.175 54.9983 107.913 55H114.759C114.983 54.9984 115.204 55.0558 115.396 55.1659C115.589 55.276 115.747 55.4348 115.853 55.625C115.959 55.8152 116.01 56.0298 115.998 56.2455C115.987 56.4612 115.915 56.6699 115.79 56.849L105.708 71.7239C105.656 71.8048 105.585 71.8723 105.5 71.9204C105.415 71.9685 105.319 71.9958 105.221 71.9999Z" fill="url(#paint12_linear)"/>
<path d="M95.4893 76.8273C96.0611 74.5862 96.9681 72.4344 98.1826 70.4377C99.5089 68.9603 105.867 67.4232 108.135 66.2256C110.404 65.0281 111.613 66.5908 109.387 68.2168C107.161 69.8428 103.994 78.8167 100.074 78.889C96.1533 78.9613 94.6937 78.8562 95.4893 76.8273Z" fill="url(#paint13_linear)"/>
<path d="M48.852 49.1714C48.852 49.1714 53.8279 54.1458 63.1721 74.5462C71.851 93.4375 79.4017 92.7948 94.9948 74.8815C95.6713 74.0833 96.6189 73.5426 97.6691 73.3557C98.7194 73.1687 99.8042 73.3476 100.731 73.8605C101.657 74.3734 102.366 75.1871 102.73 76.1569C103.094 77.1267 103.09 78.1899 102.719 79.1572L102.545 79.5205C100.086 84.4949 82.584 114.872 57.7044 106.572C32.8249 98.2722 21.5424 45.6223 48.852 49.1714Z" fill="#6D6DF6"/>
<path d="M115.827 1H83.1873C80.2057 1.0139 77.3501 2.20453 75.2417 4.31292C73.1333 6.4213 71.9427 9.2769 71.9288 12.2586V29.7014C71.9427 32.6831 73.1333 35.5387 75.2417 37.6471C77.3501 39.7555 80.2057 40.9461 83.1873 40.96H87.1516C87.466 40.946 87.7764 41.0343 88.0363 41.2118C88.2962 41.3893 88.4914 41.6463 88.5927 41.9442C88.694 42.2421 88.6959 42.5649 88.5981 42.864C88.5002 43.1631 88.308 43.4224 88.0502 43.6029C86.5001 44.9213 84.7034 45.9185 82.7645 46.5364C85.0379 47.0903 87.407 47.1237 89.6951 46.6341C91.9832 46.1444 94.1312 45.1444 95.9788 43.7086C98.2482 41.9592 101.042 41.0279 103.907 41.0657H115.827C118.808 41.0518 121.664 39.8612 123.772 37.7528C125.881 35.6444 127.071 32.7888 127.085 29.8071V12.2586C127.071 9.2769 125.881 6.4213 123.772 4.31292C121.664 2.20453 118.808 1.0139 115.827 1Z" fill="#FFB573"/>
<path d="M125.948 34.5377C125.035 36.4509 123.601 38.0681 121.811 39.2039C120.02 40.3398 117.946 40.9483 115.826 40.9599H103.96C101.095 40.9221 98.3008 41.8534 96.0313 43.6027C94.1838 45.0385 92.0358 46.0386 89.7477 46.5282C87.4596 47.0179 85.0905 46.9845 82.8171 46.4306C84.7559 45.8126 86.5527 44.8155 88.1028 43.497C88.3606 43.3165 88.5528 43.0572 88.6506 42.7582C88.7485 42.4591 88.7466 42.1363 88.6453 41.8384C88.544 41.5404 88.3487 41.2834 88.0889 41.1059C87.829 40.9284 87.5186 40.8401 87.2042 40.8541H83.2399C80.2672 40.8544 77.4139 39.6845 75.2971 37.5974C73.1803 35.5102 71.9702 32.6737 71.9285 29.7013V12.2584C71.9393 10.2053 72.5113 8.19411 73.5827 6.44261C74.6541 4.6911 76.1841 3.26593 78.0071 2.32129C87.7499 4.20265 97.0149 8.02426 105.251 13.5588C113.487 19.0934 120.526 26.2278 125.948 34.5377Z" fill="#F2994A"/>
<path d="M101.471 18.1741H98.9554C98.7617 18.1741 98.5759 18.1032 98.439 17.9771C98.302 17.851 98.2251 17.68 98.2251 17.5016V16.8292C98.2251 16.6508 98.302 16.4798 98.439 16.3537C98.5759 16.2276 98.7617 16.1567 98.9554 16.1567H102.769C103.319 16.1751 103.858 16.0121 104.29 15.6971C104.721 15.3821 105.016 14.9357 105.122 14.4383C105.169 14.1525 105.148 13.861 105.061 13.5832C104.975 13.3055 104.825 13.0481 104.621 12.8285C104.417 12.6089 104.164 12.4322 103.88 12.3103C103.595 12.1884 103.286 12.1242 102.972 12.1221H101.714C101.55 11.7509 101.269 11.4333 100.908 11.2097C100.546 10.9861 100.121 10.8667 99.6856 10.8667C99.2503 10.8667 98.8249 10.9861 98.4636 11.2097C98.1023 11.4333 97.8215 11.7509 97.6571 12.1221C96.5117 12.3445 95.484 12.9221 94.7455 13.7585C94.0071 14.5948 93.6028 15.6392 93.6001 16.7171V17.3896C93.6053 18.5635 94.0868 19.6932 94.9499 20.5572C95.8131 21.4211 96.9957 21.9568 98.2657 22.0593H100.781C100.975 22.0593 101.16 22.1302 101.297 22.2563C101.434 22.3824 101.511 22.5534 101.511 22.7318V23.4042C101.511 23.5825 101.434 23.7536 101.297 23.8797C101.16 24.0058 100.975 24.0766 100.781 24.0766H96.9674C96.4173 24.0583 95.878 24.2213 95.4467 24.5363C95.0154 24.8513 94.7202 25.2977 94.6144 25.7951C94.5679 26.0809 94.5886 26.3724 94.675 26.6502C94.7615 26.9279 94.9118 27.1853 95.1157 27.4049C95.3196 27.6245 95.5723 27.8012 95.8568 27.9231C96.1412 28.045 96.4508 28.1092 96.7646 28.1113H97.8194C97.9838 28.4825 98.2646 28.8001 98.6259 29.0237C98.9872 29.2473 99.4126 29.3667 99.8479 29.3667C100.283 29.3667 100.709 29.2473 101.07 29.0237C101.431 28.8001 101.712 28.4825 101.876 28.1113C103.022 27.8889 104.05 27.3112 104.788 26.4749C105.526 25.6385 105.931 24.5942 105.933 23.5163V22.8438C105.934 21.6988 105.481 20.593 104.659 19.7334C103.838 18.8739 102.704 18.3195 101.471 18.1741Z" fill="url(#paint14_linear)"/>
<defs>
<linearGradient id="paint0_linear" x1="34" y1="77.4278" x2="34" y2="29.3953" gradientUnits="userSpaceOnUse">
<stop stop-color="white"/>
<stop offset="0.84" stop-color="#CDDFEC"/>
</linearGradient>
<linearGradient id="paint1_linear" x1="2249.44" y1="244.2" x2="2249.44" y2="212.5" gradientUnits="userSpaceOnUse">
<stop stop-color="white"/>
<stop offset="0.84" stop-color="#CDDFEC"/>
</linearGradient>
<linearGradient id="paint2_linear" x1="2248.81" y1="244.2" x2="2248.81" y2="212.5" gradientUnits="userSpaceOnUse">
<stop stop-color="white"/>
<stop offset="0.84" stop-color="#CDDFEC"/>
</linearGradient>
<linearGradient id="paint3_linear" x1="2989.32" y1="244.2" x2="2989.32" y2="212.5" gradientUnits="userSpaceOnUse">
<stop stop-color="white"/>
<stop offset="0.84" stop-color="#CDDFEC"/>
</linearGradient>
<linearGradient id="paint4_linear" x1="2985.68" y1="244.2" x2="2985.68" y2="212.5" gradientUnits="userSpaceOnUse">
<stop stop-color="white"/>
<stop offset="0.84" stop-color="#CDDFEC"/>
</linearGradient>
<linearGradient id="paint5_linear" x1="-8129.31" y1="150.231" x2="-8129.31" y2="131.571" gradientUnits="userSpaceOnUse">
<stop stop-color="white"/>
<stop offset="0.84" stop-color="#CDDFEC"/>
</linearGradient>
<linearGradient id="paint6_linear" x1="-10266.9" y1="1103.38" x2="-10266.9" y2="833.92" gradientUnits="userSpaceOnUse">
<stop offset="0.02" stop-color="#EDD7AD"/>
<stop offset="0.52" stop-color="#FF9661"/>
<stop offset="1" stop-color="#E74A69"/>
</linearGradient>
<linearGradient id="paint7_linear" x1="13439.9" y1="330.84" x2="13439.9" y2="190.77" gradientUnits="userSpaceOnUse">
<stop stop-color="white"/>
<stop offset="0.84" stop-color="#CDDFEC"/>
</linearGradient>
<linearGradient id="paint8_linear" x1="7472.7" y1="223.15" x2="7478.48" y2="188.309" gradientUnits="userSpaceOnUse">
<stop stop-color="white"/>
<stop offset="0.84" stop-color="#CDDFEC"/>
</linearGradient>
<linearGradient id="paint9_linear" x1="22.2222" y1="10.8748" x2="45.7572" y2="37.9581" gradientUnits="userSpaceOnUse">
<stop stop-color="#FBC19E"/>
<stop offset="0.48" stop-color="#FFB699"/>
<stop offset="1" stop-color="#F47E6D"/>
</linearGradient>
<linearGradient id="paint10_linear" x1="17.0568" y1="-4.64619" x2="67.8338" y2="58.1342" gradientUnits="userSpaceOnUse">
<stop offset="0.0822436" stop-color="#8E241C"/>
<stop offset="0.787268" stop-color="#64241C"/>
</linearGradient>
<linearGradient id="paint11_linear" x1="-1752.11" y1="768.8" x2="-1260.65" y2="462.568" gradientUnits="userSpaceOnUse">
<stop offset="0.32" stop-color="#8E241C"/>
<stop offset="0.75" stop-color="#64241C"/>
</linearGradient>
<linearGradient id="paint12_linear" x1="80.616" y1="6.48429" x2="107.86" y2="71.7463" gradientUnits="userSpaceOnUse">
<stop stop-color="#3DB6D3"/>
<stop offset="0.5" stop-color="#3D6FD3"/>
<stop offset="1" stop-color="#252784"/>
</linearGradient>
<linearGradient id="paint13_linear" x1="144.737" y1="65.4845" x2="88.6829" y2="76.0506" gradientUnits="userSpaceOnUse">
<stop stop-color="#F9D5C5"/>
<stop offset="1" stop-color="#F78E6B"/>
</linearGradient>
<linearGradient id="paint14_linear" x1="211.254" y1="28.0363" x2="211.254" y2="-13.0576" gradientUnits="userSpaceOnUse">
<stop stop-color="#F3F3F3"/>
<stop offset="1" stop-color="white"/>
</linearGradient>
</defs>
</svg>
