<svg width="148" height="148" viewBox="0 0 148 148" fill="none" xmlns="http://www.w3.org/2000/svg">
<path d="M132.441 100.033C134.574 100.033 136.304 98.2933 136.304 96.1477C136.304 94.0021 134.574 92.2627 132.441 92.2627C130.307 92.2627 128.578 94.0021 128.578 96.1477C128.578 98.2933 130.307 100.033 132.441 100.033Z" fill="url(#paint0_linear)"/>
<path d="M127.947 105.846C130.081 105.846 131.81 104.107 131.81 101.961C131.81 99.8155 130.081 98.0762 127.947 98.0762C125.814 98.0762 124.084 99.8155 124.084 101.961C124.084 104.107 125.814 105.846 127.947 105.846Z" fill="url(#paint1_linear)"/>
<path d="M133.728 105.846C135.861 105.846 137.591 104.107 137.591 101.961C137.591 99.8155 135.861 98.0762 133.728 98.0762C131.595 98.0762 129.865 99.8155 129.865 101.961C129.865 104.107 131.595 105.846 133.728 105.846Z" fill="url(#paint2_linear)"/>
<path d="M129.235 111.661C131.368 111.661 133.097 109.921 133.097 107.776C133.097 105.63 131.368 103.891 129.235 103.891C127.101 103.891 125.372 105.63 125.372 107.776C125.372 109.921 127.101 111.661 129.235 111.661Z" fill="url(#paint3_linear)"/>
<path d="M124.768 117.475C126.901 117.475 128.63 115.736 128.63 113.59C128.63 111.444 126.901 109.705 124.768 109.705C122.634 109.705 120.905 111.444 120.905 113.59C120.905 115.736 122.634 117.475 124.768 117.475Z" fill="url(#paint4_linear)"/>
<path d="M106.688 116.709C106.688 116.709 116.937 105.186 125.635 104.79C134.333 104.393 132.362 100.482 130.89 102.807C129.419 105.133 125.898 115.097 124.084 115.44C120.786 116.736 117.216 117.172 113.705 116.709" fill="#FBC19E"/>
<path d="M145.764 81.7701H136.304C135.912 81.7669 135.525 81.8679 135.184 82.0628C134.842 82.2576 134.558 82.5395 134.36 82.8801L121.615 104.631C121.358 105.064 121.206 105.553 121.171 106.056C121.136 106.559 121.219 107.064 121.413 107.53C121.607 107.995 121.907 108.408 122.289 108.735C122.671 109.063 123.124 109.295 123.612 109.414L133.203 111.793L147.709 85.1265C147.902 84.7846 148.003 84.3977 148 84.0044C147.998 83.6112 147.894 83.2254 147.697 82.8856C147.5 82.5458 147.218 82.2639 146.879 82.0682C146.54 81.8724 146.155 81.7696 145.764 81.7701Z" fill="url(#paint5_linear)"/>
<path d="M136.382 84.0693H143.609C143.71 84.0696 143.81 84.0966 143.897 84.1478C143.985 84.1989 144.058 84.2723 144.108 84.3606C144.159 84.449 144.185 84.5492 144.185 84.6511C144.185 84.7531 144.159 84.8532 144.108 84.9415L133.15 104.789H126.108C125.915 104.788 125.726 104.735 125.559 104.637C125.393 104.539 125.255 104.399 125.159 104.23C125.063 104.062 125.013 103.871 125.014 103.677C125.014 103.483 125.065 103.292 125.162 103.124L135.883 84.3865C135.93 84.2934 136.001 84.2148 136.089 84.159C136.177 84.1031 136.278 84.0722 136.382 84.0693Z" fill="#6FCF97"/>
<path d="M71.1341 126.62L13.7957 116.709C13.7957 116.709 14.1373 117.37 14.7679 118.453C21.6217 127.627 30.5028 135.072 40.7094 140.2C50.916 145.328 62.1686 147.998 73.5779 148C75.8378 148 78.0714 148 80.3051 147.683C88.0846 145.834 95.2662 142.018 101.17 136.598C107.075 131.178 111.506 124.332 114.046 116.709H106.688C106.688 116.709 90.0016 133.306 71.1341 126.62Z" fill="#5252C5"/>
<path d="M126.371 112.374C127.482 108.969 127.815 105.355 127.343 101.803C126.423 96.7814 137.486 86.3421 137.434 89.3286C137.381 92.315 133.387 95.4071 133.571 97.5478C133.755 99.6885 142.821 104.974 130.391 116.629" fill="#FFCDBC"/>
<path d="M72.5537 16.5442L73.4471 41.0699C73.489 41.592 73.3859 42.1156 73.1493 42.5822C72.9127 43.0489 72.5518 43.4403 72.1069 43.7127C71.1291 44.3099 70.4077 45.2522 70.0835 46.3556C69.2164 49.5006 66.8776 55.7377 61.9374 54.4956C55.3679 52.8306 50.5328 57.1384 48.7984 62.8998L28.4856 54.5484C28.4856 54.5484 32.6375 21.5127 47.721 14.6677C62.8046 7.82273 72.5537 16.5442 72.5537 16.5442Z" fill="#FFCCBB"/>
<path d="M73.1575 42.286C72.7107 42.286 71.0815 41.9424 71.0552 40.8324C71.0289 39.7224 69.8464 31.0803 70.5297 30.8689C71.2129 30.6574 72.2903 30.1553 73.0261 29.8117L72.5531 16.5974L71.7384 15.8574L66.9559 15.3289L47.1686 15.0117C40.6517 18.3417 36.237 26.5346 33.3464 34.5953V34.7803L32.9522 35.8903C32.707 36.595 32.4792 37.291 32.269 37.9781V38.3746L32.0062 39.2731L31.8486 39.8546L31.5332 41.0174L31.2967 41.8631L31.1128 42.5238L30.9026 43.3167L30.7712 43.8717L30.4821 45.0874V45.4574L30.2719 46.3824V46.7788L30.0354 47.836L30.4296 54.8924L49.0869 62.5567C49.6123 60.0964 50.9552 57.8894 52.8945 56.2993C54.8338 54.7092 57.2537 53.8308 59.7557 53.8088C59.4929 53.8088 59.1776 53.6238 58.8097 53.4653C50.0592 49.501 54.9731 30.3667 65.931 34.0139C72.1589 36.1017 70.2932 46.0124 70.2932 46.0124C70.4196 45.5538 70.6146 45.1172 70.8713 44.7174C71.116 44.3307 71.4172 43.9833 71.7647 43.6867C71.9376 43.5317 72.1221 43.3903 72.3166 43.2638C72.6688 43.0083 72.9568 42.6734 73.1575 42.286Z" fill="#FFD6BD"/>
<path d="M64.1707 70.7756L63.8028 70.2999C60.1831 65.7217 55.1708 62.4632 49.5339 61.0235L48.3514 60.7592C35.2125 58.4599 26.3568 62.3713 19.8136 68.2385C14.5439 73.083 10.9651 79.5052 9.60679 86.5544C8.24851 93.6037 9.18296 100.906 12.2718 107.379C15.2675 113.775 24.386 121.281 28.5379 132.486C41.4145 142.558 57.2659 148.018 73.5782 148C74.8396 148 76.1009 148 77.3622 148C78.2139 140.542 77.966 132.999 76.6265 125.615C75.9432 121.888 75.2863 118.241 74.6819 114.726C74.0255 110.903 74.5673 106.968 76.2323 103.468C77.29 101.252 78.1688 98.9539 78.8601 96.5963C79.326 94.8572 79.3662 93.0304 78.9772 91.2723C78.5882 89.5142 77.7817 87.8769 76.6265 86.5006L64.1707 70.7756Z" fill="#6D6DF6"/>
<path opacity="0.5" d="M64.5386 71.2249L64.1707 70.7756L63.8028 70.2999C60.1831 65.7217 55.1709 62.4632 49.5339 61.0235L48.3514 60.7592C35.2125 58.4599 26.3568 62.3713 19.8136 68.2385C14.5439 73.083 10.9651 79.5052 9.60679 86.5544C8.24851 93.6037 9.18296 100.906 12.2718 107.379C15.2675 113.775 24.386 121.281 28.5379 132.486C35.7827 138.144 44.0188 142.384 52.8187 144.987C51.8727 142.344 50.9004 139.701 49.9544 136.398C43.2798 113.484 73.6045 130.557 73.6045 130.557L75.5491 120.805C75.1812 118.717 74.8133 116.682 74.4717 114.673C73.8025 110.907 74.3264 107.024 75.9695 103.573C76.3374 102.807 76.6527 102.041 76.9681 101.274C74.1568 96.4707 72.2588 91.1831 71.3709 85.6813C70.2374 80.3954 67.8985 75.4465 64.5386 71.2249Z" fill="#363694"/>
<path d="M59.3879 73.6565C57.7701 72.114 55.7887 71.0109 53.6301 70.451C51.4716 69.8911 49.2068 69.8927 47.0491 70.4557C44.8913 71.0187 42.9115 72.1246 41.2958 73.6694C39.6802 75.2141 38.4819 77.1468 37.8137 79.2858C35.0283 89.0379 37.9977 104.604 65.8786 125.192C115.754 162.113 130.969 116.286 130.969 116.286C130.969 116.286 128.998 110.128 126.186 110.63C126.186 110.63 98.4369 142.159 78.3343 102.014C70.8714 87.2143 64.4858 78.5458 59.3879 73.6565Z" fill="#6D6DF6"/>
<path d="M77.8879 13.9015C79.2831 15.1125 80.2892 16.7131 80.7785 18.5001C81.672 21.7508 81.015 26.4286 71.0557 28.1201C55.1313 30.7629 34.9761 46.3558 49.4815 61.05C49.4815 61.05 38.8127 56.5836 29.6417 70.0886C20.4707 83.5936 31.3497 110.366 42.2551 119.431C53.1604 128.496 -7.67296 140.864 6.77989 74.9515C21.0751 9.6465 39.8375 -19.4249 77.8879 13.9015Z" fill="#FFB573"/>
<path d="M42.2554 119.325C31.3501 110.26 20.471 83.4877 29.642 69.9827C38.813 56.4777 49.4819 60.9442 49.4819 60.9442C40.3371 51.6942 44.9621 42.127 53.6075 35.5992C51.4001 36.9206 48.3519 38.242 46.8541 36.3127C44.3577 33.1942 55.1316 28.3842 53.4761 23.0985C51.8206 17.8128 37.394 31.027 29.642 23.0985C26.0157 19.3456 27.4084 14.9849 29.8785 11.3906C20.4185 23.7592 13.1395 45.7477 6.78024 74.8192C-7.64633 140.785 53.1608 128.416 42.2554 119.325Z" fill="#F2994A"/>
<path d="M34.7419 6.15771L34.3719 6.47486L34.7419 6.15771Z" fill="url(#paint6_linear)"/>
<path d="M34.792 6.10488C35.738 5.28559 36.4738 4.70417 36.7891 4.46631C36.1322 4.96845 35.4489 5.52345 34.792 6.10488Z" fill="url(#paint7_linear)"/>
<path d="M56.2348 33.8022L56.2084 33.8287L56.2348 33.8022Z" fill="url(#paint8_linear)"/>
<path d="M133.7 10.5713H101.04C98.0537 10.5857 95.1939 11.8176 93.0825 13.999C90.971 16.1805 89.7787 19.135 89.7648 22.22V40.2673C89.7787 43.3523 90.971 46.3069 93.0825 48.4883C95.1939 50.6697 98.0537 51.9016 101.04 51.916H105.01C105.325 51.9015 105.635 51.9929 105.896 52.1765C106.156 52.3602 106.351 52.6261 106.453 52.9343C106.554 53.2426 106.556 53.5766 106.458 53.886C106.36 54.1955 106.168 54.4637 105.91 54.6505C104.357 56.0146 102.558 57.0463 100.616 57.6857C102.893 58.2588 105.265 58.2933 107.557 57.7867C109.848 57.2801 111.999 56.2454 113.85 54.7598C116.122 52.9499 118.92 51.9863 121.79 52.0254H133.673C136.659 52.011 139.519 50.7791 141.631 48.5977C143.742 46.4162 144.934 43.4617 144.948 40.3767V22.3294C144.962 19.2301 143.786 16.2517 141.677 14.0474C139.569 11.8431 136.7 10.593 133.7 10.5713Z" fill="#6FCF97"/>
<path d="M141.901 47.4315C135.879 32.067 125.228 19.1362 111.537 10.5713H100.573C97.5992 10.5857 94.7513 11.8176 92.6487 13.999C90.546 16.1805 89.3586 19.135 89.3447 22.22V40.2673C89.3586 43.3523 90.546 46.3069 92.6487 48.4883C94.7513 50.6697 97.5992 51.9016 100.573 51.916H104.526C104.84 51.9015 105.149 51.9929 105.409 52.1765C105.668 52.3602 105.863 52.6261 105.964 52.9343C106.065 53.2426 106.066 53.5766 105.969 53.886C105.871 54.1955 105.68 54.4637 105.422 54.6505C103.877 56.0146 102.085 57.0463 100.151 57.6857C102.418 58.2588 104.781 58.2933 107.063 57.7867C109.345 57.2801 111.487 56.2454 113.33 54.7598C115.593 52.9499 118.379 51.9863 121.237 52.0254H133.071C134.783 52.0108 136.47 51.5891 138 50.7927C139.531 49.9963 140.865 48.8465 141.901 47.4315Z" fill="#27AE60"/>
<path d="M103.465 37.0001H101.59V26.4287H107.638V28.4239H103.465V30.6424H107.445V32.6376H103.465V37.0001Z" fill="white"/>
<path d="M116.783 37.0001H114.613L112.905 32.9949H111.107V37.0001H109.233V26.4287H113.367C114.335 26.4287 115.084 26.7315 115.614 27.337C116.145 27.9425 116.411 28.7415 116.411 29.7341C116.411 30.4488 116.269 31.0692 115.987 31.5953C115.713 32.1214 115.315 32.5085 114.793 32.7567L116.783 37.0001ZM114.24 30.6722C114.437 30.4439 114.536 30.1312 114.536 29.7341C114.536 29.3371 114.433 29.0195 114.228 28.7812C114.031 28.543 113.744 28.4239 113.367 28.4239H111.107V30.9997H113.367C113.753 30.9997 114.044 30.8905 114.24 30.6722Z" fill="white"/>
<path d="M124.703 35.005V37.0001H118.142V26.4287H124.703V28.4239H120.017V30.6424H124.511V32.6376H120.017V35.005H124.703Z" fill="white"/>
<path d="M133.123 35.005V37.0001H126.562V26.4287H133.123V28.4239H128.437V30.6424H132.931V32.6376H128.437V35.005H133.123Z" fill="white"/>
<defs>
<linearGradient id="paint0_linear" x1="-2003.39" y1="428.004" x2="-2003.39" y2="360.794" gradientUnits="userSpaceOnUse">
<stop stop-color="#FFEBA7"/>
<stop offset="0.51" stop-color="#F6A000"/>
<stop offset="1" stop-color="#FF6D00"/>
</linearGradient>
<linearGradient id="paint1_linear" x1="-2012.1" y1="450.911" x2="-2012.1" y2="383.701" gradientUnits="userSpaceOnUse">
<stop stop-color="#FFEBA7"/>
<stop offset="0.51" stop-color="#F6A000"/>
<stop offset="1" stop-color="#FF6D00"/>
</linearGradient>
<linearGradient id="paint2_linear" x1="-2000.89" y1="450.911" x2="-2000.89" y2="383.701" gradientUnits="userSpaceOnUse">
<stop stop-color="#FFEBA7"/>
<stop offset="0.51" stop-color="#F6A000"/>
<stop offset="1" stop-color="#FF6D00"/>
</linearGradient>
<linearGradient id="paint3_linear" x1="-2009.61" y1="473.82" x2="-2009.61" y2="406.61" gradientUnits="userSpaceOnUse">
<stop stop-color="#FFEBA7"/>
<stop offset="0.51" stop-color="#F6A000"/>
<stop offset="1" stop-color="#FF6D00"/>
</linearGradient>
<linearGradient id="paint4_linear" x1="-2018.28" y1="496.729" x2="-2018.28" y2="429.518" gradientUnits="userSpaceOnUse">
<stop stop-color="#FFEBA7"/>
<stop offset="0.51" stop-color="#F6A000"/>
<stop offset="1" stop-color="#FF6D00"/>
</linearGradient>
<linearGradient id="paint5_linear" x1="121.194" y1="96.7815" x2="147.998" y2="96.7815" gradientUnits="userSpaceOnUse">
<stop stop-color="#1A305D"/>
<stop offset="0.76" stop-color="#03153B"/>
</linearGradient>
<linearGradient id="paint6_linear" x1="40.6249" y1="16.4363" x2="40.6575" y2="5.22528" gradientUnits="userSpaceOnUse">
<stop offset="0.4" stop-color="#D95D32"/>
<stop offset="0.81" stop-color="#BB1A28"/>
</linearGradient>
<linearGradient id="paint7_linear" x1="69.502" y1="57.5724" x2="69.6499" y2="-0.351271" gradientUnits="userSpaceOnUse">
<stop offset="0.4" stop-color="#D95D32"/>
<stop offset="0.81" stop-color="#BB1A28"/>
</linearGradient>
<linearGradient id="paint8_linear" x1="56.8739" y1="34.6592" x2="56.8757" y2="34.1436" gradientUnits="userSpaceOnUse">
<stop offset="0.4" stop-color="#D95D32"/>
<stop offset="0.81" stop-color="#BB1A28"/>
</linearGradient>
</defs>
</svg>
