<svg width="150" height="150" viewBox="0 0 150 150" fill="none" xmlns="http://www.w3.org/2000/svg">
<mask id="mask0" style="mask-type:alpha" maskUnits="userSpaceOnUse" x="0" y="0" width="150" height="150">
<rect width="150" height="150" rx="75" fill="#C4C4C4"/>
</mask>
<g mask="url(#mask0)">
<rect width="150" height="150" rx="75" fill="#F3F3F3"/>
<path d="M155.484 81.0825L100.548 25.6685L75.7074 46.6876L59.4653 145.095L124.433 169.936L155.484 81.0825Z" fill="#E2E2E2"/>
<path fill-rule="evenodd" clip-rule="evenodd" d="M65.2235 32.698C65.2235 32.698 65.3811 30.4192 67.4694 32.008C67.736 32.213 67.8886 32.0095 67.9958 31.5357C68.0172 31.4679 68.0385 31.4001 68.0625 31.3238C72.6341 8.91939 93.9649 48.2281 103.139 33.3823C102.189 36.6335 100.226 39.4968 97.5343 41.556C89.8033 47.7144 79.9722 47.9959 74.783 45.2354C69.5937 42.4749 64.9625 39.6013 65.2235 32.698Z" fill="#281616"/>
<path fill-rule="evenodd" clip-rule="evenodd" d="M65.944 40.1564C65.0176 41.9139 64.003 43.448 63.0611 44.0549C60.3132 45.8211 59.8066 38.5411 59.6056 35.7722C59.4046 33.0032 58.9365 28.8602 60.9605 28.9199C61.8169 29.0332 62.6504 29.2799 63.4306 29.6509C64.0302 26.7242 62.9899 14.7543 75.4899 17.9209C85.3803 20.4289 91.2833 27.3073 96.2842 23.703C101.285 20.0987 101.983 29.4508 94.0564 36.232C86.1294 43.0133 75.9674 44.3456 70.5715 42.2418C68.9838 41.6515 67.4378 40.9548 65.944 40.1564Z" fill="white"/>
<path fill-rule="evenodd" clip-rule="evenodd" d="M94.5853 34.9222C94.5853 34.9222 91.213 44.6275 88.4664 46.3894C85.7198 48.1513 85.2119 40.8757 85.0109 38.1067C84.8099 35.3377 84.3418 31.1947 86.3615 31.2531C88.3812 31.3114 94.5853 34.9222 94.5853 34.9222Z" fill="#281616"/>
<path fill-rule="evenodd" clip-rule="evenodd" d="M73.6658 50.2988L67.0744 54.2062L65.9412 87.0405L87.9158 89.4708L85.7553 60.9915L73.6658 50.2988Z" fill="#FFE1DA"/>
<path fill-rule="evenodd" clip-rule="evenodd" d="M83.8885 89.0532L87.9158 89.4709L85.5996 60.8941L80.8775 56.9868L80.2725 57.3371L83.8885 89.0532Z" fill="#FF8685"/>
<path fill-rule="evenodd" clip-rule="evenodd" d="M69.5308 50.2988L65.9424 52.4446C65.8347 63.4857 74.3086 76.3164 86.9604 76.0921L86.0428 59.9856L69.5308 50.2988Z" fill="#412F2F"/>
<path fill-rule="evenodd" clip-rule="evenodd" d="M91.3298 31.3305C90.6621 33.1553 92.7792 70.8165 80.3753 70.4558C67.9714 70.0951 60.928 53.5205 63.9485 41.8511C66.969 30.1816 91.3298 31.3305 91.3298 31.3305Z" fill="#FFD3CA"/>
<path fill-rule="evenodd" clip-rule="evenodd" d="M76.7766 71.0498C67.8647 66.8706 63.2734 53.5734 65.8151 43.751C66.4497 41.3056 68.0196 39.4295 70.1034 37.9805C72.2211 38.5866 73.941 39.1233 73.941 39.1233C73.941 39.1233 71.0718 54.3564 73.9312 58.3254C76.1242 61.3443 76.4445 67.3641 76.7766 71.0498Z" fill="#FFE1DA"/>
<path fill-rule="evenodd" clip-rule="evenodd" d="M91.3297 27.0291C91.065 27.7514 91.2386 34.0743 90.7731 41.4347C83.7389 45.0835 76.02 45.2476 71.5393 43.2736C68.4901 41.9226 65.6273 40.5277 63.7517 38.3819C63.8152 38.0914 63.8793 37.8136 63.9441 37.5483C66.9689 25.8802 91.3297 27.0291 91.3297 27.0291Z" fill="#FF8685"/>
<path opacity="0.3" fill-rule="evenodd" clip-rule="evenodd" d="M91.0759 39.5714C90.6413 40.7135 92.1132 51.9575 88.6976 60.7095C86.848 67.051 84.2057 71.5428 78.1287 70.2217C78.1287 70.2217 78.0666 69.6253 78.2027 69.5053C80.4755 67.2356 78.7308 65.131 78.3022 63.6223C77.9111 62.4665 78.0395 61.2984 78.6635 60.3365C79.2055 59.3661 78.2849 59.4396 78.226 58.6061C78.167 57.7725 78.7117 57.5491 78.6569 57.0103C78.6022 56.4715 78.2695 55.2275 78.6569 54.6323C79.0444 54.0371 82.0854 55.1608 82.6203 53.8396C83.0017 52.8979 78.5734 35.1959 78.3927 34.2868L84.2655 30.5213C85.8903 30.6183 91.0759 39.5714 91.0759 39.5714Z" fill="#FF8685"/>
<path fill-rule="evenodd" clip-rule="evenodd" d="M61.4976 31.6734C61.4976 31.6734 61.642 29.437 63.8156 30.7545C65.7758 31.9351 61.7419 14.7339 76.44 18.4293C86.3275 20.9317 92.2291 27.8144 97.2355 24.2072C102.242 20.6 102.929 29.9579 95.0022 36.7391C87.0751 43.5204 76.9132 44.8527 71.5186 42.7447C66.124 40.6367 61.302 38.3691 61.4976 31.6734Z" fill="#412F2F"/>
<path fill-rule="evenodd" clip-rule="evenodd" d="M61.4973 31.6741C61.4973 31.6741 61.6417 29.4376 63.8153 30.7552C64.0939 30.9221 64.2478 30.7144 64.355 30.2405C64.3751 30.177 64.3964 30.1092 64.3949 30.0249C68.8825 7.88746 91.3776 43.5716 100.682 28.2361C100.026 30.8238 98.2298 34.0118 94.9886 36.7822C87.0658 43.5648 76.8996 44.8957 71.505 42.7878C66.1104 40.6798 61.3017 38.3697 61.4973 31.6741Z" fill="#281616"/>
<path fill-rule="evenodd" clip-rule="evenodd" d="M71.1119 34.4227C71.1119 34.4227 67.7396 44.128 64.993 45.8899C62.2464 47.6519 61.7343 40.3748 61.5375 37.6072C61.3407 34.8396 60.8684 30.6952 62.8881 30.7536C64.9078 30.8119 71.1119 34.4227 71.1119 34.4227Z" fill="#281616"/>
<path fill-rule="evenodd" clip-rule="evenodd" d="M65.1448 44.7767C65.1448 44.7767 63.4427 40.2871 61.2873 41.0895C59.1319 41.8919 60.4892 51.6843 63.0194 52.5506C65.5496 53.417 67.1521 50.6523 65.1448 44.7767Z" fill="#FFE1DA"/>
<path fill-rule="evenodd" clip-rule="evenodd" d="M65.2386 32.1017C65.2534 32.1436 69.6391 46.8197 87.7892 36.9418L88.0087 37.3555C69.3514 47.5115 64.8002 32.2943 64.7854 32.2524L65.2386 32.1017Z" fill="#412F2F"/>
<path fill-rule="evenodd" clip-rule="evenodd" d="M59.9895 29.4878C59.9895 29.4878 63.6225 27.814 65.0369 31.6915L64.5869 31.8618C63.3296 28.4483 60.1812 29.9161 60.1756 29.919L59.9895 29.4878Z" fill="#281616"/>
<path fill-rule="evenodd" clip-rule="evenodd" d="M62.2323 27.6738C62.2323 27.6738 66.1063 28.4789 64.8921 32.4695L64.4423 32.3279C65.5101 28.8174 62.1345 28.118 62.126 28.1153L62.2323 27.6738Z" fill="#281616"/>
<path fill-rule="evenodd" clip-rule="evenodd" d="M66.4715 57.9473C66.4691 57.9262 66.4711 57.9048 66.4774 57.8845C66.4836 57.8641 66.494 57.8453 66.5078 57.8292C66.5217 57.813 66.5387 57.7999 66.5578 57.7905C66.5769 57.7812 66.5978 57.7759 66.619 57.7749C66.6611 57.7711 66.703 57.784 66.7356 57.8108C66.7682 57.8376 66.7889 57.8762 66.7931 57.9182C67.0892 60.5845 67.9927 63.1482 69.4343 65.4127C70.8759 67.6771 72.8173 69.5822 75.1096 70.9817C75.1276 70.9922 75.1431 71.0062 75.1554 71.0229C75.1677 71.0396 75.1764 71.0587 75.1809 71.0789C75.1855 71.0992 75.1859 71.1201 75.182 71.1405C75.1781 71.1608 75.1701 71.1802 75.1584 71.1973C75.1476 71.2158 75.1333 71.2319 75.1162 71.2448C75.0991 71.2576 75.0796 71.2669 75.0588 71.2721C75.038 71.2773 75.0164 71.2783 74.9953 71.275C74.9741 71.2717 74.9539 71.2642 74.9356 71.2529C72.602 69.8268 70.6259 67.8862 69.1587 65.5798C67.6915 63.2734 66.7723 60.6625 66.4715 57.9473Z" fill="white"/>
<path fill-rule="evenodd" clip-rule="evenodd" d="M61.6041 43.099C63.2075 45.2057 64.0215 46.9755 64.346 48.2558C65.1046 51.2236 63.2735 51.5739 62.6526 47.4573L63.072 47.3844C63.4993 50.6344 64.5397 50.4404 63.9382 48.2625C63.3651 46.4788 62.4649 44.8168 61.2837 43.3614L61.6041 43.099Z" fill="#FF8685"/>
<path fill-rule="evenodd" clip-rule="evenodd" d="M87.2243 50.1846C87.1068 50.1416 86.9818 50.1223 86.8566 50.1279C86.7314 50.1334 86.6086 50.1637 86.4955 50.217C86.3824 50.2703 86.2812 50.3454 86.1979 50.4379C86.1147 50.5305 86.0511 50.6386 86.0108 50.7559C85.9316 50.9969 85.9496 51.2589 86.0612 51.4872C86.1728 51.7154 86.3694 51.8922 86.6098 51.9807C86.7276 52.0236 86.853 52.0426 86.9784 52.0367C87.1038 52.0308 87.2268 52.0001 87.34 51.9463C87.4532 51.8926 87.5543 51.8169 87.6373 51.7238C87.7203 51.6307 87.7835 51.522 87.8232 51.4043C87.9037 51.164 87.8861 50.9021 87.7742 50.6744C87.6624 50.4466 87.4651 50.271 87.2243 50.1846Z" fill="#281616"/>
<path fill-rule="evenodd" clip-rule="evenodd" d="M30.1224 162.908C49.0513 168.357 55.6809 91.1044 50.691 86.5254C29.3348 66.9694 25.5881 158.824 30.1224 162.908Z" fill="#897AC2"/>
<path fill-rule="evenodd" clip-rule="evenodd" d="M109.89 91.239L86.3569 77.3887C86.3569 77.3887 71.3625 85.4374 66.898 78.2507C64.2032 79.885 49.2915 80.1528 44.3403 83.6746C41.2312 85.8849 47.3024 90.8468 46.3813 93.7231C38.8117 117.171 46.1279 168.809 47.7568 183.607C48.3642 189.119 96.5127 189.895 100.897 184.808C102.928 182.447 98.1377 153.039 102.313 136.026C107.159 116.317 109.89 91.239 109.89 91.239Z" fill="#897AC2"/>
<path fill-rule="evenodd" clip-rule="evenodd" d="M88.7184 187.261C95.0261 186.742 101.478 185.558 102.718 184.091C103.158 181.113 98.3939 152.534 102.546 135.523C105.266 124.383 109.033 112.496 111.801 104.264L107.241 101.274C107.241 101.274 88.0424 126.822 87.1825 145.904C86.3225 164.985 88.2024 180.929 88.7184 187.261Z" fill="#6959AB"/>
<path fill-rule="evenodd" clip-rule="evenodd" d="M102.859 140.736C103.339 158.919 111.692 162.139 121.301 161.418C140.739 159.964 117.818 97.1211 112.964 92.8619C108.751 89.1761 104.263 90.286 102.86 96.687C98.3824 107.206 102.777 137.668 102.859 140.736Z" fill="#897AC2"/>
<path fill-rule="evenodd" clip-rule="evenodd" d="M91.1133 79.2993C91.0592 79.3378 72.0893 93.9934 63.0142 79.2993L62.1196 79.8811C71.8105 95.5762 91.6626 80.2148 91.7375 80.172L91.1133 79.2993Z" fill="#6959AB"/>
<path fill-rule="evenodd" clip-rule="evenodd" d="M104.437 96.1768C104.437 96.2013 95.8915 104.379 104.268 135.349L105.365 135.099C97.141 104.678 105.249 96.9005 105.272 96.876L104.437 96.1768Z" fill="#6959AB"/>
<path fill-rule="evenodd" clip-rule="evenodd" d="M42.4899 89.8086C42.5073 89.8086 48.0372 92.8268 44.9305 104.686C41.9425 116.025 43.1872 140.314 43.2081 140.384L42.3225 140.446C42.3225 140.376 41.0499 115.898 44.0658 104.383C46.9633 93.3886 42.1238 90.7559 42.1133 90.7477L42.4899 89.8086Z" fill="#6959AB"/>
<path fill-rule="evenodd" clip-rule="evenodd" d="M74.1917 48.4905C73.293 48.482 72.2668 48.7477 71.5971 48.9978L71.4929 48.4076C72.1973 48.1446 73.2839 47.8604 74.2572 47.8696C75.2043 47.8786 76.1849 48.1716 76.4365 49.2464L75.9272 49.4744C75.7674 48.7916 75.1166 48.4992 74.1917 48.4905Z" fill="#281616"/>
<path fill-rule="evenodd" clip-rule="evenodd" d="M85.3276 47.7539C84.4641 47.5663 83.6253 47.5039 83.1208 47.5039V46.8149C83.6491 46.8149 84.5144 46.8796 85.4066 47.0734C86.2921 47.2657 87.2354 47.5914 87.8979 48.135L87.6387 48.7258C87.0619 48.2526 86.1978 47.9428 85.3276 47.7539Z" fill="black"/>
<path fill-rule="evenodd" clip-rule="evenodd" d="M73.4694 46.0382C74.697 46.3853 75.7739 46.9103 76.3857 47.285L76.7424 46.7026C76.1029 46.3109 74.993 45.7705 73.7272 45.4126C72.4672 45.0564 71.0195 44.8711 69.7138 45.2267L69.7102 45.8495C70.8831 45.53 72.2357 45.6894 73.4694 46.0382Z" fill="#281616"/>
<path fill-rule="evenodd" clip-rule="evenodd" d="M75.6544 59.7426C75.6544 59.7426 78.9782 61.7177 81.5633 60.8776L81.5637 61.3767C78.8136 62.2667 75.3785 60.2398 75.3686 60.2341L75.6544 59.7426Z" fill="#FF8685"/>
<path fill-rule="evenodd" clip-rule="evenodd" d="M76.3574 59.8065C76.3574 59.8065 75.3337 59.947 75.5802 60.6862L74.7847 60.6423C74.4229 59.4127 76.0397 59.1423 76.0424 59.1375L76.3574 59.8065Z" fill="#FF8685"/>
</g>
</svg>
