<svg width="80" height="80" viewBox="0 0 80 80" fill="none" xmlns="http://www.w3.org/2000/svg">
<rect x="0.5" y="0.5" width="79" height="79" fill="white" stroke="#C9CBD4"/>
<path d="M62.9742 28.8281L71.1718 31.2652C71.5716 31.3841 71.9326 30.99 71.7792 30.6021L67.6188 20.0786C67.5582 19.9253 67.4259 19.8118 67.2652 19.775L58.1638 17.6947L61.9972 27.917C62.1622 28.357 62.5238 28.6942 62.9742 28.8281Z" fill="#C9CBD4" stroke="#C9CBD4"/>
<path d="M16.026 28.8279L7.82847 31.265C7.42867 31.3839 7.06765 30.9898 7.221 30.6019L11.3815 20.0784C11.4421 19.9251 11.5743 19.8115 11.735 19.7748L20.8364 17.6945L17.0031 27.9168C16.8381 28.3567 16.4764 28.694 16.026 28.8279Z" fill="#C9CBD4" stroke="#C9CBD4"/>
<path d="M22.0796 18.0002H56.5883C57.0042 18.0002 57.3767 18.2577 57.5237 18.6468L58.4439 18.2992L57.5237 18.6468L61.1227 28.1735C61.3698 28.8276 60.8865 29.5269 60.1872 29.5269H58.7683C57.1114 29.5269 55.7683 30.87 55.7683 32.5269V33.3364C55.7683 33.8887 55.3206 34.3364 54.7683 34.3364H29.6108C29.0586 34.3364 28.6108 33.8887 28.6108 33.3364V32.5269C28.6108 30.87 27.2677 29.5269 25.6108 29.5269H18.4807C17.7814 29.5269 17.2981 28.8276 17.5452 28.1735L21.1442 18.6468C21.2912 18.2577 21.6637 18.0002 22.0796 18.0002Z" stroke="#C9CBD4" stroke-width="2"/>
<rect x="16.3877" y="34.634" width="45.8924" height="27.8569" rx="1.5" stroke="#C9CBD4"/>
<path d="M52.5601 52.4701H58.5719M45.947 57.5802H58.5719" stroke="#C9CBD4" stroke-width="2" stroke-linecap="round"/>
<mask id="path-7-inside-1" fill="white">
<path fill-rule="evenodd" clip-rule="evenodd" d="M33.1476 28.7233C33.3716 28.7233 33.544 28.9179 33.5687 29.1405L33.7254 30.5512C33.838 31.564 34.6941 32.3303 35.7132 32.3303H42.9544C43.9735 32.3303 44.8296 31.564 44.9421 30.5512L45.0989 29.1405C45.1236 28.9179 45.296 28.7233 45.52 28.7233H61.7801C62.3324 28.7233 62.7801 29.171 62.7801 29.7233V36.1399C62.7801 36.6921 62.3324 37.1398 61.7801 37.1398H16.8877C16.3354 37.1398 15.8877 36.6921 15.8877 36.1398V29.7233C15.8877 29.171 16.3354 28.7233 16.8877 28.7233H33.1476Z"/>
</mask>
<path fill-rule="evenodd" clip-rule="evenodd" d="M33.1476 28.7233C33.3716 28.7233 33.544 28.9179 33.5687 29.1405L33.7254 30.5512C33.838 31.564 34.6941 32.3303 35.7132 32.3303H42.9544C43.9735 32.3303 44.8296 31.564 44.9421 30.5512L45.0989 29.1405C45.1236 28.9179 45.296 28.7233 45.52 28.7233H61.7801C62.3324 28.7233 62.7801 29.171 62.7801 29.7233V36.1399C62.7801 36.6921 62.3324 37.1398 61.7801 37.1398H16.8877C16.3354 37.1398 15.8877 36.6921 15.8877 36.1398V29.7233C15.8877 29.171 16.3354 28.7233 16.8877 28.7233H33.1476Z" fill="#C9CBD4"/>
<path d="M33.7254 30.5512L34.7193 30.4407V30.4407L33.7254 30.5512ZM44.9421 30.5512L45.936 30.6616V30.6616L44.9421 30.5512ZM34.7193 30.4407L34.5626 29.0301L32.5748 29.2509L32.7316 30.6616L34.7193 30.4407ZM35.7132 31.3303C35.2037 31.3303 34.7756 30.9472 34.7193 30.4407L32.7316 30.6616C32.9004 32.1809 34.1846 33.3303 35.7132 33.3303V31.3303ZM42.9544 31.3303H35.7132V33.3303H42.9544V31.3303ZM43.9482 30.4407C43.892 30.9472 43.4639 31.3303 42.9544 31.3303V33.3303C44.483 33.3303 45.7672 32.1809 45.936 30.6616L43.9482 30.4407ZM44.105 29.0301L43.9482 30.4407L45.936 30.6616L46.0928 29.2509L44.105 29.0301ZM45.52 29.7233H61.7801V27.7233H45.52V29.7233ZM61.7801 29.7233H61.7801H63.7801C63.7801 28.6187 62.8846 27.7233 61.7801 27.7233V29.7233ZM61.7801 29.7233V36.1399H63.7801V29.7233H61.7801ZM61.7801 36.1399V36.1398V38.1398C62.8847 38.1398 63.7801 37.2444 63.7801 36.1399H61.7801ZM61.7801 36.1398H16.8877V38.1398H61.7801V36.1398ZM16.8877 36.1398H16.8877H14.8877C14.8877 37.2444 15.7831 38.1398 16.8877 38.1398V36.1398ZM16.8877 36.1398V29.7233H14.8877V36.1398H16.8877ZM16.8877 29.7233V29.7233V27.7233C15.7831 27.7233 14.8877 28.6187 14.8877 29.7233H16.8877ZM16.8877 29.7233H33.1476V27.7233H16.8877V29.7233ZM46.0928 29.2509C46.0812 29.3551 46.0362 29.4583 45.9525 29.5447C45.8635 29.6364 45.7126 29.7233 45.52 29.7233V27.7233C44.6653 27.7233 44.1715 28.4312 44.105 29.0301L46.0928 29.2509ZM34.5626 29.0301C34.4961 28.4312 34.0022 27.7233 33.1476 27.7233V29.7233C32.9549 29.7233 32.8041 29.6364 32.7151 29.5447C32.6313 29.4583 32.5864 29.3551 32.5748 29.2509L34.5626 29.0301Z" fill="#C9CBD4" mask="url(#path-7-inside-1)"/>
<path d="M27.0998 41.3481C25.9525 41.348 24.831 41.6844 23.877 42.3147C22.923 42.9451 22.1794 43.8412 21.7403 44.8896C21.3012 45.9381 21.1862 47.0918 21.41 48.2048C21.6338 49.3179 22.1862 50.3403 22.9975 51.1428C23.8087 51.9452 24.8423 52.4917 25.9676 52.713C27.0928 52.9344 28.2591 52.8207 29.319 52.3863C30.3789 51.952 31.2848 51.2164 31.9221 50.2728C32.5594 49.3291 32.8995 48.2197 32.8993 47.0849C32.8991 45.5635 32.288 44.1044 31.2004 43.0286C30.1128 41.9528 28.6378 41.3484 27.0998 41.3481ZM27.0854 49.903C26.5248 49.903 25.9767 49.7385 25.5106 49.4304C25.0444 49.1223 24.6811 48.6844 24.4666 48.1721C24.252 47.6597 24.1959 47.096 24.3053 46.5521C24.4146 46.0082 24.6846 45.5086 25.081 45.1164C25.4775 44.7243 25.9825 44.4572 26.5324 44.3491C27.0823 44.2409 27.6522 44.2964 28.1702 44.5086C28.6881 44.7208 29.1308 45.0802 29.4423 45.5413C29.7537 46.0024 29.92 46.5445 29.92 47.0991C29.92 47.8427 29.6214 48.5559 29.0898 49.0817C28.5582 49.6076 27.8372 49.903 27.0854 49.903Z" fill="#C9CBD4"/>
<path d="M24.4594 52.8157V54.7516C24.4595 55.1567 24.3789 55.5578 24.2222 55.9321C24.0656 56.3063 23.8359 56.6464 23.5464 56.9328C23.2568 57.2192 22.913 57.4464 22.5347 57.6014C22.1563 57.7563 21.7508 57.836 21.3413 57.8359V49.7397C21.9762 51.1003 23.0822 52.1914 24.4594 52.8157Z" fill="#C9CBD4"/>
</svg>
