<svg width="157" height="157" viewBox="0 0 157 157" fill="none" xmlns="http://www.w3.org/2000/svg">
<mask id="mask0" mask-type="alpha" maskUnits="userSpaceOnUse" x="0" y="0" width="157" height="157">
<rect width="157" height="157" rx="78.5" fill="#C4C4C4"/>
</mask>
<g mask="url(#mask0)">
<rect width="157" height="157" rx="78.5" fill="#F3F7FD"/>
<path d="M162.5 84L105 26L79 48L62 151L130 177L162.5 84Z" fill="#EAF2FF"/>
<path fill-rule="evenodd" clip-rule="evenodd" d="M68.2671 34.2236C68.2671 34.2236 68.4321 31.8385 70.6178 33.5014C70.8969 33.7159 71.0566 33.503 71.1688 33.007C71.1912 32.9361 71.2135 32.8651 71.2386 32.7853C76.0236 9.33532 98.3498 50.4784 107.952 34.9398C106.958 38.3428 104.903 41.3396 102.086 43.4949C93.994 49.9407 83.704 50.2354 78.2727 47.3461C72.8413 44.4567 67.9939 41.4491 68.2671 34.2236Z" fill="#281616"/>
<path fill-rule="evenodd" clip-rule="evenodd" d="M69.0213 42.0307C68.0517 43.8702 66.9898 45.4759 66.0039 46.1111C63.1277 47.9597 62.5975 40.34 62.3871 37.4419C62.1767 34.5437 61.6869 30.2074 63.8052 30.2698C64.7017 30.3884 65.5741 30.6466 66.3907 31.0349C67.0182 27.9716 65.9293 15.4432 79.0127 18.7575C89.3647 21.3825 95.5432 28.5819 100.777 24.8094C106.012 21.0369 106.743 30.8255 98.4456 37.9232C90.1487 45.0209 79.5125 46.4154 73.8648 44.2134C72.203 43.5956 70.5848 42.8663 69.0213 42.0307Z" fill="white"/>
<path fill-rule="evenodd" clip-rule="evenodd" d="M98.9992 36.5524C98.9992 36.5524 95.4696 46.7106 92.5949 48.5547C89.7201 50.3989 89.1885 42.7836 88.9781 39.8855C88.7677 36.9873 88.2778 32.651 90.3917 32.712C92.5057 32.773 98.9992 36.5524 98.9992 36.5524Z" fill="#281616"/>
<path fill-rule="evenodd" clip-rule="evenodd" d="M77.1035 52.6465L70.2044 56.7362L69.0184 91.1027L92.0184 93.6465L89.7572 63.8381L77.1035 52.6465Z" fill="#FFE1DA"/>
<path fill-rule="evenodd" clip-rule="evenodd" d="M87.8032 93.2093L92.0184 93.6465L89.5942 63.7361L84.6517 59.6465L84.0184 60.0131L87.8032 93.2093Z" fill="#FF8685"/>
<path fill-rule="evenodd" clip-rule="evenodd" d="M72.7754 52.6465L69.0195 54.8924C68.9068 66.4487 77.7761 79.8782 91.0184 79.6434L90.058 62.7853L72.7754 52.6465Z" fill="#412F2F"/>
<path fill-rule="evenodd" clip-rule="evenodd" d="M95.5917 32.7929C94.8928 34.7029 97.1087 74.1216 84.126 73.7441C71.1432 73.3665 63.7711 56.0185 66.9326 43.8045C70.0941 31.5904 95.5917 32.7929 95.5917 32.7929Z" fill="#FFD3CA"/>
<path fill-rule="evenodd" clip-rule="evenodd" d="M78.4054 72.3772C69.0776 68.003 64.2721 54.0853 66.9324 43.8045C67.5965 41.245 69.2398 39.2813 71.4208 37.7647C73.6373 38.3991 75.4374 38.9609 75.4374 38.9609C75.4374 38.9609 72.4344 54.9049 75.4272 59.0591C77.7225 62.2188 78.0578 68.5195 78.4054 72.3772Z" fill="#FFE1DA"/>
<path fill-rule="evenodd" clip-rule="evenodd" d="M95.5917 28.2903C95.3147 29.0464 95.4964 35.6643 95.0091 43.3683C87.6466 47.1873 79.5676 47.3591 74.8777 45.293C71.6863 43.8789 68.6898 42.4189 66.7267 40.173C66.7931 39.8689 66.8603 39.5781 66.9281 39.3005C70.0941 27.0879 95.5917 28.2903 95.5917 28.2903Z" fill="#FF8685"/>
<path opacity="0.3" fill-rule="evenodd" clip-rule="evenodd" d="M95.3262 41.4182C94.8712 42.6136 96.4119 54.3824 92.8368 63.5428C90.9009 70.1802 88.1353 74.8817 81.7747 73.4989C81.7747 73.4989 81.7097 72.8747 81.8521 72.749C84.231 70.3735 82.4049 68.1706 81.9563 66.5915C81.5469 65.3818 81.6814 64.1592 82.3345 63.1524C82.9017 62.1367 81.9383 62.2136 81.8765 61.3412C81.8148 60.4688 82.3849 60.235 82.3276 59.671C82.2703 59.1071 81.9221 57.805 82.3276 57.182C82.7331 56.559 85.916 57.7351 86.476 56.3523C86.8751 55.3666 82.2402 36.8386 82.051 35.8871L88.1979 31.9458C89.8985 32.0473 95.3262 41.4182 95.3262 41.4182Z" fill="#FF8685"/>
<path fill-rule="evenodd" clip-rule="evenodd" d="M64.3673 33.1518C64.3673 33.1518 64.5184 30.811 66.7935 32.1901C68.8452 33.4257 64.623 15.4218 80.007 19.2896C90.3559 21.9089 96.5329 29.1127 101.773 25.3371C107.013 21.5616 107.732 31.3562 99.4354 38.4539C91.1385 45.5517 80.5023 46.9461 74.856 44.7398C69.2096 42.5334 64.1626 40.1599 64.3673 33.1518Z" fill="#412F2F"/>
<path fill-rule="evenodd" clip-rule="evenodd" d="M64.3673 33.1521C64.3673 33.1521 64.5184 30.8113 66.7934 32.1904C67.085 32.365 67.2462 32.1477 67.3584 31.6517C67.3793 31.5852 67.4017 31.5142 67.4002 31.426C72.0972 8.25547 95.642 45.6049 105.381 29.5537C104.694 32.2621 102.814 35.5989 99.4215 38.4986C91.129 45.5977 80.4884 46.9908 74.842 44.7844C69.1956 42.5781 64.1626 40.1602 64.3673 33.1521Z" fill="#281616"/>
<path fill-rule="evenodd" clip-rule="evenodd" d="M73.4056 34.6613C73.4056 34.6613 69.876 44.8195 67.0012 46.6636C64.1264 48.5078 63.5904 40.8911 63.3844 37.9944C63.1785 35.0976 62.6842 30.7598 64.7981 30.8209C66.9121 30.8819 73.4056 34.6613 73.4056 34.6613Z" fill="#281616"/>
<path fill-rule="evenodd" clip-rule="evenodd" d="M67.362 44.867C67.362 44.867 65.5804 40.168 63.3245 41.0078C61.0685 41.8477 62.4891 52.097 65.1374 53.0038C67.7857 53.9106 69.463 51.0168 67.362 44.867Z" fill="#FFE1DA"/>
<path fill-rule="evenodd" clip-rule="evenodd" d="M68.2831 33.5997C68.2986 33.6435 72.889 49.0045 91.886 38.6657L92.1158 39.0987C72.5878 49.7286 67.8242 33.8013 67.8087 33.7574L68.2831 33.5997Z" fill="#412F2F"/>
<path fill-rule="evenodd" clip-rule="evenodd" d="M62.1521 29.7054C62.1521 29.7054 65.9546 27.9534 67.4351 32.0118L66.964 32.1901C65.648 28.6173 62.3527 30.1536 62.3469 30.1566L62.1521 29.7054Z" fill="#281616"/>
<path fill-rule="evenodd" clip-rule="evenodd" d="M64.4668 27.89C64.4668 27.89 68.5216 28.7326 67.2506 32.9095L66.7799 32.7613C67.8975 29.087 64.3643 28.355 64.3555 28.3522L64.4668 27.89Z" fill="#281616"/>
<path fill-rule="evenodd" clip-rule="evenodd" d="M68.1049 57.4464C68.1024 57.4242 68.1045 57.4019 68.1111 57.3806C68.1176 57.3593 68.1285 57.3396 68.1429 57.3227C68.1574 57.3058 68.1752 57.292 68.1952 57.2822C68.2153 57.2725 68.2371 57.2669 68.2593 57.2659C68.3034 57.2619 68.3472 57.2754 68.3813 57.3034C68.4155 57.3315 68.4371 57.3719 68.4415 57.4159C68.7515 60.2066 69.6972 62.89 71.206 65.2601C72.7149 67.6302 74.7469 69.6242 77.1462 71.089C77.1649 71.0999 77.1812 71.1146 77.1941 71.1321C77.2069 71.1497 77.216 71.1696 77.2208 71.1908C77.2256 71.2119 77.2259 71.2339 77.2219 71.2552C77.2178 71.2765 77.2094 71.2967 77.1972 71.3146C77.1859 71.334 77.1709 71.3509 77.153 71.3643C77.1351 71.3778 77.1147 71.3875 77.093 71.3929C77.0712 71.3984 77.0486 71.3994 77.0265 71.3959C77.0043 71.3925 76.9831 71.3846 76.9641 71.3729C74.5215 69.8802 72.4531 67.849 70.9175 65.435C69.3819 63.021 68.4197 60.2883 68.1049 57.4464Z" fill="white"/>
<path fill-rule="evenodd" clip-rule="evenodd" d="M63.7978 43.009C65.476 45.214 66.328 47.0663 66.6676 48.4064C67.4617 51.5127 65.5451 51.8794 64.8952 47.5707L65.3341 47.4944C65.7814 50.896 66.8704 50.6929 66.2408 48.4134C65.6409 46.5465 64.6988 44.807 63.4624 43.2836L63.7978 43.009Z" fill="#FF8685"/>
<path fill-rule="evenodd" clip-rule="evenodd" d="M89.321 50.0604C89.1981 50.0154 89.0672 49.9952 88.9362 50.001C88.8051 50.0068 88.6766 50.0385 88.5582 50.0942C88.4398 50.15 88.3339 50.2286 88.2468 50.3255C88.1596 50.4224 88.093 50.5355 88.0509 50.6583C87.968 50.9106 87.9869 51.1848 88.1037 51.4237C88.2205 51.6626 88.4262 51.8476 88.6778 51.9402C88.8012 51.9851 88.9324 52.0051 89.0637 51.9989C89.195 51.9927 89.3237 51.9606 89.4421 51.9043C89.5606 51.848 89.6664 51.7688 89.7533 51.6713C89.8402 51.5739 89.9064 51.4602 89.9479 51.3369C90.0321 51.0854 90.0137 50.8113 89.8966 50.573C89.7796 50.3346 89.5731 50.1507 89.321 50.0604Z" fill="#281616"/>
<path fill-rule="evenodd" clip-rule="evenodd" d="M31.5282 170.51C51.3405 176.214 58.2795 95.3558 53.0567 90.5631C30.7038 70.0945 19.0104 166.909 31.5282 170.51Z" fill="#72C283"/>
<path fill-rule="evenodd" clip-rule="evenodd" d="M115.019 95.4967L90.3871 81C90.3871 81 74.6929 89.4243 70.0201 81.9023C67.1995 83.6128 51.5919 83.8931 46.4097 87.5793C43.1555 89.8927 49.5099 95.0862 48.5459 98.0967C40.623 122.638 48.2807 176.687 49.9856 192.176C50.6213 197.944 101.017 198.757 105.605 193.433C107.731 190.961 102.718 160.18 107.087 142.374C112.16 121.745 115.019 95.4967 115.019 95.4967Z" fill="#8FD39D"/>
<path fill-rule="evenodd" clip-rule="evenodd" d="M92.8585 196C99.4606 195.457 106.213 194.217 107.511 192.682C107.972 189.565 102.986 159.652 107.331 141.848C110.178 130.188 114.122 117.745 117.019 109.13L112.246 106C112.246 106 92.151 132.74 91.2509 152.712C90.3508 172.684 92.3185 189.373 92.8585 196Z" fill="#72C283"/>
<path fill-rule="evenodd" clip-rule="evenodd" d="M111.627 142.859C112.13 161.891 116.905 169.705 126.962 168.95C147.307 167.429 123.316 101.653 118.236 97.1952C113.826 93.3374 109.128 94.499 107.66 101.199C104.984 113.394 111.541 139.648 111.627 142.859Z" fill="#8FD39D"/>
<path fill-rule="evenodd" clip-rule="evenodd" d="M95.3653 83C95.3087 83.0403 75.4535 98.3799 65.9549 83L65.0186 83.6089C75.1617 100.037 95.9402 83.9582 96.0186 83.9134L95.3653 83Z" fill="#66B577"/>
<path fill-rule="evenodd" clip-rule="evenodd" d="M111.047 99C111.047 99.0257 102.102 107.585 110.87 140L112.019 139.739C103.41 107.898 111.897 99.7575 111.92 99.7318L111.047 99Z" fill="#66B577"/>
<path fill-rule="evenodd" clip-rule="evenodd" d="M44.4728 94C44.491 94 50.2789 97.1591 47.0273 109.572C43.8998 121.44 45.2026 146.863 45.2245 146.936L44.2976 147C44.2976 146.927 42.9655 121.307 46.1223 109.254C49.1549 97.7471 44.0896 94.9915 44.0786 94.9829L44.4728 94Z" fill="#66B577"/>
<path fill-rule="evenodd" clip-rule="evenodd" d="M77.6538 50.7531C76.7132 50.7442 75.6391 51.0224 74.9382 51.2841L74.829 50.6664C75.5664 50.3911 76.7036 50.0936 77.7223 50.1033C78.7136 50.1127 79.74 50.4194 80.0034 51.5443L79.4703 51.783C79.303 51.0683 78.6219 50.7623 77.6538 50.7531Z" fill="#281616"/>
<path fill-rule="evenodd" clip-rule="evenodd" d="M89.3097 49.9827C88.4059 49.7865 87.528 49.7211 87 49.7211V49C87.5529 49 88.4586 49.0677 89.3925 49.2705C90.3193 49.4718 91.3065 49.8127 92 50.3816L91.7287 51C91.125 50.5047 90.2205 50.1805 89.3097 49.9827Z" fill="black"/>
<path fill-rule="evenodd" clip-rule="evenodd" d="M76.8978 48.1863C78.1827 48.5496 79.3099 49.0992 79.9502 49.4914L80.3236 48.8818C79.6542 48.4718 78.4926 47.9062 77.1676 47.5316C75.8489 47.1587 74.3336 46.9648 72.967 47.337L72.9632 47.9889C74.1908 47.6545 75.6066 47.8213 76.8978 48.1863Z" fill="#281616"/>
<path fill-rule="evenodd" clip-rule="evenodd" d="M79.1851 62.531C79.1851 62.531 82.664 64.5984 85.3698 63.719L85.3702 64.2414C82.4917 65.1729 78.8964 63.0515 78.886 63.0455L79.1851 62.531Z" fill="#FF8685"/>
<path fill-rule="evenodd" clip-rule="evenodd" d="M79.9204 62.5971C79.9204 62.5971 78.849 62.7442 79.107 63.5178L78.2744 63.4719C77.8956 62.1849 79.5879 61.902 79.5908 61.8969L79.9204 62.5971Z" fill="#FF8685"/>
</g>
</svg>
