<svg width="32" height="32" viewBox="0 0 32 32" fill="none" xmlns="http://www.w3.org/2000/svg">
<path d="M32 25.1428C32 26.1875 31.1531 27.0344 30.1084 27.0344H1.89156C0.846875 27.0344 0 26.1874 0 25.1428V6.85745C0 5.8127 0.846875 4.96582 1.89156 4.96582H30.1084C31.1531 4.96582 31.9999 5.81276 31.9999 6.85745L32 25.1428Z" fill="#656A84"/>
<path opacity="0.15" d="M1.34481 25.1428V6.85745C1.34481 5.8127 2.19181 4.96582 3.2365 4.96582H1.8915C0.846875 4.96582 0 5.81282 0 6.85745V25.1428C0 26.1875 0.846875 27.0344 1.89156 27.0344H3.23656C2.19187 27.0344 1.34481 26.1874 1.34481 25.1428Z" fill="#202121"/>
<path d="M19.3367 15.9874C19.3392 15.3852 19.1134 14.782 18.659 14.3275C18.2035 13.8721 17.5989 13.6465 16.9954 13.6501C16.9925 13.6501 16.9897 13.6499 16.9867 13.6499C15.6762 13.6499 14.6367 14.6892 14.6367 16C14.6367 17.298 15.689 18.35 16.9867 18.35C18.2976 18.35 19.337 17.3105 19.337 16C19.337 15.9957 19.3367 15.9917 19.3367 15.9874Z" fill="white"/>
<path d="M14.1996 16.9945C13.8484 17.3461 13.5242 17.4835 13.175 17.4909C12.3243 17.4833 11.6989 16.8533 11.6989 15.9551C11.6989 15.503 11.8701 15.1324 12.1413 14.8159C12.3956 14.5744 12.7232 14.4184 13.0999 14.4184C13.5066 14.4184 13.8231 14.554 14.1844 14.9155V13.8761C13.8232 13.6954 13.5066 13.605 13.0999 13.605C12.5254 13.646 11.9838 13.8782 11.5683 14.2427C11.4485 14.3504 11.3338 14.4694 11.2364 14.6055C10.9329 14.9989 10.7495 15.4805 10.7495 16.0005C10.7495 17.3109 11.7893 18.3052 13.0999 18.3052C13.1063 18.3052 13.1126 18.3046 13.1188 18.3045C13.1276 18.3047 13.1363 18.3052 13.145 18.3052C13.5065 18.3052 13.8231 18.215 14.2298 18.0342L14.1996 16.9945C14.1844 17.0097 14.2148 17.0239 14.1996 17.0384V16.9945Z" fill="#E7E8E3"/>
<path d="M22.3038 14.2523L21.2803 16.7687L20.1052 13.7856H19.1562L21.0091 18.3503H21.5062L23.4496 13.7856H22.5007L22.3038 14.2523Z" fill="#E7E8E3"/>
<path d="M23.8115 15.7743V18.215H26.2521H26.2971V17.4916H25.5289H24.7154V16.6783V16.2716H26.2521V15.5031H24.7154V14.5541H26.2971V13.7856H23.8115V15.7743Z" fill="#E7E8E3"/>
<path d="M3.38336 13.7856H2.11768V18.215H3.3833C4.06111 18.215 4.55818 18.034 4.96493 17.7176C5.46199 17.3109 5.77849 16.6783 5.77849 16.0005C5.77855 14.6895 4.8293 13.7856 3.38336 13.7856ZM4.42274 17.1303C4.15155 17.3561 3.78999 17.4916 3.24761 17.4916H2.97643V14.554H3.20236C3.74474 14.554 4.1063 14.6444 4.37755 14.9155C4.69386 15.1865 4.87474 15.5935 4.87474 16.0003C4.91993 16.4071 4.73918 16.8588 4.42274 17.1303Z" fill="#E7E8E3"/>
<path d="M7.04423 13.7854H6.18555V18.2146H7.04423V13.7854Z" fill="#E7E8E3"/>
<path d="M9.21321 15.5031C8.67096 15.3223 8.53521 15.1867 8.53521 14.9608C8.53521 14.6896 8.8064 14.4637 9.16796 14.4637C9.43915 14.4637 9.66509 14.5541 9.89109 14.8253L10.3431 14.2378C9.98146 13.9213 9.52971 13.7407 9.03252 13.7407C8.26402 13.7407 7.63127 14.2831 7.63127 15.006C7.63127 15.6388 7.90271 15.91 8.71609 16.2263C9.07765 16.3617 9.21327 16.4071 9.30384 16.4975C9.48427 16.5877 9.57484 16.7687 9.57484 16.9492C9.57484 17.3109 9.30384 17.5821 8.89684 17.5821C8.48971 17.5821 8.12846 17.3562 7.94765 16.9945L7.40527 17.5369C7.81221 18.1244 8.30934 18.3955 8.94209 18.3955C9.8459 18.3955 10.4783 17.808 10.4783 16.9492C10.4785 16.1811 10.2075 15.8647 9.21321 15.5031Z" fill="#E7E8E3"/>
<path d="M28.7379 16.3617C29.4156 16.2263 29.7773 15.7742 29.7773 15.0965C29.7773 14.2831 29.1896 13.7856 28.1955 13.7856H26.8848V18.215H27.7435V16.4521H27.8792L29.0991 18.215H30.1388L28.7379 16.3617ZM28.0145 15.8193H27.7435V14.4636H28.0145C28.5569 14.4636 28.8734 14.6895 28.8734 15.1418C28.8734 15.5935 28.557 15.8193 28.0145 15.8193Z" fill="#E7E8E3"/>
</svg>
