<svg width="64" height="64" viewBox="0 0 64 64" fill="none" xmlns="http://www.w3.org/2000/svg">
<mask id="mask0" style="mask-type:alpha" maskUnits="userSpaceOnUse" x="0" y="0" width="64" height="64">
<rect x="0.5" y="0.5" width="63" height="63" fill="#C4C4C4" stroke="#C9CBD4"/>
</mask>
<g mask="url(#mask0)">
<path d="M14.2963 39.794C14.1812 39.771 14.0661 39.7481 13.951 39.7252H13.6641L13.5958 39.8754H13.3909L13.2953 40.053H13.104L13.3089 39.7252L13.6778 39.2334L14.2515 38.7963H14.6886L15.0301 38.4821H14.7706L14.6067 38.5914L14.3334 38.4138H14.0056L13.9783 38.2635H13.4182L13.3363 37.9767L13.6778 37.7581L13.9783 37.6625L14.0671 37.2254L14.0056 36.8975L13.6504 36.9932V36.8975L13.869 36.6926L13.7734 36.5424L13.8417 36.2828L14.0671 36.5151L14.47 36.4741L14.511 36.3648L14.8115 36.5014L14.7569 36.1326L14.934 35.6079L14.6409 35.1913L14.466 34.9085L14.5483 34.5433L14.4455 34.4611L14.2089 34.6051L13.962 34.5639L13.7563 34.6873L13.5815 34.5536H13.3655L13.3912 34.3479L13.6175 34.0342L13.6998 33.7514L13.5403 33.4788L13.6689 33.2783L13.5352 33.1857L13.3604 33.3914L13.2369 33.232L13.1289 33.2577L13.0518 33.8902L12.9592 33.8285L13.0055 33.2217L13.0415 33.0571V32.7023L13.3038 32.3372L13.2678 32.2189L13.0724 32.3989L12.9129 32.5634V32.728L12.7175 32.7794L12.5581 32.7434L12.625 32.5994L12.6147 32.4915L12.8769 32.2189L12.9695 31.9155L13.0055 31.6995L12.9438 31.5349L12.8924 31.3086L13.0158 31.0464L12.9335 30.9332L13.0106 30.851L13.2678 30.7892L13.2729 30.5064L13.1958 30.4035L13.2626 30.3213H13.4221L13.4426 29.9716H13.7563H14.2346L14.3272 29.8996L14.466 29.8481H14.6974L14.7488 30.0796L14.5689 30.2338L14.0392 30.8149L14.1215 30.8921L14.0597 30.9898L13.998 31.0927L14.0237 31.3035L14.1883 31.2006L14.538 31.0824L14.9391 31.0669L15.4894 31.0978L15.6282 31.2984L15.4328 31.5709L15.4174 31.8126C15.4174 31.8126 15.294 32.0801 15.294 32.1058C15.294 32.1315 15.0986 32.3629 15.0986 32.3629L14.9443 32.5532L14.7489 32.5583L14.7232 32.6817L14.8106 32.7486L14.8877 32.7332L14.9597 32.7846L14.9751 32.8874L14.7849 32.872L14.7232 32.9492L14.5483 33.1446L14.6563 33.2269L14.9546 33.2834L15.258 33.2629L15.4586 33.4429L15.6097 33.7176L15.762 33.8645L15.8134 34.2451L16.0037 34.6462L16.1117 34.9506L16.3277 35.1656L16.5951 35.2685L16.7751 35.4896L16.8059 36.0964L16.9293 36.2404L17.0373 36.3587L17.099 36.5953L16.9293 36.8215L17.0219 36.945L17.3407 36.9244L17.5259 36.8061L17.855 36.8935L18.0247 37.0787V37.4232L17.963 37.6804L17.7419 37.9632L17.5207 38.2306L17.2019 38.4363L17.2482 38.5957L17.5465 38.6935L17.7933 38.6317L17.855 38.7037L17.7985 38.8374L17.1145 39.2488L16.9705 39.2231L16.8574 39.1511L16.2865 39.2488L16.0243 39.1614L15.906 39.2334L15.798 39.2951L15.6334 39.254L15.3351 39.3723L14.9032 39.2643L14.6306 39.3517L14.43 39.5471C14.3855 39.6294 14.3409 39.7117 14.2963 39.794Z" fill="#C9CBD4"/>
<path d="M12.5582 34.1656L12.7763 34.712L13.0221 34.8896V35.1082L12.5582 35.5863L12.4894 35.6819L12.5582 36.119L12.6397 36.6517L12.5582 37.1981L12.4074 37.4987V37.6626H12.0386H11.902L11.6288 37.7445L11.2327 38.1407L10.7409 38.4002H10.2492V38.2375L10.0109 38.2787L10.1206 38.1073L9.90117 38.1278L9.80518 37.9838L10.0109 37.7713L9.89432 37.6959L9.96974 37.6479L10.1412 37.6204L10.1069 37.4764L10.2029 37.3393L10.4429 37.2502L10.4086 37.1473L10.0863 37.2227L10.1206 37.1267L10.2646 36.9896L10.2714 36.8388L10.4291 36.729L10.401 36.5893L10.1892 36.5645L10.0932 36.4753L9.85832 36.4616L9.90974 36.2405L9.84289 36.1274L10.0846 36.0399L10.316 35.8754L10.2697 35.6851L10.0692 35.7262L10.064 35.5668L10.0949 35.4485L9.98688 35.3303L10.1874 35.2428L10.4651 35.3045L10.6143 35.392L10.892 35.3457L11.1594 35.0886L11.2674 34.8828L11.1183 34.7851L11.0051 34.7646L11.1337 34.5897L11.0925 34.4252L11.3085 34.2503L11.6017 34.132L11.6737 34.2246L11.7354 34.132L11.8279 34.0703H11.9514L12.0902 34.2143L12.5582 34.1656Z" fill="#C9CBD4"/>
<path d="M12.7692 31.751L12.9183 31.6173L12.7692 31.5607L12.6663 31.535L12.6354 31.2625H12.5583L12.5789 31.0979H12.4606L12.4195 31.2882L12.332 31.391L12.3577 31.4836L12.4966 31.4784L12.5326 31.6687L12.7692 31.751Z" fill="#C9CBD4"/>
<path d="M12.0337 30.5373L12.2291 30.239L12.4554 30.0693L12.5994 30.1516L12.4245 30.3985L12.4348 30.671L12.2085 30.7842L12.0337 30.5373Z" fill="#C9CBD4"/>
<path d="M1.23358 22.2266H1.72535L2.17613 22.1583L2.99573 22.732H3.21429L3.56946 22.9369H3.95194L4.26612 22.8277L4.62128 22.4315L4.90814 22.3632L5.03108 22.1583L5.24964 22.2813L5.42722 22.1583L5.91898 21.6802L6.4927 21.5299L6.77957 21.2294V21.0245L7.16205 20.8196L7.33963 20.5874L7.08009 20.3688H7.40793V20.1776L7.32596 19.959L7.40793 19.6246L7.3025 19.4395L6.99395 19.3161L6.89109 19.1721H6.59283L6.61339 18.7298L6.44883 18.6064L6.43855 18.3184L6.12999 18.4418L5.97571 18.2155L5.82143 17.907L5.53345 17.979L5.51288 18.4521L5.18375 18.5755L4.98833 18.483L4.84434 18.8018H4.64892L4.4535 18.5344H4.32075V18.7504L4.41236 19.0692L4.37122 19.2132L4.22723 18.9355L4.04209 18.7915L3.86724 18.4315L3.48669 18.7812L3.52783 19.1721L3.3427 19.2338L2.93129 18.5652L2.77701 18.6372L2.89015 19.0178L2.86958 19.4703L2.47874 19.3983L2.24218 20.0155L2.1599 19.748L2.07762 19.4292L1.92334 19.2132L2.14961 18.9458L2.00562 18.7504L1.8102 18.6578L1.33708 17.9687L0.997667 18.0098L0.894813 18.1435L0.987385 18.2258L1.17251 18.1435L1.33708 18.2875L1.05938 18.4007L1.10052 18.483L1.33708 18.5961L1.41936 18.9458L1.24451 18.7709L1.13138 18.7504L1.06967 18.8224L0.802249 18.4418L0.647974 18.5138L0.586257 18.7092L0.437124 18.7298L0.642825 18.9458L0.437124 18.9766L0.601688 19.0949L0.80739 19.2081L0.689111 19.3829L0.303415 19.1515L0.359983 19.3675L0.303415 19.4909L0.0668582 19.3829L0 19.5423L0.354842 19.712L0.673688 19.5423L1.01824 19.4395L1.20338 19.4189L1.30622 19.3263L1.46051 19.4549L1.78963 19.64L1.71249 19.7943L1.3268 20.036L1.61992 20.1852L1.8102 20.0463L1.81534 20.3137L1.65592 20.422H1.2188L0.833103 20.54L0.462837 20.5811L0.437124 20.7817L0.596547 20.6891L0.889672 20.6634L1.40908 20.6994L1.5325 20.9103L1.52736 21.1828L1.83591 20.9771L1.77934 21.2445L1.8462 21.3165L2.0879 21.3937L1.83591 21.6354L1.81534 21.8462L1.54279 22.0262L1.32165 22.0725L1.19823 22.0365L1.17251 22.1291L1.23358 22.2266Z" fill="#C9CBD4"/>
<path d="M59.0699 39.3154L59.4798 39.2198L59.6437 38.728L59.1382 38.4822L59.0699 38.3182H58.7148L58.7967 38.127L58.4143 37.9084L57.2031 37.1025L57.0027 36.7018V36.3011L57.5856 34.9897L57.622 34.3158L57.2213 33.8423H56.4199L55.236 34.1519L54.6896 33.9152L54.3982 33.3687L54.0704 33.0619L54.174 32.2913L56.0558 30.4869L56.0738 30.0903L55.8189 29.5075L54.5284 29.5985L54.043 28.759L54.3982 28.1169L55.2275 27.5663L56.1257 25.3366L56.6147 22.295L57.8378 20.4372L60.7939 19.0348L62.4331 17.7416L63.685 15.9586L63.9998 14.7778L63.3592 13.7711L62.23 13.079L61.4286 12.4233L60.5179 12.0226L59.4797 11.8724L59.2475 11.6948L58.9743 11.7768L58.947 11.968L58.7009 12.0514L58.6529 12.3188L58.9271 12.7439L58.8997 13.025L59.1466 13.217L59.1328 13.5736L58.838 13.8821L58.4129 13.9164L58.3237 14.0261L58.4883 14.321L58.2483 14.5952L57.9809 14.5541L57.8026 14.3827L57.8437 14.1358L57.878 13.9096L58.022 13.8616L57.83 13.505L57.8095 13.3473L57.5352 13.4296L57.1512 13.6421L56.8975 13.7724L56.7741 14.0467L56.5684 14.273L56.3284 14.2181L56.205 14.1015H55.7935L55.6633 14.0398L55.3753 14.2113L55.1764 14.2935L54.9502 14.6844L54.9227 14.9792L54.6553 14.7392H54.5868L54.3399 15.1781L54.2713 15.0684L54.3262 14.8421L53.7639 14.7872V14.6227L54.0451 14.4512L54.2439 14.4375L54.2028 14.2867L54.1274 14.129L54.1616 13.8478L54.2233 13.6764L54.1479 13.6147L54.0519 13.4913L53.8462 13.5256L53.2222 14.0124L53.3388 14.2113L53.4074 14.465L53.1194 14.6227L53.044 14.5473L53.1194 14.4513L53.0851 14.3278L52.852 14.2456L52.6189 14.3141L52.4954 14.4581L52.0018 14.6227L51.6726 14.9792L51.4258 15.1918L51.0075 15.4386L50.8978 15.5209L50.7127 15.514L50.6784 15.6512L50.795 15.7609L50.6167 15.8089L50.0887 15.9803L50.027 16.522L49.9653 16.8306L49.931 17.1665L49.5607 17.242L49.259 17.338L48.7996 17.29L48.5391 17.1597L48.4568 16.8374L48.2991 16.6454L48.0591 16.5426L47.9974 16.1929L48.2785 15.9323V15.6923L48.5116 15.5758L49.0807 15.5346L49.1767 15.4455L49.115 15.2672L49.0465 14.9792L48.8476 14.6158L48.5939 14.4101L48.2579 14.2387L47.8602 14.2318L47.4625 14.2387L47.2294 14.1564L46.9894 13.9781L46.9551 14.033L47.0854 14.2181L47.2705 14.3621L47.5105 14.5609L47.5517 14.8284V15.2466L47.5105 15.6306L47.3597 16.0694L47.2774 16.4191L47.2431 16.618L47.2911 16.7071L47.5517 16.8168L47.6957 17.0774L47.7505 17.3311L47.6888 17.4339L47.682 17.5094L47.7848 17.6054L47.682 17.7631L47.5654 18.0648L47.4351 18.3459L47.4557 18.4625L47.5105 18.5927L47.4351 18.7847L47.3528 18.627L47.1471 18.4762L47.0031 18.4008L47.0443 18.3185L46.9551 18.243L46.866 18.2088V18.0853H46.6946L46.5712 18.1265L46.2146 17.8933L45.9883 18.1608L45.6661 18.5722L45.3849 18.6956L45.1518 18.7642L45.0147 18.9562L44.8981 19.1619L44.6718 19.299L44.4867 19.4636L44.4387 19.6624L44.5141 19.9367L44.761 20.3275L45.0078 20.8795L44.9975 21.1161L44.8227 21.1675L44.6273 20.9001L44.4936 21.0132L44.4833 21.2292L44.2467 21.1469L43.9484 20.9515L43.6913 20.8486L43.4547 20.9001L43.3416 21.0029L43.2902 20.8589L43.3827 20.7355L43.1873 20.6532L43.0228 20.5812V20.3961L42.5496 20.1904L42.4365 20.2521V20.5092L42.1999 20.5504L42.2514 20.7561L42.4262 21.0235L42.5599 21.2909L42.7554 21.4452L42.9713 21.3115L43.0948 21.3526L43.2439 21.584L43.1719 21.7229L43.2902 22.0006L43.1925 22.1549L42.8993 22.4068L42.6114 22.3348L42.2771 22.1446L41.9582 22.0726L41.9223 21.7846L41.5674 21.4915L41.3926 21.6149L40.9914 21.2138L41.0377 20.6943L40.904 20.5092L40.8526 20.1184L40.6983 19.8818L40.8629 19.5321L40.9452 19.3573L40.8629 19.1927L40.9143 19.0693L41.0274 19.1516L41.0172 18.9459L40.8732 18.7556L40.6109 18.5036L40.292 18.3493L40.1275 18.2413V18.0305L39.9835 17.9585L39.9321 17.7425L39.7212 17.5625L39.5669 17.4905L39.4795 17.3156L39.351 17.1922L39.4075 17.0534L39.351 16.93L39.2173 16.8065V16.678L39.3612 16.7088L39.4332 16.75L39.603 16.894L39.7675 17.1511L40.0092 17.3517L40.1223 17.4442L40.1738 17.2951L40.3435 17.4648L40.5543 17.5265L40.7549 17.5882L40.8217 17.7888L41.0326 17.6602L41.2537 17.8299L41.5263 18.0305L41.8194 18.1179L42.1588 18.1693L42.4828 18.2516L42.7759 18.339L43.0485 18.4984L43.2491 18.6013L43.6656 18.5602L44.0153 18.5036L44.2982 18.3596L44.5553 18.2413L44.8536 18.0048L45.0747 17.7322L45.2495 17.4956L45.3781 17.3002L45.4347 17.0328L45.4964 16.75L45.3318 16.5648L45.2547 16.174L45.265 15.8654L45.0078 15.6032L44.7147 15.4437L44.6273 15.31L44.2622 15.1403L43.7582 14.6261H43.4445L43.3416 14.4306L42.8891 13.901L42.488 13.5204L42.0766 13.217L41.5211 12.9393L41.2743 12.8621L41.0326 12.9084L40.7343 12.8261L40.4926 12.7336L40.1995 12.8107L40.1584 13.037L39.9681 13.217L39.9063 13.1553L40.0298 12.965V12.5588L39.7829 12.461L39.3921 12.3839L39.0989 12.1628L39.0578 12.0188L39.1709 11.8748L39.3406 12.0548L39.5926 12.1628L39.7572 12.1011L39.7932 11.9519L39.7058 11.8028H39.4538L39.3304 11.6948L39.1709 11.5251L39.0218 11.5611V11.8079L38.8984 11.8439V11.9314L38.9293 12.0651L38.7493 12.0805L38.631 11.9262L38.3996 11.8337L38.1116 11.7925L37.911 11.6331L37.8339 11.6794L37.7362 11.9416L37.5459 11.8182L37.5819 11.7051L37.5459 11.5611L37.3813 11.4634L37.1756 11.304L36.9133 11.2165L36.6716 11.0983L36.7025 10.9286L36.9391 11.0108L37.2219 11.0725L37.5253 11.1548L37.731 11.124L37.9264 10.9286L38.163 10.7846H38.3533L38.3841 10.6097L38.307 10.44L38.199 10.4966L38.1424 10.3732L38.091 10.2343L37.7567 10.3269L37.6899 10.2343L37.8287 10.0646L37.6436 9.91547L37.4893 10.0595L37.4687 9.8589L37.2373 9.93604L37.1396 9.8949L37.1962 9.76633L36.9802 9.51434L36.8208 9.64805L36.6459 9.87947V10.2189L36.6819 10.332L36.5585 10.3526L36.3117 10.3063L36.25 10.188L36.3888 10.0492L36.4659 9.90518L36.3014 9.98746L36.142 10.0183L36.1934 9.89489L36.2962 9.82804L36.25 9.73548L36.3425 9.62748L36.4916 9.57091L36.5791 9.51434L36.6048 9.38064L36.4145 9.30349L36.3579 9.09779L36.1419 9.19035L36.0288 9.05664L35.9568 9.12349L36.0237 9.32405L35.8334 9.28291L35.746 9.36519L35.926 9.58118L35.9825 9.69432L35.6791 9.95659V10.2497L35.5094 10.44L35.2677 10.5788L35.2368 10.3114V9.99259L35.1957 9.83831L35.3706 9.66346L35.1957 9.49376L35.0311 9.80232L34.9489 10.0492L34.8049 10.2549L34.5992 10.4811L34.558 10.8617L34.3318 11.2011L34.1312 11.0983L34.1878 10.7228L34.342 10.3732L34.2392 10.224L34.4398 10.0337L34.5477 9.81775L34.7277 9.64805L34.6763 9.55548L34.5323 9.4372L34.4757 9.60177L34.306 9.49891L34.0489 9.37549L33.9461 9.66862L33.7712 9.59662L33.7352 9.7149L33.9821 9.85375L33.9152 10.0595L33.7969 9.96689L33.6787 10.08L33.7198 10.332L33.5347 10.3063L33.5604 10.0903L33.4627 9.88975L33.3547 9.79719L33.3032 9.87947L33.3444 10.1006L33.4061 10.2189L33.437 10.3526L33.3032 10.5531L33.1027 10.7897L33.0718 11.1034L33.1952 11.3297C33.1952 11.3297 33.005 11.4428 32.9895 11.448C32.9741 11.4531 32.7684 11.2577 32.7684 11.2577L32.6501 11.052L32.7221 10.9388L32.4753 10.8668L32.5061 11.016L32.4444 11.1085L32.3107 10.9697L32.2747 10.764L32.1307 10.728L32.0279 10.8771L31.8479 10.8103L31.6422 10.8771L31.745 11.1137L31.9507 11.1651L32.1462 11.2834L32.0999 11.4634L32.1359 11.6177L31.9199 11.5302L31.6833 11.3502L31.6165 11.5611L31.529 11.5868L31.4673 11.7154L31.349 11.664L31.4005 11.4994L31.313 11.2937L31.2771 11.5097L31.2411 11.7257L31.1845 11.8954L31.1022 12.0805L31.1742 12.2296L31.0559 12.2708L30.9325 12.3325L30.9016 12.1782L30.9479 11.8645L30.9325 11.6742L30.9942 11.412L30.9016 11.4171L30.7628 11.7617L30.6445 11.9622L30.6857 12.1525L30.5725 12.1165L30.4954 11.9622L30.5314 11.7977L30.3874 11.8131L30.1045 11.8902L30.0788 11.7617L30.2897 11.6074L30.4799 11.4171L30.4491 11.2782L30.3205 11.2731L30.2434 11.3297L30.1662 11.2165L29.8988 11.4428L29.976 11.6022H29.8628L29.7548 11.7976L29.5748 12.0342L29.5234 12.1268L29.5594 12.1885L29.76 12.1988L29.8783 12.1268L29.8937 11.9468L29.9811 11.9159L30.0274 12.1113L30.0994 12.281L30.1354 12.4507L30.3411 12.5742L30.3668 12.821L30.264 12.9239L30.1817 12.8622L30.2125 12.713L30.0891 12.5588L29.9143 12.317L29.7343 12.4199L29.8474 12.7079L29.6983 12.7336L29.616 12.4765H29.5234L29.4206 12.5793L29.3589 12.4199L29.0657 12.2142L28.9166 12.3685L28.9475 12.5176L28.7161 12.6513V12.7902L28.6543 12.8776L28.6955 12.9907L28.6543 13.0473V13.1399L28.8858 13.0113L28.9938 12.9239L29.2303 12.9547L29.3692 12.7953L29.4823 13.0267L29.22 13.1193L29.0606 13.2376L28.9989 13.5101L29.0349 13.6747L28.8241 13.8855L28.4846 13.9884L28.3201 13.9421V13.7261L28.1401 13.6335V13.8547L27.9601 13.9267L27.9293 13.7364L27.8521 13.6387L27.9138 13.4433L27.6824 13.5461V13.7981H27.5384L27.4459 13.433L27.3584 13.4793L27.235 13.7055L27.0807 13.721L26.8955 13.9164L26.9573 14.045L27.1784 13.8855L27.3275 13.8547L27.2144 14.0604L27.4047 14.0295L27.5487 13.9113L27.6669 13.9421V14.0758L27.4715 14.2507L27.4407 14.3535L27.2504 14.369L27.0755 14.4667L26.8956 14.5901L26.6281 14.6261L26.479 14.6929L26.2939 14.8935L26.1293 14.9912L25.9339 15.0632L25.8259 15.3666L26.1447 15.1712L26.335 15.0015L26.6024 14.7495L26.7978 14.7444L26.8184 14.8472L27.019 14.7135L27.2298 14.5592L27.5075 14.3998L27.6567 14.5644L27.8212 14.4101L28.0321 14.2095L28.1401 14.1324L28.2326 14.3381L28.5463 14.3021L28.8755 14.153L29.1223 14.2044L29.1943 14.4152L28.9166 14.4204L28.6235 14.5798L28.4435 14.4307L28.0989 14.6107L28.3252 14.8318L28.2275 15.1403L28.1658 15.2741L28.0681 15.1455L27.9858 14.7649L27.8161 14.9398L27.5487 14.9552L27.4972 15.1249L27.6926 15.0889L27.8469 15.1403L27.9395 15.2895L27.7492 15.2843L27.5435 15.3975L27.4407 15.418L27.3584 15.2381L27.2401 15.3975L27.1681 15.5569L27.2967 15.6546L27.4921 15.5569L27.6669 15.5723L27.6824 15.7472L27.4767 15.7883L27.4407 15.8552L27.6464 16.1072L27.5178 16.1277L27.2915 15.9323L27.091 16.102L27.0652 16.3026L27.1732 16.4569L27.4304 16.4363L27.5538 16.5083L27.6669 16.6266L27.6155 16.8117L27.4612 16.6626L27.2709 16.606L27.0447 16.6111L26.875 16.7037L26.6487 16.8785L26.4636 17.146L26.4584 17.254L26.5561 17.3311L26.4944 17.4494L26.1447 17.4905L26.0367 17.8814L25.9956 18.0048L26.0984 18.1231L26.299 18.2002L26.2579 18.2413L26.0624 18.2516L26.0367 18.4625L25.7693 18.5705L25.903 18.7145L25.8722 18.771L25.7127 18.7402L25.6767 18.7916L25.7127 19.0384L25.4607 19.2699V19.4036L25.6819 19.563L25.6305 19.6761L25.3168 19.6247L25.2705 19.7224L25.3168 19.9127L25.5945 20.1235L25.5739 20.3447L25.3168 20.1132L25.0082 20.4269L24.7734 20.5058L24.7322 20.5812L24.9173 20.7458L24.8694 20.8555L24.4717 21.1778L24.3002 21.3355L24.0191 21.692L23.882 21.9663V22.1857L23.6077 22.3023V22.4942L23.8203 22.3914L23.7448 22.6108L23.8134 22.6862L23.8751 22.7891L24.0808 22.6108L24.2797 22.5217L24.4922 22.3023L24.4442 22.0965L24.6499 21.9457L24.7665 21.9183L24.8351 22.0897L24.5814 22.1925L24.65 22.2543L24.8214 22.2268L24.8145 22.4188L24.5814 22.5354L24.458 22.6314L24.4374 22.9537L23.978 22.8919V23.0702L23.7586 23.0634V22.8782L23.5117 22.6794L23.3334 22.9537L23.2032 23.0428L23.018 22.9879L22.8466 23.0428L22.778 23.2005L22.5449 23.2142L22.4832 23.6462L22.2912 23.6736L22.2021 23.509L21.8592 23.6599L21.7975 23.9616L22.0786 23.9273L22.0101 24.2976L21.633 24.186L21.4341 24.2564L21.729 24.4347L21.4341 24.5307L21.0981 24.7158V24.9284L20.961 24.8084L20.8307 24.6336L20.7827 24.7227V24.8941L20.5496 24.8084L20.4467 24.8804L20.7141 25.141H20.6181L20.481 25.0519L20.3507 25.3604L20.5564 25.6484L20.4604 25.9227L20.5496 26.2655H20.913L21.3107 26.1901L21.2695 26.3547L20.8924 26.4644L20.4399 26.5672L20.5016 26.7386L20.3919 26.8826L20.385 26.9649L20.5153 27.0883L20.3507 27.198L20.4124 27.5546L20.5907 27.5066L20.7896 27.7054L20.8376 27.8357L20.673 27.9043L20.5359 28.1991L20.625 28.2334L20.8581 27.966L21.009 27.822L21.0775 27.6163L21.1804 27.3832L21.5644 27.2529L21.5575 27.4312L21.1941 27.5683L21.1393 27.8289L20.9473 28.0551L21.0021 28.254L20.8238 28.4666L20.7416 28.5763L20.6799 28.4871L20.577 28.5077L20.529 28.7545L20.6319 28.8848L20.8856 28.7957L20.9747 28.5763L21.1393 28.7066L21.1187 28.9877L21.0158 29.0288V29.2688L21.0981 29.4677L20.9541 29.4608L20.8376 29.3579L20.769 29.4334L20.7553 29.7625L21.0364 30.0093L21.1735 30.1396L21.4478 30.2493L21.4615 30.503L21.6192 30.5236L22.1541 30.4893L22.4215 30.455L22.9495 30.0573L23.5254 29.3991L23.69 29.1522L23.8614 29.2894L24.1014 29.0494L24.122 28.8163L24.0466 28.59L24.1768 28.4803L24.3551 28.6037L24.4237 29.0082L24.6568 29.1454L24.65 29.4265L24.7459 29.9476L24.9105 30.2836L24.8282 30.4413L25.0614 30.7636L25.1162 31.1476L25.3905 31.6755L25.5756 32.1075L25.8293 32.4572L25.7402 32.7315L25.6853 33.0675L25.9047 33.4446L25.8979 33.8629L26.2476 33.904L26.7413 33.8149L26.707 33.4515L26.8716 33.1429L27.0978 33.0606L27.2555 32.8892L27.8109 32.9715L28.0646 32.5532L28.2498 32.0458L28.3938 31.3258L28.5172 30.5922L28.428 29.7693L28.9217 29.5431L29.0657 29.2757L29.3194 29.4059L29.6143 29.0974L29.7171 28.8162L29.964 28.4803L29.9503 27.9729L29.8474 27.6712L29.3331 27.1843L29.0589 27.2392L29.0177 27.0746L28.7023 26.7592L28.7366 25.5798L28.9217 25.381L28.9903 24.757L29.0726 24.6953L28.9012 24.4827L29.0177 24.325L29.196 24.4073L29.292 24.186L29.3194 23.7834L29.6691 23.7765L29.6486 23.4268L30.1354 23.1114L30.2108 22.9262L30.8554 22.556L30.9239 22.3708L31.1502 22.316L31.349 21.9114L31.4108 21.6714L31.7673 21.3698L31.7262 21.1435L31.4999 20.9172L31.589 20.7664L31.5136 20.5469L31.7947 20.1698L31.8016 19.6624L32.1101 19.6213L32.3433 19.395V18.9287L32.5421 19.0042H32.8095L32.9055 19.1413L33.0495 18.9973L33.5569 19.0659L33.8381 19.0933L34.2015 19.3196L34.4072 19.7653L34.558 20.2727L34.4689 20.6429L34.3043 20.5607L34.0232 20.6429L33.8449 20.9858L33.4609 21.6303L33.0907 22.1309L32.9261 22.3503L32.7136 22.2886L32.645 22.3503L32.597 22.6383L32.3913 22.7548L32.4393 23.18L31.8976 23.2211L31.8839 23.6051L31.6096 23.7971L31.5136 24.085L31.5959 24.3525L31.7742 24.6267L31.6713 25.0999L31.8907 25.4701L31.8496 26.0804L31.7605 26.4026L31.6645 27.1569L31.7262 27.2049L31.8839 27.1089L32.0759 27.3146L32.2747 27.3763L32.261 27.6369L32.453 27.726L32.4804 27.9043L32.7615 27.9386L32.8164 28.1854L33.1387 28.062L33.5844 27.8837L33.9683 27.8289L34.3523 27.5409L34.798 27.4586L35.2163 27.2598L35.6551 27.1706L36.0117 27.2598L36.3545 27.15L36.7659 26.8963L36.8345 26.9855L36.5808 27.2186L36.9133 27.5614L37.1019 27.726L37.6093 27.6369L37.7464 27.8837L37.7876 28.1306L37.5613 28.062L37.1362 28.0071L36.9785 28.2128L36.7111 28.2334L36.5876 28.4186L36.3477 28.4665L36.2791 28.7408H35.8814L35.3329 28.6585L34.9146 28.5214L34.6403 28.5968L34.2701 28.6928L34.0575 28.6723L33.6598 28.9122L33.3238 29.0151L33.2278 29.3237L33.1592 29.6116L33.2964 29.9133L33.317 30.1328L33.5638 30.2219L33.7489 30.0642L33.9752 30.1945L33.8518 30.3933L33.7764 30.9693L33.8312 31.4218L33.7832 31.7647L33.4678 32.0115L33.1318 31.9704L32.9398 31.7647L32.8918 31.463L32.7547 31.415L32.4736 31.0242L32.2267 31.1407L31.877 31.3533L31.7879 31.5384L31.733 31.9361L31.4999 32.1624L31.4382 32.6081L31.541 33.4035L31.685 34.2263L31.637 34.5691L31.2942 34.5485L31.0611 34.4868L30.7525 34.5485L30.7594 34.7268L30.9102 34.7817L30.9034 34.8571L30.7594 34.912L30.5605 35.1519L30.4028 35.3096L30.1423 35.2342L29.8063 35.2068L29.6417 34.6651L29.4909 34.6445L29.0314 34.6994L28.6269 34.9325L28.3526 34.96L28.0441 35.3302L27.7287 35.4125L27.3035 35.5359L26.947 35.7279L26.995 35.8719L26.947 35.9816L26.7824 35.961L26.5904 35.7828L26.4807 35.5976L26.3779 35.4811L26.2544 35.5085L26.0967 35.3919L26.1996 35.1999L26.3642 35.1656L26.3779 34.9874L26.0762 34.9257L26.0282 35.1176L25.9253 35.2274L25.7196 35.1862L25.5276 35.2685L25.3151 35.4262L24.9722 35.4948L24.7871 35.7142L24.41 35.673V35.4536L24.6705 35.1382L24.5882 35.0422L24.4717 35.0765L24.3825 35.2479L24.218 35.1931L23.93 35.1176L23.738 35.0216L23.7243 34.7679L23.498 34.6377L23.4911 34.5348L23.69 34.48L23.6763 34.3908L23.45 34.3291L23.5117 34.1508L23.6214 34.1028L23.5529 33.9109L23.6009 33.7874L23.7448 33.8903L23.834 34.0823L23.978 34.2194L24.1562 34.2948L24.2797 34.3017L24.3345 34.1714L24.3825 34.0549L24.2865 33.8972L24.1082 33.7326L23.9643 33.7052L23.7997 33.7394L23.7174 33.7463L23.6283 33.6229L23.7723 33.4515L23.786 33.2663L23.9094 33.2115L23.9574 32.9235L24.0054 32.8412L24.1357 32.7864L24.2248 32.8412L24.3277 32.8755L24.3825 32.7726L24.4374 32.6424L24.3482 32.4984L24.1974 32.4572L24.026 32.5052L23.978 32.3269L23.9437 32.0321L24.0808 31.7784L24.1905 31.5658L24.1631 31.0722L23.9094 31.1956L23.738 31.3121L23.594 31.6001L23.4843 31.7098L23.162 31.7715L22.8534 31.8675L22.6546 32.0527L22.6409 32.1692L22.73 32.2652L22.8534 32.2035L22.97 32.3681V32.5258L22.8534 32.5189L22.6135 32.4367L22.634 32.8412L22.5517 33.0881L22.5449 33.52L22.6272 33.6983L22.8054 33.904L22.922 34.144L22.9494 34.6445L23.0866 34.864L22.9974 35.1725L23.1346 35.4742L23.114 35.6593L23.3471 35.7965L23.2443 35.8513L23.0591 35.7691L22.9083 35.7965L22.8329 35.9816L22.8397 36.1119L22.634 36.1256L22.49 36.2559L22.4352 35.9816L21.8592 36.105L21.7289 36.3999L21.5781 36.2833L21.3106 36.3176L20.9198 36.3587L20.6867 36.6673L20.6798 36.825L20.7827 36.9484L20.8924 37.0033L20.8032 37.2501L20.4467 37.5655L20.3507 37.4764L20.4261 37.2227L20.4741 37.0718L20.3507 36.9004L20.193 36.9484L20.097 37.1267L20.0285 37.4833L19.9599 37.7644L19.7885 37.9769L19.5211 38.1964L19.6993 38.3266L19.761 38.4226L19.6719 38.4775L19.3976 38.4226L19.2399 38.5941L18.9451 38.7655L18.6571 38.9506L18.2183 39.0603L18.0811 39.1632L18.0246 39.458V39.8009L17.8206 40.0531L17.4914 40.2603L17.1897 40.3768L17.0457 40.4248L16.984 40.5963L17.1006 40.706L17.0457 40.802L16.8743 40.8705L16.4561 40.8362L16.1886 40.7608L15.9967 40.6511L15.8115 40.4454L15.6675 40.4523L15.6195 40.61L15.7361 40.7882L15.887 41.1654L15.9349 41.5013L15.791 41.5905H15.5921H15.2913L14.9887 41.6248L14.879 41.5013L14.7487 41.3711L14.4333 41.4671L14.1659 41.5493H13.9328L13.6585 41.659L13.6036 41.8373L13.7065 41.8716L13.9465 41.8373L13.9739 42.0293L13.7888 42.1939L13.9122 42.3722L14.111 42.3379L14.3784 42.3722L14.5773 42.4887L14.6939 42.5847L15.071 42.5504L15.2424 42.7493L15.2561 42.907L15.4207 43.0236L15.5235 43.2773L15.4001 43.4281L15.5852 43.6338L15.7635 43.7915L16.0104 43.9149L16.1475 44.1001L16.1612 44.5183L16.3669 44.7583L16.3806 44.9298L16.2161 44.868L16.1269 44.9298L16.0858 45.2932L16.1132 45.6429L16.0309 45.828L15.9624 46.3217C15.9624 46.3217 15.8801 46.6645 15.8732 46.6851C15.8664 46.7057 15.5304 46.9182 15.5304 46.9182L15.1395 46.8565L14.2962 46.8291L14.0767 46.7811L13.6928 46.7948L13.3499 46.692L12.9385 46.596L12.246 46.6645L11.9374 46.6988L11.5534 46.5068H11.382L11.1352 46.884L10.8403 46.9182L10.5112 47.1034L10.6003 47.3022L10.6346 47.5079H10.8403L10.7992 47.9742L10.7512 48.317L10.9226 48.7353L10.8335 49.325L10.7855 49.6815L10.7101 50.0998L10.5112 50.5455L10.4426 50.6346L10.3604 51.0049L10.5729 51.0735L10.5523 51.2449L10.7032 51.286L10.8129 51.1557L10.8403 51.5191L10.7923 51.91L10.7443 52.3625L10.7512 52.5065H10.9706L11.4026 52.4585L11.6906 52.5065L11.9991 52.4448L12.438 52.5682L12.5477 52.9385L12.7259 53.2676L13.0619 53.4048L13.2402 53.1853L13.5076 52.9934L13.6928 52.9659L13.919 52.7945L14.2893 52.8014L14.6596 52.7877L15.0298 52.7671L15.3658 52.7465L15.5578 52.5408L15.7841 52.1911L16.0378 52.0334L16.2778 52.0608L16.3806 51.7866L16.5589 51.4506L16.9223 51.0597L16.5726 50.566L16.7714 50.1889L17.1966 49.4278L17.5051 49.0095L17.8274 48.8587L18.1291 48.8038L18.4308 48.5844L18.8902 48.3444L19.0685 48.1387L19.0548 47.7753L18.9176 47.3365L18.9999 47.0553L19.4456 46.6371L20.0764 46.5822L20.1244 46.8016L20.4741 46.7879L20.9061 47.0142L21.4204 46.9525L22.0169 46.4245L22.4694 46.2805L22.6957 45.9857L23.0523 45.7388L23.3471 45.8828L23.9711 46.2325L24.0671 46.6576L24.2179 46.9799L24.2453 47.165L24.5059 47.405L24.7047 47.6587L24.9859 47.789L25.1779 48.0221L25.411 48.3033L25.7196 48.5638L26.0624 48.7421L26.5149 48.8518L26.6178 49.0575L26.8509 49.2152L26.9949 49.3181L27.2898 49.3524L27.2486 49.6746L27.468 49.8118L27.7903 49.9695L27.9137 50.3329L28.092 50.7237L28.1263 51.0186L27.9754 51.1626L27.8932 51.3477L27.7766 51.6699L27.8657 51.7522L28.0234 51.7591L28.2291 51.478L28.3251 51.1968L28.38 50.998L28.5583 50.8608L28.7228 50.8266V50.6346L28.6405 50.4083L28.4417 50.3329L28.2908 50.23V50.0517L28.6611 49.4484L28.7502 49.4278L28.8531 49.5169L29.0245 49.6609L29.2508 49.6678L29.3468 49.7775L29.4016 49.9352L29.5525 50.0449L29.6279 50.0312L29.6759 49.8666L29.621 49.6815L29.4222 49.4963L29.0999 49.2564L28.7845 49.0301L28.2634 48.8244L27.8657 48.605L27.8931 48.4335L28.0645 48.317L28.0097 48.2484L27.8177 48.2004L27.6463 48.2621L27.3377 48.2004L27.036 47.9878L26.6795 47.6107L26.4463 47.1787L26.3983 46.925L26.2201 46.6233L26.0486 46.5205L25.8087 46.2873L25.5207 46.1502L25.4178 45.8897L25.2396 45.7251L25.3082 45.4989L25.4591 45.3343L25.3836 45.108L25.3013 44.9229L25.3699 44.7378L25.5825 44.6418L25.6442 44.6966L25.9047 44.5526L26.1585 44.4498L26.4259 44.5115L26.3436 44.7309L26.2956 44.916L26.4122 45.1492L26.5219 45.3206L26.6933 45.1835L26.755 44.916L26.8578 44.7446L26.995 44.9572L27.1596 45.0669L27.2693 45.2177L27.2624 45.492L27.331 45.7183L27.4681 46.0063L27.6738 46.26L27.8589 46.4931L28.0098 46.6645L28.4006 46.6577L28.716 46.8839L28.9217 47.0965L28.788 47.1685L28.9526 47.3022L29.3434 47.3742L29.7137 47.6313L29.9708 47.7753L30.1765 48.1045L30.4748 48.2587L30.4234 48.6084L30.4028 48.9581L30.4542 49.1433L30.2691 49.5238L30.3308 49.709L30.5674 49.7912L30.7731 50.0278L30.5828 50.1666L30.7165 50.4546L30.9016 50.7529L31.1793 50.83L31.3028 51.0409L31.493 51.1386L31.5702 51.3854H31.781L32.0844 51.334L32.5421 51.406L32.8918 51.5191L32.9021 51.6734L32.7221 51.7608L32.4599 51.6117L32.2182 51.5911L32.0844 51.4626L31.9456 51.5294L31.8839 51.6323L31.7193 51.6169L31.529 51.8123L31.709 52.0077L31.925 52.2237L31.8376 52.3677L31.9764 52.7277L32.1461 52.5785L32.2438 52.5734L32.3364 52.7945L32.4033 53.0054L32.501 52.9488L32.5678 52.7431L32.7118 52.7379L32.8507 52.9745L32.8661 52.8099L32.7992 52.5682L32.7272 52.3574L32.6295 52.1671L32.7118 52.0951L32.8609 52.1568L33.0204 52.2443L33.0461 52.1465L32.9072 51.9511L32.8301 51.838L32.9792 51.7351L33.1386 51.7146L33.3032 51.7866L33.4163 51.8586L33.5089 51.838L33.5346 51.6323L33.6632 51.478L33.6529 51.262L33.5501 51.19L33.3392 51.118L33.1592 50.9175L33.0307 50.866L32.9484 50.9175L33.0358 51.0306L33.2312 51.2157L33.2209 51.3289L33.0975 51.334L33.0461 51.2363L32.8918 51.1335L32.753 50.9895L32.825 50.8609L32.7581 50.7272L32.7941 50.5678L32.7581 50.4958L32.8764 50.5935L32.9947 50.5678L32.9124 50.4083L32.7015 50.1924L32.6193 49.9815L32.5164 49.8221L32.465 49.6318L32.5216 49.4518L32.645 49.3901L32.7941 49.3541L32.8764 49.4981L33.0461 49.6678L33.2261 49.709L33.3392 49.6369L33.4215 49.5238L33.3855 49.3335L33.4884 49.205L33.6992 49.1278L33.9306 49.0713L34.1775 49.0404L34.342 48.9684L34.5272 49.0507L34.738 49.1175L34.9797 49.169L35.1443 49.0198L35.1545 48.7678L35.3243 48.7061L35.1957 48.3821L35.6071 48.0067L36.2242 48.0942L36.1574 47.8679L35.9465 47.6776L36.0031 47.5285L36.2448 47.1582L36.2911 46.8137L36.4917 46.7005L36.6562 46.7057L36.6768 46.1811L36.6871 45.8314L36.9545 45.5949L37.1345 45.3686H37.3608L37.4276 45.0343L37.4893 44.7978L37.3248 44.7001L37.3865 44.5509L37.479 44.4275L37.551 44.5252L37.8442 44.3298L37.9573 44.1447L37.7362 43.9081L37.7773 43.7898L37.9984 43.939L38.1064 44.0007L38.1733 43.7847L38.199 43.6458L38.3738 43.6098L38.6927 43.6201L38.883 43.5944L38.9292 43.4144L39.0835 43.4813L39.135 43.5995L39.3201 43.6973L39.2378 43.8618L39.0938 43.9132L39.2121 44.0624L39.4024 44.1292L39.5669 44.1035L39.7726 44.0624L39.9732 44.1035L40.1943 44.1447L40.2012 44.3675L40.0366 44.4429L39.7966 44.5321L39.5155 44.7789L39.6732 44.8338L39.8583 44.9503L39.9132 45.108L40.1189 45.0875L40.16 45.2863L40.112 45.5194L40.1875 45.684L40.2629 45.7937L40.4206 45.7731L40.6263 45.6909L40.7634 45.54L40.8183 45.4234L40.976 45.4166L41.1954 45.3617L41.3051 45.2726L41.3874 45.156L41.5725 45.1012L41.7371 45.1697L41.9497 45.1629H42.0731L42.1005 44.9709L41.9839 44.772L41.7714 44.8955L41.5588 44.9572L41.4422 45.0189L41.2571 44.9777L41.1268 44.7035L41.0446 44.5595L40.8046 44.4018L40.8251 44.1549L40.976 44.0041L41.2845 43.8258L41.3325 43.5721L41.4902 43.7092L41.6617 43.6064L41.9839 43.5447L42.3268 43.4487L42.6079 43.3458L42.8822 43.1813L43.1496 43.0784L43.4101 43.099L43.7941 42.9824L44.0616 42.9207L44.1507 43.0784L43.993 43.3184L43.6227 43.4418L43.5884 43.5858L43.3965 43.5447L43.1153 43.6407L43.1976 43.8464L43.4239 43.9355L43.3622 44.2784L43.177 44.2989L43.0947 44.5732L42.9302 44.8543L42.8205 44.9092L42.5119 44.8612L42.3885 45.0601L42.4571 45.1012L42.5942 44.9915L42.6833 45.1835L42.7931 45.444L43.081 45.5537L43.3827 45.7526L43.6159 45.8486L43.9176 46.0063L44.1507 46.2668L44.3838 46.5411L44.569 46.7125L44.8227 46.596L45.6112 46.8908L46.3037 46.9251L47.1128 47.3091L47.2225 47.5079L47.5242 47.5285L47.6477 47.3639L48.0728 47.3982L48.6213 47.6793L48.4979 47.8919L49.019 48.1524L49.4304 48.3719L49.6156 48.6804L50.0544 48.7353L50.4933 48.2622L50.2053 47.8302L49.7664 47.2062L49.7733 46.7605L49.8967 46.308L49.7321 46.26L49.451 45.8623L49.1562 45.8417L49.2864 45.5331L49.9241 44.6418L50.075 44.5595L50.0956 44.6829L50.1573 44.6006L50.2601 44.4429L50.4315 44.5869L50.5961 44.5115L50.6852 44.2578L50.8292 43.9149L50.4487 43.6201L50.7984 43.4555L50.243 42.5196L49.7493 42.3242L49.6979 42.5093L49.4716 42.3756L49.523 41.9128L49.0705 41.7688L49.379 40.8842L49.3893 40.1848L49.811 39.6191L50.3664 40.2363L50.747 40.0923L50.5413 39.4649L51.1378 39.1666L51.1275 38.9095L52.012 38.3335V38.1278L52.4646 38.2924L52.4749 38.4672L52.6909 38.4878L52.7834 38.3129L53.2051 38.1278L53.2874 38.4878L53.8325 38.4466L54.6039 39.1152L54.645 39.5266L54.7993 39.4135L54.7479 38.9609L55.509 39.5266L56.0335 38.9095L56.2187 39.0123L56.4244 38.8683L56.7432 39.146L56.9181 38.8581H57.3706L57.6483 39.3003L58.0289 39.3518L58.0803 39.5677L58.4609 39.1769L58.8209 39.4032L59.0699 39.3154Z" fill="#C9CBD4"/>
<path d="M50.2593 13.3476L50.3412 12.8695L50.6418 12.405H51.1472L51.7209 12.8763L51.475 13.3476L50.9901 13.7847H50.6691L50.4232 13.6344L50.2593 13.3476Z" fill="#C9CBD4"/>
<path d="M57.5267 10.6975L57.8136 10.4243L58.1824 10.998L58.3873 11.1483L58.8244 11.6401L58.6332 11.9406H58.2643L58.1755 11.6537L57.8955 11.5718L57.7452 11.5308L57.5267 11.1824L57.3354 10.9024L57.6633 11.039L57.5267 10.6975Z" fill="#C9CBD4"/>
<path d="M24.5337 33.5749L24.616 33.9795L25 34.1715L25.2331 34.288L25.4868 33.9795L25.3565 33.8355L25.6856 33.5749L25.4594 33.1772L25.1988 33.2527V33.4584L24.8491 33.5269L24.6228 33.4858L24.5337 33.5749Z" fill="#C9CBD4"/>
<path d="M25.3223 34.3633L25.4594 34.425L25.2811 34.5827L25.1988 34.905L24.6777 34.7335V34.5553L24.952 34.6341L25.144 34.5416L25.3223 34.3633Z" fill="#C9CBD4"/>
<path d="M22.8574 47.9621V47.7162L23.1306 47.525L23.4175 47.3611V47.7436L23.4994 47.8802L23.4038 47.9621L23.4175 48.2763L23.2536 48.6451L23.0213 48.5222L22.8574 47.9621Z" fill="#C9CBD4"/>
<path d="M23.3353 48.9048L23.4992 49.0414L23.6631 49.4785L23.4992 49.6014L23.5812 49.9156L23.5675 50.3664L23.4309 50.6669H23.1167L22.9938 50.8308L22.7889 50.6806V50.2844L22.8572 50.0659L22.584 49.2599L22.8572 49.2326L23.3353 48.9048Z" fill="#C9CBD4"/>
<path d="M25.5757 51.7186V51.9372L25.7806 52.1284H26.0265L26.3406 52.3743L26.5865 52.4972L26.8461 52.5655L26.9963 52.7704H27.2832L27.4608 52.5245L27.2968 52.2445L27.3788 51.8962L27.5974 51.541L27.1466 51.6366L26.8461 51.7459L26.6548 51.6913L26.4499 51.7323L26.2723 51.7186L26.0265 51.541L25.5757 51.7186Z" fill="#C9CBD4"/>
<path d="M29.4673 31.2985L29.5599 31.7613L29.817 31.5968L29.889 31.2985L30.0124 30.846L29.9301 30.7637L29.6319 30.9488L29.4673 31.2985Z" fill="#C9CBD4"/>
<path d="M32.0898 30.2392L32.3058 30.414L32.7275 30.2392L32.9332 30.0335L32.8509 29.8586H32.3675L32.1618 30.0541L32.0898 30.2392Z" fill="#C9CBD4"/>
<path d="M32.3057 29.447L32.6039 29.2825L32.8714 29.447L32.5885 29.6322L32.3057 29.447Z" fill="#C9CBD4"/>
<path d="M30.4751 27.575L30.5985 27.8322L30.8968 27.7036L30.8042 27.3899L30.5574 27.4619L30.4751 27.575Z" fill="#C9CBD4"/>
<path d="M33.3101 53.9397V54.0905L33.7695 54.1317L34.0643 54.3442L34.8048 54.3099L35.1065 54.1728L34.9763 54.1419L34.7226 54.1934L34.6608 54.0631L34.0849 53.9671L33.79 54.0082L33.7215 53.9397L33.5295 53.8711L33.3101 53.9397Z" fill="#C9CBD4"/>
<path d="M18.582 50.3054L18.9866 50.0037L19.0483 50.1888L19.2197 50.1819L19.1786 50.3534L19.0483 50.4768L18.7877 50.4151L18.774 50.3396L18.582 50.3054Z" fill="#C9CBD4"/>
<path d="M27.5952 13.3405L27.7392 13.032L28.0272 12.7131L28.0786 12.8571L27.8935 13.1657L27.7289 13.3405L27.6466 13.4742L27.5952 13.3405Z" fill="#C9CBD4"/>
<path d="M31.082 10.975L31.2363 10.8413L31.3392 10.975L31.2106 11.2321L31.082 11.1602V10.975Z" fill="#C9CBD4"/>
<path d="M32.1826 10.0286L32.3575 10.3474L32.5323 10.2549L32.7792 10.188L32.9129 10.0286L33.0671 9.69946L32.8614 9.82289L32.7277 9.77146L32.6249 9.84346L32.6763 9.96688L32.5735 10.0235L32.4192 9.8846L32.1826 10.0286Z" fill="#C9CBD4"/>
<path d="M34.5273 9.10286L34.6199 9.31885L34.8153 9.21085L34.877 9H34.6405L34.5273 9.10286Z" fill="#C9CBD4"/>
<path d="M32.8198 10.4503V10.6972H32.9124L33.2209 10.3475L33.1592 10.0903L32.9021 10.2446L32.8198 10.4503Z" fill="#C9CBD4"/>
</g>
</svg>
