<svg width="256" height="214" viewBox="0 0 256 214" fill="none" xmlns="http://www.w3.org/2000/svg">
<mask id="mask0_21069:66241" style="mask-type:alpha" maskUnits="userSpaceOnUse" x="0" y="0" width="256" height="214">
<rect width="256" height="214" fill="#C4C4C4"/>
</mask>
<g mask="url(#mask0_21069:66241)">
<rect opacity="0.04" y="176.621" width="180.846" height="177.327" rx="53" transform="rotate(-77.5909 0 176.621)" fill="#312C51"/>
<rect opacity="0.04" x="194.074" y="179.898" width="71.0938" height="69.7101" rx="26" transform="rotate(-116.817 194.074 179.898)" fill="#312C51"/>
<rect opacity="0.04" x="210.774" y="50.875" width="34.2926" height="33.6252" rx="12" transform="rotate(-73.6168 210.774 50.875)" fill="#312C51"/>
<path d="M99.9619 67.6695V47.0586C99.9619 46.5063 100.41 46.0586 100.962 46.0586H128.462H155.962C156.514 46.0586 156.962 46.5063 156.962 47.0586V67.6695C156.962 75.3394 154.207 82.7542 149.199 88.5635L137.591 102.029C134.356 105.781 134.356 111.336 137.591 115.088L149.199 128.554C154.207 134.363 156.962 141.778 156.962 149.448V170.059C156.962 170.611 156.514 171.059 155.962 171.059H128.462H100.962C100.41 171.059 99.9619 170.611 99.9619 170.059V149.448C99.9619 141.778 102.717 134.363 107.725 128.554L119.333 115.088C122.568 111.336 122.568 105.781 119.333 102.029L107.725 88.5635C102.717 82.7542 99.9619 75.3394 99.9619 67.6695Z" fill="#F3F3F3"/>
<mask id="mask1_21069:66241" style="mask-type:alpha" maskUnits="userSpaceOnUse" x="99" y="134" width="61" height="37">
<path d="M99.9619 164.059L126.031 135.62C126.807 134.773 128.137 134.753 128.939 135.577L159.5 167L136.462 170.559H99.9619V164.059Z" fill="#FF5256"/>
</mask>
<g mask="url(#mask1_21069:66241)">
<path d="M99.9619 164.059L127.462 134.059L136.462 170.559H99.9619V164.059Z" fill="#FF5256"/>
<path d="M127.462 134.059L136.462 170.559L156.462 168.559V164.059L127.462 134.059Z" fill="#FF6C70"/>
</g>
<path d="M99.9619 67.6695V47.0586C99.9619 46.5063 100.41 46.0586 100.962 46.0586H128.462H155.962C156.514 46.0586 156.962 46.5063 156.962 47.0586V67.6695C156.962 75.3394 154.207 82.7542 149.199 88.5635L137.591 102.029C134.356 105.781 134.356 111.336 137.591 115.088L149.199 128.554C154.207 134.363 156.962 141.778 156.962 149.448V170.059C156.962 170.611 156.514 171.059 155.962 171.059H128.462H100.962C100.41 171.059 99.9619 170.611 99.9619 170.059V149.448C99.9619 141.778 102.717 134.363 107.725 128.554L119.333 115.088C122.568 111.336 122.568 105.781 119.333 102.029L107.725 88.5635C102.717 82.7542 99.9619 75.3394 99.9619 67.6695Z" stroke="#DDDFE6" stroke-width="5" stroke-linecap="round"/>
<path d="M159.462 54.5586H97.4619V50.5586H159.462V54.5586Z" fill="#8C909E" fill-opacity="0.46"/>
<path d="M119.962 88.5586L116.916 85.0892C111.789 79.2504 108.962 71.7458 108.962 63.9757V61.5586" stroke="white" stroke-width="5" stroke-linecap="round"/>
<path d="M88.9619 41.5586C88.9619 40.454 89.8573 39.5586 90.9619 39.5586H127.962V50.5586H90.9619C89.8573 50.5586 88.9619 49.6632 88.9619 48.5586V41.5586Z" fill="#A9ADBB"/>
<path d="M88.9619 167.559C88.9619 166.454 89.8573 165.559 90.9619 165.559H127.962V176.559H90.9619C89.8573 176.559 88.9619 175.663 88.9619 174.559V167.559Z" fill="#A9ADBB"/>
<path d="M166.962 41.5586C166.962 40.454 166.066 39.5586 164.962 39.5586H127.962V50.5586H164.962C166.066 50.5586 166.962 49.6632 166.962 48.5586V41.5586Z" fill="#828796"/>
<path d="M166.962 167.559C166.962 166.454 166.066 165.559 164.962 165.559H127.962V176.559H164.962C166.066 176.559 166.962 175.663 166.962 174.559V167.559Z" fill="#828796"/>
<path d="M39 177H177" stroke="#DEDFE4" stroke-width="3" stroke-linecap="round"/>
<path d="M189 177H217" stroke="#DEDFE4" stroke-width="3" stroke-linecap="round"/>
</g>
</svg>
