<svg width="586" height="471" viewBox="0 0 586 471" fill="none" xmlns="http://www.w3.org/2000/svg">
<mask id="mask0" mask-type="alpha" maskUnits="userSpaceOnUse" x="0" y="0" width="586" height="419">
<path fill-rule="evenodd" clip-rule="evenodd" d="M478.866 384.573C537.696 384.573 585.387 298.483 585.387 192.286C585.387 86.0895 537.696 0 478.866 0C435.046 0 397.406 47.7642 381.051 116.024C375.521 115.415 369.902 115.102 364.209 115.102C348.31 115.102 332.982 117.543 318.578 122.072C287.399 75.3903 234.23 44.6449 173.88 44.6449C77.8488 44.6449 0 122.494 0 218.525C0 314.556 77.8488 392.405 173.88 392.405C203.09 392.405 230.617 385.203 254.783 372.477C282.422 401.158 321.232 419 364.209 419C401.949 419 436.475 405.241 463.045 382.466C468.207 383.854 473.49 384.573 478.866 384.573Z" fill="#E2E2FD"/>
</mask>
<g mask="url(#mask0)">
<path fill-rule="evenodd" clip-rule="evenodd" d="M478.866 384.573C537.696 384.573 585.387 298.483 585.387 192.286C585.387 86.0895 537.696 0 478.866 0C435.046 0 397.406 47.7642 381.051 116.024C375.521 115.415 369.902 115.102 364.209 115.102C348.31 115.102 332.982 117.543 318.578 122.072C287.399 75.3903 234.23 44.6449 173.88 44.6449C77.8488 44.6449 0 122.494 0 218.525C0 314.556 77.8488 392.405 173.88 392.405C203.09 392.405 230.617 385.203 254.783 372.477C282.422 401.158 321.232 419 364.209 419C401.949 419 436.475 405.241 463.045 382.466C468.207 383.854 473.49 384.573 478.866 384.573Z" fill="#E2E2FD"/>
<path d="M233.356 246.147C152.884 232.252 87.6288 298.252 65.0604 332.989C22.5028 365.41 213.69 456.773 314.603 498.402C381.986 458.427 498.761 371.365 426.8 342.914C336.849 307.35 333.947 263.516 233.356 246.147Z" fill="#A7A7FF"/>
<path d="M345.574 236.085C292.371 213.336 207.95 296.906 172.389 341.535C128.054 437.506 589.417 488.454 583.875 404.331C578.333 320.208 412.076 264.521 345.574 236.085Z" fill="white"/>
<path d="M102.08 282.261C5.26703 240.369 2.36265 333.518 13.012 385.329C106.92 432.707 491.267 402.784 371.219 385.329C251.172 367.874 223.096 334.626 102.08 282.261Z" fill="#CBCBFF"/>
<path d="M426.987 188.917C493.846 131.039 582.991 345.186 584.929 350.147L543.264 446.885H99.4755C91.7237 446.885 -29.3974 359.242 188.621 362.549C406.639 365.857 360.128 246.794 426.987 188.917Z" fill="#A7A7FF"/>
<path d="M230.201 375.142C87.007 357.279 2.18699 393.611 -22.3237 414.01C-1.68312 433.857 41.1461 475.371 47.3383 482.649C55.0785 491.745 398.551 542.191 406.291 542.191C414.032 542.191 706.225 414.01 593.024 375.142C479.824 336.274 409.194 397.47 230.201 375.142Z" fill="#8181FF"/>
</g>
<path fill-rule="evenodd" clip-rule="evenodd" d="M303.998 206.172L296.333 313.873L293.938 347.765L285.439 466.521H263.824L265.956 221.39C265.956 221.39 297.133 187.019 303.998 206.172Z" fill="#281616"/>
<path fill-rule="evenodd" clip-rule="evenodd" d="M247.534 218.304C242.827 226.268 240.69 232.797 239.198 253.717L232.459 282.348L226.02 313.605L219.023 347.556L194.523 466.521H216.038L281.902 220.949C281.902 220.949 259.677 199.113 247.534 218.304Z" fill="#6D6DF6"/>
<path fill-rule="evenodd" clip-rule="evenodd" d="M260.046 200.367L249.763 206.251C249.763 206.251 259.4 250.503 273.382 250.584C287.364 250.666 298.977 205.982 298.977 205.982L260.046 200.367Z" fill="#6D6DF6"/>
<path fill-rule="evenodd" clip-rule="evenodd" d="M261.815 232.417L241.546 250.584L240.723 249.665L260.993 231.502L261.815 232.417Z" fill="black"/>
<path fill-rule="evenodd" clip-rule="evenodd" d="M235.702 264.793L200.771 451.456L199.545 451.309L234.475 264.646L235.702 264.793Z" fill="white"/>
<path fill-rule="evenodd" clip-rule="evenodd" d="M271.5 451.917C273.402 452.27 311.43 465.078 312.619 471H263.405C263.405 471 265.102 458.034 271.5 451.917Z" fill="#281616"/>
<path fill-rule="evenodd" clip-rule="evenodd" d="M251.521 45.6367C251.521 45.6367 251.479 43.1254 253.969 44.6613C254.287 44.8598 254.439 44.6221 254.513 44.0926C254.531 44.0163 254.548 43.94 254.568 43.8541C257.544 18.8692 285.184 59.8363 294.035 42.6801C293.282 46.3338 291.358 49.6616 288.542 52.18C280.475 59.6805 269.496 60.9497 263.422 58.4336C257.348 55.9174 251.889 53.2228 251.521 45.6367Z" fill="#281616"/>
<path fill-rule="evenodd" clip-rule="evenodd" d="M253.041 53.7356C252.172 55.7509 251.182 57.5303 250.186 58.2871C247.278 60.49 246.015 52.5663 245.525 49.5533C245.035 46.5403 244.115 42.0486 246.387 41.9161C247.357 41.9565 248.313 42.1452 249.222 42.4753C249.614 39.2112 247.304 26.2032 261.602 28.4495C272.915 30.2296 280.181 37.186 285.435 32.7497C290.689 28.3134 292.366 38.4878 284.139 46.6897C275.913 54.8915 264.663 57.3439 258.421 55.5673C256.587 55.0759 254.789 54.4639 253.041 53.7356Z" fill="white"/>
<path fill-rule="evenodd" clip-rule="evenodd" d="M284.607 45.2033C284.607 45.2033 281.76 56.1624 278.853 58.3606C275.947 60.5587 274.682 52.6398 274.193 49.6268C273.703 46.6138 272.783 42.122 275.049 41.9885C277.316 41.855 284.607 45.2033 284.607 45.2033Z" fill="#281616"/>
<path fill-rule="evenodd" clip-rule="evenodd" d="M262.059 64.2808L254.995 69.134L256.803 104.577L281.802 105.03L276.691 74.5969L262.059 64.2808Z" fill="#FFE1DA"/>
<path fill-rule="evenodd" clip-rule="evenodd" d="M277.847 104.921L281.802 105.03L276.863 74.4417L271.904 70.6334L271.349 71.0622L277.847 104.921Z" fill="#FF8685"/>
<path fill-rule="evenodd" clip-rule="evenodd" d="M258.056 63.8288L254.316 66.555C255.268 78.8198 265.832 92.2468 279.726 90.783L277.156 72.9945L258.056 63.8288Z" fill="#412F2F"/>
<path fill-rule="evenodd" clip-rule="evenodd" d="M280.616 41.588C280.043 43.6519 286.015 84.6926 272.093 85.5099C258.172 86.3273 248.701 68.8628 250.967 55.7868C253.233 42.7108 280.616 41.588 280.616 41.588Z" fill="#FFD3CA"/>
<path fill-rule="evenodd" clip-rule="evenodd" d="M265.851 84.6136C255.474 80.9075 249.062 66.7928 250.969 55.7866C251.445 53.0463 253.024 50.838 255.218 49.0474C257.647 49.5042 259.624 49.924 259.624 49.924C259.624 49.924 257.868 66.8882 261.449 70.9557C264.193 74.0476 265.127 80.6094 265.851 84.6136Z" fill="#FFE1DA"/>
<path fill-rule="evenodd" clip-rule="evenodd" d="M280.205 36.8759C279.978 37.6929 280.777 44.6009 280.96 52.7078C273.433 57.3916 264.807 58.3258 259.602 56.6018C256.059 55.4201 252.721 54.1723 250.416 52.0054C250.459 51.6811 250.504 51.3705 250.551 51.0737C252.822 37.9987 280.205 36.8759 280.205 36.8759Z" fill="#FF8685"/>
<path opacity="0.3" fill-rule="evenodd" clip-rule="evenodd" d="M281.122 50.638C280.745 51.9314 283.468 64.1022 280.481 74.0216C279.017 81.1477 276.488 86.3256 269.558 85.4726C269.558 85.4726 269.431 84.8255 269.572 84.6807C271.9 81.9728 269.745 79.8383 269.121 78.2278C268.573 77.0002 268.605 75.7083 269.211 74.5938C269.725 73.478 268.702 73.6485 268.556 72.7413C268.41 71.8342 268.999 71.5363 268.886 70.9515C268.773 70.3668 268.282 69.0368 268.659 68.347C269.036 67.6573 272.548 68.5907 273.02 67.0915C273.357 66.0228 266.707 47.0679 266.417 46.0899L272.632 41.3917C274.461 41.3391 281.122 50.638 281.122 50.638Z" fill="#FF8685"/>
<path fill-rule="evenodd" clip-rule="evenodd" d="M247.251 44.8792C247.251 44.8792 247.199 42.4156 249.758 43.6462C252.066 44.7476 245.905 26.3026 262.713 28.9133C274.022 30.6876 281.288 37.6488 286.548 33.2088C291.808 28.7687 293.472 38.9506 285.246 47.1524C277.019 55.3543 265.77 57.8067 259.529 56.0253C253.287 54.2439 247.672 52.2315 247.251 44.8792Z" fill="#412F2F"/>
<path fill-rule="evenodd" clip-rule="evenodd" d="M247.251 44.8795C247.251 44.8795 247.199 42.4159 249.758 43.6465C250.086 43.8021 250.239 43.5596 250.314 43.0301C250.33 42.9586 250.347 42.8822 250.338 42.7901C253.245 18.1058 281.842 54.9894 290.793 37.2841C290.306 40.1823 288.599 43.8495 285.235 47.2005C277.014 55.4034 265.759 57.8548 259.518 56.0733C253.277 54.2919 247.672 52.2319 247.251 44.8795Z" fill="#281616"/>
<path fill-rule="evenodd" clip-rule="evenodd" d="M257.057 45.6147C257.057 45.6147 254.209 56.5739 251.303 58.772C248.396 60.9702 247.127 53.0502 246.642 50.0383C246.157 47.0263 245.232 42.5335 247.499 42.4C249.766 42.2664 257.057 45.6147 257.057 45.6147Z" fill="#281616"/>
<path fill-rule="evenodd" clip-rule="evenodd" d="M251.525 56.8583C251.525 56.8583 249.19 52.1076 246.854 53.1971C244.517 54.2866 246.973 64.8788 249.889 65.5804C252.804 66.2819 254.334 63.0973 251.525 56.8583Z" fill="#FFE1DA"/>
<path fill-rule="evenodd" clip-rule="evenodd" d="M227.37 85.9075C237.26 72.1198 256.473 89.4268 256.473 89.4268C256.473 89.4268 276.119 100.39 279.634 88.6155C283.052 89.513 305.997 74.1067 303.793 93.6414C314.627 109.729 304.532 209.119 303.496 219.934C303.109 223.962 249.457 221.691 243.736 218.484C241.086 216.995 235.736 127.556 227.37 85.9075Z" fill="#A3CF80"/>
<path fill-rule="evenodd" clip-rule="evenodd" d="M251.482 44.9823C251.503 45.0268 257.816 60.6718 277.192 48.0792L277.477 48.5109C257.56 61.4576 251.01 45.2362 250.989 45.1917L251.482 44.9823Z" fill="#412F2F"/>
<path fill-rule="evenodd" clip-rule="evenodd" d="M244.568 41.4798C244.568 41.4798 248.475 39.2915 250.43 43.3999L249.942 43.6305C248.208 40.0148 244.824 41.9301 244.818 41.9338L244.568 41.4798Z" fill="#281616"/>
<path fill-rule="evenodd" clip-rule="evenodd" d="M246.876 39.3637C246.876 39.3637 251.29 39.8668 250.312 44.3561L249.795 44.245C250.655 40.2958 246.809 39.8598 246.799 39.8577L246.876 39.3637Z" fill="#281616"/>
<path fill-rule="evenodd" clip-rule="evenodd" d="M253.469 69.952C253.464 69.9291 253.464 69.9055 253.469 69.8826C253.474 69.8597 253.484 69.8381 253.498 69.8191C253.512 69.8 253.53 69.7839 253.55 69.7719C253.571 69.7598 253.594 69.7519 253.617 69.7488C253.664 69.7404 253.712 69.7505 253.751 69.7767C253.79 69.8029 253.817 69.8431 253.826 69.8887C254.413 72.78 255.669 75.4995 257.5 77.8387C259.33 80.1779 261.686 82.0746 264.386 83.3833C264.407 83.393 264.426 83.4069 264.441 83.424C264.457 83.4411 264.468 83.4612 264.475 83.4829C264.482 83.5046 264.485 83.5275 264.482 83.5501C264.48 83.5728 264.473 83.5948 264.461 83.6147C264.451 83.636 264.436 83.6551 264.419 83.6708C264.401 83.6865 264.38 83.6986 264.357 83.7063C264.334 83.7141 264.31 83.7172 264.286 83.7157C264.262 83.7142 264.239 83.7079 264.217 83.6974C261.468 82.3635 259.07 80.4313 257.207 78.0487C255.344 75.6661 254.065 72.8964 253.469 69.952Z" fill="white"/>
<path fill-rule="evenodd" clip-rule="evenodd" d="M247.543 55.2469C249.54 57.3975 250.62 59.2563 251.106 60.6268C252.239 63.8031 250.223 64.3657 249.134 59.9178L249.596 59.797C250.385 63.3147 251.532 63.0005 250.65 60.674C249.838 58.7764 248.671 57.0442 247.21 55.5656L247.543 55.2469Z" fill="#FF8685"/>
<path fill-rule="evenodd" clip-rule="evenodd" d="M267.879 71.7736C268.295 71.4967 268.755 71.3279 269.231 71.277C269.707 71.2262 270.19 71.2945 270.652 71.4778C271.113 71.6612 271.544 71.9558 271.918 72.3443C272.291 72.7328 272.601 73.2073 272.828 73.7396C273.287 74.8319 273.389 76.0869 273.112 77.2373C272.835 78.3877 272.201 79.3426 271.346 79.8987C270.93 80.1758 270.47 80.3448 269.993 80.3957C269.516 80.4466 269.033 80.3784 268.571 80.1951C268.109 80.0119 267.678 79.7173 267.304 79.3288C266.93 78.9402 266.619 78.4657 266.392 77.9332C265.933 76.8401 265.832 75.5844 266.11 74.4338C266.388 73.2832 267.023 72.3287 267.879 71.7736Z" fill="#FF8685"/>
<path fill-rule="evenodd" clip-rule="evenodd" d="M261.321 61.2121C261.164 61.1717 260.999 61.1618 260.838 61.1829C260.676 61.204 260.52 61.2557 260.379 61.335C260.239 61.4143 260.116 61.5196 260.018 61.6446C259.92 61.7696 259.849 61.9118 259.81 62.0627C259.733 62.3727 259.785 62.6978 259.955 62.9702C260.124 63.2425 260.399 63.441 260.72 63.5243C260.877 63.5645 261.042 63.5741 261.204 63.5526C261.366 63.531 261.522 63.4787 261.663 63.3988C261.804 63.3188 261.926 63.2129 262.024 63.0872C262.121 62.9615 262.191 62.8187 262.23 62.6672C262.308 62.3581 262.257 62.0331 262.087 61.7614C261.917 61.4897 261.642 61.2927 261.321 61.2121Z" fill="#281616"/>
<path fill-rule="evenodd" clip-rule="evenodd" d="M276.185 59.9146C276.028 59.8742 275.864 59.8642 275.702 59.8853C275.54 59.9065 275.385 59.9582 275.244 60.0375C275.103 60.1168 274.98 60.222 274.882 60.347C274.784 60.472 274.713 60.6142 274.674 60.7652C274.598 61.0752 274.65 61.4003 274.819 61.6726C274.989 61.945 275.263 62.1435 275.584 62.2267C275.742 62.2669 275.906 62.2766 276.068 62.255C276.23 62.2335 276.386 62.1812 276.527 62.1012C276.668 62.0213 276.791 61.9153 276.888 61.7897C276.986 61.664 277.056 61.5212 277.094 61.3697C277.172 61.0605 277.121 60.7355 276.951 60.4638C276.781 60.1922 276.507 59.9951 276.185 59.9146Z" fill="#281616"/>
<path fill-rule="evenodd" clip-rule="evenodd" d="M259.415 58.5564C258.154 58.8203 257.204 59.4338 256.72 59.9168L256.212 59.7062C256.761 59.1577 257.829 58.4652 259.27 58.1637C260.73 57.8582 262.521 57.9652 264.467 58.9638L264.066 59.2972C262.249 58.3649 260.657 58.2967 259.415 58.5564Z" fill="#281616"/>
<path fill-rule="evenodd" clip-rule="evenodd" d="M273.905 56.7345C272.728 57.2512 271.952 58.2285 271.603 58.9681L271.043 58.7265C271.44 57.8865 272.311 56.7838 273.656 56.1938C275.019 55.5957 276.82 55.5454 279.014 56.7422L278.707 57.2605C276.659 56.1431 275.064 56.226 273.905 56.7345Z" fill="#281616"/>
<path opacity="0.2" fill-rule="evenodd" clip-rule="evenodd" d="M261.114 64.9694C260.282 64.852 259.585 64.2574 259.197 63.7369L259.068 63.817C259.467 64.3523 260.196 64.9824 261.087 65.1082C261.991 65.2357 263.027 64.8417 264.023 63.3921L263.892 63.3193C262.916 64.7405 261.933 65.085 261.114 64.9694Z" fill="#281616"/>
<path opacity="0.2" fill-rule="evenodd" clip-rule="evenodd" d="M276.078 64.0848C275.165 64.0708 274.298 63.4665 273.777 62.903L273.657 63.0064C274.19 63.5831 275.096 64.2239 276.074 64.2389C276.566 64.2465 277.073 64.0952 277.552 63.7039C278.031 63.3137 278.48 62.6875 278.865 61.7491L278.717 61.6936C278.338 62.6169 277.902 63.2182 277.45 63.5865C277 63.9536 276.531 64.0918 276.078 64.0848Z" fill="#281616"/>
<path fill-rule="evenodd" clip-rule="evenodd" d="M246.622 91.2343C233.534 73.2553 188.741 26.7662 179.872 33.9029C161.927 48.3364 226.663 101.003 234.699 120.52C241.365 121.418 250.55 108.381 247.475 101.003C241.881 87.5718 248.831 94.2665 246.622 91.2343Z" fill="#A3CF80"/>
<path fill-rule="evenodd" clip-rule="evenodd" d="M248.252 36.6397C248.067 36.1385 249.336 27.6625 249.336 27.6625C249.336 27.6625 262.833 25.1962 263.713 25.7279C264.593 26.2596 265.065 36.3636 264.329 37.7329C263.593 39.1022 256.658 43.4456 256.658 43.4456L248.252 36.6397Z" fill="#FFE1DA"/>
<path fill-rule="evenodd" clip-rule="evenodd" d="M248.676 27.9254C248.628 27.9492 248.581 27.9771 248.536 28.0088C247.075 28.9967 246.17 48.2618 246.17 48.2618C250.467 55.8766 254.057 53.8806 255.324 52.9844L261.688 37.5742C259.292 28.2604 248.676 27.9254 248.676 27.9254Z" fill="#FFBCB5"/>
<path fill-rule="evenodd" clip-rule="evenodd" d="M251.37 42.6541C249.23 41.3398 246.529 43.0215 245.304 46.4139C244.08 49.8064 244.814 53.6177 246.944 54.9359C249.073 56.2541 251.788 54.5643 253.009 51.176C254.231 47.7878 253.499 43.9547 251.37 42.6541Z" fill="#281616"/>
<path fill-rule="evenodd" clip-rule="evenodd" d="M203.453 30.2686C184.49 24.4315 176.637 27.2293 177.309 38.9208C178.481 59.325 244.404 57.4346 248.889 53.178C252.798 49.4647 250.525 40.7634 245.014 39.8041C231.638 34.8567 206.656 31.2524 203.453 30.2686Z" fill="#A3CF80"/>
<path fill-rule="evenodd" clip-rule="evenodd" d="M298.259 87.7342C311.521 69.4373 344.32 16.8158 354.292 22.3077C374.466 33.4132 313.446 103.043 308.252 118.619C301.842 120.659 297.59 107.907 299.339 100.107C302.521 85.91 296.609 91.1033 298.259 87.7342Z" fill="#A3CF80"/>
<path fill-rule="evenodd" clip-rule="evenodd" d="M287.435 36.2432C287.53 35.7175 284.812 27.5896 284.812 27.5896C284.812 27.5896 271.091 27.4995 270.317 28.1756C269.543 28.8517 270.829 38.8847 271.791 40.1058C272.753 41.3268 280.335 44.4028 280.335 44.4028L287.435 36.2432Z" fill="#FFE1DA"/>
<path fill-rule="evenodd" clip-rule="evenodd" d="M284.76 27.6806C284.814 27.6975 284.867 27.7188 284.918 27.7442C286.598 28.5268 291.441 47.8993 291.441 47.8993C288.646 56.2504 284.608 54.7644 283.143 54.0458L273.564 39.3901C274.09 29.6019 284.76 27.6806 284.76 27.6806Z" fill="#FFBCB5"/>
<path fill-rule="evenodd" clip-rule="evenodd" d="M285.392 43.3164C287.272 41.6511 290.223 42.8394 292.017 45.9683C293.811 49.0972 293.748 52.9781 291.879 54.6454C290.01 56.3127 287.044 55.1188 285.254 51.9935C283.464 48.8682 283.52 44.9663 285.392 43.3164Z" fill="#281616"/>
<path fill-rule="evenodd" clip-rule="evenodd" d="M330.438 22.8147C348.103 13.7797 356.321 15.1744 357.686 26.8054C360.068 47.104 294.815 56.6659 289.66 53.2509C285.166 50.2712 285.897 41.3077 291.158 39.4079C303.475 32.2174 327.454 24.3386 330.438 22.8147Z" fill="#A3CF80"/>
<path d="M189.983 45.7699C195.792 48.7914 209.354 55.1687 217.133 56.5059" stroke="#8AB767"/>
<path d="M348.834 34.9263C343.637 38.9086 331.385 47.5396 323.955 50.2046" stroke="#8AB767"/>
<path d="M254.254 89.0555C254.726 92.5429 258.517 99.7733 269.897 100.796C281.278 101.819 282.612 92.4608 281.856 87.6539" stroke="#8AB767"/>
<path d="M307.492 112.794C308.585 102.611 339.28 57.5646 356.277 39.3177C352.207 56.2414 315.653 105.28 309.522 115.499C311.822 130.345 306.188 205.637 303.496 220.418C301.082 221.591 295.963 221.867 288.933 221.867C291.212 208.092 306.126 125.523 307.492 112.794Z" fill="#8AB767"/>
<path d="M230.679 114.863C233.692 115.622 240.12 113.497 241.727 98.9266" stroke="#8AB767"/>
<path d="M299.98 85.87C299.645 86.8744 299.779 90.3896 302.993 96.4157" stroke="#8AB767"/>
<path d="M189.082 471H217.063C217.685 466.313 216.566 456.939 207.114 456.939C197.663 456.939 191.155 466.313 189.082 471Z" fill="#281616"/>
<path d="M435.828 101.813H451.845L450.243 471H437.43L435.828 101.813Z" fill="#CBCBFF"/>
<path d="M475.87 141.855L472.266 156.671L389.78 116.229L380.971 95.8071L404.996 89L475.87 141.855Z" fill="#6D6DF6"/>
<path d="M417.008 185.101L411.802 174.289L499.094 153.868L518.314 162.677L506.301 183.499L410.201 195.111L417.008 185.101Z" fill="#6D6DF6"/>
<path d="M377.367 213.53L364.553 235.153L383.773 243.562L471.866 220.338L466.66 213.53L471.866 203.12L377.367 213.53Z" fill="#6D6DF6"/>
<path d="M425.417 246.365V235.153L469.062 259.579L473.467 270.79L461.454 274.394L425.417 246.365Z" fill="#6D6DF6"/>
</svg>
