<svg width="576" height="346" viewBox="0 0 576 346" fill="none" xmlns="http://www.w3.org/2000/svg">
<mask id="mask0" mask-type="alpha" maskUnits="userSpaceOnUse" x="0" y="0" width="576" height="325">
<rect y="0.996582" width="576" height="324" fill="#C4C4C4"/>
</mask>
<g mask="url(#mask0)">
<ellipse cx="447.319" cy="299.651" rx="16.3404" ry="16.4051" fill="#D4F8E7"/>
<path d="M48.9361 292.562H77.8163L69.794 326.619H40.9138L48.9361 292.562Z" fill="url(#paint0_linear)"/>
<path d="M528.669 292.562H499.788L507.811 326.619H536.691L528.669 292.562Z" fill="url(#paint1_linear)"/>
<path d="M67.629 179.512C81.8003 169.86 97.7721 164.036 112.41 155.214C117.187 152.336 121.913 149.061 125.173 144.438C132.508 134.069 130.749 119.838 131.716 106.989C134.151 74.5942 158.075 45.146 188.477 37.1532C227.264 26.957 266.685 49.3801 306.615 52.0847C343.46 54.5732 379.138 40.2034 415.142 31.7786C451.145 23.3537 504.546 16.4669 531.946 42.1476C557.788 66.3421 560.339 95.5656 556.121 121.644C551.812 148.825 538.91 173.75 519.442 192.499C463.783 245.779 377.121 272.566 302.939 288.448C246.254 300.605 188.61 302.705 130.983 299.62C92.2787 297.555 65.3199 294.021 45.9553 254.688C31.4589 225.248 41.8206 197.148 67.629 179.512Z" fill="#EAEAFF"/>
<path d="M576 277.966H0.802246V293.372H576V277.966Z" fill="#BDD0FE"/>
<path d="M576 277.966H0.802246L105.092 248.774H452.457L576 277.966Z" fill="#CFDDFF"/>
<ellipse cx="439.621" cy="257.694" rx="28.8802" ry="4.05438" fill="url(#paint2_linear)"/>
<ellipse rx="36.0351" ry="5.97412" transform="matrix(0.998871 0.0475126 -0.0468605 0.998901 473.233 267.718)" fill="url(#paint3_linear)"/>
<ellipse cx="387.769" cy="266.614" rx="15.2423" ry="2.43263" fill="url(#paint4_linear)"/>
<ellipse cx="122.5" cy="261" rx="17.5" ry="4" fill="url(#paint5_linear)"/>
<path d="M439.288 126.723L441.899 131.89C442.373 132.823 442.607 133.84 442.584 134.865C442.561 135.89 442.282 136.898 441.767 137.813L440.208 140.613C439.664 141.579 439.476 142.676 439.671 143.744C439.866 144.812 440.433 145.797 441.291 146.557L444.472 149.358C446.652 151.291 448.303 153.653 449.294 156.256C450.286 158.859 450.591 161.634 450.187 164.361C449.986 165.709 449.407 166.989 448.504 168.082C447.602 169.174 446.405 170.043 445.026 170.606C442.998 171.433 441.42 172.95 440.638 174.822C439.856 176.694 439.934 178.769 440.855 180.589L442.445 183.782C444.121 187.091 445.089 190.653 445.299 194.283C445.604 199.507 444.182 204.695 441.213 209.195L435.241 218.227L424.521 222.602L413.333 204.449C410.249 199.437 408.677 193.789 408.773 188.064C408.869 182.339 410.629 176.736 413.879 171.81C415.366 169.562 416.008 166.944 415.711 164.343C415.413 161.742 414.191 159.296 412.226 157.367L410.667 155.834C407.634 152.862 405.848 149.035 405.615 145.01L405.467 142.364C405.367 140.653 405.945 138.966 407.098 137.601C408.251 136.236 409.905 135.282 411.766 134.907L416.725 133.906C417.845 133.678 418.821 133.066 419.445 132.199C420.068 131.333 420.29 130.282 420.062 129.272L418.744 123.433C418.055 120.415 418.389 117.281 419.704 114.435C421.019 111.59 423.253 109.164 426.12 107.47L426.26 107.386C427.357 106.744 428.596 106.322 429.892 106.149C431.188 105.976 432.51 106.056 433.768 106.384C435.026 106.711 436.191 107.279 437.182 108.048C438.174 108.816 438.969 109.768 439.514 110.838C440.88 113.512 441.161 116.531 440.309 119.372L439.015 123.671C438.702 124.685 438.799 125.766 439.288 126.723Z" fill="url(#paint6_linear)"/>
<path d="M413.883 171.654C415.38 169.396 416.028 166.766 415.732 164.151C415.437 161.536 414.213 159.076 412.242 157.135L410.679 155.597C407.64 152.615 405.849 148.776 405.615 144.737L405.467 142.082C405.367 140.365 405.946 138.673 407.102 137.303C408.258 135.934 409.915 134.977 411.781 134.601L416.751 133.596C417.874 133.367 418.852 132.753 419.477 131.884C420.103 131.015 420.324 129.96 420.096 128.946L418.775 123.088C418.084 120.06 418.419 116.915 419.737 114.06C421.055 111.205 423.295 108.771 426.168 107.072L426.309 106.988H426.363C426.956 106.642 427.646 106.456 428.353 106.454C429.06 106.451 429.752 106.631 430.348 106.972C430.944 107.314 431.417 107.802 431.713 108.379C432.008 108.956 432.112 109.597 432.013 110.226L429.669 125.09C429.424 126.602 429.382 128.135 429.544 129.656L430.38 137.769C430.496 138.899 430.337 140.038 429.913 141.106C429.489 142.175 428.811 143.148 427.926 143.957C426.309 145.432 425.287 147.351 425.025 149.409C424.763 151.466 425.275 153.544 426.481 155.309C428.755 158.638 430.21 162.367 430.749 166.244C431.288 170.121 430.899 174.056 429.606 177.787C428.765 180.216 428.541 182.785 428.95 185.303L431.662 202.091L430.81 220.052L424.558 222.602L413.352 204.374C410.263 199.351 408.687 193.69 408.78 187.951C408.873 182.212 410.632 176.594 413.883 171.654Z" fill="url(#paint7_linear)"/>
<path opacity="0.6" d="M429.41 125.037C428.981 127.171 428.757 129.333 428.739 131.5C428.875 133.658 429.141 135.809 429.538 137.942C429.942 140.038 430.208 142.154 430.336 144.278C430.376 146.39 429.769 148.375 429.298 150.508L427.837 156.844L426.592 162.293L424.708 159.315C423.759 157.851 422.881 156.351 421.835 154.915C420.795 153.49 419.637 152.135 418.371 150.86L414.611 147.045L418.131 151.029C419.312 152.344 420.379 153.735 421.324 155.19C422.258 156.64 423.048 158.175 423.902 159.681L426.241 163.905C425.728 165.789 425.402 167.709 425.267 169.643C425.17 171.857 425.404 174.072 425.962 176.232L427.654 182.512L428.125 184.237C427.454 183.202 426.824 182.125 426.081 181.125C425.315 180.073 424.462 179.073 423.527 178.133L420.757 175.317L423.36 178.253C424.215 179.219 424.991 180.238 425.682 181.301C426.369 182.364 426.951 183.498 427.582 184.61L428.811 186.814L429.33 188.742C429.932 190.8 430.406 192.884 430.751 194.987C431.079 197.086 431.236 199.204 431.222 201.323C431.222 203.435 431.07 205.603 431.006 207.743C430.911 212.045 430.759 216.332 430.711 220.634C431.158 216.353 431.509 212.066 431.876 207.786C432.028 205.638 432.22 203.512 432.339 201.344C432.435 199.171 432.355 196.995 432.1 194.832C432.044 194.269 431.924 193.713 431.837 193.157L432.491 190.221C432.77 189.003 433.002 187.778 433.353 186.588C433.705 185.387 434.158 184.21 434.71 183.068L436.354 179.633L434.503 182.984C433.875 184.105 433.341 185.265 432.906 186.454C432.475 187.651 432.172 188.869 431.821 190.066L431.485 191.221C431.286 190.277 431.062 189.334 430.807 188.405L429.21 182.125L427.614 175.852C427.386 174.924 427.226 173.983 427.135 173.036L430.903 169.706C432.268 168.517 433.569 167.285 434.982 166.186C436.393 165.084 437.892 164.073 439.467 163.159L444.257 160.385L439.332 162.927C437.658 163.775 436.057 164.73 434.542 165.785C433.026 166.848 431.645 168.024 430.216 169.136L427.015 171.706C427.015 171.002 427.015 170.298 427.015 169.65C427.161 167.546 427.509 165.458 428.053 163.405L429.434 157.069L430.807 150.733C431.03 149.67 431.286 148.621 431.485 147.551C431.667 146.451 431.742 145.34 431.709 144.228C431.511 142.066 431.17 139.915 430.687 137.787C430.312 135.675 429.769 133.563 429.625 131.451C429.516 129.324 429.604 127.193 429.889 125.08L430.448 118.659L429.41 125.037Z" fill="#EBECF2"/>
<path d="M400.664 185.591V188.876C400.664 189.468 400.812 190.053 401.097 190.587C401.382 191.121 401.796 191.592 402.31 191.964L403.885 193.094C404.432 193.488 404.825 194.029 405.006 194.638C405.188 195.246 405.148 195.891 404.893 196.478L403.963 198.597C403.33 200.087 403.091 201.687 403.265 203.274C403.438 204.86 404.02 206.388 404.963 207.739C405.429 208.401 406.074 208.947 406.838 209.325C407.602 209.704 408.461 209.901 409.334 209.901C410.623 209.901 411.859 210.36 412.77 211.177C413.681 211.995 414.193 213.103 414.193 214.259V216.259C414.191 218.353 414.629 220.428 415.484 222.377C416.71 225.193 418.84 227.619 421.603 229.349L427.179 232.839H433.991L435.038 220.893C435.325 217.595 434.646 214.286 433.07 211.295C431.494 208.304 429.075 205.734 426.053 203.839C424.679 202.974 423.649 201.738 423.113 200.31C422.578 198.883 422.565 197.34 423.076 195.906L423.485 194.768C424.286 192.554 424.205 190.16 423.257 187.993L422.627 186.58C422.215 185.665 421.461 184.908 420.493 184.438C419.526 183.969 418.406 183.817 417.327 184.009L414.445 184.546C413.796 184.668 413.119 184.557 412.561 184.235C412.003 183.914 411.607 183.409 411.46 182.829L410.602 179.466C410.163 177.731 409.154 176.155 407.705 174.94C406.256 173.726 404.434 172.93 402.475 172.656H402.38C401.63 172.551 400.864 172.593 400.134 172.778C399.403 172.964 398.726 173.289 398.149 173.731C397.572 174.173 397.108 174.722 396.789 175.34C396.47 175.958 396.303 176.631 396.301 177.312V177.312C396.302 179.009 396.962 180.652 398.167 181.96L399.994 183.945C400.426 184.406 400.663 184.989 400.664 185.591Z" fill="url(#paint8_linear)"/>
<path d="M426.041 203.855C424.651 202.99 423.608 201.747 423.067 200.312C422.526 198.877 422.516 197.324 423.036 195.883L423.448 194.745C424.251 192.53 424.17 190.135 423.218 187.967L422.586 186.554C422.173 185.638 421.415 184.881 420.444 184.411C419.472 183.941 418.348 183.789 417.265 183.981L414.372 184.518C413.72 184.641 413.041 184.529 412.48 184.208C411.92 183.887 411.523 183.381 411.375 182.801L410.513 179.437C410.071 177.702 409.058 176.126 407.603 174.911C406.149 173.697 404.321 172.9 402.355 172.624H402.26C401.856 172.566 401.441 172.613 401.067 172.76C400.692 172.907 400.372 173.147 400.146 173.451C399.919 173.756 399.795 174.112 399.789 174.478C399.782 174.844 399.893 175.203 400.109 175.514L405.327 182.801C405.852 183.536 406.279 184.324 406.6 185.147L408.324 189.579C408.562 190.197 408.948 190.761 409.456 191.231C409.965 191.701 410.582 192.066 411.265 192.3C412.512 192.728 413.563 193.518 414.249 194.543C414.936 195.568 415.218 196.769 415.051 197.954C414.739 200.187 414.964 202.454 415.711 204.602C416.458 206.751 417.711 208.733 419.384 210.414C420.482 211.507 421.293 212.806 421.756 214.216L424.799 223.602L430.033 232.839H433.986L435.038 220.888C435.324 217.595 434.645 214.292 433.067 211.305C431.489 208.318 429.067 205.75 426.041 203.855Z" fill="url(#paint9_linear)"/>
<path opacity="0.6" d="M405.387 182.429C406.184 183.458 406.879 184.545 407.467 185.679C407.97 186.838 408.403 188.02 408.765 189.219C409.117 190.401 409.545 191.564 410.048 192.703C410.666 193.783 411.408 194.803 412.262 195.747L414.708 198.756L416.835 201.333L417.018 199.379C417.122 198.409 417.178 197.439 417.337 196.469C417.496 195.511 417.736 194.564 418.054 193.637L418.986 190.848L418.189 193.68C417.934 194.611 417.756 195.557 417.656 196.512C417.552 197.467 417.56 198.437 417.512 199.407L417.425 202.098C418.195 202.988 418.878 203.935 419.464 204.93C420.11 206.071 420.585 207.282 420.874 208.534L421.671 212.18L421.894 213.185C421.965 212.477 422.005 211.812 422.117 211.125C422.235 210.407 422.411 209.697 422.643 209.001L423.336 206.948L422.77 209.036C422.58 209.734 422.449 210.445 422.38 211.16C422.3 211.868 422.308 212.576 422.276 213.284L422.228 214.7L422.467 215.819C422.71 217.025 423.024 218.218 423.407 219.394C423.798 220.567 424.286 221.712 424.865 222.821C425.447 223.926 426.092 225.037 426.697 226.142C427.9 228.379 429.127 230.595 430.306 232.839C428.928 230.715 427.606 228.506 426.259 226.347C425.598 225.25 424.929 224.181 424.284 223.062C423.66 221.943 423.127 220.786 422.69 219.6C422.571 219.295 422.483 218.977 422.38 218.665L421.256 217.249C420.778 216.676 420.332 216.074 419.83 215.529C419.327 214.977 418.779 214.458 418.189 213.978L416.413 212.527L418.269 213.893C418.898 214.348 419.486 214.845 420.03 215.38C420.571 215.918 421.057 216.492 421.559 217.044L422.037 217.575C421.886 217.037 421.75 216.492 421.639 215.961L420.818 212.329L419.974 208.696C419.847 208.165 419.679 207.643 419.472 207.132L416.62 206.176C415.592 205.836 414.581 205.468 413.553 205.185C412.511 204.898 411.445 204.683 410.366 204.54L407.132 204.087L410.39 204.385C411.488 204.476 412.577 204.639 413.649 204.873C414.716 205.114 415.752 205.44 416.835 205.723L419.225 206.388C419.058 206.027 418.882 205.68 418.675 205.312C418.035 204.239 417.294 203.216 416.461 202.254L414.071 199.23L411.681 196.2C411.275 195.69 410.884 195.209 410.47 194.671C410.081 194.134 409.745 193.568 409.466 192.979C408.995 191.799 408.601 190.596 408.287 189.375C407.913 188.178 407.634 186.968 407.14 185.835C406.621 184.697 406.003 183.596 405.292 182.543L403.276 179.293L405.387 182.429Z" fill="#EBECF2"/>
<path d="M465.356 173.302L465.827 177.279C465.91 177.998 465.813 178.724 465.542 179.405C465.27 180.086 464.832 180.704 464.259 181.213L462.51 182.761C461.896 183.295 461.489 183.991 461.348 184.746C461.207 185.502 461.339 186.278 461.726 186.961L463.192 189.468C464.178 191.201 464.7 193.115 464.716 195.058C464.733 197.002 464.243 198.923 463.286 200.669C462.815 201.53 462.107 202.27 461.228 202.82C460.349 203.369 459.328 203.711 458.261 203.813C457.484 203.884 456.731 204.092 456.044 204.424C455.357 204.756 454.751 205.206 454.259 205.748C453.768 206.289 453.401 206.913 453.179 207.581C452.958 208.25 452.886 208.951 452.969 209.644L453.251 212.074C453.55 214.613 453.313 217.18 452.553 219.642C451.456 223.193 449.208 226.377 446.093 228.792L439.821 233.693L431.541 234.414L428.562 220.048C427.736 216.081 428.087 211.991 429.58 208.183C431.074 204.376 433.659 200.984 437.077 198.345C438.638 197.139 439.724 195.517 440.173 193.718C440.622 191.919 440.411 190.038 439.57 188.354L438.903 187.024C437.613 184.431 437.372 181.518 438.221 178.784L438.778 176.985C439.14 175.824 439.95 174.814 441.065 174.134C442.179 173.454 443.527 173.147 444.87 173.267L448.453 173.589C449.259 173.655 450.063 173.44 450.696 172.988C451.329 172.537 451.742 171.884 451.847 171.167L452.412 166.966C452.707 164.821 453.714 162.804 455.304 161.174C456.894 159.545 458.995 158.377 461.334 157.823H461.452C462.347 157.615 463.282 157.582 464.193 157.725C465.104 157.868 465.97 158.184 466.732 158.652C467.494 159.12 468.135 159.729 468.61 160.438C469.086 161.146 469.385 161.938 469.488 162.759C469.73 164.82 469.159 166.893 467.873 168.619L465.929 171.265C465.482 171.865 465.28 172.585 465.356 173.302Z" fill="url(#paint10_linear)"/>
<path opacity="0.8" d="M437.038 198.311C438.603 197.102 439.691 195.475 440.143 193.671C440.595 191.867 440.387 189.981 439.548 188.291L438.882 186.959C437.59 184.362 437.349 181.445 438.199 178.706L438.756 176.904C439.118 175.735 439.933 174.718 441.055 174.035C442.177 173.352 443.533 173.047 444.883 173.174L448.468 173.497C449.276 173.563 450.08 173.347 450.713 172.895C451.347 172.442 451.759 171.789 451.865 171.071L452.43 166.864C452.725 164.715 453.733 162.695 455.324 161.062C456.916 159.43 459.017 158.262 461.358 157.706H461.476H461.523C462 157.6 462.501 157.617 462.968 157.756C463.435 157.894 463.848 158.148 464.159 158.488C464.471 158.829 464.668 159.241 464.727 159.677C464.787 160.113 464.707 160.556 464.496 160.953L459.185 170.397C458.646 171.356 458.235 172.368 457.961 173.412L456.51 179.022C456.305 179.799 455.914 180.528 455.362 181.156C454.811 181.784 454.113 182.298 453.317 182.661C451.864 183.321 450.701 184.397 450.014 185.718C449.327 187.039 449.156 188.528 449.528 189.946C450.221 192.615 450.269 195.385 449.668 198.072C449.067 200.759 447.832 203.3 446.044 205.526C444.87 206.986 444.079 208.663 443.73 210.434L441.376 222.172L436.332 233.958L431.546 234.414L428.565 220.026C427.737 216.06 428.083 211.97 429.569 208.161C431.056 204.352 433.63 200.956 437.038 198.311Z" fill="url(#paint11_linear)"/>
<path opacity="0.6" d="M459.419 169.964C458.605 171.303 457.917 172.7 457.364 174.141C456.918 175.61 456.562 177.098 456.297 178.6C456.042 180.087 455.688 181.56 455.238 183.01C454.648 184.384 453.898 185.699 453.001 186.934L450.455 190.859L448.258 194.263L447.752 191.907C447.491 190.746 447.286 189.572 446.962 188.39C446.631 187.233 446.203 186.1 445.681 185L444.148 181.716L445.484 185.071C445.931 186.18 446.285 187.318 446.543 188.475C446.804 189.621 446.938 190.802 447.128 191.991L447.626 195.254C446.814 196.41 446.119 197.626 445.547 198.89C444.915 200.341 444.498 201.859 444.306 203.406L443.855 207.928L443.737 209.173C443.555 208.35 443.405 207.52 443.168 206.697C442.923 205.843 442.609 205.006 442.227 204.193L441.144 201.788L442.132 204.264C442.466 205.079 442.731 205.916 442.923 206.767C443.112 207.618 443.207 208.49 443.349 209.355L443.61 211.071L443.476 212.478C443.356 213.968 443.148 215.452 442.851 216.923C442.543 218.392 442.117 219.84 441.579 221.255C441.026 222.662 440.401 224.068 439.824 225.475C438.686 228.323 437.508 231.158 436.409 234.02C437.769 231.249 439.057 228.45 440.362 225.672C441.01 224.265 441.666 222.859 442.282 221.452C442.891 220.02 443.384 218.551 443.76 217.057C443.855 216.677 443.919 216.283 443.998 215.889L445.167 214.06C445.658 213.301 446.116 212.527 446.646 211.803C447.174 211.075 447.763 210.384 448.408 209.735L450.353 207.766L448.298 209.637C447.603 210.262 446.961 210.932 446.377 211.641C445.792 212.344 445.286 213.111 444.796 213.842L444.29 214.546C444.393 213.842 444.48 213.202 444.543 212.534L445.049 208.026L445.555 203.525C445.638 202.865 445.764 202.21 445.934 201.563L449.262 200.072C450.463 199.551 451.633 198.982 452.843 198.525C454.061 198.062 455.316 197.679 456.597 197.378L460.462 196.471L456.51 197.174C455.196 197.413 453.904 197.74 452.645 198.152C451.38 198.56 450.171 199.073 448.954 199.559L446.171 200.635C446.321 200.17 446.487 199.713 446.677 199.263C447.304 197.888 448.057 196.561 448.93 195.297L451.42 191.351L453.918 187.399C454.329 186.73 454.755 186.097 455.159 185.408C455.559 184.709 455.887 183.98 456.139 183.228C456.543 181.742 456.852 180.237 457.063 178.72C457.272 177.231 457.565 175.752 457.941 174.289C458.4 172.841 458.995 171.429 459.719 170.069L461.695 165.906L459.419 169.964Z" fill="white"/>
<path d="M455.458 238.096C455.458 244.277 453.281 250.114 451.323 255.25C451.031 256.019 450.52 256.68 449.857 257.146C449.193 257.612 448.409 257.862 447.606 257.863H418.237C417.434 257.862 416.649 257.613 415.986 257.147C415.323 256.681 414.812 256.02 414.52 255.25C412.562 250.109 410.386 244.277 410.386 238.096C410.381 235.123 410.594 232.153 411.021 229.213C411.174 228.251 411.655 227.377 412.378 226.746C413.101 226.116 414.019 225.772 414.968 225.774H450.855C451.809 225.773 452.732 226.124 453.457 226.762C454.181 227.401 454.658 228.285 454.802 229.254C455.231 232.181 455.45 235.136 455.458 238.096Z" fill="url(#paint12_linear)"/>
<path d="M308.545 233.936H236.401V267.271H308.545V233.936Z" fill="#EFEFEF"/>
<path d="M157.114 87.4102H390.006C393.16 87.4101 396.184 88.6629 398.417 90.8938C400.649 93.1247 401.908 96.1516 401.916 99.3109V226.292C401.916 229.459 400.661 232.496 398.426 234.736C396.191 236.975 393.159 238.233 389.998 238.233H157.114C153.955 238.233 150.925 236.976 148.692 234.738C146.458 232.5 145.203 229.465 145.203 226.3V99.3109C145.212 96.1516 146.47 93.1247 148.703 90.8938C150.936 88.6629 153.96 87.4101 157.114 87.4102Z" fill="#7878DD"/>
<path d="M388.29 93.897H157.226C155.016 93.897 153.226 95.6878 153.226 97.897V213.15C153.226 215.359 155.016 217.15 157.226 217.15H388.29C390.499 217.15 392.29 215.359 392.29 213.15V97.897C392.29 95.6878 390.499 93.897 388.29 93.897Z" fill="url(#paint13_linear)"/>
<path d="M319.287 193.635H266.34V197.689H319.287V193.635Z" fill="#D7E4FD"/>
<path d="M292.814 203.365H266.34V207.42H292.814V203.365Z" fill="#D7E4FD"/>
<path d="M203.435 130.387H180.03C179.404 130.387 178.897 130.929 178.897 131.597V161.611C178.897 162.28 179.404 162.822 180.03 162.822H203.435C204.061 162.822 204.568 162.28 204.568 161.611V131.597C204.568 130.929 204.061 130.387 203.435 130.387Z" fill="#CFCFFF"/>
<path opacity="0.5" d="M259.499 130.387H210.607C209.487 130.387 208.579 131.294 208.579 132.414C208.579 133.533 209.487 134.441 210.607 134.441H259.499C260.619 134.441 261.526 133.533 261.526 132.414C261.526 131.294 260.619 130.387 259.499 130.387Z" fill="#67D4B5"/>
<path d="M259.499 139.306H210.607C209.487 139.306 208.579 140.214 208.579 141.333C208.579 142.453 209.487 143.361 210.607 143.361H259.499C260.619 143.361 261.526 142.453 261.526 141.333C261.526 140.214 260.619 139.306 259.499 139.306Z" fill="#CFCFFF"/>
<path d="M259.499 148.226H210.607C209.487 148.226 208.579 149.134 208.579 150.253C208.579 151.373 209.487 152.28 210.607 152.28H259.499C260.619 152.28 261.526 151.373 261.526 150.253C261.526 149.134 260.619 148.226 259.499 148.226Z" fill="#CFCFFF"/>
<path d="M233.026 157.146H210.607C209.487 157.146 208.579 158.053 208.579 159.173C208.579 160.292 209.487 161.2 210.607 161.2H233.026C234.145 161.2 235.053 160.292 235.053 159.173C235.053 158.053 234.145 157.146 233.026 157.146Z" fill="#CFCFFF"/>
<path d="M230.222 172.552H180.519C179.623 172.552 178.897 173.278 178.897 174.174C178.897 175.07 179.623 175.796 180.519 175.796H230.222C231.118 175.796 231.844 175.07 231.844 174.174C231.844 173.278 231.118 172.552 230.222 172.552Z" fill="#DFDFFF"/>
<path d="M230.222 198.5H180.519C179.623 198.5 178.897 199.226 178.897 200.122C178.897 201.017 179.623 201.744 180.519 201.744H230.222C231.118 201.744 231.844 201.017 231.844 200.122C231.844 199.226 231.118 198.5 230.222 198.5Z" fill="#DFDFFF"/>
<path d="M253.487 179.039H203.783C202.888 179.039 202.162 179.765 202.162 180.661C202.162 181.556 202.888 182.283 203.783 182.283H253.487C254.383 182.283 255.109 181.556 255.109 180.661C255.109 179.765 254.383 179.039 253.487 179.039Z" fill="#DFDFFF"/>
<path d="M249.476 185.526H180.519C179.623 185.526 178.897 186.252 178.897 187.148C178.897 188.043 179.623 188.769 180.519 188.769H249.476C250.371 188.769 251.098 188.043 251.098 187.148C251.098 186.252 250.371 185.526 249.476 185.526Z" fill="#DFDFFF"/>
<path opacity="0.5" d="M197.331 179.039H180.519C179.623 179.039 178.897 179.765 178.897 180.661C178.897 181.556 179.623 182.283 180.519 182.283H197.331C198.227 182.283 198.953 181.556 198.953 180.661C198.953 179.765 198.227 179.039 197.331 179.039Z" fill="#67D4B5"/>
<path d="M203.749 192.013H180.519C179.623 192.013 178.897 192.739 178.897 193.635C178.897 194.531 179.623 195.257 180.519 195.257H203.749C204.644 195.257 205.371 194.531 205.371 193.635C205.371 192.739 204.644 192.013 203.749 192.013Z" fill="#DFDFFF"/>
<path d="M239.849 192.013H210.201C209.305 192.013 208.579 192.739 208.579 193.635C208.579 194.531 209.305 195.257 210.201 195.257H239.849C240.745 195.257 241.471 194.531 241.471 193.635C241.471 192.739 240.745 192.013 239.849 192.013Z" fill="#DFDFFF"/>
<path d="M364.997 103.627H363.427C362.531 103.627 361.805 104.354 361.805 105.249C361.805 106.145 362.531 106.871 363.427 106.871H364.997C365.892 106.871 366.618 106.145 366.618 105.249C366.618 104.354 365.892 103.627 364.997 103.627Z" fill="#8DE0C6"/>
<path d="M353.765 103.627H330.535C329.64 103.627 328.914 104.354 328.914 105.249C328.914 106.145 329.64 106.871 330.535 106.871H353.765C354.661 106.871 355.387 106.145 355.387 105.249C355.387 104.354 354.661 103.627 353.765 103.627Z" fill="#6D6DF6"/>
<path d="M323.281 103.627H300.051C299.155 103.627 298.429 104.354 298.429 105.249C298.429 106.145 299.155 106.871 300.051 106.871H323.281C324.176 106.871 324.902 106.145 324.902 105.249C324.902 104.354 324.176 103.627 323.281 103.627Z" fill="#6D6DF6"/>
<path opacity="0.9" d="M365.241 130.387H311.84C311.079 130.387 310.463 132.731 310.463 135.622V202.996C310.463 205.887 311.079 208.231 311.84 208.231H365.241C366.002 208.231 366.619 205.887 366.619 202.996V135.622C366.619 132.731 366.002 130.387 365.241 130.387Z" fill="#E3E3FF"/>
<path d="M365.591 113.358H179.925C179.357 113.358 178.897 113.565 178.897 113.821V123.436C178.897 123.692 179.357 123.899 179.925 123.899H365.591C366.158 123.899 366.618 123.692 366.618 123.436V113.821C366.618 113.565 366.158 113.358 365.591 113.358Z" fill="url(#paint14_linear)"/>
<path d="M338.54 177.417C342.971 177.417 346.563 173.787 346.563 169.308C346.563 164.83 342.971 161.2 338.54 161.2C334.11 161.2 330.518 164.83 330.518 169.308C330.518 173.787 334.11 177.417 338.54 177.417Z" fill="#C7C9FF"/>
<path d="M336.936 167.812V170.805C336.936 170.972 336.978 171.136 337.057 171.279C337.136 171.423 337.249 171.541 337.385 171.623C337.521 171.704 337.675 171.745 337.831 171.741C337.986 171.737 338.138 171.689 338.271 171.602L340.533 170.105C340.66 170.021 340.764 169.904 340.837 169.764C340.909 169.625 340.947 169.468 340.947 169.309C340.947 169.149 340.909 168.992 340.837 168.853C340.764 168.713 340.66 168.596 340.533 168.512L338.271 167.016C338.138 166.928 337.986 166.88 337.831 166.876C337.675 166.873 337.521 166.913 337.385 166.995C337.249 167.076 337.136 167.194 337.057 167.338C336.978 167.482 336.936 167.645 336.936 167.812Z" fill="#FBFDFF"/>
<path fill-rule="evenodd" clip-rule="evenodd" d="M198.136 152.259H185.315C185.301 151.113 185.588 149.984 186.148 148.987C186.708 147.99 187.52 147.162 188.501 146.587C189.118 146.219 189.794 145.962 190.498 145.828C189.905 145.504 189.437 144.987 189.169 144.362C188.901 143.737 188.849 143.038 189.021 142.379C189.193 141.72 189.58 141.139 190.118 140.729C190.657 140.319 191.316 140.104 191.991 140.118C192.665 140.132 193.315 140.375 193.836 140.807C194.357 141.24 194.719 141.837 194.864 142.502C195.009 143.168 194.928 143.863 194.635 144.477C194.342 145.091 193.853 145.587 193.247 145.886C193.852 146.038 194.431 146.282 194.965 146.609C195.942 147.188 196.751 148.017 197.311 149.013C197.87 150.008 198.16 151.135 198.15 152.28" fill="#ABABFF"/>
<path d="M242.209 119.545C241.728 124.659 241.944 129.815 242.851 134.87C242.245 134.161 241.495 133.592 240.653 133.2C239.778 132.875 238.246 133.046 237.861 133.881C237.212 135.414 236.937 137.083 237.059 138.746C237.861 143.611 238.029 145.087 240.268 149.288C240.645 149.993 241.872 151.72 243.477 151.72C244.279 151.72 245.081 150.098 245.081 152.531C245.883 156.585 248.073 161.094 249.894 164.694C251.796 168.449 252.558 169.965 255.237 173.192C257.917 176.42 257.852 180.871 261.928 181.723C264.142 182.193 270.111 181.95 272.357 181.723C277.796 181.187 282.553 183.036 287.599 180.912L290.808 179.29C291.241 176.987 291.859 173.898 293.215 171.992C297.226 166.397 299.328 159.156 301.237 152.531C301.38 151.936 301.654 151.382 302.039 150.909C302.777 150.39 302.625 151.372 303.515 151.493C305.248 151.72 306.219 150.147 306.853 149.288C309.401 145.988 311.059 142.076 311.666 137.935C311.81 137.068 311.666 133.881 310.061 133.07C309.259 132.673 307.053 132.802 306.492 133.484C306.639 130.542 306.41 127.593 305.81 124.71C304.903 121.11 302.857 117.907 300.571 114.979C298.802 112.526 296.572 110.448 294.009 108.865C290.15 106.7 285.505 106.481 281.101 106.903C270.359 107.949 260.58 108.817 249.894 110.357C248.29 110.593 247.207 110.22 245.883 111.168C243.067 113.179 241.391 114.209 241.872 117.655L242.209 119.545Z" fill="url(#paint15_linear)"/>
<path d="M242.674 133.07C240.267 121.718 239.826 110.431 243.62 99.4513C247.303 88.8207 257.884 80.3795 264.631 78.7009C264.734 78.6706 264.843 78.6672 264.947 78.6911C265.052 78.7149 265.149 78.7653 265.229 78.8374C265.309 78.9096 265.37 79.0011 265.406 79.1035C265.441 79.2058 265.451 79.3156 265.433 79.4226C265.168 81.1741 264.366 81.1822 265.28 84.2068C269.789 79.0496 274.41 77.1035 281.213 77.1197C285.682 77.1856 290.075 78.2957 294.048 80.3632C296.599 81.8066 299.937 84.5798 298.06 86.8502L296.455 88.472C295.894 89.1694 298.926 90.41 299.664 90.9046C302.071 92.5264 303.675 94.1481 305.207 98.608C306.812 103.262 307.542 111.112 307.686 116.042C307.895 123.113 307.686 129.016 306.082 133.881C304.477 138.746 299.816 143.66 297.257 151.72C296.206 155.037 295.541 157.397 294.851 159.829C294.161 162.262 292.444 167.127 290.839 167.127C288.553 167.127 288.112 165.635 286.026 164.694C278.373 161.248 271.843 162.61 263.564 163.884C262.072 164.119 258.141 165.505 256.344 165.505C254.739 165.505 254.089 163.778 253.937 163.073C252.332 155.775 248.859 150.95 245.915 143.093C244.31 138.746 244.31 140.368 242.706 133.07" fill="url(#paint16_linear)"/>
<path d="M378.61 253.95C365.997 257.116 368.776 266.614 368.776 266.614H397.279C398.419 266.614 391.151 251.29 378.61 253.95Z" fill="#6868D7"/>
<path d="M380.495 253.64H378.344C366.063 256.883 368.769 266.614 368.769 266.614H394.372C395.066 266.614 389.862 254.678 380.495 253.64Z" fill="#7878DD"/>
<path d="M304.445 190.642C304.991 188.615 305.905 184.61 306.451 182.582C306.643 182.02 306.714 181.423 306.66 180.831C306.476 180.125 306.101 179.484 305.576 178.982C303.41 176.501 300.827 174.117 297.618 173.444C295.043 172.901 292.38 173.509 289.781 173.914C282.135 175.106 281.983 175.236 273.961 175.236H273.158C266.741 175.236 266.331 175.106 258.718 173.914C256.111 173.509 253.456 172.901 250.881 173.444C247.672 174.125 245.088 176.501 242.914 178.982C242.395 179.487 242.023 180.127 241.839 180.831C241.781 181.423 241.852 182.021 242.048 182.582C242.586 184.61 243.757 188.615 244.302 190.642H304.445Z" fill="#E7C14A"/>
<path d="M184.079 285.807C185.684 272.087 183.518 258.237 183.991 244.395C184.464 230.554 186.245 215.455 196.947 206.86C200.998 203.616 208.981 199.87 213.794 197.94C229.838 191.518 242.674 186.588 262.73 187.488C270.568 187.837 278.935 188.299 286.797 188.21C293.142 188.153 300.435 187.399 305.168 187.812C310.615 188.291 317.682 190.618 322.897 192.264C335.733 196.319 342.038 199.489 352.579 204.427C355.277 205.908 357.716 207.825 359.799 210.103C361.532 212.588 362.884 215.321 363.811 218.212C368.207 234.535 373.654 265.908 369.426 282.271L184.079 285.807Z" fill="#F6D775"/>
<path d="M184.079 285.807C185.684 272.087 183.518 258.237 183.991 244.395C184.464 230.554 186.245 215.455 196.947 206.86C200.998 203.616 208.981 199.87 213.794 197.94C229.838 191.518 242.674 186.588 262.73 187.488C270.568 187.837 278.935 188.299 286.797 188.21C293.142 188.153 300.435 187.399 305.168 187.812C310.615 188.291 317.682 190.618 322.897 192.264C335.733 196.319 342.038 199.489 352.579 204.427C355.277 205.908 357.716 207.825 359.799 210.103C361.532 212.588 362.884 215.321 363.811 218.212C368.207 234.535 373.654 265.908 369.426 282.271L184.079 285.807Z" fill="url(#paint17_linear)"/>
<path d="M184.079 285.807C185.684 272.087 183.518 258.237 183.991 244.395C184.288 235.865 184.954 226.978 188.219 218.999C191.388 211.271 199.354 199.537 206.574 209.268C215.31 221.05 214.733 236.838 215.398 249.812C215.783 257.288 214.171 265.137 212.992 272.516C212.133 277.901 215.029 284.347 209.085 285.304C207.641 285.563 184.16 285.134 184.079 285.807Z" fill="#F0D47C"/>
<path d="M184.079 285.807C185.684 272.087 183.518 258.237 183.991 244.395C184.288 235.865 184.954 226.978 188.219 218.999C191.388 211.271 199.354 199.537 206.574 209.268C215.31 221.05 214.733 236.838 215.398 249.812C215.783 257.288 214.171 265.137 212.992 272.516C212.133 277.901 215.029 284.347 209.085 285.304C207.641 285.563 184.16 285.134 184.079 285.807Z" fill="url(#paint18_linear)"/>
<path d="M347.766 281.46C347.261 274.738 345.079 274.981 344.958 268.235C344.838 261.667 342.672 263.459 342.552 256.882C340.947 253.233 340.145 240.259 340.145 232.151C340.618 226.207 341.124 224.001 342.552 218.212C343.98 212.422 347.622 207.93 352.58 206.203C357.537 204.476 362.968 215.098 363.811 218.212C368.207 234.535 373.654 265.908 369.426 282.271L347.766 289.723V281.46Z" fill="#DEB42F"/>
<path d="M357.517 279.357C365.356 262.201 368.517 268.397 368.764 275.195C369.033 271.879 369.623 268.689 370.526 265.663C371.378 229.728 359.842 209.659 359.842 209.659C351.376 198.905 332.704 211.667 337.97 260.266C338.39 264.233 340.612 271.059 341.657 275.118L343.945 281.057C344.862 284.039 346.976 288.954 349.183 284.712C351.107 287.152 353.907 287.314 357.517 279.357Z" fill="#DFBC52"/>
<path d="M357.517 279.357C365.356 262.201 368.517 268.397 368.764 275.195C369.033 271.879 369.623 268.689 370.526 265.663C371.378 229.728 359.842 209.659 359.842 209.659C351.376 198.905 332.704 211.667 337.97 260.266C338.39 264.233 340.612 271.059 341.657 275.118L343.945 281.057C344.862 284.039 346.976 288.954 349.183 284.712C351.107 287.152 353.907 287.314 357.517 279.357Z" fill="url(#paint19_linear)"/>
<path d="M387.477 272.736C387.378 275.954 386.964 279.158 386.239 282.304L377.89 324.656L377.752 325.808H172.577L172.44 324.656C169.656 310.542 166.876 296.424 164.098 282.304C163.367 279.158 162.95 275.955 162.853 272.736C162.853 259.762 172.629 247.185 186.322 246.342H364.145C377.769 247.274 387.442 259.827 387.477 272.736Z" fill="#5555C7"/>
<path d="M387.477 272.736C387.378 275.954 386.964 279.158 386.239 282.304L377.89 324.656L377.752 325.808H172.577L172.44 324.656C169.656 310.542 166.876 296.424 164.098 282.304C163.367 279.158 162.95 275.955 162.853 272.736C162.853 259.762 172.629 247.185 186.322 246.342H364.145C377.769 247.274 387.442 259.827 387.477 272.736Z" fill="url(#paint20_linear)"/>
<path d="M387.477 272.736C387.378 275.954 386.964 279.158 386.239 282.304L377.89 324.656L377.752 325.808H172.577L172.44 324.656C169.656 310.542 166.876 296.424 164.098 282.304C163.367 279.158 162.95 275.955 162.853 272.736C162.853 259.762 172.629 247.185 186.322 246.342H364.145C377.769 247.274 387.442 259.827 387.477 272.736Z" fill="url(#paint21_linear)"/>
<path d="M175.266 287.98C174.535 284.835 174.118 281.631 174.02 278.412C174.02 265.438 183.796 252.861 197.489 252.018H375.312C376.344 252.091 377.368 252.232 378.379 252.44C374.533 248.902 369.498 246.745 364.145 246.342H186.322C172.629 247.153 162.895 259.786 162.853 272.736C162.95 275.955 163.367 279.158 164.098 282.304C166.881 296.419 169.662 310.536 172.44 324.656L172.577 325.808H182.714L175.266 287.98Z" fill="#4444AB"/>
<path d="M175.266 287.98C174.535 284.835 174.118 281.631 174.02 278.412C174.02 265.438 183.796 252.861 197.489 252.018H375.312C376.344 252.091 377.368 252.232 378.379 252.44C374.533 248.902 369.498 246.745 364.145 246.342H186.322C172.629 247.153 162.895 259.786 162.853 272.736C162.95 275.955 163.367 279.158 164.098 282.304C166.881 296.419 169.662 310.536 172.44 324.656L172.577 325.808H182.714L175.266 287.98Z" fill="url(#paint22_linear)"/>
<path d="M131.082 226.125H104.918L107.238 257.883C107.238 259.716 107.443 261.021 110.197 262.078C115.273 263.057 120.669 263.321 126.033 262.078C128.328 261.021 128.815 259.716 128.815 257.883L131.082 226.125Z" fill="url(#paint23_linear)"/>
<path d="M121.694 244.932C121.376 244.509 119.588 244.732 118.786 244.831C118.541 244.862 118.504 244.641 118.724 244.482C120.148 243.441 122.485 243.742 122.757 244.091C123.03 244.441 122.686 246.874 121.348 248.035C121.143 248.213 120.947 248.118 121.038 247.882C121.339 247.103 122.013 245.356 121.694 244.932Z" fill="#5E5E92"/>
<path d="M123.332 252.498C121.939 253.991 119.884 254.833 118.096 254.894C115.59 254.98 113.3 253.788 111.536 251.736C111.398 251.575 111.512 251.345 111.676 251.468C113.558 252.872 115.859 253.677 118.212 253.597C119.799 253.543 121.532 253.034 123.112 252.046C123.35 251.897 123.563 252.249 123.332 252.498Z" fill="#5E5E92"/>
<path opacity="0.4" d="M131.082 226.918L105.177 226.125L105.177 230.306C105.873 231.302 106.703 232.164 107.637 232.858C112.703 236.675 121.475 236.573 127.181 233.791L125.882 258.816C125.853 259.87 125.52 260.883 124.934 261.695C124.076 262.857 122.422 264.225 119.247 265C121.493 264.879 123.686 264.178 125.664 262.949C127.768 261.548 128.82 259.716 128.82 257.883L130.801 231.391L131.082 226.918Z" fill="url(#paint24_linear)"/>
<path d="M131.987 228.669C131.989 228.661 131.989 228.653 131.987 228.645V227.017C131.859 225.792 129.976 225.484 127.41 224.539C122.041 222.568 114.815 223.458 108.59 224.539C105.963 225.508 104.063 225.75 104.011 227.017L104.011 228.564C104.011 228.603 104.011 228.639 104.011 228.678V228.702C103.864 230.087 105.225 231.49 108.103 232.546C113.575 234.56 122.45 234.56 127.922 232.546C130.791 231.475 132.152 230.06 131.987 228.669Z" fill="#B5B5E1"/>
<path opacity="0.5" d="M108.668 226.103C113.852 224.289 121.972 223.923 127.156 225.737C129.454 226.543 130.732 227.568 131.013 228.621C131.344 227.301 130.528 225.749 127.619 224.747C122.434 222.933 113.569 223.131 108.384 224.946C105.497 225.948 105.165 227.315 105.468 228.621C108.384 229.396 106.37 226.908 108.668 226.103Z" fill="#4B47B6"/>
<path d="M118.23 230.884C124.567 230.884 129.705 229.463 129.705 227.711C129.705 225.959 124.567 224.539 118.23 224.539C111.892 224.539 106.754 225.959 106.754 227.711C106.754 229.463 111.892 230.884 118.23 230.884Z" fill="#A4A4E7"/>
<path opacity="0.5" d="M118.23 230.355C123.046 230.355 126.951 229.527 126.951 228.505C126.951 227.483 123.046 226.654 118.23 226.654C113.413 226.654 109.508 227.483 109.508 228.505C109.508 229.527 113.413 230.355 118.23 230.355Z" fill="#7171FA"/>
<path opacity="0.5" d="M118.23 230.355C121.525 230.355 124.197 229.882 124.197 229.298C124.197 228.714 121.525 228.24 118.23 228.24C114.934 228.24 112.262 228.714 112.262 229.298C112.262 229.882 114.934 230.355 118.23 230.355Z" fill="#7171FA"/>
<path opacity="0.4" d="M110.32 225.667C114.994 224.202 122.568 224.202 127.241 225.667L127.41 225.726C126.92 225.492 126.388 225.285 125.821 225.109C121.147 223.644 113.573 223.644 108.9 225.109C104.226 226.573 104.236 228.885 108.731 230.355C105.731 228.901 106.258 226.94 110.32 225.667Z" fill="url(#paint25_linear)"/>
<path d="M127.95 224.237C122.511 222.561 113.648 222.521 108.151 224.147C102.655 225.774 102.612 228.452 108.05 230.128C113.489 231.805 122.352 231.845 127.849 230.219C133.345 228.592 133.388 225.914 127.95 224.237ZM126.17 229.651C124.541 230.12 122.761 230.428 120.918 230.558L120.707 230.196C120.669 230.124 120.586 230.06 120.472 230.015C120.357 229.97 120.218 229.945 120.074 229.945H115.926C115.782 229.945 115.643 229.97 115.528 230.015C115.414 230.06 115.331 230.124 115.293 230.196L115.086 230.558C113.236 230.429 111.447 230.122 109.811 229.651C105.298 228.289 105.298 226.077 109.811 224.714C114.324 223.351 121.638 223.351 126.151 224.714C130.664 226.077 130.683 228.281 126.17 229.651Z" fill="#CDCDFF"/>
<path d="M119.257 230.311H116.802C116.632 230.311 116.494 230.469 116.494 230.665V230.72C116.494 230.915 116.632 231.074 116.802 231.074H119.257C119.427 231.074 119.565 230.915 119.565 230.72V230.665C119.565 230.469 119.427 230.311 119.257 230.311Z" fill="#0C0A78"/>
<path d="M119.252 230.311H116.802C116.761 230.311 116.721 230.32 116.684 230.338C116.646 230.355 116.612 230.382 116.584 230.414C116.555 230.447 116.533 230.487 116.517 230.53C116.502 230.573 116.494 230.619 116.494 230.665V230.72C116.491 230.751 116.491 230.782 116.494 230.813C116.511 230.738 116.549 230.672 116.602 230.625C116.655 230.578 116.72 230.552 116.787 230.551H119.238C119.305 230.552 119.37 230.578 119.423 230.625C119.476 230.672 119.514 230.738 119.531 230.813C119.536 230.782 119.536 230.751 119.531 230.72V230.665C119.531 230.577 119.502 230.492 119.45 230.427C119.399 230.361 119.328 230.32 119.252 230.311Z" fill="url(#paint26_linear)"/>
<path opacity="0.7" d="M118.351 230.693C118.351 230.693 125.763 227.835 122.772 218.035C119.782 208.236 113.915 205.247 116.27 197.405C116.27 197.405 112.583 203.753 116.029 212.342C119.474 220.931 120.232 219.939 120.189 224.05C120.201 225.418 119.883 226.763 119.27 227.935C118.658 229.108 117.775 230.062 116.721 230.693H118.351Z" fill="url(#paint27_linear)"/>
<path opacity="0.7" d="M119.019 198.768C119.019 198.768 118.246 192.906 123.023 187C123.023 187 118.796 197.863 120.18 203.224C120.18 203.224 119.061 199.815 119.019 198.768Z" fill="url(#paint28_linear)"/>
<path d="M496.049 264.743L468.904 240.746L488.709 264.282L496.049 264.743Z" fill="#4F4FC5"/>
<path d="M444.393 233.157L492.116 240.043L486.833 272.127L440.212 264.18L444.393 233.157Z" fill="#6060D2"/>
<path d="M444.393 233.157L492.116 240.043L486.833 272.127L489.643 270.756L493.986 239.78L447.461 232.975L444.393 233.157Z" fill="#6060D2"/>
<path d="M440.818 263.779L444.824 233.729L490.543 240.607L486.442 271.623L440.818 263.779Z" fill="#F0F0FA" stroke="#7070D9"/>
<path d="M461.919 253.844C461.875 254.202 461.53 254.444 461.133 254.365C460.736 254.285 460.465 253.92 460.508 253.563C460.552 253.205 460.897 252.963 461.294 253.042C461.691 253.121 461.962 253.486 461.919 253.844Z" fill="#6D6DF6" stroke="#6D6DF6" stroke-width="0.245614"/>
<path d="M469.873 255.079C469.829 255.437 469.484 255.679 469.087 255.6C468.69 255.521 468.419 255.156 468.463 254.798C468.506 254.44 468.851 254.198 469.248 254.278C469.645 254.357 469.916 254.722 469.873 255.079Z" fill="#6D6DF6" stroke="#6D6DF6" stroke-width="0.245614"/>
<path d="M466.599 256.549C466.032 256.821 465.339 256.919 464.618 256.787C463.896 256.654 463.263 256.312 462.794 255.85" stroke="#6D6DF6" stroke-width="0.736842" stroke-linecap="round" stroke-linejoin="round"/>
<path d="M452.798 258.159C453.38 257.813 454.078 257.661 454.794 257.775C455.51 257.889 456.126 258.251 456.57 258.761" stroke="#6D6DF6" stroke-width="0.736842" stroke-linecap="round" stroke-linejoin="round"/>
<path d="M449.02 257.573C449.603 257.227 450.301 257.074 451.017 257.189C451.732 257.303 452.348 257.665 452.793 258.175" stroke="#6D6DF6" stroke-width="0.736842" stroke-linecap="round" stroke-linejoin="round"/>
<path d="M456.576 258.746C457.159 258.4 457.857 258.248 458.572 258.362C459.288 258.476 459.904 258.838 460.349 259.348" stroke="#6D6DF6" stroke-width="0.736842" stroke-linecap="round" stroke-linejoin="round"/>
<path d="M460.354 259.332C460.936 258.986 461.634 258.834 462.35 258.948C463.066 259.063 463.681 259.424 464.126 259.934" stroke="#6D6DF6" stroke-width="0.736842" stroke-linecap="round" stroke-linejoin="round"/>
<path d="M464.132 259.92C464.715 259.574 465.413 259.422 466.128 259.536C466.844 259.65 467.46 260.012 467.905 260.521" stroke="#6D6DF6" stroke-width="0.736842" stroke-linecap="round" stroke-linejoin="round"/>
<path d="M467.91 260.507C468.493 260.161 469.191 260.009 469.906 260.123C470.622 260.237 471.238 260.598 471.683 261.108" stroke="#6D6DF6" stroke-width="0.736842" stroke-linecap="round" stroke-linejoin="round"/>
<path d="M471.688 261.094C472.27 260.748 472.968 260.595 473.684 260.71C474.4 260.824 475.015 261.186 475.46 261.696" stroke="#6D6DF6" stroke-width="0.736842" stroke-linecap="round" stroke-linejoin="round"/>
<path d="M475.468 261.681C476.05 261.335 476.748 261.183 477.464 261.298C478.18 261.412 478.795 261.773 479.24 262.283" stroke="#6D6DF6" stroke-width="0.736842" stroke-linecap="round" stroke-linejoin="round"/>
<g opacity="0.5">
<path d="M454.087 261.736C454.669 261.388 455.367 261.236 456.083 261.349C456.799 261.463 457.414 261.825 457.858 262.336" stroke="#6D6DF6" stroke-width="0.736842" stroke-linecap="round" stroke-linejoin="round"/>
<path d="M450.31 261.148C450.893 260.801 451.591 260.648 452.306 260.762C453.022 260.876 453.637 261.238 454.081 261.749" stroke="#6D6DF6" stroke-width="0.736842" stroke-linecap="round" stroke-linejoin="round"/>
<path d="M446.532 260.562C447.114 260.215 447.812 260.062 448.528 260.176C449.243 260.29 449.858 260.651 450.303 261.162" stroke="#6D6DF6" stroke-width="0.736842" stroke-linecap="round" stroke-linejoin="round"/>
<path d="M457.865 262.323C458.447 261.975 459.145 261.822 459.861 261.936C460.576 262.05 461.191 262.412 461.636 262.923" stroke="#6D6DF6" stroke-width="0.736842" stroke-linecap="round" stroke-linejoin="round"/>
<path d="M461.644 262.909C462.226 262.562 462.924 262.409 463.64 262.523C464.355 262.637 464.97 262.999 465.415 263.509" stroke="#6D6DF6" stroke-width="0.736842" stroke-linecap="round" stroke-linejoin="round"/>
<path d="M465.421 263.496C466.004 263.149 466.702 262.996 467.417 263.11C468.133 263.224 468.748 263.586 469.192 264.096" stroke="#6D6DF6" stroke-width="0.736842" stroke-linecap="round" stroke-linejoin="round"/>
<path d="M469.201 264.083C469.783 263.736 470.481 263.583 471.197 263.697C471.913 263.811 472.528 264.173 472.972 264.684" stroke="#6D6DF6" stroke-width="0.736842" stroke-linecap="round" stroke-linejoin="round"/>
<path d="M472.979 264.67C473.562 264.323 474.26 264.17 474.975 264.284C475.691 264.398 476.306 264.76 476.75 265.271" stroke="#6D6DF6" stroke-width="0.736842" stroke-linecap="round" stroke-linejoin="round"/>
<path d="M476.757 265.258C477.339 264.91 478.037 264.758 478.753 264.871C479.468 264.985 480.083 265.347 480.528 265.858" stroke="#6D6DF6" stroke-width="0.736842" stroke-linecap="round" stroke-linejoin="round"/>
</g>
<path d="M474.83 260.398C475.464 255.3 471.53 250.296 466.042 249.221C460.554 248.147 455.591 251.409 454.957 256.507" stroke="#6D6DF6" stroke-width="0.736842" stroke-linecap="round" stroke-linejoin="round"/>
<path opacity="0.5" d="M479.542 258.887C479.521 259.062 479.346 259.2 479.122 259.155C478.898 259.111 478.764 258.911 478.785 258.736C478.807 258.561 478.982 258.423 479.206 258.468C479.43 258.512 479.564 258.712 479.542 258.887Z" fill="#6D6DF6" stroke="#6D6DF6" stroke-width="0.491228" stroke-linecap="round" stroke-linejoin="round"/>
<path opacity="0.5" d="M474.773 243.385C474.752 243.56 474.577 243.698 474.353 243.653C474.129 243.608 473.995 243.409 474.016 243.234C474.037 243.059 474.212 242.921 474.437 242.966C474.661 243.01 474.795 243.21 474.773 243.385Z" fill="#6D6DF6" stroke="#6D6DF6" stroke-width="0.491228" stroke-linecap="round" stroke-linejoin="round"/>
<path opacity="0.5" d="M450.749 251.462C450.728 251.637 450.553 251.775 450.329 251.73C450.105 251.685 449.971 251.486 449.992 251.311C450.013 251.135 450.188 250.998 450.412 251.042C450.637 251.087 450.771 251.286 450.749 251.462Z" fill="#6D6DF6" stroke="#6D6DF6" stroke-width="0.491228" stroke-linecap="round" stroke-linejoin="round"/>
<path opacity="0.5" d="M466.464 250.648C466.456 250.718 466.395 250.795 466.257 250.845C466.122 250.894 465.934 250.908 465.726 250.867C465.518 250.826 465.342 250.74 465.225 250.641C465.105 250.54 465.066 250.444 465.075 250.373C465.084 250.303 465.144 250.227 465.282 250.176C465.418 250.127 465.606 250.114 465.813 250.155C466.021 250.196 466.197 250.281 466.314 250.38C466.434 250.481 466.473 250.578 466.464 250.648Z" fill="#6D6DF6" stroke="#6D6DF6" stroke-width="0.245614" stroke-linecap="round" stroke-linejoin="round"/>
<path d="M473.473 253.802C473.473 253.802 473.921 253.795 474.115 253.712C474.329 253.625 474.637 253.259 474.637 253.259C474.164 252.792 473.746 252.23 473.544 251.615C473.234 250.664 473.484 249.572 473.945 248.77C474.34 248.083 474.772 248.76 475.299 249.334C475.826 249.908 476.448 250.378 476.5 251.231C476.52 251.558 476.277 251.936 476.518 252.011C476.518 252.011 477.014 251.703 477.625 251.783C478.434 251.889 478.936 252.345 479.723 252.535C480.594 252.749 481.065 252.696 480.636 253.442C480.189 254.219 479.523 254.761 478.66 254.918C477.998 255.043 477.369 254.933 476.729 254.664C476.173 256.836 475.849 257.82 474.945 258.766" stroke="#6D6DF6" stroke-width="0.736842" stroke-linecap="round" stroke-linejoin="round"/>
</g>
<path fill-rule="evenodd" clip-rule="evenodd" d="M133 110C128.055 110 123.222 111.466 119.111 114.213C115 116.96 111.795 120.865 109.903 125.433C108.011 130.001 107.516 135.028 108.48 139.877C109.445 144.727 111.826 149.181 115.322 152.678C118.819 156.174 123.273 158.555 128.123 159.52C132.972 160.484 137.999 159.989 142.567 158.097C147.135 156.205 151.04 153 153.787 148.889C156.534 144.778 158 139.945 158 135C158 128.37 155.366 122.011 150.678 117.322C145.989 112.634 139.63 110 133 110Z" fill="#9393FF"/>
<path d="M132.083 123.48C132.431 122.677 133.569 122.677 133.917 123.48L136.468 129.362C136.613 129.696 136.928 129.925 137.291 129.959L143.673 130.568C144.544 130.651 144.896 131.733 144.24 132.313L139.434 136.556C139.161 136.797 139.041 137.168 139.12 137.523L140.514 143.781C140.704 144.635 139.783 145.305 139.029 144.86L133.508 141.6C133.195 141.415 132.805 141.415 132.492 141.6L126.971 144.86C126.217 145.305 125.296 144.635 125.486 143.781L126.88 137.523C126.959 137.168 126.839 136.797 126.566 136.556L121.76 132.313C121.104 131.733 121.456 130.651 122.327 130.568L128.709 129.959C129.072 129.925 129.387 129.696 129.532 129.362L132.083 123.48Z" fill="white"/>
<path fill-rule="evenodd" clip-rule="evenodd" d="M160 293C155.055 293 150.222 294.466 146.111 297.213C142 299.96 138.795 303.865 136.903 308.433C135.011 313.001 134.516 318.028 135.48 322.877C136.445 327.727 138.826 332.181 142.322 335.678C145.819 339.174 150.273 341.555 155.123 342.52C159.972 343.484 164.999 342.989 169.567 341.097C174.135 339.205 178.04 336 180.787 331.889C183.534 327.778 185 322.945 185 318C185 311.37 182.366 305.011 177.678 300.322C172.989 295.634 166.63 293 160 293Z" fill="#E3F4E7"/>
<path fill-rule="evenodd" clip-rule="evenodd" d="M163.032 305.093C162.294 301.47 157.104 301.47 156.365 305.093C155.923 307.257 153.548 308.423 151.571 307.437L151.107 307.206C147.896 305.605 144.844 309.623 147.229 312.304C148.704 313.963 148.118 316.584 146.074 317.45C142.768 318.851 143.85 323.788 147.438 323.679L147.667 323.672C149.877 323.605 151.518 325.705 150.934 327.837C149.974 331.342 154.516 333.668 156.753 330.804L157.012 330.472C158.377 328.724 161.021 328.724 162.385 330.472L162.644 330.804C164.881 333.668 169.423 331.342 168.463 327.837C167.879 325.705 169.521 323.605 171.73 323.672L171.959 323.679C175.548 323.788 176.629 318.851 173.323 317.45C171.279 316.584 170.693 313.963 172.168 312.304C174.553 309.623 171.501 305.605 168.29 307.206L167.826 307.437C165.849 308.423 163.474 307.257 163.032 305.093ZM159.699 322.33C162.343 322.33 164.487 320.28 164.487 317.751C164.487 315.222 162.343 313.172 159.699 313.172C157.054 313.172 154.91 315.222 154.91 317.751C154.91 320.28 157.054 322.33 159.699 322.33Z" fill="white"/>
<path d="M383.156 45.749C382.391 43.2472 383.799 40.599 386.3 39.834L391.506 38.242C392.535 37.9275 393.425 37.2722 394.032 36.3841L398.869 29.3026C399.989 27.6627 402.509 28.0467 403.09 29.9459L411.29 56.7593C411.87 58.6584 409.996 60.386 408.151 59.6531L400.18 56.4884C399.18 56.0914 398.075 56.0466 397.047 56.3611L391.841 57.953C389.339 58.7181 386.691 57.3102 385.926 54.8085L383.156 45.749Z" fill="#9393FF"/>
<path d="M411.214 32.2153C411.214 32.2153 415.65 34.5737 417.382 40.2359C419.113 45.8982 416.755 50.3344 416.755 50.3344" stroke="#9393FF" stroke-width="4.73684" stroke-linecap="round" stroke-linejoin="round"/>
<path d="M415.238 21.0776C415.238 21.0776 424.111 25.7944 427.574 37.1189C431.037 48.4433 426.32 57.3158 426.32 57.3158" stroke="#9393FF" stroke-width="4.73684" stroke-linecap="round" stroke-linejoin="round"/>
<circle cx="506" cy="203" r="16" fill="#DEDEFF"/>
<circle cx="168" cy="16" r="8" fill="#DDE0FE"/>
<circle cx="417" cy="338" r="8" fill="#B8B8FF"/>
<circle cx="35.5" cy="251.5" r="10.5" fill="#D4F8E7"/>
<defs>
<linearGradient id="paint0_linear" x1="59.3651" y1="292.562" x2="59.3651" y2="335.944" gradientUnits="userSpaceOnUse">
<stop stop-color="#A5BDFF"/>
<stop offset="1" stop-color="#BDD0FE" stop-opacity="0"/>
</linearGradient>
<linearGradient id="paint1_linear" x1="518.24" y1="292.562" x2="518.24" y2="335.944" gradientUnits="userSpaceOnUse">
<stop stop-color="#A5BDFF"/>
<stop offset="1" stop-color="#BDD0FE" stop-opacity="0"/>
</linearGradient>
<linearGradient id="paint2_linear" x1="474.919" y1="257.694" x2="402.714" y2="253.725" gradientUnits="userSpaceOnUse">
<stop stop-color="#B0C7FF"/>
<stop offset="1" stop-color="#BDD0FE" stop-opacity="0"/>
</linearGradient>
<linearGradient id="paint3_linear" x1="80.0781" y1="5.97409" x2="-10.0925" y2="1.77736" gradientUnits="userSpaceOnUse">
<stop stop-color="#B0C7FF"/>
<stop offset="1" stop-color="#BDD0FE" stop-opacity="0"/>
</linearGradient>
<linearGradient id="paint4_linear" x1="406.399" y1="266.614" x2="368.264" y2="264.77" gradientUnits="userSpaceOnUse">
<stop stop-color="#B0C7FF"/>
<stop offset="1" stop-color="#BDD0FE" stop-opacity="0"/>
</linearGradient>
<linearGradient id="paint5_linear" x1="143.889" y1="261" x2="100.054" y2="259.52" gradientUnits="userSpaceOnUse">
<stop stop-color="#ADC5FE"/>
<stop offset="1" stop-color="#BDD0FE" stop-opacity="0"/>
</linearGradient>
<linearGradient id="paint6_linear" x1="427.288" y1="99.8892" x2="437.469" y2="233.317" gradientUnits="userSpaceOnUse">
<stop stop-color="#E0FAD5"/>
<stop offset="1" stop-color="#1EBFAA"/>
</linearGradient>
<linearGradient id="paint7_linear" x1="418.9" y1="91.2675" x2="428.602" y2="214.896" gradientUnits="userSpaceOnUse">
<stop stop-color="#E1FBF1"/>
<stop offset="1" stop-color="#15BA88"/>
</linearGradient>
<linearGradient id="paint8_linear" x1="389.963" y1="169.003" x2="421.412" y2="241.29" gradientUnits="userSpaceOnUse">
<stop stop-color="#D1FFDB"/>
<stop offset="1" stop-color="#04AB6F"/>
</linearGradient>
<linearGradient id="paint9_linear" x1="407.636" y1="170.04" x2="427.056" y2="230.935" gradientUnits="userSpaceOnUse">
<stop stop-color="#DFFFF7"/>
<stop offset="1" stop-color="#12BB69"/>
</linearGradient>
<linearGradient id="paint10_linear" x1="464.47" y1="154.813" x2="445.47" y2="236.377" gradientUnits="userSpaceOnUse">
<stop stop-color="#E1FBF1"/>
<stop offset="1" stop-color="#15BA88"/>
</linearGradient>
<linearGradient id="paint11_linear" x1="457.043" y1="154.341" x2="433.923" y2="229.24" gradientUnits="userSpaceOnUse">
<stop stop-color="#D4FCDC"/>
<stop offset="1" stop-color="#05D697"/>
</linearGradient>
<linearGradient id="paint12_linear" x1="432.922" y1="257.863" x2="432.922" y2="208.496" gradientUnits="userSpaceOnUse">
<stop stop-color="#96CDFF"/>
<stop offset="1" stop-color="#DEF4FF"/>
</linearGradient>
<linearGradient id="paint13_linear" x1="272.758" y1="93.897" x2="273.165" y2="249.484" gradientUnits="userSpaceOnUse">
<stop stop-color="white"/>
<stop offset="1" stop-color="#EBF4FF"/>
</linearGradient>
<linearGradient id="paint14_linear" x1="366.618" y1="100.384" x2="174.613" y2="151.251" gradientUnits="userSpaceOnUse">
<stop stop-color="#A7A7FF"/>
<stop offset="1" stop-color="#D4D4FF"/>
</linearGradient>
<linearGradient id="paint15_linear" x1="249.092" y1="121.467" x2="299.12" y2="189.069" gradientUnits="userSpaceOnUse">
<stop stop-color="#F6C1AB"/>
<stop offset="1" stop-color="#E1A790"/>
</linearGradient>
<linearGradient id="paint16_linear" x1="274.286" y1="77.1196" x2="274.286" y2="167.127" gradientUnits="userSpaceOnUse">
<stop stop-color="#2E304F"/>
<stop offset="1" stop-color="#212239"/>
</linearGradient>
<linearGradient id="paint17_linear" x1="243.075" y1="101.195" x2="307.245" y2="271.027" gradientUnits="userSpaceOnUse">
<stop stop-color="#F9E093" stop-opacity="0"/>
<stop offset="1" stop-color="#D3A619"/>
</linearGradient>
<linearGradient id="paint18_linear" x1="236.657" y1="264.586" x2="142.641" y2="206.702" gradientUnits="userSpaceOnUse">
<stop stop-color="#CEA91C"/>
<stop offset="1" stop-color="#FEF5D3" stop-opacity="0"/>
</linearGradient>
<linearGradient id="paint19_linear" x1="372.234" y1="264.586" x2="308.765" y2="247.497" gradientUnits="userSpaceOnUse">
<stop stop-color="#C2970F"/>
<stop offset="1" stop-color="#F3DA8A" stop-opacity="0"/>
</linearGradient>
<linearGradient id="paint20_linear" x1="233.569" y1="246.09" x2="348.145" y2="382.805" gradientUnits="userSpaceOnUse">
<stop offset="0.0480205" stop-color="#2C2C9D"/>
<stop offset="1" stop-color="#4444AB" stop-opacity="0"/>
</linearGradient>
<linearGradient id="paint21_linear" x1="275.52" y1="304.265" x2="275.52" y2="333.675" gradientUnits="userSpaceOnUse">
<stop stop-color="#4747B6" stop-opacity="0"/>
<stop offset="1" stop-color="#F3F7FD" stop-opacity="0.5"/>
</linearGradient>
<linearGradient id="paint22_linear" x1="181.44" y1="308.604" x2="181.44" y2="331.747" gradientUnits="userSpaceOnUse">
<stop stop-color="#3131A1" stop-opacity="0"/>
<stop offset="1" stop-color="#F3F7FD" stop-opacity="0.5"/>
</linearGradient>
<linearGradient id="paint23_linear" x1="118.309" y1="199.462" x2="89.5122" y2="248.198" gradientUnits="userSpaceOnUse">
<stop stop-color="white"/>
<stop offset="1" stop-color="#E1E1F7"/>
</linearGradient>
<linearGradient id="paint24_linear" x1="139.904" y1="185.959" x2="117.371" y2="246.822" gradientUnits="userSpaceOnUse">
<stop stop-color="#AEABE4"/>
<stop offset="1" stop-color="#3C36A0" stop-opacity="0"/>
</linearGradient>
<linearGradient id="paint25_linear" x1="134.574" y1="217.864" x2="133.808" y2="228.747" gradientUnits="userSpaceOnUse">
<stop stop-color="#06033E"/>
<stop offset="1" stop-color="#06033E" stop-opacity="0"/>
</linearGradient>
<linearGradient id="paint26_linear" x1="238.26" y1="270.426" x2="263.849" y2="270.426" gradientUnits="userSpaceOnUse">
<stop stop-color="#131060"/>
<stop offset="0.19" stop-color="#141062"/>
<stop offset="0.28" stop-color="#19106A"/>
<stop offset="0.36" stop-color="#221078"/>
<stop offset="0.42" stop-color="#2E0F8B"/>
<stop offset="0.48" stop-color="#3E0FA3"/>
<stop offset="0.54" stop-color="#510EC2"/>
<stop offset="0.58" stop-color="#680DE5"/>
<stop offset="0.61" stop-color="#740DF8"/>
<stop offset="0.64" stop-color="#7120F7"/>
<stop offset="0.71" stop-color="#6B45F6"/>
<stop offset="0.79" stop-color="#6662F5"/>
<stop offset="0.86" stop-color="#6376F5"/>
<stop offset="0.93" stop-color="#6183F4"/>
<stop offset="1" stop-color="#6087F4"/>
</linearGradient>
<linearGradient id="paint27_linear" x1="119.02" y1="197.405" x2="119.02" y2="230.693" gradientUnits="userSpaceOnUse">
<stop stop-color="#8057F6"/>
<stop offset="1" stop-color="white" stop-opacity="0"/>
</linearGradient>
<linearGradient id="paint28_linear" x1="120.998" y1="187" x2="120.998" y2="203.224" gradientUnits="userSpaceOnUse">
<stop stop-color="#8057F6"/>
<stop offset="1" stop-color="white" stop-opacity="0"/>
</linearGradient>
</defs>
</svg>
