<svg width="828" height="624" viewBox="0 0 828 624" fill="none" xmlns="http://www.w3.org/2000/svg">
<path d="M276.645 541.149C250.841 541.064 284.285 541.238 63.7597 544.729C19.5794 545.428 16.7072 546.703 16.0135 550.425C15.3493 554.023 39.364 559.896 63.7596 562.306C102.229 566.113 115.347 562.306 115.347 566.419C115.542 568.472 86.7924 567.843 85.2737 573.274C83.6747 578.992 99.7687 582.167 143.932 581.816C149.969 581.768 197.13 579.639 207.422 581.816C226.576 585.863 183.981 595.714 194.704 601.165C220.432 614.252 276.645 613.949 347.019 613.949C384.317 616.566 383.008 615.873 425.497 620.213C461.284 623.874 492.592 626.484 576.435 620.213C592.539 619.009 622.989 616.329 675.072 610.965C720.978 606.237 751.055 602.815 753.593 595.15C755.403 589.699 741.592 587.206 742.544 581.128C744.549 568.325 828.421 553.86 827.998 548.576C827.355 540.426 647.197 541.377 635.518 541.149C377.61 536.134 388.488 541.518 276.645 541.149Z" fill="url(#paint0_linear)"/>
<ellipse cx="652.5" cy="554" rx="55.5" ry="8" fill="url(#paint1_linear)"/>
<ellipse cx="263" cy="591" rx="36" ry="5" fill="url(#paint2_linear)"/>
<ellipse rx="107.5" ry="11" transform="matrix(0.999559 0.0296915 -0.0298612 0.999554 429.124 590.187)" fill="url(#paint3_linear)"/>
<ellipse rx="113.5" ry="15" transform="matrix(0.999701 0.0244716 -0.0246115 0.999697 560.097 586.773)" fill="url(#paint4_linear)"/>
<path fill-rule="evenodd" clip-rule="evenodd" d="M57.6115 426.462C-13.0435 334.469 -20.0768 210.499 44.0952 115.56C108.737 10.1412 337.386 -60.286 484.373 72.9942C505.849 91.6806 536.304 95.7704 573.028 88.3039C683.882 64.29 760.067 140.462 722.149 225.633C703.358 269.033 668.46 292.576 618.959 292.899C590.248 292.684 564.733 295.28 542.988 300.971C529.575 292.178 514.54 286.166 498.772 283.29C483.003 280.413 466.82 280.73 451.175 284.222C435.531 287.714 420.742 294.31 407.682 303.621C394.621 312.933 383.553 324.771 375.129 338.438C373.653 340.523 372.23 342.649 370.874 344.855L370.324 345.582C368.217 348.272 366.203 351.111 364.311 354.017C362.606 356.236 360.969 358.51 359.398 360.864L354.888 367.658C353.05 370.416 351.318 373.282 349.52 376.093L342.392 385.914C339.325 389.103 336.435 392.457 333.735 395.964L331.05 397.309C323.425 399.368 316.02 402.175 308.944 405.69C298.416 405.504 287.909 406.712 277.697 409.282L270.744 411.018C261.526 413.164 252.592 416.393 244.128 420.637L235.578 424.928C232.374 425.708 229.175 426.628 225.981 427.686L221.686 429.126L218.491 430.04C215.095 430.942 211.713 432.018 208.357 433.242C207.015 433.525 205.673 433.821 204.331 434.157L202.116 434.709C199.754 435.26 197.391 435.866 195.042 436.565C190.616 437.505 186.247 438.695 181.956 440.13L180.224 440.709C178.009 441.408 175.795 442.189 173.607 443.036L172.036 443.493C170.855 443.682 169.688 443.897 168.52 444.126H166.923C162.888 444.126 158.856 444.332 154.843 444.745C140.865 434.941 124.962 428.239 108.195 425.086C91.4284 421.934 74.1833 422.403 57.6115 426.462Z" fill="#F1F1FF"/>
<path fill-rule="evenodd" clip-rule="evenodd" d="M490.739 275.569L101.756 470.591C83.2809 455.807 66.8244 438.677 52.8059 419.637C60.8616 405.303 73.7216 394.254 89.1311 388.425C104.541 382.597 121.516 382.363 137.082 387.763C131.828 372.956 130.92 356.962 134.465 341.658C138.01 326.354 145.86 312.376 157.094 301.365C168.328 290.353 182.48 282.764 197.889 279.49C213.298 276.215 229.324 277.391 244.086 282.878C254.279 259.092 271.087 238.71 292.525 224.139C313.962 209.568 339.135 201.417 365.069 200.649C391.004 199.88 416.618 206.526 438.886 219.802C461.154 233.077 479.147 252.428 490.739 275.569Z" fill="#F8F8FF"/>
<path fill-rule="evenodd" clip-rule="evenodd" d="M616.829 398.455C361.51 545.756 184.649 560.858 164.918 498.672C155.956 475.076 155.104 449.803 162.462 425.811C169.82 401.819 185.084 380.1 206.468 363.192C227.852 346.285 254.473 334.889 283.216 330.338C311.959 325.786 341.636 328.267 368.777 337.491C381.455 314.277 401.922 294.746 427.621 281.34C453.32 267.934 460.785 268.578 499.663 256.697C528.821 247.786 546.589 247.786 605.817 268.578C634.064 275.707 691.47 247.786 710.149 247.786C699.671 291.89 643.039 381.65 616.829 398.455Z" fill="#E0E0FB"/>
<path fill-rule="evenodd" clip-rule="evenodd" d="M510.417 405.716C498.12 475.022 486.179 540.501 373.284 540.501C260.388 540.501 224.881 550.031 175.835 521.034L175.579 520.909C170.478 518.707 165.377 516.338 160.276 513.802H160.503C133.378 500.291 108.22 483.939 85.5821 465.104C94.2411 454.519 105.446 445.736 118.403 439.379C131.36 433.022 145.751 429.247 160.555 428.32C175.359 427.394 190.215 429.339 204.067 434.017C217.92 438.696 230.43 445.994 240.711 455.394C241.767 442.582 246.088 430.143 253.353 418.994C260.619 407.846 270.644 398.273 282.688 390.983C294.732 383.693 308.487 378.873 322.937 376.878C337.388 374.882 352.164 375.764 366.174 379.456C370.546 365.881 378.596 353.437 389.637 343.189C400.677 332.941 414.379 325.192 429.572 320.606C444.764 316.019 460.996 314.732 476.878 316.852C492.761 318.973 507.823 324.44 520.776 332.784C517.176 334.938 513.717 337.269 510.417 339.766C494.159 352.279 514.122 385.083 510.417 405.716Z" fill="#DCDCFF"/>
<path d="M225 200L225 90.0028C225 85.5835 228.583 82.0013 233.003 82.0028L371.003 82.0517C375.42 82.0532 379 85.6345 379 90.0517L379 200C379 204.418 375.418 208 371 208H233C228.582 208 225 204.418 225 200Z" fill="white"/>
<path fill-rule="evenodd" clip-rule="evenodd" d="M347.463 97H342.537C341.599 97 340.699 97.3869 340.036 98.0756C339.373 98.7642 339 99.6983 339 100.672V189.328C339 190.302 339.373 191.236 340.036 191.924C340.699 192.613 341.599 193 342.537 193H347.463C348.401 193 349.301 192.613 349.964 191.924C350.627 191.236 351 190.302 351 189.328V100.672C351 99.6983 350.627 98.7642 349.964 98.0756C349.301 97.3869 348.401 97 347.463 97Z" fill="url(#paint5_linear)"/>
<path fill-rule="evenodd" clip-rule="evenodd" d="M327.343 123H320.657C319.952 123 319.276 123.289 318.778 123.804C318.28 124.318 318 125.016 318 125.744V190.256C318 190.984 318.28 191.682 318.778 192.196C319.276 192.711 319.952 193 320.657 193H327.343C328.048 193 328.724 192.711 329.222 192.196C329.72 191.682 330 190.984 330 190.256V125.744C330 125.016 329.72 124.318 329.222 123.804C328.724 123.289 328.048 123 327.343 123Z" fill="url(#paint6_linear)"/>
<path fill-rule="evenodd" clip-rule="evenodd" d="M305.343 173H298.657C297.952 173 297.276 173.28 296.778 173.778C296.28 174.275 296 174.951 296 175.655V190.345C296 191.049 296.28 191.725 296.778 192.222C297.276 192.72 297.952 193 298.657 193H305.343C306.048 193 306.724 192.72 307.222 192.222C307.72 191.725 308 191.049 308 190.345V175.655C308 174.951 307.72 174.275 307.222 173.778C306.724 173.28 306.048 173 305.343 173Z" fill="url(#paint7_linear)"/>
<path fill-rule="evenodd" clip-rule="evenodd" d="M284.343 149.018H277.657C276.952 149.018 276.276 149.305 275.778 149.816C275.28 150.327 275 151.019 275 151.741V190.277C275 190.999 275.28 191.692 275.778 192.202C276.276 192.713 276.952 193 277.657 193H284.343C285.048 193 285.724 192.713 286.222 192.202C286.72 191.692 287 190.999 287 190.277V151.723C287 151.001 286.72 150.308 286.222 149.798C285.724 149.287 285.048 149 284.343 149" fill="url(#paint8_linear)"/>
<path fill-rule="evenodd" clip-rule="evenodd" d="M262.345 113.027H255.655C254.951 113.027 254.275 113.314 253.778 113.824C253.28 114.335 253 115.027 253 115.749V190.278C253 191 253.28 191.692 253.778 192.203C254.275 192.713 254.951 193 255.655 193H262.345C263.049 193 263.725 192.713 264.222 192.203C264.72 191.692 265 191 265 190.278V115.722C265 115 264.72 114.308 264.222 113.797C263.725 113.287 263.049 113 262.345 113" fill="url(#paint9_linear)"/>
<path fill-rule="evenodd" clip-rule="evenodd" d="M398.414 170H318.128C317.299 170.002 316.505 170.331 315.919 170.915C315.333 171.499 315.002 172.29 315 173.115V226.84C315.002 227.665 315.333 228.456 315.919 229.04C316.505 229.624 317.299 229.953 318.128 229.955H439.237C436.626 226.117 434.265 222.117 432.169 217.978C431.421 216.524 430.699 215.061 430.023 213.579C427.389 207.974 425.239 202.157 423.595 196.189C423.379 195.462 423.162 194.725 422.964 193.989C413.558 187.336 405.272 179.239 398.414 170Z" fill="url(#paint10_linear)"/>
<path fill-rule="evenodd" clip-rule="evenodd" d="M443.872 170H391.742C411.879 184.764 426.351 205.931 432.764 230H443.872C444.701 229.998 445.495 229.669 446.081 229.085C446.667 228.501 446.998 227.71 447 226.885V173.115C446.998 172.29 446.667 171.499 446.081 170.915C445.495 170.331 444.701 170.002 443.872 170Z" fill="#9F9FFF"/>
<path fill-rule="evenodd" clip-rule="evenodd" d="M420.009 184C416.844 183.998 413.75 184.935 411.117 186.692C408.485 188.449 406.433 190.947 405.221 193.871C404.008 196.794 403.69 200.012 404.306 203.116C404.923 206.22 406.446 209.072 408.683 211.311C410.92 213.549 413.771 215.074 416.875 215.692C419.979 216.31 423.197 215.994 426.121 214.783C429.045 213.572 431.544 211.521 433.303 208.89C435.061 206.259 436 203.165 436 200C435.998 195.759 434.312 191.692 431.314 188.692C428.316 185.692 424.25 184.005 420.009 184Z" fill="white"/>
<path fill-rule="evenodd" clip-rule="evenodd" d="M427.982 206.973H412.001C411.983 205.56 412.341 204.168 413.038 202.939C413.736 201.709 414.749 200.688 415.971 199.979C416.741 199.525 417.583 199.208 418.461 199.043C417.722 198.643 417.138 198.006 416.804 197.235C416.47 196.463 416.406 195.602 416.62 194.79C416.835 193.977 417.317 193.26 417.988 192.755C418.659 192.249 419.481 191.983 420.322 192.001C421.162 192.018 421.972 192.318 422.622 192.851C423.272 193.384 423.723 194.121 423.904 194.942C424.084 195.762 423.984 196.62 423.618 197.377C423.252 198.133 422.643 198.745 421.887 199.114C422.642 199.302 423.364 199.603 424.029 200.006C425.248 200.72 426.256 201.742 426.953 202.97C427.651 204.198 428.011 205.588 428 207" fill="#9898FF"/>
<path fill-rule="evenodd" clip-rule="evenodd" d="M397.187 187H324.813C324.332 187 323.871 187.208 323.531 187.579C323.191 187.949 323 188.452 323 188.976V190.024C323 190.548 323.191 191.051 323.531 191.421C323.871 191.792 324.332 192 324.813 192H397.187C397.668 192 398.129 191.792 398.469 191.421C398.809 191.051 399 190.548 399 190.024V188.976C399 188.452 398.809 187.949 398.469 187.579C398.129 187.208 397.668 187 397.187 187Z" fill="white"/>
<path fill-rule="evenodd" clip-rule="evenodd" d="M397.171 196H336.829C336.344 196 335.878 196.208 335.536 196.579C335.193 196.949 335 197.452 335 197.976V199.024C335 199.548 335.193 200.051 335.536 200.421C335.878 200.792 336.344 201 336.829 201H397.171C397.656 201 398.122 200.792 398.464 200.421C398.807 200.051 399 199.548 399 199.024V197.976C399 197.452 398.807 196.949 398.464 196.579C398.122 196.208 397.656 196 397.171 196Z" fill="white"/>
<path fill-rule="evenodd" clip-rule="evenodd" d="M397.228 205H380.772C380.302 205 379.851 205.208 379.519 205.579C379.187 205.949 379 206.452 379 206.976V208.024C379 208.548 379.187 209.051 379.519 209.421C379.851 209.792 380.302 210 380.772 210H397.228C397.698 210 398.149 209.792 398.481 209.421C398.813 209.051 399 208.548 399 208.024V206.976C399 206.452 398.813 205.949 398.481 205.579C398.149 205.208 397.698 205 397.228 205Z" fill="white"/>
<path fill-rule="evenodd" clip-rule="evenodd" d="M374 61C369.649 61 365.395 62.2903 361.777 64.7077C358.16 67.1251 355.34 70.561 353.675 74.581C352.01 78.6009 351.574 83.0244 352.423 87.292C353.272 91.5596 355.367 95.4796 358.444 98.5563C361.52 101.633 365.44 103.728 369.708 104.577C373.976 105.426 378.399 104.99 382.419 103.325C386.439 101.66 389.875 98.8404 392.292 95.2225C394.71 91.6047 396 87.3512 396 83C396 77.1652 393.682 71.5694 389.556 67.4436C385.431 63.3178 379.835 61 374 61Z" fill="#9393FF"/>
<path d="M373.083 73.1157C373.431 72.3129 374.569 72.3129 374.917 73.1157L377.024 77.9732C377.169 78.3073 377.484 78.5363 377.846 78.5708L383.117 79.073C383.988 79.1561 384.34 80.2389 383.684 80.8181L379.715 84.3224C379.442 84.5635 379.322 84.9339 379.401 85.2894L380.552 90.4573C380.742 91.3115 379.821 91.9807 379.068 91.5358L374.508 88.8441C374.195 88.659 373.805 88.659 373.492 88.8441L368.932 91.5358C368.179 91.9807 367.258 91.3115 367.448 90.4573L368.599 85.2894C368.678 84.9339 368.558 84.5635 368.285 84.3224L364.316 80.8181C363.66 80.2389 364.012 79.1561 364.883 79.073L370.154 78.5708C370.516 78.5363 370.831 78.3073 370.976 77.9732L373.083 73.1157Z" fill="white"/>
<path fill-rule="evenodd" clip-rule="evenodd" d="M261.178 185.02H123.822C122.808 185.02 121.836 185.329 121.12 185.879C120.403 186.429 120 187.175 120 187.953V320.066C120 320.844 120.403 321.59 121.12 322.141C121.836 322.691 122.808 323 123.822 323H261.178C262.192 323 263.164 322.691 263.881 322.141C264.597 321.59 265 320.844 265 320.066V187.934C265 187.156 264.597 186.41 263.881 185.859C263.164 185.309 262.192 185 261.178 185" fill="white"/>
<path fill-rule="evenodd" clip-rule="evenodd" d="M265 187C265 182.582 261.418 179 257 179L126 179C122.686 179 120 181.686 120 185V196.532C120.003 196.657 120.064 196.776 120.169 196.864C120.274 196.951 120.414 197 120.561 197H264.452C264.597 197 264.736 196.951 264.839 196.863C264.942 196.775 265 196.656 265 196.532L265 187Z" fill="#9F9FFF"/>
<path fill-rule="evenodd" clip-rule="evenodd" d="M130.5 185C130.006 185 129.522 185.147 129.111 185.421C128.7 185.696 128.379 186.086 128.19 186.543C128.001 187 127.952 187.503 128.048 187.988C128.144 188.473 128.383 188.918 128.732 189.268C129.082 189.617 129.527 189.855 130.012 189.952C130.497 190.048 131 189.999 131.457 189.81C131.914 189.62 132.304 189.3 132.579 188.889C132.853 188.478 133 187.994 133 187.5C133 187.172 132.935 186.847 132.81 186.543C132.684 186.24 132.5 185.964 132.268 185.732C132.036 185.5 131.76 185.316 131.457 185.19C131.153 185.065 130.828 185 130.5 185Z" fill="white"/>
<path fill-rule="evenodd" clip-rule="evenodd" d="M139.5 185C139.006 185 138.522 185.147 138.111 185.421C137.7 185.696 137.379 186.086 137.19 186.543C137.001 187 136.952 187.503 137.048 187.988C137.144 188.473 137.383 188.918 137.732 189.268C138.082 189.617 138.527 189.855 139.012 189.952C139.497 190.048 140 189.999 140.457 189.81C140.914 189.62 141.304 189.3 141.579 188.889C141.853 188.478 142 187.994 142 187.5C142 187.172 141.935 186.847 141.81 186.543C141.684 186.24 141.5 185.964 141.268 185.732C141.036 185.5 140.76 185.316 140.457 185.19C140.153 185.065 139.828 185 139.5 185Z" fill="white"/>
<path fill-rule="evenodd" clip-rule="evenodd" d="M148.5 185C148.006 185 147.522 185.147 147.111 185.421C146.7 185.696 146.379 186.086 146.19 186.543C146.001 187 145.952 187.503 146.048 187.988C146.144 188.473 146.383 188.918 146.732 189.268C147.082 189.617 147.527 189.855 148.012 189.952C148.497 190.048 149 189.999 149.457 189.81C149.914 189.62 150.304 189.3 150.579 188.889C150.853 188.478 151 187.994 151 187.5C151 187.172 150.935 186.847 150.81 186.543C150.684 186.24 150.5 185.964 150.268 185.732C150.036 185.5 149.76 185.316 149.457 185.19C149.153 185.065 148.828 185 148.5 185Z" fill="white"/>
<path fill-rule="evenodd" clip-rule="evenodd" d="M222.886 186H175.114C174.553 186 174.016 186.2 173.619 186.557C173.223 186.913 173 187.396 173 187.9V188.1C173 188.604 173.223 189.087 173.619 189.443C174.016 189.8 174.553 190 175.114 190H222.886C223.447 190 223.984 189.8 224.381 189.443C224.777 189.087 225 188.604 225 188.1V187.9C225 187.396 224.777 186.913 224.381 186.557C223.984 186.2 223.447 186 222.886 186Z" fill="white"/>
<path fill-rule="evenodd" clip-rule="evenodd" d="M209.017 216H132.983C132.192 216 131.433 215.737 130.874 215.268C130.314 214.799 130 214.163 130 213.5C130 212.837 130.314 212.201 130.874 211.732C131.433 211.263 132.192 211 132.983 211H209.017C209.808 211 210.567 211.263 211.126 211.732C211.686 212.201 212 212.837 212 213.5C212 214.163 211.686 214.799 211.126 215.268C210.567 215.737 209.808 216 209.017 216Z" fill="#B2B2FF"/>
<path fill-rule="evenodd" clip-rule="evenodd" d="M209.017 224H132.983C132.193 223.997 131.436 223.733 130.877 223.265C130.319 222.796 130.003 222.162 130 221.5C130 220.837 130.314 220.201 130.874 219.732C131.433 219.263 132.192 219 132.983 219H209.017C209.808 219 210.567 219.263 211.126 219.732C211.686 220.201 212 220.837 212 221.5C211.997 222.162 211.681 222.796 211.123 223.265C210.564 223.733 209.807 223.997 209.017 224Z" fill="#B2B2FF"/>
<path fill-rule="evenodd" clip-rule="evenodd" d="M209.017 232H132.983C132.192 232 131.433 231.737 130.874 231.269C130.314 230.801 130 230.167 130 229.505C130 228.843 130.314 228.207 130.873 227.738C131.432 227.268 132.191 227.003 132.983 227H209.017C209.809 227.003 210.568 227.268 211.127 227.738C211.686 228.207 212 228.843 212 229.505C212 230.167 211.686 230.801 211.126 231.269C210.567 231.737 209.808 232 209.017 232Z" fill="#B2B2FF"/>
<path fill-rule="evenodd" clip-rule="evenodd" d="M189.744 241H132.256C131.656 240.997 131.083 240.732 130.66 240.262C130.237 239.793 130 239.157 130 238.495C130 237.833 130.238 237.199 130.661 236.731C131.084 236.263 131.657 236 132.256 236H189.744C190.343 236 190.916 236.263 191.339 236.731C191.762 237.199 192 237.833 192 238.495C192 239.157 191.763 239.793 191.34 240.262C190.917 240.732 190.344 240.997 189.744 241Z" fill="#B2B2FF"/>
<path d="M233.497 220.416C233.497 218.673 232.994 217.812 232.007 217.812C231.021 217.812 230.507 218.673 230.507 220.416C230.507 222.159 231.011 222.988 232.007 222.988C233.004 222.988 233.497 222.127 233.497 220.416ZM245.486 229.603C245.486 227.891 244.993 227.03 243.997 227.03C243 227.03 242.507 227.891 242.507 229.603C242.507 231.314 243 232.227 243.997 232.227C244.993 232.227 245.486 231.356 245.486 229.603ZM228.319 216.448C228.798 215.953 229.375 215.569 230.011 215.321C230.647 215.073 231.328 214.967 232.007 215.009C232.686 214.969 233.365 215.076 234 215.322C234.636 215.568 235.213 215.948 235.696 216.437C236.549 217.576 237.011 218.971 237.011 220.406C237.011 221.84 236.549 223.235 235.696 224.374C234.67 225.282 233.359 225.782 232.002 225.782C230.645 225.782 229.334 225.282 228.309 224.374C227.46 223.235 227 221.843 227 220.411C227 218.979 227.46 217.587 228.309 216.448H228.319ZM240.319 225.645C240.804 225.165 241.381 224.794 242.015 224.555C242.648 224.316 243.323 224.215 243.997 224.259C244.674 224.218 245.352 224.321 245.989 224.561C246.626 224.801 247.207 225.174 247.695 225.655C248.542 226.797 249 228.191 249 229.624C249 231.057 248.542 232.45 247.695 233.592C246.67 234.5 245.359 235 244.002 235C242.645 235 241.334 234.5 240.308 233.592C239.453 232.452 238.989 231.055 238.989 229.618C238.989 228.182 239.453 226.785 240.308 225.645H240.319ZM241.213 215.272H244.449L234.791 234.737H231.555L241.213 215.272Z" fill="#B2B2FF"/>
<path fill-rule="evenodd" clip-rule="evenodd" d="M249.846 251H135.153C134.582 251 134.034 251.165 133.631 251.46C133.227 251.754 133 252.154 133 252.57V309.42C133 309.837 133.226 310.238 133.63 310.534C134.033 310.83 134.581 310.997 135.153 311H249.846C250.419 310.997 250.966 310.83 251.37 310.534C251.773 310.238 251.999 309.837 251.999 309.42V252.609C252.006 252.399 251.956 252.191 251.851 251.996C251.746 251.801 251.588 251.623 251.388 251.473C251.187 251.323 250.947 251.204 250.683 251.123C250.418 251.042 250.134 251 249.846 251Z" fill="#D1D1FF"/>
<path d="M160 292C166.075 292 171 287.075 171 281C171 274.925 166.075 270 160 270C153.925 270 149 274.925 149 281C149 287.075 153.925 292 160 292Z" fill="#AFAFFE"/>
<path d="M157.001 278.361V282.643C156.994 282.885 157.052 283.123 157.168 283.333C157.284 283.543 157.454 283.716 157.659 283.833C157.864 283.951 158.096 284.008 158.33 283.999C158.565 283.99 158.792 283.915 158.988 283.782L162.361 281.641C162.555 281.525 162.717 281.359 162.829 281.158C162.941 280.958 163 280.731 163 280.5C163 280.269 162.941 280.042 162.829 279.842C162.717 279.641 162.555 279.475 162.361 279.359L158.988 277.218C158.792 277.085 158.564 277.01 158.329 277.001C158.094 276.992 157.862 277.05 157.657 277.168C157.451 277.286 157.282 277.459 157.166 277.67C157.05 277.88 156.993 278.119 157.001 278.361Z" fill="#DADBFF"/>
<path fill-rule="evenodd" clip-rule="evenodd" d="M241.865 261H189.135C188.834 261.007 188.546 261.221 188.334 261.596C188.122 261.972 188.002 262.478 188 263.007C188.004 263.533 188.125 264.036 188.337 264.408C188.549 264.781 188.835 264.993 189.135 265H241.865C242.166 264.996 242.453 264.785 242.665 264.412C242.878 264.039 242.998 263.534 243 263.007C243 262.477 242.881 261.969 242.668 261.593C242.456 261.217 242.167 261.004 241.865 261Z" fill="#F3F7FD"/>
<path fill-rule="evenodd" clip-rule="evenodd" d="M241.865 268H189.135C188.834 268.004 188.547 268.215 188.335 268.59C188.122 268.964 188.002 269.471 188 270C188.002 270.529 188.122 271.036 188.335 271.41C188.547 271.785 188.834 271.996 189.135 272H241.865C242.166 272 242.455 271.789 242.668 271.414C242.88 271.039 243 270.53 243 270C243 269.47 242.88 268.961 242.668 268.586C242.455 268.211 242.166 268 241.865 268Z" fill="#F3F7FD"/>
<path fill-rule="evenodd" clip-rule="evenodd" d="M241.865 275H189.135C188.834 275.004 188.547 275.215 188.335 275.59C188.122 275.964 188.002 276.471 188 277C188.002 277.529 188.122 278.036 188.335 278.41C188.547 278.785 188.834 278.996 189.135 279H241.865C242.166 279 242.455 278.789 242.668 278.414C242.88 278.039 243 277.53 243 277C243 276.47 242.88 275.961 242.668 275.586C242.455 275.211 242.166 275 241.865 275Z" fill="#F3F7FD"/>
<path fill-rule="evenodd" clip-rule="evenodd" d="M241.865 282H189.135C188.834 282.007 188.546 282.221 188.334 282.596C188.122 282.972 188.002 283.478 188 284.007C188.004 284.533 188.125 285.036 188.337 285.408C188.549 285.781 188.835 285.993 189.135 286H241.865C242.166 285.996 242.453 285.785 242.665 285.412C242.878 285.039 242.998 284.534 243 284.007C243 283.477 242.881 282.969 242.668 282.593C242.456 282.217 242.167 282.004 241.865 282Z" fill="#F3F7FD"/>
<path fill-rule="evenodd" clip-rule="evenodd" d="M228.916 292H199.084C198.941 292 198.8 292.052 198.669 292.152C198.537 292.253 198.418 292.4 198.317 292.586C198.217 292.771 198.137 292.992 198.082 293.235C198.028 293.477 198 293.737 198 294C198 294.263 198.028 294.523 198.082 294.765C198.137 295.008 198.217 295.228 198.317 295.414C198.418 295.6 198.537 295.747 198.669 295.848C198.8 295.948 198.941 296 199.084 296H228.916C229.204 296 229.479 295.789 229.683 295.414C229.886 295.039 230 294.53 230 294C230 293.47 229.886 292.961 229.683 292.586C229.479 292.211 229.204 292 228.916 292Z" fill="#F3F7FD"/>
<path d="M173.949 479.094C173.949 477.183 173.38 476.232 172.252 476.232C171.123 476.232 170.563 477.183 170.563 479.094C170.563 481.005 171.123 481.921 172.252 481.921C173.38 481.921 173.949 480.979 173.949 479.094ZM187.565 489.213C187.565 487.328 187.005 486.386 185.876 486.386C184.747 486.386 184.187 487.328 184.187 489.213C184.187 491.098 184.747 492.11 185.876 492.11C187.005 492.11 187.565 491.142 187.565 489.213ZM168.075 474.726C168.617 474.184 169.271 473.763 169.991 473.491C170.712 473.219 171.482 473.103 172.252 473.15C173.022 473.104 173.794 473.218 174.517 473.487C175.239 473.756 175.897 474.172 176.447 474.709C177.505 475.927 178.04 477.507 177.94 479.112C178.039 480.703 177.503 482.269 176.447 483.471C175.282 484.471 173.793 485.021 172.252 485.021C170.711 485.021 169.222 484.471 168.057 483.471C167.089 482.219 166.564 480.685 166.564 479.108C166.564 477.53 167.089 475.996 168.057 474.744L168.075 474.726ZM181.699 484.854C182.865 483.864 184.35 483.32 185.885 483.32C187.42 483.32 188.905 483.864 190.071 484.854C191.04 486.108 191.564 487.643 191.564 489.222C191.564 490.801 191.04 492.336 190.071 493.59C188.906 494.589 187.417 495.14 185.876 495.14C184.335 495.14 182.846 494.589 181.681 493.59C180.626 492.37 180.094 490.79 180.197 489.187C180.105 487.603 180.645 486.047 181.699 484.854ZM182.712 473.405H186.383L175.416 494.849H171.745L182.712 473.405Z" fill="white"/>
<path d="M616.846 112.897C616.846 109.112 615.72 107.204 613.497 107.204C611.275 107.204 610.118 109.112 610.118 112.897C610.118 116.683 611.244 118.561 613.497 118.561C615.75 118.561 616.846 116.683 616.846 112.897ZM643.941 133.128C643.941 129.373 642.845 127.465 640.593 127.465C638.34 127.465 637.213 129.373 637.213 133.128C637.213 136.883 638.34 138.912 640.593 138.912C642.845 138.912 643.941 136.974 643.941 133.128ZM605.095 104.205C606.177 103.114 607.481 102.266 608.92 101.718C610.358 101.169 611.898 100.933 613.436 101.025C614.962 100.921 616.493 101.137 617.93 101.659C619.367 102.181 620.678 102.997 621.778 104.054C623.91 106.448 625.005 109.583 624.822 112.776C625.005 115.969 623.91 119.105 621.778 121.498C619.456 123.493 616.489 124.591 613.421 124.591C610.353 124.591 607.386 123.493 605.064 121.498C602.932 119.105 601.837 115.969 602.02 112.776C601.886 109.63 602.989 106.556 605.095 104.205ZM632.281 124.436C634.605 122.469 637.557 121.389 640.608 121.389C643.659 121.389 646.611 122.469 648.934 124.436C651.067 126.83 652.161 129.965 651.979 133.158C652.169 136.362 651.074 139.51 648.934 141.911C646.617 143.903 643.656 145 640.593 145C637.529 145 634.568 143.903 632.251 141.911C630.111 139.51 629.016 136.362 629.206 133.158C629.032 129.961 630.138 126.825 632.281 124.436ZM634.291 101.631H641.628L619.769 144.424H612.462L634.291 101.631Z" fill="white"/>
<path fill-rule="evenodd" clip-rule="evenodd" d="M130.015 300C125.66 299.997 121.401 301.287 117.779 303.707C114.157 306.126 111.335 309.567 109.67 313.592C108.005 317.617 107.573 322.046 108.428 326.317C109.282 330.588 111.386 334.509 114.471 337.584C117.557 340.659 121.486 342.748 125.76 343.588C130.034 344.427 134.461 343.979 138.48 342.3C142.5 340.621 145.93 337.786 148.337 334.156C150.744 330.525 152.018 326.262 152 321.906C151.975 316.09 149.648 310.521 145.529 306.416C141.409 302.311 135.831 300.004 130.015 300Z" fill="#9393FF"/>
<path d="M135.008 310V322H140L130 334L120 322H125.008V310H135.008Z" fill="white"/>
<path fill-rule="evenodd" clip-rule="evenodd" d="M112.832 40.8734C106.503 40.8734 100.316 42.7502 95.0533 46.2664C89.7909 49.7826 85.6894 54.7803 83.2674 60.6275C80.8454 66.4748 80.2117 72.9089 81.4464 79.1163C82.6812 85.3237 85.7289 91.0256 90.2041 95.5008C94.6794 99.9761 100.381 103.024 106.589 104.259C112.796 105.493 119.23 104.86 125.077 102.438C130.925 100.016 135.922 95.914 139.439 90.6517C142.955 85.3893 144.832 79.2024 144.832 72.8734C144.832 64.3865 141.46 56.2472 135.459 50.246C129.458 44.2448 121.318 40.8734 112.832 40.8734Z" fill="#B8B8FF"/>
<path d="M116.039 69.0348H111.553C111.207 69.0348 110.876 68.9084 110.632 68.6834C110.387 68.4585 110.25 68.1534 110.25 67.8353V66.6358C110.25 66.3177 110.387 66.0126 110.632 65.7876C110.876 65.5627 111.207 65.4363 111.553 65.4363H118.355C119.337 65.469 120.298 65.1783 121.068 64.6164C121.837 64.0545 122.364 63.2583 122.553 62.3709C122.636 61.8612 122.599 61.3411 122.444 60.8457C122.29 60.3503 122.022 59.8912 121.658 59.4995C121.295 59.1077 120.844 58.7925 120.336 58.5751C119.829 58.3577 119.277 58.2432 118.717 58.2393H116.474C116.18 57.5773 115.68 57.0107 115.035 56.6118C114.391 56.213 113.632 56 112.855 56C112.079 56 111.32 56.213 110.675 56.6118C110.031 57.0107 109.53 57.5773 109.237 58.2393C107.194 58.6361 105.36 59.6665 104.043 61.1583C102.726 62.6502 102.005 64.5132 102 66.4359V67.6354C102.009 69.7294 102.868 71.7446 104.408 73.2857C105.948 74.8267 108.057 75.7824 110.322 75.9652H114.809C115.155 75.9652 115.486 76.0916 115.73 76.3165C115.975 76.5415 116.112 76.8466 116.112 77.1647V78.3642C116.112 78.6823 115.975 78.9874 115.73 79.2124C115.486 79.4373 115.155 79.5637 114.809 79.5637H108.007C107.025 79.5309 106.063 79.8217 105.294 80.3836C104.525 80.9455 103.998 81.7417 103.809 82.6291C103.726 83.1388 103.763 83.6589 103.917 84.1543C104.072 84.6497 104.34 85.1088 104.703 85.5005C105.067 85.8923 105.518 86.2075 106.025 86.4249C106.533 86.6423 107.085 86.7568 107.645 86.7607H109.526C109.82 87.4227 110.32 87.9893 110.965 88.3882C111.609 88.787 112.368 89 113.145 89C113.921 89 114.68 88.787 115.325 88.3882C115.969 87.9893 116.47 87.4227 116.763 86.7607C118.806 86.3639 120.64 85.3335 121.957 83.8416C123.274 82.3498 123.995 80.4868 124 78.5641V77.3646C124 75.3222 123.192 73.3496 121.727 71.8163C120.262 70.283 118.24 69.2941 116.039 69.0348Z" fill="url(#paint11_linear)"/>
<path d="M464.165 243.501H461.379C461.164 243.501 460.958 243.421 460.807 243.278C460.655 243.136 460.57 242.943 460.57 242.741V241.982C460.57 241.781 460.655 241.587 460.807 241.445C460.958 241.303 461.164 241.223 461.379 241.223H465.603C466.213 241.243 466.81 241.059 467.288 240.704C467.766 240.348 468.093 239.844 468.21 239.282C468.262 238.959 468.239 238.63 468.143 238.317C468.047 238.003 467.881 237.712 467.655 237.464C467.429 237.216 467.149 237.017 466.834 236.879C466.519 236.741 466.176 236.669 465.828 236.667H464.435C464.253 236.247 463.942 235.889 463.541 235.636C463.141 235.384 462.67 235.249 462.188 235.249C461.705 235.249 461.234 235.384 460.834 235.636C460.434 235.889 460.122 236.247 459.94 236.667C458.671 236.918 457.533 237.57 456.715 238.514C455.897 239.459 455.449 240.638 455.446 241.855V242.615C455.452 243.94 455.985 245.216 456.941 246.192C457.897 247.167 459.208 247.772 460.615 247.888H463.401C463.616 247.888 463.821 247.968 463.973 248.11C464.125 248.253 464.21 248.446 464.21 248.647V249.407C464.21 249.608 464.125 249.801 463.973 249.944C463.821 250.086 463.616 250.166 463.401 250.166H459.176C458.567 250.145 457.969 250.329 457.492 250.685C457.014 251.041 456.687 251.545 456.569 252.107C456.518 252.429 456.541 252.758 456.637 253.072C456.732 253.386 456.899 253.676 457.125 253.924C457.351 254.172 457.631 254.372 457.946 254.51C458.261 254.647 458.604 254.72 458.952 254.722H460.12C460.302 255.141 460.613 255.5 461.014 255.752C461.414 256.005 461.885 256.14 462.367 256.14C462.85 256.14 463.321 256.005 463.721 255.752C464.121 255.5 464.432 255.141 464.615 254.722C465.884 254.471 467.022 253.819 467.84 252.874C468.658 251.93 469.106 250.75 469.109 249.533V248.774C469.109 247.481 468.607 246.232 467.697 245.262C466.787 244.291 465.532 243.665 464.165 243.501Z" fill="url(#paint12_linear)"/>
<path d="M339.266 234.481L334.571 235.866C334.209 235.972 333.821 235.935 333.492 235.762C333.163 235.589 332.919 235.294 332.815 234.943L332.422 233.619C332.318 233.268 332.362 232.889 332.544 232.565C332.726 232.241 333.031 231.999 333.393 231.893L340.511 229.794C341.548 229.527 342.459 228.909 343.081 228.052C343.702 227.194 343.992 226.152 343.899 225.114C343.819 224.526 343.61 223.963 343.286 223.464C342.962 222.965 342.532 222.541 342.023 222.22C341.514 221.9 340.939 221.691 340.337 221.608C339.735 221.524 339.12 221.568 338.533 221.737L336.185 222.429C335.662 221.789 334.952 221.318 334.147 221.076C333.342 220.835 332.478 220.834 331.666 221.073C330.853 221.313 330.129 221.782 329.585 222.422C329.042 223.061 328.703 223.841 328.613 224.662C326.605 225.731 325.024 227.434 324.134 229.487C323.245 231.541 323.1 233.82 323.724 235.944L324.117 237.268C324.813 239.577 326.371 241.537 328.487 242.763C330.602 243.989 333.123 244.393 335.553 243.896L340.248 242.512C340.609 242.405 340.997 242.442 341.326 242.615C341.656 242.788 341.899 243.083 342.003 243.434L342.396 244.758C342.5 245.109 342.457 245.489 342.275 245.812C342.093 246.136 341.787 246.378 341.426 246.484L334.308 248.583C333.27 248.85 332.359 249.468 331.738 250.326C331.117 251.183 330.827 252.225 330.92 253.263C331 253.851 331.209 254.414 331.532 254.913C331.856 255.412 332.287 255.837 332.796 256.157C333.304 256.477 333.879 256.686 334.481 256.769C335.084 256.853 335.699 256.809 336.286 256.64L338.255 256.06C338.778 256.7 339.488 257.171 340.293 257.413C341.098 257.654 341.962 257.655 342.774 257.415C343.587 257.176 344.311 256.707 344.855 256.067C345.398 255.428 345.737 254.648 345.827 253.827C347.835 252.758 349.416 251.055 350.306 249.002C351.195 246.948 351.34 244.669 350.715 242.545L350.323 241.221C349.654 238.966 348.163 237.037 346.128 235.797C344.092 234.556 341.653 234.088 339.266 234.481Z" fill="#7D7DFF"/>
<path fill-rule="evenodd" clip-rule="evenodd" d="M517.757 157.757C516 159.515 516 162.343 516 168V197.604C516 199.498 516 200.446 516.586 200.712C517.172 200.979 517.886 200.356 519.314 199.112L524.852 194.285C525.969 193.311 526.528 192.824 527.206 192.57C527.885 192.316 528.626 192.316 530.108 192.316H554C559.657 192.316 562.485 192.316 564.243 190.558C566 188.801 566 185.973 566 180.316V168C566 162.343 566 159.515 564.243 157.757C562.485 156 559.657 156 554 156H528C522.343 156 519.515 156 517.757 157.757ZM531.5 178C533.433 178 535 176.433 535 174.5C535 172.567 533.433 171 531.5 171C529.567 171 528 172.567 528 174.5C528 176.433 529.567 178 531.5 178ZM545 174.5C545 176.433 543.433 178 541.5 178C539.567 178 538 176.433 538 174.5C538 172.567 539.567 171 541.5 171C543.433 171 545 172.567 545 174.5ZM552.5 178C554.433 178 556 176.433 556 174.5C556 172.567 554.433 171 552.5 171C550.567 171 549 172.567 549 174.5C549 176.433 550.567 178 552.5 178Z" fill="#9393FF"/>
<path d="M662.471 226.392L668.819 240.243C669.97 242.744 670.539 245.47 670.483 248.218C670.427 250.966 669.748 253.667 668.496 256.12L664.707 263.627C663.386 266.217 662.929 269.156 663.402 272.02C663.876 274.883 665.255 277.524 667.341 279.561L675.071 287.068C680.369 292.252 684.38 298.582 686.79 305.561C689.2 312.539 689.942 319.977 688.96 327.288C688.472 330.902 687.065 334.334 684.871 337.263C682.677 340.191 679.768 342.519 676.417 344.029C671.489 346.246 667.653 350.312 665.752 355.331C663.851 360.35 664.041 365.911 666.28 370.792L670.145 379.35C674.217 388.22 676.57 397.77 677.08 407.501C677.821 421.504 674.366 435.412 667.151 447.477L652.637 471.687L626.585 483.417L599.395 434.752C591.9 421.318 588.08 406.177 588.312 390.83C588.545 375.483 592.822 360.462 600.721 347.257C604.335 341.231 605.896 334.213 605.173 327.24C604.449 320.268 601.48 313.711 596.704 308.539L592.915 304.429C585.545 296.463 581.204 286.204 580.637 275.414L580.277 268.319C580.035 263.734 581.439 259.211 584.241 255.552C587.044 251.894 591.063 249.336 595.586 248.332L607.637 245.648C610.359 245.036 612.732 243.394 614.247 241.072C615.763 238.75 616.301 235.933 615.747 233.224L612.544 217.571C610.869 209.481 611.682 201.079 614.877 193.451C618.072 185.823 623.503 179.32 630.469 174.781L630.81 174.556C633.477 172.834 636.488 171.702 639.637 171.239C642.786 170.775 645.999 170.989 649.057 171.867C652.114 172.746 654.945 174.267 657.355 176.328C659.765 178.389 661.697 180.94 663.021 183.808C666.341 190.977 667.025 199.07 664.953 206.686L661.808 218.209C661.049 220.929 661.284 223.827 662.471 226.392Z" fill="url(#paint13_linear)"/>
<path d="M600.731 346.841C604.368 340.788 605.944 333.735 605.225 326.726C604.507 319.717 601.533 313.122 596.743 307.918L592.944 303.795C585.557 295.802 581.206 285.509 580.638 274.683L580.277 267.565C580.034 262.964 581.442 258.426 584.251 254.755C587.059 251.085 591.088 248.518 595.622 247.511L607.701 244.818C610.43 244.204 612.808 242.556 614.327 240.227C615.846 237.897 616.385 235.071 615.83 232.352L612.62 216.648C610.941 208.53 611.755 200.101 614.958 192.447C618.161 184.794 623.605 178.268 630.586 173.714L630.928 173.488H631.061C632.501 172.561 634.18 172.063 635.897 172.056C637.614 172.049 639.297 172.531 640.745 173.447C642.193 174.362 643.344 175.671 644.062 177.218C644.78 178.765 645.033 180.483 644.792 182.169L639.095 222.014C638.5 226.067 638.398 230.177 638.791 234.254L640.823 256.003C641.105 259.032 640.718 262.085 639.688 264.95C638.658 267.815 637.01 270.423 634.86 272.593C630.928 276.546 628.446 281.691 627.809 287.207C627.172 292.722 628.417 298.291 631.346 303.022C636.873 311.948 640.41 321.943 641.72 332.336C643.031 342.729 642.084 353.279 638.943 363.28C636.898 369.793 636.353 376.678 637.348 383.428L643.938 428.433L641.868 476.582L626.674 483.417L599.44 434.553C591.932 421.087 588.102 405.911 588.328 390.526C588.555 375.142 592.83 360.083 600.731 346.841Z" fill="url(#paint14_linear)"/>
<path opacity="0.5" d="M638.466 221.873C637.423 227.593 636.878 233.389 636.836 239.198C637.165 244.983 637.813 250.748 638.776 256.466C639.758 262.087 640.405 267.758 640.716 273.451C640.813 279.113 639.339 284.435 638.194 290.153L634.644 307.138L631.618 321.745L627.04 313.762C624.731 309.837 622.597 305.817 620.056 301.967C617.529 298.146 614.715 294.513 611.637 291.097L602.5 280.868L611.055 291.549C613.924 295.074 616.518 298.802 618.814 302.703C621.084 306.591 623.005 310.705 625.08 314.743L630.764 326.067C629.518 331.117 628.726 336.264 628.398 341.448C628.162 347.382 628.73 353.321 630.085 359.112L634.198 375.946L635.342 380.57C633.713 377.796 632.18 374.908 630.376 372.228C628.514 369.409 626.44 366.728 624.169 364.208L617.437 356.659L623.761 364.529C625.84 367.118 627.727 369.849 629.406 372.7C631.075 375.55 632.491 378.588 634.023 381.57L637.011 387.477L638.272 392.648C639.733 398.163 640.886 403.751 641.725 409.388C642.522 415.016 642.904 420.692 642.869 426.373C642.869 432.035 642.501 437.847 642.345 443.584C642.113 455.115 641.744 466.609 641.628 478.14C642.714 466.665 643.568 455.172 644.46 443.698C644.828 437.942 645.294 432.242 645.585 426.43C645.818 420.605 645.623 414.771 645.003 408.973C644.867 407.463 644.576 405.972 644.363 404.481L645.954 396.611C646.633 393.346 647.195 390.063 648.049 386.873C648.903 383.652 650.005 380.498 651.346 377.437L655.343 368.228L650.842 377.211C649.317 380.216 648.02 383.325 646.962 386.515C645.915 389.723 645.178 392.988 644.324 396.196L643.509 399.291C643.024 396.762 642.481 394.233 641.86 391.742L637.981 374.908L634.101 358.093C633.546 355.604 633.157 353.082 632.937 350.544L642.093 341.618C645.41 338.428 648.572 335.126 652.006 332.181C655.437 329.227 659.08 326.515 662.908 324.066L674.548 316.631L662.578 323.444C658.511 325.716 654.62 328.277 650.939 331.106C647.253 333.955 643.897 337.107 640.425 340.089L632.646 346.977C632.646 345.09 632.646 343.203 632.646 341.467C633.001 335.828 633.845 330.228 635.168 324.727L638.524 307.742L641.86 290.757C642.404 287.907 643.024 285.095 643.509 282.227C643.951 279.278 644.133 276.298 644.052 273.319C643.572 267.521 642.742 261.755 641.569 256.051C640.658 250.389 639.339 244.727 638.989 239.066C638.722 233.365 638.936 227.653 639.63 221.986L640.987 204.775L638.466 221.873Z" fill="#EBECF2"/>
<path d="M568.603 384.2V393.006C568.604 394.594 568.963 396.161 569.655 397.593C570.347 399.025 571.354 400.285 572.603 401.282L576.43 404.312C577.761 405.37 578.716 406.82 579.157 408.451C579.597 410.083 579.5 411.811 578.88 413.384L576.622 419.065C575.083 423.058 574.502 427.349 574.924 431.601C575.345 435.854 576.759 439.951 579.052 443.571C580.183 445.348 581.75 446.811 583.608 447.825C585.465 448.838 587.553 449.369 589.674 449.366C592.806 449.366 595.809 450.597 598.024 452.789C600.238 454.98 601.482 457.952 601.482 461.051V466.411C601.478 472.024 602.543 477.588 604.621 482.811C607.6 490.36 612.775 496.865 619.492 501.503L633.042 510.859H649.596L652.142 478.834C652.838 469.992 651.19 461.124 647.36 453.106C643.53 445.087 637.651 438.198 630.305 433.117C626.966 430.798 624.463 427.484 623.162 423.658C621.86 419.832 621.828 415.695 623.071 411.85L624.066 408.801C626.011 402.866 625.815 396.447 623.511 390.639L621.98 386.851C620.979 384.398 619.145 382.368 616.794 381.109C614.443 379.851 611.722 379.444 609.1 379.958L602.095 381.397C600.517 381.725 598.873 381.426 597.516 380.565C596.159 379.705 595.199 378.35 594.841 376.795L592.755 367.781C591.69 363.13 589.237 358.903 585.716 355.648C582.194 352.393 577.766 350.26 573.005 349.524H572.775C570.952 349.243 569.089 349.355 567.314 349.853C565.539 350.35 563.894 351.221 562.491 352.406C561.088 353.592 559.96 355.063 559.185 356.72C558.41 358.376 558.006 360.179 558 362.004V362.004C558.002 366.554 559.606 370.96 562.536 374.466L566.976 379.787C568.025 381.024 568.601 382.586 568.603 384.2Z" fill="url(#paint15_linear)"/>
<path d="M630.277 433.161C626.898 430.84 624.365 427.51 623.051 423.663C621.736 419.815 621.71 415.653 622.976 411.789L623.975 408.739C625.928 402.801 625.731 396.38 623.418 390.569L621.881 386.78C620.876 384.326 619.035 382.295 616.675 381.036C614.314 379.777 611.582 379.369 608.95 379.884L601.918 381.324C600.334 381.652 598.683 381.353 597.321 380.492C595.959 379.63 594.994 378.276 594.636 376.72L592.541 367.701C591.467 363.051 589.003 358.825 585.468 355.57C581.934 352.314 577.491 350.178 572.713 349.437H572.482C571.5 349.283 570.494 349.409 569.583 349.803C568.672 350.196 567.895 350.839 567.344 351.656C566.793 352.472 566.492 353.428 566.477 354.408C566.461 355.389 566.732 356.353 567.256 357.186L579.937 376.72C581.212 378.691 582.25 380.802 583.03 383.01L587.219 394.889C587.798 396.546 588.737 398.058 589.972 399.318C591.207 400.578 592.707 401.556 594.367 402.183C597.398 403.332 599.952 405.449 601.62 408.196C603.288 410.944 603.975 414.163 603.57 417.34C602.811 423.326 603.358 429.403 605.173 435.164C606.989 440.924 610.032 446.236 614.099 450.743C616.769 453.673 618.738 457.156 619.863 460.936L627.26 486.096L639.98 510.859H649.587L652.142 478.821C652.838 469.992 651.187 461.138 647.353 453.13C643.518 445.123 637.633 438.24 630.277 433.161Z" fill="url(#paint16_linear)"/>
<path opacity="0.5" d="M580.083 375.724C582.018 378.481 583.709 381.396 585.136 384.436C586.359 387.542 587.412 390.71 588.292 393.925C589.147 397.094 590.188 400.212 591.409 403.263C592.911 406.159 594.715 408.894 596.791 411.425L602.735 419.491L607.904 426.4L608.35 421.161C608.601 418.561 608.737 415.961 609.124 413.361C609.51 410.791 610.093 408.253 610.867 405.769L613.132 398.291L611.196 405.883C610.575 408.379 610.142 410.916 609.898 413.474C609.647 416.037 609.666 418.637 609.55 421.237L609.337 428.449C611.21 430.835 612.869 433.375 614.293 436.041C615.864 439.1 617.016 442.348 617.72 445.702L619.656 455.476L620.198 458.172C620.373 456.274 620.469 454.489 620.74 452.648C621.029 450.723 621.456 448.821 622.018 446.955L623.703 441.45L622.328 447.049C621.865 448.921 621.548 450.825 621.379 452.743C621.186 454.641 621.205 456.539 621.128 458.437L621.011 462.233L621.592 465.232C622.182 468.464 622.945 471.663 623.877 474.817C624.827 477.959 626.011 481.03 627.42 484.003C628.833 486.964 630.401 489.943 631.873 492.904C634.796 498.902 637.778 504.842 640.643 510.859C637.294 505.165 634.08 499.243 630.808 493.455C629.201 490.513 627.575 487.647 626.006 484.648C624.49 481.649 623.196 478.548 622.134 475.367C621.844 474.551 621.631 473.697 621.379 472.862L618.649 469.066C617.488 467.528 616.404 465.915 615.184 464.454C613.961 462.974 612.628 461.584 611.196 460.297L606.878 456.406L611.389 460.069C612.917 461.289 614.348 462.621 615.668 464.055C616.984 465.498 618.165 467.035 619.385 468.515L620.547 469.939C620.179 468.496 619.85 467.035 619.579 465.612L617.585 455.875L615.532 446.138C615.223 444.715 614.816 443.313 614.313 441.944L607.382 439.382C604.884 438.471 602.425 437.484 599.928 436.725C597.395 435.957 594.806 435.38 592.184 434.997L584.323 433.783L592.242 434.58C594.91 434.825 597.557 435.263 600.16 435.889C602.754 436.535 605.271 437.408 607.904 438.167L613.713 439.951C613.306 438.983 612.88 438.053 612.377 437.066C610.82 434.19 609.019 431.448 606.994 428.867L601.186 420.763L595.378 412.639C594.391 411.273 593.442 409.982 592.435 408.54C591.49 407.1 590.673 405.582 589.996 404.004C588.85 400.841 587.894 397.615 587.13 394.343C586.22 391.135 585.543 387.89 584.343 384.853C583.08 381.802 581.578 378.851 579.851 376.028L574.953 367.316L580.083 375.724Z" fill="#EBECF2"/>
<path d="M725.827 351.258L726.97 361.918C727.173 363.845 726.937 365.792 726.278 367.617C725.618 369.442 724.553 371.098 723.159 372.465L718.91 376.613C717.417 378.046 716.427 379.911 716.085 381.936C715.742 383.961 716.064 386.041 717.005 387.874L720.568 394.592C722.964 399.238 724.232 404.369 724.271 409.58C724.311 414.791 723.121 419.94 720.796 424.621C719.65 426.928 717.929 428.912 715.793 430.385C713.657 431.859 711.176 432.775 708.583 433.047C706.695 433.239 704.864 433.796 703.195 434.687C701.527 435.577 700.053 436.783 698.858 438.235C697.663 439.687 696.771 441.357 696.233 443.15C695.695 444.942 695.521 446.822 695.721 448.681L696.407 455.193C697.134 462.001 696.559 468.882 694.711 475.481C692.045 485.002 686.583 493.535 679.011 500.01L663.768 513.148L643.647 515.081L636.406 476.569C634.398 465.936 635.251 454.971 638.881 444.764C642.512 434.556 648.793 425.463 657.099 418.39C660.895 415.158 663.534 410.809 664.625 405.986C665.716 401.163 665.202 396.121 663.158 391.608L661.538 388.042C658.403 381.091 657.817 373.283 659.881 365.953L661.234 361.13C662.115 358.017 664.083 355.311 666.791 353.488C669.5 351.665 672.774 350.842 676.039 351.164L684.746 352.027C686.707 352.204 688.66 351.627 690.198 350.416C691.736 349.206 692.739 347.456 692.997 345.534L694.368 334.273C695.085 328.522 697.533 323.114 701.398 318.746C705.262 314.377 710.366 311.249 716.052 309.763H716.338C718.513 309.205 720.785 309.115 723 309.499C725.214 309.882 727.318 310.73 729.171 311.985C731.023 313.24 732.579 314.872 733.735 316.772C734.891 318.671 735.618 320.793 735.868 322.994C736.456 328.52 735.068 334.076 731.943 338.702L727.218 345.796C726.132 347.406 725.641 349.334 725.827 351.258Z" fill="url(#paint17_linear)"/>
<path opacity="0.6" d="M657.005 418.299C660.808 415.058 663.454 410.697 664.552 405.861C665.651 401.025 665.144 395.969 663.106 391.439L661.486 387.868C658.348 380.906 657.761 373.085 659.827 365.744L661.181 360.914C662.061 357.779 664.04 355.054 666.767 353.223C669.493 351.392 672.79 350.574 676.071 350.914L684.785 351.779C686.746 351.956 688.701 351.377 690.24 350.165C691.779 348.953 692.782 347.2 693.04 345.275L694.413 333.997C695.13 328.238 697.58 322.821 701.447 318.446C705.314 314.071 710.421 310.938 716.11 309.45H716.396H716.511C717.67 309.165 718.888 309.211 720.022 309.582C721.157 309.954 722.161 310.635 722.918 311.546C723.675 312.458 724.154 313.563 724.299 314.732C724.444 315.902 724.249 317.088 723.737 318.152L710.829 343.471C709.518 346.04 708.519 348.753 707.855 351.553L704.327 366.59C703.83 368.674 702.879 370.627 701.539 372.311C700.199 373.996 698.502 375.373 696.567 376.345C693.037 378.115 690.21 381.001 688.541 384.542C686.871 388.082 686.455 392.073 687.358 395.875C689.043 403.029 689.159 410.456 687.699 417.658C686.239 424.861 683.237 431.673 678.893 437.64C676.039 441.553 674.117 446.051 673.269 450.797L667.549 482.262L655.289 513.859L643.659 515.081L636.414 476.511C634.401 465.88 635.242 454.915 638.854 444.704C642.466 434.493 648.723 425.39 657.005 418.299Z" fill="url(#paint18_linear)"/>
<path opacity="0.5" d="M711.396 342.309C709.417 345.899 707.747 349.645 706.401 353.508C705.319 357.444 704.453 361.434 703.808 365.461C703.188 369.447 702.329 373.395 701.234 377.282C699.8 380.965 697.978 384.491 695.798 387.802L689.612 398.322L684.272 407.447L683.042 401.131C682.408 398.021 681.909 394.872 681.121 391.705C680.319 388.603 679.278 385.565 678.009 382.617L674.283 373.813L677.529 382.806C678.615 385.781 679.475 388.831 680.103 391.931C680.737 395.004 681.064 398.171 681.525 401.358L682.735 410.106C680.763 413.203 679.072 416.464 677.683 419.853C676.148 423.742 675.134 427.811 674.667 431.957L673.572 444.079L673.284 447.416C672.842 445.211 672.477 442.986 671.901 440.78C671.307 438.491 670.543 436.248 669.615 434.068L666.983 427.62L669.384 434.257C670.196 436.443 670.839 438.687 671.305 440.969C671.766 443.25 671.997 445.588 672.342 447.907L672.976 452.507L672.65 456.278C672.359 460.273 671.853 464.25 671.132 468.193C670.382 472.131 669.348 476.012 668.039 479.807C666.695 483.577 665.177 487.348 663.775 491.119C661.009 498.754 658.146 506.352 655.476 514.025C658.78 506.597 661.911 499.094 665.081 491.646C666.656 487.876 668.251 484.105 669.749 480.334C671.227 476.494 672.427 472.557 673.341 468.551C673.572 467.533 673.725 466.477 673.918 465.421L676.761 460.52C677.952 458.483 679.066 456.41 680.353 454.468C681.637 452.517 683.069 450.664 684.637 448.925L689.362 443.646L684.368 448.661C682.679 450.337 681.119 452.133 679.7 454.034C678.278 455.919 677.049 457.974 675.858 459.935L674.628 461.82C674.878 459.935 675.089 458.219 675.243 456.428L676.472 444.343L677.702 432.277C677.903 430.507 678.211 428.751 678.624 427.017L686.711 423.02C689.631 421.625 692.474 420.098 695.413 418.872C698.375 417.632 701.425 416.605 704.538 415.799L713.932 413.367L704.327 415.253C701.133 415.892 697.992 416.768 694.933 417.873C691.86 418.967 688.92 420.343 685.962 421.644L679.2 424.528C679.565 423.284 679.969 422.059 680.43 420.852C681.953 417.166 683.784 413.609 685.904 410.219L691.956 399.642L698.026 389.046C699.025 387.255 700.062 385.558 701.042 383.711C702.015 381.838 702.812 379.881 703.424 377.866C704.407 373.883 705.158 369.848 705.671 365.781C706.179 361.79 706.891 357.825 707.804 353.904C708.92 350.021 710.366 346.237 712.126 342.592L716.928 331.43L711.396 342.309Z" fill="white"/>
<path d="M694.923 516.789C694.923 529.051 690.471 540.629 686.466 550.817C685.868 552.343 684.823 553.653 683.466 554.578C682.11 555.502 680.505 555.998 678.862 556H618.789C617.145 555.999 615.54 555.504 614.184 554.579C612.827 553.655 611.782 552.344 611.185 550.817C607.18 540.618 602.728 529.051 602.728 516.789C602.72 510.891 603.154 505.001 604.028 499.168C604.34 497.26 605.324 495.526 606.803 494.276C608.283 493.026 610.161 492.342 612.101 492.348H685.509C687.461 492.345 689.349 493.041 690.83 494.307C692.311 495.574 693.287 497.328 693.581 499.251C694.46 505.056 694.908 510.918 694.923 516.789Z" fill="url(#paint19_linear)"/>
<path d="M273.646 572.122H314.103L232.078 380.132H191.622L273.646 572.122Z" fill="url(#paint20_linear)"/>
<path d="M236.204 355.121V350.58C236.206 341.57 238.435 332.699 242.693 324.751L273.871 266.627V289.332L253.566 334.941C251.758 339.011 250.827 343.413 250.832 347.864V355.13C250.832 356.334 251.312 357.489 252.166 358.341C253.021 359.192 254.18 359.671 255.389 359.671H263.81C264.31 359.671 264.805 359.769 265.268 359.96C265.73 360.15 266.15 360.43 266.504 360.783C266.857 361.135 267.138 361.554 267.329 362.014C267.521 362.475 267.619 362.968 267.619 363.467V365.692H218.66V363.467C218.66 362.46 219.061 361.495 219.776 360.783C220.49 360.071 221.459 359.671 222.469 359.671H231.583C232.188 359.679 232.788 359.568 233.349 359.343C233.91 359.118 234.42 358.784 234.85 358.36C235.28 357.937 235.621 357.432 235.854 356.876C236.086 356.32 236.205 355.723 236.204 355.121Z" fill="#4C70EF"/>
<path d="M368.147 379.615H192.468C191.018 379.615 189.627 379.041 188.602 378.019C187.576 376.997 187 375.611 187 374.166V370.279C187 368.833 187.576 367.447 188.602 366.425C189.627 365.404 191.018 364.829 192.468 364.829H368.147C369.798 364.829 371.382 365.479 372.555 366.638C373.727 367.796 374.393 369.369 374.408 371.014V373.357C374.408 375.012 373.748 376.599 372.574 377.769C371.4 378.939 369.807 379.596 368.147 379.596V379.615Z" fill="#1A1E79"/>
<path d="M339.839 345.222C339.839 345.222 322.35 340.772 319.242 343.787C316.134 346.802 308.305 353.777 308.305 353.777C308.305 353.777 310.128 357.409 323.799 350.144C323.799 350.144 332.12 353.295 344.223 350.607" fill="#E3A991"/>
<path d="M303.028 364.775H333.168C333.263 364.775 333.358 364.756 333.445 364.719C333.533 364.683 333.613 364.629 333.68 364.562C333.747 364.494 333.8 364.414 333.836 364.326C333.871 364.238 333.889 364.143 333.888 364.048C333.881 361.052 332.683 358.18 330.556 356.061C328.43 353.942 325.548 352.749 322.541 352.741H309.782C307.8 352.746 305.901 353.532 304.499 354.927C303.097 356.323 302.307 358.214 302.299 360.189V364.048C302.299 364.241 302.376 364.426 302.513 364.562C302.65 364.698 302.835 364.775 303.028 364.775Z" fill="#5F93FA"/>
<path d="M273.005 324.206H277.335C278.487 324.206 279.422 323.275 279.422 322.127V203.809C279.422 202.66 278.487 201.729 277.335 201.729H273.005C271.853 201.729 270.918 202.66 270.918 203.809V322.127C270.918 323.275 271.853 324.206 273.005 324.206Z" fill="#365AD8"/>
<path d="M226.537 372.194C226.504 371.719 226.291 371.275 225.942 370.95C225.592 370.626 225.132 370.445 224.655 370.445C224.177 370.445 223.717 370.626 223.368 370.95C223.018 371.275 222.805 371.719 222.772 372.194" fill="#E1EAF2"/>
<path d="M214.479 374.065C215.516 374.065 216.357 373.228 216.357 372.195C216.357 371.161 215.516 370.324 214.479 370.324C213.442 370.324 212.601 371.161 212.601 372.195C212.601 373.228 213.442 374.065 214.479 374.065Z" fill="#E1EAF2"/>
<path d="M204.299 374.065C205.336 374.065 206.177 373.228 206.177 372.195C206.177 371.161 205.336 370.324 204.299 370.324C203.262 370.324 202.421 371.161 202.421 372.195C202.421 373.228 203.262 374.065 204.299 374.065Z" fill="#E1EAF2"/>
<path d="M508.842 341.971H504.997C495.386 342.004 486.177 346.453 479.38 354.345C472.583 362.237 468.751 372.931 468.72 384.094V439.499H385.477C377.803 439.524 370.45 443.076 365.024 449.378C359.597 455.681 356.539 464.221 356.518 473.134V544.659C356.532 550.391 358.499 555.884 361.989 559.937C365.479 563.99 370.208 566.275 375.144 566.292H515.476C523.344 566.267 530.884 562.626 536.448 556.165C542.013 549.704 545.15 540.948 545.174 531.81V384.051C545.133 372.885 541.289 362.192 534.481 354.307C527.674 346.423 518.456 341.987 508.842 341.971Z" fill="url(#paint21_linear)"/>
<path style="mix-blend-mode:color-burn" opacity="0.49" d="M545.31 378.08C545.272 368.507 541.435 359.338 534.638 352.573C527.841 345.808 518.635 341.997 509.028 341.97H505.182C495.57 341.999 486.36 345.816 479.562 352.588C472.764 359.361 468.931 368.538 468.9 378.116V425.659H385.645C379.659 425.666 373.821 427.514 368.928 430.95C364.034 434.386 360.324 439.243 358.304 444.858L390.986 538.964H413.898C413.898 538.964 397.037 489.314 412.376 480.686C427.715 472.058 445.523 485.227 477.403 476.145C509.283 467.063 532.086 439.364 532.086 426.195C532.086 413.027 545.301 393.501 545.301 444.813V378.08H545.31Z" fill="url(#paint22_linear)"/>
<path d="M472.919 278.089C495.567 262.105 506.567 289.614 490.582 309.276C476.647 326.422 444.53 345.276 432.609 351.724C409.387 364.303 351.25 355.548 334.107 352.632C331.272 352.151 329.267 350.344 329.267 348.255C329.267 346.166 331.281 344.35 334.143 343.878C349.062 341.398 431.005 326.949 468.162 280.214C469.284 278.859 471.461 279.077 472.919 278.089Z" fill="#3A3A86"/>
<path d="M496.114 280.078C495.813 285.799 451.793 299.667 445.013 304.735C423.14 321.082 431.406 332.553 416.76 341.062C394.887 353.777 358.541 350.099 341.398 347.147C338.864 346.711 337.005 345.222 336.64 343.423L334.143 343.841C331.281 344.313 329.267 346.13 329.267 348.219C329.267 350.307 331.272 352.115 334.107 352.596C351.25 355.548 409.387 364.303 432.609 351.688C444.53 345.24 476.647 326.386 490.582 309.239C498.657 299.34 499.851 287.389 496.114 280.078Z" fill="url(#paint23_linear)"/>
<path d="M574.812 404.635C574.812 404.635 577.664 421.663 578.266 426.658C578.858 431.499 613.81 428.811 613.81 428.811C613.81 428.811 618.676 423.625 607.129 420.901C595.582 418.176 585.693 415.152 585.019 409.703" fill="#E3A991"/>
<path d="M511.133 267.236C511.133 267.236 496.551 263.93 496.551 255.684V231.236C496.551 231.236 502.02 198.895 462.529 212.427C462.529 212.427 452.13 224.906 448.12 238.656C447.045 242.343 446.744 245.712 450.599 245.858C450.799 245.863 450.996 245.909 451.178 245.991C451.36 246.074 451.524 246.192 451.66 246.338C451.795 246.484 451.901 246.656 451.969 246.843C452.037 247.031 452.067 247.23 452.058 247.429C451.839 251.797 453.142 264.221 474.341 266.773C474.825 266.827 475.292 266.985 475.71 267.235C476.128 267.485 476.487 267.822 476.763 268.223C477.038 268.623 477.224 269.078 477.308 269.557C477.392 270.035 477.372 270.526 477.248 270.996L473.138 286.662L511.133 267.236Z" fill="#E3A991"/>
<path d="M475.58 277.262L477.403 278.171C477.403 278.171 490.946 273.63 488.212 268.181C485.478 262.732 486.161 257.391 490.609 259.099C492.858 259.95 495.317 260.083 497.645 259.48C496.919 258.349 496.531 257.036 496.524 255.693V253.377L488.248 248.746C488.248 248.746 484.357 252.378 482.425 252.051C480.493 251.724 481.34 247.892 481.34 247.892L474.96 266.964C475.794 267.221 476.496 267.788 476.92 268.547C477.344 269.307 477.458 270.2 477.239 271.041L475.58 277.262Z" fill="url(#paint24_linear)"/>
<path d="M459.184 232.861C463.167 229.456 470.577 233.997 467.843 237.629C465.108 241.262 463.286 240.154 461.572 242.851C459.859 245.549 465.108 248.791 465.108 248.791L469.775 257.273L481.058 245.467L481.623 221.182L473.876 217.549L459.777 216.024C458.492 217.84 456.879 220.183 455.22 222.944C456.191 223.635 457.296 224.117 458.464 224.361C460.542 224.66 453.361 235.032 452.796 238.665C452.231 242.297 448.375 245.14 447.391 242.979C447.51 244.641 448.348 245.785 450.563 245.867C450.795 245.874 451.022 245.936 451.226 246.046C451.43 246.156 451.605 246.313 451.738 246.502L455.284 244.286C455.284 244.286 455.193 236.267 459.184 232.861Z" fill="url(#paint25_linear)"/>
<path d="M481.423 449.236L402.752 456.91C386.131 458.529 370.132 464.053 356.068 473.028C342.005 482.003 330.277 494.173 321.849 508.54L288.401 565.583H277.719C277.719 565.583 296.585 422.09 385.618 404.835C394.194 403.173 403.025 401.129 412.832 400.249C417.954 399.804 423.358 399.722 428.918 399.722L464.617 400.158L481.423 449.236Z" fill="#61AE8D"/>
<path d="M428.918 399.749C423.358 399.749 417.981 399.831 412.832 400.276C403.646 400.954 394.544 402.49 385.645 404.862C359.088 412.346 339.293 428.139 324.446 445.249C324.028 445.739 323.719 446.313 323.539 446.931C323.36 447.55 323.315 448.199 323.407 448.836C327.053 474.747 333.733 473.53 320.363 489.877C308.57 504.308 287.781 540.917 285.995 565.547H288.428L321.849 508.54C330.277 494.175 342.003 482.005 356.064 473.03C370.126 464.055 386.123 458.531 402.743 456.91L411.62 456.002L452.359 400.003L428.918 399.749Z" fill="url(#paint26_linear)"/>
<path d="M514.442 400.258C514.442 400.258 517.805 468.771 417.042 460.815C413.006 460.497 408.952 461.15 405.222 462.72C401.492 464.29 398.196 466.731 395.611 469.837C393.026 472.942 391.228 476.622 390.369 480.565C389.511 484.508 389.616 488.599 390.676 492.493L407.692 565.583H393.565L356.691 484.9C356.691 484.9 332.831 442.27 365.877 420.982C369.871 418.456 374.195 416.49 378.728 415.143L428.918 399.767L514.442 400.258Z" fill="#61AE8D"/>
<path d="M514.442 400.257L428.918 399.794L384.014 413.553C384.014 413.553 386.274 431.553 398.596 438.183C410.918 444.813 406.798 450.716 398.596 455.257C394.531 457.5 397.73 461.078 403.098 463.739C407.37 461.437 412.22 460.421 417.061 460.815C422.529 461.251 427.742 461.442 432.636 461.451C432.636 461.178 430.157 431.59 456.925 420.746C483.692 409.902 516.893 415.043 501.947 435.604C509.963 425.546 514.362 413.101 514.442 400.257Z" fill="url(#paint27_linear)"/>
<path d="M511.133 267.236C511.133 267.236 477.585 258.227 460.852 286.844C446.061 312.155 439.162 330.5 428.954 399.967C428.954 399.967 491.721 400.258 511.124 400.258C544.463 400.258 511.133 267.236 511.133 267.236Z" fill="#42428E"/>
<path d="M460.852 286.844C454.682 297.406 449.916 305.752 445.65 318.104C459.321 324.833 487.656 340.935 488.349 350.362C489.26 362.768 435.789 375.791 458.574 386.689C479.381 396.634 467.232 399.667 464.953 400.121C482.498 400.194 501.773 400.258 511.079 400.258C544.444 400.258 511.124 267.236 511.124 267.236C511.124 267.236 477.585 258.227 460.852 286.844Z" fill="url(#paint28_linear)"/>
<path d="M575.213 407.777L585.028 409.694C570.264 322.953 538.621 286.353 521.942 272.612C519.08 270.243 515.74 268.515 512.148 267.543C508.557 266.572 504.798 266.38 501.126 266.982C493.66 268.199 486.961 272.26 482.443 278.307L480.374 281.031C478.072 284.11 476.404 287.612 475.466 291.335C474.527 295.059 474.337 298.931 474.906 302.728C475.646 307.733 477.683 312.459 480.816 316.441C483.948 320.422 488.068 323.521 492.769 325.432L493.079 325.559C496.384 326.899 499.769 328.036 503.213 328.965C512.145 331.39 539.605 343.859 575.213 407.777Z" fill="#41418D"/>
<path d="M499.367 215.542C486.362 204.263 472.673 204.944 474.587 199.331C476.501 193.719 461.208 189.341 451.62 203.491C451.52 203.627 451.429 203.772 451.338 203.908C445.924 212.082 452.778 222.726 462.548 221.418C466.877 220.846 471.096 221.109 474.587 225.723C480.885 234.033 477.95 245.612 477.95 245.612C477.421 248.473 472.482 254.431 465.109 248.791C457.818 243.269 453.616 244.023 451.912 244.722C451.51 244.898 451.186 245.213 450.998 245.609C450.811 246.004 450.773 246.453 450.891 246.875C451.802 250.126 453.771 260.343 444.767 265.892C433.948 272.558 426.065 277.099 423.641 290.113C421.216 303.127 437.594 325.841 461.29 316.151C484.986 306.46 477.695 257.419 481.796 246.066C481.796 246.066 487.538 229.029 492.888 235.477C497.782 241.38 489.67 245.794 486.964 250.571C484.257 255.348 489.543 255.693 489.543 255.693H494.564C495.204 255.692 495.836 255.559 496.421 255.303C497.006 255.047 497.531 254.672 497.964 254.204C502.803 248.954 517.012 230.854 499.367 215.542Z" fill="#212239"/>
<path d="M490.773 241.298C490.773 241.298 492.368 237.593 490.773 236.912C489.178 236.231 485.46 240.617 486.599 241.298C487.738 241.98 488.759 245.54 486.389 245.385C484.02 245.231 482.042 248.264 484.166 248.718C486.289 249.172 490.099 243.796 490.773 241.298Z" fill="url(#paint29_linear)"/>
<path d="M585.019 409.694C570.255 322.953 538.612 286.353 521.933 272.612C519.071 270.243 515.731 268.515 512.14 267.543C508.548 266.572 504.789 266.38 501.118 266.982C493.655 268.201 486.959 272.262 482.443 278.307L480.374 281.031C477.346 285.067 475.423 289.817 474.794 294.816C474.164 299.816 474.85 304.893 476.784 309.548L479.171 314.089L479.244 314.198C479.19 313.136 477.905 280.441 507.944 282.82C547.261 285.945 528.122 330.654 539.669 336.403C550.833 341.97 577.355 381.531 580.453 408.776L585.019 409.694Z" fill="url(#paint30_linear)"/>
<path d="M277.719 565.583C277.719 565.583 272.351 581.34 259.592 580.432C246.833 579.524 246.523 591.63 246.523 591.63H285.976C285.976 591.63 284.418 572.385 288.41 565.583" fill="#262965"/>
<path d="M393.565 565.583C393.565 565.583 399.653 576.481 393.565 578.606C387.477 580.731 368.776 576.79 369.168 591.63H412.395C412.395 591.63 410.572 568.925 407.692 565.583" fill="#262965"/>
<path d="M378.528 571.305L375.793 570.142C376.755 570.401 377.675 570.792 378.528 571.305Z" fill="url(#paint31_linear)"/>
<path d="M638.026 577.707L606.31 571.677C601.232 570.746 596.628 568.108 593.268 564.202C586.863 556.649 582.177 547.803 579.533 538.272C576.888 528.741 576.347 518.753 577.947 508.994L582.012 484.246C582.577 480.774 583.885 477.463 585.848 474.539C587.81 471.615 590.381 469.146 593.386 467.299L607.968 458.354C610.098 457.041 611.883 455.242 613.177 453.105C614.47 450.968 615.234 448.555 615.405 446.066L616.125 435.477C616.187 434.513 616.043 433.548 615.704 432.644C615.365 431.74 614.837 430.918 614.156 430.232C613.475 429.546 612.657 429.011 611.753 428.663C610.85 428.314 609.883 428.16 608.916 428.211L592.894 429.047C590.016 429.201 587.162 428.448 584.737 426.894L582.158 425.232C581.372 424.734 580.531 424.329 579.652 424.024C578.373 423.594 577.199 422.902 576.204 421.994C575.209 421.085 574.415 419.98 573.873 418.748C573.545 417.994 573.281 417.422 573.135 417.113C572.224 415.297 575.231 407.804 568.123 414.089C565.895 416.286 564.167 418.934 563.055 421.854C562.568 423.025 561.792 424.055 560.8 424.849C559.807 425.642 558.63 426.174 557.377 426.395C556.444 426.551 555.486 426.377 554.668 425.903C553.851 425.428 553.226 424.683 552.902 423.797L549.694 415.124C549.595 414.854 549.425 414.615 549.203 414.432C548.98 414.249 548.712 414.128 548.427 414.083C548.141 414.038 547.849 414.069 547.58 414.174C547.311 414.279 547.075 414.453 546.896 414.679L541.784 421.1C537.455 426.559 535.196 433.363 535.404 440.317L535.65 449.181C535.77 452.841 534.82 456.457 532.916 459.589L516.794 485.826C514.056 490.292 510.312 494.061 505.859 496.836C501.406 499.61 496.366 501.313 491.138 501.81L465.574 504.244C445.573 506.148 426.662 514.207 411.465 527.303L402.479 535.041C401.193 536.155 399.998 537.369 398.906 538.673C391.068 545.094 376.668 553.568 361.667 545.639C339.338 533.833 315.642 558.454 324.756 577.017C332.211 592.202 370.608 592.338 384.342 591.884C384.956 591.863 385.557 591.703 386.1 591.417C386.642 591.13 387.112 590.724 387.474 590.23C387.836 589.735 388.08 589.165 388.188 588.563C388.296 587.96 388.265 587.341 388.097 586.752C386.457 580.995 382.811 571.976 375.794 570.16C381.443 570.482 387.106 569.869 392.554 568.344C394.495 575.06 398.576 580.966 404.18 585.17C409.784 589.373 416.608 591.647 423.623 591.648H512.2C512.824 591.648 513.422 591.401 513.863 590.961C514.304 590.522 514.552 589.926 514.552 589.304V586.98C514.552 586.075 514.332 585.183 513.912 584.382C513.491 583.58 512.882 582.891 512.136 582.375L502.485 575.7L547.662 572.703C551.824 572.428 555.975 573.375 559.601 575.427L580.782 587.361C585.801 590.184 591.468 591.667 597.232 591.666H642.984C643.783 591.663 644.549 591.346 645.114 590.783C645.679 590.219 645.998 589.456 646 588.66V587.343C646.007 585.062 645.213 582.851 643.757 581.091C642.301 579.332 640.274 578.135 638.026 577.707Z" fill="#A8B3BA"/>
<path d="M541.975 543.723V544.068C541.684 548.822 539.611 553.294 536.168 556.598C532.724 559.901 528.161 561.795 523.383 561.905L507.971 562.268C498.575 563.421 512.327 537.902 492.277 527.603C479.563 521.073 471.853 525.568 467.916 529.737C467.562 530.121 467.319 530.593 467.212 531.103C467.106 531.613 467.14 532.143 467.311 532.635C467.482 533.128 467.784 533.565 468.184 533.9C468.584 534.236 469.067 534.457 469.584 534.541C480.702 536.503 483.883 550.053 477.996 560.452C473.293 568.771 458.328 568.525 449.898 567.654C449.814 567.639 449.729 567.658 449.659 567.707C449.59 567.755 449.543 567.829 449.529 567.912C449.514 567.996 449.533 568.081 449.582 568.15C449.631 568.219 449.705 568.266 449.788 568.28C457.134 570.042 469.784 572.712 477.695 572.412C489.388 571.958 502.466 575.682 502.466 575.682L547.644 572.685C551.805 572.41 555.956 573.357 559.583 575.41L562.444 577.017C549.621 569.752 544.973 553.468 543.305 543.659C543.263 543.511 543.172 543.381 543.047 543.291C542.921 543.201 542.769 543.156 542.615 543.164C542.46 543.171 542.313 543.23 542.197 543.332C542.08 543.434 542.002 543.571 541.975 543.723Z" fill="url(#paint32_linear)"/>
<path d="M616.098 435.513L615.378 446.112C615.275 447.631 614.95 449.128 614.411 450.553C613.391 451.915 612.151 452.869 610.702 452.796C605.917 452.569 579.943 457.337 574.821 472.549C569.699 487.761 554.424 480.496 548.956 495.935C546.222 503.691 544.782 514.889 544.044 524.088C543.952 525.268 543.518 526.396 542.795 527.335C542.071 528.273 541.09 528.982 539.97 529.375C538.849 529.767 537.639 529.827 536.485 529.546C535.331 529.266 534.284 528.657 533.472 527.794C523.137 516.896 504.544 502.837 477.376 503.137L491.138 501.82C496.366 501.323 501.406 499.619 505.859 496.845C510.312 494.071 514.055 490.302 516.793 485.836L532.879 459.607C534.79 456.476 535.755 452.863 535.659 449.2L535.404 440.327C535.191 433.375 537.451 426.572 541.783 421.119L546.887 414.707C546.668 415.116 541.938 423.97 545.274 429.556C547.698 433.615 550.642 432.789 552.328 429.774L557.213 426.395H557.35C558.389 426.207 559.378 425.804 560.251 425.211C561.124 424.618 561.862 423.849 562.417 422.953C562.28 423.371 558.589 434.614 563.957 435.668C569.325 436.721 574.666 425.296 573.071 417.15C573.226 417.459 573.49 418.058 573.809 418.794C574.446 420.248 575.44 421.519 576.698 422.49C578.268 423.731 579.57 425.276 580.526 427.031C581.109 428.49 582.037 429.787 583.232 430.81C584.428 431.833 585.854 432.553 587.389 432.907L588.3 433.061C592.675 433.652 609.554 430.982 614.986 431.417C615.787 432.629 616.177 434.065 616.098 435.513Z" fill="url(#paint33_linear)"/>
<path d="M392.554 568.325C387.106 569.85 381.442 570.464 375.793 570.142C375.793 570.142 365.012 564.011 358.304 568.107C351.596 572.203 338.627 564.929 354.576 557.436C370.525 549.944 368.967 568.525 379.539 565.61C390.111 562.695 390.412 562.849 392.554 568.325Z" fill="url(#paint34_linear)"/>
<path d="M393.018 569.797C392.854 569.307 392.699 568.825 392.554 568.326C392.739 568.806 392.894 569.298 393.018 569.797Z" fill="url(#paint35_linear)"/>
<defs>
<linearGradient id="paint0_linear" x1="437.498" y1="493.011" x2="405.079" y2="695.737" gradientUnits="userSpaceOnUse">
<stop stop-color="#D7E7FF"/>
<stop offset="1" stop-color="#E5EFFF" stop-opacity="0"/>
</linearGradient>
<linearGradient id="paint1_linear" x1="703.15" y1="556.154" x2="575.94" y2="536.054" gradientUnits="userSpaceOnUse">
<stop stop-color="#C9DFFF"/>
<stop offset="1" stop-color="#E9F2FF" stop-opacity="0"/>
</linearGradient>
<linearGradient id="paint2_linear" x1="295.854" y1="592.346" x2="213.494" y2="578.841" gradientUnits="userSpaceOnUse">
<stop stop-color="#C9DFFF"/>
<stop offset="1" stop-color="#E9F2FF" stop-opacity="0"/>
</linearGradient>
<linearGradient id="paint3_linear" x1="205.607" y1="13.9616" x2="-35.0216" y2="-39.597" gradientUnits="userSpaceOnUse">
<stop stop-color="#C9DFFF"/>
<stop offset="1" stop-color="#E9F2FF" stop-opacity="0"/>
</linearGradient>
<linearGradient id="paint4_linear" x1="217.083" y1="19.0385" x2="-41.8719" y2="-25.5881" gradientUnits="userSpaceOnUse">
<stop stop-color="#C9DFFF"/>
<stop offset="1" stop-color="#E9F2FF" stop-opacity="0"/>
</linearGradient>
<linearGradient id="paint5_linear" x1="345" y1="97" x2="345" y2="193" gradientUnits="userSpaceOnUse">
<stop offset="0.244792" stop-color="#B2B2FF"/>
<stop offset="1" stop-color="#B2B2FF" stop-opacity="0"/>
</linearGradient>
<linearGradient id="paint6_linear" x1="324" y1="123" x2="324" y2="193" gradientUnits="userSpaceOnUse">
<stop offset="0.244792" stop-color="#B2B2FF"/>
<stop offset="1" stop-color="#B2B2FF" stop-opacity="0"/>
</linearGradient>
<linearGradient id="paint7_linear" x1="302" y1="173" x2="302" y2="193" gradientUnits="userSpaceOnUse">
<stop offset="0.244792" stop-color="#B2B2FF"/>
<stop offset="1" stop-color="#B2B2FF" stop-opacity="0"/>
</linearGradient>
<linearGradient id="paint8_linear" x1="281" y1="149" x2="281" y2="193" gradientUnits="userSpaceOnUse">
<stop offset="0.244792" stop-color="#B2B2FF"/>
<stop offset="1" stop-color="#B2B2FF" stop-opacity="0"/>
</linearGradient>
<linearGradient id="paint9_linear" x1="259" y1="113" x2="259" y2="193" gradientUnits="userSpaceOnUse">
<stop offset="0.244792" stop-color="#B2B2FF"/>
<stop offset="1" stop-color="#B2B2FF" stop-opacity="0"/>
</linearGradient>
<linearGradient id="paint10_linear" x1="315" y1="199.627" x2="445.729" y2="199.627" gradientUnits="userSpaceOnUse">
<stop stop-color="#CECEFF"/>
<stop offset="1" stop-color="#B8B8FF"/>
</linearGradient>
<linearGradient id="paint11_linear" x1="311.868" y1="86.6268" x2="311.868" y2="13.3242" gradientUnits="userSpaceOnUse">
<stop stop-color="#F3F3F3"/>
<stop offset="1" stop-color="white"/>
</linearGradient>
<linearGradient id="paint12_linear" x1="585.787" y1="254.637" x2="585.787" y2="208.233" gradientUnits="userSpaceOnUse">
<stop stop-color="#F3F3F3"/>
<stop offset="1" stop-color="white"/>
</linearGradient>
<linearGradient id="paint13_linear" x1="615.125" y1="135.77" x2="687.29" y2="552.247" gradientUnits="userSpaceOnUse">
<stop stop-color="#F3FCF0"/>
<stop offset="1" stop-color="#4BB1A4"/>
</linearGradient>
<linearGradient id="paint14_linear" x1="612.924" y1="131.346" x2="612.924" y2="793.234" gradientUnits="userSpaceOnUse">
<stop stop-color="#DFF1EB"/>
<stop offset="1" stop-color="#46AD9F"/>
</linearGradient>
<linearGradient id="paint15_linear" x1="553.762" y1="352.012" x2="622.189" y2="507.886" gradientUnits="userSpaceOnUse">
<stop stop-color="#D6F2EB"/>
<stop offset="1" stop-color="#7DC3AA"/>
</linearGradient>
<linearGradient id="paint16_linear" x1="585.547" y1="342.513" x2="641.846" y2="502.551" gradientUnits="userSpaceOnUse">
<stop stop-color="#D9F4EE"/>
<stop offset="1" stop-color="#69C197"/>
</linearGradient>
<linearGradient id="paint17_linear" x1="723.674" y1="301.692" x2="668.111" y2="517.931" gradientUnits="userSpaceOnUse">
<stop stop-color="#D4F1E1"/>
<stop offset="1" stop-color="#82CCA4"/>
</linearGradient>
<linearGradient id="paint18_linear" x1="705.624" y1="300.427" x2="644.3" y2="486.097" gradientUnits="userSpaceOnUse">
<stop stop-color="#DDF0E1"/>
<stop offset="1" stop-color="#9DDECB"/>
</linearGradient>
<linearGradient id="paint19_linear" x1="649.282" y1="652.031" x2="649.282" y2="480.169" gradientUnits="userSpaceOnUse">
<stop stop-color="#6ACDFF"/>
<stop offset="1" stop-color="#C1EAFF"/>
</linearGradient>
<linearGradient id="paint20_linear" x1="252.621" y1="577.742" x2="252.865" y2="341.961" gradientUnits="userSpaceOnUse">
<stop stop-color="#BABEFF" stop-opacity="0"/>
<stop offset="0.84" stop-color="#111670"/>
</linearGradient>
<linearGradient id="paint21_linear" x1="606.692" y1="699.438" x2="485.784" y2="350.788" gradientUnits="userSpaceOnUse">
<stop stop-color="white"/>
<stop offset="1" stop-color="#BFDFFF"/>
</linearGradient>
<linearGradient id="paint22_linear" x1="636.13" y1="535.268" x2="358.77" y2="387.578" gradientUnits="userSpaceOnUse">
<stop stop-color="white" stop-opacity="0"/>
<stop offset="1"/>
</linearGradient>
<linearGradient id="paint23_linear" x1="329.267" y1="319.193" x2="484.111" y2="319.267" gradientUnits="userSpaceOnUse">
<stop stop-color="#273F69" stop-opacity="0"/>
<stop offset="1" stop-color="#131957"/>
</linearGradient>
<linearGradient id="paint24_linear" x1="495.804" y1="265.483" x2="475.034" y2="253.36" gradientUnits="userSpaceOnUse">
<stop stop-color="#E4A78E"/>
<stop offset="1" stop-color="#DE8C6C"/>
</linearGradient>
<linearGradient id="paint25_linear" x1="481.377" y1="272.041" x2="437.289" y2="193.882" gradientUnits="userSpaceOnUse">
<stop stop-color="#E4A78E"/>
<stop offset="1" stop-color="#DE8C6C"/>
</linearGradient>
<linearGradient id="paint26_linear" x1="279.506" y1="485.01" x2="408.466" y2="482.723" gradientUnits="userSpaceOnUse">
<stop stop-color="#61AE8D"/>
<stop offset="0.598312" stop-color="#509577"/>
<stop offset="0.989267" stop-color="#41906E"/>
</linearGradient>
<linearGradient id="paint27_linear" x1="455.858" y1="470.024" x2="478.661" y2="392.283" gradientUnits="userSpaceOnUse">
<stop stop-color="#61AE8D"/>
<stop offset="0.447917" stop-color="#509577"/>
<stop offset="1" stop-color="#41906E"/>
</linearGradient>
<linearGradient id="paint28_linear" x1="526.034" y1="404.636" x2="393.747" y2="283.33" gradientUnits="userSpaceOnUse">
<stop stop-color="#1D1D77"/>
<stop offset="1" stop-color="#273F69" stop-opacity="0"/>
</linearGradient>
<linearGradient id="paint29_linear" x1="491.402" y1="248.428" x2="483.261" y2="242.047" gradientUnits="userSpaceOnUse">
<stop stop-color="#E4A78E"/>
<stop offset="1" stop-color="#DE8C6C"/>
</linearGradient>
<linearGradient id="paint30_linear" x1="585.275" y1="464.576" x2="617.578" y2="156.915" gradientUnits="userSpaceOnUse">
<stop stop-color="#273F69" stop-opacity="0"/>
<stop offset="1" stop-color="#12126D"/>
</linearGradient>
<linearGradient id="paint31_linear" x1="945.044" y1="1055.61" x2="945.998" y2="1069.65" gradientUnits="userSpaceOnUse">
<stop stop-color="#839098"/>
<stop offset="1" stop-color="#6D767F"/>
</linearGradient>
<linearGradient id="paint32_linear" x1="486.39" y1="511.347" x2="524.898" y2="595.91" gradientUnits="userSpaceOnUse">
<stop stop-color="#9DA8AE"/>
<stop offset="1" stop-color="#7E8B98"/>
</linearGradient>
<linearGradient id="paint33_linear" x1="558.389" y1="526.786" x2="545.707" y2="409.555" gradientUnits="userSpaceOnUse">
<stop stop-color="#A3AEB5"/>
<stop offset="1" stop-color="#6F7C89"/>
</linearGradient>
<linearGradient id="paint34_linear" x1="353.328" y1="550.399" x2="368.696" y2="588.028" gradientUnits="userSpaceOnUse">
<stop stop-color="#94A1A9"/>
<stop offset="1" stop-color="#6F7C89"/>
</linearGradient>
<linearGradient id="paint35_linear" x1="497.226" y1="1180.21" x2="504.186" y2="1193.95" gradientUnits="userSpaceOnUse">
<stop stop-color="#839098"/>
<stop offset="1" stop-color="#6D767F"/>
</linearGradient>
</defs>
</svg>
