<svg width="119" height="119" viewBox="0 0 119 119" fill="none" xmlns="http://www.w3.org/2000/svg">
    <path d="M89.25 78.6144H29.75V37.1875C29.75 29.2973 32.8844 21.7303 38.4636 16.1511C44.0428 10.5719 51.6098 7.4375 59.5 7.4375C67.3902 7.4375 74.9572 10.5719 80.5364 16.1511C86.1156 21.7303 89.25 29.2973 89.25 37.1875V78.6144ZM41.6996 66.7392H77.3004V37.1875C77.3897 34.7957 76.9957 32.4104 76.142 30.1743C75.2883 27.9383 73.9924 25.8973 72.3319 24.1736C70.6713 22.4498 68.6801 21.0787 66.4775 20.1421C64.2748 19.2056 61.9059 18.7229 59.5124 18.7229C57.1189 18.7229 54.75 19.2056 52.5473 20.1421C50.3447 21.0787 48.3535 22.4498 46.6929 24.1736C45.0323 25.8973 43.7365 27.9383 42.8827 30.1743C42.029 32.4104 41.6351 34.7957 41.7244 37.1875L41.6996 66.7392Z" fill="url(#paint0_linear)"/>
    <path d="M89.2499 45.096C88.3724 44.7925 87.4514 44.6334 86.5229 44.625H77.3004V68.3506H41.6995V44.625H32.5762C31.6477 44.6334 30.7267 44.7925 29.8491 45.096V80.201H89.2499V45.096Z" fill="url(#paint1_linear)"/>
    <path d="M87.0435 52.0625H31.9565C26.6302 52.0625 22.3125 56.3802 22.3125 61.7065V101.919C22.3125 107.245 26.6302 111.562 31.9565 111.562H87.0435C92.3698 111.562 96.6875 107.245 96.6875 101.919V61.7065C96.6875 56.3802 92.3698 52.0625 87.0435 52.0625Z" fill="url(#paint2_linear)"/>
    <path d="M96.6875 70.6562H22.3125V100.406H96.6875V70.6562Z" fill="url(#paint3_linear)"/>
    <path d="M31.9565 52.0625C29.9328 52.0659 27.9617 52.7075 26.3237 53.8959C24.6857 55.0843 23.4642 56.7591 22.8331 58.6819H96.1421C95.5123 56.7631 94.2946 55.0912 92.6616 53.9031C91.0286 52.7151 89.063 52.0711 87.0435 52.0625H31.9565Z" fill="url(#paint4_linear)"/>
    <path d="M67.5325 78.6887C67.5215 76.7261 66.7924 74.8355 65.4828 73.3738C64.1732 71.912 62.3737 70.9803 60.4242 70.7545C58.4746 70.5287 56.5098 71.0245 54.9008 72.1483C53.2918 73.2721 52.1499 74.946 51.6906 76.8541C51.3904 78.0567 51.3753 79.3128 51.6465 80.5223C51.9177 81.7318 52.4676 82.8612 53.2525 83.8206C53.8507 84.5926 54.1657 85.5465 54.145 86.5229V87.7129C54.171 89.1159 54.7466 90.4526 55.7481 91.4355C56.7495 92.4184 58.0968 92.969 59.5 92.9687C60.9202 92.9687 62.2823 92.4045 63.2865 91.4003C64.2908 90.396 64.855 89.034 64.855 87.6137V86.4237C64.8419 85.4293 65.1652 84.4596 65.7723 83.6718C66.9131 82.2618 67.5345 80.5025 67.5325 78.6887Z" fill="url(#paint5_linear)"/>
    <path d="M66.9375 81.5149C66.2451 79.6349 64.8731 78.0828 63.0923 77.1649C61.3115 76.247 59.2514 76.0299 57.3184 76.5565C56.0941 76.8941 54.9687 77.5206 54.0369 78.3834C53.105 79.2462 52.3939 80.3201 51.9634 81.5149C52.255 82.3199 52.6735 83.0732 53.203 83.7461C53.8011 84.5181 54.1162 85.472 54.0955 86.4484V87.6384C54.0955 89.0586 54.6597 90.4207 55.6639 91.425C56.6682 92.4292 58.0302 92.9934 59.4505 92.9934C60.8707 92.9934 62.2328 92.4292 63.237 91.425C64.2413 90.4207 64.8055 89.0586 64.8055 87.6384V86.4484C64.7924 85.454 65.1156 84.4843 65.7228 83.6965C66.2389 83.0371 66.6488 82.301 66.9375 81.5149Z" fill="url(#paint6_linear)"/>
    <path d="M105.117 66.9375H13.8833C10.3234 66.9375 7.4375 69.8234 7.4375 73.3833V90.2417C7.4375 93.8016 10.3234 96.6875 13.8833 96.6875H105.117C108.677 96.6875 111.562 93.8016 111.562 90.2417V73.3833C111.562 69.8234 108.677 66.9375 105.117 66.9375Z" fill="url(#paint7_linear)"/>
    <path d="M26.4527 82.0604L26.0313 81.8125L26.4527 81.5646C26.8801 81.318 27.192 80.9118 27.3199 80.4352C27.4477 79.9587 27.3811 79.4508 27.1345 79.0234C26.8879 78.5961 26.4817 78.2841 26.0051 78.1563C25.5286 78.0284 25.0207 78.0951 24.5933 78.3417L24.1719 78.5896V78.0938C24.1719 77.6006 23.976 77.1277 23.6273 76.779C23.2786 76.4303 22.8056 76.2344 22.3125 76.2344C21.8194 76.2344 21.3464 76.4303 20.9977 76.779C20.649 77.1277 20.4531 77.6006 20.4531 78.0938V78.5896L20.0317 78.3417C19.8201 78.2196 19.5865 78.1404 19.3442 78.1086C19.102 78.0767 18.8559 78.093 18.6199 78.1563C18.3839 78.2196 18.1627 78.3287 17.969 78.4775C17.7752 78.6263 17.6126 78.8118 17.4905 79.0234C17.3684 79.2351 17.2892 79.4687 17.2574 79.7109C17.2256 79.9531 17.2418 80.1992 17.3051 80.4352C17.3684 80.6712 17.4776 80.8924 17.6264 81.0861C17.7752 81.2799 17.9607 81.4425 18.1723 81.5646L18.5938 81.8125L18.1723 82.0604C17.9607 82.1825 17.7752 82.3451 17.6264 82.5389C17.4776 82.7326 17.3684 82.9538 17.3051 83.1898C17.2418 83.4258 17.2256 83.6719 17.2574 83.9141C17.2892 84.1563 17.3684 84.3899 17.4905 84.6016C17.6126 84.8132 17.7752 84.9987 17.969 85.1475C18.1627 85.2963 18.3839 85.4054 18.6199 85.4687C18.8559 85.532 19.102 85.5483 19.3442 85.5164C19.5865 85.4846 19.8201 85.4054 20.0317 85.2833L20.4531 85.0354V85.5312C20.4531 86.0244 20.649 86.4973 20.9977 86.846C21.3464 87.1947 21.8194 87.3906 22.3125 87.3906C22.8056 87.3906 23.2786 87.1947 23.6273 86.846C23.976 86.4973 24.1719 86.0244 24.1719 85.5312V85.0354L24.5933 85.2833C25.0207 85.5299 25.5286 85.5966 26.0051 85.4687C26.4817 85.3409 26.8879 85.0289 27.1345 84.6016C27.3811 84.1742 27.4477 83.6663 27.3199 83.1898C27.192 82.7132 26.8801 82.307 26.4527 82.0604Z" fill="url(#paint8_linear)"/>
    <path d="M45.0465 82.0604L44.625 81.8125L45.0465 81.5646C45.4738 81.318 45.7858 80.9118 45.9136 80.4352C46.0415 79.9587 45.9748 79.4508 45.7282 79.0234C45.4817 78.5961 45.0754 78.2841 44.5989 78.1563C44.1223 78.0284 43.6145 78.0951 43.1871 78.3417L42.7656 78.5896V78.0938C42.7656 77.6006 42.5697 77.1277 42.221 76.779C41.8723 76.4303 41.3994 76.2344 40.9063 76.2344C40.4131 76.2344 39.9402 76.4303 39.5915 76.779C39.2428 77.1277 39.0469 77.6006 39.0469 78.0938V78.5896L38.6254 78.3417C38.4138 78.2196 38.1802 78.1404 37.938 78.1086C37.6957 78.0767 37.4496 78.093 37.2137 78.1563C36.9777 78.2196 36.7565 78.3287 36.5627 78.4775C36.3689 78.6263 36.2064 78.8118 36.0843 79.0234C35.9622 79.2351 35.883 79.4687 35.8512 79.7109C35.8194 79.9531 35.8356 80.1992 35.8989 80.4352C35.9622 80.6712 36.0713 80.8924 36.2201 81.0861C36.3689 81.2799 36.5544 81.4425 36.766 81.5646L37.1875 81.8125L36.766 82.0604C36.5544 82.1825 36.3689 82.3451 36.2201 82.5389C36.0713 82.7326 35.9622 82.9538 35.8989 83.1898C35.8356 83.4258 35.8194 83.6719 35.8512 83.9141C35.883 84.1563 35.9622 84.3899 36.0843 84.6016C36.2064 84.8132 36.3689 84.9987 36.5627 85.1475C36.7565 85.2963 36.9777 85.4054 37.2137 85.4687C37.4496 85.532 37.6957 85.5483 37.938 85.5164C38.1802 85.4846 38.4138 85.4054 38.6254 85.2833L39.0469 85.0354V85.5312C39.0469 86.0244 39.2428 86.4973 39.5915 86.846C39.9402 87.1947 40.4131 87.3906 40.9063 87.3906C41.3994 87.3906 41.8723 87.1947 42.221 86.846C42.5697 86.4973 42.7656 86.0244 42.7656 85.5312V85.0354L43.1871 85.2833C43.6145 85.5299 44.1223 85.5966 44.5989 85.4687C45.0754 85.3409 45.4817 85.0289 45.7282 84.6016C45.9748 84.1742 46.0415 83.6663 45.9136 83.1898C45.7858 82.7132 45.4738 82.307 45.0465 82.0604Z" fill="url(#paint9_linear)"/>
    <path d="M63.6402 82.0604L63.2188 81.8125L63.6402 81.5646C64.0676 81.318 64.3795 80.9118 64.5074 80.4352C64.6352 79.9587 64.5686 79.4508 64.322 79.0234C64.0754 78.5961 63.6692 78.2841 63.1926 78.1563C62.7161 78.0284 62.2082 78.0951 61.7808 78.3417L61.3594 78.5896V78.0938C61.3594 77.6006 61.1635 77.1277 60.8148 76.779C60.4661 76.4303 59.9931 76.2344 59.5 76.2344C59.0069 76.2344 58.5339 76.4303 58.1852 76.779C57.8365 77.1277 57.6406 77.6006 57.6406 78.0938V78.5896L57.2192 78.3417C57.0076 78.2196 56.774 78.1404 56.5317 78.1086C56.2895 78.0767 56.0434 78.093 55.8074 78.1563C55.5714 78.2196 55.3502 78.3287 55.1565 78.4775C54.9627 78.6263 54.8001 78.8118 54.678 79.0234C54.5559 79.2351 54.4767 79.4687 54.4449 79.7109C54.4131 79.9531 54.4293 80.1992 54.4926 80.4352C54.5559 80.6712 54.6651 80.8924 54.8139 81.0861C54.9627 81.2799 55.1482 81.4425 55.3598 81.5646L55.7813 81.8125L55.3598 82.0604C55.1482 82.1825 54.9627 82.3451 54.8139 82.5389C54.6651 82.7326 54.5559 82.9538 54.4926 83.1898C54.4293 83.4258 54.4131 83.6719 54.4449 83.9141C54.4767 84.1563 54.5559 84.3899 54.678 84.6016C54.8001 84.8132 54.9627 84.9987 55.1565 85.1475C55.3502 85.2963 55.5714 85.4054 55.8074 85.4687C56.0434 85.532 56.2895 85.5483 56.5317 85.5164C56.774 85.4846 57.0076 85.4054 57.2192 85.2833L57.6406 85.0354V85.5312C57.6406 86.0244 57.8365 86.4973 58.1852 86.846C58.5339 87.1947 59.0069 87.3906 59.5 87.3906C59.9931 87.3906 60.4661 87.1947 60.8148 86.846C61.1635 86.4973 61.3594 86.0244 61.3594 85.5312V85.0354L61.7808 85.2833C62.2082 85.5299 62.7161 85.5966 63.1926 85.4687C63.6692 85.3409 64.0754 85.0289 64.322 84.6016C64.5686 84.1742 64.6352 83.6663 64.5074 83.1898C64.3795 82.7132 64.0676 82.307 63.6402 82.0604Z" fill="url(#paint10_linear)"/>
    <path d="M82.234 82.0604L81.8125 81.8125L82.234 81.5646C82.6614 81.318 82.9733 80.9118 83.1011 80.4352C83.229 79.9587 83.1623 79.4508 82.9157 79.0234C82.6692 78.5961 82.2629 78.2841 81.7864 78.1563C81.3098 78.0284 80.802 78.0951 80.3746 78.3417L79.9531 78.5896V78.0938C79.9531 77.6006 79.7572 77.1277 79.4085 76.779C79.0598 76.4303 78.5869 76.2344 78.0938 76.2344C77.6006 76.2344 77.1277 76.4303 76.779 76.779C76.4303 77.1277 76.2344 77.6006 76.2344 78.0938V78.5896L75.8129 78.3417C75.6013 78.2196 75.3677 78.1404 75.1255 78.1086C74.8832 78.0767 74.6371 78.093 74.4012 78.1563C74.1652 78.2196 73.944 78.3287 73.7502 78.4775C73.5564 78.6263 73.3939 78.8118 73.2718 79.0234C73.1497 79.2351 73.0705 79.4687 73.0387 79.7109C73.0069 79.9531 73.0231 80.1992 73.0864 80.4352C73.1497 80.6712 73.2588 80.8924 73.4076 81.0861C73.5564 81.2799 73.7419 81.4425 73.9535 81.5646L74.375 81.8125L73.9535 82.0604C73.7419 82.1825 73.5564 82.3451 73.4076 82.5389C73.2588 82.7326 73.1497 82.9538 73.0864 83.1898C73.0231 83.4258 73.0069 83.6719 73.0387 83.9141C73.0705 84.1563 73.1497 84.3899 73.2718 84.6016C73.3939 84.8132 73.5564 84.9987 73.7502 85.1475C73.944 85.2963 74.1652 85.4054 74.4012 85.4687C74.6371 85.532 74.8832 85.5483 75.1255 85.5164C75.3677 85.4846 75.6013 85.4054 75.8129 85.2833L76.2344 85.0354V85.5312C76.2344 86.0244 76.4303 86.4973 76.779 86.846C77.1277 87.1947 77.6006 87.3906 78.0938 87.3906C78.5869 87.3906 79.0598 87.1947 79.4085 86.846C79.7572 86.4973 79.9531 86.0244 79.9531 85.5312V85.0354L80.3746 85.2833C80.802 85.5299 81.3098 85.5966 81.7864 85.4687C82.2629 85.3409 82.6692 85.0289 82.9157 84.6016C83.1623 84.1742 83.229 83.6663 83.1011 83.1898C82.9733 82.7132 82.6614 82.307 82.234 82.0604Z" fill="url(#paint11_linear)"/>
    <path d="M100.828 82.0604L100.406 81.8125L100.828 81.5646C101.255 81.318 101.567 80.9118 101.695 80.4352C101.823 79.9587 101.756 79.4508 101.509 79.0234C101.263 78.5961 100.857 78.2841 100.38 78.1563C99.9036 78.0284 99.3957 78.0951 98.9683 78.3417L98.5469 78.5896V78.0938C98.5469 77.6006 98.351 77.1277 98.0023 76.779C97.6536 76.4303 97.1806 76.2344 96.6875 76.2344C96.1944 76.2344 95.7214 76.4303 95.3727 76.779C95.024 77.1277 94.8281 77.6006 94.8281 78.0938V78.5896L94.4067 78.3417C94.1951 78.2196 93.9615 78.1404 93.7192 78.1086C93.477 78.0767 93.2309 78.093 92.9949 78.1563C92.7589 78.2196 92.5377 78.3287 92.344 78.4775C92.1502 78.6263 91.9876 78.8118 91.8655 79.0234C91.7434 79.2351 91.6642 79.4687 91.6324 79.7109C91.6006 79.9531 91.6168 80.1992 91.6801 80.4352C91.7434 80.6712 91.8526 80.8924 92.0014 81.0861C92.1502 81.2799 92.3357 81.4425 92.5473 81.5646L92.9688 81.8125L92.5473 82.0604C92.3357 82.1825 92.1502 82.3451 92.0014 82.5389C91.8526 82.7326 91.7434 82.9538 91.6801 83.1898C91.6168 83.4258 91.6006 83.6719 91.6324 83.9141C91.6642 84.1563 91.7434 84.3899 91.8655 84.6016C91.9876 84.8132 92.1502 84.9987 92.344 85.1475C92.5377 85.2963 92.7589 85.4054 92.9949 85.4687C93.2309 85.532 93.477 85.5483 93.7192 85.5164C93.9615 85.4846 94.1951 85.4054 94.4067 85.2833L94.8281 85.0354V85.5312C94.8281 86.0244 95.024 86.4973 95.3727 86.846C95.7214 87.1947 96.1944 87.3906 96.6875 87.3906C97.1806 87.3906 97.6536 87.1947 98.0023 86.846C98.351 86.4973 98.5469 86.0244 98.5469 85.5312V85.0354L98.9683 85.2833C99.3957 85.5299 99.9036 85.5966 100.38 85.4687C100.857 85.3409 101.263 85.0289 101.509 84.6016C101.756 84.1742 101.823 83.6663 101.695 83.1898C101.567 82.7132 101.255 82.307 100.828 82.0604Z" fill="url(#paint12_linear)"/>
    <defs>
        <linearGradient id="paint0_linear" x1="59.5" y1="74.9948" x2="59.5" y2="-10.5613" gradientUnits="userSpaceOnUse">
            <stop stop-color="white"/>
            <stop offset="0.52" stop-color="#CCE2E6"/>
            <stop offset="1" stop-color="#8FA1BB"/>
        </linearGradient>
        <linearGradient id="paint1_linear" x1="1455.47" y1="451.615" x2="1455.47" y2="899.517" gradientUnits="userSpaceOnUse">
            <stop stop-color="white"/>
            <stop offset="0.52" stop-color="#CCE2E6"/>
            <stop offset="1" stop-color="#8FA1BB"/>
        </linearGradient>
        <linearGradient id="paint2_linear" x1="59.5" y1="195.433" x2="59.5" y2="35.3529" gradientUnits="userSpaceOnUse">
            <stop stop-color="#27E9DE"/>
            <stop offset="0.52" stop-color="#03A4EC"/>
            <stop offset="1" stop-color="#2547A8"/>
        </linearGradient>
        <linearGradient id="paint3_linear" x1="22.3126" y1="1597.13" x2="783.745" y2="480.362" gradientUnits="userSpaceOnUse">
            <stop stop-color="#27E9DE"/>
            <stop offset="0.52" stop-color="#03A4EC"/>
            <stop offset="1" stop-color="#2547A8"/>
        </linearGradient>
        <linearGradient id="paint4_linear" x1="22.8331" y1="129.84" x2="65.2433" y2="461.558" gradientUnits="userSpaceOnUse">
            <stop stop-color="#27E9DE"/>
            <stop offset="0.52" stop-color="#03A4EC"/>
            <stop offset="1" stop-color="#2547A8"/>
        </linearGradient>
        <linearGradient id="paint5_linear" x1="51.4537" y1="1107.26" x2="548.728" y2="770.48" gradientUnits="userSpaceOnUse">
            <stop stop-color="#27E9DE"/>
            <stop offset="0.52" stop-color="#03A4EC"/>
            <stop offset="1" stop-color="#2547A8"/>
        </linearGradient>
        <linearGradient id="paint6_linear" x1="51.9634" y1="690.68" x2="422.982" y2="546.403" gradientUnits="userSpaceOnUse">
            <stop stop-color="#27E9DE"/>
            <stop offset="0.52" stop-color="#03A4EC"/>
            <stop offset="1" stop-color="#2547A8"/>
        </linearGradient>
        <linearGradient id="paint7_linear" x1="59.5" y1="109.901" x2="59.5" y2="34.6835" gradientUnits="userSpaceOnUse">
            <stop stop-color="#273A9B"/>
            <stop offset="0.56" stop-color="#202F65"/>
            <stop offset="1" stop-color="#021E2F"/>
        </linearGradient>
        <linearGradient id="paint8_linear" x1="22.3125" y1="93.5885" x2="22.3125" y2="51.6906" gradientUnits="userSpaceOnUse">
            <stop stop-color="#F3C57A"/>
            <stop offset="0.49" stop-color="#F39369"/>
            <stop offset="1" stop-color="#E94867"/>
        </linearGradient>
        <linearGradient id="paint9_linear" x1="203.176" y1="487.119" x2="203.176" y2="358.376" gradientUnits="userSpaceOnUse">
            <stop stop-color="white"/>
            <stop offset="0.52" stop-color="#CCE2E6"/>
            <stop offset="1" stop-color="#8FA1BB"/>
        </linearGradient>
        <linearGradient id="paint10_linear" x1="297.834" y1="487.119" x2="297.834" y2="358.376" gradientUnits="userSpaceOnUse">
            <stop stop-color="white"/>
            <stop offset="0.52" stop-color="#CCE2E6"/>
            <stop offset="1" stop-color="#8FA1BB"/>
        </linearGradient>
        <linearGradient id="paint11_linear" x1="392.492" y1="487.119" x2="392.492" y2="358.376" gradientUnits="userSpaceOnUse">
            <stop stop-color="white"/>
            <stop offset="0.52" stop-color="#CCE2E6"/>
            <stop offset="1" stop-color="#8FA1BB"/>
        </linearGradient>
        <linearGradient id="paint12_linear" x1="487.149" y1="487.119" x2="487.149" y2="358.376" gradientUnits="userSpaceOnUse">
            <stop stop-color="white"/>
            <stop offset="0.52" stop-color="#CCE2E6"/>
            <stop offset="1" stop-color="#8FA1BB"/>
        </linearGradient>
    </defs>
</svg>
