<svg width="135" height="56" viewBox="0 0 135 56" fill="none" xmlns="http://www.w3.org/2000/svg">
<path d="M102.466 4.22336C101.259 2.69439 94.4596 3.50096 91.4075 3.85865C90.4776 3.97087 90.3357 3.17132 91.1732 2.5962C96.589 -1.1701 105.476 -0.0829929 106.512 1.17945C107.548 2.44892 106.242 11.251 101.153 15.4521C100.372 16.0974 99.6269 15.7537 99.9747 14.8981C101.117 12.0786 103.68 5.75934 102.466 4.22336Z" fill="#363694"/>
<path d="M77.0978 49.0603C73.2533 52.6427 67.5849 54.6638 62.6563 54.8135C55.7458 55.0234 49.4325 52.1722 44.5728 47.2588C44.191 46.8724 44.506 46.3205 44.9591 46.6166C50.1448 49.9775 56.4893 51.9015 62.9768 51.7045C67.3521 51.5716 72.1327 50.3487 76.4907 47.9799C77.149 47.6218 77.7341 48.4634 77.0978 49.0603Z" fill="#363694"/>
<path d="M6.91683 24.399C7.92905 24.399 8.82077 24.6082 9.59198 25.0267C10.3632 25.4453 10.9577 26.0408 11.3754 26.8134C11.8092 27.57 12.0261 28.4472 12.0261 29.4452C12.0261 30.4271 11.8092 31.2963 11.3754 32.0528C10.9416 32.8093 10.323 33.3968 9.51968 33.8153C8.7324 34.2178 7.81658 34.419 6.77223 34.419H2.94026C2.84385 34.419 2.79565 34.4672 2.79565 34.5638V40.938C2.79565 41.1955 2.66712 41.3243 2.41005 41.3243H0.385607C0.128536 41.3243 0 41.1955 0 40.938V24.7853C0 24.5278 0.128536 24.399 0.385607 24.399H6.91683ZM6.50712 32.1494C7.32654 32.1494 7.98528 31.9079 8.48336 31.425C8.98144 30.9422 9.23047 30.3063 9.23047 29.5176C9.23047 28.7128 8.98144 28.0609 8.48336 27.5619C7.98528 27.0629 7.32654 26.8134 6.50712 26.8134H2.94026C2.84385 26.8134 2.79565 26.8617 2.79565 26.9583V32.0045C2.79565 32.1011 2.84385 32.1494 2.94026 32.1494H6.50712Z" fill="#363694"/>
<path d="M19.9486 28.8416C20.4145 28.8416 20.8403 28.9301 21.2259 29.1072C21.4187 29.2037 21.491 29.3647 21.4428 29.5901L21.0572 31.5941C21.0411 31.7228 20.9929 31.8033 20.9126 31.8355C20.8483 31.8677 20.7439 31.8677 20.5993 31.8355C20.4065 31.7711 20.1494 31.7389 19.8281 31.7389C19.6353 31.7389 19.4826 31.747 19.3702 31.7631C18.6954 31.7953 18.133 32.0367 17.6831 32.4874C17.2333 32.922 17.0083 33.4934 17.0083 34.2017V40.938C17.0083 41.1955 16.8798 41.3243 16.6227 41.3243H14.5983C14.3412 41.3243 14.2127 41.1955 14.2127 40.938V29.3728C14.2127 29.1152 14.3412 28.9864 14.5983 28.9864H16.6227C16.8798 28.9864 17.0083 29.1152 17.0083 29.3728V30.3144C17.0083 30.3788 17.0244 30.419 17.0565 30.4351C17.0887 30.4512 17.1208 30.4271 17.1529 30.3627C17.8277 29.3486 18.7596 28.8416 19.9486 28.8416Z" fill="#363694"/>
<path d="M28.2924 41.5174C27.0231 41.5174 25.9306 41.1955 25.0148 40.5517C24.0989 39.9078 23.4643 39.0145 23.1108 37.8716C22.8377 37.0829 22.7011 36.1654 22.7011 35.1192C22.7011 34.089 22.8297 33.1715 23.0867 32.3667C23.4563 31.2399 24.0989 30.3627 25.0148 29.7349C25.9306 29.1072 27.0312 28.7933 28.3165 28.7933C29.5376 28.7933 30.59 29.1072 31.4737 29.7349C32.3734 30.3627 33.0081 31.2319 33.3776 32.3425C33.6668 33.1152 33.8114 34.0326 33.8114 35.095C33.8114 36.1091 33.6749 37.0266 33.4017 37.8475C33.0322 38.9903 32.3975 39.8917 31.4978 40.5517C30.598 41.1955 29.5296 41.5174 28.2924 41.5174ZM28.2924 39.103C28.8869 39.103 29.393 38.934 29.8108 38.596C30.2446 38.2579 30.5498 37.7831 30.7266 37.1714C30.9033 36.6564 30.9917 35.9803 30.9917 35.1433C30.9917 34.3546 30.9113 33.6785 30.7507 33.1152C30.5739 32.5035 30.2606 32.0367 29.8108 31.7148C29.3769 31.3768 28.8548 31.2077 28.2442 31.2077C27.6337 31.2077 27.1115 31.3768 26.6777 31.7148C26.2439 32.0367 25.9386 32.5035 25.7619 33.1152C25.6012 33.6785 25.5209 34.3546 25.5209 35.1433C25.5209 35.932 25.6012 36.6081 25.7619 37.1714C25.9386 37.7831 26.2439 38.2579 26.6777 38.596C27.1276 38.934 27.6658 39.103 28.2924 39.103Z" fill="#363694"/>
<path d="M42.7681 28.9623C43.0252 28.9623 43.1537 29.0911 43.1537 29.3486V31.0629C43.1537 31.3204 43.0252 31.4492 42.7681 31.4492H40.5027C40.4063 31.4492 40.3581 31.4975 40.3581 31.5941V40.938C40.3581 41.1955 40.2296 41.3243 39.9725 41.3243H37.9481C37.691 41.3243 37.5624 41.1955 37.5624 40.938V31.5941C37.5624 31.4975 37.5142 31.4492 37.4178 31.4492H36.0441C35.787 31.4492 35.6585 31.3204 35.6585 31.0629V29.3486C35.6585 29.0911 35.787 28.9623 36.0441 28.9623H37.4178C37.5142 28.9623 37.5624 28.914 37.5624 28.8174V28.407C37.5624 27.3607 37.699 26.5559 37.9722 25.9925C38.2453 25.4131 38.6952 25.0026 39.3218 24.7612C39.9484 24.5197 40.8321 24.407 41.9728 24.4231H42.7199C42.977 24.4231 43.1055 24.5519 43.1055 24.8094V26.3064C43.1055 26.5639 42.977 26.6927 42.7199 26.6927H42.1897C41.4989 26.6927 41.0168 26.8295 40.7437 27.1032C40.4866 27.3768 40.3581 27.8758 40.3581 28.6001V28.8174C40.3581 28.914 40.4063 28.9623 40.5027 28.9623H42.7681ZM47.1062 27.4412C46.576 27.4412 46.1422 27.2802 45.8048 26.9583C45.4674 26.6203 45.2987 26.1937 45.2987 25.6787C45.2987 25.1636 45.4674 24.7451 45.8048 24.4231C46.1422 24.1012 46.576 23.9402 47.1062 23.9402C47.6364 23.9402 48.0622 24.1012 48.3835 24.4231C48.721 24.7451 48.8897 25.1636 48.8897 25.6787C48.8897 26.1937 48.721 26.6203 48.3835 26.9583C48.0622 27.2802 47.6364 27.4412 47.1062 27.4412ZM46.094 41.3243C45.8369 41.3243 45.7084 41.1955 45.7084 40.938V29.3728C45.7084 29.1152 45.8369 28.9864 46.094 28.9864H48.1184C48.3755 28.9864 48.5041 29.1152 48.5041 29.3728V40.938C48.5041 41.1955 48.3755 41.3243 48.1184 41.3243H46.094Z" fill="#363694"/>
<path d="M58.189 30.8697C58.189 31.1273 58.0605 31.256 57.8034 31.256H55.4657C55.3693 31.256 55.3211 31.3043 55.3211 31.4009V37.099C55.3211 37.7268 55.4496 38.1775 55.7067 38.4511C55.9798 38.7247 56.4056 38.8615 56.984 38.8615H57.6106C57.8677 38.8615 57.9962 38.9903 57.9962 39.2479V40.8655C57.9962 41.1231 57.8677 41.2599 57.6106 41.276L56.4538 41.3001C55.1845 41.3001 54.2366 41.0828 53.61 40.6482C52.9833 40.1975 52.662 39.3686 52.6459 38.1614V31.4009C52.6459 31.3043 52.5977 31.256 52.5013 31.256H51.2481C50.991 31.256 50.8625 31.1273 50.8625 30.8697V29.3728C50.8625 29.1152 50.991 28.9864 51.2481 28.9864H52.5013C52.5977 28.9864 52.6459 28.9382 52.6459 28.8416V26.1374C52.6459 25.8799 52.7745 25.7511 53.0315 25.7511H54.9355C55.1926 25.7511 55.3211 25.8799 55.3211 26.1374V28.8416C55.3211 28.9382 55.3693 28.9864 55.4657 28.9864H57.8034C58.0605 28.9864 58.189 29.1152 58.189 29.3728V30.8697Z" fill="#363694"/>
<path d="M64.7208 41.3243C64.5441 41.3243 64.4316 41.2358 64.3834 41.0587L59.8043 24.7853L59.7802 24.6887C59.7802 24.5117 59.8766 24.4231 60.0694 24.4231H61.2504C61.4271 24.4231 61.5396 24.5117 61.5878 24.6887L65.2028 37.775C65.2189 37.8233 65.243 37.8475 65.2751 37.8475C65.3073 37.8475 65.3314 37.8233 65.3475 37.775L68.7215 24.6887C68.7697 24.5117 68.8902 24.4231 69.083 24.4231H70.2398C70.4166 24.4231 70.5291 24.5117 70.5772 24.6887L74.0959 37.7992C74.112 37.8475 74.1361 37.8716 74.1682 37.8716C74.2004 37.8716 74.2244 37.8475 74.2405 37.7992L77.8556 24.6887C77.9038 24.5117 78.0163 24.4231 78.193 24.4231H79.3016C79.4141 24.4231 79.4944 24.4553 79.5426 24.5197C79.5908 24.5841 79.5989 24.6726 79.5667 24.7853L75.0599 41.0587C75.0117 41.2358 74.8993 41.3243 74.7225 41.3243H73.5657C73.3729 41.3243 73.2524 41.2358 73.2042 41.0587L69.7337 27.6344C69.7177 27.5861 69.6936 27.5619 69.6614 27.5619C69.6293 27.5619 69.6052 27.5861 69.5891 27.6344L66.1669 41.0587C66.1187 41.2358 65.9982 41.3243 65.8054 41.3243H64.7208Z" fill="#363694"/>
<path d="M87.1842 28.9382C88.4534 28.9382 89.4657 29.3164 90.2208 30.073C90.992 30.8295 91.3776 31.8435 91.3776 33.1152V41.0104C91.3776 41.2197 91.2732 41.3243 91.0643 41.3243H89.9798C89.7709 41.3243 89.6665 41.2197 89.6665 41.0104V33.4532C89.6665 32.5518 89.4014 31.8275 88.8712 31.2802C88.341 30.7168 87.6501 30.4351 86.7985 30.4351C85.9791 30.4351 85.2963 30.6685 84.75 31.1353C84.2198 31.6021 83.9145 32.2138 83.8342 32.9703V41.0104C83.8342 41.2197 83.7298 41.3243 83.5209 41.3243H82.4364C82.2275 41.3243 82.1231 41.2197 82.1231 41.0104V24.737C82.1231 24.5278 82.2275 24.4231 82.4364 24.4231H83.5209C83.7298 24.4231 83.8342 24.5278 83.8342 24.737V30.3144C83.8342 30.3627 83.8503 30.4029 83.8824 30.4351C83.9145 30.4512 83.9386 30.4351 83.9547 30.3868C84.6616 29.421 85.7381 28.9382 87.1842 28.9382Z" fill="#363694"/>
<path d="M99.3323 28.914C100.778 28.914 101.895 29.2842 102.682 30.0247C103.486 30.7651 103.887 31.747 103.887 32.9703V41.0104C103.887 41.2197 103.783 41.3243 103.574 41.3243H102.489C102.281 41.3243 102.176 41.2197 102.176 41.0104V40.1412C102.176 40.0929 102.16 40.0607 102.128 40.0446C102.096 40.0285 102.064 40.0446 102.032 40.0929C101.598 40.5597 101.051 40.9138 100.393 41.1553C99.75 41.3967 99.0431 41.5174 98.2719 41.5174C97.1472 41.5174 96.1992 41.2277 95.428 40.6482C94.6729 40.0688 94.2953 39.1835 94.2953 37.9923C94.2953 36.7851 94.7291 35.8354 95.5967 35.1433C96.4804 34.4351 97.7015 34.0809 99.26 34.0809H102.056C102.136 34.0809 102.176 34.0407 102.176 33.9602V33.0669C102.176 32.246 101.943 31.6021 101.477 31.1353C101.027 30.6524 100.32 30.411 99.3564 30.411C98.6012 30.411 97.9827 30.5558 97.5007 30.8456C97.0186 31.1353 96.7134 31.5377 96.5848 32.0528C96.5366 32.246 96.4161 32.3264 96.2233 32.2942L95.0424 32.1494C94.8335 32.1172 94.7371 32.0287 94.7532 31.8838C94.9139 30.9985 95.4039 30.2822 96.2233 29.7349C97.0588 29.1877 98.0951 28.914 99.3323 28.914ZM98.6575 40.0446C99.6054 40.0446 100.425 39.8112 101.116 39.3444C101.823 38.8615 102.176 38.2177 102.176 37.4129V35.5538C102.176 35.4733 102.136 35.433 102.056 35.433H99.5251C98.4647 35.433 97.6131 35.6503 96.9705 36.0849C96.3278 36.5195 96.0064 37.1231 96.0064 37.8958C96.0064 38.604 96.2555 39.1432 96.7535 39.5134C97.2516 39.8676 97.8863 40.0446 98.6575 40.0446Z" fill="#363694"/>
<path d="M107.737 41.3243C107.528 41.3243 107.424 41.2197 107.424 41.0104V24.737C107.424 24.5278 107.528 24.4231 107.737 24.4231H108.822C109.031 24.4231 109.135 24.5278 109.135 24.737V41.0104C109.135 41.2197 109.031 41.3243 108.822 41.3243H107.737Z" fill="#363694"/>
<path d="M117.773 40.0446C118.496 40.0285 119.115 39.8676 119.629 39.5617C120.159 39.2398 120.569 38.7972 120.858 38.2338C120.89 38.1533 120.946 38.097 121.027 38.0648C121.107 38.0326 121.187 38.0406 121.268 38.0889L121.967 38.4752C122.159 38.5879 122.208 38.7247 122.111 38.8857C121.726 39.6905 121.147 40.3344 120.376 40.8173C119.605 41.284 118.689 41.5174 117.628 41.5174C116.504 41.5174 115.556 41.2519 114.785 40.7207C114.013 40.1895 113.459 39.4491 113.122 38.4994C112.816 37.6946 112.664 36.5839 112.664 35.1674C112.664 34.4753 112.672 33.928 112.688 33.5256C112.72 33.1071 112.784 32.7208 112.881 32.3667C113.154 31.3204 113.7 30.4834 114.52 29.8556C115.355 29.2279 116.359 28.914 117.532 28.914C118.93 28.914 120.022 29.2762 120.81 30.0005C121.613 30.7249 122.127 31.747 122.352 33.0669C122.449 33.582 122.497 34.3868 122.497 35.4813C122.497 35.6906 122.392 35.7952 122.183 35.7952H114.471C114.391 35.7952 114.351 35.8354 114.351 35.9159C114.351 36.7207 114.399 37.3083 114.495 37.6785C114.672 38.4028 115.042 38.9823 115.604 39.4169C116.182 39.8354 116.905 40.0446 117.773 40.0446ZM117.532 30.411C116.729 30.411 116.07 30.6202 115.556 31.0387C115.042 31.4411 114.704 31.9884 114.544 32.6806C114.447 33.0025 114.383 33.5498 114.351 34.3224C114.351 34.4029 114.391 34.4431 114.471 34.4431H120.665C120.745 34.4431 120.786 34.4029 120.786 34.3224C120.754 33.6141 120.705 33.0991 120.641 32.7771C120.464 32.0528 120.103 31.4814 119.557 31.0629C119.026 30.6283 118.352 30.411 117.532 30.411Z" fill="#363694"/>
<path d="M129.9 41.445C129 41.445 128.197 41.3001 127.49 41.0104C126.799 40.7207 126.261 40.3344 125.875 39.8515C125.506 39.3686 125.321 38.8294 125.321 38.2338V38.0165C125.321 37.8072 125.425 37.7026 125.634 37.7026H126.67C126.767 37.7026 126.839 37.7268 126.887 37.775C126.952 37.8072 126.984 37.8555 126.984 37.9199V38.1372C126.984 38.6684 127.257 39.1352 127.803 39.5376C128.349 39.9239 129.04 40.1171 129.876 40.1171C130.711 40.1171 131.386 39.932 131.9 39.5617C132.414 39.1754 132.672 38.6925 132.672 38.1131C132.672 37.7107 132.543 37.3807 132.286 37.1231C132.029 36.8656 131.716 36.6644 131.346 36.5195C130.976 36.3747 130.422 36.1896 129.683 35.9642C128.783 35.7067 128.044 35.4491 127.466 35.1916C126.887 34.934 126.397 34.5799 125.996 34.1292C125.594 33.6624 125.393 33.0749 125.393 32.3667C125.393 31.3365 125.795 30.5156 126.598 29.9039C127.418 29.2923 128.486 28.9864 129.804 28.9864C130.687 28.9864 131.466 29.1313 132.141 29.421C132.832 29.7108 133.362 30.1132 133.732 30.6283C134.101 31.1273 134.286 31.6906 134.286 32.3184C134.286 32.5276 134.182 32.6323 133.973 32.6323H132.985C132.776 32.6323 132.672 32.5759 132.672 32.4633V32.3184C132.672 31.7711 132.406 31.3124 131.876 30.9422C131.362 30.5719 130.663 30.3868 129.779 30.3868C128.96 30.3868 128.301 30.5558 127.803 30.8939C127.305 31.2158 127.056 31.6665 127.056 32.246C127.056 32.7932 127.289 33.2117 127.755 33.5015C128.237 33.7912 128.984 34.0809 129.996 34.3707C130.928 34.6282 131.683 34.8777 132.262 35.1192C132.84 35.3606 133.338 35.7147 133.756 36.1815C134.174 36.6483 134.383 37.2519 134.383 37.9923C134.383 39.0386 133.973 39.8756 133.154 40.5034C132.35 41.1311 131.266 41.445 129.9 41.445Z" fill="#363694"/>
<g opacity="0.5">
<path d="M36.542 16.0293C35.7948 16.0293 35.1397 15.9113 34.5768 15.6753C34.024 15.4393 33.5941 15.1058 33.2871 14.6748C32.9902 14.2336 32.8418 13.7257 32.8418 13.1511V12.7201C32.8418 12.5868 32.9083 12.5201 33.0414 12.5201H33.7016C33.8347 12.5201 33.9012 12.5868 33.9012 12.7201V13.0895C33.9012 13.6744 34.1469 14.1515 34.6382 14.5209C35.1295 14.8903 35.7897 15.075 36.6188 15.075C37.4069 15.075 38.0057 14.9108 38.4151 14.5825C38.8246 14.2439 39.0293 13.7975 39.0293 13.2434C39.0293 12.8843 38.932 12.5765 38.7376 12.32C38.5533 12.0635 38.2667 11.8223 37.8778 11.5966C37.4888 11.3709 36.931 11.1092 36.2042 10.8116C35.4366 10.5038 34.8378 10.237 34.4079 10.0113C33.9882 9.7753 33.6453 9.47773 33.3792 9.11861C33.1233 8.74922 32.9953 8.28748 32.9953 7.7334C32.9953 6.87149 33.2922 6.20454 33.8858 5.73254C34.4897 5.25028 35.3188 5.00916 36.3731 5.00916C37.499 5.00916 38.3896 5.27594 39.0446 5.8095C39.6997 6.34306 40.0273 7.05105 40.0273 7.93348V8.22592C40.0273 8.35931 39.9607 8.426 39.8277 8.426H39.1521C39.0191 8.426 38.9525 8.35931 38.9525 8.22592V7.99505C38.9525 7.39992 38.7222 6.91253 38.2616 6.53288C37.801 6.15323 37.151 5.96341 36.3117 5.96341C35.585 5.96341 35.0271 6.11219 34.6382 6.40975C34.2594 6.70732 34.0701 7.13827 34.0701 7.70261C34.0701 8.072 34.1622 8.37983 34.3464 8.62609C34.5409 8.86209 34.8122 9.07243 35.1602 9.25713C35.5184 9.43156 36.0609 9.66243 36.7877 9.94973C37.5349 10.2576 38.1388 10.5449 38.5994 10.8116C39.06 11.0784 39.4285 11.4068 39.7048 11.7967C39.9812 12.1763 40.1194 12.6432 40.1194 13.1973C40.1194 14.0489 39.8021 14.7364 39.1675 15.2597C38.5431 15.7727 37.6679 16.0293 36.542 16.0293Z" fill="#363694"/>
<path d="M45.1698 16.0293C44.4226 16.0293 43.7828 15.8394 43.2506 15.4598C42.7285 15.0801 42.3652 14.5568 42.1605 13.8899C42.0172 13.4179 41.9455 12.7868 41.9455 11.9968C41.9455 11.2169 42.012 10.591 42.1451 10.119C42.3498 9.46234 42.7132 8.94417 43.2352 8.56452C43.7675 8.18487 44.4123 7.99505 45.1698 7.99505C45.9067 7.99505 46.5362 8.18487 47.0582 8.56452C47.5905 8.94417 47.9539 9.45721 48.1484 10.1036C48.2917 10.5962 48.3633 11.2272 48.3633 11.9968C48.3633 12.7868 48.2917 13.4179 48.1484 13.8899C47.9436 14.5568 47.5752 15.0801 47.0429 15.4598C46.5209 15.8394 45.8965 16.0293 45.1698 16.0293ZM45.1698 15.075C45.6611 15.075 46.0807 14.9416 46.4288 14.6748C46.7768 14.3978 47.0122 14.0284 47.135 13.5667C47.2169 13.2383 47.2578 12.7201 47.2578 12.0122C47.2578 11.2734 47.2169 10.7552 47.135 10.4576C47.0224 9.9959 46.787 9.63165 46.4288 9.36486C46.0807 9.08782 45.6508 8.9493 45.139 8.9493C44.6477 8.9493 44.2281 9.08782 43.8801 9.36486C43.532 9.63165 43.2966 9.9959 43.1738 10.4576C43.0919 10.7552 43.051 11.2734 43.051 12.0122C43.051 12.7509 43.0919 13.2691 43.1738 13.5667C43.2864 14.0284 43.5167 14.3978 43.8647 14.6748C44.223 14.9416 44.658 15.075 45.1698 15.075Z" fill="#363694"/>
<path d="M53.5534 6.08654C52.9904 6.08654 52.6066 6.2148 52.4019 6.47132C52.1972 6.71758 52.0948 7.1434 52.0948 7.74879V8.04122C52.0948 8.09253 52.1204 8.11818 52.1716 8.11818H53.8298C53.9628 8.11818 54.0294 8.18487 54.0294 8.31826V8.91852C54.0294 9.05191 53.9628 9.11861 53.8298 9.11861H52.1716C52.1204 9.11861 52.0948 9.14426 52.0948 9.19556V15.706C52.0948 15.8394 52.0283 15.9061 51.8952 15.9061H51.2197C51.0866 15.9061 51.0201 15.8394 51.0201 15.706V9.19556C51.0201 9.14426 50.9945 9.11861 50.9433 9.11861H49.976C49.843 9.11861 49.7764 9.05191 49.7764 8.91852V8.31826C49.7764 8.18487 49.843 8.11818 49.976 8.11818H50.9433C50.9945 8.11818 51.0201 8.09253 51.0201 8.04122V7.68722C51.0201 7.05105 51.0917 6.55341 51.235 6.19428C51.3783 5.82489 51.624 5.55811 51.972 5.39393C52.3302 5.2195 52.8267 5.13228 53.4613 5.13228H53.8605C53.9935 5.13228 54.0601 5.19898 54.0601 5.33237V5.88645C54.0601 6.01984 53.9935 6.08654 53.8605 6.08654H53.5534Z" fill="#363694"/>
<path d="M59.4407 8.82617C59.4407 8.95956 59.3741 9.02626 59.2411 9.02626H57.5675C57.5163 9.02626 57.4908 9.05191 57.4908 9.10321V13.5974C57.4908 14.09 57.5982 14.4388 57.8132 14.644C58.0384 14.839 58.3864 14.9365 58.8572 14.9365H59.195C59.3281 14.9365 59.3946 15.0032 59.3946 15.1366V15.6753C59.3946 15.8086 59.3281 15.8805 59.195 15.8907H58.673C57.936 15.8907 57.3782 15.7522 56.9994 15.4752C56.6207 15.1981 56.4314 14.6851 56.4314 13.9361V9.10321C56.4314 9.05191 56.4058 9.02626 56.3546 9.02626H55.4794C55.3464 9.02626 55.2798 8.95956 55.2798 8.82617V8.31826C55.2798 8.18487 55.3464 8.11818 55.4794 8.11818H56.3546C56.4058 8.11818 56.4314 8.09253 56.4314 8.04122V6.31741C56.4314 6.18402 56.4979 6.11732 56.631 6.11732H57.2912C57.4242 6.11732 57.4908 6.18402 57.4908 6.31741V8.04122C57.4908 8.09253 57.5163 8.11818 57.5675 8.11818H59.2411C59.3741 8.11818 59.4407 8.18487 59.4407 8.31826V8.82617Z" fill="#363694"/>
<path d="M63.1909 15.9061C63.0783 15.9061 63.0067 15.8497 62.9759 15.7368L60.8264 8.34905C60.8162 8.32852 60.8111 8.30287 60.8111 8.27209C60.8111 8.23105 60.8264 8.19513 60.8572 8.16435C60.8981 8.13357 60.9442 8.11818 60.9953 8.11818H61.717C61.8295 8.11818 61.9012 8.17461 61.9319 8.28748L63.5287 14.29C63.5389 14.3208 63.5543 14.3362 63.5747 14.3362C63.5952 14.3362 63.6106 14.3208 63.6208 14.29L65.2636 8.28748C65.2943 8.17461 65.366 8.11818 65.4786 8.11818H66.1541C66.2667 8.11818 66.3384 8.17461 66.3691 8.28748L68.0426 14.29C68.0529 14.3208 68.0682 14.3362 68.0887 14.3362C68.1092 14.3362 68.1245 14.3208 68.1347 14.29L69.7776 8.28748C69.8083 8.17461 69.8851 8.11818 70.0079 8.11818L70.7141 8.13357C70.7858 8.13357 70.837 8.15409 70.8677 8.19513C70.8984 8.23618 70.9035 8.29261 70.883 8.36444L68.7028 15.7368C68.6721 15.8497 68.6005 15.9061 68.4879 15.9061H67.7355C67.623 15.9061 67.5513 15.8497 67.5206 15.7368L65.8624 10.0575C65.8522 10.0267 65.8368 10.0113 65.8164 10.0113C65.7959 10.0113 65.7805 10.0267 65.7703 10.0575L64.1735 15.7368C64.1428 15.8497 64.0712 15.9061 63.9586 15.9061H63.1909Z" fill="#363694"/>
<path d="M75.1354 7.99505C76.0566 7.99505 76.768 8.23105 77.2695 8.70304C77.7813 9.17504 78.0372 9.80095 78.0372 10.5808V15.706C78.0372 15.8394 77.9707 15.9061 77.8376 15.9061H77.1467C77.0136 15.9061 76.9471 15.8394 76.9471 15.706V15.152C76.9471 15.1212 76.9369 15.1007 76.9164 15.0904C76.8959 15.0801 76.8755 15.0904 76.855 15.1212C76.5786 15.4187 76.2306 15.6445 75.8109 15.7984C75.4015 15.9523 74.9511 16.0293 74.4598 16.0293C73.7433 16.0293 73.1394 15.8446 72.6481 15.4752C72.167 15.1058 71.9265 14.5414 71.9265 13.7821C71.9265 13.0126 72.2028 12.4072 72.7556 11.966C73.3185 11.5145 74.0964 11.2888 75.0893 11.2888H76.8703C76.9215 11.2888 76.9471 11.2631 76.9471 11.2118V10.6423C76.9471 10.119 76.7987 9.7086 76.5018 9.41104C76.2152 9.10321 75.7649 8.9493 75.1507 8.9493C74.6697 8.9493 74.2756 9.04165 73.9685 9.22634C73.6614 9.41104 73.467 9.66756 73.3851 9.9959C73.3544 10.119 73.2776 10.1703 73.1548 10.1498L72.4024 10.0575C72.2694 10.0369 72.208 9.98051 72.2182 9.88817C72.3206 9.32382 72.6327 8.86722 73.1548 8.51835C73.687 8.16948 74.3472 7.99505 75.1354 7.99505ZM74.7055 15.0904C75.3094 15.0904 75.8314 14.9416 76.2715 14.644C76.7219 14.3362 76.9471 13.9258 76.9471 13.4128V12.2276C76.9471 12.1763 76.9215 12.1507 76.8703 12.1507H75.2582C74.5826 12.1507 74.0402 12.2892 73.6307 12.5662C73.2213 12.8433 73.0166 13.2281 73.0166 13.7206C73.0166 14.172 73.1752 14.5158 73.4925 14.7518C73.8099 14.9775 74.2142 15.0904 74.7055 15.0904Z" fill="#363694"/>
<path d="M83.4223 8.04122C83.7601 8.04122 84.0416 8.10279 84.2668 8.22592C84.3692 8.26696 84.405 8.34905 84.3743 8.47218L84.2207 9.14939C84.19 9.27252 84.1081 9.31356 83.9751 9.27252C83.7806 9.21095 83.5298 9.1853 83.2228 9.19556C82.6905 9.21608 82.2504 9.41617 81.9023 9.79582C81.5543 10.1652 81.3803 10.6372 81.3803 11.2118V15.706C81.3803 15.8394 81.3138 15.9061 81.1807 15.9061H80.4898C80.3568 15.9061 80.2902 15.8394 80.2902 15.706V8.31826C80.2902 8.18487 80.3568 8.11818 80.4898 8.11818H81.1807C81.3138 8.11818 81.3803 8.18487 81.3803 8.31826V9.18017C81.3803 9.22121 81.3854 9.24687 81.3957 9.25713C81.4161 9.25713 81.4366 9.24174 81.4571 9.21095C81.672 8.84156 81.9433 8.55426 82.2708 8.34905C82.6086 8.14383 82.9924 8.04122 83.4223 8.04122Z" fill="#363694"/>
<path d="M88.8326 15.0904C89.2932 15.0801 89.6872 14.9775 90.0148 14.7826C90.3526 14.5774 90.6136 14.2952 90.7978 13.9361C90.8183 13.8847 90.8541 13.8488 90.9053 13.8283C90.9565 13.8078 91.0076 13.8129 91.0588 13.8437L91.5041 14.09C91.6269 14.1618 91.6576 14.249 91.5962 14.3516C91.3506 14.8647 90.9821 15.2751 90.4907 15.5829C89.9994 15.8805 89.416 16.0293 88.7404 16.0293C88.0239 16.0293 87.42 15.86 86.9287 15.5213C86.4374 15.1827 86.0843 14.7107 85.8693 14.1054C85.6748 13.5923 85.5776 12.8843 85.5776 11.9814C85.5776 11.5402 85.5827 11.1913 85.593 10.9348C85.6134 10.668 85.6544 10.4217 85.7158 10.196C85.8898 9.52904 86.2378 8.99548 86.7598 8.5953C87.2921 8.19513 87.9318 7.99505 88.679 7.99505C89.5695 7.99505 90.2656 8.22592 90.7671 8.68765C91.2789 9.14939 91.6064 9.80095 91.7497 10.6423C91.8112 10.9707 91.8419 11.4837 91.8419 12.1815C91.8419 12.3148 91.7753 12.3815 91.6423 12.3815H86.7291C86.6779 12.3815 86.6524 12.4072 86.6524 12.4585C86.6524 12.9715 86.6831 13.3461 86.7445 13.5821C86.8571 14.0438 87.0925 14.4132 87.4507 14.6902C87.8192 14.957 88.2798 15.0904 88.8326 15.0904ZM88.679 8.9493C88.1672 8.9493 87.7476 9.08269 87.42 9.34947C87.0925 9.60599 86.8775 9.95486 86.7752 10.3961C86.7138 10.6013 86.6728 10.9502 86.6524 11.4427C86.6524 11.494 86.6779 11.5196 86.7291 11.5196H90.675C90.7262 11.5196 90.7518 11.494 90.7518 11.4427C90.7313 10.9912 90.7006 10.6629 90.6596 10.4576C90.547 9.9959 90.3167 9.63165 89.9687 9.36486C89.6309 9.08782 89.201 8.9493 88.679 8.9493Z" fill="#363694"/>
</g>
</svg>
