<svg width="133" height="56" viewBox="0 0 133 56" fill="none" xmlns="http://www.w3.org/2000/svg">
<path d="M100.971 4.22038C99.7817 2.69249 93.0811 3.49849 90.0735 3.85593C89.1573 3.96807 89.0174 3.16908 89.8427 2.59437C95.1794 -1.16927 103.936 -0.0829342 104.957 1.17862C105.979 2.44719 104.692 11.243 99.6768 15.4412C98.9074 16.086 98.173 15.7426 98.5157 14.8875C99.6418 12.0701 102.167 5.75527 100.971 4.22038Z" fill="#38454F"/>
<path d="M75.9727 49.0258C72.1842 52.6056 66.5986 54.6253 61.742 54.7748C54.9323 54.9846 48.7111 52.1354 43.9224 47.2256C43.5462 46.8395 43.8565 46.2879 44.303 46.5839C49.4131 49.9424 55.6649 51.865 62.0578 51.6681C66.3692 51.5353 71.08 50.3133 75.3744 47.9462C76.0231 47.5884 76.5997 48.4294 75.9727 49.0258Z" fill="#38454F"/>
<path d="M6.81589 24.3818C7.81334 24.3818 8.69204 24.5909 9.452 25.0091C10.212 25.4273 10.7978 26.0224 11.2094 26.7945C11.6369 27.5505 11.8506 28.4272 11.8506 29.4244C11.8506 30.4056 11.6369 31.2742 11.2094 32.0302C10.7819 32.7862 10.1724 33.3733 9.38075 33.7916C8.60496 34.1937 7.70251 34.3947 6.6734 34.3947H2.89735C2.80235 34.3947 2.75485 34.443 2.75485 34.5395V40.9092C2.75485 41.1666 2.62819 41.2953 2.37487 41.2953H0.37998C0.12666 41.2953 0 41.1666 0 40.9092V24.7678C0 24.5104 0.12666 24.3818 0.37998 24.3818H6.81589ZM6.41216 32.1267C7.21962 32.1267 7.86875 31.8855 8.35956 31.4029C8.85036 30.9204 9.09577 30.285 9.09577 29.4968C9.09577 28.6926 8.85036 28.0411 8.35956 27.5425C7.86875 27.0439 7.21962 26.7945 6.41216 26.7945H2.89735C2.80235 26.7945 2.75485 26.8428 2.75485 26.9393V31.982C2.75485 32.0785 2.80235 32.1267 2.89735 32.1267H6.41216Z" fill="#38454F"/>
<path d="M19.6575 28.8213C20.1166 28.8213 20.5362 28.9097 20.9161 29.0867C21.1061 29.1832 21.1774 29.344 21.1299 29.5692L20.7499 31.5718C20.7341 31.7005 20.6866 31.7809 20.6074 31.8131C20.5441 31.8453 20.4412 31.8453 20.2987 31.8131C20.1087 31.7487 19.8554 31.7166 19.5387 31.7166C19.3487 31.7166 19.1983 31.7246 19.0875 31.7407C18.4225 31.7729 17.8684 32.0142 17.4251 32.4645C16.9818 32.8988 16.7601 33.4699 16.7601 34.1776V40.9092C16.7601 41.1666 16.6335 41.2953 16.3801 41.2953H14.3852C14.1319 41.2953 14.0053 41.1666 14.0053 40.9092V29.3521C14.0053 29.0947 14.1319 28.966 14.3852 28.966H16.3801C16.6335 28.966 16.7601 29.0947 16.7601 29.3521V30.293C16.7601 30.3574 16.776 30.3976 16.8076 30.4137C16.8393 30.4298 16.8709 30.4056 16.9026 30.3413C17.5676 29.3279 18.4859 28.8213 19.6575 28.8213Z" fill="#38454F"/>
<path d="M27.8795 41.4883C26.6288 41.4883 25.5522 41.1666 24.6497 40.5232C23.7473 39.8798 23.1219 38.987 22.7736 37.845C22.5044 37.0568 22.3698 36.14 22.3698 35.0944C22.3698 34.065 22.4965 33.1482 22.7498 32.3439C23.114 31.2179 23.7473 30.3413 24.6497 29.714C25.5522 29.0867 26.6367 28.773 27.9033 28.773C29.1066 28.773 30.1436 29.0867 31.0144 29.714C31.901 30.3413 32.5264 31.2099 32.8905 32.3198C33.1755 33.0919 33.318 34.0087 33.318 35.0703C33.318 36.0837 33.1834 37.0005 32.9143 37.8209C32.5501 38.9629 31.9247 39.8637 31.0381 40.5232C30.1515 41.1666 29.0986 41.4883 27.8795 41.4883ZM27.8795 39.0755C28.4653 39.0755 28.9641 38.9066 29.3757 38.5688C29.8032 38.231 30.104 37.7565 30.2782 37.1453C30.4523 36.6306 30.5394 35.955 30.5394 35.1186C30.5394 34.3304 30.4602 33.6548 30.3019 33.0919C30.1278 32.4806 29.819 32.0141 29.3757 31.6924C28.9482 31.3547 28.4337 31.1858 27.832 31.1858C27.2304 31.1858 26.7159 31.3547 26.2884 31.6924C25.8609 32.0141 25.5601 32.4806 25.3859 33.0919C25.2276 33.6548 25.1484 34.3304 25.1484 35.1186C25.1484 35.9067 25.2276 36.5823 25.3859 37.1453C25.5601 37.7565 25.8609 38.231 26.2884 38.5688C26.7317 38.9066 27.2621 39.0755 27.8795 39.0755Z" fill="#38454F"/>
<path d="M42.144 28.9419C42.3973 28.9419 42.524 29.0706 42.524 29.3279V31.041C42.524 31.2984 42.3973 31.427 42.144 31.427H39.9116C39.8166 31.427 39.7691 31.4753 39.7691 31.5718V40.9092C39.7691 41.1666 39.6425 41.2953 39.3891 41.2953H37.3942C37.1409 41.2953 37.0143 41.1666 37.0143 40.9092V31.5718C37.0143 31.4753 36.9668 31.427 36.8718 31.427H35.5181C35.2648 31.427 35.1381 31.2984 35.1381 31.041V29.3279C35.1381 29.0706 35.2648 28.9419 35.5181 28.9419H36.8718C36.9668 28.9419 37.0143 28.8936 37.0143 28.7971V28.387C37.0143 27.3414 37.1488 26.5372 37.418 25.9742C37.6871 25.3951 38.1305 24.985 38.7479 24.7437C39.3654 24.5024 40.2362 24.3898 41.3603 24.4059H42.0965C42.3498 24.4059 42.4765 24.5346 42.4765 24.7919V26.2879C42.4765 26.5452 42.3498 26.6739 42.0965 26.6739H41.574C40.8932 26.6739 40.4183 26.8106 40.1491 27.0841C39.8958 27.3575 39.7691 27.8561 39.7691 28.58V28.7971C39.7691 28.8936 39.8166 28.9419 39.9116 28.9419H42.144ZM46.4188 27.4219C45.8963 27.4219 45.4688 27.261 45.1363 26.9393C44.8039 26.6015 44.6376 26.1753 44.6376 25.6605C44.6376 25.1458 44.8039 24.7276 45.1363 24.4059C45.4688 24.0842 45.8963 23.9233 46.4188 23.9233C46.9412 23.9233 47.3608 24.0842 47.6775 24.4059C48.0099 24.7276 48.1762 25.1458 48.1762 25.6605C48.1762 26.1753 48.0099 26.6015 47.6775 26.9393C47.3608 27.261 46.9412 27.4219 46.4188 27.4219ZM45.4213 41.2953C45.168 41.2953 45.0413 41.1666 45.0413 40.9092V29.3521C45.0413 29.0947 45.168 28.966 45.4213 28.966H47.4162C47.6695 28.966 47.7962 29.0947 47.7962 29.3521V40.9092C47.7962 41.1666 47.6695 41.2953 47.4162 41.2953H45.4213Z" fill="#38454F"/>
<path d="M57.3399 30.848C57.3399 31.1053 57.2132 31.234 56.9599 31.234H54.6562C54.5613 31.234 54.5138 31.2823 54.5138 31.3788V37.0729C54.5138 37.7002 54.6404 38.1506 54.8937 38.4241C55.1629 38.6975 55.5824 38.8342 56.1524 38.8342H56.7699C57.0232 38.8342 57.1499 38.9629 57.1499 39.2203V40.8368C57.1499 41.0942 57.0232 41.2309 56.7699 41.247L55.6299 41.2711C54.3792 41.2711 53.4451 41.054 52.8276 40.6197C52.2101 40.1693 51.8935 39.3409 51.8776 38.1345V31.3788C51.8776 31.2823 51.8301 31.234 51.7351 31.234H50.5002C50.2469 31.234 50.1202 31.1053 50.1202 30.848V29.3521C50.1202 29.0947 50.2469 28.966 50.5002 28.966H51.7351C51.8301 28.966 51.8776 28.9178 51.8776 28.8213V26.119C51.8776 25.8616 52.0043 25.7329 52.2576 25.7329H54.1338C54.3871 25.7329 54.5138 25.8616 54.5138 26.119V28.8213C54.5138 28.9178 54.5613 28.966 54.6562 28.966H56.9599C57.2132 28.966 57.3399 29.0947 57.3399 29.3521V30.848Z" fill="#38454F"/>
<path d="M63.7763 41.2953C63.6022 41.2953 63.4913 41.2068 63.4438 41.0299L58.9316 24.7678L58.9078 24.6713C58.9078 24.4944 59.0028 24.4059 59.1928 24.4059H60.3565C60.5307 24.4059 60.6415 24.4944 60.689 24.6713L64.2513 37.7485C64.2671 37.7967 64.2909 37.8209 64.3225 37.8209C64.3542 37.8209 64.378 37.7967 64.3938 37.7485L67.7186 24.6713C67.7661 24.4944 67.8848 24.4059 68.0748 24.4059H69.2148C69.3889 24.4059 69.4998 24.4944 69.5473 24.6713L73.0146 37.7726C73.0304 37.8209 73.0542 37.845 73.0858 37.845C73.1175 37.845 73.1412 37.8209 73.1571 37.7726L76.7194 24.6713C76.7669 24.4944 76.8777 24.4059 77.0519 24.4059H78.1443C78.2551 24.4059 78.3343 24.4381 78.3818 24.5024C78.4293 24.5667 78.4372 24.6552 78.4055 24.7678L73.9645 41.0299C73.917 41.2068 73.8062 41.2953 73.6321 41.2953H72.4921C72.3021 41.2953 72.1834 41.2068 72.1359 41.0299L68.7161 27.6149C68.7002 27.5666 68.6765 27.5425 68.6448 27.5425C68.6131 27.5425 68.5894 27.5666 68.5736 27.6149L65.2012 41.0299C65.1537 41.2068 65.035 41.2953 64.845 41.2953H63.7763Z" fill="#38454F"/>
<path d="M85.9118 28.9178C87.1626 28.9178 88.16 29.2958 88.9042 30.0518C89.6641 30.8078 90.0441 31.8211 90.0441 33.0919V40.9816C90.0441 41.1907 89.9412 41.2953 89.7354 41.2953H88.6667C88.4609 41.2953 88.3579 41.1907 88.3579 40.9816V33.4296C88.3579 32.5289 88.0967 31.805 87.5742 31.2582C87.0518 30.6952 86.371 30.4137 85.5318 30.4137C84.7244 30.4137 84.0515 30.6469 83.5132 31.1134C82.9907 31.5799 82.6899 32.1911 82.6107 32.9471V40.9816C82.6107 41.1907 82.5078 41.2953 82.302 41.2953H81.2333C81.0275 41.2953 80.9246 41.1907 80.9246 40.9816V24.7196C80.9246 24.5104 81.0275 24.4059 81.2333 24.4059H82.302C82.5078 24.4059 82.6107 24.5104 82.6107 24.7196V30.293C82.6107 30.3413 82.6266 30.3815 82.6582 30.4137C82.6899 30.4298 82.7137 30.4137 82.7295 30.3654C83.4261 29.4003 84.4869 28.9178 85.9118 28.9178Z" fill="#38454F"/>
<path d="M97.8827 28.8936C99.3076 28.8936 100.408 29.2636 101.184 30.0035C101.975 30.7434 102.371 31.7246 102.371 32.9471V40.9816C102.371 41.1907 102.268 41.2953 102.062 41.2953H100.994C100.788 41.2953 100.685 41.1907 100.685 40.9816V40.113C100.685 40.0647 100.669 40.0326 100.638 40.0165C100.606 40.0004 100.574 40.0165 100.543 40.0647C100.115 40.5312 99.5768 40.8851 98.9276 41.1264C98.2943 41.3676 97.5977 41.4883 96.8377 41.4883C95.7295 41.4883 94.7953 41.1987 94.0354 40.6197C93.2912 40.0406 92.9192 39.1559 92.9192 37.9656C92.9192 36.7593 93.3467 35.8102 94.2016 35.1186C95.0724 34.4108 96.2757 34.057 97.8114 34.057H100.566C100.645 34.057 100.685 34.0167 100.685 33.9363V33.0436C100.685 32.2233 100.455 31.5799 99.9963 31.1134C99.553 30.6308 98.8564 30.3896 97.9064 30.3896C97.1623 30.3896 96.5527 30.5343 96.0778 30.8239C95.6028 31.1134 95.302 31.5155 95.1753 32.0302C95.1278 32.2233 95.0091 32.3037 94.8191 32.2715L93.6554 32.1267C93.4496 32.0946 93.3546 32.0061 93.3704 31.8613C93.5287 30.9767 94.0116 30.2609 94.8191 29.714C95.6424 29.1671 96.6636 28.8936 97.8827 28.8936ZM97.2177 40.0165C98.1518 40.0165 98.9593 39.7833 99.6401 39.3168C100.337 38.8342 100.685 38.1908 100.685 37.3866V35.5287C100.685 35.4483 100.645 35.4081 100.566 35.4081H98.0727C97.0277 35.4081 96.1886 35.6253 95.5553 36.0596C94.922 36.4939 94.6053 37.097 94.6053 37.8691C94.6053 38.5769 94.8507 39.1157 95.3416 39.4857C95.8324 39.8396 96.4577 40.0165 97.2177 40.0165Z" fill="#38454F"/>
<path d="M106.165 41.2953C105.959 41.2953 105.856 41.1907 105.856 40.9816V24.7196C105.856 24.5104 105.959 24.4059 106.165 24.4059H107.234C107.439 24.4059 107.542 24.5104 107.542 24.7196V40.9816C107.542 41.1907 107.439 41.2953 107.234 41.2953H106.165Z" fill="#38454F"/>
<path d="M116.054 40.0165C116.767 40.0004 117.376 39.8396 117.883 39.5339C118.405 39.2122 118.809 38.7699 119.094 38.2069C119.126 38.1265 119.181 38.0702 119.26 38.038C119.34 38.0059 119.419 38.0139 119.498 38.0622L120.187 38.4482C120.377 38.5608 120.424 38.6975 120.329 38.8584C119.949 39.6626 119.379 40.306 118.619 40.7886C117.859 41.255 116.957 41.4883 115.912 41.4883C114.804 41.4883 113.869 41.2229 113.11 40.6921C112.35 40.1613 111.803 39.4213 111.471 38.4723C111.17 37.6681 111.02 36.5582 111.02 35.1427C111.02 34.451 111.028 33.9042 111.043 33.502C111.075 33.0838 111.138 32.6978 111.233 32.3439C111.503 31.2984 112.041 30.4619 112.848 29.8346C113.672 29.2073 114.661 28.8936 115.817 28.8936C117.194 28.8936 118.271 29.2556 119.047 29.9794C119.838 30.7032 120.345 31.7246 120.567 33.0436C120.662 33.5583 120.709 34.3626 120.709 35.4564C120.709 35.6655 120.606 35.77 120.4 35.77H112.801C112.722 35.77 112.682 35.8102 112.682 35.8907C112.682 36.6949 112.73 37.282 112.825 37.652C112.999 38.3758 113.363 38.9549 113.917 39.3892C114.487 39.8074 115.199 40.0165 116.054 40.0165ZM115.817 30.3896C115.025 30.3896 114.376 30.5987 113.869 31.0169C113.363 31.419 113.03 31.9659 112.872 32.6576C112.777 32.9793 112.714 33.5262 112.682 34.2982C112.682 34.3787 112.722 34.4189 112.801 34.4189H118.904C118.983 34.4189 119.023 34.3787 119.023 34.2982C118.991 33.5905 118.944 33.0758 118.88 32.7541C118.706 32.0302 118.35 31.4592 117.812 31.041C117.289 30.6067 116.624 30.3896 115.817 30.3896Z" fill="#38454F"/>
<path d="M128.004 41.4159C127.118 41.4159 126.326 41.2711 125.629 40.9816C124.949 40.6921 124.418 40.306 124.038 39.8235C123.674 39.3409 123.492 38.8021 123.492 38.2069V37.9898C123.492 37.7807 123.595 37.6761 123.801 37.6761H124.822C124.917 37.6761 124.988 37.7002 125.036 37.7485C125.099 37.7807 125.131 37.8289 125.131 37.8933V38.1104C125.131 38.6412 125.4 39.1077 125.938 39.5098C126.476 39.8959 127.157 40.0889 127.98 40.0889C128.804 40.0889 129.469 39.9039 129.975 39.5339C130.482 39.1479 130.735 38.6653 130.735 38.0863C130.735 37.6842 130.609 37.3544 130.355 37.097C130.102 36.8397 129.793 36.6386 129.429 36.4939C129.065 36.3491 128.519 36.1641 127.79 35.9389C126.904 35.6816 126.176 35.4242 125.606 35.1668C125.036 34.9095 124.553 34.5556 124.157 34.1052C123.761 33.6387 123.563 33.0516 123.563 32.3439C123.563 31.3144 123.959 30.4941 124.751 29.8829C125.558 29.2716 126.611 28.966 127.909 28.966C128.78 28.966 129.548 29.1108 130.213 29.4003C130.894 29.6899 131.416 30.092 131.78 30.6067C132.144 31.1053 132.327 31.6683 132.327 32.2956C132.327 32.5047 132.224 32.6093 132.018 32.6093H131.044C130.838 32.6093 130.735 32.553 130.735 32.4404V32.2956C130.735 31.7487 130.474 31.2903 129.952 30.9204C129.445 30.5504 128.756 30.3654 127.885 30.3654C127.078 30.3654 126.429 30.5343 125.938 30.8721C125.447 31.1938 125.202 31.6442 125.202 32.2233C125.202 32.7702 125.431 33.1884 125.891 33.4779C126.366 33.7674 127.102 34.057 128.099 34.3465C129.018 34.6039 129.762 34.8532 130.332 35.0944C130.902 35.3357 131.392 35.6896 131.804 36.1561C132.216 36.6225 132.421 37.2257 132.421 37.9656C132.421 39.0112 132.018 39.8476 131.21 40.4749C130.419 41.1022 129.35 41.4159 128.004 41.4159Z" fill="#38454F"/>
<g opacity="0.5">
<path d="M36.0088 16.0178C35.2725 16.0178 34.6269 15.8999 34.0722 15.6641C33.5275 15.4282 33.1039 15.095 32.8013 14.6643C32.5088 14.2234 32.3625 13.7159 32.3625 13.1417V12.711C32.3625 12.5777 32.4281 12.5111 32.5592 12.5111H33.2098C33.3409 12.5111 33.4065 12.5777 33.4065 12.711V13.0801C33.4065 13.6646 33.6486 14.1414 34.1327 14.5105C34.6168 14.8797 35.2674 15.0642 36.0844 15.0642C36.8611 15.0642 37.4511 14.9002 37.8546 14.5721C38.258 14.2337 38.4597 13.7876 38.4597 13.2339C38.4597 12.8751 38.3639 12.5675 38.1723 12.3111C37.9907 12.0548 37.7083 11.8138 37.325 11.5882C36.9417 11.3627 36.392 11.1012 35.6759 10.8038C34.9194 10.4962 34.3294 10.2296 33.9058 10.004C33.4922 9.7682 33.1543 9.47085 32.8921 9.11197C32.6399 8.74284 32.5138 8.28142 32.5138 7.72772C32.5138 6.86641 32.8063 6.19992 33.3914 5.72826C33.9864 5.24633 34.8034 5.00537 35.8423 5.00537C36.9518 5.00537 37.8293 5.27197 38.4749 5.80516C39.1204 6.33835 39.4432 7.04585 39.4432 7.92767V8.2199C39.4432 8.3532 39.3776 8.41985 39.2465 8.41985H38.5808C38.4497 8.41985 38.3841 8.3532 38.3841 8.2199V7.98919C38.3841 7.39448 38.1571 6.90743 37.7033 6.52804C37.2494 6.14866 36.6089 5.95896 35.7818 5.95896C35.0657 5.95896 34.516 6.10764 34.1327 6.405C33.7595 6.70236 33.5729 7.13301 33.5729 7.69696C33.5729 8.06609 33.6637 8.3737 33.8452 8.61979C34.0369 8.85563 34.3042 9.06583 34.6471 9.25039C35.0001 9.42471 35.5347 9.65541 36.2508 9.94252C36.9871 10.2501 37.5822 10.5372 38.0361 10.8038C38.49 11.0704 38.8531 11.3985 39.1254 11.7882C39.3978 12.1676 39.5339 12.6341 39.5339 13.1878C39.5339 14.0389 39.2213 14.7259 38.5959 15.2488C37.9806 15.7615 37.1183 16.0178 36.0088 16.0178Z" fill="#38454F"/>
<path d="M44.5106 16.0178C43.7743 16.0178 43.1439 15.8281 42.6194 15.4487C42.105 15.0694 41.7469 14.5464 41.5452 13.8799C41.404 13.4083 41.3334 12.7777 41.3334 11.9881C41.3334 11.2088 41.399 10.5834 41.5301 10.1117C41.7318 9.45547 42.0899 8.93766 42.6043 8.55827C43.1288 8.17888 43.7642 7.98919 44.5106 7.98919C45.2368 7.98919 45.8571 8.17888 46.3715 8.55827C46.896 8.93766 47.2541 9.45034 47.4457 10.0963C47.5869 10.5885 47.6575 11.2191 47.6575 11.9881C47.6575 12.7777 47.5869 13.4083 47.4457 13.8799C47.244 14.5464 46.8809 15.0694 46.3564 15.4487C45.842 15.8281 45.2267 16.0178 44.5106 16.0178ZM44.5106 15.0642C44.9947 15.0642 45.4083 14.9309 45.7512 14.6643C46.0941 14.3875 46.3261 14.0184 46.4472 13.5569C46.5279 13.2288 46.5682 12.711 46.5682 12.0035C46.5682 11.2652 46.5279 10.7474 46.4472 10.4501C46.3362 9.98866 46.1042 9.62465 45.7512 9.35806C45.4083 9.08121 44.9846 8.94278 44.4803 8.94278C43.9962 8.94278 43.5826 9.08121 43.2397 9.35806C42.8968 9.62465 42.6648 9.98866 42.5438 10.4501C42.4631 10.7474 42.4227 11.2652 42.4227 12.0035C42.4227 12.7418 42.4631 13.2596 42.5438 13.5569C42.6547 14.0184 42.8816 14.3875 43.2246 14.6643C43.5776 14.9309 44.0063 15.0642 44.5106 15.0642Z" fill="#38454F"/>
<path d="M52.7719 6.08201C52.2171 6.08201 51.8389 6.21018 51.6372 6.46652C51.4354 6.71261 51.3346 7.13814 51.3346 7.7431V8.03533C51.3346 8.0866 51.3598 8.11224 51.4102 8.11224H53.0442C53.1753 8.11224 53.2409 8.17888 53.2409 8.31218V8.91202C53.2409 9.04532 53.1753 9.11197 53.0442 9.11197H51.4102C51.3598 9.11197 51.3346 9.1376 51.3346 9.18887V15.6948C51.3346 15.8281 51.269 15.8948 51.1379 15.8948H50.4722C50.3411 15.8948 50.2755 15.8281 50.2755 15.6948V9.18887C50.2755 9.1376 50.2503 9.11197 50.1999 9.11197H49.2467C49.1156 9.11197 49.05 9.04532 49.05 8.91202V8.31218C49.05 8.17888 49.1156 8.11224 49.2467 8.11224H50.1999C50.2503 8.11224 50.2755 8.0866 50.2755 8.03533V7.68158C50.2755 7.04585 50.3461 6.54855 50.4873 6.18967C50.6285 5.82054 50.8706 5.55394 51.2135 5.38988C51.5666 5.21557 52.0558 5.12841 52.6811 5.12841H53.0745C53.2056 5.12841 53.2712 5.19506 53.2712 5.32836V5.88206C53.2712 6.01536 53.2056 6.08201 53.0745 6.08201H52.7719Z" fill="#38454F"/>
<path d="M58.5732 8.81974C58.5732 8.95304 58.5077 9.01969 58.3765 9.01969H56.7274C56.677 9.01969 56.6518 9.04532 56.6518 9.09659V13.5877C56.6518 14.0799 56.7577 14.4285 56.9695 14.6336C57.1914 14.8284 57.5343 14.9258 57.9983 14.9258H58.3312C58.4623 14.9258 58.5278 14.9925 58.5278 15.1258V15.6641C58.5278 15.7974 58.4623 15.8691 58.3312 15.8794H57.8167C57.0905 15.8794 56.5408 15.741 56.1676 15.4641C55.7944 15.1873 55.6078 14.6746 55.6078 13.9261V9.09659C55.6078 9.04532 55.5826 9.01969 55.5322 9.01969H54.6698C54.5387 9.01969 54.4731 8.95304 54.4731 8.81974V8.31218C54.4731 8.17888 54.5387 8.11224 54.6698 8.11224H55.5322C55.5826 8.11224 55.6078 8.0866 55.6078 8.03533V6.31271C55.6078 6.17942 55.6734 6.11277 55.8045 6.11277H56.4551C56.5862 6.11277 56.6518 6.17942 56.6518 6.31271V8.03533C56.6518 8.0866 56.677 8.11224 56.7274 8.11224H58.3765C58.5077 8.11224 58.5732 8.17888 58.5732 8.31218V8.81974Z" fill="#38454F"/>
<path d="M62.2687 15.8948C62.1578 15.8948 62.0872 15.8384 62.0569 15.7256L59.9388 8.34294C59.9287 8.32244 59.9237 8.2968 59.9237 8.26604C59.9237 8.22503 59.9388 8.18914 59.969 8.15838C60.0094 8.12762 60.0548 8.11224 60.1052 8.11224H60.8163C60.9272 8.11224 60.9978 8.16863 61.0281 8.28142L62.6016 14.2798C62.6117 14.3106 62.6268 14.326 62.647 14.326C62.6671 14.326 62.6823 14.3106 62.6923 14.2798L64.3112 8.28142C64.3415 8.16863 64.4121 8.11224 64.523 8.11224H65.1887C65.2997 8.11224 65.3703 8.16863 65.4005 8.28142L67.0496 14.2798C67.0597 14.3106 67.0749 14.326 67.095 14.326C67.1152 14.326 67.1303 14.3106 67.1404 14.2798L68.7593 8.28142C68.7895 8.16863 68.8652 8.11224 68.9862 8.11224L69.6822 8.12762C69.7528 8.12762 69.8032 8.14812 69.8335 8.18914C69.8637 8.23015 69.8688 8.28655 69.8486 8.35832L67.7002 15.7256C67.67 15.8384 67.5993 15.8948 67.4884 15.8948H66.7471C66.6361 15.8948 66.5655 15.8384 66.5352 15.7256L64.9013 10.0502C64.8912 10.0194 64.876 10.004 64.8559 10.004C64.8357 10.004 64.8206 10.0194 64.8105 10.0502L63.237 15.7256C63.2068 15.8384 63.1361 15.8948 63.0252 15.8948H62.2687Z" fill="#38454F"/>
<path d="M74.0389 7.98919C74.9466 7.98919 75.6476 8.22503 76.1419 8.6967C76.6462 9.16836 76.8983 9.79384 76.8983 10.5731V15.6948C76.8983 15.8281 76.8328 15.8948 76.7017 15.8948H76.0208C75.8897 15.8948 75.8242 15.8281 75.8242 15.6948V15.1411C75.8242 15.1104 75.8141 15.0899 75.7939 15.0796C75.7737 15.0694 75.7536 15.0796 75.7334 15.1104C75.4611 15.4077 75.1181 15.6333 74.7046 15.7871C74.3011 15.9409 73.8573 16.0178 73.3732 16.0178C72.6671 16.0178 72.072 15.8333 71.5879 15.4641C71.1138 15.095 70.8768 14.531 70.8768 13.7723C70.8768 13.0032 71.1491 12.3983 71.6938 11.9574C72.2486 11.5062 73.0151 11.2806 73.9935 11.2806H75.7485C75.7989 11.2806 75.8242 11.255 75.8242 11.2037V10.6346C75.8242 10.1117 75.6779 9.70156 75.3854 9.4042C75.103 9.09659 74.6592 8.94278 74.054 8.94278C73.58 8.94278 73.1916 9.03507 72.889 9.21963C72.5864 9.4042 72.3948 9.66054 72.3141 9.98866C72.2839 10.1117 72.2082 10.163 72.0872 10.1425L71.3458 10.0502C71.2147 10.0297 71.1542 9.97328 71.1643 9.881C71.2651 9.31704 71.5728 8.86075 72.0872 8.51213C72.6117 8.1635 73.2622 7.98919 74.0389 7.98919ZM73.6153 15.0796C74.2104 15.0796 74.7248 14.9309 75.1585 14.6336C75.6023 14.326 75.8242 13.9158 75.8242 13.4031V12.2188C75.8242 12.1676 75.7989 12.1419 75.7485 12.1419H74.1599C73.4942 12.1419 72.9596 12.2804 72.5562 12.5572C72.1527 12.8341 71.951 13.2186 71.951 13.7107C71.951 14.1619 72.1073 14.5054 72.42 14.7412C72.7327 14.9668 73.1311 15.0796 73.6153 15.0796Z" fill="#38454F"/>
<path d="M82.2049 8.03533C82.5378 8.03533 82.8151 8.09686 83.037 8.2199C83.1379 8.26091 83.1732 8.34294 83.1429 8.46599L82.9916 9.14273C82.9614 9.26577 82.8807 9.30679 82.7496 9.26577C82.5579 9.20425 82.3108 9.17862 82.0082 9.18887C81.4837 9.20938 81.05 9.40933 80.7071 9.78871C80.3642 10.1578 80.1927 10.6295 80.1927 11.2037V15.6948C80.1927 15.8281 80.1271 15.8948 79.996 15.8948H79.3152C79.1841 15.8948 79.1185 15.8281 79.1185 15.6948V8.31218C79.1185 8.17888 79.1841 8.11224 79.3152 8.11224H79.996C80.1271 8.11224 80.1927 8.17888 80.1927 8.31218V9.17349C80.1927 9.21451 80.1977 9.24014 80.2078 9.25039C80.228 9.25039 80.2482 9.23501 80.2683 9.20425C80.4801 8.83512 80.7474 8.54802 81.0702 8.34294C81.403 8.13787 81.7813 8.03533 82.2049 8.03533Z" fill="#38454F"/>
<path d="M87.5362 15.0796C87.9901 15.0694 88.3784 14.9668 88.7011 14.772C89.034 14.5669 89.2912 14.285 89.4727 13.9261C89.4929 13.8748 89.5282 13.8389 89.5787 13.8184C89.6291 13.7979 89.6795 13.803 89.7299 13.8338L90.1687 14.0799C90.2897 14.1517 90.32 14.2388 90.2595 14.3413C90.0174 14.854 89.6543 15.2642 89.1701 15.5718C88.686 15.8691 88.1111 16.0178 87.4454 16.0178C86.7393 16.0178 86.1443 15.8486 85.6601 15.5103C85.176 15.1719 84.828 14.7002 84.6162 14.0953C84.4245 13.5826 84.3287 12.8751 84.3287 11.9727C84.3287 11.5318 84.3338 11.1832 84.3438 10.9269C84.364 10.6603 84.4044 10.4142 84.4649 10.1886C84.6363 9.52212 84.9793 8.98893 85.4937 8.58903C86.0182 8.18914 86.6486 7.98919 87.3849 7.98919C88.2624 7.98919 88.9483 8.2199 89.4425 8.68131C89.9468 9.14273 90.2696 9.79384 90.4108 10.6346C90.4713 10.9628 90.5015 11.4754 90.5015 12.1727C90.5015 12.306 90.436 12.3726 90.3049 12.3726H85.4634C85.413 12.3726 85.3878 12.3983 85.3878 12.4495C85.3878 12.9622 85.418 13.3365 85.4786 13.5723C85.5895 14.0337 85.8215 14.4029 86.1745 14.6797C86.5376 14.9463 86.9915 15.0796 87.5362 15.0796ZM87.3849 8.94278C86.8806 8.94278 86.467 9.07608 86.1443 9.34268C85.8215 9.59902 85.6097 9.94764 85.5088 10.3886C85.4483 10.5936 85.4079 10.9423 85.3878 11.4344C85.3878 11.4857 85.413 11.5113 85.4634 11.5113H89.3517C89.4021 11.5113 89.4274 11.4857 89.4274 11.4344C89.4072 10.9833 89.3769 10.6551 89.3366 10.4501C89.2256 9.98866 88.9987 9.62465 88.6557 9.35806C88.3229 9.08121 87.8993 8.94278 87.3849 8.94278Z" fill="#38454F"/>
</g>
</svg>
