<svg width="40" height="32" viewBox="0 0 40 32" fill="none" xmlns="http://www.w3.org/2000/svg">
<path d="M32.5375 6.66877C30.6808 5.41467 28.4906 4.74629 26.25 4.75002C25.9 4.75002 25.5562 4.75002 25.2188 4.80002L24.9313 4.83127C24.6729 4.86043 24.4167 4.90002 24.1625 4.95002L23.875 5.00627C23.5563 5.07502 23.25 5.15627 22.9313 5.25002L22.7813 5.30002C22.5188 5.38335 22.2604 5.4771 22.0062 5.58127L21.675 5.72502C21.4792 5.81252 21.2875 5.90418 21.1 6.00002L20.7813 6.16877C20.5125 6.31877 20.25 6.47502 20 6.64377C20.2333 6.79793 20.4583 6.96252 20.675 7.13752C20.7428 7.19052 20.7923 7.2634 20.8167 7.34596C20.841 7.42851 20.8389 7.51661 20.8106 7.59791C20.7824 7.67921 20.7294 7.74963 20.6591 7.79932C20.5889 7.84901 20.5048 7.87548 20.4187 7.87502H18.6563C18.5466 7.8746 18.4411 7.91724 18.3625 7.99377C18.2167 8.13543 18.075 8.28335 17.9375 8.43752C17.8845 8.49679 17.8497 8.57013 17.8374 8.6487C17.8251 8.72727 17.8358 8.80772 17.8682 8.88037C17.9005 8.95301 17.9532 9.01476 18.0198 9.05816C18.0865 9.10157 18.1642 9.12478 18.2438 9.12502H22.4375C22.5015 9.12501 22.5646 9.13965 22.622 9.16782C22.6794 9.19598 22.7296 9.23693 22.7688 9.28752C22.8771 9.43335 22.9813 9.58126 23.0813 9.73127C23.1185 9.79314 23.1388 9.86371 23.1402 9.93591C23.1416 10.0081 23.124 10.0794 23.0892 10.1427C23.0544 10.2059 23.0036 10.259 22.9419 10.2965C22.8802 10.3339 22.8097 10.3546 22.7375 10.3563H16.7625C16.6886 10.356 16.6159 10.3755 16.5522 10.4129C16.4884 10.4503 16.4358 10.5041 16.4 10.5688C16.3208 10.7146 16.2458 10.8625 16.175 11.0125C16.1363 11.0767 16.1158 11.1502 16.1157 11.2251C16.1156 11.3 16.1359 11.3736 16.1745 11.4378C16.213 11.5021 16.2684 11.5546 16.3345 11.5898C16.4007 11.625 16.4752 11.6415 16.55 11.6375H23.8313C23.9146 11.6377 23.9961 11.6628 24.0651 11.7096C24.1341 11.7563 24.1876 11.8227 24.2188 11.9C24.2771 12.05 24.3333 12.2 24.3875 12.35C24.4072 12.4119 24.412 12.4775 24.4015 12.5416C24.391 12.6057 24.3655 12.6664 24.3272 12.7188C24.2888 12.7712 24.2386 12.8137 24.1807 12.8431C24.1227 12.8724 24.0587 12.8876 23.9938 12.8875H15.7687C15.6768 12.8869 15.5872 12.9165 15.5138 12.9719C15.4404 13.0272 15.3872 13.1052 15.3625 13.1938C15.325 13.3438 15.2896 13.4938 15.2562 13.6438C15.2442 13.7038 15.2456 13.7657 15.2605 13.8251C15.2754 13.8845 15.3032 13.9398 15.3421 13.9871C15.381 14.0344 15.43 14.0724 15.4854 14.0984C15.5408 14.1244 15.6013 14.1378 15.6625 14.1375H24.475C24.5753 14.1366 24.6725 14.1722 24.7485 14.2378C24.8244 14.3034 24.8738 14.3944 24.8875 14.4938C24.8875 14.6438 24.9042 14.7938 24.9375 14.9438C24.9427 15.001 24.9359 15.0587 24.9176 15.1132C24.8992 15.1676 24.8696 15.2176 24.8308 15.26C24.7919 15.3024 24.7447 15.3362 24.692 15.3592C24.6394 15.3822 24.5825 15.394 24.525 15.3938H15.0312C15.0312 15.6 15 15.8063 15 16.0188C15 16.2313 15 16.4375 15.0312 16.6438H24.5313C24.5887 16.6435 24.6456 16.6553 24.6983 16.6783C24.7509 16.7014 24.7982 16.7352 24.837 16.7775C24.8759 16.8199 24.9054 16.8699 24.9238 16.9244C24.9422 16.9788 24.949 17.0365 24.9438 17.0938C24.9438 17.2438 24.9271 17.3938 24.8938 17.5438C24.8801 17.6432 24.8306 17.7341 24.7547 17.7997C24.6788 17.8653 24.5816 17.901 24.4812 17.9H15.6687C15.6075 17.8997 15.547 17.9131 15.4916 17.9391C15.4362 17.9651 15.3873 18.0032 15.3484 18.0504C15.3095 18.0977 15.2816 18.153 15.2667 18.2124C15.2519 18.2718 15.2504 18.3338 15.2625 18.3938C15.2958 18.5438 15.3313 18.6938 15.3688 18.8438C15.3935 18.9323 15.4466 19.0103 15.52 19.0657C15.5935 19.121 15.6831 19.1507 15.775 19.15H23.9875C24.0524 19.1499 24.1165 19.1651 24.1744 19.1945C24.2323 19.2238 24.2825 19.2664 24.3209 19.3187C24.3593 19.3711 24.3847 19.4318 24.3952 19.4959C24.4057 19.56 24.4009 19.6256 24.3812 19.6875C24.3271 19.8375 24.2708 19.9875 24.2125 20.1375C24.1814 20.2149 24.1279 20.2812 24.0588 20.328C23.9898 20.3747 23.9084 20.3998 23.825 20.4H16.5437C16.4689 20.3961 16.3944 20.4126 16.3283 20.4477C16.2621 20.4829 16.2068 20.5355 16.1682 20.5997C16.1297 20.664 16.1094 20.7375 16.1095 20.8124C16.1095 20.8874 16.13 20.9609 16.1688 21.025C16.2396 21.175 16.3146 21.3229 16.3937 21.4688C16.4296 21.5334 16.4821 21.5872 16.5459 21.6246C16.6097 21.662 16.6823 21.6816 16.7562 21.6813H22.7375C22.8097 21.683 22.8802 21.7036 22.9419 21.7411C23.0036 21.7786 23.0544 21.8316 23.0892 21.8949C23.124 21.9581 23.1416 22.0294 23.1402 22.1016C23.1388 22.1738 23.1185 22.2444 23.0813 22.3063C22.9813 22.4563 22.8771 22.6042 22.7688 22.75C22.7296 22.8006 22.6794 22.8415 22.622 22.8697C22.5646 22.8979 22.5015 22.9125 22.4375 22.9125H18.2438C18.1642 22.9127 18.0865 22.936 18.0198 22.9794C17.9532 23.0228 17.9005 23.0845 17.8682 23.1572C17.8358 23.2298 17.8251 23.3103 17.8374 23.3888C17.8497 23.4674 17.8845 23.5407 17.9375 23.6C18.075 23.75 18.2167 23.8958 18.3625 24.0375C18.4411 24.114 18.5466 24.1567 18.6563 24.1563H20.4187C20.5054 24.1545 20.5903 24.18 20.6616 24.2292C20.7329 24.2784 20.7869 24.3488 20.816 24.4304C20.845 24.512 20.8476 24.6006 20.8234 24.6838C20.7993 24.767 20.7495 24.8404 20.6813 24.8938C20.4604 25.0646 20.2354 25.2292 20.0062 25.3875C20.2562 25.5563 20.5187 25.7125 20.7875 25.8625L21.1063 26.0313C21.2938 26.1271 21.4854 26.2188 21.6812 26.3063L22.0125 26.45C22.2667 26.5542 22.525 26.6479 22.7875 26.7313L22.9375 26.7813C23.25 26.875 23.5625 26.9563 23.8813 27.025L24.1687 27.0813C24.4229 27.1271 24.6792 27.1667 24.9375 27.2L25.225 27.2313C25.5688 27.2313 25.9125 27.2813 26.2563 27.2813C28.6748 27.2907 31.032 26.5205 32.9784 25.0847C34.9247 23.649 36.3566 21.6242 37.0616 19.3107C37.7666 16.9971 37.7072 14.518 36.8923 12.2408C36.0774 9.96362 34.5503 8.00971 32.5375 6.66877Z" fill="white"/>
<path d="M12.4999 4.8187C9.64074 5.13624 7.01185 6.53702 5.15364 8.73308C3.29542 10.9291 2.34908 13.7536 2.50914 16.6259C2.6692 19.4982 3.9235 22.2 6.01421 24.176C8.10492 26.152 10.8732 27.252 13.7499 27.25C14.9656 27.2502 16.1732 27.0518 17.3249 26.6625C17.4794 26.6109 17.6181 26.5204 17.7276 26.3998C17.8371 26.2792 17.9137 26.1324 17.9501 25.9736C17.9865 25.8148 17.9815 25.6493 17.9355 25.493C17.8895 25.3368 17.804 25.1949 17.6874 25.0812C16.4442 23.9178 15.4531 22.5114 14.7755 20.9493C14.0979 19.3873 13.7483 17.7027 13.7483 16C13.7483 14.2972 14.0979 12.6127 14.7755 11.0506C15.4531 9.48847 16.4442 8.08214 17.6874 6.9187C17.8041 6.80539 17.8898 6.664 17.9362 6.50808C17.9827 6.35216 17.9883 6.18693 17.9525 6.02822C17.9167 5.86951 17.8408 5.72264 17.732 5.60169C17.6232 5.48074 17.4852 5.38975 17.3312 5.33745C15.7781 4.81328 14.1289 4.6362 12.4999 4.8187Z" fill="white"/>
</svg>
