<svg width="100" height="100" viewBox="0 0 100 100" fill="none" xmlns="http://www.w3.org/2000/svg">
<rect x="0.5" y="0.5" width="99" height="99" rx="3.5" fill="white" stroke="#C9CBD4"/>
<path d="M19.1531 26.7979C18.9197 25.984 19.3903 25.135 20.2042 24.9016L46.9331 17.2373C47.747 17.0039 48.596 17.4745 48.8294 18.2884L56.4938 45.0173C56.7271 45.8312 56.2565 46.6802 55.4426 46.9136L28.7137 54.578C27.8998 54.8113 27.0508 54.3407 26.8174 53.5268L19.1531 26.7979Z" fill="#DCDFE6"/>
<mask id="mask0" style="mask-type:alpha" maskUnits="userSpaceOnUse" x="37" y="11" width="44" height="44">
<rect x="46.9697" y="11" width="35.2651" height="35.2651" rx="4" transform="rotate(16.1804 46.9697 11)" fill="#D85656"/>
</mask>
<g mask="url(#mask0)">
<path d="M46.5425 12.4724C46.7785 11.6592 47.6289 11.1913 48.4421 11.4272L79.3655 20.3998C80.1787 20.6358 80.6467 21.4863 80.4107 22.2994L71.4381 53.2229C71.2022 54.036 70.3517 54.504 69.5385 54.268L38.6151 45.2954C37.8019 45.0595 37.334 44.209 37.5699 43.3958L46.5425 12.4724Z" fill="#EDF0F5"/>
<path d="M94.9909 17.2342L43.4936 2.29202C42.4992 2.00349 41.4309 2.12164 40.5238 2.62048C39.6167 3.11931 38.9451 3.95797 38.6567 4.95196L26.725 46.0735C26.4366 47.0675 26.5551 48.1354 27.0543 49.0423C27.5535 49.9491 28.3926 50.6207 29.387 50.9093L80.8843 65.8515C81.8788 66.14 82.947 66.0219 83.8541 65.5231C84.7612 65.0242 85.4329 64.1856 85.7213 63.1916L97.6529 22.07C97.9413 21.076 97.8229 20.0081 97.3237 19.1013C96.8244 18.1944 95.9853 17.5228 94.9909 17.2342ZM42.543 5.56817L94.0403 20.5104C94.1654 20.5468 94.2709 20.6314 94.3337 20.7455C94.3965 20.8596 94.4115 20.9939 94.3753 21.119L87.6976 44.1334L82.6366 34.9398C82.3698 34.4551 81.9269 34.0914 81.3994 33.924C80.872 33.7566 80.3004 33.7982 79.8029 34.0402L59.5453 43.8957C59.133 44.0963 58.6643 44.1498 58.2173 44.0473C57.7702 43.9448 57.3716 43.6925 57.0878 43.3322L48.6224 32.5876C48.3223 32.2067 47.9026 31.938 47.431 31.8249C46.9594 31.7117 46.4634 31.7608 46.0232 31.9641L32.5697 38.1773L41.9342 5.90296C41.9707 5.77795 42.0552 5.67249 42.1693 5.60973C42.2835 5.54696 42.4178 5.53202 42.543 5.56817ZM48.9407 20.5376C49.1855 19.6939 49.6751 18.9417 50.3476 18.3763C51.0201 17.8108 51.8453 17.4574 52.7189 17.3608C53.5924 17.2642 54.475 17.4287 55.2551 17.8335C56.0353 18.2383 56.6778 18.8653 57.1016 19.6351C57.5253 20.4049 57.7113 21.2829 57.6358 22.1582C57.5604 23.0335 57.227 23.8667 56.6778 24.5525C56.1286 25.2383 55.3882 25.7458 54.5504 26.0109C53.7125 26.276 52.8148 26.2868 51.9707 26.0419C50.8388 25.7135 49.8837 24.949 49.3155 23.9168C48.7472 22.8845 48.6124 21.669 48.9407 20.5376Z" fill="#C0C7D3"/>
</g>
<path d="M28.5861 64.6003V73.0003H27.3021L22.6701 67.3123V73.0003H21.1221V64.6003H22.4061L27.0381 70.2883V64.6003H28.5861Z" fill="#C9CBD4"/>
<path d="M33.5729 73.0843C32.9249 73.0843 32.3409 72.9443 31.8209 72.6643C31.3009 72.3843 30.8929 71.9963 30.5969 71.5003C30.3089 70.9963 30.1649 70.4283 30.1649 69.7963C30.1649 69.1643 30.3089 68.6003 30.5969 68.1043C30.8929 67.6083 31.3009 67.2203 31.8209 66.9403C32.3409 66.6603 32.9249 66.5203 33.5729 66.5203C34.2289 66.5203 34.8169 66.6603 35.3369 66.9403C35.8569 67.2203 36.2609 67.6083 36.5489 68.1043C36.8449 68.6003 36.9929 69.1643 36.9929 69.7963C36.9929 70.4283 36.8449 70.9963 36.5489 71.5003C36.2609 71.9963 35.8569 72.3843 35.3369 72.6643C34.8169 72.9443 34.2289 73.0843 33.5729 73.0843ZM33.5729 71.8003C34.1249 71.8003 34.5809 71.6163 34.9409 71.2483C35.3009 70.8803 35.4809 70.3963 35.4809 69.7963C35.4809 69.1963 35.3009 68.7123 34.9409 68.3443C34.5809 67.9763 34.1249 67.7923 33.5729 67.7923C33.0209 67.7923 32.5649 67.9763 32.2049 68.3443C31.8529 68.7123 31.6769 69.1963 31.6769 69.7963C31.6769 70.3963 31.8529 70.8803 32.2049 71.2483C32.5649 71.6163 33.0209 71.8003 33.5729 71.8003Z" fill="#C9CBD4"/>
<path d="M41.7437 66.5923H43.2437V73.0003H41.7437V66.5923ZM42.4997 65.5363C42.2277 65.5363 41.9997 65.4523 41.8157 65.2843C41.6317 65.1083 41.5397 64.8923 41.5397 64.6363C41.5397 64.3803 41.6317 64.1683 41.8157 64.0003C41.9997 63.8243 42.2277 63.7363 42.4997 63.7363C42.7717 63.7363 42.9997 63.8203 43.1837 63.9883C43.3677 64.1483 43.4597 64.3523 43.4597 64.6003C43.4597 64.8643 43.3677 65.0883 43.1837 65.2723C43.0077 65.4483 42.7797 65.5363 42.4997 65.5363Z" fill="#C9CBD4"/>
<path d="M53.3004 66.5203C54.1084 66.5203 54.7484 66.7563 55.2204 67.2283C55.6924 67.6923 55.9284 68.3923 55.9284 69.3283V73.0003H54.4284V69.5203C54.4284 68.9603 54.3044 68.5403 54.0564 68.2603C53.8084 67.9723 53.4524 67.8283 52.9884 67.8283C52.4844 67.8283 52.0804 67.9963 51.7764 68.3323C51.4724 68.6603 51.3204 69.1323 51.3204 69.7483V73.0003H49.8204V69.5203C49.8204 68.9603 49.6964 68.5403 49.4484 68.2603C49.2004 67.9723 48.8444 67.8283 48.3804 67.8283C47.8684 67.8283 47.4604 67.9923 47.1564 68.3203C46.8604 68.6483 46.7124 69.1243 46.7124 69.7483V73.0003H45.2124V66.5923H46.6404V67.4083C46.8804 67.1203 47.1804 66.9003 47.5404 66.7483C47.9004 66.5963 48.3004 66.5203 48.7404 66.5203C49.2204 66.5203 49.6444 66.6123 50.0124 66.7963C50.3884 66.9723 50.6844 67.2363 50.9004 67.5883C51.1644 67.2523 51.5044 66.9923 51.9204 66.8083C52.3364 66.6163 52.7964 66.5203 53.3004 66.5203Z" fill="#C9CBD4"/>
<path d="M60.2933 66.5203C61.2373 66.5203 61.9573 66.7483 62.4533 67.2043C62.9573 67.6523 63.2093 68.3323 63.2093 69.2443V73.0003H61.7933V72.2203C61.6093 72.5003 61.3453 72.7163 61.0013 72.8683C60.6653 73.0123 60.2573 73.0843 59.7773 73.0843C59.2973 73.0843 58.8773 73.0043 58.5173 72.8443C58.1573 72.6763 57.8773 72.4483 57.6773 72.1603C57.4853 71.8643 57.3893 71.5323 57.3893 71.1643C57.3893 70.5883 57.6013 70.1283 58.0253 69.7843C58.4573 69.4323 59.1333 69.2563 60.0533 69.2563H61.7093V69.1603C61.7093 68.7123 61.5733 68.3683 61.3013 68.1283C61.0373 67.8883 60.6413 67.7683 60.1133 67.7683C59.7533 67.7683 59.3973 67.8243 59.0453 67.9363C58.7013 68.0483 58.4093 68.2043 58.1693 68.4043L57.5813 67.3123C57.9173 67.0563 58.3213 66.8603 58.7933 66.7243C59.2653 66.5883 59.7653 66.5203 60.2933 66.5203ZM60.0893 71.9923C60.4653 71.9923 60.7973 71.9083 61.0853 71.7403C61.3813 71.5643 61.5893 71.3163 61.7093 70.9963V70.2523H60.1613C59.2973 70.2523 58.8653 70.5363 58.8653 71.1043C58.8653 71.3763 58.9733 71.5923 59.1893 71.7523C59.4053 71.9123 59.7053 71.9923 60.0893 71.9923Z" fill="#C9CBD4"/>
<path d="M71.5529 66.5923V72.0283C71.5529 74.2843 70.4009 75.4123 68.0969 75.4123C67.4809 75.4123 66.8969 75.3323 66.3449 75.1723C65.7929 75.0203 65.3369 74.7963 64.9769 74.5003L65.6489 73.3723C65.9289 73.6043 66.2809 73.7883 66.7049 73.9243C67.1369 74.0683 67.5729 74.1403 68.0129 74.1403C68.7169 74.1403 69.2329 73.9803 69.5609 73.6603C69.8889 73.3403 70.0529 72.8523 70.0529 72.1963V71.8603C69.7969 72.1403 69.4849 72.3523 69.1169 72.4963C68.7489 72.6403 68.3449 72.7123 67.9049 72.7123C67.2969 72.7123 66.7449 72.5843 66.2489 72.3283C65.7609 72.0643 65.3729 71.6963 65.0849 71.2243C64.8049 70.7523 64.6649 70.2123 64.6649 69.6043C64.6649 68.9963 64.8049 68.4603 65.0849 67.9963C65.3729 67.5243 65.7609 67.1603 66.2489 66.9043C66.7449 66.6483 67.2969 66.5203 67.9049 66.5203C68.3689 66.5203 68.7889 66.5963 69.1649 66.7483C69.5489 66.9003 69.8689 67.1323 70.1249 67.4443V66.5923H71.5529ZM68.1329 71.4403C68.7009 71.4403 69.1649 71.2723 69.5249 70.9363C69.8929 70.5923 70.0769 70.1483 70.0769 69.6043C70.0769 69.0683 69.8929 68.6323 69.5249 68.2963C69.1649 67.9603 68.7009 67.7923 68.1329 67.7923C67.5569 67.7923 67.0849 67.9603 66.7169 68.2963C66.3569 68.6323 66.1769 69.0683 66.1769 69.6043C66.1769 70.1483 66.3569 70.5923 66.7169 70.9363C67.0849 71.2723 67.5569 71.4403 68.1329 71.4403Z" fill="#C9CBD4"/>
<path d="M79.549 69.8323C79.549 69.9363 79.5409 70.0843 79.5249 70.2763H74.4969C74.5849 70.7483 74.8129 71.1243 75.1809 71.4043C75.5569 71.6763 76.0209 71.8123 76.5729 71.8123C77.2769 71.8123 77.8569 71.5803 78.313 71.1163L79.117 72.0403C78.8289 72.3843 78.4649 72.6443 78.0249 72.8203C77.5849 72.9963 77.0889 73.0843 76.5369 73.0843C75.8329 73.0843 75.2129 72.9443 74.6769 72.6643C74.1409 72.3843 73.7249 71.9963 73.4289 71.5003C73.1409 70.9963 72.9969 70.4283 72.9969 69.7963C72.9969 69.1723 73.1369 68.6123 73.4169 68.1163C73.7049 67.6123 74.1009 67.2203 74.6049 66.9403C75.1089 66.6603 75.6769 66.5203 76.3089 66.5203C76.9329 66.5203 77.4889 66.6603 77.9769 66.9403C78.4729 67.2123 78.8569 67.6003 79.1289 68.1043C79.4089 68.6003 79.549 69.1763 79.549 69.8323ZM76.3089 67.7203C75.8289 67.7203 75.4209 67.8643 75.0849 68.1523C74.7569 68.4323 74.5569 68.8083 74.4849 69.2803H78.1209C78.0569 68.8163 77.8609 68.4403 77.5329 68.1523C77.2049 67.8643 76.7969 67.7203 76.3089 67.7203Z" fill="#C9CBD4"/>
<path d="M26.139 80.5203C27.083 80.5203 27.803 80.7483 28.299 81.2043C28.803 81.6523 29.055 82.3323 29.055 83.2443V87.0003H27.639V86.2203C27.455 86.5003 27.191 86.7163 26.847 86.8683C26.511 87.0123 26.103 87.0843 25.623 87.0843C25.143 87.0843 24.723 87.0043 24.363 86.8443C24.003 86.6763 23.723 86.4483 23.523 86.1603C23.331 85.8643 23.235 85.5323 23.235 85.1643C23.235 84.5883 23.447 84.1283 23.871 83.7843C24.303 83.4323 24.979 83.2563 25.899 83.2563H27.555V83.1603C27.555 82.7123 27.419 82.3683 27.147 82.1283C26.883 81.8883 26.487 81.7683 25.959 81.7683C25.599 81.7683 25.243 81.8243 24.891 81.9363C24.547 82.0483 24.255 82.2043 24.015 82.4043L23.427 81.3123C23.763 81.0563 24.167 80.8603 24.639 80.7243C25.111 80.5883 25.611 80.5203 26.139 80.5203ZM25.935 85.9923C26.311 85.9923 26.643 85.9083 26.931 85.7403C27.227 85.5643 27.435 85.3163 27.555 84.9963V84.2523H26.007C25.143 84.2523 24.711 84.5363 24.711 85.1043C24.711 85.3763 24.819 85.5923 25.035 85.7523C25.251 85.9123 25.551 85.9923 25.935 85.9923Z" fill="#C9CBD4"/>
<path d="M36.8628 80.5923L34.1148 87.0003H32.5668L29.8188 80.5923H31.3788L33.3708 85.3443L35.4228 80.5923H36.8628Z" fill="#C9CBD4"/>
<path d="M40.0491 80.5203C40.9931 80.5203 41.7131 80.7483 42.2091 81.2043C42.7131 81.6523 42.9651 82.3323 42.9651 83.2443V87.0003H41.5491V86.2203C41.3651 86.5003 41.1011 86.7163 40.7571 86.8683C40.4211 87.0123 40.0131 87.0843 39.5331 87.0843C39.0531 87.0843 38.6331 87.0043 38.2731 86.8443C37.9131 86.6763 37.6331 86.4483 37.4331 86.1603C37.2411 85.8643 37.1451 85.5323 37.1451 85.1643C37.1451 84.5883 37.3571 84.1283 37.7811 83.7843C38.2131 83.4323 38.8891 83.2563 39.8091 83.2563H41.4651V83.1603C41.4651 82.7123 41.3291 82.3683 41.0571 82.1283C40.7931 81.8883 40.3971 81.7683 39.8691 81.7683C39.5091 81.7683 39.1531 81.8243 38.8011 81.9363C38.4571 82.0483 38.1651 82.2043 37.9251 82.4043L37.3371 81.3123C37.6731 81.0563 38.0771 80.8603 38.5491 80.7243C39.0211 80.5883 39.5211 80.5203 40.0491 80.5203ZM39.8451 85.9923C40.2211 85.9923 40.5531 85.9083 40.8411 85.7403C41.1371 85.5643 41.3451 85.3163 41.4651 84.9963V84.2523H39.9171C39.0531 84.2523 38.6211 84.5363 38.6211 85.1043C38.6211 85.3763 38.7291 85.5923 38.9451 85.7523C39.1611 85.9123 39.4611 85.9923 39.8451 85.9923Z" fill="#C9CBD4"/>
<path d="M44.8902 80.5923H46.3902V87.0003H44.8902V80.5923ZM45.6462 79.5363C45.3742 79.5363 45.1462 79.4523 44.9622 79.2843C44.7782 79.1083 44.6862 78.8923 44.6862 78.6363C44.6862 78.3803 44.7782 78.1683 44.9622 78.0003C45.1462 77.8243 45.3742 77.7363 45.6462 77.7363C45.9182 77.7363 46.1462 77.8203 46.3302 77.9883C46.5142 78.1483 46.6062 78.3523 46.6062 78.6003C46.6062 78.8643 46.5142 79.0883 46.3302 79.2723C46.1542 79.4483 45.9262 79.5363 45.6462 79.5363Z" fill="#C9CBD4"/>
<path d="M48.3589 78.0963H49.8589V87.0003H48.3589V78.0963Z" fill="#C9CBD4"/>
<path d="M54.2757 80.5203C55.2197 80.5203 55.9397 80.7483 56.4357 81.2043C56.9397 81.6523 57.1917 82.3323 57.1917 83.2443V87.0003H55.7757V86.2203C55.5917 86.5003 55.3277 86.7163 54.9837 86.8683C54.6477 87.0123 54.2397 87.0843 53.7597 87.0843C53.2797 87.0843 52.8597 87.0043 52.4997 86.8443C52.1397 86.6763 51.8597 86.4483 51.6597 86.1603C51.4677 85.8643 51.3717 85.5323 51.3717 85.1643C51.3717 84.5883 51.5837 84.1283 52.0077 83.7843C52.4397 83.4323 53.1157 83.2563 54.0357 83.2563H55.6917V83.1603C55.6917 82.7123 55.5557 82.3683 55.2837 82.1283C55.0197 81.8883 54.6237 81.7683 54.0957 81.7683C53.7357 81.7683 53.3797 81.8243 53.0277 81.9363C52.6837 82.0483 52.3917 82.2043 52.1517 82.4043L51.5637 81.3123C51.8997 81.0563 52.3037 80.8603 52.7757 80.7243C53.2477 80.5883 53.7477 80.5203 54.2757 80.5203ZM54.0717 85.9923C54.4477 85.9923 54.7797 85.9083 55.0677 85.7403C55.3637 85.5643 55.5717 85.3163 55.6917 84.9963V84.2523H54.1437C53.2797 84.2523 52.8477 84.5363 52.8477 85.1043C52.8477 85.3763 52.9557 85.5923 53.1717 85.7523C53.3877 85.9123 53.6877 85.9923 54.0717 85.9923Z" fill="#C9CBD4"/>
<path d="M62.6687 80.5203C63.2927 80.5203 63.8487 80.6563 64.3367 80.9283C64.8327 81.2003 65.2207 81.5843 65.5007 82.0803C65.7807 82.5763 65.9207 83.1483 65.9207 83.7963C65.9207 84.4443 65.7807 85.0203 65.5007 85.5243C65.2207 86.0203 64.8327 86.4043 64.3367 86.6763C63.8487 86.9483 63.2927 87.0843 62.6687 87.0843C62.2287 87.0843 61.8247 87.0083 61.4567 86.8563C61.0967 86.7043 60.7927 86.4763 60.5447 86.1723V87.0003H59.1167V78.0963H60.6167V81.3723C60.8727 81.0923 61.1727 80.8803 61.5167 80.7363C61.8687 80.5923 62.2527 80.5203 62.6687 80.5203ZM62.5007 85.8003C63.0527 85.8003 63.5047 85.6163 63.8567 85.2483C64.2167 84.8803 64.3967 84.3963 64.3967 83.7963C64.3967 83.1963 64.2167 82.7123 63.8567 82.3443C63.5047 81.9763 63.0527 81.7923 62.5007 81.7923C62.1407 81.7923 61.8167 81.8763 61.5287 82.0443C61.2407 82.2043 61.0127 82.4363 60.8447 82.7403C60.6767 83.0443 60.5927 83.3963 60.5927 83.7963C60.5927 84.1963 60.6767 84.5483 60.8447 84.8523C61.0127 85.1563 61.2407 85.3923 61.5287 85.5603C61.8167 85.7203 62.1407 85.8003 62.5007 85.8003Z" fill="#C9CBD4"/>
<path d="M67.3433 78.0963H68.8433V87.0003H67.3433V78.0963Z" fill="#C9CBD4"/>
<path d="M76.8361 83.8323C76.8361 83.9363 76.8281 84.0843 76.8121 84.2763H71.7841C71.8721 84.7483 72.1001 85.1243 72.4681 85.4043C72.8441 85.6763 73.3081 85.8123 73.8601 85.8123C74.5641 85.8123 75.1441 85.5803 75.6001 85.1163L76.4041 86.0403C76.1161 86.3843 75.7521 86.6443 75.3121 86.8203C74.8721 86.9963 74.3761 87.0843 73.8241 87.0843C73.1201 87.0843 72.5001 86.9443 71.9641 86.6643C71.4281 86.3843 71.0121 85.9963 70.7161 85.5003C70.4281 84.9963 70.2841 84.4283 70.2841 83.7963C70.2841 83.1723 70.4241 82.6123 70.7041 82.1163C70.9921 81.6123 71.3881 81.2203 71.8921 80.9403C72.3961 80.6603 72.9641 80.5203 73.5961 80.5203C74.2201 80.5203 74.7761 80.6603 75.2641 80.9403C75.7601 81.2123 76.1441 81.6003 76.4161 82.1043C76.6961 82.6003 76.8361 83.1763 76.8361 83.8323ZM73.5961 81.7203C73.1161 81.7203 72.7081 81.8643 72.3721 82.1523C72.0441 82.4323 71.8441 82.8083 71.7721 83.2803H75.4081C75.3441 82.8163 75.1481 82.4403 74.8201 82.1523C74.4921 81.8643 74.0841 81.7203 73.5961 81.7203Z" fill="#C9CBD4"/>
</svg>
