<svg width="80" height="80" viewBox="0 0 80 80" fill="none" xmlns="http://www.w3.org/2000/svg">
<rect x="0.5" y="0.5" width="79" height="79" fill="white" stroke="#C9CBD4"/>
<path d="M21.8786 54.9L25.3186 60H26.5586V52.9H25.3686V58.01L21.9186 52.9H20.6886V60H21.8786V54.9ZM30.4675 60.12C30.8675 60.12 31.2275 60.05 31.5675 59.91C31.9075 59.77 32.1875 59.57 32.4275 59.32C32.6675 59.07 32.8475 58.78 32.9775 58.45C33.0975 58.12 33.1675 57.77 33.1675 57.41C33.1675 57.05 33.0975 56.71 32.9775 56.38C32.8475 56.05 32.6675 55.76 32.4275 55.5C32.1875 55.25 31.9075 55.05 31.5675 54.91C31.2275 54.77 30.8675 54.69 30.4675 54.69C30.0675 54.69 29.7075 54.77 29.3675 54.91C29.0275 55.05 28.7475 55.25 28.5075 55.5C28.2675 55.76 28.0875 56.05 27.9675 56.38C27.8375 56.71 27.7775 57.05 27.7775 57.41C27.7775 57.77 27.8375 58.12 27.9675 58.45C28.0875 58.78 28.2675 59.07 28.5075 59.32C28.7475 59.57 29.0275 59.77 29.3675 59.91C29.7075 60.05 30.0675 60.12 30.4675 60.12ZM28.9675 57.41C28.9675 57.11 29.0275 56.82 29.1575 56.55C29.2775 56.29 29.4675 56.09 29.7075 55.95C29.9475 55.81 30.1975 55.74 30.4675 55.74C30.7275 55.74 30.9875 55.81 31.2275 55.95C31.4675 56.09 31.6575 56.29 31.7875 56.55C31.9075 56.82 31.9775 57.11 31.9775 57.41C31.9775 57.91 31.8275 58.31 31.5475 58.61C31.2675 58.92 30.9075 59.07 30.4675 59.07C30.0275 59.07 29.6675 58.92 29.3875 58.61C29.1075 58.31 28.9675 57.91 28.9675 57.41ZM37.4675 53.94C37.6775 53.94 37.8575 53.88 37.9975 53.74C38.1375 53.6 38.2075 53.43 38.2075 53.21C38.2075 53 38.1375 52.82 37.9975 52.68C37.8575 52.54 37.6775 52.46 37.4675 52.46C37.2475 52.46 37.0675 52.54 36.9275 52.68C36.7875 52.82 36.7175 53 36.7175 53.21C36.7175 53.43 36.7875 53.6 36.9275 53.74C37.0675 53.88 37.2475 53.94 37.4675 53.94ZM36.8675 60H38.0575V54.81H36.8675V60ZM44.0144 57.02C44.0144 56.81 44.0444 56.6 44.1244 56.4C44.1944 56.2 44.3244 56.04 44.5144 55.91C44.6944 55.78 44.9244 55.71 45.1844 55.71C45.5144 55.71 45.7644 55.82 45.9244 56.04C46.0844 56.26 46.1644 56.54 46.1644 56.89V60H47.3544V56.74C47.3544 56.38 47.2944 56.06 47.1844 55.79C47.0644 55.53 46.9244 55.31 46.7444 55.14C46.5644 54.98 46.3544 54.86 46.1344 54.79C45.9144 54.73 45.6844 54.69 45.4644 54.69C44.7244 54.69 44.1444 54.97 43.7044 55.51C43.5544 55.26 43.3444 55.06 43.0844 54.91C42.8144 54.77 42.5044 54.69 42.1444 54.69C41.9544 54.69 41.7544 54.72 41.5444 54.78C41.3344 54.84 41.1444 54.93 40.9744 55.06C40.8044 55.2 40.6744 55.34 40.5944 55.5V54.81H39.4944V60H40.6844V56.98C40.6844 56.8 40.7144 56.6 40.7844 56.4C40.8544 56.2 40.9844 56.04 41.1744 55.91C41.3544 55.78 41.5844 55.71 41.8444 55.71C42.1744 55.71 42.4244 55.82 42.5844 56.03C42.7444 56.25 42.8244 56.53 42.8244 56.89V60H44.0144V57.02ZM51.9425 57.57V57.89C51.9425 58.15 51.8725 58.38 51.7425 58.6C51.6025 58.82 51.4225 58.98 51.1925 59.06C50.9625 59.15 50.7325 59.19 50.5125 59.19C50.2125 59.19 49.9825 59.14 49.8325 59.02C49.6825 58.91 49.6125 58.75 49.6125 58.54C49.6125 58.36 49.6825 58.2 49.8225 58.08C49.9625 57.96 50.2025 57.86 50.5625 57.8L51.9425 57.57ZM50.2725 60.12C50.6525 60.12 51.0125 60.06 51.3325 59.94C51.6525 59.82 51.9025 59.65 52.0825 59.43C52.1325 59.55 52.2125 59.67 52.3325 59.77C52.4525 59.88 52.5825 59.96 52.7325 60C52.8825 60.04 53.0225 60.06 53.1625 60.06C53.3125 60.06 53.4425 60.05 53.5425 60.02V59.06L53.4425 59.07C53.2125 59.07 53.1025 58.96 53.1025 58.72V56.63C53.1025 56.03 52.9125 55.55 52.5325 55.21C52.1525 54.87 51.6025 54.69 50.8625 54.69C50.4225 54.69 50.0525 54.76 49.7425 54.88C49.4225 55.01 49.1725 55.19 48.9825 55.42C48.7825 55.66 48.6525 55.94 48.5925 56.27L49.7325 56.46C49.7725 56.22 49.8825 56.02 50.0725 55.88C50.2625 55.74 50.5125 55.67 50.8325 55.67C51.1825 55.67 51.4525 55.75 51.6525 55.91C51.8425 56.07 51.9425 56.3 51.9425 56.6V56.67L50.4425 56.89C49.1125 57.09 48.4525 57.64 48.4525 58.55C48.4525 59.02 48.6025 59.4 48.9125 59.69C49.2125 59.98 49.6725 60.12 50.2725 60.12ZM56.5821 58.47C56.9621 58.47 57.3221 58.39 57.6621 58.23C57.9921 58.07 58.2421 57.83 58.4121 57.53C58.5721 57.23 58.6621 56.91 58.6621 56.58C58.6621 56.36 58.6121 56.12 58.5321 55.88L58.5121 55.66C58.5121 55.51 58.5621 55.39 58.6621 55.3C58.7621 55.22 58.8921 55.17 59.0621 55.17L59.2821 55.18V54.15L58.9921 54.13C58.7021 54.13 58.4421 54.21 58.2121 54.36C57.9721 54.51 57.8021 54.71 57.7021 54.95C57.4621 54.83 57.2321 54.76 57.0221 54.73C56.8021 54.71 56.6621 54.69 56.5821 54.69C56.1921 54.69 55.8321 54.78 55.5021 54.94C55.1621 55.1 54.9121 55.34 54.7521 55.64C54.5821 55.94 54.5021 56.26 54.5021 56.58C54.5021 57.09 54.6621 57.52 55.0021 57.86C54.8221 57.96 54.6821 58.11 54.5621 58.29C54.4421 58.48 54.3821 58.7 54.3821 58.94C54.3821 59.14 54.4221 59.32 54.5021 59.48C54.5821 59.64 54.6821 59.77 54.8121 59.86C54.6121 60 54.4721 60.15 54.3821 60.33C54.2921 60.51 54.2521 60.69 54.2521 60.87C54.2521 61.34 54.4421 61.69 54.8221 61.93C55.2021 62.17 55.8021 62.29 56.6421 62.29C57.1521 62.29 57.5921 62.22 57.9521 62.08C58.3121 61.94 58.5921 61.75 58.8021 61.49C59.0121 61.24 59.1221 60.95 59.1221 60.61C59.1221 60.28 59.0521 60 58.9221 59.77C58.7921 59.55 58.6021 59.37 58.3621 59.25C58.1221 59.13 57.8121 59.06 57.4521 59.06H55.7521C55.6521 59.06 55.5621 59.04 55.4921 58.98C55.4221 58.92 55.3921 58.84 55.3921 58.72C55.3921 58.66 55.4021 58.6 55.4421 58.54C55.4721 58.48 55.5121 58.42 55.5721 58.38C55.6321 58.34 55.6721 58.31 55.7121 58.3C56.0121 58.42 56.3021 58.47 56.5821 58.47ZM55.5921 56.58C55.5921 56.32 55.6721 56.11 55.8521 55.94C56.0321 55.78 56.2721 55.69 56.5821 55.69C56.8821 55.69 57.1221 55.78 57.3021 55.94C57.4821 56.11 57.5721 56.32 57.5721 56.58C57.5721 56.84 57.4821 57.06 57.3021 57.22C57.1221 57.39 56.8821 57.47 56.5821 57.47C56.2721 57.47 56.0321 57.39 55.8521 57.22C55.6721 57.06 55.5921 56.84 55.5921 56.58ZM57.4221 60.12C57.6021 60.12 57.7521 60.17 57.8621 60.26C57.9721 60.35 58.0321 60.47 58.0321 60.62C58.0321 60.85 57.9121 61.02 57.6721 61.13C57.4321 61.25 57.0821 61.3 56.6221 61.3C56.1221 61.3 55.7721 61.25 55.5821 61.14C55.3921 61.04 55.3021 60.87 55.3021 60.65C55.3021 60.55 55.3221 60.45 55.3821 60.35C55.4421 60.25 55.5121 60.18 55.5921 60.12H57.4221ZM63.5325 58.3C63.4225 58.56 63.2525 58.75 63.0325 58.89C62.8125 59.03 62.5525 59.1 62.2725 59.1C61.8625 59.1 61.5325 58.98 61.2725 58.73C61.0125 58.49 60.8625 58.16 60.8225 57.75H64.7725L64.7825 57.38C64.7825 57.01 64.7225 56.66 64.6025 56.33C64.4825 56 64.3025 55.71 64.0825 55.47C63.8525 55.23 63.5825 55.04 63.2625 54.9C62.9425 54.76 62.6025 54.69 62.2325 54.69C61.8525 54.69 61.5125 54.76 61.1925 54.9C60.8725 55.04 60.5925 55.24 60.3625 55.48C60.1325 55.73 59.9525 56.02 59.8325 56.35C59.7125 56.69 59.6525 57.04 59.6525 57.4C59.6525 57.78 59.7125 58.14 59.8325 58.47C59.9525 58.81 60.1325 59.1 60.3625 59.34C60.5825 59.59 60.8625 59.78 61.1825 59.92C61.5025 60.06 61.8625 60.12 62.2425 60.12C62.7925 60.12 63.2725 59.99 63.6925 59.71C64.1125 59.43 64.4125 59.06 64.6025 58.58L63.5325 58.3ZM62.2325 55.66C62.4125 55.66 62.6025 55.7 62.8025 55.77C63.0025 55.85 63.1725 55.98 63.3225 56.18C63.4625 56.38 63.5625 56.61 63.6025 56.87H60.8425C60.8625 56.71 60.9325 56.53 61.0325 56.34C61.1325 56.15 61.2825 55.99 61.5025 55.86C61.7125 55.73 61.9525 55.66 62.2325 55.66ZM25.1016 69.57V69.89C25.1016 70.15 25.0316 70.38 24.9016 70.6C24.7616 70.82 24.5816 70.98 24.3516 71.06C24.1216 71.15 23.8916 71.19 23.6716 71.19C23.3716 71.19 23.1416 71.14 22.9916 71.02C22.8416 70.91 22.7716 70.75 22.7716 70.54C22.7716 70.36 22.8416 70.2 22.9816 70.08C23.1216 69.96 23.3616 69.86 23.7216 69.8L25.1016 69.57ZM23.4316 72.12C23.8116 72.12 24.1716 72.06 24.4916 71.94C24.8116 71.82 25.0616 71.65 25.2416 71.43C25.2916 71.55 25.3716 71.67 25.4916 71.77C25.6116 71.88 25.7416 71.96 25.8916 72C26.0416 72.04 26.1816 72.06 26.3216 72.06C26.4716 72.06 26.6016 72.05 26.7016 72.02V71.06L26.6016 71.07C26.3716 71.07 26.2616 70.96 26.2616 70.72V68.63C26.2616 68.03 26.0716 67.55 25.6916 67.21C25.3116 66.87 24.7616 66.69 24.0216 66.69C23.5816 66.69 23.2116 66.76 22.9016 66.88C22.5816 67.01 22.3316 67.19 22.1416 67.42C21.9416 67.66 21.8116 67.94 21.7516 68.27L22.8916 68.46C22.9316 68.22 23.0416 68.02 23.2316 67.88C23.4216 67.74 23.6716 67.67 23.9916 67.67C24.3416 67.67 24.6116 67.75 24.8116 67.91C25.0016 68.07 25.1016 68.3 25.1016 68.6V68.67L23.6016 68.89C22.2716 69.09 21.6116 69.64 21.6116 70.55C21.6116 71.02 21.7616 71.4 22.0716 71.69C22.3716 71.98 22.8316 72.12 23.4316 72.12ZM29.4976 70.59L28.0776 66.81H26.8176L28.9276 72H30.0476L32.1676 66.81H30.9376L29.4976 70.59ZM35.922 69.57V69.89C35.922 70.15 35.852 70.38 35.722 70.6C35.582 70.82 35.402 70.98 35.172 71.06C34.942 71.15 34.712 71.19 34.492 71.19C34.192 71.19 33.962 71.14 33.812 71.02C33.662 70.91 33.592 70.75 33.592 70.54C33.592 70.36 33.662 70.2 33.802 70.08C33.942 69.96 34.182 69.86 34.542 69.8L35.922 69.57ZM34.252 72.12C34.632 72.12 34.992 72.06 35.312 71.94C35.632 71.82 35.882 71.65 36.062 71.43C36.112 71.55 36.192 71.67 36.312 71.77C36.432 71.88 36.562 71.96 36.712 72C36.862 72.04 37.002 72.06 37.142 72.06C37.292 72.06 37.422 72.05 37.522 72.02V71.06L37.422 71.07C37.192 71.07 37.082 70.96 37.082 70.72V68.63C37.082 68.03 36.892 67.55 36.512 67.21C36.132 66.87 35.582 66.69 34.842 66.69C34.402 66.69 34.032 66.76 33.722 66.88C33.402 67.01 33.152 67.19 32.962 67.42C32.762 67.66 32.632 67.94 32.572 68.27L33.712 68.46C33.752 68.22 33.862 68.02 34.052 67.88C34.242 67.74 34.492 67.67 34.812 67.67C35.162 67.67 35.432 67.75 35.632 67.91C35.822 68.07 35.922 68.3 35.922 68.6V68.67L34.422 68.89C33.092 69.09 32.432 69.64 32.432 70.55C32.432 71.02 32.582 71.4 32.892 71.69C33.192 71.98 33.652 72.12 34.252 72.12ZM39.1716 65.94C39.3816 65.94 39.5616 65.88 39.7016 65.74C39.8416 65.6 39.9116 65.43 39.9116 65.21C39.9116 65 39.8416 64.82 39.7016 64.68C39.5616 64.54 39.3816 64.46 39.1716 64.46C38.9516 64.46 38.7716 64.54 38.6316 64.68C38.4916 64.82 38.4216 65 38.4216 65.21C38.4216 65.43 38.4916 65.6 38.6316 65.74C38.7716 65.88 38.9516 65.94 39.1716 65.94ZM38.5716 72H39.7616V66.81H38.5716V72ZM42.3885 72V64.5H41.1985V72H42.3885ZM47.0255 69.57V69.89C47.0255 70.15 46.9555 70.38 46.8255 70.6C46.6855 70.82 46.5055 70.98 46.2755 71.06C46.0455 71.15 45.8155 71.19 45.5955 71.19C45.2955 71.19 45.0655 71.14 44.9155 71.02C44.7655 70.91 44.6955 70.75 44.6955 70.54C44.6955 70.36 44.7655 70.2 44.9055 70.08C45.0455 69.96 45.2855 69.86 45.6455 69.8L47.0255 69.57ZM45.3555 72.12C45.7355 72.12 46.0955 72.06 46.4155 71.94C46.7355 71.82 46.9855 71.65 47.1655 71.43C47.2155 71.55 47.2955 71.67 47.4155 71.77C47.5355 71.88 47.6655 71.96 47.8155 72C47.9655 72.04 48.1055 72.06 48.2455 72.06C48.3955 72.06 48.5255 72.05 48.6255 72.02V71.06L48.5255 71.07C48.2955 71.07 48.1855 70.96 48.1855 70.72V68.63C48.1855 68.03 47.9955 67.55 47.6155 67.21C47.2355 66.87 46.6855 66.69 45.9455 66.69C45.5055 66.69 45.1355 66.76 44.8255 66.88C44.5055 67.01 44.2555 67.19 44.0655 67.42C43.8655 67.66 43.7355 67.94 43.6755 68.27L44.8155 68.46C44.8555 68.22 44.9655 68.02 45.1555 67.88C45.3455 67.74 45.5955 67.67 45.9155 67.67C46.2655 67.67 46.5355 67.75 46.7355 67.91C46.9255 68.07 47.0255 68.3 47.0255 68.6V68.67L45.5255 68.89C44.1955 69.09 43.5355 69.64 43.5355 70.55C43.5355 71.02 43.6855 71.4 43.9955 71.69C44.2955 71.98 44.7555 72.12 45.3555 72.12ZM50.8651 67.49V64.5H49.6751V72H50.7751V71.26C50.9351 71.53 51.1751 71.74 51.4851 71.89C51.7851 72.05 52.1351 72.12 52.5251 72.12C52.8851 72.12 53.2251 72.05 53.5251 71.91C53.8251 71.77 54.0851 71.58 54.2951 71.33C54.5051 71.08 54.6651 70.79 54.7751 70.46C54.8751 70.13 54.9351 69.78 54.9351 69.41C54.9351 69.05 54.8751 68.7 54.7751 68.36C54.6651 68.03 54.5051 67.74 54.2951 67.49C54.0851 67.24 53.8251 67.04 53.5251 66.9C53.2251 66.76 52.8851 66.69 52.5251 66.69C52.1451 66.69 51.8151 66.77 51.5251 66.92C51.2351 67.07 51.0151 67.26 50.8651 67.49ZM50.8251 69.41C50.8251 69.12 50.8751 68.84 50.9951 68.57C51.1151 68.3 51.2851 68.09 51.5251 67.95C51.7551 67.81 52.0051 67.74 52.2851 67.74C52.7251 67.74 53.0751 67.9 53.3451 68.22C53.6051 68.54 53.7451 68.93 53.7451 69.41C53.7451 69.76 53.6751 70.06 53.5351 70.31C53.3951 70.56 53.2251 70.75 53.0151 70.88C52.7951 71.01 52.5551 71.07 52.2851 71.07C51.8451 71.07 51.4851 70.92 51.2251 70.6C50.9551 70.28 50.8251 69.89 50.8251 69.41ZM57.2225 72V64.5H56.0325V72H57.2225ZM62.1995 70.3C62.0895 70.56 61.9195 70.75 61.6995 70.89C61.4795 71.03 61.2195 71.1 60.9395 71.1C60.5295 71.1 60.1995 70.98 59.9395 70.73C59.6795 70.49 59.5295 70.16 59.4895 69.75H63.4395L63.4495 69.38C63.4495 69.01 63.3895 68.66 63.2695 68.33C63.1495 68 62.9695 67.71 62.7495 67.47C62.5195 67.23 62.2495 67.04 61.9295 66.9C61.6095 66.76 61.2695 66.69 60.8995 66.69C60.5195 66.69 60.1795 66.76 59.8595 66.9C59.5395 67.04 59.2595 67.24 59.0295 67.48C58.7995 67.73 58.6195 68.02 58.4995 68.35C58.3795 68.69 58.3195 69.04 58.3195 69.4C58.3195 69.78 58.3795 70.14 58.4995 70.47C58.6195 70.81 58.7995 71.1 59.0295 71.34C59.2495 71.59 59.5295 71.78 59.8495 71.92C60.1695 72.06 60.5295 72.12 60.9095 72.12C61.4595 72.12 61.9395 71.99 62.3595 71.71C62.7795 71.43 63.0795 71.06 63.2695 70.58L62.1995 70.3ZM60.8995 67.66C61.0795 67.66 61.2695 67.7 61.4695 67.77C61.6695 67.85 61.8395 67.98 61.9895 68.18C62.1295 68.38 62.2295 68.61 62.2695 68.87H59.5095C59.5295 68.71 59.5995 68.53 59.6995 68.34C59.7995 68.15 59.9495 67.99 60.1695 67.86C60.3795 67.73 60.6195 67.66 60.8995 67.66Z" fill="#C9CBD4"/>
<path d="M49.1233 15.0576L49.2181 15.3231H49.5H55.4815C57.2048 15.3231 58.6 16.7178 58.6 18.4396V38.4835C58.6 40.2052 57.2048 41.6 55.4815 41.6H24.5185C22.7952 41.6 21.4 40.2052 21.4 38.4835V18.4396C21.4 16.7178 22.7952 15.3231 24.5185 15.3231H30.5H30.7816L30.8766 15.0579L32.306 11.0667L32.3064 11.0655C32.4473 10.6682 32.8275 10.4 33.2532 10.4L46.7468 10.4L46.7471 10.4C46.9553 10.3998 47.1584 10.4639 47.3287 10.5834C47.4989 10.7027 47.628 10.8717 47.6985 11.0671C47.6986 11.0672 47.6986 11.0674 47.6987 11.0675L49.1233 15.0576ZM34.4891 12.7648H34.2072L34.1124 13.0304L33.1053 15.852L33.1052 15.8524L32.4482 17.6879H24.5185C24.1043 17.6879 23.7667 18.025 23.7667 18.4396V38.4835C23.7667 38.8981 24.1043 39.2352 24.5185 39.2352H55.4815C55.8957 39.2352 56.2333 38.8981 56.2333 38.4835V18.4396C56.2333 18.025 55.8957 17.6879 55.4815 17.6879H47.5474L46.8904 15.8524L46.8903 15.852L45.8832 13.0304L45.7884 12.7648H45.5065H34.4891Z" fill="#C9CBD4" stroke="white" stroke-width="0.8"/>
<path d="M40.0012 17.55C38.005 17.5497 36.053 18.135 34.3923 19.2324C32.7315 20.3298 31.4363 21.8903 30.6712 23.717C29.9061 25.5438 29.7057 27.5543 30.0957 29.494C30.4857 31.4337 31.4483 33.2147 32.861 34.6121C34.2737 36.0095 36.0729 36.9605 38.031 37.3457C39.989 37.7309 42.0186 37.5331 43.8633 36.7771C45.708 36.0211 47.2854 34.7407 48.3955 33.0969C49.5056 31.4531 50.0983 29.5201 50.098 27.5423C50.0976 24.8907 49.0325 22.3488 47.1385 20.4754C45.2448 18.6021 42.6774 17.5504 40.0012 17.55ZM39.9772 31.78C39.1326 31.78 38.3074 31.5322 37.6058 31.0686C36.9044 30.6049 36.3584 29.9465 36.0362 29.177C35.714 28.4076 35.6298 27.5613 35.794 26.7448C35.9582 25.9283 36.3636 25.1777 36.9597 24.588C37.5559 23.9983 38.316 23.5962 39.1443 23.4332C39.9726 23.2702 40.8311 23.3539 41.611 23.6735C42.3909 23.993 43.0567 24.5338 43.5247 25.2267C43.9928 25.9196 44.2423 26.7337 44.2423 27.566C44.2423 28.682 43.7941 29.7534 42.9948 30.544C42.1953 31.3348 41.11 31.78 39.9772 31.78Z" fill="#C9CBD4" stroke="white" stroke-width="0.9"/>
<path d="M36.0591 37.0749V36.7849L35.7949 36.6651C33.6012 35.6706 31.8407 33.9333 30.8304 31.7682L29.9726 31.9585V45.4255V45.8754L30.4225 45.8755C31.1621 45.8757 31.8946 45.7318 32.5782 45.4518C33.2618 45.1718 33.8832 44.7612 34.4069 44.2432C34.9306 43.7252 35.3462 43.1099 35.6298 42.4324C35.9134 41.755 36.0593 41.0287 36.0591 40.2952C36.0591 40.2951 36.0591 40.2951 36.0591 40.295V37.0749Z" fill="#C9CBD4" stroke="white" stroke-width="0.9"/>
</svg>
