<svg width="64" height="64" viewBox="0 0 64 64" fill="none" xmlns="http://www.w3.org/2000/svg">
<mask id="mask0" style="mask-type:alpha" maskUnits="userSpaceOnUse" x="0" y="0" width="64" height="64">
<rect width="64" height="64" fill="#C4C4C4"/>
</mask>
<g mask="url(#mask0)">
<path d="M6 8.00739L6.53777 7.80718L6.76164 7.8999L6.61239 8.06974L6 8.00739ZM7.12015 8.56123H6.77624L6.61239 8.37251H6.97091L7.18018 8.00739L7.32942 8.17723L7.12015 8.56123ZM51.5612 53.4843L52.9556 53.6172L52.6627 53.9766H51.4883L51.5612 53.4843ZM39.547 51.1746H39.1617L39.3272 50.798L39.6395 50.8923L39.547 51.1746ZM44.1322 54.24L43.2522 54.3532L43.1573 54.0882L42.8864 53.8732L43.8767 53.7452L44.4088 54.0078L44.1322 54.24ZM45.1129 53.6041C45.0691 53.5253 45.0123 53.4548 44.945 53.3941C45.0358 53.3875 45.1185 53.3621 45.2078 53.3391C45.1575 53.4285 45.1258 53.5221 45.1129 53.6041ZM47.1593 53.7469L47.5998 53.5787L47.3061 53.2948L47.1593 52.7844L46.5721 52.6901L47.1001 52.3881L47.8334 52.6137L48.3841 52.4816L49.2642 52.576L49.7208 53.0675L50.274 53.0117L50.6625 53.4843L50.4614 53.8806L50.2416 53.7461L49.5464 53.568L49.1595 53.9175L48.9211 53.7452L48.6639 53.824L48.2632 54.3541L47.8958 53.8437L47.3069 53.8814L46.5915 53.8437L46.3368 54.167L45.9143 53.7469L46.4082 53.5787L47.1593 53.7469ZM42.9594 47.9426L43.2335 48.3397L43.3568 48.9067L43.5093 48.983V49.4367L43.1548 49.134L43.2473 48.8123L42.9569 48.585V47.9426H42.9594ZM42.875 50.5141L43.6415 51.0064L43.8946 51.3288L44.9223 51.4412L45.0869 51.8622H45.5273L46.0594 52.2782L44.8858 52.5785H43.4744L43.7307 52.1214L43.6439 51.8359H43.0689L42.6471 51.4978V51.1007H41.7492L41.1481 50.551H40.0831L40.2843 50.1744H39.3296L38.963 50.5141H38.6353L38.5055 50.7799L37.975 50.8718L38.25 50.1711L39.0936 49.7756H40.1926L41.7151 49.984L42.1718 50.3623L42.875 50.5141ZM39.2079 4.66544L39.5008 4.61374L39.822 5.06667V5.41538L39.2071 5.32513L39.2079 4.66544ZM39.9217 5.60903L39.7344 5.82892L39.4334 5.60903H39.9217ZM39.1325 6.00944H39.7344L39.8349 6.39754L40.2235 6.4238L40.4489 6.78564L40.2486 7.06462L40.6623 7.45846H41.226L41.9154 7.14831L42.5554 7.38051L42.7079 7.63897L42.3145 8.14277H41.7427L40.981 8.09108L40.4425 8.02626V7.82933L40.0199 8.02626L39.5811 7.7161L39.7936 7.14749L39.7571 6.75939L39.7335 6.48779L39.4075 6.68144L39.0311 6.2679L39.1325 6.00944ZM38.7943 9.38256L38.4812 9.66728L38.2297 9.46051L38.3141 8.88123L38.5144 8.3881L38.9703 8.09108L39.3458 8.36267H39.8065L39.9225 8.54318L39.2079 9.30544L38.6312 9.22831L38.7943 9.38256ZM38.5688 7.45764L38.8819 7.10892L39.2453 7.16061L39.3207 7.45846L39.195 7.81949H38.8689L38.5688 7.45764ZM38.2297 4.44144V3.96718L38.5688 3.91549L38.6442 4.3159L38.9476 4.78113L38.8316 5.25949H38.5672L38.5161 4.83282L38.1146 4.78113L38.2297 4.44144ZM37.49 5.83056L37.6035 6.48779L37.8672 6.16451L38.117 6.48779L38.2305 6.16451L38.6864 6.29415V6.53949L38.323 6.77169L38.4106 6.9399L38.1235 7.37887L37.6611 7.2238L37.9491 6.73231H37.4592L37.2215 6.15877L37.49 5.83056ZM37.3278 8.02544L38.0424 8.09026L38.1178 8.37415L37.6668 8.88041L37.9053 9.22749L37.6668 9.74441H37.2029L37.1526 9.97744L36.8638 9.89949L36.8014 9.42851L36.3123 8.80164L36.4874 8.50462L36.876 8.88205L37.1088 8.55631L36.8257 8.31097L37.3278 8.02544ZM36.2125 4.49805L37.0025 4.57026L36.6399 4.99282L36.15 4.88533L36.2125 4.49805ZM36.0997 6.2039L35.9789 5.73867L36.3171 5.49333L36.571 5.59262L36.4185 6.21703L36.8533 6.33354L36.3123 6.99569L35.7347 6.66421L35.3843 6.83651L34.5651 6.81108L34.2058 6.52636L34.9033 6.39754L34.7654 6.19077L34.252 6.26872L33.9649 5.73867L34.5781 5.83139L34.6933 5.4162L35.1459 5.26687L35.4979 5.59262L35.4849 6.04964L35.7988 6.33354L36.0997 6.2039ZM34.0687 4.58092L34.8969 4.31672L35.6114 4.56944L35.0218 5.14379L34.8206 4.85662L34.3964 5.14379L34.1093 5.05354L33.7321 5.26605L33.3914 4.82051L34.0687 4.58092ZM30.3587 7.00472L31.7497 6.25477L31.963 5.73785L32.8528 5.89292L32.9153 6.35815L33.479 6.43528L33.466 7.26236L33.6656 7.32718L33.4117 7.75385L33.6656 7.66359L34.0882 8.03774L33.8675 8.27077L34.2188 8.39959L34.4694 7.88267L34.7573 8.37333L34.4937 9.0839L34.7573 9.14872L34.9828 8.37333L35.1824 7.95979L35.5214 8.11487L35.4338 7.80472L35.8848 7.61108L36.2109 8.05087L35.8588 8.39959L35.5417 8.20595L35.6593 8.77456L35.2708 10.0021L35.8596 10.752L35.7088 11.1138L35.2448 10.8816L35.433 11.2952L35.3568 11.5405L34.6057 11.4371L34.1036 11.2558V10.8554L33.4401 11.0622L32.4497 11.127L31.6597 10.7651L31.7603 10.2613L31.1211 9.91261V9.33087L31.7732 9.27918L32.5381 9.73128L32.8764 9.67959L32.4878 9.18892L31.5104 8.9042L31.4099 8.54236L32.3248 8.5038L31.9111 8.4521L31.6232 7.96062L32.526 7.15897L30.984 8.05087L30.357 7.88267L30.4819 7.53395L30.3587 7.00472ZM15.7285 2.2318V1.86256L16.0084 1.70831L15.9483 1.97005L16.0084 2.2318L15.8145 2.83241L15.456 2.66338L15.7285 2.2318ZM12.8564 4.69579L13.2295 4.88041L13.0648 5.23487L12.7809 5.15774L12.8564 4.69579ZM13.3787 10.7487H12.8264L12.3486 10.4714L12.5879 10.1727L13.051 10.025L13.1111 10.3204H13.3649L13.5888 10.4714L13.3787 10.7487ZM13.9465 10.3024L13.588 10.3015V10.0242H13.9465V10.3024ZM16.74 19.8818L16.8146 18.1333L17.1285 17.9717L17.397 18.295L16.9193 18.8029L16.9639 19.3887L16.74 19.8818ZM53.469 30.3926L52.9369 30.2605V29.7879L53.1227 29.2398H53.5266L53.5079 29.8256L53.6921 29.7124L53.9119 29.9019L53.469 30.3926ZM50.6998 27.1212L50.5336 27.0449H51.4793L52.2588 27.575H51.4883L50.6998 27.1212ZM57.2658 27.575L57.4491 27.4043L57.3202 28.0287L57.6325 27.7637L57.7833 28.6523L57.3705 28.8501V28.5391L57.0274 28.8501L56.9527 28.6523L57.2658 27.575ZM38.9654 62.3705L38.8575 62.2441L38.757 62.4361L38.4812 62.1908V61.7264L37.7666 61.3374L37.6287 61.0018L37.4032 60.8738L37.5038 61.1832L36.9149 60.9559L36.7138 60.5629L36.7559 60.1436L35.0356 58.1169L32.264 57.2275L30.4308 55.2755L29.7787 55.0818L28.9514 55.4823H28.3244L27.2091 55.0039L26.5951 54.5764L25.9681 54.3188L24.9526 53.6862L24.414 53.1044L23.9881 53.0018L23.336 52.6909L22.9223 52.0057L22.1704 51.4634L21.8573 50.5321H22.1583L22.108 50.1957L22.3335 49.7313L22.1583 49.335L22.0707 48.7147L21.6067 47.9114L21.494 47.4839L20.8418 46.72L20.7664 46.3065L20.4776 45.9463L20.1142 45.7395L19.9885 45.3259L20.2643 45.0675L20.1637 44.8107L19.8506 44.6925L19.8758 44.3315L19.6625 44.2798L19.4743 44.023L19.4621 43.5692L19.2366 43.4396L18.6729 42.2121L18.4474 40.8583L18.5853 40.3963L18.3484 40.2872L18.2608 39.9508L17.9348 39.9122L17.6712 39.5618L17.4075 39.9508L17.3702 41.0503L17.7839 41.8535L17.7961 42.1497L18.1473 42.8201L18.0621 43.2829L18.2503 43.3346L18.3128 43.671L18.6007 44.3692L18.6632 45.0667L18.7889 45.5065L18.8895 46.6831L19.2025 46.7643L19.5035 47.2944L19.4662 47.7891L19.0403 47.9179L18.8651 47.278L17.8626 45.8667L18.0508 45.4531L18.0386 44.8468L17.6249 44.3684L17.5625 44.0829H17.3491L16.71 43.4371L16.4845 42.9071L17.2737 43.2172L17.1237 42.8923L17.2989 42.5058L17.0231 41.6919L16.5843 41.2513L16.3061 38.0332L15.8048 37.1036L15.5541 36.9739L15.3911 36.5465L14.7771 36.1715L14.8022 35.8113L14.5013 34.3926L14.7146 34.0956L14.5265 33.8265L14.5516 33.2833L14.7649 33.3875V32.969H14.6149L14.3894 32.0509L14.6149 30.6035L15.0537 29.8929L15.3424 28.6137L16.0441 27.7735L17.3605 25.4605L17.6939 23.7071L17.3808 22.8021L17.1553 21.5746L17.3686 21.3547L17.7198 21.9495L18.2462 22.5567L17.7823 21.6517L17.7069 21.0183L17.9948 20.5145L17.8066 20.1657L17.9818 19.7128L17.7434 19.2862L17.831 18.7824L18.1189 18.6535L18.2446 18.4016L18.3217 17.833L18.4166 17.3448L18.153 17.1766L17.7766 17.655L17.7142 17.2414L18.0654 16.4398L18.0281 15.7415L17.6484 15.9097L18.0248 15.1729L18.2633 14.4098L18.4515 14.3196L18.3387 14.1645L18.2381 12.6269L18.4636 12.4718L18.0248 12.3167L18.0378 11.8252L17.3597 11.2049L17.41 10.8693L17.3345 10.6626L17.3848 10.0808L17.1464 9.74523L16.8203 9.68041L16.5445 10.0037L16.1933 10.2367L15.9175 9.95282L14.6644 10.0176L14.7649 9.6558L15.1664 9.75918L15.2037 9.4359L15.5671 9.30626L15.9808 9.07323H16.4699L16.7084 9.28L16.7838 8.94359L16.4326 8.82708H15.6677L15.104 9.08554L14.653 9.04697L14.1387 9.1241L14.2142 9.38256L14.0885 9.58933L12.6098 9.65415L12.2716 9.57703L12.0209 9.69354L11.5318 9.75836L11.106 9.56472L10.5917 9.62954L10.2908 9.42277L10.2284 9.51303L9.61434 9.42277L9.46428 9.08718L9.08792 9.152L9.02547 8.86728L8.72454 8.90585L8.58665 9.07405L8.37333 8.84185L7.95966 8.63508L8.2476 8.48L8.69859 8.57026V8.7639L9.17471 8.73764V8.86646L9.38804 8.74995L9.81387 8.72369L10.1521 8.93046L9.97691 9.09867L10.1026 9.20205L10.3281 8.98215H10.8918L11.2049 9.20205L11.3931 9.08554L12.1702 8.98215L12.8596 8.58174L13.3739 8.5038L12.948 8.31015L13.0608 8.09026L12.6098 8.18051L12.8353 7.75385L12.6974 7.35344L12.2334 7.19836L12.7096 6.79795L13.0356 6.74626L13.3868 6.35815L13.1232 6.20308L13.0356 5.86667L13.562 5.11754L13.8508 5.58277L13.9887 5.44082L13.9011 5.19549L13.9887 4.74256L14.3148 4.38072L15.1672 4.14769L15.4057 4.23795L16.1203 3.99262L16.1828 4.12144L16.07 4.32821L16.1706 4.52185L16.6216 4.57354L16.7092 4.80656L17.0352 4.832L17.6493 4.27651L17.9624 4.36677L18.1254 4.23713L17.8374 4.03036L17.5243 3.99179L17.5495 3.68164L17.2989 3.46174L17.2364 3.08677L17.6501 2.6601L17.951 2.63467V2.25969L18.1262 2.03979L18.7654 2.34995L19.3169 2.46646L19.4175 2.68636L18.8789 2.95795L18.9795 3.47487L19.3177 3.53969L19.995 2.97108L19.8944 2.69949L20.3835 2.27282L20.8978 1.49744L21.3366 1.34236L21.7876 1.82072L22.9783 1.7042L23.3798 2.00123L23.2922 2.208L23.718 1.92328L24.0441 2.33682L24.6078 2.40164L24.5957 2.78974L24.4205 3.03508L24.646 3.17703L24.358 3.78421L24.5584 3.84903L24.7084 4.06892L24.7587 4.6761L25.0223 4.90831V5.23159L25.4611 5.58031V5.94626L25.6558 6.31549L25.7174 6.34913L25.5674 6.71098L26.0313 7.7842L26.3444 7.53887L27.9618 7.43549L28.2497 7.62913L27.9367 7.80964L28.3633 7.93928L28.8524 7.64226L28.94 7.93928L28.6642 8.31426L28.6764 8.71467L29.4413 8.30113L29.0649 8.98626L29.7544 8.76636L30.5193 10.0841L30.9702 10.1621L31.2338 10.4074L31.3093 10.8464L30.5947 10.9752L31.4099 11.5052H32.2875L32.7133 12.2937L32.5251 12.7335L32.8261 12.6302L33.0013 11.8031L33.7783 11.6611L32.9875 11.5832L33.1091 11.2985L34.003 11.2082L33.8505 11.6734L34.7801 12.4488L36.1103 12.5391L36.1224 12.151H36.511L36.0973 11.6341L36.6375 11.0909L37.2142 11.5438L37.3302 12.0738L36.7121 12.2421L36.966 12.4751L36.6116 12.8238L37.0001 13.2242L37.0252 12.7458L37.301 12.681L37.8153 12.3454L37.6555 12.0484L37.8412 11.6603L37.4024 11.2336L37.2394 10.9752L37.4932 10.7815L37.3772 10.4714L38.1778 9.70913L38.5542 10.0193V10.6782L38.8413 11.0786L38.529 11.5701L38.9176 11.712L38.8551 12.6942L39.1933 12.0607L39.6321 12.1772L39.7554 12.6679L39.5048 12.9264L39.8041 13.5852L40.204 13.2234L40.4279 12.6416L40.7272 12.5259L40.6525 11.8671L40.9527 11.6734L41.9163 12.1781L41.9674 12.6687L41.6275 12.7975L41.9146 13.6501L41.5261 14.0898L40.7637 14.4254L40.4019 14.2187L40.0474 14.1284L40.1634 14.4903L39.5381 14.9941L39.676 15.3296L38.8835 16.0279L37.7049 16.1961L37.9815 16.416L37.7439 16.7778L37.1185 17.0363L35.8653 18.1998L35.6017 19.0786L35.4014 19.4921L35.5393 19.8408L36.0924 19.8539L36.2449 21.0166L36.0065 21.3399L37.082 21.1594L38.2971 22.1801L38.9232 22.4386L39.3758 22.9038L40.8667 23.0334V24.8041L41.7062 26.0316L42.145 26.3417L42.3316 26.0193L42.6187 26.368L42.6049 25.8896L42.7801 25.5147L42.5286 25.024L42.5798 24.3134L42.3608 23.4995L43.2757 23.0343L43.7753 22.1169L43.6512 21.0831L42.9366 20.2297L43.3998 19.5577L43.1459 18.679L43.2716 18.1621L42.9926 17.6706L43.2554 17.2833L43.8467 17.4646L44.64 17.568L44.8541 17.335L45.645 17.9036L45.997 18.3688L46.8365 18.4853L46.8235 19.2222L46.9744 19.9458L47.5373 20.0755L47.9137 20.5538L48.6534 20.0755L48.754 19.6751L48.9543 18.7701L51.0648 21.0535L50.8791 21.609L51.8946 22.2293L52.0804 22.7594L52.4689 22.4624L52.756 22.7208L53.5169 22.8373L53.1283 23.2123L53.5825 23.0704L53.8048 23.4708L54.0287 23.3157L54.3815 23.4708L54.6354 24.0911L54.989 24.4406L54.6135 25.1906L55.2664 25.0798L55.0109 25.8741L54.9582 26.6494L55.3459 26.2334L55.7101 26.3089L55.4903 26.6494L55.8569 26.7635L56.6275 26.4985L56.7743 26.8201L56.7013 27.3116L57.158 27.1409V27.5758L56.8984 27.8974L56.4044 28.8427H55.9453L56.3906 28.2757L55.9875 28.3701L55.8723 28.0673L55.3954 28.3134L54.5527 28.4455L53.9111 28.5973V28.2174L54.1674 27.7826L54.0392 27.3854L54.1674 27.159V26.4402L54.6159 25.1889L53.6629 25.5122L53.3498 26.1071L52.9109 26.5206L50.7177 26.624L49.5391 26.8693L49.1879 27.5413L48.8618 27.5536L48.3103 28.1354L47.0944 29.8929L47.5081 29.5959L48.1343 28.6917L49.6138 27.6833L50.6414 27.5668L51.03 28.1485L50.549 28.6392L49.8717 28.6137L50.1256 28.8722L50.7023 28.704L50.7534 29.3497L51.4445 30.1637L51.9449 30.2802L53.0472 30.3967L53.2857 30.5649L52.3221 31.25L51.5953 31.4183L50.9813 32.4004L50.4549 32.1419L50.3543 31.6119L51.1557 30.8234L51.0551 30.5781L50.4784 30.953L49.9723 31.0457L49.6916 31.456L47.9072 32.4267L47.5811 33.5376L48.0321 34.0808L47.3353 34.4558L46.5567 34.4041L45.98 34.7405L46.9792 34.6634L45.7131 35.0769L45.7634 35.5167L45.2118 36.4341L44.8103 36.0722L45.1615 36.9116L44.8403 37.2866L44.4851 37.9856L44.434 37.6894L44.597 37.289L44.3585 37.0051L44.2831 36.0484L43.944 36.9264L44.1703 37.1594L44.2701 37.6246L44.0073 37.9479L44.4299 38.0644L44.481 38.478L44.6822 39.0851L44.0673 39.4855L44.2799 39.7309L44.2433 39.9376L43.6415 39.9893L43.1516 40.5875L42.7379 40.6704L42.2237 41.0839L41.2941 42.0004L40.6558 42.8382L40.6712 43.872L41.0094 44.7253L41.0678 45.2193L41.5066 46.3303L41.5448 47.351L41.1222 48.0747H40.728L40.6647 47.6997L40.2762 47.2862L39.6208 45.9545L39.6995 44.7918L38.7699 43.8507L37.9775 44.1756L37.5013 43.5692L36.7478 43.3625L36.0316 43.5692L34.9333 43.4757L34.6576 43.9163L35.0712 44.3118L34.9204 44.4669L34.4572 44.1157L33.7426 44.3225L33.1408 43.7826L32.7149 43.9647L31.9752 43.6546L31.1106 43.8228L30.1575 44.4431L29.2296 44.905L28.8411 45.6952L28.8889 46.4049L28.3049 47.9721L28.0664 49.3038L28.2919 50.6732L28.8686 51.9532L29.1298 52.8845L29.6814 52.9739L30.1202 53.4663L30.6717 53.376L32.1756 53.1561L32.8025 52.9354L33.2543 52.4308L33.5415 51.2287L34.9333 50.8431L36.2628 50.8816L36.3139 51.5151L35.7599 52.0574L35.7088 52.5875L35.347 53.7969L35.1094 53.9192L35.0007 55.5216L35.1913 55.9212L37.1526 55.8055L38.6815 56.3233L38.9687 57.024L38.3303 59.7645L39.6589 61.7969L39.9744 61.6862L40.2616 62.0111L41.8287 61.3005L43.0689 61.5877L44.1339 62.7257L43.5823 64L42.7541 62.6675L43.068 62.3811L42.8174 62.3188L42.2358 61.7608L41.7767 61.8905L41.5375 62.3179L41.2 62.4345L41.0987 62.6027L41.4507 63.1458L40.7612 63.3526L40.6598 62.9005L40.5349 62.7175L40.4587 63.1073L39.9955 62.5904L39.5811 62.4722L39.3572 62.5001L38.9654 62.3705ZM43.1573 13.2595L43.8054 12.8139L44.0746 13.0552L44.2109 13.3891L43.7194 13.6304L43.1573 13.2595ZM41.6932 24.8328V25.1733L41.0865 24.8328L41.1611 24.6244L41.6932 24.8328ZM40.8213 14.9982L41.0865 15.3764L41.6932 15.6603L41.5277 16.0952L41.8579 16.0197L42.1693 16.1141L42.0047 16.5112L41.3825 16.4546V16.1895L40.9405 16.2273L40.5374 16.5489L39.9866 16.7762V16.2847H39.4732L39.7855 15.9819L40.1148 14.7339H40.5552L40.5187 15.1122L40.8213 14.9982ZM41.5277 17.1167L41.0873 17.6271L40.6469 17.4384L40.7385 17.0412L41.3063 16.928L41.5277 17.1167ZM42.1872 17.9676L42.2788 17.4384L42.6276 17.5893L42.463 17.9676H42.1872ZM43.5523 9.43344H42.832L42.308 9.84205L42.9748 10.0464L42.9918 9.66728L43.6918 9.56308L44.3796 10.3245L44.9563 10.1949L45.4073 10.5477L46.435 11.1795L46.8665 12.0706L46.4163 12.1822L46.6134 12.6096L47.1901 12.9436L48.1627 13.1668L48.2843 13.5565H49.209L48.9219 14.6338L48.5617 15.3395L47.8958 14.615L47.1974 14.1506L46.963 14.5592L47.5754 15.3395L48.2016 15.5988L48.5439 16.5456L48.1878 16.9264L47.5754 16.5456L46.873 16.2855L47.1074 16.7746L47.9696 17.0839L48.2568 17.6254L46.9427 17.4367L46.5996 16.9264H45.8623L45.4462 16.3602L44.6716 15.6726L44.215 15.753L43.8808 16.0254L43.1613 16.0812V15.1335L43.9708 15.1705L44.421 15.1335L44.8744 14.8546L44.5321 14.409L45.0561 14.0931L45.2005 13.5918L44.6968 12.8304L43.798 12.0689L43.0242 11.4191L42.4208 11.9951L41.5399 11.5307L40.6477 11.5692L40.2202 11.2722L39.6289 10.8447L40.3135 10.6962L40.1334 10.455H39.6289V9.78626L40.3135 8.85744L41.2357 8.63836L40.8286 9.08062L40.732 9.5081L40.9283 10.0652L41.2357 9.80513L41.0914 9.34072L41.4304 8.95097L42.3307 8.82133L43.3617 8.93292L43.5523 9.43344ZM43.9838 4.71713L43.3568 4.8722L43.6447 5.46708L43.4193 5.82892L42.8304 6.2039L43.1565 6.592L42.703 6.99241L42.4492 6.94072L42.2861 6.592L41.6713 6.79385L41.0573 6.72082L40.4944 6.59118L40.6939 6.21703H41.2706L41.033 5.73867L41.4718 5.67467L41.6575 5.96923L41.8197 5.84205V5.28656L41.2666 5.49333L41.1652 5.18318L40.5649 5.45477L40.0434 4.78277L40.4441 4.62769L39.9193 4.26585L40.4822 3.36164L40.9454 3.15487L41.2974 3.80062L41.6526 4.13621L41.9284 3.76123L41.4101 3.5799L41.3258 2.81764L42.2894 2.46892L42.7095 2.63713L42.9967 2.19733L44.2133 1.88718L45.3424 2.26215L44.5783 3.1278L45.168 3.06297L44.4218 4.01969L43.9838 4.71713ZM59 8.34872L57.9707 9.952L57.8466 10.3655L58.1224 11.1147L57.9804 11.7604L57.2942 12.0968V12.407L56.9698 12.5621V12.9502L56.8189 13.0535L57.0704 13.3899L57.471 14.0357V14.4755L57.2456 14.9407L57.471 15.0958L57.9472 16.3364L57.8709 16.672L58.0218 16.9272L57.4702 17.2767L56.8173 16.4644L56.3622 16.7754L55.7636 17.033L55.1618 16.2059L54.4853 16.0771V15.6636L53.9086 15.4831L53.5834 14.8882L53.8072 14.5781L53.5834 14.3196L53.3319 14.7331C52.533 14.0554 52.6408 14.2014 51.8776 13.2341L52.0001 12.8976L51.5458 12.6654V12.1748L52.0714 12.2002L52.1225 11.8384L51.8719 11.3731L51.8468 10.624L51.5126 10.5977L50.8199 10.624L51.4217 10.9079L51.073 11.2435L50.5214 11.0367L50.3219 10.5969L50.6439 10.5198L50.3219 10.1842H50.9197L51.498 10.1579L50.5976 9.43426H50.072L49.8717 9.89949L49.5189 9.64103V9.09867L49.3664 8.47836L48.741 7.70297L47.9404 7.264L47.6184 6.8759L47.3434 6.72082H46.3158L45.8388 7.03097H45.2378L44.9117 6.48779L44.4356 6.28103H45.2629L45.5639 6.02256L45.5436 5.68615L45.1883 5.89292L44.5629 5.78954L44.2085 5.47938L44.7333 4.91077L45.31 4.4718L45.563 4.60062L45.387 4.00574L44.9863 4.13539L44.7852 3.77354L45.34 3.10154H45.6401L45.6149 2.73969L46.1689 2.17108L46.4682 2.4041L46.8681 2.17108L46.5153 1.91262H47.0936L46.9411 1.344L47.4181 1.11097L47.2656 0.722871L48.2178 0.283077H48.5187L48.3963 0.644923L48.8189 0.283077L49.5708 0.282256L49.5481 0.645743L49.0468 1.08472L49.4694 1.05846L49.7492 0.955077L49.9236 1.1881L49.7995 0.671179L50.3511 1.00677L50.6025 0.59323L50.4281 0.281436L50.7526 0L51.3293 0.438974L51.167 1.11097L51.5556 0.877948L51.7543 0.955077L51.6302 1.34318L52.0552 1.49826L53.0091 2.61005L53.4601 2.42954L53.6369 2.73969L54.0903 2.50667L54.5672 2.73969L53.9905 3.20492L54.3134 3.46338L54.7887 3.23036L54.9412 3.46338L55.4416 3.41169L55.3646 4.032L55.788 4.10995L56.3898 3.98113L56.037 4.65313L56.6624 4.60144L56.5618 5.35138L55.9599 5.27426L56.011 5.86831L56.6364 5.92L56.8359 5.40308L57.2139 5.55815L57.4126 5.99795L58.4436 6.38605L58.7429 6.87754L58.2189 7.03261L57.3413 6.77415L57.5205 7.08431L57.918 7.26564L57.7428 7.96308L58.2984 7.42072L58.9959 7.31733V8.34872H59Z" fill="#6959AB"/>
</g>
</svg>
