<svg width="175" height="107" viewBox="0 0 175 107" fill="none" xmlns="http://www.w3.org/2000/svg">
<circle cx="69" cy="62" r="4" fill="#C9CBD4"/>
<circle cx="109" cy="62" r="4" fill="#C9CBD4"/>
<path d="M78.5 74.3912C81.0868 72.2718 84.3949 71 88 71C91.6051 71 94.9132 72.2718 97.5 74.3912" stroke="#C9CBD4" stroke-width="3" stroke-linecap="round" stroke-linejoin="round"/>
<path d="M31 89.3912C33.5868 87.2718 36.8949 86 40.5 86C44.1051 86 47.4132 87.2718 50 89.3912" stroke="#C9CBD4" stroke-width="3" stroke-linecap="round" stroke-linejoin="round"/>
<path d="M12 89.3912C14.5868 87.2718 17.8949 86 21.5 86C25.1051 86 28.4132 87.2718 31 89.3912" stroke="#C9CBD4" stroke-width="3" stroke-linecap="round" stroke-linejoin="round"/>
<path d="M50 89.3912C52.5868 87.2718 55.8949 86 59.5 86C63.1051 86 66.4132 87.2718 69 89.3912" stroke="#C9CBD4" stroke-width="3" stroke-linecap="round" stroke-linejoin="round"/>
<path d="M69 89.3912C71.5868 87.2718 74.8949 86 78.5 86C82.1051 86 85.4132 87.2718 88 89.3912" stroke="#C9CBD4" stroke-width="3" stroke-linecap="round" stroke-linejoin="round"/>
<path d="M88 89.3912C90.5868 87.2718 93.8949 86 97.5 86C101.105 86 104.413 87.2718 107 89.3912" stroke="#C9CBD4" stroke-width="3" stroke-linecap="round" stroke-linejoin="round"/>
<path d="M107 89.3912C109.587 87.2718 112.895 86 116.5 86C120.105 86 123.413 87.2718 126 89.3912" stroke="#C9CBD4" stroke-width="3" stroke-linecap="round" stroke-linejoin="round"/>
<path d="M126 89.3912C128.587 87.2718 131.895 86 135.5 86C139.105 86 142.413 87.2718 145 89.3912" stroke="#C9CBD4" stroke-width="3" stroke-linecap="round" stroke-linejoin="round"/>
<path d="M145 89.3912C147.587 87.2718 150.895 86 154.5 86C158.105 86 161.413 87.2718 164 89.3912" stroke="#C9CBD4" stroke-width="3" stroke-linecap="round" stroke-linejoin="round"/>
<g opacity="0.5">
<path d="M40 105.391C42.5868 103.272 45.8949 102 49.5 102C53.1051 102 56.4132 103.272 59 105.391" stroke="#C9CBD4" stroke-width="3" stroke-linecap="round" stroke-linejoin="round"/>
<path d="M21 105.391C23.5868 103.272 26.8949 102 30.5 102C34.1051 102 37.4132 103.272 40 105.391" stroke="#C9CBD4" stroke-width="3" stroke-linecap="round" stroke-linejoin="round"/>
<path d="M2 105.391C4.58682 103.272 7.89489 102 11.5 102C15.1051 102 18.4132 103.272 21 105.391" stroke="#C9CBD4" stroke-width="3" stroke-linecap="round" stroke-linejoin="round"/>
<path d="M59 105.391C61.5868 103.272 64.8949 102 68.5 102C72.1051 102 75.4132 103.272 78 105.391" stroke="#C9CBD4" stroke-width="3" stroke-linecap="round" stroke-linejoin="round"/>
<path d="M78 105.391C80.5868 103.272 83.8949 102 87.5 102C91.1051 102 94.4132 103.272 97 105.391" stroke="#C9CBD4" stroke-width="3" stroke-linecap="round" stroke-linejoin="round"/>
<path d="M97 105.391C99.5868 103.272 102.895 102 106.5 102C110.105 102 113.413 103.272 116 105.391" stroke="#C9CBD4" stroke-width="3" stroke-linecap="round" stroke-linejoin="round"/>
<path d="M116 105.391C118.587 103.272 121.895 102 125.5 102C129.105 102 132.413 103.272 135 105.391" stroke="#C9CBD4" stroke-width="3" stroke-linecap="round" stroke-linejoin="round"/>
<path d="M135 105.391C137.587 103.272 140.895 102 144.5 102C148.105 102 151.413 103.272 154 105.391" stroke="#C9CBD4" stroke-width="3" stroke-linecap="round" stroke-linejoin="round"/>
<path d="M154 105.391C156.587 103.272 159.895 102 163.5 102C167.105 102 170.413 103.272 173 105.391" stroke="#C9CBD4" stroke-width="3" stroke-linecap="round" stroke-linejoin="round"/>
</g>
<path d="M139 84C139 56.938 117.062 35 90 35C62.938 35 41 56.938 41 84" stroke="#C9CBD4" stroke-width="3" stroke-linecap="round" stroke-linejoin="round"/>
<circle opacity="0.5" cx="161" cy="73" r="2" stroke="#C9CBD4" stroke-width="2" stroke-linecap="round" stroke-linejoin="round"/>
<circle opacity="0.5" cx="126" cy="3" r="2" stroke="#C9CBD4" stroke-width="2" stroke-linecap="round" stroke-linejoin="round"/>
<circle opacity="0.5" cx="14" cy="59" r="2" stroke="#C9CBD4" stroke-width="2" stroke-linecap="round" stroke-linejoin="round"/>
<path opacity="0.5" d="M92 43.5C92 43.7212 91.8538 44.0727 91.2984 44.4198C90.7571 44.7581 89.9471 45 89 45C88.0529 45 87.2429 44.7581 86.7016 44.4198C86.1462 44.0727 86 43.7212 86 43.5C86 43.2788 86.1462 42.9273 86.7016 42.5802C87.2429 42.2419 88.0529 42 89 42C89.9471 42 90.7571 42.2419 91.2984 42.5802C91.8538 42.9273 92 43.2788 92 43.5Z" fill="#C9CBD4" stroke="#C9CBD4" stroke-width="2" stroke-linecap="round" stroke-linejoin="round"/>
<path d="M129.568 53.9615C129.568 53.9615 131.723 53.4726 132.612 52.8769C133.595 52.2415 134.876 50.162 134.876 50.162C132.338 48.381 130.013 46.0802 128.7 43.3124C126.679 39.0225 127.277 33.4935 129.052 29.1503C130.574 25.4276 133.03 28.271 135.886 30.5151C138.743 32.7592 142.001 34.4041 142.722 38.4761C143.003 40.0389 142.039 42.1107 143.241 42.2304C143.241 42.2304 145.462 40.2417 148.449 40.0144C152.405 39.7135 155.074 41.4113 158.973 41.5371C163.288 41.6962 165.523 40.9656 163.871 45.0069C162.15 49.2159 159.24 52.5081 155.173 54.1336C152.054 55.4026 148.96 55.5081 145.728 54.8522C144.256 65.9149 143.241 71 139.412 76.4817" stroke="#C9CBD4" stroke-width="3" stroke-linecap="round" stroke-linejoin="round"/>
</svg>
