<svg width="256" height="229" viewBox="0 0 256 229" fill="none" xmlns="http://www.w3.org/2000/svg">
<circle cx="104" cy="72" r="4" fill="#C9CBD4"/>
<circle cx="144" cy="72" r="4" fill="#C9CBD4"/>
<path d="M113.5 84.3912C116.087 82.2718 119.395 81 123 81C126.605 81 129.913 82.2718 132.5 84.3912" stroke="#C9CBD4" stroke-width="3" stroke-linecap="round" stroke-linejoin="round"/>
<path d="M66 99.3912C68.5868 97.2718 71.8949 96 75.5 96C79.1051 96 82.4132 97.2718 85 99.3912" stroke="#C9CBD4" stroke-width="3" stroke-linecap="round" stroke-linejoin="round"/>
<path d="M47 99.3912C49.5868 97.2718 52.8949 96 56.5 96C60.1051 96 63.4132 97.2718 66 99.3912" stroke="#C9CBD4" stroke-width="3" stroke-linecap="round" stroke-linejoin="round"/>
<path d="M85 99.3912C87.5868 97.2718 90.8949 96 94.5 96C98.1051 96 101.413 97.2718 104 99.3912" stroke="#C9CBD4" stroke-width="3" stroke-linecap="round" stroke-linejoin="round"/>
<path d="M104 99.3912C106.587 97.2718 109.895 96 113.5 96C117.105 96 120.413 97.2718 123 99.3912" stroke="#C9CBD4" stroke-width="3" stroke-linecap="round" stroke-linejoin="round"/>
<path d="M123 99.3912C125.587 97.2718 128.895 96 132.5 96C136.105 96 139.413 97.2718 142 99.3912" stroke="#C9CBD4" stroke-width="3" stroke-linecap="round" stroke-linejoin="round"/>
<path d="M142 99.3912C144.587 97.2718 147.895 96 151.5 96C155.105 96 158.413 97.2718 161 99.3912" stroke="#C9CBD4" stroke-width="3" stroke-linecap="round" stroke-linejoin="round"/>
<path d="M161 99.3912C163.587 97.2718 166.895 96 170.5 96C174.105 96 177.413 97.2718 180 99.3912" stroke="#C9CBD4" stroke-width="3" stroke-linecap="round" stroke-linejoin="round"/>
<path d="M180 99.3912C182.587 97.2718 185.895 96 189.5 96C193.105 96 196.413 97.2718 199 99.3912" stroke="#C9CBD4" stroke-width="3" stroke-linecap="round" stroke-linejoin="round"/>
<g opacity="0.5">
<path d="M75 115.391C77.5868 113.272 80.8949 112 84.5 112C88.1051 112 91.4132 113.272 94 115.391" stroke="#C9CBD4" stroke-width="3" stroke-linecap="round" stroke-linejoin="round"/>
<path d="M56 115.391C58.5868 113.272 61.8949 112 65.5 112C69.1051 112 72.4132 113.272 75 115.391" stroke="#C9CBD4" stroke-width="3" stroke-linecap="round" stroke-linejoin="round"/>
<path d="M37 115.391C39.5868 113.272 42.8949 112 46.5 112C50.1051 112 53.4132 113.272 56 115.391" stroke="#C9CBD4" stroke-width="3" stroke-linecap="round" stroke-linejoin="round"/>
<path d="M94 115.391C96.5868 113.272 99.8949 112 103.5 112C107.105 112 110.413 113.272 113 115.391" stroke="#C9CBD4" stroke-width="3" stroke-linecap="round" stroke-linejoin="round"/>
<path d="M113 115.391C115.587 113.272 118.895 112 122.5 112C126.105 112 129.413 113.272 132 115.391" stroke="#C9CBD4" stroke-width="3" stroke-linecap="round" stroke-linejoin="round"/>
<path d="M132 115.391C134.587 113.272 137.895 112 141.5 112C145.105 112 148.413 113.272 151 115.391" stroke="#C9CBD4" stroke-width="3" stroke-linecap="round" stroke-linejoin="round"/>
<path d="M151 115.391C153.587 113.272 156.895 112 160.5 112C164.105 112 167.413 113.272 170 115.391" stroke="#C9CBD4" stroke-width="3" stroke-linecap="round" stroke-linejoin="round"/>
<path d="M170 115.391C172.587 113.272 175.895 112 179.5 112C183.105 112 186.413 113.272 189 115.391" stroke="#C9CBD4" stroke-width="3" stroke-linecap="round" stroke-linejoin="round"/>
<path d="M189 115.391C191.587 113.272 194.895 112 198.5 112C202.105 112 205.413 113.272 208 115.391" stroke="#C9CBD4" stroke-width="3" stroke-linecap="round" stroke-linejoin="round"/>
</g>
<path d="M174 94C174 66.938 152.062 45 125 45C97.938 45 76 66.938 76 94" stroke="#C9CBD4" stroke-width="3" stroke-linecap="round" stroke-linejoin="round"/>
<circle opacity="0.5" cx="196" cy="83" r="2" stroke="#C9CBD4" stroke-width="2" stroke-linecap="round" stroke-linejoin="round"/>
<circle opacity="0.5" cx="161" cy="13" r="2" stroke="#C9CBD4" stroke-width="2" stroke-linecap="round" stroke-linejoin="round"/>
<circle opacity="0.5" cx="49" cy="69" r="2" stroke="#C9CBD4" stroke-width="2" stroke-linecap="round" stroke-linejoin="round"/>
<path opacity="0.5" d="M127 53.5C127 53.7212 126.854 54.0727 126.298 54.4198C125.757 54.7581 124.947 55 124 55C123.053 55 122.243 54.7581 121.702 54.4198C121.146 54.0727 121 53.7212 121 53.5C121 53.2788 121.146 52.9273 121.702 52.5802C122.243 52.2419 123.053 52 124 52C124.947 52 125.757 52.2419 126.298 52.5802C126.854 52.9273 127 53.2788 127 53.5Z" fill="#C9CBD4" stroke="#C9CBD4" stroke-width="2" stroke-linecap="round" stroke-linejoin="round"/>
<path d="M164.568 63.9615C164.568 63.9615 166.723 63.4726 167.612 62.8769C168.595 62.2415 169.876 60.162 169.876 60.162C167.338 58.381 165.013 56.0802 163.7 53.3124C161.679 49.0225 162.277 43.4935 164.052 39.1503C165.574 35.4276 168.03 38.271 170.886 40.5151C173.743 42.7592 177.001 44.4041 177.722 48.4761C178.003 50.0389 177.039 52.1107 178.241 52.2304C178.241 52.2304 180.462 50.2417 183.449 50.0144C187.405 49.7135 190.074 51.4113 193.973 51.5371C198.288 51.6962 200.523 50.9656 198.871 55.0069C197.15 59.2159 194.24 62.5081 190.173 64.1336C187.054 65.4026 183.96 65.5081 180.728 64.8522C179.256 75.9149 178.241 81 174.412 86.4817" stroke="#C9CBD4" stroke-width="3" stroke-linecap="round" stroke-linejoin="round"/>
<path d="M39.1911 149.72L35.0511 157.364L30.9111 149.72H27.7551L33.5871 160.004V167H36.5151V160.004L42.3231 149.72H39.1911ZM47.8716 167.324C51.4836 167.324 54.1116 164.756 54.1116 160.7C54.1116 156.632 51.4836 154.076 47.8716 154.076C44.2476 154.076 41.6316 156.632 41.6316 160.7C41.6316 164.756 44.2476 167.324 47.8716 167.324ZM47.8716 164.864C45.8076 164.864 44.4756 163.256 44.4756 160.7C44.4756 158.132 45.8076 156.524 47.8716 156.524C49.9236 156.524 51.2676 158.132 51.2676 160.7C51.2676 163.256 49.9236 164.864 47.8716 164.864ZM64.7708 154.4V161.756C64.7708 163.34 63.6188 164.936 61.7228 164.936C60.3548 164.936 59.4428 164.06 59.4428 162.332V154.4H56.6828V162.956C56.6828 165.8 58.5308 167.312 60.8588 167.312C63.1508 167.312 64.3748 166.208 64.8068 165.452V167H67.5308V154.4H64.7708ZM83.2778 154.076C81.1178 154.076 79.8818 155.12 79.4138 155.888V149.72H76.6538V167H79.4138V159.68C79.4138 158.108 80.4938 156.524 82.4498 156.524C83.8658 156.524 84.7778 157.388 84.7778 159.116V167H87.5378V158.444C87.5378 155.6 85.6898 154.076 83.2778 154.076ZM95.6323 154.1C93.5083 154.1 91.7563 154.952 90.6643 156.404L92.4403 158.024C93.1723 157.076 94.2043 156.464 95.4883 156.464C97.0963 156.464 98.1163 157.316 98.1163 159.236V159.38H96.1963C92.3323 159.38 90.1243 160.568 90.1243 163.376C90.1243 165.848 91.9843 167.312 94.4203 167.312C96.3763 167.312 97.5883 166.484 98.1643 165.524V167H100.888V159.164C100.888 155.732 98.8003 154.1 95.6323 154.1ZM98.1283 162.272C98.1283 163.508 96.9643 165.152 94.9963 165.152C93.6523 165.152 92.8243 164.528 92.8243 163.316C92.8243 161.792 94.3843 161.396 96.6283 161.396H98.1283V162.272ZM112.057 154.4L108.781 163.784L105.565 154.4H102.541L107.365 167H110.173L115.009 154.4H112.057ZM118.656 161.564H127.848V160.832C127.848 156.8 125.472 154.076 121.836 154.076C118.332 154.076 115.788 156.716 115.788 160.784C115.788 164.732 118.452 167.324 122.088 167.324C124.416 167.324 126.132 166.496 127.38 164.756L125.388 163.352C124.464 164.636 123.42 164.996 122.196 164.996C119.976 164.996 118.872 163.616 118.656 161.564ZM121.824 156.404C123.396 156.404 124.584 157.484 124.944 159.404H118.728C119.1 157.424 120.312 156.404 121.824 156.404ZM142.81 154.088C140.506 154.088 139.27 155.216 138.85 155.96V154.4H136.138V167H138.898V159.644C138.898 158.06 140.05 156.476 141.946 156.476C143.35 156.476 144.262 157.34 144.262 159.068V167H147.022V158.432C147.022 155.588 145.174 154.088 142.81 154.088ZM155.825 167.324C159.437 167.324 162.065 164.756 162.065 160.7C162.065 156.632 159.437 154.076 155.825 154.076C152.201 154.076 149.585 156.632 149.585 160.7C149.585 164.756 152.201 167.324 155.825 167.324ZM155.825 164.864C153.761 164.864 152.429 163.256 152.429 160.7C152.429 158.132 153.761 156.524 155.825 156.524C157.877 156.524 159.221 158.132 159.221 160.7C159.221 163.256 157.877 164.864 155.825 164.864ZM170.893 164.684C170.329 164.864 169.957 164.924 169.537 164.924C168.457 164.924 168.085 164.552 168.085 163.208V156.752H171.193V154.4H168.085V150.932H165.325V154.4H163.417V156.752H165.325V163.88C165.325 166.412 166.801 167.324 169.021 167.324C169.765 167.324 170.689 167.168 171.481 166.892L170.893 164.684ZM188.266 149.72V156.008C187.594 155.024 186.286 154.076 184.318 154.076C181.246 154.076 178.882 156.764 178.882 160.7C178.882 164.648 181.246 167.324 184.318 167.324C186.334 167.324 187.678 166.328 188.314 165.356V167H191.026V149.72H188.266ZM185.014 164.876C183.19 164.876 181.714 163.424 181.714 160.7C181.714 157.988 183.19 156.524 185.014 156.524C186.922 156.524 188.35 158.144 188.35 160.7C188.35 163.256 186.946 164.876 185.014 164.876ZM199.25 154.1C197.126 154.1 195.374 154.952 194.282 156.404L196.058 158.024C196.79 157.076 197.822 156.464 199.106 156.464C200.714 156.464 201.734 157.316 201.734 159.236V159.38H199.814C195.95 159.38 193.742 160.568 193.742 163.376C193.742 165.848 195.602 167.312 198.038 167.312C199.994 167.312 201.206 166.484 201.782 165.524V167H204.506V159.164C204.506 155.732 202.418 154.1 199.25 154.1ZM201.746 162.272C201.746 163.508 200.582 165.152 198.614 165.152C197.27 165.152 196.442 164.528 196.442 163.316C196.442 161.792 198.002 161.396 200.246 161.396H201.746V162.272ZM214.065 164.684C213.501 164.864 213.129 164.924 212.709 164.924C211.629 164.924 211.257 164.552 211.257 163.208V156.752H214.365V154.4H211.257V150.932H208.497V154.4H206.589V156.752H208.497V163.88C208.497 166.412 209.973 167.324 212.193 167.324C212.937 167.324 213.861 167.168 214.653 166.892L214.065 164.684ZM221.75 154.1C219.626 154.1 217.874 154.952 216.782 156.404L218.558 158.024C219.29 157.076 220.322 156.464 221.606 156.464C223.214 156.464 224.234 157.316 224.234 159.236V159.38H222.314C218.45 159.38 216.242 160.568 216.242 163.376C216.242 165.848 218.102 167.312 220.538 167.312C222.494 167.312 223.706 166.484 224.282 165.524V167H227.006V159.164C227.006 155.732 224.918 154.1 221.75 154.1ZM224.246 162.272C224.246 163.508 223.082 165.152 221.114 165.152C219.77 165.152 218.942 164.528 218.942 163.316C218.942 161.792 220.502 161.396 222.746 161.396H224.246V162.272ZM81.1391 196.684C80.5751 196.864 80.2031 196.924 79.7831 196.924C78.7031 196.924 78.3311 196.552 78.3311 195.208V188.752H81.4391V186.4H78.3311V182.932H75.5711V186.4H73.6631V188.752H75.5711V195.88C75.5711 198.412 77.0471 199.324 79.2671 199.324C80.0111 199.324 80.9351 199.168 81.7271 198.892L81.1391 196.684ZM89.2505 199.324C92.8625 199.324 95.4905 196.756 95.4905 192.7C95.4905 188.632 92.8625 186.076 89.2505 186.076C85.6265 186.076 83.0105 188.632 83.0105 192.7C83.0105 196.756 85.6265 199.324 89.2505 199.324ZM89.2505 196.864C87.1865 196.864 85.8545 195.256 85.8545 192.7C85.8545 190.132 87.1865 188.524 89.2505 188.524C91.3025 188.524 92.6465 190.132 92.6465 192.7C92.6465 195.256 91.3025 196.864 89.2505 196.864ZM112.434 181.72V188.008C111.762 187.024 110.454 186.076 108.486 186.076C105.414 186.076 103.05 188.764 103.05 192.7C103.05 196.648 105.414 199.324 108.486 199.324C110.502 199.324 111.846 198.328 112.482 197.356V199H115.194V181.72H112.434ZM109.182 196.876C107.358 196.876 105.882 195.424 105.882 192.7C105.882 189.988 107.358 188.524 109.182 188.524C111.09 188.524 112.518 190.144 112.518 192.7C112.518 195.256 111.114 196.876 109.182 196.876ZM118.57 184.348H121.522V181.72H118.57V184.348ZM118.666 199H121.426V186.4H118.666V199ZM129.628 199.36C132.688 199.36 134.86 197.956 134.86 195.328C134.86 192.496 132.52 191.8 130.204 191.44C128.38 191.152 127.204 190.84 127.204 189.784C127.204 188.848 128.212 188.404 129.532 188.404C130.9 188.404 131.968 188.836 132.832 189.82L134.644 188.212C133.42 186.784 131.776 186.052 129.544 186.052C126.52 186.052 124.468 187.456 124.468 189.88C124.468 192.508 126.568 193.432 129.1 193.828C130.948 194.116 132.124 194.38 132.124 195.472C132.124 196.432 131.188 196.996 129.676 196.996C127.9 196.996 126.556 196.396 125.656 195.244L123.76 196.84C124.912 198.316 126.808 199.36 129.628 199.36ZM144.23 186.076C142.238 186.076 140.918 186.988 140.174 188.032V186.4H137.462V203.2H140.222V197.404C141.014 198.472 142.334 199.312 144.206 199.312C147.254 199.312 149.582 196.636 149.582 192.688C149.582 188.68 147.278 186.076 144.23 186.076ZM143.462 196.864C141.554 196.864 140.126 195.256 140.126 192.688C140.126 190.144 141.542 188.524 143.462 188.524C145.286 188.524 146.738 189.964 146.738 192.688C146.738 195.412 145.286 196.864 143.462 196.864ZM152.251 199H155.011V181.72H152.251V199ZM163.214 186.1C161.09 186.1 159.338 186.952 158.246 188.404L160.022 190.024C160.754 189.076 161.786 188.464 163.07 188.464C164.678 188.464 165.698 189.316 165.698 191.236V191.38H163.778C159.914 191.38 157.706 192.568 157.706 195.376C157.706 197.848 159.566 199.312 162.002 199.312C163.958 199.312 165.17 198.484 165.746 197.524V199H168.47V191.164C168.47 187.732 166.382 186.1 163.214 186.1ZM165.71 194.272C165.71 195.508 164.546 197.152 162.578 197.152C161.234 197.152 160.406 196.528 160.406 195.316C160.406 193.792 161.966 193.396 164.21 193.396H165.71V194.272ZM179.663 186.4L176.507 195.352L173.147 186.4H170.123L175.127 198.52L174.491 200.212C174.203 200.992 173.843 201.208 173.159 201.208C172.775 201.208 172.415 201.112 171.947 200.992L171.287 203.2C171.971 203.404 172.739 203.524 173.519 203.524C175.091 203.524 176.231 202.936 177.047 200.86L182.711 186.4H179.663Z" fill="#656A84"/>
</svg>
