<svg width="256" height="214" viewBox="0 0 256 214" fill="none" xmlns="http://www.w3.org/2000/svg">
<mask id="mask0_21069_66297" style="mask-type:alpha" maskUnits="userSpaceOnUse" x="0" y="0" width="256" height="214">
<rect width="256" height="214" fill="#C4C4C4"/>
</mask>
<g mask="url(#mask0_21069_66297)">
<rect opacity="0.04" x="-3" y="145.062" width="156.725" height="153.675" rx="48" transform="rotate(-77.5909 -3 145.062)" fill="#353A3E"/>
<rect opacity="0.04" x="192.645" y="159.462" width="79.0082" height="77.4706" rx="26" transform="rotate(-116.817 192.645 159.462)" fill="#353A3E"/>
<rect opacity="0.04" x="183.377" y="46.7227" width="34.2926" height="33.6252" rx="12" transform="rotate(-102.422 183.377 46.7227)" fill="#353A3E"/>
<path d="M6 176L177 176" stroke="#DEDFE4" stroke-width="3" stroke-linecap="round"/>
<path d="M189 176H236" stroke="#DEDFE4" stroke-width="3" stroke-linecap="round"/>
<path fill-rule="evenodd" clip-rule="evenodd" d="M205.454 130.637C204.35 130.637 203.454 131.532 203.454 132.637V161.182C203.454 168.914 209.722 175.182 217.454 175.182H223.09C230.822 175.182 237.09 168.914 237.09 161.182V158.954H242.727C245.213 158.954 247.227 156.94 247.227 154.454V140C247.227 137.515 245.213 135.5 242.727 135.5H237.09V132.637C237.09 131.532 236.195 130.637 235.09 130.637H205.454ZM237.09 138.5V155.954H242.727C243.556 155.954 244.227 155.283 244.227 154.454V140C244.227 139.171 243.556 138.5 242.727 138.5H237.09Z" fill="#FF6C70"/>
<path fill-rule="evenodd" clip-rule="evenodd" d="M226.182 87C224.173 87 222.545 88.6281 222.545 90.6364C222.545 92.644 224.172 94.2717 226.18 94.2727H215.272C215.26 94.2727 215.248 94.2728 215.236 94.2729H227.091C229.099 94.2729 230.727 95.901 230.727 97.9093C230.727 99.9176 229.099 101.546 227.091 101.546H212.509C210.517 101.565 208.909 103.186 208.909 105.182C208.909 107.19 210.537 108.818 212.545 108.818H209.818C209.806 108.818 209.794 108.818 209.782 108.818H218C220.008 108.818 221.636 110.446 221.636 112.455C221.636 114.463 220.008 116.091 218 116.091H208.873C206.881 116.111 205.272 117.731 205.272 119.727C205.272 121.736 206.901 123.364 208.909 123.364C208.897 123.364 208.885 123.364 208.873 123.364H209.818C211.826 123.364 213.454 124.992 213.454 127C213.454 128.996 211.846 130.617 209.854 130.636H227.054C225.063 130.617 223.454 128.996 223.454 127C223.454 124.992 225.082 123.364 227.091 123.364H232.581C232.569 123.364 232.557 123.364 232.545 123.364C234.553 123.364 236.182 121.736 236.182 119.727C236.182 117.731 234.573 116.111 232.581 116.091H231.636C229.628 116.091 228 114.463 228 112.455C228 110.446 229.628 108.818 231.636 108.818H237.127C237.115 108.818 237.103 108.818 237.091 108.818H239.818C241.826 108.818 243.454 107.19 243.454 105.182C243.454 103.186 241.846 101.565 239.854 101.546H239.818C237.81 101.546 236.181 99.9176 236.181 97.9093C236.181 95.901 237.81 94.2729 239.818 94.2729H242.581C242.57 94.2728 242.559 94.2727 242.547 94.2727H244.363C246.372 94.2727 248 92.6447 248 90.6364C248 88.6281 246.372 87 244.363 87H226.182ZM208.909 90.6364C208.909 88.6281 210.537 87 212.545 87H214.363C216.372 87 218 88.6281 218 90.6364C218 92.6447 216.372 94.2727 214.363 94.2727H212.545C210.537 94.2727 208.909 92.6447 208.909 90.6364Z" fill="#DDDFE5"/>
<path d="M29 71C29 68.7909 30.7909 67 33 67H189.545C191.755 67 193.545 68.7909 193.545 71V165.182H29V71Z" fill="#828796"/>
<path d="M32.5459 73.3633H189.819V158.818H32.5459V73.3633Z" fill="#DEDFE4"/>
<path d="M32.5459 78.8184H189.819V158.818H32.5459V78.8184Z" fill="white"/>
<path d="M56.1816 75.1816H48.702C48.0215 75.1816 47.3877 75.5277 47.0197 76.1001L45.2725 78.818H56.1816H67.0906L65.3434 76.1001C64.9754 75.5277 64.3416 75.1816 63.6611 75.1816H56.1816Z" fill="white"/>
<path d="M79.8183 75.1816H72.3387C71.6582 75.1816 71.0244 75.5277 70.6564 76.1001L68.9092 78.818H79.8183H90.7274L88.9802 76.1001C88.6122 75.5277 87.9783 75.1816 87.2978 75.1816H79.8183Z" fill="#C9CBD4"/>
<path d="M103.455 75.1816H95.9755C95.2949 75.1816 94.6611 75.5277 94.2931 76.1001L92.5459 78.818H103.455H114.364L112.617 76.1001C112.249 75.5277 111.615 75.1816 110.935 75.1816H103.455Z" fill="#C9CBD4"/>
<circle cx="36.1816" cy="76.0907" r="0.909091" fill="#C9CBD4"/>
<circle cx="38.9091" cy="76.0907" r="0.909091" fill="#C9CBD4"/>
<circle cx="41.6366" cy="76.0907" r="0.909091" fill="#C9CBD4"/>
<rect x="8" y="165.182" width="206.364" height="0.909091" fill="#F7F7F7"/>
<path d="M8 166.091C8 171.112 12.0701 175.182 17.0909 175.182H205.273C210.294 175.182 214.364 171.112 214.364 166.091H8Z" fill="#BABDC8"/>
<path d="M96.1816 166.091C96.1816 168.099 97.8097 169.728 99.818 169.728H122.545C124.554 169.728 126.182 168.099 126.182 166.091H96.1816Z" fill="#8C909E"/>
<path fill-rule="evenodd" clip-rule="evenodd" d="M133.642 137.177H89.0014C88.239 137.177 87.757 136.358 88.1273 135.691L110.448 95.5144C110.829 94.8285 111.815 94.8285 112.196 95.5144L134.516 135.691C134.887 136.358 134.405 137.177 133.642 137.177ZM111.322 108.5C112.15 108.5 112.822 109.172 112.822 110V124.412C112.822 125.24 112.15 125.912 111.322 125.912C110.493 125.912 109.822 125.24 109.822 124.412V110C109.822 109.172 110.493 108.5 111.322 108.5ZM111.322 127.147C112.15 127.147 112.822 127.818 112.822 128.647V129.147C112.822 129.975 112.15 130.647 111.322 130.647C110.493 130.647 109.822 129.975 109.822 129.147V128.647C109.822 127.818 110.493 127.147 111.322 127.147Z" fill="#DDDFE5"/>
</g>
</svg>
