<svg width="101" height="104" viewBox="0 0 101 104" fill="none" xmlns="http://www.w3.org/2000/svg">
<mask id="mask0" mask-type="alpha" maskUnits="userSpaceOnUse" x="0" y="-1" width="101" height="105">
<rect y="-0.00012207" width="101" height="104" fill="white"/>
</mask>
<g mask="url(#mask0)">
<rect opacity="0.2" x="109.323" y="16.9999" width="32" height="140.464" transform="rotate(45 109.323 16.9999)" fill="#F96B43"/>
<path d="M57.6159 95.751C59.4232 93.9436 59.3214 91.5084 57.4037 89.5907C55.4861 87.673 53.0508 87.5712 51.2434 89.3785C49.4361 91.1859 49.5464 93.6127 51.4641 95.5304C53.3817 97.448 55.8085 97.5584 57.6159 95.751ZM56.5128 94.6479C55.4649 95.6958 53.9884 95.577 52.7029 94.2915C51.4174 93.006 51.2986 91.5296 52.3465 90.4816C53.4029 89.4252 54.8794 89.544 56.1649 90.8295C57.4504 92.115 57.5692 93.5915 56.5128 94.6479ZM59.0001 84.9227C58.3425 85.5803 58.1812 86.3355 58.2703 86.9846L57.723 86.4373L56.6072 87.5531L62.5639 93.5098L63.7009 92.3728L61.6857 90.3575C62.356 90.4424 63.0772 90.2557 63.6924 89.6405C64.7828 88.5501 64.6385 86.7937 63.2342 85.3894C61.796 83.9511 60.0904 83.8323 59.0001 84.9227ZM62.3814 88.9744C61.762 89.5938 60.7862 89.5344 59.9377 88.6859C59.0934 87.8416 59.0298 86.8701 59.6534 86.2464C60.2559 85.6439 61.1935 85.6736 62.0717 86.5519C62.9542 87.4343 62.9839 88.372 62.3814 88.9744ZM67.4634 83.7736C67.3234 84.0324 67.2089 84.1809 67.0689 84.3209C66.6955 84.6943 66.4325 84.7113 65.9615 84.2403L63.8784 82.1572L64.9772 81.0584L64.0354 80.1165L62.9365 81.2153L61.6934 79.9722L60.5564 81.1093L61.7995 82.3524L61.1122 83.0397L62.0541 83.9815L62.7414 83.2942L65.113 85.6659C66.0464 86.5992 66.967 86.3744 67.7944 85.5471C68.0829 85.2586 68.401 84.8301 68.592 84.4355L67.4634 83.7736ZM63.9609 78.9182L65.1573 77.7218L64.1603 76.7247L62.9639 77.9212L63.9609 78.9182ZM69.103 84.0009L70.24 82.8638L65.764 78.3879L64.627 79.5249L69.103 84.0009ZM71.4677 72.455C70.7083 73.2145 70.721 74.0757 70.8228 74.5763C70.0889 74.3091 69.3761 74.5466 68.8246 75.0982C68.1076 75.8152 68.1118 76.5661 68.2009 76.9947L67.679 76.4728L66.5632 77.5886L71.0392 82.0646L72.1762 80.9276L69.5925 78.3438C69.0325 77.7838 68.9009 76.9734 69.4185 76.4558C69.8301 76.0443 70.3562 76.0867 70.8907 76.6213L73.6866 79.4172L74.8237 78.2802L72.2399 75.6964C71.6799 75.1364 71.5483 74.326 72.0702 73.8042C72.486 73.3884 72.9993 73.4266 73.5424 73.9696L76.3383 76.7655L77.4753 75.6285L74.3697 72.5229C73.3599 71.5132 72.2484 71.6744 71.4677 72.455ZM73.1036 69.7755L74.3 68.5791L73.303 67.5821L72.1065 68.7785L73.1036 69.7755ZM78.2456 74.8582L79.3827 73.7212L74.9067 69.2452L73.7696 70.3822L78.2456 74.8582ZM79.8722 73.2317L83.5421 69.5618L82.6002 68.6199L80.3177 70.9024L79.8594 66.0404L78.9855 65.1664L75.5065 68.6454L76.4484 69.5872L78.54 67.4956L79.0067 72.3662L79.8722 73.2317ZM82.953 66.3749L86.135 63.1929L85.855 62.9129C84.4167 61.4746 82.5712 61.3516 81.2602 62.6625C79.9874 63.9353 80.0214 65.7936 81.4681 67.2404C82.8639 68.6362 84.7349 68.6065 86.0629 67.2785C86.8944 66.447 87.2296 65.5178 87.0811 64.4699L85.715 64.682C85.8168 65.4033 85.5962 65.8785 85.1762 66.2985C84.4634 67.0113 83.6785 66.9306 82.953 66.3749ZM82.1893 63.6002C82.69 63.0995 83.4027 63.0656 84.1452 63.5705L82.1681 65.5475C81.6548 64.7881 81.7057 64.0838 82.1893 63.6002ZM85.4485 55.4365L87.625 57.613C87.0437 57.5154 86.2758 57.6469 85.6225 58.3003C84.5236 59.3991 84.6466 61.1768 86.051 62.5811C87.4553 63.9854 89.2329 64.1085 90.3318 63.0096C90.9979 62.3435 91.1379 61.5417 91.0318 60.9774L91.5791 61.5247L92.6949 60.4089L86.5855 54.2995L85.4485 55.4365ZM89.6445 61.7199C89.042 62.3223 88.0959 62.3011 87.2134 61.4186C86.331 60.5362 86.3098 59.5901 86.9122 58.9876C87.5316 58.3682 88.5075 58.4276 89.356 59.2761C90.2045 60.1246 90.2681 61.0962 89.6445 61.7199Z" fill="#F96B43"/>
</g>
</svg>
