<svg width="80" height="80" viewBox="0 0 80 80" fill="none" xmlns="http://www.w3.org/2000/svg">
<path d="M41.2124 40H38.7749V52.7625H41.2124V40Z" fill="#7CB342"/>
<path d="M28.2001 40.9875H31.8876C33.8005 40.9875 35.635 41.7474 36.9877 43.1C38.3403 44.4526 39.1001 46.2872 39.1001 48.2V52.7625H34.5501C32.6373 52.7625 30.8027 52.0027 29.4501 50.6501C28.0975 49.2974 27.3376 47.4629 27.3376 45.55V41.8625C27.3376 41.6326 27.4281 41.4119 27.5895 41.2482C27.7509 41.0845 27.9703 40.9908 28.2001 40.9875Z" fill="#C5E1A5"/>
<path d="M34 46.8249C31.9971 44.8102 29.8222 42.974 27.5 41.3374C27.3775 41.4857 27.3072 41.6702 27.3 41.8624V45.5499C27.3 46.4981 27.487 47.437 27.8503 48.3129C28.2135 49.1888 28.7459 49.9844 29.417 50.6543C30.088 51.3242 30.8846 51.8553 31.7611 52.217C32.6376 52.5787 33.5768 52.764 34.525 52.7624H39.0875C37.5485 50.6541 35.8475 48.6689 34 46.8249Z" fill="#7CB342"/>
<path d="M45.4499 52.7625H40.8874V48.2C40.8874 46.2871 41.6472 44.4526 42.9998 43.0999C44.3525 41.7473 46.187 40.9875 48.0999 40.9875H51.7874C52.0194 40.9875 52.242 41.0796 52.4061 41.2437C52.5702 41.4078 52.6624 41.6304 52.6624 41.8625V45.55C52.6624 46.4971 52.4758 47.435 52.1133 48.3101C51.7509 49.1851 51.2196 49.9802 50.5499 50.65C49.8801 51.3197 49.085 51.851 48.21 52.2134C47.3349 52.5759 46.397 52.7625 45.4499 52.7625Z" fill="#C5E1A5"/>
<path d="M46 46.8249C48.0029 44.8102 50.1778 42.974 52.5 41.3374C52.6225 41.4857 52.6928 41.6702 52.7 41.8624V45.5499C52.7 46.4981 52.513 47.437 52.1497 48.3129C51.7865 49.1888 51.2541 49.9844 50.583 50.6543C49.912 51.3242 49.1154 51.8553 48.2389 52.217C47.3624 52.5787 46.4232 52.764 45.475 52.7624H40.8875C42.4345 50.6532 44.1438 48.668 46 46.8249Z" fill="#7CB342"/>
<path d="M50.8876 52.7375H29.1251C28.4209 52.7375 27.8501 53.3084 27.8501 54.0125V56.4126C27.8501 57.1167 28.4209 57.6876 29.1251 57.6876H50.8876C51.5918 57.6876 52.1626 57.1167 52.1626 56.4126V54.0125C52.1626 53.3084 51.5918 52.7375 50.8876 52.7375Z" fill="#DFE8F4"/>
<path d="M44.9999 70H34.9999C34.5773 69.9976 34.1664 69.8606 33.827 69.6089C33.4876 69.3571 33.2373 69.0037 33.1124 68.6L29.8499 57.6875H50.1499L46.8874 68.6C46.7624 69.0037 46.5121 69.3571 46.1727 69.6089C45.8333 69.8606 45.4224 69.9976 44.9999 70Z" fill="#CCD8E5"/>
<path d="M40 41C48.5604 41 55.5 34.0604 55.5 25.5C55.5 16.9396 48.5604 10 40 10C31.4396 10 24.5 16.9396 24.5 25.5C24.5 34.0604 31.4396 41 40 41Z" fill="#C5E1A5"/>
<path d="M40.0751 23.9001C39.7107 23.9027 39.3566 23.7799 39.0721 23.5523C38.7876 23.3247 38.59 23.0061 38.5126 22.6501C38.4381 22.2962 38.4929 21.9274 38.667 21.6105C38.8411 21.2935 39.123 21.0494 39.4616 20.9225C39.8002 20.7955 40.1731 20.794 40.5126 20.9184C40.8522 21.0427 41.136 21.2845 41.3126 21.6001C41.4524 21.8322 41.6507 22.0236 41.8875 22.1552C42.1244 22.2868 42.3916 22.354 42.6626 22.3501C42.942 22.3581 43.2186 22.2922 43.4644 22.159C43.7102 22.0258 43.9164 21.8301 44.0623 21.5916C44.2081 21.3532 44.2885 21.0804 44.2951 20.8009C44.3017 20.5215 44.2345 20.2452 44.1001 20.0001C43.5369 19.0302 42.6527 18.2874 41.6001 17.9001C41.6001 17.5056 41.4434 17.1272 41.1644 16.8483C40.8854 16.5693 40.5071 16.4126 40.1126 16.4126H39.8876C39.6922 16.4126 39.4988 16.4511 39.3183 16.5258C39.1379 16.6006 38.9739 16.7101 38.8358 16.8483C38.6976 16.9864 38.5881 17.1504 38.5133 17.3309C38.4386 17.5113 38.4001 17.7048 38.4001 17.9001C37.7873 18.1232 37.2271 18.47 36.7542 18.919C36.2813 19.368 35.906 19.9096 35.6515 20.51C35.397 21.1104 35.2689 21.7567 35.2751 22.4088C35.2813 23.0609 35.4217 23.7047 35.6876 24.3001C36.0837 25.1257 36.7067 25.8215 37.4836 26.3063C38.2605 26.791 39.1594 27.0447 40.0751 27.0376C40.4631 27.0629 40.8272 27.2343 41.0939 27.5172C41.3606 27.8002 41.5102 28.1737 41.5126 28.5626C41.5122 28.8959 41.4018 29.2197 41.1985 29.4837C40.9951 29.7478 40.7103 29.9373 40.3882 30.0228C40.0661 30.1083 39.7248 30.085 39.4172 29.9566C39.1097 29.8282 38.8532 29.6018 38.6876 29.3126C38.5478 29.0805 38.3495 28.8891 38.1126 28.7575C37.8758 28.6259 37.6085 28.5587 37.3376 28.5626C37.0617 28.5571 36.7891 28.6235 36.5467 28.7555C36.3044 28.8874 36.1006 29.0802 35.9554 29.3149C35.8103 29.5497 35.7289 29.8181 35.7192 30.0939C35.7095 30.3697 35.7718 30.6433 35.9001 30.8876C36.4633 31.8575 37.3475 32.6003 38.4001 32.9876C38.4001 33.1829 38.4386 33.3764 38.5133 33.5568C38.5881 33.7373 38.6976 33.9013 38.8358 34.0394C38.9739 34.1775 39.1379 34.2871 39.3183 34.3619C39.4988 34.4366 39.6922 34.4751 39.8876 34.4751H40.1126C40.5071 34.4751 40.8854 34.3184 41.1644 34.0394C41.4434 33.7605 41.6001 33.3821 41.6001 32.9876C42.6325 32.6101 43.5005 31.8835 44.0538 30.9336C44.6072 29.9837 44.811 28.8702 44.63 27.7859C44.449 26.7016 43.8947 25.7147 43.0629 24.9959C42.2311 24.2772 41.1742 23.8719 40.0751 23.8501V23.9001Z" fill="#7CB342"/>
</svg>
