<svg width="340" height="134" viewBox="0 0 340 134" fill="none" xmlns="http://www.w3.org/2000/svg">
<g clip-path="url(#clip0)">
<path d="M47.2625 4.96319e-07C37.9141 -0.00134487 28.7752 2.7325 21.0018 7.85579C13.2283 12.9791 7.16935 20.2617 3.59124 28.7825C0.0131326 37.3033 -0.923424 46.6797 0.900025 55.7257C2.72347 64.7718 7.22502 73.0811 13.8353 79.6029C20.4457 86.1247 28.8678 90.5659 38.0367 92.3649C47.2055 94.1639 56.7092 93.2399 65.3457 89.7097C73.9822 86.1796 81.3637 80.2018 86.5565 72.5324C91.7494 64.8631 94.5204 55.8467 94.519 46.6235C94.5172 34.2587 89.5378 22.4009 80.6759 13.6577C71.8139 4.91448 59.7951 0.00180412 47.2625 4.96319e-07V4.96319e-07ZM47.1453 69.5271C42.5771 69.5271 38.1114 68.1906 34.3131 65.6866C30.5147 63.1826 27.5543 59.6237 25.8061 55.4597C24.0579 51.2957 23.6005 46.7138 24.4917 42.2934C25.383 37.873 27.5828 33.8126 30.813 30.6256C34.0432 27.4387 38.1588 25.2683 42.6392 24.389C47.1197 23.5098 51.7638 23.961 55.9843 25.6858C60.2047 27.4106 63.8121 30.3313 66.35 34.0788C68.888 37.8263 70.2426 42.2321 70.2426 46.7391C70.2426 52.7829 67.8092 58.5791 63.4776 62.8526C59.146 67.1262 53.2711 69.5271 47.1453 69.5271V69.5271Z" fill="white"/>
<path d="M25.745 93.1994V108.933C25.7459 112.225 25.0893 115.485 23.8128 118.527C22.5363 121.569 20.6649 124.332 18.3054 126.66C15.946 128.988 13.1448 130.834 10.0618 132.094C6.9789 133.353 3.67465 134.001 0.337891 134V68.2007C5.51113 79.2584 14.5231 88.1255 25.745 93.1994V93.1994Z" fill="white"/>
<path d="M84.9364 40.2087C86.4936 39.5919 88.1609 39.2912 89.8386 39.3244V45.6914C89.0664 45.6302 88.5424 45.603 88.2735 45.603C87.4159 45.5543 86.5571 45.6762 85.7482 45.9613C84.9392 46.2464 84.1966 46.689 83.5644 47.2627C82.4336 48.3647 81.8614 50.0245 81.8614 52.2353V63.466H74.8701V39.6577H81.5373V42.7936C82.4019 41.6342 83.5799 40.7384 84.9364 40.2087V40.2087Z" fill="#293057"/>
<path d="M98.422 62.2485C96.4674 61.2572 94.83 59.7501 93.6922 57.895C92.5806 55.9682 91.9961 53.7893 91.9961 51.5722C91.9961 49.3552 92.5806 47.1762 93.6922 45.2494C94.8281 43.3927 96.4659 41.8851 98.422 40.8959C100.545 39.8622 102.88 39.3246 105.248 39.3246C107.615 39.3246 109.951 39.8622 112.074 40.8959C114.019 41.8898 115.647 43.3969 116.776 45.2494C117.892 47.1747 118.479 49.3542 118.479 51.5722C118.479 53.7902 117.892 55.9698 116.776 57.895C115.645 59.746 114.018 61.2526 112.074 62.2485C109.951 63.2822 107.615 63.8198 105.248 63.8198C102.88 63.8198 100.545 63.2822 98.422 62.2485V62.2485ZM109.674 56.3713C110.79 55.0141 111.399 53.3197 111.399 51.5722C111.399 49.8247 110.79 48.1304 109.674 46.7731C109.107 46.1848 108.42 45.7213 107.658 45.413C106.897 45.1047 106.078 44.9585 105.255 44.9841C104.43 44.9605 103.61 45.1074 102.846 45.4156C102.083 45.7237 101.393 46.1861 100.821 46.7731C99.6935 48.1249 99.0767 49.8213 99.0767 51.5722C99.0767 53.3231 99.6935 55.0196 100.821 56.3713C101.393 56.9583 102.083 57.4208 102.846 57.7289C103.61 58.037 104.43 58.184 105.255 58.1603C106.078 58.1859 106.897 58.0397 107.658 57.7314C108.42 57.4231 109.107 56.9596 109.674 56.3713V56.3713Z" fill="white"/>
<path d="M130.8 40.2089H137.005V45.5148H131V63.4663H123.988V45.5148H120.271V40.2089H123.988V39.1478C123.988 36.4268 124.804 34.275 126.435 32.6923C128.067 31.1096 130.365 30.3137 133.33 30.3047C134.335 30.2988 135.337 30.4107 136.316 30.638C137.149 30.815 137.945 31.135 138.667 31.5835L136.826 36.5833C135.998 36.0189 135.012 35.724 134.006 35.7398C131.882 35.7398 130.82 36.8894 130.82 39.1886L130.8 40.2089ZM144.424 35.2568C144.043 34.9056 143.74 34.481 143.533 34.0095C143.326 33.5379 143.219 33.0294 143.219 32.5154C143.219 32.0015 143.326 31.493 143.533 31.0214C143.74 30.5499 144.043 30.1253 144.424 29.7741C145.284 29.0173 146.409 28.6198 147.561 28.6653C148.705 28.6144 149.826 28.9936 150.698 29.7265C151.087 30.0525 151.397 30.4596 151.607 30.9184C151.817 31.3772 151.921 31.8762 151.911 32.3794C151.925 32.9132 151.825 33.4439 151.615 33.9363C151.406 34.4288 151.093 34.8719 150.698 35.2364C149.843 36.0045 148.716 36.4079 147.561 36.3588C146.41 36.4062 145.285 36.0111 144.424 35.2568V35.2568ZM144.065 39.6783H151.056V63.4867H144.065V39.6783Z" fill="white"/>
<path d="M173.105 62.3167C172.345 62.8531 171.485 63.2368 170.575 63.4459C169.542 63.6967 168.481 63.8223 167.417 63.82C164.549 63.82 162.331 63.0967 160.764 61.6501C159.196 60.2034 158.41 58.0811 158.406 55.283V45.5148H154.689V40.209H158.406V34.4133H165.397V40.209H171.402V45.5148H165.397V55.1946C165.342 56.0415 165.624 56.8761 166.183 57.521C166.474 57.8031 166.823 58.0216 167.205 58.1622C167.587 58.3028 167.996 58.3625 168.403 58.3373C169.418 58.3671 170.412 58.0552 171.223 57.453L173.105 62.3167Z" fill="white"/>
<path d="M222.004 32.5154L211.428 63.4662H207.932L198.748 37.0662L189.509 63.4662H186.062L175.485 32.5154H178.891L187.944 59.1331L197.307 32.5154H200.403L209.635 59.2623L218.819 32.5154H222.004Z" fill="white"/>
<path d="M247.122 42.5762C248.873 44.2723 249.746 46.7393 249.742 49.9772V63.4663H246.563V50.2901C246.563 47.8775 245.95 46.0341 244.722 44.7598C243.502 43.4945 241.751 42.8619 239.482 42.8619C238.375 42.8045 237.268 42.973 236.23 43.3569C235.192 43.7408 234.245 44.3319 233.449 45.0931C231.974 46.5805 231.236 48.6371 231.236 51.2629V63.4663H228.051V30.6584H231.236V44.2632C232.107 42.9033 233.35 41.8139 234.821 41.1205C236.459 40.3611 238.252 39.984 240.061 40.0185C243.017 40.0276 245.37 40.8802 247.122 42.5762Z" fill="white"/>
<path d="M273.72 42.3108C275.361 43.8254 276.182 46.0725 276.182 49.0519V63.4662H273.134V59.8405C272.39 61.0726 271.291 62.0578 269.976 62.6703C268.428 63.3817 266.733 63.7286 265.026 63.6838C262.392 63.6838 260.301 63.0648 258.752 61.8268C258.036 61.2385 257.458 60.5047 257.056 59.6756C256.654 58.8466 256.438 57.9417 256.423 57.0228C256.408 56.1038 256.594 55.1925 256.968 54.3511C257.343 53.5096 257.897 52.7578 258.593 52.147C260.041 50.9362 262.339 50.3308 265.488 50.3308H273.003V48.9159C273.003 46.916 272.431 45.3922 271.3 44.3447C270.169 43.2971 268.501 42.7733 266.322 42.7733C264.856 42.7693 263.401 43.0155 262.02 43.5012C260.72 43.9541 259.52 44.6466 258.483 45.5419L257.049 43.1406C258.316 42.0989 259.778 41.311 261.351 40.821C263.058 40.271 264.844 39.9954 266.639 40.0047C269.714 40.0229 272.075 40.7916 273.72 42.3108ZM270.135 59.9969C271.443 59.1524 272.447 57.9215 273.003 56.4801V52.664H265.626C261.59 52.664 259.574 54.0494 259.579 56.8202C259.555 57.4398 259.685 58.0557 259.958 58.6142C260.231 59.1728 260.638 59.6568 261.144 60.0242C262.44 60.8764 263.982 61.2873 265.536 61.1942C267.154 61.2395 268.751 60.8238 270.135 59.9969V59.9969Z" fill="white"/>
<path d="M284.835 30.6584H288.013V63.4663H284.835V30.6584Z" fill="white"/>
<path d="M317.412 52.8069H297.693C297.742 53.9213 298.017 55.0147 298.503 56.022C298.989 57.0294 299.675 57.9301 300.52 58.6705C302.308 60.1888 304.61 60.9856 306.967 60.9017C308.353 60.9174 309.728 60.6536 311.007 60.1263C312.227 59.6126 313.314 58.8336 314.186 57.8475L315.978 59.8882C314.924 61.1334 313.577 62.105 312.055 62.718C310.192 63.4433 308.194 63.7694 306.193 63.6744C304.192 63.5794 302.235 63.0655 300.451 62.167C298.622 61.1904 297.108 59.7268 296.08 57.9427C295.014 56.0764 294.473 53.9625 294.515 51.8205C294.476 49.6873 294.991 47.5796 296.011 45.6984C296.969 43.9482 298.401 42.4952 300.148 41.5013C301.948 40.5156 303.974 39.9984 306.033 39.9984C308.092 39.9984 310.117 40.5156 311.917 41.5013C313.641 42.4952 315.051 43.9409 315.992 45.678C317.002 47.5623 317.51 49.669 317.467 51.8001L317.412 52.8069ZM300.313 44.8753C298.755 46.345 297.818 48.3431 297.693 50.4669H314.406C314.281 48.3431 313.345 46.345 311.786 44.8753C310.205 43.4902 308.164 42.7251 306.05 42.7251C303.935 42.7251 301.894 43.4902 300.313 44.8753Z" fill="white"/>
<path d="M324.783 62.8675C323.294 62.4574 321.9 61.7642 320.681 60.8268L322.115 58.3507C323.234 59.1877 324.495 59.8233 325.838 60.2282C327.342 60.7171 328.916 60.9629 330.499 60.956C332.65 60.956 334.243 60.6295 335.27 59.9629C335.758 59.6726 336.158 59.2592 336.429 58.7653C336.701 58.2714 336.834 57.715 336.814 57.1535C336.839 56.7722 336.776 56.3902 336.629 56.0366C336.482 55.683 336.255 55.3671 335.966 55.1128C335.338 54.5996 334.604 54.2281 333.815 54.0244C332.681 53.7179 331.53 53.4749 330.368 53.2966C328.81 53.0266 327.27 52.6654 325.755 52.215C324.612 51.8558 323.585 51.2059 322.777 50.3307C321.902 49.3108 321.46 47.9975 321.543 46.6642C321.532 45.7333 321.75 44.8137 322.179 43.9844C322.608 43.155 323.234 42.4406 324.004 41.9026C325.649 40.6645 327.936 40.0455 330.864 40.0455C332.408 40.047 333.945 40.2482 335.435 40.6441C336.768 40.9593 338.04 41.4878 339.2 42.2087L337.821 44.7324C335.773 43.3723 333.346 42.6757 330.878 42.7393C328.842 42.7393 327.311 43.093 326.286 43.8004C325.807 44.0953 325.413 44.5066 325.141 44.995C324.869 45.4833 324.73 46.0324 324.735 46.5894C324.718 46.9844 324.788 47.3783 324.939 47.7444C325.09 48.1106 325.319 48.4404 325.61 48.7118C326.233 49.2614 326.977 49.6618 327.782 49.8818C328.963 50.2022 330.159 50.4611 331.367 50.6572C332.896 50.927 334.409 51.2813 335.897 51.7184C337.011 52.0598 338.014 52.6838 338.807 53.5278C339.66 54.5077 340.095 55.7755 340.02 57.0651C340.044 58.0221 339.819 58.9693 339.368 59.8168C338.917 60.6643 338.254 61.3842 337.442 61.9084C335.723 63.1056 333.339 63.7019 330.292 63.6974C328.423 63.7022 326.565 63.4223 324.783 62.8675V62.8675Z" fill="white"/>
<path d="M194.288 101.029C192.857 100.59 191.552 99.8207 190.482 98.7842L191.482 96.8456C192.475 97.7828 193.663 98.4954 194.964 98.9339C196.396 99.4678 197.915 99.7398 199.446 99.7366C201.604 99.7366 203.224 99.3488 204.306 98.5598C204.81 98.2246 205.222 97.7714 205.505 97.2408C205.787 96.7101 205.932 96.1186 205.927 95.5191C205.947 95.0998 205.878 94.6809 205.727 94.2888C205.575 93.8966 205.342 93.5397 205.044 93.2403C204.43 92.6563 203.697 92.2087 202.893 91.9274C201.728 91.5323 200.543 91.1985 199.342 90.9275C197.868 90.5789 196.417 90.1404 194.998 89.6146C193.936 89.2043 192.989 88.5461 192.241 87.6964C191.427 86.7111 191.017 85.4617 191.089 84.1931C191.075 83.028 191.411 81.8848 192.054 80.9076C192.785 79.8497 193.817 79.0286 195.019 78.5472C196.592 77.911 198.284 77.6097 199.983 77.6629C201.352 77.6606 202.715 77.8484 204.031 78.2207C205.257 78.5503 206.421 79.0741 207.478 79.7716L206.616 81.8123C205.618 81.1612 204.525 80.6634 203.376 80.3362C202.279 80.0119 201.142 79.8447 199.997 79.8396C197.878 79.8396 196.285 80.241 195.219 81.0436C194.716 81.3958 194.308 81.8635 194.029 82.4063C193.75 82.9491 193.61 83.5507 193.62 84.1591C193.6 84.5809 193.668 85.0021 193.819 85.3972C193.969 85.7924 194.199 86.1534 194.495 86.4583C195.12 87.057 195.874 87.5082 196.701 87.778C197.584 88.0841 198.77 88.4582 200.273 88.7847C201.727 89.1217 203.16 89.5465 204.561 90.0568C205.622 90.4642 206.568 91.1175 207.319 91.9615C208.12 92.9344 208.525 94.1659 208.457 95.4171C208.466 96.5845 208.123 97.7282 207.471 98.7026C206.721 99.7574 205.673 100.571 204.458 101.043C202.869 101.664 201.168 101.96 199.459 101.913C197.697 101.909 195.949 101.61 194.288 101.029V101.029Z" fill="white"/>
<path d="M216.163 100.668C214.779 99.9076 213.634 98.7849 212.854 97.4237C212.062 95.9826 211.647 94.3693 211.647 92.73C211.647 91.0908 212.062 89.4775 212.854 88.0364C213.63 86.6761 214.776 85.5569 216.163 84.8053C217.619 84.0458 219.24 83.6488 220.886 83.6488C222.533 83.6488 224.154 84.0458 225.609 84.8053C226.99 85.5579 228.129 86.6773 228.898 88.0364C229.681 89.4803 230.09 91.0925 230.09 92.73C230.09 94.3675 229.681 95.9798 228.898 97.4237C228.126 98.7839 226.988 99.9069 225.609 100.668C224.158 101.441 222.535 101.845 220.886 101.845C219.237 101.845 217.614 101.441 216.163 100.668V100.668ZM224.347 98.8386C225.369 98.2571 226.201 97.4006 226.747 96.3693C227.314 95.2378 227.609 93.9924 227.609 92.73C227.609 91.4677 227.314 90.2224 226.747 89.0908C226.201 88.0595 225.369 87.203 224.347 86.6215C223.283 86.0547 222.092 85.758 220.883 85.758C219.673 85.758 218.483 86.0547 217.418 86.6215C216.393 87.203 215.557 88.0592 215.005 89.0908C214.429 90.2198 214.129 91.4661 214.129 92.73C214.129 93.994 214.429 95.2403 215.005 96.3693C215.558 97.3996 216.395 98.2553 217.418 98.8386C218.483 99.4054 219.673 99.7021 220.883 99.7021C222.092 99.7021 223.283 99.4054 224.347 98.8386Z" fill="white"/>
<path d="M238.689 79.1933C238.102 79.8991 237.814 80.8002 237.882 81.7101V83.8189H243.467V85.8596H237.951V101.709H235.503V85.8596H232.263V83.8189H235.503V81.5741C235.465 80.8664 235.572 80.1585 235.818 79.4924C236.063 78.8263 236.441 78.2156 236.93 77.6967C237.472 77.199 238.111 76.8156 238.808 76.57C239.505 76.3244 240.246 76.2217 240.985 76.2682C241.662 76.2658 242.336 76.3644 242.984 76.5607C243.575 76.7271 244.126 77.0093 244.604 77.3906L243.777 79.1933C243.018 78.5883 242.063 78.2743 241.088 78.309C240.647 78.2815 240.206 78.3461 239.793 78.4985C239.379 78.6509 239.003 78.8876 238.689 79.1933V79.1933Z" fill="white"/>
<path d="M256.319 100.587C255.827 101.016 255.246 101.334 254.616 101.519C253.933 101.737 253.218 101.847 252.5 101.845C251.785 101.89 251.068 101.793 250.391 101.56C249.715 101.326 249.093 100.96 248.563 100.485C248.083 99.9686 247.713 99.3622 247.476 98.7018C247.239 98.0414 247.14 97.3406 247.184 96.6414V85.8256H243.943V83.7849H247.184V79.8735H249.632V83.7849H255.147V85.8256H249.632V96.5053C249.58 97.3856 249.876 98.2515 250.459 98.9201C250.767 99.2119 251.133 99.4371 251.535 99.5811C251.936 99.7252 252.363 99.7851 252.789 99.7568C253.286 99.7569 253.78 99.6765 254.251 99.5188C254.699 99.372 255.113 99.141 255.471 98.8385L256.319 100.587Z" fill="white"/>
<path d="M287.035 83.7848L280.175 101.675H277.865L272.149 87.0159L266.427 101.675H264.11L257.291 83.7848H259.628L265.316 98.9881L271.143 83.7848H273.245L279.044 98.9881L284.794 83.7848H287.035Z" fill="white"/>
<path d="M301.97 85.4038C303.234 86.5648 303.866 88.2926 303.866 90.5872V101.675H301.521V98.9202C300.948 99.8687 300.101 100.627 299.088 101.097C297.893 101.635 296.587 101.891 295.275 101.845C293.547 101.937 291.84 101.432 290.449 100.417C289.898 99.9639 289.453 99.3993 289.144 98.7614C288.835 98.1235 288.669 97.4274 288.657 96.7204C288.645 96.0135 288.788 95.3123 289.076 94.6648C289.364 94.0172 289.789 93.4385 290.324 92.9681C291.441 92.0362 293.213 91.5736 295.654 91.5736H301.411V90.4852C301.455 89.8401 301.362 89.193 301.136 88.586C300.91 87.9789 300.558 87.4255 300.101 86.9616C299.029 86.0921 297.659 85.6612 296.275 85.7575C295.147 85.7524 294.027 85.9412 292.965 86.3153C291.953 86.6519 291.016 87.1785 290.207 87.8663L289.104 86.0637C290.08 85.2619 291.204 84.6544 292.414 84.2746C293.727 83.8539 295.1 83.6426 296.481 83.6488C298.895 83.6488 300.724 84.2338 301.97 85.4038ZM299.212 99.0086C300.22 98.3549 300.993 97.4022 301.418 96.2877V93.3626H295.73C292.627 93.3626 291.076 94.4283 291.076 96.5597C291.057 97.0363 291.158 97.5101 291.368 97.9395C291.578 98.3688 291.892 98.7406 292.283 99.0222C293.277 99.6819 294.465 99.9998 295.661 99.9269C296.909 99.9637 298.142 99.6448 299.212 99.0086V99.0086Z" fill="white"/>
<path d="M315.427 84.5671C316.735 83.9159 318.188 83.6 319.653 83.6488V85.9956L319.067 85.9616C318.238 85.9163 317.408 86.0478 316.635 86.3471C315.861 86.6464 315.162 87.1066 314.585 87.6962C313.501 88.8526 312.961 90.4739 312.965 92.5599V101.675H310.518V83.7849H312.862V87.2881C313.393 86.1291 314.293 85.1734 315.427 84.5671Z" fill="white"/>
<path d="M339.683 93.4782H324.515C324.553 94.335 324.765 95.1756 325.138 95.9502C325.511 96.7249 326.037 97.4179 326.687 97.9882C328.064 99.1551 329.837 99.7672 331.651 99.7024C332.716 99.7151 333.772 99.5113 334.754 99.1038C335.692 98.7094 336.528 98.1119 337.201 97.3556L338.58 98.9201C337.768 99.8774 336.731 100.625 335.56 101.097C334.298 101.605 332.945 101.86 331.582 101.845C329.857 101.878 328.152 101.472 326.631 100.668C325.227 99.9172 324.064 98.7932 323.274 97.4236C322.455 95.993 322.039 94.3726 322.067 92.7299C322.036 91.0938 322.432 89.4773 323.219 88.0363C323.953 86.6907 325.051 85.5723 326.39 84.8052C327.775 84.047 329.333 83.6492 330.917 83.6492C332.5 83.6492 334.058 84.047 335.443 84.8052C336.769 85.5697 337.854 86.6808 338.58 88.0159C339.357 89.467 339.749 91.089 339.718 92.7299L339.683 93.4782ZM326.528 87.3561C325.329 88.4882 324.609 90.027 324.515 91.662H337.374C337.274 90.0269 336.552 88.4891 335.353 87.3561C334.135 86.2949 332.566 85.7093 330.941 85.7093C329.316 85.7093 327.746 86.2949 326.528 87.3561V87.3561Z" fill="white"/>
</g>
<defs>
<clipPath id="clip0">
<rect width="340" height="134" fill="white"/>
</clipPath>
</defs>
</svg>
