<svg width="342" height="134" viewBox="0 0 342 134" fill="none" xmlns="http://www.w3.org/2000/svg">
<g clip-path="url(#clip0)">
<path d="M47.5396 4.96319e-07C38.1362 -0.00134487 28.9436 2.7325 21.1244 7.85579C13.3052 12.9791 7.21059 20.2617 3.61144 28.7825C0.0122792 37.3033 -0.929786 46.6797 0.904389 55.7257C2.73856 64.7718 7.26659 73.0811 13.9158 79.6029C20.565 86.1247 29.0367 90.5659 38.2595 92.3649C47.4823 94.1639 57.0418 93.2399 65.7292 89.7097C74.4165 86.1796 81.8414 80.2018 87.0648 72.5324C92.2882 64.8631 95.0754 55.8467 95.0741 46.6235C95.0722 34.2587 90.0635 22.4009 81.1495 13.6577C72.2355 4.91448 60.1459 0.00180412 47.5396 4.96319e-07V4.96319e-07ZM47.4217 69.5271C42.8266 69.5271 38.3347 68.1906 34.514 65.6866C30.6933 63.1826 27.7155 59.6237 25.957 55.4597C24.1985 51.2957 23.7384 46.7138 24.6349 42.2934C25.5313 37.873 27.7441 33.8126 30.9933 30.6256C34.2425 27.4387 38.3823 25.2683 42.8891 24.389C47.3959 23.5098 52.0673 23.961 56.3126 25.6858C60.558 27.4106 64.1865 30.3313 66.7394 34.0788C69.2923 37.8263 70.6549 42.2321 70.6549 46.7391C70.6549 52.7829 68.2071 58.5791 63.85 62.8526C59.493 67.1262 53.5835 69.5271 47.4217 69.5271V69.5271Z" fill="#293057"/>
<path d="M25.8964 93.1991V108.933C25.8973 112.225 25.2369 115.485 23.9529 118.527C22.6689 121.568 20.7864 124.332 18.4131 126.66C16.0398 128.988 13.2221 130.834 10.121 132.093C7.01992 133.353 3.69623 134.001 0.339844 134V68.2004C5.54351 79.2582 14.6085 88.1253 25.8964 93.1991V93.1991Z" fill="#293057"/>
<path d="M85.4361 40.2088C87.0024 39.5921 88.6795 39.2913 90.3671 39.3245V45.6915C89.5903 45.6303 89.0632 45.6031 88.7927 45.6031C87.9301 45.5544 87.0663 45.6763 86.2526 45.9614C85.4389 46.2465 84.6919 46.6891 84.0559 47.2629C82.9186 48.3649 82.3429 50.0246 82.3429 52.2354V63.4661H75.3105V39.6578H82.017V42.7937C82.8867 41.6343 84.0716 40.7385 85.4361 40.2088V40.2088Z" fill="white"/>
<path d="M99.0018 62.2485C97.0357 61.2572 95.3887 59.7501 94.2442 57.895C93.1261 55.9682 92.5381 53.7893 92.5381 51.5722C92.5381 49.3551 93.1261 47.1762 94.2442 45.2494C95.3867 43.3927 97.0342 41.8851 99.0018 40.8959C101.137 39.8622 103.487 39.3246 105.868 39.3246C108.249 39.3246 110.598 39.8622 112.734 40.8959C114.691 41.8898 116.328 43.3969 117.464 45.2494C118.586 47.1747 119.177 49.3542 119.177 51.5722C119.177 53.7902 118.586 55.9697 117.464 57.895C116.326 59.7459 114.689 61.2526 112.734 62.2485C110.598 63.2822 108.249 63.8198 105.868 63.8198C103.487 63.8198 101.137 63.2822 99.0018 62.2485V62.2485ZM110.32 56.3713C111.442 55.0141 112.055 53.3197 112.055 51.5722C112.055 49.8247 111.442 48.1303 110.32 46.7731C109.749 46.1848 109.058 45.7213 108.292 45.413C107.526 45.1047 106.702 44.9585 105.875 44.9841C105.045 44.9605 104.22 45.1074 103.452 45.4156C102.684 45.7237 101.99 46.1861 101.415 46.7731C100.281 48.1249 99.6604 49.8213 99.6604 51.5722C99.6604 53.3231 100.281 55.0196 101.415 56.3713C101.99 56.9583 102.684 57.4208 103.452 57.7289C104.22 58.037 105.045 58.184 105.875 58.1603C106.702 58.1859 107.526 58.0397 108.292 57.7314C109.058 57.4231 109.749 56.9596 110.32 56.3713V56.3713Z" fill="#293057"/>
<path d="M131.569 40.2088H137.81V45.5147H131.77V63.4661H124.717V45.5147H120.979V40.2088H124.717V39.1476C124.717 36.4267 125.537 34.2749 127.179 32.6922C128.82 31.1095 131.132 30.3136 134.114 30.3046C135.125 30.2987 136.133 30.4106 137.117 30.6379C137.956 30.8149 138.756 31.1349 139.482 31.5834L137.63 36.5831C136.797 36.0188 135.806 35.7239 134.794 35.7396C132.658 35.7396 131.59 36.8893 131.59 39.1885L131.569 40.2088ZM145.273 35.2567C144.89 34.9054 144.585 34.4809 144.377 34.0094C144.168 33.5378 144.061 33.0293 144.061 32.5153C144.061 32.0013 144.168 31.4928 144.377 31.0213C144.585 30.5497 144.89 30.1252 145.273 29.774C146.138 29.0172 147.27 28.6197 148.428 28.6652C149.579 28.6143 150.707 28.9935 151.584 29.7263C151.975 30.0524 152.287 30.4595 152.498 30.9183C152.709 31.377 152.814 31.876 152.805 32.3793C152.819 32.9131 152.717 33.4437 152.507 33.9362C152.296 34.4287 151.982 34.8718 151.584 35.2363C150.724 36.0043 149.59 36.4078 148.428 36.3587C147.271 36.406 146.139 36.011 145.273 35.2567V35.2567ZM144.912 39.6782H151.945V63.4865H144.912V39.6782Z" fill="#293057"/>
<path d="M174.123 62.3167C173.358 62.8531 172.493 63.2368 171.578 63.4459C170.538 63.6967 169.472 63.8223 168.401 63.82C165.516 63.82 163.285 63.0967 161.709 61.65C160.132 60.2034 159.341 58.0811 159.337 55.283V45.5148H155.599V40.209H159.337V34.4133H166.369V40.209H172.41V45.5148H166.369V55.1946C166.314 56.0415 166.597 56.8761 167.16 57.521C167.453 57.8031 167.803 58.0216 168.188 58.1622C168.573 58.3028 168.983 58.3625 169.393 58.3373C170.413 58.3671 171.414 58.0552 172.229 57.453L174.123 62.3167Z" fill="#293057"/>
<path d="M223.31 32.5151L212.671 63.4659H209.155L199.917 37.0659L190.624 63.4659H187.156L176.518 32.5151H179.944L189.05 59.1328L198.468 32.5151H201.582L210.868 59.2621L220.106 32.5151H223.31Z" fill="#293057"/>
<path d="M248.576 42.5761C250.337 44.2721 251.216 46.7391 251.211 49.9771V63.4662H248.014V50.29C248.014 47.8774 247.397 46.034 246.162 44.7597C244.935 43.4944 243.173 42.8618 240.891 42.8618C239.778 42.8044 238.664 42.9729 237.62 43.3568C236.576 43.7407 235.624 44.3317 234.823 45.093C233.339 46.5804 232.597 48.637 232.597 51.2627V63.4662H229.393V30.6583H232.597V44.2631C233.473 42.9032 234.723 41.8137 236.203 41.1204C237.85 40.3609 239.654 39.9839 241.474 40.0184C244.447 40.0275 246.814 40.88 248.576 42.5761Z" fill="#293057"/>
<path d="M275.331 42.3108C276.981 43.8254 277.807 46.0725 277.807 49.0519V63.4661H274.741V59.8405C273.993 61.0726 272.887 62.0578 271.565 62.6703C270.007 63.3817 268.303 63.7286 266.585 63.6838C263.936 63.6838 261.832 63.0648 260.274 61.8268C259.554 61.2385 258.972 60.5047 258.568 59.6756C258.164 58.8466 257.947 57.9417 257.932 57.0228C257.916 56.1038 258.104 55.1925 258.48 54.3511C258.857 53.5096 259.415 52.7578 260.115 52.147C261.571 50.9362 263.883 50.3308 267.05 50.3308H274.609V48.9159C274.609 46.916 274.034 45.3922 272.896 44.3447C271.759 43.2971 270.081 42.7733 267.889 42.7733C266.415 42.7693 264.95 43.0155 263.562 43.5012C262.254 43.9541 261.047 44.6466 260.004 45.5419L258.561 43.1406C259.836 42.0989 261.306 41.311 262.889 40.821C264.606 40.271 266.402 39.9954 268.208 40.0047C271.301 40.0229 273.676 40.7916 275.331 42.3108ZM271.724 59.9969C273.04 59.1524 274.05 57.9215 274.609 56.4801V52.664H267.189C263.129 52.664 261.102 54.0494 261.106 56.8202C261.082 57.4398 261.213 58.0557 261.487 58.6142C261.762 59.1727 262.172 59.6568 262.681 60.0241C263.984 60.8764 265.535 61.2873 267.099 61.1941C268.726 61.2395 270.332 60.8238 271.724 59.9969V59.9969Z" fill="#293057"/>
<path d="M286.51 30.6583H289.707V63.4662H286.51V30.6583Z" fill="#293057"/>
<path d="M319.279 52.8069H299.445C299.494 53.9213 299.77 55.0147 300.259 56.022C300.747 57.0294 301.437 57.9301 302.288 58.6705C304.086 60.1888 306.402 60.9856 308.772 60.9017C310.167 60.9174 311.55 60.6536 312.837 60.1262C314.064 59.6126 315.157 58.8336 316.034 57.8475L317.837 59.8882C316.777 61.1334 315.422 62.105 313.891 62.718C312.017 63.4433 310.007 63.7693 307.994 63.6743C305.982 63.5794 304.013 63.0655 302.219 62.167C300.379 61.1904 298.855 59.7268 297.822 57.9427C296.749 56.0764 296.206 53.9625 296.247 51.8205C296.208 49.6873 296.726 47.5796 297.752 45.6984C298.716 43.9482 300.157 42.4952 301.914 41.5013C303.725 40.5156 305.762 39.9984 307.833 39.9984C309.904 39.9984 311.941 40.5156 313.752 41.5013C315.486 42.4952 316.904 43.9409 317.851 45.678C318.867 47.5623 319.377 49.669 319.335 51.8001L319.279 52.8069ZM302.08 44.8753C300.512 46.345 299.57 48.3431 299.445 50.4669H316.256C316.13 48.3431 315.188 46.345 313.62 44.8753C312.03 43.4902 309.977 42.7251 307.85 42.7251C305.723 42.7251 303.67 43.4902 302.08 44.8753Z" fill="#293057"/>
<path d="M326.694 62.8676C325.196 62.4576 323.794 61.7643 322.567 60.8269L324.01 58.3508C325.136 59.1878 326.404 59.8234 327.755 60.2283C329.268 60.7172 330.851 60.963 332.443 60.9562C334.607 60.9562 336.209 60.6296 337.242 59.963C337.733 59.6727 338.135 59.2593 338.408 58.7654C338.682 58.2716 338.815 57.7151 338.796 57.1536C338.821 56.7723 338.757 56.3903 338.609 56.0367C338.462 55.6832 338.234 55.3672 337.943 55.1129C337.311 54.5997 336.573 54.2282 335.779 54.0245C334.638 53.718 333.48 53.475 332.311 53.2967C330.744 53.0267 329.195 52.6656 327.672 52.2151C326.522 51.8559 325.488 51.2061 324.676 50.3309C323.796 49.3109 323.352 47.9977 323.434 46.6644C323.424 45.7334 323.643 44.8138 324.074 43.9845C324.506 43.1551 325.136 42.4408 325.91 41.9027C327.565 40.6647 329.866 40.0457 332.811 40.0457C334.364 40.0471 335.909 40.2484 337.409 40.6443C338.75 40.9594 340.029 41.4879 341.196 42.2088L339.809 44.7325C337.748 43.3725 335.307 42.6758 332.825 42.7394C330.776 42.7394 329.237 43.0931 328.206 43.8006C327.724 44.0954 327.327 44.5067 327.054 44.9951C326.781 45.4835 326.64 46.0325 326.645 46.5895C326.629 46.9845 326.699 47.3784 326.851 47.7445C327.003 48.1107 327.233 48.4406 327.526 48.7119C328.153 49.2615 328.9 49.6619 329.711 49.8819C330.898 50.2024 332.102 50.4612 333.317 50.6574C334.855 50.9271 336.376 51.2814 337.874 51.7185C338.994 52.06 340.003 52.6839 340.8 53.528C341.658 54.5078 342.096 55.7756 342.021 57.0652C342.044 58.0223 341.819 58.9694 341.365 59.8169C340.911 60.6645 340.244 61.3844 339.427 61.9085C337.698 63.1057 335.301 63.702 332.235 63.6975C330.356 63.7024 328.486 63.4224 326.694 62.8676V62.8676Z" fill="#293057"/>
<path d="M195.43 101.029C193.99 100.59 192.677 99.8207 191.602 98.7842L192.607 96.8456C193.606 97.7828 194.801 98.4954 196.11 98.9339C197.55 99.4678 199.078 99.7398 200.617 99.7366C202.788 99.7366 204.418 99.3488 205.507 98.5598C206.014 98.2246 206.428 97.7714 206.712 97.2408C206.997 96.7101 207.142 96.1186 207.137 95.5191C207.157 95.0998 207.088 94.6809 206.935 94.2888C206.783 93.8966 206.549 93.5397 206.249 93.2403C205.631 92.6563 204.894 92.2087 204.085 91.9274C202.913 91.5323 201.721 91.1985 200.513 90.9275C199.031 90.5789 197.572 90.1404 196.144 89.6146C195.075 89.2043 194.123 88.5461 193.37 87.6964C192.552 86.7111 192.139 85.4617 192.212 84.1931C192.198 83.028 192.536 81.8848 193.183 80.9076C193.918 79.8498 194.955 79.0286 196.165 78.5472C197.747 77.911 199.449 77.6097 201.158 77.6629C202.535 77.6606 203.906 77.8484 205.229 78.2207C206.463 78.5503 207.634 79.0741 208.697 79.7716L207.83 81.8123C206.826 81.1612 205.727 80.6634 204.571 80.3362C203.468 80.0119 202.323 79.8447 201.172 79.8396C199.041 79.8396 197.439 80.241 196.366 81.0436C195.86 81.3958 195.449 81.8635 195.169 82.4063C194.889 82.9492 194.747 83.5507 194.757 84.1591C194.738 84.5809 194.806 85.0021 194.957 85.3972C195.109 85.7924 195.34 86.1534 195.638 86.4583C196.266 87.057 197.025 87.5082 197.857 87.778C198.745 88.0841 199.938 88.4582 201.45 88.7848C202.913 89.1217 204.353 89.5465 205.763 90.0568C206.831 90.4642 207.782 91.1175 208.538 91.9615C209.342 92.9344 209.75 94.1659 209.682 95.4171C209.691 96.5845 209.346 97.7282 208.69 98.7026C207.936 99.7574 206.882 100.571 205.659 101.043C204.061 101.664 202.35 101.96 200.631 101.913C198.859 101.909 197.1 101.61 195.43 101.029V101.029Z" fill="#293057"/>
<path d="M217.434 100.668C216.041 99.9075 214.889 98.7848 214.105 97.4236C213.309 95.9824 212.892 94.3691 212.892 92.7299C212.892 91.0907 213.309 89.4774 214.105 88.0363C214.886 86.6759 216.039 85.5568 217.434 84.8052C218.898 84.0457 220.529 83.6487 222.185 83.6487C223.841 83.6487 225.472 84.0457 226.935 84.8052C228.324 85.5578 229.47 86.6771 230.244 88.0363C231.031 89.4802 231.443 91.0924 231.443 92.7299C231.443 94.3674 231.031 95.9796 230.244 97.4236C229.467 98.7838 228.322 99.9068 226.935 100.668C225.476 101.441 223.843 101.845 222.185 101.845C220.526 101.845 218.894 101.441 217.434 100.668V100.668ZM225.666 98.8385C226.694 98.257 227.531 97.4005 228.08 96.3692C228.65 95.2376 228.947 93.9923 228.947 92.7299C228.947 91.4676 228.65 90.2222 228.08 89.0907C227.531 88.0594 226.694 87.2028 225.666 86.6214C224.596 86.0546 223.398 85.7578 222.181 85.7578C220.965 85.7578 219.767 86.0546 218.696 86.6214C217.665 87.2029 216.824 88.0591 216.269 89.0907C215.69 90.2196 215.388 91.466 215.388 92.7299C215.388 93.9939 215.69 95.2402 216.269 96.3692C216.826 97.3995 217.667 98.2552 218.696 98.8385C219.767 99.4053 220.965 99.702 222.181 99.702C223.398 99.702 224.596 99.4053 225.666 98.8385Z" fill="#293057"/>
<path d="M240.093 79.1931C239.503 79.899 239.213 80.8 239.281 81.71V83.8188H244.899V85.8595H239.351V101.709H236.889V85.8595H233.629V83.8188H236.889V81.574C236.851 80.8663 236.958 80.1583 237.205 79.4922C237.451 78.8262 237.832 78.2155 238.324 77.6966C238.869 77.1989 239.512 76.8155 240.213 76.5699C240.914 76.3243 241.659 76.2216 242.402 76.2681C243.084 76.2656 243.762 76.3643 244.413 76.5606C245.008 76.727 245.562 77.0092 246.043 77.3905L245.211 79.1931C244.447 78.5882 243.487 78.2742 242.506 78.3088C242.063 78.2814 241.619 78.346 241.203 78.4984C240.787 78.6508 240.409 78.8875 240.093 79.1931V79.1931Z" fill="#293057"/>
<path d="M257.827 100.587C257.331 101.015 256.747 101.333 256.114 101.519C255.426 101.737 254.707 101.847 253.985 101.845C253.265 101.89 252.544 101.793 251.864 101.559C251.183 101.326 250.558 100.96 250.025 100.485C249.542 99.9685 249.17 99.3621 248.931 98.7017C248.693 98.0413 248.593 97.3405 248.638 96.6412V85.8255H245.378V83.7848H248.638V79.8734H251.1V83.7848H256.648V85.8255H251.1V96.5052C251.047 97.3855 251.346 98.2513 251.932 98.92C252.242 99.2118 252.61 99.437 253.014 99.581C253.417 99.7251 253.847 99.7849 254.276 99.7567C254.776 99.7568 255.273 99.6764 255.746 99.5186C256.196 99.3719 256.613 99.1409 256.974 98.8384L257.827 100.587Z" fill="#293057"/>
<path d="M288.723 83.7848L281.823 101.675H279.5L273.75 87.0159L267.994 101.675H265.664L258.805 83.7848H261.156L266.877 98.9881L272.738 83.7848H274.853L280.685 98.9881L286.47 83.7848H288.723Z" fill="#293057"/>
<path d="M303.745 85.4038C305.017 86.5648 305.652 88.2926 305.652 90.5872V101.675H303.294V98.9202C302.718 99.8687 301.865 100.627 300.846 101.097C299.644 101.635 298.331 101.891 297.011 101.845C295.273 101.937 293.556 101.432 292.156 100.417C291.603 99.9638 291.155 99.3993 290.844 98.7614C290.533 98.1235 290.366 97.4274 290.354 96.7204C290.342 96.0135 290.486 95.3123 290.775 94.6648C291.065 94.0172 291.493 93.4385 292.032 92.9681C293.155 92.0361 294.937 91.5736 297.392 91.5736H303.183V90.4852C303.228 89.8401 303.134 89.193 302.907 88.586C302.68 87.9789 302.325 87.4255 301.866 86.9616C300.787 86.0921 299.409 85.6612 298.017 85.7575C296.882 85.7524 295.756 85.9412 294.688 86.3153C293.67 86.6519 292.728 87.1785 291.914 87.8663L290.804 86.0637C291.785 85.2619 292.916 84.6544 294.133 84.2746C295.454 83.8539 296.836 83.6426 298.225 83.6488C300.652 83.6488 302.492 84.2338 303.745 85.4038ZM300.971 99.0086C301.986 98.3548 302.763 97.4021 303.19 96.2876V93.3626H297.469C294.348 93.3626 292.787 94.4283 292.787 96.5597C292.769 97.0363 292.869 97.5101 293.081 97.9394C293.293 98.3688 293.609 98.7406 294.001 99.0222C295.002 99.6818 296.196 99.9998 297.399 99.9269C298.655 99.9636 299.895 99.6448 300.971 99.0086V99.0086Z" fill="#293057"/>
<path d="M317.283 84.5671C318.599 83.9159 320.061 83.6 321.534 83.6488V85.9956L320.945 85.9616C320.11 85.9163 319.276 86.0478 318.498 86.3471C317.72 86.6465 317.017 87.1066 316.437 87.6962C315.345 88.8527 314.802 90.4739 314.807 92.5599V101.675H312.345V83.7849H314.703V87.2881C315.237 86.1291 316.143 85.1734 317.283 84.5671Z" fill="#293057"/>
<path d="M341.681 93.4782H326.424C326.462 94.335 326.675 95.1756 327.05 95.9503C327.426 96.7249 327.955 97.4179 328.608 97.9882C329.994 99.1551 331.777 99.7672 333.602 99.7024C334.673 99.7151 335.735 99.5113 336.723 99.1038C337.667 98.7094 338.508 98.1119 339.185 97.3556L340.572 98.9201C339.755 99.8774 338.712 100.625 337.534 101.097C336.264 101.605 334.904 101.86 333.532 101.845C331.797 101.878 330.083 101.472 328.553 100.668C327.14 99.9172 325.97 98.7932 325.175 97.4236C324.352 95.993 323.933 94.3726 323.962 92.73C323.93 91.0938 324.329 89.4773 325.12 88.0363C325.858 86.6907 326.963 85.5723 328.31 84.8052C329.703 84.047 331.27 83.6492 332.863 83.6492C334.456 83.6492 336.023 84.047 337.416 84.8052C338.75 85.5697 339.842 86.6808 340.572 88.0159C341.354 89.467 341.747 91.089 341.716 92.73L341.681 93.4782ZM328.449 87.3561C327.242 88.4882 326.519 90.027 326.424 91.662H339.358C339.258 90.0269 338.532 88.4891 337.326 87.3561C336.101 86.2949 334.522 85.7093 332.887 85.7093C331.253 85.7093 329.674 86.2949 328.449 87.3561V87.3561Z" fill="#293057"/>
</g>
<defs>
<clipPath id="clip0">
<rect width="342" height="134" fill="white"/>
</clipPath>
</defs>
</svg>
