<svg width="128" height="72" viewBox="0 0 128 72" fill="none" xmlns="http://www.w3.org/2000/svg">
    <g filter="url(#filter0_dd)">
        <rect x="20" y="20" width="88" height="24" rx="8" fill="#6D6DF6"/>
        <rect x="20" y="20" width="88" height="24" rx="8" fill="black" fill-opacity="0.1"/>
    </g>
    <path d="M48.2669 37H49.9109L48.0329 33.388C49.1249 33.094 49.7849 32.242 49.7849 30.946C49.7849 29.32 48.7349 28.36 47.1029 28.36H43.4009V37H44.8649V33.502H46.5269L48.2669 37ZM44.8649 29.668H46.9349C47.8049 29.668 48.2969 30.16 48.2969 30.946C48.2969 31.738 47.8049 32.212 46.9349 32.212H44.8649V29.668ZM52.1658 34.282H56.7618V33.916C56.7618 31.9 55.5738 30.538 53.7558 30.538C52.0038 30.538 50.7318 31.858 50.7318 33.892C50.7318 35.866 52.0638 37.162 53.8818 37.162C55.0458 37.162 55.9038 36.748 56.5278 35.878L55.5318 35.176C55.0698 35.818 54.5478 35.998 53.9358 35.998C52.8258 35.998 52.2738 35.308 52.1658 34.282ZM53.7498 31.702C54.5358 31.702 55.1298 32.242 55.3098 33.202H52.2018C52.3878 32.212 52.9938 31.702 53.7498 31.702ZM60.565 37.18C62.095 37.18 63.181 36.478 63.181 35.164C63.181 33.748 62.011 33.4 60.853 33.22C59.941 33.076 59.353 32.92 59.353 32.392C59.353 31.924 59.857 31.702 60.517 31.702C61.201 31.702 61.735 31.918 62.167 32.41L63.073 31.606C62.461 30.892 61.639 30.526 60.523 30.526C59.011 30.526 57.985 31.228 57.985 32.44C57.985 33.754 59.035 34.216 60.301 34.414C61.225 34.558 61.813 34.69 61.813 35.236C61.813 35.716 61.345 35.998 60.589 35.998C59.701 35.998 59.029 35.698 58.579 35.122L57.631 35.92C58.207 36.658 59.155 37.18 60.565 37.18ZM67.8445 35.842C67.5625 35.932 67.3765 35.962 67.1665 35.962C66.6265 35.962 66.4405 35.776 66.4405 35.104V31.876H67.9945V30.7H66.4405V28.966H65.0605V30.7H64.1065V31.876H65.0605V35.44C65.0605 36.706 65.7985 37.162 66.9085 37.162C67.2805 37.162 67.7425 37.084 68.1385 36.946L67.8445 35.842ZM71.8869 30.55C70.8249 30.55 69.9489 30.976 69.4029 31.702L70.2909 32.512C70.6569 32.038 71.1729 31.732 71.8149 31.732C72.6189 31.732 73.1289 32.158 73.1289 33.118V33.19H72.1689C70.2369 33.19 69.1329 33.784 69.1329 35.188C69.1329 36.424 70.0629 37.156 71.2809 37.156C72.2589 37.156 72.8649 36.742 73.1529 36.262V37H74.5149V33.082C74.5149 31.366 73.4709 30.55 71.8869 30.55ZM73.1349 34.636C73.1349 35.254 72.5529 36.076 71.5689 36.076C70.8969 36.076 70.4829 35.764 70.4829 35.158C70.4829 34.396 71.2629 34.198 72.3849 34.198H73.1349V34.636ZM79.5526 30.55C78.5326 30.55 77.9566 31.204 77.7466 31.678V30.7H76.3906V37H77.7706V33.916C77.7706 32.698 78.4726 31.84 79.4326 31.84C79.6306 31.84 79.8646 31.87 80.0086 31.9L80.2846 30.646C79.9846 30.568 79.7146 30.55 79.5526 30.55ZM84.6867 35.842C84.4047 35.932 84.2187 35.962 84.0087 35.962C83.4687 35.962 83.2827 35.776 83.2827 35.104V31.876H84.8367V30.7H83.2827V28.966H81.9027V30.7H80.9487V31.876H81.9027V35.44C81.9027 36.706 82.6407 37.162 83.7507 37.162C84.1227 37.162 84.5847 37.084 84.9807 36.946L84.6867 35.842Z" fill="white"/>
    <path d="M59.3 48.4C59 48 58.7 47.3 58.1 46.4C57.8 45.9 56.9 44.9 56.6 44.5C56.4 44.1 56.4 43.9 56.5 43.5C56.6 42.9 57.2 42.4 57.9 42.4C58.4 42.4 58.9 42.8 59.3 43.1C59.5 43.3 59.8 43.7 60 43.9C60.2 44.1 60.2 44.2 60.4 44.4C60.6 44.7 60.7 44.9 60.6 44.5C60.5 44 60.4 43.2 60.2 42.4C60.1 41.8 60 41.7 59.9 41.3C59.8 40.8 59.7 40.5 59.6 40C59.5 39.7 59.4 38.9 59.3 38.5C59.2 38 59.2 37.1 59.6 36.7C59.9 36.4 60.5 36.3 60.9 36.5C61.4 36.8 61.7 37.5 61.8 37.8C62 38.3 62.2 39 62.3 39.8C62.5 40.8 62.8 42.3 62.8 42.6C62.8 42.2 62.7 41.5 62.8 41.1C62.9 40.8 63.1 40.4 63.5 40.3C63.8 40.2 64.1 40.2 64.4 40.2C64.7 40.3 65 40.5 65.2 40.7C65.6 41.3 65.6 42.6 65.6 42.5C65.7 42.1 65.7 41.3 65.9 40.9C66 40.7 66.4 40.5 66.6 40.4C66.9 40.3 67.3 40.3 67.6 40.4C67.8 40.4 68.2 40.7 68.3 40.9C68.5 41.2 68.6 42.2 68.7 42.6C68.7 42.7 68.8 42.2 69 41.9C69.4 41.3 70.8 41.1 70.9 42.5C70.9 43.2 70.9 43.1 70.9 43.6C70.9 44.1 70.9 44.4 70.9 44.8C70.9 45.2 70.8 46.1 70.7 46.5C70.6 46.8 70.3 47.5 70 47.9C70 47.9 68.9 49.1 68.8 49.7C68.7 50.3 68.7 50.3 68.7 50.7C68.7 51.1 68.8 51.6 68.8 51.6C68.8 51.6 68 51.7 67.6 51.6C67.2 51.5 66.7 50.8 66.6 50.5C66.4 50.2 66.1 50.2 65.9 50.5C65.7 50.9 65.2 51.6 64.8 51.6C64.1 51.7 62.7 51.6 61.7 51.6C61.7 51.6 61.9 50.6 61.5 50.2C61.2 49.9 60.7 49.4 60.4 49.1L59.3 48.4Z" fill="white"/>
    <path d="M59.3 48.4C59 48 58.7 47.3 58.1 46.4C57.8 45.9 56.9 44.9 56.6 44.5C56.4 44.1 56.4 43.9 56.5 43.5C56.6 42.9 57.2 42.4 57.9 42.4C58.4 42.4 58.9 42.8 59.3 43.1C59.5 43.3 59.8 43.7 60 43.9C60.2 44.1 60.2 44.2 60.4 44.4C60.6 44.7 60.7 44.9 60.6 44.5C60.5 44 60.4 43.2 60.2 42.4C60.1 41.8 60 41.7 59.9 41.3C59.8 40.8 59.7 40.5 59.6 40C59.5 39.7 59.4 38.9 59.3 38.5C59.2 38 59.2 37.1 59.6 36.7C59.9 36.4 60.5 36.3 60.9 36.5C61.4 36.8 61.7 37.5 61.8 37.8C62 38.3 62.2 39 62.3 39.8C62.5 40.8 62.8 42.3 62.8 42.6C62.8 42.2 62.7 41.5 62.8 41.1C62.9 40.8 63.1 40.4 63.5 40.3C63.8 40.2 64.1 40.2 64.4 40.2C64.7 40.3 65 40.5 65.2 40.7C65.6 41.3 65.6 42.6 65.6 42.5C65.7 42.1 65.7 41.3 65.9 40.9C66 40.7 66.4 40.5 66.6 40.4C66.9 40.3 67.3 40.3 67.6 40.4C67.8 40.4 68.2 40.7 68.3 40.9C68.5 41.2 68.6 42.2 68.7 42.6C68.7 42.7 68.8 42.2 69 41.9C69.4 41.3 70.8 41.1 70.9 42.5C70.9 43.2 70.9 43.1 70.9 43.6C70.9 44.1 70.9 44.4 70.9 44.8C70.9 45.2 70.8 46.1 70.7 46.5C70.6 46.8 70.3 47.5 70 47.9C70 47.9 68.9 49.1 68.8 49.7C68.7 50.3 68.7 50.3 68.7 50.7C68.7 51.1 68.8 51.6 68.8 51.6C68.8 51.6 68 51.7 67.6 51.6C67.2 51.5 66.7 50.8 66.6 50.5C66.4 50.2 66.1 50.2 65.9 50.5C65.7 50.9 65.2 51.6 64.8 51.6C64.1 51.7 62.7 51.6 61.7 51.6C61.7 51.6 61.9 50.6 61.5 50.2C61.2 49.9 60.7 49.4 60.4 49.1L59.3 48.4Z" stroke="black" stroke-width="0.75" stroke-linecap="round" stroke-linejoin="round"/>
    <path d="M67.6001 48.6998V45.2998" stroke="black" stroke-width="0.75" stroke-linecap="round"/>
    <path d="M65.6 48.6998L65.5 45.2998" stroke="black" stroke-width="0.75" stroke-linecap="round"/>
    <path d="M63.6001 45.2998V48.6998" stroke="black" stroke-width="0.75" stroke-linecap="round"/>
    <defs>
        <filter id="filter0_dd" x="0" y="0" width="128" height="72" filterUnits="userSpaceOnUse" color-interpolation-filters="sRGB">
            <feFlood flood-opacity="0" result="BackgroundImageFix"/>
            <feColorMatrix in="SourceAlpha" type="matrix" values="0 0 0 0 0 0 0 0 0 0 0 0 0 0 0 0 0 0 127 0"/>
            <feOffset dy="12"/>
            <feGaussianBlur stdDeviation="8"/>
            <feColorMatrix type="matrix" values="0 0 0 0 0.556863 0 0 0 0 0.576471 0 0 0 0 0.752941 0 0 0 0.08 0"/>
            <feBlend mode="normal" in2="BackgroundImageFix" result="effect1_dropShadow"/>
            <feColorMatrix in="SourceAlpha" type="matrix" values="0 0 0 0 0 0 0 0 0 0 0 0 0 0 0 0 0 0 127 0"/>
            <feOffset/>
            <feGaussianBlur stdDeviation="10"/>
            <feColorMatrix type="matrix" values="0 0 0 0 0.556863 0 0 0 0 0.576471 0 0 0 0 0.752941 0 0 0 0.08 0"/>
            <feBlend mode="normal" in2="effect1_dropShadow" result="effect2_dropShadow"/>
            <feBlend mode="normal" in="SourceGraphic" in2="effect2_dropShadow" result="shape"/>
        </filter>
    </defs>
</svg>
