<svg width="52" height="16" viewBox="0 0 52 16" fill="none" xmlns="http://www.w3.org/2000/svg">
<rect width="52" height="16" rx="4" fill="#8FD39D"/>
<path d="M8.33445 4.844V5.648C8.23845 5.64 8.13845 5.636 8.03445 5.636C7.49045 5.636 7.05045 5.8 6.71445 6.128C6.37845 6.448 6.21045 6.916 6.21045 7.532V11H5.35845V4.892H6.17445V5.84C6.31845 5.576 6.55445 5.344 6.88245 5.144C7.21045 4.936 7.62645 4.832 8.13045 4.832L8.33445 4.844ZM13.7295 8.504V4.892H14.5815V11H13.7655V10.112C13.6295 10.368 13.3935 10.604 13.0575 10.82C12.7295 11.036 12.3055 11.144 11.7855 11.144C11.0495 11.144 10.4855 10.932 10.0935 10.508C9.70148 10.076 9.50548 9.508 9.50548 8.804V4.892H10.3575V8.624C10.3575 9.808 10.8815 10.4 11.9295 10.4C12.4495 10.4 12.8775 10.24 13.2135 9.92C13.5575 9.592 13.7295 9.12 13.7295 8.504ZM17.4948 4.892V5.828C17.6388 5.556 17.8788 5.308 18.2148 5.084C18.5508 4.86 18.9828 4.748 19.5108 4.748C20.2468 4.748 20.8148 4.964 21.2148 5.396C21.6228 5.828 21.8268 6.396 21.8268 7.1V11H20.9748V7.268C20.9748 6.7 20.8388 6.264 20.5668 5.96C20.3028 5.648 19.9028 5.492 19.3668 5.492C18.8308 5.492 18.3908 5.656 18.0468 5.984C17.7028 6.312 17.5308 6.772 17.5308 7.364V11H16.6788V4.892H17.4948ZM24.6666 4.892V5.828C24.8106 5.556 25.0506 5.308 25.3866 5.084C25.7226 4.86 26.1546 4.748 26.6826 4.748C27.4186 4.748 27.9866 4.964 28.3866 5.396C28.7946 5.828 28.9986 6.396 28.9986 7.1V11H28.1466V7.268C28.1466 6.7 28.0106 6.264 27.7386 5.96C27.4746 5.648 27.0746 5.492 26.5386 5.492C26.0026 5.492 25.5626 5.656 25.2186 5.984C24.8746 6.312 24.7026 6.772 24.7026 7.364V11H23.8506V4.892H24.6666ZM31.4545 3.38C31.2705 3.38 31.1225 3.328 31.0105 3.224C30.8985 3.112 30.8425 2.968 30.8425 2.792C30.8425 2.616 30.8985 2.472 31.0105 2.36C31.1225 2.24 31.2705 2.18 31.4545 2.18C31.6305 2.18 31.7745 2.24 31.8865 2.36C32.0065 2.472 32.0665 2.616 32.0665 2.792C32.0665 2.968 32.0065 3.112 31.8865 3.224C31.7745 3.328 31.6305 3.38 31.4545 3.38ZM31.0225 11V4.892H31.8745V11H31.0225ZM34.7916 4.892V5.828C34.9356 5.556 35.1756 5.308 35.5116 5.084C35.8476 4.86 36.2796 4.748 36.8076 4.748C37.5436 4.748 38.1116 4.964 38.5116 5.396C38.9196 5.828 39.1236 6.396 39.1236 7.1V11H38.2716V7.268C38.2716 6.7 38.1356 6.264 37.8636 5.96C37.5996 5.648 37.1996 5.492 36.6636 5.492C36.1276 5.492 35.6876 5.656 35.3436 5.984C34.9996 6.312 34.8276 6.772 34.8276 7.364V11H33.9756V4.892H34.7916ZM45.8755 6.008V4.892H46.6915V10.7C46.6915 11.564 46.4435 12.268 45.9475 12.812C45.4595 13.356 44.7555 13.628 43.8355 13.628C43.0355 13.628 42.3995 13.436 41.9275 13.052C41.4635 12.668 41.1715 12.212 41.0515 11.684H41.9275C42.0475 12.044 42.2755 12.328 42.6115 12.536C42.9555 12.752 43.3715 12.86 43.8595 12.86C44.4755 12.86 44.9595 12.676 45.3115 12.308C45.6635 11.948 45.8395 11.476 45.8395 10.892V9.752C45.3675 10.576 44.6115 10.988 43.5715 10.988C42.6915 10.988 41.9915 10.684 41.4715 10.076C40.9515 9.468 40.6915 8.732 40.6915 7.868C40.6915 7.004 40.9515 6.268 41.4715 5.66C41.9915 5.052 42.6915 4.748 43.5715 4.748C44.6355 4.748 45.4035 5.168 45.8755 6.008ZM45.2875 9.56C45.6795 9.112 45.8755 8.548 45.8755 7.868C45.8755 7.188 45.6795 6.628 45.2875 6.188C44.9035 5.74 44.3835 5.516 43.7275 5.516C43.0715 5.516 42.5435 5.74 42.1435 6.188C41.7515 6.636 41.5555 7.196 41.5555 7.868C41.5555 8.54 41.7515 9.104 42.1435 9.56C42.5435 10.008 43.0715 10.232 43.7275 10.232C44.3835 10.232 44.9035 10.008 45.2875 9.56Z" fill="white"/>
</svg>
