<svg width="24" height="28" viewBox="0 0 24 28" fill="none" xmlns="http://www.w3.org/2000/svg">
    <path d="M24 21.225V2.775C24 2.41058 23.9282 2.04973 23.7888 1.71305C23.6493 1.37637 23.4449 1.07046 23.1872 0.812779C22.9295 0.555096 22.6236 0.350691 22.2869 0.211234C21.9503 0.0717775 21.5894 0 21.225 0H2.775C2.03902 0 1.33319 0.292365 0.812778 0.812779C0.292365 1.33319 0 2.03902 0 2.775V21.225C0 21.961 0.292365 22.6668 0.812778 23.1872C1.33319 23.7076 2.03902 24 2.775 24H21.225C21.961 24 22.6668 23.7076 23.1872 23.1872C23.7076 22.6668 24 21.961 24 21.225ZM15 12.38C15 12.4614 14.984 12.542 14.9528 12.6173C14.9216 12.6925 14.876 12.7608 14.8184 12.8184C14.7608 12.876 14.6925 12.9216 14.6173 12.9528C14.542 12.984 14.4614 13 14.38 13C14.2499 12.9992 14.123 13.04 14.0177 13.1165C13.9125 13.1929 13.8344 13.301 13.795 13.425C13.6966 13.7545 13.5642 14.0729 13.4 14.375C13.3372 14.4899 13.313 14.6219 13.331 14.7515C13.349 14.8812 13.4083 15.0016 13.5 15.095C13.6157 15.2112 13.6807 15.3685 13.6807 15.5325C13.6807 15.6965 13.6157 15.8538 13.5 15.97L12.975 16.5C12.8588 16.6157 12.7015 16.6807 12.5375 16.6807C12.3735 16.6807 12.2162 16.6157 12.1 16.5C12.0078 16.4067 11.8879 16.3456 11.7582 16.3257C11.6285 16.3059 11.4959 16.3285 11.38 16.39C11.0779 16.5542 10.7595 16.6866 10.43 16.785C10.3035 16.8241 10.193 16.9032 10.1155 17.0106C10.0379 17.1179 9.99737 17.2476 10 17.38C10 17.5444 9.93468 17.7021 9.81841 17.8184C9.70213 17.9347 9.54443 18 9.38 18H8.62C8.45557 18 8.29787 17.9347 8.18159 17.8184C8.06532 17.7021 8 17.5444 8 17.38C8.00079 17.2499 7.95998 17.123 7.88352 17.0177C7.80706 16.9125 7.69896 16.8344 7.575 16.795C7.24551 16.6966 6.92713 16.5642 6.625 16.4C6.50912 16.3385 6.37648 16.3159 6.24678 16.3357C6.11708 16.3556 5.99722 16.4167 5.905 16.51C5.7888 16.6257 5.63149 16.6907 5.4675 16.6907C5.30351 16.6907 5.1462 16.6257 5.03 16.51L4.5 15.975C4.38428 15.8588 4.31931 15.7015 4.31931 15.5375C4.31931 15.3735 4.38428 15.2162 4.5 15.1C4.59333 15.0078 4.65444 14.8879 4.67425 14.7582C4.69407 14.6285 4.67154 14.4959 4.61 14.38C4.44579 14.0779 4.31341 13.7595 4.215 13.43C4.17595 13.3035 4.09677 13.193 3.98943 13.1155C3.88208 13.0379 3.75241 12.9974 3.62 13C3.45557 13 3.29787 12.9347 3.18159 12.8184C3.06532 12.7021 3 12.5444 3 12.38V11.62C3 11.4556 3.06532 11.2979 3.18159 11.1816C3.29787 11.0653 3.45557 11 3.62 11C3.75008 11.0008 3.87702 10.96 3.98226 10.8835C4.0875 10.8071 4.16555 10.699 4.205 10.575C4.30341 10.2455 4.43579 9.92713 4.6 9.625C4.66279 9.51014 4.68697 9.37813 4.66896 9.24848C4.65095 9.11882 4.59171 8.9984 4.5 8.905C4.38428 8.7888 4.31931 8.63149 4.31931 8.4675C4.31931 8.30351 4.38428 8.1462 4.5 8.03L5.025 7.5C5.1412 7.38428 5.29851 7.31931 5.4625 7.31931C5.62649 7.31931 5.7838 7.38428 5.9 7.5C5.99222 7.59333 6.11208 7.65444 6.24178 7.67425C6.37148 7.69407 6.50412 7.67154 6.62 7.61C6.92213 7.44579 7.24051 7.31341 7.57 7.215C7.69655 7.17595 7.80695 7.09677 7.88453 6.98943C7.9621 6.88208 8.00263 6.75241 8 6.62C8 6.45557 8.06532 6.29787 8.18159 6.18159C8.29787 6.06532 8.45557 6 8.62 6H9.38C9.54443 6 9.70213 6.06532 9.81841 6.18159C9.93468 6.29787 10 6.45557 10 6.62C9.99921 6.75008 10.04 6.87702 10.1165 6.98226C10.1929 7.0875 10.301 7.16555 10.425 7.205C10.7545 7.30341 11.0729 7.43579 11.375 7.6C11.4899 7.66279 11.6219 7.68697 11.7515 7.66896C11.8812 7.65095 12.0016 7.59171 12.095 7.5C12.2112 7.38428 12.3685 7.31931 12.5325 7.31931C12.6965 7.31931 12.8538 7.38428 12.97 7.5L13.5 8.025C13.6157 8.1412 13.6807 8.29851 13.6807 8.4625C13.6807 8.62649 13.6157 8.7838 13.5 8.9C13.4067 8.99222 13.3456 9.11208 13.3257 9.24178C13.3059 9.37148 13.3285 9.50412 13.39 9.62C13.5542 9.92213 13.6866 10.2405 13.785 10.57C13.8244 10.694 13.9025 10.8021 14.0077 10.8785C14.113 10.955 14.2399 10.9958 14.37 10.995C14.4527 10.9937 14.5348 11.0089 14.6115 11.0398C14.6882 11.0706 14.758 11.1165 14.8167 11.1748C14.8754 11.233 14.9218 11.3024 14.9533 11.3789C14.9848 11.4553 15.0007 11.5373 15 11.62V12.38ZM19.19 13.185C18.9542 13.186 18.7235 13.1169 18.527 12.9865C18.3305 12.8562 18.1772 12.6704 18.0866 12.4527C17.9959 12.2351 17.9719 11.9954 18.0176 11.7641C18.0634 11.5328 18.1768 11.3203 18.3436 11.1536C18.5103 10.9868 18.7228 10.8734 18.9541 10.8276C19.1854 10.7819 19.4251 10.8059 19.6427 10.8966C19.8604 10.9872 20.0462 11.1405 20.1765 11.337C20.3069 11.5335 20.376 11.7642 20.375 12C20.375 12.3147 20.2503 12.6167 20.0282 12.8397C19.8061 13.0627 19.5047 13.1887 19.19 13.19V13.185Z" fill="#8FD39D"/>
    <path d="M6.575 28C6.95293 28 7.31539 27.8499 7.58263 27.5826C7.84987 27.3154 8 26.9529 8 26.575C8 26.4225 7.93942 26.2762 7.83159 26.1684C7.72375 26.0606 7.5775 26 7.425 26H2.575C2.49949 26 2.42472 26.0149 2.35496 26.0438C2.28519 26.0727 2.22181 26.115 2.16841 26.1684C2.11502 26.2218 2.07267 26.2852 2.04377 26.355C2.01487 26.4247 2 26.4995 2 26.575C2 26.9529 2.15013 27.3154 2.41737 27.5826C2.68461 27.8499 3.04707 28 3.425 28H6.575Z" fill="#8FD39D"/>
    <path d="M22 26.575C22 26.4225 21.9394 26.2762 21.8316 26.1684C21.7238 26.0606 21.5775 26 21.425 26H16.575C16.4225 26 16.2762 26.0606 16.1684 26.1684C16.0606 26.2762 16 26.4225 16 26.575C16 26.9529 16.1501 27.3154 16.4174 27.5826C16.6846 27.8499 17.0471 28 17.425 28H20.58C20.9571 27.9987 21.3182 27.848 21.5844 27.5809C21.8506 27.3138 22 26.9521 22 26.575Z" fill="#8FD39D"/>
</svg>
