<svg width="157" height="157" viewBox="0 0 157 157" fill="none" xmlns="http://www.w3.org/2000/svg">
<mask id="mask0" mask-type="alpha" maskUnits="userSpaceOnUse" x="0" y="0" width="157" height="157">
<rect width="157" height="157" rx="78.5" fill="#C4C4C4"/>
</mask>
<g mask="url(#mask0)">
<rect width="157" height="157" rx="78.5" fill="#F3F7FD"/>
<path d="M173.474 76.5L127.974 31.5L30.5 31L31.5 127L104 196.5L173.474 76.5Z" fill="#EAF2FF"/>
</g>
<path d="M87 105C87 102.046 84.6643 99.6429 81.7941 99.6429H76.5882V80H60.9706V81.7857C60.9706 86.7089 57.0783 90.7143 52.2941 90.7143C47.5099 90.7143 43.6176 86.7089 43.6176 81.7857V80H38.4118H36.6765C31.8923 80 28 84.0054 28 88.9286V121.071C28 125.995 31.8923 130 36.6765 130H67.9118C72.696 130 76.5882 125.995 76.5882 121.071V119.286V110.357H81.7941C84.6643 110.357 87 107.954 87 105ZM34.9412 126.429H31.4706V122.857H34.9412V126.429ZM41.8824 126.429H38.4118V122.857H41.8824V126.429ZM48.8235 126.429H45.3529V122.857H48.8235V126.429ZM55.7647 126.429H52.2941V122.857H55.7647V126.429ZM52 115C46.2579 115 41.8824 110.909 41.8824 105C41.8824 99.0911 46.552 95 52.2941 95C58.0362 95 62 99.0911 62 105C62 110.909 57.7421 115 52 115Z" fill="#B4BAF9"/>
<path d="M52 112C55.866 112 59 108.866 59 105C59 101.134 55.866 98 52 98C48.134 98 45 101.134 45 105C45 108.866 48.134 112 52 112Z" fill="#6D6DF6"/>
<path d="M36.75 76.5882H38.5H47.25V81.7941C47.25 84.6643 49.6055 87 52.5 87C55.3945 87 57.75 84.6643 57.75 81.7941V76.5882H77V60.9706H75.25C70.4253 60.9706 66.5 57.0783 66.5 52.2941C66.5 47.5099 70.4253 43.6176 75.25 43.6176H77V38.4118V36.6765C77 31.8923 73.0747 28 68.25 28H36.75C31.9253 28 28 31.8923 28 36.6765V67.9118C28 72.696 31.9253 76.5882 36.75 76.5882ZM62 62H42V41.8824L62 42V62ZM31.5 36.6765C31.5 33.8063 33.8555 31.4706 36.75 31.4706H45.5V34.9412H36.75C35.7857 34.9412 35 35.7203 35 36.6765V55.7647H31.5V36.6765ZM31.5 59.2353H35V62.7059H31.5V59.2353Z" fill="#C1C6FE"/>
<path d="M59 45H45V59H59V45Z" fill="#8FD39D"/>
<path d="M121.176 28H89.4118C84.5465 28 80.5882 31.9253 80.5882 36.75V38.5V47.25H75.2941C72.3753 47.25 70 49.6055 70 52.5C70 55.3945 72.3753 57.75 75.2941 57.75H80.5882V77H96.4706V75.25C96.4706 70.4253 100.429 66.5 105.294 66.5C110.159 66.5 114.118 70.4253 114.118 75.25V77H117.647H121.176C126.042 77 130 73.0747 130 68.25V36.75C130 31.9253 126.042 28 121.176 28ZM107.059 31.5H110.588V35H107.059V31.5ZM105 65L96.4706 52L105 40L113.5 52L105 65ZM117.647 35H114.118V31.5H117.647V35ZM124.706 35H121.176V31.5H124.706V35Z" fill="#B4BAF9"/>
<path d="M100 52L105 60L110 52L105 45L100 52Z" fill="#6D6DF6"/>
<path fill-rule="evenodd" clip-rule="evenodd" d="M117.75 80.5882H121.25C126.075 80.5882 130 84.5465 130 89.4118V121.176C130 126.042 126.075 130 121.25 130H89.75C84.9253 130 81 126.042 81 121.176V119.412V114.118H82.75C87.5747 114.118 91.5 110.159 91.5 105.294C91.5 100.429 87.5747 96.4706 82.75 96.4706H81V80.5882H100.25V75.2941C100.25 72.3753 102.605 70 105.5 70C108.395 70 110.75 72.3753 110.75 75.2941V80.5882H117.75ZM98.5 122.941V126.471H102V122.941H98.5ZM121.25 126.471C124.145 126.471 126.5 124.095 126.5 121.176V112.353H123V121.176C123 122.149 122.214 122.941 121.25 122.941H105.5V126.471H121.25ZM119.5 113L106 91L93 113H119.5Z" fill="#C1C6FE"/>
<path d="M106 97L114.083 110H98.4944L106 97Z" fill="#8FD39D"/>
</svg>
