<svg width="712" height="439" viewBox="0 0 712 439" fill="none" xmlns="http://www.w3.org/2000/svg">
<mask id="mask0" mask-type="alpha" maskUnits="userSpaceOnUse" x="0" y="0" width="712" height="439">
<rect width="712" height="439" fill="#C4C4C4"/>
</mask>
<g mask="url(#mask0)">
<mask id="mask1" mask-type="alpha" maskUnits="userSpaceOnUse" x="32" y="16" width="651" height="398">
<path fill-rule="evenodd" clip-rule="evenodd" d="M563.347 411.058C628.878 411.058 682.001 322.741 682.001 213.796C682.001 104.852 628.878 16.535 563.347 16.535C516.668 16.535 476.285 61.3474 456.913 126.507C449.951 125.673 442.837 125.242 435.604 125.242C406.406 125.242 379.142 132.269 356.033 144.439C325.041 95.1531 270.272 62.4113 207.877 62.4113C111.211 62.4113 32.8486 140.997 32.8486 237.938C32.8486 334.879 111.211 413.465 207.877 413.465C260.726 413.465 308.105 389.975 340.198 352.837C366.212 370.832 399.423 381.622 435.604 381.622C455.773 381.622 475.018 378.269 492.609 372.184C512.361 396.607 536.839 411.058 563.347 411.058Z" fill="#EBEBFF"/>
</mask>
<g mask="url(#mask1)">
<path fill-rule="evenodd" clip-rule="evenodd" d="M563.347 411.058C628.878 411.058 682.001 322.741 682.001 213.796C682.001 104.852 628.878 16.535 563.347 16.535C516.668 16.535 476.285 61.3474 456.913 126.507C449.951 125.673 442.837 125.242 435.604 125.242C406.406 125.242 379.142 132.269 356.033 144.439C325.041 95.1531 270.272 62.4113 207.877 62.4113C111.211 62.4113 32.8486 140.997 32.8486 237.938C32.8486 334.879 111.211 413.465 207.877 413.465C260.726 413.465 308.105 389.975 340.198 352.837C366.212 370.832 399.423 381.622 435.604 381.622C455.773 381.622 475.018 378.269 492.609 372.184C512.361 396.607 536.839 411.058 563.347 411.058Z" fill="#EBEBFF"/>
<rect x="82.7139" y="257.883" width="27.5639" height="137.819" fill="white"/>
<rect opacity="0.35" x="140.558" y="229.96" width="27.9247" height="198.465" fill="#B6B6FB"/>
<rect opacity="0.5" x="198.402" y="196.051" width="27.9247" height="232.374" fill="#B6B6FB"/>
<rect x="256.246" y="222.978" width="27.9247" height="200.46" fill="white"/>
<rect opacity="0.7" x="314.25" y="209.646" width="27.5639" height="186.056" fill="#B6B6FB"/>
<rect x="371.935" y="125.242" width="27.9247" height="270.271" fill="white" fill-opacity="0.5"/>
<rect opacity="0.85" x="430.019" y="89.7431" width="27.5639" height="305.959" fill="#D8D8FE"/>
<rect x="487.902" y="184.839" width="27.5639" height="210.864" fill="#B6B6FB"/>
<rect x="545.467" y="98.3145" width="27.9247" height="297.199" fill="white"/>
<rect x="603.311" y="61.414" width="27.9247" height="334.099" fill="#D0D0FD"/>
</g>
<path d="M12.9023 288.801L249.64 135.511L283.174 176.105L451.37 47.3775L506.572 106.293L626.249 20.5242" stroke="#6D6DF6" stroke-width="10"/>
<path d="M639.84 10.695L616.661 48.767L596.617 21.5825L639.84 10.695Z" fill="#6D6DF6"/>
<circle cx="547.069" cy="282.371" r="156.76" transform="rotate(-15.8298 547.069 282.371)" fill="#B6B6FB"/>
<circle cx="547.069" cy="282.371" r="141.4" transform="rotate(-15.8298 547.069 282.371)" fill="#6D6DF6"/>
<mask id="mask2" mask-type="alpha" maskUnits="userSpaceOnUse" x="413" y="149" width="268" height="267">
<circle cx="547.069" cy="282.371" r="133.269" transform="rotate(-15.8298 547.069 282.371)" fill="#ECECEC"/>
</mask>
<g mask="url(#mask2)">
<circle cx="547.069" cy="282.371" r="141.4" transform="rotate(-15.8298 547.069 282.371)" fill="#6D6DF6"/>
<rect opacity="0.5" x="560.151" y="105.392" width="53.8898" height="347.854" transform="rotate(22.517 560.151 105.392)" fill="#B6B6FB"/>
<rect opacity="0.5" x="623.513" y="133.444" width="16.8334" height="347.854" transform="rotate(22.517 623.513 133.444)" fill="#B6B6FB"/>
<path d="M462.178 339.034L508.77 303.404L505.797 292.918L447.468 287.155L451.161 300.18L490.914 302.862L458.485 326.009L462.178 339.034Z" fill="white"/>
<path d="M576.209 296.566L558.938 301.463L539.878 234.241L529.029 237.317L510.796 247.257L513.3 256.087L530.128 251.316L545.432 305.293L528.161 310.189L531.322 321.338L579.37 307.715L576.209 296.566Z" fill="white"/>
<path d="M614.942 235.735L598.394 270.599L583.246 217.174L570.072 220.91L593.544 303.696L606.719 299.96L602.838 286.273L609.845 272.599L633.732 292.301L649.452 287.844L616.15 261.51L631.549 231.027L614.942 235.735Z" fill="white"/>
</g>
<circle cx="547.07" cy="282.371" r="130.769" transform="rotate(-15.8298 547.07 282.371)" stroke="#B6B6FB" stroke-width="5"/>
<path d="M394.827 265.301C394.466 270.36 393.02 272.529 389.858 270.722L387.147 262.59C388.051 254.007 394.376 241.357 396.183 234.129C397.267 238.466 396.634 243.466 396.183 244.52C396.634 243.767 397.899 242.08 399.345 241.357C399.345 245.423 397.086 249.489 393.924 254.458C394.677 256.265 395.189 260.241 394.827 265.301Z" fill="#FFE1DA"/>
<ellipse cx="387.738" cy="266.846" rx="4.09382" ry="5.38471" transform="rotate(-10.6757 387.738 266.846)" fill="#281616"/>
<path fill-rule="evenodd" clip-rule="evenodd" d="M318.286 222.977C318.286 222.977 319.414 220.745 320.896 223.253C321.084 223.576 321.328 223.436 321.639 223.005C321.69 222.945 321.74 222.886 321.798 222.82C336.006 202.184 341.363 251.1 357.119 240.087C354.761 242.958 351.522 244.998 347.873 245.911C337.287 248.779 327.023 244.806 322.838 239.772C318.653 234.739 315.092 229.832 318.286 222.977Z" fill="#281616"/>
<path d="M284.146 241.809C288.85 240.564 299.935 238.327 309.273 238.533C310.167 238.289 311.024 238.388 311.704 238.647C321.462 239.37 314.264 253.103 309.445 259.88L304.024 255.814L284.146 241.809Z" fill="#FFE1DA"/>
<path d="M309.446 259.88C314.264 253.103 321.462 239.37 311.704 238.647C308.934 237.593 303.229 239.189 304.024 255.814L309.446 259.88Z" fill="#FFC6C1"/>
<mask id="mask3" mask-type="alpha" maskUnits="userSpaceOnUse" x="305" y="226" width="40" height="39">
<path d="M308.09 257.169C302.669 247.772 307.939 239.099 311.252 235.936L312.608 226.449H323.902C330.226 229.612 342.876 227.172 342.876 233.678C351.459 238.195 328.871 258.073 321.191 261.687C319.384 264.698 313.511 266.566 308.09 257.169Z" fill="#FFE1DA"/>
</mask>
<g mask="url(#mask3)">
<path d="M308.09 257.169C302.669 247.772 307.939 239.099 311.252 235.936L312.608 226.449H323.902C330.226 229.612 342.876 237.563 342.876 244.068C335.286 252.38 324.655 258.073 320.288 259.88C318.481 262.891 313.511 266.566 308.09 257.169Z" fill="#FFE1DA"/>
<path fill-rule="evenodd" clip-rule="evenodd" d="M344.918 252.092C343.763 252.476 336.115 260.751 327.208 263.626C321.159 266.199 316.011 266.979 313.085 261.39C313.085 261.39 313.501 260.963 313.681 260.994C316.89 261.333 317.37 258.635 318.246 257.344C318.877 256.305 319.854 255.666 320.994 255.544C322.087 255.353 321.434 254.68 322.034 254.105C322.633 253.531 323.157 253.815 323.534 253.431C323.91 253.047 324.646 251.998 325.353 251.924C326.059 251.85 327.169 254.94 328.526 254.521C329.494 254.223 340.166 239.543 340.745 238.825L344.918 234.129L347.429 241.031C348.408 242.363 344.918 252.092 344.918 252.092Z" fill="#FFC6C1"/>
</g>
<path d="M39.2939 413.477L205.993 318.156L212.317 353.393L49.2326 422.964L39.2939 413.477Z" fill="#281616"/>
<path d="M207.348 356.104C193.253 344.539 201.475 323.577 207.348 314.542L229.484 331.709C249.662 334.42 294.266 336.317 305.831 342.099C317.396 347.882 276.015 410.315 260.203 440.131H246.199L276.015 360.622C258.999 363.934 221.443 367.669 207.348 356.104Z" fill="#6D6DF6"/>
<path d="M257.041 254.007C232.827 270.631 211.866 304.453 203.282 319.963C228.581 339.389 246.802 339.088 249.362 336.678C256.891 324.029 276.377 294.123 294.086 275.691C330.226 285.811 371.788 276.595 388.051 270.722C391.213 268.915 390.31 263.494 386.696 262.59C321.191 263.945 316.632 256.387 302.669 249.037C285.502 240.002 287.309 233.226 257.041 254.007Z" fill="#A3CF80"/>
<path d="M249.362 336.678C256.891 324.029 276.377 294.123 294.086 275.691L288.213 273.432C281.076 282.618 260.45 308.127 235.042 336.678C243.676 338.702 248.017 337.943 249.362 336.678Z" fill="#8AB767"/>
<path d="M296.345 275.691C291.677 275.089 281.075 272.167 276.016 265.301" stroke="#8AB767"/>
<path fill-rule="evenodd" clip-rule="evenodd" d="M315.871 230.819C314.171 232.192 312.474 233.301 311.245 233.506C307.661 234.098 310.223 226.531 311.188 223.649C312.154 220.767 313.426 216.382 315.489 217.319C316.325 217.804 317.081 218.414 317.729 219.126C319.587 216.432 323.585 203.899 335.141 212.508C344.284 219.323 347.461 228.822 354.148 227.35C360.835 225.877 357.594 235.62 346.541 239.032C335.489 242.444 324.439 239.388 319.763 234.928C318.375 233.645 317.074 232.272 315.871 230.819Z" fill="white"/>
<path fill-rule="evenodd" clip-rule="evenodd" d="M314.875 220.33C314.875 220.33 315.972 218.135 317.657 220.406C319.179 222.447 322.304 203.337 335.904 213.432C345.047 220.24 348.22 229.743 354.914 228.27C361.608 226.797 358.353 236.54 347.301 239.953C336.248 243.365 325.199 240.309 320.525 235.845C315.852 231.381 311.837 227.004 314.875 220.33Z" fill="#412F2F"/>
<path fill-rule="evenodd" clip-rule="evenodd" d="M314.876 220.331C314.876 220.331 315.973 218.136 317.657 220.407C317.874 220.696 318.121 220.553 318.432 220.121C318.48 220.066 318.531 220.006 318.565 219.921C332.574 199.518 340.668 245.28 356.765 233.83C354.992 236.158 351.788 238.598 347.27 239.99C336.221 243.406 325.168 240.347 320.494 235.883C315.821 231.419 311.838 227.004 314.876 220.331Z" fill="#281616"/>
<path fill-rule="evenodd" clip-rule="evenodd" d="M323.175 225.526C323.175 225.526 315.584 233.862 312.004 234.451C308.423 235.04 310.977 227.473 311.947 224.594C312.916 221.715 314.185 217.327 316.244 218.26C318.303 219.194 323.175 225.526 323.175 225.526Z" fill="#281616"/>
<path fill-rule="evenodd" clip-rule="evenodd" d="M314.109 232.28C314.109 232.28 313.974 227.23 311.514 227.246C309.054 227.261 306.971 237.426 309.221 239.194C311.471 240.963 314.064 238.809 314.109 232.28Z" fill="#FFE1DA"/>
<path fill-rule="evenodd" clip-rule="evenodd" d="M318.556 222.383C318.553 222.432 316.861 239.145 339.774 237.034L339.825 237.547C316.271 239.719 318.022 222.387 318.024 222.339L318.556 222.383Z" fill="#412F2F"/>
<path fill-rule="evenodd" clip-rule="evenodd" d="M314.088 216.09C314.088 216.09 318.546 215.974 318.363 220.5L317.826 220.477C317.975 216.487 314.105 216.606 314.098 216.606L314.088 216.09Z" fill="#281616"/>
<path fill-rule="evenodd" clip-rule="evenodd" d="M317.103 215.296C317.103 215.296 320.759 217.786 317.816 221.289L317.412 220.951C320.001 217.87 316.814 215.702 316.806 215.696L317.103 215.296Z" fill="#281616"/>
<path fill-rule="evenodd" clip-rule="evenodd" d="M311.511 229.761C312.109 232.278 312.131 234.173 311.908 235.435C311.398 238.364 309.606 237.92 310.703 234.035L311.11 234.143C310.188 237.184 311.204 237.441 311.538 235.273C311.739 233.465 311.596 231.629 311.117 229.86L311.511 229.761Z" fill="#FF8685"/>
<path fill-rule="evenodd" clip-rule="evenodd" d="M253.03 422.964C254.74 423.281 288.95 434.803 290.02 440.131H245.747C245.747 440.131 247.274 428.467 253.03 422.964Z" fill="#281616"/>
<path fill-rule="evenodd" clip-rule="evenodd" d="M40.7038 422.964C42.4143 423.281 65.0443 431.548 83.5664 440.131H60.9785C60.9785 440.131 34.9479 428.467 40.7038 422.964Z" fill="#281616"/>
<path fill-rule="evenodd" clip-rule="evenodd" d="M40.2575 412.578C41.7847 413.411 61.8822 429.74 73.6279 439.679L28.0004 426.632C28.0004 426.632 33.0764 416.02 40.2575 412.578Z" fill="#281616"/>
</g>
</svg>
