<svg width="35" height="14" viewBox="0 0 35 14" fill="none" xmlns="http://www.w3.org/2000/svg">
<rect width="34" height="14" fill="#6D6DF6"/>
<path d="M3.73828 2.61133H8.5918V3.55371L8.1377 4.73047H5.38867C5.32357 4.74023 5.29102 4.77279 5.29102 4.82812V5.0625C5.29427 5.10807 6.25293 5.7054 8.16699 6.85449C8.4502 7.15723 8.5918 7.45508 8.5918 7.74805V10.0576C8.48112 10.6859 8.08887 11 7.41504 11H2.37109V8.88086H5.67188V8.40723C5.67188 8.36816 4.74414 7.78711 2.88867 6.66406C2.54362 6.44922 2.37109 5.94629 2.37109 5.15527V3.92969C2.37109 3.05078 2.82682 2.61133 3.73828 2.61133ZM10.8203 2.64551H14.8633C15.5404 2.66178 15.8773 2.96777 15.874 3.56348V10.082C15.874 10.694 15.4753 11 14.6777 11H10.8203C10.0228 10.9967 9.62565 10.6598 9.62891 9.98926V3.65625C9.62891 2.98242 10.026 2.64551 10.8203 2.64551ZM12.2949 4.84766L12.29 8.89062H13.3008V4.84766H12.2949ZM18.0684 2.64551H22.1113C22.7884 2.66178 23.1253 2.96777 23.1221 3.56348V10.082C23.1221 10.694 22.7233 11 21.9258 11H18.0684C17.2708 10.9967 16.8737 10.6598 16.877 9.98926V3.65625C16.877 2.98242 17.2741 2.64551 18.0684 2.64551ZM19.543 4.84766L19.5381 8.89062H20.5488V4.84766H19.543ZM24.125 2.62109H27.2939L28.8223 6.52734H29.0518L28.6562 3.24609V2.62109H31.4834V11H28.3145L26.7861 7.15234H26.5615L26.957 10.5459V11H24.125V2.62109Z" fill="white"/>
</svg>
