<svg width="36" height="16" viewBox="0 0 36 16" fill="none" xmlns="http://www.w3.org/2000/svg">
<rect width="36" height="16" rx="4" fill="#B6B6FB"/>
<path d="M6.98438 11.144C6.16037 11.144 5.54438 10.952 5.13638 10.568C4.73638 10.176 4.51638 9.684 4.47638 9.092H5.34038C5.37238 9.5 5.52438 9.82 5.79638 10.052C6.07638 10.284 6.47238 10.4 6.98438 10.4C7.48838 10.4 7.88038 10.308 8.16038 10.124C8.44838 9.932 8.59238 9.68 8.59238 9.368C8.59238 9.048 8.46038 8.812 8.19638 8.66C7.94038 8.5 7.62838 8.392 7.26038 8.336C6.89238 8.28 6.52038 8.212 6.14438 8.132C5.77638 8.052 5.46038 7.884 5.19638 7.628C4.94038 7.372 4.81238 7.012 4.81238 6.548C4.81238 6.052 5.01638 5.628 5.42438 5.276C5.83238 4.924 6.38438 4.748 7.08038 4.748C7.84838 4.748 8.41638 4.944 8.78438 5.336C9.15238 5.728 9.36038 6.176 9.40838 6.68H8.55638C8.51638 6.328 8.37238 6.044 8.12438 5.828C7.87638 5.604 7.52038 5.492 7.05638 5.492C6.60038 5.492 6.24838 5.588 6.00038 5.78C5.76038 5.972 5.64038 6.216 5.64038 6.512C5.64038 6.776 5.73238 6.984 5.91638 7.136C6.10838 7.288 6.34438 7.388 6.62438 7.436C6.90438 7.476 7.20438 7.532 7.52438 7.604C7.85238 7.676 8.15638 7.756 8.43638 7.844C8.71638 7.932 8.94838 8.104 9.13238 8.36C9.32438 8.616 9.42038 8.944 9.42038 9.344C9.42038 9.84 9.20838 10.264 8.78438 10.616C8.36838 10.968 7.76838 11.144 6.98438 11.144ZM13.7273 11.144C12.7993 11.144 12.0473 10.832 11.4713 10.208C10.9033 9.576 10.6193 8.824 10.6193 7.952C10.6193 7.072 10.9033 6.32 11.4713 5.696C12.0473 5.064 12.7993 4.748 13.7273 4.748C14.6633 4.748 15.4153 5.064 15.9833 5.696C16.5593 6.32 16.8473 7.072 16.8473 7.952C16.8473 8.824 16.5593 9.576 15.9833 10.208C15.4153 10.832 14.6633 11.144 13.7273 11.144ZM11.4833 7.952C11.4833 8.648 11.6913 9.228 12.1073 9.692C12.5233 10.148 13.0633 10.376 13.7273 10.376C14.3993 10.376 14.9433 10.148 15.3593 9.692C15.7753 9.228 15.9833 8.648 15.9833 7.952C15.9833 7.248 15.7753 6.668 15.3593 6.212C14.9433 5.748 14.3993 5.516 13.7273 5.516C13.0553 5.516 12.5113 5.748 12.0953 6.212C11.6873 6.668 11.4833 7.248 11.4833 7.952ZM21.1335 11.144C20.2055 11.144 19.4535 10.832 18.8775 10.208C18.3095 9.576 18.0255 8.824 18.0255 7.952C18.0255 7.072 18.3095 6.32 18.8775 5.696C19.4535 5.064 20.2055 4.748 21.1335 4.748C22.0695 4.748 22.8215 5.064 23.3895 5.696C23.9655 6.32 24.2535 7.072 24.2535 7.952C24.2535 8.824 23.9655 9.576 23.3895 10.208C22.8215 10.832 22.0695 11.144 21.1335 11.144ZM18.8895 7.952C18.8895 8.648 19.0975 9.228 19.5135 9.692C19.9295 10.148 20.4695 10.376 21.1335 10.376C21.8055 10.376 22.3495 10.148 22.7655 9.692C23.1815 9.228 23.3895 8.648 23.3895 7.952C23.3895 7.248 23.1815 6.668 22.7655 6.212C22.3495 5.748 21.8055 5.516 21.1335 5.516C20.4615 5.516 19.9175 5.748 19.5015 6.212C19.0935 6.668 18.8895 7.248 18.8895 7.952ZM26.7038 4.892V5.828C26.8478 5.556 27.0878 5.308 27.4238 5.084C27.7598 4.86 28.1918 4.748 28.7198 4.748C29.4558 4.748 30.0238 4.964 30.4238 5.396C30.8318 5.828 31.0358 6.396 31.0358 7.1V11H30.1838V7.268C30.1838 6.7 30.0478 6.264 29.7758 5.96C29.5118 5.648 29.1118 5.492 28.5758 5.492C28.0398 5.492 27.5998 5.656 27.2558 5.984C26.9118 6.312 26.7398 6.772 26.7398 7.364V11H25.8878V4.892H26.7038Z" fill="#343C5A"/>
</svg>
