<svg width="33" height="16" viewBox="0 0 33 16" fill="none" xmlns="http://www.w3.org/2000/svg">
<rect width="33" height="16" rx="4" fill="#8FD39D"/>
<path d="M6.3893 4.892V5.828C6.5333 5.556 6.7733 5.308 7.1093 5.084C7.4453 4.86 7.8773 4.748 8.4053 4.748C9.1413 4.748 9.7093 4.964 10.1093 5.396C10.5173 5.828 10.7213 6.396 10.7213 7.1V11H9.8693V7.268C9.8693 6.7 9.7333 6.264 9.4613 5.96C9.1973 5.648 8.7973 5.492 8.2613 5.492C7.7253 5.492 7.2853 5.656 6.9413 5.984C6.5973 6.312 6.4253 6.772 6.4253 7.364V11H5.5733V4.892H6.3893ZM18.2172 8.192H13.1412C13.1812 8.832 13.3972 9.356 13.7892 9.764C14.1812 10.172 14.6892 10.376 15.3132 10.376C15.7692 10.376 16.1692 10.26 16.5132 10.028C16.8572 9.788 17.0972 9.476 17.2332 9.092H18.1212C17.9372 9.7 17.5972 10.196 17.1012 10.58C16.6052 10.956 16.0052 11.144 15.3012 11.144C14.3732 11.144 13.6372 10.836 13.0932 10.22C12.5572 9.596 12.2892 8.836 12.2892 7.94C12.2892 7.06 12.5652 6.308 13.1172 5.684C13.6772 5.06 14.4012 4.748 15.2892 4.748C16.1772 4.748 16.8892 5.048 17.4252 5.648C17.9612 6.24 18.2292 6.98 18.2292 7.868L18.2172 8.192ZM15.2892 5.516C14.7132 5.516 14.2332 5.704 13.8492 6.08C13.4652 6.448 13.2372 6.92 13.1652 7.496H17.3772C17.3212 6.896 17.1052 6.416 16.7292 6.056C16.3612 5.696 15.8812 5.516 15.2892 5.516ZM25.1569 11L23.5129 5.972H23.5009L21.8329 11H20.9449L18.8329 4.892H19.7449L21.3889 9.992L23.0689 4.892H23.9569L25.6129 9.992L27.2809 4.892H28.1809L26.0449 11H25.1569Z" fill="#343C5A"/>
</svg>
