<svg width="631" height="500" viewBox="0 0 631 500" fill="none" xmlns="http://www.w3.org/2000/svg">
<mask id="mask0" mask-type="alpha" maskUnits="userSpaceOnUse" x="0" y="0" width="631" height="451">
<path fill-rule="evenodd" clip-rule="evenodd" d="M516.085 413.943C579.408 413.943 630.742 321.279 630.742 206.972C630.742 92.6644 579.408 0 516.085 0C468.919 0 428.404 51.4121 410.8 124.886C404.847 124.229 398.798 123.892 392.67 123.892C375.557 123.892 359.058 126.52 343.555 131.395C309.995 81.1479 252.765 48.0545 187.806 48.0545C84.4407 48.0545 0.646484 131.849 0.646484 235.214C0.646484 338.58 84.4407 422.374 187.806 422.374C219.246 422.374 248.876 414.621 274.887 400.924C304.637 431.795 346.411 451 392.67 451C433.292 451 470.455 436.19 499.055 411.676C504.612 413.169 510.299 413.943 516.085 413.943Z" fill="#E2E2FD"/>
</mask>
<g mask="url(#mask0)">
<path fill-rule="evenodd" clip-rule="evenodd" d="M516.085 413.943C579.408 413.943 630.742 321.279 630.742 206.972C630.742 92.6644 579.408 0 516.085 0C468.919 0 428.404 51.4121 410.8 124.886C404.847 124.229 398.798 123.892 392.67 123.892C375.557 123.892 359.058 126.52 343.555 131.395C309.995 81.1479 252.765 48.0545 187.806 48.0545C84.4407 48.0545 0.646484 131.849 0.646484 235.214C0.646484 338.58 84.4407 422.374 187.806 422.374C219.246 422.374 248.876 414.621 274.887 400.924C304.637 431.795 346.411 451 392.67 451C433.292 451 470.455 436.19 499.055 411.676C504.612 413.169 510.299 413.943 516.085 413.943Z" fill="#E2E2FD"/>
<path d="M612.47 371.832C546.621 314.808 186.768 332.232 15.0729 348.072L-18.8701 416.807C39.1159 439.152 156.106 484.693 160.179 488.087C165.271 492.33 454.635 505.059 457.181 509.301C459.727 513.544 694.782 443.112 612.47 371.832Z" fill="#8181FF"/>
<path d="M12.5273 414.075L53.1562 268.289L93.7851 414.075H12.5273Z" fill="#CBCBFF"/>
<path d="M144.058 438.021L174.606 327.706L205.155 438.021H144.058Z" fill="white"/>
<path d="M418.996 372.681L449.545 262.366L480.094 372.681H418.996Z" fill="#A7A7FF"/>
<path d="M562.403 380.318L592.952 270.003L623.501 380.318H562.403Z" fill="#A7A7FF"/>
<path d="M53.1553 423.635L93.7842 277.849L134.413 423.635H53.1553Z" fill="#F8F8FF"/>
<path d="M93.7852 435.585L134.414 289.799L175.043 435.585H93.7852Z" fill="#A7A7FF"/>
<path d="M175.042 435.585L215.671 289.799L256.3 435.585H175.042Z" fill="#A7A7FF"/>
<path d="M215.672 423.635L256.301 277.849L296.93 423.635H215.672Z" fill="#F8F8FF"/>
<path d="M284.98 404.516L325.609 258.73L366.238 404.516H284.98Z" fill="#C7C7FF"/>
<path d="M347.118 423.635L387.747 277.849L428.376 423.635H347.118Z" fill="#CBCBFF"/>
<path d="M387.747 435.585L428.376 289.799L469.005 435.585H387.747Z" fill="#F8F8FF"/>
<path d="M447.495 387.786L488.124 242L528.753 387.786H447.495Z" fill="#F8F8FF"/>
<path d="M504.701 423.595L550.524 258.972L596.347 423.595H504.701Z" fill="#CBCBFF"/>
<path d="M571.771 414.075L598.061 316.088L624.35 414.075H571.771Z" fill="#A7A7FF"/>
<path d="M467.364 419.352L495.367 315.826L523.37 419.352H467.364Z" fill="#A7A7FF"/>
<path d="M265.861 440.365L292.151 342.377L318.44 440.365H265.861Z" fill="#C7C7FF"/>
<path d="M65.1387 438.422L91.428 340.435L117.717 438.422H65.1387Z" fill="#CBCBFF"/>
<path d="M127.278 455.152L146.398 388.233L165.517 455.152H127.278Z" fill="#CBCBFF"/>
<path d="M531.144 435.585L550.263 368.667L569.383 435.585H531.144Z" fill="#CBCBFF"/>
<path d="M362.988 452.447L390.567 356.558L418.146 452.447H362.988Z" fill="#CBCBFF"/>
</g>
<path d="M62 189C80.8599 161.704 73.1671 90.3611 66.9631 58.1019C246.257 82.2963 475.182 61.2037 567 55C541.564 94.7037 548.388 141.852 567 189C474.561 172.87 241.294 165.426 62 189Z" fill="#6D6DF6"/>
<path d="M223.596 96.4847C223.812 98.0894 224.142 100.868 224.407 103.856M224.838 111.842C224.838 109.495 224.649 106.588 224.407 103.856M224.407 103.856C221.578 100.524 214.944 95.3877 206.2 94.2349M177 138.257C178.974 140.452 183.984 143.325 190.047 145.569M177 138.257V132.114M177 138.257V146.857M206.2 94.2349C202.586 93.7585 198.611 93.9626 194.396 95.2561C176.379 100.785 180.106 123.514 201.851 122.9C202.589 122.879 203.309 122.879 204.012 122.9M206.2 94.2349C202.679 94.5754 195.39 97.5905 194.396 106.928C193.402 116.265 200.392 121.466 204.012 122.9M204.012 122.9C223.997 123.482 229.408 140.329 218.004 146.857C210.887 150.931 199.253 148.976 190.047 145.569M204.012 122.9C208.676 124.021 217.259 128.54 214.277 137.643C211.294 146.745 196.881 146.72 190.047 145.569M238.506 108.156L231.672 100.171C237.923 100.313 246.507 100.445 255.281 100.475M289.451 106.928C290.072 105.494 291.563 101.891 292.557 98.942C289.936 99.8845 279.974 100.3 268.328 100.432M255.281 100.475C254.452 113.274 253.293 140.96 255.281 149.314H270.191C269.777 136.383 268.825 108.503 268.328 100.432M255.281 100.475C259.672 100.49 264.11 100.479 268.328 100.432M326.106 100.432L310.574 100.475C299.64 110.547 291.936 137.231 289.451 149.314H305.604C305.604 140.55 308.78 130.904 312.834 122.285M326.106 100.432C329.938 103.283 336.134 110.556 340.319 122.285M326.106 100.432C322.566 104.948 317.192 113.023 312.834 122.285M352.821 149.314H338.532H344.745C344.745 138.58 342.92 129.572 340.319 122.285M340.319 122.285H312.834M358.413 149.314H364.626M380.157 149.314H375.187M364.626 149.314H375.187M364.626 149.314C363.134 144.891 362.762 114.825 362.762 100.345M360.277 100.475C360.928 100.454 361.777 100.412 362.762 100.345M373.323 99.0361C374.401 98.8273 375.45 98.592 376.43 98.3277C383.264 96.4848 403.145 95.8705 403.145 114.299C403.145 130.208 386.578 133.68 376.43 133.463M373.323 99.0361C369.65 99.7475 365.629 100.151 362.762 100.345M373.323 99.0361C373.441 107.999 373.707 122.267 374.098 133.343M375.187 149.314C374.759 148.257 374.393 141.711 374.098 133.343M374.098 133.343C374.825 133.404 375.606 133.446 376.43 133.463M376.43 133.463C382.643 138.747 398.299 148.823 411.221 146.857M411.221 146.857V140.714M411.221 146.857V153M414.949 108.156L408.115 100.171C414.366 100.313 422.949 100.445 431.723 100.475M465.894 106.928C466.515 105.494 468.006 101.891 469 98.942C466.379 99.8845 456.417 100.3 444.77 100.432M431.723 100.475C430.895 113.274 429.735 140.96 431.723 149.314H446.634C446.22 136.383 445.267 108.503 444.77 100.432M431.723 100.475C436.114 100.49 440.553 100.479 444.77 100.432" stroke="white" stroke-width="2"/>
<path d="M68.0638 58.9562C58.9614 56.2676 38.7707 48.0365 30.8268 36.6204M61.237 189.248C52.7552 190.489 33.4334 195.577 24 206M566.419 188.628C574.073 190.903 591.988 195.949 602.414 197.934M564.557 55.2336C573.866 52.3382 595.588 44.438 608 36" stroke="#281616"/>
<path d="M526.644 74.6111C535.585 70.6407 555.618 60.5494 564.517 56C556.032 64.0648 537.82 82.5519 532.853 91.9815M541.545 106.87C539.475 115.969 536.578 135.904 541.545 142.852M546.512 164.565C550.444 171.596 560.046 186.278 567 188.759C561.04 188.759 543.407 177.593 535.336 172.009M292.58 80.1944C298.582 81.4352 315.925 83.1722 337.282 80.1944M80.2466 163.324C78.798 169.114 72.9205 182.556 61 190C66.7947 185.864 81.3642 177.344 93.2847 176.352M97.0098 94.463C98.0032 89.9963 77.1423 68.2006 66.5877 57.8611C73.0033 61.9969 86.9519 70.2685 91.4221 70.2685M113.773 173.25C122.465 171.596 141.091 168.411 146.058 168.907M472.629 63.4444C470.353 65.7191 465.427 71.8815 463.937 78.3333M485.667 63.4444C482.77 66.9599 476.727 75.2315 475.734 80.1944M500.568 60.963C498.292 65.0988 493.863 74.7352 494.36 80.1944M512.985 60.963C508.846 64.892 501.189 73.8667 503.672 78.3333" stroke="#281616"/>
<path fill-rule="evenodd" clip-rule="evenodd" d="M275.098 453.297L303.638 452L304.935 453.297V469.54H328.288V453.297L356.828 452L358.125 453.297V484.764C358.125 493.003 351.446 499.683 343.207 499.683C336.634 499.683 331.054 495.433 329.065 489.531H304.158C302.169 495.433 296.589 499.683 290.017 499.683C281.777 499.683 275.098 493.003 275.098 484.764V453.297Z" fill="#979797"/>
<path fill-rule="evenodd" clip-rule="evenodd" d="M273.8 452H303.638V468.243H326.989V452H356.827V483.467C356.827 491.706 350.148 498.386 341.908 498.386C335.336 498.386 329.756 494.136 327.767 488.234H302.86C300.871 494.136 295.291 498.386 288.719 498.386C280.479 498.386 273.8 491.706 273.8 483.467V452Z" fill="#C4C4C4"/>
<path d="M272.391 450.179L269.909 399.621L307.756 394.072L304.034 444.63L297.801 467.899L289.763 471.142L272.391 450.179Z" fill="#FFD3CA"/>
<path d="M331.333 411.953L325.749 373.109C335.18 345.487 359.047 350.502 369.801 356.462L362.976 411.953L347.465 468.676L336.297 462.511L331.333 411.953Z" fill="#FFD3CA"/>
<path d="M288.986 471.899L272.503 451.095C287.155 452.563 299.365 445.18 303.638 441.305C302.621 451.095 297.152 468.866 297.152 469.845C297.152 470.824 292.853 472.307 288.986 471.899Z" fill="#FFBCB5"/>
<path d="M267.858 403.027C267.367 399.648 266.426 368.63 266.017 353.543V331.818L361.794 333.629C372.846 351.129 389.791 382.992 369.162 363.199C348.533 343.405 332.324 366.216 326.799 380.095C326.389 379.09 324.343 374.302 319.431 363.199C319.431 372.854 313.291 397.596 308.994 403.027C300.398 389.147 268.472 407.251 267.858 403.027Z" fill="#6D6DF6"/>
<path d="M280.287 368.007C278.211 355.553 283.314 342.926 286.125 338.169C286.125 336.44 284.308 332.072 277.044 328.44C269.779 324.807 266.665 344.223 266.017 354.386C266.449 369.521 267.444 400.31 267.963 402.386C268.481 404.461 272.936 403.25 275.098 402.386C277.692 396.115 282.362 380.461 280.287 368.007Z" fill="#281616"/>
<path d="M358.773 356.332C358.254 353.218 355.098 340.764 353.584 334.926L358.125 331.683L363.963 358.926L358.773 356.332Z" fill="#281616"/>
<path d="M249.013 392.967C240.363 366.436 252.618 311.089 259.826 286.732C270.639 264.81 287.544 290.857 282.882 314.169C278.341 336.872 259.826 426.131 249.013 392.967Z" fill="#FFE1DA"/>
<path d="M251.279 369.003C246.673 374.938 238.382 403.015 242.067 467.846C246.673 548.884 286.285 320.502 251.279 369.003Z" fill="#FFE1DA"/>
<path d="M237.946 474.262C240.205 469.091 245.007 466.875 247.125 466.413C263.364 464.105 248.184 490.42 254.539 494.114C260.894 497.807 252.068 503.347 249.596 497.345C247.125 491.344 241.476 486.727 237.946 491.344L237.945 491.344C234.415 495.961 231.591 499.654 224.177 498.73C216.764 497.807 222.765 493.652 225.59 492.267C228.414 490.882 235.122 480.725 237.946 474.262Z" fill="#FFE1DA"/>
<path d="M387.599 392.967C396.249 366.436 383.995 311.089 376.786 286.732C365.973 264.81 349.068 290.857 353.73 314.169C358.271 336.872 376.786 426.131 387.599 392.967Z" fill="#FFE1DA"/>
<path d="M385.333 369.003C389.939 374.938 398.23 403.015 394.546 467.846C389.939 548.884 350.327 320.502 385.333 369.003Z" fill="#FFE1DA"/>
<path d="M398.666 474.262C396.407 469.091 391.606 466.875 389.487 466.413C373.248 464.105 388.428 490.42 382.073 494.114C375.719 497.807 384.545 503.347 387.016 497.345C389.487 491.344 395.136 486.727 398.666 491.344L398.667 491.344C402.197 495.961 405.021 499.654 412.435 498.73C419.849 497.807 413.847 493.652 411.023 492.267C408.198 490.882 401.491 480.725 398.666 474.262Z" fill="#FFE1DA"/>
<path d="M258.232 291.467C261.476 269.413 301.04 263.413 301.655 260.98C367.526 260.98 374.989 279.791 378.232 292.115C375.365 289.074 365.391 285.658 355.53 305.737C348.947 319.139 357.476 328.114 357.476 332.98C354.232 338.169 345.282 341.888 316.402 351.013C287.522 360.138 294.965 340.32 278.989 333.629C280.935 323.25 293.872 304.242 258.232 291.467Z" fill="#A3CF80"/>
<path fill-rule="evenodd" clip-rule="evenodd" d="M297.765 242.56C297.765 242.56 297.708 239.104 301.134 241.218C301.572 241.491 301.78 241.164 301.883 240.435C301.907 240.33 301.931 240.225 301.958 240.107C306.053 205.726 344.088 262.1 356.268 238.491C355.232 243.519 352.585 248.099 348.709 251.564C337.609 261.886 322.5 263.632 314.142 260.17C305.784 256.707 298.271 252.999 297.765 242.56Z" fill="#281616"/>
<path fill-rule="evenodd" clip-rule="evenodd" d="M299.857 253.705C298.661 256.478 297.3 258.927 295.928 259.968C291.927 263 290.189 252.096 289.515 247.95C288.841 243.804 287.575 237.622 290.701 237.44C292.035 237.496 293.352 237.755 294.602 238.21C295.141 233.718 291.963 215.818 311.638 218.909C327.205 221.358 337.205 230.931 344.435 224.826C351.665 218.722 353.972 232.723 342.651 244.009C331.331 255.296 315.85 258.67 307.261 256.225C304.737 255.549 302.263 254.707 299.857 253.705Z" fill="white"/>
<path fill-rule="evenodd" clip-rule="evenodd" d="M343.293 241.964C343.293 241.964 339.375 257.045 335.375 260.069C331.375 263.094 329.636 252.197 328.962 248.051C328.288 243.905 327.021 237.724 330.141 237.54C333.26 237.356 343.293 241.964 343.293 241.964Z" fill="#281616"/>
<path fill-rule="evenodd" clip-rule="evenodd" d="M337.804 236.989C337.015 239.829 345.232 296.305 326.075 297.429C306.918 298.554 293.885 274.521 297.004 256.528C300.122 238.534 337.804 236.989 337.804 236.989Z" fill="#FFD3CA"/>
<path fill-rule="evenodd" clip-rule="evenodd" d="M317.484 296.196C303.205 291.096 294.382 271.673 297.005 256.527C297.661 252.756 299.833 249.718 302.852 247.254C306.195 247.882 308.915 248.46 308.915 248.46C308.915 248.46 306.499 271.804 311.426 277.401C315.202 281.656 316.488 290.686 317.484 296.196Z" fill="#FFE1DA"/>
<path fill-rule="evenodd" clip-rule="evenodd" d="M337.238 230.504C336.925 231.629 338.024 241.135 338.276 252.291C327.919 258.736 316.048 260.021 308.885 257.649C304.01 256.023 299.416 254.306 296.244 251.324C296.304 250.878 296.366 250.45 296.431 250.042C299.556 232.05 337.238 230.504 337.238 230.504Z" fill="#FF8685"/>
<path opacity="0.3" fill-rule="evenodd" clip-rule="evenodd" d="M338.5 249.442C337.98 251.222 341.728 267.97 337.617 281.62C335.602 291.427 332.122 298.552 322.586 297.378C322.586 297.378 322.412 296.488 322.606 296.288C325.808 292.562 322.844 289.625 321.985 287.408C321.23 285.719 321.274 283.941 322.109 282.408C322.816 280.872 321.408 281.107 321.207 279.859C321.007 278.61 321.817 278.2 321.661 277.396C321.506 276.591 320.83 274.761 321.348 273.812C321.867 272.862 326.7 274.147 327.35 272.084C327.814 270.613 318.662 244.53 318.264 243.184L326.817 236.719C329.333 236.646 338.5 249.442 338.5 249.442Z" fill="#FF8685"/>
<path fill-rule="evenodd" clip-rule="evenodd" d="M291.889 241.518C291.889 241.518 291.817 238.128 295.339 239.821C298.515 241.337 290.037 215.955 313.167 219.547C328.729 221.989 338.727 231.568 345.966 225.458C353.204 219.348 355.494 233.359 344.174 244.646C332.853 255.932 317.373 259.307 308.785 256.856C300.196 254.404 292.469 251.635 291.889 241.518Z" fill="#412F2F"/>
<path fill-rule="evenodd" clip-rule="evenodd" d="M291.89 241.518C291.89 241.518 291.818 238.128 295.34 239.821C295.791 240.035 296.001 239.702 296.104 238.973C296.126 238.875 296.15 238.77 296.137 238.643C300.138 204.675 339.49 255.43 351.807 231.066C351.137 235.054 348.789 240.101 344.16 244.712C332.846 256 317.359 259.373 308.77 256.922C300.182 254.47 292.47 251.636 291.89 241.518Z" fill="#281616"/>
<path fill-rule="evenodd" clip-rule="evenodd" d="M305.383 242.53C305.383 242.53 301.464 257.611 297.465 260.635C293.465 263.66 291.719 252.762 291.051 248.617C290.384 244.472 289.111 238.29 292.23 238.106C295.35 237.922 305.383 242.53 305.383 242.53Z" fill="#281616"/>
<path fill-rule="evenodd" clip-rule="evenodd" d="M297.77 258.002C297.77 258.002 294.557 251.465 291.342 252.964C288.127 254.463 291.507 269.039 295.519 270.004C299.531 270.97 301.636 266.587 297.77 258.002Z" fill="#FFE1DA"/>
<path fill-rule="evenodd" clip-rule="evenodd" d="M297.71 241.66C297.739 241.721 306.427 263.25 333.089 245.921L333.482 246.515C306.074 264.331 297.06 242.009 297.032 241.948L297.71 241.66Z" fill="#412F2F"/>
<path fill-rule="evenodd" clip-rule="evenodd" d="M288.198 236.84C288.198 236.84 293.575 233.828 296.264 239.482L295.593 239.799C293.207 234.824 288.549 237.459 288.541 237.465L288.198 236.84Z" fill="#281616"/>
<path fill-rule="evenodd" clip-rule="evenodd" d="M291.372 233.928C291.372 233.928 297.446 234.62 296.101 240.798L295.389 240.645C296.572 235.211 291.28 234.611 291.266 234.608L291.372 233.928Z" fill="#281616"/>
<path fill-rule="evenodd" clip-rule="evenodd" d="M300.446 276.02C300.44 275.989 300.44 275.956 300.447 275.925C300.454 275.893 300.467 275.863 300.486 275.837C300.506 275.811 300.53 275.789 300.558 275.772C300.587 275.756 300.618 275.745 300.651 275.741C300.715 275.729 300.781 275.743 300.835 275.779C300.889 275.815 300.926 275.87 300.938 275.933C301.745 279.912 303.474 283.654 305.993 286.873C308.512 290.092 311.754 292.702 315.469 294.503C315.498 294.516 315.524 294.535 315.545 294.559C315.566 294.582 315.582 294.61 315.592 294.64C315.602 294.67 315.605 294.701 315.602 294.732C315.598 294.764 315.588 294.794 315.573 294.821C315.559 294.851 315.539 294.877 315.514 294.899C315.489 294.92 315.46 294.937 315.429 294.947C315.398 294.958 315.365 294.962 315.332 294.96C315.299 294.958 315.266 294.95 315.237 294.935C311.454 293.1 308.154 290.441 305.59 287.162C303.026 283.883 301.267 280.072 300.446 276.02Z" fill="white"/>
<path fill-rule="evenodd" clip-rule="evenodd" d="M292.29 255.785C295.037 258.744 296.524 261.302 297.193 263.188C298.752 267.559 295.977 268.333 294.479 262.212L295.115 262.046C296.201 266.887 297.778 266.454 296.565 263.253C295.447 260.642 293.842 258.258 291.831 256.223L292.29 255.785Z" fill="#FF8685"/>
<path d="M258.232 292.115C258.232 287.575 260.611 282.602 262.773 281.088C290.276 294.58 291.314 327.142 288.07 341.413C287.205 339.467 283.53 335.964 278.341 334.926C285.476 309.629 270.557 294.061 258.232 292.115Z" fill="#8AB767"/>
<path d="M373.692 281.737C375.035 283.294 377.949 289.305 378.881 292.115C354.831 284.332 356.24 324.238 358.124 332.98C358.124 334.926 355.95 334.926 354.831 336.223C340.289 308.332 364.184 283.034 373.692 281.737Z" fill="#8AB767"/>
<path d="M259.531 353.088C257.96 359.445 262.172 365.413 265.707 382.926" stroke="#FFBCB5"/>
<path d="M377.274 353.088C378.845 359.445 374.633 365.413 371.098 382.926" stroke="#FFBCB5"/>
<path d="M347.722 468.548L363.314 410.169C348.844 416.628 335.664 412.861 330.882 410.169L336.495 468.548H347.722Z" fill="#FFBCB5"/>
<path d="M289.369 498.386C281.045 488.382 280.32 469.45 281.585 460.962C284.394 465.509 289.821 469.172 292.892 468.464C296.735 468.464 299.107 461.726 299.747 460.115C300.388 472.619 298.45 489.305 289.369 498.386Z" fill="#281616"/>
<path d="M331.53 460.962C333.264 457.143 334.537 455.771 335.802 454.71C335.802 456.832 339.181 462.042 343.517 462.572C346.986 462.997 350.269 458.259 351.172 455.96C352.076 470.46 351.173 489.622 346.45 499.351C335.802 492.216 329.362 465.736 331.53 460.962Z" fill="#281616"/>
</svg>
