<svg width="256" height="214" viewBox="0 0 256 214" fill="none" xmlns="http://www.w3.org/2000/svg">
<mask id="mask0_21069:66248" style="mask-type:alpha" maskUnits="userSpaceOnUse" x="0" y="0" width="256" height="214">
<rect width="256" height="214" fill="#C4C4C4"/>
</mask>
<g mask="url(#mask0_21069:66248)">
<rect opacity="0.04" x="47.3057" y="209.104" width="175.789" height="172.367" rx="53" transform="rotate(-107.652 47.3057 209.104)" fill="#312C51"/>
<rect opacity="0.04" x="194" y="82.9004" width="34.2926" height="33.6252" rx="12" transform="rotate(-73.6168 194 82.9004)" fill="#312C51"/>
<path d="M68 78C68 75.7909 69.7909 74 72 74H184C186.209 74 188 75.7909 188 78V175C188 177.209 186.209 179 184 179H72C69.7909 179 68 177.209 68 175V78Z" fill="#CFD1DA"/>
<path d="M68 71C68 68.7909 69.7909 67 72 67H184C186.209 67 188 68.7909 188 71V168C188 170.209 186.209 172 184 172H72C69.7909 172 68 170.209 68 168V71Z" fill="white"/>
<path d="M68 151V168C68 170.209 69.7909 172 72 172H89L68 151Z" fill="#DDDFE5"/>
<path d="M89 172V155C89 152.791 87.2091 151 85 151H68L89 172Z" fill="#F7F7F7"/>
<path d="M68 61C68 58.7909 69.7909 57 72 57H184C186.209 57 188 58.7909 188 61V98H68V61Z" fill="#F7F7F7"/>
<path d="M68 58C68 55.7909 69.7909 54 72 54H184C186.209 54 188 55.7909 188 58V95H68V58Z" fill="#FF5256"/>
<path d="M68 52C68 49.7909 69.7909 48 72 48H184C186.209 48 188 49.7909 188 52V89H68V52Z" fill="#FF6C70"/>
<circle cx="96" cy="57" r="6" fill="white"/>
<circle cx="160" cy="57" r="6" fill="white"/>
<path d="M155 39C155 36.2386 157.239 34 160 34V62C157.239 62 155 59.7614 155 57V39Z" fill="#A9ADBB"/>
<path d="M165 39C165 36.2386 162.761 34 160 34V62C162.761 62 165 59.7614 165 57V39Z" fill="#828796"/>
<path d="M91 39C91 36.2386 93.2386 34 96 34V62C93.2386 62 91 59.7614 91 57V39Z" fill="#A9ADBB"/>
<path d="M101 39C101 36.2386 98.7614 34 96 34V62C98.7614 62 101 59.7614 101 57V39Z" fill="#828796"/>
<path d="M117.601 112V145H108.183V119.213H102V112H117.601Z" fill="#A9ADBB"/>
<path d="M154 138.683H149.053V145H139.874V138.683H122.275V132.601L137.21 112H146.961L133.405 131.281H140.159V125.671H149.053V131.281H154V138.683Z" fill="#A9ADBB"/>
</g>
</svg>
