<svg width="995" height="652" viewBox="0 0 995 652" fill="none" xmlns="http://www.w3.org/2000/svg">
<mask id="mask0" mask-type="alpha" maskUnits="userSpaceOnUse" x="0" y="0" width="995" height="652">
<rect width="995" height="652" fill="#C4C4C4"/>
</mask>
<g mask="url(#mask0)">
<path d="M177.478 625.962C65.116 615.414 271.113 599.592 388.157 593C548.361 593 1015.81 593 934.606 625.962C853.407 658.923 317.931 639.146 177.478 625.962Z" fill="#C3C5FB"/>
<path d="M161.233 148.907C249.007 105.088 342.266 140.143 433.332 110.565C825.07 -41.7063 895.241 159.862 961.071 286.937C1026.9 414.012 930.35 501.65 857.937 518.083C785.524 534.515 382.862 506.032 174.399 487.409C-34.0636 468.786 51.5158 203.681 161.233 148.907Z" fill="#6D6DF6" fill-opacity="0.2"/>
<path d="M192.338 145.052C262.597 84.0634 379.179 90.3518 428.687 101.12C529.426 124.378 622.416 55.895 702.491 85.614C782.565 115.333 931.091 67.5242 968.545 287.186C1006 506.848 799.648 501.045 624 492C448.352 482.955 379.609 567.382 192.338 548C5.06671 528.618 104.514 221.288 192.338 145.052Z" fill="#6D6DF6" fill-opacity="0.1"/>
<path d="M694.07 147.069C698.784 137.889 711.966 143.244 717.967 147.069C728.115 151.494 735.972 147.069 737.281 156.905C738.591 166.741 769.689 155.593 781.147 159.528C792.604 163.462 776.564 171.658 758.559 178.544C740.555 185.429 735.317 183.461 720.586 178.544C705.855 173.626 694.07 170.019 672.465 171.658C650.86 173.298 652.824 147.069 659.698 145.43C666.573 143.79 688.178 158.544 694.07 147.069Z" fill="#9696FE"/>
<path d="M255.006 376.234C268.632 367.32 275.82 387.152 283.33 399.355C297.492 408.99 304.573 389.721 320.023 389.721C335.472 389.721 325.172 399.355 316.804 410.916C308.435 422.477 283.33 417.981 262.087 410.916C240.844 403.851 242.132 417.339 217.026 417.981C203.078 417.624 181.449 412.224 206.515 393.478C237.848 370.045 233.135 391.686 255.006 376.234Z" fill="#6D6DF6"/>
<path d="M793.178 295.178C777.883 301.903 759.036 295.645 751.525 291.675C685.289 264.354 662.755 344.215 681.192 350.52C699.628 356.824 711.92 327.402 728.991 335.809C746.062 344.215 739.916 358.926 761.767 354.022C783.618 349.119 805.469 333.006 817.761 344.215C830.052 355.423 856 331.605 856 318.996C856 306.386 831.418 311.99 817.761 312.691C804.104 313.392 812.298 286.771 793.178 295.178Z" fill="#6D6DF6"/>
<path d="M65.9325 262.341C73.4336 253 95.6241 269.347 105.782 278.688C123.362 298.537 155.593 278.688 158.523 262.341C161.453 245.994 150.319 225.561 140.357 229.647C130.394 233.734 119.846 233.15 101.68 217.971C83.5131 202.792 78.239 235.485 72.3788 243.075C66.5187 250.665 37.2177 247.162 36.0457 262.341C34.8737 277.52 56.5563 274.017 65.9325 262.341Z" fill="#9696FE"/>
<path fill-rule="evenodd" clip-rule="evenodd" d="M367.425 460.633C359.242 461.465 351.682 463.553 353.784 468.567C357.29 476.933 374.314 470.604 381.452 466.747C382.245 464.206 382.214 462.254 380.175 460.45C375.119 459.858 368.623 460.512 367.425 460.633Z" fill="#A3CF80"/>
<path opacity="0.5" d="M700 299L690.941 -3.2093M605.785 299V-24.6047M462.651 213.419V-24.6047M363 213.419C363 189.884 369.039 30.6667 372.059 -46" stroke="#38454F" stroke-width="2"/>
<path d="M736.779 443.726L745.572 441.913V620.498H558.716C556.776 604.104 555.686 587.622 555.45 571.117C555.223 567.432 555.223 563.738 555.45 560.053C557.313 559.652 559.24 559.652 561.103 560.053L561.117 560.055C561.607 560.116 561.677 560.124 562.548 561.053C563.377 562.078 564.417 562.915 565.598 563.507C566.779 564.1 568.073 564.436 569.394 564.491C573.162 564.491 576.114 562.178 579.757 558.24C584.07 551.827 586.763 544.472 587.608 536.8C589.493 527.424 593.324 507.797 577.999 499.921C574.92 498.593 571.606 497.892 568.251 497.86C564.896 497.828 561.569 498.465 558.465 499.733C552.875 501.483 550.614 501.796 549.609 500.608C548.604 499.421 546.343 493.732 547.536 468.729V467.354C548.278 456.977 549.832 446.674 552.184 436.538C552.812 433.454 553.42 430.37 554.006 427.287V426.161L558.402 427.037C564.118 428.162 568.891 429.224 575.549 430.224C582.207 431.224 588.487 432.475 594.768 433.725L594.769 433.725C609.427 437.087 624.388 438.972 639.426 439.351H646.335H651.296L652.176 434.475C653.201 426.733 651.347 418.886 646.963 412.41C644.742 409.273 643.497 405.556 643.383 401.721C643.447 400.981 643.678 400.266 644.058 399.627C644.439 398.989 644.959 398.444 645.581 398.033C650.219 395.324 655.689 394.391 660.969 395.408C667.752 396.658 677.55 401.596 676.922 408.347C676.486 410.988 675.209 413.42 673.279 415.285C668.192 421.411 665.052 428.412 676.357 438.288C677.411 439.211 678.523 440.067 679.686 440.851L680.816 441.538L683.266 442.976L684.711 443.664L687.223 444.351L688.856 444.914L691.243 445.664L693.001 446.101L695.451 446.601H697.272L699.785 446.914H701.669H704.181H708.201C711.09 446.914 713.98 446.476 716.869 446.476H717.874C720.826 446.226 723.777 445.789 726.729 445.351L726.73 445.351H727.483L736.402 443.726H736.779Z" fill="url(#paint0_linear)"/>
<path d="M543.058 570.076C543.398 586.936 544.627 603.766 546.738 620.498H368.803V435.948L375.663 435.206C392.096 433.162 408.625 431.964 425.183 431.618C428.86 431.398 432.546 431.398 436.222 431.618C436.616 433.453 436.616 435.35 436.222 437.186L436.221 437.199C436.16 437.682 436.151 437.751 435.224 438.609C434.191 439.43 433.35 440.464 432.757 441.638C432.165 442.813 431.837 444.101 431.794 445.414C431.794 449.126 434.102 452.034 438.031 455.622C444.43 459.87 451.769 462.523 459.423 463.355L462.541 464.036H463.103L466.408 464.593H466.907L470.337 464.964H470.712H474.454H478.258H480.628H481.189L484.121 464.283L486.678 463.355L487.426 462.984L489.235 461.994L490.108 461.438L491.667 460.2L492.478 459.458C493.007 458.95 493.507 458.413 493.975 457.849L494.598 457.107C495.278 456.208 495.883 455.257 496.407 454.261C497.695 451.139 498.327 447.789 498.262 444.417C498.198 441.044 497.439 437.72 496.033 434.649C494.224 429.143 493.975 426.916 495.16 425.926C496.345 424.936 502.02 422.709 526.967 423.884H528.339C530.522 423.946 532.767 424.379 534.888 424.379H536.946L541.374 424.998H542.247V426.235C541.686 429.205 541.125 432.113 540.501 435.02C537.889 445.713 536.137 456.595 535.262 467.562V468.862C534.264 489.092 534.139 503.198 541.062 509.818C547.985 516.437 556.093 513.777 562.33 511.859C567.132 510.313 570.188 509.446 572.558 510.684C578.919 513.963 577.423 524.356 575.551 533.884C574.972 539.212 573.363 544.38 570.812 549.103L569.938 550.031C568.026 548.472 565.717 547.466 563.265 547.124C560.678 546.421 557.97 546.279 555.323 546.706C552.675 547.133 550.152 548.119 547.923 549.598C543.058 553.805 543.058 560.611 543.058 570.076Z" fill="url(#paint1_linear)"/>
<path d="M497.807 352.06L498.182 350.125C498.889 346.213 499.616 342.364 500.365 338.577C503.607 324.71 505.446 310.551 505.854 296.316C502.734 297.152 499.751 298.434 496.996 300.124C491.638 303.706 485.284 305.498 478.844 305.242C476.38 305.009 473.993 304.254 471.842 303.027C469.691 301.8 467.826 300.129 466.369 298.126C461.554 290.757 459.787 281.804 461.441 273.157C463.936 259.174 473.917 245.628 487.827 247.063C492.924 247.65 497.706 249.835 501.488 253.306C502.174 253.868 502.985 254.554 503.546 254.929C504.892 254.013 506.091 252.897 507.102 251.62C518.143 239.136 512.653 212.855 508.599 193.816C508.1 191.381 507.601 189.009 507.164 186.762C507.164 186.075 507.164 185.389 506.79 184.702C506.416 184.015 506.54 182.08 506.041 180.832H322.525V362.61L328.014 362.048C344.885 359.935 361.854 358.706 378.852 358.365C388.396 358.365 395.258 358.365 399.562 363.234C401.053 365.465 402.048 367.991 402.478 370.641C402.909 373.29 402.765 376.001 402.057 378.59C401.712 381.044 400.697 383.355 399.125 385.27L400.061 386.144C404.804 388.691 409.992 390.302 415.344 390.888C425.012 392.761 435.492 394.259 438.735 387.892C439.983 385.519 439.11 382.461 437.55 377.592C435.616 371.349 432.997 363.234 439.609 356.305C446.221 349.376 460.443 349.438 480.965 350.437H482.275C484.833 350.437 487.265 350.749 489.636 350.999H491.694L496.747 351.686H497.62L497.807 352.06Z" fill="url(#paint2_linear)"/>
<path fill-rule="evenodd" clip-rule="evenodd" d="M486.016 308.434C486.052 308.498 486.094 308.558 486.14 308.614C486.325 308.834 486.576 308.99 486.856 309.057C487.136 309.125 487.431 309.101 487.699 308.99C488.039 308.849 488.312 308.582 488.459 308.245C488.606 307.907 488.616 307.527 488.486 307.185C488.386 306.925 488.207 306.703 487.974 306.55C487.945 306.531 487.912 306.511 487.882 306.495L485.968 305.356C485.848 305.259 485.704 305.197 485.551 305.175C485.398 305.154 485.242 305.174 485.099 305.234C484.882 305.323 484.709 305.492 484.615 305.706C484.522 305.92 484.516 306.161 484.598 306.378C484.619 306.405 484.625 306.442 484.639 306.47C484.675 306.526 484.715 306.578 484.76 306.626L486.016 308.434Z" fill="#FF8685"/>
<path fill-rule="evenodd" clip-rule="evenodd" d="M518.679 532.567C519.296 533.068 530.43 545.486 529.604 548.163L511.671 538.965C511.671 538.965 515.046 533.907 518.679 532.567Z" fill="#281616"/>
<path fill-rule="evenodd" clip-rule="evenodd" d="M477.413 534.368C476.835 534.916 466.691 548.154 467.722 550.76L484.893 540.207C484.893 540.207 481.137 535.424 477.413 534.368Z" fill="#281616"/>
<path fill-rule="evenodd" clip-rule="evenodd" d="M496.125 424.759L491.424 472.32L489.953 487.287L484.749 539.729L475.185 539.467L478.914 426.829C478.914 426.829 493.32 416.201 496.125 424.759Z" fill="#281616"/>
<path fill-rule="evenodd" clip-rule="evenodd" d="M490.494 428.288C489.875 432.312 491.284 438.512 495.163 444.308L497.088 457.117L499.563 470.952L502.251 485.98L511.675 538.635L520.445 535.137L507.223 423.96C507.223 423.96 492.312 418.463 490.494 428.288Z" fill="#6D6DF6"/>
<path fill-rule="evenodd" clip-rule="evenodd" d="M453.911 412.875C456.005 408.158 458.718 406.996 462.36 408.914C472.389 414.196 453.284 443.841 450.261 445.086C447.634 446.17 445.408 444.514 445.392 440.637C445.379 436.893 451.761 417.715 453.911 412.875Z" fill="#FFEEEA"/>
<path fill-rule="evenodd" clip-rule="evenodd" d="M456.606 400.674C453.522 410.002 454.636 415.023 460.011 417.281C470.882 421.848 469.943 383.805 468.08 380.331C466.46 377.31 463.798 376.648 461.863 379.508C458.323 384.705 457.125 399.101 456.606 400.674Z" fill="#FFEEEA"/>
<path fill-rule="evenodd" clip-rule="evenodd" d="M484.765 363.632C483.086 373.69 484.816 378.113 490.214 378.37C501.135 378.888 495.161 342.687 492.929 340.014C490.989 337.692 488.385 338.004 486.922 341.436C484.261 347.685 485.048 361.937 484.765 363.632Z" fill="#FFEEEA"/>
<path fill-rule="evenodd" clip-rule="evenodd" d="M491.028 353.622C498.298 361.53 494.588 313.748 492.528 310.608C490.731 307.872 488.411 308.073 487.185 311.85C484.096 321.385 482.609 362.053 491.028 353.622Z" fill="#FFEEEA"/>
<path fill-rule="evenodd" clip-rule="evenodd" d="M465.325 357.992C465.399 358.982 465.377 359.911 465.135 360.439C464.436 361.987 462.27 359.189 461.436 358.13C460.602 357.071 459.302 355.534 460.182 354.948C460.574 354.737 460.996 354.586 461.429 354.501C460.912 353.129 457.258 348.601 463.445 346.112C468.333 344.145 472.706 345.145 473.88 342.175C475.055 339.205 477.852 342.784 476.28 347.922C474.708 353.06 470.721 356.667 467.851 357.441C467.02 357.681 466.175 357.865 465.325 357.992Z" fill="white"/>
<path fill-rule="evenodd" clip-rule="evenodd" d="M475.769 347.826C475.769 347.826 476.875 352.744 476.143 354.294C475.41 355.844 473.251 353.087 472.421 352.04C471.592 350.994 470.289 349.478 471.19 348.882C472.09 348.285 475.769 347.826 475.769 347.826Z" fill="#281616"/>
<path fill-rule="evenodd" clip-rule="evenodd" d="M473.396 344.051C473.625 345.05 485.274 360.745 479.77 364.444C478.333 365.41 475.607 364.647 474.002 364.566C469.454 364.333 465.948 361.572 464.453 357.137C462.444 351.132 473.396 344.051 473.396 344.051Z" fill="#FFE1DA"/>
<path fill-rule="evenodd" clip-rule="evenodd" d="M478.862 355.506C479.284 356.366 479.674 357.237 480.03 358.115C480.012 358.198 479.983 358.269 479.942 358.328C479.714 358.657 479.209 358.313 478.814 357.563C478.419 356.813 478.285 355.935 478.514 355.607C478.55 355.551 478.599 355.512 478.66 355.495C478.72 355.477 478.789 355.481 478.862 355.506Z" fill="#FF8685"/>
<path fill-rule="evenodd" clip-rule="evenodd" d="M480.517 363.758C480.314 364.019 480.071 364.246 479.796 364.431C478.354 365.402 475.609 364.622 473.994 364.534C469.418 364.283 465.882 361.481 464.363 356.996C464.21 356.541 464.126 356.064 464.114 355.582C466.295 350.972 472.579 346.905 472.579 346.905C472.765 347.706 480.099 357.715 480.517 363.758Z" fill="#FFD3CA"/>
<path fill-rule="evenodd" clip-rule="evenodd" d="M472.87 343.146C472.961 343.565 474.935 346.397 476.931 349.91C474.708 353.95 471.12 356.632 468.423 357.237C466.581 357.651 464.811 357.981 463.276 357.637C463.221 357.49 463.167 357.341 463.124 357.201C461.04 350.844 472.87 343.146 472.87 343.146Z" fill="#FF8685"/>
<path fill-rule="evenodd" clip-rule="evenodd" d="M468.313 365.121L474.695 378.07L484.752 370.336L473.925 358.132L468.313 365.121Z" fill="#FF8685"/>
<path fill-rule="evenodd" clip-rule="evenodd" d="M461.084 355.858C461.084 355.858 460.543 354.89 461.801 354.791C462.926 354.702 456.59 348.786 463.713 345.964C468.5 344.068 472.834 345.153 473.938 342.18C475.042 339.207 477.87 342.864 476.41 348.018C474.95 353.172 471.081 356.738 468.264 357.468C465.446 358.198 462.822 358.686 461.084 355.858Z" fill="#412F2F"/>
<path fill-rule="evenodd" clip-rule="evenodd" d="M475.2 351.095C475.2 351.095 474.313 361.558 472.528 363.598C470.743 365.638 468.198 360.199 466.515 358.088C464.832 355.977 462.192 352.918 464.05 351.673C465.907 350.429 475.2 351.095 475.2 351.095Z" fill="#FF8685"/>
<path fill-rule="evenodd" clip-rule="evenodd" d="M461.007 355.724C461.007 355.724 460.449 354.725 461.719 354.638C461.882 354.628 461.882 354.493 461.801 354.26L461.795 354.248C461.778 354.219 461.759 354.185 461.752 354.146C457.441 343.364 476.781 351.847 476.393 342.518C476.839 343.81 476.98 345.714 476.399 347.862C474.986 353.126 471.115 356.737 468.276 357.453C465.438 358.169 462.796 358.643 461.007 355.724Z" fill="#281616"/>
<path fill-rule="evenodd" clip-rule="evenodd" d="M473.594 350.366C473.594 350.366 474.15 361.153 471.747 364.891C469.343 368.628 465.355 363.067 463.545 361.017C461.736 358.968 458.853 356.037 461.38 354.373C463.907 352.71 473.594 350.366 473.594 350.366Z" fill="#281616"/>
<path fill-rule="evenodd" clip-rule="evenodd" d="M473.167 354.856C473.167 354.856 472.856 352.286 474.032 352.147C475.208 352.009 476.962 357.038 476.02 358.073C475.077 359.108 473.676 358.166 473.167 354.856Z" fill="#FFD3CA"/>
<path fill-rule="evenodd" clip-rule="evenodd" d="M462.145 355.127C462.155 355.145 468.515 360.59 473.398 350.284L473.618 350.407C468.59 361.004 462.014 355.354 461.995 355.338L462.145 355.127Z" fill="#412F2F"/>
<path fill-rule="evenodd" clip-rule="evenodd" d="M459.217 354.657C459.217 354.657 460.015 353.182 461.386 354.249L461.284 354.413C460.08 353.475 459.387 354.76 459.386 354.765L459.217 354.657Z" fill="#281616"/>
<path fill-rule="evenodd" clip-rule="evenodd" d="M460.029 353.913C460.029 353.913 461.226 353.439 461.898 355.266L461.749 355.309C461.162 353.701 460.117 354.118 460.113 354.118L460.029 353.913Z" fill="#281616"/>
<path fill-rule="evenodd" clip-rule="evenodd" d="M474.776 352.865C474.474 354.384 474.502 355.514 474.655 356.255C475.013 357.978 476.054 357.634 475.336 355.374L475.099 355.456C475.701 357.229 475.108 357.422 474.87 356.143C474.717 355.071 474.767 353.974 475.016 352.904L474.776 352.865Z" fill="#FF8685"/>
<path fill-rule="evenodd" clip-rule="evenodd" d="M463.26 379.257L471.922 372.296C471.922 372.296 473.882 373.519 482.176 367.635C486.241 368.263 492.62 360.17 496.159 362.508C501.013 372.421 502.358 407.815 507.715 424.245C508.613 427.003 481.388 429.304 478.432 427.383C475.579 414.989 475.428 409.808 469.918 402.48C460.547 390.016 463.26 379.257 463.26 379.257Z" fill="white"/>
<path fill-rule="evenodd" clip-rule="evenodd" d="M451.484 445.148C452.546 444.031 452.209 442.011 450.734 440.644C449.258 439.277 447.201 439.065 446.14 440.184C445.08 441.304 445.416 443.322 446.891 444.689C448.366 446.056 450.424 446.268 451.484 445.148Z" fill="#281616"/>
<path fill-rule="evenodd" clip-rule="evenodd" d="M447.395 451.555C447.395 451.555 450.951 447.287 451.304 444.696C451.627 442.344 446.574 439.529 444.885 441.132C443.034 442.89 441.65 448.375 441.65 448.375L447.395 451.555Z" fill="#FF8685"/>
<path fill-rule="evenodd" clip-rule="evenodd" d="M441.848 446.495L441.875 446.439C441.927 446.333 442 446.238 442.088 446.161C442.176 446.085 442.278 446.027 442.389 445.993C442.499 445.959 442.615 445.948 442.729 445.961C442.844 445.974 442.955 446.011 443.056 446.07C443.262 446.19 443.416 446.389 443.484 446.624C443.553 446.86 443.531 447.113 443.423 447.331L443.394 447.384L439.355 454.869C439.327 454.925 439.295 454.979 439.259 455.03C439.172 455.146 439.047 455.227 438.907 455.257C438.768 455.287 438.622 455.264 438.496 455.193C438.358 455.111 438.254 454.979 438.204 454.821C438.154 454.664 438.163 454.494 438.228 454.343L438.247 454.302L441.848 446.495Z" fill="#FF8685"/>
<path fill-rule="evenodd" clip-rule="evenodd" d="M443.295 448.45L443.317 448.392C443.367 448.279 443.439 448.176 443.531 448.09C443.622 448.004 443.731 447.937 443.85 447.891C443.969 447.846 444.096 447.823 444.224 447.825C444.351 447.827 444.477 447.853 444.594 447.902C444.831 448.004 445.017 448.19 445.111 448.422C445.206 448.653 445.201 448.911 445.099 449.141L445.071 449.197L441.159 457.24C441.085 457.395 440.951 457.516 440.785 457.578C440.62 457.64 440.436 457.638 440.273 457.572C440.11 457.501 439.983 457.372 439.917 457.213C439.851 457.055 439.851 456.877 439.918 456.718L443.295 448.45Z" fill="#FF8685"/>
<path fill-rule="evenodd" clip-rule="evenodd" d="M444.849 448.273L444.876 448.215C444.933 448.102 445.012 448.003 445.108 447.921C445.204 447.84 445.315 447.779 445.435 447.742C445.555 447.704 445.681 447.692 445.806 447.704C445.931 447.717 446.052 447.755 446.162 447.815C446.387 447.94 446.554 448.148 446.629 448.395C446.704 448.643 446.68 448.91 446.562 449.139L446.533 449.195L442.102 457.194C442.019 457.348 441.879 457.463 441.712 457.513C441.545 457.564 441.365 457.546 441.211 457.463C441.058 457.376 440.943 457.233 440.89 457.063C440.837 456.893 440.851 456.709 440.927 456.549L444.849 448.273Z" fill="#FF8685"/>
<path fill-rule="evenodd" clip-rule="evenodd" d="M446.803 450.028L446.821 449.982C446.864 449.893 446.925 449.813 447 449.746C447.076 449.679 447.164 449.627 447.261 449.593C447.357 449.559 447.46 449.544 447.563 449.548C447.665 449.553 447.766 449.577 447.858 449.618C448.046 449.705 448.191 449.858 448.261 450.045C448.331 450.233 448.321 450.439 448.233 450.621L448.21 450.667L444.877 457.012C444.814 457.133 444.704 457.226 444.571 457.272C444.437 457.318 444.291 457.313 444.162 457.258C444.034 457.197 443.935 457.091 443.886 456.963C443.836 456.834 443.84 456.693 443.896 456.566L446.803 450.028Z" fill="#FF8685"/>
<path fill-rule="evenodd" clip-rule="evenodd" d="M439.67 446.471C439.535 446.355 439.458 446.195 439.457 446.026C439.455 445.858 439.528 445.694 439.661 445.571C439.735 445.502 439.826 445.449 439.927 445.416C441.17 444.718 442.196 443.152 442.375 442.869L442.375 442.858C442.416 442.794 442.466 442.735 442.522 442.681C442.614 442.596 442.724 442.528 442.845 442.481C442.966 442.434 443.095 442.409 443.226 442.406C443.358 442.404 443.487 442.425 443.608 442.468C443.729 442.511 443.839 442.575 443.93 442.656C444.091 442.799 444.192 442.986 444.218 443.188C444.243 443.389 444.192 443.595 444.071 443.77C442.947 445.525 440.418 446.665 440.389 446.623C440.263 446.66 440.13 446.666 440.002 446.639C439.875 446.612 439.76 446.554 439.67 446.471Z" fill="#FF8685"/>
<path fill-rule="evenodd" clip-rule="evenodd" d="M445.028 441.003C445.098 440.949 445.173 440.902 445.252 440.862C445.556 440.703 445.904 440.645 446.243 440.697C446.583 440.748 446.897 440.906 447.139 441.148C447.453 441.455 447.634 441.872 447.641 442.31C447.648 442.748 447.482 443.171 447.179 443.488C446.95 443.729 446.651 443.891 446.324 443.953C446.281 443.96 446.237 443.964 446.193 443.964L443.564 444.354C443.387 444.406 443.2 444.41 443.021 444.365C442.843 444.32 442.68 444.228 442.55 444.098C442.353 443.904 442.24 443.641 442.235 443.366C442.231 443.09 442.334 442.823 442.524 442.622C442.552 442.593 442.582 442.566 442.614 442.542C442.678 442.489 442.748 442.444 442.822 442.407L445.028 441.003Z" fill="#FF8685"/>
<path fill-rule="evenodd" clip-rule="evenodd" d="M486.792 307.714C486.156 309.011 486.994 310.74 488.662 311.58C490.33 312.42 492.196 312.045 492.832 310.748C493.468 309.451 492.627 307.721 490.959 306.883C489.292 306.045 487.425 306.415 486.792 307.714Z" fill="#281616"/>
<path fill-rule="evenodd" clip-rule="evenodd" d="M493.448 301.727C493.448 301.727 493.993 307.855 492.415 309.739C490.974 311.455 485.747 309.679 485.774 307.487C485.967 305.993 487.413 301.727 487.413 301.727L493.448 301.727Z" fill="#FF8685"/>
<path fill-rule="evenodd" clip-rule="evenodd" d="M483.877 302.556C483.747 302.614 483.639 302.717 483.576 302.843C483.514 302.969 483.503 303.108 483.545 303.23C483.569 303.299 483.61 303.36 483.665 303.407C484.234 304.209 484.341 305.619 484.353 305.875L484.358 305.881C484.363 305.939 484.374 305.994 484.392 306.048C484.422 306.132 484.469 306.208 484.532 306.271C484.595 306.333 484.671 306.382 484.757 306.413C484.843 306.444 484.937 306.458 485.033 306.453C485.128 306.448 485.224 306.424 485.315 306.383C485.475 306.311 485.611 306.191 485.702 306.042C485.793 305.894 485.832 305.726 485.814 305.565C485.71 303.992 484.451 302.566 484.415 302.592C484.344 302.537 484.256 302.504 484.161 302.498C484.065 302.491 483.967 302.512 483.877 302.556Z" fill="#FF8685"/>
<path fill-rule="evenodd" clip-rule="evenodd" d="M490.564 304.612C490.657 304.62 490.752 304.609 490.843 304.58C490.934 304.551 491.019 304.504 491.093 304.442C491.168 304.38 491.23 304.304 491.276 304.219C491.323 304.134 491.353 304.041 491.365 303.945L491.955 300.417L491.96 300.383C491.99 300.156 491.931 299.929 491.795 299.752C491.659 299.576 491.458 299.465 491.236 299.443C491.013 299.422 490.788 299.491 490.609 299.637C490.431 299.783 490.313 299.993 490.283 300.22L490.28 300.253L490.284 300.263L489.95 303.803C489.936 303.9 489.94 303.998 489.963 304.091C489.987 304.184 490.028 304.271 490.085 304.346C490.142 304.421 490.214 304.483 490.296 304.529C490.378 304.575 490.469 304.603 490.564 304.612Z" fill="#FF8685"/>
<path fill-rule="evenodd" clip-rule="evenodd" d="M489.639 304.245C489.55 304.244 489.462 304.225 489.381 304.189C489.3 304.153 489.227 304.1 489.166 304.034C489.105 303.968 489.057 303.891 489.026 303.805C488.995 303.719 488.98 303.628 488.983 303.536L488.939 300.123L488.938 300.09C488.943 299.87 489.032 299.658 489.186 299.503C489.34 299.347 489.546 299.259 489.759 299.259C489.972 299.259 490.174 299.346 490.321 299.502C490.468 299.658 490.548 299.869 490.543 300.089L490.541 300.121L490.545 300.13L490.339 303.542C490.337 303.635 490.317 303.727 490.281 303.813C490.245 303.898 490.192 303.976 490.127 304.041C490.062 304.106 489.985 304.158 489.902 304.193C489.818 304.228 489.729 304.245 489.639 304.245Z" fill="#FF8685"/>
<path fill-rule="evenodd" clip-rule="evenodd" d="M487.915 304.851C487.826 304.851 487.738 304.832 487.657 304.796C487.576 304.759 487.502 304.707 487.441 304.641C487.38 304.575 487.333 304.497 487.302 304.412C487.27 304.326 487.256 304.235 487.259 304.143L487.214 300.729L487.214 300.697C487.219 300.477 487.308 300.265 487.462 300.109C487.616 299.954 487.822 299.866 488.035 299.866C488.248 299.866 488.45 299.953 488.597 300.109C488.744 300.264 488.824 300.476 488.819 300.696L488.817 300.727L488.821 300.737L488.615 304.149C488.613 304.242 488.593 304.334 488.557 304.419C488.52 304.505 488.468 304.583 488.403 304.648C488.338 304.713 488.261 304.765 488.177 304.8C488.094 304.835 488.004 304.852 487.915 304.851Z" fill="#FF8685"/>
<path fill-rule="evenodd" clip-rule="evenodd" d="M492.128 305.188C492.29 305.198 492.453 305.143 492.582 305.036C492.711 304.928 492.795 304.776 492.816 304.614L493.348 301.655L493.354 301.628C493.367 301.533 493.362 301.438 493.339 301.348C493.315 301.258 493.274 301.174 493.217 301.102C493.16 301.03 493.089 300.97 493.007 300.927C492.926 300.884 492.835 300.858 492.741 300.85C492.648 300.843 492.552 300.854 492.46 300.883C492.369 300.912 492.282 300.959 492.206 301.02C492.131 301.082 492.067 301.157 492.019 301.242C491.97 301.326 491.939 301.418 491.925 301.513L491.922 301.538L491.611 304.516C491.598 304.597 491.601 304.679 491.62 304.757C491.639 304.834 491.673 304.907 491.721 304.969C491.77 305.032 491.83 305.083 491.9 305.121C491.97 305.158 492.047 305.181 492.128 305.188Z" fill="#FF8685"/>
<path d="M366.966 488.735C365.196 490.494 362.083 491.106 360.747 491.193C358.518 492.241 355.338 494.652 360.448 495.907C366.835 497.476 369.527 493.953 370.598 493.699C371.669 493.444 375.51 494.84 376.567 495.223C377.412 495.53 377.468 494.836 377.391 494.451C375.92 493.81 372.732 492.373 371.739 491.755C372.514 491.715 376.479 493.369 377.885 493.987C379.01 494.481 379.461 493.738 379.546 493.304C377.811 492.496 373.86 490.703 371.939 490.006C372.454 490.085 377.839 491.72 379.149 492.303C380.197 492.769 380.455 492.098 380.453 491.705C379.242 491.05 376.146 489.497 373.457 488.521C374.803 487.509 379.014 489.681 379.398 489.821C379.782 489.96 380.771 489.033 379.811 488.685C375.545 486.064 373.109 486.786 371.606 486.134C370.104 485.481 369.177 486.537 366.966 488.735Z" fill="#FFD3CA"/>
<path fill-rule="evenodd" clip-rule="evenodd" d="M364.762 496.771C366.087 495.983 366.31 493.947 365.261 492.232C364.212 490.516 362.289 489.753 360.964 490.544C359.64 491.334 359.416 493.367 360.465 495.083C361.515 496.799 363.438 497.561 364.762 496.771Z" fill="#281616"/>
<path fill-rule="evenodd" clip-rule="evenodd" d="M367.569 468.208C368.354 477.298 331.804 470.714 331.804 464.679C328.554 452.81 368.612 462.952 367.569 468.208Z" fill="#A3CF80"/>
<path d="M332.019 555.976L321.432 506.031C316.219 498.558 303.249 510.404 303.249 510.404L318.44 561.27L306.702 616.738L314.757 616.738L331.099 566.333C332.971 560.939 332.588 558.944 332.041 556.091L332.019 555.976Z" fill="#281616"/>
<path d="M304.17 559.659L316.308 509.782C314.692 499.913 297.603 506.143 297.603 506.143L289.44 560.349L253.765 604.079L258.368 610.064L300.027 569.325C302.656 567.397 303.368 563.16 304.17 559.659Z" fill="#6D6DF6"/>
<path fill-rule="evenodd" clip-rule="evenodd" d="M305.677 508.767L300 513.133C300 513.133 303.737 525.963 310.189 526C316.641 526.037 322 506 322 506L305.677 508.767Z" fill="#6D6DF6"/>
<path fill-rule="evenodd" clip-rule="evenodd" d="M329.902 438.225C329.902 438.225 329.958 437.13 330.974 437.875C331.104 437.971 331.176 437.872 331.223 437.644C331.233 437.611 331.242 437.578 331.253 437.541C333.258 426.751 343.834 445.438 348.112 438.237C347.684 439.805 346.766 441.196 345.491 442.206C341.831 445.226 337.113 445.443 334.598 444.162C332.083 442.88 329.835 441.54 329.902 438.225Z" fill="#281616"/>
<path fill-rule="evenodd" clip-rule="evenodd" d="M330.417 441.875C329.986 442.734 329.51 443.487 329.064 443.79C327.76 444.672 327.469 441.156 327.354 439.819C327.239 438.481 326.987 436.482 327.956 436.491C328.367 436.537 328.767 436.648 329.143 436.819C329.411 435.398 328.832 429.619 334.836 431.024C339.587 432.137 342.459 435.404 344.828 433.61C347.198 431.816 347.595 436.333 343.846 439.693C340.098 443.053 335.243 443.8 332.646 442.837C331.882 442.567 331.137 442.246 330.417 441.875Z" fill="white"/>
<path fill-rule="evenodd" clip-rule="evenodd" d="M344.052 438.988C344.052 438.988 342.527 443.648 341.25 444.517C339.973 445.386 339.693 441.926 339.583 440.609C339.473 439.292 339.231 437.324 340.177 437.329C341.124 437.335 344.052 438.988 344.052 438.988Z" fill="#281616"/>
<path fill-rule="evenodd" clip-rule="evenodd" d="M334.013 443.516L330.505 444.063L324.167 458.145L333.104 463.044L337.261 450.28L334.013 443.516Z" fill="#FFE1DA"/>
<path fill-rule="evenodd" clip-rule="evenodd" d="M331.607 462.219L333.104 463.044L337.27 450.309L336.121 447.863L335.823 447.918L331.607 462.219Z" fill="#FF8685"/>
<path fill-rule="evenodd" clip-rule="evenodd" d="M333.762 442.841L331.915 443.202C329.854 448.106 330.942 455.233 336.111 457.236L338.683 449.903L333.762 442.841Z" fill="#412F2F"/>
<path fill-rule="evenodd" clip-rule="evenodd" d="M342.497 435.077C342.191 435.961 343.613 454.089 337.565 453.998C331.516 453.906 327.911 445.968 329.262 440.326C330.613 434.684 342.497 435.077 342.497 435.077Z" fill="#FFD3CA"/>
<path fill-rule="evenodd" clip-rule="evenodd" d="M334.964 453.491C330.529 451.521 328.114 445.124 329.25 440.366C329.534 439.182 330.285 438.267 331.294 437.556C332.343 437.837 333.196 438.087 333.196 438.087C333.196 438.087 331.961 445.46 333.415 447.361C334.53 448.807 334.758 451.712 334.964 453.491Z" fill="#FFE1DA"/>
<path fill-rule="evenodd" clip-rule="evenodd" d="M342.355 435.035C342.232 435.393 342.35 438.497 342.167 442.118C338.794 443.992 335.072 444.161 332.9 443.243C331.422 442.615 330.033 441.962 329.117 440.93C329.146 440.787 329.175 440.649 329.205 440.518C330.599 434.752 342.355 435.035 342.355 435.035Z" fill="#FF8685"/>
<path fill-rule="evenodd" clip-rule="evenodd" d="M342.382 435.043C342.085 435.895 343.61 452.817 338.135 453.948C338.141 453.865 338.174 453.788 338.231 453.726C339.176 452.574 338.52 451.634 338.376 450.932C338.241 450.397 338.314 449.839 338.579 449.362C338.813 448.884 338.445 448.949 338.436 448.556C338.428 448.162 338.908 448.052 338.896 447.798C338.884 447.544 338.673 446.959 338.838 446.664C339.003 446.369 340.302 446.49 340.471 446.03C340.64 445.571 339.432 437.369 339.376 436.944L341.346 435.034C341.991 435.026 342.382 435.043 342.382 435.043Z" fill="#FF8685"/>
<path fill-rule="evenodd" clip-rule="evenodd" d="M328.069 437.926C328.069 437.926 328.13 436.816 329.182 437.441C330.131 438 328.12 429.531 335.215 431.168C339.988 432.277 342.858 435.609 345.256 433.756C347.653 431.903 348.021 436.53 344.229 439.995C340.437 443.459 335.547 444.253 332.94 443.28C330.333 442.306 328.002 441.246 328.069 437.926Z" fill="#412F2F"/>
<path fill-rule="evenodd" clip-rule="evenodd" d="M328.056 437.975C328.056 437.975 328.11 436.884 329.164 437.503C329.299 437.581 329.372 437.479 329.421 437.247C329.43 437.216 329.44 437.183 329.438 437.142C331.452 426.319 342.503 443.454 346.878 435.892C346.58 437.159 345.736 438.729 344.196 440.111C340.43 443.496 335.549 444.249 332.941 443.28C330.333 442.31 328.005 441.236 328.056 437.975Z" fill="#281616"/>
<path fill-rule="evenodd" clip-rule="evenodd" d="M332.233 438.374C332.233 438.374 330.708 443.034 329.431 443.903C328.154 444.772 327.872 441.311 327.764 439.995C327.656 438.679 327.411 436.709 328.358 436.715C329.305 436.721 332.233 438.374 332.233 438.374Z" fill="#281616"/>
<path fill-rule="evenodd" clip-rule="evenodd" d="M329.571 443.132C329.571 443.132 328.724 441.026 327.709 441.421C326.695 441.816 327.426 446.429 328.633 446.818C329.841 447.208 330.576 445.891 329.571 443.132Z" fill="#FFE1DA"/>
<path fill-rule="evenodd" clip-rule="evenodd" d="M317.375 456.817L325.177 454.274C325.177 454.274 331.254 461.181 335.046 458.622C336.532 459.192 340.739 457.593 342.567 460.29C343.715 461.983 340.655 467.174 340.535 468.745C332.48 483.706 325.177 504.881 323.964 516.158C322.122 517.309 308.083 508.103 300.027 509.023C299.467 507.475 312.394 488.181 313.758 479.143C315.333 468.67 317.375 456.817 317.375 456.817Z" fill="#A3CF80"/>
<path d="M296.804 508.563C297.125 509.572 303.249 508.563 307.622 510.174C309.292 507.016 307.528 500.391 311.304 490.381C325.298 466.444 321.432 458.005 317.749 456.777C306.242 460.46 296.804 508.563 296.804 508.563Z" fill="#8FB575"/>
<path fill-rule="evenodd" clip-rule="evenodd" d="M329.666 437.981C329.674 437.999 332.177 444.254 340.62 440.282L340.737 440.46C332.058 444.544 329.46 438.057 329.452 438.039L329.666 437.981Z" fill="#412F2F"/>
<path fill-rule="evenodd" clip-rule="evenodd" d="M327.081 436.318C327.081 436.318 328.879 435.507 329.65 437.37L329.426 437.453C328.742 435.813 327.184 436.524 327.181 436.525L327.081 436.318Z" fill="#281616"/>
<path fill-rule="evenodd" clip-rule="evenodd" d="M327.793 435.534C327.793 435.534 330.019 436.041 329.609 437.507L329.348 437.43C329.707 436.14 327.768 435.699 327.763 435.697L327.793 435.534Z" fill="#281616"/>
<path fill-rule="evenodd" clip-rule="evenodd" d="M336.019 448.306C336.019 448.306 338.022 448.922 339.18 448.497L339.264 448.687C338.032 449.137 335.964 448.506 335.958 448.504L336.019 448.306Z" fill="#FF8685"/>
<path fill-rule="evenodd" clip-rule="evenodd" d="M336.06 448.16C336.06 448.16 335.737 448.221 335.901 448.399L335.633 448.408C335.375 448.111 335.881 448.003 335.881 448.002L336.06 448.16Z" fill="#FF8685"/>
<path fill-rule="evenodd" clip-rule="evenodd" d="M329.754 446.783C329.752 446.772 329.753 446.762 329.756 446.752C329.759 446.742 329.764 446.733 329.771 446.725C329.777 446.717 329.785 446.71 329.795 446.705C329.804 446.701 329.814 446.698 329.824 446.697C329.845 446.695 329.865 446.701 329.881 446.714C329.897 446.727 329.908 446.745 329.91 446.766C330.077 448.064 330.538 449.307 331.259 450.399C331.98 451.491 332.942 452.403 334.07 453.066C334.079 453.071 334.087 453.077 334.093 453.085C334.099 453.093 334.103 453.103 334.106 453.112C334.108 453.122 334.108 453.132 334.107 453.142C334.105 453.152 334.101 453.162 334.096 453.17C334.09 453.179 334.084 453.187 334.075 453.194C334.067 453.2 334.058 453.205 334.048 453.208C334.038 453.21 334.027 453.211 334.017 453.21C334.006 453.208 333.996 453.205 333.988 453.199C332.839 452.524 331.86 451.595 331.126 450.483C330.392 449.37 329.923 448.105 329.754 446.783Z" fill="white"/>
<path fill-rule="evenodd" clip-rule="evenodd" d="M327.851 442.268C328.766 443.346 329.244 444.251 329.447 444.905C329.919 446.422 328.931 446.597 328.51 444.494L328.736 444.458C329.035 446.118 329.596 446.021 329.225 444.908C328.877 443.996 328.354 443.146 327.682 442.401L327.851 442.268Z" fill="#FF8685"/>
<path fill-rule="evenodd" clip-rule="evenodd" d="M332.995 445.828C333.201 445.813 333.411 445.835 333.615 445.892C333.818 445.949 334.01 446.04 334.179 446.159C334.348 446.279 334.49 446.425 334.598 446.589C334.706 446.753 334.776 446.931 334.806 447.112C334.863 447.484 334.754 447.848 334.5 448.126C334.246 448.404 333.868 448.575 333.446 448.602C333.24 448.617 333.029 448.595 332.826 448.538C332.622 448.481 332.43 448.39 332.261 448.27C332.092 448.15 331.949 448.004 331.841 447.841C331.733 447.677 331.663 447.499 331.633 447.317C331.575 446.945 331.686 446.581 331.94 446.303C332.195 446.025 332.573 445.854 332.995 445.828Z" fill="#FF8685"/>
<path fill-rule="evenodd" clip-rule="evenodd" d="M336.275 443.813C336.335 443.815 336.395 443.829 336.45 443.854C336.505 443.879 336.554 443.915 336.595 443.96C336.636 444.004 336.667 444.056 336.688 444.112C336.708 444.169 336.716 444.229 336.713 444.288C336.705 444.41 336.65 444.523 336.56 444.605C336.469 444.687 336.35 444.731 336.227 444.728C336.166 444.726 336.107 444.712 336.052 444.687C335.997 444.662 335.947 444.626 335.907 444.581C335.866 444.537 335.834 444.485 335.814 444.429C335.794 444.372 335.785 444.312 335.789 444.253C335.795 444.131 335.85 444.017 335.941 443.934C336.031 443.852 336.151 443.809 336.275 443.813Z" fill="#281616"/>
<path fill-rule="evenodd" clip-rule="evenodd" d="M334.461 443.829L336.736 443.934L336.716 444.318L334.44 444.215L334.461 443.829Z" fill="#281616"/>
<path fill-rule="evenodd" clip-rule="evenodd" d="M340.221 443.829L342.369 444.159L342.463 444.363L340.315 444.032L340.221 443.829Z" fill="#281616"/>
<path fill-rule="evenodd" clip-rule="evenodd" d="M341.037 443.795C341.097 443.791 341.157 443.799 341.215 443.819C341.272 443.838 341.324 443.869 341.369 443.909C341.414 443.949 341.451 443.998 341.477 444.052C341.502 444.106 341.517 444.165 341.52 444.224C341.523 444.347 341.479 444.465 341.396 444.555C341.314 444.646 341.199 444.7 341.076 444.708C341.015 444.712 340.955 444.704 340.898 444.684C340.84 444.664 340.788 444.633 340.743 444.593C340.698 444.552 340.661 444.504 340.636 444.449C340.61 444.395 340.596 444.336 340.594 444.276C340.589 444.154 340.633 444.036 340.716 443.946C340.799 443.856 340.914 443.802 341.037 443.795Z" fill="#281616"/>
<path fill-rule="evenodd" clip-rule="evenodd" d="M309.438 612.26C309.438 610.567 329.498 617.598 330 620H306C306 620 306.722 614.741 309.438 612.26Z" fill="#281616"/>
<path fill-rule="evenodd" clip-rule="evenodd" d="M254.411 602.342C255.517 600.933 265.478 618.208 264.274 620.493L247.781 607.302C247.781 607.302 250.82 602.859 254.411 602.342Z" fill="#281616"/>
<path fill-rule="evenodd" clip-rule="evenodd" d="M309 515.384L300.351 523L300 522.614L308.649 515L309 515.384Z" fill="black"/>
<path fill-rule="evenodd" clip-rule="evenodd" d="M323.3 454.827C323.317 454.857 329.306 465.898 336.634 460.294L336.939 460.76C329.113 466.746 322.851 455.179 322.824 455.143L323.3 454.827Z" fill="#8FB575"/>
<path fill-rule="evenodd" clip-rule="evenodd" d="M342.064 463.221C342.054 463.217 338.632 462.826 338.99 466.688C339.342 470.385 335.847 476.641 335.827 476.655L336.313 476.864C336.321 476.846 339.853 470.545 339.506 466.795C339.164 463.21 342.158 463.555 342.164 463.555L342.064 463.221Z" fill="#8FB575"/>
<path fill-rule="evenodd" clip-rule="evenodd" d="M334.24 472.949C341.456 480.944 342.71 485.547 342.71 491.078C334 498.724 307.843 465.769 313.597 461.626C316.7 449.737 332.416 471.182 334.24 472.949Z" fill="#8FB575"/>
<path fill-rule="evenodd" clip-rule="evenodd" d="M349.596 484.063C340.562 479.905 335.556 479.92 332.103 484.983C333.024 496.031 351.961 496.573 361.794 496.952C364.513 497.056 363.964 491.822 362.75 490.901C357.841 487.177 350.916 484.67 349.596 484.063Z" fill="#8FB575"/>
<path d="M16.7654 262.626C19.6228 256.86 25.0996 261.919 27.4808 265.169C32.8385 271.952 32.8385 279.159 22.1231 281.703C11.4077 284.246 13.1936 269.832 16.7654 262.626Z" fill="#9696FE"/>
<path d="M824.591 156.061C819.605 151.704 805.596 161.81 799.215 167.408C787.196 176.144 803.667 175.577 813.906 174.216C824.146 172.854 830.823 161.508 824.591 156.061Z" fill="#9696FE"/>
<path fill-rule="evenodd" clip-rule="evenodd" d="M753.518 335C758.737 341.569 762.609 348.586 757.512 350.651C749.009 354.096 741.456 337.128 739.154 329.15C740.417 326.748 741.842 325.369 744.587 325.562C748.606 328.828 752.754 334.039 753.518 335Z" fill="#A3CF80"/>
<path fill-rule="evenodd" clip-rule="evenodd" d="M744.102 325.144C745.073 326.149 744.869 328.021 743.648 329.331C742.427 330.641 740.651 330.884 739.681 329.879C738.71 328.875 738.916 327 740.137 325.692C741.358 324.384 743.133 324.137 744.102 325.144Z" fill="#281616"/>
<path fill-rule="evenodd" clip-rule="evenodd" d="M739.162 324.315C739.162 324.315 738.606 326.54 739.748 328.577C741.583 329.718 745.722 326.398 745.007 324.363C744.223 322.128 739.719 318.195 739.719 318.195L739.162 324.315Z" fill="#FF8685"/>
<path fill-rule="evenodd" clip-rule="evenodd" d="M744.715 324.43C744.736 324.509 744.749 324.59 744.756 324.672C744.78 324.995 744.697 325.318 744.518 325.593C744.34 325.869 744.076 326.083 743.764 326.204C743.368 326.359 742.926 326.359 742.533 326.204C742.139 326.048 741.825 325.749 741.658 325.371C741.532 325.084 741.502 324.764 741.572 324.457C741.581 324.418 741.593 324.377 741.605 324.34L742.278 321.914C742.3 321.742 742.37 321.578 742.48 321.44C742.589 321.302 742.736 321.195 742.903 321.13C743.154 321.031 743.434 321.031 743.684 321.129C743.934 321.227 744.133 321.417 744.239 321.657C744.243 321.694 744.268 321.729 744.279 321.763C744.294 321.836 744.303 321.909 744.304 321.983L744.715 324.43Z" fill="#FFE1DA"/>
<path d="M597.762 421.944C591.351 420.636 584.815 419.39 578.027 418.33C572.37 417.147 566.839 416.025 561.434 414.904L556.657 413.969L556.971 411.975C557.726 408.113 558.417 404.312 559.171 400.574C563.025 383.783 564.673 366.569 564.074 349.36V344.438L559.171 343.565C551.573 342.676 543.904 344.51 537.55 348.737C534.333 351.017 530.504 352.297 526.551 352.413C525.808 352.349 525.088 352.12 524.446 351.742C523.804 351.365 523.256 350.848 522.843 350.232C520.092 345.642 519.152 340.204 520.203 334.968C521.46 328.239 526.426 318.582 533.214 319.142C535.869 319.575 538.315 320.842 540.19 322.756C546.287 327.803 553.326 330.918 563.257 319.703C570.474 310.399 573.906 298.748 572.873 287.056C572.38 276.374 570.907 265.76 568.473 255.343L567.593 251.231L566.273 245L565.896 243.256C565.456 242.384 565.456 241.636 565.456 240.826H743.452H745.274V429.545L743.452 429.919C724.282 433.969 697.822 439.451 685.251 428.424C683.966 427.414 682.842 426.217 681.92 424.872C682.297 424.312 682.989 423.502 683.554 422.816C687.052 419.041 689.253 414.264 689.839 409.172C691.222 395.278 677.646 385.309 663.568 382.817C654.861 381.165 645.847 382.93 638.427 387.739C636.41 389.194 634.728 391.057 633.493 393.206C632.258 395.354 631.497 397.738 631.262 400.2C631 406.632 632.805 412.98 636.416 418.33C638.169 421.114 639.503 424.136 640.375 427.302C626.026 426.935 611.75 425.14 597.762 421.944Z" fill="url(#paint3_linear)"/>
<path d="M779.704 422L789.943 449.564M854 622L789.943 449.564M736 422L746.24 449.564M810.296 622L746.24 449.564M746.24 449.564H789.943M760.051 486.744H803.755M774.577 525.846H818.281M788.865 564.308H832.568M803.755 604.391H847.458" stroke="#5545B8" stroke-width="4" stroke-linecap="round"/>
<path d="M752.269 382.469C754.063 384.252 757.221 384.874 758.575 384.961C760.835 386.024 764.06 388.469 758.879 389.742C752.402 391.333 749.671 387.76 748.585 387.502C747.5 387.245 743.604 388.659 742.533 389.048C741.676 389.36 741.619 388.656 741.697 388.265C743.188 387.615 746.422 386.158 747.429 385.531C746.642 385.491 742.622 387.168 741.196 387.795C740.055 388.296 739.598 387.542 739.511 387.103C741.271 386.282 745.278 384.465 747.225 383.758C746.703 383.838 741.243 385.496 739.914 386.087C738.851 386.56 738.59 385.88 738.592 385.48C739.82 384.817 742.959 383.242 745.686 382.251C744.322 381.226 740.051 383.429 739.661 383.57C739.272 383.712 738.269 382.772 739.243 382.418C743.569 379.76 746.04 380.493 747.563 379.831C749.086 379.169 750.027 380.241 752.269 382.469Z" fill="#FFD3CA"/>
<path fill-rule="evenodd" clip-rule="evenodd" d="M758.347 390.241C759.69 389.442 759.917 387.378 758.853 385.638C757.789 383.898 756.099 383.602 754.756 384.404C753.413 385.205 753.136 387.671 754.2 389.411C755.264 391.151 757.004 391.043 758.347 390.241Z" fill="#281616"/>
<path fill-rule="evenodd" clip-rule="evenodd" d="M848.71 504.896C848.351 505.647 843.39 522.373 845.37 524.534L858.201 507.805C858.201 507.805 852.744 504.536 848.71 504.896Z" fill="#281616"/>
<path fill-rule="evenodd" clip-rule="evenodd" d="M749.123 341.231C740.344 352.204 780.384 362.523 783.436 360.557C796.476 352.136 752.481 335.625 749.123 341.231Z" fill="#A3CF80"/>
<path fill-rule="evenodd" clip-rule="evenodd" d="M779.902 398.295L789.095 447.436L791.981 462.901L802.139 517.084L812.083 515.947L798.203 403.294C798.203 403.294 782.052 389.123 779.902 398.295Z" fill="#281616"/>
<path fill-rule="evenodd" clip-rule="evenodd" d="M809.289 400.646C812.197 403.756 813.81 406.479 816.578 415.737L822.47 427.939L828.49 441.351L835.032 455.919L857.945 506.968L848.306 509.119L794.158 405.271C794.158 405.271 801.924 393.23 809.289 400.646Z" fill="#6D6DF6"/>
<path fill-rule="evenodd" clip-rule="evenodd" d="M802.732 392.978L807.627 395.16C807.627 395.16 805.658 416.008 799.427 416.759C793.196 417.51 785.667 397.547 785.667 397.547L802.732 392.978Z" fill="#6D6DF6"/>
<path fill-rule="evenodd" clip-rule="evenodd" d="M794.611 327.615C794.611 327.615 794.742 326.439 793.581 327.036C793.432 327.114 793.377 326.995 793.368 326.742C793.364 326.706 793.359 326.669 793.355 326.628C793.175 314.756 779.208 332.61 776.099 324.121C776.264 325.873 776.958 327.53 778.08 328.851C781.28 332.771 786.038 333.91 788.815 333.031C791.592 332.151 794.108 331.157 794.611 327.615Z" fill="#281616"/>
<path fill-rule="evenodd" clip-rule="evenodd" d="M793.469 331.189C793.756 332.141 794.106 332.991 794.507 333.379C795.679 334.509 796.607 330.982 796.964 329.642C797.321 328.301 797.937 326.312 796.946 326.147C796.519 326.121 796.09 326.163 795.676 326.27C795.658 324.776 797.284 318.997 790.905 319.358C785.857 319.645 782.341 322.458 780.244 320.211C778.148 317.963 776.933 322.489 780.156 326.576C783.379 330.663 788.2 332.289 791.022 331.771C791.85 331.633 792.668 331.438 793.469 331.189Z" fill="white"/>
<path fill-rule="evenodd" clip-rule="evenodd" d="M779.817 325.945C779.817 325.945 780.54 330.846 781.781 331.92C783.023 332.994 784.062 329.581 784.461 328.283C784.86 326.985 785.544 325.057 784.487 324.911C783.43 324.764 779.817 325.945 779.817 325.945Z" fill="#281616"/>
<path fill-rule="evenodd" clip-rule="evenodd" d="M790.104 332.403L793.613 333.927L796.006 349.838L785.169 352.275L784.662 338.296L790.104 332.403Z" fill="#FFE1DA"/>
<path fill-rule="evenodd" clip-rule="evenodd" d="M786.972 351.866L785.169 352.275L784.65 338.437L786.576 336.317L786.87 336.454L786.972 351.866Z" fill="#FF8685"/>
<path fill-rule="evenodd" clip-rule="evenodd" d="M790.75 332.329L792.35 333.217C793.016 338.65 790.247 345.369 785.02 345.855L784.49 337.879L790.75 332.329Z" fill="#412F2F"/>
<path fill-rule="evenodd" clip-rule="evenodd" d="M782.52 322.154C782.673 323.103 778.076 341.197 784.162 342.184C790.247 343.171 795.252 335.78 794.882 329.829C794.513 323.878 782.52 322.154 782.52 322.154Z" fill="#FFD3CA"/>
<path fill-rule="evenodd" clip-rule="evenodd" d="M786.934 342.127C791.69 340.935 795.204 334.947 794.899 329.975C794.822 328.737 794.233 327.687 793.353 326.796C792.259 326.893 791.367 326.993 791.367 326.993C791.367 326.993 791.316 334.604 789.539 336.254C788.179 337.507 787.448 340.38 786.934 342.127Z" fill="#FFE1DA"/>
<path fill-rule="evenodd" clip-rule="evenodd" d="M782.461 322.16C782.524 322.55 781.848 325.718 781.39 329.471C784.502 332.006 788.275 332.853 790.659 332.302C792.281 331.924 793.817 331.505 794.937 330.61C794.933 330.457 794.928 330.311 794.921 330.171C794.525 323.995 782.461 322.16 782.461 322.16Z" fill="#FF8685"/>
<path fill-rule="evenodd" clip-rule="evenodd" d="M782.417 322.166C782.562 323.077 778.506 339.793 783.452 341.94C783.459 341.856 783.44 341.772 783.396 341.7C782.691 340.368 783.451 339.545 783.694 338.867C783.904 338.354 783.923 337.78 783.748 337.251C783.605 336.728 783.938 336.862 784.007 336.468C784.077 336.074 783.645 335.875 783.696 335.622C783.746 335.37 784.034 334.821 783.926 334.494C783.817 334.167 782.584 334.048 782.497 333.555C782.411 333.063 784.814 325.047 784.932 324.631L783.387 322.348C782.784 322.22 782.417 322.166 782.417 322.166Z" fill="#FF8685"/>
<path fill-rule="evenodd" clip-rule="evenodd" d="M796.331 327.31C796.331 327.31 796.471 326.204 795.291 326.642C794.228 327.032 797.8 319.011 790.311 319.423C785.271 319.708 781.758 322.511 779.663 320.274C777.568 318.037 776.358 322.543 779.575 326.608C782.792 330.673 787.605 332.287 790.424 331.769C793.243 331.251 795.799 330.6 796.331 327.31Z" fill="#412F2F"/>
<path fill-rule="evenodd" clip-rule="evenodd" d="M796.338 327.367C796.338 327.367 796.479 326.283 795.299 326.715C795.148 326.769 795.093 326.655 795.086 326.419C795.082 326.387 795.078 326.352 795.087 326.312C795.006 315.304 780.699 330.322 777.634 322.127C777.707 323.426 778.277 325.117 779.589 326.741C782.793 330.714 787.604 332.283 790.424 331.769C793.243 331.255 795.798 330.59 796.338 327.367Z" fill="#281616"/>
<path fill-rule="evenodd" clip-rule="evenodd" d="M792.275 327.445C792.275 327.445 792.98 332.348 794.099 333.436C795.218 334.524 796.102 331.129 796.439 329.838C796.776 328.547 797.364 326.63 796.42 326.471C795.477 326.312 792.275 327.445 792.275 327.445Z" fill="#281616"/>
<path fill-rule="evenodd" clip-rule="evenodd" d="M794.022 332.683C794.022 332.683 795.139 330.704 796.027 331.296C796.916 331.887 795.521 336.431 794.331 336.6C793.141 336.768 792.657 335.293 794.022 332.683Z" fill="#FFE1DA"/>
<path fill-rule="evenodd" clip-rule="evenodd" d="M809.049 351.329L795.506 345.445C795.506 345.445 787.899 350.635 785.054 347.104C783.698 348.136 774.687 345.724 772.228 347.896C770.684 349.258 775.239 354.986 774.916 356.567C772.25 369.455 779.329 396.356 781.105 404.095C781.767 406.977 807.806 404.415 809.864 401.45C810.817 400.073 806.449 384.791 807.672 375.521C809.094 364.782 809.049 351.329 809.049 351.329Z" fill="#A3CF80"/>
<path fill-rule="evenodd" clip-rule="evenodd" d="M803.201 404.041C806.689 403.363 810.217 402.322 810.82 401.465C810.885 399.857 806.492 384.997 807.776 375.706C808.618 369.621 809.999 363.073 811.043 358.529L808.318 357.233C808.318 357.233 799.156 372.015 799.834 382.194C800.512 392.374 802.529 400.714 803.201 404.041Z" fill="#86A96F"/>
<path fill-rule="evenodd" clip-rule="evenodd" d="M794.965 327.138C794.953 327.158 791.313 334.298 783.077 327.356L782.925 327.547C791.392 334.685 795.168 327.282 795.18 327.262L794.965 327.138Z" fill="#412F2F"/>
<path fill-rule="evenodd" clip-rule="evenodd" d="M797.957 325.97C797.957 325.97 796.303 325.341 795.09 326.476L795.299 326.543C796.373 325.544 797.805 326.094 797.808 326.095L797.957 325.97Z" fill="#281616"/>
<path fill-rule="evenodd" clip-rule="evenodd" d="M797.278 325.151C797.278 325.151 794.971 325.231 795.166 327.143L795.44 327.112C795.268 325.43 797.279 325.361 797.284 325.36L797.278 325.151Z" fill="#281616"/>
<path fill-rule="evenodd" clip-rule="evenodd" d="M786.884 336.603C786.884 336.603 784.634 336.889 783.464 336.088L783.342 336.303C784.587 337.154 786.909 336.864 786.916 336.863L786.884 336.603Z" fill="#FF8685"/>
<path fill-rule="evenodd" clip-rule="evenodd" d="M786.287 336.478C786.287 336.478 786.676 336.625 786.433 336.81L786.765 336.88C787.149 336.567 786.545 336.322 786.544 336.32L786.287 336.478Z" fill="#FF8685"/>
<path fill-rule="evenodd" clip-rule="evenodd" d="M793.275 336.248C793.279 336.238 793.28 336.227 793.279 336.216C793.278 336.206 793.274 336.195 793.269 336.186C793.263 336.177 793.256 336.169 793.247 336.162C793.238 336.156 793.228 336.151 793.217 336.149C793.196 336.143 793.174 336.145 793.154 336.155C793.135 336.166 793.121 336.183 793.114 336.203C792.695 337.497 791.975 338.682 791.012 339.669C790.048 340.656 788.865 341.417 787.554 341.896C787.544 341.899 787.535 341.905 787.527 341.912C787.519 341.919 787.512 341.928 787.508 341.937C787.504 341.947 787.501 341.957 787.501 341.968C787.501 341.978 787.503 341.988 787.508 341.998C787.511 342.008 787.517 342.017 787.524 342.025C787.532 342.033 787.541 342.04 787.551 342.044C787.561 342.049 787.572 342.051 787.583 342.052C787.594 342.052 787.605 342.05 787.616 342.046C788.95 341.559 790.155 340.783 791.136 339.778C792.117 338.773 792.849 337.565 793.275 336.248Z" fill="white"/>
<path fill-rule="evenodd" clip-rule="evenodd" d="M795.657 332.353C794.747 333.16 794.224 333.885 793.965 334.432C793.361 335.7 794.158 336.016 794.8 334.22L794.617 334.151C794.138 335.574 793.685 335.397 794.148 334.47C794.564 333.719 795.117 333.05 795.779 332.498L795.657 332.353Z" fill="#FF8685"/>
<path fill-rule="evenodd" clip-rule="evenodd" d="M790.211 334.292C789.993 334.225 789.763 334.201 789.535 334.223C789.308 334.246 789.087 334.313 788.886 334.421C788.685 334.529 788.508 334.676 788.365 334.853C788.222 335.03 788.117 335.233 788.054 335.451C787.931 335.898 787.988 336.374 788.213 336.779C788.439 337.184 788.816 337.485 789.263 337.619C789.481 337.686 789.711 337.709 789.939 337.687C790.167 337.665 790.388 337.598 790.589 337.49C790.79 337.382 790.968 337.235 791.111 337.058C791.254 336.881 791.359 336.677 791.422 336.459C791.545 336.012 791.488 335.536 791.262 335.131C791.036 334.726 790.658 334.425 790.211 334.292Z" fill="#FF8685"/>
<path fill-rule="evenodd" clip-rule="evenodd" d="M787.322 332.145C787.284 332.14 787.245 332.142 787.208 332.152C787.171 332.162 787.137 332.179 787.106 332.202C787.076 332.225 787.051 332.254 787.032 332.287C787.013 332.32 787.002 332.356 786.997 332.393C786.989 332.47 787.011 332.546 787.058 332.607C787.105 332.668 787.175 332.708 787.252 332.72C787.289 332.725 787.328 332.723 787.365 332.713C787.402 332.704 787.437 332.687 787.467 332.664C787.497 332.64 787.522 332.612 787.541 332.579C787.56 332.546 787.572 332.509 787.576 332.472C787.585 332.395 787.564 332.318 787.516 332.257C787.469 332.196 787.399 332.156 787.322 332.145Z" fill="#281616"/>
<path fill-rule="evenodd" clip-rule="evenodd" d="M788.711 332.085L786.412 331.655L786.376 332.134L788.674 332.567L788.711 332.085Z" fill="#281616"/>
<path fill-rule="evenodd" clip-rule="evenodd" d="M782.809 331.639L781.104 331.092L781.041 331.527L782.745 332.074L782.809 331.639Z" fill="#281616"/>
<path fill-rule="evenodd" clip-rule="evenodd" d="M782.4 331.546C782.328 331.541 782.251 331.544 782.176 331.555C782.1 331.565 782.027 331.583 781.961 331.607C781.894 331.63 781.836 331.66 781.789 331.694C781.741 331.728 781.707 331.765 781.686 331.803C781.647 331.881 781.667 331.959 781.742 332.02C781.818 332.082 781.942 332.122 782.091 332.132C782.164 332.137 782.24 332.134 782.316 332.123C782.391 332.113 782.464 332.095 782.531 332.071C782.598 332.047 782.656 332.017 782.703 331.983C782.75 331.949 782.784 331.912 782.804 331.874C782.845 331.795 782.825 331.717 782.75 331.656C782.674 331.595 782.549 331.556 782.4 331.546Z" fill="#281616"/>
<path fill-rule="evenodd" clip-rule="evenodd" d="M803.819 407.901L813.642 415.133L813.955 414.675L804.132 407.445L803.819 407.901Z" fill="black"/>
<path fill-rule="evenodd" clip-rule="evenodd" d="M798.106 345.529C798.08 345.553 788.979 354.447 783.313 347.222L782.877 347.583C788.928 355.301 798.451 345.981 798.488 345.953L798.106 345.529Z" fill="#86A96F"/>
<path fill-rule="evenodd" clip-rule="evenodd" d="M819.423 419.742L853.491 500.219L854.015 500.033L819.947 419.556L819.423 419.742Z" fill="white"/>
<path fill-rule="evenodd" clip-rule="evenodd" d="M772.395 350.811C772.406 350.81 775.933 352.045 774.783 358.618C773.672 364.902 775.914 377.836 775.931 377.872L775.399 377.967C775.395 377.929 773.124 364.896 774.241 358.515C775.319 352.421 772.232 351.344 772.225 351.34L772.395 350.811Z" fill="#86A96F"/>
<path fill-rule="evenodd" clip-rule="evenodd" d="M789.478 367.468C782.338 374.199 776.139 381.827 779.549 385.659C786.442 393.423 811.249 364.838 811.507 357.698C808.725 337.668 791.347 365.702 789.478 367.468Z" fill="#86A96F"/>
<path d="M792.239 524.234H800.958L812.875 515.224L805.609 507.957L798.924 519.874L792.239 524.234Z" fill="#281616"/>
<path fill-rule="evenodd" clip-rule="evenodd" d="M769.072 378.722C777.897 376.109 786.644 375.055 786.642 381.128C786.657 391.228 765.499 390.919 756.425 389.968C753.643 388.298 754.756 385.328 756.425 384.404C761.41 381.643 767.782 379.104 769.072 378.722Z" fill="#86A96F"/>
<path d="M187.2 257.36C187.92 265.28 190.44 271.94 194.58 277.7C198.54 283.46 203.94 287.78 210.6 290.84C217.26 294.08 225.36 295.52 234.72 295.52C249.84 295.52 262.08 292.1 271.44 285.08C280.8 278.06 285.48 268.7 285.48 257.18C285.48 251.24 284.58 246.38 282.78 242.42C280.98 238.46 279 235.4 276.84 233.06C274.68 230.72 271.98 228.56 268.74 226.76C265.5 224.96 262.26 223.52 258.66 222.44C255.06 221.36 248.94 219.74 240.48 217.58C231.84 215.6 226.08 213.8 223.02 212.18C219.96 210.74 217.8 208.94 216.54 206.78C215.1 204.62 214.56 202.28 214.56 199.76C214.56 194.36 216.72 190.04 221.04 186.8C225.36 183.74 231.12 182.12 238.68 182.12C246.6 182.12 252.72 184.28 257.04 188.6C261.36 192.92 263.52 198.32 263.7 204.62L284.94 200.66C284.22 193.82 282.24 188.06 279.36 183.02C276.3 177.98 272.7 174.02 268.38 170.96C264.06 167.9 259.2 165.74 253.98 164.48C248.76 163.22 243.72 162.5 238.68 162.5C230.04 162.5 222.12 164.3 214.92 167.54C207.54 170.96 201.96 175.64 198.36 181.76C194.76 187.88 192.96 194 192.96 200.3C192.96 206.42 193.86 211.46 195.84 215.78C197.64 220.1 200.34 223.7 203.58 226.4C206.82 229.1 210.78 231.26 215.28 232.88C219.78 234.68 227.34 236.66 237.78 238.82C248.22 241.16 255.06 243.86 258.3 246.92C261.54 249.98 263.34 253.76 263.34 258.08C263.34 262.4 261.9 266 259.2 268.7C256.5 271.58 252.9 273.38 248.58 274.46C244.08 275.54 239.76 275.9 235.8 275.9C227.34 275.9 220.86 273.92 216.18 269.78C211.5 265.64 208.8 260.06 208.44 253.04L187.2 257.36ZM367.873 253.4C367.873 261.14 365.893 266.9 361.933 270.86C357.973 274.82 352.753 276.8 346.273 276.8C340.153 276.8 335.473 275 332.593 271.22C329.533 267.44 328.093 262.22 328.093 255.56V199.58H306.673V258.44C306.673 265.28 307.573 271.22 309.733 275.9C311.713 280.58 314.413 284.36 317.653 287.24C320.893 290.12 324.673 292.28 328.813 293.36C332.773 294.62 336.913 295.16 341.053 295.16C347.893 295.16 353.833 293.9 358.873 291.02C363.733 288.32 367.333 284.9 369.493 280.94V293H389.293V199.58H367.873V253.4ZM455.471 276.26C447.911 276.26 441.791 273.56 437.291 267.98C432.611 262.4 430.451 255.2 430.451 246.38C430.451 237.56 432.611 230.36 437.291 224.78C441.791 219.2 447.911 216.32 455.471 216.32C457.991 216.32 460.871 216.86 464.111 217.94C467.351 219.02 470.231 221 472.751 223.7C475.271 226.58 477.071 229.82 478.151 233.42L498.671 228.38C497.411 224.78 495.611 221 493.451 217.04C491.111 213.26 488.231 209.84 484.631 206.96C481.031 204.08 476.711 201.74 471.851 199.94C466.811 198.32 461.411 197.42 455.651 197.42C448.991 197.42 442.691 198.68 436.931 201.2C431.171 203.72 426.131 207.32 421.991 211.82C417.851 216.32 414.611 221.54 412.451 227.48C410.111 233.6 409.031 239.9 409.031 246.38C409.031 253.04 410.111 259.34 412.451 265.28C414.611 271.22 417.851 276.44 421.991 280.94C426.131 285.44 431.171 288.86 436.931 291.38C442.691 293.9 448.991 295.16 455.651 295.16C461.411 295.16 466.811 294.44 471.851 292.64C476.711 291.02 481.031 288.68 484.631 285.8C488.231 282.92 491.111 279.5 493.451 275.54C495.611 271.76 497.411 267.98 498.671 264.2L478.151 259.16C477.071 262.94 475.271 266.18 472.751 268.88C470.231 271.76 467.351 273.56 464.111 274.64C460.871 275.72 457.991 276.26 455.471 276.26ZM555.491 276.26C547.931 276.26 541.811 273.56 537.311 267.98C532.631 262.4 530.471 255.2 530.471 246.38C530.471 237.56 532.631 230.36 537.311 224.78C541.811 219.2 547.931 216.32 555.491 216.32C558.011 216.32 560.891 216.86 564.131 217.94C567.371 219.02 570.251 221 572.771 223.7C575.291 226.58 577.091 229.82 578.171 233.42L598.691 228.38C597.431 224.78 595.631 221 593.471 217.04C591.131 213.26 588.251 209.84 584.651 206.96C581.051 204.08 576.731 201.74 571.871 199.94C566.831 198.32 561.431 197.42 555.671 197.42C549.011 197.42 542.711 198.68 536.951 201.2C531.191 203.72 526.151 207.32 522.011 211.82C517.871 216.32 514.631 221.54 512.471 227.48C510.131 233.6 509.051 239.9 509.051 246.38C509.051 253.04 510.131 259.34 512.471 265.28C514.631 271.22 517.871 276.44 522.011 280.94C526.151 285.44 531.191 288.86 536.951 291.38C542.711 293.9 549.011 295.16 555.671 295.16C561.431 295.16 566.831 294.44 571.871 292.64C576.731 291.02 581.051 288.68 584.651 285.8C588.251 282.92 591.131 279.5 593.471 275.54C595.631 271.76 597.431 267.98 598.691 264.2L578.171 259.16C577.091 262.94 575.291 266.18 572.771 268.88C570.251 271.76 567.371 273.56 564.131 274.64C560.891 275.72 558.011 276.26 555.491 276.26ZM678.91 262.4C676.93 267.08 673.87 270.5 669.91 273.02C665.95 275.54 661.27 276.8 656.23 276.8C648.85 276.8 642.91 274.64 638.23 270.14C633.55 265.82 630.85 259.88 630.13 252.5H701.23L701.41 245.84C701.41 239.18 700.33 232.88 698.17 226.94C696.01 221 692.77 215.78 688.81 211.46C684.67 207.14 679.81 203.72 674.05 201.2C668.29 198.68 662.17 197.42 655.51 197.42C648.67 197.42 642.55 198.68 636.79 201.2C631.03 203.72 625.99 207.32 621.85 211.64C617.71 216.14 614.47 221.36 612.31 227.3C610.15 233.42 609.07 239.72 609.07 246.2C609.07 253.04 610.15 259.52 612.31 265.46C614.47 271.58 617.71 276.8 621.85 281.12C625.81 285.62 630.85 289.04 636.61 291.56C642.37 294.08 648.85 295.16 655.69 295.16C665.59 295.16 674.23 292.82 681.79 287.78C689.35 282.74 694.75 276.08 698.17 267.44L678.91 262.4ZM655.51 214.88C658.75 214.88 662.17 215.6 665.77 216.86C669.37 218.3 672.43 220.64 675.13 224.24C677.65 227.84 679.45 231.98 680.17 236.66H630.49C630.85 233.78 632.11 230.54 633.91 227.12C635.71 223.7 638.41 220.82 642.37 218.48C646.15 216.14 650.47 214.88 655.51 214.88ZM713.631 266.9C714.531 273.02 716.511 278.06 719.571 281.66C722.451 285.44 725.691 288.14 729.111 289.94C732.351 291.74 735.951 293.18 739.911 293.9C743.871 294.8 748.011 295.16 752.691 295.16C758.811 295.16 764.391 294.44 769.431 293C774.471 291.56 778.611 289.4 781.851 286.7C785.091 284 787.431 280.94 789.231 277.34C790.851 273.74 791.751 269.96 791.751 266C791.751 260.6 790.491 255.92 788.331 252.32C786.171 248.72 782.931 245.66 778.971 243.5C774.831 241.34 767.991 239.18 758.631 237.38C749.091 235.58 743.331 233.78 741.531 231.98C739.731 230.18 738.831 228.2 738.831 226.04C738.831 222.62 740.091 219.92 742.971 217.94C745.671 215.96 749.631 214.88 754.851 214.88C759.711 214.88 763.671 216.32 766.551 218.84C769.431 221.54 771.051 224.6 771.591 228.2L791.571 224.6C790.491 219.56 788.331 214.7 784.911 210.2C781.491 205.7 777.171 202.46 771.771 200.48C766.371 198.5 760.971 197.42 755.391 197.42C748.371 197.42 742.431 198.5 737.571 200.66C732.711 202.82 729.111 205.34 726.591 207.86C724.071 210.38 721.911 213.26 720.471 216.32C719.031 219.56 718.311 222.98 718.311 226.76C718.311 234.32 720.291 240.26 724.611 244.4C728.751 248.72 735.411 251.78 744.771 253.58C746.031 253.94 748.731 254.48 753.051 255.2C757.371 256.1 760.791 257 763.671 257.9C766.371 258.98 768.351 260.24 769.431 261.86C770.511 263.48 771.231 265.1 771.231 266.9C771.231 270.14 769.611 272.84 766.551 274.64C763.491 276.62 759.351 277.52 753.951 277.52C747.831 277.52 742.971 276.26 739.551 273.74C735.951 271.22 734.151 267.8 733.791 263.66L713.631 266.9ZM802.049 266.9C802.949 273.02 804.929 278.06 807.989 281.66C810.869 285.44 814.109 288.14 817.529 289.94C820.769 291.74 824.369 293.18 828.329 293.9C832.289 294.8 836.429 295.16 841.109 295.16C847.229 295.16 852.809 294.44 857.849 293C862.889 291.56 867.029 289.4 870.269 286.7C873.509 284 875.849 280.94 877.649 277.34C879.269 273.74 880.169 269.96 880.169 266C880.169 260.6 878.909 255.92 876.749 252.32C874.589 248.72 871.349 245.66 867.389 243.5C863.249 241.34 856.409 239.18 847.049 237.38C837.509 235.58 831.749 233.78 829.949 231.98C828.149 230.18 827.249 228.2 827.249 226.04C827.249 222.62 828.509 219.92 831.389 217.94C834.089 215.96 838.049 214.88 843.269 214.88C848.129 214.88 852.089 216.32 854.969 218.84C857.849 221.54 859.469 224.6 860.009 228.2L879.989 224.6C878.909 219.56 876.749 214.7 873.329 210.2C869.909 205.7 865.589 202.46 860.189 200.48C854.789 198.5 849.389 197.42 843.809 197.42C836.789 197.42 830.849 198.5 825.989 200.66C821.129 202.82 817.529 205.34 815.009 207.86C812.489 210.38 810.329 213.26 808.889 216.32C807.449 219.56 806.729 222.98 806.729 226.76C806.729 234.32 808.709 240.26 813.029 244.4C817.169 248.72 823.829 251.78 833.189 253.58C834.449 253.94 837.149 254.48 841.469 255.2C845.789 256.1 849.209 257 852.089 257.9C854.789 258.98 856.769 260.24 857.849 261.86C858.929 263.48 859.649 265.1 859.649 266.9C859.649 270.14 858.029 272.84 854.969 274.64C851.909 276.62 847.769 277.52 842.369 277.52C836.249 277.52 831.389 276.26 827.969 273.74C824.369 271.22 822.569 267.8 822.209 263.66L802.049 266.9Z" fill="#17175A"/>
</g>
<defs>
<linearGradient id="paint0_linear" x1="576.844" y1="427.37" x2="646.385" y2="620.498" gradientUnits="userSpaceOnUse">
<stop stop-color="#6D6DF6"/>
<stop offset="1" stop-color="#9E9EFF"/>
</linearGradient>
<linearGradient id="paint1_linear" x1="414.441" y1="488.82" x2="519.784" y2="620.498" gradientUnits="userSpaceOnUse">
<stop stop-color="#363694"/>
<stop offset="1" stop-color="#5445B8"/>
</linearGradient>
<linearGradient id="paint2_linear" x1="379.327" y1="216.685" x2="458.334" y2="392.256" gradientUnits="userSpaceOnUse">
<stop stop-color="#9696FE"/>
<stop offset="1" stop-color="#7A7AF9"/>
</linearGradient>
<linearGradient id="paint3_linear" x1="593.639" y1="297.787" x2="632.529" y2="434.92" gradientUnits="userSpaceOnUse">
<stop stop-color="white"/>
<stop offset="1" stop-color="white"/>
</linearGradient>
</defs>
</svg>
