<svg width="480" height="322" viewBox="0 0 480 322" fill="none" xmlns="http://www.w3.org/2000/svg">
<path d="M81.0082 313.115C25.3419 307.92 127.397 300.126 185.382 296.879C264.75 296.879 496.331 296.879 456.103 313.115C415.876 329.351 150.591 319.609 81.0082 313.115Z" fill="#C3C5FB"/>
<path d="M73.3533 76.9458C116.684 55.3749 162.722 72.6317 207.678 58.0713C401.063 -16.8877 435.704 82.3386 468.202 144.894C500.7 207.45 453.036 250.592 417.289 258.681C381.541 266.77 182.763 252.749 79.8528 243.581C-23.057 234.414 19.1902 103.91 73.3533 76.9458Z" fill="#6D6DF6" fill-opacity="0.2"/>
<path d="M89.3181 75.0032C124.049 44.864 181.679 47.9716 206.153 53.2928C255.951 64.7866 301.919 30.9438 341.502 45.6303C381.085 60.3168 454.506 36.6907 473.021 145.243C491.536 253.795 389.53 250.927 302.702 246.458C215.874 241.988 181.892 283.71 89.3181 274.132C-3.25585 264.553 45.9041 112.677 89.3181 75.0032Z" fill="#6D6DF6" fill-opacity="0.1"/>
<path d="M337.091 75.5249C339.437 71.0933 345.998 73.6784 348.985 75.5249C354.036 77.6613 357.946 75.5249 358.598 80.2729C359.25 85.021 374.729 79.6399 380.431 81.5391C386.134 83.4383 378.15 87.395 369.189 90.7187C360.227 94.0423 357.621 93.0927 350.289 90.7187C342.957 88.3447 337.091 86.6037 326.337 87.395C315.584 88.1864 316.561 75.5249 319.983 74.7335C323.405 73.9422 334.158 81.0643 337.091 75.5249Z" fill="#9696FE"/>
<path d="M119.575 189.183C126.282 184.557 129.821 194.85 133.517 201.184C140.488 206.184 143.973 196.183 151.578 196.183C159.183 196.183 154.113 201.184 149.994 207.184C145.875 213.184 133.517 210.851 123.061 207.184C112.605 203.517 113.238 210.517 100.881 210.851C94.0153 210.665 83.3688 207.862 95.7071 198.133C111.13 185.971 108.81 197.203 119.575 189.183Z" fill="#6D6DF6"/>
<path d="M385.694 149.089C378.168 152.353 368.894 149.315 365.198 147.388C332.606 134.126 321.518 172.892 330.59 175.953C339.662 179.013 345.71 164.731 354.11 168.812C362.51 172.892 359.486 180.033 370.238 177.653C380.99 175.273 391.742 167.452 397.791 172.892C403.839 178.333 416.607 166.771 416.607 160.65C416.607 154.53 404.511 157.25 397.791 157.59C391.07 157.93 395.103 145.008 385.694 149.089Z" fill="#6D6DF6"/>
<path d="M25.8742 132.548C29.6345 127.97 40.7585 135.981 45.8505 140.56C54.6635 150.288 70.8209 140.56 72.2897 132.548C73.7586 124.536 68.177 114.522 63.1829 116.525C58.1889 118.528 52.901 118.241 43.7942 110.802C34.6874 103.363 32.0434 119.386 29.1057 123.106C26.1681 126.825 11.4796 125.109 10.892 132.548C10.3045 139.987 21.1739 138.27 25.8742 132.548Z" fill="#9696FE"/>
<path fill-rule="evenodd" clip-rule="evenodd" d="M175.22 230.871C171.173 231.282 167.434 232.315 168.474 234.795C170.208 238.932 178.627 235.802 182.157 233.895C182.549 232.638 182.533 231.673 181.525 230.78C179.025 230.488 175.812 230.811 175.22 230.871Z" fill="#A3CF80"/>
<path opacity="0.5" fill-rule="evenodd" clip-rule="evenodd" d="M178.501 0.0345553C177.003 33.6988 174.006 103.581 174.006 113.901H173.014C173.014 103.558 176.012 33.6487 177.51 0L178.501 0.0345553ZM223.459 9.40979V113.901H222.466V9.40979H223.459ZM294.49 9.40979V151.471H293.498V9.40979H294.49ZM336.75 18.7891L341.245 151.458L340.253 151.485L335.758 18.8154L336.75 18.7891Z" fill="#38454F"/>
<path d="M358.171 222.693L362.557 221.8V309.82H269.344C268.376 301.74 267.832 293.617 267.715 285.481C267.601 283.665 267.601 281.844 267.715 280.028C268.644 279.831 269.605 279.831 270.535 280.028L270.542 280.029C270.786 280.059 270.821 280.063 271.255 280.521C271.669 281.026 272.188 281.439 272.777 281.731C273.366 282.023 274.011 282.188 274.67 282.216C276.55 282.216 278.023 281.076 279.84 279.135C281.992 275.974 283.335 272.349 283.757 268.567C284.697 263.946 286.608 254.272 278.963 250.39C277.427 249.736 275.774 249.391 274.1 249.375C272.427 249.359 270.767 249.673 269.219 250.298C266.43 251.161 265.302 251.315 264.801 250.729C264.299 250.144 263.172 247.34 263.767 235.017V234.339C264.137 229.225 264.912 224.146 266.085 219.15C266.399 217.63 266.702 216.111 266.994 214.591V214.036L269.187 214.467C272.039 215.022 274.42 215.546 277.741 216.039C281.062 216.532 284.195 217.148 287.329 217.764L287.329 217.764C294.641 219.421 302.104 220.35 309.606 220.537H313.052H315.528L315.966 218.134C316.478 214.318 315.553 210.45 313.366 207.258C312.258 205.712 311.637 203.88 311.58 201.99C311.612 201.625 311.727 201.273 311.917 200.958C312.107 200.643 312.367 200.375 312.677 200.172C314.99 198.837 317.719 198.377 320.353 198.878C323.737 199.494 328.625 201.928 328.311 205.256C328.094 206.557 327.457 207.756 326.494 208.675C323.956 211.695 322.39 215.145 328.029 220.013C328.555 220.468 329.11 220.89 329.69 221.276L330.254 221.615L331.476 222.324L332.197 222.663L333.45 223.001L334.264 223.279L335.455 223.648L336.332 223.864L337.554 224.111H338.463L339.716 224.265H340.656H341.91H343.915C345.356 224.265 346.797 224.049 348.239 224.049H348.74C350.213 223.926 351.685 223.71 353.158 223.494L353.158 223.494H353.534L357.983 222.693H358.171Z" fill="url(#paint0_linear)"/>
<path d="M262.001 285.07C262.169 293.346 262.775 301.607 263.816 309.82H176.059V219.23L179.442 218.866C187.547 217.862 195.699 217.275 203.865 217.104C205.679 216.996 207.497 216.996 209.31 217.104C209.504 218.005 209.504 218.937 209.31 219.838L209.309 219.844C209.279 220.081 209.275 220.115 208.818 220.536C208.308 220.939 207.893 221.447 207.601 222.023C207.309 222.6 207.147 223.232 207.126 223.877C207.126 225.699 208.264 227.126 210.202 228.887C213.358 230.973 216.977 232.275 220.753 232.684L222.291 233.018H222.567L224.198 233.291H224.444L226.136 233.473H226.32H228.166H230.042H231.211H231.488L232.933 233.139L234.195 232.684L234.564 232.501L235.456 232.015L235.886 231.742L236.655 231.135L237.055 230.77C237.316 230.521 237.563 230.258 237.793 229.981L238.101 229.616C238.436 229.175 238.734 228.708 238.993 228.219C239.629 226.687 239.94 225.043 239.908 223.387C239.876 221.732 239.502 220.1 238.809 218.592C237.916 215.89 237.793 214.796 238.378 214.31C238.962 213.825 241.761 212.731 254.065 213.308H254.742C255.819 213.339 256.926 213.551 257.972 213.551H258.987L261.171 213.855H261.602V214.462C261.325 215.92 261.048 217.347 260.74 218.775C259.452 224.023 258.588 229.365 258.156 234.749V235.386C257.664 245.317 257.603 252.241 261.017 255.491C264.431 258.74 268.43 257.434 271.506 256.493C273.875 255.734 275.382 255.308 276.551 255.916C279.688 257.525 278.95 262.627 278.027 267.304C277.741 269.919 276.948 272.456 275.689 274.775L275.259 275.23C274.315 274.465 273.177 273.971 271.968 273.803C270.692 273.458 269.356 273.388 268.05 273.598C266.745 273.807 265.5 274.292 264.401 275.018C262.001 277.083 262.001 280.423 262.001 285.07Z" fill="url(#paint1_linear)"/>
<path d="M239.111 177.086L239.294 176.126C239.641 174.184 239.997 172.274 240.364 170.394C241.953 163.513 242.854 156.486 243.054 149.421C241.525 149.836 240.063 150.473 238.713 151.311C236.088 153.089 232.974 153.978 229.819 153.851C228.611 153.735 227.441 153.361 226.387 152.752C225.334 152.143 224.419 151.314 223.706 150.32C221.346 146.662 220.48 142.219 221.291 137.928C222.513 130.988 227.404 124.266 234.22 124.978C236.718 125.27 239.061 126.354 240.914 128.076C241.25 128.355 241.648 128.696 241.923 128.882C242.582 128.427 243.17 127.874 243.665 127.24C249.075 121.044 246.385 108.001 244.399 98.5525C244.154 97.3443 243.91 96.1671 243.696 95.0518C243.696 94.7111 243.696 94.3703 243.512 94.0295C243.329 93.6887 243.39 92.7284 243.145 92.1088H153.221V182.322L155.91 182.043C164.177 180.994 172.492 180.384 180.822 180.215C185.498 180.215 188.86 180.215 190.97 182.631C191.7 183.739 192.188 184.992 192.399 186.307C192.61 187.622 192.539 188.967 192.192 190.252C192.023 191.47 191.526 192.617 190.756 193.567L191.214 194.001C193.538 195.265 196.081 196.064 198.703 196.355C203.44 197.285 208.575 198.028 210.165 194.868C210.776 193.691 210.348 192.173 209.584 189.757C208.637 186.659 207.353 182.631 210.593 179.193C213.833 175.754 220.802 175.785 230.858 176.281H231.5C232.753 176.281 233.945 176.435 235.107 176.559H236.115L238.591 176.9H239.019L239.111 177.086Z" fill="url(#paint2_linear)"/>
<path fill-rule="evenodd" clip-rule="evenodd" d="M233.866 155.603C233.884 155.635 233.905 155.664 233.928 155.692C234.019 155.801 234.143 155.878 234.282 155.911C234.42 155.945 234.566 155.933 234.698 155.878C234.867 155.809 235.002 155.676 235.074 155.509C235.147 155.343 235.152 155.155 235.088 154.985C235.038 154.857 234.95 154.747 234.835 154.671C234.82 154.662 234.804 154.652 234.789 154.644L233.843 154.081C233.783 154.033 233.712 154.002 233.636 153.992C233.561 153.981 233.483 153.991 233.413 154.021C233.306 154.064 233.22 154.148 233.173 154.254C233.127 154.36 233.124 154.479 233.165 154.587C233.175 154.6 233.178 154.618 233.185 154.632C233.203 154.66 233.223 154.685 233.245 154.709L233.866 155.603Z" fill="#FF8685"/>
<path fill-rule="evenodd" clip-rule="evenodd" d="M250.022 266.445C250.327 266.693 255.834 272.834 255.425 274.158L246.556 269.609C246.556 269.609 248.226 267.108 250.022 266.445Z" fill="#281616"/>
<path fill-rule="evenodd" clip-rule="evenodd" d="M229.612 267.336C229.327 267.606 224.31 274.153 224.82 275.442L233.312 270.223C233.312 270.223 231.454 267.858 229.612 267.336Z" fill="#281616"/>
<path fill-rule="evenodd" clip-rule="evenodd" d="M238.867 213.13L236.542 236.651L235.814 244.052L233.241 269.987L228.511 269.857L230.355 214.154C230.355 214.154 237.48 208.898 238.867 213.13Z" fill="#281616"/>
<path fill-rule="evenodd" clip-rule="evenodd" d="M236.081 214.875C235.775 216.865 236.472 219.931 238.39 222.798L239.342 229.132L240.566 235.974L241.895 243.406L246.556 269.446L250.893 267.716L244.354 212.735C244.354 212.735 236.981 210.017 236.081 214.875Z" fill="#6D6DF6"/>
<path fill-rule="evenodd" clip-rule="evenodd" d="M217.989 207.253C219.024 204.92 220.366 204.346 222.167 205.294C227.127 207.906 217.678 222.567 216.184 223.182C214.885 223.719 213.784 222.899 213.776 220.982C213.769 219.131 216.926 209.647 217.989 207.253Z" fill="#FFEEEA"/>
<path fill-rule="evenodd" clip-rule="evenodd" d="M219.322 201.219C217.797 205.833 218.348 208.315 221.006 209.432C226.382 211.691 225.918 192.877 224.996 191.159C224.195 189.665 222.879 189.337 221.922 190.752C220.172 193.322 219.579 200.441 219.322 201.219Z" fill="#FFEEEA"/>
<path fill-rule="evenodd" clip-rule="evenodd" d="M233.247 182.901C232.416 187.875 233.272 190.062 235.941 190.189C241.343 190.445 238.388 172.542 237.284 171.221C236.325 170.072 235.037 170.227 234.313 171.924C232.998 175.015 233.387 182.062 233.247 182.901Z" fill="#FFEEEA"/>
<path fill-rule="evenodd" clip-rule="evenodd" d="M236.345 177.951C239.941 181.861 238.106 158.231 237.087 156.678C236.199 155.325 235.051 155.425 234.445 157.293C232.917 162.008 232.182 182.12 236.345 177.951Z" fill="#FFEEEA"/>
<path fill-rule="evenodd" clip-rule="evenodd" d="M223.635 180.111C223.672 180.601 223.661 181.061 223.541 181.322C223.196 182.087 222.124 180.704 221.712 180.18C221.3 179.656 220.657 178.896 221.092 178.606C221.286 178.502 221.494 178.427 221.709 178.385C221.453 177.706 219.646 175.467 222.705 174.236C225.123 173.264 227.285 173.758 227.866 172.29C228.447 170.821 229.83 172.591 229.053 175.132C228.275 177.673 226.303 179.456 224.884 179.839C224.473 179.958 224.056 180.049 223.635 180.111Z" fill="white"/>
<path fill-rule="evenodd" clip-rule="evenodd" d="M228.8 175.084C228.8 175.084 229.347 177.516 228.984 178.283C228.622 179.049 227.554 177.686 227.144 177.168C226.734 176.651 226.09 175.901 226.535 175.606C226.98 175.311 228.8 175.084 228.8 175.084Z" fill="#281616"/>
<path fill-rule="evenodd" clip-rule="evenodd" d="M227.626 173.217C227.739 173.711 233.5 181.473 230.778 183.302C230.067 183.78 228.719 183.403 227.925 183.362C225.676 183.247 223.942 181.882 223.203 179.689C222.21 176.719 227.626 173.217 227.626 173.217Z" fill="#FFE1DA"/>
<path fill-rule="evenodd" clip-rule="evenodd" d="M230.329 178.882C230.538 179.307 230.731 179.738 230.906 180.173C230.898 180.213 230.883 180.249 230.863 180.277C230.75 180.44 230.5 180.27 230.305 179.899C230.11 179.528 230.043 179.094 230.157 178.932C230.175 178.904 230.199 178.885 230.229 178.877C230.259 178.868 230.293 178.87 230.329 178.882Z" fill="#FF8685"/>
<path fill-rule="evenodd" clip-rule="evenodd" d="M231.145 182.963C231.045 183.092 230.925 183.204 230.789 183.296C230.076 183.776 228.718 183.39 227.92 183.347C225.656 183.223 223.908 181.837 223.157 179.619C223.081 179.394 223.039 179.158 223.033 178.919C224.112 176.64 227.22 174.629 227.22 174.629C227.311 175.025 230.938 179.975 231.145 182.963Z" fill="#FFD3CA"/>
<path fill-rule="evenodd" clip-rule="evenodd" d="M227.365 172.77C227.41 172.977 228.386 174.377 229.373 176.115C228.274 178.113 226.499 179.439 225.165 179.738C224.254 179.943 223.379 180.106 222.62 179.936C222.593 179.863 222.566 179.789 222.545 179.72C221.514 176.577 227.365 172.77 227.365 172.77Z" fill="#FF8685"/>
<path fill-rule="evenodd" clip-rule="evenodd" d="M225.111 183.637L228.267 190.041L233.241 186.216L227.886 180.181L225.111 183.637Z" fill="#FF8685"/>
<path fill-rule="evenodd" clip-rule="evenodd" d="M221.535 179.056C221.535 179.056 221.267 178.577 221.889 178.528C222.446 178.484 219.313 175.559 222.835 174.163C225.202 173.225 227.346 173.762 227.892 172.292C228.438 170.821 229.836 172.63 229.114 175.179C228.392 177.728 226.479 179.491 225.085 179.852C223.692 180.213 222.394 180.455 221.535 179.056Z" fill="#412F2F"/>
<path fill-rule="evenodd" clip-rule="evenodd" d="M228.516 176.7C228.516 176.7 228.077 181.875 227.194 182.884C226.312 183.893 225.053 181.203 224.221 180.159C223.389 179.115 222.083 177.602 223.002 176.986C223.92 176.371 228.516 176.7 228.516 176.7Z" fill="#FF8685"/>
<path fill-rule="evenodd" clip-rule="evenodd" d="M221.497 178.99C221.497 178.99 221.221 178.496 221.849 178.453C221.93 178.448 221.93 178.381 221.89 178.266L221.887 178.26C221.878 178.246 221.869 178.229 221.866 178.21C219.734 172.878 229.298 177.073 229.106 172.459C229.326 173.098 229.397 174.04 229.109 175.102C228.41 177.705 226.496 179.491 225.092 179.845C223.688 180.199 222.382 180.433 221.497 178.99Z" fill="#281616"/>
<path fill-rule="evenodd" clip-rule="evenodd" d="M227.725 176.34C227.725 176.34 227.999 181.675 226.811 183.523C225.623 185.372 223.65 182.621 222.755 181.608C221.86 180.594 220.435 179.145 221.684 178.322C222.934 177.499 227.725 176.34 227.725 176.34Z" fill="#281616"/>
<path fill-rule="evenodd" clip-rule="evenodd" d="M227.511 178.561C227.511 178.561 227.357 177.29 227.939 177.221C228.52 177.153 229.388 179.64 228.921 180.152C228.455 180.663 227.762 180.198 227.511 178.561Z" fill="#FFD3CA"/>
<path fill-rule="evenodd" clip-rule="evenodd" d="M222.06 178.695C222.065 178.704 225.21 181.397 227.625 176.3L227.734 176.361C225.247 181.601 221.995 178.807 221.986 178.799L222.06 178.695Z" fill="#412F2F"/>
<path fill-rule="evenodd" clip-rule="evenodd" d="M220.613 178.462C220.613 178.462 221.008 177.733 221.686 178.261L221.636 178.342C221.04 177.878 220.697 178.513 220.697 178.516L220.613 178.462Z" fill="#281616"/>
<path fill-rule="evenodd" clip-rule="evenodd" d="M221.016 178.094C221.016 178.094 221.607 177.86 221.94 178.763L221.866 178.784C221.576 177.989 221.059 178.196 221.057 178.196L221.016 178.094Z" fill="#281616"/>
<path fill-rule="evenodd" clip-rule="evenodd" d="M228.307 177.576C228.158 178.327 228.171 178.886 228.247 179.252C228.424 180.104 228.939 179.934 228.584 178.817L228.467 178.857C228.764 179.734 228.471 179.829 228.353 179.197C228.278 178.667 228.302 178.124 228.426 177.595L228.307 177.576Z" fill="#FF8685"/>
<path fill-rule="evenodd" clip-rule="evenodd" d="M222.612 190.628L226.896 187.185C226.896 187.185 227.865 187.79 231.967 184.88C233.977 185.191 237.131 181.189 238.882 182.345C241.282 187.247 241.948 204.751 244.597 212.876C245.041 214.24 231.577 215.377 230.115 214.428C228.704 208.298 228.629 205.736 225.905 202.112C221.27 195.948 222.612 190.628 222.612 190.628Z" fill="white"/>
<path fill-rule="evenodd" clip-rule="evenodd" d="M216.791 223.213C217.316 222.661 217.149 221.662 216.42 220.986C215.69 220.31 214.673 220.205 214.148 220.759C213.624 221.313 213.79 222.31 214.519 222.986C215.249 223.662 216.267 223.767 216.791 223.213Z" fill="#281616"/>
<path fill-rule="evenodd" clip-rule="evenodd" d="M214.766 226.382C214.766 226.382 216.524 224.271 216.699 222.99C216.859 221.827 214.36 220.434 213.525 221.227C212.609 222.096 211.925 224.809 211.925 224.809L214.766 226.382Z" fill="#FF8685"/>
<path fill-rule="evenodd" clip-rule="evenodd" d="M212.023 223.879L212.036 223.852C212.062 223.799 212.098 223.752 212.142 223.714C212.185 223.676 212.236 223.648 212.29 223.631C212.345 223.614 212.402 223.609 212.459 223.615C212.516 223.622 212.571 223.64 212.62 223.669C212.722 223.728 212.798 223.827 212.832 223.943C212.866 224.06 212.855 224.185 212.802 224.293L212.788 224.319L210.79 228.02C210.776 228.048 210.761 228.075 210.743 228.1C210.7 228.158 210.638 228.198 210.569 228.212C210.5 228.227 210.428 228.216 210.365 228.181C210.297 228.14 210.246 228.075 210.221 227.997C210.196 227.919 210.201 227.835 210.233 227.761L210.242 227.74L212.023 223.879Z" fill="#FF8685"/>
<path fill-rule="evenodd" clip-rule="evenodd" d="M212.738 224.846L212.749 224.817C212.774 224.761 212.81 224.711 212.855 224.668C212.901 224.626 212.954 224.592 213.013 224.57C213.072 224.547 213.135 224.536 213.198 224.537C213.261 224.538 213.323 224.551 213.381 224.575C213.498 224.625 213.59 224.718 213.637 224.832C213.684 224.947 213.681 225.074 213.631 225.188L213.617 225.216L211.682 229.193C211.646 229.27 211.58 229.33 211.498 229.36C211.416 229.391 211.325 229.39 211.244 229.357C211.164 229.322 211.101 229.259 211.068 229.18C211.035 229.101 211.036 229.014 211.069 228.935L212.738 224.846Z" fill="#FF8685"/>
<path fill-rule="evenodd" clip-rule="evenodd" d="M213.508 224.759L213.522 224.73C213.55 224.674 213.589 224.625 213.636 224.585C213.684 224.545 213.739 224.514 213.798 224.496C213.857 224.478 213.92 224.471 213.981 224.477C214.043 224.484 214.103 224.502 214.158 224.532C214.269 224.594 214.352 224.697 214.389 224.819C214.426 224.942 214.414 225.074 214.356 225.187L214.341 225.215L212.15 229.17C212.109 229.247 212.039 229.304 211.957 229.328C211.874 229.353 211.785 229.345 211.709 229.304C211.633 229.261 211.577 229.19 211.55 229.106C211.524 229.022 211.531 228.931 211.569 228.852L213.508 224.759Z" fill="#FF8685"/>
<path fill-rule="evenodd" clip-rule="evenodd" d="M214.474 225.627L214.483 225.604C214.504 225.56 214.534 225.52 214.572 225.487C214.609 225.454 214.653 225.428 214.701 225.411C214.748 225.395 214.799 225.387 214.85 225.389C214.901 225.391 214.95 225.403 214.996 225.424C215.089 225.467 215.161 225.542 215.195 225.635C215.23 225.728 215.225 225.83 215.182 225.92L215.17 225.943L213.522 229.08C213.491 229.14 213.436 229.186 213.37 229.209C213.304 229.232 213.232 229.229 213.168 229.202C213.105 229.172 213.056 229.12 213.032 229.056C213.007 228.993 213.009 228.922 213.037 228.86L214.474 225.627Z" fill="#FF8685"/>
<path fill-rule="evenodd" clip-rule="evenodd" d="M210.946 223.867C210.88 223.81 210.842 223.731 210.841 223.647C210.84 223.564 210.876 223.483 210.942 223.422C210.979 223.388 211.024 223.362 211.074 223.346C211.688 223.001 212.196 222.226 212.284 222.086L212.284 222.08C212.305 222.049 212.329 222.02 212.357 221.993C212.403 221.951 212.457 221.918 212.516 221.894C212.576 221.871 212.64 221.858 212.705 221.857C212.77 221.856 212.834 221.866 212.894 221.888C212.954 221.909 213.008 221.94 213.053 221.981C213.133 222.051 213.183 222.144 213.195 222.244C213.208 222.343 213.183 222.445 213.123 222.532C212.567 223.4 211.316 223.963 211.302 223.942C211.24 223.961 211.174 223.964 211.111 223.95C211.048 223.937 210.991 223.908 210.946 223.867Z" fill="#FF8685"/>
<path fill-rule="evenodd" clip-rule="evenodd" d="M213.599 221.163C213.633 221.137 213.67 221.113 213.709 221.094C213.86 221.015 214.031 220.987 214.199 221.012C214.367 221.037 214.523 221.116 214.643 221.235C214.798 221.387 214.887 221.593 214.891 221.81C214.894 222.026 214.812 222.235 214.662 222.392C214.549 222.511 214.401 222.592 214.24 222.622C214.218 222.626 214.196 222.627 214.175 222.628L212.874 222.82C212.787 222.846 212.694 222.848 212.606 222.826C212.518 222.804 212.437 222.758 212.373 222.694C212.276 222.598 212.22 222.468 212.217 222.332C212.215 222.195 212.266 222.063 212.36 221.964C212.374 221.95 212.389 221.937 212.405 221.924C212.436 221.898 212.471 221.876 212.508 221.858L213.599 221.163Z" fill="#FF8685"/>
<path fill-rule="evenodd" clip-rule="evenodd" d="M234.249 155.247C233.935 155.889 234.349 156.744 235.174 157.159C235.999 157.575 236.922 157.389 237.236 156.748C237.551 156.107 237.135 155.251 236.31 154.836C235.486 154.422 234.562 154.605 234.249 155.247Z" fill="#281616"/>
<path fill-rule="evenodd" clip-rule="evenodd" d="M237.542 152.286C237.542 152.286 237.811 155.317 237.031 156.248C236.318 157.097 233.733 156.219 233.746 155.135C233.842 154.396 234.557 152.286 234.557 152.286L237.542 152.286Z" fill="#FF8685"/>
<path fill-rule="evenodd" clip-rule="evenodd" d="M232.808 152.697C232.743 152.725 232.69 152.776 232.659 152.839C232.628 152.901 232.623 152.97 232.643 153.03C232.655 153.064 232.676 153.094 232.703 153.118C232.984 153.514 233.037 154.211 233.043 154.338L233.046 154.341C233.048 154.369 233.053 154.397 233.062 154.423C233.077 154.465 233.1 154.502 233.131 154.534C233.162 154.565 233.2 154.588 233.243 154.604C233.285 154.619 233.332 154.626 233.379 154.623C233.426 154.621 233.474 154.609 233.519 154.589C233.598 154.553 233.665 154.494 233.71 154.42C233.755 154.347 233.774 154.264 233.766 154.185C233.714 153.406 233.091 152.701 233.073 152.714C233.038 152.687 232.995 152.671 232.948 152.668C232.901 152.664 232.852 152.674 232.808 152.697Z" fill="#FF8685"/>
<path fill-rule="evenodd" clip-rule="evenodd" d="M236.116 153.713C236.162 153.717 236.209 153.712 236.254 153.697C236.299 153.683 236.341 153.66 236.378 153.629C236.415 153.598 236.446 153.561 236.469 153.519C236.492 153.477 236.507 153.431 236.512 153.383L236.804 151.639L236.807 151.622C236.822 151.509 236.792 151.397 236.725 151.31C236.658 151.223 236.559 151.168 236.449 151.157C236.339 151.146 236.227 151.181 236.139 151.253C236.05 151.325 235.992 151.429 235.977 151.541L235.976 151.558L235.978 151.563L235.813 153.313C235.806 153.361 235.808 153.409 235.819 153.455C235.831 153.501 235.851 153.544 235.879 153.582C235.908 153.619 235.943 153.65 235.984 153.672C236.024 153.695 236.069 153.709 236.116 153.713Z" fill="#FF8685"/>
<path fill-rule="evenodd" clip-rule="evenodd" d="M235.658 153.532C235.614 153.531 235.571 153.522 235.53 153.504C235.49 153.486 235.454 153.46 235.424 153.428C235.394 153.395 235.37 153.356 235.355 153.314C235.339 153.272 235.332 153.227 235.334 153.181L235.312 151.493L235.311 151.477C235.314 151.368 235.358 151.264 235.434 151.186C235.51 151.109 235.612 151.066 235.717 151.066C235.823 151.066 235.923 151.109 235.995 151.186C236.068 151.263 236.108 151.368 236.105 151.476L236.104 151.492L236.106 151.497L236.004 153.184C236.003 153.23 235.993 153.276 235.975 153.318C235.957 153.36 235.932 153.399 235.899 153.431C235.867 153.463 235.829 153.489 235.788 153.506C235.746 153.523 235.702 153.532 235.658 153.532Z" fill="#FF8685"/>
<path fill-rule="evenodd" clip-rule="evenodd" d="M234.803 153.832C234.758 153.831 234.715 153.822 234.675 153.804C234.635 153.786 234.599 153.76 234.568 153.728C234.538 153.695 234.515 153.656 234.499 153.614C234.484 153.572 234.477 153.527 234.478 153.481L234.456 151.793L234.456 151.777C234.458 151.668 234.502 151.564 234.579 151.486C234.655 151.409 234.757 151.366 234.862 151.366C234.967 151.366 235.067 151.409 235.14 151.486C235.213 151.563 235.252 151.668 235.25 151.776L235.249 151.792L235.251 151.797L235.149 153.484C235.148 153.53 235.138 153.576 235.12 153.618C235.102 153.66 235.076 153.699 235.044 153.731C235.012 153.763 234.974 153.789 234.932 153.806C234.891 153.823 234.847 153.832 234.803 153.832Z" fill="#FF8685"/>
<path fill-rule="evenodd" clip-rule="evenodd" d="M236.889 153.998C236.969 154.003 237.05 153.976 237.113 153.923C237.177 153.87 237.219 153.795 237.229 153.714L237.492 152.251L237.495 152.237C237.502 152.191 237.499 152.144 237.488 152.099C237.476 152.054 237.456 152.013 237.427 151.977C237.399 151.942 237.364 151.912 237.324 151.891C237.283 151.87 237.239 151.857 237.192 151.853C237.146 151.849 237.099 151.855 237.053 151.869C237.008 151.884 236.965 151.907 236.928 151.937C236.89 151.967 236.859 152.005 236.835 152.046C236.811 152.088 236.795 152.134 236.789 152.18L236.787 152.193L236.633 153.666C236.627 153.706 236.628 153.746 236.638 153.785C236.647 153.823 236.664 153.859 236.688 153.89C236.712 153.921 236.742 153.946 236.776 153.965C236.811 153.983 236.849 153.995 236.889 153.998Z" fill="#FF8685"/>
<path d="M174.991 244.769C174.116 245.638 172.576 245.941 171.915 245.984C170.813 246.502 169.241 247.694 171.768 248.315C174.926 249.091 176.258 247.349 176.787 247.223C177.317 247.097 179.216 247.787 179.739 247.977C180.157 248.129 180.185 247.786 180.146 247.595C179.419 247.278 177.842 246.568 177.351 246.262C177.735 246.242 179.696 247.06 180.391 247.366C180.947 247.61 181.17 247.243 181.212 247.028C180.354 246.628 178.4 245.742 177.451 245.397C177.705 245.436 180.368 246.245 181.016 246.533C181.534 246.764 181.662 246.432 181.661 246.237C181.062 245.913 179.531 245.145 178.201 244.662C178.867 244.162 180.949 245.237 181.139 245.306C181.329 245.375 181.818 244.916 181.343 244.744C179.234 243.447 178.029 243.805 177.286 243.482C176.543 243.159 176.084 243.682 174.991 244.769Z" fill="#FFD3CA"/>
<path fill-rule="evenodd" clip-rule="evenodd" d="M173.905 248.743C174.56 248.353 174.67 247.346 174.151 246.498C173.633 245.649 172.682 245.272 172.027 245.663C171.372 246.054 171.261 247.059 171.78 247.908C172.299 248.756 173.25 249.133 173.905 248.743Z" fill="#281616"/>
<path fill-rule="evenodd" clip-rule="evenodd" d="M175.291 234.617C175.679 239.112 157.603 235.856 157.603 232.872C155.996 227.002 175.806 232.018 175.291 234.617Z" fill="#A3CF80"/>
<path d="M157.709 278.022L152.474 253.322C149.896 249.627 143.482 255.485 143.482 255.485L150.994 280.64L145.189 308.071L149.173 308.071L157.254 283.144C158.18 280.476 157.991 279.489 157.72 278.078L157.709 278.022Z" fill="#281616"/>
<path d="M143.938 279.843L149.941 255.177C149.141 250.296 140.69 253.377 140.69 253.377L136.653 280.184L119.011 301.81L121.287 304.77L141.889 284.623C143.189 283.67 143.541 281.575 143.938 279.843Z" fill="#6D6DF6"/>
<path fill-rule="evenodd" clip-rule="evenodd" d="M144.749 254.753L141.802 256.747C141.802 256.747 143.742 262.607 147.091 262.624C150.44 262.641 153.221 253.489 153.221 253.489L144.749 254.753Z" fill="#6D6DF6"/>
<path fill-rule="evenodd" clip-rule="evenodd" d="M156.665 219.789C156.665 219.789 156.693 219.248 157.195 219.616C157.26 219.664 157.295 219.615 157.318 219.502C157.323 219.486 157.328 219.47 157.333 219.452C158.325 214.115 163.555 223.357 165.671 219.796C165.459 220.571 165.005 221.259 164.374 221.759C162.565 223.252 160.231 223.359 158.988 222.726C157.744 222.092 156.632 221.429 156.665 219.789Z" fill="#281616"/>
<path fill-rule="evenodd" clip-rule="evenodd" d="M156.917 221.595C156.703 222.02 156.468 222.392 156.248 222.542C155.603 222.978 155.459 221.239 155.402 220.578C155.345 219.916 155.221 218.928 155.7 218.932C155.903 218.955 156.101 219.01 156.287 219.094C156.419 218.391 156.133 215.534 159.102 216.228C161.452 216.779 162.872 218.395 164.044 217.507C165.215 216.62 165.412 218.854 163.558 220.515C161.704 222.177 159.303 222.547 158.019 222.07C157.641 221.937 157.273 221.778 156.917 221.595Z" fill="white"/>
<path fill-rule="evenodd" clip-rule="evenodd" d="M163.66 220.167C163.66 220.167 162.905 222.471 162.274 222.901C161.642 223.331 161.504 221.62 161.45 220.968C161.395 220.317 161.275 219.344 161.743 219.347C162.212 219.349 163.66 220.167 163.66 220.167Z" fill="#281616"/>
<path fill-rule="evenodd" clip-rule="evenodd" d="M158.694 222.406L156.96 222.677L153.825 229.641L158.245 232.063L160.301 225.751L158.694 222.406Z" fill="#FFE1DA"/>
<path fill-rule="evenodd" clip-rule="evenodd" d="M157.508 231.655L158.248 232.063L160.308 225.765L159.74 224.556L159.593 224.583L157.508 231.655Z" fill="#FF8685"/>
<path fill-rule="evenodd" clip-rule="evenodd" d="M158.571 222.072L157.658 222.251C156.639 224.676 157.177 228.201 159.733 229.191L161.005 225.565L158.571 222.072Z" fill="#412F2F"/>
<path fill-rule="evenodd" clip-rule="evenodd" d="M162.892 218.233C162.741 218.67 163.444 227.635 160.453 227.59C157.462 227.544 155.679 223.619 156.347 220.829C157.015 218.039 162.892 218.233 162.892 218.233Z" fill="#FFD3CA"/>
<path fill-rule="evenodd" clip-rule="evenodd" d="M159.167 227.339C156.974 226.365 155.779 223.201 156.341 220.848C156.482 220.263 156.853 219.81 157.352 219.459C157.871 219.598 158.293 219.721 158.293 219.721C158.293 219.721 157.682 223.367 158.401 224.307C158.952 225.023 159.065 226.459 159.167 227.339Z" fill="#FFE1DA"/>
<path fill-rule="evenodd" clip-rule="evenodd" d="M162.823 218.212C162.762 218.389 162.821 219.924 162.73 221.715C161.062 222.641 159.221 222.725 158.147 222.271C157.416 221.96 156.729 221.638 156.276 221.127C156.29 221.056 156.305 220.988 156.32 220.924C157.009 218.072 162.823 218.212 162.823 218.212Z" fill="#FF8685"/>
<path fill-rule="evenodd" clip-rule="evenodd" d="M162.835 218.216C162.689 218.638 163.443 227.006 160.735 227.565C160.738 227.524 160.755 227.486 160.783 227.455C161.25 226.886 160.925 226.421 160.855 226.074C160.788 225.809 160.824 225.533 160.955 225.297C161.07 225.061 160.888 225.093 160.884 224.898C160.88 224.704 161.117 224.649 161.111 224.524C161.105 224.398 161.001 224.109 161.083 223.963C161.164 223.817 161.807 223.877 161.89 223.649C161.974 223.422 161.376 219.366 161.349 219.156L162.323 218.211C162.642 218.207 162.835 218.216 162.835 218.216Z" fill="#FF8685"/>
<path fill-rule="evenodd" clip-rule="evenodd" d="M155.758 219.642C155.758 219.642 155.788 219.093 156.309 219.401C156.778 219.678 155.784 215.49 159.292 216.299C161.653 216.848 163.072 218.496 164.258 217.579C165.443 216.663 165.625 218.951 163.75 220.664C161.875 222.378 159.456 222.77 158.167 222.289C156.878 221.808 155.725 221.284 155.758 219.642Z" fill="#412F2F"/>
<path fill-rule="evenodd" clip-rule="evenodd" d="M155.75 219.666C155.75 219.666 155.777 219.127 156.298 219.433C156.365 219.471 156.401 219.42 156.425 219.306C156.429 219.29 156.434 219.274 156.434 219.254C157.43 213.902 162.895 222.375 165.058 218.636C164.911 219.262 164.494 220.039 163.732 220.722C161.869 222.396 159.456 222.769 158.166 222.289C156.876 221.81 155.725 221.278 155.75 219.666Z" fill="#281616"/>
<path fill-rule="evenodd" clip-rule="evenodd" d="M157.816 219.863C157.816 219.863 157.062 222.168 156.43 222.597C155.798 223.027 155.659 221.316 155.606 220.665C155.552 220.014 155.431 219.04 155.899 219.043C156.368 219.046 157.816 219.863 157.816 219.863Z" fill="#281616"/>
<path fill-rule="evenodd" clip-rule="evenodd" d="M156.498 222.216C156.498 222.216 156.079 221.175 155.577 221.37C155.076 221.566 155.437 223.847 156.034 224.039C156.631 224.232 156.995 223.581 156.498 222.216Z" fill="#FFE1DA"/>
<path fill-rule="evenodd" clip-rule="evenodd" d="M150.466 228.984L154.325 227.726C154.325 227.726 157.33 231.142 159.206 229.876C159.94 230.159 162.021 229.368 162.925 230.701C163.493 231.539 161.979 234.106 161.92 234.883C157.937 242.281 154.325 252.753 153.725 258.33C152.814 258.899 145.871 254.347 141.887 254.802C141.61 254.036 148.004 244.495 148.678 240.025C149.457 234.846 150.466 228.984 150.466 228.984Z" fill="#A3CF80"/>
<path d="M140.295 254.574C140.454 255.073 143.482 254.574 145.645 255.371C146.471 253.809 145.598 250.533 147.466 245.582C154.386 233.745 152.474 229.571 150.653 228.964C144.962 230.785 140.295 254.574 140.295 254.574Z" fill="#8FB575"/>
<path fill-rule="evenodd" clip-rule="evenodd" d="M156.547 219.669C156.551 219.678 157.789 222.771 161.964 220.807L162.022 220.895C157.729 222.914 156.445 219.707 156.441 219.698L156.547 219.669Z" fill="#412F2F"/>
<path fill-rule="evenodd" clip-rule="evenodd" d="M155.267 218.846C155.267 218.846 156.156 218.445 156.537 219.367L156.427 219.408C156.088 218.596 155.318 218.948 155.317 218.949L155.267 218.846Z" fill="#281616"/>
<path fill-rule="evenodd" clip-rule="evenodd" d="M155.619 218.459C155.619 218.459 156.72 218.71 156.517 219.434L156.388 219.396C156.566 218.759 155.607 218.54 155.604 218.539L155.619 218.459Z" fill="#281616"/>
<path fill-rule="evenodd" clip-rule="evenodd" d="M159.687 224.775C159.687 224.775 160.678 225.079 161.251 224.869L161.292 224.963C160.683 225.186 159.66 224.874 159.657 224.873L159.687 224.775Z" fill="#FF8685"/>
<path fill-rule="evenodd" clip-rule="evenodd" d="M159.71 224.703C159.71 224.703 159.551 224.733 159.632 224.821L159.499 224.825C159.372 224.679 159.622 224.625 159.622 224.624L159.71 224.703Z" fill="#FF8685"/>
<path fill-rule="evenodd" clip-rule="evenodd" d="M156.591 224.022C156.591 224.016 156.591 224.011 156.593 224.006C156.594 224.001 156.596 223.997 156.6 223.993C156.603 223.989 156.607 223.986 156.612 223.983C156.616 223.981 156.621 223.98 156.626 223.979C156.636 223.978 156.646 223.981 156.654 223.987C156.662 223.994 156.668 224.003 156.669 224.013C156.751 224.655 156.979 225.27 157.336 225.81C157.692 226.35 158.168 226.801 158.726 227.129C158.73 227.131 158.734 227.134 158.737 227.138C158.74 227.142 158.742 227.147 158.743 227.152C158.745 227.157 158.745 227.162 158.744 227.167C158.743 227.172 158.741 227.176 158.739 227.181C158.736 227.185 158.733 227.189 158.729 227.192C158.724 227.195 158.72 227.198 158.715 227.199C158.71 227.2 158.705 227.201 158.7 227.2C158.694 227.199 158.69 227.198 158.685 227.195C158.117 226.861 157.633 226.401 157.27 225.851C156.907 225.301 156.675 224.675 156.591 224.022Z" fill="white"/>
<path fill-rule="evenodd" clip-rule="evenodd" d="M155.649 221.789C156.102 222.322 156.338 222.77 156.438 223.093C156.672 223.843 156.184 223.93 155.975 222.89L156.087 222.872C156.235 223.693 156.512 223.645 156.329 223.094C156.157 222.644 155.898 222.223 155.566 221.855L155.649 221.789Z" fill="#FF8685"/>
<path fill-rule="evenodd" clip-rule="evenodd" d="M158.193 223.55C158.295 223.542 158.399 223.553 158.5 223.581C158.6 223.609 158.695 223.654 158.778 223.713C158.862 223.773 158.932 223.845 158.986 223.926C159.039 224.007 159.074 224.095 159.089 224.185C159.117 224.369 159.063 224.548 158.937 224.686C158.811 224.824 158.625 224.908 158.416 224.921C158.314 224.929 158.21 224.918 158.109 224.89C158.009 224.862 157.914 224.817 157.83 224.757C157.746 224.698 157.676 224.626 157.622 224.545C157.569 224.464 157.534 224.376 157.519 224.286C157.491 224.102 157.546 223.922 157.671 223.784C157.797 223.647 157.984 223.563 158.193 223.55Z" fill="#FF8685"/>
<path fill-rule="evenodd" clip-rule="evenodd" d="M159.813 222.553C159.843 222.554 159.873 222.561 159.9 222.573C159.927 222.586 159.951 222.604 159.972 222.626C159.992 222.647 160.007 222.673 160.017 222.701C160.027 222.729 160.032 222.759 160.03 222.788C160.026 222.848 159.999 222.904 159.954 222.945C159.909 222.985 159.85 223.007 159.789 223.006C159.76 223.005 159.73 222.998 159.703 222.985C159.676 222.973 159.651 222.955 159.631 222.933C159.611 222.911 159.595 222.885 159.585 222.857C159.575 222.83 159.571 222.8 159.573 222.77C159.576 222.71 159.603 222.654 159.648 222.613C159.693 222.572 159.752 222.551 159.813 222.553Z" fill="#281616"/>
<path fill-rule="evenodd" clip-rule="evenodd" d="M158.916 222.561L160.041 222.613L160.032 222.803L158.906 222.752L158.916 222.561Z" fill="#281616"/>
<path fill-rule="evenodd" clip-rule="evenodd" d="M161.768 222.561L162.83 222.724L162.877 222.825L161.815 222.661L161.768 222.561Z" fill="#281616"/>
<path fill-rule="evenodd" clip-rule="evenodd" d="M162.169 222.544C162.198 222.542 162.228 222.546 162.257 222.556C162.285 222.565 162.311 222.581 162.333 222.6C162.355 222.62 162.373 222.644 162.386 222.671C162.399 222.698 162.406 222.727 162.407 222.756C162.409 222.817 162.387 222.875 162.346 222.92C162.305 222.965 162.249 222.992 162.188 222.996C162.158 222.998 162.128 222.993 162.1 222.984C162.071 222.974 162.045 222.958 162.023 222.939C162.001 222.919 161.983 222.895 161.97 222.868C161.958 222.841 161.951 222.812 161.949 222.782C161.947 222.722 161.969 222.663 162.01 222.619C162.051 222.574 162.108 222.547 162.169 222.544Z" fill="#281616"/>
<path fill-rule="evenodd" clip-rule="evenodd" d="M146.592 305.377C146.592 304.571 156.772 307.916 157.027 309.059H144.848C144.848 309.059 145.214 306.557 146.592 305.377Z" fill="#281616"/>
<path fill-rule="evenodd" clip-rule="evenodd" d="M119.331 300.951C119.878 300.254 124.804 308.798 124.209 309.928L116.052 303.404C116.052 303.404 117.555 301.207 119.331 300.951Z" fill="#281616"/>
<path fill-rule="evenodd" clip-rule="evenodd" d="M146.369 258.203L141.98 261.102L141.802 260.955L146.191 258.057L146.369 258.203Z" fill="black"/>
<path fill-rule="evenodd" clip-rule="evenodd" d="M153.397 228C153.406 228.015 156.367 233.475 159.991 230.704L160.142 230.934C156.272 233.894 153.175 228.174 153.162 228.156L153.397 228Z" fill="#8FB575"/>
<path fill-rule="evenodd" clip-rule="evenodd" d="M162.676 232.151C162.671 232.149 160.979 231.955 161.156 233.866C161.33 235.694 159.601 238.788 159.592 238.795L159.832 238.898C159.836 238.889 161.582 235.773 161.411 233.918C161.242 232.146 162.722 232.316 162.726 232.316L162.676 232.151Z" fill="#8FB575"/>
<path fill-rule="evenodd" clip-rule="evenodd" d="M158.808 236.962C162.376 240.916 162.996 243.192 162.996 245.927C158.689 249.709 145.753 233.411 148.599 231.362C150.133 225.482 157.906 236.088 158.808 236.962Z" fill="#8FB575"/>
<path fill-rule="evenodd" clip-rule="evenodd" d="M166.403 242.458C161.935 240.402 159.46 240.409 157.752 242.913C158.208 248.377 167.572 248.645 172.435 248.832C173.78 248.884 173.508 246.295 172.908 245.84C170.48 243.998 167.056 242.758 166.403 242.458Z" fill="#8FB575"/>
<path d="M2.2129 133.055C3.49241 130.063 5.9448 132.689 7.01106 134.376C9.41014 137.896 9.41014 141.637 4.61198 142.957C-0.186182 144.277 0.613511 136.796 2.2129 133.055Z" fill="#9696FE"/>
<path d="M401.758 80.4138C399.386 78.4238 392.721 83.0395 389.685 85.5962C383.967 89.5862 391.803 89.3275 396.675 88.7056C401.546 88.0837 404.723 82.9013 401.758 80.4138Z" fill="#9696FE"/>
<path fill-rule="evenodd" clip-rule="evenodd" d="M366.154 168.741C368.735 171.99 370.65 175.46 368.13 176.481C363.924 178.185 360.189 169.794 359.051 165.848C359.675 164.66 360.38 163.978 361.738 164.074C363.725 165.689 365.776 168.266 366.154 168.741Z" fill="#A3CF80"/>
<path fill-rule="evenodd" clip-rule="evenodd" d="M361.499 163.867C361.979 164.364 361.878 165.29 361.274 165.938C360.671 166.585 359.792 166.705 359.312 166.209C358.832 165.712 358.934 164.785 359.538 164.138C360.142 163.491 361.02 163.369 361.499 163.867Z" fill="#281616"/>
<path fill-rule="evenodd" clip-rule="evenodd" d="M359.055 163.457C359.055 163.457 358.78 164.557 359.345 165.565C360.253 166.129 362.299 164.487 361.946 163.481C361.558 162.375 359.331 160.43 359.331 160.43L359.055 163.457Z" fill="#FF8685"/>
<path fill-rule="evenodd" clip-rule="evenodd" d="M361.8 163.514C361.81 163.553 361.817 163.593 361.821 163.634C361.832 163.793 361.791 163.953 361.703 164.089C361.615 164.225 361.484 164.331 361.33 164.391C361.134 164.468 360.915 164.468 360.721 164.391C360.526 164.314 360.371 164.166 360.288 163.98C360.226 163.837 360.211 163.679 360.246 163.527C360.25 163.508 360.256 163.488 360.262 163.469L360.595 162.27C360.606 162.184 360.64 162.103 360.695 162.035C360.749 161.967 360.821 161.914 360.904 161.882C361.028 161.833 361.167 161.833 361.29 161.881C361.414 161.93 361.512 162.024 361.565 162.142C361.567 162.161 361.579 162.178 361.584 162.195C361.592 162.231 361.596 162.267 361.597 162.304L361.8 163.514Z" fill="#FFE1DA"/>
<path d="M289.852 211.35C286.692 210.709 283.47 210.098 280.125 209.579C277.337 208.998 274.611 208.449 271.947 207.899L269.592 207.441L269.747 206.463C270.119 204.569 270.46 202.706 270.831 200.874C272.731 192.642 273.543 184.203 273.248 175.766V173.353L270.831 172.926C267.086 172.489 263.306 173.389 260.175 175.461C258.589 176.579 256.702 177.206 254.754 177.263C254.387 177.232 254.032 177.119 253.716 176.934C253.4 176.749 253.13 176.496 252.926 176.194C251.57 173.943 251.107 171.278 251.625 168.71C252.244 165.412 254.692 160.677 258.037 160.952C259.346 161.164 260.552 161.785 261.476 162.724C264.481 165.198 267.95 166.725 272.845 161.227C276.402 156.666 278.094 150.954 277.585 145.222C277.342 139.985 276.616 134.781 275.416 129.675L274.982 127.659L274.332 124.604L274.146 123.749C273.929 123.322 273.929 122.955 273.929 122.558H361.659H362.557V215.077L361.659 215.26C352.211 217.245 339.169 219.933 332.973 214.527C332.34 214.032 331.786 213.445 331.332 212.786C331.517 212.511 331.858 212.114 332.137 211.778C333.861 209.927 334.946 207.585 335.235 205.089C335.916 198.277 329.225 193.39 322.286 192.168C317.994 191.358 313.552 192.224 309.895 194.581C308.901 195.295 308.072 196.208 307.463 197.262C306.854 198.315 306.479 199.483 306.363 200.69C306.234 203.844 307.124 206.956 308.903 209.579C309.768 210.943 310.425 212.425 310.855 213.977C303.782 213.797 296.746 212.917 289.852 211.35Z" fill="url(#paint3_linear)"/>
<path fill-rule="evenodd" clip-rule="evenodd" d="M378.173 210.922C377.656 211.11 377.393 211.673 377.585 212.179L382.196 224.335H362.511L357.642 211.498C357.45 210.992 356.875 210.734 356.358 210.922C355.841 211.11 355.578 211.673 355.77 212.179L367.767 243.806C367.772 243.82 367.778 243.834 367.783 243.848L375.018 262.92C375.023 262.934 375.028 262.949 375.034 262.963L382.15 281.721C382.155 281.735 382.16 281.75 382.166 281.764L389.582 301.315C389.587 301.329 389.593 301.343 389.599 301.357L392.856 309.944C393.048 310.45 393.622 310.708 394.139 310.52C394.656 310.332 394.919 309.769 394.727 309.263L391.962 301.973H411.647L414.671 309.944C414.863 310.45 415.438 310.708 415.955 310.52C416.471 310.332 416.735 309.769 416.543 309.263L413.286 300.677C413.28 300.662 413.275 300.648 413.269 300.634L405.853 281.083C405.848 281.069 405.843 281.055 405.837 281.041L398.721 262.282C398.716 262.268 398.711 262.253 398.705 262.239L391.47 243.168C391.465 243.153 391.46 243.139 391.454 243.125L379.457 211.498C379.265 210.992 378.69 210.734 378.173 210.922ZM389.832 244.464L396.341 261.623H376.656L370.147 244.464H389.832ZM369.405 242.509H389.09L382.938 226.29H363.253L369.405 242.509ZM377.398 263.579H397.083L403.473 280.424H383.788L377.398 263.579ZM384.53 282.38H404.215L410.906 300.018H391.22L384.53 282.38Z" fill="#5545B8"/>
<path d="M365.539 192.216C366.427 193.098 367.988 193.405 368.658 193.449C369.776 193.974 371.37 195.183 368.808 195.813C365.605 196.6 364.255 194.833 363.718 194.705C363.181 194.578 361.254 195.277 360.725 195.47C360.301 195.624 360.273 195.276 360.311 195.082C361.049 194.761 362.648 194.04 363.146 193.731C362.757 193.711 360.769 194.54 360.063 194.85C359.499 195.098 359.273 194.725 359.23 194.508C360.101 194.102 362.082 193.203 363.045 192.853C362.787 192.893 360.087 193.713 359.43 194.005C358.904 194.239 358.774 193.903 358.775 193.705C359.383 193.377 360.936 192.598 362.284 192.109C361.609 191.601 359.497 192.691 359.305 192.761C359.112 192.831 358.616 192.366 359.098 192.191C361.237 190.876 362.459 191.239 363.212 190.912C363.965 190.584 364.43 191.114 365.539 192.216Z" fill="#FFD3CA"/>
<path fill-rule="evenodd" clip-rule="evenodd" d="M368.543 196.06C369.208 195.665 369.32 194.644 368.793 193.783C368.267 192.923 367.432 192.777 366.767 193.173C366.103 193.569 365.966 194.789 366.492 195.649C367.018 196.51 367.879 196.456 368.543 196.06Z" fill="#281616"/>
<path fill-rule="evenodd" clip-rule="evenodd" d="M413.233 252.761C413.055 253.132 410.602 261.404 411.581 262.472L417.926 254.199C417.926 254.199 415.228 252.582 413.233 252.761Z" fill="#281616"/>
<path fill-rule="evenodd" clip-rule="evenodd" d="M363.982 171.822C359.64 177.249 379.441 182.352 380.95 181.38C387.399 177.216 365.642 169.05 363.982 171.822Z" fill="#A3CF80"/>
<path fill-rule="evenodd" clip-rule="evenodd" d="M379.204 200.043L383.75 224.345L385.177 231.993L390.201 258.788L395.118 258.226L388.254 202.515C388.254 202.515 380.267 195.507 379.204 200.043Z" fill="#281616"/>
<path fill-rule="evenodd" clip-rule="evenodd" d="M393.737 201.205C395.175 202.744 395.972 204.09 397.341 208.668L400.255 214.703L403.232 221.336L406.467 228.54L417.798 253.785L413.032 254.849L386.253 203.492C386.253 203.492 390.094 197.538 393.737 201.205Z" fill="#6D6DF6"/>
<path fill-rule="evenodd" clip-rule="evenodd" d="M390.494 197.413L392.915 198.492C392.915 198.492 391.941 208.803 388.859 209.174C385.778 209.545 382.054 199.673 382.054 199.673L390.494 197.413Z" fill="#6D6DF6"/>
<path fill-rule="evenodd" clip-rule="evenodd" d="M386.477 165.089C386.477 165.089 386.542 164.508 385.968 164.803C385.895 164.841 385.867 164.782 385.863 164.658C385.861 164.639 385.858 164.621 385.856 164.601C385.767 158.73 378.86 167.56 377.323 163.361C377.404 164.228 377.748 165.047 378.302 165.7C379.885 167.639 382.238 168.202 383.611 167.767C384.984 167.332 386.228 166.841 386.477 165.089Z" fill="#281616"/>
<path fill-rule="evenodd" clip-rule="evenodd" d="M385.913 166.856C386.055 167.327 386.228 167.747 386.427 167.939C387.006 168.498 387.465 166.754 387.642 166.091C387.818 165.428 388.122 164.444 387.633 164.363C387.421 164.35 387.209 164.371 387.004 164.424C386.995 163.685 387.8 160.827 384.645 161.006C382.149 161.147 380.41 162.539 379.373 161.427C378.336 160.316 377.735 162.554 379.329 164.575C380.923 166.596 383.307 167.4 384.703 167.144C385.112 167.076 385.517 166.98 385.913 166.856Z" fill="white"/>
<path fill-rule="evenodd" clip-rule="evenodd" d="M379.162 164.263C379.162 164.263 379.519 166.687 380.133 167.218C380.748 167.749 381.261 166.061 381.459 165.419C381.656 164.777 381.994 163.824 381.471 163.752C380.949 163.679 379.162 164.263 379.162 164.263Z" fill="#281616"/>
<path fill-rule="evenodd" clip-rule="evenodd" d="M384.248 167.457L385.983 168.211L387.166 176.079L381.807 177.285L381.556 170.371L384.248 167.457Z" fill="#FFE1DA"/>
<path fill-rule="evenodd" clip-rule="evenodd" d="M382.699 177.082L381.808 177.284L381.551 170.441L382.504 169.392L382.649 169.46L382.699 177.082Z" fill="#FF8685"/>
<path fill-rule="evenodd" clip-rule="evenodd" d="M384.568 167.42L385.359 167.859C385.689 170.546 384.319 173.869 381.734 174.109L381.473 170.165L384.568 167.42Z" fill="#412F2F"/>
<path fill-rule="evenodd" clip-rule="evenodd" d="M380.5 162.388C380.576 162.857 378.302 171.806 381.312 172.294C384.321 172.782 386.796 169.127 386.614 166.184C386.431 163.241 380.5 162.388 380.5 162.388Z" fill="#FFD3CA"/>
<path fill-rule="evenodd" clip-rule="evenodd" d="M382.68 172.266C385.032 171.676 386.77 168.715 386.619 166.256C386.581 165.644 386.29 165.125 385.855 164.684C385.314 164.732 384.873 164.781 384.873 164.781C384.873 164.781 384.848 168.545 383.969 169.361C383.296 169.981 382.934 171.402 382.68 172.266Z" fill="#FFE1DA"/>
<path fill-rule="evenodd" clip-rule="evenodd" d="M380.468 162.391C380.499 162.584 380.165 164.151 379.938 166.007C381.478 167.26 383.344 167.679 384.522 167.407C385.325 167.22 386.084 167.013 386.638 166.57C386.636 166.494 386.634 166.422 386.63 166.353C386.434 163.298 380.468 162.391 380.468 162.391Z" fill="#FF8685"/>
<path fill-rule="evenodd" clip-rule="evenodd" d="M380.449 162.394C380.521 162.845 378.515 171.111 380.961 172.173C380.964 172.132 380.955 172.09 380.933 172.054C380.584 171.396 380.96 170.989 381.081 170.653C381.184 170.4 381.194 170.116 381.107 169.855C381.036 169.596 381.201 169.662 381.236 169.467C381.27 169.273 381.056 169.174 381.081 169.049C381.106 168.924 381.249 168.653 381.195 168.491C381.142 168.329 380.531 168.27 380.489 168.027C380.446 167.783 381.635 163.819 381.693 163.613L380.928 162.484C380.631 162.421 380.449 162.394 380.449 162.394Z" fill="#FF8685"/>
<path fill-rule="evenodd" clip-rule="evenodd" d="M387.329 164.938C387.329 164.938 387.398 164.391 386.814 164.608C386.289 164.801 388.055 160.834 384.351 161.038C381.859 161.179 380.122 162.565 379.086 161.459C378.05 160.352 377.451 162.581 379.042 164.591C380.633 166.601 383.013 167.4 384.408 167.143C385.802 166.887 387.066 166.565 387.329 164.938Z" fill="#412F2F"/>
<path fill-rule="evenodd" clip-rule="evenodd" d="M387.334 164.966C387.334 164.966 387.404 164.43 386.821 164.644C386.746 164.671 386.719 164.614 386.715 164.497C386.713 164.482 386.711 164.464 386.716 164.445C386.676 159.001 379.6 166.428 378.085 162.375C378.121 163.018 378.403 163.854 379.051 164.657C380.636 166.622 383.015 167.398 384.41 167.143C385.804 166.889 387.067 166.56 387.334 164.966Z" fill="#281616"/>
<path fill-rule="evenodd" clip-rule="evenodd" d="M385.324 165.005C385.324 165.005 385.673 167.43 386.226 167.968C386.78 168.506 387.217 166.827 387.383 166.188C387.55 165.55 387.841 164.602 387.374 164.523C386.908 164.444 385.324 165.005 385.324 165.005Z" fill="#281616"/>
<path fill-rule="evenodd" clip-rule="evenodd" d="M386.184 167.595C386.184 167.595 386.737 166.617 387.176 166.909C387.616 167.202 386.926 169.449 386.337 169.532C385.749 169.616 385.509 168.886 386.184 167.595Z" fill="#FFE1DA"/>
<path fill-rule="evenodd" clip-rule="evenodd" d="M393.619 176.816L386.921 173.907C386.921 173.907 383.159 176.473 381.752 174.727C381.082 175.237 376.625 174.045 375.409 175.118C374.645 175.792 376.898 178.625 376.738 179.407C375.42 185.78 378.921 199.084 379.799 202.911C380.126 204.336 393.004 203.069 394.021 201.603C394.493 200.922 392.333 193.364 392.938 188.78C393.641 183.469 393.619 176.816 393.619 176.816Z" fill="#A3CF80"/>
<path fill-rule="evenodd" clip-rule="evenodd" d="M390.724 202.884C392.449 202.549 394.194 202.035 394.492 201.611C394.524 200.815 392.352 193.466 392.987 188.872C393.403 185.863 394.086 182.625 394.603 180.377L393.255 179.736C393.255 179.736 388.724 187.046 389.059 192.081C389.395 197.115 390.392 201.239 390.724 202.884Z" fill="#86A96F"/>
<path fill-rule="evenodd" clip-rule="evenodd" d="M386.651 164.853C386.645 164.863 384.845 168.394 380.772 164.961L380.697 165.055C384.884 168.585 386.752 164.924 386.757 164.914L386.651 164.853Z" fill="#412F2F"/>
<path fill-rule="evenodd" clip-rule="evenodd" d="M388.133 164.275C388.133 164.275 387.315 163.964 386.715 164.526L386.819 164.559C387.35 164.064 388.058 164.337 388.059 164.337L388.133 164.275Z" fill="#281616"/>
<path fill-rule="evenodd" clip-rule="evenodd" d="M387.797 163.87C387.797 163.87 386.656 163.91 386.752 164.856L386.888 164.84C386.803 164.009 387.797 163.974 387.8 163.974L387.797 163.87Z" fill="#281616"/>
<path fill-rule="evenodd" clip-rule="evenodd" d="M382.656 169.534C382.656 169.534 381.543 169.675 380.964 169.279L380.904 169.386C381.52 169.806 382.668 169.663 382.672 169.663L382.656 169.534Z" fill="#FF8685"/>
<path fill-rule="evenodd" clip-rule="evenodd" d="M382.361 169.472C382.361 169.472 382.553 169.545 382.433 169.636L382.597 169.671C382.787 169.516 382.488 169.395 382.488 169.394L382.361 169.472Z" fill="#FF8685"/>
<path fill-rule="evenodd" clip-rule="evenodd" d="M385.816 169.358C385.818 169.353 385.819 169.348 385.818 169.343C385.818 169.337 385.816 169.332 385.813 169.328C385.81 169.323 385.807 169.319 385.802 169.316C385.798 169.313 385.793 169.31 385.788 169.309C385.777 169.306 385.766 169.307 385.757 169.312C385.747 169.318 385.74 169.326 385.737 169.336C385.529 169.976 385.174 170.562 384.697 171.05C384.22 171.538 383.635 171.915 382.987 172.151C382.982 172.153 382.977 172.156 382.973 172.159C382.97 172.163 382.966 172.167 382.964 172.172C382.962 172.176 382.961 172.182 382.961 172.187C382.961 172.192 382.962 172.197 382.964 172.202C382.966 172.207 382.969 172.211 382.972 172.215C382.976 172.219 382.98 172.222 382.985 172.225C382.99 172.227 382.996 172.228 383.001 172.228C383.007 172.229 383.012 172.228 383.017 172.226C383.678 171.985 384.273 171.601 384.758 171.104C385.243 170.607 385.605 170.01 385.816 169.358Z" fill="white"/>
<path fill-rule="evenodd" clip-rule="evenodd" d="M386.995 167.432C386.545 167.831 386.287 168.19 386.159 168.46C385.86 169.087 386.254 169.243 386.572 168.355L386.481 168.321C386.245 169.025 386.02 168.937 386.249 168.479C386.455 168.107 386.728 167.777 387.056 167.504L386.995 167.432Z" fill="#FF8685"/>
<path fill-rule="evenodd" clip-rule="evenodd" d="M384.302 168.391C384.194 168.358 384.081 168.346 383.968 168.357C383.855 168.368 383.746 168.401 383.647 168.455C383.547 168.508 383.46 168.581 383.389 168.668C383.318 168.756 383.266 168.857 383.236 168.964C383.174 169.185 383.203 169.421 383.314 169.621C383.426 169.821 383.612 169.97 383.833 170.036C383.941 170.07 384.055 170.081 384.167 170.07C384.28 170.059 384.389 170.026 384.489 169.972C384.588 169.919 384.676 169.846 384.747 169.759C384.818 169.671 384.87 169.571 384.901 169.463C384.962 169.242 384.934 169.006 384.822 168.806C384.71 168.606 384.523 168.457 384.302 168.391Z" fill="#FF8685"/>
<path fill-rule="evenodd" clip-rule="evenodd" d="M382.872 167.329C382.853 167.327 382.834 167.328 382.816 167.333C382.797 167.337 382.78 167.346 382.765 167.357C382.75 167.369 382.738 167.383 382.728 167.399C382.719 167.416 382.713 167.433 382.711 167.452C382.707 167.49 382.718 167.528 382.741 167.558C382.765 167.588 382.799 167.608 382.837 167.614C382.856 167.616 382.875 167.615 382.893 167.61C382.911 167.605 382.928 167.597 382.943 167.586C382.958 167.574 382.971 167.56 382.98 167.544C382.989 167.527 382.995 167.509 382.997 167.491C383.002 167.453 382.991 167.415 382.968 167.385C382.944 167.355 382.91 167.335 382.872 167.329Z" fill="#281616"/>
<path fill-rule="evenodd" clip-rule="evenodd" d="M383.56 167.299L382.423 167.087L382.405 167.324L383.542 167.538L383.56 167.299Z" fill="#281616"/>
<path fill-rule="evenodd" clip-rule="evenodd" d="M380.642 167.079L379.799 166.809L379.768 167.024L380.611 167.294L380.642 167.079Z" fill="#281616"/>
<path fill-rule="evenodd" clip-rule="evenodd" d="M380.439 167.033C380.403 167.031 380.365 167.032 380.328 167.037C380.291 167.042 380.254 167.051 380.222 167.063C380.189 167.075 380.16 167.09 380.136 167.106C380.113 167.123 380.096 167.141 380.086 167.16C380.066 167.199 380.076 167.237 380.113 167.268C380.151 167.298 380.212 167.318 380.286 167.323C380.322 167.325 380.36 167.324 380.397 167.318C380.434 167.313 380.471 167.304 380.504 167.293C380.536 167.281 380.565 167.266 380.589 167.249C380.612 167.232 380.629 167.214 380.639 167.195C380.659 167.156 380.649 167.118 380.612 167.088C380.574 167.057 380.512 167.038 380.439 167.033Z" fill="#281616"/>
<path fill-rule="evenodd" clip-rule="evenodd" d="M391.031 204.793L395.889 208.37L396.044 208.143L391.186 204.568L391.031 204.793Z" fill="black"/>
<path fill-rule="evenodd" clip-rule="evenodd" d="M388.207 173.948C388.194 173.96 383.694 178.359 380.891 174.785L380.676 174.964C383.668 178.781 388.378 174.171 388.396 174.158L388.207 173.948Z" fill="#86A96F"/>
<path fill-rule="evenodd" clip-rule="evenodd" d="M398.748 210.649L415.595 250.448L415.854 250.356L399.007 210.557L398.748 210.649Z" fill="white"/>
<path fill-rule="evenodd" clip-rule="evenodd" d="M375.491 176.56C375.496 176.56 377.241 177.171 376.672 180.421C376.122 183.529 377.231 189.925 377.239 189.943L376.977 189.99C376.974 189.971 375.852 183.526 376.404 180.37C376.937 177.356 375.41 176.824 375.407 176.822L375.491 176.56Z" fill="#86A96F"/>
<path fill-rule="evenodd" clip-rule="evenodd" d="M383.939 184.798C380.407 188.127 377.342 191.899 379.028 193.794C382.437 197.633 394.705 183.497 394.832 179.966C393.457 170.061 384.863 183.924 383.939 184.798Z" fill="#86A96F"/>
<path d="M385.395 261.863H389.254L394.529 257.649L391.313 254.251L388.354 259.824L385.395 261.863Z" fill="#281616"/>
<path fill-rule="evenodd" clip-rule="evenodd" d="M373.849 190.363C378.213 189.071 382.539 188.55 382.538 191.553C382.545 196.548 372.082 196.395 367.595 195.925C366.219 195.099 366.769 193.63 367.595 193.173C370.06 191.808 373.211 190.552 373.849 190.363Z" fill="#86A96F"/>
<path d="M86.2324 130.421C86.5891 134.318 87.8376 137.596 89.8887 140.431C91.8505 143.266 94.5258 145.392 97.8254 146.898C101.125 148.492 105.138 149.201 109.775 149.201C117.266 149.201 123.33 147.518 127.967 144.063C132.604 140.608 134.923 136.001 134.923 130.332C134.923 127.409 134.477 125.017 133.585 123.068C132.693 121.119 131.712 119.613 130.642 118.461C129.572 117.31 128.235 116.247 126.629 115.361C125.024 114.475 123.419 113.766 121.636 113.235C119.852 112.703 116.82 111.906 112.629 110.843C108.348 109.868 105.495 108.982 103.979 108.185C102.463 107.477 101.392 106.591 100.768 105.528C100.055 104.465 99.7873 103.313 99.7873 102.073C99.7873 99.4151 100.857 97.289 102.998 95.6945C105.138 94.1885 107.992 93.3912 111.737 93.3912C115.661 93.3912 118.693 94.4542 120.833 96.5803C122.973 98.7064 124.043 101.364 124.132 104.465L134.655 102.516C134.299 99.1494 133.318 96.3146 131.891 93.8341C130.375 91.3537 128.591 89.4048 126.451 87.8988C124.311 86.3928 121.903 85.3298 119.317 84.7097C116.731 84.0896 114.234 83.7352 111.737 83.7352C107.456 83.7352 103.533 84.6211 99.9656 86.2157C96.3094 87.8988 93.5449 90.2021 91.7614 93.214C89.9778 96.226 89.0861 99.2379 89.0861 102.338C89.0861 105.35 89.532 107.831 90.5129 109.957C91.4047 112.083 92.7423 113.855 94.3475 115.184C95.9527 116.512 97.9146 117.575 100.144 118.373C102.373 119.259 106.119 120.233 111.291 121.296C116.463 122.448 119.852 123.777 121.457 125.282C123.062 126.788 123.954 128.649 123.954 130.775C123.954 132.901 123.241 134.673 121.903 136.001C120.565 137.419 118.782 138.305 116.642 138.836C114.412 139.368 112.272 139.545 110.31 139.545C106.119 139.545 102.908 138.571 100.59 136.533C98.2713 134.496 96.9336 131.749 96.7553 128.294L86.2324 130.421Z" fill="#343C5A"/>
<path d="M175.743 128.472C175.743 132.281 174.762 135.116 172.8 137.065C170.838 139.013 168.252 139.988 165.042 139.988C162.01 139.988 159.691 139.102 158.264 137.242C156.748 135.381 156.035 132.812 156.035 129.535V101.984H145.423V130.952C145.423 134.318 145.869 137.242 146.939 139.545C147.92 141.848 149.257 143.709 150.862 145.126C152.468 146.543 154.34 147.606 156.391 148.138C158.353 148.758 160.404 149.024 162.455 149.024C165.844 149.024 168.787 148.404 171.284 146.986C173.692 145.657 175.475 143.974 176.545 142.025V147.961H186.355V101.984H175.743V128.472Z" fill="#343C5A"/>
<path d="M219.141 139.722C215.396 139.722 212.364 138.393 210.134 135.647C207.816 132.901 206.745 129.357 206.745 125.017C206.745 120.676 207.816 117.132 210.134 114.386C212.364 111.64 215.396 110.223 219.141 110.223C220.39 110.223 221.816 110.488 223.421 111.02C225.027 111.552 226.453 112.526 227.702 113.855C228.95 115.272 229.842 116.867 230.377 118.638L240.543 116.158C239.919 114.386 239.027 112.526 237.957 110.577C236.798 108.717 235.371 107.034 233.588 105.616C231.804 104.199 229.664 103.047 227.256 102.161C224.759 101.364 222.084 100.921 219.23 100.921C215.931 100.921 212.809 101.541 209.956 102.781C207.102 104.022 204.605 105.793 202.554 108.008C200.503 110.223 198.898 112.792 197.828 115.715C196.669 118.727 196.133 121.828 196.133 125.017C196.133 128.294 196.669 131.395 197.828 134.318C198.898 137.242 200.503 139.811 202.554 142.025C204.605 144.24 207.102 145.923 209.956 147.163C212.809 148.404 215.931 149.024 219.23 149.024C222.084 149.024 224.759 148.669 227.256 147.784C229.664 146.986 231.804 145.835 233.588 144.417C235.371 143 236.798 141.317 237.957 139.368C239.027 137.507 239.919 135.647 240.543 133.787L230.377 131.306C229.842 133.167 228.95 134.761 227.702 136.09C226.453 137.507 225.027 138.393 223.421 138.925C221.816 139.456 220.39 139.722 219.141 139.722Z" fill="#343C5A"/>
<path d="M268.693 139.722C264.948 139.722 261.916 138.393 259.686 135.647C257.368 132.901 256.298 129.357 256.298 125.017C256.298 120.676 257.368 117.132 259.686 114.386C261.916 111.64 264.948 110.223 268.693 110.223C269.942 110.223 271.369 110.488 272.974 111.02C274.579 111.552 276.006 112.526 277.254 113.855C278.503 115.272 279.394 116.867 279.929 118.638L290.096 116.158C289.471 114.386 288.58 112.526 287.509 110.577C286.35 108.717 284.923 107.034 283.14 105.616C281.356 104.199 279.216 103.047 276.808 102.161C274.311 101.364 271.636 100.921 268.782 100.921C265.483 100.921 262.362 101.541 259.508 102.781C256.654 104.022 254.157 105.793 252.106 108.008C250.055 110.223 248.45 112.792 247.38 115.715C246.221 118.727 245.686 121.828 245.686 125.017C245.686 128.294 246.221 131.395 247.38 134.318C248.45 137.242 250.055 139.811 252.106 142.025C254.157 144.24 256.654 145.923 259.508 147.163C262.362 148.404 265.483 149.024 268.782 149.024C271.636 149.024 274.311 148.669 276.808 147.784C279.216 146.986 281.356 145.835 283.14 144.417C284.923 143 286.35 141.317 287.509 139.368C288.58 137.507 289.471 135.647 290.096 133.787L279.929 131.306C279.394 133.167 278.503 134.761 277.254 136.09C276.006 137.507 274.579 138.393 272.974 138.925C271.369 139.456 269.942 139.722 268.693 139.722Z" fill="#343C5A"/>
<path d="M329.838 132.901C328.857 135.204 327.341 136.887 325.38 138.128C323.418 139.368 321.099 139.988 318.602 139.988C314.946 139.988 312.003 138.925 309.684 136.71C307.366 134.584 306.028 131.661 305.672 128.029H340.896L340.985 124.751C340.985 121.473 340.45 118.373 339.38 115.449C338.31 112.526 336.705 109.957 334.743 107.831C332.692 105.705 330.284 104.022 327.431 102.781C324.577 101.541 321.545 100.921 318.245 100.921C314.857 100.921 311.825 101.541 308.971 102.781C306.117 104.022 303.62 105.793 301.569 107.919C299.518 110.134 297.913 112.703 296.843 115.627C295.773 118.638 295.238 121.739 295.238 124.928C295.238 128.294 295.773 131.484 296.843 134.407C297.913 137.419 299.518 139.988 301.569 142.114C303.531 144.329 306.028 146.012 308.882 147.252C311.736 148.492 314.946 149.024 318.335 149.024C323.239 149.024 327.52 147.872 331.265 145.392C335.011 142.911 337.686 139.634 339.38 135.381L329.838 132.901ZM318.245 109.514C319.851 109.514 321.545 109.868 323.328 110.488C325.112 111.197 326.628 112.349 327.966 114.121C329.214 115.892 330.106 117.93 330.463 120.233H305.85C306.028 118.816 306.652 117.221 307.544 115.538C308.436 113.855 309.774 112.437 311.736 111.286C313.608 110.134 315.749 109.514 318.245 109.514Z" fill="#343C5A"/>
<path d="M347.04 135.116C347.486 138.128 348.467 140.608 349.983 142.38C351.409 144.24 353.015 145.569 354.709 146.455C356.314 147.341 358.098 148.049 360.059 148.404C362.021 148.847 364.072 149.024 366.391 149.024C369.423 149.024 372.188 148.669 374.684 147.961C377.181 147.252 379.232 146.189 380.838 144.86C382.443 143.531 383.602 142.025 384.494 140.254C385.296 138.482 385.742 136.622 385.742 134.673C385.742 132.015 385.118 129.712 384.048 127.94C382.978 126.168 381.373 124.662 379.411 123.599C377.36 122.536 373.971 121.473 369.334 120.587C364.608 119.702 361.754 118.816 360.862 117.93C359.97 117.044 359.524 116.069 359.524 115.006C359.524 113.323 360.149 111.994 361.576 111.02C362.913 110.046 364.875 109.514 367.461 109.514C369.869 109.514 371.831 110.223 373.258 111.463C374.684 112.792 375.487 114.298 375.755 116.069L385.653 114.298C385.118 111.817 384.048 109.425 382.354 107.211C380.659 104.996 378.519 103.402 375.844 102.427C373.168 101.453 370.493 100.921 367.729 100.921C364.251 100.921 361.308 101.453 358.9 102.516C356.492 103.579 354.709 104.819 353.46 106.059C352.212 107.299 351.142 108.717 350.428 110.223C349.715 111.817 349.358 113.5 349.358 115.361C349.358 119.081 350.339 122.005 352.479 124.042C354.531 126.168 357.83 127.674 362.467 128.56C363.092 128.737 364.429 129.003 366.569 129.357C368.71 129.8 370.404 130.243 371.831 130.686C373.168 131.218 374.149 131.838 374.684 132.635C375.22 133.432 375.576 134.23 375.576 135.116C375.576 136.71 374.774 138.039 373.258 138.925C371.742 139.899 369.691 140.342 367.015 140.342C363.983 140.342 361.576 139.722 359.881 138.482C358.098 137.242 357.206 135.559 357.027 133.521L347.04 135.116Z" fill="#343C5A"/>
<path d="M390.844 135.116C391.29 138.128 392.271 140.608 393.787 142.38C395.214 144.24 396.819 145.569 398.513 146.455C400.119 147.341 401.902 148.049 403.864 148.404C405.826 148.847 407.877 149.024 410.196 149.024C413.228 149.024 415.992 148.669 418.489 147.961C420.986 147.252 423.037 146.189 424.642 144.86C426.247 143.531 427.407 142.025 428.298 140.254C429.101 138.482 429.547 136.622 429.547 134.673C429.547 132.015 428.923 129.712 427.853 127.94C426.782 126.168 425.177 124.662 423.215 123.599C421.164 122.536 417.776 121.473 413.138 120.587C408.412 119.702 405.558 118.816 404.667 117.93C403.775 117.044 403.329 116.069 403.329 115.006C403.329 113.323 403.953 111.994 405.38 111.02C406.718 110.046 408.68 109.514 411.266 109.514C413.673 109.514 415.635 110.223 417.062 111.463C418.489 112.792 419.292 114.298 419.559 116.069L429.458 114.298C428.923 111.817 427.852 109.425 426.158 107.211C424.464 104.996 422.324 103.402 419.648 102.427C416.973 101.453 414.298 100.921 411.533 100.921C408.055 100.921 405.112 101.453 402.705 102.516C400.297 103.579 398.513 104.819 397.265 106.059C396.016 107.299 394.946 108.717 394.233 110.223C393.52 111.817 393.163 113.5 393.163 115.361C393.163 119.081 394.144 122.005 396.284 124.042C398.335 126.168 401.635 127.674 406.272 128.56C406.896 128.737 408.234 129.003 410.374 129.357C412.514 129.8 414.208 130.243 415.635 130.686C416.973 131.218 417.954 131.838 418.489 132.635C419.024 133.432 419.381 134.23 419.381 135.116C419.381 136.71 418.578 138.039 417.062 138.925C415.546 139.899 413.495 140.342 410.82 140.342C407.788 140.342 405.38 139.722 403.686 138.482C401.902 137.242 401.01 135.559 400.832 133.521L390.844 135.116Z" fill="#343C5A"/>
<defs>
<linearGradient id="paint0_linear" x1="278.387" y1="214.632" x2="312.344" y2="310.081" gradientUnits="userSpaceOnUse">
<stop stop-color="#6D6DF6"/>
<stop offset="1" stop-color="#9E9EFF"/>
</linearGradient>
<linearGradient id="paint1_linear" x1="198.567" y1="245.183" x2="250.223" y2="310.059" gradientUnits="userSpaceOnUse">
<stop stop-color="#363694"/>
<stop offset="1" stop-color="#5445B8"/>
</linearGradient>
<linearGradient id="paint2_linear" x1="181.054" y1="109.902" x2="220.594" y2="196.658" gradientUnits="userSpaceOnUse">
<stop stop-color="#9696FE"/>
<stop offset="1" stop-color="#7A7AF9"/>
</linearGradient>
<linearGradient id="paint3_linear" x1="287.82" y1="150.483" x2="306.799" y2="217.765" gradientUnits="userSpaceOnUse">
<stop stop-color="white"/>
<stop offset="1" stop-color="white"/>
</linearGradient>
</defs>
</svg>
