<svg width="76" height="79" viewBox="0 0 76 79" fill="none" xmlns="http://www.w3.org/2000/svg">
<path d="M37.9933 6.00049C23.7534 6.34005 16.4787 9.04122 13.5379 10.5126C13.0451 10.757 12.6368 11.1403 12.3645 11.614C12.0923 12.0878 11.9685 12.6307 12.0086 13.174C12.6804 22.5379 16.6923 40.9933 36.0431 59.6109C36.5671 60.114 37.2689 60.3954 37.9995 60.3954C38.7301 60.3954 39.4319 60.114 39.9559 59.6109C59.3098 40.9933 63.3217 22.5379 63.9904 13.174C64.0306 12.6307 63.9067 12.0878 63.6345 11.614C63.3622 11.1403 62.9539 10.757 62.4611 10.5126C59.5234 9.05957 52.2332 6.34311 37.9933 6.00049Z" fill="#9DA4D8"/>
<g opacity="0.2" filter="url(#filter0_f)">
<path d="M37.9933 12.113C23.7534 12.4526 16.4787 15.1538 13.5379 16.6252C13.0451 16.8695 12.6368 17.2528 12.3645 17.7266C12.0923 18.2003 11.9685 18.7432 12.0086 19.2866C12.6804 28.6504 16.6923 47.1059 36.0431 65.7235C36.5671 66.2265 37.2689 66.5079 37.9995 66.5079C38.7301 66.5079 39.4319 66.2265 39.9559 65.7235C59.3098 47.1059 63.3217 28.6504 63.9904 19.2866C64.0306 18.7432 63.9067 18.2003 63.6345 17.7266C63.3622 17.2528 62.9539 16.8695 62.4611 16.6252C59.5234 15.1721 52.2332 12.4557 37.9933 12.113Z" fill="#6D6DF6"/>
</g>
<g opacity="0.3">
<path d="M37.9921 6C23.7522 6.33956 16.4775 9.04073 13.5366 10.5121C13.0439 10.7565 12.6355 11.1398 12.3633 11.6135C12.0911 12.0873 11.9672 12.6302 12.0074 13.1735C12.6792 22.5374 16.6911 40.9928 36.0418 59.6104C36.5659 60.1135 37.2677 60.3949 37.9983 60.3949C38.7289 60.3949 39.4307 60.1135 39.9547 59.6104C30.5313 39.6242 32.9993 43.1885 32.9993 26.8678C37.9983 10.5121 63.9055 12.0873 63.6332 11.6135C63.361 11.1398 62.9527 10.7565 62.4599 10.5121C59.5222 9.05908 52.232 6.34262 37.9921 6Z" fill="#6D6DF6" style="mix-blend-mode:multiply"/>
</g>
<path d="M32.0271 20.6622C32.0271 17.535 34.5622 15 37.6893 15C40.8164 15 43.3515 17.535 43.3515 20.6622V27.6487H32.0271V20.6622Z" stroke="white" stroke-width="4"/>
<path d="M46.9842 23.3838H45.5899H42.8015H37.6893H32.577H29.7885H28.3943C27.6243 23.3838 27 23.9831 27 24.7223V39.8917C27 40.6309 27.6243 41.2302 28.3943 41.2302H37.6893H46.9842C47.7542 41.2302 48.3785 40.6309 48.3785 39.8917V24.7223C48.3785 23.9831 47.7542 23.3838 46.9842 23.3838Z" fill="#FFB655"/>
<path d="M46.9842 23.3838H45.5899H42.8015H37.6893H32.577H29.7885H28.3943C27.6243 23.3838 27 23.9831 27 24.7223V39.8917C27 40.6309 27.6243 41.2302 28.3943 41.2302H37.6893H46.9842C47.7542 41.2302 48.3785 40.6309 48.3785 39.8917V24.7223C48.3785 23.9831 47.7542 23.3838 46.9842 23.3838Z" fill="white"/>
<g filter="url(#filter1_i)">
<path d="M39.9774 30.7935C39.9738 30.7234 39.9667 30.6542 39.9571 30.5858C39.9491 30.5284 39.939 30.4717 39.927 30.4158C39.7343 29.5231 39.0349 28.8205 38.1508 28.6364C38.1458 28.6354 38.1407 28.6347 38.1356 28.6336C38.0287 28.6122 37.9193 28.5979 37.8075 28.5922C37.7843 28.591 37.7608 28.5908 37.7376 28.5903C37.7216 28.59 37.7058 28.5891 37.6898 28.5891C37.6898 28.5891 37.6898 28.5891 37.6897 28.5891C36.4267 28.5891 35.3992 29.6315 35.3992 30.9128C35.3992 31.6714 35.7595 32.3462 36.3154 32.7705V34.6309C36.3154 35.4009 36.9307 36.0251 37.6897 36.0251C37.6898 36.0251 37.6898 36.0251 37.6898 36.0251C37.7231 36.0251 37.7557 36.0224 37.7884 36.0201C37.8022 36.019 37.8165 36.0193 37.8303 36.0179C37.85 36.0159 37.8691 36.0118 37.8885 36.0089C38.5531 35.911 39.0641 35.3323 39.0641 34.631V32.7707C39.6199 32.3464 39.9803 31.6716 39.9803 30.9131C39.9803 30.8729 39.9793 30.8331 39.9774 30.7935Z" fill="#8FD39D"/>
</g>
<path d="M38.0578 35.9536C37.9688 35.9622 37.8764 35.961 37.7871 35.967C37.8772 35.961 37.9688 35.9629 38.0578 35.9536Z" fill="#F1CB30"/>
<path d="M37.886 35.9448C38.5469 35.8483 39.0551 35.2782 39.0551 34.5874C39.0551 35.2782 38.5469 35.8484 37.886 35.9448Z" fill="#F1CB30"/>
<path d="M39.9138 30.4351C39.9921 30.5574 40.057 30.6812 40.1085 30.8069C40.057 30.6812 39.9921 30.5574 39.9138 30.4351Z" fill="#F1CB30"/>
<path d="M37.7361 28.637C37.8631 28.6399 37.9911 28.6403 38.1178 28.6485C37.9908 28.6411 37.8628 28.6403 37.7361 28.637Z" fill="#F1CB30"/>
<path d="M38.1318 28.6792C38.165 28.6855 38.1975 28.69 38.2303 28.6967C38.1975 28.6904 38.165 28.6855 38.1318 28.6792Z" fill="#F1CB30"/>
<defs>
<filter id="filter0_f" x="0.0012207" y="0.113037" width="75.9966" height="78.3949" filterUnits="userSpaceOnUse" color-interpolation-filters="sRGB">
<feFlood flood-opacity="0" result="BackgroundImageFix"/>
<feBlend mode="normal" in="SourceGraphic" in2="BackgroundImageFix" result="shape"/>
<feGaussianBlur stdDeviation="6" result="effect1_foregroundBlur"/>
</filter>
<filter id="filter1_i" x="35.3992" y="28.5891" width="4.5811" height="7.43599" filterUnits="userSpaceOnUse" color-interpolation-filters="sRGB">
<feFlood flood-opacity="0" result="BackgroundImageFix"/>
<feBlend mode="normal" in="SourceGraphic" in2="BackgroundImageFix" result="shape"/>
<feColorMatrix in="SourceAlpha" type="matrix" values="0 0 0 0 0 0 0 0 0 0 0 0 0 0 0 0 0 0 127 0" result="hardAlpha"/>
<feOffset dy="2"/>
<feComposite in2="hardAlpha" operator="arithmetic" k2="-1" k3="1"/>
<feColorMatrix type="matrix" values="0 0 0 0 0 0 0 0 0 0 0 0 0 0 0 0 0 0 0.1 0"/>
<feBlend mode="normal" in2="shape" result="effect1_innerShadow"/>
</filter>
</defs>
</svg>
