<svg width="40" height="32" viewBox="0 0 40 32" fill="none" xmlns="http://www.w3.org/2000/svg">
<path d="M19.4813 11.0564H16.9188L15.3188 20.9689H17.8751L19.4813 11.0564Z" fill="#7C8A95"/>
<path d="M29.831 19.4815H33.1247C33.206 19.8252 33.4372 20.9627 33.4372 20.9627H35.8122L33.7497 11.069H31.7435C31.4588 11.0312 31.1698 11.0926 30.9251 11.2429C30.6804 11.3931 30.4948 11.623 30.3997 11.894L26.606 21.0002H29.2935C29.2935 21.0002 29.731 19.7502 29.831 19.4815ZM31.5872 14.6815C31.5872 14.6815 31.7997 14.1065 31.9247 13.7377L32.0935 14.594L32.7185 17.4565H30.5935C30.781 16.8877 31.5872 14.6815 31.5872 14.6815Z" fill="#7C8A95"/>
<path d="M26.7872 17.7314C26.7872 16.6001 26.1122 15.7439 24.6372 15.0376C23.7435 14.5814 23.1935 14.2751 23.1997 13.7876C23.206 13.3001 23.6622 12.9376 24.6685 12.9376C25.3262 12.9226 25.9792 13.0527 26.581 13.3189L26.8122 13.4314L27.1622 11.2814C26.4302 11.0008 25.6524 10.8589 24.8685 10.8626C22.3685 10.8626 20.5622 12.2064 20.5435 14.1314C20.5435 15.5564 21.7935 16.3501 22.781 16.8251C23.7685 17.3001 24.1122 17.6189 24.1122 18.0751C24.1122 18.7376 23.3122 19.0439 22.581 19.0439C21.7445 19.062 20.9163 18.8753 20.1685 18.5001L19.8372 18.3439L19.481 20.5626C20.3895 20.9153 21.3564 21.0934 22.331 21.0876C24.9997 21.1126 26.7685 19.7814 26.7872 17.7314Z" fill="#7C8A95"/>
<path d="M9.14365 20.9564H11.8749L15.8999 11.0689H13.1749L10.6749 17.8252L10.4062 16.4502L9.5124 11.9002C9.45557 11.6433 9.30648 11.4161 9.09338 11.2618C8.88029 11.1074 8.61798 11.0366 8.35615 11.0627H4.30615C4.28464 11.0682 4.26558 11.0807 4.25196 11.0982C4.23835 11.1158 4.23096 11.1373 4.23096 11.1596C4.23096 11.1818 4.23835 11.2033 4.25196 11.2209C4.26558 11.2384 4.28464 11.2509 4.30615 11.2564C4.89171 11.4157 5.46254 11.6248 6.0124 11.8814C6.28284 12.0058 6.52234 12.1885 6.71363 12.4166C6.90493 12.6446 7.04326 12.9122 7.11865 13.2002L9.14365 20.9564Z" fill="#7C8A95"/>
</svg>
