<svg width="66" height="66" viewBox="0 0 66 66" fill="none" xmlns="http://www.w3.org/2000/svg">
<g clip-path="url(#clip0)">
<path d="M7.58228 58.4854H58.4177C64.5373 58.4854 68.127 51.6004 64.6234 46.5827L39.9292 11.2185C36.5656 6.40113 29.4344 6.40113 26.0703 11.2185L1.37614 46.5827C-2.12699 51.6004 1.46275 58.4854 7.58228 58.4854Z" fill="#FF929F"/>
<path d="M26.6806 36.972C34.9487 28.2376 36.3964 15.359 36.5152 8.36383C32.9773 6.75451 28.523 7.70671 26.0703 11.2189L1.37614 46.5831C-2.12699 51.6008 1.46275 58.4858 7.58228 58.4858H18.3943C18.2921 52.9055 19.5902 44.4616 26.6806 36.972Z" fill="#FF737D"/>
<path d="M33.0003 40.9966C30.6906 40.9966 28.8008 39.1069 28.8008 36.7971V19.9461C28.8008 17.6359 30.6906 15.7461 33.0003 15.7461C35.3101 15.7461 37.1999 17.6359 37.1999 19.9461V36.7971C37.1999 39.1069 35.3101 40.9966 33.0003 40.9966Z" fill="white"/>
<path d="M37.1463 48.9885C37.1463 51.2786 35.2898 53.1346 32.9997 53.1346C30.7096 53.1346 28.853 51.2786 28.853 48.9885C28.853 46.6984 30.7096 44.8418 32.9997 44.8418C35.2898 44.8418 37.1463 46.6984 37.1463 48.9885Z" fill="white"/>
<path d="M35.7743 16.7995C35.0331 16.1444 34.0613 15.7461 33.0003 15.7461C30.6906 15.7461 28.8008 17.6364 28.8008 19.9461V34.4546C32.889 29.0003 34.8574 22.4638 35.7743 16.7995Z" fill="#CCF8FF"/>
</g>
<defs>
<clipPath id="clip0">
<rect width="66" height="66" fill="white"/>
</clipPath>
</defs>
</svg>
