<svg width="244" height="357" viewBox="0 0 244 357" fill="none" xmlns="http://www.w3.org/2000/svg">
<circle cx="125.507" cy="221.449" r="88.9068" fill="#F5F5FF"/>
<circle cx="125.507" cy="221.449" r="67.2222" fill="white"/>
<path d="M30.1326 16.5296C18.8566 16.9633 16.7605 19.6016 17.1219 20.8665L19.2903 26.2876L48.5645 32.2509V11.6505C47.1189 13.0962 41.4086 16.0959 30.1326 16.5296Z" fill="#7777C6"/>
<path d="M110.908 34.9615V19.2401H97.3548C97.8969 23.0349 98.9811 30.8414 98.9811 31.7088C98.9811 32.5762 106.932 34.2387 110.908 34.9615Z" fill="#7777C6"/>
<path d="M98.5303 119.281C97.1529 120.682 97.5737 125.314 97.9564 127.455L97.3824 130.374L90.4955 129.206C90.6868 127.649 91.1841 123.718 91.6433 120.449C92.2172 116.362 84.7563 110.524 83.6085 109.356C82.4606 108.189 84.1824 107.605 84.7563 108.189C85.3302 108.772 89.3476 111.692 89.9215 111.692C90.4955 111.692 87.052 105.27 87.052 104.102C87.052 102.934 88.1998 102.934 88.7737 104.102C89.3476 105.27 91.0694 109.356 91.6433 108.772C92.2172 108.189 91.0694 102.934 91.0694 101.767C91.0694 100.599 91.0694 100.015 91.6433 100.015C92.2172 100.015 92.7911 100.015 92.7911 101.183C92.7911 102.351 93.365 107.021 93.9389 107.021C94.5129 107.021 95.0868 103.518 95.0868 102.351C95.0868 101.183 95.6607 101.183 96.2346 101.183C96.8085 101.183 96.2346 105.27 96.2346 108.189C96.2346 111.108 97.3824 113.443 99.1042 114.027C100.826 114.611 102.548 112.859 103.696 111.692C104.843 110.524 105.991 111.108 105.991 112.275C105.991 113.443 100.252 117.53 98.5303 119.281Z" fill="#FFE1DA"/>
<path fill-rule="evenodd" clip-rule="evenodd" d="M166.225 152.516C160.202 162.825 155.303 165.722 150.188 162.367C139.84 155.582 169.163 123.499 174.297 123.439C177.809 122.611 182.176 126.677 180.93 130.788C178.664 138.27 167.241 150.777 166.225 152.516Z" fill="#A3CF80"/>
<path fill-rule="evenodd" clip-rule="evenodd" d="M112.756 207.646L125.794 267.293L129.888 286.064L144.302 351.828L154.718 351.828L134.166 213.157C134.166 213.157 114.792 196.389 112.756 207.646Z" fill="#281616"/>
<path fill-rule="evenodd" clip-rule="evenodd" d="M144.693 201.62L156.294 243.634L161.022 260.773L205.202 236.343L209.232 244.181L154.261 286.136L126.762 212.985C126.762 212.985 137.292 191.771 144.693 201.62Z" fill="#6D6DF6"/>
<path fill-rule="evenodd" clip-rule="evenodd" d="M140.215 200.233L146.346 202.671C146.346 202.671 142.962 228.387 135.011 229.618C127.06 230.85 118.336 206.702 118.336 206.702L140.215 200.233Z" fill="#6D6DF6"/>
<path fill-rule="evenodd" clip-rule="evenodd" d="M147.586 116.47C147.586 116.47 147.673 115.138 146.258 115.713C146.078 115.786 145.992 115.647 145.973 115.356C145.976 115.316 145.967 115.273 145.965 115.224C144.992 101.642 128.635 120.816 124.211 110.844C124.404 112.433 125.239 114.503 126.978 116.439C131.225 121.199 137.254 122.918 140.673 122.165C144.092 121.413 147.178 120.472 147.586 116.47Z" fill="#281616"/>
<path fill-rule="evenodd" clip-rule="evenodd" d="M146.564 120.477C146.974 121.56 147.442 122.524 147.955 122.953C149.428 124.201 150.268 120.096 150.599 118.535C150.93 116.975 151.511 114.652 150.328 114.508C149.821 114.497 149.316 114.564 148.832 114.708C148.7 112.987 150.203 106.254 142.672 106.96C136.712 107.517 132.746 110.918 130.099 108.422C127.451 105.926 126.339 111.199 130.455 115.764C134.57 120.329 140.404 121.983 143.712 121.262C144.68 121.065 145.633 120.803 146.564 120.477Z" fill="white"/>
<path fill-rule="evenodd" clip-rule="evenodd" d="M129.515 115.236C129.515 115.236 130.764 120.492 132.213 121.625C133.662 122.759 134.458 119.069 134.774 117.664C135.09 116.259 135.637 114.174 134.479 114.038C133.32 113.901 129.515 115.236 129.515 115.236Z" fill="#281616"/>
<path fill-rule="evenodd" clip-rule="evenodd" d="M143.389 122.752L147.245 125.462L146.246 145.376L132.587 145.684L135.391 128.581L143.389 122.752Z" fill="#FFE1DA"/>
<path fill-rule="evenodd" clip-rule="evenodd" d="M134.99 145.643L132.591 145.684L135.4 128.937L138.386 126.867L138.725 127.107L134.99 145.643Z" fill="#FF8685"/>
<path fill-rule="evenodd" clip-rule="evenodd" d="M142.928 122.711L144.595 124.068C144.613 131.034 140.159 139.152 134.293 139.013L135.857 128.761L142.928 122.711Z" fill="#412F2F"/>
<path fill-rule="evenodd" clip-rule="evenodd" d="M132.266 110.439C132.501 111.629 128.31 134.808 135.425 135.697C142.54 136.585 147.864 126.943 147.062 119.43C146.261 111.916 132.266 110.439 132.266 110.439Z" fill="#FFD3CA"/>
<path fill-rule="evenodd" clip-rule="evenodd" d="M138.063 134.791C143.922 133.169 147.813 125.81 147.004 119.828C146.801 118.34 145.975 117.105 144.808 116.056C143.443 116.203 142.321 116.37 142.321 116.37C142.321 116.37 142.909 125.551 140.821 127.61C139.227 129.173 138.556 132.665 138.063 134.791Z" fill="#FFE1DA"/>
<path fill-rule="evenodd" clip-rule="evenodd" d="M132.264 110.439C132.359 110.903 131.765 114.749 131.455 119.284C135.229 122.143 139.673 122.941 142.411 122.145C144.281 121.599 146.04 121.005 147.295 119.862C147.281 119.685 147.265 119.51 147.246 119.336C146.418 111.934 132.264 110.439 132.264 110.439Z" fill="#FF8685"/>
<path fill-rule="evenodd" clip-rule="evenodd" d="M131.396 111.512C131.7 112.61 127.451 133.222 134.916 135.67C135.435 135.956 135.197 135.762 134.916 135.67C133.745 134.066 134.671 132.738 134.961 131.905C135.213 131.264 135.182 130.561 134.874 129.925C134.612 129.289 135.111 129.441 135.172 128.956C135.232 128.47 134.585 128.243 134.626 127.944C134.668 127.645 135.257 127.017 135.08 126.618C134.902 126.22 132.841 126.052 132.664 125.463C132.487 124.874 135.2 114.958 135.329 114.454L132.837 111.692C131.941 111.567 131.396 111.512 131.396 111.512Z" fill="#FF8685"/>
<path fill-rule="evenodd" clip-rule="evenodd" d="M149.855 116.432C149.855 116.432 149.946 115.054 148.536 115.654C147.279 116.198 151.064 105.974 141.952 106.91C135.819 107.539 131.724 111.227 129.009 108.544C126.294 105.861 125.132 111.558 129.346 116.468C133.56 121.377 139.553 123.138 142.958 122.345C146.363 121.553 149.438 120.574 149.855 116.432Z" fill="#412F2F"/>
<path fill-rule="evenodd" clip-rule="evenodd" d="M149.835 116.673C149.835 116.673 149.922 115.341 148.507 115.916C148.326 115.992 148.24 115.851 148.224 115.563L148.226 115.547C148.229 115.507 148.233 115.464 148.218 115.417C147.244 101.833 130.886 121.007 126.461 111.034C126.654 112.623 127.489 114.694 129.228 116.629C133.476 121.39 139.508 123.112 142.928 122.357C146.347 121.602 149.43 120.676 149.835 116.673Z" fill="#281616"/>
<path fill-rule="evenodd" clip-rule="evenodd" d="M144.176 116.49C144.176 116.49 145.427 121.746 146.874 122.879C148.321 124.012 149.121 120.323 149.435 118.918C149.748 117.512 150.3 115.43 149.139 115.291C147.978 115.153 144.176 116.49 144.176 116.49Z" fill="#281616"/>
<path fill-rule="evenodd" clip-rule="evenodd" d="M146.738 122.864C146.738 122.864 148.377 120.43 149.896 121.115C151.415 121.8 149.606 127.353 147.67 127.601C145.733 127.849 144.755 126.076 146.738 122.864Z" fill="#FFE1DA"/>
<path d="M132.605 142.276C135 147.274 145.428 143.158 145.428 143.158C166.135 146.372 162.074 150.804 162.074 155.791C162.074 159.78 152.078 175.186 147.08 182.39C143.093 193.13 148.589 212.623 147.08 214.006C143.831 216.984 112.258 214.312 112.265 210.688C112.28 200.955 110.675 157.826 117.364 143.159C117.93 139.197 129.529 143.702 132.605 142.276Z" fill="#A3CF80"/>
<path fill-rule="evenodd" clip-rule="evenodd" d="M136.047 215.215C140.368 215.367 148.559 215.084 149.515 214.242C151.06 212.884 145.46 192.728 149.515 182.145C152.168 175.213 158.47 165.617 160.946 160.553L155.286 159.753C155.286 159.753 140.298 175.454 138.328 187.618C136.359 199.782 136.156 211.118 136.047 215.215Z" fill="#8AB767"/>
<path fill-rule="evenodd" clip-rule="evenodd" d="M147.341 116.273C147.34 116.296 143.729 124.126 134.04 117.031L133.885 117.242C143.841 124.536 147.58 116.419 147.589 116.4L147.341 116.273Z" fill="#412F2F"/>
<path fill-rule="evenodd" clip-rule="evenodd" d="M151.155 114.543C151.155 114.543 148.886 113.496 147.701 115.08L147.987 115.192C149.031 113.8 151.005 114.713 151.011 114.715L151.155 114.543Z" fill="#281616"/>
<path fill-rule="evenodd" clip-rule="evenodd" d="M150.089 113.099C150.089 113.099 147.233 113.258 147.724 116.304L148.051 116.26C147.632 113.598 150.108 113.445 150.114 113.446L150.089 113.099Z" fill="#281616"/>
<path fill-rule="evenodd" clip-rule="evenodd" d="M146.627 127.669C146.632 127.647 146.626 127.624 146.612 127.605C146.597 127.586 146.575 127.572 146.549 127.566C146.537 127.563 146.524 127.563 146.512 127.564C146.499 127.566 146.488 127.57 146.477 127.575C146.466 127.581 146.457 127.588 146.45 127.597C146.443 127.606 146.438 127.616 146.435 127.627C146.434 127.641 145.544 131.918 140.481 133.703C140.47 133.707 140.46 133.713 140.451 133.721C140.442 133.729 140.436 133.738 140.431 133.748C140.427 133.758 140.425 133.769 140.425 133.78C140.426 133.791 140.429 133.801 140.434 133.811C140.445 133.833 140.465 133.849 140.489 133.858C140.514 133.867 140.541 133.868 140.566 133.86C145.718 132.043 146.624 127.683 146.627 127.669Z" fill="white"/>
<path fill-rule="evenodd" clip-rule="evenodd" d="M149.154 122.106C148 122.947 147.367 123.7 147.072 124.267C146.392 125.578 147.52 125.895 148.196 124.039L147.938 123.968C147.446 125.441 146.799 125.262 147.342 124.302C147.828 123.525 148.514 122.831 149.363 122.256L149.154 122.106Z" fill="#FF8685"/>
<path fill-rule="evenodd" clip-rule="evenodd" d="M142.605 124.983C142.32 124.918 142.023 124.897 141.733 124.921C141.443 124.945 141.165 125.013 140.917 125.122C140.669 125.231 140.455 125.378 140.29 125.553C140.125 125.729 140.011 125.931 139.955 126.145C139.846 126.588 139.969 127.055 140.3 127.448C140.632 127.842 141.145 128.133 141.735 128.262C142.02 128.327 142.317 128.348 142.607 128.324C142.897 128.3 143.175 128.232 143.423 128.123C143.671 128.014 143.884 127.867 144.05 127.691C144.215 127.515 144.329 127.314 144.384 127.1C144.495 126.657 144.372 126.19 144.04 125.796C143.709 125.402 143.195 125.111 142.605 124.983Z" fill="#FF8685"/>
<path fill-rule="evenodd" clip-rule="evenodd" d="M113.441 157.685C125.209 155.667 129.642 152.097 128.297 146.13C125.579 134.058 85.2417 150.244 83.3822 155.03C81.3729 158.027 83.6464 163.545 87.9324 163.822C95.734 164.328 111.456 158.026 113.441 157.685Z" fill="#A3CF80"/>
<path fill-rule="evenodd" clip-rule="evenodd" d="M150.816 342.555C149.766 342.743 128.775 349.58 128.119 352.742H155.284C155.284 352.742 154.347 345.82 150.816 342.555Z" fill="#281616"/>
<path fill-rule="evenodd" clip-rule="evenodd" d="M198.132 244.878C198.79 245.716 214.671 261.053 217.771 260.15L205.035 236.155C205.035 236.155 199.36 240.227 198.132 244.878Z" fill="#281616"/>
<path d="M138.394 219.222L137.939 219.729L149.124 229.732L149.578 229.225L138.394 219.222Z" fill="black"/>
<path fill-rule="evenodd" clip-rule="evenodd" d="M98.5808 140.943C97.4882 153.09 94.7345 164.934 88.1389 164.323C77.1331 163.303 85.7322 132.713 90.8119 120.615C93.5225 118.447 98.0625 119.21 98.4015 122.242C99.1812 129.213 98.7413 139.171 98.5808 140.943Z" fill="#A3CF80"/>
<path fill-rule="evenodd" clip-rule="evenodd" d="M147.996 144.588C147.958 144.607 135.459 151.93 130.923 142.658L130.341 142.939C135.185 152.843 148.269 145.164 148.317 145.144L147.996 144.588Z" fill="#8AB767"/>
<path fill-rule="evenodd" clip-rule="evenodd" d="M125.387 142.418C125.37 142.409 119.578 138.909 99.4621 144.796L99.6764 145.3C119.436 139.514 124.945 142.848 124.962 142.857L125.387 142.418Z" fill="#8AB767"/>
<path d="M137.004 122.973C137.781 122.943 139.423 123.017 139.774 123.553" stroke="#281616" stroke-width="0.61036"/>
<path d="M130.808 122.172C132.016 121.929 132.431 122.049 132.781 122.585" stroke="#281616" stroke-width="0.61036"/>
<path d="M156.95 4.60306V119.531H159.118V4.60306H156.95Z" fill="#7777C6"/>
<path fill-rule="evenodd" clip-rule="evenodd" d="M163.092 85.1031C163.17 84.7999 161.782 79.9791 161.782 79.9791C161.782 79.9791 153.312 79.4924 152.809 79.8617C152.306 80.2311 152.741 86.1163 153.292 86.858C153.842 87.5998 158.415 89.6316 158.415 89.6316L163.092 85.1031Z" fill="#FFE1DA"/>
<path fill-rule="evenodd" clip-rule="evenodd" d="M162.974 79.7119C163.007 79.7235 163.038 79.7375 163.069 79.754C164.079 80.263 166.376 91.7013 166.376 91.7013C164.351 96.4776 161.91 95.4842 161.031 95.0192L155.64 86.1787C156.315 80.4934 162.974 79.7119 162.974 79.7119Z" fill="#FFE1DA"/>
<path fill-rule="evenodd" clip-rule="evenodd" d="M163.736 110.902C167.168 122.604 172.172 133.688 178.523 131.806C189.121 128.666 174.043 101.137 166.708 90.2572C163.736 89.1733 160.745 89.7152 159.926 92.9191C160.517 99.9088 163.234 109.194 163.736 110.902Z" fill="#A3CF80"/>
<path d="M213.721 352.427H219.676" stroke="#B6B6FB"/>
<path d="M12.4117 352.426H51.7206" stroke="#B6B6FB"/>
<path d="M63.6323 352.426H167.265" stroke="#B6B6FB"/>
<path d="M191.088 352.426H243.5" stroke="#B6B6FB"/>
<path d="M106.515 356L205.382 356" stroke="#B6B6FB"/>
<mask id="mask0" mask-type="alpha" maskUnits="userSpaceOnUse" x="17" y="14" width="95" height="44">
<path d="M107.113 21.9507C102.342 22.3844 102.234 23.2157 102.776 23.5771V49.0565C85.9704 43.6354 60.491 53.9355 42.0591 56.6461C27.3136 58.8146 19.2903 53.9355 17.1218 51.225V20.8665C27.422 29.5404 85.4283 16.5296 99.5233 14.9032C113.618 13.2769 113.076 21.4086 107.113 21.9507Z" fill="#E4E4FF"/>
</mask>
<g mask="url(#mask0)">
<path d="M107.113 21.9507C102.342 22.3844 102.234 23.2157 102.776 23.5771V49.0565C85.9704 43.6354 60.491 53.9355 42.0591 56.6461C27.3136 58.8146 19.2903 53.9355 17.1218 51.225V20.8665C27.422 29.5404 85.4283 16.5296 99.5233 14.9032C113.618 13.2769 113.076 21.4086 107.113 21.9507Z" fill="#EDEDFF"/>
<path d="M101.75 50.4634L89.8383 13.5369L115.449 5.79428C115.051 17.1105 113.781 40.934 111.875 45.6987C109.969 50.4634 104.331 50.8605 101.75 50.4634Z" fill="#CFCFFD"/>
</g>
<rect x="17.0844" y="296.179" width="14.095" height="4.33692" transform="rotate(-49.7636 17.0844 296.179)" fill="#6D6DF6"/>
<rect x="209.999" y="175.334" width="14.095" height="4.33692" transform="rotate(-18.9009 209.999 175.334)" fill="#6D6DF6"/>
<rect x="31.1793" y="135.031" width="4.33692" height="4.33692" transform="rotate(-18.9009 31.1793 135.031)" fill="#6D6DF6"/>
<rect x="13.6304" y="264.465" width="5.20467" height="5.20467" transform="rotate(-18.9009 13.6304 264.465)" fill="#FF9085"/>
<rect x="192" y="274.576" width="5.20467" height="5.20467" transform="rotate(43.8796 192 274.576)" fill="#FFD02C"/>
<rect x="83.5772" y="269.155" width="5.20467" height="5.20467" transform="rotate(43.8796 83.5772 269.155)" fill="#6D6DF6"/>
<rect x="207.179" y="165.069" width="5.20467" height="5.20467" transform="rotate(43.8796 207.179 165.069)" fill="#FF9085"/>
<rect x="182.687" y="293.596" width="14.095" height="4.33692" transform="rotate(36.2464 182.687 293.596)" fill="#FF9085"/>
<rect x="9.56451" width="7.1704" height="2.17641" transform="rotate(61.7689 9.56451 0)" fill="#FF9085"/>
<rect x="171.462" y="55.157" width="7.1704" height="2.17641" transform="rotate(40.3002 171.462 55.157)" fill="#FF9085"/>
<rect x="42.2889" y="69.8011" width="7.1704" height="2.17641" transform="rotate(95.4566 42.2889 69.8011)" fill="#FFD02C"/>
<rect x="9.8996" y="39.6973" width="7.1704" height="2.17641" transform="rotate(132.09 9.8996 39.6973)" fill="#6D6DF6"/>
<rect x="136.793" y="4.85907" width="7.1704" height="2.17641" transform="rotate(106.348 136.793 4.85907)" fill="#FF9085"/>
<rect x="108.873" y="289.484" width="10.1243" height="4.33692" transform="rotate(98.7585 108.873 289.484)" fill="#FF9085"/>
<circle cx="37.1425" cy="156.937" r="2.71057" fill="#FFD02C"/>
<circle cx="226.883" cy="187.296" r="2.71057" fill="#FFD02C"/>
<circle cx="55.5745" cy="302.224" r="2.71057" fill="#FF9085"/>
<circle cx="196.524" cy="126.579" r="2.71057" fill="#FF9085"/>
<circle cx="29.0882" cy="67.7354" r="2.38235" fill="#FF9085"/>
<circle cx="176.794" cy="40.3383" r="2.38235" fill="#FF9085"/>
<circle cx="102.196" cy="172.117" r="2.71057" fill="#FFD02C"/>
<circle cx="3.21064" cy="10.8871" r="2.71057" fill="#FFD02C"/>
<circle cx="117.376" cy="90.7993" r="2.71057" fill="#6D6DF6"/>
<circle cx="65.4191" cy="9.96331" r="1.78676" fill="#6D6DF6"/>
<circle cx="17.0843" cy="196.512" r="5.42115" fill="#F5F5FF"/>
<circle cx="79.7133" cy="242.243" r="11.3162" fill="#F5F5FF"/>
<circle cx="214.316" cy="138.61" r="11.3162" fill="#F5F5FF"/>
<circle cx="206.573" cy="286.912" r="7.14706" fill="#F5F5FF"/>
<circle cx="229.593" cy="233.376" r="3.25269" fill="#F5F5FF"/>
<circle cx="124.965" cy="324.993" r="5.96326" fill="#F5F5FF"/>
<circle cx="7.32624" cy="205.186" r="3.25269" fill="#F5F5FF"/>
<path d="M31.4797 32.767L33.6817 34.1846L34.0187 42.6977L38.3036 42.5281C38.3631 39.5164 38.3673 33.2969 37.9071 32.5126C37.4469 31.7283 40.6115 33.0743 42.2514 33.8453C42.4497 38.8531 42.5327 49.0817 41.279 49.9338C40.0252 50.7859 39.1697 46.3392 38.8986 44.0093L34.0782 44.2001L34.2566 48.7071L33.1854 48.7495L31.4797 32.767Z" fill="#FFD02C"/>
<path d="M64.3713 29.0762C65.5962 29.0277 65.9428 30.0374 65.9631 30.5483C65.1627 30.9894 61.887 30.8803 60.3491 30.7706L59.6925 40.0074C61.0535 39.9536 63.7794 39.948 63.7956 40.3567C63.8118 40.7655 61.0939 40.9754 59.733 41.0293L59.915 45.6275C63.0378 47.0391 63.9574 44.4441 65.5087 44.8944C63.5684 47.5298 59.4653 47.1805 56.8528 45.7488C54.2404 44.317 56.7362 29.8902 56.716 29.3793C56.6957 28.8683 62.8403 29.1368 64.3713 29.0762Z" fill="#FF9085"/>
<path d="M78.6583 44.8296C74.9956 44.5584 75.5403 33.3342 76.2705 27.756C76.4537 26.188 79.1397 28.1626 80.8694 28.6144C82.2532 28.9758 81.45 38.4761 80.8755 43.181L84.2938 43.0457C85.6612 42.9916 85.6506 43.6857 85.4744 44.0395C84.7285 44.4158 82.321 45.1008 78.6583 44.8296Z" fill="#FFD02C"/>
<path d="M99.2652 25.2598C99.6182 24.4391 102.365 26.4818 103.694 27.6058C104.703 28.7425 106.127 30.6359 103.754 29.1162C100.788 27.2166 101.167 36.7824 101.227 38.2928C101.286 39.8032 100.845 40.8292 102.789 41.2565C104.733 41.6838 107.178 42.5955 104.773 42.6907C102.368 42.786 99.9828 43.3846 97.979 41.4469C95.9751 39.5092 98.8241 26.2858 99.2652 25.2598Z" fill="#6D6DF6"/>
<path d="M102.776 23.5771C106.246 29.2151 141.085 23.0349 158.072 19.2401V50.1407C151.024 46.3459 123.376 53.9355 113.618 55.5618C105.812 56.8629 103.137 52.4899 102.776 50.1407V23.5771Z" fill="#F8F8FF"/>
<path fill-rule="evenodd" clip-rule="evenodd" d="M117.379 32.4907C116.841 31.6698 115.483 30.5444 114.352 32.6106C112.938 35.1933 111.06 38.8051 111.724 42.8217C112.388 46.8382 113.557 50.8348 118.523 48.6168C123.489 46.3988 123.109 36.812 123.049 35.2983C122.989 33.7846 121.256 28.2945 117.379 32.4907ZM119.477 34.429C118.953 33.9444 117.718 33.3868 116.975 35.0334C116.045 37.0916 114.407 46.7583 117.494 48.1521C117.723 47.9043 117.943 47.6704 118.155 47.4456C120.185 45.2917 121.419 43.9818 121.695 39.3947C122 34.3291 119.762 28.8588 119.477 34.429Z" fill="#FFD02C"/>
<path d="M128.34 38.8803C128.421 40.9309 129.599 41.0554 130.178 40.8614C131.308 39.7896 131.752 36.1779 131.63 33.1019C131.508 30.0259 131.448 28.4879 129.65 27.5321C127.853 26.5763 128.238 36.3169 128.34 38.8803Z" fill="#FF9085"/>
<path d="M128.523 43.4943C128.368 44.5273 128.644 46.5703 130.987 46.4775C133.915 46.3616 128.517 42.4676 128.523 43.4943Z" fill="#FF9085"/>
<path d="M71.9706 78.0221C71.375 81.3971 71.7323 88.5044 77.9264 89.9338M65.4191 70.875C62.4411 78.4191 59.5823 94.8176 71.9706 100.059" stroke="#B6B6FB"/>
<path d="M94.603 13.1029C102.743 13.1029 117.116 14.6515 109.493 20.8456C99.9633 28.5882 132.721 20.8456 139.868 20.25M15.9854 56.5809C18.9633 58.5662 29.5648 63.1323 45.7648 58.3676C66.0148 52.4117 74.353 50.0294 83.8824 50.0294" stroke="#B6B6FB"/>
</svg>
