<svg width="120" height="120" viewBox="0 0 120 120" fill="none" xmlns="http://www.w3.org/2000/svg">
<mask id="mask0" mask-type="alpha" maskUnits="userSpaceOnUse" x="0" y="0" width="120" height="120">
<rect width="120" height="120" rx="60" fill="url(#paint0_linear)"/>
</mask>
<g mask="url(#mask0)">
<g filter="url(#filter0_ddd)">
<path fill-rule="evenodd" clip-rule="evenodd" d="M18.5398 43.622C8.85067 43.7601 0 50.3099 0 60C0 93.1371 26.8629 120 60 120C77.4259 120 75.4891 99.6823 58.8919 94.3722L49.5886 91.3957C46.9157 90.5406 44.1453 89.7411 41.7845 88.2238C39.0984 86.4974 35.9985 83.8501 35.9985 81.4424C35.9985 75.8938 37.8883 70.5107 41.3568 66.1799L58.9607 44.1988C59.142 43.9723 59.3911 43.7429 59.3911 43.4528C59.3911 43.1827 59.2073 43.0476 58.8397 43.0476L18.5398 43.622ZM58.0478 0.0311601C30.5975 0.908646 41.8825 30.3304 69.3448 30C76.2465 30 76.2465 37.2667 76.2465 38.2932C76.2465 41.8942 75.0138 45.3868 72.7535 48.1901L53.1277 72.5307C52.9456 72.7565 52.6962 72.9857 52.6962 73.2757C52.6962 73.7944 53.4905 73.7298 53.9998 73.8279C57.9061 74.5804 76.17 77.9687 88.4982 77.9999C92.9811 78.0112 98.2337 77.5825 103.32 76.9913C112.374 75.9388 120 69.1152 120 60C120 26.8629 93.1371 0 60 0C59.3468 0 58.696 0.0104393 58.0478 0.0311601Z" fill="url(#paint1_linear)"/>
</g>
</g>
<defs>
<filter id="filter0_ddd" x="-156.025" y="-132.621" width="432.05" height="439.851" filterUnits="userSpaceOnUse" color-interpolation-filters="sRGB">
<feFlood flood-opacity="0" result="BackgroundImageFix"/>
<feColorMatrix in="SourceAlpha" type="matrix" values="0 0 0 0 0 0 0 0 0 0 0 0 0 0 0 0 0 0 127 0"/>
<feOffset dy="31.205"/>
<feGaussianBlur stdDeviation="31.205"/>
<feColorMatrix type="matrix" values="0 0 0 0 0.427451 0 0 0 0 0.427451 0 0 0 0 0.964706 0 0 0 0.05 0"/>
<feBlend mode="normal" in2="BackgroundImageFix" result="effect1_dropShadow"/>
<feColorMatrix in="SourceAlpha" type="matrix" values="0 0 0 0 0 0 0 0 0 0 0 0 0 0 0 0 0 0 127 0"/>
<feOffset dy="23.4037"/>
<feGaussianBlur stdDeviation="78.0125"/>
<feColorMatrix type="matrix" values="0 0 0 0 0.427451 0 0 0 0 0.427451 0 0 0 0 0.964706 0 0 0 0.03 0"/>
<feBlend mode="normal" in2="effect1_dropShadow" result="effect2_dropShadow"/>
<feColorMatrix in="SourceAlpha" type="matrix" values="0 0 0 0 0 0 0 0 0 0 0 0 0 0 0 0 0 0 127 0"/>
<feOffset dy="62.41"/>
<feGaussianBlur stdDeviation="62.41"/>
<feColorMatrix type="matrix" values="0 0 0 0 0.42844 0 0 0 0 0.42844 0 0 0 0 0.966651 0 0 0 0.12 0"/>
<feBlend mode="normal" in2="effect2_dropShadow" result="effect3_dropShadow"/>
<feBlend mode="normal" in="SourceGraphic" in2="effect3_dropShadow" result="shape"/>
</filter>
<linearGradient id="paint0_linear" x1="12.3992" y1="104.063" x2="92.6744" y2="104.129" gradientUnits="userSpaceOnUse">
<stop stop-color="#6523DF"/>
<stop offset="1" stop-color="#DF2389"/>
</linearGradient>
<linearGradient id="paint1_linear" x1="12.3992" y1="104.063" x2="92.6744" y2="104.129" gradientUnits="userSpaceOnUse">
<stop stop-color="#6523DF"/>
<stop offset="1" stop-color="#DF2389"/>
</linearGradient>
</defs>
</svg>
