<svg width="256" height="214" viewBox="0 0 256 214" fill="none" xmlns="http://www.w3.org/2000/svg">
<mask id="mask0_21625_114166" style="mask-type:alpha" maskUnits="userSpaceOnUse" x="0" y="0" width="256" height="214">
<rect width="256" height="214" fill="#C4C4C4"/>
</mask>
<g mask="url(#mask0_21625_114166)">
<rect opacity="0.04" x="28.9941" y="221.305" width="156.725" height="153.675" rx="48" transform="rotate(-104.03 28.9941 221.305)" fill="#353A3E"/>
<rect opacity="0.04" x="160.613" y="97.3909" width="79.0082" height="77.4706" rx="26" transform="rotate(-72.5953 160.613 97.3909)" fill="#353A3E"/>
<rect opacity="0.04" x="128.377" y="36.7231" width="34.2926" height="33.6252" rx="12" transform="rotate(-102.422 128.377 36.7231)" fill="#353A3E"/>
<path d="M6 176L177 176" stroke="#DEDFE4" stroke-width="3" stroke-linecap="round"/>
<path d="M189 176H236" stroke="#DEDFE4" stroke-width="3" stroke-linecap="round"/>
<path d="M46 71C46 68.7909 47.7909 67 50 67H206.545C208.755 67 210.545 68.7909 210.545 71V165.182H46V71Z" fill="#828796"/>
<path d="M49.5449 73.3635H206.818V158.818H49.5449V73.3635Z" fill="#DEDFE4"/>
<path d="M49.5449 78.8181H206.818V158.818H49.5449V78.8181Z" fill="white"/>
<path d="M73.1825 75.1819H65.703C65.0225 75.1819 64.3886 75.5279 64.0206 76.1004L62.2734 78.8182H73.1825H84.0916L82.3444 76.1004C81.9764 75.5279 81.3426 75.1819 80.6621 75.1819H73.1825Z" fill="white"/>
<path d="M96.8173 75.1819H89.3378C88.6572 75.1819 88.0234 75.5279 87.6554 76.1004L85.9082 78.8182H96.8173H107.726L105.979 76.1004C105.611 75.5279 104.977 75.1819 104.297 75.1819H96.8173Z" fill="#C9CBD4"/>
<path d="M120.454 75.1819H112.974C112.294 75.1819 111.66 75.5279 111.292 76.1004L109.545 78.8182H120.454H131.363L129.616 76.1004C129.248 75.5279 128.614 75.1819 127.934 75.1819H120.454Z" fill="#C9CBD4"/>
<circle cx="53.1825" cy="76.091" r="0.909091" fill="#C9CBD4"/>
<circle cx="55.9091" cy="76.091" r="0.909091" fill="#C9CBD4"/>
<circle cx="58.6357" cy="76.091" r="0.909091" fill="#C9CBD4"/>
<rect x="25" y="165.182" width="206.364" height="0.909091" fill="#F7F7F7"/>
<path d="M25 166.091C25 171.112 29.0701 175.182 34.0909 175.182H222.273C227.294 175.182 231.364 171.112 231.364 166.091H25Z" fill="#BABDC8"/>
<path d="M113.182 166.091C113.182 168.099 114.81 169.727 116.818 169.727H139.545C141.554 169.727 143.182 168.099 143.182 166.091H113.182Z" fill="#8C909E"/>
<path fill-rule="evenodd" clip-rule="evenodd" d="M139.935 128.64H117.001C116.239 128.64 115.757 127.821 116.127 127.155L127.594 106.514C127.975 105.829 128.962 105.829 129.343 106.514L140.809 127.155C141.18 127.821 140.698 128.64 139.935 128.64ZM128.469 112.744C129.021 112.744 129.469 113.191 129.469 113.744V121.643C129.469 122.196 129.021 122.643 128.469 122.643C127.917 122.643 127.469 122.196 127.469 121.643V113.744C127.469 113.191 127.917 112.744 128.469 112.744ZM128.469 122.965C129.021 122.965 129.469 123.412 129.469 123.965V124.239C129.469 124.791 129.021 125.239 128.469 125.239C127.917 125.239 127.469 124.791 127.469 124.239V123.965C127.469 123.412 127.917 122.965 128.469 122.965Z" fill="#FF5256"/>
<path d="M116.8 96H110C107.791 96 106 97.7909 106 100V106.8" stroke="#828796" stroke-width="2" stroke-linecap="round"/>
<path d="M116.8 141H110C107.791 141 106 139.209 106 137V130.2" stroke="#828796" stroke-width="2" stroke-linecap="round"/>
<path d="M140.2 96H147C149.209 96 151 97.7909 151 100V106.8" stroke="#828796" stroke-width="2" stroke-linecap="round"/>
<path d="M140.2 141H147C149.209 141 151 139.209 151 137V130.2" stroke="#828796" stroke-width="2" stroke-linecap="round"/>
</g>
</svg>
