<svg width="256" height="214" viewBox="0 0 256 214" fill="none" xmlns="http://www.w3.org/2000/svg">
<mask id="mask0_21585_159398" style="mask-type:alpha" maskUnits="userSpaceOnUse" x="0" y="0" width="256" height="214">
<rect width="256" height="214" fill="#C4C4C4"/>
</mask>
<g mask="url(#mask0_21585_159398)">
<rect opacity="0.03" x="-10.4866" y="140.623" width="147.586" height="144.713" rx="42" transform="rotate(-66.1455 -10.4866 140.623)" fill="#353A3E"/>
<rect opacity="0.03" x="192.366" y="197.047" width="70.5274" height="69.1548" rx="20" transform="rotate(-116.817 192.366 197.047)" fill="#353A3E"/>
<rect opacity="0.03" x="174.337" y="70.025" width="38.7575" height="38.0031" rx="12" transform="rotate(-102.422 174.337 70.025)" fill="#353A3E"/>
<path d="M99.92 53H78C75.7909 53 74 54.7909 74 57V78.92" stroke="#828796" stroke-width="3" stroke-linecap="round"/>
<path d="M99.92 161H78C75.7909 161 74 159.209 74 157V135.08" stroke="#828796" stroke-width="3" stroke-linecap="round"/>
<path d="M156.08 53H178C180.209 53 182 54.7909 182 57V78.92" stroke="#828796" stroke-width="3" stroke-linecap="round"/>
<path d="M156.08 161H178C180.209 161 182 159.209 182 157V135.08" stroke="#828796" stroke-width="3" stroke-linecap="round"/>
<path d="M150.464 154.118L101.505 150.27C100.404 150.183 99.5813 149.221 99.6679 148.119L105.186 77.9254C105.272 76.8242 106.235 76.0017 107.336 76.0882L143.242 78.9107L156.987 96.6614L152.615 152.281C152.528 153.382 151.565 154.205 150.464 154.118Z" fill="#C1C4CD"/>
<path d="M153.381 150.673L98.9715 146.396C97.8703 146.309 97.0478 145.346 97.1344 144.245L103.276 66.1115C103.363 65.0104 104.326 64.1878 105.427 64.2744L145.234 67.4035L160.388 87.0492L155.532 148.835C155.445 149.937 154.482 150.759 153.381 150.673Z" fill="white"/>
<path d="M145.234 67.4035L105.427 64.2744C104.326 64.1878 103.363 65.0104 103.276 66.1115L97.1344 144.245C97.0478 145.346 97.8703 146.309 98.9715 146.396L153.381 150.673C154.482 150.759 155.445 149.937 155.532 148.835L160.388 87.0492M145.234 67.4035L143.949 83.7508C143.863 84.852 144.685 85.8148 145.786 85.9014L160.388 87.0492M145.234 67.4035L160.388 87.0492" stroke="#DFE0E6"/>
<path d="M145.234 67.4035L105.427 64.2744C104.326 64.1878 103.363 65.0104 103.276 66.1115L97.1344 144.245C97.0478 145.346 97.8703 146.309 98.9715 146.396L153.381 150.673C154.482 150.759 155.445 149.937 155.532 148.835L160.388 87.0492M145.234 67.4035L143.949 83.7508C143.863 84.852 144.685 85.8148 145.786 85.9014L160.388 87.0492M145.234 67.4035L160.388 87.0492" stroke="#DFE0E6" stroke-width="2"/>
<path d="M105.427 64.2744L145.234 67.4035L160.388 87.0492L159.823 94.2418C159.741 95.2824 158.873 96.0851 157.829 96.0851L103.083 96.0851C101.917 96.0851 100.998 95.0911 101.09 93.9284L103.276 66.1115C103.363 65.0104 104.326 64.1878 105.427 64.2744Z" fill="#FFD9DA"/>
<path d="M145.234 67.4035L105.427 64.2744C104.326 64.1878 103.363 65.0104 103.276 66.1115L101.09 93.9284C100.998 95.0911 101.917 96.0851 103.083 96.0851L157.829 96.0851C158.873 96.0851 159.741 95.2824 159.823 94.2418L160.388 87.0492M145.234 67.4035L143.949 83.7508C143.863 84.852 144.685 85.8148 145.786 85.9014L160.388 87.0492M145.234 67.4035L160.388 87.0492" stroke="#FFD9DA" stroke-width="2"/>
<path d="M160.472 86.9234L144.66 85.7447L159.119 95.5621C159.744 95.9865 160.596 95.5909 160.675 94.8394L161.392 88.0253C161.451 87.4642 161.035 86.9653 160.472 86.9234Z" fill="#FFC8C9"/>
<path d="M143.949 83.7507L145.234 67.4034L160.388 87.0491L145.786 85.9013C144.685 85.8148 143.863 84.8519 143.949 83.7507Z" fill="#FF8A8D"/>
<path d="M145.234 67.4034L146.026 66.7927C145.773 66.4652 145.345 66.327 144.949 66.445C144.552 66.563 144.27 66.9128 144.237 67.3251L145.234 67.4034ZM160.388 87.0491L160.31 88.0461C160.704 88.077 161.08 87.8729 161.268 87.5251C161.456 87.1774 161.422 86.7514 161.18 86.4384L160.388 87.0491ZM144.237 67.3251L142.952 83.6724L144.946 83.8291L146.231 67.4818L144.237 67.3251ZM145.708 86.8982L160.31 88.0461L160.467 86.0522L145.865 84.9044L145.708 86.8982ZM161.18 86.4384L146.026 66.7927L144.442 68.0142L159.597 87.6599L161.18 86.4384ZM142.952 83.6724C142.822 85.3241 144.056 86.7684 145.708 86.8982L145.865 84.9044C145.314 84.8611 144.903 84.3797 144.946 83.8291L142.952 83.6724Z" fill="#FF8A8D"/>
<rect x="109.777" y="75.7683" width="23.8235" height="12.7059" rx="2" transform="rotate(4.49456 109.777 75.7683)" fill="#FEEDED"/>
<rect x="106.665" y="115.352" width="42.8824" height="12.7059" rx="2" transform="rotate(4.49456 106.665 115.352)" fill="#DFE0E7"/>
<rect x="107.412" y="105.852" width="42.8824" height="3.17647" rx="1.58824" transform="rotate(4.49456 107.412 105.852)" fill="#DFE0E7"/>
<rect x="105.421" y="131.186" width="42.8824" height="3.17647" rx="1.58824" transform="rotate(4.49456 105.421 131.186)" fill="#DFE0E7"/>
<rect x="107.786" y="101.102" width="42.8824" height="3.17647" rx="1.58824" transform="rotate(4.49456 107.786 101.102)" fill="#DFE0E7"/>
<path d="M81.9414 95.8823H174.059" stroke="#FF5256" stroke-width="3" stroke-linecap="round" stroke-linejoin="round"/>
</g>
</svg>
