<svg width="1922" height="664" viewBox="0 0 1922 664" fill="none" xmlns="http://www.w3.org/2000/svg">
<mask id="mask0" mask-type="alpha" maskUnits="userSpaceOnUse" x="0" y="0" width="1922" height="664">
<path d="M0.558617 0H1921.56C1921.56 0 1921.56 329 1921.56 569C1618 767 1312.5 593 930 593C547.499 593 156.856 690.388 0.558594 615C0.558751 341 0.558617 0 0.558617 0Z" fill="url(#paint0_linear)"/>
</mask>
<g mask="url(#mask0)">
<path d="M0.558617 0H1921.56C1921.56 0 1921.56 329 1921.56 569C1618 767 1312.5 593 930 593C547.499 593 156.856 690.388 0.558594 615C0.558751 341 0.558617 0 0.558617 0Z" fill="url(#paint1_linear)"/>
<path fill-rule="evenodd" clip-rule="evenodd" d="M1505.13 241.317C1504.53 240.893 1499.38 226.152 1499.38 226.152C1499.38 226.152 1514.58 213.495 1521.39 211.025C1522.95 210.787 1532.4 211.024 1532.4 211.024C1532.36 213.435 1518.64 237.163 1518.64 237.163L1505.13 241.317Z" fill="#FF8685"/>
<path fill-rule="evenodd" clip-rule="evenodd" d="M1585.28 193.047C1585.28 193.047 1585.46 188.89 1581.18 191.067C1580.63 191.342 1580.39 190.936 1580.29 190.051V190C1580.29 189.877 1580.28 189.746 1580.25 189.601C1576.31 148.023 1527.78 211.366 1513.56 181.838C1514.25 186.685 1516.96 192.837 1522.39 198.372C1535.7 211.918 1554.21 215.632 1564.61 212.389C1575 209.146 1584.33 205.482 1585.28 193.047Z" fill="#281616"/>
<path fill-rule="evenodd" clip-rule="evenodd" d="M1582.06 206.046C1583.47 209.113 1585.01 211.81 1586.65 212.931C1591.41 216.229 1593.78 204.009 1594.72 199.353C1595.66 194.697 1597.33 187.779 1593.54 187.654C1591.92 187.751 1590.33 188.075 1588.81 188.616C1588.27 183.624 1592.55 163.556 1568.71 167.513C1549.85 170.639 1537.52 181.573 1528.94 174.939C1520.36 168.305 1517.22 183.994 1530.61 196.299C1543.99 208.605 1562.63 211.995 1573.06 209.047C1576.13 208.234 1579.14 207.232 1582.06 206.046V206.046Z" fill="white"/>
<path fill-rule="evenodd" clip-rule="evenodd" d="M1529.5 192.358C1529.5 192.358 1533.59 209.551 1538.06 212.921C1542.53 216.292 1544.76 203.745 1545.65 198.957C1546.53 194.169 1548.1 187.055 1544.54 186.926C1540.98 186.797 1529.5 192.358 1529.5 192.358Z" fill="#281616"/>
<path fill-rule="evenodd" clip-rule="evenodd" d="M1572.78 213.488L1585.28 220.372L1583.64 278.275L1540.12 282.557L1547.74 232.315L1572.78 213.488Z" fill="#FFE1DA"/>
<path opacity="0.2" fill-rule="evenodd" clip-rule="evenodd" d="M1572.35 213.488L1578.6 217.08C1579.51 237.727 1564.22 262.888 1542.78 263.962L1547.25 233.193L1572.35 213.488Z" fill="#FF8685"/>
<path fill-rule="evenodd" clip-rule="evenodd" d="M1536.82 180.283C1537.69 183.518 1526.47 248.541 1549.24 249.335C1572.02 250.128 1588.13 222.202 1584.86 201.65C1581.6 181.097 1536.82 180.283 1536.82 180.283Z" fill="#FFD3CA"/>
<path fill-rule="evenodd" clip-rule="evenodd" d="M1560.05 249.351C1576.81 243.068 1587.56 220.321 1584.87 202.836C1584.2 198.485 1581.75 195.012 1578.29 192.237C1574.38 193.052 1571.17 193.799 1571.17 193.799C1571.17 193.799 1573.41 220.801 1567.52 227.42C1563.06 232.435 1561.34 242.931 1560.05 249.351Z" fill="#FFE1DA"/>
<path fill-rule="evenodd" clip-rule="evenodd" d="M1539.17 180.283C1539.5 181.617 1538.03 192.994 1537.47 206.341C1549.1 213.756 1562.53 214.978 1570.73 211.948C1576.31 209.886 1581.58 207.711 1585.28 204.053C1585.23 203.545 1585.17 203.029 1585.1 202.528C1581.98 181.109 1539.17 180.283 1539.17 180.283Z" fill="#FF8685"/>
<path opacity="0.4" fill-rule="evenodd" clip-rule="evenodd" d="M1536.72 180.283C1537.52 183.414 1527.62 244.099 1546.34 249.351C1546.33 249.055 1546.23 248.769 1546.06 248.533C1543.09 244.181 1545.62 240.928 1546.31 238.438C1546.92 236.567 1546.82 234.527 1546.03 232.729C1545.37 230.949 1546.62 231.269 1546.75 229.864C1546.89 228.459 1545.26 227.941 1545.37 227.067C1545.47 226.194 1546.36 224.094 1545.87 222.975C1545.38 221.856 1540.84 222.02 1540.38 220.369C1539.91 218.719 1546.33 189.355 1546.65 187.847L1540.33 180.474C1538.09 180.31 1536.72 180.283 1536.72 180.283Z" fill="#FF8685"/>
<path fill-rule="evenodd" clip-rule="evenodd" d="M1593.25 191.908C1593.25 191.908 1593.44 188.053 1589.01 190.068C1585.08 191.868 1596.22 162.803 1567.39 167.518C1547.98 170.695 1535.3 181.839 1526.48 175.082C1517.66 168.324 1514.46 184.304 1528.21 196.832C1541.97 209.36 1561.14 212.819 1571.87 209.816C1582.6 206.814 1592.29 203.415 1593.25 191.908Z" fill="#412F2F"/>
<path fill-rule="evenodd" clip-rule="evenodd" d="M1593.25 191.802C1593.25 191.802 1593.43 187.924 1589.15 189.951C1588.61 190.214 1588.36 189.829 1588.26 189.005V188.965C1588.26 188.85 1588.26 188.721 1588.26 188.593C1584.31 149.867 1535.75 208.895 1521.53 181.364C1522.22 185.877 1524.93 191.606 1530.37 196.761C1543.7 209.375 1562.22 212.827 1572.6 209.807C1582.98 206.787 1592.32 203.375 1593.25 191.802Z" fill="#281616"/>
<path fill-rule="evenodd" clip-rule="evenodd" d="M1573.33 192.352C1573.33 192.352 1578.04 209.551 1583.21 212.922C1588.38 216.292 1590.95 203.739 1591.96 198.951C1592.97 194.162 1594.79 187.055 1590.71 186.926C1586.63 186.797 1573.33 192.352 1573.33 192.352Z" fill="#281616"/>
<path fill-rule="evenodd" clip-rule="evenodd" d="M1583.95 211.637C1583.95 211.637 1587.98 204.122 1591.8 205.75C1595.63 207.378 1591.21 224.044 1586.36 225.261C1581.51 226.479 1579.09 221.521 1583.95 211.637Z" fill="#FFE1DA"/>
<path fill-rule="evenodd" clip-rule="evenodd" d="M1584.46 194.894C1584.42 194.958 1573.12 218.771 1540.62 200.438L1540.12 201.086C1573.53 219.93 1585.28 195.256 1585.28 195.179L1584.46 194.894Z" fill="#412F2F"/>
<path fill-rule="evenodd" clip-rule="evenodd" d="M1595.91 187.428C1595.91 187.428 1588.96 185.434 1585.28 189.376L1586.15 189.58C1589.37 186.119 1595.42 187.856 1595.45 187.868L1595.91 187.428Z" fill="#281616"/>
<path fill-rule="evenodd" clip-rule="evenodd" d="M1593.09 182.938C1593.09 182.938 1583.64 184.04 1585.53 192.236L1586.67 192.04C1585.01 184.842 1593.22 183.89 1593.25 183.882L1593.09 182.938Z" fill="#281616"/>
<path fill-rule="evenodd" clip-rule="evenodd" d="M1557.18 230.756C1557.18 230.756 1548.36 232.024 1542.78 232.034V233.412C1551.37 232.024 1557.39 232.044 1557.39 232.034L1557.18 230.756Z" fill="#FF8685"/>
<path opacity="0.5" fill-rule="evenodd" clip-rule="evenodd" d="M1581.29 225.782C1581.3 225.744 1581.3 225.705 1581.29 225.667C1581.28 225.63 1581.26 225.595 1581.24 225.565C1581.2 225.501 1581.13 225.457 1581.06 225.442H1580.94C1580.9 225.45 1580.86 225.465 1580.83 225.486C1580.8 225.509 1580.77 225.538 1580.75 225.572C1580.72 225.608 1580.71 225.647 1580.7 225.688C1579.59 230.689 1577.4 235.363 1574.32 239.365C1571.23 243.366 1567.32 246.592 1562.87 248.803C1562.83 248.82 1562.8 248.843 1562.78 248.871C1562.75 248.9 1562.74 248.933 1562.72 248.97C1562.7 249.044 1562.7 249.126 1562.72 249.201C1562.74 249.237 1562.77 249.269 1562.8 249.295L1562.92 249.345C1562.96 249.353 1563 249.353 1563.04 249.345C1563.07 249.352 1563.1 249.352 1563.14 249.345C1567.67 247.089 1571.65 243.799 1574.79 239.72C1577.94 235.641 1580.16 230.877 1581.29 225.782V225.782Z" fill="white"/>
<path fill-rule="evenodd" clip-rule="evenodd" d="M1592.62 208.175C1588.92 211.837 1586.89 214.983 1585.95 217.284C1583.78 222.623 1587.41 223.49 1589.56 216.03L1588.72 215.843C1587.2 221.734 1585.09 221.261 1586.78 217.348C1587.68 215.277 1589.63 212.246 1593.25 208.691L1592.62 208.175Z" fill="#FF8685"/>
<path fill-rule="evenodd" clip-rule="evenodd" d="M1569.02 221.553C1567.65 221.272 1566.23 221.619 1565.07 222.524C1563.91 223.428 1563.09 224.82 1562.79 226.41C1562.66 227.189 1562.67 227.99 1562.82 228.764C1562.97 229.538 1563.25 230.269 1563.64 230.914C1564.04 231.559 1564.54 232.105 1565.12 232.517C1565.7 232.93 1566.34 233.202 1567.01 233.316C1568.39 233.599 1569.8 233.251 1570.96 232.345C1572.12 231.439 1572.94 230.044 1573.24 228.452C1573.37 227.674 1573.36 226.874 1573.21 226.101C1573.06 225.327 1572.79 224.596 1572.39 223.951C1572 223.307 1571.5 222.762 1570.92 222.35C1570.34 221.938 1569.69 221.667 1569.02 221.553V221.553Z" fill="#FF8685"/>
<path fill-rule="evenodd" clip-rule="evenodd" d="M1558.77 213.489C1558.42 213.479 1558.08 213.611 1557.82 213.857C1557.69 213.977 1557.59 214.122 1557.51 214.284C1557.44 214.447 1557.4 214.623 1557.39 214.802C1557.39 214.977 1557.42 215.151 1557.48 215.314C1557.55 215.476 1557.64 215.624 1557.76 215.748C1557.88 215.872 1558.02 215.971 1558.18 216.038C1558.33 216.106 1558.5 216.14 1558.67 216.14C1558.89 216.159 1559.1 216.119 1559.3 216.024C1559.5 215.929 1559.67 215.783 1559.8 215.6C1559.93 215.417 1560.01 215.202 1560.04 214.977C1560.06 214.752 1560.03 214.523 1559.95 214.314C1559.82 213.989 1559.57 213.73 1559.25 213.59C1559.1 213.525 1558.93 213.491 1558.77 213.489V213.489Z" fill="#281616"/>
<path fill-rule="evenodd" clip-rule="evenodd" d="M1538.96 213.497C1538.62 213.457 1538.27 213.556 1537.99 213.775C1537.71 213.994 1537.53 214.315 1537.48 214.671C1537.45 214.847 1537.47 215.025 1537.51 215.195C1537.56 215.362 1537.64 215.518 1537.75 215.656C1537.85 215.794 1537.99 215.906 1538.14 215.984C1538.29 216.069 1538.45 216.121 1538.62 216.136C1538.97 216.176 1539.32 216.077 1539.59 215.858C1539.87 215.64 1540.06 215.319 1540.11 214.962C1540.13 214.786 1540.12 214.608 1540.07 214.438C1540.03 214.268 1539.95 214.11 1539.84 213.977C1539.73 213.84 1539.6 213.727 1539.45 213.642C1539.3 213.559 1539.13 213.509 1538.96 213.497V213.497Z" fill="#281616"/>
<path fill-rule="evenodd" clip-rule="evenodd" d="M1563.53 213.496L1565.11 219.228C1565.3 219.873 1565.38 220.551 1565.35 221.229C1565.35 221.383 1565.33 221.537 1565.31 221.689C1565.29 221.849 1565.27 222.008 1565.23 222.165C1565.16 222.446 1565.07 222.719 1564.96 222.981C1564.86 223.217 1564.74 223.442 1564.6 223.653C1564.21 224.233 1563.7 224.696 1563.11 224.997V224.997C1562.99 225.061 1562.87 225.117 1562.75 225.163C1562.35 225.317 1561.93 225.411 1561.51 225.442H1550.08L1547.94 217.747L1547.41 215.822L1546.76 213.488L1563.53 213.496ZM1551.08 223.97H1561.23C1561.61 223.97 1561.99 223.902 1562.36 223.766C1562.83 223.592 1563.24 223.259 1563.53 222.815C1563.83 222.348 1563.99 221.797 1564.01 221.229C1564.03 220.717 1563.97 220.205 1563.82 219.718L1562.73 215.769L1562.51 215.014H1548.59L1551.08 223.97Z" fill="#281616"/>
<path fill-rule="evenodd" clip-rule="evenodd" d="M1526.24 214.976H1541.9L1542.47 216.796C1542.65 215.814 1542.85 214.749 1543.08 213.617L1543.04 213.488H1524.18L1526.12 219.718C1526.66 221.334 1527.7 222.747 1529.08 223.766C1530.41 224.808 1532.05 225.396 1533.75 225.442H1546.76L1546.48 224.529C1545.71 224.34 1544.9 224.174 1544.11 223.962H1533.83C1532.44 223.912 1531.11 223.421 1530.03 222.565C1528.88 221.726 1528.02 220.558 1527.56 219.22L1526.24 214.976Z" fill="#281616"/>
<path fill-rule="evenodd" clip-rule="evenodd" d="M1549.42 214.932C1549.42 214.932 1541.86 211.486 1540.12 215.242L1541.7 215.655C1542.69 213.505 1548.59 216.138 1548.63 216.145L1549.42 214.932Z" fill="#281616"/>
<path fill-rule="evenodd" clip-rule="evenodd" d="M1476.8 327.972C1445.17 335.516 1416.2 347.98 1425.41 367.751C1443.99 407.771 1555.18 344.594 1558.67 332.941C1567.21 304.394 1485.09 325.985 1476.8 327.972Z" fill="#FCE8E8"/>
<path fill-rule="evenodd" clip-rule="evenodd" d="M1490.98 497.802L1506.17 720.857L1510.92 791.049L1527.82 1037H1570.67L1566.44 529.32C1566.44 529.32 1504.59 458.136 1490.98 497.802Z" fill="#281616"/>
<path fill-rule="evenodd" clip-rule="evenodd" d="M1617.86 497.807L1637.2 656.226L1645.07 720.85L1653.62 791.041L1683.57 1037H1639.73L1546.76 529.285C1546.76 529.285 1596.37 458.141 1617.86 497.807Z" fill="#9E9EDF"/>
<path fill-rule="evenodd" clip-rule="evenodd" d="M1594.15 485.779L1614.5 497.763C1614.5 497.763 1589.04 587.887 1560.34 588.053C1531.64 588.22 1513.56 497.245 1513.56 497.245L1594.15 485.779Z" fill="#9E9EDF"/>
<path fill-rule="evenodd" clip-rule="evenodd" d="M1642.4 302.639L1585.37 269.274C1585.37 269.274 1549.02 288.663 1538.23 271.351C1527.59 277.847 1494.37 290.632 1488.52 308.623C1470.17 365.106 1487.9 489.5 1491.86 525.148C1493.33 538.425 1609.98 540.295 1620.61 528.041C1625.54 522.353 1613.93 451.51 1624.05 410.527C1635.71 363.049 1642.4 302.639 1642.4 302.639Z" fill="white"/>
<path fill-rule="evenodd" clip-rule="evenodd" d="M1590.05 533.595C1607.25 532.345 1620.53 529.983 1623.94 526.458C1629.46 520.769 1616.46 449.912 1627.79 408.921C1635.2 382.077 1645.48 353.431 1653.02 333.595L1640.59 326.389C1640.59 326.389 1588.25 387.953 1585.89 433.935C1583.54 479.916 1588.64 518.337 1590.05 533.595Z" fill="#FCE8E8"/>
<path d="M1592.39 550.416L1590.72 552.279L1631.88 589.09L1633.55 587.226L1592.39 550.416Z" fill="black"/>
<path fill-rule="evenodd" clip-rule="evenodd" d="M1594.45 271.931C1594.32 272.025 1550.09 307.681 1528.93 271.931L1526.84 273.347C1549.44 311.531 1595.73 274.158 1595.91 274.054L1594.45 271.931Z" fill="#3B47BC"/>
<path fill-rule="evenodd" clip-rule="evenodd" d="M1581.3 577.654L1612.09 965.275L1614.5 965.049L1583.71 577.428L1581.3 577.654Z" fill="white"/>
<path fill-rule="evenodd" clip-rule="evenodd" d="M1632.36 313.106C1632.31 313.165 1613.39 332.575 1631.98 406.084L1634.43 405.492C1616.15 333.284 1634.17 314.824 1634.22 314.766L1632.36 313.106Z" fill="#3B47BC"/>
<path fill-rule="evenodd" clip-rule="evenodd" d="M1487.29 324.618C1469.31 356.073 1448.44 388.376 1430.59 373.367C1400.85 348.459 1460.56 272.905 1489.75 249.548C1502.06 249.733 1506.26 244.575 1510.39 255.05C1504.01 275.989 1489.93 320.022 1487.29 324.618Z" fill="#FCE8E8"/>
<path fill-rule="evenodd" clip-rule="evenodd" d="M1511.73 251.444C1510.95 255.86 1505.48 258.713 1499.52 257.809C1493.57 256.904 1489.35 252.606 1490.14 248.188C1490.93 243.771 1496.4 240.919 1502.35 241.824C1508.3 242.729 1512.52 247.027 1511.73 251.444Z" fill="#281616"/>
<path fill-rule="evenodd" clip-rule="evenodd" d="M1499.62 226.117C1499.62 226.117 1492.83 234.74 1494.21 251.25C1495.25 255.051 1498 257.803 1505.21 256.753C1513.14 249.547 1522.19 240.14 1520.35 231.988C1513.65 227.405 1508.52 223.781 1499.62 226.117Z" fill="#FFE1DA"/>
<path fill-rule="evenodd" clip-rule="evenodd" d="M1532.31 222.824C1532.77 223.017 1533.12 223.379 1533.29 223.832C1533.46 224.285 1533.44 224.792 1533.23 225.243C1533.11 225.497 1532.93 225.722 1532.7 225.901C1530.25 228.9 1529.21 234.047 1529.04 234.972L1529.05 235.001C1529.01 235.21 1528.94 235.414 1528.85 235.61C1528.7 235.921 1528.5 236.203 1528.24 236.438C1527.98 236.674 1527.67 236.859 1527.34 236.983C1527.02 237.107 1526.67 237.168 1526.32 237.161C1525.97 237.154 1525.63 237.079 1525.32 236.942C1524.77 236.702 1524.33 236.288 1524.06 235.767C1523.8 235.245 1523.72 234.646 1523.85 234.064V234.064C1524.96 228.32 1530.22 222.972 1530.34 223.061C1530.62 222.847 1530.95 222.711 1531.3 222.669C1531.65 222.628 1532 222.681 1532.31 222.824V222.824Z" fill="#FFE1DA"/>
<path fill-rule="evenodd" clip-rule="evenodd" d="M1520.09 242.369C1519.89 242.566 1519.67 242.744 1519.44 242.899C1518.55 243.515 1517.48 243.815 1516.4 243.756C1515.33 243.697 1514.29 243.281 1513.44 242.569C1512.35 241.669 1511.64 240.364 1511.46 238.937C1511.28 237.509 1511.65 236.074 1512.48 234.94C1513.11 234.082 1513.98 233.455 1514.98 233.149V233.149C1515.11 233.113 1515.25 233.087 1515.38 233.072L1523.45 230.958C1523.98 230.73 1524.57 230.657 1525.14 230.747C1525.71 230.837 1526.25 231.086 1526.71 231.468C1527.39 232.038 1527.84 232.861 1527.95 233.76C1528.07 234.659 1527.84 235.564 1527.32 236.281C1527.24 236.384 1527.16 236.481 1527.07 236.572C1526.89 236.765 1526.69 236.935 1526.47 237.077L1520.09 242.369Z" fill="#FFE1DA"/>
<path fill-rule="evenodd" clip-rule="evenodd" d="M1593.25 601.433C1593.25 601.433 1603.79 615.761 1613.5 615.64C1623.21 615.52 1634.32 615.946 1634.32 615.946C1634.32 615.946 1635.65 593.75 1628.9 593.378C1622.14 593.007 1593.25 601.433 1593.25 601.433Z" fill="#FF8685"/>
<path fill-rule="evenodd" clip-rule="evenodd" d="M1542.1 461.871L1678.26 475.114L1656.74 606.649L1529.5 599.927L1542.1 461.871Z" fill="#F8CA7A"/>
<path fill-rule="evenodd" clip-rule="evenodd" d="M1544.76 456.558L1680.92 470.035L1659.39 603.993L1532.15 597.146L1544.76 456.558Z" fill="white"/>
<path fill-rule="evenodd" clip-rule="evenodd" d="M1552.72 461.871L1688.89 475.479L1667.36 610.634L1540.12 603.726L1552.72 461.871Z" fill="#F8CA7A"/>
<path fill-rule="evenodd" clip-rule="evenodd" d="M1642.59 601.363C1642.59 601.363 1647.09 582.062 1643.93 568.466C1641.02 556.068 1626.03 536.45 1614.87 567.535C1609.69 582.746 1609.19 610.434 1609.19 610.434C1609.66 619.445 1632.95 622.841 1639.93 610.978L1642.59 601.363Z" fill="#FF8685"/>
<path fill-rule="evenodd" clip-rule="evenodd" d="M1612.02 572.205C1612.22 571.812 1612.46 571.436 1612.74 571.082C1613.78 569.694 1615.23 568.642 1616.88 568.08C1618.54 567.518 1620.3 567.474 1621.92 567.956C1624 568.553 1625.72 569.936 1626.69 571.808C1627.66 573.679 1627.81 575.888 1627.11 577.958C1626.59 579.523 1625.58 580.915 1624.23 581.935V581.935C1624.05 582.065 1623.85 582.182 1623.66 582.285L1612.55 590.039C1611.86 590.672 1611.02 591.122 1610.11 591.34C1609.2 591.558 1608.27 591.536 1607.4 591.277C1606.09 590.895 1605.01 590.022 1604.4 588.844C1603.79 587.666 1603.69 586.276 1604.12 584.97C1604.18 584.781 1604.26 584.596 1604.35 584.416C1604.53 584.041 1604.75 583.685 1605.01 583.356L1612.02 572.205Z" fill="#FF8685"/>
<path fill-rule="evenodd" clip-rule="evenodd" d="M1623.3 401.446C1620.16 442.292 1629.35 461.75 1652.62 466.069C1699.69 474.799 1659.44 320.524 1648.79 308.056C1639.52 297.21 1628.44 296.93 1623.59 310.356C1614.69 334.766 1623.82 394.562 1623.3 401.446Z" fill="#FCE8E8"/>
<path fill-rule="evenodd" clip-rule="evenodd" d="M1623.44 433.409C1627.23 411.721 1637.02 404.329 1653.59 408.949C1699.22 421.677 1651.45 563.527 1640.49 571.557C1630.98 578.548 1620.37 573.697 1616.48 557.497C1612.74 541.848 1619.55 455.665 1623.44 433.409Z" fill="#FCE8E8"/>
<path d="M1618.61 325.061C1618.09 352.541 1618.93 413.274 1626.46 436.358C1620.18 466.038 1618.61 507.351 1618.61 524.297" stroke="#3B47BC"/>
<path fill-rule="evenodd" clip-rule="evenodd" d="M1604.66 606.081C1603.94 606.051 1603.27 605.736 1602.8 605.204C1602.33 604.671 1602.1 603.964 1602.16 603.236C1602.19 602.827 1602.32 602.426 1602.54 602.066C1604.35 596.691 1603.12 589.098 1602.88 587.741L1602.85 587.707C1602.8 587.399 1602.79 587.084 1602.81 586.769C1602.85 586.267 1602.99 585.773 1603.23 585.316C1603.46 584.859 1603.78 584.449 1604.17 584.109C1604.56 583.769 1605 583.506 1605.49 583.336C1605.97 583.166 1606.47 583.092 1606.97 583.118C1607.85 583.165 1608.67 583.505 1609.3 584.083C1609.93 584.661 1610.34 585.445 1610.46 586.31V586.31C1611.91 594.753 1607.45 604.803 1607.24 604.74C1606.97 605.178 1606.58 605.535 1606.13 605.772C1605.67 606.009 1605.16 606.116 1604.66 606.081V606.081Z" fill="#FF8685"/>
</g>
<defs>
<linearGradient id="paint0_linear" x1="1167.5" y1="0" x2="1167.5" y2="666" gradientUnits="userSpaceOnUse">
<stop stop-color="#9999F9"/>
<stop offset="1" stop-color="#6D6DF6"/>
</linearGradient>
<linearGradient id="paint1_linear" x1="1167.5" y1="0" x2="1167.5" y2="666" gradientUnits="userSpaceOnUse">
<stop stop-color="#9999F9"/>
<stop offset="1" stop-color="#6D6DF6"/>
</linearGradient>
</defs>
</svg>
