<svg width="298" height="497" viewBox="0 0 298 497" fill="none" xmlns="http://www.w3.org/2000/svg">
<path fill-rule="evenodd" clip-rule="evenodd" d="M107.128 74.3168C106.531 73.8927 101.382 59.1516 101.382 59.1516C101.382 59.1516 116.579 46.4951 123.393 44.0253C124.948 43.7871 134.399 44.0244 134.399 44.0244C134.355 46.435 120.641 70.1631 120.641 70.1631L107.128 74.3168Z" fill="#FF8685"/>
<path fill-rule="evenodd" clip-rule="evenodd" d="M187.281 26.0474C187.281 26.0474 187.455 21.8902 183.184 24.0667C182.633 24.3424 182.39 23.9362 182.285 23.051V23.0003C182.285 22.8769 182.285 22.7463 182.25 22.6012C178.306 -18.977 129.779 44.3661 115.557 14.8384C116.254 19.6847 118.958 25.837 124.393 31.3725C137.702 44.9175 156.21 48.6321 166.606 45.3891C177.003 42.1461 186.334 38.4824 187.281 26.0474Z" fill="#281616"/>
<path fill-rule="evenodd" clip-rule="evenodd" d="M184.065 39.0465C185.466 42.1131 187.008 44.8103 188.648 45.9314C193.406 49.2288 195.782 37.0087 196.721 32.3528C197.66 27.6969 199.328 20.7789 195.544 20.6536C193.925 20.7509 192.33 21.0754 190.813 21.6165C190.274 16.6242 194.549 -3.44372 170.715 0.513151C151.849 3.63908 139.516 14.5732 130.938 7.93889C122.36 1.30453 119.221 16.9935 132.606 29.2994C145.991 41.6053 164.632 44.995 175.06 42.0471C178.128 41.2343 181.136 40.2319 184.065 39.0465V39.0465Z" fill="white"/>
<path fill-rule="evenodd" clip-rule="evenodd" d="M131.496 25.3584C131.496 25.3584 135.587 42.5507 140.059 45.9213C144.532 49.292 146.765 36.7453 147.647 31.9572C148.53 27.1692 150.098 20.0549 146.541 19.926C142.984 19.7972 131.496 25.3584 131.496 25.3584Z" fill="#281616"/>
<path fill-rule="evenodd" clip-rule="evenodd" d="M174.783 46.4883L187.282 53.3722L185.643 111.275L142.122 115.557L149.74 65.3151L174.783 46.4883Z" fill="#FFE1DA"/>
<path opacity="0.2" fill-rule="evenodd" clip-rule="evenodd" d="M174.346 46.4883L180.603 50.0795C181.505 70.7274 166.219 95.8878 144.779 96.9616L149.246 66.1929L174.346 46.4883Z" fill="#FF8685"/>
<path fill-rule="evenodd" clip-rule="evenodd" d="M138.818 13.2827C139.688 16.5183 128.466 81.5412 151.242 82.3349C174.018 83.1285 190.126 55.2024 186.862 34.6495C183.597 14.0967 138.818 13.2827 138.818 13.2827Z" fill="#FFD3CA"/>
<path fill-rule="evenodd" clip-rule="evenodd" d="M162.046 82.3513C178.805 76.0684 189.56 53.3213 186.871 35.8362C186.196 31.4854 183.75 28.0117 180.292 25.2368C176.38 26.0522 173.172 26.799 173.172 26.799C173.172 26.799 175.407 53.801 169.524 60.4195C165.058 65.4349 163.343 75.9314 162.046 82.3513Z" fill="#FFE1DA"/>
<path fill-rule="evenodd" clip-rule="evenodd" d="M141.167 13.2827C141.497 14.6174 140.026 25.9941 139.465 39.3411C151.101 46.7561 164.531 47.9778 172.731 44.9482C178.311 42.8861 183.582 40.7111 187.282 37.053C187.229 36.5446 187.17 36.0291 187.098 35.5277C183.984 14.109 141.167 13.2827 141.167 13.2827Z" fill="#FF8685"/>
<path opacity="0.4" fill-rule="evenodd" clip-rule="evenodd" d="M138.722 13.2827C139.523 16.4135 129.616 77.0993 148.338 82.3514C148.33 82.0554 148.233 81.7691 148.06 81.5329C145.088 77.1811 147.617 73.9276 148.311 71.4379C148.924 69.5674 148.825 67.5268 148.033 65.7288C147.372 63.9485 148.616 64.2691 148.755 62.864C148.894 61.4589 147.259 60.9405 147.365 60.0674C147.471 59.1943 148.358 57.0935 147.868 55.9749C147.378 54.8562 142.838 55.0199 142.375 53.3693C141.912 51.7186 148.331 22.3545 148.649 20.8471L142.329 13.4737C140.085 13.31 138.722 13.2827 138.722 13.2827Z" fill="#FF8685"/>
<path fill-rule="evenodd" clip-rule="evenodd" d="M195.251 24.9083C195.251 24.9083 195.438 21.0526 191.013 23.0678C187.078 24.868 198.22 -4.19725 169.392 0.518205C149.983 3.69543 137.299 14.8392 128.478 8.08175C119.656 1.32427 116.456 17.3044 130.215 29.832C143.973 42.3595 163.136 45.8188 173.867 42.8163C184.599 39.8137 194.292 36.4148 195.251 24.9083Z" fill="#412F2F"/>
<path fill-rule="evenodd" clip-rule="evenodd" d="M195.251 24.8022C195.251 24.8022 195.432 20.9241 191.151 22.951C190.607 23.2145 190.357 22.8294 190.259 22.0051V21.9646C190.259 21.8497 190.259 21.7214 190.259 21.593C186.306 -17.1334 137.749 41.8953 123.527 14.3639C124.224 18.877 126.929 24.6062 132.367 29.7612C145.696 42.375 164.22 45.8274 174.601 42.8074C184.981 39.7873 194.323 36.3755 195.251 24.8022Z" fill="#281616"/>
<path fill-rule="evenodd" clip-rule="evenodd" d="M175.328 25.3517C175.328 25.3517 180.04 42.5509 185.208 45.9216C190.376 49.2922 192.953 36.7387 193.964 31.9506C194.974 27.1625 196.791 20.0549 192.709 19.926C188.628 19.7972 175.328 25.3517 175.328 25.3517Z" fill="#281616"/>
<path fill-rule="evenodd" clip-rule="evenodd" d="M185.954 44.637C185.954 44.637 189.984 37.1218 193.805 38.75C197.626 40.3782 193.205 57.0436 188.359 58.2614C183.513 59.4792 181.087 54.5206 185.954 44.637Z" fill="#FFE1DA"/>
<path fill-rule="evenodd" clip-rule="evenodd" d="M186.458 27.8936C186.422 27.9583 175.125 51.7705 142.624 33.4385L142.122 34.0863C175.526 52.93 187.282 28.2563 187.282 28.1786L186.458 27.8936Z" fill="#412F2F"/>
<path fill-rule="evenodd" clip-rule="evenodd" d="M197.908 20.4279C197.908 20.4279 190.956 18.4344 187.282 22.3765L188.148 22.5803C191.366 19.1192 197.423 20.8559 197.445 20.8681L197.908 20.4279Z" fill="#281616"/>
<path fill-rule="evenodd" clip-rule="evenodd" d="M195.09 15.9385C195.09 15.9385 185.644 17.0397 187.532 25.2362L188.673 25.0395C187.01 17.8421 195.225 16.8903 195.252 16.8824L195.09 15.9385Z" fill="#281616"/>
<path fill-rule="evenodd" clip-rule="evenodd" d="M159.183 63.7559C159.183 63.7559 150.362 65.0236 144.779 65.0341V66.4123C153.371 65.0236 159.389 65.0436 159.389 65.0343L159.183 63.7559Z" fill="#FF8685"/>
<path opacity="0.5" fill-rule="evenodd" clip-rule="evenodd" d="M183.293 58.7819C183.3 58.7438 183.299 58.7045 183.289 58.667C183.28 58.6295 183.262 58.5947 183.238 58.5652C183.196 58.5012 183.131 58.4571 183.058 58.4424H182.94C182.901 58.4504 182.863 58.465 182.829 58.4857C182.796 58.509 182.768 58.5384 182.746 58.5724C182.725 58.6078 182.711 58.647 182.704 58.688C181.586 63.6888 179.403 68.3632 176.315 72.3647C173.228 76.3662 169.316 79.5922 164.869 81.8034C164.835 81.8196 164.805 81.8426 164.78 81.8711C164.755 81.8997 164.735 81.9331 164.723 81.9695C164.695 82.0439 164.695 82.1264 164.723 82.2007C164.743 82.2368 164.768 82.2687 164.799 82.2946L164.917 82.3452C164.956 82.3526 164.996 82.3526 165.035 82.3452C165.069 82.3517 165.105 82.3517 165.139 82.3452C169.668 80.089 173.651 76.7995 176.794 72.7204C179.937 68.6414 182.158 63.8775 183.293 58.7819V58.7819Z" fill="white"/>
<path fill-rule="evenodd" clip-rule="evenodd" d="M194.618 41.1753C190.923 44.8374 188.892 47.9835 187.953 50.2839C185.777 55.623 189.411 56.4901 191.556 49.0298L190.724 48.8435C189.197 54.7343 187.09 54.2613 188.785 50.3484C189.678 48.2773 191.625 45.2459 195.252 41.6913L194.618 41.1753Z" fill="#FF8685"/>
<path fill-rule="evenodd" clip-rule="evenodd" d="M171.021 54.5535C169.646 54.2717 168.232 54.6191 167.071 55.5235C165.911 56.428 165.093 57.8198 164.788 59.4099C164.663 60.1891 164.675 60.9898 164.821 61.7638C164.968 62.5378 165.247 63.2693 165.642 63.9143C166.036 64.5593 166.539 65.1045 167.118 65.5172C167.698 65.93 168.343 66.2016 169.015 66.3161C170.389 66.5992 171.805 66.2514 172.965 65.3451C174.125 64.4388 174.94 63.0442 175.241 61.4525C175.367 60.6741 175.356 59.8741 175.211 59.1005C175.065 58.327 174.786 57.5959 174.392 56.9513C173.997 56.3068 173.496 55.762 172.916 55.35C172.337 54.9379 171.692 54.6669 171.021 54.5535V54.5535Z" fill="#FF8685"/>
<path fill-rule="evenodd" clip-rule="evenodd" d="M160.767 46.4888C160.418 46.4788 160.079 46.6108 159.822 46.8568C159.694 46.9769 159.589 47.1222 159.515 47.2844C159.441 47.4466 159.398 47.6225 159.389 47.802C159.388 47.9775 159.421 48.1514 159.485 48.3137C159.549 48.4761 159.643 48.6237 159.762 48.7481C159.881 48.8725 160.022 48.9711 160.178 49.0385C160.334 49.1058 160.501 49.1405 160.669 49.1405C160.887 49.1587 161.105 49.1186 161.303 49.0239C161.501 48.9293 161.673 48.7834 161.801 48.6001C161.929 48.4168 162.011 48.2022 162.037 47.977C162.063 47.7517 162.033 47.5232 161.949 47.3135C161.816 46.9885 161.567 46.7296 161.255 46.5903C161.1 46.525 160.934 46.4906 160.767 46.4888V46.4888Z" fill="#281616"/>
<path fill-rule="evenodd" clip-rule="evenodd" d="M140.963 46.497C140.616 46.4569 140.268 46.5563 139.989 46.7748C139.714 46.994 139.53 47.3152 139.478 47.6713C139.453 47.8466 139.466 48.0254 139.514 48.1953C139.564 48.362 139.643 48.5181 139.746 48.6562C139.853 48.7943 139.988 48.9064 140.141 48.9845C140.29 49.0691 140.454 49.1207 140.622 49.136C140.969 49.1763 141.317 49.0768 141.594 48.8582C141.872 48.6396 142.058 48.3186 142.114 47.9617C142.133 47.7858 142.119 47.6077 142.071 47.4377C142.029 47.2678 141.95 47.1102 141.84 46.9768C141.732 46.8402 141.6 46.7265 141.45 46.6422C141.299 46.5589 141.133 46.5094 140.963 46.497V46.497Z" fill="#281616"/>
<path fill-rule="evenodd" clip-rule="evenodd" d="M165.531 46.4958L167.108 52.2275C167.298 52.8726 167.382 53.5507 167.353 54.2287C167.347 54.3829 167.333 54.5367 167.312 54.6893C167.293 54.8495 167.266 55.0083 167.23 55.1651C167.163 55.4459 167.071 55.719 166.957 55.9807C166.859 56.2169 166.74 56.442 166.602 56.6527C166.215 57.2333 165.7 57.6957 165.107 57.997V57.997C164.99 58.0614 164.869 58.1169 164.745 58.1631C164.347 58.3167 163.931 58.4107 163.51 58.4425H152.081L149.944 50.7474L149.412 48.8217L148.763 46.4883L165.531 46.4958ZM153.085 56.9699H163.23C163.613 56.9704 163.993 56.9016 164.356 56.766C164.828 56.5917 165.238 56.2591 165.531 55.8145C165.826 55.3485 165.992 54.7974 166.008 54.2287C166.03 53.7171 165.968 53.2053 165.824 52.7184L164.732 48.7688L164.513 48.0137H150.593L153.085 56.9699Z" fill="#281616"/>
<path fill-rule="evenodd" clip-rule="evenodd" d="M128.241 47.976H143.902L144.47 49.7959C144.647 48.8142 144.854 47.7494 145.077 46.6167L145.038 46.4883H126.183L128.118 52.7184C128.662 54.3344 129.696 55.7473 131.083 56.766C132.414 57.808 134.052 58.3964 135.753 58.4425H148.763L148.479 57.5288C147.711 57.34 146.897 57.1738 146.113 56.9624H135.83C134.442 56.9115 133.109 56.4215 132.028 55.5653C130.876 54.7256 130.015 53.5575 129.562 52.22L128.241 47.976Z" fill="#281616"/>
<path fill-rule="evenodd" clip-rule="evenodd" d="M151.42 47.9318C151.42 47.9318 143.863 44.486 142.122 48.242L143.701 48.6554C144.695 46.5053 150.588 49.1379 150.634 49.1448L151.42 47.9318Z" fill="#281616"/>
<path fill-rule="evenodd" clip-rule="evenodd" d="M78.8026 160.972C47.1653 168.516 18.2044 180.98 27.4055 200.751C45.9879 240.771 157.18 177.594 160.668 165.941C169.207 137.394 87.0853 158.985 78.8026 160.972Z" fill="#FCE8E8"/>
<path fill-rule="evenodd" clip-rule="evenodd" d="M92.9769 330.802L108.173 553.857L112.922 624.049L129.818 870H172.672L168.436 362.32C168.436 362.32 106.587 291.136 92.9769 330.802Z" fill="#281616"/>
<path fill-rule="evenodd" clip-rule="evenodd" d="M219.859 330.807L239.195 489.226L247.066 553.85L255.616 624.041L285.572 870H241.731L148.763 362.285C148.763 362.285 198.366 291.141 219.859 330.807Z" fill="#9E9EDF"/>
<path fill-rule="evenodd" clip-rule="evenodd" d="M196.155 318.779L216.504 330.763C216.504 330.763 191.038 420.887 162.337 421.053C133.636 421.22 115.557 330.245 115.557 330.245L196.155 318.779Z" fill="#9E9EDF"/>
<path fill-rule="evenodd" clip-rule="evenodd" d="M244.397 135.639L187.365 102.274C187.365 102.274 151.024 121.663 140.226 104.351C129.593 110.847 96.3705 123.632 90.5231 141.623C72.1721 198.106 89.8994 322.5 93.8561 358.148C95.3277 371.425 211.983 373.295 222.606 361.041C227.537 355.353 215.93 284.51 226.046 243.527C237.711 196.049 244.397 135.639 244.397 135.639Z" fill="white"/>
<path fill-rule="evenodd" clip-rule="evenodd" d="M192.049 366.595C209.245 365.345 222.527 362.983 225.94 359.458C231.458 353.769 218.46 282.912 229.79 241.921C237.205 215.077 247.477 186.431 255.023 166.595L242.592 159.389C242.592 159.389 190.25 220.953 187.894 266.935C185.539 312.916 190.642 351.337 192.049 366.595Z" fill="#FCE8E8"/>
<path d="M194.39 383.416L192.718 385.279L233.876 422.09L235.548 420.226L194.39 383.416Z" fill="black"/>
<path fill-rule="evenodd" clip-rule="evenodd" d="M196.453 104.931C196.317 105.025 152.089 140.681 130.926 104.931L128.84 106.347C151.439 144.531 197.734 107.158 197.908 107.054L196.453 104.931Z" fill="#3B47BC"/>
<path fill-rule="evenodd" clip-rule="evenodd" d="M183.298 410.654L214.091 798.275L216.504 798.049L185.71 410.428L183.298 410.654Z" fill="white"/>
<path fill-rule="evenodd" clip-rule="evenodd" d="M234.356 146.106C234.306 146.165 215.386 165.575 233.979 239.084L236.427 238.492C218.151 166.284 236.17 147.824 236.219 147.766L234.356 146.106Z" fill="#3B47BC"/>
<path fill-rule="evenodd" clip-rule="evenodd" d="M89.2949 157.618C71.3138 189.073 50.4376 221.376 32.5901 206.367C2.85478 181.459 62.5647 105.905 91.7489 82.548C104.058 82.7328 108.263 77.5751 112.386 88.0498C106.007 108.989 91.9253 153.022 89.2949 157.618Z" fill="#FCE8E8"/>
<path fill-rule="evenodd" clip-rule="evenodd" d="M113.733 84.4442C112.952 88.8599 107.476 91.7132 101.522 90.8086C95.5689 89.9039 91.3495 85.6062 92.1382 81.1885C92.9269 76.7708 98.396 73.9195 104.349 74.8241C110.303 75.7288 114.522 80.0265 113.733 84.4442Z" fill="#281616"/>
<path fill-rule="evenodd" clip-rule="evenodd" d="M101.617 59.1167C101.617 59.1167 94.8318 67.7404 96.2076 84.2498C97.2528 88.051 100.004 90.8026 107.214 89.7529C115.138 82.5471 124.187 73.1397 122.347 64.9879C115.645 60.4054 110.52 56.7806 101.617 59.1167Z" fill="#FFE1DA"/>
<path fill-rule="evenodd" clip-rule="evenodd" d="M134.31 55.824C134.766 56.0169 135.118 56.3791 135.29 56.832C135.461 57.2849 135.438 57.792 135.225 58.2431C135.106 58.4968 134.928 58.7221 134.705 58.9008C132.253 61.8996 131.213 67.0471 131.039 67.9715L131.052 68.0009C131.009 68.2096 130.942 68.414 130.853 68.6103C130.705 68.921 130.495 69.2025 130.236 69.4383C129.977 69.674 129.674 69.8593 129.344 69.9834C129.015 70.1074 128.666 70.1676 128.318 70.1606C127.969 70.1536 127.628 70.0794 127.315 69.9424C126.767 69.7023 126.326 69.2884 126.061 68.7668C125.796 68.2452 125.722 67.6459 125.853 67.0644V67.0644C126.956 61.3203 132.224 55.9716 132.34 56.0605C132.619 55.8468 132.952 55.7112 133.301 55.6694C133.649 55.6275 133.999 55.6811 134.31 55.824V55.824Z" fill="#FFE1DA"/>
<path fill-rule="evenodd" clip-rule="evenodd" d="M122.087 75.369C121.887 75.5661 121.67 75.7436 121.438 75.8993C120.546 76.5152 119.482 76.8155 118.404 76.7561C117.325 76.6968 116.288 76.281 115.444 75.5694C114.353 74.669 113.64 73.364 113.46 71.9366C113.279 70.5091 113.645 69.0737 114.479 67.9404C115.106 67.0818 115.98 66.4549 116.978 66.1495V66.1495C117.111 66.1127 117.247 66.0868 117.383 66.072L125.452 63.9578C125.984 63.7302 126.567 63.6575 127.141 63.7473C127.714 63.8372 128.255 64.0862 128.707 64.4681C129.392 65.0385 129.839 65.8608 129.954 66.7599C130.068 67.659 129.841 68.5637 129.32 69.2812C129.242 69.3836 129.158 69.4806 129.068 69.5716C128.889 69.7649 128.687 69.9346 128.468 70.0772L122.087 75.369Z" fill="#FFE1DA"/>
<path fill-rule="evenodd" clip-rule="evenodd" d="M195.252 434.433C195.252 434.433 205.787 448.761 215.499 448.64C225.212 448.52 236.322 448.946 236.322 448.946C236.322 448.946 237.648 426.75 230.895 426.378C224.143 426.007 195.252 434.433 195.252 434.433Z" fill="#FF8685"/>
<path fill-rule="evenodd" clip-rule="evenodd" d="M144.098 294.871L280.259 308.114L258.735 439.649L131.496 432.927L144.098 294.871Z" fill="#F8CA7A"/>
<path fill-rule="evenodd" clip-rule="evenodd" d="M146.755 289.558L282.916 303.035L261.392 436.993L134.153 430.146L146.755 289.558Z" fill="white"/>
<path fill-rule="evenodd" clip-rule="evenodd" d="M154.725 294.871L290.885 308.479L269.361 443.634L142.122 436.726L154.725 294.871Z" fill="#F8CA7A"/>
<path fill-rule="evenodd" clip-rule="evenodd" d="M244.592 434.363C244.592 434.363 249.087 415.062 245.929 401.466C243.022 389.068 228.027 369.45 216.867 400.535C211.694 415.746 211.191 443.434 211.191 443.434C211.656 452.445 234.945 455.841 241.928 443.978L244.592 434.363Z" fill="#FF8685"/>
<path fill-rule="evenodd" clip-rule="evenodd" d="M214.021 405.205C214.225 404.812 214.465 404.436 214.737 404.082C215.778 402.694 217.231 401.642 218.883 401.08C220.536 400.518 222.3 400.474 223.92 400.956C226.003 401.553 227.715 402.936 228.686 404.808C229.658 406.679 229.81 408.888 229.11 410.958C228.588 412.523 227.579 413.915 226.227 414.935V414.935C226.045 415.065 225.854 415.182 225.655 415.285L214.548 423.039C213.859 423.672 213.017 424.122 212.11 424.34C211.204 424.558 210.267 424.536 209.4 424.277C208.09 423.895 207.013 423.022 206.4 421.844C205.787 420.666 205.686 419.276 206.118 417.97C206.185 417.781 206.264 417.596 206.355 417.416C206.53 417.041 206.751 416.685 207.011 416.356L214.021 405.205Z" fill="#FF8685"/>
<path fill-rule="evenodd" clip-rule="evenodd" d="M225.297 234.446C222.155 275.292 231.353 294.75 254.624 299.069C301.692 307.799 261.442 153.524 250.788 141.056C241.525 130.21 230.439 129.93 225.589 143.356C216.689 167.766 225.821 227.562 225.297 234.446Z" fill="#FCE8E8"/>
<path fill-rule="evenodd" clip-rule="evenodd" d="M225.442 266.409C229.231 244.721 239.021 237.329 255.591 241.949C301.221 254.677 253.45 396.527 242.494 404.557C232.976 411.548 222.371 406.697 218.482 390.497C214.737 374.848 221.55 288.665 225.442 266.409Z" fill="#FCE8E8"/>
<path d="M220.614 158.061C220.091 185.541 220.928 246.274 228.458 269.358C222.183 299.038 220.614 340.351 220.614 357.297" stroke="#3B47BC"/>
<path fill-rule="evenodd" clip-rule="evenodd" d="M206.665 439.081C205.939 439.051 205.27 438.736 204.801 438.204C204.333 437.671 204.103 436.964 204.162 436.236C204.195 435.827 204.323 435.426 204.536 435.066C206.351 429.691 205.122 422.098 204.884 420.741L204.85 420.707C204.802 420.399 204.788 420.084 204.809 419.769C204.852 419.267 204.995 418.773 205.228 418.316C205.462 417.859 205.782 417.449 206.169 417.109C206.557 416.769 207.004 416.506 207.486 416.336C207.967 416.166 208.472 416.092 208.972 416.118C209.847 416.165 210.666 416.505 211.298 417.083C211.931 417.661 212.34 418.445 212.461 419.31V419.31C213.912 427.753 209.447 437.803 209.243 437.74C208.97 438.178 208.584 438.535 208.127 438.772C207.671 439.009 207.164 439.116 206.665 439.081V439.081Z" fill="#FF8685"/>
</svg>
