<svg width="520" height="520" viewBox="0 0 520 520" fill="none" xmlns="http://www.w3.org/2000/svg">
<path d="M221.021 370.414C228.246 391.804 219.655 421.596 224.626 436.318C226.99 443.519 260.452 454.086 270.522 454.086C313.532 451.914 362.528 384.431 396.4 306.633C476.963 238.785 471.564 208.842 463.659 185.443C456.352 163.809 440.17 144.654 418.129 128.774C377.704 99.5877 311.394 93.0158 241.726 111.522C237.247 112.702 232.853 114.008 228.544 115.438C128.699 148.386 63.5531 246.043 77.1599 286.337C95.9318 341.899 207.294 329.773 221.021 370.414Z" fill="url(#paint0_linear)"/>
<g style="mix-blend-mode:multiply">
<path d="M62.9593 335.556C80.3728 370.001 193.789 420.585 263.659 454.086H279.223C283.514 441.046 329.891 422.17 323.166 408.857C313.462 389.724 376.499 368.858 362.444 341.051C335.745 288.24 411.064 215.116 374.565 142.913C348.098 90.5522 226.704 39.1867 140.323 81.834C136.586 83.6779 132.907 85.7014 129.284 87.9043C72.8491 122.276 39.7613 180.169 41.1048 241.632C41.8363 275.074 48.7479 307.439 62.9593 335.556Z" fill="url(#paint1_linear)"/>
</g>
<g style="mix-blend-mode:multiply">
<path d="M476.949 367.855C477.312 366.916 477.767 366.014 478.307 365.163C483.965 356.223 495.571 356.164 499.393 350.131C501.916 346.148 501.871 341.088 492.675 335.431C477.882 326.277 454.609 332.399 450.705 338.565C446.563 345.108 448.959 358.805 464.76 368.578C470.731 372.265 475.083 370.901 476.523 368.578C476.689 368.351 476.831 368.109 476.949 367.855Z" fill="url(#paint2_linear)"/>
</g>
<path d="M411.271 158.115H108.182C101.92 158.115 96.8438 163.131 96.8438 169.319V351.953C96.8438 358.141 101.92 363.157 108.182 363.157H411.271C417.533 363.157 422.609 358.141 422.609 351.953V169.319C422.609 163.131 417.533 158.115 411.271 158.115Z" fill="url(#paint3_linear)"/>
<path d="M409.675 166.044H109.78C106.346 166.044 103.562 168.795 103.562 172.188V348.965C103.562 352.358 106.346 355.109 109.78 355.109H409.675C413.109 355.109 415.892 352.358 415.892 348.965V172.188C415.892 168.795 413.109 166.044 409.675 166.044Z" fill="#FAF9FF"/>
<path d="M392.603 192.693C392.603 190.933 391.895 189.244 390.635 187.999C389.375 186.754 387.667 186.055 385.885 186.055H134.804C133.023 186.055 131.314 186.754 130.054 187.999C128.795 189.244 128.087 190.933 128.087 192.693V196.72H392.603V192.693Z" fill="#DFDFF4"/>
<path d="M128.105 196.72V323.415C128.105 325.176 128.813 326.864 130.073 328.109C131.333 329.354 133.041 330.054 134.823 330.054H385.889C387.67 330.054 389.379 329.354 390.639 328.109C391.899 326.864 392.606 325.176 392.606 323.415V196.72H128.105Z" fill="white"/>
<path d="M368.944 194.146C370.527 194.146 371.81 192.878 371.81 191.314C371.81 189.749 370.527 188.481 368.944 188.481C367.361 188.481 366.078 189.749 366.078 191.314C366.078 192.878 367.361 194.146 368.944 194.146Z" fill="white"/>
<path d="M376.452 194.146C378.035 194.146 379.318 192.878 379.318 191.314C379.318 189.749 378.035 188.481 376.452 188.481C374.869 188.481 373.586 189.749 373.586 191.314C373.586 192.878 374.869 194.146 376.452 194.146Z" fill="white"/>
<path d="M383.964 194.146C385.547 194.146 386.83 192.878 386.83 191.314C386.83 189.749 385.547 188.481 383.964 188.481C382.381 188.481 381.098 189.749 381.098 191.314C381.098 192.878 382.381 194.146 383.964 194.146Z" fill="white"/>
<path d="M203.049 194.861H201.168V330.068H203.049V194.861Z" fill="#DFDFF4"/>
<g style="mix-blend-mode:multiply">
<path d="M218.187 208.595H243.625C244.022 208.487 244.372 208.254 244.622 207.93C244.872 207.606 245.007 207.21 245.007 206.803C245.007 206.396 244.872 206 244.622 205.676C244.372 205.352 244.022 205.118 243.625 205.01H218.187C217.79 205.118 217.44 205.352 217.19 205.676C216.94 206 216.805 206.396 216.805 206.803C216.805 207.21 216.94 207.606 217.19 207.93C217.44 208.254 217.79 208.487 218.187 208.595Z" fill="url(#paint4_linear)"/>
</g>
<g style="mix-blend-mode:multiply">
<path d="M250.109 208.595H321.651C321.726 208.603 321.801 208.603 321.875 208.595C321.947 208.603 322.02 208.603 322.092 208.595H347.529C347.926 208.488 348.277 208.254 348.527 207.93C348.777 207.606 348.912 207.21 348.912 206.803C348.912 206.396 348.777 206 348.527 205.676C348.277 205.352 347.926 205.118 347.529 205.011H322.092C322.02 205.003 321.947 205.003 321.875 205.011C321.801 205.003 321.726 205.003 321.651 205.011H250.109C249.712 205.118 249.361 205.352 249.112 205.676C248.862 206 248.727 206.396 248.727 206.803C248.727 207.21 248.862 207.606 249.112 207.93C249.361 208.254 249.712 208.488 250.109 208.595Z" fill="url(#paint5_linear)"/>
</g>
<g style="mix-blend-mode:multiply">
<path d="M218.186 215.13H226.942C227.34 215.025 227.693 214.793 227.944 214.469C228.195 214.146 228.332 213.75 228.332 213.342C228.332 212.934 228.195 212.538 227.944 212.214C227.693 211.891 227.34 211.658 226.942 211.553H218.186C217.788 211.658 217.435 211.891 217.184 212.214C216.933 212.538 216.796 212.934 216.796 213.342C216.796 213.75 216.933 214.146 217.184 214.469C217.435 214.793 217.788 215.025 218.186 215.13Z" fill="url(#paint6_linear)"/>
</g>
<path d="M217.949 247.717H243.386C243.784 247.609 244.134 247.376 244.384 247.052C244.634 246.728 244.769 246.332 244.769 245.925C244.769 245.518 244.634 245.122 244.384 244.798C244.134 244.474 243.784 244.24 243.386 244.133H217.949C217.552 244.24 217.201 244.474 216.952 244.798C216.702 245.122 216.566 245.518 216.566 245.925C216.566 246.332 216.702 246.728 216.952 247.052C217.201 247.376 217.552 247.609 217.949 247.717Z" fill="#DFDFF4"/>
<path d="M217.949 254.26H226.712C227.109 254.152 227.46 253.918 227.709 253.594C227.959 253.27 228.095 252.874 228.095 252.467C228.095 252.06 227.959 251.664 227.709 251.34C227.46 251.016 227.109 250.783 226.712 250.675H217.949C217.552 250.783 217.201 251.016 216.952 251.34C216.702 251.664 216.566 252.06 216.566 252.467C216.566 252.874 216.702 253.27 216.952 253.594C217.201 253.918 217.552 254.152 217.949 254.26Z" fill="#DFDFF4"/>
<path d="M218.187 227.994H243.625C244.022 227.886 244.372 227.652 244.622 227.328C244.872 227.005 245.007 226.609 245.007 226.202C245.007 225.794 244.872 225.398 244.622 225.075C244.372 224.751 244.022 224.517 243.625 224.409H218.187C217.79 224.517 217.44 224.751 217.19 225.075C216.94 225.398 216.805 225.794 216.805 226.202C216.805 226.609 216.94 227.005 217.19 227.328C217.44 227.652 217.79 227.886 218.187 227.994Z" fill="#DFDFF4"/>
<path d="M218.187 241.182H243.625C244.022 241.074 244.372 240.84 244.622 240.516C244.872 240.193 245.007 239.797 245.007 239.39C245.007 238.982 244.872 238.586 244.622 238.263C244.372 237.939 244.022 237.705 243.625 237.597H218.187C217.79 237.705 217.44 237.939 217.19 238.263C216.94 238.586 216.805 238.982 216.805 239.39C216.805 239.797 216.94 240.193 217.19 240.516C217.44 240.84 217.79 241.074 218.187 241.182Z" fill="#DFDFF4"/>
<path d="M218.187 234.536H226.943C227.34 234.429 227.69 234.195 227.94 233.871C228.19 233.547 228.325 233.151 228.325 232.744C228.325 232.337 228.19 231.941 227.94 231.617C227.69 231.293 227.34 231.06 226.943 230.952H218.187C217.79 231.06 217.44 231.293 217.19 231.617C216.94 231.941 216.805 232.337 216.805 232.744C216.805 233.151 216.94 233.547 217.19 233.871C217.44 234.195 217.79 234.429 218.187 234.536Z" fill="#DFDFF4"/>
<g style="mix-blend-mode:multiply">
<path d="M259.471 211.553H233.429C233.03 211.658 232.678 211.891 232.427 212.214C232.175 212.538 232.039 212.934 232.039 213.342C232.039 213.75 232.175 214.146 232.427 214.469C232.678 214.793 233.03 215.025 233.429 215.13H259.471C259.87 215.025 260.222 214.793 260.473 214.469C260.725 214.146 260.861 213.75 260.861 213.342C260.861 212.934 260.725 212.538 260.473 212.214C260.222 211.891 259.87 211.658 259.471 211.553Z" fill="url(#paint7_linear)"/>
</g>
<path d="M258.618 250.675H233.18C232.783 250.783 232.433 251.016 232.183 251.34C231.933 251.664 231.798 252.06 231.798 252.467C231.798 252.874 231.933 253.27 232.183 253.594C232.433 253.918 232.783 254.152 233.18 254.26H259.222C259.619 254.152 259.97 253.918 260.22 253.594C260.47 253.27 260.605 252.874 260.605 252.467C260.605 252.06 260.47 251.664 260.22 251.34C259.97 251.016 259.619 250.783 259.222 250.675H258.618Z" fill="#DFDFF4"/>
<path d="M259.471 230.952H233.43C233.032 231.06 232.682 231.293 232.432 231.617C232.182 231.941 232.047 232.337 232.047 232.744C232.047 233.151 232.182 233.547 232.432 233.871C232.682 234.195 233.032 234.429 233.43 234.536H259.471C259.869 234.429 260.219 234.195 260.469 233.871C260.719 233.547 260.854 233.151 260.854 232.744C260.854 232.337 260.719 231.941 260.469 231.617C260.219 231.293 259.869 231.06 259.471 230.952Z" fill="#DFDFF4"/>
<path d="M275.898 247.717H321.428C321.57 247.678 321.72 247.678 321.861 247.717H347.298C347.696 247.609 348.046 247.376 348.296 247.052C348.546 246.728 348.681 246.332 348.681 245.925C348.681 245.518 348.546 245.122 348.296 244.798C348.046 244.474 347.696 244.24 347.298 244.132H321.839C321.697 244.172 321.547 244.172 321.406 244.132H249.856C249.459 244.24 249.108 244.474 248.859 244.798C248.609 245.122 248.473 245.518 248.473 245.925C248.473 246.332 248.609 246.728 248.859 247.052C249.108 247.376 249.459 247.609 249.856 247.717H275.898Z" fill="#DFDFF4"/>
<g filter="url(#filter0_ddd)">
<path d="M276.166 227.994H321.696C321.771 228.001 321.846 228.001 321.92 227.994C321.992 228.001 322.065 228.001 322.137 227.994H347.574C347.971 227.886 348.322 227.652 348.572 227.328C348.821 227.004 348.957 226.608 348.957 226.201C348.957 225.794 348.821 225.398 348.572 225.074C348.322 224.751 347.971 224.517 347.574 224.409H322.092C322.02 224.401 321.947 224.401 321.875 224.409C321.801 224.402 321.726 224.402 321.651 224.409H250.109C249.712 224.517 249.361 224.751 249.112 225.074C248.862 225.398 248.727 225.794 248.727 226.201C248.727 226.608 248.862 227.004 249.112 227.328C249.361 227.652 249.712 227.886 250.109 227.994H276.166Z" fill="url(#paint8_linear)"/>
</g>
<g style="mix-blend-mode:multiply">
<path d="M354.016 208.595H362.749C363.146 208.488 363.497 208.254 363.747 207.93C363.996 207.606 364.132 207.21 364.132 206.803C364.132 206.396 363.996 206 363.747 205.676C363.497 205.352 363.146 205.118 362.749 205.011H354.016C353.619 205.118 353.268 205.352 353.018 205.676C352.769 206 352.633 206.396 352.633 206.803C352.633 207.21 352.769 207.606 353.018 207.93C353.268 208.254 353.619 208.488 354.016 208.595Z" fill="url(#paint9_linear)"/>
</g>
<g style="mix-blend-mode:multiply">
<path d="M362.75 211.553H337.372C337.298 211.546 337.223 211.546 337.148 211.553C337.076 211.546 337.004 211.546 336.932 211.553H265.957C265.558 211.659 265.206 211.891 264.954 212.214C264.703 212.538 264.567 212.934 264.567 213.342C264.567 213.75 264.703 214.146 264.954 214.47C265.206 214.793 265.558 215.025 265.957 215.131H336.902C336.974 215.138 337.046 215.138 337.118 215.131C337.193 215.138 337.268 215.138 337.342 215.131H362.75C363.148 215.025 363.501 214.793 363.752 214.47C364.003 214.146 364.14 213.75 364.14 213.342C364.14 212.934 364.003 212.538 363.752 212.214C363.501 211.891 363.148 211.659 362.75 211.553Z" fill="url(#paint10_linear)"/>
</g>
<path d="M363.601 219.991C363.557 219.478 363.311 219.003 362.916 218.668C362.521 218.333 362.008 218.164 361.488 218.199H218.926C218.664 218.158 218.396 218.174 218.141 218.245C217.886 218.316 217.649 218.442 217.448 218.612C217.246 218.782 217.084 218.994 216.973 219.232C216.862 219.47 216.804 219.729 216.804 219.991C216.804 220.253 216.862 220.512 216.973 220.751C217.084 220.989 217.246 221.2 217.448 221.371C217.649 221.541 217.886 221.666 218.141 221.737C218.396 221.809 218.664 221.824 218.926 221.784H361.488C362.008 221.818 362.521 221.65 362.916 221.315C363.311 220.979 363.557 220.504 363.601 219.991Z" fill="#DFDFF4"/>
<path d="M362.525 244.132H353.792C353.395 244.24 353.045 244.474 352.795 244.798C352.545 245.122 352.41 245.518 352.41 245.925C352.41 246.332 352.545 246.728 352.795 247.052C353.045 247.376 353.395 247.609 353.792 247.717H362.525C362.923 247.609 363.273 247.376 363.523 247.052C363.773 246.728 363.908 246.332 363.908 245.925C363.908 245.518 363.773 245.122 363.523 244.798C363.273 244.474 362.923 244.24 362.525 244.132Z" fill="#FF4D57"/>
<path d="M362.526 250.675H337.089C337.017 250.667 336.944 250.667 336.872 250.675C336.798 250.667 336.723 250.667 336.648 250.675H265.718C265.321 250.782 264.97 251.016 264.721 251.34C264.471 251.664 264.335 252.06 264.335 252.467C264.335 252.874 264.471 253.27 264.721 253.594C264.97 253.918 265.321 254.151 265.718 254.259H336.626C336.7 254.266 336.775 254.266 336.85 254.259C336.922 254.267 336.994 254.267 337.066 254.259H362.526C362.923 254.151 363.274 253.918 363.524 253.594C363.773 253.27 363.909 252.874 363.909 252.467C363.909 252.06 363.773 251.664 363.524 251.34C363.274 251.016 362.923 250.782 362.526 250.675Z" fill="#DFDFF4"/>
<path d="M361.255 257.32H218.693C218.431 257.28 218.163 257.295 217.908 257.367C217.652 257.438 217.416 257.563 217.214 257.733C217.012 257.904 216.85 258.115 216.739 258.353C216.628 258.591 216.571 258.851 216.571 259.113C216.571 259.375 216.628 259.634 216.739 259.872C216.85 260.11 217.012 260.322 217.214 260.492C217.416 260.662 217.652 260.787 217.908 260.859C218.163 260.93 218.431 260.946 218.693 260.905H361.255C361.517 260.946 361.785 260.93 362.04 260.859C362.295 260.787 362.532 260.662 362.734 260.492C362.935 260.322 363.097 260.11 363.208 259.872C363.319 259.634 363.377 259.375 363.377 259.113C363.377 258.851 363.319 258.591 363.208 258.353C363.097 258.115 362.935 257.904 362.734 257.733C362.532 257.563 362.295 257.438 362.04 257.367C361.785 257.295 361.517 257.28 361.255 257.32Z" fill="#FF4D57"/>
<path d="M362.749 224.409H354.016C353.619 224.517 353.268 224.751 353.018 225.075C352.769 225.398 352.633 225.794 352.633 226.202C352.633 226.609 352.769 227.005 353.018 227.328C353.268 227.652 353.619 227.886 354.016 227.994H362.749C363.146 227.886 363.497 227.652 363.747 227.328C363.996 227.005 364.132 226.609 364.132 226.202C364.132 225.794 363.996 225.398 363.747 225.075C363.497 224.751 363.146 224.517 362.749 224.409Z" fill="#DFDFF4"/>
<path d="M362.75 230.952H337.372C337.298 230.944 337.223 230.944 337.148 230.952C337.076 230.944 337.004 230.944 336.932 230.952H265.957C265.56 231.06 265.209 231.293 264.959 231.617C264.709 231.941 264.574 232.337 264.574 232.744C264.574 233.151 264.709 233.547 264.959 233.871C265.209 234.195 265.56 234.429 265.957 234.537H336.902C336.974 234.544 337.046 234.544 337.118 234.537C337.193 234.544 337.268 234.544 337.342 234.537H362.75C363.147 234.429 363.497 234.195 363.747 233.871C363.997 233.547 364.132 233.151 364.132 232.744C364.132 232.337 363.997 231.941 363.747 231.617C363.497 231.293 363.147 231.06 362.75 230.952Z" fill="#FF4D57"/>
<path d="M347.531 237.597H322.094C322.022 237.589 321.95 237.589 321.878 237.597C321.803 237.59 321.728 237.59 321.654 237.597H250.746C250.349 237.705 249.998 237.939 249.748 238.263C249.499 238.586 249.363 238.982 249.363 239.389C249.363 239.797 249.499 240.193 249.748 240.516C249.998 240.84 250.349 241.074 250.746 241.182H321.654C321.728 241.189 321.803 241.189 321.878 241.182C321.95 241.189 322.022 241.189 322.094 241.182H347.531C347.929 241.074 348.279 240.84 348.529 240.516C348.779 240.193 348.914 239.797 348.914 239.389C348.914 238.982 348.779 238.586 348.529 238.263C348.279 237.939 347.929 237.705 347.531 237.597Z" fill="#FF4D57"/>
<path d="M316.136 274.543H294.08C294.015 274.539 293.95 274.539 293.886 274.543C293.824 274.539 293.761 274.539 293.699 274.543H261.238V277.685H293.714C293.776 277.689 293.839 277.689 293.901 277.685C293.965 277.689 294.03 277.689 294.095 277.685H316.121C316.466 277.593 316.772 277.391 316.989 277.111C317.207 276.83 317.325 276.486 317.325 276.133C317.325 275.779 317.207 275.435 316.989 275.155C316.772 274.874 316.466 274.672 316.121 274.58L316.136 274.543Z" fill="#DFDFF4"/>
<g filter="url(#filter1_ddd)">
<path d="M315.919 308.42H293.893C293.829 308.413 293.764 308.413 293.699 308.42C293.637 308.413 293.574 308.413 293.513 308.42H261.238V311.526H293.498C293.56 311.534 293.622 311.534 293.684 311.526C293.749 311.533 293.814 311.533 293.878 311.526H315.904C316.25 311.434 316.555 311.232 316.773 310.951C316.99 310.671 317.108 310.327 317.108 309.973C317.108 309.62 316.99 309.276 316.773 308.995C316.555 308.714 316.25 308.512 315.904 308.42H315.919Z" fill="url(#paint11_linear)"/>
</g>
<path d="M316.136 291.345H294.08C294.015 291.338 293.95 291.338 293.886 291.345C293.824 291.337 293.761 291.337 293.699 291.345H261.238V294.443H293.714C293.776 294.45 293.839 294.45 293.901 294.443C293.965 294.45 294.03 294.45 294.095 294.443H316.121C316.468 294.353 316.775 294.153 316.994 293.873C317.214 293.592 317.333 293.248 317.333 292.894C317.333 292.539 317.214 292.195 316.994 291.915C316.775 291.635 316.468 291.434 316.121 291.345H316.136Z" fill="#DFDFF4"/>
<path d="M321.751 277.685H329.342C329.687 277.593 329.992 277.391 330.21 277.111C330.428 276.83 330.546 276.486 330.546 276.132C330.546 275.779 330.428 275.435 330.21 275.154C329.992 274.874 329.687 274.672 329.342 274.58H321.751C321.405 274.672 321.1 274.874 320.882 275.154C320.665 275.435 320.547 275.779 320.547 276.132C320.547 276.486 320.665 276.83 320.882 277.111C321.1 277.391 321.405 277.593 321.751 277.685Z" fill="#DFDFF4"/>
<path d="M329.34 280.208H307.306H307.119H306.933H261.238V283.313H306.918C307.039 283.273 307.17 283.273 307.291 283.313H329.325C329.67 283.221 329.975 283.019 330.193 282.738C330.411 282.458 330.529 282.114 330.529 281.76C330.529 281.407 330.411 281.063 330.193 280.782C329.975 280.501 329.67 280.299 329.325 280.208H329.34Z" fill="#DFDFF4"/>
<g filter="url(#filter2_ddd)">
<path d="M328.22 285.968H261.238V289.066H328.205C328.429 289.096 328.657 289.079 328.874 289.015C329.09 288.952 329.291 288.843 329.461 288.696C329.632 288.549 329.768 288.368 329.862 288.165C329.956 287.961 330.004 287.74 330.004 287.517C330.004 287.293 329.956 287.073 329.862 286.869C329.768 286.666 329.632 286.485 329.461 286.338C329.291 286.191 329.09 286.082 328.874 286.018C328.657 285.955 328.429 285.937 328.205 285.968H328.22Z" fill="url(#paint12_linear)"/>
</g>
<g filter="url(#filter3_ddd)">
<path d="M329.116 308.42H321.533C321.188 308.512 320.882 308.714 320.665 308.995C320.447 309.276 320.329 309.619 320.329 309.973C320.329 310.327 320.447 310.67 320.665 310.951C320.882 311.232 321.188 311.434 321.533 311.526H329.116C329.462 311.434 329.767 311.232 329.985 310.951C330.203 310.67 330.32 310.327 330.32 309.973C330.32 309.619 330.203 309.276 329.985 308.995C329.767 308.714 329.462 308.512 329.116 308.42Z" fill="url(#paint13_linear)"/>
</g>
<path d="M329.116 314.085H307.089C306.968 314.124 306.837 314.124 306.716 314.085H261.238V317.19H306.701C306.824 317.161 306.952 317.161 307.075 317.19H329.101C329.446 317.098 329.751 316.896 329.969 316.615C330.187 316.335 330.305 315.991 330.305 315.637C330.305 315.284 330.187 314.94 329.969 314.659C329.751 314.379 329.446 314.177 329.101 314.085H329.116Z" fill="#DFDFF4"/>
<path d="M328.004 319.846H261.238V322.951H327.989C328.215 322.985 328.447 322.971 328.667 322.909C328.888 322.847 329.092 322.738 329.266 322.591C329.44 322.443 329.58 322.261 329.676 322.055C329.772 321.849 329.821 321.625 329.821 321.398C329.821 321.172 329.772 320.948 329.676 320.742C329.58 320.536 329.44 320.353 329.266 320.205C329.092 320.058 328.888 319.949 328.667 319.887C328.447 319.825 328.215 319.811 327.989 319.846H328.004Z" fill="#DFDFF4"/>
<path d="M329.338 291.345H321.747C321.4 291.434 321.093 291.635 320.873 291.915C320.654 292.196 320.535 292.54 320.535 292.894C320.535 293.248 320.654 293.593 320.873 293.873C321.093 294.153 321.4 294.354 321.747 294.443H329.338C329.68 294.349 329.982 294.146 330.197 293.867C330.412 293.587 330.528 293.245 330.528 292.894C330.528 292.543 330.412 292.201 330.197 291.922C329.982 291.642 329.68 291.439 329.338 291.345Z" fill="#DFDFF4"/>
<path d="M329.34 297.01H307.306C307.183 297.039 307.055 297.039 306.933 297.01H261.238V300.108H306.918C307.04 300.079 307.168 300.079 307.291 300.108H329.325C329.667 300.014 329.969 299.811 330.184 299.532C330.399 299.252 330.515 298.91 330.515 298.559C330.515 298.208 330.399 297.866 330.184 297.586C329.969 297.307 329.667 297.104 329.325 297.01H329.34Z" fill="#DFDFF4"/>
<g filter="url(#filter4_ddd)">
<path d="M316.136 302.763H294.08C294.015 302.76 293.95 302.76 293.886 302.763C293.824 302.759 293.761 302.759 293.699 302.763H261.238V305.868H293.714C293.776 305.872 293.839 305.872 293.901 305.868C293.965 305.872 294.03 305.872 294.095 305.868H316.121C316.466 305.776 316.772 305.575 316.989 305.294C317.207 305.013 317.325 304.669 317.325 304.316C317.325 303.962 317.207 303.619 316.989 303.338C316.772 303.057 316.466 302.855 316.121 302.763H316.136Z" fill="url(#paint14_linear)"/>
</g>
<path d="M166.746 209.916H141.309C140.911 209.808 140.561 209.574 140.311 209.25C140.061 208.926 139.926 208.53 139.926 208.123C139.926 207.716 140.061 207.32 140.311 206.996C140.561 206.672 140.911 206.439 141.309 206.331H166.746C167.143 206.439 167.494 206.672 167.743 206.996C167.993 207.32 168.128 207.716 168.128 208.123C168.128 208.53 167.993 208.926 167.743 209.25C167.494 209.574 167.143 209.808 166.746 209.916Z" fill="#7C7CB5"/>
<path d="M181.989 209.916H173.226C172.829 209.808 172.479 209.574 172.229 209.25C171.979 208.926 171.844 208.53 171.844 208.123C171.844 207.716 171.979 207.32 172.229 206.996C172.479 206.672 172.829 206.439 173.226 206.331H181.989C182.386 206.439 182.737 206.672 182.987 206.996C183.237 207.32 183.372 207.716 183.372 208.123C183.372 208.53 183.237 208.926 182.987 209.25C182.737 209.574 182.386 209.808 181.989 209.916Z" fill="#7C7CB5"/>
<path d="M156.551 216.465H181.988C182.385 216.358 182.736 216.124 182.986 215.8C183.235 215.476 183.371 215.08 183.371 214.673C183.371 214.266 183.235 213.87 182.986 213.546C182.736 213.222 182.385 212.989 181.988 212.881H156.551C156.153 212.989 155.803 213.222 155.553 213.546C155.303 213.87 155.168 214.266 155.168 214.673C155.168 215.08 155.303 215.476 155.553 215.8C155.803 216.124 156.153 216.358 156.551 216.465Z" fill="#DFDFF4"/>
<path d="M142.024 223.104H180.703C180.965 223.144 181.233 223.129 181.488 223.057C181.743 222.986 181.98 222.861 182.182 222.691C182.383 222.52 182.545 222.309 182.656 222.071C182.767 221.833 182.825 221.573 182.825 221.311C182.825 221.049 182.767 220.79 182.656 220.552C182.545 220.314 182.383 220.102 182.182 219.932C181.98 219.762 181.743 219.637 181.488 219.565C181.233 219.494 180.965 219.478 180.703 219.519H142.024C141.762 219.478 141.494 219.494 141.239 219.565C140.984 219.637 140.747 219.762 140.545 219.932C140.344 220.102 140.182 220.314 140.071 220.552C139.96 220.79 139.902 221.049 139.902 221.311C139.902 221.573 139.96 221.833 140.071 222.071C140.182 222.309 140.344 222.52 140.545 222.691C140.747 222.861 140.984 222.986 141.239 223.057C141.494 223.129 141.762 223.144 142.024 223.104Z" fill="#DFDFF4"/>
<path d="M141.309 216.465H150.064C150.461 216.358 150.812 216.124 151.061 215.8C151.311 215.476 151.447 215.08 151.447 214.673C151.447 214.266 151.311 213.87 151.061 213.546C150.812 213.222 150.461 212.989 150.064 212.881H141.309C140.911 212.989 140.561 213.222 140.311 213.546C140.061 213.87 139.926 214.266 139.926 214.673C139.926 215.08 140.061 215.476 140.311 215.8C140.561 216.124 140.911 216.358 141.309 216.465Z" fill="#DFDFF4"/>
<g filter="url(#filter5_ddd)">
<path d="M157.671 313.827H183.109C183.506 313.719 183.856 313.485 184.106 313.161C184.356 312.838 184.491 312.442 184.491 312.034C184.491 311.627 184.356 311.231 184.106 310.908C183.856 310.584 183.506 310.35 183.109 310.242H157.671C157.274 310.35 156.923 310.584 156.674 310.908C156.424 311.231 156.289 311.627 156.289 312.034C156.289 312.442 156.424 312.838 156.674 313.161C156.923 313.485 157.274 313.719 157.671 313.827Z" fill="url(#paint15_linear)"/>
</g>
<path d="M143.145 320.465H181.824C182.086 320.506 182.354 320.49 182.609 320.419C182.864 320.348 183.101 320.222 183.303 320.052C183.504 319.882 183.666 319.67 183.777 319.432C183.888 319.194 183.946 318.935 183.946 318.673C183.946 318.411 183.888 318.152 183.777 317.914C183.666 317.675 183.504 317.464 183.303 317.294C183.101 317.123 182.864 316.998 182.609 316.927C182.354 316.855 182.086 316.84 181.824 316.881H143.145C142.883 316.84 142.615 316.855 142.36 316.927C142.105 316.998 141.868 317.123 141.667 317.294C141.465 317.464 141.303 317.675 141.192 317.914C141.081 318.152 141.023 318.411 141.023 318.673C141.023 318.935 141.081 319.194 141.192 319.432C141.303 319.67 141.465 319.882 141.667 320.052C141.868 320.222 142.105 320.348 142.36 320.419C142.615 320.49 142.883 320.506 143.145 320.465Z" fill="#DFDFF4"/>
<g filter="url(#filter6_ddd)">
<path d="M142.427 313.827H151.182C151.579 313.719 151.93 313.485 152.18 313.161C152.429 312.838 152.565 312.442 152.565 312.034C152.565 311.627 152.429 311.231 152.18 310.908C151.93 310.584 151.579 310.35 151.182 310.242H142.427C142.029 310.35 141.679 310.584 141.429 310.908C141.179 311.231 141.044 311.627 141.044 312.034C141.044 312.442 141.179 312.838 141.429 313.161C141.679 313.485 142.029 313.719 142.427 313.827Z" fill="url(#paint16_linear)"/>
</g>
<path d="M166.493 249.044H141.07C140.673 248.937 140.322 248.703 140.073 248.379C139.823 248.055 139.688 247.659 139.688 247.252C139.688 246.845 139.823 246.449 140.073 246.125C140.322 245.802 140.673 245.568 141.07 245.46H166.507C166.905 245.568 167.255 245.802 167.505 246.125C167.755 246.449 167.89 246.845 167.89 247.252C167.89 247.659 167.755 248.055 167.505 248.379C167.255 248.703 166.905 248.937 166.507 249.044H166.493Z" fill="#DFDFF4"/>
<path d="M181.739 249.044H172.976C172.579 248.937 172.229 248.703 171.979 248.379C171.729 248.055 171.594 247.659 171.594 247.252C171.594 246.845 171.729 246.449 171.979 246.125C172.229 245.802 172.579 245.568 172.976 245.46H181.739C182.137 245.568 182.487 245.802 182.737 246.125C182.987 246.449 183.122 246.845 183.122 247.252C183.122 247.659 182.987 248.055 182.737 248.379C182.487 248.703 182.137 248.937 181.739 249.044Z" fill="#DFDFF4"/>
<path d="M156.304 255.557H181.741C182.138 255.449 182.489 255.216 182.738 254.892C182.988 254.568 183.124 254.172 183.124 253.765C183.124 253.358 182.988 252.962 182.738 252.638C182.489 252.314 182.138 252.081 181.741 251.973H156.304C155.906 252.081 155.556 252.314 155.306 252.638C155.056 252.962 154.921 253.358 154.921 253.765C154.921 254.172 155.056 254.568 155.306 254.892C155.556 255.216 155.906 255.449 156.304 255.557Z" fill="#DFDFF4"/>
<path d="M141.817 262.233H180.488C180.75 262.274 181.018 262.258 181.273 262.187C181.529 262.115 181.765 261.99 181.967 261.82C182.169 261.649 182.331 261.438 182.442 261.2C182.553 260.962 182.61 260.703 182.61 260.44C182.61 260.178 182.553 259.919 182.442 259.681C182.331 259.443 182.169 259.231 181.967 259.061C181.765 258.891 181.529 258.766 181.273 258.694C181.018 258.623 180.75 258.607 180.488 258.648H141.817C141.555 258.607 141.287 258.623 141.032 258.694C140.777 258.766 140.54 258.891 140.338 259.061C140.137 259.231 139.975 259.443 139.864 259.681C139.753 259.919 139.695 260.178 139.695 260.44C139.695 260.703 139.753 260.962 139.864 261.2C139.975 261.438 140.137 261.649 140.338 261.82C140.54 261.99 140.777 262.115 141.032 262.187C141.287 262.258 141.555 262.274 141.817 262.233Z" fill="#FF4D57"/>
<path d="M141.07 255.557H149.833C150.23 255.449 150.581 255.216 150.831 254.892C151.08 254.568 151.216 254.172 151.216 253.765C151.216 253.358 151.08 252.962 150.831 252.638C150.581 252.314 150.23 252.08 149.833 251.973H141.07C140.673 252.08 140.322 252.314 140.073 252.638C139.823 252.962 139.688 253.358 139.688 253.765C139.688 254.172 139.823 254.568 140.073 254.892C140.322 255.216 140.673 255.449 141.07 255.557Z" fill="#DFDFF4"/>
<g style="mix-blend-mode:multiply">
<path d="M166.746 229.322H141.309C140.911 229.214 140.561 228.98 140.311 228.656C140.061 228.333 139.926 227.937 139.926 227.529C139.926 227.122 140.061 226.726 140.311 226.403C140.561 226.079 140.911 225.845 141.309 225.737H166.746C167.143 225.845 167.494 226.079 167.743 226.403C167.993 226.726 168.128 227.122 168.128 227.529C168.128 227.937 167.993 228.333 167.743 228.656C167.494 228.98 167.143 229.214 166.746 229.322Z" fill="url(#paint17_linear)"/>
</g>
<g style="mix-blend-mode:multiply">
<path d="M181.989 229.322H173.226C172.829 229.214 172.479 228.98 172.229 228.656C171.979 228.333 171.844 227.937 171.844 227.529C171.844 227.122 171.979 226.726 172.229 226.403C172.479 226.079 172.829 225.845 173.226 225.737H181.989C182.386 225.845 182.737 226.079 182.987 226.403C183.237 226.726 183.372 227.122 183.372 227.529C183.372 227.937 183.237 228.333 182.987 228.656C182.737 228.98 182.386 229.214 181.989 229.322Z" fill="url(#paint18_linear)"/>
</g>
<g style="mix-blend-mode:multiply">
<path d="M156.55 235.857H181.987C182.386 235.751 182.738 235.519 182.99 235.195C183.241 234.872 183.377 234.476 183.377 234.068C183.377 233.66 183.241 233.264 182.99 232.94C182.738 232.617 182.386 232.384 181.987 232.279H156.55C156.152 232.384 155.799 232.617 155.548 232.94C155.296 233.264 155.16 233.66 155.16 234.068C155.16 234.476 155.296 234.872 155.548 235.195C155.799 235.519 156.152 235.751 156.55 235.857Z" fill="url(#paint19_linear)"/>
</g>
<g style="mix-blend-mode:multiply">
<path d="M141.309 242.509H166.746C167.143 242.401 167.494 242.168 167.743 241.844C167.993 241.52 168.128 241.124 168.128 240.717C168.128 240.31 167.993 239.914 167.743 239.59C167.494 239.266 167.143 239.033 166.746 238.925H141.309C140.911 239.033 140.561 239.266 140.311 239.59C140.061 239.914 139.926 240.31 139.926 240.717C139.926 241.124 140.061 241.52 140.311 241.844C140.561 242.168 140.911 242.401 141.309 242.509Z" fill="url(#paint20_linear)"/>
</g>
<g style="mix-blend-mode:multiply">
<path d="M141.308 235.857H150.063C150.462 235.751 150.814 235.519 151.065 235.195C151.317 234.872 151.453 234.476 151.453 234.068C151.453 233.66 151.317 233.264 151.065 232.94C150.814 232.617 150.462 232.384 150.063 232.279H141.308C140.909 232.384 140.557 232.617 140.305 232.94C140.054 233.264 139.918 233.66 139.918 234.068C139.918 234.476 140.054 234.872 140.305 235.195C140.557 235.519 140.909 235.751 141.308 235.857Z" fill="url(#paint21_linear)"/>
</g>
<path d="M166.657 274.956H141.219C140.822 274.848 140.472 274.614 140.222 274.291C139.972 273.967 139.837 273.571 139.837 273.164C139.837 272.757 139.972 272.361 140.222 272.037C140.472 271.713 140.822 271.479 141.219 271.371H166.657C167.054 271.479 167.404 271.713 167.654 272.037C167.904 272.361 168.039 272.757 168.039 273.164C168.039 273.571 167.904 273.967 167.654 274.291C167.404 274.614 167.054 274.848 166.657 274.956Z" fill="#FF4D57"/>
<path d="M181.904 274.956H173.164C172.767 274.848 172.416 274.614 172.166 274.291C171.917 273.967 171.781 273.571 171.781 273.164C171.781 272.757 171.917 272.361 172.166 272.037C172.416 271.713 172.767 271.479 173.164 271.371H181.927C182.324 271.479 182.675 271.713 182.924 272.037C183.174 272.361 183.309 272.757 183.309 273.164C183.309 273.571 183.174 273.967 182.924 274.291C182.675 274.614 182.324 274.848 181.927 274.956H181.904Z" fill="#FF4D57"/>
<path d="M156.468 281.498H181.905C182.302 281.39 182.653 281.156 182.903 280.833C183.153 280.509 183.288 280.113 183.288 279.706C183.288 279.299 183.153 278.903 182.903 278.579C182.653 278.255 182.302 278.021 181.905 277.914H156.468C156.071 278.021 155.72 278.255 155.47 278.579C155.221 278.903 155.085 279.299 155.085 279.706C155.085 280.113 155.221 280.509 155.47 280.833C155.72 281.156 156.071 281.39 156.468 281.498Z" fill="#DFDFF4"/>
<path d="M141.219 288.144H166.657C167.054 288.036 167.404 287.802 167.654 287.479C167.904 287.155 168.039 286.759 168.039 286.352C168.039 285.945 167.904 285.549 167.654 285.225C167.404 284.901 167.054 284.667 166.657 284.559H141.219C140.822 284.667 140.472 284.901 140.222 285.225C139.972 285.549 139.837 285.945 139.837 286.352C139.837 286.759 139.972 287.155 140.222 287.479C140.472 287.802 140.822 288.036 141.219 288.144Z" fill="#DFDFF4"/>
<path d="M141.219 281.498H149.982C150.379 281.39 150.73 281.156 150.98 280.833C151.23 280.509 151.365 280.113 151.365 279.706C151.365 279.299 151.23 278.903 150.98 278.579C150.73 278.255 150.379 278.021 149.982 277.914H141.219C140.822 278.021 140.472 278.255 140.222 278.579C139.972 278.903 139.837 279.299 139.837 279.706C139.837 280.113 139.972 280.509 140.222 280.833C140.472 281.156 140.822 281.39 141.219 281.498Z" fill="#FF4D57"/>
<path d="M256.014 214.253C221.68 215.072 204.14 221.585 197.049 225.132C195.861 225.721 194.876 226.646 194.22 227.788C193.563 228.93 193.265 230.239 193.362 231.549C194.981 254.127 204.655 298.625 251.312 343.515C252.575 344.728 254.268 345.406 256.029 345.406C257.791 345.406 259.483 344.728 260.746 343.515C307.411 298.625 317.084 254.127 318.697 231.549C318.794 230.239 318.495 228.93 317.839 227.788C317.182 226.646 316.198 225.721 315.009 225.132C307.926 221.629 290.349 215.079 256.014 214.253Z" fill="url(#paint22_linear)"/>
<path d="M256.011 214.252C221.677 215.071 204.136 221.584 197.046 225.132C195.858 225.721 194.873 226.645 194.217 227.787C193.56 228.93 193.262 230.239 193.358 231.549C194.978 254.126 204.651 298.625 251.309 343.514C252.572 344.727 254.264 345.406 256.026 345.406C257.787 345.406 259.48 344.727 260.743 343.514C238.022 295.325 243.973 303.919 243.973 264.567C256.026 225.132 318.492 228.93 317.835 227.787C317.179 226.645 316.194 225.721 315.006 225.132C307.923 221.628 290.345 215.078 256.011 214.252Z" fill="url(#paint23_linear)" style="mix-blend-mode:multiply"/>
<path d="M385.199 201.175H385.005C383.397 201.175 382.094 202.463 382.094 204.052V317.161C382.094 318.749 383.397 320.037 385.005 320.037H385.199C386.806 320.037 388.11 318.749 388.11 317.161V204.052C388.11 202.463 386.806 201.175 385.199 201.175Z" fill="#DFDFF4"/>
<path d="M385.185 201.301H385.006C383.464 201.301 382.214 202.536 382.214 204.059V217.609C382.214 219.132 383.464 220.367 385.006 220.367H385.185C386.727 220.367 387.977 219.132 387.977 217.609V204.059C387.977 202.536 386.727 201.301 385.185 201.301Z" fill="#B5B5E2"/>
<path d="M261.682 294.406H250.576C246.97 294.394 243.516 292.974 240.967 290.455C238.418 287.936 236.981 284.522 236.969 280.96V260.204C236.969 259.388 237.297 258.606 237.88 258.029C238.464 257.452 239.256 257.128 240.081 257.128H272.176C273.001 257.13 273.79 257.455 274.372 258.032C274.954 258.608 275.281 259.39 275.281 260.204V280.96C275.272 284.522 273.836 287.935 271.288 290.455C268.74 292.974 265.286 294.394 261.682 294.406Z" fill="url(#paint24_linear)"/>
<path d="M257.014 243.018C252.9 242.894 248.885 244.273 245.735 246.891C242.586 249.51 240.524 253.183 239.944 257.21C239.899 257.426 239.899 257.65 239.945 257.867C239.991 258.083 240.081 258.288 240.211 258.469C240.34 258.649 240.506 258.802 240.697 258.917C240.889 259.031 241.102 259.106 241.324 259.136C241.546 259.166 241.772 259.15 241.987 259.09C242.203 259.03 242.404 258.927 242.577 258.788C242.751 258.648 242.894 258.474 242.997 258.278C243.099 258.081 243.16 257.866 243.176 257.645C243.598 254.226 245.349 251.103 248.059 248.936C250.768 246.769 254.223 245.727 257.695 246.031C261.167 246.334 264.384 247.959 266.666 250.562C268.948 253.166 270.118 256.544 269.927 259.983C269.927 260.042 269.927 260.101 269.927 260.16L273.181 260.263C273.281 258.078 272.94 255.895 272.179 253.842C271.418 251.788 270.252 249.904 268.747 248.299C267.243 246.695 265.431 245.402 263.417 244.495C261.403 243.589 259.226 243.087 257.014 243.018Z" fill="url(#paint25_linear)"/>
<path d="M259.41 271.998C259.41 272.627 259.221 273.242 258.867 273.765C258.514 274.287 258.012 274.695 257.424 274.935C256.836 275.176 256.189 275.239 255.565 275.116C254.941 274.994 254.368 274.691 253.918 274.246C253.468 273.802 253.162 273.235 253.037 272.619C252.913 272.002 252.977 271.363 253.22 270.782C253.464 270.201 253.876 269.704 254.405 269.355C254.934 269.006 255.556 268.819 256.193 268.819C257.046 268.819 257.864 269.154 258.467 269.75C259.071 270.347 259.41 271.155 259.41 271.998Z" fill="#283A59"/>
<path d="M253.695 281.484L254.442 273.474H257.965L258.711 281.484C258.744 281.828 258.704 282.176 258.593 282.504C258.482 282.833 258.303 283.135 258.067 283.391C257.832 283.647 257.544 283.851 257.224 283.991C256.904 284.131 256.557 284.204 256.207 284.204C255.856 284.204 255.51 284.131 255.19 283.991C254.869 283.851 254.582 283.647 254.346 283.391C254.11 283.135 253.931 282.833 253.821 282.504C253.71 282.176 253.67 281.828 253.703 281.484H253.695Z" fill="#283A59"/>
<path d="M0 429.133L94.4342 366.003C97.4289 364.001 100.962 362.93 104.578 362.928H414.012C418.535 362.933 422.953 364.274 426.7 366.778L520 429.133H0Z" fill="url(#paint26_linear)"/>
<path d="M128.856 381.685H140.798C143.009 381.58 145.128 380.778 146.844 379.398L155.54 371.587C156.943 370.326 156.719 369.301 155.032 369.301H144.583C142.391 369.49 140.297 370.282 138.537 371.587L128.378 379.376C126.699 380.637 126.923 381.685 128.856 381.685Z" fill="#BABAE5"/>
<path d="M178.807 369.278H168.171C166.227 369.412 164.385 370.192 162.946 371.491L154.736 379.465C153.482 380.682 153.99 381.677 155.841 381.677H168.044C170.01 381.637 171.884 380.844 173.269 379.465L179.882 371.484C180.927 370.267 180.434 369.278 178.807 369.278Z" fill="#BABAE5"/>
<path d="M202.56 369.279H191.715C190.868 369.313 190.037 369.519 189.274 369.885C188.511 370.25 187.833 370.767 187.281 371.403L181.198 379.516C180.317 380.689 181.064 381.641 182.862 381.641H195.305C197.104 381.641 199.089 380.689 199.738 379.516L204.217 371.403C204.881 370.23 204.135 369.279 202.56 369.279Z" fill="#BABAE5"/>
<path d="M209.856 381.685H222.545C224.276 381.685 225.933 380.77 226.239 379.634L228.478 371.351C228.784 370.215 227.814 369.301 226.299 369.301H215.252C214.51 369.299 213.779 369.486 213.132 369.846C212.485 370.205 211.942 370.724 211.558 371.351L207.684 379.634C207.154 380.748 208.124 381.685 209.856 381.685Z" fill="#BABAE5"/>
<path d="M236.86 381.685H249.788C251.453 381.685 252.774 380.807 252.774 379.715L252.699 371.27C252.699 370.178 251.512 369.301 250.057 369.301H238.786C237.331 369.301 235.987 370.178 235.801 371.27L234.211 379.715C234.009 380.785 235.196 381.685 236.86 381.685Z" fill="#BABAE5"/>
<path d="M263.86 381.685H277.034C278.631 381.685 279.684 380.836 279.378 379.796L276.915 371.167C276.616 370.119 275.243 369.278 273.847 369.278H262.345C260.949 369.278 259.897 370.119 259.994 371.167L260.792 379.774C260.889 380.814 262.263 381.685 263.86 381.685Z" fill="#BABAE5"/>
<path d="M290.854 381.685H304.289C305.782 381.685 306.603 380.873 306.028 379.878L301.042 371.108C300.654 370.559 300.14 370.109 299.542 369.795C298.943 369.481 298.278 369.312 297.601 369.301H285.868C284.532 369.301 283.756 370.112 284.129 371.108L287.398 379.878C287.786 380.851 289.324 381.685 290.854 381.685Z" fill="#BABAE5"/>
<path d="M321.349 369.278H309.406C308.137 369.278 307.607 370.053 308.227 371.004L314.056 379.937C314.522 380.479 315.102 380.915 315.755 381.213C316.409 381.511 317.121 381.665 317.84 381.663H331.5C332.992 381.663 333.492 380.888 332.679 379.937L325.103 371.004C324.119 369.978 322.777 369.361 321.349 369.278Z" fill="#BABAE5"/>
<path d="M344.835 381.685H358.74C360.136 381.685 360.435 380.947 359.405 380.033L349.164 370.923C348.016 369.967 346.593 369.392 345.096 369.278H332.975C331.758 369.278 331.482 370.016 332.311 370.923L340.79 380.01C341.89 381.032 343.326 381.627 344.835 381.685Z" fill="#BABAE5"/>
<path d="M368.857 369.279H356.519C355.362 369.279 355.28 369.979 356.332 370.85L367.528 380.092C368.776 381.042 370.285 381.597 371.857 381.685H386.039C387.367 381.685 387.457 380.947 386.233 380.114L373.201 370.85C371.918 369.956 370.42 369.414 368.857 369.279Z" fill="#BABAE5"/>
<path d="M105.241 400.25H119.49C121.796 400.25 124.804 399.224 126.208 397.956L134.896 390.145C136.306 388.883 135.776 387.858 133.716 387.858H121.028C118.616 387.981 116.287 388.774 114.31 390.145L104.092 397.956C102.375 399.224 102.905 400.25 105.241 400.25Z" fill="#BABAE5"/>
<path d="M162.714 387.858H149.704C147.552 387.922 145.485 388.702 143.837 390.071L135.627 398.044C134.373 399.261 135.164 400.257 137.389 400.257H151.928C154.168 400.257 156.78 399.261 157.795 398.044L164.431 390.071C165.453 388.847 164.669 387.858 162.714 387.858Z" fill="#BABAE5"/>
<path d="M191.667 387.858H178.433C176.515 387.858 174.254 388.81 173.373 389.99L167.29 398.103C166.409 399.276 167.431 400.235 169.581 400.235H184.412C186.554 400.235 188.823 399.276 189.473 398.103L193.951 389.99C194.608 388.81 193.585 387.858 191.667 387.858Z" fill="#BABAE5"/>
<path d="M201.766 400.25H216.888C218.948 400.25 220.874 399.328 221.18 398.199L223.419 389.909C223.725 388.773 222.479 387.858 220.635 387.858H207.163C205.319 387.858 203.393 388.773 202.863 389.909L198.982 398.199C198.452 399.328 199.699 400.25 201.766 400.25Z" fill="#BABAE5"/>
<path d="M233.952 400.25H249.365C251.35 400.25 252.948 399.364 252.94 398.273L252.873 389.798C252.873 388.714 251.38 387.829 249.648 387.829H235.863C234.086 387.829 232.489 388.714 232.28 389.798L230.697 398.243C230.526 399.387 231.966 400.25 233.952 400.25Z" fill="#BABAE5"/>
<path d="M266.138 400.25H281.812C283.715 400.25 285.014 399.401 284.716 398.354L282.23 389.746C281.932 388.706 280.304 387.858 278.61 387.858H264.623C262.921 387.858 261.637 388.706 261.719 389.746L262.51 398.354C262.607 399.387 264.227 400.25 266.138 400.25Z" fill="#BABAE5"/>
<path d="M298.321 400.25H314.316C316.137 400.25 317.152 399.438 316.555 398.435L311.569 389.665C311.002 388.67 309.218 387.858 307.591 387.858H293.335C291.708 387.858 290.693 388.67 291.096 389.665L294.365 398.435C294.716 399.438 296.492 400.25 298.321 400.25Z" fill="#BABAE5"/>
<path d="M336.626 387.858H322.072C320.519 387.858 319.765 388.633 320.385 389.591L326.214 398.516C326.841 399.468 328.759 400.25 330.506 400.25H346.785C348.531 400.25 349.285 399.468 348.479 398.516L340.896 389.591C339.748 388.497 338.221 387.877 336.626 387.858Z" fill="#BABAE5"/>
<path d="M362.689 400.25H379.259C380.923 400.25 381.438 399.512 380.408 398.597L370.153 389.51C368.849 388.499 367.256 387.92 365.6 387.858H350.806C349.313 387.858 348.813 388.596 349.664 389.51L358.143 398.597C359.413 399.662 361.023 400.247 362.689 400.25Z" fill="#BABAE5"/>
<path d="M394.583 387.858H379.528C378.117 387.858 377.826 388.559 378.879 389.429L390.075 398.679C391.474 399.659 393.137 400.206 394.852 400.25H411.713C413.295 400.25 413.594 399.512 412.37 398.679L399.36 389.429C397.938 388.494 396.289 387.952 394.583 387.858Z" fill="#BABAE5"/>
<path d="M181.214 405.715H165.704C163.465 405.715 160.919 406.667 160.039 407.839L153.956 415.953C153.075 417.133 154.373 418.084 156.852 418.084H173.974C176.452 418.084 178.99 417.133 179.639 415.953L184.117 407.839C184.752 406.667 183.461 405.715 181.214 405.715Z" fill="#BABAE5"/>
<path d="M351.277 405.715H199.385C197.221 405.715 195.041 406.63 194.511 407.758L190.63 416.049C190.1 417.185 191.6 418.099 193.989 418.099H361.458C363.466 418.099 364.443 417.325 363.63 416.366L356.031 407.441C355.24 406.49 353.106 405.715 351.277 405.715Z" fill="#BABAE5"/>
<path d="M419.304 405.715H367.929C366.19 405.715 365.466 406.453 366.317 407.36L374.796 416.447C375.647 417.362 377.894 418.099 379.812 418.099H436.456C438.285 418.099 438.777 417.398 437.553 416.528L424.521 407.286C422.954 406.315 421.153 405.773 419.304 405.715Z" fill="#BABAE5"/>
<path d="M146.918 405.715H137.044H106.068H98.2533C95.6289 405.777 93.0755 406.57 90.8863 408.002L80.6607 415.813C79.0111 417.074 79.8247 418.099 82.4894 418.099H136.148C138.813 418.099 141.82 417.074 142.865 415.813L149.382 408.002C150.441 406.762 149.337 405.715 146.918 405.715Z" fill="#BABAE5"/>
<path d="M0 429.045C0 429.171 0 429.296 0 429.421C0.00787857 432.222 1.13729 434.906 3.14145 436.887C5.14561 438.867 7.86158 439.983 10.6959 439.991H509.289C512.124 439.983 514.84 438.867 516.844 436.887C518.848 434.906 519.977 432.222 519.985 429.421C519.985 429.296 519.985 429.171 519.985 429.045H0Z" fill="#5E5E92"/>
<defs>
<filter id="filter0_ddd" x="208.727" y="190.403" width="180.23" height="83.5962" filterUnits="userSpaceOnUse" color-interpolation-filters="sRGB">
<feFlood flood-opacity="0" result="BackgroundImageFix"/>
<feColorMatrix in="SourceAlpha" type="matrix" values="0 0 0 0 0 0 0 0 0 0 0 0 0 0 0 0 0 0 127 0"/>
<feOffset dy="16"/>
<feGaussianBlur stdDeviation="8"/>
<feColorMatrix type="matrix" values="0 0 0 0 0.172549 0 0 0 0 0.188235 0 0 0 0 0.227451 0 0 0 0.08 0"/>
<feBlend mode="normal" in2="BackgroundImageFix" result="effect1_dropShadow"/>
<feColorMatrix in="SourceAlpha" type="matrix" values="0 0 0 0 0 0 0 0 0 0 0 0 0 0 0 0 0 0 127 0"/>
<feOffset dy="6"/>
<feGaussianBlur stdDeviation="20"/>
<feColorMatrix type="matrix" values="0 0 0 0 0.172549 0 0 0 0 0.188235 0 0 0 0 0.227451 0 0 0 0.03 0"/>
<feBlend mode="normal" in2="effect1_dropShadow" result="effect2_dropShadow"/>
<feColorMatrix in="SourceAlpha" type="matrix" values="0 0 0 0 0 0 0 0 0 0 0 0 0 0 0 0 0 0 127 0"/>
<feOffset/>
<feGaussianBlur stdDeviation="8"/>
<feColorMatrix type="matrix" values="0 0 0 0 0.172549 0 0 0 0 0.188235 0 0 0 0 0.227451 0 0 0 0.03 0"/>
<feBlend mode="normal" in2="effect2_dropShadow" result="effect3_dropShadow"/>
<feBlend mode="normal" in="SourceGraphic" in2="effect3_dropShadow" result="shape"/>
</filter>
<filter id="filter1_ddd" x="221.238" y="274.415" width="135.87" height="83.117" filterUnits="userSpaceOnUse" color-interpolation-filters="sRGB">
<feFlood flood-opacity="0" result="BackgroundImageFix"/>
<feColorMatrix in="SourceAlpha" type="matrix" values="0 0 0 0 0 0 0 0 0 0 0 0 0 0 0 0 0 0 127 0"/>
<feOffset dy="16"/>
<feGaussianBlur stdDeviation="8"/>
<feColorMatrix type="matrix" values="0 0 0 0 0.172549 0 0 0 0 0.188235 0 0 0 0 0.227451 0 0 0 0.08 0"/>
<feBlend mode="normal" in2="BackgroundImageFix" result="effect1_dropShadow"/>
<feColorMatrix in="SourceAlpha" type="matrix" values="0 0 0 0 0 0 0 0 0 0 0 0 0 0 0 0 0 0 127 0"/>
<feOffset dy="6"/>
<feGaussianBlur stdDeviation="20"/>
<feColorMatrix type="matrix" values="0 0 0 0 0.172549 0 0 0 0 0.188235 0 0 0 0 0.227451 0 0 0 0.03 0"/>
<feBlend mode="normal" in2="effect1_dropShadow" result="effect2_dropShadow"/>
<feColorMatrix in="SourceAlpha" type="matrix" values="0 0 0 0 0 0 0 0 0 0 0 0 0 0 0 0 0 0 127 0"/>
<feOffset/>
<feGaussianBlur stdDeviation="8"/>
<feColorMatrix type="matrix" values="0 0 0 0 0.172549 0 0 0 0 0.188235 0 0 0 0 0.227451 0 0 0 0.03 0"/>
<feBlend mode="normal" in2="effect2_dropShadow" result="effect3_dropShadow"/>
<feBlend mode="normal" in="SourceGraphic" in2="effect3_dropShadow" result="shape"/>
</filter>
<filter id="filter2_ddd" x="221.238" y="251.953" width="148.766" height="83.1274" filterUnits="userSpaceOnUse" color-interpolation-filters="sRGB">
<feFlood flood-opacity="0" result="BackgroundImageFix"/>
<feColorMatrix in="SourceAlpha" type="matrix" values="0 0 0 0 0 0 0 0 0 0 0 0 0 0 0 0 0 0 127 0"/>
<feOffset dy="16"/>
<feGaussianBlur stdDeviation="8"/>
<feColorMatrix type="matrix" values="0 0 0 0 0.172549 0 0 0 0 0.188235 0 0 0 0 0.227451 0 0 0 0.08 0"/>
<feBlend mode="normal" in2="BackgroundImageFix" result="effect1_dropShadow"/>
<feColorMatrix in="SourceAlpha" type="matrix" values="0 0 0 0 0 0 0 0 0 0 0 0 0 0 0 0 0 0 127 0"/>
<feOffset dy="6"/>
<feGaussianBlur stdDeviation="20"/>
<feColorMatrix type="matrix" values="0 0 0 0 0.172549 0 0 0 0 0.188235 0 0 0 0 0.227451 0 0 0 0.03 0"/>
<feBlend mode="normal" in2="effect1_dropShadow" result="effect2_dropShadow"/>
<feColorMatrix in="SourceAlpha" type="matrix" values="0 0 0 0 0 0 0 0 0 0 0 0 0 0 0 0 0 0 127 0"/>
<feOffset/>
<feGaussianBlur stdDeviation="8"/>
<feColorMatrix type="matrix" values="0 0 0 0 0.172549 0 0 0 0 0.188235 0 0 0 0 0.227451 0 0 0 0.03 0"/>
<feBlend mode="normal" in2="effect2_dropShadow" result="effect3_dropShadow"/>
<feBlend mode="normal" in="SourceGraphic" in2="effect3_dropShadow" result="shape"/>
</filter>
<filter id="filter3_ddd" x="280.329" y="274.42" width="89.9914" height="83.1053" filterUnits="userSpaceOnUse" color-interpolation-filters="sRGB">
<feFlood flood-opacity="0" result="BackgroundImageFix"/>
<feColorMatrix in="SourceAlpha" type="matrix" values="0 0 0 0 0 0 0 0 0 0 0 0 0 0 0 0 0 0 127 0"/>
<feOffset dy="16"/>
<feGaussianBlur stdDeviation="8"/>
<feColorMatrix type="matrix" values="0 0 0 0 0.172549 0 0 0 0 0.188235 0 0 0 0 0.227451 0 0 0 0.08 0"/>
<feBlend mode="normal" in2="BackgroundImageFix" result="effect1_dropShadow"/>
<feColorMatrix in="SourceAlpha" type="matrix" values="0 0 0 0 0 0 0 0 0 0 0 0 0 0 0 0 0 0 127 0"/>
<feOffset dy="6"/>
<feGaussianBlur stdDeviation="20"/>
<feColorMatrix type="matrix" values="0 0 0 0 0.172549 0 0 0 0 0.188235 0 0 0 0 0.227451 0 0 0 0.03 0"/>
<feBlend mode="normal" in2="effect1_dropShadow" result="effect2_dropShadow"/>
<feColorMatrix in="SourceAlpha" type="matrix" values="0 0 0 0 0 0 0 0 0 0 0 0 0 0 0 0 0 0 127 0"/>
<feOffset/>
<feGaussianBlur stdDeviation="8"/>
<feColorMatrix type="matrix" values="0 0 0 0 0.172549 0 0 0 0 0.188235 0 0 0 0 0.227451 0 0 0 0.03 0"/>
<feBlend mode="normal" in2="effect2_dropShadow" result="effect3_dropShadow"/>
<feBlend mode="normal" in="SourceGraphic" in2="effect3_dropShadow" result="shape"/>
</filter>
<filter id="filter4_ddd" x="221.238" y="268.76" width="136.087" height="83.1112" filterUnits="userSpaceOnUse" color-interpolation-filters="sRGB">
<feFlood flood-opacity="0" result="BackgroundImageFix"/>
<feColorMatrix in="SourceAlpha" type="matrix" values="0 0 0 0 0 0 0 0 0 0 0 0 0 0 0 0 0 0 127 0"/>
<feOffset dy="16"/>
<feGaussianBlur stdDeviation="8"/>
<feColorMatrix type="matrix" values="0 0 0 0 0.172549 0 0 0 0 0.188235 0 0 0 0 0.227451 0 0 0 0.08 0"/>
<feBlend mode="normal" in2="BackgroundImageFix" result="effect1_dropShadow"/>
<feColorMatrix in="SourceAlpha" type="matrix" values="0 0 0 0 0 0 0 0 0 0 0 0 0 0 0 0 0 0 127 0"/>
<feOffset dy="6"/>
<feGaussianBlur stdDeviation="20"/>
<feColorMatrix type="matrix" values="0 0 0 0 0.172549 0 0 0 0 0.188235 0 0 0 0 0.227451 0 0 0 0.03 0"/>
<feBlend mode="normal" in2="effect1_dropShadow" result="effect2_dropShadow"/>
<feColorMatrix in="SourceAlpha" type="matrix" values="0 0 0 0 0 0 0 0 0 0 0 0 0 0 0 0 0 0 127 0"/>
<feOffset/>
<feGaussianBlur stdDeviation="8"/>
<feColorMatrix type="matrix" values="0 0 0 0 0.172549 0 0 0 0 0.188235 0 0 0 0 0.227451 0 0 0 0.03 0"/>
<feBlend mode="normal" in2="effect2_dropShadow" result="effect3_dropShadow"/>
<feBlend mode="normal" in="SourceGraphic" in2="effect3_dropShadow" result="shape"/>
</filter>
<filter id="filter5_ddd" x="116.289" y="276.242" width="108.203" height="83.5847" filterUnits="userSpaceOnUse" color-interpolation-filters="sRGB">
<feFlood flood-opacity="0" result="BackgroundImageFix"/>
<feColorMatrix in="SourceAlpha" type="matrix" values="0 0 0 0 0 0 0 0 0 0 0 0 0 0 0 0 0 0 127 0"/>
<feOffset dy="16"/>
<feGaussianBlur stdDeviation="8"/>
<feColorMatrix type="matrix" values="0 0 0 0 0.172549 0 0 0 0 0.188235 0 0 0 0 0.227451 0 0 0 0.08 0"/>
<feBlend mode="normal" in2="BackgroundImageFix" result="effect1_dropShadow"/>
<feColorMatrix in="SourceAlpha" type="matrix" values="0 0 0 0 0 0 0 0 0 0 0 0 0 0 0 0 0 0 127 0"/>
<feOffset dy="6"/>
<feGaussianBlur stdDeviation="20"/>
<feColorMatrix type="matrix" values="0 0 0 0 0.172549 0 0 0 0 0.188235 0 0 0 0 0.227451 0 0 0 0.03 0"/>
<feBlend mode="normal" in2="effect1_dropShadow" result="effect2_dropShadow"/>
<feColorMatrix in="SourceAlpha" type="matrix" values="0 0 0 0 0 0 0 0 0 0 0 0 0 0 0 0 0 0 127 0"/>
<feOffset/>
<feGaussianBlur stdDeviation="8"/>
<feColorMatrix type="matrix" values="0 0 0 0 0.172549 0 0 0 0 0.188235 0 0 0 0 0.227451 0 0 0 0.03 0"/>
<feBlend mode="normal" in2="effect2_dropShadow" result="effect3_dropShadow"/>
<feBlend mode="normal" in="SourceGraphic" in2="effect3_dropShadow" result="shape"/>
</filter>
<filter id="filter6_ddd" x="101.044" y="276.242" width="91.5207" height="83.5847" filterUnits="userSpaceOnUse" color-interpolation-filters="sRGB">
<feFlood flood-opacity="0" result="BackgroundImageFix"/>
<feColorMatrix in="SourceAlpha" type="matrix" values="0 0 0 0 0 0 0 0 0 0 0 0 0 0 0 0 0 0 127 0"/>
<feOffset dy="16"/>
<feGaussianBlur stdDeviation="8"/>
<feColorMatrix type="matrix" values="0 0 0 0 0.172549 0 0 0 0 0.188235 0 0 0 0 0.227451 0 0 0 0.08 0"/>
<feBlend mode="normal" in2="BackgroundImageFix" result="effect1_dropShadow"/>
<feColorMatrix in="SourceAlpha" type="matrix" values="0 0 0 0 0 0 0 0 0 0 0 0 0 0 0 0 0 0 127 0"/>
<feOffset dy="6"/>
<feGaussianBlur stdDeviation="20"/>
<feColorMatrix type="matrix" values="0 0 0 0 0.172549 0 0 0 0 0.188235 0 0 0 0 0.227451 0 0 0 0.03 0"/>
<feBlend mode="normal" in2="effect1_dropShadow" result="effect2_dropShadow"/>
<feColorMatrix in="SourceAlpha" type="matrix" values="0 0 0 0 0 0 0 0 0 0 0 0 0 0 0 0 0 0 127 0"/>
<feOffset/>
<feGaussianBlur stdDeviation="8"/>
<feColorMatrix type="matrix" values="0 0 0 0 0.172549 0 0 0 0 0.188235 0 0 0 0 0.227451 0 0 0 0.03 0"/>
<feBlend mode="normal" in2="effect2_dropShadow" result="effect3_dropShadow"/>
<feBlend mode="normal" in="SourceGraphic" in2="effect3_dropShadow" result="shape"/>
</filter>
<linearGradient id="paint0_linear" x1="-36.6344" y1="505.556" x2="725.659" y2="193.567" gradientUnits="userSpaceOnUse">
<stop stop-color="#363694"/>
<stop offset="1" stop-color="#8888FC"/>
</linearGradient>
<linearGradient id="paint1_linear" x1="212.912" y1="66" x2="212.912" y2="454.086" gradientUnits="userSpaceOnUse">
<stop stop-color="#44CAA4"/>
<stop offset="1" stop-color="#44CAA4" stop-opacity="0"/>
</linearGradient>
<linearGradient id="paint2_linear" x1="474.866" y1="330.772" x2="474.866" y2="370.86" gradientUnits="userSpaceOnUse">
<stop stop-color="#44CAA4"/>
<stop offset="1" stop-color="#44CAA4" stop-opacity="0"/>
</linearGradient>
<linearGradient id="paint3_linear" x1="259.726" y1="158.115" x2="259.726" y2="363.157" gradientUnits="userSpaceOnUse">
<stop stop-color="#5E5E92"/>
<stop offset="1" stop-color="#8989D0"/>
</linearGradient>
<linearGradient id="paint4_linear" x1="210.997" y1="209.013" x2="258.144" y2="209.013" gradientUnits="userSpaceOnUse">
<stop stop-color="#44CAA4"/>
<stop offset="1" stop-color="#44CAA4" stop-opacity="0"/>
</linearGradient>
<linearGradient id="paint5_linear" x1="228.096" y1="209.02" x2="395.579" y2="209.02" gradientUnits="userSpaceOnUse">
<stop stop-color="#44CAA4"/>
<stop offset="1" stop-color="#44CAA4" stop-opacity="0"/>
</linearGradient>
<linearGradient id="paint6_linear" x1="214.421" y1="215.547" x2="233.705" y2="215.547" gradientUnits="userSpaceOnUse">
<stop stop-color="#44CAA4"/>
<stop offset="1" stop-color="#44CAA4" stop-opacity="0"/>
</linearGradient>
<linearGradient id="paint7_linear" x1="226.104" y1="215.547" x2="274.286" y2="215.547" gradientUnits="userSpaceOnUse">
<stop stop-color="#44CAA4"/>
<stop offset="1" stop-color="#44CAA4" stop-opacity="0"/>
</linearGradient>
<linearGradient id="paint8_linear" x1="212.357" y1="226.227" x2="351.425" y2="232.832" gradientUnits="userSpaceOnUse">
<stop stop-color="#3D2994"/>
<stop offset="1" stop-color="#8E5EED"/>
</linearGradient>
<linearGradient id="paint9_linear" x1="350.266" y1="209.013" x2="369.488" y2="209.013" gradientUnits="userSpaceOnUse">
<stop stop-color="#44CAA4"/>
<stop offset="1" stop-color="#44CAA4" stop-opacity="0"/>
</linearGradient>
<linearGradient id="paint10_linear" x1="244.063" y1="215.554" x2="410.521" y2="215.554" gradientUnits="userSpaceOnUse">
<stop stop-color="#44CAA4"/>
<stop offset="1" stop-color="#44CAA4" stop-opacity="0"/>
</linearGradient>
<linearGradient id="paint11_linear" x1="240.965" y1="309.996" x2="318.587" y2="312.366" gradientUnits="userSpaceOnUse">
<stop stop-color="#3D2994"/>
<stop offset="1" stop-color="#8E5EED"/>
</linearGradient>
<linearGradient id="paint12_linear" x1="236.286" y1="287.539" x2="331.779" y2="291.117" gradientUnits="userSpaceOnUse">
<stop stop-color="#3D2994"/>
<stop offset="1" stop-color="#8E5EED"/>
</linearGradient>
<linearGradient id="paint13_linear" x1="316.704" y1="309.995" x2="330.597" y2="310.071" gradientUnits="userSpaceOnUse">
<stop stop-color="#3D2994"/>
<stop offset="1" stop-color="#8E5EED"/>
</linearGradient>
<linearGradient id="paint14_linear" x1="240.886" y1="304.338" x2="318.808" y2="306.732" gradientUnits="userSpaceOnUse">
<stop stop-color="#3D2994"/>
<stop offset="1" stop-color="#8E5EED"/>
</linearGradient>
<linearGradient id="paint15_linear" x1="146.055" y1="312.06" x2="185.267" y2="312.586" gradientUnits="userSpaceOnUse">
<stop stop-color="#3D2994"/>
<stop offset="1" stop-color="#8E5EED"/>
</linearGradient>
<linearGradient id="paint16_linear" x1="136.863" y1="312.06" x2="152.884" y2="312.148" gradientUnits="userSpaceOnUse">
<stop stop-color="#3D2994"/>
<stop offset="1" stop-color="#8E5EED"/>
</linearGradient>
<linearGradient id="paint17_linear" x1="134.118" y1="229.739" x2="181.265" y2="229.739" gradientUnits="userSpaceOnUse">
<stop stop-color="#44CAA4"/>
<stop offset="1" stop-color="#44CAA4" stop-opacity="0"/>
</linearGradient>
<linearGradient id="paint18_linear" x1="169.47" y1="229.739" x2="188.742" y2="229.739" gradientUnits="userSpaceOnUse">
<stop stop-color="#44CAA4"/>
<stop offset="1" stop-color="#44CAA4" stop-opacity="0"/>
</linearGradient>
<linearGradient id="paint19_linear" x1="149.35" y1="236.273" x2="196.521" y2="236.273" gradientUnits="userSpaceOnUse">
<stop stop-color="#44CAA4"/>
<stop offset="1" stop-color="#44CAA4" stop-opacity="0"/>
</linearGradient>
<linearGradient id="paint20_linear" x1="134.118" y1="242.927" x2="181.265" y2="242.927" gradientUnits="userSpaceOnUse">
<stop stop-color="#44CAA4"/>
<stop offset="1" stop-color="#44CAA4" stop-opacity="0"/>
</linearGradient>
<linearGradient id="paint21_linear" x1="137.542" y1="236.273" x2="156.826" y2="236.273" gradientUnits="userSpaceOnUse">
<stop stop-color="#44CAA4"/>
<stop offset="1" stop-color="#44CAA4" stop-opacity="0"/>
</linearGradient>
<linearGradient id="paint22_linear" x1="157.387" y1="364.533" x2="411.356" y2="274.734" gradientUnits="userSpaceOnUse">
<stop stop-color="#363694"/>
<stop offset="1" stop-color="#8888FC"/>
</linearGradient>
<linearGradient id="paint23_linear" x1="180.347" y1="227.025" x2="277.77" y2="280.467" gradientUnits="userSpaceOnUse">
<stop stop-color="#3D2994"/>
<stop offset="1" stop-color="#8E5EED" stop-opacity="0"/>
</linearGradient>
<linearGradient id="paint24_linear" x1="256.125" y1="257.128" x2="256.125" y2="294.406" gradientUnits="userSpaceOnUse">
<stop stop-color="#F2994A"/>
<stop offset="1" stop-color="#F24A7C"/>
</linearGradient>
<linearGradient id="paint25_linear" x1="256.554" y1="243.011" x2="256.554" y2="260.263" gradientUnits="userSpaceOnUse">
<stop stop-color="#F2994A"/>
<stop offset="1" stop-color="#F24A7C"/>
</linearGradient>
<linearGradient id="paint26_linear" x1="265.489" y1="321.107" x2="260.129" y2="429.14" gradientUnits="userSpaceOnUse">
<stop stop-color="#F3F3F7"/>
<stop offset="1" stop-color="#DFDFF4"/>
</linearGradient>
</defs>
</svg>
