<svg width="553" height="688" viewBox="0 0 553 688" fill="none" xmlns="http://www.w3.org/2000/svg">
<path d="M8.66965 348.877C-7.59636 365.833 12.4969 397.097 41.2016 391.798C82.8234 391.798 40.1146 443.197 66.5573 463.599C93 484 81 446.504 142.5 469C204 491.496 276.102 526.391 276.102 526.391C309.909 511.201 398.662 479.298 429.22 466.422C473.233 447.876 498 497 507 463.599C517.234 425.619 474.751 408.12 524.725 404.233C555.705 401.823 548.796 339.869 528.703 297.477C508.61 255.086 520.838 256.532 543.055 232.83C575.428 198.294 521.048 187.26 483.732 167.124C446.416 146.988 472.25 120.493 464.596 72.8027C456.941 25.1124 405.273 89.7593 363.172 72.8027C321.072 55.8462 334.468 18.7537 294.281 1.79712C254.095 -15.1594 265.577 93.9985 231.131 72.8027C196.685 51.607 198.599 24.0526 171.808 29.3515C145.017 34.6505 116.532 110.955 84 72.8027C51.468 34.6505 35.5613 114.505 48 141C60.4387 167.495 70.3846 212.694 35.939 201.037C1.49334 189.379 -4.24761 250.847 2.45013 279.461C9.14788 308.075 43.6605 312.4 8.66965 348.877Z" fill="url(#paint0_linear)"/>
<path fill-rule="evenodd" clip-rule="evenodd" d="M249.894 241.382C249.894 241.382 250.382 234.33 256.844 239.246C257.669 239.881 258.141 239.251 258.473 237.785C258.539 237.575 258.605 237.365 258.679 237.129C272.827 167.797 338.836 289.44 367.225 243.499C364.286 253.56 358.21 262.421 349.882 268.793C325.958 287.851 295.535 288.722 279.476 280.179C263.418 271.637 249.086 262.744 249.894 241.382Z" fill="#281616"/>
<path fill-rule="evenodd" clip-rule="evenodd" d="M252.124 264.464C249.257 269.903 246.118 274.65 243.203 276.528C234.699 281.993 233.131 259.465 232.509 250.897C231.887 242.328 230.439 229.507 236.702 229.692C239.353 230.043 241.932 230.806 244.346 231.954C246.202 222.897 242.982 185.856 281.664 195.655C312.271 203.416 330.538 224.702 346.013 213.548C361.489 202.394 363.65 231.335 339.119 252.32C314.589 273.305 283.142 277.428 266.444 270.917C261.531 269.091 256.747 266.935 252.124 264.464Z" fill="white"/>
<path fill-rule="evenodd" clip-rule="evenodd" d="M340.757 248.266C340.757 248.266 330.322 278.3 321.822 283.752C313.323 289.204 311.751 266.689 311.129 258.121C310.507 249.552 309.058 236.731 315.308 236.912C321.559 237.092 340.757 248.266 340.757 248.266Z" fill="#281616"/>
<path fill-rule="evenodd" clip-rule="evenodd" d="M275.121 295.684L254.54 307.684L251.002 408.526L319.613 415.99L312.868 328.523L275.121 295.684Z" fill="#FFE1DA"/>
<path fill-rule="evenodd" clip-rule="evenodd" d="M307.884 414.711L319.613 415.989L312.868 328.523L299.115 316.563L297.353 317.636L307.884 414.711Z" fill="#FF8685"/>
<path fill-rule="evenodd" clip-rule="evenodd" d="M262.613 294.688L251.664 301.42C251.335 336.061 277.192 376.317 315.797 375.613L312.997 325.08L262.613 294.688Z" fill="#412F2F"/>
<path fill-rule="evenodd" clip-rule="evenodd" d="M330.682 237.152C328.616 242.799 335.167 359.344 296.783 358.227C258.398 357.111 236.602 305.82 245.949 269.708C255.296 233.597 330.682 237.152 330.682 237.152Z" fill="#FFD3CA"/>
<path fill-rule="evenodd" clip-rule="evenodd" d="M279.868 354.185C252.289 341.253 238.082 300.104 245.947 269.708C247.911 262.14 252.769 256.334 259.217 251.85C265.771 253.726 271.093 255.387 271.093 255.387C271.093 255.387 262.214 302.527 271.062 314.809C277.849 324.151 278.84 342.78 279.868 354.185Z" fill="#FFE1DA"/>
<path fill-rule="evenodd" clip-rule="evenodd" d="M330.682 223.838C329.863 226.073 330.4 245.64 328.959 268.417C307.191 279.709 283.305 280.216 269.439 274.108C260.003 269.927 251.144 265.611 245.34 258.97C245.536 258.071 245.735 257.211 245.935 256.391C255.296 220.283 330.682 223.838 330.682 223.838Z" fill="#FF8685"/>
<path opacity="0.3" fill-rule="evenodd" clip-rule="evenodd" d="M329.898 262.653C328.553 266.187 333.108 300.982 322.538 328.066C316.814 347.69 308.637 361.59 289.832 357.502C289.832 357.502 289.639 355.657 290.061 355.285C297.094 348.262 291.695 341.749 290.369 337.08C289.158 333.503 289.556 329.888 291.487 326.912C293.164 323.909 290.315 324.136 290.133 321.557C289.95 318.977 291.636 318.286 291.466 316.619C291.297 314.951 290.267 311.102 291.466 309.26C292.665 307.418 302.076 310.895 303.731 306.807C304.911 303.893 291.208 249.113 290.649 246.3L308.822 234.647C313.85 234.947 329.898 262.653 329.898 262.653Z" fill="#FF8685"/>
<path fill-rule="evenodd" clip-rule="evenodd" d="M238.366 238.212C238.366 238.212 238.812 231.292 245.539 235.369C251.605 239.022 239.122 185.792 284.605 197.228C315.203 204.972 333.466 226.27 348.959 215.108C364.451 203.945 366.578 232.904 342.047 253.889C317.517 274.874 286.07 278.997 269.376 272.473C252.682 265.95 237.76 258.933 238.366 238.212Z" fill="#412F2F"/>
<path fill-rule="evenodd" clip-rule="evenodd" d="M238.364 238.213C238.364 238.213 238.811 231.292 245.537 235.37C246.399 235.886 246.876 235.244 247.207 233.777C247.269 233.58 247.335 233.371 247.331 233.11C261.218 164.604 330.83 275.031 359.624 227.574C357.594 235.582 352.035 245.447 342.004 254.021C317.487 275.01 286.027 279.129 269.333 272.605C252.639 266.082 237.759 258.933 238.364 238.213Z" fill="#281616"/>
<path fill-rule="evenodd" clip-rule="evenodd" d="M265.088 242.676C265.088 242.676 254.653 272.71 246.153 278.162C237.654 283.614 236.069 261.095 235.46 252.53C234.851 243.966 233.389 231.141 239.639 231.321C245.889 231.502 265.088 242.676 265.088 242.676Z" fill="#281616"/>
<path fill-rule="evenodd" clip-rule="evenodd" d="M247.219 272.849C247.219 272.849 241.952 258.956 235.282 261.439C228.612 263.922 232.812 294.225 240.642 296.906C248.472 299.587 253.431 291.032 247.219 272.849Z" fill="#FFE1DA"/>
<path fill-rule="evenodd" clip-rule="evenodd" d="M170.989 405.102L249.175 382.143C249.175 382.143 300.411 401.677 315.666 384.236C324.874 388.202 364.152 399.31 381.07 407.858C406.935 464.764 386.637 604.016 381.071 639.931C378.996 653.307 214.473 655.191 199.493 642.846C192.553 637.115 208.921 565.742 194.655 524.453C178.094 476.62 170.989 405.102 170.989 405.102Z" fill="url(#paint1_linear)"/>
<path fill-rule="evenodd" clip-rule="evenodd" d="M249.942 239.537C249.988 239.667 263.56 285.083 319.726 254.515L320.405 255.795C262.669 287.224 248.585 240.133 248.54 240.003L249.942 239.537Z" fill="#412F2F"/>
<path fill-rule="evenodd" clip-rule="evenodd" d="M231.816 228.023C231.816 228.023 243.058 222.843 247.435 234.842L246.043 235.369C242.152 224.806 232.409 229.348 232.392 229.357L231.816 228.023Z" fill="#281616"/>
<path fill-rule="evenodd" clip-rule="evenodd" d="M238.659 222.655C238.659 222.655 250.647 225.146 246.89 237.495L245.498 237.057C248.802 226.194 238.356 224.029 238.33 224.021L238.659 222.655Z" fill="#281616"/>
<path fill-rule="evenodd" clip-rule="evenodd" d="M249.415 310.041C249.408 309.976 249.414 309.91 249.434 309.847C249.453 309.784 249.485 309.726 249.528 309.676C249.571 309.626 249.623 309.585 249.683 309.556C249.742 309.527 249.806 309.511 249.872 309.508C250.002 309.496 250.132 309.536 250.233 309.619C250.334 309.702 250.398 309.821 250.411 309.951C251.327 318.202 254.123 326.136 258.584 333.143C263.045 340.151 269.053 346.046 276.147 350.377C276.202 350.409 276.25 350.453 276.288 350.505C276.326 350.556 276.353 350.615 276.367 350.678C276.381 350.741 276.383 350.805 276.371 350.868C276.358 350.931 276.334 350.991 276.297 351.044C276.264 351.101 276.22 351.151 276.167 351.191C276.114 351.231 276.054 351.26 275.989 351.276C275.925 351.292 275.858 351.295 275.793 351.285C275.727 351.274 275.665 351.251 275.608 351.216C268.387 346.803 262.271 340.798 257.731 333.66C253.191 326.523 250.346 318.444 249.415 310.041Z" fill="white"/>
<path fill-rule="evenodd" clip-rule="evenodd" d="M236.682 267.356C241.644 273.875 244.163 279.352 245.167 283.314C247.515 292.498 241.848 293.582 239.927 280.843L241.224 280.617C242.547 290.675 245.766 290.074 243.905 283.335C242.131 277.815 239.346 272.672 235.69 268.168L236.682 267.356Z" fill="#FF8685"/>
<path fill-rule="evenodd" clip-rule="evenodd" d="M235.561 377.277C235.727 377.426 293.909 433.902 326.652 383.017L329.42 385.288C294.455 439.639 233.573 380.45 233.34 380.281L235.561 377.277Z" fill="#3B47BC"/>
<path fill-rule="evenodd" clip-rule="evenodd" d="M272.87 287.214C272.459 287.094 272.022 287.04 271.585 287.055C271.147 287.071 270.718 287.156 270.322 287.305C269.927 287.453 269.573 287.664 269.282 287.922C268.991 288.181 268.769 288.484 268.628 288.811C268.351 289.486 268.414 290.218 268.805 290.856C269.195 291.495 269.882 291.989 270.722 292.236C271.134 292.356 271.572 292.41 272.01 292.393C272.449 292.377 272.879 292.291 273.274 292.14C273.67 291.99 274.023 291.778 274.314 291.518C274.604 291.258 274.825 290.954 274.964 290.625C275.245 289.953 275.183 289.22 274.792 288.584C274.401 287.947 273.712 287.455 272.87 287.214Z" fill="#281616"/>
<path fill-rule="evenodd" clip-rule="evenodd" d="M314.101 287.214C313.69 287.094 313.253 287.04 312.815 287.055C312.378 287.071 311.949 287.156 311.553 287.305C311.158 287.453 310.804 287.664 310.513 287.922C310.222 288.181 310 288.484 309.859 288.811C309.582 289.486 309.645 290.218 310.035 290.856C310.425 291.495 311.112 291.989 311.953 292.236C312.364 292.356 312.803 292.41 313.241 292.393C313.68 292.377 314.109 292.291 314.505 292.14C314.901 291.99 315.254 291.778 315.544 291.518C315.834 291.258 316.055 290.954 316.194 290.625C316.475 289.953 316.414 289.22 316.023 288.584C315.632 287.947 314.942 287.455 314.101 287.214Z" fill="#281616"/>
<path fill-rule="evenodd" clip-rule="evenodd" d="M143.5 547.5C150.5 601 157.671 579.266 188.5 585C228.873 592.51 205.162 434.615 193.64 416.6C180.93 404.174 172.994 394.453 155.089 420.494C136.848 456.442 145.93 537.4 143.5 547.5Z" fill="white"/>
<path fill-rule="evenodd" clip-rule="evenodd" d="M362.177 538.031C362.278 592.798 362.953 576.177 397 575C453.909 573.032 401.511 423.833 384.719 410.516C370.14 398.989 357.789 398.746 352.264 417.864C342.201 452.661 362.156 528.792 362.177 538.031Z" fill="white"/>
<line x1="260.487" y1="287.267" x2="278.585" y2="286.071" stroke="#281616" stroke-width="2.5"/>
<line x1="323.154" y1="288.082" x2="305.917" y2="286.167" stroke="#281616" stroke-width="2.5"/>
<path d="M189.662 422.339C197.182 441.733 196.192 465.086 196.192 496.553C196.192 516.86 194.015 555.726 189.662 568.391" stroke="#3B47BC" stroke-width="4"/>
<path d="M366.001 413.04C352.346 437.382 356.976 491.41 366.001 510.408" stroke="#3B47BC" stroke-width="4"/>
<path fill-rule="evenodd" clip-rule="evenodd" d="M264.384 300.407C263.566 299.923 262.683 299.663 261.788 299.643C260.893 299.622 260.004 299.842 259.174 300.288C258.344 300.734 257.589 301.398 256.955 302.241C256.321 303.083 255.819 304.087 255.481 305.192C254.8 307.459 254.81 309.992 255.508 312.249C256.206 314.507 257.537 316.313 259.218 317.281C260.037 317.765 260.921 318.025 261.816 318.045C262.712 318.066 263.601 317.846 264.432 317.4C265.263 316.954 266.019 316.29 266.654 315.447C267.289 314.605 267.791 313.601 268.131 312.495C268.811 310.226 268.8 307.693 268.1 305.435C267.4 303.177 266.067 301.372 264.384 300.407Z" fill="#FF8685"/>
<path fill-rule="evenodd" clip-rule="evenodd" d="M322.668 300.992C322.069 300.491 321.387 300.159 320.661 300.016C319.936 299.873 319.182 299.921 318.444 300.157C317.707 300.394 317.001 300.814 316.368 301.394C315.735 301.973 315.188 302.699 314.759 303.529C313.891 305.234 313.548 307.247 313.803 309.139C314.058 311.032 314.891 312.656 316.124 313.663C316.724 314.164 317.406 314.496 318.132 314.64C318.858 314.783 319.613 314.735 320.351 314.499C321.089 314.262 321.796 313.842 322.43 313.263C323.063 312.684 323.611 311.958 324.041 311.127C324.909 309.421 325.251 307.407 324.995 305.514C324.738 303.621 323.903 301.998 322.668 300.992Z" fill="#FF8685"/>
<path fill-rule="evenodd" clip-rule="evenodd" d="M279.292 325.41C279.292 325.41 293.368 331.053 302.066 328.43L302.54 329.903C293.283 332.682 278.75 326.893 278.708 326.877L279.292 325.41Z" fill="#FF8685"/>
<path fill-rule="evenodd" clip-rule="evenodd" d="M281.774 325.414C281.774 325.414 279.841 326.298 280.37 327.847L278.855 328.185C278.068 325.581 281.116 324.075 281.121 324.062L281.774 325.414Z" fill="#FF8685"/>
<path d="M315.406 466.796C295.919 473.116 283.586 489.619 279.855 497.08C262.475 463.899 218.19 457.799 198.22 458.896C173.203 458.896 167.278 456.921 158.061 454.287C153.848 459.554 139.628 469.649 133.044 474.038L255.496 528.022L393.09 514.197C403.405 499.713 422.584 469.956 416.791 466.796C409.549 462.846 403.624 457.579 399.016 454.287C395.724 458.238 339.765 458.896 315.406 466.796Z" fill="#E1E3FF"/>
<path d="M136.276 463.037L126.461 464.163L229.821 535.922L408.891 526.705L437.2 463.504H426.008L283.147 505.638H278.538L136.276 463.037Z" fill="#6A6AA4"/>
<path d="M273.93 508.93L126.461 464.163L152.794 661.008L273.93 687.342V508.93Z" fill="url(#paint2_linear)"/>
<path d="M289.73 508.93L437.2 464.163L410.866 661.008L289.73 687.342V508.93Z" fill="url(#paint3_linear)"/>
<rect x="273.93" y="508.93" width="15.8003" height="179.07" fill="url(#paint4_linear)"/>
<path fill-rule="evenodd" clip-rule="evenodd" d="M403.456 588.564C403.511 589.213 403.69 589.852 403.984 590.443C404.278 591.034 404.68 591.567 405.167 592.009C405.655 592.452 406.219 592.797 406.826 593.023C407.434 593.25 408.073 593.355 408.708 593.331L432.294 593.544L432.52 593.54C434.034 593.5 435.44 592.847 436.429 591.725C437.418 590.602 437.909 589.102 437.795 587.553C437.68 586.005 436.969 584.536 435.817 583.469C434.666 582.402 433.168 581.825 431.655 581.864L431.437 581.881L431.377 581.922L408.003 583.479C407.36 583.485 406.731 583.622 406.152 583.882C405.574 584.142 405.058 584.52 404.635 584.993C404.211 585.466 403.889 586.026 403.687 586.639C403.484 587.252 403.406 587.907 403.456 588.564Z" fill="#FFBCB5"/>
<path fill-rule="evenodd" clip-rule="evenodd" d="M162.616 600.95C162.561 601.6 162.382 602.238 162.088 602.829C161.795 603.421 161.392 603.953 160.905 604.395C160.417 604.838 159.853 605.183 159.246 605.41C158.638 605.636 157.999 605.741 157.364 605.717L133.778 605.93L133.552 605.926C132.038 605.886 130.632 605.234 129.643 604.111C128.654 602.988 128.163 601.488 128.277 599.939C128.392 598.391 129.103 596.922 130.255 595.855C131.406 594.788 132.904 594.211 134.417 594.25L134.635 594.267L134.695 594.308L158.069 595.865C158.712 595.871 159.341 596.008 159.92 596.268C160.498 596.528 161.014 596.906 161.437 597.379C161.861 597.853 162.183 598.412 162.385 599.025C162.588 599.638 162.666 600.293 162.616 600.95Z" fill="#FFBCB5"/>
<path fill-rule="evenodd" clip-rule="evenodd" d="M404.781 581.827C404.684 581.215 404.707 580.593 404.848 579.997C404.989 579.401 405.246 578.843 405.603 578.354C405.961 577.864 406.412 577.454 406.932 577.146C407.452 576.838 408.029 576.638 408.631 576.559L430.747 572.545L430.959 572.507C432.395 572.3 433.87 572.682 435.058 573.568C436.247 574.454 437.053 575.772 437.298 577.231C437.543 578.69 437.207 580.172 436.365 581.349C435.523 582.527 434.243 583.304 432.807 583.51L432.599 583.528L432.541 583.568L410.144 585.863C409.54 585.95 408.921 585.914 408.323 585.758C407.726 585.602 407.161 585.328 406.662 584.953C406.163 584.577 405.74 584.108 405.417 583.571C405.094 583.035 404.878 582.442 404.781 581.827Z" fill="#FFBCB5"/>
<path fill-rule="evenodd" clip-rule="evenodd" d="M161.292 594.213C161.389 593.601 161.366 592.979 161.225 592.383C161.083 591.787 160.827 591.229 160.469 590.74C160.111 590.25 159.66 589.84 159.14 589.532C158.621 589.224 158.043 589.024 157.441 588.944L135.325 584.931L135.113 584.893C133.677 584.686 132.203 585.068 131.014 585.954C129.825 586.84 129.02 588.158 128.775 589.617C128.529 591.076 128.865 592.557 129.707 593.735C130.549 594.913 131.829 595.69 133.265 595.896L133.473 595.914L133.532 595.954L155.928 598.249C156.532 598.336 157.151 598.3 157.749 598.144C158.347 597.988 158.911 597.714 159.41 597.338C159.909 596.963 160.332 596.494 160.655 595.957C160.978 595.421 161.194 594.828 161.292 594.213Z" fill="#FFBCB5"/>
<path fill-rule="evenodd" clip-rule="evenodd" d="M398.861 570.663C398.764 570.051 398.787 569.429 398.928 568.833C399.069 568.237 399.326 567.679 399.683 567.189C400.041 566.7 400.492 566.29 401.012 565.982C401.532 565.674 402.109 565.474 402.712 565.394L424.827 561.381L425.039 561.342C426.475 561.136 427.95 561.518 429.138 562.404C430.327 563.29 431.133 564.608 431.378 566.067C431.623 567.526 431.287 569.007 430.445 570.185C429.603 571.362 428.323 572.14 426.887 572.346L426.679 572.364L426.621 572.404L404.224 574.699C403.62 574.786 403.001 574.75 402.403 574.594C401.806 574.437 401.241 574.164 400.742 573.788C400.244 573.413 399.82 572.944 399.498 572.407C399.175 571.871 398.958 571.278 398.861 570.663Z" fill="#FFBCB5"/>
<path fill-rule="evenodd" clip-rule="evenodd" d="M167.212 583.049C167.308 582.437 167.286 581.815 167.145 581.219C167.003 580.623 166.747 580.065 166.389 579.576C166.031 579.086 165.58 578.676 165.06 578.368C164.541 578.06 163.963 577.86 163.361 577.78L141.245 573.767L141.033 573.728C139.597 573.522 138.123 573.904 136.934 574.79C135.745 575.676 134.94 576.994 134.694 578.453C134.449 579.912 134.785 581.393 135.627 582.571C136.469 583.749 137.749 584.526 139.185 584.732L139.393 584.75L139.451 584.79L161.848 587.085C162.452 587.172 163.071 587.136 163.669 586.98C164.267 586.823 164.831 586.55 165.33 586.174C165.829 585.799 166.252 585.33 166.575 584.793C166.898 584.257 167.114 583.664 167.212 583.049Z" fill="#FFBCB5"/>
<path fill-rule="evenodd" clip-rule="evenodd" d="M401.512 599.909C401.63 601.03 402.171 602.09 403.018 602.858C403.865 603.625 404.947 604.038 406.029 604.006L425.856 604.437L426.037 604.447C426.666 604.436 427.278 604.296 427.837 604.037C428.396 603.777 428.892 603.403 429.295 602.934C429.699 602.466 430.003 601.913 430.19 601.307C430.376 600.701 430.442 600.054 430.384 599.403C430.325 598.751 430.144 598.108 429.849 597.511C429.554 596.913 429.152 596.373 428.665 595.92C428.179 595.467 427.618 595.111 427.014 594.872C426.41 594.633 425.776 594.515 425.146 594.526L424.974 594.529L405.281 595.635C404.74 595.633 404.212 595.743 403.728 595.958C403.244 596.173 402.814 596.488 402.463 596.886C402.112 597.284 401.847 597.756 401.684 598.276C401.52 598.795 401.462 599.35 401.512 599.909Z" fill="#FFBCB5"/>
<path fill-rule="evenodd" clip-rule="evenodd" d="M164.561 612.296C164.443 613.416 163.901 614.476 163.055 615.244C162.208 616.012 161.125 616.424 160.044 616.392L140.217 616.823L140.035 616.833C139.406 616.822 138.795 616.682 138.236 616.423C137.676 616.164 137.181 615.789 136.777 615.321C136.374 614.852 136.07 614.299 135.883 613.693C135.696 613.087 135.63 612.44 135.689 611.789C135.747 611.137 135.929 610.495 136.224 609.897C136.519 609.299 136.921 608.759 137.407 608.306C137.894 607.853 138.455 607.497 139.058 607.258C139.662 607.019 140.297 606.901 140.926 606.912L141.098 606.915L160.792 608.021C161.333 608.019 161.861 608.129 162.345 608.344C162.829 608.559 163.259 608.874 163.61 609.272C163.961 609.67 164.225 610.143 164.389 610.662C164.552 611.181 164.611 611.736 164.561 612.296Z" fill="#FFBCB5"/>
<path d="M151.032 235.092C154.053 234.911 153.919 231.542 153.475 229.88C154.141 232.373 155.03 234.412 157.695 235.092C155.474 235.546 155.03 236.905 155.03 240.985C154.808 237.585 153.475 235.772 151.032 235.092Z" fill="white"/>
<path d="M133.263 371.687C136.284 371.506 136.151 368.137 135.707 366.475C136.373 368.968 137.261 371.007 139.927 371.687C137.706 372.141 137.261 373.5 137.261 377.58C137.039 374.18 135.707 372.367 133.263 371.687Z" fill="white"/>
<path d="M67.7422 256.192C70.7628 256.011 70.6296 252.642 70.1854 250.98C70.8517 253.473 71.7401 255.512 74.4054 256.192C72.1843 256.646 71.7401 258.005 71.7401 262.085C71.518 258.685 70.1854 256.872 67.7422 256.192Z" fill="white"/>
<path d="M176.574 349.477C179.595 349.295 179.462 345.926 179.017 344.264C179.684 346.757 180.572 348.797 183.237 349.477C181.016 349.93 180.572 351.29 180.572 355.369C180.35 351.97 179.017 350.157 176.574 349.477Z" fill="white"/>
<path d="M417.559 388.345C420.58 388.164 420.446 384.795 420.002 383.133C420.669 385.626 421.557 387.665 424.222 388.345C422.001 388.799 421.557 390.158 421.557 394.238C421.335 390.838 420.002 389.025 417.559 388.345Z" fill="white"/>
<path d="M499.738 256.192C502.759 256.011 502.626 252.642 502.181 250.98C502.848 253.473 503.736 255.512 506.401 256.192C504.18 256.646 503.736 258.005 503.736 262.085C503.514 258.685 502.181 256.872 499.738 256.192Z" fill="white"/>
<path d="M485.301 235.092C488.322 234.911 488.189 231.542 487.744 229.88C488.411 232.373 489.299 234.412 491.964 235.092C489.743 235.546 489.299 236.905 489.299 240.985C489.077 237.585 487.744 235.772 485.301 235.092Z" fill="white"/>
<path d="M273.19 141.808C276.211 141.626 276.078 138.257 275.633 136.595C276.3 139.088 277.188 141.128 279.853 141.808C277.632 142.261 277.188 143.621 277.188 147.7C276.966 144.301 275.633 142.488 273.19 141.808Z" fill="white"/>
<path d="M373.138 125.15C376.158 124.969 376.025 121.599 375.581 119.937C376.247 122.43 377.136 124.47 379.801 125.15C377.58 125.603 377.136 126.963 377.136 131.042C376.914 127.643 375.581 125.83 373.138 125.15Z" fill="white"/>
<path d="M129.932 114.045C132.953 113.863 132.819 110.494 132.375 108.832C133.041 111.325 133.93 113.365 136.595 114.045C134.374 114.498 133.93 115.858 133.93 119.937C133.708 116.538 132.375 114.724 129.932 114.045Z" fill="white"/>
<path d="M183.237 262.855C186.258 262.674 186.125 259.305 185.68 257.643C186.347 260.136 187.235 262.176 189.9 262.855C187.679 263.309 187.235 264.669 187.235 268.748C187.013 265.349 185.68 263.535 183.237 262.855Z" fill="white"/>
<path d="M183.237 169.82C189.279 169.476 189.012 163.074 188.124 159.916C189.456 164.653 191.233 168.528 196.564 169.82C192.122 170.682 191.233 173.265 191.233 181.016C190.789 174.557 188.124 171.112 183.237 169.82Z" fill="white"/>
<path d="M363.143 349.726C369.184 349.382 368.918 342.98 368.029 339.822C369.362 344.559 371.139 348.434 376.469 349.726C372.027 350.587 371.139 353.171 371.139 360.922C370.695 354.463 368.029 351.018 363.143 349.726Z" fill="white"/>
<path d="M420.891 140.947C426.932 140.602 426.665 134.2 425.777 131.042C427.11 135.779 428.886 139.655 434.217 140.947C429.775 141.808 428.886 144.391 428.886 152.143C428.442 145.683 425.777 142.238 420.891 140.947Z" fill="white"/>
<path d="M292.069 148.72C298.11 148.376 297.844 141.974 296.956 138.816C298.288 143.553 300.065 147.428 305.396 148.72C300.953 149.581 300.065 152.165 300.065 159.916C299.621 153.457 296.956 150.012 292.069 148.72Z" fill="white"/>
<path d="M99.9478 315.617C109.01 315.146 108.61 306.385 107.277 302.064C109.276 308.546 111.941 313.849 119.937 315.617C113.274 316.795 111.941 320.331 111.941 330.938C111.275 322.099 107.277 317.385 99.9478 315.617Z" fill="white"/>
<path d="M382.022 278.969C391.084 278.498 390.684 269.738 389.352 265.417C391.351 271.898 394.016 277.202 402.012 278.969C395.348 280.148 394.016 283.684 394.016 294.29C393.349 285.451 389.352 280.737 382.022 278.969Z" fill="white"/>
<path d="M475.307 341.159C484.368 340.688 483.969 331.927 482.636 327.606C484.635 334.088 487.3 339.391 495.296 341.159C488.633 342.338 487.3 345.873 487.3 356.48C486.634 347.641 482.636 342.927 475.307 341.159Z" fill="white"/>
<defs>
<linearGradient id="paint0_linear" x1="276.522" y1="74.4055" x2="276" y2="634" gradientUnits="userSpaceOnUse">
<stop offset="0.0677083" stop-color="#F3F7FD"/>
<stop offset="0.807292" stop-color="#9999F9"/>
</linearGradient>
<linearGradient id="paint1_linear" x1="290.6" y1="377.417" x2="290.6" y2="651.117" gradientUnits="userSpaceOnUse">
<stop offset="0.752711" stop-color="white"/>
<stop offset="0.991323" stop-color="#8FB575"/>
</linearGradient>
<linearGradient id="paint2_linear" x1="200.195" y1="464.163" x2="200.195" y2="687.342" gradientUnits="userSpaceOnUse">
<stop stop-color="#333373"/>
<stop offset="1" stop-color="#171743"/>
</linearGradient>
<linearGradient id="paint3_linear" x1="363.465" y1="464.163" x2="363.465" y2="687.342" gradientUnits="userSpaceOnUse">
<stop stop-color="#333373"/>
<stop offset="1" stop-color="#171743"/>
</linearGradient>
<linearGradient id="paint4_linear" x1="281.83" y1="508.93" x2="281.83" y2="688" gradientUnits="userSpaceOnUse">
<stop stop-color="#7575B6"/>
<stop offset="0.9999" stop-color="#46467D"/>
<stop offset="1" stop-color="#42427D" stop-opacity="0"/>
</linearGradient>
</defs>
</svg>
