<svg width="235" height="107" viewBox="0 0 235 107" fill="none" xmlns="http://www.w3.org/2000/svg">
<g clip-path="url(#clip0)">
<path d="M6.02892 4.48096H3.81055V10.0434H4.51516V7.80298H6.02892C7.07422 7.80298 7.70915 7.15016 7.70915 6.14197C7.70915 5.13377 7.07422 4.48096 6.02892 4.48096ZM5.9902 7.16561H4.51516V5.12218H5.9902C6.62126 5.12218 6.98905 5.53937 6.98905 6.14197C6.98905 6.74843 6.62126 7.16561 5.9902 7.16561ZM8.60606 10.0434H9.26421V4.48096H8.60606V10.0434ZM11.9512 5.91792C11.2815 5.91792 10.7627 6.19218 10.4104 6.69049L10.8827 7.07291C11.1343 6.70594 11.4866 6.50507 11.9357 6.50507C12.5281 6.50507 12.8881 6.83727 12.8881 7.56348V7.60211H12.2455C10.9988 7.60211 10.2362 7.95749 10.2362 8.88843C10.2362 9.66872 10.8207 10.14 11.6299 10.14C12.319 10.14 12.7255 9.83096 12.892 9.54125V10.0434H13.5463V7.51713C13.5463 6.42009 12.8688 5.91792 11.9512 5.91792ZM12.8881 8.52919C12.8881 8.94637 12.4739 9.57601 11.7112 9.57601C11.2118 9.57601 10.8982 9.32879 10.8982 8.88457C10.8982 8.26652 11.5292 8.14677 12.4119 8.14677H12.8881V8.52919ZM16.4248 10.1438C17.0403 10.1438 17.6172 9.93139 18.0276 9.16269L17.4507 8.86911C17.203 9.32879 16.8739 9.53738 16.4364 9.53738C15.6698 9.53738 15.1627 8.95796 15.1627 8.03475C15.1627 7.11926 15.6621 6.53597 16.4364 6.53597C16.8584 6.53597 17.1913 6.71753 17.4507 7.15403L18.0121 6.83727C17.6288 6.16128 17.0287 5.92951 16.4093 5.92951C15.2517 5.92951 14.4813 6.75229 14.4813 8.03475C14.4813 9.31334 15.2478 10.1438 16.4248 10.1438ZM19.3287 8.24334H22.4027V8.06951C22.4027 6.76388 21.64 5.91406 20.525 5.91406C19.4216 5.91406 18.6396 6.75229 18.6396 8.04247C18.6396 9.30948 19.4178 10.1438 20.6334 10.1438C21.3303 10.1438 21.9033 9.83482 22.2556 9.29402L21.7329 8.95796C21.4116 9.43309 21.0322 9.54897 20.6179 9.54897C19.8088 9.54897 19.3868 9.02749 19.3287 8.24334ZM20.5211 6.50507C21.129 6.50507 21.5819 6.94543 21.6942 7.68709H19.3481C19.4565 6.92998 19.9172 6.50507 20.5211 6.50507ZM27.5919 5.91406C26.8253 5.91406 26.5001 6.38532 26.3375 6.63255C26.1439 6.16514 25.7103 5.91406 25.1567 5.91406C24.4869 5.91406 24.1423 6.30421 24.0068 6.52439V6.01449H23.3564V10.0434H24.0146V7.65233C24.0146 7.08449 24.4172 6.50507 25.0405 6.50507C25.5051 6.50507 25.7916 6.82182 25.7916 7.4167V10.0434H26.4498V7.65233C26.4498 7.08449 26.8563 6.50507 27.4796 6.50507C27.9442 6.50507 28.2306 6.82182 28.2306 7.4167V10.0434H28.8888V7.24673C28.8888 6.38919 28.3584 5.91406 27.5919 5.91406ZM30.5111 8.24334H33.5851V8.06951C33.5851 6.76388 32.8224 5.91406 31.7074 5.91406C30.604 5.91406 29.822 6.75229 29.822 8.04247C29.822 9.30948 30.6002 10.1438 31.8158 10.1438C32.5127 10.1438 33.0857 9.83482 33.438 9.29402L32.9153 8.95796C32.594 9.43309 32.2146 9.54897 31.8003 9.54897C30.9912 9.54897 30.5692 9.02749 30.5111 8.24334ZM31.7035 6.50507C32.3114 6.50507 32.7643 6.94543 32.8766 7.68709H30.5305C30.6389 6.92998 31.0996 6.50507 31.7035 6.50507ZM36.5133 5.91406C35.7119 5.91406 35.3093 6.32738 35.1892 6.53211V6.01449H34.5388V10.0434H35.197V7.65233C35.197 7.09222 35.6461 6.50507 36.3546 6.50507C36.8772 6.50507 37.2063 6.83341 37.2063 7.43601V10.0434H37.8644V7.28922C37.8644 6.42395 37.307 5.91406 36.5133 5.91406ZM40.8066 9.46399C40.6208 9.52966 40.5046 9.55283 40.3536 9.55283C39.9975 9.55283 39.8852 9.41763 39.8852 8.98114V6.59392H40.8956V6.01449H39.8852V4.92904H39.227V6.01449H38.6348V6.59392H39.227V9.12792C39.227 9.88504 39.6335 10.14 40.2839 10.14C40.493 10.14 40.7253 10.0936 40.9576 10.0125L40.8066 9.46399ZM43.2441 10.1477C44.2004 10.1477 44.8314 9.68803 44.8314 8.91933C44.8314 7.99998 44.061 7.83002 43.3525 7.70641C42.795 7.60984 42.3343 7.48236 42.3343 7.05746C42.3343 6.69435 42.7098 6.5128 43.1938 6.5128C43.6429 6.5128 43.9835 6.68276 44.2313 7.03042L44.7424 6.66731C44.3901 6.16901 43.8751 5.9102 43.1938 5.9102C42.3033 5.9102 41.6645 6.32352 41.6645 7.08063C41.6645 7.93818 42.3885 8.19312 43.1163 8.31287C43.6893 8.40944 44.1578 8.49828 44.1578 8.93478C44.1578 9.30561 43.8055 9.54125 43.2518 9.54125C42.6866 9.54125 42.2607 9.32493 41.9936 8.90002L41.4748 9.25926C41.7923 9.77688 42.3575 10.1477 43.2441 10.1477Z" fill="#343C5A"/>
<path d="M18.9707 84.9821H228.806V24.3359H18.9707V84.9821Z" fill="url(#paint0_linear)"/>
<path d="M230.741 23.9492H16.6469C16.4331 23.9492 16.2598 24.1222 16.2598 24.3355C16.2598 24.5488 16.4331 24.7218 16.6469 24.7218H230.741C230.955 24.7218 231.128 24.5488 231.128 24.3355C231.128 24.1222 230.955 23.9492 230.741 23.9492Z" fill="#F1C75C"/>
<g filter="url(#filter0_f)">
<path d="M231.129 25.1084H15.8735C15.6597 25.1084 15.4863 25.2813 15.4863 25.4947C15.4863 25.708 15.6597 25.881 15.8735 25.881H231.129C231.343 25.881 231.516 25.708 231.516 25.4947C231.516 25.2813 231.343 25.1084 231.129 25.1084Z" fill="#F1C75C" fill-opacity="0.65"/>
</g>
<path d="M18.9707 51.3753L46.1339 45.1948L92.6914 42.1045L130.779 52.9204L169.981 45.1948L178.146 52.9204L214.888 30.9023H228.806V91.5486H18.9707V51.3753Z" fill="url(#paint1_linear)"/>
<path d="M16.4531 51.7615L46.0933 45.1948L92.6113 42.1045L130.667 52.9204L169.498 45.1948L177.994 52.9204L214.705 30.9023H230.934" stroke="#EC7F5C" stroke-width="2" stroke-linecap="round"/>
<g filter="url(#filter1_f)">
<path d="M18.3887 53.3069L46.0931 47.5126L92.6111 44.4224L130.667 55.2383L169.498 47.5126L177.994 55.2383L214.705 33.2202H228.611" stroke="#EC7F5C" stroke-opacity="0.5" stroke-width="2" stroke-linecap="round"/>
</g>
<path d="M18.9707 67.5993L46.2357 61.4188L92.9462 58.3285L131.16 69.1444L169.373 61.4188L228.806 51.7617V96.1841H18.9707V67.5993Z" fill="url(#paint2_linear)"/>
<path d="M16.8418 68.3718L46.5954 61.4188L93.8862 58.3285L132.574 69.1444L180.593 59.6805L228.613 51.7617H230.742" stroke="#6D6DF6" stroke-width="2" stroke-linecap="round"/>
<g opacity="0.4" filter="url(#filter2_f)">
<path opacity="0.4" d="M16.8418 71.4621L46.5954 64.5091L93.8862 61.4188L132.574 72.2347L180.593 62.7708L228.613 54.8521H230.742" stroke="#6D6DF6" stroke-linecap="round"/>
</g>
<path opacity="0.2" d="M231.322 59.8735H15.6799C15.573 59.8735 15.4863 59.96 15.4863 60.0667C15.4863 60.1733 15.573 60.2598 15.6799 60.2598H231.322C231.429 60.2598 231.516 60.1733 231.516 60.0667C231.516 59.96 231.429 59.8735 231.322 59.8735Z" fill="#656A84"/>
<path opacity="0.2" d="M231.322 95.7979H15.6799C15.573 95.7979 15.4863 95.8843 15.4863 95.991C15.4863 96.0977 15.573 96.1841 15.6799 96.1841H231.322C231.429 96.1841 231.516 96.0977 231.516 95.991C231.516 95.8843 231.429 95.7979 231.322 95.7979Z" fill="#656A84"/>
<path opacity="0.2" d="M125.049 24.1426V99.2743" stroke="#343C5A" stroke-dasharray="2 4"/>
<path d="M125.049 68.7583C126.118 68.7583 126.985 67.8936 126.985 66.8269C126.985 65.7602 126.118 64.8955 125.049 64.8955C123.98 64.8955 123.113 65.7602 123.113 66.8269C123.113 67.8936 123.98 68.7583 125.049 68.7583Z" fill="#6D6DF6"/>
<path d="M125.049 53.3067C126.118 53.3067 126.985 52.4419 126.985 51.3753C126.985 50.3086 126.118 49.4438 125.049 49.4438C123.98 49.4438 123.113 50.3086 123.113 51.3753C123.113 52.4419 123.98 53.3067 125.049 53.3067Z" fill="#EC7F5C"/>
<path d="M125.049 25.8809C126.118 25.8809 126.985 25.0162 126.985 23.9495C126.985 22.8828 126.118 22.0181 125.049 22.0181C123.98 22.0181 123.113 22.8828 123.113 23.9495C123.113 25.0162 123.98 25.8809 125.049 25.8809Z" fill="#F1C75C"/>
<path d="M125.05 24.7219C125.477 24.7219 125.824 24.376 125.824 23.9493C125.824 23.5226 125.477 23.1768 125.05 23.1768C124.622 23.1768 124.275 23.5226 124.275 23.9493C124.275 24.376 124.622 24.7219 125.05 24.7219Z" fill="white"/>
<path d="M125.05 52.1482C125.477 52.1482 125.824 51.8023 125.824 51.3756C125.824 50.9489 125.477 50.603 125.05 50.603C124.622 50.603 124.275 50.9489 124.275 51.3756C124.275 51.8023 124.622 52.1482 125.05 52.1482Z" fill="white"/>
<path d="M125.05 67.5993C125.477 67.5993 125.824 67.2534 125.824 66.8268C125.824 66.4001 125.477 66.0542 125.05 66.0542C124.622 66.0542 124.275 66.4001 124.275 66.8268C124.275 67.2534 124.622 67.5993 125.05 67.5993Z" fill="white"/>
<path d="M130.082 5.02151C131.151 5.02151 132.018 4.15679 132.018 3.0901C132.018 2.02341 131.151 1.15869 130.082 1.15869C129.013 1.15869 128.146 2.02341 128.146 3.0901C128.146 4.15679 129.013 5.02151 130.082 5.02151Z" fill="#EC7F5C"/>
<path d="M136.928 1.68408H135.492V5.02155H136.059V3.75146H136.928C137.594 3.75146 137.987 3.34818 137.987 2.72009C137.987 2.08736 137.594 1.68408 136.928 1.68408ZM136.877 3.25084H136.059V2.18934H136.877C137.218 2.18934 137.411 2.40488 137.411 2.72009C137.411 3.0353 137.218 3.25084 136.877 3.25084ZM139.619 2.53004C139.224 2.53004 139.001 2.78267 138.92 2.96576V2.58798H138.395V5.02155H138.929V3.83026C138.929 3.35977 139.201 3.02834 139.572 3.02834C139.649 3.02834 139.74 3.03993 139.795 3.05152L139.902 2.56712C139.786 2.53699 139.682 2.53004 139.619 2.53004ZM141.235 5.08413C141.934 5.08413 142.443 4.58815 142.443 3.80477C142.443 3.01907 141.934 2.5254 141.235 2.5254C140.533 2.5254 140.027 3.01907 140.027 3.80477C140.027 4.58815 140.533 5.08413 141.235 5.08413ZM141.235 4.60901C140.835 4.60901 140.577 4.29844 140.577 3.80477C140.577 3.30878 140.835 2.99821 141.235 2.99821C141.632 2.99821 141.892 3.30878 141.892 3.80477C141.892 4.29844 141.632 4.60901 141.235 4.60901ZM144.625 1.68408V2.89855C144.495 2.7085 144.241 2.5254 143.86 2.5254C143.266 2.5254 142.808 3.04457 142.808 3.80477C142.808 4.56729 143.266 5.08413 143.86 5.08413C144.251 5.08413 144.511 4.89176 144.634 4.70403V5.02155H145.159V1.68408H144.625ZM143.995 4.61132C143.642 4.61132 143.356 4.33088 143.356 3.80477C143.356 3.28097 143.642 2.99821 143.995 2.99821C144.365 2.99821 144.641 3.3111 144.641 3.80477C144.641 4.29844 144.369 4.61132 143.995 4.61132ZM147.378 2.58798V4.00872C147.378 4.31466 147.155 4.62291 146.788 4.62291C146.523 4.62291 146.347 4.45372 146.347 4.11997V2.58798H145.812V4.24049C145.812 4.78979 146.17 5.08182 146.621 5.08182C147.064 5.08182 147.301 4.86859 147.385 4.72257V5.02155H147.912V2.58798H147.378ZM149.635 5.08413C150.023 5.08413 150.39 4.95898 150.655 4.45372L150.197 4.23586C150.06 4.50239 149.883 4.61364 149.644 4.61364C149.242 4.61364 148.977 4.30539 148.977 3.80709C148.977 3.32269 149.231 3.00517 149.644 3.00517C149.876 3.00517 150.055 3.10251 150.197 3.35282L150.648 3.12105C150.399 2.66446 149.999 2.53236 149.628 2.53236C148.908 2.53236 148.429 3.0353 148.429 3.8094C148.429 4.57888 148.91 5.08413 149.635 5.08413ZM152.363 4.57424C152.254 4.60901 152.182 4.62059 152.101 4.62059C151.892 4.62059 151.82 4.54875 151.82 4.28917V3.04225H152.421V2.58798H151.82V1.91817H151.286V2.58798H150.916V3.04225H151.286V4.41896C151.286 4.90799 151.571 5.08413 152.001 5.08413C152.145 5.08413 152.324 5.054 152.477 5.0007L152.363 4.57424ZM155.371 2.5254C154.985 2.5254 154.73 2.70155 154.586 2.90319V2.58798H154.061V5.83275H154.595V4.7133C154.748 4.91958 155.004 5.08182 155.366 5.08182C155.956 5.08182 156.407 4.56497 156.407 3.80245C156.407 3.02834 155.961 2.5254 155.371 2.5254ZM155.222 4.60901C154.853 4.60901 154.576 4.29844 154.576 3.80245C154.576 3.3111 154.85 2.99821 155.222 2.99821C155.575 2.99821 155.856 3.27633 155.856 3.80245C155.856 4.32857 155.575 4.60901 155.222 4.60901ZM157.825 2.53004C157.414 2.53004 157.075 2.69459 156.864 2.97504L157.207 3.28792C157.349 3.10483 157.549 2.98662 157.797 2.98662C158.109 2.98662 158.306 3.15118 158.306 3.52201V3.54982H157.934C157.187 3.54982 156.759 3.77927 156.759 4.32161C156.759 4.79906 157.119 5.08182 157.591 5.08182C157.969 5.08182 158.204 4.92189 158.315 4.73648V5.02155H158.843V3.5081C158.843 2.84524 158.439 2.53004 157.825 2.53004ZM158.308 4.10839C158.308 4.34711 158.083 4.66463 157.702 4.66463C157.442 4.66463 157.282 4.54411 157.282 4.31002C157.282 4.01568 157.584 3.93919 158.018 3.93919H158.308V4.10839ZM161.15 2.58798V2.8916C161.032 2.71082 160.799 2.5254 160.428 2.5254C159.787 2.5254 159.341 3.01212 159.341 3.75146C159.341 4.48849 159.787 4.9752 160.43 4.9752C160.795 4.9752 161.013 4.79906 161.141 4.61364V4.79442C161.141 5.13976 160.916 5.43642 160.456 5.43642C160.168 5.43642 159.917 5.3414 159.715 5.13049L159.403 5.49436C159.661 5.75626 160 5.89532 160.451 5.89532C161.215 5.89532 161.675 5.46192 161.675 4.78747V2.58798H161.15ZM160.525 4.50703C160.151 4.50703 159.889 4.21732 159.889 3.75146C159.889 3.28329 160.151 2.99358 160.525 2.99358C160.874 2.99358 161.157 3.24389 161.157 3.75146C161.157 4.25904 160.874 4.50703 160.525 4.50703ZM162.749 3.97164H164.529V3.83026C164.529 3.05152 164.069 2.5254 163.365 2.5254C162.687 2.5254 162.194 3.0353 162.194 3.82099C162.194 4.58351 162.71 5.08413 163.414 5.08413C163.864 5.08413 164.197 4.92421 164.438 4.58815L164.053 4.31698C163.874 4.56497 163.672 4.6345 163.435 4.6345C163.005 4.6345 162.791 4.36797 162.749 3.97164ZM163.363 2.97504C163.667 2.97504 163.897 3.18363 163.967 3.55446H162.763C162.835 3.17204 163.07 2.97504 163.363 2.97504ZM165.924 5.09109C166.516 5.09109 166.936 4.81992 166.936 4.31234C166.936 3.76537 166.484 3.63094 166.035 3.56141C165.682 3.50579 165.454 3.44553 165.454 3.24157C165.454 3.06079 165.65 2.97504 165.905 2.97504C166.17 2.97504 166.377 3.05847 166.544 3.24852L166.895 2.93795C166.658 2.66215 166.339 2.52077 165.907 2.52077C165.322 2.52077 164.925 2.79194 164.925 3.26011C164.925 3.76768 165.331 3.94615 165.821 4.02263C166.179 4.07826 166.407 4.12924 166.407 4.34015C166.407 4.52557 166.226 4.6345 165.933 4.6345C165.589 4.6345 165.329 4.51862 165.155 4.29612L164.788 4.60437C165.011 4.88945 165.378 5.09109 165.924 5.09109Z" fill="#656A84"/>
<path d="M71.2365 5.02151C72.3056 5.02151 73.1723 4.15679 73.1723 3.0901C73.1723 2.02341 72.3056 1.15869 71.2365 1.15869C70.1674 1.15869 69.3008 2.02341 69.3008 3.0901C69.3008 4.15679 70.1674 5.02151 71.2365 5.02151Z" fill="#F1C75C"/>
<path d="M79.0532 1.68416H76.3633V2.19405H77.4248V5.02163H77.9916V2.19405H79.0532V1.68416ZM80.1546 5.08421C80.8538 5.08421 81.3625 4.58822 81.3625 3.80485C81.3625 3.01915 80.8538 2.52548 80.1546 2.52548C79.4531 2.52548 78.9467 3.01915 78.9467 3.80485C78.9467 4.58822 79.4531 5.08421 80.1546 5.08421ZM80.1546 4.60908C79.7551 4.60908 79.4973 4.29851 79.4973 3.80485C79.4973 3.30886 79.7551 2.99829 80.1546 2.99829C80.5519 2.99829 80.812 3.30886 80.812 3.80485C80.812 4.29851 80.5519 4.60908 80.1546 4.60908ZM83.1891 2.52548C82.8035 2.52548 82.548 2.70163 82.404 2.90326V2.58806H81.879V5.83282H82.4133V4.71338C82.5666 4.91965 82.8221 5.08189 83.1845 5.08189C83.7745 5.08189 84.2251 4.56505 84.2251 3.80253C84.2251 3.02842 83.7791 2.52548 83.1891 2.52548ZM83.0405 4.60908C82.6711 4.60908 82.3947 4.29851 82.3947 3.80253C82.3947 3.31118 82.6688 2.99829 83.0405 2.99829C83.3935 2.99829 83.6746 3.27641 83.6746 3.80253C83.6746 4.32864 83.3935 4.60908 83.0405 4.60908ZM86.8965 5.08421C87.5957 5.08421 88.1044 4.58822 88.1044 3.80485C88.1044 3.01915 87.5957 2.52548 86.8965 2.52548C86.195 2.52548 85.6886 3.01915 85.6886 3.80485C85.6886 4.58822 86.195 5.08421 86.8965 5.08421ZM86.8965 4.60908C86.4969 4.60908 86.2391 4.29851 86.2391 3.80485C86.2391 3.30886 86.4969 2.99829 86.8965 2.99829C87.2937 2.99829 87.5538 3.30886 87.5538 3.80485C87.5538 4.29851 87.2937 4.60908 86.8965 4.60908ZM89.265 2.45827C89.265 2.19405 89.3371 2.0689 89.5693 2.0689C89.6321 2.0689 89.7064 2.07585 89.79 2.09903L89.8992 1.68416C89.7691 1.64244 89.6437 1.62158 89.5113 1.62158C89.0653 1.62158 88.7308 1.86957 88.7308 2.3702V2.58806H88.3754V3.04233H88.7308V5.02163H89.265V3.04233H89.8504V2.58806H89.265V2.45827ZM92.3038 5.09116C92.8961 5.09116 93.3166 4.81999 93.3166 4.31242C93.3166 3.76544 92.8636 3.63102 92.4153 3.56149C92.0622 3.50586 91.8346 3.4456 91.8346 3.24165C91.8346 3.06087 92.0297 2.97511 92.2852 2.97511C92.55 2.97511 92.7568 3.05855 92.924 3.2486L93.2748 2.93803C93.0378 2.66222 92.7196 2.52085 92.2875 2.52085C91.7022 2.52085 91.3049 2.79202 91.3049 3.26019C91.3049 3.76776 91.7114 3.94622 92.2016 4.02271C92.5593 4.07833 92.7869 4.12932 92.7869 4.34023C92.7869 4.52565 92.6058 4.63458 92.3131 4.63458C91.9693 4.63458 91.7091 4.51869 91.5349 4.2962L91.1679 4.60445C91.3909 4.88952 91.7579 5.09116 92.3038 5.09116ZM94.2244 3.97172H96.0038V3.83034C96.0038 3.0516 95.5438 2.52548 94.84 2.52548C94.1617 2.52548 93.6693 3.03537 93.6693 3.82107C93.6693 4.58359 94.1849 5.08421 94.8888 5.08421C95.3394 5.08421 95.6716 4.92429 95.9132 4.58822L95.5276 4.31705C95.3487 4.56505 95.1466 4.63458 94.9097 4.63458C94.48 4.63458 94.2662 4.36804 94.2244 3.97172ZM94.8377 2.97511C95.142 2.97511 95.3719 3.1837 95.4416 3.55454H94.2384C94.3104 3.17212 94.545 2.97511 94.8377 2.97511ZM97.4122 2.53012C97.0011 2.53012 96.6619 2.69467 96.4505 2.97511L96.7943 3.288C96.936 3.1049 97.1358 2.9867 97.3844 2.9867C97.6956 2.9867 97.8931 3.15126 97.8931 3.52209V3.5499H97.5214C96.7734 3.5499 96.346 3.77935 96.346 4.32169C96.346 4.79913 96.7061 5.08189 97.1776 5.08189C97.5562 5.08189 97.7909 4.92197 97.9024 4.73656V5.02163H98.4297V3.50818C98.4297 2.84532 98.0255 2.53012 97.4122 2.53012ZM97.8954 4.10846C97.8954 4.34718 97.6701 4.66471 97.2891 4.66471C97.0289 4.66471 96.8687 4.54419 96.8687 4.3101C96.8687 4.01576 97.1706 3.93927 97.605 3.93927H97.8954V4.10846ZM100.303 2.53012C99.9078 2.53012 99.6848 2.78274 99.6035 2.96584V2.58806H99.0785V5.02163H99.6128V3.83034C99.6128 3.35985 99.8846 3.02842 100.256 3.02842C100.333 3.02842 100.423 3.04001 100.479 3.0516L100.586 2.5672C100.47 2.53707 100.365 2.53012 100.303 2.53012ZM101.916 5.08421C102.304 5.08421 102.671 4.95905 102.936 4.4538L102.478 4.23594C102.341 4.50247 102.164 4.61372 101.925 4.61372C101.523 4.61372 101.259 4.30547 101.259 3.80716C101.259 3.32277 101.512 3.00524 101.925 3.00524C102.158 3.00524 102.336 3.10259 102.478 3.3529L102.929 3.12113C102.68 2.66454 102.281 2.53243 101.909 2.53243C101.189 2.53243 100.71 3.03537 100.71 3.80948C100.71 4.57895 101.191 5.08421 101.916 5.08421ZM104.693 2.52548C104.275 2.52548 104.036 2.72712 103.945 2.87545V1.68416H103.411V5.02163H103.945V3.60784C103.945 3.30422 104.154 2.99829 104.533 2.99829C104.807 2.99829 104.984 3.16516 104.984 3.49891V5.02163H105.518V3.36912C105.518 2.81983 105.16 2.52548 104.693 2.52548Z" fill="#656A84"/>
<path d="M189.317 5.02151C190.386 5.02151 191.252 4.15679 191.252 3.0901C191.252 2.02341 190.386 1.15869 189.317 1.15869C188.248 1.15869 187.381 2.02341 187.381 3.0901C187.381 4.15679 188.248 5.02151 189.317 5.02151Z" fill="#6D6DF6"/>
<path d="M196.608 5.02163H197.245L196.518 3.62638C196.941 3.51282 197.196 3.1837 197.196 2.68308C197.196 2.05499 196.79 1.68416 196.158 1.68416H194.725V5.02163H195.291V3.67042H195.935L196.608 5.02163ZM195.291 2.18942H196.093C196.43 2.18942 196.62 2.37947 196.62 2.68308C196.62 2.98902 196.43 3.17212 196.093 3.17212H195.291V2.18942ZM198.041 3.97172H199.82V3.83034C199.82 3.0516 199.36 2.52548 198.656 2.52548C197.978 2.52548 197.485 3.03537 197.485 3.82107C197.485 4.58359 198.001 5.08421 198.705 5.08421C199.156 5.08421 199.488 4.92429 199.729 4.58822L199.344 4.31705C199.165 4.56505 198.963 4.63458 198.726 4.63458C198.296 4.63458 198.082 4.36804 198.041 3.97172ZM198.654 2.97511C198.958 2.97511 199.188 3.1837 199.258 3.55454H198.054C198.126 3.17212 198.361 2.97511 198.654 2.97511ZM201.215 5.09116C201.807 5.09116 202.228 4.81999 202.228 4.31242C202.228 3.76544 201.775 3.63102 201.326 3.56149C200.973 3.50586 200.746 3.4456 200.746 3.24165C200.746 3.06087 200.941 2.97511 201.196 2.97511C201.461 2.97511 201.668 3.05855 201.835 3.2486L202.186 2.93803C201.949 2.66222 201.631 2.52085 201.199 2.52085C200.613 2.52085 200.216 2.79202 200.216 3.26019C200.216 3.76776 200.622 3.94622 201.113 4.02271C201.47 4.07833 201.698 4.12932 201.698 4.34023C201.698 4.52565 201.517 4.63458 201.224 4.63458C200.88 4.63458 200.62 4.51869 200.446 4.2962L200.079 4.60445C200.302 4.88952 200.669 5.09116 201.215 5.09116ZM203.956 4.57432C203.847 4.60908 203.775 4.62067 203.693 4.62067C203.484 4.62067 203.412 4.54882 203.412 4.28924V3.04233H204.014V2.58806H203.412V1.91825H202.878V2.58806H202.509V3.04233H202.878V4.41903C202.878 4.90807 203.164 5.08421 203.593 5.08421C203.737 5.08421 203.916 5.05408 204.07 5.00077L203.956 4.57432ZM206.71 5.08421C207.409 5.08421 207.918 4.58822 207.918 3.80485C207.918 3.01915 207.409 2.52548 206.71 2.52548C206.008 2.52548 205.502 3.01915 205.502 3.80485C205.502 4.58822 206.008 5.08421 206.71 5.08421ZM206.71 4.60908C206.31 4.60908 206.053 4.29851 206.053 3.80485C206.053 3.30886 206.31 2.99829 206.71 2.99829C207.107 2.99829 207.367 3.30886 207.367 3.80485C207.367 4.29851 207.107 4.60908 206.71 4.60908ZM209.079 2.45827C209.079 2.19405 209.151 2.0689 209.383 2.0689C209.446 2.0689 209.52 2.07585 209.604 2.09903L209.713 1.68416C209.583 1.64244 209.457 1.62158 209.325 1.62158C208.879 1.62158 208.544 1.86957 208.544 2.3702V2.58806H208.189V3.04233H208.544V5.02163H209.079V3.04233H209.664V2.58806H209.079V2.45827ZM212.117 5.09116C212.709 5.09116 213.13 4.81999 213.13 4.31242C213.13 3.76544 212.677 3.63102 212.228 3.56149C211.875 3.50586 211.648 3.4456 211.648 3.24165C211.648 3.06087 211.843 2.97511 212.098 2.97511C212.363 2.97511 212.57 3.05855 212.737 3.2486L213.088 2.93803C212.851 2.66222 212.533 2.52085 212.101 2.52085C211.515 2.52085 211.118 2.79202 211.118 3.26019C211.118 3.76776 211.525 3.94622 212.015 4.02271C212.372 4.07833 212.6 4.12932 212.6 4.34023C212.6 4.52565 212.419 4.63458 212.126 4.63458C211.782 4.63458 211.522 4.51869 211.348 4.2962L210.981 4.60445C211.204 4.88952 211.571 5.09116 212.117 5.09116ZM214.038 3.97172H215.817V3.83034C215.817 3.0516 215.357 2.52548 214.653 2.52548C213.975 2.52548 213.482 3.03537 213.482 3.82107C213.482 4.58359 213.998 5.08421 214.702 5.08421C215.153 5.08421 215.485 4.92429 215.726 4.58822L215.341 4.31705C215.162 4.56505 214.96 4.63458 214.723 4.63458C214.293 4.63458 214.079 4.36804 214.038 3.97172ZM214.651 2.97511C214.955 2.97511 215.185 3.1837 215.255 3.55454H214.052C214.124 3.17212 214.358 2.97511 214.651 2.97511ZM217.226 2.53012C216.815 2.53012 216.475 2.69467 216.264 2.97511L216.608 3.288C216.75 3.1049 216.949 2.9867 217.198 2.9867C217.509 2.9867 217.707 3.15126 217.707 3.52209V3.5499H217.335C216.587 3.5499 216.16 3.77935 216.16 4.32169C216.16 4.79913 216.52 5.08189 216.991 5.08189C217.37 5.08189 217.604 4.92197 217.716 4.73656V5.02163H218.243V3.50818C218.243 2.84532 217.839 2.53012 217.226 2.53012ZM217.709 4.10846C217.709 4.34718 217.484 4.66471 217.103 4.66471C216.842 4.66471 216.682 4.54419 216.682 4.3101C216.682 4.01576 216.984 3.93927 217.419 3.93927H217.709V4.10846ZM220.116 2.53012C219.721 2.53012 219.498 2.78274 219.417 2.96584V2.58806H218.892V5.02163H219.426V3.83034C219.426 3.35985 219.698 3.02842 220.069 3.02842C220.146 3.02842 220.237 3.04001 220.292 3.0516L220.399 2.5672C220.283 2.53707 220.179 2.53012 220.116 2.53012ZM221.729 5.08421C222.117 5.08421 222.484 4.95905 222.749 4.4538L222.292 4.23594C222.155 4.50247 221.978 4.61372 221.739 4.61372C221.337 4.61372 221.072 4.30547 221.072 3.80716C221.072 3.32277 221.325 3.00524 221.739 3.00524C221.971 3.00524 222.15 3.10259 222.292 3.3529L222.742 3.12113C222.494 2.66454 222.094 2.53243 221.722 2.53243C221.002 2.53243 220.524 3.03537 220.524 3.80948C220.524 4.57895 221.005 5.08421 221.729 5.08421ZM224.507 2.52548C224.089 2.52548 223.849 2.72712 223.759 2.87545V1.68416H223.225V5.02163H223.759V3.60784C223.759 3.30422 223.968 2.99829 224.347 2.99829C224.621 2.99829 224.797 3.16516 224.797 3.49891V5.02163H225.331V3.36912C225.331 2.81983 224.974 2.52548 224.507 2.52548Z" fill="#656A84"/>
<path d="M1.68603 23.0454H1.18893L0.259766 23.8705L0.578003 24.2343L1.1355 23.736V26.2669H1.68603V23.0454ZM3.73068 26.3318C4.56692 26.3318 5.00595 25.6412 5.00595 24.6562C5.00595 23.6711 4.56692 22.9805 3.73068 22.9805C2.89212 22.9805 2.45541 23.6711 2.45541 24.6562C2.45541 25.6412 2.89212 26.3318 3.73068 26.3318ZM3.73068 25.8335C3.2452 25.8335 3.01988 25.326 3.01988 24.6562C3.01988 23.9863 3.2452 23.4788 3.73068 23.4788C4.21384 23.4788 4.43917 23.9863 4.43917 24.6562C4.43917 25.326 4.21384 25.8335 3.73068 25.8335ZM6.78402 26.3318C7.62026 26.3318 8.05929 25.6412 8.05929 24.6562C8.05929 23.6711 7.62026 22.9805 6.78402 22.9805C5.94545 22.9805 5.50874 23.6711 5.50874 24.6562C5.50874 25.6412 5.94545 26.3318 6.78402 26.3318ZM6.78402 25.8335C6.29853 25.8335 6.07321 25.326 6.07321 24.6562C6.07321 23.9863 6.29853 23.4788 6.78402 23.4788C7.26718 23.4788 7.4925 23.9863 7.4925 24.6562C7.4925 25.326 7.26718 25.8335 6.78402 25.8335ZM9.42159 24.7442C9.91637 24.7442 10.2625 24.3943 10.2625 23.8705C10.2625 23.3443 9.91637 22.9967 9.42159 22.9967C8.92681 22.9967 8.5807 23.3443 8.5807 23.8705C8.5807 24.3943 8.92681 24.7442 9.42159 24.7442ZM9.331 26.2669H9.7979L11.8606 23.0454H11.3937L9.331 26.2669ZM9.42159 24.3502C9.17769 24.3502 9.01508 24.1579 9.01508 23.8705C9.01508 23.5808 9.17769 23.3884 9.42159 23.3884C9.66549 23.3884 9.8281 23.5808 9.8281 23.8705C9.8281 24.1579 9.66549 24.3502 9.42159 24.3502ZM11.7445 26.3156C12.2393 26.3156 12.5854 25.968 12.5854 25.4419C12.5854 24.9181 12.2393 24.5681 11.7445 24.5681C11.2497 24.5681 10.9059 24.9181 10.9059 25.4419C10.9059 25.968 11.2497 26.3156 11.7445 26.3156ZM11.7445 25.9239C11.5006 25.9239 11.338 25.7316 11.338 25.4419C11.338 25.1545 11.5006 24.9598 11.7445 24.9598C11.9907 24.9598 12.1533 25.1545 12.1533 25.4419C12.1533 25.7316 11.9907 25.9239 11.7445 25.9239Z" fill="#656A84"/>
<path d="M4.20559 60.0312C3.93846 60.0312 3.73405 60.1285 3.58073 60.2537L3.6783 59.4494H5.08597V58.9697H3.23462L3.01627 60.8192H3.50872C3.6179 60.6152 3.82928 60.497 4.10106 60.497C4.45414 60.497 4.69108 60.7427 4.69108 61.1182C4.69108 61.5006 4.44253 61.7625 4.06622 61.7625C3.74566 61.7625 3.49943 61.5979 3.38793 61.3013L2.91406 61.5562C3.10222 62.0012 3.54589 62.2562 4.07784 62.2562C4.78632 62.2562 5.25787 61.7996 5.25787 61.1205C5.25787 60.4669 4.83975 60.0312 4.20559 60.0312ZM7.01239 62.2562C7.84864 62.2562 8.28766 61.5655 8.28766 60.5805C8.28766 59.5955 7.84864 58.9048 7.01239 58.9048C6.17383 58.9048 5.73712 59.5955 5.73712 60.5805C5.73712 61.5655 6.17383 62.2562 7.01239 62.2562ZM7.01239 61.7579C6.52691 61.7579 6.30159 61.2503 6.30159 60.5805C6.30159 59.9107 6.52691 59.4031 7.01239 59.4031C7.49556 59.4031 7.72088 59.9107 7.72088 60.5805C7.72088 61.2503 7.49556 61.7579 7.01239 61.7579ZM9.64993 60.6685C10.1447 60.6685 10.4908 60.3186 10.4908 59.7948C10.4908 59.2687 10.1447 58.921 9.64993 58.921C9.15515 58.921 8.80904 59.2687 8.80904 59.7948C8.80904 60.3186 9.15515 60.6685 9.64993 60.6685ZM9.55934 62.1913H10.0262L12.089 58.9697H11.6221L9.55934 62.1913ZM9.64993 60.2745C9.40602 60.2745 9.24342 60.0822 9.24342 59.7948C9.24342 59.5051 9.40602 59.3127 9.64993 59.3127C9.89383 59.3127 10.0564 59.5051 10.0564 59.7948C10.0564 60.0822 9.89383 60.2745 9.64993 60.2745ZM11.9728 62.2399C12.4676 62.2399 12.8137 61.8923 12.8137 61.3662C12.8137 60.8424 12.4676 60.4924 11.9728 60.4924C11.4781 60.4924 11.1343 60.8424 11.1343 61.3662C11.1343 61.8923 11.4781 62.2399 11.9728 62.2399ZM11.9728 61.8482C11.7289 61.8482 11.5663 61.6559 11.5663 61.3662C11.5663 61.0788 11.7289 60.8841 11.9728 60.8841C12.2191 60.8841 12.3817 61.0788 12.3817 61.3662C12.3817 61.6559 12.2191 61.8482 11.9728 61.8482Z" fill="#656A84"/>
<path d="M203.288 105.471L204.124 104.676C204.44 104.374 204.807 104.001 204.807 103.45C204.807 102.914 204.407 102.56 203.796 102.56C203.271 102.56 202.816 102.859 202.705 103.484L203.095 103.57C203.169 103.13 203.441 102.937 203.782 102.937C204.175 102.937 204.384 103.158 204.384 103.45C204.384 103.86 204.08 104.152 203.792 104.428L202.695 105.498V105.841H204.844V105.471H203.288ZM206.623 102.62H206.261L205.415 103.371L205.655 103.66L206.215 103.16V105.841H206.623V102.62ZM210.945 102.504V105.239L209.3 102.504H208.787V105.841H209.207V103.12L210.836 105.841H211.365V102.504H210.945ZM213.171 105.902C213.859 105.902 214.333 105.403 214.333 104.632C214.333 103.86 213.859 103.364 213.171 103.364C212.481 103.364 212.01 103.86 212.01 104.632C212.01 105.403 212.481 105.902 213.171 105.902ZM213.171 105.533C212.718 105.533 212.421 105.183 212.421 104.632C212.421 104.08 212.718 103.73 213.171 103.73C213.622 103.73 213.922 104.08 213.922 104.632C213.922 105.183 213.622 105.533 213.171 105.533ZM216.398 103.424L215.69 105.366L214.988 103.424H214.542L215.481 105.841H215.894L216.83 103.424H216.398ZM218.786 105.471L219.622 104.676C219.938 104.374 220.305 104.001 220.305 103.45C220.305 102.914 219.905 102.56 219.294 102.56C218.769 102.56 218.314 102.859 218.203 103.484L218.593 103.57C218.667 103.13 218.939 102.937 219.28 102.937C219.673 102.937 219.882 103.158 219.882 103.45C219.882 103.86 219.578 104.152 219.29 104.428L218.193 105.498V105.841H220.342V105.471H218.786ZM222.107 105.902C222.92 105.902 223.324 105.192 223.324 104.231C223.324 103.269 222.92 102.56 222.107 102.56C221.294 102.56 220.89 103.269 220.89 104.231C220.89 105.192 221.294 105.902 222.107 105.902ZM222.107 105.522C221.559 105.522 221.313 104.954 221.313 104.231C221.313 103.507 221.559 102.94 222.107 102.94C222.655 102.94 222.901 103.507 222.901 104.231C222.901 104.954 222.655 105.522 222.107 105.522ZM225.134 102.62H224.771L223.926 103.371L224.165 103.66L224.725 103.16V105.841H225.134V102.62ZM228.11 103.236C227.947 102.835 227.631 102.56 227.067 102.56C226.365 102.56 225.984 103.046 225.984 103.66C225.984 104.289 226.391 104.736 227.046 104.736C227.39 104.736 227.673 104.59 227.836 104.346C227.822 105.146 227.487 105.526 227.055 105.526C226.744 105.526 226.491 105.359 226.351 105.084L226.024 105.287C226.235 105.679 226.609 105.902 227.062 105.902C227.743 105.902 228.247 105.387 228.247 104.145C228.247 103.839 228.219 103.512 228.11 103.236ZM227.071 104.372C226.663 104.372 226.402 104.085 226.402 103.653C226.402 103.22 226.663 102.93 227.071 102.93C227.527 102.93 227.778 103.255 227.778 103.653C227.778 104.05 227.527 104.372 227.071 104.372Z" fill="#343C5A"/>
<path d="M20.1083 102.62H19.7459L18.9004 103.371L19.1396 103.66L19.6995 103.16V105.841H20.1083V102.62ZM22.1154 105.901C22.8425 105.901 23.2839 105.533 23.2839 104.967C23.2839 104.564 23.0748 104.305 22.7101 104.172C22.9749 104.04 23.1886 103.811 23.1886 103.449C23.1886 102.923 22.7612 102.559 22.1154 102.559C21.4674 102.559 21.0399 102.923 21.0399 103.449C21.0399 103.811 21.256 104.04 21.5208 104.172C21.1561 104.305 20.947 104.564 20.947 104.967C20.947 105.533 21.3884 105.901 22.1154 105.901ZM22.1154 104.024C21.7182 104.024 21.4534 103.79 21.4534 103.47C21.4534 103.134 21.7182 102.909 22.1154 102.909C22.5127 102.909 22.7751 103.134 22.7751 103.47C22.7751 103.79 22.5127 104.024 22.1154 104.024ZM22.1154 105.549C21.6462 105.549 21.3651 105.315 21.3651 104.949C21.3651 104.576 21.6462 104.353 22.1154 104.353C22.5823 104.353 22.8634 104.576 22.8634 104.949C22.8634 105.315 22.5823 105.549 22.1154 105.549ZM26.485 105.908C27.4466 105.908 28.0436 105.215 28.0436 104.172C28.0436 103.13 27.4466 102.437 26.485 102.437C25.5233 102.437 24.9286 103.13 24.9286 104.172C24.9286 105.215 25.5233 105.908 26.485 105.908ZM26.485 105.512C25.8113 105.512 25.3607 105 25.3607 104.172C25.3607 103.345 25.8113 102.833 26.485 102.833C27.1609 102.833 27.6093 103.345 27.6093 104.172C27.6093 105 27.1609 105.512 26.485 105.512ZM29.6869 105.901C30.0562 105.901 30.4023 105.774 30.6486 105.313L30.3025 105.137C30.1538 105.412 29.9563 105.538 29.6939 105.538C29.2339 105.538 28.9296 105.19 28.9296 104.636C28.9296 104.087 29.2293 103.737 29.6939 103.737C29.9471 103.737 30.1468 103.846 30.3025 104.108L30.6393 103.918C30.4093 103.512 30.0493 103.373 29.6776 103.373C28.9831 103.373 28.5208 103.867 28.5208 104.636C28.5208 105.403 28.9807 105.901 29.6869 105.901ZM32.2631 105.494C32.1516 105.533 32.0819 105.547 31.9913 105.547C31.7776 105.547 31.7102 105.466 31.7102 105.204V103.772H32.3165V103.424H31.7102V102.773H31.3153V103.424H30.9599V103.772H31.3153V105.292C31.3153 105.746 31.5592 105.899 31.9495 105.899C32.0749 105.899 32.2143 105.871 32.3537 105.823L32.2631 105.494ZM34.4757 105.47L35.312 104.675C35.6279 104.374 35.9949 104.001 35.9949 103.449C35.9949 102.914 35.5954 102.559 34.9845 102.559C34.4595 102.559 34.0042 102.858 33.8927 103.484L34.2829 103.57C34.3573 103.13 34.6291 102.937 34.9705 102.937C35.3631 102.937 35.5722 103.157 35.5722 103.449C35.5722 103.86 35.2679 104.152 34.9798 104.427L33.8834 105.498V105.841H36.0321V105.47H34.4757ZM37.7972 105.901C38.6102 105.901 39.0144 105.192 39.0144 104.23C39.0144 103.269 38.6102 102.559 37.7972 102.559C36.9842 102.559 36.58 103.269 36.58 104.23C36.58 105.192 36.9842 105.901 37.7972 105.901ZM37.7972 105.521C37.249 105.521 37.0027 104.954 37.0027 104.23C37.0027 103.507 37.249 102.939 37.7972 102.939C38.3454 102.939 38.5916 103.507 38.5916 104.23C38.5916 104.954 38.3454 105.521 37.7972 105.521ZM40.8239 102.62H40.4615L39.616 103.371L39.8553 103.66L40.4151 103.16V105.841H40.8239V102.62ZM43.7996 103.236C43.6369 102.835 43.321 102.559 42.7566 102.559C42.0551 102.559 41.6741 103.046 41.6741 103.66C41.6741 104.288 42.0806 104.736 42.7357 104.736C43.0795 104.736 43.3628 104.59 43.5254 104.346C43.5115 105.146 43.177 105.526 42.745 105.526C42.4337 105.526 42.1805 105.359 42.0411 105.083L41.7136 105.287C41.925 105.679 42.299 105.901 42.7519 105.901C43.4325 105.901 43.9366 105.387 43.9366 104.145C43.9366 103.839 43.9087 103.512 43.7996 103.236ZM42.7612 104.372C42.3524 104.372 42.0922 104.084 42.0922 103.653C42.0922 103.22 42.3524 102.93 42.7612 102.93C43.2165 102.93 43.4674 103.255 43.4674 103.653C43.4674 104.05 43.2165 104.372 42.7612 104.372Z" fill="#343C5A"/>
<path d="M6.94519 98.1805C7.78144 98.1805 8.22047 97.4898 8.22047 96.5048C8.22047 95.5198 7.78144 94.8291 6.94519 94.8291C6.10663 94.8291 5.66992 95.5198 5.66992 96.5048C5.66992 97.4898 6.10663 98.1805 6.94519 98.1805ZM6.94519 97.6822C6.45971 97.6822 6.23439 97.1746 6.23439 96.5048C6.23439 95.835 6.45971 95.3274 6.94519 95.3274C7.42836 95.3274 7.65368 95.835 7.65368 96.5048C7.65368 97.1746 7.42836 97.6822 6.94519 97.6822ZM9.58273 96.5929C10.0775 96.5929 10.4236 96.2429 10.4236 95.7191C10.4236 95.193 10.0775 94.8453 9.58273 94.8453C9.08795 94.8453 8.74184 95.193 8.74184 95.7191C8.74184 96.2429 9.08795 96.5929 9.58273 96.5929ZM9.49214 98.1156H9.95904L12.0218 94.894H11.5549L9.49214 98.1156ZM9.58273 96.1989C9.33883 96.1989 9.17622 96.0065 9.17622 95.7191C9.17622 95.4294 9.33883 95.237 9.58273 95.237C9.82663 95.237 9.98924 95.4294 9.98924 95.7191C9.98924 96.0065 9.82663 96.1989 9.58273 96.1989ZM11.9056 98.1643C12.4004 98.1643 12.7465 97.8166 12.7465 97.2905C12.7465 96.7667 12.4004 96.4167 11.9056 96.4167C11.4109 96.4167 11.0671 96.7667 11.0671 97.2905C11.0671 97.8166 11.4109 98.1643 11.9056 98.1643ZM11.9056 97.7726C11.6617 97.7726 11.4991 97.5802 11.4991 97.2905C11.4991 97.0031 11.6617 96.8084 11.9056 96.8084C12.1519 96.8084 12.3145 97.0031 12.3145 97.2905C12.3145 97.5802 12.1519 97.7726 11.9056 97.7726Z" fill="#656A84"/>
<path opacity="0.2" d="M228.805 96.1841H228.418V99.6606H228.805V96.1841Z" fill="#656A84"/>
<path opacity="0.2" d="M19.3579 96.1841H18.9707V99.6606H19.3579V96.1841Z" fill="#656A84"/>
<path d="M77.3464 13.4116L78.4614 12.3517C78.8826 11.9499 79.372 11.4524 79.372 10.7169C79.372 10.0031 78.8393 9.53027 78.0247 9.53027C77.3247 9.53027 76.7177 9.92892 76.569 10.7633L77.0894 10.8776C77.1885 10.2905 77.5508 10.034 78.0061 10.034C78.5296 10.034 78.8083 10.3276 78.8083 10.7169C78.8083 11.2639 78.4026 11.6533 78.0185 12.021L76.5566 13.4487V13.9061H79.4215V13.4116H77.3464ZM81.7557 13.9864C82.8397 13.9864 83.3786 13.0408 83.3786 11.7583C83.3786 10.4759 82.8397 9.53027 81.7557 9.53027C80.6717 9.53027 80.1327 10.4759 80.1327 11.7583C80.1327 13.0408 80.6717 13.9864 81.7557 13.9864ZM81.7557 13.4796C81.0247 13.4796 80.6964 12.7225 80.6964 11.7583C80.6964 10.7942 81.0247 10.0371 81.7557 10.0371C82.4866 10.0371 82.8149 10.7942 82.8149 11.7583C82.8149 12.7225 82.4866 13.4796 81.7557 13.4796ZM85.2141 11.8418C85.8521 11.8418 86.295 11.3813 86.295 10.6953C86.295 10.0062 85.8521 9.54881 85.2141 9.54881C84.573 9.54881 84.1301 10.0062 84.1301 10.6953C84.1301 11.3813 84.573 11.8418 85.2141 11.8418ZM85.115 13.9061H85.6043L88.3546 9.61062H87.8653L85.115 13.9061ZM85.2141 11.4153C84.8424 11.4153 84.5946 11.1279 84.5946 10.6953C84.5946 10.2596 84.8424 9.97218 85.2141 9.97218C85.5827 9.97218 85.8304 10.2596 85.8304 10.6953C85.8304 11.1279 85.5827 11.4153 85.2141 11.4153ZM88.2277 13.9679C88.8657 13.9679 89.3086 13.5105 89.3086 12.8214C89.3086 12.1354 88.8657 11.6749 88.2277 11.6749C87.5896 11.6749 87.1467 12.1354 87.1467 12.8214C87.1467 13.5105 87.5896 13.9679 88.2277 13.9679ZM88.2277 13.5445C87.856 13.5445 87.6082 13.2571 87.6082 12.8214C87.6082 12.3888 87.856 12.0983 88.2277 12.0983C88.5993 12.0983 88.8471 12.3888 88.8471 12.8214C88.8471 13.2571 88.5993 13.5445 88.2277 13.5445Z" fill="#17175A"/>
<path d="M71.2361 13.9064L72.7847 12.3612M71.2361 13.9064V9.271V13.9064ZM71.2361 13.9064L69.6875 12.3612L71.2361 13.9064Z" stroke="#656A84" stroke-width="1.7" stroke-linecap="round" stroke-linejoin="round"/>
<path d="M138.636 12.4877H138.011V9.61063H137.404L135.359 12.5186V12.9759H137.469V13.9061H138.011V12.9759H138.636V12.4877ZM135.951 12.4877L137.469 10.2874V12.4877H135.951ZM140.287 11.8418C140.925 11.8418 141.368 11.3813 141.368 10.6953C141.368 10.0062 140.925 9.54883 140.287 9.54883C139.646 9.54883 139.203 10.0062 139.203 10.6953C139.203 11.3813 139.646 11.8418 140.287 11.8418ZM140.188 13.9061H140.677L143.427 9.61063H142.938L140.188 13.9061ZM140.287 11.4153C139.915 11.4153 139.667 11.1279 139.667 10.6953C139.667 10.2596 139.915 9.97219 140.287 9.97219C140.655 9.97219 140.903 10.2596 140.903 10.6953C140.903 11.1279 140.655 11.4153 140.287 11.4153ZM143.3 13.9679C143.938 13.9679 144.381 13.5105 144.381 12.8214C144.381 12.1354 143.938 11.6749 143.3 11.6749C142.662 11.6749 142.219 12.1354 142.219 12.8214C142.219 13.5105 142.662 13.9679 143.3 13.9679ZM143.3 13.5445C142.929 13.5445 142.681 13.2571 142.681 12.8214C142.681 12.3888 142.929 12.0983 143.3 12.0983C143.672 12.0983 143.92 12.3888 143.92 12.8214C143.92 13.2571 143.672 13.5445 143.3 13.5445Z" fill="#17175A"/>
<path d="M130.082 9.271L128.533 10.8161M130.082 9.271V13.9064V9.271ZM130.082 9.271L131.63 10.8161L130.082 9.271Z" stroke="#8FD39D" stroke-width="1.7" stroke-linecap="round" stroke-linejoin="round"/>
<path d="M196.353 13.9864C197.437 13.9864 197.976 13.0408 197.976 11.7583C197.976 10.4759 197.437 9.53027 196.353 9.53027C195.269 9.53027 194.73 10.4759 194.73 11.7583C194.73 13.0408 195.269 13.9864 196.353 13.9864ZM196.353 13.4796C195.622 13.4796 195.294 12.7225 195.294 11.7583C195.294 10.7942 195.622 10.0371 196.353 10.0371C197.084 10.0371 197.413 10.7942 197.413 11.7583C197.413 12.7225 197.084 13.4796 196.353 13.4796ZM199.812 11.8418C200.45 11.8418 200.893 11.3813 200.893 10.6953C200.893 10.0062 200.45 9.54881 199.812 9.54881C199.171 9.54881 198.728 10.0062 198.728 10.6953C198.728 11.3813 199.171 11.8418 199.812 11.8418ZM199.713 13.9061H200.202L202.952 9.61062H202.463L199.713 13.9061ZM199.812 11.4153C199.44 11.4153 199.192 11.1279 199.192 10.6953C199.192 10.2596 199.44 9.97218 199.812 9.97218C200.18 9.97218 200.428 10.2596 200.428 10.6953C200.428 11.1279 200.18 11.4153 199.812 11.4153ZM202.825 13.9679C203.463 13.9679 203.906 13.5105 203.906 12.8214C203.906 12.1354 203.463 11.6749 202.825 11.6749C202.187 11.6749 201.744 12.1354 201.744 12.8214C201.744 13.5105 202.187 13.9679 202.825 13.9679ZM202.825 13.5445C202.454 13.5445 202.206 13.2571 202.206 12.8214C202.206 12.3888 202.454 12.0983 202.825 12.0983C203.197 12.0983 203.445 12.3888 203.445 12.8214C203.445 13.2571 203.197 13.5445 202.825 13.5445Z" fill="#17175A"/>
<path d="M189.316 9.271L187.768 10.8161M189.316 9.271V13.9064V9.271ZM189.316 9.271L190.865 10.8161L189.316 9.271Z" stroke="#8FD39D" stroke-width="1.7" stroke-linecap="round" stroke-linejoin="round"/>
</g>
<defs>
<filter id="filter0_f" x="10.4863" y="20.1084" width="226.03" height="10.7726" filterUnits="userSpaceOnUse" color-interpolation-filters="sRGB">
<feFlood flood-opacity="0" result="BackgroundImageFix"/>
<feBlend mode="normal" in="SourceGraphic" in2="BackgroundImageFix" result="shape"/>
<feGaussianBlur stdDeviation="2.5" result="effect1_foregroundBlur"/>
</filter>
<filter id="filter1_f" x="12.3887" y="27.2202" width="222.223" height="34.2578" filterUnits="userSpaceOnUse" color-interpolation-filters="sRGB">
<feFlood flood-opacity="0" result="BackgroundImageFix"/>
<feBlend mode="normal" in="SourceGraphic" in2="BackgroundImageFix" result="shape"/>
<feGaussianBlur stdDeviation="2.5" result="effect1_foregroundBlur"/>
</filter>
<filter id="filter2_f" x="11.3418" y="49.3521" width="224.9" height="28.3962" filterUnits="userSpaceOnUse" color-interpolation-filters="sRGB">
<feFlood flood-opacity="0" result="BackgroundImageFix"/>
<feBlend mode="normal" in="SourceGraphic" in2="BackgroundImageFix" result="shape"/>
<feGaussianBlur stdDeviation="2.5" result="effect1_foregroundBlur"/>
</filter>
<linearGradient id="paint0_linear" x1="123.888" y1="22.4045" x2="123.888" y2="57.5562" gradientUnits="userSpaceOnUse">
<stop stop-color="#F6DB97"/>
<stop offset="1" stop-color="#F6DB97" stop-opacity="0"/>
</linearGradient>
<linearGradient id="paint1_linear" x1="123.888" y1="30.9023" x2="123.888" y2="91.5486" gradientUnits="userSpaceOnUse">
<stop stop-color="#F3AD97"/>
<stop offset="1" stop-color="#F3AD97" stop-opacity="0"/>
</linearGradient>
<linearGradient id="paint2_linear" x1="123.888" y1="56.0108" x2="123.888" y2="84.5957" gradientUnits="userSpaceOnUse">
<stop stop-color="#A1A1F9"/>
<stop offset="1" stop-color="#A1A1F9" stop-opacity="0"/>
</linearGradient>
<clipPath id="clip0">
<rect width="235" height="107" fill="white"/>
</clipPath>
</defs>
</svg>
