<svg width="530" height="376" viewBox="0 0 530 376" fill="none" xmlns="http://www.w3.org/2000/svg">
<path d="M19.0548 75.8288C18.8535 75.2555 18.2245 75.1758 17.1161 75.565C16.6956 75.7127 16.3403 75.9233 16.113 76.1319C15.5169 76.513 15.2534 76.8631 15.3742 77.2071C15.7902 78.3919 16.3962 80.24 17.2438 82.776C18.0779 85.2738 18.7489 87.1849 19.1918 88.4462C19.2857 88.7138 19.4757 89.377 19.583 89.6827C19.7575 90.1796 20.0011 90.9957 20.3252 92.0411C20.6494 93.0865 20.9312 93.8891 21.1057 94.386L23.5214 101.266C23.8126 101.851 24.8486 101.744 25.4602 101.53L25.4984 101.516C26.5304 101.154 27.7473 100.34 27.5192 99.6904L26.2174 95.9829C26.0429 95.486 25.5752 94.2764 25.4142 93.8177C26.1156 93.6144 27.1476 93.252 28.4853 92.7823L30.4346 92.0978C30.5875 92.0441 31.2889 91.8408 31.48 91.7737C32.2605 94.1186 32.8396 95.8902 33.2556 97.0751L33.2691 97.1133C33.4683 97.5586 33.8701 97.8468 34.5373 97.9131C34.872 98.0102 35.2428 97.9659 35.7397 97.7914C36.4659 97.5364 37.2376 96.922 37.0363 96.3487L36.58 95.0491C36.3519 94.3994 36.0298 93.482 35.6251 92.2073C35.2205 90.9326 34.8984 90.0153 34.6836 89.4037C34.0931 87.722 33.3168 85.6332 32.3164 83.1509C32.209 82.8451 31.9024 82.0941 31.795 81.7883C30.9918 79.6231 30.0544 77.0757 29.0344 74.1709C28.8063 73.5211 28.5647 72.8331 28.3613 72.1317C28.1104 71.6617 27.4432 71.5954 26.4112 71.9578C25.685 72.2128 24.8998 72.789 25.1146 73.4005C26.8096 78.4726 27.7645 81.3144 27.9927 81.9642L28.7577 84.1428C29.1314 85.0849 29.3864 85.8111 29.5609 86.308L29.9501 87.4164C30.044 87.684 30.1534 88.1178 30.3165 88.7046C30.4796 89.2913 30.5487 89.6105 30.589 89.7252L29.8628 89.9802L28.4104 90.4902C27.0726 90.9599 25.8227 91.3129 24.5707 91.5378L24.4231 91.1174C24.1815 90.4294 23.8192 89.3974 23.2978 88.0349C22.763 86.6341 22.4007 85.6021 22.1591 84.9141C21.9981 84.4555 21.7565 83.7675 21.3962 82.8636L20.6849 80.8379C20.497 80.3028 20.2151 79.5001 19.891 78.4547C19.5535 77.3711 19.283 76.4786 19.0548 75.8288ZM39.1311 81.1874C38.7687 80.1554 38.3238 78.766 37.7849 77.1091C37.2326 75.4139 36.8682 74.2538 36.6401 73.6041C35.9804 71.6031 35.4952 70.0991 35.1463 69.1053C35.041 68.9276 34.8592 68.7768 34.6278 68.7292C34.2416 68.6072 33.8955 68.5999 33.5515 68.7207L33.5133 68.7342C33.1693 68.8549 32.8387 69.0139 32.6115 69.2226C32.1435 69.6016 31.9089 70.1562 31.8695 70.8999C31.8487 71.2077 31.8951 71.7066 32.0716 72.3316C32.2481 72.9566 32.371 73.4286 32.4918 73.7726L32.626 74.1548C32.787 74.6135 33.0668 75.2881 33.4271 76.192C33.7069 76.8665 34.0693 77.8985 34.539 79.2363L35.21 81.1473L37.0218 86.3072C37.0352 86.3455 37.6237 87.8991 38.8006 91.0064C38.9617 91.4651 39.2033 92.1531 39.5502 93.0188C39.8971 93.8844 40.1386 94.5724 40.2863 94.9928C40.2997 95.0311 40.405 95.2088 40.4453 95.3234C40.6848 95.8833 41.3521 95.9496 42.384 95.5872C42.728 95.4664 43.0586 95.3074 43.2859 95.0988L43.601 94.7735C43.7518 94.5917 43.7994 94.3604 43.7323 94.1692C43.3411 92.9327 42.7103 91.1363 41.8916 88.8048C41.6903 88.2315 41.3951 87.3906 40.9542 86.2574C40.5134 85.1242 40.2181 84.2833 40.0168 83.71L39.48 82.1811L39.1311 81.1874ZM58.2119 92.6056C58.9763 92.3372 59.7233 91.7744 59.522 91.2011C59.3609 90.7424 59.1173 89.9263 58.7911 88.7529C58.5032 87.566 58.2596 86.7499 58.0985 86.2912C57.7093 85.1828 57.157 83.4876 56.9826 82.9908C56.8349 82.5703 56.3672 81.3607 56.2062 80.902C55.8996 80.151 54.7541 79.8233 53.8079 79.9409C53.5652 79.9832 53.2077 80.0658 52.7491 80.2268L52.0229 80.4818C49.3091 81.4347 48.054 82.2618 48.2821 82.9116C48.5485 83.5479 49.726 83.4779 50.758 83.1155C51.1785 82.9679 52.0937 82.5177 52.5142 82.3701C52.6288 82.3298 52.6939 82.3929 52.7476 82.5458L52.8013 82.6986C52.855 82.8515 52.9241 83.1707 52.9644 83.2854L54.1051 86.5342C54.2796 87.0311 54.4024 87.5032 54.4602 87.9122C54.4931 88.3729 54.0272 88.88 53.3547 89.2879C52.9993 89.4985 52.4548 89.9044 52.1491 90.0117C51.1719 89.7967 50.135 89.0445 49.1282 87.7666C48.3144 86.5496 47.7321 85.3802 47.3295 84.2335C47.2624 84.0424 47.1127 83.4939 47.0456 83.3028L46.0391 80.4362L45.2029 77.8103C44.566 75.6296 44.2182 73.9056 44.0791 72.4088C44.0742 71.2943 44.3636 70.1622 44.871 69.0395C45.2202 68.4446 45.6118 68.0925 46.0188 67.9066C46.0322 67.9448 46.1737 67.981 46.212 67.9676C47.1033 68.4274 47.8593 69.2353 48.5563 70.3645C48.675 70.5804 48.8991 70.974 49.1655 71.6103C49.4184 72.2085 49.6559 72.6403 49.8645 72.8676C50.165 73.2343 51.1133 73.2448 51.763 73.0167C52.3363 72.8154 52.7165 72.5531 52.98 72.203C53.2683 71.8012 53.2044 71.0079 52.7883 69.823L52.6541 69.4408C52.0636 67.7591 51.0929 66.3396 49.7039 65.1959C48.4965 64.203 46.8851 64.3824 44.4772 65.2279C41.6106 66.2344 40.2363 68.4343 40.3926 71.8142C40.4915 73.1962 40.6917 74.4999 40.993 75.725C41.9891 79.5398 42.7219 82.1161 43.1783 83.4157C44.6143 87.5054 46.284 90.182 48.1875 91.4457C49.559 92.2951 51.0733 92.4503 52.7168 91.8732C53.3284 91.6585 53.9761 91.3022 54.2798 91.0668L55.5443 90.0217C55.6114 90.2128 55.7074 90.6084 55.8705 91.1952C56.0336 91.7819 56.1678 92.1641 56.2349 92.3553C56.4362 92.9286 57.4475 92.874 58.1737 92.619L58.2119 92.6056ZM57.5594 62.3088C57.3581 61.7354 56.7291 61.6558 55.6206 62.045C55.2002 62.1926 54.8448 62.4033 54.6175 62.6119C54.0215 62.9929 53.758 63.343 53.8788 63.687C54.2948 64.8719 54.9008 66.7199 55.7483 69.256C56.5824 71.7538 57.2535 73.6649 57.6964 74.9262C57.7903 75.1937 57.9802 75.8569 58.0876 76.1627C58.2621 76.6596 58.5057 77.4756 58.8298 78.521C59.154 79.5664 59.4358 80.3691 59.6103 80.866L62.026 87.7458C62.3171 88.3305 63.3532 88.2243 63.9647 88.0096L64.003 87.9962C65.035 87.6338 66.2519 86.8201 66.0238 86.1703L64.722 82.4629C64.5475 81.966 64.0798 80.7563 63.9188 80.2977C64.6202 80.0943 65.6522 79.732 66.9899 79.2622L68.9392 78.5778C69.0921 78.5241 69.7935 78.3207 69.9846 78.2536C70.765 80.5986 71.3442 82.3702 71.7602 83.555L71.7736 83.5933C71.9729 84.0385 72.3747 84.3268 73.0419 84.393C73.3766 84.4902 73.7474 84.4458 74.2443 84.2714C74.9705 84.0164 75.7422 83.4019 75.5409 82.8286L75.0846 81.5291C74.8565 80.8793 74.5344 79.962 74.1297 78.6873C73.725 77.4125 73.4029 76.4952 73.1882 75.8837C72.5977 74.2019 71.8214 72.1132 70.8209 69.6308C70.7136 69.325 70.4069 68.574 70.2996 68.2683C69.4964 66.1031 68.559 63.5556 67.539 60.6508C67.3108 60.001 67.0693 59.3131 66.8659 58.6117C66.615 58.1416 65.9477 58.0754 64.9158 58.4377C64.1896 58.6927 63.4044 59.269 63.6191 59.8805C65.3142 64.9526 66.2691 67.7944 66.4973 68.4441L67.2622 70.6228C67.636 71.5649 67.891 72.2911 68.0654 72.788L68.4546 73.8964C68.5486 74.1639 68.658 74.5978 68.8211 75.1845C68.9842 75.7713 69.0533 76.0905 69.0936 76.2051L68.3674 76.4601L66.915 76.9701C65.5772 77.4398 64.3273 77.7929 63.0753 78.0178L62.9277 77.5974C62.6861 76.9094 62.3237 75.8774 61.8024 74.5148C61.2676 73.1141 60.9052 72.0821 60.6637 71.3941C60.5026 70.9354 60.261 70.2475 59.9007 69.3436L59.1894 67.3178C59.0015 66.7827 58.7197 65.9801 58.3956 64.9347C58.058 63.851 57.7876 62.9585 57.5594 62.3088ZM93.2166 77.0944C93.2662 76.9912 93.2735 76.6451 93.2003 76.0698C92.9724 73.8313 92.8983 72.3976 92.9646 71.7303C93.2321 71.6364 94.1856 71.1728 95.8633 70.3261L98.1029 69.368L99.024 70.8907C99.2997 71.3091 99.8035 72.3773 99.9491 72.6696C100.292 73.2791 100.646 73.7988 101.025 74.2668C101.503 74.5282 102.106 74.5314 102.832 74.2764C103.329 74.102 103.76 73.8645 104.19 73.4989C104.544 73.1602 104.706 72.8885 104.625 72.6592L104.612 72.621C104.413 72.1757 103.909 71.1076 103.633 70.6892C102.605 68.8607 101.199 66.6923 99.4034 64.1457C98.1456 62.3977 96.9891 60.5712 95.371 57.9194C94.6069 56.5991 94.0018 55.6094 93.6073 54.9751C93.4885 54.7592 93.1746 54.3542 92.7285 53.6951L91.7961 52.2623C91.099 51.1331 90.5497 50.4244 90.2378 50.1475C89.8092 49.7828 89.27 49.7145 88.5438 49.9695L88.5056 49.9829C87.7793 50.2379 87.426 50.5767 87.459 51.0374C87.4636 53.7406 87.6354 57.2867 88.0126 61.6623C88.3898 66.0379 88.5782 69.0201 88.6543 70.5819C88.7188 73.8222 88.8929 75.9078 89.215 76.8251L89.3358 77.1691C89.5237 77.7042 89.7478 78.0978 90.0328 78.2982C90.4346 78.5865 91.0368 78.5897 91.8012 78.3213C92.5274 78.0663 93.0202 77.6357 93.2166 77.0944ZM93.7048 68.3362C93.2462 68.4973 92.7741 68.6201 92.3268 68.6913C91.7162 64.14 91.3358 60.3666 91.1722 57.3329L92.3844 59.4403C92.9245 60.3669 93.3458 61.0777 93.6101 61.586C94.9432 64.0374 95.9984 65.9423 96.8658 67.3122C96.4186 67.3834 96.0229 67.4794 95.6025 67.627C95.2967 67.7343 94.4693 68.0678 94.1635 68.1752L93.7048 68.3362ZM107.755 51.6818C108.054 51.9205 108.465 51.9908 108.975 51.8545C109.103 51.8525 109.294 51.7854 109.562 51.6915C110.059 51.517 110.439 51.2547 110.702 50.9046C110.903 50.6195 110.922 50.1836 110.821 49.5318C110.728 49.2643 110.721 48.88 110.627 48.6125L110.386 47.9245C109.259 44.7139 106.701 43.4222 102.841 44.7777C101.924 45.0998 101.213 45.5211 100.733 45.9899C99.0566 47.695 98.7461 50.7235 99.8784 55.0487C100.07 55.8399 100.395 56.8853 100.851 58.1849L101.388 59.7137L101.763 60.7839L101.777 60.8221C102.059 61.6248 102.379 62.414 102.75 63.228L103.825 65.5555C104.457 66.6216 104.879 67.3323 105.141 67.7125C105.47 68.2838 105.941 68.8913 106.515 69.5483C106.751 69.8521 107.011 70.1041 107.258 70.318C107.673 70.6445 108.165 70.9442 108.706 71.1405C108.809 71.1901 109.31 71.2718 110.222 71.4238C110.62 71.4559 111.209 71.4209 111.912 71.3457C112.526 71.259 112.959 71.1496 113.303 71.0288L113.533 70.9483C114.335 70.6665 114.956 70.2338 115.409 69.6885C115.785 69.17 115.983 68.7569 116.054 68.3458C116.101 68.1144 116.08 67.5639 116.078 67.4358C116.059 66.283 115.815 64.6086 115.306 62.4259L115.293 62.3877C115.225 62.1965 115.057 62.0839 114.826 62.0364C114.491 61.9392 114.03 61.9722 113.381 62.2003L113.342 62.2137C112.998 62.3345 112.706 62.4801 112.479 62.6887C112.049 63.0543 111.862 63.3776 111.983 63.7216C112.32 64.8052 112.487 65.6481 112.522 66.2369C112.502 66.5447 112.429 66.8277 112.332 67.1624C112.071 67.6406 111.857 67.8874 111.742 67.9276C110.402 68.2693 109.708 68.1266 109.067 67.2784C108.545 66.6462 108.529 66.4799 108.054 65.6162C107.658 64.8538 107.111 63.5429 106.377 61.6969C106.151 61.1752 105.869 60.3726 105.494 59.3024L105.064 58.0793L103.494 53.6074L102.93 52.0021C102.353 50.3586 102.549 48.959 103.465 47.7785C103.692 47.5699 104.187 47.2673 104.911 46.8843L105.103 46.8172L105.141 46.8037C105.309 46.9164 105.556 47.1302 105.83 47.4205C106.013 47.6995 106.331 48.3606 106.759 49.4556C106.853 49.7232 107.119 50.3595 107.213 50.6271L107.294 50.8564C107.441 51.2768 107.587 51.5692 107.755 51.6818ZM126.608 66.4433C127.372 66.1748 128.02 65.8186 128.537 65.3363C128.702 65.1928 128.94 64.8943 129.24 64.4027C130.04 63.1344 130.33 61.2721 130.062 58.919C129.832 56.5525 129.228 53.9741 128.248 51.1839C127.671 49.5404 126.912 47.7461 125.971 45.8008C124.33 42.4703 122.681 40.3442 121.027 39.4225C120.019 38.8748 118.725 38.857 117.157 39.4073C116.317 39.7025 115.655 40.0205 115.226 40.3861C114.404 41.1038 113.888 42.4445 113.765 44.4194C113.607 46.5359 113.649 48.3673 113.891 49.9137C114.051 51.1026 114.5 52.7482 115.211 54.7739L115.762 56.341C116.055 57.0538 116.229 57.5507 116.35 57.8947C117.113 59.9452 118.301 62.1043 120.002 64.3833C121.718 66.7005 123.932 67.3827 126.608 66.4433ZM117.726 42.1271C118.376 41.8989 119.945 43.0654 120.942 44.5613C121.507 45.4364 121.995 46.3382 122.407 47.2669C123.724 50.2823 124.603 52.4207 125.046 53.682C125.462 54.8669 125.748 55.9257 125.929 56.8068L126.154 58.0588L126.381 59.4388C126.423 59.6816 126.443 60.1041 126.464 60.6546C126.576 62.0749 126.27 62.9126 125.425 63.8101C125.183 63.8524 124.9 63.78 124.538 63.6064C123.685 63.1331 122.839 62.3138 121.962 61.1619C121.111 59.9584 120.477 58.7642 119.995 57.5163C119.649 56.6506 119.165 55.2747 118.535 53.4782C117.635 50.9174 117.151 48.6831 117.083 46.7752C117.034 46.1482 117.072 45.2764 117.168 44.0834C117.264 42.8904 117.458 42.221 117.726 42.1271ZM140.913 40.082C139.705 36.6421 138.252 34.7051 136.503 34.2461C134.843 33.7985 133.229 33.8498 131.739 34.3732C129.942 35.004 128.335 37.0282 127.669 38.6787C127.337 39.568 127.528 41.0896 128.28 43.23C129.125 45.638 130.019 47.0843 131.001 47.5555C132.033 48.0515 133.238 48.0579 134.928 47.9798C135.759 47.9024 136.4 47.8922 136.836 47.9109C137.516 48.0154 138.058 48.2118 138.511 48.5248C139.236 49.0001 139.92 50.091 140.589 51.874L141.152 53.4793C141.447 54.3202 141.613 55.035 141.699 55.6486C141.645 57.0844 141.329 58.14 140.827 58.7886C140.6 58.9972 140.46 59.0891 140.345 59.1294C139.466 59.438 138.213 58.8046 137.534 57.9698C136.722 56.881 136.075 55.6485 135.592 54.2726C135.498 54.005 135.431 53.8139 135.429 53.6858C135.476 53.4544 135.6 53.1962 135.839 52.8978C135.877 52.8843 136.7 52.2947 136.939 51.9962C137.052 51.8279 137.061 51.6099 136.994 51.4188C136.793 50.8455 136.074 50.7545 134.889 51.1705C134.621 51.2644 134.469 51.3181 134.367 51.3966C132.602 52.36 132.086 54.559 132.905 56.8905C134.126 60.3687 135.719 61.4835 138.786 61.7806C139.415 61.8603 140.143 61.7334 140.984 61.4381C141.367 61.3039 141.85 61.0912 142.383 60.7752C144.859 59.3906 146.223 56.5502 145.244 53.7601C144.935 52.881 144.427 51.5566 143.682 49.8005C143.095 48.3749 142.36 47.2592 141.528 46.4781C140.733 45.6836 139.418 45.1153 137.542 44.7864C137.079 44.6913 136.374 44.6385 135.45 44.5763C134.527 44.5142 134.014 44.5223 133.924 44.5109C133.051 44.3455 132.425 43.6636 132.009 42.4788C131.566 41.2175 131.328 39.9273 131.282 38.6981C131.262 37.4172 131.672 36.6292 132.551 36.3205C133.621 35.9447 134.495 36.1101 135.186 36.855C135.579 37.3613 136.239 38.6319 136.372 38.886C137.136 40.2063 137.532 40.9687 137.626 41.2362C137.904 41.7827 138.533 41.8624 139.565 41.5L139.603 41.4866C140.368 41.2182 141.114 40.6554 140.913 40.082Z" fill="#7E87B9"/>
<path d="M381.901 74.7281C381.65 75.1915 381.549 75.5508 381.521 75.8581C381.696 76.6429 382.345 77.3158 383.486 77.9316C384.448 78.4512 385.378 78.861 386.31 79.1802C387.117 79.4774 388.011 79.8679 388.902 80.349L388.938 80.3683C389.936 80.9071 390.569 80.927 390.874 80.4472C391.518 78.9992 391.069 78.2964 389.465 77.4304C388.93 77.1418 387.677 76.6493 385.757 76.0272C386.504 74.7275 387.678 72.5531 389.352 69.4518L393.308 62.3802C394.171 60.8667 395.419 58.6402 397.036 55.6458C397.19 55.3607 397.481 54.7354 397.616 54.4859C397.85 53.9676 397.521 53.4679 396.594 52.9676C395.133 52.1786 394.23 52.0597 393.851 52.5915C393.34 53.2824 392.842 54.1187 392.342 55.0455C392.053 55.5802 391.396 56.8827 391.108 57.4174L390.877 57.8451C389.895 59.6631 388.468 62.3915 386.56 66.0111C384.652 69.6306 383.226 72.359 382.244 74.177C382.151 74.2647 382.035 74.4786 381.901 74.7281ZM394.264 80.2057C394.469 81.7889 395.706 83.9303 397.033 84.9688C397.387 85.2518 397.76 85.4991 398.152 85.7108C399.399 86.3843 400.557 86.4569 401.716 85.9313C402.286 85.6411 403.289 84.8932 404.722 83.6875C406.139 82.427 407.766 80.2667 409.602 77.2068C409.926 76.6913 410.349 75.9071 410.946 74.8021L411.35 74.0535C411.793 73.2336 412.103 72.5727 412.299 72.1257C413.185 69.8879 413.743 68.256 413.904 67.1917C414.409 63.7819 413.504 61.4515 411.222 60.22C410.545 59.8543 409.826 59.6505 409.086 59.5729C408.381 59.5146 407.651 59.6729 406.841 60.0644C405.238 60.9022 403.807 62.0174 402.549 63.4098C401.535 64.5199 400.697 65.8167 399.359 68.0404C398.707 69.1618 398.303 69.9104 398.094 70.212C397.789 70.6918 397.404 71.4047 396.885 72.3672C395.884 74.2208 395.516 74.9886 394.908 76.4558C394.338 77.8517 394.156 79.0422 394.264 80.2057ZM401.725 71.7578C403.476 68.5139 405.205 65.9944 406.946 64.2184C407.581 63.6401 407.751 63.4098 408.363 62.9578C408.975 62.5058 409.47 62.3581 409.79 62.5313C410.004 62.6468 410.16 62.8692 410.242 63.1436C410.611 64.6777 410.381 66.8093 409.552 69.5383C409.473 69.7714 409.28 70.1279 409.011 70.6269L408.433 71.6963L407.375 73.6569L406.586 75.1184C404.95 78.1484 403.324 80.3086 401.704 81.6897C400.959 82.3007 399.82 83.3887 398.715 82.7922C398.572 82.7152 398.306 82.5256 398.163 82.4486C398.118 81.5953 397.845 80.4811 398.073 79.5458C398.349 78.2675 399.13 76.4795 400.381 74.1625C400.689 73.5921 401.456 72.2568 401.706 71.7934L401.725 71.7578ZM438.879 75.8407C438.745 75.4921 438.411 75.1735 437.876 74.8849C437.626 74.7502 437.412 74.6347 437.286 74.6126C436.622 74.3924 436.167 74.4688 435.848 74.8031C435.642 75.0142 435.395 75.387 435.28 75.6009C435.051 75.9381 434.486 76.6454 433.617 77.7419C432.785 78.8577 432.103 79.7788 431.628 80.4889C430.353 82.4246 427.971 85.558 424.443 89.9605C424.369 90.0125 424.257 90.1359 424.086 90.3662C424.235 89.6639 424.37 88.8163 424.489 87.9138L424.66 87.0854L424.95 85.9526L425.214 85.0365C425.275 84.839 425.415 84.4084 425.583 83.6706C425.787 82.9519 425.949 82.3952 426.106 82.0194C426.263 81.6437 426.406 81.1226 426.591 80.4396C426.775 79.7567 426.899 79.2712 426.998 79.0024C427.444 77.4939 427.64 76.4488 427.622 75.8863C427.611 75.6503 427.386 75.2989 426.981 74.9418C426.893 74.8484 426.715 74.7522 426.43 74.5983C425.467 74.0787 424.443 74.9528 422.74 76.6575L421.111 78.3102C420.85 78.5377 420.567 78.8913 420.172 79.3682C419.812 79.8645 419.567 80.1468 419.436 80.3058L418.612 81.1499C418.2 81.572 417.881 81.9064 417.711 82.1367L416.785 83.3401L415.878 84.508C416.115 83.8991 416.357 83.1092 416.586 82.1739C416.834 81.2029 416.999 80.5556 417.098 80.2868C417.203 79.837 417.464 79.0114 417.863 77.8458L418.783 75.1196L419.356 73.0351C419.422 72.6565 419.623 72.0284 419.926 71.0411C420.228 70.0537 420.509 69.1925 420.697 68.419C420.884 67.6455 420.992 67.1051 421 66.8335C420.995 66.4164 420.664 66.0073 420.022 65.6609C419.416 65.3338 418.297 65.1899 417.989 65.7603C417.334 66.9722 416.586 68.87 415.78 71.4729L414.386 76.0148L413.574 78.7988C413.428 79.4104 413.166 80.236 412.864 81.2234C412.478 82.5344 411.721 84.7038 411.336 86.0148C411.184 86.8076 410.669 88.1871 410.446 88.9414L410.042 90.288L409.86 90.8805C409.841 90.9161 409.78 91.1136 409.761 91.1492C409.777 91.2041 409.733 91.4565 409.675 91.5634C409.689 91.7089 409.722 91.8186 409.79 91.9477C409.924 92.2963 410.223 92.5956 410.686 92.8458C411.328 93.1922 411.852 93.2449 412.294 93.0231C412.571 92.8506 412.961 92.5547 413.447 92.0805C413.689 91.8887 414.104 91.3761 414.329 91.1294C414.648 90.795 415.513 89.7891 415.909 89.3121L417.414 87.5468C417.752 87.1768 418.491 86.1487 418.829 85.7787C419.26 85.3209 419.763 84.9017 420.194 84.444C420.548 84.1288 420.642 84.0411 421.526 82.9995C421.96 82.4513 422.353 82.0648 422.595 81.873C422.501 82.5588 422.241 83.892 421.797 85.9081L421.492 86.986C421.326 87.6333 420.893 89.8854 420.137 93.7585C420.154 93.8134 420.033 94.2084 419.793 94.9078C419.534 95.6428 419.41 96.1283 419.347 96.4163C419.319 96.7235 419.563 97.0393 420.095 97.4185C420.183 97.5119 420.325 97.5889 420.539 97.7043C421.003 97.9545 421.488 98.0785 421.941 98.0927C422.264 98.1753 422.863 97.5778 423.108 97.2955C423.239 97.1365 423.751 96.4457 423.77 96.41C423.979 96.1085 424.542 95.4917 424.599 95.3848C425.622 94.0031 427.207 92.0047 429.339 89.3347C431.506 86.6839 433.111 84.6498 434.19 83.1612L435.724 81.0887L437.295 78.9448C437.466 78.7145 437.694 78.3773 438.012 78.0429L438.581 77.2451L438.697 77.0313L438.889 76.6748C439.024 76.4253 439.032 76.1537 438.879 75.8407ZM456.129 94.268C456.153 94.6494 456.378 95.0008 456.822 95.2866C456.91 95.38 457.088 95.4762 457.338 95.6109C457.801 95.8611 458.251 95.9658 458.687 95.9252C459.033 95.8816 459.368 95.6021 459.783 95.0895C459.917 94.84 460.198 94.5769 460.332 94.3274L460.679 93.6857C462.295 90.6914 461.53 87.9305 457.93 85.9869C457.074 85.5251 456.284 85.2828 455.615 85.2437C453.225 85.1506 450.776 86.9587 448.338 90.7067C447.882 91.3811 447.327 92.3243 446.673 93.5363L445.903 94.9622L445.364 95.9603L445.345 95.9959C444.941 96.7445 444.572 97.5124 444.22 98.3351L443.222 100.696C442.858 101.881 442.616 102.671 442.511 103.121C442.31 103.749 442.178 104.506 442.078 105.373C442.012 105.751 442 106.114 442.008 106.44C442.046 106.967 442.155 107.532 442.374 108.065C442.407 108.175 442.684 108.6 443.185 109.377C443.429 109.693 443.851 110.105 444.38 110.575C444.857 110.97 445.23 111.217 445.551 111.391L445.764 111.506C446.513 111.91 447.251 112.078 447.959 112.046C448.595 111.976 449.035 111.844 449.386 111.62C449.589 111.499 449.982 111.113 450.075 111.025C450.916 110.236 451.99 108.928 453.262 107.083L453.281 107.048C453.378 106.869 453.348 106.669 453.227 106.466C453.074 106.153 452.739 105.834 452.133 105.507L452.098 105.488C451.777 105.315 451.472 105.196 451.165 105.169C450.606 105.097 450.241 105.176 450.067 105.497C449.493 106.476 448.982 107.166 448.57 107.588C448.328 107.78 448.07 107.917 447.757 108.07C447.228 108.199 446.901 108.207 446.794 108.149C445.64 107.388 445.278 106.778 445.474 105.733C445.59 104.921 445.703 104.798 446.022 103.865C446.319 103.059 446.922 101.773 447.793 99.9878C448.027 99.4695 448.431 98.7209 448.97 97.7228L449.586 96.5821L451.837 92.4115L452.646 90.9143C453.473 89.3815 454.64 88.5844 456.13 88.468C456.437 88.4957 456.994 88.6582 457.765 88.9361L457.943 89.0324L457.978 89.0516C458.008 89.2519 458.016 89.5784 457.986 89.9762C457.903 90.2999 457.628 90.98 457.106 92.033C456.971 92.2825 456.679 92.9078 456.545 93.1573L456.429 93.3712C456.217 93.7633 456.099 94.0677 456.129 94.268ZM475.127 98.079C475.363 98.0683 475.643 97.8052 475.913 97.3062C476.009 97.1279 475.979 96.9276 475.858 96.7245C475.582 96.2989 475.247 95.9803 474.91 95.7522C474.219 95.2412 473.633 94.8784 473.169 94.6282L472.349 94.1856L471.351 93.6468L469.997 92.9155C469.105 92.4344 467.781 91.9035 466.058 91.342C465.537 91.1987 464.099 91.3893 463.849 91.8527C463.792 91.9596 463.802 92.1956 463.884 92.47L463.92 92.4893L463.986 92.7088C464.224 93.2057 464.898 93.6618 465.469 93.9697C466.127 94.371 466.571 94.6568 466.892 94.83C466.998 94.8877 467.229 95.0581 467.336 95.1158L466.354 96.9338C465.947 97.7729 465.601 98.4146 465.389 98.8067L465.101 99.3414L463.426 102.443L460.001 108.788L456.383 115.489C456.323 115.687 456.333 115.923 456.454 116.126C456.607 116.439 456.977 116.777 457.583 117.104C457.904 117.277 458.209 117.395 458.516 117.423C459.004 117.457 459.314 117.394 459.449 117.144L464.548 107.698L467.358 102.493L467.974 101.353L468.609 100.176C468.84 99.7487 469.439 98.5531 469.689 98.0897C470.016 97.4837 470.322 97.0039 470.569 96.631C470.747 96.7272 471.427 97.0023 471.605 97.0985C473.358 97.8604 474.526 98.1689 475.127 98.079ZM477.297 127.01C477.435 126.67 477.213 126.228 476.684 125.758C475.823 124.879 475.479 123.726 475.683 122.41C475.877 121.455 476.452 119.28 476.409 118.336C478.774 118.646 480.635 118.269 481.953 117.277C482.974 116.494 483.782 115.595 484.359 114.525L484.725 113.848L486.022 111.188C486.275 110.634 486.589 109.883 486.928 108.915C487.679 106.926 487.647 105.62 487.199 104.319C486.378 102.173 484.942 100.569 482.874 99.4531C481.912 98.9335 480.856 98.5017 479.723 98.2124C478.84 98.0578 477.945 98.8635 476.963 100.681C474.134 105.921 471.6 110.446 469.398 114.183C469.321 114.326 469.071 114.789 468.631 115.518C468.192 116.248 467.942 116.711 467.807 116.961C467.518 117.495 467.15 118.263 466.701 119.264C466.289 120.284 465.959 120.981 465.728 121.409C465.494 121.927 465.894 122.465 466.892 123.004L466.928 123.023C467.89 123.543 468.524 123.563 468.793 123.063C469.14 122.422 469.643 121.404 470.358 119.995C471.073 118.586 471.612 117.587 471.958 116.946L472.016 116.839L472.087 116.877L472.158 116.916L472.586 117.147C472.942 117.339 472.635 117.311 472.734 117.641C472.667 118.617 472.567 119.484 472.451 120.296C472.252 121.432 472.172 122.263 472.19 122.826C472.175 124.475 473.076 125.79 474.823 126.733C476.142 127.445 476.973 127.525 477.297 127.01ZM477.873 106.927C478.162 106.392 478.585 105.608 479.107 104.555C479.649 103.466 480.072 102.682 480.361 102.147C480.438 102.005 480.705 101.596 480.801 101.418L480.872 101.457L481.656 101.88C482.262 102.207 482.759 102.567 483.074 102.921C483.816 104.105 483.952 105.559 483.5 107.248C483.395 107.698 483.181 108.181 482.873 108.751C482.738 109.001 482.433 109.481 482.337 109.659C481.471 111.263 480.671 112.488 479.94 113.245C479.026 114.086 477.755 114.735 476.125 115.282C475.466 115.479 474.665 115.599 473.776 115.625C473.504 115.617 473.2 115.499 472.879 115.325C475.688 110.719 477.353 107.889 477.873 106.927Z" fill="#7E87B9"/>
<path d="M38.4221 284.925C38.4437 284.559 38.0922 284.211 37.4408 283.936C36.3444 283.378 35.6495 282.396 35.4222 281.083C35.3 280.117 35.1501 277.872 34.8077 276.991C37.1473 276.529 38.7898 275.577 39.7215 274.216C40.4388 273.147 40.9166 272.037 41.1217 270.839L41.2516 270.08L41.6309 267.145C41.6935 266.539 41.7504 265.727 41.7616 264.701C41.8376 262.577 41.3901 261.35 40.5492 260.261C39.0852 258.489 37.2119 257.429 34.896 257.032C33.818 256.848 32.6795 256.776 31.5136 256.864C30.6273 257 30.0366 258.05 29.6879 260.086C28.683 265.955 27.728 271.053 26.8368 275.298C26.8095 275.457 26.7206 275.976 26.5371 276.808C26.3536 277.64 26.2647 278.159 26.2169 278.438C26.1143 279.037 26.0107 279.882 25.9059 280.974C25.8411 282.073 25.7512 282.838 25.6691 283.317C25.6134 283.883 26.1644 284.265 27.2824 284.457L27.3223 284.463C28.4004 284.648 29.0073 284.464 29.103 283.905C29.226 283.187 29.3775 282.062 29.6042 280.498C29.8309 278.934 30.0223 277.816 30.1454 277.097L30.1659 276.977L30.2458 276.991L30.3256 277.005L30.8047 277.087C31.204 277.155 30.904 277.227 31.1026 277.507C31.3514 278.454 31.5341 279.307 31.6837 280.114C31.8585 281.254 32.048 282.067 32.2455 282.594C32.758 284.161 34.0325 285.119 35.9889 285.454C37.4663 285.707 38.2796 285.518 38.4221 284.925ZM32.5467 265.713C32.6492 265.114 32.7996 264.235 32.958 263.071C33.1231 261.866 33.2735 260.988 33.3761 260.389C33.4034 260.229 33.5254 259.757 33.5596 259.557L33.6394 259.571L34.5178 259.721C35.1966 259.837 35.7819 260.02 36.1937 260.255C37.2754 261.139 37.8688 262.473 37.981 264.218C38.0256 264.678 37.9766 265.204 37.8672 265.843C37.8194 266.122 37.6837 266.675 37.6496 266.874C37.3419 268.671 36.976 270.088 36.5256 271.038C35.9281 272.128 34.9312 273.149 33.5614 274.188C33.0002 274.586 32.2793 274.955 31.4455 275.265C31.1854 275.343 30.8591 275.329 30.4998 275.267C31.6885 270.005 32.3621 266.791 32.5467 265.713ZM47.6901 276.525L47.8952 275.328C48.0798 274.249 48.3396 272.732 48.6483 270.689C48.957 268.646 49.2168 267.129 49.4014 266.051C49.4356 265.851 49.5255 265.085 49.5802 264.766C49.7648 263.688 50.1001 263.17 50.5861 263.212C51.8181 263.218 53.1642 263.037 54.5879 263.363L55.9055 263.589L55.9455 263.595C57.0635 263.787 57.6703 263.603 57.766 263.044C57.9096 262.206 57.3629 260.838 56.5244 260.694C55.7658 260.564 54.6672 260.5 53.9085 260.37L52.3514 260.103C51.7524 260.001 51.2334 259.912 50.801 259.797C50.4884 259.702 49.3704 259.511 48.9118 259.309C48.7988 259.248 48.5992 259.214 48.3596 259.173C47.3215 258.995 46.7603 259.392 46.4376 260.077C46.2495 260.456 46.034 260.994 45.9451 261.513C45.9109 261.713 45.7411 262.465 45.7138 262.624C45.626 262.897 45.5781 263.177 45.5234 263.496C45.4687 263.815 45.3856 264.541 45.3377 264.82L44.8592 267.615L44.3806 270.41L43.6765 274.523C43.4088 276.327 43.1695 277.724 43.0054 278.682L42.2465 283.114C42.0346 284.352 42.0245 285.131 42.1763 285.445C42.7047 286.44 44.0269 287.118 46.1032 287.474C46.4626 287.535 47.0683 287.598 47.8874 287.615L50.8306 287.708C51.6964 287.692 53.6518 288.273 53.8296 287.235C53.8501 287.115 53.7645 286.895 53.599 286.661C53.2613 286.233 52.4969 285.897 51.2591 285.685C50.8998 285.623 49.9346 285.499 49.4954 285.424C48.7368 285.294 47.0667 284.967 46.2681 284.83L46.3433 284.391L46.4527 283.752L47.0816 280.079C48.5464 280.165 50.6957 280.574 52.1342 280.574C52.6202 280.616 53.3605 280.373 53.4357 279.934C53.5792 279.095 53.0577 278.061 52.0994 277.897C51.5404 277.801 50.775 277.711 49.8098 277.587C48.8447 277.463 48.0861 277.333 47.567 277.244L47.6901 276.525ZM73.0985 263.655C72.0204 263.471 71.3999 263.735 71.1639 264.393C70.9826 264.732 70.6063 265.489 70.5185 265.762C70.3304 266.141 69.3543 268.481 67.5505 272.775L66.5802 275.321C66.3169 276.139 65.838 277.496 65.1505 279.351L64.0241 282.569C63.735 280.177 63.5424 275.541 63.5125 268.754L63.4277 266.849L63.3965 264.871C63.393 264.172 63.4362 263.44 63.3312 263.093C63.2661 262.753 63.0938 262.559 62.7812 262.464C62.2028 262.242 61.8103 262.134 61.5308 262.086C60.3729 261.888 59.6783 262.344 59.4869 263.462C59.2407 264.899 59.3748 267.717 59.6412 270.722C59.7944 272.228 59.8767 273.187 59.8813 273.64L60.2435 282.086C60.2881 282.546 60.3316 283.252 60.4675 284.138C60.68 285.777 60.8936 287.17 61.1619 288.244C61.2202 288.624 61.3389 288.89 61.4382 289.031C61.6892 289.485 62.1741 289.773 62.9327 289.903C63.931 290.074 65.131 289.786 65.4468 289.142C66.6099 286.669 67.4787 284.476 68.0396 282.64C68.7556 280.379 69.5924 277.892 70.5101 275.172C70.6116 274.82 71.103 273.63 71.8977 271.629C71.9787 271.396 72.6651 269.787 73.9502 266.843C74.3538 265.925 74.583 265.307 74.6445 264.948C74.7607 264.269 74.2564 263.854 73.0985 263.655ZM78.3922 281.782L78.5973 280.584C78.7819 279.506 79.0417 277.989 79.3504 275.946C79.6592 273.903 79.919 272.385 80.1036 271.307C80.1377 271.108 80.2277 270.342 80.2824 270.023C80.467 268.945 80.8023 268.427 81.2882 268.469C82.5203 268.474 83.8663 268.294 85.2901 268.62L86.6077 268.845L86.6476 268.852C87.7656 269.044 88.3725 268.86 88.4682 268.301C88.6117 267.462 88.065 266.095 87.2265 265.951C86.4679 265.821 85.3693 265.756 84.6107 265.627L83.0535 265.36C82.4546 265.257 81.9355 265.169 81.5031 265.053C81.1906 264.959 80.0726 264.767 79.6139 264.566C79.501 264.505 79.3014 264.471 79.0618 264.43C78.0237 264.252 77.4625 264.649 77.1398 265.334C76.9516 265.713 76.7361 266.251 76.6473 266.77C76.6131 266.97 76.4433 267.722 76.4159 267.881C76.3281 268.154 76.2803 268.433 76.2256 268.753C76.1709 269.072 76.0878 269.798 76.0399 270.077L75.5613 272.872L75.0828 275.667L74.3786 279.78C74.1109 281.583 73.8716 282.981 73.7076 283.939L72.9487 288.371C72.7368 289.609 72.7267 290.388 72.8784 290.702C73.4068 291.696 74.7291 292.375 76.8054 292.73C77.1647 292.792 77.7705 292.855 78.5896 292.872L81.5327 292.965C82.3986 292.948 84.354 293.53 84.5317 292.492C84.5522 292.372 84.4666 292.152 84.3012 291.918C83.9634 291.49 83.199 291.154 81.9613 290.942C81.6019 290.88 80.6368 290.756 80.1976 290.681C79.439 290.551 77.7688 290.224 76.9702 290.087L77.0454 289.648L77.1548 289.009L77.7838 285.336C79.2486 285.422 81.3978 285.831 82.8363 285.831C83.3223 285.873 84.0626 285.63 84.1378 285.191C84.2814 284.352 83.7599 283.318 82.8016 283.154C82.2426 283.058 81.4771 282.968 80.512 282.844C79.5469 282.72 78.7883 282.59 78.2692 282.501L78.3922 281.782ZM103.847 268.879C102.729 268.688 102.123 268.872 102.027 269.431L99.8665 282.048C99.7982 282.447 99.6956 283.046 99.5258 283.798C99.356 284.55 99.2534 285.149 99.1851 285.548L98.6917 282.669C98.4518 281.189 98.2371 280.043 98.0077 279.223C97.7782 278.402 97.4916 276.956 97.0543 274.949C96.6169 272.943 96.2641 271.403 95.9822 270.409L95.9034 270.149C95.4707 268.596 95.3931 268.089 94.5316 267.12C94.0877 266.592 93.5629 266.296 92.964 266.194L92.9241 266.187C91.8061 265.996 91.1992 266.179 91.1035 266.738C91.0477 267.304 90.9042 268.143 90.7458 269.307C90.5875 270.472 90.4439 271.311 90.3881 271.876C90.174 273.607 89.7628 276.249 89.168 279.723L86.782 293.658C86.7262 294.224 87.2773 294.606 88.3554 294.79L88.3953 294.797C89.5133 294.989 90.1201 294.805 90.2159 294.246L92.718 279.632L93.1214 277.276L93.3196 276.118L93.5657 274.681C93.6366 275.227 93.688 275.647 93.7599 275.947C93.9232 276.674 94.2555 278.334 94.8504 280.86C95.4452 283.387 95.8426 285.387 96.0961 286.786C96.3748 288.519 96.6628 291.158 96.9864 294.789C96.9637 295.401 97.4748 295.776 98.5529 295.961C99.5112 296.125 100.898 295.705 101.028 294.946C101.206 293.908 101.336 293.15 101.465 292.637C101.818 291.054 101.995 290.262 102.001 290.222L103.376 282.197L103.888 279.202L104.921 273.173L105.461 270.019C105.516 269.453 104.965 269.071 103.887 268.886L103.847 268.879ZM120.858 281.779C121.036 280.741 121.249 279.257 121.464 277.28C121.719 275.309 121.885 274.105 121.953 273.705C121.994 273.466 122.028 273.266 122.009 273.14C122.071 272.534 121.52 272.152 120.402 271.96C120.043 271.899 119.677 271.877 119.377 271.949C118.903 272.074 118.623 272.272 118.575 272.552C118.39 273.63 118.127 275.886 117.943 276.964C117.881 277.324 117.757 278.289 117.695 278.648C117.653 279.134 117.53 279.853 117.366 280.811L117.147 282.089C117.045 282.688 116.706 283.945 116.604 284.544C115.484 290.846 113.955 294.735 112.057 296.218C111.643 296.476 111.282 296.661 111.062 296.746C110.168 295.73 109.667 294.576 109.573 293.204C109.487 291.545 109.702 289.568 110.242 286.414C110.509 284.856 110.7 283.738 110.77 283.093L110.852 282.614C110.935 281.888 111.119 280.81 111.365 279.373C111.618 277.895 111.803 276.817 111.886 276.092C111.934 275.812 112.003 275.166 112.038 274.967L112.215 273.929C112.571 271.852 112.443 270.68 110.886 270.413C109.009 270.092 108.54 270.669 108.185 272.745C108.123 273.105 107.938 274.429 107.828 275.068L106.878 280.618C106.803 281.057 106.726 281.743 106.609 282.668C106.561 282.948 106.466 283.507 106.369 284.312C106.279 285.077 106.183 285.636 106.135 285.916C106.053 286.395 105.914 287.686 105.832 288.166C105.784 288.445 105.701 289.171 105.653 289.45C105.578 289.889 105.524 290.209 105.529 290.415C105.394 292.406 105.606 294.045 106.16 295.373C106.286 295.6 106.583 296.021 107.053 296.636C107.325 296.97 107.796 297.338 108.507 297.747C109.364 298.264 110.128 298.6 110.8 298.757L111.16 298.818C112.038 298.968 112.957 298.879 113.885 298.504C114.372 298.3 114.933 297.902 115.515 297.386C116.792 296.166 117.651 294.751 118.131 293.148C118.306 292.603 118.671 291.432 118.76 290.913C119.668 287.288 120.11 285.432 120.123 285.352C120.545 283.369 120.756 282.378 120.763 282.338L120.858 281.779ZM125.922 298.551L126.079 296.194C126.137 295.136 126.248 294.25 126.331 293.525L129.48 293.612C130.253 293.662 130.619 293.684 130.659 293.69C131.438 293.701 132.711 293.466 132.854 292.874C132.943 292.109 132.133 291.559 130.456 291.272L129.498 291.108C128.819 290.992 127.115 290.864 126.756 290.803C126.907 289.678 127.011 288.833 127.113 288.234C127.216 287.635 127.495 286.244 127.598 285.645C127.741 284.807 127.893 283.682 128.052 282.271C128.212 280.86 128.363 279.735 128.507 278.896C128.65 278.058 128.841 277.186 129.071 276.321C129.237 276.309 129.963 276.392 131.254 276.531C132.592 276.637 133.651 276.695 134.477 276.672C135.35 276.616 135.99 276.479 136.444 276.228C136.717 276.069 136.864 275.93 136.892 275.77C136.94 275.491 136.708 275.163 136.19 274.828C135.087 274.31 133.317 273.843 130.962 273.44C130.642 273.385 130.163 273.303 129.491 273.147C128.859 272.997 128.42 272.922 128.14 272.874C126.064 272.519 125.355 273.301 124.951 275.657L124.876 276.096L124.644 277.454C124.575 277.853 124.473 278.452 124.383 279.218C124.293 279.983 124.23 280.589 124.169 280.948C124.114 281.268 123.999 281.7 123.951 281.98C123.78 282.978 123.571 285.161 123.4 286.159C123.318 286.639 123.086 287.75 123.004 288.229L122.998 288.269C122.922 288.708 122.771 289.833 122.689 290.312C122.586 290.911 122.3 292.341 122.191 292.98L122.095 293.539L121.897 294.697C121.815 295.176 121.663 296.301 121.581 296.78C121.506 297.22 121.242 298.284 121.166 298.723C121.057 299.362 121.541 299.897 122.578 300.321C122.997 300.516 123.542 300.692 124.181 300.801C124.54 300.863 125.851 301.128 126.45 301.231C129.325 301.723 131.216 301.718 132.077 301.249C132.444 301.024 132.645 300.812 132.693 300.532C132.7 300.492 132.68 300.366 132.628 300.192C132.431 299.665 131.793 299.31 130.675 299.118C130.116 299.022 129.31 298.926 128.298 298.835C127.287 298.744 126.521 298.654 126.002 298.565L125.922 298.551ZM151.071 284.527C150.9 285.525 150.621 286.916 150.273 288.706C150.09 289.537 149.777 291.128 149.247 293.503C148.757 295.885 148.402 297.715 148.183 298.993C147.91 300.59 147.704 302.034 147.605 303.332C147.622 303.952 148.133 304.327 149.211 304.511L149.251 304.518C150.05 304.655 151.169 304.6 151.271 304.001C151.374 303.402 151.54 301.951 151.643 301.352C152.948 293.726 154.095 287.511 155.095 282.627C155.177 282.148 155.53 280.811 155.632 280.212C155.865 278.854 155.729 277.968 155.224 277.553C154.979 277.305 154.52 277.103 153.882 276.994C152.764 276.803 152.157 276.986 152.061 277.545C151.924 278.344 151.766 279.509 151.539 281.073C151.359 282.604 151.201 283.768 151.071 284.527ZM170.322 288.522C170.937 284.928 170.608 282.529 169.302 281.278C168.068 280.081 166.633 279.342 165.076 279.075C163.199 278.754 160.811 279.742 159.427 280.862C158.705 281.478 158.133 282.9 157.75 285.136C157.319 287.652 157.398 289.35 158.027 290.239C158.689 291.174 159.738 291.765 161.253 292.517C162.018 292.854 162.583 293.156 162.955 293.384C163.499 293.806 163.876 294.241 164.121 294.735C164.524 295.502 164.591 296.788 164.31 298.671L164.023 300.348C163.872 301.227 163.669 301.932 163.447 302.51C162.702 303.739 161.913 304.508 161.159 304.831C160.859 304.903 160.692 304.915 160.573 304.895C159.654 304.738 158.867 303.575 158.679 302.516C158.498 301.17 158.531 299.778 158.777 298.34C158.825 298.061 158.859 297.861 158.919 297.748C159.073 297.569 159.307 297.404 159.661 297.259C159.701 297.266 160.707 297.15 161.06 297.005C161.241 296.913 161.355 296.727 161.389 296.527C161.491 295.928 160.907 295.5 159.67 295.288C159.39 295.24 159.23 295.212 159.104 295.232C157.093 295.216 155.573 296.888 155.156 299.323C154.534 302.957 155.386 304.705 157.922 306.455C158.433 306.83 159.131 307.073 160.01 307.223C160.409 307.292 160.935 307.341 161.554 307.323C164.391 307.316 166.963 305.496 167.462 302.581C167.62 301.663 167.819 300.259 168.021 298.361C168.2 296.83 168.1 295.498 167.752 294.411C167.443 293.331 166.569 292.195 165.09 290.996C164.731 290.688 164.14 290.299 163.363 289.796C162.586 289.293 162.135 289.052 162.062 288.998C161.378 288.429 161.162 287.529 161.374 286.291C161.6 284.974 162.018 283.73 162.576 282.634C163.18 281.504 163.922 281.015 164.84 281.172C165.958 281.363 166.641 281.932 166.883 282.919C166.981 283.552 166.941 284.984 166.933 285.27C166.96 286.795 166.936 287.654 166.888 287.934C166.865 288.546 167.376 288.922 168.454 289.106L168.494 289.113C169.293 289.25 170.219 289.121 170.322 288.522ZM174.473 288.246C174.992 288.335 175.539 288.264 176.039 287.98C177.407 287.433 178.17 286.578 178.382 285.34C178.628 283.903 178.117 282.089 177.155 281.225C176.896 281.058 176.743 280.991 176.623 280.97L176.423 280.936C176.144 280.888 175.811 280.913 175.417 281.051C174.504 281.347 173.989 281.711 173.914 282.15C173.853 282.509 174.444 282.898 174.609 283.132C174.735 283.359 174.84 283.706 174.95 284.259C174.97 284.386 175.021 284.806 175.032 285.465C175.025 285.505 175.024 285.751 175.003 285.871C174.928 286.31 174.76 286.569 174.54 286.655C173.973 286.846 173.672 287.164 173.604 287.563C173.542 287.922 173.794 288.13 174.313 288.219L174.473 288.246ZM194.246 284.357C193.128 284.166 192.521 284.35 192.425 284.909L190.265 297.526C190.197 297.925 190.094 298.524 189.924 299.276C189.754 300.028 189.652 300.627 189.583 301.026L189.09 298.147C188.85 296.667 188.636 295.521 188.406 294.701C188.177 293.88 187.89 292.434 187.453 290.428C187.015 288.421 186.663 286.881 186.381 285.888L186.302 285.627C185.869 284.074 185.791 283.567 184.93 282.598C184.486 282.07 183.961 281.774 183.362 281.672L183.322 281.665C182.204 281.474 181.598 281.657 181.502 282.216C181.446 282.782 181.303 283.621 181.144 284.785C180.986 285.95 180.842 286.789 180.787 287.355C180.572 289.085 180.161 291.727 179.566 295.201L177.18 309.136C177.125 309.702 177.676 310.084 178.754 310.268L178.794 310.275C179.912 310.467 180.519 310.283 180.614 309.724L183.116 295.11L183.52 292.754L183.718 291.596L183.964 290.159C184.035 290.705 184.086 291.125 184.158 291.425C184.322 292.152 184.654 293.812 185.249 296.338C185.844 298.865 186.241 300.865 186.495 302.264C186.773 303.997 187.061 306.636 187.385 310.267C187.362 310.879 187.873 311.254 188.951 311.439C189.91 311.603 191.297 311.183 191.427 310.424C191.604 309.386 191.734 308.628 191.863 308.115C192.216 306.532 192.393 305.74 192.4 305.7L193.774 297.675L194.287 294.68L195.319 288.651L195.859 285.497C195.915 284.931 195.364 284.549 194.286 284.364L194.246 284.357ZM56.2001 339.147C56.9987 339.284 57.925 339.154 58.0275 338.556C58.1096 338.076 58.293 337.245 58.578 336.061C58.9029 334.883 59.0864 334.052 59.1684 333.572C59.3667 332.415 59.7074 330.665 59.7963 330.145C59.8715 329.706 60.0503 328.422 60.1324 327.943C60.2292 327.137 59.3871 326.294 58.5029 325.937C58.2702 325.856 57.9177 325.755 57.4386 325.673L56.6799 325.543C53.845 325.058 52.3461 325.171 52.2299 325.85C52.1536 326.535 53.2169 327.046 54.2949 327.231C54.7341 327.306 55.7528 327.357 56.1921 327.432C56.3118 327.453 56.3381 327.54 56.3108 327.699L56.2834 327.859C56.2561 328.019 56.1614 328.331 56.1409 328.451L55.5598 331.845C55.4709 332.364 55.349 332.836 55.2008 333.222C55.0058 333.641 54.3522 333.857 53.5662 333.887C53.1532 333.899 52.4802 333.989 52.1608 333.934C51.4112 333.272 50.8702 332.111 50.6109 330.504C50.4908 329.045 50.5499 327.74 50.755 326.542C50.7892 326.343 50.9248 325.791 50.959 325.591L51.4717 322.596L52.0165 319.895C52.5191 317.68 53.0526 316.004 53.6581 314.628C54.1952 313.651 54.9981 312.802 55.987 312.067C56.5813 311.717 57.0946 311.599 57.5407 311.635C57.5338 311.675 57.6399 311.775 57.6799 311.782C58.2356 312.617 58.5039 313.69 58.5646 315.016C58.5635 315.262 58.5682 315.715 58.4919 316.401C58.4224 317.046 58.4203 317.539 58.4922 317.839C58.5767 318.306 59.4004 318.776 60.0792 318.892C60.6781 318.994 61.1378 318.95 61.5382 318.772C61.9853 318.561 62.3149 317.836 62.5268 316.598L62.5952 316.199C62.896 314.442 62.7371 312.73 62.0785 311.055C61.5056 309.601 60.0099 308.975 57.4944 308.544C54.4998 308.032 52.2299 309.287 50.7247 312.317C50.1398 313.573 49.6814 314.81 49.3497 316.027C48.3672 319.846 47.7562 322.453 47.5238 323.811C46.7923 328.083 46.9515 331.234 48.0014 333.263C48.7877 334.672 50.0358 335.543 51.7528 335.837C52.3916 335.947 53.1308 335.95 53.5107 335.892L55.1237 335.592C55.0895 335.792 54.9812 336.184 54.8387 336.777C54.6962 337.369 54.6279 337.768 54.5937 337.968C54.4911 338.567 55.4016 339.01 56.1602 339.14L56.2001 339.147ZM74.812 338.84C74.8336 338.474 74.4822 338.126 73.8308 337.85C72.7344 337.293 72.0394 336.311 71.8122 334.998C71.6899 334.031 71.54 331.786 71.1976 330.906C73.5372 330.443 75.1797 329.492 76.1115 328.13C76.8288 327.061 77.3065 325.951 77.5116 324.753L77.6415 323.995L78.0208 321.06C78.0834 320.454 78.1403 319.642 78.1515 318.616C78.2275 316.492 77.7801 315.265 76.9391 314.175C75.4752 312.404 73.6018 311.343 71.286 310.947C70.2079 310.762 69.0694 310.691 67.9036 310.779C67.0172 310.915 66.4265 311.964 66.0779 314.001C65.0729 319.87 64.118 324.967 63.2267 329.212C63.1994 329.372 63.1105 329.891 62.927 330.723C62.7435 331.554 62.6547 332.073 62.6068 332.353C62.5043 332.952 62.4006 333.797 62.2959 334.889C62.2311 335.987 62.1411 336.753 62.0591 337.232C62.0033 337.798 62.5544 338.18 63.6724 338.371L63.7123 338.378C64.7903 338.563 65.3972 338.379 65.4929 337.82C65.616 337.101 65.7675 335.976 65.9942 334.412C66.2209 332.848 66.4123 331.73 66.5353 331.012L66.5558 330.892L66.6357 330.906L66.7156 330.919L67.1947 331.001C67.594 331.07 67.294 331.142 67.4925 331.422C67.7414 332.369 67.9241 333.222 68.0737 334.029C68.2485 335.168 68.438 335.982 68.6354 336.509C69.148 338.076 70.4224 339.034 72.3789 339.369C73.8562 339.622 74.6695 339.432 74.812 338.84ZM68.9366 319.627C69.0392 319.029 69.1896 318.15 69.3479 316.985C69.5131 315.781 69.6635 314.902 69.766 314.303C69.7934 314.144 69.9153 313.671 69.9495 313.472L70.0294 313.485L70.9078 313.636C71.5866 313.752 72.1718 313.934 72.5837 314.169C73.6653 315.053 74.2588 316.388 74.3709 318.133C74.4155 318.593 74.3666 319.119 74.2572 319.758C74.2093 320.037 74.0737 320.589 74.0395 320.789C73.7319 322.586 73.366 324.003 72.9155 324.953C72.318 326.042 71.3212 327.064 69.9513 328.103C69.3902 328.5 68.6693 328.87 67.8354 329.179C67.5754 329.258 67.2491 329.243 66.8897 329.182C68.0785 323.919 68.752 320.706 68.9366 319.627ZM84.3356 341.909C85.1342 342.046 85.8734 342.049 86.5601 341.879C86.7734 341.833 87.127 341.689 87.6277 341.404C88.9429 340.684 90.1016 339.198 91.0104 337.011C91.959 334.83 92.6829 332.283 93.182 329.368C93.4759 327.651 93.6843 325.714 93.8071 323.557C93.99 319.848 93.5822 317.189 92.5837 315.58C91.9686 314.611 90.846 313.967 89.2089 313.687C88.3305 313.536 87.5981 313.493 87.0449 313.604C85.9783 313.832 84.8754 314.753 83.8091 316.42C82.6425 318.193 81.7895 319.814 81.2502 321.284C80.8124 322.401 80.4055 324.057 80.0431 326.173L79.7628 327.81C79.6729 328.576 79.584 329.095 79.5225 329.454C79.1932 331.617 79.1823 334.081 79.5628 336.9C79.9364 339.759 81.5406 341.431 84.3356 341.909ZM88.3847 316.34C89.0635 316.457 89.8681 318.238 90.0133 320.031C90.082 321.07 90.0708 322.095 89.9797 323.107C89.6655 326.382 89.3956 328.679 89.17 329.996C88.9581 331.234 88.6937 332.299 88.4235 333.156L88.0119 334.36L87.5399 335.677C87.4589 335.909 87.2708 336.288 87.0222 336.78C86.4304 338.076 85.7552 338.659 84.5814 339.033C84.3487 338.952 84.1365 338.752 83.9048 338.424C83.389 337.596 83.0477 336.469 82.841 335.036C82.6809 333.571 82.7069 332.219 82.8926 330.894C83.0099 329.969 83.256 328.532 83.5773 326.655C84.0354 323.98 84.6977 321.792 85.5644 320.091C85.8266 319.519 86.2828 318.775 86.9465 317.779C87.6102 316.783 88.1052 316.293 88.3847 316.34ZM107.913 346.069C108.085 346.263 108.344 346.431 108.776 346.546C108.889 346.607 109.089 346.641 109.368 346.689C109.927 346.784 110.387 346.74 110.748 346.555C111.302 346.198 111.336 345.998 111.565 345.38C111.626 345.267 111.76 344.961 111.781 344.841C112.003 344.263 112.118 343.83 112.199 343.598C112.504 342.54 112.72 341.755 112.943 341.177L113.932 338.757C114.768 336.516 115.739 333.724 116.839 330.419C117.366 328.783 117.933 327.154 118.539 325.531C119.166 323.789 119.483 322.898 119.504 322.778C119.795 321.801 119.964 321.049 120.053 320.53C120.115 320.17 120.156 319.931 120.15 319.724C120.206 319.159 119.695 318.783 118.577 318.592C118.217 318.53 117.851 318.509 117.551 318.581C117.078 318.705 116.804 318.864 116.716 319.136C116.602 319.322 116.487 319.755 116.453 319.954L116.183 320.812L115.5 323.12C115.291 323.619 114.792 325.095 114.663 325.607C114.454 326.106 114.142 327.45 113.933 327.948C113.556 328.952 113.016 330.668 112.272 333.089L110.732 338.004C110.651 336.798 110.392 335.192 109.914 333.178C109.541 331.758 109.335 330.079 109.032 328.013C108.923 326.967 108.813 326.167 108.736 325.661C108.677 325.281 108.57 323.989 108.459 323.435C108.249 322.742 108.57 322.55 107.811 322.42C107.611 322.386 107.325 322.378 106.999 322.363C106.712 322.355 106.446 322.474 106.172 322.633C105.945 322.758 105.751 322.931 105.597 323.11C105.497 323.216 105.376 323.442 105.201 323.741L104.804 324.618C104.394 325.575 103.875 326.925 103.194 328.74C102.521 330.515 102.049 331.832 101.699 332.676C101.604 332.988 101.274 333.713 101.18 334.025C101.078 334.378 100.755 335.309 100.573 335.648C100.587 335.568 100.561 335.481 100.541 335.355L100.512 332.884C100.527 332.557 100.482 332.098 100.465 331.478C100.448 330.859 100.463 330.533 100.436 330.446C100.311 325.657 100.41 321.482 100.811 317.934C100.826 317.608 100.668 317.334 100.369 317.159C100.336 317.113 100.256 317.099 100.263 317.059C99.9842 316.765 99.5256 316.563 98.9266 316.46L98.8867 316.454C98.5274 316.392 98.2011 316.377 97.9011 316.449C97.3878 316.567 97.1072 316.765 97.0662 317.005L97.0593 317.045C96.9705 317.564 96.9284 318.05 96.9729 318.51C96.997 319.089 97.0268 319.875 96.9757 320.894C96.9908 322.006 97.0537 322.839 97.0846 323.378C97.1155 323.918 97.1316 324.784 97.0999 325.929C97.074 327.281 97.1052 329.259 97.1604 331.817C97.2157 334.374 97.2275 336.226 97.2026 337.331C97.245 338.284 97.2431 340.215 97.1657 341.147C97.151 341.473 97.0952 342.039 97.0851 342.818C97.0646 342.938 97.1034 343.191 97.0829 343.311C97.0613 343.677 97.2998 343.965 97.7447 344.246C98.0037 344.414 98.3562 344.515 98.7156 344.577C98.9552 344.618 99.1548 344.652 99.2814 344.633C99.6476 344.654 99.9875 344.589 100.301 344.437C100.708 344.219 101.13 343.675 101.534 342.758L101.891 341.874L102.779 339.807C103.069 339.075 104.135 335.97 105.93 330.523C105.957 330.61 105.854 332.648 106.023 333.581C106.095 333.881 106.146 334.547 106.178 334.84L106.428 336.979C106.511 337.692 106.654 338.538 106.83 339.432L107.28 343.043C107.441 344.263 107.506 344.602 107.649 345.449C107.681 345.742 107.774 345.922 107.913 346.069ZM121.916 327.219C121.745 328.217 121.466 329.608 121.118 331.398C120.935 332.229 120.621 333.82 120.091 336.195C119.601 338.577 119.247 340.407 119.028 341.685C118.755 343.282 118.549 344.726 118.45 346.024C118.467 346.644 118.978 347.019 120.056 347.203L120.096 347.21C120.895 347.347 122.014 347.292 122.116 346.693C122.219 346.094 122.385 344.643 122.487 344.044C123.793 336.418 124.94 330.203 125.94 325.319C126.022 324.84 126.374 323.503 126.477 322.904C126.709 321.546 126.574 320.66 126.069 320.245C125.824 319.997 125.365 319.795 124.726 319.686C123.608 319.495 123.002 319.678 122.906 320.237C122.769 321.036 122.611 322.201 122.384 323.765C122.204 325.296 122.046 326.46 121.916 327.219ZM139.697 323.236C139.622 323.675 139.499 324.394 139.295 325.345C139.091 326.296 138.967 327.015 138.879 327.534C138.728 328.413 138.496 329.77 138.228 331.574C137.96 333.377 137.775 334.702 137.617 335.62L137.002 339.214C136.956 339 136.807 338.194 136.5 336.867C136.376 336.147 136.141 335.121 135.841 333.754C135.541 332.388 135.345 331.368 135.222 330.648C134.928 327.803 134.656 326.03 134.479 325.384C134.355 324.91 134.013 324.03 133.532 322.755C133.275 322.095 132.571 321.646 131.333 321.434C130.735 321.331 130.261 321.456 129.92 321.767C129.766 321.946 129.625 322.292 129.529 322.851L127.335 335.668L126.965 337.824L126.603 339.94L126.227 342.136C126.125 342.735 125.974 343.614 125.736 344.765C125.498 345.916 125.347 346.794 125.238 347.433C125.108 348.192 126.178 348.663 126.857 348.779C127.935 348.963 128.542 348.78 128.678 348.227C128.887 347.482 129.057 346.731 129.187 345.972C129.262 345.533 129.378 344.854 129.489 343.969L129.824 342.012C129.94 341.334 130.085 340.249 130.284 338.844C130.49 337.4 130.635 336.315 130.758 335.596C130.977 334.319 131.296 332.935 131.748 331.492C131.872 332.212 132.121 333.158 132.481 334.412C132.842 335.666 133.078 336.446 133.144 336.786C133.247 337.379 133.672 339.219 134.418 342.306C135.163 345.392 135.566 347.599 135.7 348.978C135.757 349.604 135.816 349.984 135.842 350.071C136.06 350.478 136.512 350.72 137.19 350.836C138.428 351.048 139.082 350.831 139.231 350.199C139.456 349.128 139.639 348.296 139.755 347.617C139.899 346.779 140.104 345.581 140.331 344.017C140.557 342.453 140.756 341.295 140.886 340.536C141.022 339.738 141.377 337.908 141.513 337.109C141.65 336.311 141.815 335.106 142.056 333.462C142.296 331.818 142.515 330.541 142.665 329.662C142.754 329.143 143.02 327.832 143.102 327.353C143.184 326.874 143.323 325.583 143.552 323.526C143.521 322.986 143.043 322.658 142.084 322.494C141.086 322.323 139.813 322.557 139.697 323.236ZM152.596 355.652C153.394 355.788 154.321 355.659 154.423 355.06C154.505 354.581 154.689 353.75 154.974 352.565C155.299 351.388 155.482 350.556 155.564 350.077C155.762 348.919 156.103 347.169 156.192 346.65C156.267 346.211 156.446 344.927 156.528 344.447C156.625 343.642 155.783 342.799 154.899 342.442C154.666 342.361 154.313 342.26 153.834 342.178L153.076 342.048C150.241 341.563 148.742 341.676 148.625 342.355C148.549 343.04 149.612 343.551 150.691 343.736C151.13 343.811 152.148 343.862 152.588 343.937C152.707 343.958 152.734 344.044 152.706 344.204L152.679 344.364C152.652 344.524 152.557 344.836 152.537 344.956L151.955 348.35C151.867 348.869 151.745 349.341 151.596 349.727C151.401 350.145 150.748 350.362 149.962 350.392C149.549 350.404 148.876 350.494 148.556 350.439C147.807 349.777 147.266 348.615 147.007 347.009C146.886 345.55 146.946 344.245 147.151 343.047C147.185 342.848 147.32 342.296 147.355 342.096L147.867 339.101L148.412 336.4C148.915 334.184 149.448 332.509 150.054 331.133C150.591 330.156 151.394 329.307 152.383 328.572C152.977 328.222 153.49 328.104 153.936 328.14C153.929 328.18 154.036 328.28 154.076 328.287C154.631 329.122 154.9 330.195 154.96 331.521C154.959 331.767 154.964 332.22 154.888 332.906C154.818 333.551 154.816 334.044 154.888 334.344C154.972 334.811 155.796 335.28 156.475 335.397C157.074 335.499 157.533 335.455 157.934 335.277C158.381 335.065 158.711 334.341 158.922 333.103L158.991 332.704C159.292 330.947 159.133 329.235 158.474 327.56C157.901 326.106 156.406 325.48 153.89 325.049C150.895 324.537 148.626 325.792 147.12 328.822C146.535 330.078 146.077 331.315 145.745 332.532C144.763 336.35 144.152 338.958 143.919 340.316C143.188 344.588 143.347 347.739 144.397 349.768C145.183 351.177 146.431 352.048 148.148 352.342C148.787 352.452 149.526 352.455 149.906 352.397L151.519 352.097C151.485 352.297 151.377 352.689 151.234 353.281C151.092 353.874 151.024 354.273 150.989 354.473C150.887 355.071 151.797 355.515 152.556 355.645L152.596 355.652Z" fill="#7E87B9"/>
<path d="M424.04 285.061C423.941 284.603 423.467 284.48 422.581 284.671C422.245 284.743 421.952 284.87 421.758 285.007C421.265 285.241 421.029 285.484 421.088 285.759C421.292 286.706 421.576 288.18 421.979 290.203C422.375 292.196 422.703 293.724 422.919 294.733C422.965 294.947 423.046 295.473 423.099 295.717C423.184 296.115 423.291 296.763 423.438 297.595C423.585 298.426 423.723 299.068 423.808 299.466L424.989 304.967C425.155 305.442 425.959 305.462 426.448 305.357L426.478 305.35C427.303 305.173 428.314 304.668 428.202 304.149L427.566 301.184C427.481 300.787 427.24 299.816 427.161 299.449C427.718 299.361 428.543 299.184 429.613 298.954L431.171 298.62C431.294 298.593 431.85 298.506 432.003 298.473C432.373 300.344 432.644 301.756 432.848 302.704L432.854 302.734C432.963 303.094 433.243 303.354 433.747 303.47C433.994 303.576 434.282 303.578 434.68 303.493C435.26 303.368 435.911 302.973 435.812 302.515L435.589 301.475C435.477 300.956 435.32 300.222 435.134 299.207C434.948 298.192 434.79 297.459 434.685 296.97C434.397 295.625 434.005 293.951 433.48 291.953C433.428 291.709 433.266 291.104 433.214 290.86C432.809 289.124 432.339 287.083 431.84 284.761C431.728 284.241 431.61 283.691 431.523 283.134C431.376 282.75 430.872 282.635 430.047 282.812C429.466 282.937 428.809 283.301 428.914 283.79C429.719 287.838 430.174 290.106 430.286 290.625L430.66 292.367C430.855 293.125 430.979 293.705 431.065 294.103L431.255 294.989C431.301 295.203 431.342 295.546 431.41 296.011C431.478 296.476 431.5 296.727 431.52 296.818L430.939 296.943L429.778 297.192C428.708 297.422 427.717 297.571 426.737 297.622L426.665 297.286C426.547 296.735 426.369 295.91 426.103 294.817C425.829 293.692 425.652 292.867 425.534 292.317C425.455 291.95 425.337 291.4 425.149 290.673L424.801 289.054C424.709 288.626 424.571 287.984 424.425 287.152C424.272 286.29 424.151 285.581 424.04 285.061ZM438.888 291.112C438.71 290.287 438.505 289.18 438.253 287.859C437.995 286.508 437.829 285.585 437.717 285.065C437.406 283.469 437.181 282.271 437.01 281.476C436.947 281.33 436.822 281.197 436.65 281.138C436.366 281.007 436.102 280.968 435.827 281.027L435.796 281.034C435.521 281.093 435.253 281.182 435.059 281.32C434.663 281.565 434.43 281.967 434.328 282.532C434.282 282.766 434.269 283.152 434.343 283.648C434.418 284.143 434.466 284.516 434.525 284.792L434.591 285.097C434.67 285.464 434.818 286.007 435.006 286.734C435.155 287.278 435.332 288.103 435.562 289.173L435.89 290.701L436.776 294.827C436.783 294.857 437.082 296.104 437.681 298.596C437.76 298.963 437.878 299.513 438.06 300.21C438.241 300.906 438.359 301.456 438.432 301.792C438.438 301.823 438.502 301.969 438.521 302.061C438.65 302.513 439.155 302.628 439.98 302.451C440.255 302.392 440.523 302.302 440.718 302.165L440.99 301.946C441.123 301.822 441.182 301.649 441.149 301.496C440.97 300.512 440.662 299.075 440.261 297.211C440.163 296.753 440.018 296.08 439.791 295.17C439.564 294.26 439.419 293.588 439.321 293.129L439.058 291.907L438.888 291.112ZM452.385 301.705C452.997 301.574 453.623 301.216 453.525 300.757C453.446 300.39 453.339 299.742 453.203 298.812C453.098 297.876 452.99 297.227 452.912 296.861C452.721 295.974 452.463 294.623 452.378 294.226C452.306 293.89 452.065 292.918 451.986 292.551C451.824 291.947 450.979 291.585 450.244 291.583C450.054 291.592 449.772 291.62 449.405 291.699L448.825 291.824C446.655 292.29 445.614 292.801 445.725 293.32C445.867 293.833 446.776 293.894 447.601 293.717C447.937 293.645 448.681 293.389 449.018 293.317C449.109 293.297 449.153 293.352 449.179 293.474L449.205 293.596C449.232 293.718 449.254 293.969 449.273 294.061L449.831 296.659C449.916 297.056 449.965 297.429 449.969 297.748C449.95 298.104 449.544 298.447 448.989 298.694C448.697 298.821 448.241 299.078 447.996 299.131C447.269 298.871 446.548 298.195 445.902 297.119C445.397 296.108 445.065 295.157 444.868 294.24C444.835 294.087 444.774 293.653 444.741 293.5L444.249 291.208L443.863 289.116C443.588 287.385 443.489 286.032 443.528 284.873C443.632 284.019 443.964 283.18 444.461 282.37C444.786 281.949 445.12 281.717 445.45 281.614C445.456 281.645 445.561 281.686 445.592 281.68C446.229 282.118 446.729 282.81 447.153 283.742C447.223 283.919 447.357 284.242 447.499 284.755C447.634 285.238 447.774 285.591 447.912 285.785C448.106 286.095 448.831 286.195 449.351 286.084C449.809 285.985 450.126 285.822 450.361 285.579C450.621 285.3 450.649 284.686 450.446 283.739L450.38 283.433C450.091 282.088 449.486 280.908 448.534 279.897C447.706 279.02 446.455 279.001 444.53 279.414C442.237 279.906 440.972 281.457 440.763 284.059C440.705 285.127 440.732 286.144 440.843 287.111C441.235 290.128 441.546 292.172 441.769 293.211C442.472 296.481 443.49 298.692 444.824 299.844C445.792 300.627 446.936 300.893 448.25 300.611C448.739 300.506 449.269 300.296 449.525 300.145L450.594 299.468C450.627 299.621 450.662 299.933 450.73 300.398C450.798 300.863 450.863 301.169 450.896 301.322C450.995 301.78 451.774 301.836 452.355 301.712L452.385 301.705ZM454.827 278.45C454.729 277.991 454.255 277.869 453.369 278.06C453.033 278.132 452.74 278.259 452.546 278.396C452.053 278.63 451.817 278.872 451.876 279.147C452.079 280.095 452.364 281.568 452.766 283.592C453.162 285.585 453.491 287.113 453.707 288.122C453.753 288.336 453.834 288.862 453.887 289.106C453.972 289.503 454.079 290.152 454.226 290.983C454.372 291.815 454.51 292.457 454.596 292.854L455.777 298.355C455.943 298.831 456.746 298.85 457.235 298.745L457.266 298.739C458.091 298.562 459.102 298.057 458.99 297.537L458.354 294.573C458.268 294.176 458.028 293.204 457.949 292.838C458.506 292.75 459.331 292.573 460.4 292.343L461.959 292.008C462.081 291.982 462.638 291.895 462.791 291.862C463.16 293.733 463.432 295.145 463.635 296.092L463.642 296.123C463.751 296.483 464.031 296.743 464.535 296.858C464.782 296.965 465.07 296.967 465.467 296.882C466.048 296.757 466.698 296.362 466.6 295.903L466.377 294.864C466.265 294.345 466.108 293.611 465.922 292.596C465.736 291.581 465.578 290.848 465.473 290.359C465.184 289.014 464.793 287.34 464.268 285.342C464.216 285.098 464.054 284.493 464.001 284.249C463.597 282.513 463.126 280.472 462.628 278.149C462.516 277.63 462.398 277.08 462.31 276.523C462.164 276.139 461.66 276.023 460.834 276.201C460.254 276.325 459.597 276.69 459.702 277.179C460.507 281.226 460.962 283.495 461.074 284.014L461.448 285.756C461.642 286.514 461.767 287.094 461.852 287.491L462.043 288.378C462.089 288.592 462.13 288.934 462.198 289.399C462.266 289.864 462.288 290.115 462.308 290.207L461.727 290.332L460.566 290.581C459.496 290.811 458.505 290.96 457.525 291.01L457.452 290.674C457.334 290.124 457.157 289.299 456.89 288.205C456.617 287.081 456.44 286.256 456.322 285.706C456.243 285.339 456.125 284.789 455.937 284.062L455.589 282.442C455.497 282.015 455.359 281.373 455.212 280.541C455.059 279.679 454.939 278.969 454.827 278.45ZM483.285 276.591C484.14 276.407 484.522 276.101 484.454 275.636C484.422 275.484 484.343 275.117 484.262 274.591C484.181 274.065 484.095 273.667 484.05 273.453C484.03 273.362 483.966 273.216 483.89 273.008C483.136 271.731 481.61 271.324 479.348 271.809C478.218 272.052 477.329 272.531 476.629 273.289C476.086 273.885 475.78 274.846 475.665 276.245C475.574 277.607 475.603 278.784 475.715 279.751C475.827 280.718 476.028 281.954 476.271 283.532C476.385 284.211 476.499 284.89 476.636 285.532C477.115 287.763 477.747 289.513 478.531 290.784C478.77 291.148 479.18 291.571 479.763 292.054C481.017 293.127 482.499 293.48 484.211 293.113C486.106 292.706 487.057 291.478 487.065 289.431L487.071 288.566L486.955 287.28C486.915 286.649 486.878 286.178 486.91 285.883C486.727 285.475 486.253 285.353 485.458 285.524C484.633 285.701 484.251 286.007 484.282 286.448C484.344 288.672 484.362 289.947 484.343 290.303C484.264 290.831 484.227 291.255 483.555 291.399L483.463 291.419C483.433 291.425 483.433 291.425 483.396 291.401L483.335 291.415C483.027 291.321 482.749 291.221 482.49 291.053C481.332 290.278 480.36 288.281 479.94 286.325L479.841 285.867C479.572 284.614 479.406 283.69 479.336 283.066C479.334 282.906 479.272 282.472 479.158 281.793L478.963 280.14C478.909 279.737 478.889 279.197 478.836 278.505C478.783 277.813 478.788 277.237 478.855 276.807C478.994 275.37 479.463 273.831 480.65 273.704L480.834 273.664C481.115 273.636 481.321 273.848 481.48 274.293L481.579 274.751C481.644 275.057 481.719 275.552 481.826 276.201C482.016 276.64 482.49 276.762 483.285 276.591ZM496.01 276.736C495.781 275.666 495.61 274.871 495.468 274.358C495.326 273.845 495.127 273.217 494.854 272.54C494.294 271.126 493.53 270.395 492.42 269.993C491.829 269.769 491.073 269.675 490.228 269.761C490.008 269.776 489.567 269.807 488.954 269.779C488.34 269.751 487.862 269.757 487.526 269.83C487.22 269.895 486.928 270.022 486.679 270.203C486.138 270.511 486.022 271.463 486.364 273.052C486.423 273.328 486.591 273.963 486.637 274.177L486.847 275.155L487.05 276.102C487.103 276.347 487.204 276.964 487.249 277.178C487.512 278.848 488.026 281.391 488.768 284.845L489.017 286.006C489.089 286.342 489.243 287.205 489.321 287.571L489.676 289.222C489.864 289.949 489.975 290.468 490.048 290.804C490.207 291.25 490.681 291.372 491.506 291.194C492.117 291.063 492.774 290.698 492.676 290.24L492.006 287.123C492.159 287.09 492.367 287.013 492.591 286.869C493.255 286.535 493.975 285.869 494.813 284.858C496.127 283.233 496.597 280.958 496.249 277.995C496.233 277.775 496.155 277.408 496.056 276.95L496.01 276.736ZM492.73 275.01C493.288 277.608 493.507 279.671 493.388 281.199C493.229 282.097 492.658 283.306 492.346 283.789L491.547 284.983C491.344 284.036 491.103 282.617 490.818 280.696C490.564 278.768 490.304 277.258 490.074 276.188L489.641 274.171L489.109 271.696C489.987 271.763 490.539 271.804 490.742 271.856C491.692 272.26 492.363 273.299 492.73 275.01ZM505.65 271.788C506.506 271.605 506.888 271.299 506.82 270.834C506.787 270.681 506.708 270.314 506.627 269.788C506.546 269.262 506.461 268.865 506.415 268.651C506.395 268.559 506.332 268.413 506.256 268.205C505.502 266.929 503.976 266.521 501.714 267.007C500.583 267.25 499.695 267.728 498.994 268.486C498.451 269.082 498.146 270.043 498.031 271.442C497.94 272.805 497.969 273.981 498.08 274.948C498.192 275.915 498.393 277.151 498.636 278.729C498.75 279.408 498.864 280.087 499.002 280.729C499.481 282.96 500.113 284.711 500.897 285.981C501.135 286.345 501.546 286.769 502.129 287.251C503.382 288.324 504.865 288.678 506.576 288.31C508.471 287.903 509.423 286.676 509.43 284.628L509.437 283.763L509.32 282.478C509.281 281.847 509.243 281.375 509.276 281.08C509.092 280.672 508.619 280.55 507.824 280.721C506.999 280.898 506.617 281.204 506.648 281.645C506.71 283.869 506.728 285.144 506.708 285.5C506.63 286.029 506.593 286.452 505.921 286.597L505.829 286.616C505.798 286.623 505.798 286.623 505.761 286.599L505.7 286.612C505.392 286.518 505.115 286.418 504.855 286.25C503.698 285.475 502.725 283.478 502.305 281.522L502.207 281.064C501.938 279.811 501.772 278.887 501.701 278.263C501.699 278.104 501.638 277.669 501.524 276.99L501.329 275.338C501.274 274.934 501.254 274.395 501.202 273.703C501.149 273.011 501.153 272.434 501.221 272.004C501.36 270.568 501.828 269.028 503.016 268.901L503.199 268.862C503.481 268.833 503.686 269.045 503.846 269.49L503.944 269.949C504.01 270.254 504.084 270.75 504.192 271.398C504.382 271.837 504.856 271.959 505.65 271.788Z" fill="#7E87B9"/>
<path d="M191.87 23.2565L215.021 60.2701L189.576 55.9366L207.098 71.1429L156.807 72.5701L206.134 90.7661L177.898 109.508L214.127 104.408L176.583 141.981L227.528 119.463L235.9 159.088L255.433 106.413L315.64 142.241L271.825 89.6625L301.169 73.7526L270.522 68.9851L280.367 9.15765L253.434 48.5768L236.828 18.3568L236.312 52.1944L191.87 23.2565Z" fill="#9CA4FF"/>
<path d="M213.466 50.6257L226.963 71.1686L212.645 69.0564L222.678 77.3928L194.522 78.8444L222.416 88.4545L206.863 99.3712L227.088 96.0331L206.587 117.673L234.811 104.337L240.064 126.541L250.26 96.6295L284.5 116.027L259.205 86.9867L275.42 77.6503L258.182 75.3607L262.848 41.5469L248.318 64.0896L238.585 47.2876L238.776 66.3471L213.466 50.6257Z" fill="#3B47BC"/>
<path d="M230.908 70.1337L236.584 78.8785L230.594 77.9583L234.803 81.5144L223.033 82.0848L234.712 86.2109L228.226 90.8209L236.677 89.4365L228.141 98.5916L239.92 92.9752L242.152 102.412L246.366 89.7275L260.714 98.02L250.091 85.6477L256.855 81.7097L249.644 80.7094L251.54 66.3592L245.501 75.9075L241.405 68.7572L241.516 76.8505L230.908 70.1337Z" fill="#F3F7FD"/>
<path fill-rule="evenodd" clip-rule="evenodd" d="M271.655 144.372C271.655 144.372 271.953 140.059 275.905 143.066C276.409 143.454 276.698 143.069 276.901 142.172C276.941 142.044 276.982 141.915 277.027 141.771C285.678 99.3749 326.043 173.759 343.402 145.666C341.605 151.819 337.89 157.237 332.797 161.133C318.168 172.787 299.564 173.32 289.744 168.096C279.925 162.872 271.161 157.435 271.655 144.372Z" fill="#281616"/>
<path fill-rule="evenodd" clip-rule="evenodd" d="M273.019 158.486C271.266 161.812 269.346 164.715 267.564 165.863C262.364 169.205 261.405 155.43 261.025 150.19C260.644 144.95 259.759 137.11 263.588 137.223C265.209 137.438 266.786 137.904 268.263 138.606C269.397 133.068 267.429 110.418 291.083 116.41C309.799 121.156 320.969 134.172 330.432 127.351C339.895 120.531 341.217 138.228 326.216 151.06C311.216 163.892 291.986 166.413 281.775 162.432C278.771 161.315 275.846 159.997 273.019 158.486Z" fill="white"/>
<path fill-rule="evenodd" clip-rule="evenodd" d="M327.217 148.581C327.217 148.581 320.836 166.947 315.639 170.281C310.441 173.615 309.48 159.847 309.1 154.607C308.719 149.368 307.834 141.528 311.656 141.638C315.477 141.748 327.217 148.581 327.217 148.581Z" fill="#281616"/>
<path fill-rule="evenodd" clip-rule="evenodd" d="M287.081 177.577L274.496 184.915L272.333 246.58L314.288 251.144L310.163 197.658L287.081 177.577Z" fill="#FFE1DA"/>
<path fill-rule="evenodd" clip-rule="evenodd" d="M307.116 250.362L314.288 251.144L310.163 197.658L301.754 190.345L300.676 191.001L307.116 250.362Z" fill="#FF8685"/>
<path fill-rule="evenodd" clip-rule="evenodd" d="M279.432 176.968L272.737 181.085C272.536 202.268 288.347 226.884 311.954 226.454L310.242 195.553L279.432 176.968Z" fill="#412F2F"/>
<path fill-rule="evenodd" clip-rule="evenodd" d="M321.056 141.785C319.793 145.238 323.799 216.505 300.327 215.822C276.855 215.14 263.526 183.775 269.242 161.693C274.958 139.611 321.056 141.785 321.056 141.785Z" fill="#FFD3CA"/>
<path fill-rule="evenodd" clip-rule="evenodd" d="M289.984 213.351C273.12 205.442 264.432 180.28 269.241 161.693C270.442 157.065 273.413 153.515 277.356 150.773C281.364 151.92 284.618 152.936 284.618 152.936C284.618 152.936 279.189 181.762 284.6 189.272C288.749 194.985 289.356 206.376 289.984 213.351Z" fill="#FFE1DA"/>
<path fill-rule="evenodd" clip-rule="evenodd" d="M321.056 133.644C320.555 135.011 320.884 146.976 320.003 160.904C306.692 167.808 292.085 168.119 283.606 164.384C277.836 161.827 272.419 159.187 268.87 155.127C268.99 154.577 269.111 154.051 269.234 153.55C274.958 131.47 321.056 133.644 321.056 133.644Z" fill="#FF8685"/>
<path opacity="0.3" fill-rule="evenodd" clip-rule="evenodd" d="M320.577 157.379C319.754 159.54 322.54 180.817 316.076 197.379C312.576 209.379 307.576 217.879 296.077 215.379C296.077 215.379 295.959 214.25 296.217 214.023C300.517 209.728 297.216 205.746 296.405 202.891C295.665 200.704 295.908 198.493 297.089 196.673C298.114 194.837 296.372 194.976 296.261 193.398C296.149 191.821 297.18 191.398 297.076 190.379C296.973 189.359 296.343 187.005 297.076 185.879C297.809 184.752 303.564 186.879 304.576 184.379C305.298 182.597 296.918 149.099 296.576 147.379L307.689 140.253C310.764 140.437 320.577 157.379 320.577 157.379Z" fill="#FF8685"/>
<path fill-rule="evenodd" clip-rule="evenodd" d="M264.605 142.434C264.605 142.434 264.878 138.202 268.992 140.695C272.701 142.929 265.067 110.379 292.881 117.372C311.591 122.107 322.759 135.131 332.232 128.305C341.706 121.479 343.007 139.187 328.006 152.02C313.006 164.852 293.776 167.373 283.568 163.384C273.36 159.395 264.235 155.104 264.605 142.434Z" fill="#412F2F"/>
<path fill-rule="evenodd" clip-rule="evenodd" d="M264.604 142.434C264.604 142.434 264.878 138.202 268.991 140.695C269.518 141.011 269.809 140.618 270.012 139.721C270.05 139.601 270.09 139.473 270.088 139.313C278.58 97.4223 321.147 164.948 338.755 135.928C337.513 140.825 334.114 146.858 327.98 152.1C312.988 164.935 293.75 167.454 283.542 163.465C273.334 159.476 264.234 155.104 264.604 142.434Z" fill="#281616"/>
<path fill-rule="evenodd" clip-rule="evenodd" d="M280.946 145.163C280.946 145.163 274.564 163.528 269.367 166.863C264.17 170.197 263.201 156.426 262.828 151.189C262.456 145.952 261.562 138.109 265.384 138.22C269.206 138.33 280.946 145.163 280.946 145.163Z" fill="#281616"/>
<path fill-rule="evenodd" clip-rule="evenodd" d="M270.019 163.614C270.019 163.614 266.798 155.118 262.719 156.637C258.641 158.155 261.209 176.685 265.997 178.325C270.785 179.964 273.818 174.732 270.019 163.614Z" fill="#FFE1DA"/>
<path fill-rule="evenodd" clip-rule="evenodd" d="M238.05 227.393L271.346 229.912C271.346 229.912 302.635 240.322 311.951 231.027C317.575 233.14 341.562 239.06 351.894 243.616C367.69 273.943 355.293 348.155 351.894 367.295C350.627 374.424 250.153 375.428 241.005 368.849C236.766 365.794 246.762 327.757 238.05 305.753C227.937 280.261 238.05 227.393 238.05 227.393Z" fill="#A3CF80"/>
<path fill-rule="evenodd" clip-rule="evenodd" d="M271.684 143.243C271.712 143.323 280.011 171.095 314.357 152.402L314.772 153.185C279.467 172.404 270.854 143.608 270.826 143.529L271.684 143.243Z" fill="#412F2F"/>
<path fill-rule="evenodd" clip-rule="evenodd" d="M260.6 136.203C260.6 136.203 267.475 133.035 270.151 140.373L269.3 140.695C266.92 134.236 260.963 137.013 260.952 137.019L260.6 136.203Z" fill="#281616"/>
<path fill-rule="evenodd" clip-rule="evenodd" d="M264.785 132.92C264.785 132.92 272.115 134.443 269.818 141.995L268.967 141.727C270.987 135.084 264.599 133.761 264.583 133.756L264.785 132.92Z" fill="#281616"/>
<path fill-rule="evenodd" clip-rule="evenodd" d="M271.362 186.357C271.357 186.317 271.361 186.276 271.373 186.238C271.385 186.199 271.405 186.164 271.431 186.133C271.457 186.103 271.489 186.078 271.525 186.06C271.561 186.042 271.601 186.032 271.641 186.031C271.721 186.023 271.8 186.048 271.862 186.098C271.923 186.149 271.963 186.222 271.971 186.302C272.531 191.347 274.241 196.199 276.969 200.484C279.697 204.769 283.37 208.374 287.708 211.022C287.742 211.042 287.771 211.068 287.795 211.1C287.818 211.132 287.834 211.168 287.843 211.206C287.852 211.244 287.852 211.284 287.845 211.322C287.838 211.361 287.822 211.398 287.8 211.43C287.78 211.465 287.753 211.495 287.72 211.52C287.688 211.544 287.651 211.562 287.612 211.571C287.573 211.581 287.532 211.583 287.492 211.577C287.452 211.571 287.413 211.556 287.379 211.535C282.963 208.837 279.223 205.164 276.447 200.8C273.671 196.435 271.931 191.495 271.362 186.357Z" fill="white"/>
<path fill-rule="evenodd" clip-rule="evenodd" d="M263.576 160.255C266.61 164.241 268.15 167.59 268.764 170.013C270.2 175.629 266.735 176.292 265.56 168.502L266.353 168.364C267.162 174.514 269.131 174.147 267.992 170.026C266.908 166.65 265.205 163.505 262.969 160.751L263.576 160.255Z" fill="#FF8685"/>
<path fill-rule="evenodd" clip-rule="evenodd" d="M295.27 191.638C296.008 191.225 296.804 191.004 297.61 190.989C298.417 190.973 299.217 191.162 299.964 191.546C300.712 191.929 301.391 192.499 301.961 193.221C302.531 193.943 302.981 194.803 303.284 195.75C303.893 197.691 303.88 199.858 303.247 201.79C302.614 203.721 301.412 205.263 299.896 206.089C299.157 206.502 298.36 206.723 297.553 206.738C296.746 206.754 295.945 206.565 295.197 206.182C294.449 205.798 293.769 205.229 293.199 204.506C292.628 203.784 292.177 202.924 291.873 201.977C291.264 200.034 291.278 197.866 291.913 195.934C292.547 194.003 293.752 192.461 295.27 191.638Z" fill="#FF8685"/>
<path fill-rule="evenodd" clip-rule="evenodd" d="M262.89 227.471C262.992 227.562 298.57 262.097 318.592 230.981L320.285 232.37C298.903 265.606 261.675 229.411 261.532 229.308L262.89 227.471Z" fill="#8FB575"/>
<path fill-rule="evenodd" clip-rule="evenodd" d="M286.091 172.412C285.804 172.328 285.498 172.29 285.192 172.301C284.886 172.312 284.586 172.371 284.31 172.475C284.034 172.579 283.786 172.726 283.583 172.907C283.38 173.088 283.224 173.299 283.126 173.529C282.932 174 282.976 174.512 283.249 174.958C283.522 175.404 284.002 175.75 284.589 175.923C284.877 176.007 285.183 176.044 285.49 176.032C285.796 176.021 286.097 175.961 286.373 175.856C286.65 175.751 286.897 175.603 287.1 175.421C287.303 175.239 287.457 175.026 287.554 174.796C287.751 174.326 287.708 173.814 287.434 173.369C287.161 172.924 286.679 172.581 286.091 172.412Z" fill="#281616"/>
<path fill-rule="evenodd" clip-rule="evenodd" d="M311.303 172.412C311.016 172.328 310.71 172.29 310.404 172.301C310.098 172.312 309.798 172.371 309.522 172.475C309.245 172.579 308.998 172.726 308.795 172.907C308.591 173.088 308.436 173.299 308.338 173.529C308.144 174 308.188 174.512 308.461 174.958C308.734 175.404 309.214 175.75 309.801 175.923C310.089 176.007 310.395 176.044 310.702 176.032C311.008 176.021 311.309 175.961 311.585 175.856C311.862 175.751 312.109 175.603 312.312 175.421C312.515 175.239 312.669 175.026 312.766 174.796C312.963 174.326 312.92 173.814 312.646 173.369C312.373 172.924 311.891 172.581 311.303 172.412Z" fill="#281616"/>
<path d="M278.338 169.922C280.205 167.588 285.435 164.32 291.411 169.922" stroke="#281616" stroke-width="2.7"/>
<path d="M302.937 169.988C304.418 167.391 309.074 163.348 315.851 167.951" stroke="#281616" stroke-width="2.7"/>
<path opacity="0.2" d="M281.139 176.034C282.339 178.148 285.701 181.108 289.543 176.034" stroke="#281616" stroke-width="0.7"/>
<path opacity="0.2" d="M306.352 177.39C307.953 179.503 311.933 182.19 315.044 176.034" stroke="#281616" stroke-width="0.7"/>
<path d="M243.787 232.062C253.616 240.483 267.132 266.799 267.132 289.957" stroke="#8FB575" stroke-width="2.7"/>
<path fill-rule="evenodd" clip-rule="evenodd" d="M273.5 189.5C273.5 189.5 280.636 194.7 281.5 206.5C282.273 217.263 282.689 229.719 270.035 204.703C264.01 192.431 261.237 170.161 261.237 170.161C260.86 168.266 261.105 166.215 262.09 164.88C262.916 163.76 263.994 164.095 265.648 165.198C270.06 169.058 270.686 186.431 273.5 189.5Z" fill="#FF8685"/>
<path fill-rule="evenodd" clip-rule="evenodd" d="M267.423 190.566C269.078 195.879 277.214 197.563 278.453 208.766C279.571 218.983 275.559 235.577 264.922 211.398C259.839 199.544 259.151 190.566 259.151 190.566C258.462 187.242 259.701 163.648 262.891 164.646C266.705 165.839 265.578 182.879 267.423 190.566Z" fill="#FFE1DA"/>
<path fill-rule="evenodd" clip-rule="evenodd" d="M234.238 322.53C237.375 360.672 247.333 375.836 266.333 373.231C304.771 367.97 251.693 238.563 241.541 230.167C232.728 222.903 223.946 225.744 221.928 239.35C218.25 264.115 233.706 316.095 234.238 322.53Z" fill="#A3CF80"/>
<path fill-rule="evenodd" clip-rule="evenodd" d="M317.5 187.5C317 192.5 312.118 196.764 314.5 207.5C316.365 215.902 327.748 229.223 321.414 208.879C320.912 204.987 324.975 197.228 325.414 191.879C322.414 179.879 322.914 168.879 322.914 168.879C326.414 160.379 318.891 168.01 318.414 169.878C317.308 173.284 318 182.5 317.5 187.5Z" fill="#FF8685"/>
<path d="M322.418 166.051C324.087 162.011 325.823 165.733 329.577 180.379C330.905 185.557 331.436 187.902 331.577 192.879C331.756 199.163 330.043 215.467 329.577 218.379C327.769 222.419 324.337 224.197 321 214.5C318.499 210.975 317.961 207.5 318.577 200.379C319 195.5 322.001 191.808 322.001 184.738C321.167 177.667 322.001 167.566 322.418 166.051Z" fill="#FFE1DA"/>
<path d="M324.767 167.879C325.572 171.804 326.642 179.879 327.142 186.379" stroke="#FF8685" stroke-width="0.7"/>
<path d="M326.413 190.103C326.303 189.586 325.883 188.629 325.089 188.939C324.096 189.327 322.772 190.879 323.765 190.879C324.559 190.879 325.199 190.362 325.42 190.103" stroke="#FF8685" stroke-width="0.7"/>
<path fill-rule="evenodd" clip-rule="evenodd" d="M330.548 321.934C325.581 353.869 332.08 368.568 351.109 370.805C389.604 375.336 365.18 257.233 357.07 248.028C350.025 240.057 340.885 240.363 336.062 251.033C327.277 270.454 331.384 316.546 330.548 321.934Z" fill="#A3CF80"/>
<path fill-rule="evenodd" clip-rule="evenodd" d="M264.991 216.118C262.905 220.587 265.929 226.277 271.755 228.898C277.58 231.52 283.987 230.038 286.08 225.591C288.174 221.145 285.134 215.425 279.316 212.811C273.498 210.197 267.054 211.672 264.991 216.118Z" fill="#281616"/>
<path fill-rule="evenodd" clip-rule="evenodd" d="M248.347 317.043C239.732 357.922 244.965 374.932 264.65 373.668C304.471 371.24 291.52 228.999 284.046 219.241C277.525 210.735 262.99 215.508 261.73 227.399C254.253 256.221 249.798 310.139 248.347 317.043Z" fill="#A3CF80"/>
<path fill-rule="evenodd" clip-rule="evenodd" d="M337.441 215.184C339.527 219.653 336.502 225.343 330.677 227.964C324.851 230.586 318.445 229.104 316.351 224.658C314.258 220.211 317.297 214.491 323.116 211.877C328.934 209.263 335.377 210.738 337.441 215.184Z" fill="#281616"/>
<path fill-rule="evenodd" clip-rule="evenodd" d="M360.94 315.516C372.462 355.672 368.462 373.014 348.737 373.163C308.844 373.596 311.567 230.792 318.324 220.524C324.218 211.573 339.058 215.291 341.166 227.062C350.69 255.273 358.997 308.733 360.94 315.516Z" fill="#86A96F"/>
<path d="M262.464 223.658C258.262 241.867 254.924 264.745 252.192 283.887C250.194 297.894 237.718 353.922 249.857 368.395" stroke="#8FB575" stroke-width="2.7"/>
<path d="M287.675 232.062C289.076 244.668 291.971 273.989 292.344 290.424C292.811 310.967 287.209 349.253 283.473 355.789C279.738 362.326 276.47 371.664 266.198 373.531" stroke="#8FB575" stroke-width="2.7"/>
<path d="M261.739 165.879C261.044 170.639 260.033 181.929 261.547 189.014" stroke="#FF8685" stroke-width="0.7"/>
<path d="M266.077 190.884C265.485 190.039 263.945 188.942 262.524 191.306C261.102 193.67 263.412 192.854 264.745 192.15" stroke="#FF8685" stroke-width="0.7"/>
</svg>
