<svg width="500" height="367" viewBox="0 0 500 367" fill="none" xmlns="http://www.w3.org/2000/svg">
<path fill-rule="evenodd" clip-rule="evenodd" d="M249.655 135.372C249.655 135.372 249.953 131.059 253.905 134.066C254.409 134.454 254.698 134.069 254.901 133.172C254.941 133.044 254.982 132.915 255.027 132.771C263.678 90.3749 304.043 164.759 321.402 136.666C319.605 142.819 315.89 148.237 310.797 152.133C296.168 163.787 277.564 164.32 267.744 159.096C257.925 153.872 249.161 148.435 249.655 135.372Z" fill="#281616"/>
<path fill-rule="evenodd" clip-rule="evenodd" d="M251.019 149.486C249.266 152.812 247.346 155.715 245.564 156.863C240.364 160.205 239.405 146.43 239.025 141.19C238.644 135.95 237.759 128.11 241.588 128.223C243.209 128.438 244.786 128.904 246.263 129.606C247.397 124.068 245.429 101.418 269.083 107.41C287.799 112.156 298.969 125.172 308.432 118.351C317.895 111.531 319.217 129.228 304.216 142.06C289.216 154.892 269.986 157.413 259.775 153.432C256.771 152.315 253.846 150.997 251.019 149.486Z" fill="white"/>
<path fill-rule="evenodd" clip-rule="evenodd" d="M305.217 139.581C305.217 139.581 298.836 157.947 293.639 161.281C288.441 164.615 287.48 150.847 287.1 145.607C286.719 140.368 285.834 132.528 289.656 132.638C293.477 132.748 305.217 139.581 305.217 139.581Z" fill="#281616"/>
<path fill-rule="evenodd" clip-rule="evenodd" d="M265.081 168.577L252.496 175.915L250.333 237.58L292.288 242.144L288.163 188.658L265.081 168.577Z" fill="#FFE1DA"/>
<path fill-rule="evenodd" clip-rule="evenodd" d="M285.116 241.362L292.288 242.144L288.163 188.658L279.754 181.345L278.676 182.001L285.116 241.362Z" fill="#FF8685"/>
<path fill-rule="evenodd" clip-rule="evenodd" d="M257.432 167.968L250.737 172.085C250.536 193.268 266.347 217.884 289.954 217.454L288.242 186.553L257.432 167.968Z" fill="#412F2F"/>
<path fill-rule="evenodd" clip-rule="evenodd" d="M299.056 132.785C297.793 136.238 301.799 207.505 278.327 206.822C254.855 206.14 241.526 174.775 247.242 152.693C252.958 130.611 299.056 132.785 299.056 132.785Z" fill="#FFD3CA"/>
<path fill-rule="evenodd" clip-rule="evenodd" d="M267.984 204.351C251.12 196.442 242.432 171.28 247.241 152.693C248.442 148.065 251.413 144.515 255.356 141.773C259.364 142.92 262.618 143.936 262.618 143.936C262.618 143.936 257.189 172.762 262.6 180.272C266.749 185.985 267.356 197.376 267.984 204.351Z" fill="#FFE1DA"/>
<path fill-rule="evenodd" clip-rule="evenodd" d="M299.056 124.644C298.555 126.011 298.884 137.976 298.003 151.904C284.692 158.808 270.085 159.119 261.606 155.384C255.836 152.827 250.419 150.187 246.87 146.127C246.99 145.577 247.111 145.051 247.234 144.55C252.958 122.47 299.056 124.644 299.056 124.644Z" fill="#FF8685"/>
<path opacity="0.3" fill-rule="evenodd" clip-rule="evenodd" d="M298.577 148.379C297.754 150.54 300.54 171.817 294.076 188.379C290.576 200.379 285.576 208.879 274.077 206.379C274.077 206.379 273.959 205.25 274.217 205.023C278.517 200.728 275.216 196.746 274.405 193.891C273.665 191.704 273.908 189.493 275.089 187.673C276.114 185.837 274.372 185.976 274.261 184.398C274.149 182.821 275.18 182.398 275.076 181.379C274.973 180.359 274.343 178.005 275.076 176.879C275.809 175.752 281.564 177.879 282.576 175.379C283.298 173.597 274.918 140.099 274.576 138.379L285.689 131.253C288.764 131.437 298.577 148.379 298.577 148.379Z" fill="#FF8685"/>
<path fill-rule="evenodd" clip-rule="evenodd" d="M242.605 133.434C242.605 133.434 242.878 129.202 246.992 131.695C250.701 133.929 243.067 101.379 270.881 108.372C289.591 113.107 300.759 126.131 310.232 119.305C319.706 112.479 321.007 130.187 306.006 143.02C291.006 155.852 271.776 158.373 261.568 154.384C251.36 150.395 242.235 146.104 242.605 133.434Z" fill="#412F2F"/>
<path fill-rule="evenodd" clip-rule="evenodd" d="M242.604 133.434C242.604 133.434 242.878 129.202 246.991 131.695C247.518 132.011 247.809 131.618 248.012 130.721C248.05 130.601 248.09 130.473 248.088 130.313C256.58 88.4223 299.147 155.948 316.755 126.928C315.513 131.825 312.114 137.858 305.98 143.1C290.988 155.935 271.75 158.454 261.542 154.465C251.334 150.476 242.234 146.104 242.604 133.434Z" fill="#281616"/>
<path fill-rule="evenodd" clip-rule="evenodd" d="M258.946 136.163C258.946 136.163 252.564 154.528 247.367 157.863C242.17 161.197 241.201 147.426 240.828 142.189C240.456 136.952 239.562 129.109 243.384 129.22C247.206 129.33 258.946 136.163 258.946 136.163Z" fill="#281616"/>
<path fill-rule="evenodd" clip-rule="evenodd" d="M248.019 154.614C248.019 154.614 244.798 146.118 240.719 147.637C236.641 149.155 239.209 167.685 243.997 169.325C248.785 170.964 251.818 165.732 248.019 154.614Z" fill="#FFE1DA"/>
<path fill-rule="evenodd" clip-rule="evenodd" d="M216.05 218.393L249.346 220.912C249.346 220.912 280.635 231.322 289.951 222.027C295.575 224.14 319.562 230.06 329.894 234.616C345.69 264.943 333.293 339.155 329.894 358.295C328.627 365.424 228.153 366.428 219.005 359.849C214.766 356.794 224.762 318.757 216.05 296.753C205.937 271.261 216.05 218.393 216.05 218.393Z" fill="#A3CF80"/>
<path fill-rule="evenodd" clip-rule="evenodd" d="M249.684 134.243C249.712 134.323 258.011 162.095 292.357 143.402L292.772 144.185C257.467 163.404 248.854 134.608 248.826 134.529L249.684 134.243Z" fill="#412F2F"/>
<path fill-rule="evenodd" clip-rule="evenodd" d="M238.6 127.203C238.6 127.203 245.475 124.035 248.151 131.373L247.3 131.695C244.92 125.236 238.963 128.013 238.952 128.019L238.6 127.203Z" fill="#281616"/>
<path fill-rule="evenodd" clip-rule="evenodd" d="M242.785 123.92C242.785 123.92 250.115 125.443 247.818 132.995L246.967 132.727C248.987 126.084 242.599 124.761 242.583 124.756L242.785 123.92Z" fill="#281616"/>
<path fill-rule="evenodd" clip-rule="evenodd" d="M249.362 177.357C249.357 177.317 249.361 177.276 249.373 177.238C249.385 177.199 249.405 177.164 249.431 177.133C249.457 177.103 249.489 177.078 249.525 177.06C249.561 177.042 249.601 177.032 249.641 177.031C249.721 177.023 249.8 177.048 249.862 177.098C249.923 177.149 249.963 177.222 249.971 177.302C250.531 182.347 252.241 187.199 254.969 191.484C257.697 195.769 261.37 199.374 265.708 202.022C265.742 202.042 265.771 202.068 265.795 202.1C265.818 202.132 265.834 202.168 265.843 202.206C265.852 202.244 265.852 202.284 265.845 202.322C265.838 202.361 265.822 202.398 265.8 202.43C265.78 202.465 265.753 202.495 265.72 202.52C265.688 202.544 265.651 202.562 265.612 202.571C265.573 202.581 265.532 202.583 265.492 202.577C265.452 202.571 265.413 202.556 265.379 202.535C260.963 199.837 257.223 196.164 254.447 191.8C251.671 187.435 249.931 182.495 249.362 177.357Z" fill="white"/>
<path fill-rule="evenodd" clip-rule="evenodd" d="M241.576 151.255C244.61 155.241 246.15 158.59 246.764 161.013C248.2 166.629 244.735 167.292 243.56 159.502L244.353 159.364C245.162 165.514 247.131 165.147 245.992 161.026C244.908 157.65 243.205 154.505 240.969 151.751L241.576 151.255Z" fill="#FF8685"/>
<path fill-rule="evenodd" clip-rule="evenodd" d="M273.27 182.638C274.008 182.225 274.804 182.004 275.61 181.989C276.417 181.973 277.217 182.162 277.964 182.546C278.712 182.929 279.391 183.499 279.961 184.221C280.531 184.943 280.981 185.803 281.284 186.75C281.893 188.691 281.88 190.858 281.247 192.79C280.614 194.721 279.412 196.263 277.896 197.089C277.157 197.502 276.36 197.723 275.553 197.738C274.746 197.754 273.945 197.565 273.197 197.182C272.449 196.798 271.769 196.229 271.199 195.506C270.628 194.784 270.177 193.924 269.873 192.977C269.264 191.034 269.278 188.866 269.913 186.934C270.547 185.003 271.752 183.461 273.27 182.638Z" fill="#FF8685"/>
<path fill-rule="evenodd" clip-rule="evenodd" d="M240.89 218.471C240.992 218.562 276.57 253.097 296.592 221.981L298.285 223.37C276.903 256.606 239.675 220.411 239.532 220.308L240.89 218.471Z" fill="#8FB575"/>
<path fill-rule="evenodd" clip-rule="evenodd" d="M264.091 163.412C263.804 163.328 263.498 163.29 263.192 163.301C262.886 163.312 262.586 163.371 262.31 163.475C262.034 163.579 261.786 163.726 261.583 163.907C261.38 164.088 261.224 164.299 261.126 164.529C260.932 165 260.976 165.512 261.249 165.958C261.522 166.404 262.002 166.75 262.589 166.923C262.877 167.007 263.183 167.044 263.49 167.032C263.796 167.021 264.097 166.961 264.373 166.856C264.65 166.751 264.897 166.603 265.1 166.421C265.303 166.239 265.457 166.026 265.554 165.796C265.751 165.326 265.708 164.814 265.434 164.369C265.161 163.924 264.679 163.581 264.091 163.412Z" fill="#281616"/>
<path fill-rule="evenodd" clip-rule="evenodd" d="M289.303 163.412C289.016 163.328 288.71 163.29 288.404 163.301C288.098 163.312 287.798 163.371 287.522 163.475C287.245 163.579 286.998 163.726 286.795 163.907C286.591 164.088 286.436 164.299 286.338 164.529C286.144 165 286.188 165.512 286.461 165.958C286.734 166.404 287.214 166.75 287.801 166.923C288.089 167.007 288.395 167.044 288.702 167.032C289.008 167.021 289.309 166.961 289.585 166.856C289.862 166.751 290.109 166.603 290.312 166.421C290.515 166.239 290.669 166.026 290.766 165.796C290.963 165.326 290.92 164.814 290.646 164.369C290.373 163.924 289.891 163.581 289.303 163.412Z" fill="#281616"/>
<path d="M256.338 160.922C258.205 158.588 263.435 155.32 269.411 160.922" stroke="#281616" stroke-width="2.7"/>
<path d="M280.937 160.988C282.418 158.391 287.074 154.348 293.851 158.951" stroke="#281616" stroke-width="2.7"/>
<path opacity="0.2" d="M259.139 167.034C260.339 169.148 263.701 172.108 267.543 167.034" stroke="#281616" stroke-width="0.7"/>
<path opacity="0.2" d="M284.352 168.39C285.953 170.503 289.933 173.19 293.044 167.034" stroke="#281616" stroke-width="0.7"/>
<path d="M221.787 223.062C231.616 231.483 245.132 257.799 245.132 280.957" stroke="#8FB575" stroke-width="2.7"/>
<path fill-rule="evenodd" clip-rule="evenodd" d="M251.5 180.5C251.5 180.5 258.636 185.7 259.5 197.5C260.273 208.263 260.689 220.719 248.035 195.703C242.01 183.431 239.237 161.161 239.237 161.161C238.86 159.266 239.105 157.215 240.09 155.88C240.916 154.76 241.994 155.095 243.648 156.198C248.06 160.058 248.686 177.431 251.5 180.5Z" fill="#FF8685"/>
<path fill-rule="evenodd" clip-rule="evenodd" d="M245.423 181.566C247.078 186.879 255.214 188.563 256.453 199.766C257.571 209.983 253.559 226.577 242.922 202.398C237.839 190.544 237.151 181.566 237.151 181.566C236.462 178.242 237.701 154.648 240.891 155.646C244.705 156.839 243.578 173.879 245.423 181.566Z" fill="#FFE1DA"/>
<path fill-rule="evenodd" clip-rule="evenodd" d="M212.238 313.53C215.375 351.672 225.333 366.836 244.333 364.231C282.771 358.97 229.693 229.563 219.541 221.167C210.728 213.903 201.946 216.744 199.928 230.35C196.25 255.115 211.706 307.095 212.238 313.53Z" fill="#A3CF80"/>
<path fill-rule="evenodd" clip-rule="evenodd" d="M295.5 178.5C295 183.5 290.118 187.764 292.5 198.5C294.365 206.902 305.748 220.223 299.414 199.879C298.912 195.987 302.975 188.228 303.414 182.879C300.414 170.879 300.914 159.879 300.914 159.879C304.414 151.379 296.891 159.01 296.414 160.878C295.308 164.284 296 173.5 295.5 178.5Z" fill="#FF8685"/>
<path d="M300.418 157.051C302.087 153.011 303.823 156.733 307.577 171.379C308.905 176.557 309.436 178.902 309.577 183.879C309.756 190.163 308.043 206.467 307.577 209.379C305.769 213.419 302.337 215.197 299 205.5C296.499 201.975 295.961 198.5 296.577 191.379C297 186.5 300.001 182.808 300.001 175.738C299.167 168.667 300.001 158.566 300.418 157.051Z" fill="#FFE1DA"/>
<path d="M302.767 158.879C303.572 162.804 304.642 170.879 305.142 177.379" stroke="#FF8685" stroke-width="0.7"/>
<path d="M304.413 181.103C304.303 180.586 303.883 179.629 303.089 179.939C302.096 180.327 300.772 181.879 301.765 181.879C302.559 181.879 303.199 181.362 303.42 181.103" stroke="#FF8685" stroke-width="0.7"/>
<path fill-rule="evenodd" clip-rule="evenodd" d="M308.548 312.934C303.581 344.869 310.08 359.568 329.109 361.805C367.604 366.336 343.18 248.233 335.07 239.028C328.025 231.057 318.885 231.363 314.062 242.033C305.277 261.454 309.384 307.546 308.548 312.934Z" fill="#A3CF80"/>
<path fill-rule="evenodd" clip-rule="evenodd" d="M242.991 207.118C240.905 211.587 243.929 217.277 249.755 219.898C255.58 222.52 261.987 221.038 264.08 216.591C266.174 212.145 263.134 206.425 257.316 203.811C251.498 201.197 245.054 202.672 242.991 207.118Z" fill="#281616"/>
<path fill-rule="evenodd" clip-rule="evenodd" d="M226.347 308.043C217.732 348.922 222.965 365.932 242.65 364.668C282.471 362.24 269.52 219.999 262.046 210.241C255.525 201.735 240.99 206.508 239.73 218.399C232.253 247.221 227.798 301.139 226.347 308.043Z" fill="#A3CF80"/>
<path fill-rule="evenodd" clip-rule="evenodd" d="M315.441 206.184C317.527 210.653 314.502 216.343 308.677 218.964C302.851 221.586 296.445 220.104 294.351 215.658C292.258 211.211 295.297 205.491 301.116 202.877C306.934 200.263 313.377 201.738 315.441 206.184Z" fill="#281616"/>
<path fill-rule="evenodd" clip-rule="evenodd" d="M338.94 306.516C350.462 346.672 346.462 364.014 326.737 364.163C286.844 364.596 289.567 221.792 296.324 211.524C302.218 202.573 317.058 206.291 319.166 218.062C328.69 246.273 336.997 299.733 338.94 306.516Z" fill="#86A96F"/>
<path d="M240.464 214.658C236.262 232.867 232.924 255.745 230.192 274.887C228.194 288.894 215.718 344.922 227.857 359.395" stroke="#8FB575" stroke-width="2.7"/>
<path d="M265.675 223.062C267.076 235.668 269.971 264.989 270.344 281.424C270.811 301.967 265.209 340.253 261.473 346.789C257.738 353.326 254.47 362.664 244.198 364.531" stroke="#8FB575" stroke-width="2.7"/>
<path d="M239.739 156.879C239.044 161.639 238.033 172.929 239.547 180.014" stroke="#FF8685" stroke-width="0.7"/>
<path d="M244.077 181.884C243.485 181.039 241.945 179.942 240.524 182.306C239.102 184.67 241.412 183.854 242.745 183.15" stroke="#FF8685" stroke-width="0.7"/>
<path d="M57.3407 45.0537C57.1393 44.4804 56.5103 44.4007 55.4019 44.7899C54.9814 44.9375 54.6261 45.1482 54.3988 45.3568C53.8027 45.7378 53.5392 46.0879 53.66 46.4319C54.076 47.6168 54.682 49.4649 55.5296 52.0009C56.3637 54.4987 57.0347 56.4098 57.4776 57.6711C57.5715 57.9386 57.7615 58.6018 57.8688 58.9076C58.0433 59.4045 58.2869 60.2206 58.611 61.266C58.9352 62.3114 59.217 63.114 59.3915 63.6109L61.8072 70.4907C62.0984 71.0754 63.1344 70.9693 63.746 70.7545L63.7842 70.7411C64.8162 70.3788 66.0331 69.565 65.805 68.9153L64.5032 65.2078C64.3287 64.7109 63.861 63.5012 63.7 63.0426C64.4014 62.8392 65.4334 62.4769 66.7711 62.0072L68.7204 61.3227C68.8733 61.269 69.5747 61.0657 69.7658 60.9986C70.5463 63.3435 71.1254 65.1151 71.5414 66.3L71.5549 66.3382C71.7541 66.7834 72.1559 67.0717 72.8231 67.1379C73.1578 67.2351 73.5286 67.1908 74.0255 67.0163C74.7517 66.7613 75.5235 66.1469 75.3221 65.5735L74.8658 64.274C74.6377 63.6242 74.3156 62.7069 73.9109 61.4322C73.5063 60.1575 73.1842 59.2401 72.9694 58.6286C72.3789 56.9469 71.6026 54.8581 70.6022 52.3757C70.4948 52.07 70.1882 51.319 70.0808 51.0132C69.2776 48.848 68.3402 46.3006 67.3202 43.3957C67.0921 42.746 66.8505 42.058 66.6471 41.3566C66.3962 40.8865 65.729 40.8203 64.697 41.1827C63.9708 41.4377 63.1856 42.0139 63.4004 42.6254C65.0954 47.6975 66.0504 50.5393 66.2785 51.1891L67.0435 53.3677C67.4172 54.3098 67.6722 55.036 67.8467 55.5329L68.2359 56.6413C68.3298 56.9089 68.4392 57.3427 68.6023 57.9295C68.7654 58.5162 68.8345 58.8354 68.8748 58.9501L68.1486 59.2051L66.6962 59.715C65.3584 60.1848 64.1085 60.5378 62.8565 60.7627L62.7089 60.3423C62.4673 59.6543 62.105 58.6223 61.5836 57.2598C61.0488 55.859 60.6865 54.827 60.4449 54.139C60.2839 53.6804 60.0423 52.9924 59.682 52.0885L58.9707 50.0627C58.7828 49.5276 58.5009 48.725 58.1768 47.6796C57.8393 46.596 57.5688 45.7035 57.3407 45.0537ZM77.4169 50.4122C77.0545 49.3803 76.6096 47.9909 76.0707 46.3339C75.5184 44.6388 75.154 43.4787 74.9259 42.8289C74.2662 40.828 73.781 39.3239 73.4321 38.3302C73.3268 38.1525 73.145 38.0016 72.9136 37.9541C72.5274 37.8321 72.1813 37.8248 71.8373 37.9456L71.7991 37.959C71.4551 38.0798 71.1245 38.2388 70.8973 38.4474C70.4293 38.8264 70.1947 39.3811 70.1553 40.1248C70.1345 40.4326 70.1809 40.9315 70.3574 41.5565C70.5339 42.1814 70.6568 42.6535 70.7776 42.9975L70.9118 43.3797C71.0728 43.8384 71.3526 44.513 71.7129 45.4168C71.9927 46.0914 72.3551 47.1234 72.8248 48.4611L73.4958 50.3722L75.3076 55.5321C75.321 55.5703 75.9095 57.124 77.0864 60.2313C77.2475 60.69 77.4891 61.378 77.836 62.2436C78.1829 63.1093 78.4244 63.7973 78.5721 64.2177C78.5855 64.2559 78.6908 64.4336 78.7311 64.5483C78.9706 65.1082 79.6379 65.1744 80.6698 64.8121C81.0138 64.6913 81.3444 64.5323 81.5717 64.3237L81.8868 63.9984C82.0376 63.8166 82.0852 63.5852 82.0181 63.3941C81.6269 62.1576 80.9961 60.3612 80.1774 58.0297C79.9761 57.4564 79.6809 56.6155 79.24 55.4823C78.7992 54.3491 78.5039 53.5082 78.3026 52.9349L77.7658 51.406L77.4169 50.4122ZM96.4977 61.8305C97.2621 61.5621 98.0091 60.9993 97.8078 60.426C97.6467 59.9673 97.4031 59.1512 97.0769 57.9777C96.789 56.7908 96.5454 55.9748 96.3843 55.5161C95.9951 54.4077 95.4428 52.7125 95.2684 52.2156C95.1207 51.7952 94.653 50.5855 94.492 50.1269C94.1854 49.3759 93.0399 49.0482 92.0937 49.1658C91.851 49.2081 91.4935 49.2906 91.0349 49.4517L90.3087 49.7067C87.5949 50.6595 86.3398 51.4867 86.5679 52.1364C86.8343 52.7728 88.0118 52.7028 89.0438 52.3404C89.4643 52.1928 90.3795 51.7426 90.8 51.595C90.9146 51.5547 90.9797 51.6178 91.0334 51.7706L91.0871 51.9235C91.1408 52.0764 91.2099 52.3956 91.2502 52.5103L92.3909 55.7591C92.5654 56.256 92.6882 56.728 92.746 57.1371C92.7789 57.5978 92.313 58.1049 91.6404 58.5128C91.2851 58.7234 90.7406 59.1292 90.4349 59.2366C89.4577 59.0216 88.4208 58.2694 87.414 56.9914C86.6002 55.7745 86.0179 54.6051 85.6153 53.4584C85.5482 53.2673 85.3985 52.7188 85.3314 52.5277L84.3249 49.6611L83.4887 47.0352C82.8518 44.8545 82.504 43.1305 82.3649 41.6337C82.3599 40.5192 82.6494 39.3871 83.1568 38.2644C83.506 37.6695 83.8976 37.3173 84.3046 37.1315C84.318 37.1697 84.4595 37.2059 84.4978 37.1925C85.3891 37.6523 86.1451 38.4602 86.8421 39.5894C86.9608 39.8053 87.1849 40.1989 87.4513 40.8352C87.7042 41.4333 87.9417 41.8652 88.1503 42.0924C88.4508 42.4592 89.3991 42.4697 90.0488 42.2416C90.6221 42.0403 91.0023 41.778 91.2658 41.4278C91.5541 41.0261 91.4902 40.2328 91.0741 39.0479L90.9399 38.6657C90.3494 36.984 89.3787 35.5645 87.9897 34.4208C86.7823 33.4279 85.1709 33.6073 82.763 34.4528C79.8964 35.4593 78.5221 37.6592 78.6784 41.039C78.7773 42.4211 78.9775 43.7247 79.2788 44.9499C80.2749 48.7647 81.0077 51.341 81.4641 52.6405C82.9001 56.7302 84.5698 59.4069 86.4733 60.6706C87.8448 61.5199 89.3591 61.6752 91.0026 61.0981C91.6142 60.8834 92.2619 60.5271 92.5656 60.2917L93.8301 59.2466C93.8972 59.4377 93.9932 59.8333 94.1563 60.4201C94.3194 61.0068 94.4536 61.389 94.5207 61.5801C94.722 62.1535 95.7333 62.0989 96.4595 61.8439L96.4977 61.8305ZM95.8452 31.5336C95.6439 30.9603 95.0149 30.8807 93.9064 31.2699C93.486 31.4175 93.1306 31.6281 92.9033 31.8367C92.3073 32.2178 92.0438 32.5679 92.1646 32.9119C92.5806 34.0968 93.1866 35.9448 94.0341 38.4808C94.8683 40.9787 95.5393 42.8897 95.9822 44.151C96.0761 44.4186 96.266 45.0818 96.3734 45.3876C96.5479 45.8844 96.7915 46.7005 97.1156 47.7459C97.4398 48.7913 97.7216 49.594 97.8961 50.0908L100.312 56.9707C100.603 57.5554 101.639 57.4492 102.251 57.2345L102.289 57.2211C103.321 56.8587 104.538 56.045 104.31 55.3952L103.008 51.6877C102.833 51.1909 102.366 49.9812 102.205 49.5225C102.906 49.3192 103.938 48.9568 105.276 48.4871L107.225 47.8027C107.378 47.749 108.079 47.5456 108.27 47.4785C109.051 49.8234 109.63 51.5951 110.046 52.7799L110.059 52.8181C110.259 53.2634 110.66 53.5517 111.328 53.6179C111.662 53.7151 112.033 53.6707 112.53 53.4962C113.256 53.2413 114.028 52.6268 113.827 52.0535L113.37 50.754C113.142 50.1042 112.82 49.1869 112.416 47.9121C112.011 46.6374 111.689 45.7201 111.474 45.1086C110.884 43.4268 110.107 41.3381 109.107 38.8557C108.999 38.5499 108.693 37.7989 108.585 37.4931C107.782 35.3279 106.845 32.7805 105.825 29.8757C105.597 29.2259 105.355 28.5379 105.152 27.8365C104.901 27.3665 104.234 27.3003 103.202 27.6626C102.475 27.9176 101.69 28.4938 101.905 29.1054C103.6 34.1774 104.555 37.0193 104.783 37.669L105.548 39.8476C105.922 40.7898 106.177 41.516 106.351 42.0128L106.74 43.1213C106.834 43.3888 106.944 43.8227 107.107 44.4094C107.27 44.9962 107.339 45.3154 107.379 45.43L106.653 45.685L105.201 46.195C103.863 46.6647 102.613 47.0177 101.361 47.2427L101.213 46.8222C100.972 46.1342 100.61 45.1023 100.088 43.7397C99.5534 42.3389 99.191 41.307 98.9495 40.619C98.7884 40.1603 98.5469 39.4723 98.1865 38.5684L97.4752 36.5427C97.2874 36.0076 97.0055 35.2049 96.6814 34.1595C96.3438 33.0759 96.0734 32.1834 95.8452 31.5336ZM78.2682 114.825C78.3178 114.721 78.3251 114.375 78.2518 113.8C78.024 111.561 77.9499 110.128 78.0162 109.46C78.2837 109.366 79.2372 108.903 80.9149 108.056L83.1545 107.098L84.0756 108.621C84.3513 109.039 84.8551 110.107 85.0007 110.4C85.3435 111.009 85.6977 111.529 86.0767 111.997C86.5549 112.258 87.1571 112.261 87.8833 112.007C88.3802 111.832 88.812 111.595 89.2418 111.229C89.5951 110.89 89.7574 110.619 89.6768 110.389L89.6634 110.351C89.4642 109.906 88.9603 108.838 88.6846 108.419C87.6561 106.591 86.2507 104.422 84.455 101.876C83.1972 100.128 82.0407 98.3013 80.4226 95.6494C79.6584 94.3292 79.0533 93.3395 78.6589 92.7052C78.5401 92.4893 78.2262 92.0843 77.7801 91.4252L76.8476 89.9923C76.1506 88.8632 75.6012 88.1545 75.2894 87.8776C74.8608 87.5129 74.3216 87.4446 73.5954 87.6996L73.5571 87.713C72.8309 87.968 72.4776 88.3068 72.5106 88.7675C72.5152 91.4707 72.687 95.0168 73.0642 99.3924C73.4414 103.768 73.6298 106.75 73.7059 108.312C73.7704 111.552 73.9445 113.638 74.2666 114.555L74.3874 114.899C74.5753 115.434 74.7994 115.828 75.0844 116.028C75.4862 116.317 76.0884 116.32 76.8528 116.051C77.579 115.796 78.0718 115.366 78.2682 114.825ZM78.7564 106.066C78.2978 106.227 77.8257 106.35 77.3784 106.421C76.7678 101.87 76.3874 98.0967 76.2238 95.0629L77.436 97.1704C77.9761 98.097 78.3974 98.8078 78.6617 99.316C79.9947 101.767 81.05 103.672 81.9174 105.042C81.4701 105.113 81.0745 105.209 80.6541 105.357C80.3483 105.464 79.5209 105.798 79.2151 105.905L78.7564 106.066ZM92.8069 89.4119C93.1053 89.6505 93.5164 89.7209 94.0267 89.5846C94.1548 89.5826 94.3459 89.5155 94.6135 89.4215C95.1103 89.2471 95.4905 88.9848 95.754 88.6347C95.9544 88.3496 95.9731 87.9137 95.873 87.2619C95.7791 86.9943 95.773 86.6101 95.679 86.3425L95.4375 85.6546C94.3101 82.444 91.7528 81.1523 87.8925 82.5078C86.9751 82.8299 86.2644 83.2511 85.785 83.72C84.1082 85.4251 83.7977 88.4536 84.93 92.7787C85.122 93.57 85.4461 94.6154 85.9024 95.9149L86.4392 97.4438L86.815 98.514L86.8284 98.5522C87.1103 99.3549 87.4303 100.144 87.802 100.958L88.8769 103.286C89.5088 104.352 89.9301 105.062 90.1924 105.443C90.5218 106.014 90.9927 106.621 91.5669 107.278C91.8023 107.582 92.0626 107.834 92.3094 108.048C92.7246 108.375 93.2162 108.674 93.7574 108.871C93.8607 108.92 94.3617 109.002 95.2737 109.154C95.6714 109.186 96.2602 109.151 96.9636 109.076C97.5772 108.989 98.0111 108.88 98.3551 108.759L98.5844 108.678C99.3871 108.397 100.008 107.964 100.46 107.419C100.837 106.9 101.035 106.487 101.105 106.076C101.153 105.845 101.131 105.294 101.129 105.166C101.111 104.013 100.866 102.339 100.358 100.156L100.344 100.118C100.277 99.9266 100.109 99.814 99.8773 99.7664C99.5427 99.6693 99.082 99.7022 98.4322 99.9304L98.394 99.9438C98.05 100.065 97.7577 100.21 97.5304 100.419C97.1006 100.784 96.9136 101.108 97.0344 101.452C97.3719 102.535 97.5391 103.378 97.5741 103.967C97.5534 104.275 97.481 104.558 97.3838 104.892C97.1224 105.371 96.9085 105.617 96.7939 105.658C95.4541 105.999 94.76 105.857 94.1187 105.009C93.5961 104.376 93.5807 104.21 93.1057 103.346C92.7092 102.584 92.163 101.273 91.429 99.427C91.2029 98.9053 90.921 98.1027 90.5453 97.0325L90.1158 95.8094L88.5456 91.3375L87.9819 89.7322C87.4048 88.0886 87.6003 86.689 88.5168 85.5086C88.7441 85.3 89.2389 84.9974 89.9631 84.6143L90.1542 84.5472L90.1924 84.5338C90.3608 84.6464 90.6076 84.8603 90.8813 85.1506C91.0651 85.4295 91.3831 86.0907 91.8105 87.1857C91.9045 87.4532 92.1708 88.0896 92.2648 88.3571L92.3453 88.5865C92.4929 89.0069 92.6385 89.2992 92.8069 89.4119ZM111.659 104.173C112.424 103.905 113.071 103.549 113.589 103.066C113.753 102.923 113.992 102.624 114.292 102.133C115.091 100.864 115.382 99.0021 115.114 96.649C114.884 94.2825 114.279 91.7042 113.299 88.914C112.722 87.2705 111.963 85.4761 111.023 83.5309C109.381 80.2004 107.733 78.0743 106.078 77.1526C105.07 76.6049 103.776 76.5871 102.209 77.1373C101.368 77.4326 100.707 77.7506 100.277 78.1162C99.4559 78.8339 98.9392 80.1746 98.8169 82.1495C98.6584 84.266 98.7004 86.0974 98.9428 87.6438C99.1027 88.8327 99.5517 90.4783 100.263 92.504L100.813 94.0711C101.106 94.7839 101.281 95.2807 101.402 95.6247C102.165 97.6753 103.352 99.8344 105.054 102.113C106.769 104.431 108.984 105.113 111.659 104.173ZM102.778 79.8572C103.427 79.629 104.996 80.7955 105.994 82.2914C106.559 83.1664 107.047 84.0683 107.459 84.997C108.775 88.0124 109.655 90.1508 110.098 91.4121C110.514 92.5969 110.8 93.6558 110.98 94.5369L111.205 95.7889L111.432 97.1689C111.475 97.4117 111.494 97.8341 111.516 98.3847C111.628 99.805 111.321 100.643 110.477 101.54C110.234 101.582 109.951 101.51 109.59 101.336C108.737 100.863 107.891 100.044 107.014 98.892C106.162 97.6885 105.528 96.4943 105.047 95.2464C104.7 94.3807 104.217 93.0047 103.586 91.2083C102.687 88.6475 102.203 86.4131 102.134 84.5053C102.086 83.8783 102.123 83.0065 102.219 81.8135C102.316 80.6204 102.51 79.9511 102.778 79.8572ZM125.965 77.8121C124.757 74.3722 123.304 72.4351 121.554 71.9762C119.894 71.5286 118.281 71.5799 116.79 72.1033C114.994 72.7341 113.386 74.7583 112.721 76.4088C112.389 77.2981 112.58 78.8197 113.331 80.9601C114.177 83.368 115.071 84.8143 116.052 85.2855C117.085 85.7816 118.289 85.788 119.979 85.7098C120.811 85.6325 121.451 85.6223 121.887 85.641C122.568 85.7455 123.109 85.9418 123.563 86.2549C124.288 86.7302 124.971 87.8211 125.64 89.6041L126.204 91.2094C126.499 92.0503 126.664 92.7651 126.751 93.3787C126.697 94.8145 126.381 95.8701 125.878 96.5187C125.651 96.7273 125.512 96.8192 125.397 96.8594C124.518 97.1681 123.265 96.5347 122.586 95.6999C121.774 94.611 121.126 93.3786 120.643 92.0026C120.549 91.7351 120.482 91.544 120.48 91.4159C120.528 91.1845 120.652 90.9263 120.89 90.6278C120.929 90.6144 121.752 90.0248 121.991 89.7263C122.103 89.558 122.113 89.34 122.046 89.1489C121.844 88.5756 121.125 88.4845 119.941 88.9006C119.673 88.9945 119.52 89.0482 119.419 89.1267C117.653 90.0901 117.137 92.2891 117.956 94.6206C119.177 98.0988 120.771 99.2136 123.838 99.5107C124.467 99.5903 125.195 99.4634 126.036 99.1682C126.418 99.034 126.902 98.8213 127.435 98.5053C129.911 97.1206 131.275 94.2803 130.295 91.4901C129.987 90.6111 129.479 89.2867 128.733 87.5306C128.147 86.105 127.412 84.9893 126.579 84.2082C125.785 83.4137 124.469 82.8453 122.593 82.5165C122.131 82.4214 121.425 82.3686 120.502 82.3064C119.578 82.2442 119.066 82.2524 118.976 82.241C118.102 82.0756 117.476 81.3937 117.06 80.2088C116.617 78.9475 116.379 77.6573 116.334 76.4281C116.314 75.1473 116.724 74.3592 117.603 74.0506C118.673 73.6748 119.547 73.8402 120.238 74.5851C120.63 75.0913 121.291 76.362 121.423 76.6161C122.187 77.9364 122.584 78.6987 122.678 78.9663C122.955 79.5128 123.585 79.5924 124.617 79.2301L124.655 79.2167C125.419 78.9482 126.166 78.3854 125.965 77.8121Z" fill="#7E87B9"/>
<path d="M376.521 58.1724C376.271 58.6358 376.169 58.9951 376.141 59.3023C376.316 60.0872 376.966 60.7601 378.106 61.3759C379.069 61.8954 379.998 62.3052 380.931 62.6245C381.737 62.9217 382.631 63.3122 383.522 63.7933L383.558 63.8125C384.556 64.3514 385.19 64.3712 385.495 63.8914C386.139 62.4435 385.689 61.7406 384.085 60.8747C383.551 60.586 382.297 60.0936 380.377 59.4715C381.125 58.1718 382.299 55.9973 383.973 52.8961L387.929 45.8245C388.792 44.3109 390.04 42.0844 391.656 39.0901C391.81 38.8049 392.102 38.1797 392.236 37.9302C392.47 37.4119 392.141 36.9122 391.215 36.4119C389.753 35.6229 388.851 35.5039 388.471 36.0358C387.96 36.7266 387.463 37.5629 386.963 38.4897C386.674 39.0244 386.017 40.327 385.728 40.8617L385.497 41.2894C384.516 43.1074 383.089 45.8358 381.181 49.4553C379.273 53.0749 377.846 55.8033 376.865 57.6213C376.771 57.7089 376.656 57.9228 376.521 58.1724ZM388.885 63.6499C389.089 65.2332 390.327 67.3746 391.654 68.4131C392.007 68.6961 392.38 68.9434 392.772 69.1551C394.02 69.8286 395.178 69.9011 396.336 69.3756C396.907 69.0854 397.909 68.3375 399.343 67.1318C400.76 65.8712 402.386 63.711 404.222 60.6511C404.547 60.1356 404.97 59.3514 405.567 58.2463L405.971 57.4978C406.413 56.6779 406.724 56.017 406.919 55.57C407.805 53.3321 408.364 51.7003 408.524 50.6359C409.03 47.2261 408.124 44.8958 405.843 43.6642C405.166 43.2986 404.447 43.0948 403.706 43.0172C403.001 42.9588 402.271 43.1172 401.461 43.5087C399.858 44.3465 398.428 45.4616 397.17 46.854C396.156 47.9641 395.318 49.261 393.979 51.4846C393.328 52.6061 392.924 53.3547 392.715 53.6562C392.41 54.136 392.025 54.849 391.505 55.8114C390.505 57.6651 390.136 58.4329 389.528 59.9001C388.959 61.296 388.777 62.4865 388.885 63.6499ZM396.346 55.202C398.097 51.9582 399.825 49.4386 401.567 47.6626C402.201 47.0844 402.371 46.8541 402.984 46.4021C403.596 45.95 404.09 45.8024 404.411 45.9756C404.625 46.091 404.781 46.3134 404.863 46.5879C405.232 48.122 405.002 50.2535 404.173 52.9826C404.093 53.2157 403.901 53.5722 403.631 54.0712L403.054 55.1406L401.996 57.1012L401.207 58.5627C399.571 61.5926 397.944 63.7529 396.324 65.1339C395.58 65.745 394.44 66.833 393.335 66.2364C393.193 66.1595 392.927 65.9699 392.784 65.8929C392.738 65.0396 392.465 63.9254 392.694 62.99C392.97 61.7118 393.751 59.9238 395.002 57.6068C395.309 57.0364 396.076 55.7011 396.327 55.2377L396.346 55.202ZM433.5 59.285C433.365 58.9364 433.031 58.6178 432.496 58.3291C432.247 58.1944 432.033 58.079 431.907 58.0569C431.243 57.8367 430.788 57.913 430.469 58.2474C430.263 58.4584 430.016 58.8313 429.9 59.0452C429.672 59.3824 429.106 60.0897 428.238 61.1862C427.405 62.302 426.724 63.2231 426.249 63.9332C424.974 65.8688 422.591 69.0022 419.064 73.4047C418.99 73.4568 418.877 73.5801 418.707 73.8104C418.856 73.1082 418.991 72.2606 419.11 71.358L419.281 70.5297L419.57 69.3968L419.835 68.4808C419.895 68.2833 420.036 67.8527 420.204 67.1148C420.408 66.3962 420.57 65.8394 420.727 65.4637C420.884 65.088 421.027 64.5669 421.211 63.8839C421.396 63.2009 421.52 62.7154 421.619 62.4467C422.065 60.9382 422.261 59.893 422.242 59.3306C422.232 59.0946 422.007 58.7432 421.601 58.3861C421.514 58.2927 421.335 58.1965 421.05 58.0425C420.088 57.523 419.064 58.3971 417.361 60.1018L415.732 61.7545C415.471 61.9819 415.188 62.3355 414.792 62.8125C414.432 63.3087 414.188 63.5911 414.056 63.75L413.232 64.5942C412.82 65.0163 412.502 65.3507 412.331 65.581L411.405 66.7844L410.499 67.9522C410.735 67.3434 410.978 66.5535 411.206 65.6182C411.454 64.6472 411.62 63.9999 411.719 63.7311C411.823 63.2812 412.085 62.4557 412.484 61.2901L413.403 58.5639L413.976 56.4793C414.042 56.1008 414.243 55.4727 414.546 54.4853C414.849 53.498 415.13 52.6368 415.317 51.8632C415.505 51.0897 415.612 50.5494 415.621 50.2778C415.616 49.8607 415.284 49.4516 414.642 49.1052C414.036 48.778 412.917 48.6342 412.609 49.2045C411.955 50.4165 411.207 52.3143 410.4 54.9171L409.007 59.4591L408.195 62.243C408.049 62.8547 407.787 63.6802 407.484 64.6676C407.099 65.9787 406.342 68.1481 405.956 69.4591C405.805 70.2519 405.29 71.6314 405.067 72.3856L404.662 73.7323L404.481 74.3247C404.461 74.3604 404.401 74.5579 404.381 74.5935C404.398 74.6484 404.354 74.9008 404.296 75.0077C404.31 75.1531 404.342 75.2629 404.411 75.3919C404.545 75.7405 404.844 76.0399 405.307 76.2901C405.949 76.6364 406.473 76.6891 406.915 76.4674C407.192 76.2948 407.582 75.9989 408.068 75.5248C408.31 75.333 408.724 74.8204 408.95 74.5737C409.268 74.2393 410.134 73.2333 410.529 72.7564L412.035 70.9911C412.372 70.621 413.112 69.593 413.449 69.2229C413.881 68.7652 414.383 68.346 414.814 67.8883C415.169 67.5731 415.262 67.4854 416.147 66.4438C416.581 65.8955 416.973 65.5091 417.215 65.3173C417.121 66.0031 416.862 67.3362 416.418 69.3523L416.112 70.4302C415.947 71.0776 415.514 73.3296 414.758 77.2028C414.774 77.2577 414.653 77.6527 414.414 78.352C414.155 79.087 414.031 79.5725 413.968 79.8606C413.94 80.1678 414.184 80.4836 414.716 80.8628C414.803 80.9562 414.946 81.0331 415.16 81.1486C415.623 81.3988 416.109 81.5227 416.561 81.5369C416.885 81.6196 417.484 81.0221 417.728 80.7398C417.86 80.5808 418.371 79.8899 418.39 79.8543C418.599 79.5527 419.162 78.936 419.22 78.8291C420.242 77.4474 421.827 75.449 423.959 72.7789C426.127 70.1282 427.731 68.0941 428.811 66.6055L430.344 64.5329L431.916 62.3891C432.086 62.1588 432.314 61.8216 432.633 61.4872L433.202 60.6894L433.317 60.4755L433.51 60.1191C433.644 59.8695 433.653 59.5979 433.5 59.285ZM369.716 88.5149C369.741 88.8963 369.965 89.2477 370.409 89.5335C370.497 89.6269 370.675 89.7231 370.925 89.8578C371.388 90.108 371.838 90.2127 372.274 90.172C372.62 90.1285 372.955 89.849 373.37 89.3364C373.505 89.0869 373.785 88.8238 373.92 88.5742L374.266 87.9326C375.882 84.9383 375.117 82.1774 371.517 80.2338C370.661 79.7719 369.871 79.5297 369.202 79.4905C366.812 79.3974 364.363 81.2056 361.926 84.9536C361.469 85.628 360.914 86.5712 360.26 87.7832L359.49 89.2091L358.951 90.2072L358.932 90.2428C358.528 90.9914 358.159 91.7592 357.807 92.5819L356.809 94.9431C356.446 96.128 356.203 96.9179 356.099 97.3677C355.898 97.9958 355.765 98.7529 355.665 99.6198C355.599 99.9983 355.588 100.36 355.596 100.687C355.633 101.214 355.743 101.779 355.962 102.312C355.994 102.421 356.271 102.847 356.772 103.624C357.016 103.94 357.438 104.352 357.967 104.821C358.444 105.217 358.817 105.464 359.138 105.638L359.352 105.753C360.1 106.157 360.838 106.325 361.546 106.293C362.183 106.222 362.622 106.091 362.973 105.867C363.176 105.746 363.569 105.36 363.662 105.272C364.503 104.483 365.577 103.175 366.849 101.33L366.869 101.294C366.965 101.116 366.935 100.916 366.814 100.713C366.661 100.4 366.327 100.081 365.721 99.754L365.685 99.7348C365.364 99.5616 365.06 99.4433 364.752 99.4155C364.193 99.3436 363.828 99.4227 363.655 99.7436C363.08 100.722 362.569 101.413 362.157 101.835C361.916 102.027 361.657 102.164 361.345 102.317C360.815 102.446 360.488 102.454 360.381 102.396C359.227 101.635 358.866 101.025 359.062 99.9801C359.178 99.1681 359.29 99.0448 359.61 98.1123C359.907 97.306 360.509 96.0198 361.381 94.2347C361.614 93.7164 362.018 92.9678 362.557 91.9697L363.173 90.829L365.425 86.6583L366.233 85.1612C367.06 83.6284 368.227 82.8312 369.717 82.7148C370.024 82.7426 370.581 82.9051 371.352 83.183L371.53 83.2792L371.566 83.2985C371.596 83.4988 371.604 83.8253 371.573 84.2231C371.49 84.5467 371.215 85.2269 370.693 86.2799C370.558 86.5294 370.267 87.1546 370.132 87.4042L370.016 87.618C369.805 88.0101 369.686 88.3146 369.716 88.5149ZM388.714 92.3259C388.95 92.3152 389.231 92.0521 389.5 91.553C389.596 91.3748 389.566 91.1745 389.446 90.9713C389.169 90.5458 388.835 90.2272 388.497 89.9991C387.807 89.488 387.22 89.1252 386.756 88.8751L385.937 88.4325L384.938 87.8936L383.584 87.1624C382.693 86.6813 381.368 86.1504 379.646 85.5888C379.125 85.4456 377.687 85.6361 377.437 86.0995C377.379 86.2065 377.39 86.4424 377.472 86.7169L377.507 86.7361L377.573 86.9557C377.811 87.4525 378.485 87.9087 379.056 88.2166C379.714 88.6179 380.158 88.9037 380.479 89.0769C380.586 89.1346 380.816 89.305 380.923 89.3627L379.942 91.1807C379.535 92.0198 379.188 92.6614 378.977 93.0535L378.688 93.5882L377.014 96.6895L373.588 103.035L369.971 109.736C369.91 109.934 369.921 110.17 370.041 110.373C370.195 110.686 370.565 111.024 371.171 111.351C371.491 111.524 371.796 111.642 372.103 111.67C372.591 111.703 372.901 111.641 373.036 111.391L378.136 101.945L380.945 96.7403L381.561 95.5996L382.196 94.4233C382.427 93.9955 383.026 92.8 383.277 92.3366C383.604 91.7306 383.909 91.2507 384.156 90.8779C384.334 90.9741 385.014 91.2492 385.193 91.3454C386.945 92.1073 388.114 92.4158 388.714 92.3259ZM390.885 121.257C391.022 120.916 390.8 120.475 390.271 120.005C389.411 119.126 389.066 117.973 389.271 116.656C389.464 115.702 390.04 113.527 389.997 112.583C392.361 112.893 394.222 112.516 395.54 111.524C396.561 110.741 397.369 109.842 397.946 108.772L398.312 108.095L399.61 105.435C399.863 104.881 400.176 104.13 400.515 103.162C401.266 101.173 401.234 99.8673 400.786 98.5663C399.965 96.4199 398.529 94.8161 396.462 93.7C395.499 93.1804 394.443 92.7485 393.31 92.4592C392.427 92.3047 391.532 93.1103 390.55 94.9283C387.722 100.168 385.187 104.693 382.986 108.43C382.909 108.572 382.658 109.036 382.219 109.765C381.779 110.495 381.529 110.958 381.394 111.207C381.105 111.742 380.737 112.51 380.289 113.511C379.876 114.531 379.546 115.228 379.315 115.655C379.081 116.174 379.481 116.712 380.479 117.251L380.515 117.27C381.478 117.79 382.111 117.809 382.381 117.31C382.727 116.669 383.23 115.651 383.945 114.242C384.66 112.832 385.199 111.834 385.545 111.193L385.603 111.086L385.674 111.124L385.746 111.163L386.173 111.394C386.53 111.586 386.222 111.558 386.321 111.888C386.254 112.864 386.154 113.731 386.038 114.543C385.839 115.679 385.759 116.51 385.778 117.073C385.762 118.721 386.663 120.037 388.41 120.98C389.729 121.692 390.56 121.772 390.885 121.257ZM391.46 101.174C391.749 100.639 392.172 99.8548 392.695 98.8019C393.236 97.7132 393.66 96.929 393.948 96.3943C394.025 96.2517 394.292 95.8432 394.388 95.6649L394.459 95.7034L395.244 96.1268C395.85 96.4539 396.346 96.8139 396.661 97.1681C397.403 98.3514 397.539 99.8057 397.087 101.495C396.982 101.945 396.768 102.428 396.46 102.998C396.325 103.248 396.02 103.727 395.924 103.906C395.058 105.51 394.258 106.735 393.528 107.492C392.613 108.333 391.342 108.982 389.712 109.529C389.053 109.726 388.252 109.846 387.363 109.872C387.091 109.864 386.787 109.745 386.466 109.572C389.275 104.966 390.941 102.136 391.46 101.174Z" fill="#7E87B9"/>
<path d="M23.4003 262.653C23.4219 262.287 23.0704 261.939 22.419 261.663C21.3226 261.105 20.6277 260.123 20.4004 258.81C20.2782 257.844 20.1283 255.599 19.7859 254.718C22.1255 254.256 23.768 253.304 24.6997 251.943C25.417 250.874 25.8948 249.764 26.0999 248.566L26.2298 247.807L26.6091 244.872C26.6717 244.266 26.7286 243.454 26.7398 242.429C26.8158 240.305 26.3683 239.077 25.5274 237.988C24.0634 236.217 22.1901 235.156 19.8742 234.76C18.7962 234.575 17.6577 234.503 16.4918 234.591C15.6055 234.727 15.0148 235.777 14.6661 237.813C13.6611 243.683 12.7062 248.78 11.815 253.025C11.7876 253.184 11.6988 253.704 11.5153 254.535C11.3318 255.367 11.2429 255.886 11.1951 256.165C11.0925 256.764 10.9889 257.61 10.8841 258.701C10.8193 259.8 10.7294 260.565 10.6473 261.045C10.5915 261.61 11.1426 261.992 12.2606 262.184L12.3005 262.191C13.3786 262.375 13.9854 262.192 14.0812 261.633C14.2042 260.914 14.3557 259.789 14.5824 258.225C14.8091 256.661 15.0005 255.543 15.1236 254.824L15.1441 254.704L15.2239 254.718L15.3038 254.732L15.7829 254.814C16.1822 254.882 15.8822 254.954 16.0808 255.235C16.3296 256.182 16.5123 257.035 16.6619 257.841C16.8367 258.981 17.0262 259.794 17.2237 260.321C17.7362 261.888 19.0106 262.846 20.9671 263.181C22.4445 263.434 23.2578 263.245 23.4003 262.653ZM17.5249 243.44C17.6274 242.841 17.7778 241.963 17.9361 240.798C18.1013 239.593 18.2517 238.715 18.3543 238.116C18.3816 237.956 18.5036 237.484 18.5378 237.284L18.6176 237.298L19.496 237.448C20.1748 237.565 20.7601 237.747 21.1719 237.982C22.2536 238.866 22.847 240.2 22.9592 241.946C23.0037 242.405 22.9548 242.931 22.8454 243.57C22.7976 243.85 22.6619 244.402 22.6277 244.601C22.3201 246.398 21.9542 247.815 21.5038 248.765C20.9062 249.855 19.9094 250.876 18.5396 251.916C17.9784 252.313 17.2575 252.683 16.4237 252.992C16.1636 253.071 15.8373 253.056 15.478 252.994C16.6667 247.732 17.3403 244.518 17.5249 243.44ZM32.6683 254.253L32.8734 253.055C33.058 251.977 33.3177 250.459 33.6265 248.416C33.9352 246.373 34.195 244.856 34.3796 243.778C34.4138 243.578 34.5037 242.813 34.5584 242.493C34.743 241.415 35.0783 240.897 35.5643 240.939C36.7963 240.945 38.1424 240.764 39.5661 241.09L40.8837 241.316L40.9237 241.323C42.0416 241.514 42.6485 241.33 42.7442 240.771C42.8878 239.933 42.3411 238.565 41.5026 238.422C40.7439 238.292 39.6454 238.227 38.8867 238.097L37.3295 237.83C36.7306 237.728 36.2116 237.639 35.7792 237.524C35.4666 237.429 34.3486 237.238 33.89 237.036C33.777 236.976 33.5774 236.941 33.3378 236.9C32.2997 236.723 31.7385 237.12 31.4158 237.804C31.2277 238.183 31.0122 238.721 30.9233 239.241C30.8891 239.44 30.7193 240.192 30.6919 240.352C30.6042 240.624 30.5563 240.904 30.5016 241.223C30.4469 241.543 30.3638 242.268 30.3159 242.548L29.8374 245.343L29.3588 248.138L28.6547 252.25C28.3869 254.054 28.1477 255.451 27.9836 256.41L27.2247 260.842C27.0128 262.079 27.0027 262.859 27.1545 263.172C27.6829 264.167 29.0051 264.845 31.0814 265.201C31.4408 265.262 32.0465 265.325 32.8656 265.342L35.8088 265.435C36.6746 265.419 38.63 266 38.8078 264.962C38.8283 264.842 38.7427 264.622 38.5772 264.388C38.2394 263.961 37.4751 263.624 36.2373 263.412C35.8779 263.351 34.9128 263.227 34.4736 263.151C33.715 263.022 32.0448 262.694 31.2463 262.558L31.3215 262.119L31.4309 261.48L32.0598 257.806C33.5246 257.893 35.6739 258.302 37.1124 258.301C37.5983 258.344 38.3387 258.1 38.4139 257.661C38.5574 256.823 38.0359 255.788 37.0776 255.624C36.5186 255.528 35.7531 255.438 34.788 255.314C33.8229 255.19 33.0643 255.06 32.5452 254.971L32.6683 254.253ZM58.0767 241.383C56.9986 241.198 56.3781 241.462 56.1421 242.12C55.9608 242.459 55.5845 243.216 55.4967 243.489C55.3086 243.868 54.3325 246.208 52.5287 250.502L51.5584 253.048C51.2951 253.866 50.8162 255.223 50.1287 257.078L49.0023 260.296C48.7132 257.904 48.5206 253.268 48.4907 246.482L48.4059 244.577L48.3747 242.598C48.3712 241.899 48.4144 241.167 48.3093 240.82C48.2443 240.48 48.072 240.286 47.7594 240.192C47.181 239.969 46.7885 239.861 46.509 239.813C45.3511 239.615 44.6565 240.071 44.465 241.189C44.2189 242.627 44.353 245.444 44.6194 248.449C44.7725 249.955 44.8549 250.914 44.8595 251.367L45.2217 259.813C45.2663 260.273 45.3098 260.979 45.4457 261.865C45.6582 263.505 45.8718 264.898 46.1401 265.971C46.1984 266.351 46.3171 266.618 46.4164 266.758C46.6674 267.212 47.1523 267.5 47.9109 267.63C48.9091 267.801 50.1092 267.514 50.425 266.869C51.5881 264.397 52.4569 262.203 53.0178 260.367C53.7338 258.106 54.5706 255.619 55.4883 252.899C55.5898 252.547 56.0812 251.357 56.8759 249.356C56.9569 249.123 57.6433 247.514 58.9283 244.57C59.332 243.653 59.5612 243.034 59.6227 242.675C59.7389 241.996 59.2346 241.581 58.0767 241.383ZM63.3704 259.51L63.5755 258.312C63.7601 257.234 64.0199 255.716 64.3286 253.673C64.6374 251.63 64.8972 250.113 65.0817 249.035C65.1159 248.835 65.2059 248.07 65.2606 247.75C65.4452 246.672 65.7805 246.154 66.2664 246.196C67.4985 246.202 68.8445 246.021 70.2683 246.347L71.5859 246.573L71.6258 246.58C72.7438 246.771 73.3507 246.587 73.4464 246.028C73.5899 245.19 73.0432 243.822 72.2047 243.678C71.4461 243.549 70.3475 243.484 69.5889 243.354L68.0317 243.087C67.4328 242.985 66.9137 242.896 66.4813 242.781C66.1688 242.686 65.0508 242.495 64.5921 242.293C64.4792 242.232 64.2795 242.198 64.04 242.157C63.0018 241.979 62.4407 242.377 62.118 243.061C61.9298 243.44 61.7143 243.978 61.6255 244.497C61.5913 244.697 61.4214 245.449 61.3941 245.609C61.3063 245.881 61.2585 246.161 61.2038 246.48C61.1491 246.8 61.0659 247.525 61.0181 247.805L60.5395 250.6L60.061 253.395L59.3568 257.507C59.0891 259.311 58.8498 260.708 58.6857 261.667L57.9269 266.099C57.715 267.336 57.7049 268.115 57.8566 268.429C58.385 269.424 59.7073 270.102 61.7836 270.458C62.1429 270.519 62.7487 270.582 63.5677 270.599L66.5109 270.692C67.3768 270.676 69.3322 271.257 69.5099 270.219C69.5304 270.099 69.4448 269.879 69.2794 269.645C68.9416 269.217 68.1772 268.881 66.9395 268.669C66.5801 268.608 65.615 268.483 65.1758 268.408C64.4171 268.278 62.747 267.951 61.9484 267.815L62.0236 267.375L62.133 266.737L62.762 263.063C64.2267 263.15 66.376 263.559 67.8145 263.558C68.3005 263.6 69.0408 263.357 69.116 262.918C69.2596 262.08 68.738 261.045 67.7798 260.881C67.2208 260.785 66.4553 260.695 65.4902 260.571C64.5251 260.447 63.7664 260.317 63.2474 260.228L63.3704 259.51ZM88.8256 246.607C87.7076 246.415 87.1008 246.599 87.0051 247.158L84.8447 259.775C84.7764 260.174 84.6738 260.773 84.504 261.525C84.3342 262.277 84.2316 262.876 84.1633 263.275L83.6699 260.396C83.43 258.916 83.2153 257.77 82.9858 256.95C82.7564 256.13 82.4698 254.683 82.0324 252.677C81.5951 250.67 81.2423 249.13 80.9604 248.137L80.8816 247.877C80.4489 246.323 80.3712 245.817 79.5098 244.847C79.0659 244.319 78.5411 244.024 77.9422 243.921L77.9022 243.914C76.7843 243.723 76.1774 243.907 76.0817 244.466C76.0259 245.031 75.8824 245.87 75.724 247.035C75.5657 248.199 75.4221 249.038 75.3663 249.604C75.1522 251.334 74.7409 253.976 74.1462 257.45L71.7602 271.385C71.7044 271.951 72.2555 272.333 73.3336 272.518L73.3735 272.524C74.4915 272.716 75.0983 272.532 75.194 271.973L77.6962 257.359L78.0996 255.004L78.2978 253.846L78.5439 252.408C78.6148 252.955 78.6662 253.374 78.7381 253.674C78.9014 254.401 79.2337 256.061 79.8285 258.587C80.4234 261.114 80.8208 263.114 81.0743 264.514C81.353 266.246 81.641 268.885 81.9646 272.516C81.9419 273.128 82.453 273.504 83.5311 273.688C84.4894 273.852 85.8765 273.432 86.0064 272.674C86.1841 271.635 86.314 270.877 86.4428 270.365C86.7961 268.781 86.9728 267.989 86.9796 267.949L88.3537 259.924L88.8665 256.929L89.8988 250.9L90.4389 247.746C90.4947 247.18 89.9436 246.798 88.8655 246.613L88.8256 246.607ZM105.836 259.506C106.014 258.468 106.227 256.984 106.442 255.007C106.698 253.037 106.863 251.832 106.931 251.433C106.972 251.193 107.006 250.993 106.987 250.867C107.05 250.261 106.498 249.879 105.38 249.688C105.021 249.626 104.655 249.604 104.355 249.676C103.882 249.801 103.601 249.999 103.553 250.279C103.368 251.357 103.105 253.613 102.921 254.692C102.859 255.051 102.735 256.016 102.674 256.375C102.632 256.861 102.508 257.58 102.344 258.538L102.126 259.816C102.023 260.415 101.685 261.672 101.582 262.271C100.462 268.573 98.9329 272.462 97.035 273.945C96.6209 274.203 96.2605 274.388 96.0403 274.474C95.1458 273.458 94.6447 272.303 94.5509 270.931C94.465 269.272 94.6802 267.295 95.2203 264.141C95.4869 262.584 95.6784 261.466 95.7478 260.82L95.8299 260.341C95.913 259.615 96.0976 258.537 96.3437 257.1C96.5966 255.623 96.7812 254.544 96.8643 253.819C96.9122 253.539 96.9817 252.894 97.0158 252.694L97.1936 251.656C97.5491 249.58 97.4211 248.407 95.8639 248.14C93.9873 247.819 93.5185 248.396 93.163 250.473C93.1015 250.832 92.9158 252.156 92.8064 252.795L91.8562 258.345C91.781 258.785 91.7047 259.47 91.5874 260.395C91.5395 260.675 91.4438 261.234 91.347 262.039C91.257 262.805 91.1613 263.364 91.1135 263.643C91.0314 264.122 90.8925 265.414 90.8105 265.893C90.7626 266.172 90.6795 266.898 90.6316 267.177C90.5564 267.617 90.5017 267.936 90.5075 268.143C90.3721 270.133 90.5846 271.772 91.1382 273.1C91.2637 273.327 91.5615 273.748 92.0317 274.363C92.3032 274.697 92.7744 275.065 93.4852 275.475C94.342 275.991 95.1064 276.328 95.7784 276.484L96.1377 276.545C97.0161 276.696 97.9356 276.607 98.8629 276.231C99.35 276.027 99.9112 275.63 100.493 275.113C101.77 273.893 102.629 272.478 103.109 270.876C103.284 270.33 103.649 269.16 103.738 268.641C104.647 265.015 105.088 263.159 105.101 263.079C105.523 261.096 105.734 260.105 105.741 260.065L105.836 259.506ZM110.9 276.278L111.057 273.921C111.115 272.863 111.226 271.978 111.309 271.252L114.459 271.339C115.231 271.389 115.597 271.411 115.637 271.418C116.416 271.428 117.689 271.194 117.832 270.602C117.922 269.836 117.112 269.286 115.435 268.999L114.476 268.835C113.798 268.719 112.093 268.592 111.734 268.53C111.885 267.405 111.989 266.56 112.092 265.961C112.194 265.362 112.473 263.971 112.576 263.373C112.719 262.534 112.871 261.409 113.03 259.998C113.19 258.587 113.341 257.462 113.485 256.624C113.628 255.785 113.819 254.914 114.049 254.049C114.216 254.036 114.941 254.119 116.232 254.258C117.571 254.364 118.629 254.422 119.455 254.399C120.328 254.343 120.968 254.206 121.422 253.955C121.695 253.796 121.843 253.657 121.87 253.497C121.918 253.218 121.686 252.89 121.168 252.555C120.065 252.038 118.296 251.57 115.94 251.167C115.62 251.112 115.141 251.03 114.469 250.874C113.837 250.725 113.398 250.649 113.119 250.602C111.042 250.246 110.333 251.029 109.93 253.385L109.854 253.824L109.622 255.181C109.554 255.581 109.451 256.18 109.361 256.945C109.271 257.71 109.208 258.316 109.147 258.676C109.092 258.995 108.977 259.427 108.929 259.707C108.758 260.705 108.549 262.889 108.378 263.887C108.296 264.366 108.065 265.477 107.983 265.956L107.976 265.996C107.9 266.435 107.749 267.56 107.667 268.039C107.564 268.638 107.278 270.069 107.169 270.708L107.073 271.267L106.875 272.425C106.793 272.904 106.641 274.028 106.559 274.508C106.484 274.947 106.22 276.011 106.145 276.45C106.035 277.089 106.519 277.624 107.556 278.048C107.975 278.243 108.52 278.419 109.159 278.528C109.518 278.59 110.829 278.855 111.428 278.958C114.303 279.45 116.194 279.445 117.055 278.976C117.423 278.751 117.623 278.539 117.671 278.26C117.678 278.22 117.659 278.093 117.606 277.92C117.409 277.393 116.771 277.037 115.653 276.845C115.094 276.75 114.289 276.653 113.277 276.562C112.265 276.471 111.499 276.381 110.98 276.292L110.9 276.278ZM136.049 262.254C135.878 263.253 135.599 264.643 135.252 266.433C135.068 267.265 134.755 268.855 134.225 271.23C133.735 273.612 133.38 275.442 133.162 276.72C132.888 278.317 132.682 279.761 132.583 281.059C132.6 281.679 133.111 282.054 134.189 282.239L134.229 282.245C135.028 282.382 136.147 282.327 136.249 281.728C136.352 281.129 136.518 279.678 136.621 279.079C137.927 271.453 139.073 265.238 140.074 260.354C140.156 259.875 140.508 258.538 140.61 257.939C140.843 256.581 140.707 255.695 140.203 255.28C139.957 255.033 139.499 254.831 138.86 254.721C137.742 254.53 137.135 254.714 137.039 255.273C136.903 256.071 136.744 257.236 136.517 258.8C136.338 260.331 136.179 261.496 136.049 262.254ZM155.3 266.249C155.915 262.656 155.586 260.257 154.28 259.005C153.046 257.808 151.611 257.069 150.054 256.802C148.177 256.481 145.789 257.469 144.405 258.589C143.683 259.205 143.111 260.628 142.728 262.864C142.297 265.379 142.376 267.078 143.005 267.966C143.667 268.901 144.717 269.492 146.232 270.245C146.996 270.581 147.561 270.883 147.933 271.111C148.477 271.533 148.855 271.968 149.099 272.462C149.502 273.229 149.569 274.515 149.288 276.399L149.001 278.076C148.85 278.954 148.647 279.659 148.425 280.237C147.68 281.466 146.891 282.235 146.137 282.558C145.837 282.63 145.671 282.643 145.551 282.622C144.632 282.465 143.845 281.303 143.657 280.243C143.476 278.897 143.509 277.505 143.755 276.068C143.803 275.788 143.837 275.589 143.898 275.476C144.052 275.297 144.285 275.131 144.639 274.986C144.679 274.993 145.685 274.878 146.039 274.733C146.219 274.64 146.333 274.454 146.367 274.255C146.47 273.656 145.885 273.227 144.648 273.015C144.368 272.967 144.208 272.94 144.082 272.959C142.071 272.944 140.552 274.615 140.135 277.051C139.512 280.684 140.364 282.433 142.9 284.182C143.411 284.557 144.109 284.8 144.988 284.951C145.387 285.019 145.913 285.068 146.532 285.051C149.369 285.043 151.942 283.223 152.441 280.308C152.598 279.39 152.797 277.986 152.999 276.089C153.179 274.558 153.078 273.225 152.73 272.138C152.422 271.058 151.548 269.922 150.068 268.723C149.709 268.415 149.118 268.027 148.342 267.524C147.565 267.021 147.113 266.779 147.04 266.725C146.356 266.156 146.141 265.256 146.352 264.018C146.578 262.701 146.996 261.457 147.554 260.361C148.158 259.231 148.9 258.742 149.818 258.899C150.936 259.091 151.62 259.66 151.862 260.646C151.959 261.279 151.919 262.711 151.911 262.997C151.938 264.523 151.914 265.382 151.866 265.661C151.843 266.274 152.355 266.649 153.433 266.834L153.473 266.84C154.271 266.977 155.197 266.848 155.3 266.249ZM172.081 260.862C170.963 260.67 170.356 260.854 170.26 261.413L168.1 274.03C168.032 274.429 167.929 275.028 167.759 275.78C167.589 276.532 167.487 277.131 167.418 277.53L166.925 274.651C166.685 273.171 166.471 272.025 166.241 271.205C166.012 270.385 165.725 268.938 165.288 266.932C164.85 264.925 164.498 263.385 164.216 262.392L164.137 262.132C163.704 260.578 163.626 260.072 162.765 259.102C162.321 258.574 161.796 258.279 161.197 258.176L161.157 258.169C160.039 257.978 159.433 258.162 159.337 258.721C159.281 259.286 159.138 260.125 158.979 261.29C158.821 262.454 158.677 263.293 158.622 263.859C158.407 265.589 157.996 268.231 157.401 271.705L155.015 285.64C154.96 286.206 155.511 286.588 156.589 286.773L156.629 286.779C157.747 286.971 158.354 286.787 158.449 286.228L160.951 271.614L161.355 269.259L161.553 268.101L161.799 266.663C161.87 267.21 161.921 267.629 161.993 267.929C162.157 268.656 162.489 270.316 163.084 272.842C163.679 275.369 164.076 277.369 164.33 278.769C164.608 280.501 164.896 283.14 165.22 286.771C165.197 287.383 165.708 287.759 166.786 287.943C167.745 288.107 169.132 287.687 169.262 286.929C169.439 285.89 169.569 285.132 169.698 284.62C170.051 283.036 170.228 282.244 170.235 282.204L171.609 274.179L172.122 271.184L173.154 265.155L173.694 262.001C173.75 261.435 173.199 261.053 172.121 260.868L172.081 260.862ZM177.005 268.979C177.525 269.068 178.071 268.997 178.572 268.713C179.939 268.166 180.702 267.311 180.914 266.073C181.16 264.635 180.649 262.822 179.687 261.958C179.428 261.791 179.275 261.723 179.155 261.703L178.956 261.669C178.676 261.621 178.343 261.646 177.95 261.784C177.036 262.08 176.522 262.444 176.446 262.883C176.385 263.242 176.976 263.631 177.141 263.865C177.267 264.092 177.372 264.439 177.483 264.992C177.502 265.119 177.553 265.539 177.564 266.198C177.557 266.238 177.556 266.484 177.535 266.604C177.46 267.043 177.293 267.302 177.072 267.388C176.506 267.578 176.204 267.897 176.136 268.296C176.075 268.655 176.327 268.863 176.846 268.952L177.005 268.979ZM195.769 267.383C195.989 267.298 196.171 266.959 196.266 266.4C196.3 266.2 196.208 266.02 196.029 265.866C195.631 265.551 195.212 265.356 194.82 265.248C194.002 264.985 193.33 264.829 192.811 264.74L191.892 264.582L190.774 264.391L189.257 264.131C188.259 263.96 186.834 263.881 185.022 263.899C184.483 263.93 183.181 264.57 183.092 265.09C183.072 265.209 183.158 265.429 183.323 265.663L183.363 265.67L183.495 265.857C183.88 266.252 184.665 266.468 185.304 266.578C186.055 266.748 186.568 266.876 186.927 266.938C187.047 266.958 187.319 267.046 187.439 267.067L187.09 269.103C186.973 270.028 186.85 270.747 186.775 271.186L186.672 271.785L186.078 275.259L184.861 282.366L183.575 289.873C183.581 290.079 183.667 290.299 183.846 290.453C184.091 290.701 184.55 290.902 185.229 291.019C185.588 291.08 185.914 291.095 186.214 291.023C186.688 290.899 186.961 290.74 187.009 290.46L188.821 279.88L189.819 274.05L190.038 272.772L190.263 271.455C190.345 270.976 190.531 269.651 190.62 269.132C190.736 268.453 190.872 267.901 190.987 267.469C191.187 267.503 191.919 267.546 192.119 267.58C194.023 267.742 195.228 267.661 195.769 267.383ZM48.3244 319.112C49.123 319.249 50.0493 319.12 50.1518 318.521C50.2338 318.042 50.4173 317.21 50.7023 316.026C51.0272 314.849 51.2107 314.017 51.2927 313.538C51.491 312.38 51.8317 310.63 51.9206 310.111C51.9958 309.672 52.1746 308.387 52.2566 307.908C52.3534 307.103 51.5114 306.26 50.6272 305.903C50.3945 305.822 50.042 305.72 49.5628 305.638L48.8042 305.508C45.9693 305.023 44.4704 305.136 44.3541 305.815C44.2779 306.501 45.3412 307.012 46.4192 307.196C46.8584 307.271 47.8771 307.322 48.3163 307.398C48.4361 307.418 48.4624 307.505 48.435 307.665L48.4077 307.824C48.3803 307.984 48.2857 308.297 48.2652 308.416L47.6841 311.81C47.5952 312.329 47.4733 312.802 47.325 313.187C47.1301 313.606 46.4764 313.823 45.6905 313.853C45.2775 313.864 44.6045 313.954 44.2851 313.9C43.5354 313.237 42.9945 312.076 42.7352 310.47C42.6151 309.011 42.6742 307.706 42.8793 306.508C42.9135 306.308 43.0491 305.756 43.0833 305.556L43.596 302.562L44.1408 299.86C44.6434 297.645 45.1769 295.969 45.7824 294.593C46.3195 293.617 47.1224 292.768 48.1113 292.033C48.7056 291.682 49.2189 291.565 49.665 291.6C49.6581 291.64 49.7642 291.74 49.8042 291.747C50.3599 292.582 50.6282 293.656 50.6889 294.981C50.6878 295.228 50.6925 295.68 50.6162 296.366C50.5467 297.012 50.5445 297.505 50.6165 297.805C50.701 298.271 51.5247 298.741 52.2035 298.857C52.8024 298.96 53.2621 298.915 53.6625 298.737C54.1096 298.526 54.4392 297.801 54.6511 296.564L54.7195 296.164C55.0203 294.408 54.8614 292.695 54.2028 291.021C53.6298 289.566 52.1342 288.94 49.6187 288.51C46.6241 287.997 44.3542 289.252 42.849 292.283C42.2641 293.539 41.8057 294.775 41.474 295.993C40.4914 299.811 39.8805 302.419 39.6481 303.776C38.9166 308.049 39.0758 311.199 40.1257 313.229C40.912 314.637 42.1601 315.509 43.877 315.803C44.5159 315.912 45.2551 315.915 45.635 315.857L47.248 315.558C47.2138 315.757 47.1055 316.15 46.963 316.742C46.8205 317.334 46.7522 317.733 46.718 317.933C46.6154 318.532 47.5259 318.975 48.2845 319.105L48.3244 319.112ZM66.9363 318.806C66.9579 318.439 66.6065 318.092 65.955 317.816C64.8587 317.258 64.1637 316.276 63.9365 314.963C63.8142 313.997 63.6643 311.752 63.3219 310.871C65.6615 310.409 67.304 309.457 68.2358 308.096C68.9531 307.027 69.4308 305.917 69.6359 304.719L69.7658 303.96L70.1451 301.025C70.2077 300.419 70.2646 299.607 70.2758 298.581C70.3518 296.457 69.9044 295.23 69.0634 294.141C67.5995 292.369 65.7261 291.309 63.4103 290.912C62.3322 290.728 61.1937 290.656 60.0279 290.744C59.1415 290.88 58.5508 291.93 58.2022 293.966C57.1972 299.835 56.2423 304.933 55.351 309.178C55.3237 309.337 55.2348 309.856 55.0513 310.688C54.8678 311.52 54.779 312.039 54.7311 312.318C54.6285 312.917 54.5249 313.762 54.4202 314.854C54.3554 315.953 54.2654 316.718 54.1834 317.197C54.1276 317.763 54.6787 318.145 55.7966 318.337L55.8366 318.344C56.9146 318.528 57.5215 318.344 57.6172 317.785C57.7403 317.067 57.8917 315.942 58.1184 314.378C58.3451 312.814 58.5366 311.696 58.6596 310.977L58.6801 310.857L58.76 310.871L58.8398 310.885L59.319 310.967C59.7183 311.035 59.4183 311.107 59.6168 311.388C59.8657 312.334 60.0484 313.188 60.198 313.994C60.3727 315.134 60.5623 315.947 60.7597 316.474C61.2723 318.041 62.5467 318.999 64.5032 319.334C65.9805 319.587 66.7938 319.398 66.9363 318.806ZM61.0609 299.593C61.1635 298.994 61.3139 298.116 61.4722 296.951C61.6374 295.746 61.7878 294.868 61.8903 294.269C61.9177 294.109 62.0396 293.637 62.0738 293.437L62.1537 293.451L63.0321 293.601C63.7109 293.717 64.2961 293.9 64.708 294.135C65.7896 295.019 66.3831 296.353 66.4952 298.098C66.5398 298.558 66.4908 299.084 66.3815 299.723C66.3336 300.002 66.198 300.555 66.1638 300.754C65.8561 302.551 65.4902 303.968 65.0398 304.918C64.4423 306.008 63.4455 307.029 62.0756 308.069C61.5144 308.466 60.7936 308.835 59.9597 309.145C59.6996 309.223 59.3734 309.209 59.014 309.147C60.2028 303.885 60.8763 300.671 61.0609 299.593ZM76.4599 321.875C77.2584 322.011 77.9977 322.015 78.6844 321.845C78.8977 321.799 79.2513 321.654 79.752 321.37C81.0672 320.65 82.2259 319.163 83.1346 316.976C84.0833 314.796 84.8072 312.248 85.3063 309.334C85.6002 307.617 85.8086 305.68 85.9314 303.522C86.1143 299.814 85.7065 297.155 84.708 295.545C84.0929 294.577 82.9703 293.933 81.3332 293.652C80.4548 293.502 79.7224 293.459 79.1692 293.569C78.1026 293.798 76.9997 294.719 75.9334 296.386C74.7668 298.158 73.9138 299.78 73.3745 301.249C72.9367 302.366 72.5298 304.022 72.1674 306.139L71.8871 307.776C71.7972 308.541 71.7083 309.06 71.6468 309.42C71.3175 311.583 71.3066 314.047 71.6871 316.865C72.0607 319.724 73.6649 321.396 76.4599 321.875ZM80.509 296.306C81.1878 296.422 81.9924 298.204 82.1376 299.996C82.2063 301.035 82.1951 302.061 82.104 303.073C81.7898 306.348 81.5199 308.644 81.2943 309.962C81.0824 311.2 80.8179 312.264 80.5478 313.122L80.1362 314.325L79.6642 315.642C79.5832 315.875 79.3951 316.254 79.1465 316.745C78.5547 318.041 77.8795 318.624 76.7057 318.999C76.473 318.918 76.2607 318.717 76.0291 318.39C75.5133 317.562 75.172 316.435 74.9652 315.002C74.8052 313.536 74.8312 312.184 75.0169 310.86C75.1342 309.935 75.3803 308.497 75.7016 306.62C76.1597 303.945 76.822 301.757 77.6886 300.056C77.9509 299.485 78.4071 298.741 79.0708 297.745C79.7345 296.749 80.2295 296.258 80.509 296.306ZM100.037 326.035C100.209 326.229 100.468 326.396 100.901 326.511C101.014 326.572 101.213 326.606 101.493 326.654C102.052 326.75 102.511 326.705 102.872 326.52C103.426 326.163 103.46 325.963 103.69 325.345C103.75 325.232 103.885 324.926 103.905 324.807C104.127 324.228 104.243 323.796 104.324 323.563C104.628 322.506 104.844 321.721 105.067 321.142L106.056 318.722C106.892 316.482 107.864 313.689 108.964 310.384C109.49 308.748 110.057 307.119 110.664 305.497C111.291 303.755 111.608 302.864 111.628 302.744C111.919 301.766 112.089 301.014 112.178 300.495C112.239 300.136 112.28 299.896 112.274 299.69C112.33 299.124 111.819 298.749 110.701 298.557C110.342 298.496 109.975 298.474 109.675 298.546C109.202 298.671 108.928 298.829 108.841 299.102C108.727 299.288 108.611 299.72 108.577 299.92L108.307 300.778L107.624 303.086C107.416 303.584 106.916 305.06 106.787 305.573C106.579 306.071 106.266 307.415 106.058 307.914C105.68 308.918 105.14 310.633 104.397 313.054L102.856 317.969C102.775 316.763 102.516 315.157 102.039 313.144C101.665 311.724 101.46 310.044 101.156 307.979C101.047 306.933 100.938 306.133 100.86 305.626C100.802 305.247 100.694 303.954 100.583 303.401C100.373 302.707 100.694 302.516 99.9353 302.386C99.7356 302.351 99.4493 302.344 99.123 302.329C98.8367 302.321 98.5698 302.44 98.296 302.598C98.0691 302.724 97.8752 302.896 97.7212 303.075C97.6208 303.181 97.4999 303.407 97.3255 303.706L96.9287 304.583C96.5182 305.541 95.9994 306.89 95.3187 308.705C94.6449 310.48 94.1729 311.797 93.8228 312.641C93.7282 312.954 93.3987 313.678 93.3041 313.991C93.2026 314.343 92.8788 315.274 92.6975 315.613C92.7112 315.533 92.6849 315.447 92.6655 315.32L92.6365 312.849C92.6513 312.523 92.6067 312.063 92.5894 311.444C92.5722 310.824 92.587 310.498 92.5607 310.411C92.4354 305.622 92.5338 301.447 92.9358 297.899C92.9505 297.573 92.7919 297.299 92.493 297.125C92.4599 297.078 92.3801 297.064 92.3869 297.024C92.1085 296.73 91.6499 296.528 91.0509 296.426L91.011 296.419C90.6517 296.357 90.3254 296.343 90.0254 296.415C89.5121 296.532 89.2315 296.731 89.1905 296.97L89.1836 297.01C89.0947 297.529 89.0526 298.015 89.0972 298.475C89.1213 299.055 89.1511 299.841 89.1 300.859C89.115 301.971 89.1779 302.804 89.2089 303.344C89.2398 303.883 89.2559 304.749 89.2242 305.895C89.1982 307.246 89.2294 309.224 89.2847 311.782C89.34 314.34 89.3518 316.191 89.3269 317.296C89.3693 318.249 89.3674 320.18 89.29 321.112C89.2753 321.439 89.2195 322.004 89.2094 322.784C89.1889 322.903 89.2277 323.157 89.2072 323.276C89.1856 323.643 89.4241 323.93 89.869 324.212C90.128 324.379 90.4805 324.481 90.8399 324.542C91.0794 324.583 91.2791 324.617 91.4057 324.598C91.7719 324.62 92.1118 324.555 92.4255 324.403C92.8327 324.185 93.2547 323.641 93.6583 322.723L94.0152 321.839L94.9035 319.772C95.1931 319.041 96.259 315.935 98.0547 310.489C98.0809 310.576 97.9786 312.613 98.1477 313.546C98.2196 313.846 98.2699 314.512 98.3019 314.805L98.5522 316.944C98.6356 317.657 98.7784 318.504 98.9542 319.397L99.4044 323.009C99.5655 324.228 99.6306 324.568 99.7734 325.414C99.8054 325.707 99.8978 325.888 100.037 326.035ZM114.04 307.184C113.869 308.183 113.59 309.573 113.243 311.363C113.059 312.195 112.746 313.785 112.216 316.16C111.726 318.542 111.371 320.372 111.152 321.65C110.879 323.247 110.673 324.691 110.574 325.99C110.591 326.609 111.102 326.984 112.18 327.169L112.22 327.176C113.019 327.312 114.138 327.257 114.24 326.658C114.343 326.059 114.509 324.608 114.612 324.009C115.918 316.383 117.064 310.168 118.064 305.284C118.147 304.805 118.499 303.468 118.601 302.869C118.834 301.512 118.698 300.625 118.194 300.21C117.948 299.963 117.49 299.761 116.851 299.651C115.733 299.46 115.126 299.644 115.03 300.203C114.893 301.001 114.735 302.166 114.508 303.73C114.328 305.261 114.17 306.426 114.04 307.184ZM131.821 303.201C131.746 303.64 131.623 304.359 131.419 305.31C131.215 306.262 131.092 306.981 131.003 307.5C130.852 308.378 130.62 309.736 130.352 311.539C130.085 313.343 129.899 314.667 129.742 315.586L129.126 319.179C129.081 318.966 128.931 318.159 128.624 316.833C128.501 316.113 128.265 315.086 127.965 313.72C127.665 312.353 127.47 311.333 127.346 310.613C127.052 307.768 126.781 305.996 126.604 305.349C126.479 304.876 126.137 303.995 125.656 302.721C125.4 302.06 124.696 301.611 123.458 301.399C122.859 301.297 122.385 301.421 122.044 301.733C121.89 301.912 121.749 302.257 121.653 302.816L119.459 315.633L119.09 317.789L118.727 319.906L118.351 322.102C118.249 322.701 118.098 323.579 117.86 324.73C117.622 325.881 117.472 326.76 117.362 327.398C117.232 328.157 118.302 328.628 118.981 328.744C120.059 328.929 120.666 328.745 120.802 328.193C121.012 327.448 121.181 326.696 121.311 325.937C121.386 325.498 121.503 324.819 121.613 323.934L121.948 321.978C122.064 321.299 122.209 320.214 122.408 318.81C122.615 317.365 122.759 316.281 122.882 315.562C123.101 314.284 123.42 312.9 123.873 311.457C123.996 312.177 124.245 313.124 124.606 314.377C124.966 315.631 125.203 316.411 125.268 316.751C125.372 317.344 125.797 319.184 126.542 322.271C127.288 325.358 127.691 327.564 127.824 328.943C127.882 329.569 127.94 329.949 127.966 330.036C128.184 330.443 128.636 330.685 129.315 330.801C130.552 331.013 131.206 330.796 131.355 330.164C131.58 329.093 131.763 328.261 131.88 327.583C132.023 326.744 132.228 325.546 132.455 323.982C132.682 322.418 132.88 321.26 133.01 320.502C133.147 319.703 133.501 317.873 133.638 317.075C133.774 316.276 133.94 315.071 134.18 313.427C134.42 311.784 134.639 310.506 134.79 309.627C134.878 309.108 135.144 307.798 135.226 307.318C135.308 306.839 135.447 305.548 135.676 303.491C135.645 302.952 135.167 302.623 134.209 302.459C133.21 302.288 131.937 302.522 131.821 303.201ZM144.72 335.617C145.519 335.754 146.445 335.625 146.547 335.026C146.629 334.547 146.813 333.715 147.098 332.531C147.423 331.354 147.606 330.522 147.688 330.043C147.887 328.885 148.227 327.135 148.316 326.616C148.391 326.177 148.57 324.892 148.652 324.413C148.749 323.607 147.907 322.765 147.023 322.408C146.79 322.327 146.438 322.225 145.958 322.143L145.2 322.013C142.365 321.528 140.866 321.641 140.75 322.32C140.673 323.006 141.737 323.516 142.815 323.701C143.254 323.776 144.273 323.827 144.712 323.903C144.832 323.923 144.858 324.01 144.831 324.17L144.803 324.329C144.776 324.489 144.681 324.802 144.661 324.921L144.08 328.315C143.991 328.834 143.869 329.307 143.721 329.692C143.526 330.111 142.872 330.328 142.086 330.358C141.673 330.369 141 330.459 140.681 330.405C139.931 329.742 139.39 328.581 139.131 326.975C139.011 325.516 139.07 324.211 139.275 323.013C139.309 322.813 139.445 322.261 139.479 322.061L139.992 319.067L140.536 316.365C141.039 314.15 141.573 312.474 142.178 311.098C142.715 310.121 143.518 309.273 144.507 308.538C145.101 308.187 145.615 308.07 146.061 308.105C146.054 308.145 146.16 308.245 146.2 308.252C146.756 309.087 147.024 310.16 147.085 311.486C147.083 311.732 147.088 312.185 147.012 312.871C146.942 313.517 146.94 314.009 147.012 314.309C147.097 314.776 147.92 315.246 148.599 315.362C149.198 315.465 149.658 315.42 150.058 315.242C150.505 315.031 150.835 314.306 151.047 313.069L151.115 312.669C151.416 310.913 151.257 309.2 150.598 307.526C150.025 306.071 148.53 305.445 146.014 305.015C143.02 304.502 140.75 305.757 139.245 308.787C138.66 310.044 138.201 311.28 137.87 312.497C136.887 316.316 136.276 318.924 136.044 320.281C135.312 324.554 135.471 327.704 136.521 329.734C137.308 331.142 138.556 332.014 140.273 332.308C140.912 332.417 141.651 332.42 142.031 332.362L143.644 332.063C143.609 332.262 143.501 332.655 143.359 333.247C143.216 333.839 143.148 334.238 143.114 334.438C143.011 335.037 143.921 335.48 144.68 335.61L144.72 335.617Z" fill="#7E87B9"/>
<path d="M400.452 270.142C400.354 269.684 399.88 269.562 398.994 269.752C398.658 269.824 398.365 269.951 398.171 270.089C397.677 270.323 397.442 270.565 397.501 270.84C397.704 271.787 397.989 273.261 398.391 275.285C398.787 277.278 399.115 278.806 399.332 279.814C399.378 280.028 399.459 280.554 399.511 280.799C399.597 281.196 399.704 281.844 399.851 282.676C399.997 283.508 400.135 284.15 400.22 284.547L401.402 290.048C401.568 290.524 402.371 290.543 402.86 290.438L402.891 290.432C403.716 290.254 404.727 289.75 404.615 289.23L403.978 286.266C403.893 285.868 403.653 284.897 403.574 284.53C404.13 284.443 404.956 284.265 406.025 284.036L407.584 283.701C407.706 283.675 408.263 283.587 408.416 283.554C408.785 285.425 409.057 286.838 409.26 287.785L409.267 287.816C409.376 288.176 409.656 288.435 410.16 288.551C410.407 288.658 410.695 288.66 411.092 288.574C411.673 288.45 412.323 288.054 412.225 287.596L412.002 286.557C411.89 286.037 411.733 285.304 411.547 284.289C411.361 283.274 411.203 282.54 411.098 282.051C410.809 280.707 410.418 279.032 409.893 277.035C409.84 276.79 409.679 276.186 409.626 275.941C409.222 274.206 408.751 272.165 408.252 269.842C408.141 269.323 408.023 268.772 407.935 268.216C407.789 267.832 407.284 267.716 406.459 267.893C405.879 268.018 405.222 268.383 405.327 268.872C406.132 272.919 406.587 275.187 406.698 275.707L407.072 277.449C407.267 278.206 407.392 278.787 407.477 279.184L407.667 280.07C407.713 280.284 407.755 280.627 407.823 281.092C407.891 281.557 407.913 281.808 407.932 281.9L407.352 282.024L406.19 282.274C405.121 282.504 404.13 282.652 403.149 282.703L403.077 282.367C402.959 281.817 402.782 280.992 402.515 279.898C402.242 278.774 402.065 277.949 401.946 277.399C401.868 277.032 401.75 276.482 401.561 275.755L401.214 274.135C401.122 273.707 400.984 273.065 400.837 272.234C400.684 271.371 400.564 270.662 400.452 270.142ZM415.3 276.193C415.123 275.368 414.917 274.262 414.666 272.941C414.408 271.59 414.241 270.666 414.13 270.147C413.819 268.551 413.594 267.352 413.423 266.558C413.36 266.412 413.235 266.278 413.063 266.22C412.779 266.089 412.515 266.05 412.239 266.109L412.209 266.115C411.934 266.174 411.665 266.264 411.471 266.401C411.076 266.646 410.843 267.048 410.74 267.613C410.695 267.847 410.682 268.233 410.756 268.729C410.83 269.225 410.879 269.598 410.938 269.873L411.003 270.179C411.082 270.545 411.231 271.089 411.419 271.816C411.568 272.359 411.745 273.184 411.974 274.254L412.303 275.782L413.189 279.908C413.195 279.938 413.495 281.185 414.094 283.678C414.173 284.045 414.291 284.595 414.472 285.291C414.654 285.987 414.772 286.537 414.844 286.874C414.851 286.904 414.914 287.05 414.934 287.142C415.063 287.594 415.567 287.709 416.392 287.532C416.667 287.473 416.936 287.384 417.13 287.246L417.403 287.028C417.536 286.903 417.595 286.731 417.562 286.578C417.383 285.593 417.074 284.157 416.674 282.293C416.575 281.834 416.431 281.162 416.204 280.252C415.976 279.341 415.832 278.669 415.733 278.21L415.471 276.988L415.3 276.193ZM428.798 286.787C429.409 286.655 430.036 286.297 429.937 285.839C429.858 285.472 429.751 284.823 429.615 283.894C429.51 282.957 429.403 282.309 429.324 281.942C429.134 281.056 428.876 279.704 428.79 279.307C428.718 278.971 428.478 277.999 428.399 277.633C428.237 277.028 427.392 276.666 426.656 276.664C426.466 276.673 426.185 276.702 425.818 276.78L425.237 276.905C423.067 277.371 422.026 277.882 422.138 278.402C422.28 278.915 423.188 278.975 424.013 278.798C424.35 278.726 425.094 278.47 425.43 278.398C425.522 278.378 425.565 278.433 425.592 278.555L425.618 278.678C425.644 278.8 425.666 279.051 425.686 279.142L426.244 281.74C426.329 282.137 426.377 282.511 426.382 282.83C426.362 283.185 425.956 283.528 425.402 283.775C425.109 283.902 424.653 284.16 424.409 284.212C423.682 283.953 422.961 283.276 422.314 282.2C421.809 281.19 421.477 280.238 421.28 279.321C421.248 279.168 421.186 278.734 421.153 278.581L420.661 276.289L420.276 274.198C420 272.467 419.901 271.113 419.94 269.954C420.045 269.1 420.376 268.262 420.874 267.452C421.199 267.03 421.533 266.799 421.862 266.696C421.869 266.726 421.974 266.768 422.004 266.761C422.642 267.2 423.142 267.892 423.566 268.824C423.636 269 423.769 269.323 423.911 269.836C424.047 270.319 424.187 270.672 424.324 270.867C424.519 271.177 425.244 271.277 425.763 271.165C426.222 271.067 426.538 270.903 426.774 270.66C427.033 270.381 427.062 269.767 426.858 268.82L426.792 268.514C426.504 267.17 425.898 265.989 424.946 264.978C424.118 264.101 422.867 264.082 420.942 264.496C418.65 264.988 417.384 266.538 417.176 269.141C417.117 270.208 417.144 271.226 417.256 272.193C417.648 275.21 417.959 277.253 418.182 278.292C418.884 281.562 419.902 283.773 421.237 284.925C422.204 285.709 423.348 285.975 424.663 285.692C425.152 285.587 425.682 285.378 425.937 285.227L427.007 284.55C427.04 284.702 427.075 285.015 427.143 285.48C427.21 285.945 427.276 286.25 427.309 286.403C427.407 286.861 428.187 286.918 428.767 286.793L428.798 286.787ZM431.24 263.531C431.141 263.073 430.668 262.951 429.781 263.141C429.445 263.213 429.153 263.34 428.958 263.478C428.465 263.711 428.23 263.954 428.289 264.229C428.492 265.176 428.776 266.65 429.179 268.673C429.575 270.666 429.903 272.194 430.12 273.203C430.166 273.417 430.247 273.943 430.299 274.187C430.385 274.585 430.492 275.233 430.638 276.065C430.785 276.897 430.923 277.538 431.008 277.936L432.189 283.437C432.356 283.913 433.159 283.932 433.648 283.827L433.679 283.82C434.504 283.643 435.514 283.138 435.403 282.619L434.766 279.654C434.681 279.257 434.44 278.286 434.361 277.919C434.918 277.831 435.743 277.654 436.813 277.424L438.372 277.09C438.494 277.064 439.05 276.976 439.203 276.943C439.573 278.814 439.844 280.226 440.048 281.174L440.054 281.204C440.164 281.564 440.443 281.824 440.948 281.94C441.194 282.047 441.483 282.049 441.88 281.963C442.46 281.839 443.111 281.443 443.012 280.985L442.789 279.946C442.678 279.426 442.52 278.693 442.334 277.678C442.148 276.662 441.991 275.929 441.886 275.44C441.597 274.095 441.205 272.421 440.681 270.424C440.628 270.179 440.466 269.574 440.414 269.33C440.009 267.595 439.539 265.553 439.04 263.231C438.929 262.711 438.81 262.161 438.723 261.605C438.576 261.22 438.072 261.105 437.247 261.282C436.666 261.407 436.009 261.772 436.114 262.261C436.919 266.308 437.375 268.576 437.486 269.095L437.86 270.837C438.055 271.595 438.18 272.176 438.265 272.573L438.455 273.459C438.501 273.673 438.543 274.016 438.611 274.481C438.678 274.946 438.7 275.197 438.72 275.289L438.139 275.413L436.978 275.663C435.908 275.892 434.917 276.041 433.937 276.092L433.865 275.756C433.747 275.206 433.57 274.38 433.303 273.287C433.029 272.163 432.852 271.337 432.734 270.787C432.655 270.421 432.537 269.87 432.349 269.144L432.001 267.524C431.909 267.096 431.772 266.454 431.625 265.622C431.472 264.76 431.351 264.051 431.24 263.531ZM459.697 261.672C460.553 261.489 460.935 261.183 460.867 260.718C460.834 260.565 460.755 260.198 460.674 259.672C460.593 259.146 460.508 258.749 460.462 258.535C460.442 258.443 460.379 258.297 460.303 258.09C459.549 256.813 458.023 256.405 455.761 256.891C454.63 257.134 453.742 257.612 453.041 258.37C452.498 258.966 452.193 259.927 452.078 261.326C451.987 262.689 452.016 263.865 452.127 264.832C452.239 265.8 452.44 267.035 452.683 268.613C452.797 269.292 452.911 269.971 453.049 270.613C453.528 272.844 454.16 274.595 454.944 275.865C455.182 276.229 455.593 276.653 456.176 277.135C457.429 278.209 458.912 278.562 460.623 278.194C462.518 277.787 463.469 276.56 463.477 274.512L463.484 273.648L463.367 272.362C463.328 271.731 463.29 271.259 463.323 270.964C463.139 270.556 462.666 270.434 461.871 270.605C461.046 270.782 460.664 271.088 460.695 271.529C460.757 273.753 460.775 275.028 460.755 275.384C460.677 275.913 460.64 276.336 459.968 276.481L459.876 276.5C459.845 276.507 459.845 276.507 459.808 276.483L459.747 276.496C459.439 276.402 459.162 276.302 458.902 276.134C457.745 275.359 456.772 273.362 456.352 271.406L456.254 270.948C455.985 269.695 455.819 268.771 455.748 268.147C455.746 267.988 455.685 267.553 455.571 266.874L455.376 265.222C455.321 264.818 455.301 264.279 455.249 263.587C455.196 262.895 455.2 262.318 455.268 261.888C455.407 260.452 455.875 258.912 457.063 258.785L457.246 258.746C457.528 258.717 457.733 258.929 457.893 259.374L457.991 259.833C458.057 260.138 458.131 260.634 458.239 261.282C458.429 261.721 458.903 261.843 459.697 261.672ZM472.423 261.817C472.193 260.747 472.023 259.953 471.88 259.44C471.738 258.927 471.539 258.298 471.266 257.622C470.707 256.207 469.942 255.476 468.833 255.075C468.241 254.85 467.486 254.757 466.641 254.842C466.421 254.858 465.98 254.888 465.366 254.86C464.753 254.832 464.274 254.839 463.938 254.911C463.633 254.977 463.34 255.103 463.091 255.285C462.55 255.593 462.435 256.545 462.776 258.134C462.835 258.409 463.004 259.044 463.049 259.258L463.259 260.236L463.463 261.183C463.515 261.428 463.616 262.046 463.662 262.26C463.925 263.93 464.439 266.473 465.18 269.926L465.43 271.088C465.502 271.424 465.655 272.286 465.734 272.653L466.088 274.303C466.276 275.03 466.388 275.55 466.46 275.886C466.62 276.331 467.094 276.453 467.919 276.276C468.53 276.145 469.187 275.78 469.088 275.321L468.419 272.204C468.572 272.171 468.779 272.095 469.004 271.951C469.668 271.616 470.388 270.95 471.226 269.939C472.539 268.314 473.01 266.039 472.661 263.077C472.646 262.856 472.567 262.489 472.469 262.031L472.423 261.817ZM469.143 260.092C469.701 262.689 469.92 264.752 469.801 266.281C469.642 267.178 469.07 268.388 468.758 268.87L467.96 270.065C467.756 269.117 467.515 267.698 467.231 265.777C466.977 263.85 466.716 262.339 466.487 261.269L466.053 259.252L465.522 256.777C466.4 256.844 466.952 256.885 467.155 256.938C468.105 257.341 468.776 258.38 469.143 260.092ZM482.063 256.87C482.918 256.686 483.3 256.38 483.232 255.915C483.2 255.762 483.121 255.396 483.04 254.869C482.959 254.343 482.874 253.946 482.828 253.732C482.808 253.64 482.745 253.494 482.668 253.287C481.914 252.01 480.388 251.602 478.127 252.088C476.996 252.331 476.108 252.809 475.407 253.567C474.864 254.163 474.558 255.124 474.443 256.524C474.352 257.886 474.381 259.063 474.493 260.03C474.605 260.997 474.806 262.232 475.049 263.811C475.163 264.49 475.277 265.169 475.415 265.81C475.894 268.041 476.525 269.792 477.31 271.062C477.548 271.427 477.958 271.85 478.541 272.332C479.795 273.406 481.278 273.759 482.989 273.391C484.884 272.984 485.835 271.757 485.843 269.709L485.849 268.845L485.733 267.559C485.693 266.928 485.656 266.457 485.689 266.162C485.505 265.754 485.031 265.632 484.237 265.802C483.411 265.979 483.03 266.285 483.06 266.726C483.122 268.951 483.14 270.226 483.121 270.582C483.043 271.11 483.006 271.534 482.333 271.678L482.242 271.698C482.211 271.704 482.211 271.704 482.174 271.68L482.113 271.693C481.805 271.6 481.528 271.499 481.268 271.331C480.11 270.557 479.138 268.56 478.718 266.604L478.62 266.145C478.35 264.892 478.184 263.969 478.114 263.344C478.112 263.185 478.05 262.751 477.937 262.072L477.742 260.419C477.687 260.015 477.667 259.476 477.614 258.784C477.562 258.092 477.566 257.516 477.633 257.086C477.772 255.649 478.241 254.11 479.429 253.982L479.612 253.943C479.894 253.915 480.099 254.126 480.258 254.572L480.357 255.03C480.423 255.336 480.497 255.831 480.604 256.48C480.794 256.918 481.268 257.04 482.063 256.87Z" fill="#7E87B9"/>
<path d="M192.664 21.1709L213.739 54.8653L190.576 50.9204L206.526 64.7631L160.745 66.0623L205.648 82.6266L179.945 99.6876L212.925 95.0456L178.748 129.249L225.124 108.75L232.746 144.822L250.527 96.8701L305.335 129.485L265.448 81.6219L292.162 67.1387L264.263 62.7988L273.225 8.33636L248.707 44.2206L233.59 16.7106L233.12 47.5138L192.664 21.1709Z" fill="#9CA4FF"/>
<path d="M212.323 46.0857L224.61 64.7864L211.576 62.8637L220.709 70.4525L195.078 71.7739L220.471 80.5222L206.313 90.4599L224.724 87.4212L206.062 107.12L231.754 94.9807L236.536 115.193L245.817 87.9641L276.988 105.622L253.961 79.1861L268.722 70.6868L253.029 68.6026L257.277 37.821L244.05 58.3422L235.19 43.047L235.364 60.3973L212.323 46.0857Z" fill="#3B47BC"/>
<path d="M228.201 63.8444L233.368 71.805L227.916 70.9673L231.747 74.2046L221.032 74.7238L231.664 78.4799L225.76 82.6765L233.453 81.4163L225.682 89.7504L236.405 84.6376L238.437 93.228L242.273 81.6812L255.335 89.23L245.664 77.9672L251.822 74.3824L245.257 73.4718L246.983 60.4084L241.486 69.1004L237.757 62.5914L237.858 69.9589L228.201 63.8444Z" fill="#F3F7FD"/>
</svg>
