<svg width="152" height="96" viewBox="0 0 152 96" fill="none" xmlns="http://www.w3.org/2000/svg">
<mask id="mask0" mask-type="alpha" maskUnits="userSpaceOnUse" x="0" y="0" width="152" height="96">
<rect y="0.799988" width="152" height="94.24" rx="1.52" fill="#E84855"/>
</mask>
<g mask="url(#mask0)">
<circle opacity="0.2" cx="127.68" cy="19.8" r="43.7" stroke="#2B3A67" stroke-width="0.76"/>
<circle opacity="0.2" cx="127.68" cy="74.52" r="43.7" stroke="#2B3A67" stroke-width="0.76"/>
<path d="M26.6965 73.1447C26.6965 74.5659 26.2367 75.7279 25.3171 76.6308C24.4142 77.5169 23.2271 78.052 21.7557 78.2359V80.468H20.1255V78.261C18.7377 78.1774 17.5506 77.8012 16.5641 77.1324C15.5777 76.4636 14.8671 75.5523 14.4323 74.3987L16.9153 72.9691C17.5005 74.4405 18.5705 75.2597 20.1255 75.4269V70.2103C19.3731 69.9261 18.7628 69.6753 18.2947 69.4579C17.8265 69.2238 17.3249 68.9061 16.7899 68.5049C16.2715 68.1036 15.8786 67.6187 15.6111 67.0502C15.3603 66.465 15.2349 65.7879 15.2349 65.0187C15.2349 63.6143 15.7031 62.4773 16.6394 61.6079C17.5757 60.7384 18.7377 60.2368 20.1255 60.1031V57.896H21.7557V60.1281C23.9962 60.4291 25.5511 61.5744 26.4206 63.5641L23.9878 64.9686C23.5531 63.8818 22.8091 63.2213 21.7557 62.9873V67.9531C22.2907 68.1537 22.692 68.3126 22.9595 68.4296C23.2438 68.5467 23.6116 68.7222 24.0631 68.9563C24.5312 69.1904 24.8907 69.4245 25.1415 69.6585C25.3923 69.8926 25.6515 70.1769 25.919 70.5113C26.2032 70.8457 26.4039 71.2386 26.5209 71.69C26.6379 72.1247 26.6965 72.6096 26.6965 73.1447ZM18.1191 65.0187C18.1191 65.5371 18.2696 65.9634 18.5705 66.2978C18.8882 66.6322 19.4065 66.9666 20.1255 67.301V62.9371C19.5069 63.0374 19.0136 63.2715 18.6458 63.6393C18.2947 64.0072 18.1191 64.467 18.1191 65.0187ZM21.7557 75.4019C22.4245 75.2681 22.9345 75.0006 23.2856 74.5993C23.6367 74.198 23.8123 73.7215 23.8123 73.1697C23.8123 72.618 23.6451 72.1749 23.3107 71.8405C22.9763 71.4894 22.4579 71.155 21.7557 70.8373V75.4019ZM32.6893 60.404H35.1973V77.96H32.3131V63.4889L28.7768 64.4921L28.0746 62.0342L32.6893 60.404ZM50.3504 75.8031C49.1466 77.4584 47.4579 78.2861 45.2843 78.2861C43.1107 78.2861 41.4136 77.4584 40.193 75.8031C38.9892 74.1479 38.3873 71.9408 38.3873 69.182C38.3873 66.4232 38.9892 64.2162 40.193 62.5609C41.4136 60.9056 43.1107 60.078 45.2843 60.078C47.4579 60.078 49.1466 60.9056 50.3504 62.5609C51.571 64.2162 52.1813 66.4232 52.1813 69.182C52.1813 71.9408 51.571 74.1479 50.3504 75.8031ZM45.2843 75.4771C46.5884 75.4771 47.5833 74.9337 48.2688 73.8469C48.9543 72.7601 49.2971 71.2051 49.2971 69.182C49.2971 67.1589 48.9543 65.6039 48.2688 64.5171C47.5833 63.4303 46.5884 62.8869 45.2843 62.8869C43.9968 62.8869 43.002 63.4303 42.2997 64.5171C41.6142 65.6039 41.2715 67.1589 41.2715 69.182C41.2715 71.2051 41.6142 72.7601 42.2997 73.8469C43.002 74.9337 43.9968 75.4771 45.2843 75.4771ZM66.4519 75.8031C65.248 77.4584 63.5593 78.2861 61.3857 78.2861C59.2121 78.2861 57.515 77.4584 56.2945 75.8031C55.0906 74.1479 54.4887 71.9408 54.4887 69.182C54.4887 66.4232 55.0906 64.2162 56.2945 62.5609C57.515 60.9056 59.2121 60.078 61.3857 60.078C63.5593 60.078 65.248 60.9056 66.4519 62.5609C67.6724 64.2162 68.2827 66.4232 68.2827 69.182C68.2827 71.9408 67.6724 74.1479 66.4519 75.8031ZM61.3857 75.4771C62.6899 75.4771 63.6847 74.9337 64.3702 73.8469C65.0558 72.7601 65.3985 71.2051 65.3985 69.182C65.3985 67.1589 65.0558 65.6039 64.3702 64.5171C63.6847 63.4303 62.6899 62.8869 61.3857 62.8869C60.0983 62.8869 59.1034 63.4303 58.4012 64.5171C57.7157 65.6039 57.3729 67.1589 57.3729 69.182C57.3729 71.2051 57.7157 72.7601 58.4012 73.8469C59.1034 74.9337 60.0983 75.4771 61.3857 75.4771Z" fill="white"/>
<path d="M126.811 35.3138C132.125 35.3138 135.189 33.5225 136.626 32.3655C136.676 32.3249 136.711 32.2676 136.724 32.2038C136.737 32.14 136.726 32.0737 136.695 32.0168C136.663 31.9599 136.612 31.916 136.552 31.8929C136.491 31.8699 136.424 31.8691 136.362 31.8907C133.254 32.9707 129.99 33.5328 126.699 33.5544C122.51 33.5544 118.72 32.0224 116.725 31.029C116.667 30.9845 116.593 30.9652 116.52 30.9753C116.447 30.9854 116.381 31.0241 116.336 31.0828C116.292 31.1416 116.273 31.2155 116.283 31.2885C116.293 31.3614 116.331 31.4274 116.39 31.4718C119.26 34.0119 122.979 35.3829 126.811 35.3138Z" fill="#310054"/>
<path d="M138.501 30.3627C136.426 29.7363 135.034 30.4505 134.475 30.8654C134.453 30.8812 134.437 30.9037 134.428 30.9295C134.42 30.9553 134.42 30.9831 134.428 31.0089C134.437 31.0347 134.453 31.0571 134.475 31.0729C134.497 31.0887 134.524 31.0971 134.551 31.0968C135.401 31.0968 137.503 31.0968 137.671 31.392C137.838 31.6873 137.356 33.4387 137.128 34.2766C137.12 34.3041 137.121 34.3336 137.132 34.3603C137.143 34.3869 137.162 34.4092 137.187 34.4235C137.212 34.4378 137.241 34.4433 137.269 34.4391C137.298 34.4349 137.324 34.4212 137.344 34.4002C137.813 33.9278 138.185 33.3675 138.437 32.7514C138.69 32.1353 138.818 31.4754 138.816 30.8096C138.82 30.7108 138.791 30.6136 138.734 30.5329C138.677 30.4522 138.595 30.3924 138.501 30.3627Z" fill="#310054"/>
<path d="M128.658 21.8488H127.126C125.965 21.8488 121.577 22.4393 121.577 26.8239C121.577 31.2085 126.229 30.7058 126.54 30.634C127.211 30.4646 127.846 30.1754 128.415 29.7802C128.747 29.557 129.15 29.4663 129.545 29.5261C129.94 29.586 130.299 29.792 130.549 30.1034C130.621 30.2095 130.715 30.2992 130.824 30.3665C130.933 30.4338 131.055 30.4772 131.182 30.4938C131.309 30.5103 131.438 30.4998 131.561 30.4627C131.684 30.4257 131.797 30.3631 131.894 30.2789L133.242 29.0262C133.387 28.892 133.481 28.7129 133.511 28.5181C133.541 28.3232 133.504 28.1241 133.406 27.953C132.782 26.9534 132.433 25.8072 132.393 24.6296V21.4379C132.405 19.7024 132.532 16 127.561 16C124.629 16 123.173 17.1331 122.438 18.2661C122.293 18.4966 122.208 18.7606 122.194 19.0329C122.179 19.3052 122.234 19.5767 122.354 19.8216C122.474 20.0665 122.655 20.2765 122.879 20.4316C123.104 20.5868 123.364 20.6818 123.635 20.7078H123.671C123.986 20.743 124.304 20.6865 124.587 20.5449C124.87 20.4033 125.107 20.1827 125.267 19.9098C125.493 19.5148 125.827 19.1924 126.23 18.9804C126.633 18.7684 127.088 18.6756 127.541 18.713C128.172 18.713 129.061 18.9803 129.061 19.7622C129.061 20.8953 129.061 21.4339 129.061 21.4339C129.059 21.5413 129.017 21.6439 128.942 21.721C128.867 21.7981 128.766 21.8438 128.658 21.8488ZM129.125 23.7758C129.499 23.7475 129.875 23.7408 130.25 23.7559C130.387 23.7559 130.518 23.8101 130.614 23.9066C130.711 24.0031 130.765 24.134 130.765 24.2705C130.765 24.407 130.711 24.5379 130.614 24.6344C130.518 24.731 130.387 24.7852 130.25 24.7852C130.043 24.7852 129.795 24.7852 129.54 24.8291C129.439 24.8436 129.346 24.8902 129.274 24.9622C129.202 25.0341 129.155 25.1274 129.141 25.228C129.105 25.5959 128.992 25.9521 128.811 26.2742C128.63 26.5963 128.383 26.8772 128.088 27.0992C127.686 27.4186 127.196 27.6079 126.683 27.6418C125.127 27.6418 125.171 26.2334 125.53 25.5632C125.889 24.8929 126.735 23.8476 129.121 23.7718L129.125 23.7758Z" fill="#310054"/>
<path d="M23.1906 44.7883V45.2991C23.1906 46.3205 22.8537 47.1575 22.1798 47.8101C21.5059 48.4556 20.6264 48.7783 19.5411 48.7783C18.392 48.7783 17.4414 48.4059 16.6896 47.6611C15.9448 46.9163 15.5724 46.0013 15.5724 44.916C15.5724 43.8378 15.9448 42.9263 16.6896 42.1815C17.4414 41.4296 18.3707 41.0537 19.4772 41.0537C20.1724 41.0537 20.8072 41.2133 21.3818 41.5325C21.9564 41.8517 22.4032 42.2808 22.7224 42.8199L21.6691 43.4264C21.4705 43.0717 21.1761 42.788 20.786 42.5752C20.3958 42.3553 19.9596 42.2454 19.4772 42.2454C18.697 42.2454 18.055 42.5007 17.5514 43.0115C17.0478 43.5222 16.796 44.1606 16.796 44.9267C16.796 45.6927 17.0478 46.3276 17.5514 46.8312C18.0621 47.3348 18.7289 47.5867 19.5517 47.5867C20.2114 47.5867 20.7469 47.4341 21.1584 47.1291C21.5769 46.817 21.8429 46.4021 21.9564 45.8843H19.4666V44.7883H23.1906ZM25.624 42.3092C25.4821 42.4511 25.3119 42.522 25.1133 42.522C24.9147 42.522 24.7409 42.4511 24.5919 42.3092C24.4501 42.1603 24.3791 41.9865 24.3791 41.7879C24.3791 41.5892 24.4501 41.419 24.5919 41.2771C24.7338 41.1282 24.9076 41.0537 25.1133 41.0537C25.319 41.0537 25.4928 41.1282 25.6346 41.2771C25.7765 41.419 25.8474 41.5892 25.8474 41.7879C25.8474 41.9865 25.773 42.1603 25.624 42.3092ZM24.5387 48.64V43.32H25.6878V48.64H24.5387ZM30.1138 42.1603C29.2767 42.0822 28.8582 42.4333 28.8582 43.2136V43.32H30.1138V44.4266H28.8582V48.64H27.7091V44.4266H26.9005V43.32H27.7091V43.2136C27.7091 42.483 27.9113 41.9297 28.3156 41.5538C28.727 41.1707 29.3264 41.004 30.1138 41.0537V42.1603ZM34.2458 44.4266H32.9264V46.9802C32.9264 47.2001 32.976 47.3597 33.0754 47.459C33.1747 47.5512 33.3201 47.6044 33.5116 47.6186C33.7102 47.6257 33.9549 47.6221 34.2458 47.6079V48.64C33.3662 48.7464 32.7349 48.6719 32.3518 48.4166C31.9688 48.1541 31.7773 47.6753 31.7773 46.9802V44.4266H30.7984V43.32H31.7773V42.1709L32.9264 41.8304V43.32H34.2458V44.4266Z" fill="white"/>
<g opacity="0.8" filter="url(#filter0_f)">
<rect x="14.4399" y="12.96" width="126.16" height="94.24" rx="1.52" fill="#FFCB8A" fill-opacity="0.59"/>
</g>
<g filter="url(#filter1_i)">
<rect y="0.799988" width="152" height="94.24" rx="1.52" fill="#FF833E"/>
<rect y="0.799988" width="152" height="94.24" rx="1.52" fill="url(#paint0_linear)"/>
</g>
<rect x="34.6401" y="-7.56" width="12.16" height="67.2623" transform="rotate(44.0898 34.6401 -7.56)" fill="#FDF0F1"/>
<circle opacity="0.2" cx="131.86" cy="23.98" r="39.52" stroke="white" stroke-width="0.76"/>
<circle cx="131.86" cy="84.78" r="39.9" fill="url(#paint1_linear)"/>
<path d="M29.1251 68.7916C29.1251 70.5208 28.5749 71.9258 27.4745 73.0066C26.3741 74.0677 24.9396 74.7063 23.1711 74.9225V77.5163H21.1962V74.952C19.5456 74.8341 18.1307 74.3723 16.9517 73.5666C15.7727 72.761 14.9277 71.6704 14.4168 70.2948L17.9244 68.261C18.5532 69.833 19.6438 70.7271 21.1962 70.9433V65.844C21.1766 65.844 21.1667 65.844 21.1667 65.844L21.1078 65.8145C20.42 65.5591 19.86 65.3331 19.4277 65.1366C18.9954 64.9401 18.4845 64.6552 17.8949 64.2818C17.3251 63.9084 16.8731 63.5253 16.5391 63.1323C16.2247 62.7196 15.9397 62.1989 15.6843 61.5701C15.4485 60.9412 15.3306 60.2535 15.3306 59.5068C15.3306 57.7775 15.8906 56.3922 17.0107 55.3507C18.1504 54.3092 19.5456 53.7099 21.1962 53.5527V50.9883H23.1711V53.6116C25.8435 53.9261 27.73 55.3114 28.8304 57.7677L25.4112 59.772C24.9396 58.593 24.1929 57.8758 23.1711 57.6203V62.5427C24.9986 63.2698 26.2267 63.8495 26.8555 64.2818C28.3686 65.3626 29.1251 66.8658 29.1251 68.7916ZM19.3687 59.5362C19.3687 59.9685 19.5063 60.3517 19.7814 60.6858C20.0565 61.0002 20.5281 61.3244 21.1962 61.6585V57.5319C20.6067 57.6498 20.1547 57.8856 19.8403 58.2393C19.5259 58.593 19.3687 59.0253 19.3687 59.5362ZM23.1711 70.8843C24.4287 70.6092 25.0575 69.9215 25.0575 68.821C25.0575 68.3298 24.9003 67.9171 24.5859 67.5831C24.2911 67.249 23.8195 66.9346 23.1711 66.6399V70.8843ZM36.096 53.9359H39.633V74.5688H35.5654V58.2393L31.6746 59.3299L30.6725 55.8518L36.096 53.9359ZM51.5231 74.9814C48.9488 74.9814 46.9249 74.0088 45.4511 72.0634C43.997 70.0983 43.2699 67.4946 43.2699 64.2523C43.2699 61.01 43.997 58.4162 45.4511 56.4708C46.9249 54.5057 48.9488 53.5232 51.5231 53.5232C54.1169 53.5232 56.1409 54.5057 57.595 56.4708C59.0492 58.4162 59.7762 61.01 59.7762 64.2523C59.7762 67.4946 59.0492 70.0983 57.595 72.0634C56.1409 74.0088 54.1169 74.9814 51.5231 74.9814ZM48.3986 69.2927C49.1061 70.4324 50.1475 71.0022 51.5231 71.0022C52.8986 71.0022 53.94 70.4226 54.6475 69.2632C55.3745 68.1038 55.7381 66.4335 55.7381 64.2523C55.7381 62.0515 55.3745 60.3714 54.6475 59.212C53.94 58.0526 52.8986 57.4729 51.5231 57.4729C50.1475 57.4729 49.1061 58.0526 48.3986 59.212C47.6912 60.3714 47.3375 62.0515 47.3375 64.2523C47.3375 66.4532 47.6912 68.1333 48.3986 69.2927ZM70.5805 74.9814C68.0063 74.9814 65.9823 74.0088 64.5085 72.0634C63.0544 70.0983 62.3273 67.4946 62.3273 64.2523C62.3273 61.01 63.0544 58.4162 64.5085 56.4708C65.9823 54.5057 68.0063 53.5232 70.5805 53.5232C73.1743 53.5232 75.1983 54.5057 76.6524 56.4708C78.1066 58.4162 78.8336 61.01 78.8336 64.2523C78.8336 67.4946 78.1066 70.0983 76.6524 72.0634C75.1983 74.0088 73.1743 74.9814 70.5805 74.9814ZM67.4561 69.2927C68.1635 70.4324 69.2049 71.0022 70.5805 71.0022C71.956 71.0022 72.9975 70.4226 73.7049 69.2632C74.432 68.1038 74.7955 66.4335 74.7955 64.2523C74.7955 62.0515 74.432 60.3714 73.7049 59.212C72.9975 58.0526 71.956 57.4729 70.5805 57.4729C69.2049 57.4729 68.1635 58.0526 67.4561 59.212C66.7486 60.3714 66.3949 62.0515 66.3949 64.2523C66.3949 66.4532 66.7486 68.1333 67.4561 69.2927Z" fill="white"/>
<path d="M126.811 35.3138C132.125 35.3138 135.189 33.5225 136.626 32.3655C136.676 32.3249 136.711 32.2676 136.724 32.2038C136.737 32.14 136.726 32.0737 136.695 32.0168C136.663 31.9599 136.612 31.916 136.552 31.8929C136.491 31.8699 136.424 31.8691 136.362 31.8907C133.254 32.9707 129.99 33.5328 126.699 33.5544C122.51 33.5544 118.72 32.0224 116.725 31.029C116.667 30.9845 116.593 30.9652 116.52 30.9753C116.447 30.9854 116.381 31.0241 116.336 31.0828C116.292 31.1416 116.273 31.2155 116.283 31.2885C116.293 31.3614 116.331 31.4274 116.39 31.4718C119.26 34.0119 122.979 35.3829 126.811 35.3138Z" fill="white"/>
<path d="M138.501 30.3627C136.426 29.7363 135.034 30.4505 134.475 30.8654C134.453 30.8812 134.437 30.9037 134.428 30.9295C134.42 30.9553 134.42 30.9831 134.428 31.0089C134.437 31.0347 134.453 31.0571 134.475 31.0729C134.497 31.0887 134.524 31.0971 134.551 31.0968C135.401 31.0968 137.503 31.0968 137.671 31.392C137.838 31.6873 137.356 33.4387 137.128 34.2766C137.12 34.3041 137.121 34.3336 137.132 34.3603C137.143 34.3869 137.162 34.4092 137.187 34.4235C137.212 34.4378 137.241 34.4433 137.269 34.4391C137.298 34.4349 137.324 34.4212 137.344 34.4002C137.813 33.9278 138.185 33.3675 138.437 32.7514C138.69 32.1353 138.818 31.4754 138.816 30.8096C138.82 30.7108 138.791 30.6136 138.734 30.5329C138.677 30.4522 138.595 30.3924 138.501 30.3627Z" fill="white"/>
<path d="M128.658 21.8488H127.126C125.965 21.8488 121.577 22.4393 121.577 26.8239C121.577 31.2085 126.229 30.7058 126.54 30.634C127.211 30.4646 127.846 30.1754 128.415 29.7802C128.747 29.557 129.15 29.4663 129.545 29.5261C129.94 29.586 130.299 29.792 130.549 30.1034C130.621 30.2095 130.715 30.2992 130.824 30.3665C130.933 30.4338 131.055 30.4772 131.182 30.4938C131.309 30.5103 131.438 30.4998 131.561 30.4627C131.684 30.4257 131.797 30.3631 131.894 30.2789L133.242 29.0262C133.387 28.892 133.481 28.7129 133.511 28.5181C133.541 28.3232 133.504 28.1241 133.406 27.953C132.782 26.9534 132.433 25.8072 132.393 24.6296V21.4379C132.405 19.7024 132.532 16 127.561 16C124.629 16 123.173 17.1331 122.438 18.2661C122.293 18.4966 122.208 18.7606 122.194 19.0329C122.179 19.3052 122.234 19.5767 122.354 19.8216C122.474 20.0665 122.655 20.2765 122.879 20.4316C123.104 20.5868 123.364 20.6818 123.635 20.7078H123.671C123.986 20.743 124.304 20.6865 124.587 20.5449C124.87 20.4033 125.107 20.1827 125.267 19.9098C125.493 19.5148 125.827 19.1924 126.23 18.9804C126.633 18.7684 127.088 18.6756 127.541 18.713C128.172 18.713 129.061 18.9803 129.061 19.7622C129.061 20.8953 129.061 21.4339 129.061 21.4339C129.059 21.5413 129.017 21.6439 128.942 21.721C128.867 21.7981 128.766 21.8438 128.658 21.8488ZM129.125 23.7758C129.499 23.7475 129.875 23.7408 130.25 23.7559C130.387 23.7559 130.518 23.8101 130.614 23.9066C130.711 24.0031 130.765 24.134 130.765 24.2705C130.765 24.407 130.711 24.5379 130.614 24.6344C130.518 24.731 130.387 24.7852 130.25 24.7852C130.043 24.7852 129.795 24.7852 129.54 24.8291C129.439 24.8436 129.346 24.8902 129.274 24.9622C129.202 25.0341 129.155 25.1274 129.141 25.228C129.105 25.5959 128.992 25.9521 128.811 26.2742C128.63 26.5963 128.383 26.8772 128.088 27.0992C127.686 27.4186 127.196 27.6079 126.683 27.6418C125.127 27.6418 125.171 26.2334 125.53 25.5632C125.889 24.8929 126.735 23.8476 129.121 23.7718L129.125 23.7758Z" fill="white"/>
<path d="M15.9486 19.7067L16.3361 20.0393C17.1113 20.7045 17.527 21.5053 17.5834 22.4417C17.6344 23.3734 17.3065 24.2511 16.5997 25.0747C15.8513 25.9467 14.9497 26.4255 13.8948 26.511C12.8446 26.5912 11.9077 26.2778 11.0841 25.5711C10.2659 24.8689 9.81672 23.9927 9.73657 22.9424C9.65565 21.8822 9.97552 20.9322 10.6962 20.0925C11.1489 19.5649 11.6834 19.1871 12.2998 18.959C12.9163 18.7308 13.533 18.6712 14.1499 18.78L13.9242 19.9744C13.5257 19.8941 13.1187 19.9327 12.7031 20.0902C12.2821 20.2431 11.9146 20.5025 11.6005 20.8685C11.0923 21.4606 10.8681 22.1141 10.9276 22.8289C10.9872 23.5437 11.3077 24.1505 11.889 24.6494C12.4704 25.1483 13.1161 25.3707 13.8263 25.3165C14.5411 25.2569 15.1664 24.9149 15.7023 24.2905C16.1319 23.7899 16.365 23.2842 16.4014 22.7733C16.4371 22.2525 16.2955 21.7804 15.9764 21.357L14.355 23.2464L13.5233 22.5327L15.9486 19.7067ZM15.652 16.2455C15.6673 16.4456 15.6102 16.621 15.4809 16.7717C15.3515 16.9224 15.1845 17.0081 14.9799 17.0288C14.7744 17.0394 14.5964 16.98 14.4456 16.8507C14.2949 16.7214 14.2119 16.5567 14.1967 16.3566C14.176 16.1519 14.2327 15.9716 14.3666 15.8155C14.5006 15.6593 14.6703 15.576 14.8757 15.5653C15.0758 15.5501 15.2512 15.6071 15.4019 15.7364C15.5526 15.8658 15.636 16.0355 15.652 16.2455ZM19.7494 21.192L15.7123 17.7274L16.4606 16.8554L20.4978 20.32L19.7494 21.192ZM18.4629 12.7414C17.8586 13.3258 17.8525 13.872 18.4446 14.3802L18.5254 14.4495L19.343 13.4967L20.1827 14.2174L19.3651 15.1701L22.5625 17.9141L21.8142 18.7861L18.6167 16.0421L18.0901 16.6558L17.2504 15.9351L17.777 15.3215L17.6963 15.2522C17.1418 14.7764 16.8536 14.2627 16.8316 13.711C16.8089 13.1493 17.0727 12.5859 17.6232 12.0208L18.4629 12.7414ZM22.8737 11.0817L22.0145 12.0829L23.9523 13.746C24.1192 13.8892 24.2726 13.9554 24.4127 13.9448C24.5473 13.9294 24.6824 13.8537 24.8179 13.7176C24.9526 13.5715 25.1093 13.3835 25.2879 13.1536L26.0711 13.8257C25.5791 14.5625 25.1114 14.9931 24.6682 15.1174C24.2195 15.2372 23.7315 15.0707 23.2039 14.618L21.2661 12.955L20.6286 13.6978L19.7889 12.9772L20.4264 12.2343L19.5544 11.486L20.0443 10.3922L21.1747 11.3623L22.034 10.3611L22.8737 11.0817Z" fill="#FF833E"/>
</g>
<defs>
<filter id="filter0_f" x="-15.9601" y="-17.44" width="186.96" height="155.04" filterUnits="userSpaceOnUse" color-interpolation-filters="sRGB">
<feFlood flood-opacity="0" result="BackgroundImageFix"/>
<feBlend mode="normal" in="SourceGraphic" in2="BackgroundImageFix" result="shape"/>
<feGaussianBlur stdDeviation="15.2" result="effect1_foregroundBlur"/>
</filter>
<filter id="filter1_i" x="0" y="0.799988" width="152" height="94.24" filterUnits="userSpaceOnUse" color-interpolation-filters="sRGB">
<feFlood flood-opacity="0" result="BackgroundImageFix"/>
<feBlend mode="normal" in="SourceGraphic" in2="BackgroundImageFix" result="shape"/>
<feColorMatrix in="SourceAlpha" type="matrix" values="0 0 0 0 0 0 0 0 0 0 0 0 0 0 0 0 0 0 127 0" result="hardAlpha"/>
<feOffset dy="1.52"/>
<feComposite in2="hardAlpha" operator="arithmetic" k2="-1" k3="1"/>
<feColorMatrix type="matrix" values="0 0 0 0 1 0 0 0 0 1 0 0 0 0 1 0 0 0 0.25 0"/>
<feBlend mode="normal" in2="shape" result="effect1_innerShadow"/>
</filter>
<linearGradient id="paint0_linear" x1="76" y1="0.799988" x2="76" y2="95.04" gradientUnits="userSpaceOnUse">
<stop stop-color="white" stop-opacity="0"/>
<stop offset="1" stop-color="#E96F6F" stop-opacity="0.35"/>
</linearGradient>
<linearGradient id="paint1_linear" x1="131.86" y1="44.88" x2="131.86" y2="124.68" gradientUnits="userSpaceOnUse">
<stop stop-color="#3B2B67"/>
<stop offset="1" stop-color="#3B2B67" stop-opacity="0"/>
</linearGradient>
</defs>
</svg>
