<svg width="773" height="599" viewBox="0 0 773 599" fill="none" xmlns="http://www.w3.org/2000/svg">
<path d="M82 233.076C82 104.352 186.352 0 315.076 0H773V598H225.499C146.247 598 82 533.753 82 454.501V233.076Z" fill="url(#paint0_linear)"/>
<g clip-path="url(#clip0)">
<path fill-rule="evenodd" clip-rule="evenodd" d="M713.6 182.29C728.6 183.04 742.5 184.06 754.81 185.29H544.44C557.04 184.03 571.28 183 586.72 182.23C595.62 177.7 603.14 175.02 607.82 175.02C611.51 175.02 612.98 176.7 612.49 179.62C632.83 169.62 649.97 163.79 660.91 163.79C671.85 163.79 675 169.61 671.48 179.57C679.65 175.98 686.48 173.94 691.2 173.94C696.48 173.94 698.34 176.52 697.2 180.99C702.3 178.82 706.58 177.62 709.56 177.62C713.08 177.6 714.34 179.32 713.6 182.29Z" fill="white"/>
<path fill-rule="evenodd" clip-rule="evenodd" d="M193.39 411.9C210.58 412.77 226.39 413.9 240.5 415.34H0.0302734C14.4403 413.9 30.7203 412.72 48.3803 411.84C58.5403 406.67 67.1403 403.6 72.4903 403.6C76.6903 403.6 78.3703 405.51 77.8203 408.85C101.08 397.44 120.67 390.75 133.19 390.75C145.71 390.75 149.29 397.41 145.27 408.75C154.6 404.64 162.44 402.32 167.81 402.32C173.81 402.32 175.96 405.26 174.64 410.32C180.46 407.85 185.36 406.46 188.77 406.46C192.81 406.55 194.23 408.5 193.39 411.9Z" fill="white"/>
<path fill-rule="evenodd" clip-rule="evenodd" d="M433.86 408.53C441.74 408.93 449.01 409.46 455.47 410.11H345.1C351.72 409.45 359.18 408.9 367.29 408.5C371.95 406.13 375.9 404.72 378.36 404.72C380.29 404.72 381.06 405.59 380.8 407.13C391.48 401.89 400.47 398.82 406.21 398.82C411.95 398.82 413.6 401.88 411.76 407.1C416.04 405.21 419.64 404.16 422.1 404.16C424.87 404.16 425.84 405.51 425.23 407.86C427.266 406.874 429.465 406.27 431.72 406.08C433.58 406.1 434.24 406.97 433.86 408.53Z" fill="white"/>
<path fill-rule="evenodd" clip-rule="evenodd" d="M755.89 442.58V442.39C755.89 440.83 755.79 439.27 755.69 437.72C755.69 437.36 755.69 437.01 755.63 436.65C755.54 435.16 755.42 433.65 755.28 432.2C754.96 428.72 754.51 425.28 753.95 421.87C753.39 418.46 752.72 415.17 751.95 411.87C751.42 409.6 750.83 407.37 750.19 405.15L749.8 403.8C748.966 401 748.053 398.237 747.06 395.51C746.06 392.68 744.93 389.88 743.74 387.13C741.045 380.895 737.928 374.851 734.41 369.04V369.04C734.3 368.87 734.21 368.7 734.09 368.53V368.47C730.684 362.895 726.916 357.55 722.81 352.47C720.81 350.003 718.746 347.597 716.62 345.25C714.053 342.437 711.386 339.727 708.62 337.12C707.62 336.12 706.62 335.21 705.52 334.28C693.909 323.922 680.763 315.428 666.55 309.1C647.541 300.641 626.965 296.28 606.16 296.3H174.93V596.1H606.16C607.546 596.1 608.936 596.08 610.33 596.04C619.338 595.795 628.306 594.728 637.12 592.85C640.62 592.11 644.076 591.247 647.49 590.26L648.36 590C649.84 589.56 651.31 589.1 652.77 588.62L653.77 588.28C659.75 586.257 665.595 583.855 671.27 581.09C705.464 564.394 732.111 535.426 745.9 499.96C746.81 497.62 747.66 495.27 748.45 492.87C753.406 477.813 755.928 462.062 755.92 446.21C755.94 445.02 755.93 443.79 755.89 442.58ZM494.39 444.66C494.97 448.77 494.97 452.94 494.39 457.05C494.39 457.28 494.32 457.51 494.28 457.75C493.765 461.041 492.834 464.253 491.51 467.31C489.497 472.004 486.558 476.243 482.866 479.773C479.175 483.302 474.809 486.05 470.03 487.85C465.235 489.649 460.151 490.558 455.03 490.53C453.175 490.53 451.322 490.42 449.48 490.2C445.263 489.69 441.13 488.641 437.18 487.08C427.044 483.062 418.288 476.196 411.97 467.31C407.134 460.606 403.982 452.838 402.78 444.66L397.89 410.1L396.56 400.62L395.75 394.82C395.165 390.687 395.165 386.493 395.75 382.36C396.445 377.2 398.18 372.235 400.852 367.765C403.523 363.296 407.074 359.416 411.29 356.36C416.731 352.476 423.069 350.033 429.71 349.26C431.524 349.029 433.351 348.916 435.18 348.92C437.925 348.924 440.666 349.165 443.37 349.64V349.64C461.08 352.76 476.87 365.64 483.94 382.33C485.636 386.314 486.803 390.503 487.41 394.79L494.39 444.66Z" fill="#30346C"/>
<path d="M484.62 334.52H362.4V382.37H484.62V334.52Z" fill="#30346C"/>
<path fill-rule="evenodd" clip-rule="evenodd" d="M488.03 456.67C493.45 456.94 498.45 457.31 502.89 457.75H426.96C431.51 457.3 436.64 456.91 442.21 456.65C445.42 455.02 448.14 454.05 449.83 454.05C451.15 454.05 451.68 454.65 451.51 455.73C458.84 452.12 465.03 450.01 468.98 450.01C472.93 450.01 474.06 452.12 472.79 455.7C475.015 454.596 477.426 453.918 479.9 453.7C481.81 453.7 482.47 454.62 482.06 456.22C483.459 455.542 484.971 455.125 486.52 454.99C487.79 454.97 488.25 455.59 488.03 456.67Z" fill="white"/>
<path d="M696.91 286.91H110.72V289.46H696.91V286.91Z" fill="#9CA4FF"/>
<path fill-rule="evenodd" clip-rule="evenodd" d="M744.65 437.71C744.65 437.35 744.65 437 744.59 436.64C744.27 431.64 743.71 426.713 742.91 421.86C742.524 419.52 742.08 417.187 741.58 414.86C741.37 413.86 741.14 412.86 740.9 411.86C740.234 409.1 739.507 406.37 738.72 403.67C738.207 401.957 737.667 400.26 737.1 398.58C734.422 390.645 731.077 382.951 727.1 375.58C726.48 374.41 725.83 373.24 725.17 372.09C721.203 365.16 716.692 358.556 711.68 352.34C709.68 349.873 707.614 347.467 705.48 345.12C700.908 340.132 696.007 335.454 690.81 331.12C688.41 329.12 685.95 327.18 683.43 325.33C678.535 321.738 673.429 318.442 668.14 315.46C645.866 302.886 620.719 296.286 595.14 296.3H163.9V596.1H595.11C596.5 596.1 597.9 596.1 599.28 596.04C611.674 595.701 623.976 593.813 635.9 590.42C637.72 589.9 639.524 589.347 641.31 588.76C643.097 588.173 644.944 587.53 646.85 586.83C648.29 586.29 649.73 585.74 651.15 585.16L652.15 584.75C656.097 583.11 659.957 581.31 663.73 579.35C682.297 569.697 698.654 556.291 711.765 539.982C724.875 523.673 734.453 504.817 739.89 484.61V484.61C740.99 480.51 741.89 476.36 742.65 472.13C744.159 463.573 744.916 454.899 744.91 446.21C744.9 443.38 744.82 440.53 744.65 437.71ZM391.7 444.66L386.86 410.1L386.1 404.64L384.72 394.82C384.135 390.687 384.135 386.493 384.72 382.36C387.49 363.14 403.26 348.95 424.15 348.95C426.009 348.948 427.866 349.062 429.71 349.29C448.48 351.52 465.51 364.86 472.93 382.36C474.63 386.343 475.8 390.532 476.41 394.82L483.41 444.65C483.932 448.294 484.002 451.989 483.62 455.65V455.65C483.54 456.37 483.44 457.07 483.33 457.78C482.815 461.071 481.885 464.283 480.56 467.34C475.25 479.66 463.89 488.44 449.49 490.23C447.672 490.452 445.842 490.562 444.01 490.56C438.524 490.541 433.081 489.595 427.91 487.76C417.048 483.874 407.641 476.746 400.96 467.34C396.092 460.636 392.915 452.856 391.7 444.66Z" fill="#9CA4FF"/>
<path fill-rule="evenodd" clip-rule="evenodd" d="M281.87 221.92C287.721 224.929 293.17 228.662 298.09 233.03C311.41 244.83 320.85 261.1 323.17 279.03L349.8 484.03C352.13 501.93 346.92 518.21 336.67 530.03C332.844 534.409 328.34 538.147 323.33 541.1L323.17 539.88C327.91 537.003 332.177 533.41 335.82 529.23C345.9 517.62 351.02 501.61 348.73 484.01L322.1 279.01C319.82 261.41 310.54 245.38 297.43 233.8C292.75 229.622 287.578 226.029 282.03 223.1L281.87 221.92Z" fill="#9CA4FF"/>
<path opacity="0.2" fill-rule="evenodd" clip-rule="evenodd" d="M472.95 221.92C478.804 224.929 484.257 228.661 489.18 233.03C502.5 244.83 511.93 261.1 514.25 279.03L540.89 484.03C543.21 501.93 538.01 518.21 527.76 530.03C523.932 534.407 519.428 538.144 514.42 541.1L514.26 539.88C518.997 537.002 523.261 533.41 526.9 529.23C536.98 517.62 542.11 501.61 539.82 484.01L513.19 279.01C510.9 261.41 501.62 245.38 488.52 233.8C483.837 229.621 478.662 226.028 473.11 223.1L472.95 221.92Z" fill="white"/>
<path fill-rule="evenodd" clip-rule="evenodd" d="M487.63 445.28L480.63 395.44C479.992 390.948 478.782 386.555 477.03 382.37C473.883 374.945 469.279 368.227 463.491 362.612C457.702 356.997 450.847 352.6 443.33 349.68V349.68C437.301 347.345 430.895 346.135 424.43 346.11C422.181 346.111 419.936 346.268 417.71 346.58C408.545 347.745 400.013 351.871 393.409 358.332C386.806 364.793 382.494 373.233 381.13 382.37C380.746 384.771 380.555 387.199 380.56 389.63C380.566 391.942 380.733 394.251 381.06 396.54L382.43 406.33L383.03 410.1L388.03 446.37C389.103 453.795 391.686 460.922 395.62 467.31C395.94 467.837 396.273 468.357 396.62 468.87L398.07 470.97C398.14 471.08 398.22 471.2 398.31 471.32C400.957 474.945 403.996 478.269 407.37 481.23C414.811 487.836 423.821 492.425 433.54 494.56V494.56C437.058 495.324 440.649 495.709 444.25 495.71C446.498 495.705 448.743 495.544 450.97 495.23C457.797 494.305 464.308 491.776 469.97 487.85C472.831 485.852 475.429 483.5 477.7 480.85C481.137 476.856 483.796 472.253 485.54 467.28C486.638 464.187 487.382 460.98 487.76 457.72C487.85 457.05 487.92 456.37 487.96 455.72C488.06 454.55 488.1 453.38 488.1 452.19C488.109 449.878 487.952 447.569 487.63 445.28V445.28ZM476.97 467.28C475.631 470.298 473.859 473.104 471.71 475.61C466.114 482.033 458.358 486.182 449.91 487.27C448.047 487.527 446.17 487.654 444.29 487.65C441.894 487.651 439.502 487.45 437.14 487.05C432.414 486.253 427.838 484.738 423.57 482.56C419.638 480.572 415.976 478.092 412.67 475.18C409.96 472.804 407.5 470.157 405.33 467.28C400.406 460.856 397.196 453.285 396 445.28L391.03 410.1L390.03 402.95L389.03 395.44C388.759 393.515 388.619 391.574 388.61 389.63C388.603 387.193 388.834 384.762 389.3 382.37C390.411 376.383 393.08 370.796 397.04 366.17C400.866 361.742 405.771 358.377 411.28 356.4C413.721 355.501 416.252 354.867 418.83 354.51C420.696 354.257 422.577 354.133 424.46 354.14C436.07 354.14 447.28 358.9 456.06 366.6C461.113 371.019 465.262 376.374 468.28 382.37C470.521 386.82 472.02 391.607 472.72 396.54L479.72 446.37C479.991 448.295 480.128 450.236 480.13 452.18C480.13 452.69 480.13 453.18 480.13 453.69C480.091 455.049 479.971 456.405 479.77 457.75C479.291 461.053 478.349 464.271 476.97 467.31V467.28Z" fill="white"/>
<path fill-rule="evenodd" clip-rule="evenodd" d="M113.87 331.16C109.22 335.16 106.01 339.59 105.25 344.24C102.08 363.73 110.25 490.82 164.67 596.08H351.43C331.34 543.01 262.8 363.73 246.96 344.24C243.18 339.59 237.1 335.24 229.82 331.16C236.01 327.94 238.59 320.02 235.6 310.82L233.22 303.5C229.3 291.5 217.29 281.64 206.52 281.64H104.94C94.1698 281.64 88.5498 291.48 92.4698 303.5L94.8598 310.82C96.4138 315.36 98.9111 319.519 102.187 323.025C105.464 326.531 109.445 329.303 113.87 331.16Z" fill="#6D6DF6"/>
<path fill-rule="evenodd" clip-rule="evenodd" d="M208.28 281.71C207.69 281.66 207.1 281.63 206.52 281.63H113.47C113.24 281.69 113 281.76 112.77 281.84C109.936 282.741 107.503 284.601 105.89 287.1C104.206 289.794 103.347 292.923 103.42 296.1C103.443 298.67 103.868 301.221 104.68 303.66L107.06 310.98C108.625 315.629 111.185 319.881 114.56 323.44C117.644 326.802 121.389 329.492 125.56 331.34C123.6 333.078 121.851 335.042 120.35 337.19C118.869 339.28 117.866 341.669 117.41 344.19C115.41 356.32 117.83 409.95 132.95 474.05C141.37 509.78 153.75 548.75 171.52 585.65H172.71C154.86 548.65 142.43 509.65 133.99 473.81C118.9 409.81 116.5 356.42 118.46 344.36C118.896 342.001 119.842 339.766 121.23 337.81C122.849 335.505 124.759 333.418 126.91 331.6L127.58 331.02L126.74 330.7C122.383 328.929 118.472 326.214 115.29 322.75C112.028 319.303 109.554 315.188 108.04 310.69L105.67 303.39C104.881 301.05 104.469 298.599 104.45 296.13C104.383 293.167 105.179 290.249 106.74 287.73C108.219 285.441 110.446 283.734 113.04 282.9C114.518 282.432 116.06 282.199 117.61 282.21H208.24L208.28 281.71Z" fill="url(#paint1_linear)"/>
<path fill-rule="evenodd" clip-rule="evenodd" d="M156.46 331.16C151.81 335.16 148.59 339.59 147.83 344.24C144.65 363.73 152.83 490.82 207.24 596.08H394.03C373.93 543.01 305.4 363.73 289.55 344.24C285.77 339.59 279.69 335.24 272.41 331.16C278.61 327.94 281.18 320.02 278.19 310.82L275.81 303.5C271.9 291.5 259.89 281.64 249.12 281.64H147.52C136.75 281.64 131.13 291.48 135.06 303.5L137.44 310.82C138.995 315.361 141.494 319.521 144.772 323.027C148.05 326.532 152.034 329.304 156.46 331.16Z" fill="white"/>
<path fill-rule="evenodd" clip-rule="evenodd" d="M218.47 589.73H392.19C377.95 552.223 363.443 514.813 348.67 477.5C337.53 449.5 326.23 421.38 314.23 393.68C309.86 383.59 305.38 373.46 300.55 363.58C298.39 359.18 295.05 352.03 291.97 348.26C288.19 343.61 281.86 339.6 276.67 336.71C275.666 336.156 274.833 335.339 274.258 334.347C273.684 333.356 273.391 332.226 273.41 331.08C273.426 329.934 273.752 328.813 274.354 327.837C274.957 326.862 275.812 326.068 276.83 325.54C281.32 323.22 280.83 316.83 279.51 312.8L277.13 305.45C274.47 297.26 265.45 287.96 256.46 287.96H154.88C147.16 287.96 146.51 295.61 148.44 301.52L150.81 308.85C153.09 315.85 159.21 322.58 166.09 325.25C167.111 325.64 168.011 326.292 168.7 327.14C169.392 327.995 169.851 329.015 170.03 330.1C170.221 331.175 170.128 332.282 169.76 333.31C169.402 334.341 168.777 335.259 167.95 335.97C165.35 338.23 161.95 341.73 161.42 345.29C160.97 348.955 160.799 352.649 160.91 356.34C160.91 363.06 161.29 369.87 161.77 376.59C163.298 396.821 165.881 416.958 169.51 436.92C178.82 488.97 194.53 542.37 218.47 589.73Z" fill="#A3CF80"/>
<path opacity="0.2" fill-rule="evenodd" clip-rule="evenodd" d="M184.76 394.56L233.42 567.82C233.42 567.82 245.87 434.18 184.76 394.56Z" fill="#86A96F"/>
<path opacity="0.2" fill-rule="evenodd" clip-rule="evenodd" d="M292.27 394.56L340.93 567.82C340.93 567.82 353.38 434.18 292.27 394.56Z" fill="#12132B"/>
<path opacity="0.1" fill-rule="evenodd" clip-rule="evenodd" d="M218.47 589.73H392.19C377.95 552.223 363.443 514.813 348.67 477.5C342.83 462.767 336.913 448.053 330.92 433.36C305.57 421.62 278.09 410.1 278.09 410.1C277.612 410.619 277.063 411.066 276.46 411.43L269.85 386.61H270.53L265.79 368.81C274.85 365.48 277.61 352.59 277.41 337.06L276.7 336.67C275.708 336.11 274.881 335.3 274.3 334.32C273.872 333.583 273.598 332.767 273.492 331.921C273.386 331.076 273.451 330.218 273.683 329.398C273.915 328.578 274.31 327.813 274.844 327.148C275.377 326.484 276.039 325.934 276.79 325.53C276.55 322.69 276.23 319.83 275.87 316.97L276.87 316.89V316.69H280.42C280.352 316.018 280.249 315.351 280.11 314.69H275.62C275.44 313.4 275.26 312.11 275.07 310.82C275.53 309.61 275.95 308.3 276.33 306.96L277.48 306.33L277.18 305.4C274.52 297.22 265.5 287.91 256.51 287.91H186.38C187.05 290.48 187.93 293.17 188.66 295.48C189.39 297.79 190.55 301.58 191.98 305.25C189.6 310.85 197.98 331.4 204.44 333.03C204.977 333.166 205.526 333.253 206.08 333.29L216.65 404.1L216.12 404.87C216.12 404.87 181.71 439.21 173.6 457.79C183.15 503.1 197.73 548.69 218.47 589.73Z" fill="#12132B"/>
<path fill-rule="evenodd" clip-rule="evenodd" d="M236.86 286.74C236.86 286.74 236.61 281.01 242.74 284.01C243.53 284.39 243.88 283.83 244.03 282.61V282.54C244.03 282.37 244.03 282.19 244.08 281.99C249.74 224.68 319.38 311.99 339.79 271.29C338.79 277.97 334.91 286.45 327.11 294.08C308.01 312.75 281.45 317.87 266.53 313.4C251.61 308.93 238.22 303.88 236.86 286.74Z" fill="#281616"/>
<path fill-rule="evenodd" clip-rule="evenodd" d="M240.87 305.69C238.87 310.34 236.67 314.43 234.33 316.13C227.54 321.13 224.15 302.6 222.81 295.54C221.47 288.48 219.09 277.99 224.49 277.8C226.801 277.947 229.076 278.44 231.24 279.26C232.01 271.69 225.91 241.26 259.92 247.26C286.84 252 304.44 268.58 316.68 258.52C328.92 248.46 333.4 272.25 314.3 290.91C295.2 309.57 268.6 314.71 253.72 310.24C249.342 309.007 245.049 307.487 240.87 305.69V305.69Z" fill="white"/>
<path fill-rule="evenodd" clip-rule="evenodd" d="M315.34 287.49C315.34 287.49 309.13 312.84 302.34 317.81C295.55 322.78 292.16 304.28 290.82 297.22C289.48 290.16 287.1 279.67 292.5 279.48C297.9 279.29 315.34 287.49 315.34 287.49Z" fill="#281616"/>
<path fill-rule="evenodd" clip-rule="evenodd" d="M252.51 317.1L235.43 327.02L237.67 410.46L297.14 416.63L286.73 344.23L252.51 317.1Z" fill="#FFE1DA"/>
<path opacity="0.2" fill-rule="evenodd" clip-rule="evenodd" d="M253.18 317.1L244.65 322.05C243.42 350.51 264.26 385.19 293.49 386.67L287.4 344.26L253.18 317.1Z" fill="#FF8685"/>
<path fill-rule="evenodd" clip-rule="evenodd" d="M304.48 267.87C303.22 272.64 319.48 368.5 286.48 369.67C253.48 370.84 230.14 329.67 234.87 299.37C239.6 269.07 304.48 267.87 304.48 267.87Z" fill="#FFD3CA"/>
<path fill-rule="evenodd" clip-rule="evenodd" d="M271.6 367.26C246.79 358.09 230.87 324.89 234.85 299.37C235.85 293.02 239.47 287.95 244.59 283.9C250.38 285.09 255.13 286.18 255.13 286.18C255.13 286.18 251.82 325.59 260.53 335.25C267.14 342.57 269.68 357.89 271.6 367.26Z" fill="#FFE1DA"/>
<path fill-rule="evenodd" clip-rule="evenodd" d="M304.48 267.87C303.98 269.76 306.21 285.87 307.06 304.77C289.42 315.27 269.06 317 256.63 312.71C248.17 309.79 240.18 306.71 234.57 301.53C234.65 300.81 234.74 300.08 234.85 299.37C239.57 269.04 304.48 267.87 304.48 267.87Z" fill="#FF8685"/>
<path opacity="0.4" fill-rule="evenodd" clip-rule="evenodd" d="M304.48 267.87C303.27 272.46 318.24 361.43 289.95 369.13C289.962 368.696 290.108 368.276 290.37 367.93C294.86 361.55 291.04 356.78 289.99 353.13C289.065 350.388 289.215 347.396 290.41 344.76C291.41 342.15 289.53 342.62 289.32 340.56C289.11 338.5 291.58 337.74 291.42 336.46C291.26 335.18 289.92 332.1 290.66 330.46C291.4 328.82 298.26 329.06 298.96 326.64C299.66 324.22 289.96 281.17 289.48 278.96L299.03 268.15C302.42 267.91 304.48 267.87 304.48 267.87Z" fill="#FF8685"/>
<path fill-rule="evenodd" clip-rule="evenodd" d="M226.7 284.77C226.7 284.77 226.44 279.03 232.58 282.03C238.04 284.71 222.58 241.44 262.58 248.46C289.51 253.19 307.11 269.78 319.35 259.72C331.59 249.66 336.03 273.45 316.94 292.1C297.85 310.75 271.26 315.9 256.37 311.43C241.48 306.96 228.03 301.9 226.7 284.77Z" fill="#412F2F"/>
<path fill-rule="evenodd" clip-rule="evenodd" d="M226.7 284.77C226.7 284.77 226.44 279.03 232.58 282.03C233.36 282.42 233.72 281.85 233.86 280.63V280.57C233.86 280.4 233.86 280.21 233.86 280.02C239.53 222.7 309.18 310.07 329.58 269.32C328.58 276 324.7 284.48 316.9 292.11C297.78 310.78 271.21 315.89 256.32 311.42C241.43 306.95 228.03 301.9 226.7 284.77Z" fill="#281616"/>
<path fill-rule="evenodd" clip-rule="evenodd" d="M250.03 287C250.03 287 243.83 312.36 237.03 317.33C230.23 322.3 226.84 303.79 225.51 296.73C224.18 289.67 221.79 279.19 227.16 279C232.53 278.81 250.03 287 250.03 287Z" fill="#281616"/>
<path fill-rule="evenodd" clip-rule="evenodd" d="M237.43 312.87C237.43 312.87 231.65 301.7 226.17 304.12C220.69 306.54 227.03 331.31 233.98 333.12C240.93 334.93 244.41 327.56 237.43 312.87Z" fill="#FFE1DA"/>
<path fill-rule="evenodd" clip-rule="evenodd" d="M236.73 285.23C236.78 285.33 252.54 322.09 297.88 293.79L298.58 294.79C251.98 323.88 235.58 285.79 235.58 285.67L236.73 285.23Z" fill="#412F2F"/>
<path fill-rule="evenodd" clip-rule="evenodd" d="M220.15 276.72C220.15 276.72 229.31 271.83 234.15 281.5L233.01 282C228.77 273.51 220.79 277.77 220.76 277.8L220.15 276.72Z" fill="#281616"/>
<path fill-rule="evenodd" clip-rule="evenodd" d="M225.52 271.9C225.52 271.9 236.03 273.3 233.93 283.72L232.66 283.47C234.51 274.32 225.37 273.11 225.34 273.1L225.52 271.9Z" fill="#281616"/>
<path fill-rule="evenodd" clip-rule="evenodd" d="M275.29 338.23C275.29 338.23 287.03 341.6 293.48 338.1L294.03 339.38C287.16 343.1 275.03 339.62 275.03 339.61L275.29 338.23Z" fill="#FF8685"/>
<path fill-rule="evenodd" clip-rule="evenodd" d="M276.52 337.57C276.52 337.57 275.14 338.57 275.68 339.77L274.53 340.24C273.58 338.18 275.82 336.54 275.83 336.54L276.52 337.57Z" fill="#FF8685"/>
<path opacity="0.5" fill-rule="evenodd" clip-rule="evenodd" d="M241.52 332.48C241.51 332.427 241.512 332.373 241.526 332.321C241.54 332.269 241.565 332.221 241.6 332.18C241.661 332.091 241.754 332.03 241.86 332.01H242.03C242.086 332.021 242.14 332.041 242.19 332.07C242.237 332.102 242.278 332.143 242.31 332.19C242.34 332.239 242.36 332.293 242.37 332.35C243.982 339.273 247.132 345.744 251.586 351.284C256.041 356.823 261.685 361.289 268.1 364.35C268.148 364.372 268.192 364.404 268.228 364.444C268.264 364.483 268.292 364.53 268.31 364.58C268.35 364.683 268.35 364.797 268.31 364.9C268.282 364.95 268.244 364.994 268.2 365.03L268.03 365.1C267.974 365.11 267.916 365.11 267.86 365.1C267.81 365.109 267.759 365.109 267.71 365.1C261.176 361.977 255.43 357.423 250.896 351.776C246.362 346.129 243.158 339.534 241.52 332.48V332.48Z" fill="white"/>
<path fill-rule="evenodd" clip-rule="evenodd" d="M227.9 308.92C232.74 314.03 235.4 318.42 236.63 321.63C239.48 329.08 234.72 330.29 231.91 319.88L233 319.62C235 327.84 237.76 327.18 235.54 321.72C234.37 318.83 231.82 314.6 227.07 309.64L227.9 308.92Z" fill="#FF8685"/>
<path fill-rule="evenodd" clip-rule="evenodd" d="M258.15 326.1C260.397 325.705 262.71 326.192 264.608 327.458C266.505 328.725 267.842 330.674 268.34 332.9C268.544 333.991 268.526 335.112 268.286 336.196C268.047 337.28 267.59 338.304 266.945 339.207C266.3 340.11 265.478 340.874 264.531 341.451C263.583 342.029 262.528 342.41 261.43 342.57C259.183 342.966 256.869 342.479 254.972 341.21C253.075 339.941 251.741 337.989 251.25 335.76C251.044 334.67 251.061 333.55 251.3 332.467C251.539 331.384 251.994 330.36 252.639 329.457C253.283 328.555 254.104 327.792 255.051 327.215C255.998 326.638 257.052 326.259 258.15 326.1V326.1Z" fill="#FF8685"/>
<path fill-rule="evenodd" clip-rule="evenodd" d="M274.41 315.87C274.983 315.854 275.539 316.062 275.96 316.45C276.171 316.639 276.342 316.868 276.464 317.124C276.586 317.38 276.656 317.657 276.67 317.94C276.672 318.217 276.618 318.491 276.513 318.747C276.408 319.003 276.254 319.235 276.059 319.431C275.864 319.627 275.632 319.783 275.376 319.889C275.121 319.995 274.847 320.05 274.57 320.05C274.214 320.079 273.856 320.015 273.531 319.866C273.206 319.717 272.924 319.487 272.714 319.198C272.503 318.909 272.37 318.571 272.327 318.216C272.285 317.861 272.334 317.501 272.47 317.17C272.69 316.658 273.098 316.249 273.61 316.03C273.865 315.927 274.136 315.873 274.41 315.87V315.87Z" fill="#281616"/>
<path fill-rule="evenodd" clip-rule="evenodd" d="M267.03 315.77L279.08 315.95V317.95L267.03 317.77V315.77Z" fill="#281616"/>
<path fill-rule="evenodd" clip-rule="evenodd" d="M297.79 315.86L308.1 314.94L308.39 316.94L298.07 317.85L297.79 315.86Z" fill="#281616"/>
<path fill-rule="evenodd" clip-rule="evenodd" d="M301.03 315.9C301.6 315.836 302.172 315.994 302.63 316.34C303.083 316.687 303.384 317.196 303.47 317.76C303.51 318.038 303.49 318.321 303.41 318.59C303.328 318.854 303.199 319.101 303.03 319.32C302.854 319.539 302.632 319.716 302.38 319.84C302.136 319.974 301.867 320.056 301.59 320.08C301.021 320.144 300.449 319.986 299.993 319.64C299.537 319.294 299.231 318.785 299.14 318.22C299.108 317.941 299.132 317.659 299.21 317.39C299.279 317.121 299.409 316.871 299.59 316.66C299.767 316.444 299.984 316.264 300.23 316.13C300.477 315.998 300.75 315.92 301.03 315.9V315.9Z" fill="#281616"/>
<path fill-rule="evenodd" clip-rule="evenodd" d="M476.92 596.1C474.26 591.66 397.39 464.98 385.41 454.21C373.23 443.21 298.18 410.07 298.18 410.07C288.94 419.07 257.31 406.59 236.85 404.85C236.85 404.85 187.25 448.99 185.35 464.25C183.45 479.51 214.96 595.6 214.96 595.6L425.62 596.13L476.92 596.1Z" fill="white"/>
<path fill-rule="evenodd" clip-rule="evenodd" d="M263.75 551.35C269.31 567.09 273.7 582.71 275.37 596.14H204.75C180.5 544.23 178.34 464.96 187.53 457.84C219.66 433.03 259.75 540.02 263.75 551.35Z" fill="#E9E8F0"/>
<path fill-rule="evenodd" clip-rule="evenodd" d="M266.54 314.75L264.23 322.34C263.951 323.194 263.829 324.092 263.87 324.99C263.88 325.194 263.9 325.398 263.93 325.6C263.959 325.812 263.999 326.022 264.05 326.23C264.149 326.602 264.283 326.963 264.45 327.31C264.594 327.623 264.768 327.921 264.97 328.2C265.538 328.969 266.292 329.581 267.16 329.98V329.98C267.332 330.065 267.509 330.139 267.69 330.2C268.274 330.403 268.883 330.528 269.5 330.57H286.24L289.37 320.38L290.15 317.83L291.1 314.74L266.54 314.75ZM284.77 328.62H269.91C269.349 328.621 268.792 328.529 268.26 328.35C267.57 328.119 266.969 327.679 266.54 327.09C266.108 326.473 265.865 325.743 265.84 324.99C265.808 324.312 265.9 323.635 266.11 322.99L267.71 317.76L268.03 316.76H288.42L284.77 328.62Z" fill="#281616"/>
<path fill-rule="evenodd" clip-rule="evenodd" d="M319.09 316.72H298.7L297.96 319.13C297.73 317.83 297.46 316.42 297.17 314.92L297.22 314.75H321.77L319.25 323C318.543 325.14 317.195 327.011 315.39 328.36C313.658 329.74 311.524 330.519 309.31 330.58H292.37L292.74 329.37C293.74 329.12 294.8 328.9 295.82 328.62H309.21C311.016 328.553 312.752 327.904 314.16 326.77C315.66 325.658 316.78 324.111 317.37 322.34L319.09 316.72Z" fill="#281616"/>
<path fill-rule="evenodd" clip-rule="evenodd" d="M288.09 318.74C288.09 318.74 297.9 313.74 300.16 319.19L298.11 319.79C296.82 316.67 289.17 320.49 289.11 320.5L288.09 318.74Z" fill="#281616"/>
<path fill-rule="evenodd" clip-rule="evenodd" d="M239.8 584.21C239.8 584.21 358.87 545.1 401.19 596.1H236.08L239.8 584.21Z" fill="#E9E8F0"/>
<path fill-rule="evenodd" clip-rule="evenodd" d="M773.03 570.04V596.04H596.15C593.017 589.98 590.017 583.853 587.15 577.66C585.817 574.7 584.483 571.733 583.15 568.76C575.082 550.009 568.094 530.81 562.22 511.26V511.26C561.694 509.5 561.174 507.747 560.66 506C556.8 492.81 553.5 479.85 550.66 467.33C536.91 406.24 534.74 355.94 536.66 344.26C537.41 339.61 540.66 335.26 545.28 331.18C540.857 329.322 536.878 326.549 533.603 323.043C530.329 319.538 527.833 315.379 526.28 310.84L523.9 303.52C523.122 301.208 522.704 298.789 522.66 296.35C522.593 293.996 523.025 291.654 523.93 289.48C524.31 288.577 524.794 287.722 525.37 286.93C526.633 285.219 528.296 283.844 530.214 282.925C532.132 282.006 534.245 281.572 536.37 281.66H638.03C638.611 281.66 639.192 281.69 639.77 281.75C644.383 282.317 648.76 284.105 652.45 286.93C652.7 287.1 652.94 287.28 653.18 287.48C653.42 287.68 653.61 287.8 653.82 287.98L654.45 288.5C654.82 288.82 655.19 289.14 655.55 289.5C659.732 293.324 662.886 298.138 664.72 303.5L666.56 309.13L667.11 310.82C667.609 312.34 667.964 313.904 668.17 315.49C668.482 317.714 668.401 319.975 667.93 322.17C667.566 324.067 666.784 325.859 665.641 327.416C664.497 328.973 663.021 330.255 661.32 331.17C668.6 335.17 674.68 339.6 678.46 344.25C678.69 344.53 678.93 344.84 679.17 345.19C680.77 347.5 682.223 349.908 683.52 352.4C685.11 355.34 686.9 358.89 688.86 362.95C690.82 367.01 693.08 371.9 695.42 377.11C696.187 378.823 696.97 380.58 697.77 382.38C699.103 385.453 700.5 388.65 701.96 391.97L703.23 394.9C705.097 399.253 707.02 403.783 709 408.49C709.46 409.59 709.93 410.71 710.41 411.84C711.777 415.12 713.167 418.453 714.58 421.84C716.58 426.66 718.58 431.6 720.65 436.62C720.79 436.97 720.94 437.33 721.08 437.69C727.28 452.89 733.65 468.83 739.89 484.62C741.89 489.76 743.89 494.89 745.89 499.97C751.61 514.55 757.13 528.73 762.18 541.83C764.89 548.83 767.47 555.55 769.88 561.83L773.03 570.04Z" fill="#6D6DF6"/>
<path fill-rule="evenodd" clip-rule="evenodd" d="M379.03 467.31H568.16C570.61 467.31 571.94 469.54 571.1 472.26L533.03 596.1H335.03L373.1 472.22C373.91 469.54 376.6 467.31 379.03 467.31Z" fill="#DCDAE6"/>
<path fill-rule="evenodd" clip-rule="evenodd" d="M382.26 467.31H571.37C573.82 467.31 575.15 469.54 574.31 472.26L536.24 596.1H338.24L376.31 472.22C377.1 469.54 379.79 467.31 382.26 467.31Z" fill="#E9E8F0"/>
<path fill-rule="evenodd" clip-rule="evenodd" d="M410.83 467.31H571.34C573.79 467.31 575.12 469.54 574.28 472.26L536.22 596.1H518.22L410.83 467.31Z" fill="#DCDAE6"/>
<path fill-rule="evenodd" clip-rule="evenodd" d="M465.5 527.72C472.22 527.72 475.84 533.78 473.5 541.26C471.16 548.74 463.88 554.8 457.12 554.8C450.36 554.8 446.79 548.74 449.12 541.26C451.45 533.78 458.76 527.72 465.5 527.72Z" fill="white"/>
<path d="M773.03 596.14H54.04V598.74H773.03V596.14Z" fill="white"/>
<path d="M43.3598 596.1H10.5898V598.7H43.3598V596.1Z" fill="white"/>
<path opacity="0.2" fill-rule="evenodd" clip-rule="evenodd" d="M126.95 331.56C124.798 333.378 122.889 335.465 121.27 337.77C119.883 339.727 118.938 341.962 118.5 344.32C116.5 356.38 118.92 409.81 134.03 473.77C142.47 509.57 154.9 548.66 172.75 585.61H171.56C153.79 548.71 141.41 509.74 132.99 474.01C117.87 409.91 115.48 356.28 117.45 344.15C117.905 341.629 118.909 339.24 120.39 337.15C121.89 335.002 123.639 333.038 125.6 331.3C121.429 329.456 117.684 326.77 114.6 323.41C111.226 319.853 108.667 315.605 107.1 310.96L104.72 303.64C103.938 301.273 103.513 298.802 103.46 296.31H104.53C104.589 298.691 105.001 301.05 105.75 303.31L108.14 310.63C109.653 315.128 112.127 319.243 115.39 322.69C118.564 326.171 122.471 328.904 126.83 330.69L127.67 331.01L126.95 331.56Z" fill="white"/>
<path fill-rule="evenodd" clip-rule="evenodd" d="M127.7 596.1C132.61 585 142.52 568.69 159.07 566.91C175.88 565.1 254.03 584.1 301.03 596.1H127.7Z" fill="#444998"/>
<path fill-rule="evenodd" clip-rule="evenodd" d="M127.7 596.1C130.87 588.95 137.25 578.45 147.92 577.29C158.74 576.13 209.09 588.36 239.38 596.1H127.7Z" fill="#272A57"/>
<path opacity="0.1" fill-rule="evenodd" clip-rule="evenodd" d="M639.76 281.71C639.17 281.66 638.58 281.63 638 281.63H545C544.76 281.69 544.53 281.76 544.3 281.84C541.464 282.738 539.03 284.599 537.42 287.1C535.735 289.794 534.876 292.923 534.95 296.1C534.972 298.67 535.397 301.221 536.21 303.66L538.59 310.98C540.163 315.635 542.733 319.89 546.12 323.45C549.202 326.812 552.947 329.498 557.12 331.34C555.159 333.078 553.41 335.042 551.91 337.19C550.41 339.276 549.386 341.665 548.91 344.19C546.91 356.32 549.33 409.95 564.46 474.05C572.88 509.78 585.26 548.75 603.03 585.65H604.22C586.36 548.65 573.94 509.65 565.5 473.81C550.46 409.81 548.03 356.38 550.03 344.32C550.458 341.96 551.4 339.724 552.79 337.77C554.409 335.465 556.318 333.378 558.47 331.56L559.15 330.98L558.31 330.66C553.952 328.889 550.042 326.174 546.86 322.71C543.594 319.264 541.117 315.149 539.6 310.65L537.23 303.35C536.453 301.011 536.048 298.565 536.03 296.1C535.958 293.137 536.754 290.217 538.32 287.7C539.796 285.408 542.023 283.701 544.62 282.87C546.094 282.402 547.633 282.169 549.18 282.18H639.8L639.76 281.71Z" fill="#3B47BC"/>
<path fill-rule="evenodd" clip-rule="evenodd" d="M773.03 460.92V596.1H638.74C638.19 595.04 637.65 593.98 637.12 592.91C636.7 592.1 636.29 591.29 635.9 590.48C635.34 589.37 634.79 588.26 634.25 587.14C631.73 581.993 629.323 576.803 627.03 571.57C583.13 471.99 576.4 362.26 579.33 344.26C580.09 339.61 583.33 335.26 587.96 331.18C583.537 329.322 579.558 326.549 576.283 323.043C573.008 319.538 570.513 315.379 568.96 310.84L566.58 303.52C565.802 301.208 565.384 298.789 565.34 296.35C565.272 293.996 565.705 291.654 566.61 289.48C566.99 288.577 567.473 287.722 568.05 286.93C569.721 284.593 572.159 282.915 574.94 282.19C576.276 281.829 577.656 281.65 579.04 281.66H680.61C685.44 281.66 690.54 283.66 695.02 286.93C695.39 287.19 695.76 287.47 696.11 287.76C696.388 287.963 696.655 288.18 696.91 288.41C697.25 288.69 697.58 288.98 697.91 289.29C701.566 292.598 704.468 296.653 706.42 301.18V301.18C706.74 301.94 707.03 302.72 707.28 303.5L709.67 310.82C711.198 315.032 711.314 319.627 710 323.91V323.91C709.07 326.74 707.172 329.151 704.64 330.72C704.4 330.86 704.15 331.01 703.89 331.14L704.63 331.56C707.076 332.92 709.452 334.402 711.75 336C712.35 336.41 712.94 336.83 713.5 337.26C716.272 339.257 718.788 341.588 720.99 344.2C721.22 344.48 721.46 344.79 721.7 345.14C723.3 347.455 724.756 349.866 726.06 352.36C726.78 353.68 727.53 355.13 728.32 356.69C728.41 356.85 728.49 357.01 728.57 357.17L729.21 358.44C730.69 361.44 732.28 364.72 733.97 368.36V368.42C736.97 374.75 740.18 382.04 743.65 390.04C744.74 392.54 745.84 395.11 746.97 397.75C747.997 400.15 749.04 402.6 750.1 405.1L752.92 411.82C754.29 415.08 755.68 418.42 757.08 421.82C762.3 434.3 767.66 447.5 773.03 460.92Z" fill="white"/>
<path opacity="0.8" fill-rule="evenodd" clip-rule="evenodd" d="M773.03 460.27C767.89 447.443 762.676 434.64 757.39 421.86C756.01 418.527 754.616 415.193 753.21 411.86C752.076 409.193 750.936 406.5 749.79 403.78C748.89 401.65 747.97 399.53 747.05 397.41C746.52 396.16 745.98 394.91 745.44 393.66L743.73 389.66C740.73 382.74 737.64 375.8 734.4 368.97C733.55 367.16 732.68 365.35 731.8 363.56C731.08 362.1 730.23 360.33 729.29 358.48L728.65 357.21C728.57 357.05 728.49 356.89 728.4 356.73C727.64 355.25 726.84 353.73 726.03 352.4C725.197 350.946 724.257 349.556 723.22 348.24C722.319 347.15 721.34 346.127 720.29 345.18C716.672 342.067 712.725 339.357 708.52 337.1L707.89 336.75C706.89 336.188 706.058 335.37 705.48 334.38L705.42 334.26C704.976 333.453 704.714 332.559 704.65 331.64C704.65 331.46 704.65 331.29 704.65 331.12C704.65 330.95 704.65 330.91 704.65 330.8C704.713 329.769 705.029 328.77 705.57 327.89C706.174 326.914 707.031 326.12 708.05 325.59C708.824 325.207 709.506 324.661 710.05 323.99V323.99C712.36 321.06 711.83 316.16 710.75 312.86L708.38 305.53C707.887 304.047 707.247 302.616 706.47 301.26V301.26C703.653 296.205 699.367 292.124 694.18 289.56C693.311 289.147 692.408 288.813 691.48 288.56C690.255 288.219 688.991 288.044 687.72 288.04H586.09C584.362 287.956 582.661 288.487 581.29 289.54C579.4 291.09 578.69 293.66 578.75 296.41C578.794 298.175 579.098 299.923 579.65 301.6L582.04 308.92C583.3 312.568 585.311 315.911 587.943 318.734C590.575 321.557 593.769 323.797 597.32 325.31C598.346 325.7 599.253 326.349 599.954 327.193C600.655 328.038 601.125 329.05 601.32 330.13C601.501 331.209 601.408 332.316 601.05 333.35C600.682 334.378 600.055 335.295 599.23 336.01C596.63 338.27 593.28 341.77 592.7 345.33C592.244 348.995 592.074 352.689 592.19 356.38C592.19 363.1 592.57 369.9 593.05 376.63C594.578 396.858 597.161 416.992 600.79 436.95C608.71 481.36 622.52 531.37 641.26 574.51C643.086 578.73 644.963 582.877 646.89 586.95C647.39 588.01 647.89 589.07 648.41 590.12C648.49 590.3 648.58 590.47 648.67 590.65C649.556 592.503 650.463 594.34 651.39 596.16V596.22H773.03V460.27Z" fill="#8CC360"/>
<path opacity="0.2" fill-rule="evenodd" clip-rule="evenodd" d="M558.3 330.67L557.48 330.32C557.21 330.21 556.95 330.08 556.68 329.95L555.89 329.57C555.38 329.3 554.89 329.03 554.36 328.74C553.86 328.44 553.36 328.14 552.87 327.82C552.56 327.62 552.26 327.41 551.96 327.2L550.96 326.49L550.66 326.26L550.37 326.02C550.03 325.76 549.7 325.48 549.37 325.2C549.04 324.92 548.5 324.41 548.08 324.01L547.47 323.39C547.26 323.18 547.06 322.96 546.86 322.74C543.593 319.299 541.115 315.187 539.6 310.69L537.22 303.37C536.466 301.111 536.058 298.751 536.01 296.37C536.005 296.29 536.005 296.21 536.01 296.13C535.997 294.458 536.233 292.793 536.71 291.19H535.6C535.152 292.798 534.929 294.461 534.94 296.13C534.935 296.21 534.935 296.29 534.94 296.37C534.983 298.863 535.405 301.334 536.19 303.7L538.57 311.02C539.305 313.19 540.257 315.281 541.41 317.26C541.6 317.59 541.79 317.92 542 318.26C542.21 318.6 542.41 318.9 542.62 319.21L543.15 319.97C543.69 320.7 544.25 321.42 544.84 322.12C545.23 322.59 545.65 323.04 546.07 323.49C546.49 323.94 546.85 324.32 547.26 324.72C547.67 325.12 547.89 325.33 548.26 325.62L548.35 325.7C548.63 325.95 548.92 326.2 549.22 326.44C549.52 326.68 549.78 326.9 550.06 327.12H550.11L550.32 327.28L550.57 327.47C550.81 327.66 551.05 327.83 551.3 328.01H551.37C551.65 328.21 551.93 328.4 552.22 328.58L552.35 328.66L552.5 328.76L552.59 328.82C553.509 329.414 554.46 329.955 555.44 330.44C555.95 330.7 556.44 330.94 556.98 331.17C556.49 331.6 555.98 332.05 555.56 332.52C555.33 332.75 555.1 332.98 554.88 333.22L554.21 333.94C553.77 334.42 553.34 334.94 552.95 335.44L552.35 336.22C552.14 336.48 551.95 336.75 551.76 337.02C550.285 339.113 549.282 341.501 548.82 344.02L548.76 344.47C548.76 344.66 548.7 344.87 548.68 345.08C548.66 345.29 548.68 345.34 548.68 345.47C548.68 345.83 548.61 346.2 548.57 346.6C548.57 347 548.54 347.42 548.48 347.86C548.48 348.09 548.48 348.32 548.48 348.55C548.29 351.89 548.26 356.33 548.42 361.7H549.47C549.23 353.35 549.47 347.32 549.96 344.14C550.068 343.552 550.212 342.971 550.39 342.4C550.559 341.826 550.759 341.262 550.99 340.71C551.449 339.607 552.033 338.56 552.73 337.59C554.349 335.285 556.258 333.198 558.41 331.38V331.38L559.07 330.8L558.3 330.67ZM602.61 582.1C602.27 581.4 601.94 580.7 601.61 580C601.4 579.54 601.18 579.08 600.98 578.62C599.9 576.3 598.84 573.97 597.82 571.62C597.114 570.027 596.42 568.437 595.74 566.85C595.42 566.1 595.1 565.35 594.74 564.59C593.74 562.243 592.767 559.91 591.82 557.59C591.327 556.39 590.847 555.19 590.38 553.99C589.92 552.84 589.47 551.68 589.03 550.52C588.104 548.16 587.21 545.797 586.35 543.43C585.96 542.43 585.58 541.36 585.21 540.33C584.72 539 584.21 537.68 583.78 536.33C583.35 534.98 582.87 533.75 582.43 532.46L582.27 532C581.94 531.08 581.63 530.17 581.33 529.25C579.717 524.53 578.19 519.827 576.75 515.14C576.38 513.96 576.02 512.79 575.68 511.62C575.34 510.45 574.96 509.29 574.63 508.12C574.3 506.95 573.93 505.79 573.63 504.63C573.33 503.47 572.95 502.3 572.63 501.14C572.31 499.98 571.98 498.83 571.63 497.67C571.28 496.51 570.99 495.36 570.68 494.21C570.37 493.06 570.05 491.91 569.75 490.76C569.56 490.07 569.38 489.39 569.2 488.76C568.7 486.867 568.217 484.987 567.75 483.12C566.97 480.01 566.21 476.92 565.49 473.85C564.98 471.69 564.49 469.53 564 467.4C562.86 462.327 561.804 457.327 560.83 452.4C560.51 450.86 560.21 449.32 559.92 447.8C559.77 447.03 559.62 446.26 559.48 445.49C559.34 444.72 559.19 443.97 559.05 443.22C558.91 442.47 558.77 441.71 558.63 440.96C558.36 439.46 558.09 437.96 557.83 436.49C557.83 436.42 557.83 436.35 557.83 436.28C557.58 434.88 557.34 433.48 557.11 432.09C556.88 430.7 556.62 429.18 556.39 427.75C556.39 427.55 556.32 427.35 556.29 427.15C556.09 425.92 555.9 424.69 555.71 423.48C555.59 422.77 555.49 422.07 555.39 421.37C555.18 419.97 554.97 418.59 554.77 417.22C554.57 415.85 554.37 414.49 554.19 413.14C554.09 412.46 554 411.79 553.91 411.14C553.73 409.8 553.55 408.48 553.39 407.14C553.3 406.49 553.22 405.84 553.14 405.2C552.97 403.91 552.81 402.63 552.67 401.37C552.59 400.74 552.51 400.11 552.45 399.49L552.24 397.64C551.36 389.97 550.71 382.89 550.24 376.55H549.18C549.23 377.25 549.28 377.96 549.34 378.69C549.335 378.763 549.335 378.837 549.34 378.91C549.42 379.91 549.51 381.02 549.6 382.1C549.69 383.18 549.78 384.29 549.88 385.41C549.98 386.53 550.09 387.66 550.2 388.81C550.2 389.39 550.31 389.97 550.37 390.55C550.43 391.13 550.48 391.73 550.55 392.32C551.14 398.25 551.89 404.58 552.81 411.25C552.99 412.59 553.18 413.94 553.37 415.3C553.56 416.66 553.77 418.04 553.97 419.42C554.37 422.2 554.81 425.027 555.29 427.9C555.53 429.34 555.77 430.78 556.01 432.24C556.2 433.34 556.38 434.44 556.58 435.55C556.78 436.66 556.96 437.77 557.17 438.89C557.44 440.38 557.71 441.89 558 443.39C558.14 444.15 558.28 444.91 558.43 445.67C558.71 447.19 559.01 448.67 559.32 450.27C559.47 451.04 559.62 451.81 559.78 452.58C559.94 453.35 560.11 454.23 560.28 455.06C560.59 456.57 560.91 458.06 561.28 459.62C561.28 459.75 561.28 459.89 561.36 460.02C561.867 462.433 562.397 464.863 562.95 467.31C563.45 469.53 563.964 471.763 564.49 474.01C565.35 477.65 566.247 481.317 567.18 485.01C567.66 486.87 568.18 488.74 568.64 490.62C568.641 490.637 568.641 490.653 568.64 490.67C571.08 499.92 573.8 509.33 576.82 518.8C577.56 521.15 578.32 523.49 579.1 525.8L580.1 528.69C580.57 530.08 581.1 531.47 581.53 532.86C581.84 533.77 582.16 534.67 582.48 535.58L582.84 536.63L584.03 539.93C584.45 541.11 584.88 542.28 585.32 543.46C585.76 544.64 586.19 545.82 586.64 547C587.51 549.33 588.41 551.65 589.33 554C589.365 554.113 589.408 554.224 589.46 554.33C589.89 555.42 590.33 556.52 590.77 557.61C591.69 559.89 592.627 562.167 593.58 564.44C593.64 564.59 593.7 564.73 593.77 564.88C593.803 564.965 593.839 565.049 593.88 565.13L594.09 565.63C594.103 565.668 594.12 565.705 594.14 565.74C594.21 565.92 594.28 566.1 594.36 566.28C594.44 566.46 594.52 566.65 594.59 566.83C595.257 568.437 595.954 570.047 596.68 571.66C597.707 573.987 598.754 576.32 599.82 578.66C599.99 579.04 600.16 579.41 600.34 579.79C600.7 580.57 601.07 581.35 601.44 582.13C601.98 583.29 602.53 584.44 603.08 585.59H604.26C603.7 584.45 603.15 583.3 602.61 582.1Z" fill="white"/>
<path fill-rule="evenodd" clip-rule="evenodd" d="M559.21 596.1C564.13 585 574.03 568.69 590.59 566.91C607.39 565.1 685.52 584.1 732.52 596.1H559.21Z" fill="#444998"/>
<path fill-rule="evenodd" clip-rule="evenodd" d="M559.21 596.1C562.38 588.95 568.77 578.45 579.43 577.29C590.25 576.13 640.61 588.36 670.9 596.1H559.21Z" fill="#272A57"/>
<path fill-rule="evenodd" clip-rule="evenodd" d="M377.37 267.28H441.03C451.5 267.28 461.36 275.85 462.95 286.33L463.95 292.96C465.54 303.44 458.27 312.01 447.8 312.01H384.16C373.69 312.01 363.82 303.44 362.23 292.96L361.23 286.33C359.64 275.85 366.91 267.28 377.37 267.28Z" fill="#9CA4FF"/>
<path fill-rule="evenodd" clip-rule="evenodd" d="M378.33 273.62C371.33 273.62 366.51 279.35 367.56 286.33L368.56 292.96C369.62 299.96 376.22 305.67 383.19 305.67H446.89C453.89 305.67 458.72 299.94 457.67 292.96L456.67 286.33C455.61 279.33 449.01 273.62 442.04 273.62H378.33Z" fill="#CCCCFF"/>
<path fill-rule="evenodd" clip-rule="evenodd" d="M391.03 279.55C390.023 279.523 389.023 279.722 388.104 280.133C387.184 280.543 386.369 281.155 385.717 281.923C385.066 282.69 384.595 283.594 384.339 284.568C384.083 285.542 384.049 286.561 384.24 287.55L384.88 291.73C385.262 293.917 386.385 295.906 388.06 297.363C389.735 298.819 391.861 299.655 394.08 299.73H434.2C435.206 299.758 436.205 299.559 437.125 299.148C438.044 298.737 438.859 298.125 439.51 297.357C440.16 296.589 440.63 295.685 440.885 294.711C441.139 293.737 441.172 292.718 440.98 291.73L440.35 287.55C439.965 285.362 438.84 283.373 437.163 281.917C435.486 280.46 433.36 279.624 431.14 279.55H391.03Z" fill="#30346C"/>
<path fill-rule="evenodd" clip-rule="evenodd" d="M416.88 377.98H443.19C444.355 377.98 445.471 378.442 446.294 379.266C447.118 380.089 447.58 381.206 447.58 382.37C447.58 383.534 447.118 384.651 446.294 385.474C445.471 386.297 444.355 386.76 443.19 386.76H416.88C415.716 386.76 414.599 386.297 413.776 385.474C412.953 384.651 412.49 383.534 412.49 382.37C412.49 381.206 412.953 380.089 413.776 379.266C414.599 378.442 415.716 377.98 416.88 377.98V377.98Z" fill="#30346C"/>
<path fill-rule="evenodd" clip-rule="evenodd" d="M398.57 283.1C397.913 283.08 397.26 283.21 396.66 283.48C396.066 283.75 395.537 284.146 395.11 284.64C394.683 285.138 394.372 285.725 394.199 286.358C394.026 286.99 393.996 287.654 394.11 288.3L394.53 291.02C394.785 292.442 395.52 293.734 396.612 294.68C397.704 295.626 399.086 296.17 400.53 296.22H426.64C427.298 296.24 427.951 296.11 428.55 295.84C429.145 295.566 429.674 295.167 430.1 294.67C430.524 294.172 430.829 293.584 430.99 292.95C431.158 292.317 431.182 291.654 431.06 291.01L430.64 288.29C430.383 286.874 429.653 285.587 428.57 284.64C427.482 283.693 426.102 283.149 424.66 283.1H398.57Z" fill="white"/>
<path opacity="0.6" d="M369.53 342.02H346.9C346.344 342.058 345.822 342.305 345.441 342.713C345.061 343.12 344.849 343.657 344.849 344.215C344.849 344.773 345.061 345.31 345.441 345.717C345.822 346.125 346.344 346.372 346.9 346.41H369.53C369.831 346.43 370.133 346.389 370.417 346.288C370.701 346.186 370.961 346.028 371.181 345.822C371.401 345.616 371.577 345.368 371.697 345.091C371.817 344.815 371.879 344.516 371.879 344.215C371.879 343.914 371.817 343.615 371.697 343.339C371.577 343.063 371.401 342.814 371.181 342.608C370.961 342.402 370.701 342.244 370.417 342.143C370.133 342.041 369.831 342 369.53 342.02Z" fill="white"/>
<path opacity="0.6" d="M369.53 349.8H362.03C361.729 349.78 361.427 349.821 361.144 349.923C360.86 350.024 360.6 350.182 360.379 350.388C360.159 350.594 359.984 350.843 359.864 351.119C359.744 351.395 359.682 351.694 359.682 351.995C359.682 352.296 359.744 352.595 359.864 352.871C359.984 353.148 360.159 353.396 360.379 353.602C360.6 353.808 360.86 353.966 361.144 354.068C361.427 354.169 361.729 354.21 362.03 354.19H369.52C370.076 354.152 370.598 353.905 370.979 353.497C371.36 353.09 371.572 352.553 371.572 351.995C371.572 351.437 371.36 350.9 370.979 350.493C370.598 350.085 370.076 349.838 369.52 349.8H369.53Z" fill="white"/>
<path opacity="0.15" fill-rule="evenodd" clip-rule="evenodd" d="M613.35 394.56L662.03 567.82C662.03 567.82 674.46 434.18 613.35 394.56Z" fill="#334822"/>
<path opacity="0.15" fill-rule="evenodd" clip-rule="evenodd" d="M720.85 394.56L769.51 567.84C769.51 567.84 781.96 434.18 720.85 394.56Z" fill="#334822"/>
<path opacity="0.2" fill-rule="evenodd" clip-rule="evenodd" d="M656.79 321.53C672.14 321.53 686.3 325.12 697.64 331.16H615.94C627.28 325.1 641.44 321.53 656.79 321.53Z" fill="#334822"/>
<path d="M459.03 548.57C461.67 549.338 464.495 549.176 467.03 548.11C467.073 548.083 467.107 548.045 467.13 548C467.149 547.952 467.149 547.898 467.13 547.85C467.119 547.801 467.09 547.759 467.05 547.73C467.001 547.712 466.948 547.712 466.9 547.73C464.333 547.984 461.742 547.815 459.23 547.23C456.601 546.53 454.162 545.252 452.09 543.49C452.071 543.469 452.048 543.452 452.022 543.44C451.996 543.428 451.968 543.421 451.94 543.42C451.888 543.401 451.831 543.401 451.78 543.42C451.739 543.461 451.716 543.517 451.716 543.575C451.716 543.633 451.739 543.689 451.78 543.73C453.504 546.195 456.092 547.923 459.03 548.57V548.57Z" fill="#252F3D"/>
<path d="M468.82 546.92C468.357 546.619 467.83 546.43 467.282 546.369C466.733 546.308 466.177 546.377 465.66 546.57C465.644 546.566 465.626 546.566 465.61 546.57C465.605 546.59 465.605 546.61 465.61 546.63C465.606 546.65 465.606 546.67 465.61 546.69H465.67C466.31 546.85 467.92 547.23 467.99 547.48C467.79 548.226 467.473 548.934 467.05 549.58C467.045 549.603 467.045 549.627 467.05 549.65C467.043 549.669 467.043 549.691 467.05 549.71H467.11C467.119 549.715 467.129 549.718 467.14 549.718C467.15 549.718 467.161 549.715 467.17 549.71C467.614 549.432 468.001 549.073 468.31 548.65C468.613 548.226 468.831 547.747 468.95 547.24C468.975 547.165 468.975 547.085 468.95 547.01C468.914 546.97 468.87 546.94 468.82 546.92V546.92Z" fill="#252F3D"/>
<path d="M462.87 538.64L461.7 538.36C460.81 538.15 457.36 537.8 456.56 541.14C455.76 544.48 459.4 544.95 459.65 544.95C460.194 544.943 460.733 544.838 461.24 544.64C461.532 544.525 461.858 544.525 462.15 544.64C462.438 544.76 462.672 544.98 462.81 545.26C462.844 545.357 462.898 545.446 462.97 545.52C463.041 545.59 463.126 545.645 463.22 545.68C463.316 545.7 463.414 545.7 463.51 545.68C463.612 545.678 463.712 545.651 463.8 545.6L465.06 544.89C465.193 544.818 465.296 544.701 465.35 544.56C465.4 544.411 465.4 544.249 465.35 544.1C465.049 543.229 464.991 542.292 465.18 541.39L465.76 538.95C466.08 537.63 466.86 534.83 463.07 533.95C460.83 533.41 459.51 534.01 458.75 534.74C458.596 534.888 458.482 535.074 458.421 535.279C458.36 535.484 458.352 535.701 458.4 535.91C458.45 536.118 458.549 536.31 458.69 536.47C458.832 536.632 459.015 536.753 459.22 536.82V536.82C459.453 536.903 459.706 536.917 459.947 536.86C460.188 536.803 460.408 536.678 460.58 536.5C460.828 536.242 461.143 536.058 461.49 535.97C461.833 535.87 462.197 535.87 462.54 535.97C463.02 536.09 463.65 536.45 463.54 537.05L463.24 538.32C463.222 538.403 463.171 538.474 463.1 538.52C463.042 538.589 462.959 538.632 462.87 538.64V538.64ZM462.87 540.19C463.16 540.238 463.447 540.301 463.73 540.38C463.782 540.39 463.832 540.411 463.875 540.442C463.918 540.473 463.954 540.513 463.98 540.56C464.011 540.605 464.031 540.656 464.039 540.709C464.048 540.763 464.045 540.818 464.03 540.87C464.005 540.974 463.94 541.063 463.85 541.12C463.802 541.14 463.751 541.15 463.7 541.15C463.648 541.15 463.597 541.14 463.55 541.12C463.377 541.102 463.204 541.095 463.03 541.1C462.955 541.076 462.875 541.076 462.8 541.1C462.732 541.143 462.68 541.206 462.65 541.28C462.559 541.556 462.409 541.808 462.21 542.02C462.01 542.229 461.773 542.399 461.51 542.52C461.144 542.687 460.736 542.739 460.34 542.67C459.15 542.39 459.44 541.32 459.84 540.88C460.24 540.44 461.07 539.79 462.9 540.17L462.87 540.19Z" fill="#F39C39"/>
<path d="M773.03 345.18H647.25V421.86H773.03V345.18Z" fill="white"/>
<path d="M659.87 352.39H700.68C701.294 352.373 701.909 352.393 702.52 352.45C702.823 352.464 703.112 352.58 703.34 352.78C703.536 353.006 703.649 353.291 703.66 353.59C703.718 354.205 703.738 354.823 703.72 355.44V379.33C703.738 379.947 703.718 380.565 703.66 381.18C703.665 381.33 703.638 381.48 703.582 381.62C703.526 381.759 703.442 381.886 703.335 381.992C703.228 382.098 703.101 382.181 702.961 382.235C702.821 382.29 702.671 382.316 702.52 382.31C701.909 382.368 701.294 382.388 700.68 382.37H659.87C659.253 382.387 658.635 382.367 658.02 382.31C657.87 382.316 657.721 382.29 657.581 382.235C657.442 382.181 657.315 382.098 657.209 381.992C657.103 381.885 657.02 381.759 656.965 381.619C656.91 381.479 656.885 381.33 656.89 381.18C656.833 380.565 656.813 379.947 656.83 379.33V355.44C656.813 354.823 656.833 354.205 656.89 353.59C656.901 353.291 657.014 353.006 657.21 352.78C657.435 352.582 657.721 352.466 658.02 352.45C658.635 352.393 659.253 352.373 659.87 352.39V352.39Z" stroke="#DFDFF4" stroke-width="0.87"/>
<path d="M702.63 391.96H676.55C676.328 391.915 676.099 391.921 675.879 391.975C675.659 392.03 675.455 392.133 675.279 392.276C675.104 392.42 674.963 392.601 674.866 392.805C674.769 393.01 674.719 393.234 674.719 393.46C674.719 393.687 674.769 393.91 674.866 394.115C674.963 394.32 675.104 394.5 675.279 394.644C675.455 394.787 675.659 394.89 675.879 394.945C676.099 394.999 676.328 395.005 676.55 394.96H702.63C702.977 394.89 703.289 394.703 703.512 394.429C703.736 394.156 703.859 393.813 703.859 393.46C703.859 393.107 703.736 392.764 703.512 392.491C703.289 392.217 702.977 392.03 702.63 391.96V391.96Z" fill="#DCDAE6"/>
<path d="M702.63 397.72H657.92C657.573 397.79 657.262 397.977 657.038 398.251C656.814 398.524 656.691 398.867 656.691 399.22C656.691 399.573 656.814 399.916 657.038 400.189C657.262 400.463 657.573 400.65 657.92 400.72H702.63C702.976 400.65 703.288 400.463 703.512 400.189C703.736 399.916 703.858 399.573 703.858 399.22C703.858 398.867 703.736 398.524 703.512 398.251C703.288 397.977 702.976 397.79 702.63 397.72V397.72Z" fill="#DCDAE6"/>
<path d="M694.84 403.49H657.92C657.537 403.521 657.18 403.695 656.919 403.978C656.658 404.26 656.514 404.631 656.514 405.015C656.514 405.399 656.658 405.77 656.919 406.052C657.18 406.335 657.537 406.509 657.92 406.54H694.84C695.051 406.557 695.263 406.53 695.462 406.461C695.662 406.393 695.846 406.283 696.001 406.14C696.156 405.996 696.28 405.823 696.365 405.629C696.45 405.435 696.494 405.226 696.494 405.015C696.494 404.804 696.45 404.595 696.365 404.401C696.28 404.207 696.156 404.034 696.001 403.89C695.846 403.747 695.662 403.637 695.462 403.569C695.263 403.5 695.051 403.473 694.84 403.49Z" fill="#DCDAE6"/>
<path d="M694.84 409.25H657.92C657.537 409.281 657.18 409.455 656.919 409.738C656.658 410.02 656.514 410.391 656.514 410.775C656.514 411.159 656.658 411.53 656.919 411.812C657.18 412.095 657.537 412.269 657.92 412.3H694.84C695.051 412.317 695.263 412.29 695.462 412.221C695.662 412.152 695.846 412.043 696.001 411.9C696.156 411.756 696.28 411.582 696.365 411.389C696.45 411.195 696.494 410.986 696.494 410.775C696.494 410.564 696.45 410.355 696.365 410.161C696.28 409.967 696.156 409.794 696.001 409.65C695.846 409.507 695.662 409.397 695.462 409.329C695.263 409.26 695.051 409.233 694.84 409.25Z" fill="#DCDAE6"/>
<path d="M712.03 352.4H752.83C753.448 352.382 754.065 352.402 754.68 352.46C754.98 352.466 755.267 352.58 755.49 352.78C755.692 353.003 755.809 353.29 755.82 353.59C755.878 354.205 755.898 354.823 755.88 355.44V408.82C755.898 409.437 755.878 410.055 755.82 410.67C755.811 410.971 755.694 411.259 755.49 411.48C755.266 411.68 754.98 411.796 754.68 411.81C754.065 411.868 753.448 411.888 752.83 411.87H712.03C711.413 411.887 710.795 411.867 710.18 411.81C709.881 411.794 709.595 411.678 709.37 411.48C709.174 411.254 709.062 410.969 709.05 410.67C708.993 410.055 708.973 409.437 708.99 408.82V355.44C708.973 354.823 708.993 354.205 709.05 353.59C709.064 353.292 709.176 353.007 709.37 352.78C709.595 352.582 709.881 352.469 710.18 352.46C710.795 352.403 711.413 352.383 712.03 352.4Z" stroke="#DFDFF4" stroke-width="0.87"/>
<path d="M762.86 351.96H762.31C760.67 351.96 759.85 351.96 759.31 352.47C758.77 352.98 758.8 353.8 758.8 355.47V375.6C758.8 377.24 758.8 378.06 759.31 378.6C759.82 379.14 760.64 379.11 762.31 379.11H762.86C764.5 379.11 765.32 379.11 765.86 378.6C766.4 378.09 766.37 377.27 766.37 375.6V355.44C766.37 353.8 766.37 352.98 765.86 352.44C765.35 351.9 764.5 351.96 762.86 351.96Z" fill="#F8CA7A"/>
<path opacity="0.8" d="M762.86 383.49H762.31C760.67 383.49 759.85 383.49 759.31 384C758.77 384.51 758.8 385.32 758.8 387V408.6C758.8 410.24 758.8 411.06 759.31 411.6C759.82 412.14 760.64 412.11 762.31 412.11H762.86C764.5 412.11 765.32 412.11 765.86 411.6C766.4 411.09 766.37 410.27 766.37 408.6V387C766.37 385.36 766.37 384.54 765.86 384C765.35 383.46 764.5 383.49 762.86 383.49Z" fill="#FE5D19"/>
<path d="M638.21 404.97H611.38C610.823 405.008 610.302 405.255 609.921 405.663C609.54 406.07 609.328 406.607 609.328 407.165C609.328 407.723 609.54 408.26 609.921 408.667C610.302 409.075 610.823 409.322 611.38 409.36H638.21C638.766 409.322 639.288 409.075 639.669 408.667C640.05 408.26 640.262 407.723 640.262 407.165C640.262 406.607 640.05 406.07 639.669 405.663C639.288 405.255 638.766 405.008 638.21 404.97V404.97Z" fill="white"/>
<path opacity="0.2" d="M624.5 412.54H611.38C610.8 412.54 610.243 412.771 609.832 413.181C609.421 413.592 609.19 414.149 609.19 414.73C609.19 415.311 609.421 415.868 609.832 416.279C610.243 416.689 610.8 416.92 611.38 416.92H624.5C625.081 416.92 625.638 416.689 626.049 416.279C626.46 415.868 626.69 415.311 626.69 414.73C626.69 414.149 626.46 413.592 626.049 413.181C625.638 412.771 625.081 412.54 624.5 412.54Z" fill="white"/>
<path d="M684.55 504.71H656.15C655.458 504.71 654.794 504.985 654.305 505.474C653.815 505.964 653.54 506.628 653.54 507.32V507.57C653.54 507.912 653.608 508.251 653.739 508.567C653.87 508.883 654.063 509.17 654.305 509.412C654.548 509.654 654.835 509.845 655.152 509.975C655.469 510.105 655.808 510.171 656.15 510.17H684.55C684.892 510.171 685.231 510.105 685.548 509.975C685.865 509.845 686.152 509.654 686.395 509.412C686.637 509.17 686.83 508.883 686.961 508.567C687.092 508.251 687.16 507.912 687.16 507.57V507.32C687.16 506.628 686.885 505.964 686.396 505.474C685.906 504.985 685.242 504.71 684.55 504.71V504.71Z" fill="white"/>
<path opacity="0.5" d="M667.74 513.43H656.15C655.458 513.43 654.794 513.705 654.305 514.194C653.815 514.684 653.54 515.348 653.54 516.04V516.28C653.54 516.972 653.815 517.636 654.305 518.126C654.794 518.615 655.458 518.89 656.15 518.89H667.74C668.432 518.89 669.096 518.615 669.586 518.126C670.075 517.636 670.35 516.972 670.35 516.28V516.04C670.35 515.348 670.075 514.684 669.586 514.194C669.096 513.705 668.432 513.43 667.74 513.43V513.43Z" fill="white"/>
<path opacity="0.2" fill-rule="evenodd" clip-rule="evenodd" d="M652.6 459.1H677.84L700.29 436.62H762.42V437.69H700.74L678.28 460.17H652.6V459.1Z" fill="white"/>
<path d="M653.97 454.55H652.03C651.569 454.55 651.126 454.733 650.8 455.06C650.473 455.386 650.29 455.829 650.29 456.29V463.01C650.29 463.471 650.473 463.914 650.8 464.24C651.126 464.567 651.569 464.75 652.03 464.75H653.93C654.392 464.75 654.834 464.567 655.16 464.24C655.487 463.914 655.67 463.471 655.67 463.01V456.29C655.67 455.835 655.492 455.399 655.175 455.074C654.857 454.748 654.425 454.561 653.97 454.55V454.55Z" fill="white"/>
<path d="M702.03 432.19H700.13C699.668 432.19 699.226 432.373 698.899 432.7C698.573 433.026 698.39 433.469 698.39 433.93V440.64C698.39 441.101 698.573 441.544 698.899 441.87C699.226 442.197 699.668 442.38 700.13 442.38H702.03C702.491 442.38 702.934 442.197 703.26 441.87C703.586 441.544 703.77 441.101 703.77 440.64V433.93C703.77 433.469 703.586 433.026 703.26 432.7C702.934 432.373 702.491 432.19 702.03 432.19Z" fill="white"/>
<path d="M757.03 432.19H755.14C754.679 432.19 754.236 432.373 753.91 432.7C753.584 433.026 753.4 433.469 753.4 433.93V440.64C753.4 441.102 753.584 441.544 753.91 441.87C754.236 442.197 754.679 442.38 755.14 442.38H757.03C757.26 442.381 757.487 442.337 757.699 442.251C757.912 442.164 758.105 442.036 758.267 441.874C758.43 441.712 758.559 441.52 758.647 441.308C758.735 441.096 758.78 440.869 758.78 440.64V433.93C758.78 433.701 758.735 433.474 758.647 433.262C758.559 433.05 758.43 432.858 758.267 432.696C758.105 432.534 757.912 432.406 757.699 432.32C757.487 432.233 757.26 432.189 757.03 432.19Z" fill="white"/>
<path d="M246.521 236.551C248.343 236.34 249.648 234.692 249.436 232.87C249.225 231.049 247.577 229.744 245.756 229.955C243.935 230.167 242.629 231.814 242.841 233.636C243.052 235.457 244.7 236.762 246.521 236.551Z" fill="white"/>
<path d="M718.83 385.41C719.27 385.41 719.693 385.585 720.004 385.896C720.315 386.208 720.49 386.63 720.49 387.07V403.68C720.49 404.12 720.315 404.543 720.004 404.854C719.693 405.165 719.27 405.34 718.83 405.34V405.34C718.39 405.34 717.968 405.165 717.656 404.854C717.345 404.543 717.17 404.12 717.17 403.68V387.1C717.166 386.88 717.206 386.66 717.288 386.456C717.369 386.251 717.491 386.064 717.646 385.907C717.8 385.749 717.985 385.624 718.188 385.539C718.391 385.454 718.61 385.41 718.83 385.41V385.41Z" fill="#A3CF80"/>
<path d="M725.47 372.1C725.91 372.1 726.332 372.275 726.644 372.586C726.955 372.897 727.13 373.32 727.13 373.76V403.65C727.13 404.09 726.955 404.512 726.644 404.824C726.332 405.135 725.91 405.31 725.47 405.31V405.31C725.03 405.31 724.607 405.135 724.296 404.824C723.985 404.512 723.81 404.09 723.81 403.65V373.79C723.806 373.569 723.846 373.35 723.927 373.146C724.009 372.941 724.131 372.754 724.285 372.597C724.44 372.439 724.624 372.314 724.828 372.229C725.031 372.144 725.249 372.1 725.47 372.1V372.1Z" fill="#A3CF80"/>
<path d="M730.45 393.71C730.45 393.27 730.625 392.848 730.936 392.536C731.248 392.225 731.67 392.05 732.11 392.05C732.55 392.05 732.973 392.225 733.284 392.536C733.595 392.848 733.77 393.27 733.77 393.71V403.71C733.77 404.15 733.595 404.573 733.284 404.884C732.973 405.195 732.55 405.37 732.11 405.37C731.67 405.37 731.248 405.195 730.936 404.884C730.625 404.573 730.45 404.15 730.45 403.71V393.71Z" fill="#A3CF80"/>
<path d="M743.73 385.41C743.73 384.97 743.905 384.548 744.217 384.236C744.528 383.925 744.95 383.75 745.39 383.75C745.831 383.75 746.253 383.925 746.564 384.236C746.876 384.548 747.05 384.97 747.05 385.41V403.68C747.05 404.12 746.876 404.542 746.564 404.854C746.253 405.165 745.831 405.34 745.39 405.34C744.95 405.34 744.528 405.165 744.217 404.854C743.905 404.542 743.73 404.12 743.73 403.68V385.41Z" fill="#A3CF80"/>
<path d="M737.09 398.69C737.09 398.25 737.265 397.828 737.576 397.516C737.887 397.205 738.31 397.03 738.75 397.03C739.19 397.03 739.612 397.205 739.924 397.516C740.235 397.828 740.41 398.25 740.41 398.69V402.01C740.41 402.45 740.235 402.873 739.924 403.184C739.612 403.495 739.19 403.67 738.75 403.67C738.31 403.67 737.887 403.495 737.576 403.184C737.265 402.873 737.09 402.45 737.09 402.01V398.69Z" fill="#A3CF80"/>
<path d="M657.82 382.1C658.22 375.46 660.22 370.48 665.82 370.48C671.42 370.48 670.63 377.1 678.23 377.1C685.83 377.1 684.06 361.75 692.23 361.75C699.83 361.75 702.63 381.25 702.63 381.25" stroke="#F8CA7A" stroke-width="1.74" stroke-linecap="round"/>
<path d="M657.82 362.17C657.82 362.17 661.51 375.85 669.44 372.17C673.92 370.07 673.63 362.48 678.57 362.17C683.69 361.9 681.89 377.94 691.85 377.94C703.01 377.94 704.3 356.36 704.3 356.36" stroke="#6D6DF6" stroke-width="1.74" stroke-linecap="round"/>
<path d="M219.79 124.59C218.946 124.561 218.106 124.719 217.33 125.05C215.12 126.13 213.78 128.97 213.41 133.56C213.309 134.687 213.266 135.819 213.28 136.95V139.83C213.28 140.7 213.28 141.58 213.41 142.5L213.66 145.13C213.91 146.38 214.08 147.21 214.2 147.67C214.369 148.443 214.607 149.199 214.91 149.93C215.031 150.277 215.185 150.612 215.37 150.93C215.674 151.419 216.055 151.855 216.5 152.22C216.939 152.516 217.396 152.784 217.87 153.02C218.413 153.228 218.972 153.395 219.54 153.52C220.024 153.62 220.516 153.673 221.01 153.68H221.26C222.049 153.698 222.828 153.497 223.51 153.1C223.949 152.826 224.321 152.457 224.6 152.02C224.73 151.735 224.84 151.441 224.93 151.14C225.431 149.463 225.765 147.742 225.93 146V146C225.923 145.894 225.887 145.792 225.827 145.704C225.768 145.616 225.686 145.546 225.59 145.5C225.149 145.243 224.639 145.128 224.13 145.17V145.17C223.789 145.158 223.45 145.212 223.13 145.33C222.59 145.54 222.3 145.79 222.3 146.17C222.285 147.057 222.171 147.939 221.96 148.8C221.827 149.096 221.659 149.374 221.46 149.63C221.234 149.88 220.948 150.07 220.63 150.18C219.21 150.05 218.58 149.68 218.25 148.63C218.023 147.985 217.882 147.312 217.83 146.63C217.7 145.75 217.62 144.29 217.54 142.25C217.49 141.66 217.49 140.78 217.49 139.62V131.62C217.441 130.847 217.601 130.076 217.953 129.386C218.305 128.697 218.836 128.114 219.49 127.7C220.045 127.512 220.618 127.385 221.2 127.32H221.45C221.629 127.585 221.783 127.866 221.91 128.16C222.039 128.917 222.11 129.682 222.12 130.45C222.12 130.75 222.12 131.45 222.12 131.75V132C222.076 132.343 222.135 132.691 222.29 133C222.416 133.18 222.584 133.327 222.779 133.428C222.974 133.529 223.19 133.581 223.41 133.58C223.616 133.629 223.829 133.646 224.04 133.63C224.527 133.643 225.008 133.511 225.42 133.25C225.766 132.902 225.973 132.44 226 131.95C226 131.66 226.13 131.29 226.13 131V130.24C226.03 126.72 224.03 124.59 219.79 124.59ZM242.31 134.36C242.154 132.578 241.819 130.815 241.31 129.1C240.1 125.76 238.14 124.1 235.47 124.1C234.693 124.099 233.924 124.255 233.21 124.56C232.483 124.898 231.863 125.431 231.42 126.1C230.365 127.664 229.599 129.405 229.16 131.24C228.763 133.135 228.555 135.064 228.54 137C228.54 138.33 228.54 139.21 228.45 139.59C228.45 140.17 228.45 141 228.45 142.13C228.422 143.693 228.492 145.256 228.66 146.81C228.763 148.131 229.192 149.406 229.91 150.52C231.14 152.04 232.85 153.098 234.76 153.52C235.212 153.6 235.671 153.64 236.13 153.64C236.77 153.677 237.41 153.556 237.992 153.287C238.575 153.019 239.082 152.611 239.47 152.1C240.12 150.982 240.665 149.807 241.1 148.59C241.909 145.907 242.33 143.122 242.35 140.32C242.35 139.7 242.35 138.78 242.35 137.49V136.61C242.39 135.61 242.35 134.86 242.31 134.36ZM238.6 139.87C238.703 142.704 238.29 145.534 237.38 148.22C237.01 149.13 236.51 150.68 235.21 150.68H234.55C233.922 149.897 233.41 149.028 233.03 148.1C232.598 146.131 232.416 144.115 232.49 142.1C232.49 141.43 232.49 139.84 232.49 139.3C232.409 136.137 232.763 132.977 233.54 129.91C233.721 129.283 233.942 128.669 234.2 128.07C234.54 127.36 234.91 126.98 235.29 126.98C235.425 126.986 235.558 127.019 235.68 127.077C235.802 127.136 235.911 127.218 236 127.32C237.08 128.53 237.92 130.57 238.5 133.46C238.533 133.876 238.533 134.294 238.5 134.71L238.6 139.87ZM258.45 133.48C257.99 129.68 257.12 127.05 255.82 125.59C255.327 125.112 254.737 124.745 254.09 124.514C253.443 124.283 252.754 124.193 252.07 124.25C251.318 124.22 250.567 124.321 249.85 124.55C248.85 124.96 247.85 126.09 247.06 127.97C246.272 129.695 245.682 131.503 245.3 133.36C245.013 135.068 244.889 136.799 244.93 138.53V140.24C244.93 141.04 244.93 141.58 244.93 141.95C245.012 144.521 245.463 147.067 246.27 149.51C246.56 150.783 247.294 151.911 248.34 152.692C249.387 153.473 250.677 153.855 251.98 153.77C252.754 153.787 253.524 153.644 254.24 153.35C254.604 153.176 254.941 152.95 255.24 152.68C256.669 151.342 257.608 149.564 257.91 147.63C258.53 144.962 258.825 142.229 258.79 139.49C258.788 137.482 258.675 135.475 258.45 133.48ZM254.65 144.17L254.45 145.46L254.2 146.88C254.2 147.13 254.03 147.55 253.86 148.09C253.755 148.676 253.51 149.229 253.146 149.7C252.782 150.172 252.31 150.549 251.77 150.8C251.461 150.719 251.185 150.544 250.98 150.3C250.207 149.342 249.638 148.236 249.31 147.05C248.908 145.677 248.683 144.259 248.64 142.83C248.64 141.83 248.64 140.37 248.64 138.41C248.584 136.046 248.88 133.687 249.52 131.41C249.793 130.525 250.128 129.659 250.52 128.82C251.02 127.7 251.44 127.11 251.73 127.11C252.44 127.11 253.57 128.78 254.03 130.58C254.274 131.609 254.441 132.656 254.53 133.71C254.783 137.09 254.907 139.47 254.9 140.85C254.893 141.961 254.809 143.07 254.65 144.17V144.17ZM269.92 150.34C268.575 150.426 267.238 150.61 265.92 150.89C265.92 149.34 265.92 146.8 265.92 143.17L266.04 134.82C266.04 133.02 266.13 130.39 266.13 126.88C266.13 126.55 266.08 125.88 266.08 125.55C266.08 124.96 265.5 124.67 264.42 124.67C262.7 124.67 261.83 125.01 261.74 125.67C261.62 126.665 261.566 127.668 261.58 128.67C261.58 129.29 261.58 130.8 261.58 131.42V131.92C261.58 134.05 261.58 137.23 261.66 141.44C261.74 145.65 261.75 148.83 261.75 150.96C261.7 151.18 261.684 151.405 261.7 151.63C261.688 152.043 261.76 152.455 261.91 152.84C262.283 153.185 262.726 153.446 263.21 153.605C263.693 153.764 264.204 153.817 264.71 153.76C265.772 153.761 266.832 153.678 267.88 153.51C268.847 153.37 269.823 153.299 270.8 153.3H270.85C272.01 153.3 272.6 153.01 272.64 152.42C272.55 150.76 271.8 150.34 269.92 150.34ZM279.71 150.72C279.71 150.14 279.04 149.84 277.91 149.84C277.08 149.84 276.12 150.14 276.12 150.68C276.12 151.22 276.24 152.35 276.24 152.89C276.247 153.225 276.22 153.56 276.16 153.89C275.629 154.655 275.011 155.356 274.32 155.98C274.28 156.072 274.253 156.17 274.24 156.27C274.24 156.9 274.87 157.19 276.08 157.19C276.387 157.209 276.695 157.163 276.983 157.055C277.271 156.946 277.532 156.777 277.75 156.56C277.95 156.35 278.87 155.44 279.17 155.06C279.591 154.477 279.822 153.779 279.83 153.06C279.833 152.278 279.793 151.497 279.71 150.72V150.72ZM310.66 151.26L310.16 148.34C309.16 143.34 308.53 140.03 308.16 138.34L306.9 132.87L305.9 129.07C305.732 128.188 305.481 127.324 305.15 126.49C304.82 125.44 304.48 124.86 304.15 124.69C304.02 124.69 303.98 124.61 303.98 124.57C303.947 124.537 303.908 124.512 303.865 124.497C303.822 124.481 303.776 124.476 303.73 124.48C303.387 124.492 303.049 124.563 302.73 124.69C302.617 124.734 302.517 124.806 302.44 124.9C301.696 125.701 301.202 126.702 301.02 127.78L298.55 137.67C297.09 143.6 296.22 147.15 295.84 148.36C295.39 149.567 295.123 150.834 295.05 152.12C295.05 152.54 295.17 152.83 295.42 152.95C295.855 153.226 296.365 153.359 296.88 153.33C297.238 153.344 297.595 153.286 297.93 153.16C298.063 153.108 298.187 153.037 298.3 152.95C298.89 152.62 299.35 150.95 299.72 148.11L301.39 148.24C301.979 148.253 302.568 148.307 303.15 148.4C303.892 148.534 304.645 148.605 305.4 148.61C305.61 148.61 306.23 148.61 306.57 148.61C306.65 149.36 306.86 150.49 306.99 151.11C307.071 151.623 307.194 152.128 307.36 152.62C307.539 152.811 307.753 152.967 307.99 153.08C308.375 153.235 308.785 153.32 309.2 153.33C309.413 153.35 309.629 153.323 309.83 153.25C310.032 153.177 310.215 153.061 310.366 152.909C310.517 152.757 310.632 152.573 310.704 152.371C310.776 152.169 310.802 151.953 310.78 151.74C310.7 151.55 310.66 151.39 310.66 151.26ZM302.94 145.17C302.19 145.17 301.35 145.17 300.39 145.29L301.14 141.66C302.14 137.24 302.86 133.56 303.32 130.66L303.48 132.29L303.98 134.8L304.53 137.63C304.61 138.26 304.78 139.05 304.99 140.06C305.2 140.843 305.367 141.638 305.49 142.44C305.49 142.89 305.86 144.31 305.99 145.15L302.94 145.17ZM323.55 144C322.43 144 321.84 144.29 321.76 144.88C321.22 147.8 320.88 149.47 320.76 149.93C320.51 150.59 320.34 151.14 319.42 151.14H319.3C319.3 151.14 319.3 151.14 319.21 151.14H319.13C318.764 150.952 318.427 150.713 318.13 150.43C316.83 149.09 316.13 146.21 316.13 143.54V142.91C316.13 141.2 316.18 139.91 316.26 139.11C316.26 138.91 316.34 138.32 316.38 137.4L316.59 135.19C316.59 134.65 316.76 133.94 316.88 133.02C316.969 132.267 317.14 131.526 317.39 130.81C317.97 128.97 319.01 127.09 320.6 127.26H320.85C321.23 127.26 321.43 127.63 321.52 128.26V128.89C321.52 129.3 321.52 129.97 321.43 130.89C321.56 131.51 322.14 131.81 323.23 131.81C324.32 131.81 324.98 131.51 325.02 130.89C325.02 130.68 325.02 130.18 325.02 129.47C325.02 128.76 325.02 128.22 325.02 127.92C325.003 127.712 324.973 127.505 324.93 127.3C324.31 125.42 322.43 124.46 319.34 124.46C317.915 124.409 316.512 124.82 315.34 125.63C314.276 126.57 313.547 127.83 313.26 129.22C312.819 130.72 312.511 132.256 312.34 133.81C312.21 135.1 312.13 136.81 312.01 138.9C312.01 139.82 311.92 140.74 311.92 141.62C311.845 144.121 312.183 146.618 312.92 149.01C313.242 149.734 313.666 150.407 314.18 151.01C314.815 151.863 315.649 152.549 316.609 153.007C317.569 153.466 318.627 153.683 319.69 153.64C322.28 153.64 323.86 152.3 324.45 149.64L324.7 148.52L324.9 146.8C324.97 146.183 325.084 145.571 325.24 144.97C325.22 144.29 324.64 144 323.55 144V144ZM341.3 133.48C340.84 129.68 339.963 127.05 338.67 125.59C338.175 125.112 337.583 124.745 336.935 124.513C336.286 124.282 335.596 124.192 334.91 124.25C334.161 124.219 333.413 124.321 332.7 124.55C331.65 124.96 330.7 126.09 329.9 127.97C329.111 129.693 328.523 131.502 328.15 133.36C327.859 135.067 327.732 136.798 327.77 138.53V140.24C327.82 141.04 327.82 141.58 327.82 141.95C327.898 144.521 328.346 147.067 329.15 149.51C329.444 150.783 330.18 151.91 331.228 152.69C332.275 153.471 333.566 153.853 334.87 153.77C335.641 153.787 336.407 153.644 337.12 153.35C337.484 153.176 337.821 152.95 338.12 152.68C339.549 151.342 340.488 149.564 340.79 147.63C341.402 144.961 341.694 142.228 341.66 139.49C341.652 137.482 341.532 135.475 341.3 133.48ZM337.5 144.17L337.29 145.46L337.04 146.88C337.04 147.13 336.87 147.55 336.71 148.09C336.603 148.676 336.358 149.227 335.994 149.699C335.63 150.17 335.159 150.548 334.62 150.8C334.311 150.719 334.035 150.544 333.83 150.3C333.054 149.344 332.485 148.237 332.16 147.05C331.758 145.677 331.533 144.259 331.49 142.83C331.49 141.83 331.49 140.37 331.49 138.41C331.436 136.047 331.729 133.688 332.36 131.41C332.63 130.524 332.964 129.658 333.36 128.82C333.86 127.7 334.27 127.11 334.57 127.11C335.27 127.11 336.4 128.78 336.86 130.58C337.109 131.608 337.276 132.655 337.36 133.71C337.613 137.09 337.74 139.47 337.74 140.85C337.736 141.961 337.656 143.07 337.5 144.17V144.17ZM351.85 127.43C352.61 127.414 353.347 127.698 353.9 128.22C354.65 129.05 355.07 130.56 355.19 132.77C355.211 132.882 355.256 132.988 355.322 133.081C355.387 133.174 355.472 133.252 355.57 133.31C356.012 133.566 356.52 133.684 357.03 133.65V133.65C357.371 133.665 357.712 133.607 358.03 133.48C358.49 133.27 358.74 133.06 358.74 132.81C358.74 132.48 358.66 131.56 358.66 131.22C358.608 129.948 358.397 128.689 358.03 127.47C357.41 125.92 355.4 124.79 353.27 124.63C352.77 124.63 352.06 124.54 351.14 124.54C349.918 124.459 348.696 124.704 347.6 125.25C347.47 125.3 347.39 125.42 347.26 125.46C347.111 125.577 346.971 125.704 346.84 125.84C346.502 126.143 346.194 126.478 345.92 126.84C345.459 127.593 345.15 128.429 345.01 129.3C344.911 129.895 344.868 130.497 344.88 131.1C344.88 131.39 344.88 132.02 344.88 132.23C344.914 133.022 345.101 133.799 345.43 134.52C345.807 135.165 346.318 135.721 346.93 136.15L350.14 138.66L351.44 139.58C351.922 139.877 352.38 140.211 352.81 140.58C353.645 141.398 354.138 142.502 354.19 143.67V144.88C354.19 145.17 354.28 146.67 354.28 147.34C354.283 147.758 354.253 148.176 354.19 148.59C354.042 149.187 353.714 149.723 353.251 150.128C352.787 150.532 352.211 150.784 351.6 150.85C351.09 150.784 350.612 150.564 350.23 150.22C349.248 149.197 348.693 147.838 348.68 146.42C348.68 146.05 348.68 145.59 348.68 145.13V145C348.693 143.954 348.763 142.909 348.89 141.87C348.869 141.758 348.824 141.652 348.758 141.559C348.693 141.466 348.608 141.388 348.51 141.33C348.059 141.056 347.537 140.924 347.01 140.95C346.639 140.979 346.278 141.083 345.948 141.255C345.618 141.426 345.326 141.663 345.09 141.95C344.593 142.432 344.27 143.065 344.17 143.75C344.115 144.08 344.089 144.415 344.09 144.75C344.065 145.126 344.065 145.504 344.09 145.88C344.126 146.708 344.237 147.531 344.42 148.34C344.638 149.88 345.338 151.312 346.42 152.43C347.1 152.977 347.903 153.351 348.76 153.52C349.359 153.66 349.975 153.717 350.59 153.69C351.494 153.659 352.39 153.518 353.26 153.27C353.602 153.122 353.953 152.995 354.31 152.89C354.767 152.699 355.211 152.479 355.64 152.23C356.302 151.875 356.874 151.372 357.31 150.76C358.175 149.701 358.648 148.377 358.65 147.01C358.65 146.26 358.65 145.46 358.57 144.63C358.537 144.067 358.453 143.508 358.32 142.96C357.919 141.258 357.017 139.715 355.73 138.53C354.801 137.822 353.794 137.221 352.73 136.74C351.107 135.873 349.848 134.454 349.18 132.74C348.915 132.018 348.763 131.259 348.73 130.49C348.699 130.141 348.699 129.789 348.73 129.44C349.35 128.1 350.03 127.59 351.85 127.43V127.43ZM378.48 124.59C378.197 124.357 377.846 124.224 377.48 124.21V124.21C377.122 124.196 376.765 124.254 376.43 124.38C376.127 124.502 375.855 124.689 375.632 124.927C375.409 125.166 375.241 125.45 375.14 125.76C374.962 126.227 374.864 126.72 374.85 127.22C374.85 127.89 374.76 128.39 374.76 128.76V129.18C374.76 129.68 374.81 130.43 374.85 131.43C374.85 132.19 374.85 133.31 374.85 134.77V142.5C374.85 142.5 374.85 144.25 374.97 147.67C374.97 148.17 374.97 148.93 375.02 149.89C375.07 150.85 375.02 151.6 375.02 152.06C375.02 152.06 375.02 152.31 375.02 152.43C375.02 153.06 375.69 153.35 376.82 153.35C377.161 153.358 377.501 153.301 377.82 153.18L378.24 152.98C378.336 152.923 378.416 152.842 378.474 152.746C378.531 152.65 378.564 152.542 378.57 152.43C378.57 151.1 378.57 149.13 378.57 146.59C378.57 145.96 378.57 145.04 378.57 143.79C378.57 142.54 378.57 141.62 378.57 140.99V138.24C378.57 137.11 378.57 135.61 378.65 133.81C378.73 132.01 378.73 130.72 378.73 130.02C378.78 127.84 378.82 126.22 378.82 125.13C378.803 125.021 378.765 124.918 378.706 124.825C378.648 124.732 378.571 124.652 378.48 124.59V124.59ZM389.38 127.43C390.123 127.427 390.839 127.71 391.38 128.22C392.13 129.05 392.55 130.56 392.67 132.77C392.691 132.882 392.736 132.988 392.802 133.081C392.867 133.174 392.952 133.252 393.05 133.31C393.492 133.566 394 133.684 394.51 133.65V133.65C394.851 133.664 395.192 133.606 395.51 133.48C395.97 133.27 396.22 133.06 396.22 132.81C396.22 132.48 396.14 131.56 396.14 131.22C396.088 129.948 395.877 128.689 395.51 127.47C394.88 125.92 392.88 124.79 390.75 124.63C390.25 124.63 389.54 124.54 388.62 124.54C387.395 124.461 386.17 124.706 385.07 125.25C384.95 125.3 384.86 125.42 384.74 125.46C384.589 125.574 384.449 125.701 384.32 125.84C383.982 126.143 383.674 126.478 383.4 126.84C382.939 127.593 382.63 128.429 382.49 129.3C382.391 129.895 382.348 130.497 382.36 131.1C382.36 131.39 382.36 132.02 382.36 132.23C382.39 133.022 382.577 133.8 382.91 134.52C383.287 135.165 383.798 135.721 384.41 136.15L387.62 138.66L388.92 139.58C389.402 139.877 389.86 140.211 390.29 140.58C391.125 141.398 391.618 142.502 391.67 143.67V144.88C391.67 145.17 391.76 146.67 391.76 147.34C391.763 147.758 391.733 148.176 391.67 148.59C391.522 149.187 391.194 149.723 390.731 150.128C390.267 150.532 389.691 150.784 389.08 150.85C388.569 150.786 388.091 150.566 387.71 150.22C386.728 149.197 386.173 147.838 386.16 146.42C386.16 146.05 386.16 145.59 386.16 145.13V145C386.173 143.954 386.243 142.909 386.37 141.87C386.349 141.758 386.304 141.652 386.238 141.559C386.173 141.466 386.088 141.388 385.99 141.33C385.539 141.056 385.017 140.924 384.49 140.95C384.119 140.979 383.758 141.083 383.428 141.255C383.098 141.426 382.806 141.663 382.57 141.95C382.073 142.432 381.75 143.065 381.65 143.75C381.595 144.08 381.569 144.415 381.57 144.75C381.545 145.126 381.545 145.504 381.57 145.88C381.601 146.709 381.712 147.532 381.9 148.34C382.118 149.88 382.818 151.312 383.9 152.43C384.58 152.977 385.383 153.351 386.24 153.52C386.839 153.66 387.455 153.717 388.07 153.69C388.974 153.659 389.87 153.518 390.74 153.27C391.065 153.122 391.399 152.995 391.74 152.89C392.197 152.699 392.641 152.479 393.07 152.23C393.732 151.875 394.304 151.372 394.74 150.76C395.605 149.701 396.078 148.377 396.08 147.01C396.08 146.26 396.08 145.46 395.99 144.63C395.967 144.066 395.883 143.506 395.74 142.96C395.346 141.257 394.447 139.713 393.16 138.53C392.231 137.822 391.224 137.221 390.16 136.74C388.537 135.873 387.278 134.454 386.61 132.74C386.345 132.018 386.193 131.259 386.16 130.49C386.129 130.141 386.129 129.789 386.16 129.44C386.88 128.1 387.54 127.59 389.38 127.43V127.43ZM415.89 139.87L415.97 137.03C416.045 135.131 416.296 133.243 416.72 131.39C417.14 130.265 417.794 129.243 418.64 128.39C419.054 128.003 419.578 127.755 420.14 127.68C420.14 127.68 420.27 127.8 420.31 127.8C421.072 128.691 421.577 129.773 421.77 130.93C421.86 131.399 421.917 131.873 421.94 132.35C421.95 132.846 422.035 133.338 422.19 133.81C422.36 134.27 423.28 134.61 423.99 134.61C424.504 134.633 425.013 134.501 425.45 134.23C425.86 133.94 426.07 133.15 426.07 131.85V131.43C426.083 129.621 425.591 127.845 424.65 126.3C423.82 124.92 422.19 124.55 419.56 124.55C416.43 124.55 414.34 126.22 413.34 129.55C412.972 130.859 412.721 132.197 412.59 133.55C412.26 137.6 412.09 140.36 412.09 141.78C412.09 146.24 412.8 149.42 414.22 151.29C414.722 151.936 415.369 152.454 416.11 152.802C416.85 153.149 417.662 153.317 418.48 153.29C419.085 153.286 419.687 153.202 420.27 153.04L421.86 152.45C421.86 152.66 421.86 153.08 421.77 153.7C421.68 154.32 421.77 154.75 421.77 154.96C421.77 155.58 422.77 155.88 423.57 155.88C424.4 155.88 425.32 155.58 425.32 154.96C425.32 154.34 425.32 153.58 425.45 152.33C425.58 151.08 425.61 150.2 425.61 149.7C425.61 148.49 425.61 146.65 425.61 146.11C425.61 145.57 425.61 144.31 425.61 143.81C425.61 142.98 424.61 142.27 423.61 142.06C423.236 141.999 422.858 141.969 422.48 141.97H421.69C418.69 141.97 417.22 142.35 417.22 143.06C417.22 143.77 418.43 144.06 419.56 144.06C420.02 144.06 421.06 143.94 421.56 143.94C421.69 143.94 421.73 144.02 421.73 144.19V144.35C421.73 144.52 421.73 144.86 421.73 144.98V148.53C421.737 149.02 421.693 149.509 421.6 149.99C421.48 150.45 420.85 150.78 420.06 150.99C419.593 151.116 419.119 151.213 418.64 151.28C417.571 150.489 416.805 149.356 416.47 148.07C416.118 146.749 415.936 145.388 415.93 144.02C415.93 143.81 415.93 143.23 415.93 143.02L415.89 139.87ZM442.59 134.36C442.424 132.579 442.089 130.818 441.59 129.1C440.38 125.76 438.41 124.1 435.74 124.1C434.966 124.1 434.201 124.256 433.49 124.56C432.76 124.898 432.137 125.431 431.69 126.1C430.642 127.667 429.88 129.407 429.44 131.24C429.039 133.134 428.828 135.064 428.81 137C428.81 138.33 428.81 139.21 428.73 139.59C428.73 140.17 428.73 141 428.73 142.13C428.702 143.693 428.772 145.256 428.94 146.81C429.038 148.132 429.468 149.408 430.19 150.52C431.418 152.038 433.124 153.096 435.03 153.52C435.486 153.6 435.947 153.64 436.41 153.64C437.05 153.676 437.689 153.555 438.272 153.286C438.854 153.018 439.362 152.61 439.75 152.1C440.395 150.98 440.941 149.806 441.38 148.59C442.179 145.905 442.6 143.121 442.63 140.32C442.63 139.7 442.63 138.78 442.63 137.49V136.61C442.67 135.61 442.63 134.86 442.59 134.36V134.36ZM438.87 139.87C438.97 142.703 438.561 145.532 437.66 148.22C437.29 149.13 436.78 150.68 435.49 150.68C435.32 150.68 434.99 150.68 434.82 150.68C434.198 149.893 433.693 149.021 433.32 148.09C432.883 146.122 432.701 144.105 432.78 142.09C432.78 141.42 432.78 139.83 432.78 139.29C432.684 136.129 433.02 132.97 433.78 129.9C433.964 129.273 434.188 128.659 434.45 128.06C434.78 127.35 435.16 126.97 435.53 126.97C435.805 126.985 436.063 127.107 436.25 127.31C437.33 128.52 438.16 130.56 438.75 133.45C438.776 133.866 438.776 134.284 438.75 134.7L438.87 139.87ZM449.71 127.1C449.71 125.67 449.42 124.8 448.84 124.46C448.391 124.214 447.881 124.1 447.37 124.13C446.21 124.13 445.62 124.42 445.62 125.01C445.62 125.84 445.62 127.01 445.7 128.68C445.78 130.35 445.83 131.48 445.83 132.27C445.83 133.32 445.83 134.78 445.75 136.65C445.7 137.53 445.66 139.2 445.54 141.7C445.42 144.2 445.41 146.13 445.41 147.47C445.41 149.14 445.41 150.64 445.58 151.98C445.7 152.6 446.29 152.89 447.42 152.89C448.25 152.89 449.42 152.64 449.42 152.02C449.42 151.4 449.34 149.89 449.34 149.26C449.34 141.26 449.42 134.78 449.59 129.64C449.59 129.18 449.71 127.76 449.71 127.1ZM467.46 146.1C467.41 144.47 467.41 143.26 467.41 142.47C467.41 141.68 467.46 139.71 467.46 138.88C467.46 138.05 467.41 136.79 467.37 135.08C467.33 133.37 467.37 132.03 467.37 131.08C467.37 130.54 467.37 129.16 467.37 128.66C467.37 128.16 467.29 126.83 467.16 124.66C467.04 124.11 466.49 123.86 465.49 123.86C464.49 123.86 463.2 124.32 463.2 125.03C463.2 125.49 463.2 126.24 463.2 127.25C463.2 128.26 463.15 129 463.15 129.54C463.15 130.46 463.15 131.88 463.2 133.76C463.25 135.64 463.28 137.01 463.28 137.97V141.73C463.2 141.52 462.9 140.73 462.36 139.44C462.11 138.73 461.69 137.72 461.15 136.39C460.61 135.06 460.23 134.05 459.98 133.34C459.527 131.568 458.97 129.825 458.31 128.12C458.1 127.66 457.6 126.83 456.89 125.62C456.52 124.99 455.72 124.62 454.43 124.62C454.17 124.602 453.91 124.645 453.671 124.746C453.431 124.846 453.218 125.002 453.05 125.2C452.886 125.567 452.814 125.969 452.84 126.37V146.53C452.84 147.16 452.84 148.08 452.84 149.29C452.84 150.5 452.84 151.42 452.84 152.09C452.84 152.76 454.01 153.17 454.72 153.17C455.85 153.17 456.43 152.88 456.47 152.29C456.553 151.499 456.597 150.705 456.6 149.91C456.6 149.46 456.6 148.75 456.55 147.83V145.78C456.55 145.07 456.55 143.94 456.47 142.48C456.39 141.02 456.39 139.85 456.39 139.1C456.389 137.648 456.486 136.199 456.68 134.76C456.93 135.47 457.35 136.39 457.93 137.6C458.51 138.81 458.93 139.6 459.02 139.9C459.23 140.48 460.02 142.28 461.27 145.28C462.234 147.41 463.056 149.601 463.73 151.84C463.822 152.206 463.936 152.567 464.07 152.92C464.26 153.122 464.495 153.276 464.755 153.37C465.016 153.463 465.295 153.494 465.57 153.46C466.87 153.46 467.49 153.13 467.57 152.46C467.62 151.33 467.66 150.46 467.66 149.75C467.5 149.1 467.5 147.8 467.46 146.17V146.1ZM474.26 139.8L474.34 136.96C474.405 135.06 474.656 133.171 475.09 131.32C475.506 130.193 476.161 129.17 477.01 128.32C477.423 127.931 477.948 127.683 478.51 127.61C478.51 127.61 478.64 127.73 478.68 127.73C479.442 128.621 479.947 129.703 480.14 130.86C480.225 131.329 480.282 131.804 480.31 132.28C480.315 132.777 480.399 133.27 480.56 133.74C480.73 134.2 481.64 134.54 482.35 134.54C482.867 134.565 483.38 134.432 483.82 134.16C484.23 133.87 484.44 133.08 484.44 131.78V131.36C484.443 129.576 483.955 127.825 483.03 126.3C482.2 124.92 480.57 124.55 477.94 124.55C474.81 124.55 472.72 126.22 471.72 129.55C471.352 130.859 471.101 132.197 470.97 133.55C470.63 137.6 470.47 140.36 470.47 141.78C470.47 146.24 471.18 149.42 472.6 151.29C473.1 151.935 473.746 152.453 474.485 152.8C475.223 153.148 476.034 153.316 476.85 153.29C477.458 153.287 478.064 153.203 478.65 153.04L480.24 152.45C480.24 152.66 480.19 153.08 480.15 153.7C480.11 154.32 480.15 154.75 480.15 154.96C480.15 155.58 481.15 155.88 481.94 155.88H481.99C482.82 155.88 483.74 155.58 483.74 154.96C483.74 154.34 483.74 153.58 483.87 152.33C484 151.08 484.03 150.2 484.03 149.7C484.03 148.49 484.03 146.65 484.03 146.11C484.03 145.57 484.03 144.31 484.03 143.81C484.03 142.98 483.03 142.27 482.03 142.06C481.656 141.999 481.278 141.969 480.9 141.97H480.03C477.03 141.97 475.56 142.35 475.56 143.06C475.56 143.77 476.77 144.06 477.9 144.06C478.36 144.06 479.4 143.94 479.9 143.94C480.03 143.94 480.07 144.02 480.07 144.19V144.35C480.07 144.52 480.07 144.86 480.07 144.98V148.53C480.077 149.02 480.033 149.509 479.94 149.99C479.82 150.45 479.19 150.78 478.4 150.99C477.933 151.116 477.459 151.213 476.98 151.28C475.911 150.489 475.145 149.356 474.81 148.07C474.454 146.749 474.269 145.388 474.26 144.02C474.26 143.81 474.31 143.23 474.31 143.02L474.26 139.8ZM226.39 180.73C226.315 180.027 226.147 179.338 225.89 178.68C225.26 177.05 223.34 175.51 220.13 174.13C218.531 173.544 216.83 173.288 215.13 173.38H215.05C213.92 173.38 213.34 173.67 213.34 174.26V186.82C213.34 187.74 213.34 189.08 213.42 190.82C213.5 192.56 213.54 193.91 213.54 194.82V199.24C213.59 200.12 213.59 200.83 213.59 201.29C213.59 202.2 214.51 202.66 216.34 202.66C217.064 202.688 217.788 202.576 218.47 202.33C218.76 202.2 219.39 201.95 220.35 201.62C221.177 201.336 221.974 200.971 222.73 200.53C223.417 200.108 224.002 199.537 224.44 198.86C226.006 196.2 226.773 193.145 226.65 190.06V184.8C226.68 184.15 226.6 182.81 226.39 180.73ZM218.88 199.3C218.372 199.709 217.81 200.046 217.21 200.3C217.21 199.89 217.21 199.3 217.16 198.39V196.39C217.16 195.93 217.16 194.68 217.16 194.22C217.16 193.26 217.12 191.84 217.04 189.96C217.04 188.09 216.95 186.62 216.95 185.66C216.95 185.04 217 183.79 217 183.16V175.94C219 176.23 221.34 177.4 221.88 178.86C222.153 180.389 222.307 181.937 222.34 183.49C222.34 183.99 222.34 184.66 222.34 185.49C222.34 186.65 222.43 188.99 222.43 190.66C222.43 191.5 222.43 192.29 222.43 193.04C222.47 195.38 221.26 197.47 218.88 199.3V199.3ZM243.13 183.36C242.964 181.579 242.629 179.818 242.13 178.1C240.92 174.76 238.95 173.1 236.28 173.1C235.507 173.1 234.741 173.256 234.03 173.56C233.301 173.901 232.679 174.433 232.23 175.1C231.182 176.667 230.42 178.407 229.98 180.24C229.579 182.134 229.368 184.064 229.35 186C229.35 187.33 229.35 188.21 229.27 188.59C229.27 189.17 229.27 190 229.27 191.13C229.242 192.693 229.312 194.256 229.48 195.81C229.578 197.132 230.008 198.408 230.73 199.52C231.958 201.038 233.664 202.096 235.57 202.52C236.026 202.6 236.487 202.64 236.95 202.64C237.59 202.676 238.229 202.555 238.812 202.286C239.394 202.018 239.902 201.61 240.29 201.1C240.935 199.98 241.481 198.806 241.92 197.59C242.719 194.905 243.14 192.121 243.17 189.32C243.17 188.7 243.17 187.78 243.17 186.49V185.61C243.21 184.61 243.17 183.86 243.13 183.36V183.36ZM239.41 188.87C239.511 191.703 239.101 194.532 238.2 197.22C237.82 198.13 237.32 199.68 236.03 199.68C235.86 199.68 235.53 199.68 235.36 199.68C234.738 198.893 234.233 198.021 233.86 197.09C233.423 195.122 233.241 193.105 233.32 191.09C233.32 190.42 233.32 188.83 233.32 188.29C233.224 185.129 233.56 181.97 234.32 178.9C234.504 178.273 234.728 177.659 234.99 177.06C235.32 176.35 235.7 175.97 236.07 175.97C236.207 175.974 236.341 176.007 236.465 176.065C236.589 176.124 236.7 176.207 236.79 176.31C237.87 177.52 238.71 179.56 239.29 182.45C239.316 182.866 239.316 183.284 239.29 183.7L239.41 188.87ZM269.03 173.71C268.628 173.428 268.139 173.297 267.65 173.34C267.427 173.315 267.203 173.315 266.98 173.34C266.27 173.46 265.9 173.76 265.77 174.22C265.693 174.548 265.653 174.883 265.65 175.22C265.65 175.64 265.44 176.55 265.19 177.97C264.94 179.39 264.81 180.56 264.73 181.44C264.52 183.82 263.89 187.83 262.85 193.54C262.786 193.718 262.743 193.902 262.72 194.09C262.52 193.38 262.22 192.54 261.89 191.67L261.64 190.83L261.35 189.66L261.14 188.66C261.14 188.45 261.01 187.99 260.8 187.24C260.59 186.49 260.51 185.91 260.47 185.49C260.391 184.928 260.28 184.37 260.14 183.82C259.97 183.11 259.84 182.61 259.8 182.32C259.612 181.236 259.275 180.183 258.8 179.19C258.54 178.897 258.187 178.703 257.8 178.64C257.577 178.613 257.352 178.613 257.13 178.64C256 178.64 255.5 179.94 254.79 182.32L254.13 184.61C253.983 185.075 253.87 185.549 253.79 186.03C253.71 186.66 253.62 187.03 253.58 187.24L253.25 188.41C253.08 188.99 252.96 189.41 252.91 189.74L252.66 191.29L252.41 192.79C252.296 191.96 252.129 191.138 251.91 190.33C251.66 189.33 251.5 188.66 251.45 188.33C251.33 187.87 251.16 186.99 250.95 185.74L250.45 182.82L249.95 180.65C249.83 180.27 249.7 179.6 249.49 178.56C249.28 177.52 249.12 176.56 248.91 175.8C248.783 175.262 248.615 174.734 248.41 174.22C248.2 173.84 247.7 173.63 246.94 173.63C246.18 173.63 245.15 174.05 245.15 174.72C245.225 176.826 245.489 178.921 245.94 180.98L246.94 185.78L247.57 188.7C247.74 189.33 247.9 190.21 248.11 191.25C248.4 192.63 248.78 194.97 249.11 196.34C249.36 197.14 249.57 198.64 249.74 199.43L250.03 200.85L250.16 201.48C250.16 201.48 250.16 201.73 250.16 201.77C250.23 201.899 250.271 202.043 250.28 202.19C250.358 202.303 250.456 202.402 250.57 202.48C250.933 202.748 251.379 202.879 251.83 202.85C252.118 202.885 252.41 202.846 252.68 202.738C252.949 202.63 253.186 202.455 253.37 202.23C253.618 201.78 253.816 201.304 253.96 200.81C254.095 200.383 254.205 199.949 254.29 199.51C254.42 199.06 254.71 197.72 254.83 197.09L255.33 194.76C255.46 194.25 255.63 192.96 255.75 192.46C255.87 191.96 256.17 191.21 256.34 190.58C256.559 189.927 256.726 189.259 256.84 188.58C256.924 188.051 257.061 187.531 257.25 187.03C257.5 187.7 257.92 189.03 258.51 191.09L258.76 192.21C258.92 192.88 259.63 195.13 260.84 199.02C260.97 199.413 261.058 199.818 261.1 200.23C261.177 200.763 261.287 201.291 261.43 201.81C261.55 202.1 261.93 202.27 262.6 202.36C262.779 202.385 262.961 202.385 263.14 202.36C263.646 202.361 264.146 202.245 264.6 202.02C264.94 201.94 265.19 201.11 265.27 200.73C265.27 200.52 265.44 199.64 265.44 199.6C265.44 199.23 265.69 198.39 265.69 198.27C265.94 196.51 266.4 193.92 267.02 190.46C267.64 187 268.15 184.36 268.4 182.46L268.78 179.83L269.15 177.11C269.19 176.718 269.26 176.331 269.36 175.95L269.49 174.95V174.28C269.457 174.158 269.4 174.044 269.32 173.946C269.241 173.848 269.142 173.767 269.03 173.71V173.71ZM286.73 195.17C286.73 193.54 286.73 192.33 286.73 191.54C286.73 190.75 286.73 188.78 286.73 187.95C286.73 187.12 286.73 185.86 286.65 184.15C286.57 182.44 286.6 181.1 286.6 180.15C286.6 179.61 286.65 178.23 286.65 177.73C286.65 177.23 286.56 175.9 286.44 173.73C286.31 173.18 285.77 172.93 284.77 172.93C283.77 172.93 282.47 173.39 282.47 174.1C282.47 174.56 282.47 175.31 282.47 176.32C282.47 177.33 282.47 178.07 282.47 178.61C282.47 179.53 282.47 180.95 282.47 182.83C282.47 184.71 282.55 186.08 282.55 187.04V190.8C282.47 190.59 282.18 189.8 281.63 188.51C281.38 187.8 280.97 186.79 280.42 185.46C279.87 184.13 279.5 183.12 279.25 182.41C278.803 180.637 278.245 178.893 277.58 177.19C277.38 176.73 276.88 175.9 276.16 174.69C275.79 174.06 275 173.69 273.7 173.69C273.441 173.673 273.181 173.717 272.942 173.818C272.702 173.918 272.489 174.073 272.32 174.27C272.161 174.638 272.092 175.04 272.12 175.44V195.6C272.12 196.23 272.12 197.15 272.07 198.36C272.02 199.57 272.07 200.49 272.07 201.16C272.07 201.83 273.24 202.24 273.95 202.24C275.08 202.24 275.66 201.95 275.7 201.36C275.788 200.57 275.832 199.775 275.83 198.98C275.83 198.53 275.83 197.82 275.83 196.9V194.85C275.83 194.14 275.83 193.01 275.74 191.55C275.65 190.09 275.66 188.92 275.66 188.17C275.659 186.718 275.756 185.269 275.95 183.83C276.319 184.798 276.74 185.746 277.21 186.67C277.79 187.88 278.21 188.67 278.29 188.97C278.5 189.55 279.29 191.35 280.55 194.35C281.505 196.483 282.327 198.674 283.01 200.91C283.101 201.275 283.211 201.636 283.34 201.99C283.531 202.19 283.766 202.344 284.026 202.437C284.286 202.531 284.565 202.563 284.84 202.53C286.14 202.53 286.77 202.2 286.84 201.53C286.84 200.4 286.92 199.53 286.92 198.82C286.79 198.1 286.79 196.8 286.75 195.17H286.73ZM294.07 198.84C293.39 198.523 292.65 198.352 291.9 198.34C290.77 198.34 290.02 198.89 290.02 199.72C290.015 199.955 290.073 200.186 290.19 200.39C290.309 200.632 290.497 200.834 290.73 200.97C291.162 201.309 291.683 201.514 292.23 201.56C292.523 201.584 292.817 201.584 293.11 201.56C293.471 201.611 293.84 201.565 294.177 201.426C294.515 201.287 294.809 201.061 295.03 200.77C295.169 200.559 295.242 200.312 295.24 200.06C295.26 199.55 294.88 199.1 294.09 198.84H294.07ZM302.6 198.84C301.92 198.523 301.18 198.352 300.43 198.34C299.3 198.34 298.55 198.89 298.55 199.72C298.545 199.955 298.603 200.186 298.72 200.39C298.839 200.632 299.027 200.834 299.26 200.97C299.69 201.311 300.212 201.516 300.76 201.56C301.053 201.584 301.347 201.584 301.64 201.56C302.001 201.61 302.369 201.563 302.707 201.425C303.044 201.286 303.338 201.06 303.56 200.77C303.695 200.558 303.767 200.312 303.77 200.06C303.79 199.55 303.41 199.1 302.62 198.84H302.6ZM311.13 198.84C310.45 198.523 309.71 198.352 308.96 198.34C307.83 198.34 307.08 198.89 307.08 199.72C307.076 199.953 307.131 200.184 307.24 200.39C307.367 200.63 307.557 200.83 307.79 200.97C308.22 201.311 308.742 201.516 309.29 201.56C309.583 201.584 309.877 201.584 310.17 201.56C310.531 201.61 310.899 201.563 311.237 201.425C311.574 201.286 311.868 201.06 312.09 200.77C312.225 200.558 312.297 200.312 312.3 200.06C312.32 199.55 311.94 199.1 311.15 198.84H311.13Z" fill="url(#paint2_linear)"/>
</g>
<defs>
<linearGradient id="paint0_linear" x1="477.921" y1="-100.913" x2="697.535" y2="758.073" gradientUnits="userSpaceOnUse">
<stop stop-color="#F3F7FD"/>
<stop offset="1" stop-color="#F3F7FD" stop-opacity="0"/>
</linearGradient>
<linearGradient id="paint1_linear" x1="155.94" y1="38.45" x2="155.73" y2="585.61" gradientUnits="userSpaceOnUse">
<stop stop-color="#3B47BC"/>
<stop offset="1" stop-color="#3B47BC" stop-opacity="0"/>
</linearGradient>
<linearGradient id="paint2_linear" x1="212.15" y1="161.98" x2="500.15" y2="164.98" gradientUnits="userSpaceOnUse">
<stop stop-color="#7E87B9"/>
<stop offset="1" stop-color="#A3CF80"/>
</linearGradient>
<clipPath id="clip0">
<rect y="124" width="773.03" height="474.74" fill="white"/>
</clipPath>
</defs>
</svg>
