<svg viewBox="0 0 1065 352" fill="none" xmlns="http://www.w3.org/2000/svg">
<path d="M23.504 16.424C23.312 15.5 22.544 14.312 20.624 14.312C19.052 14.312 17.816 15.512 17.816 16.844C17.816 18.116 18.68 18.908 19.892 19.172L21.104 19.436C21.956 19.616 22.376 20.144 22.376 20.756C22.376 21.5 21.8 22.112 20.624 22.112C19.34 22.112 18.668 21.236 18.584 20.288L17.456 20.648C17.612 21.86 18.584 23.18 20.636 23.18C22.448 23.18 23.576 21.98 23.576 20.66C23.576 19.472 22.784 18.584 21.368 18.272L20.096 17.996C19.376 17.84 19.004 17.372 19.004 16.76C19.004 15.968 19.688 15.344 20.648 15.344C21.836 15.344 22.352 16.184 22.448 16.796L23.504 16.424ZM26.226 25.28V22.22C26.538 22.736 27.21 23.156 28.098 23.156C29.79 23.156 30.786 21.824 30.786 20.108C30.786 18.428 29.862 17.096 28.134 17.096C27.198 17.096 26.514 17.552 26.202 18.128V17.228H25.11V25.28H26.226ZM29.634 20.108C29.634 21.296 28.974 22.148 27.93 22.148C26.898 22.148 26.214 21.296 26.214 20.108C26.214 18.956 26.898 18.092 27.93 18.092C28.986 18.092 29.634 18.956 29.634 20.108ZM33.3553 19.52C33.4033 18.776 33.9793 18.044 34.9273 18.044C35.9473 18.044 36.4873 18.692 36.5113 19.52H33.3553ZM36.6793 21.02C36.4633 21.668 35.9953 22.184 35.0593 22.184C34.0873 22.184 33.3433 21.464 33.3193 20.432H37.6633C37.6753 20.36 37.6873 20.216 37.6873 20.072C37.6873 18.272 36.6913 17.048 34.9153 17.048C33.4633 17.048 32.1553 18.284 32.1553 20.096C32.1553 22.052 33.5113 23.18 35.0593 23.18C36.4033 23.18 37.3273 22.376 37.6513 21.356L36.6793 21.02ZM40.6552 19.664C40.6552 18.788 41.1112 18.08 41.9992 18.08C43.0072 18.08 43.3432 18.728 43.3432 19.532V23H44.4712V19.34C44.4712 18.056 43.7872 17.06 42.4072 17.06C41.7352 17.06 41.0512 17.336 40.6312 18.056V17.228H39.5272V23H40.6552V19.664ZM47.3375 20.096C47.3375 18.908 48.0095 18.068 49.0415 18.068C50.0735 18.068 50.6975 18.884 50.6975 20.072C50.6975 21.26 50.0615 22.16 49.0295 22.16C47.9495 22.16 47.3375 21.284 47.3375 20.096ZM50.7095 22.22C50.7095 22.568 50.7455 22.868 50.7695 23H51.8615C51.8495 22.904 51.8015 22.484 51.8015 21.932V14.312H50.6855V18.044C50.4935 17.576 49.9415 17.072 48.9215 17.072C47.2895 17.072 46.1855 18.464 46.1855 20.096C46.1855 21.812 47.2295 23.156 48.9215 23.156C49.8215 23.156 50.4335 22.676 50.7095 22.124V22.22Z" fill="#38454F"/>
<path d="M122.82 44.82V43.91H117.1V44.82H119.47V51H120.45V44.82H122.82ZM124.514 47.45C124.514 45.6 125.754 44.66 127.074 44.66C128.394 44.66 129.634 45.6 129.634 47.45C129.634 49.3 128.394 50.25 127.074 50.25C125.754 50.25 124.514 49.3 124.514 47.45ZM123.514 47.45C123.514 49.82 125.294 51.15 127.074 51.15C128.854 51.15 130.634 49.82 130.634 47.45C130.634 45.08 128.854 43.76 127.074 43.76C125.294 43.76 123.514 45.08 123.514 47.45ZM137.048 44.82V43.91H131.328V44.82H133.698V51H134.678V44.82H137.048ZM142.701 51H143.761L140.941 43.91H139.811L136.991 51H138.041L138.791 49.02H141.931L142.701 51ZM140.351 44.93L141.581 48.11H139.141L140.351 44.93ZM149.494 51V50.08H146.144V43.91H145.164V51H149.494Z" fill="#7C8A95"/>
<rect x="0.5" y="0.5" width="193" height="73" stroke="#DCDFF2"/>
<path d="M21.76 52.872V51.144C23.68 50.84 24.736 49.48 24.736 48.008C24.736 46.568 23.824 45.368 21.808 44.92L20.352 44.584C19.6 44.424 19.248 44.008 19.248 43.512C19.248 42.856 19.808 42.264 20.832 42.264C22.144 42.264 22.56 43.192 22.656 43.752L24.624 43.192C24.4 42.12 23.6 40.84 21.76 40.504V38.744H20.128V40.456C18.416 40.728 17.104 41.976 17.104 43.672C17.104 45.208 18.176 46.296 19.904 46.68L21.376 47C22.176 47.176 22.576 47.592 22.576 48.136C22.576 48.84 21.968 49.336 20.928 49.336C19.456 49.336 18.784 48.408 18.688 47.4L16.704 47.88C16.848 49.24 17.904 50.856 20.128 51.16V52.872H21.76ZM26.3327 48.088C26.4607 49.72 28.0287 51.256 30.2847 51.256C32.7807 51.256 34.2688 49.576 34.2688 47.64C34.2688 45.416 32.7968 44.168 30.7167 44.168C30.0287 44.168 29.2927 44.392 28.8447 44.808L29.3567 42.52H33.7087V40.616H27.8527L26.6207 45.944C26.8447 46.008 28.4287 46.552 28.6367 46.632C28.9727 46.248 29.5327 45.928 30.2367 45.928C31.1967 45.928 32.0767 46.488 32.0767 47.672C32.0767 48.712 31.2768 49.368 30.2847 49.368C29.1807 49.368 28.4447 48.584 28.3967 47.624L26.3327 48.088ZM37.8961 44.632C37.8481 44.456 37.8161 44.248 37.8161 44.056C37.8161 43.08 38.3601 42.328 39.4641 42.328C40.5041 42.328 41.0321 43 41.0321 43.752C41.0321 44.472 40.6801 45.016 39.8001 45.544L38.0881 46.568C36.2321 47.688 35.6561 49.176 35.6401 51H43.3201V49.096H38.3441C38.5041 48.696 38.8401 48.408 39.2401 48.152L41.2401 46.936C42.5201 46.152 43.2561 45.064 43.2561 43.72C43.2561 41.912 41.8321 40.376 39.5121 40.376C37.0961 40.376 35.7201 42.024 35.7201 43.848C35.7201 44.104 35.7681 44.424 35.8001 44.568L37.8961 44.632ZM45.1916 49.72C45.1916 50.488 45.7356 51.048 46.5196 51.048C46.6956 51.048 46.8716 51 46.9356 50.952C46.9036 51.832 46.1356 52.52 45.4156 52.68V53.704C46.5996 53.56 48.2316 52.568 48.2316 50.216C48.2316 49.176 47.6396 48.376 46.6476 48.376C45.8156 48.376 45.1916 48.952 45.1916 49.72ZM57.8955 40.856C57.4635 40.6 56.6795 40.376 55.7195 40.376C52.2955 40.376 49.9595 42.744 49.9595 46.472C49.9595 49.608 51.8955 51.24 54.1675 51.24C56.4555 51.24 58.1835 49.72 58.1835 47.592C58.1835 45.448 56.7275 44.104 54.5995 44.104C53.3835 44.104 52.5195 44.68 52.1355 45.256C52.3755 43.304 53.8155 42.28 55.5755 42.28C56.2315 42.28 56.8395 42.456 57.2875 42.648L57.8955 40.856ZM52.3275 47.64C52.3275 46.568 53.1595 45.912 54.1515 45.912C55.1595 45.912 55.9915 46.568 55.9915 47.64C55.9915 48.712 55.1595 49.384 54.1515 49.384C53.1915 49.384 52.3275 48.696 52.3275 47.64ZM67.608 40.856C67.176 40.6 66.392 40.376 65.432 40.376C62.008 40.376 59.672 42.744 59.672 46.472C59.672 49.608 61.608 51.24 63.88 51.24C66.168 51.24 67.896 49.72 67.896 47.592C67.896 45.448 66.44 44.104 64.312 44.104C63.096 44.104 62.232 44.68 61.848 45.256C62.088 43.304 63.528 42.28 65.288 42.28C65.944 42.28 66.552 42.456 67 42.648L67.608 40.856ZM62.04 47.64C62.04 46.568 62.872 45.912 63.864 45.912C64.872 45.912 65.704 46.568 65.704 47.64C65.704 48.712 64.872 49.384 63.864 49.384C62.904 49.384 62.04 48.696 62.04 47.64ZM69.1765 48.088C69.3045 49.72 70.8725 51.256 73.1285 51.256C75.6245 51.256 77.1125 49.576 77.1125 47.64C77.1125 45.416 75.6405 44.168 73.5605 44.168C72.8725 44.168 72.1365 44.392 71.6885 44.808L72.2005 42.52H76.5525V40.616H70.6965L69.4645 45.944C69.6885 46.008 71.2725 46.552 71.4805 46.632C71.8165 46.248 72.3765 45.928 73.0805 45.928C74.0405 45.928 74.9205 46.488 74.9205 47.672C74.9205 48.712 74.1205 49.368 73.1285 49.368C72.0245 49.368 71.2885 48.584 71.2405 47.624L69.1765 48.088ZM78.8396 49.656C78.8396 50.456 79.4956 51.112 80.2956 51.112C81.1116 51.112 81.7676 50.456 81.7676 49.656C81.7676 48.856 81.1116 48.2 80.2956 48.2C79.4956 48.2 78.8396 48.856 78.8396 49.656ZM86.6084 46.392C86.8324 46.312 87.1044 46.232 87.5524 46.232C88.5444 46.232 89.2484 46.792 89.2484 47.768C89.2484 48.632 88.5924 49.336 87.4884 49.336C86.4004 49.336 85.6484 48.568 85.6004 47.512L83.4724 47.928C83.6004 49.672 85.0724 51.24 87.4884 51.24C90.0004 51.24 91.4724 49.592 91.4724 47.8C91.4724 45.896 90.0324 44.696 88.4644 44.632L91.1524 42.392V40.616H83.8084V42.52H88.3524L85.6324 44.856L86.6084 46.392ZM95.1827 45.816C95.1827 44.728 95.3427 43.8 95.7427 43.176C96.0627 42.664 96.5587 42.328 97.3107 42.328C98.0787 42.328 98.5427 42.664 98.8627 43.176C99.2787 43.8 99.4387 44.728 99.4387 45.816C99.4387 46.904 99.2787 47.832 98.8627 48.456C98.5427 48.968 98.0787 49.304 97.3107 49.304C96.5587 49.304 96.0627 48.968 95.7427 48.456C95.3427 47.832 95.1827 46.904 95.1827 45.816ZM92.9747 45.816C92.9747 47.144 93.1827 48.44 93.8867 49.512C94.5747 50.536 95.6947 51.256 97.3107 51.256C98.9267 51.256 100.047 50.536 100.719 49.512C101.423 48.44 101.647 47.144 101.647 45.816C101.647 44.488 101.423 43.192 100.719 42.12C100.047 41.096 98.9267 40.376 97.3107 40.376C95.6947 40.376 94.5747 41.096 93.8867 42.12C93.1827 43.192 92.9747 44.488 92.9747 45.816Z" fill="#38454F"/>
<path d="M241.504 16.424C241.312 15.5 240.544 14.312 238.624 14.312C237.052 14.312 235.816 15.512 235.816 16.844C235.816 18.116 236.68 18.908 237.892 19.172L239.104 19.436C239.956 19.616 240.376 20.144 240.376 20.756C240.376 21.5 239.8 22.112 238.624 22.112C237.34 22.112 236.668 21.236 236.584 20.288L235.456 20.648C235.612 21.86 236.584 23.18 238.636 23.18C240.448 23.18 241.576 21.98 241.576 20.66C241.576 19.472 240.784 18.584 239.368 18.272L238.096 17.996C237.376 17.84 237.004 17.372 237.004 16.76C237.004 15.968 237.688 15.344 238.648 15.344C239.836 15.344 240.352 16.184 240.448 16.796L241.504 16.424ZM243.055 21.452C243.055 22.364 243.811 23.18 244.987 23.18C246.019 23.18 246.595 22.628 246.847 22.22C246.847 22.64 246.883 22.856 246.907 23H248.011C247.987 22.856 247.939 22.556 247.939 22.052V19.16C247.939 18.032 247.267 17.048 245.539 17.048C244.291 17.048 243.295 17.816 243.175 18.92L244.255 19.172C244.327 18.5 244.771 18.008 245.563 18.008C246.439 18.008 246.811 18.476 246.811 19.04C246.811 19.244 246.715 19.424 246.367 19.472L244.807 19.7C243.811 19.844 243.055 20.42 243.055 21.452ZM245.143 22.232C244.567 22.232 244.207 21.824 244.207 21.392C244.207 20.876 244.567 20.6 245.047 20.528L246.811 20.264V20.528C246.811 21.788 246.067 22.232 245.143 22.232ZM251.224 23V14.312H250.096V23H251.224ZM254.275 19.52C254.323 18.776 254.899 18.044 255.847 18.044C256.867 18.044 257.407 18.692 257.431 19.52H254.275ZM257.599 21.02C257.383 21.668 256.915 22.184 255.979 22.184C255.007 22.184 254.263 21.464 254.239 20.432H258.583C258.595 20.36 258.607 20.216 258.607 20.072C258.607 18.272 257.611 17.048 255.835 17.048C254.383 17.048 253.075 18.284 253.075 20.096C253.075 22.052 254.431 23.18 255.979 23.18C257.323 23.18 258.247 22.376 258.571 21.356L257.599 21.02ZM259.907 21.5C260.003 22.16 260.675 23.18 262.259 23.18C263.687 23.18 264.371 22.208 264.371 21.392C264.371 20.54 263.819 19.904 262.775 19.676L261.839 19.472C261.395 19.376 261.179 19.124 261.179 18.776C261.179 18.38 261.563 18.008 262.139 18.008C263.051 18.008 263.291 18.668 263.339 18.968L264.335 18.596C264.215 18.08 263.723 17.048 262.139 17.048C261.011 17.048 260.087 17.888 260.087 18.872C260.087 19.688 260.627 20.3 261.527 20.492L262.511 20.708C262.991 20.816 263.255 21.092 263.255 21.452C263.255 21.86 262.907 22.22 262.271 22.22C261.455 22.22 260.999 21.74 260.927 21.14L259.907 21.5Z" fill="#478BB4"/>
<rect x="218.5" y="0.5" width="193" height="73" stroke="#DCDFF2"/>
<rect x="218" width="194" height="4" fill="#478BB4"/>
<path d="M344.82 44.82V43.91H339.1V44.82H341.47V51H342.45V44.82H344.82ZM346.514 47.45C346.514 45.6 347.754 44.66 349.074 44.66C350.394 44.66 351.634 45.6 351.634 47.45C351.634 49.3 350.394 50.25 349.074 50.25C347.754 50.25 346.514 49.3 346.514 47.45ZM345.514 47.45C345.514 49.82 347.294 51.15 349.074 51.15C350.854 51.15 352.634 49.82 352.634 47.45C352.634 45.08 350.854 43.76 349.074 43.76C347.294 43.76 345.514 45.08 345.514 47.45ZM359.048 44.82V43.91H353.328V44.82H355.698V51H356.678V44.82H359.048ZM364.701 51H365.761L362.941 43.91H361.811L358.991 51H360.041L360.791 49.02H363.931L364.701 51ZM362.351 44.93L363.581 48.11H361.141L362.351 44.93ZM371.494 51V50.08H368.144V43.91H367.164V51H371.494Z" fill="#7C8A95"/>
<path d="M239.76 52.872V51.144C241.68 50.84 242.736 49.48 242.736 48.008C242.736 46.568 241.824 45.368 239.808 44.92L238.352 44.584C237.6 44.424 237.248 44.008 237.248 43.512C237.248 42.856 237.808 42.264 238.832 42.264C240.144 42.264 240.56 43.192 240.656 43.752L242.624 43.192C242.4 42.12 241.6 40.84 239.76 40.504V38.744H238.128V40.456C236.416 40.728 235.104 41.976 235.104 43.672C235.104 45.208 236.176 46.296 237.904 46.68L239.376 47C240.176 47.176 240.576 47.592 240.576 48.136C240.576 48.84 239.968 49.336 238.928 49.336C237.456 49.336 236.784 48.408 236.688 47.4L234.704 47.88C234.848 49.24 235.904 50.856 238.128 51.16V52.872H239.76ZM249.021 51V40.616H247.117C246.909 41.704 245.853 42.552 244.333 42.568V44.056H246.829V51H249.021ZM251.476 50.664C252.02 51 252.996 51.24 253.876 51.24C257.428 51.24 259.3 49.032 259.3 45.288C259.3 41.976 257.412 40.376 255.156 40.376C252.852 40.376 251.172 41.896 251.172 44.024C251.172 46.168 252.82 47.512 254.756 47.512C255.844 47.512 256.724 47.048 257.156 46.392C257.012 48.296 255.748 49.336 253.86 49.336C253.14 49.336 252.388 49.096 252.02 48.888L251.476 50.664ZM256.868 43.96C256.868 44.984 256.052 45.672 255.076 45.672C254.1 45.672 253.3 45 253.3 43.96C253.3 42.936 254.116 42.248 255.076 42.248C256.052 42.248 256.868 42.936 256.868 43.96ZM268.324 40.616H260.436V42.52H265.78C265.78 42.52 262.308 45.416 261.876 51H264.164C264.628 45.768 267.54 43.128 268.324 42.456V40.616ZM267.732 49.72C267.732 50.488 268.276 51.048 269.06 51.048C269.236 51.048 269.412 51 269.476 50.952C269.444 51.832 268.676 52.52 267.956 52.68V53.704C269.14 53.56 270.772 52.568 270.772 50.216C270.772 49.176 270.18 48.376 269.188 48.376C268.356 48.376 267.732 48.952 267.732 49.72ZM272.801 50.664C273.345 51 274.321 51.24 275.201 51.24C278.753 51.24 280.625 49.032 280.625 45.288C280.625 41.976 278.737 40.376 276.481 40.376C274.177 40.376 272.497 41.896 272.497 44.024C272.497 46.168 274.145 47.512 276.081 47.512C277.169 47.512 278.049 47.048 278.481 46.392C278.337 48.296 277.073 49.336 275.185 49.336C274.465 49.336 273.713 49.096 273.345 48.888L272.801 50.664ZM278.193 43.96C278.193 44.984 277.377 45.672 276.401 45.672C275.425 45.672 274.625 45 274.625 43.96C274.625 42.936 275.441 42.248 276.401 42.248C277.377 42.248 278.193 42.936 278.193 43.96ZM282.529 50.664C283.073 51 284.049 51.24 284.929 51.24C288.481 51.24 290.353 49.032 290.353 45.288C290.353 41.976 288.465 40.376 286.209 40.376C283.905 40.376 282.225 41.896 282.225 44.024C282.225 46.168 283.873 47.512 285.809 47.512C286.897 47.512 287.777 47.048 288.209 46.392C288.065 48.296 286.801 49.336 284.913 49.336C284.193 49.336 283.441 49.096 283.073 48.888L282.529 50.664ZM287.921 43.96C287.921 44.984 287.105 45.672 286.129 45.672C285.153 45.672 284.353 45 284.353 43.96C284.353 42.936 285.169 42.248 286.129 42.248C287.105 42.248 287.921 42.936 287.921 43.96ZM294.802 46.392C295.026 46.312 295.298 46.232 295.746 46.232C296.738 46.232 297.442 46.792 297.442 47.768C297.442 48.632 296.786 49.336 295.682 49.336C294.594 49.336 293.842 48.568 293.794 47.512L291.666 47.928C291.794 49.672 293.266 51.24 295.682 51.24C298.194 51.24 299.666 49.592 299.666 47.8C299.666 45.896 298.226 44.696 296.658 44.632L299.346 42.392V40.616H292.002V42.52H296.546L293.826 44.856L294.802 46.392ZM301.427 49.656C301.427 50.456 302.083 51.112 302.883 51.112C303.699 51.112 304.355 50.456 304.355 49.656C304.355 48.856 303.699 48.2 302.883 48.2C302.083 48.2 301.427 48.856 301.427 49.656ZM305.768 48.776H310.68V51H312.856V48.776H314.568V46.888H312.856V40.616H310.136L305.768 46.472V48.776ZM310.68 46.888H307.72L310.68 42.92V46.888ZM323.811 40.856C323.379 40.6 322.595 40.376 321.635 40.376C318.211 40.376 315.875 42.744 315.875 46.472C315.875 49.608 317.811 51.24 320.083 51.24C322.371 51.24 324.099 49.72 324.099 47.592C324.099 45.448 322.643 44.104 320.515 44.104C319.299 44.104 318.435 44.68 318.051 45.256C318.291 43.304 319.731 42.28 321.491 42.28C322.147 42.28 322.755 42.456 323.203 42.648L323.811 40.856ZM318.243 47.64C318.243 46.568 319.075 45.912 320.067 45.912C321.075 45.912 321.907 46.568 321.907 47.64C321.907 48.712 321.075 49.384 320.067 49.384C319.107 49.384 318.243 48.696 318.243 47.64Z" fill="#38454F"/>
<rect x="436.5" y="0.5" width="192" height="73" stroke="#DCDFF2"/>
<path d="M453.74 18.74C453.74 16.52 455.228 15.392 456.812 15.392C458.396 15.392 459.884 16.52 459.884 18.74C459.884 20.96 458.396 22.1 456.812 22.1C455.228 22.1 453.74 20.96 453.74 18.74ZM452.54 18.74C452.54 21.584 454.676 23.18 456.812 23.18C458.948 23.18 461.084 21.584 461.084 18.74C461.084 15.896 458.948 14.312 456.812 14.312C454.676 14.312 452.54 15.896 452.54 18.74ZM466.185 17.168C466.125 17.156 465.969 17.132 465.813 17.132C465.225 17.132 464.505 17.348 464.085 18.236V17.228H462.981V23H464.109V20.108C464.109 18.836 464.745 18.332 465.693 18.332C465.849 18.332 466.017 18.344 466.185 18.368V17.168ZM468.401 20.096C468.401 18.908 469.073 18.068 470.105 18.068C471.137 18.068 471.761 18.884 471.761 20.072C471.761 21.26 471.125 22.16 470.093 22.16C469.013 22.16 468.401 21.284 468.401 20.096ZM471.773 22.22C471.773 22.568 471.809 22.868 471.833 23H472.925C472.913 22.904 472.865 22.484 472.865 21.932V14.312H471.749V18.044C471.557 17.576 471.005 17.072 469.985 17.072C468.353 17.072 467.249 18.464 467.249 20.096C467.249 21.812 468.293 23.156 469.985 23.156C470.885 23.156 471.497 22.676 471.773 22.124V22.22ZM475.915 19.52C475.963 18.776 476.539 18.044 477.487 18.044C478.507 18.044 479.047 18.692 479.071 19.52H475.915ZM479.239 21.02C479.023 21.668 478.555 22.184 477.619 22.184C476.647 22.184 475.903 21.464 475.879 20.432H480.223C480.235 20.36 480.247 20.216 480.247 20.072C480.247 18.272 479.251 17.048 477.475 17.048C476.023 17.048 474.715 18.284 474.715 20.096C474.715 22.052 476.071 23.18 477.619 23.18C478.963 23.18 479.887 22.376 480.211 21.356L479.239 21.02ZM485.291 17.168C485.231 17.156 485.075 17.132 484.919 17.132C484.331 17.132 483.611 17.348 483.191 18.236V17.228H482.087V23H483.215V20.108C483.215 18.836 483.851 18.332 484.799 18.332C484.955 18.332 485.123 18.344 485.291 18.368V17.168ZM486.354 21.5C486.45 22.16 487.122 23.18 488.706 23.18C490.134 23.18 490.818 22.208 490.818 21.392C490.818 20.54 490.266 19.904 489.222 19.676L488.286 19.472C487.842 19.376 487.626 19.124 487.626 18.776C487.626 18.38 488.01 18.008 488.586 18.008C489.498 18.008 489.738 18.668 489.786 18.968L490.782 18.596C490.662 18.08 490.17 17.048 488.586 17.048C487.458 17.048 486.534 17.888 486.534 18.872C486.534 19.688 487.074 20.3 487.974 20.492L488.958 20.708C489.438 20.816 489.702 21.092 489.702 21.452C489.702 21.86 489.354 22.22 488.718 22.22C487.902 22.22 487.446 21.74 487.374 21.14L486.354 21.5Z" fill="#38454F"/>
<path d="M515.82 44.82V43.91H510.1V44.82H512.47V51H513.45V44.82H515.82ZM517.514 47.45C517.514 45.6 518.754 44.66 520.074 44.66C521.394 44.66 522.634 45.6 522.634 47.45C522.634 49.3 521.394 50.25 520.074 50.25C518.754 50.25 517.514 49.3 517.514 47.45ZM516.514 47.45C516.514 49.82 518.294 51.15 520.074 51.15C521.854 51.15 523.634 49.82 523.634 47.45C523.634 45.08 521.854 43.76 520.074 43.76C518.294 43.76 516.514 45.08 516.514 47.45ZM530.048 44.82V43.91H524.328V44.82H526.698V51H527.678V44.82H530.048ZM535.701 51H536.761L533.941 43.91H532.811L529.991 51H531.041L531.791 49.02H534.931L535.701 51ZM533.351 44.93L534.581 48.11H532.141L533.351 44.93ZM542.494 51V50.08H539.144V43.91H538.164V51H542.494Z" fill="#7C8A95"/>
<path d="M457.184 51V40.616H455.28C455.072 41.704 454.016 42.552 452.496 42.568V44.056H454.992V51H457.184ZM463.928 51V40.616H462.024C461.816 41.704 460.76 42.552 459.24 42.568V44.056H461.736V51H463.928ZM466.354 49.72C466.354 50.488 466.898 51.048 467.682 51.048C467.858 51.048 468.034 51 468.098 50.952C468.066 51.832 467.298 52.52 466.578 52.68V53.704C467.762 53.56 469.394 52.568 469.394 50.216C469.394 49.176 468.802 48.376 467.81 48.376C466.978 48.376 466.354 48.952 466.354 49.72ZM474.634 51V40.616H472.73C472.522 41.704 471.466 42.552 469.946 42.568V44.056H472.442V51H474.634ZM477.089 50.664C477.633 51 478.609 51.24 479.489 51.24C483.041 51.24 484.913 49.032 484.913 45.288C484.913 41.976 483.025 40.376 480.769 40.376C478.465 40.376 476.785 41.896 476.785 44.024C476.785 46.168 478.433 47.512 480.369 47.512C481.457 47.512 482.337 47.048 482.769 46.392C482.625 48.296 481.361 49.336 479.473 49.336C478.753 49.336 478.001 49.096 477.633 48.888L477.089 50.664ZM482.481 43.96C482.481 44.984 481.665 45.672 480.689 45.672C479.713 45.672 478.913 45 478.913 43.96C478.913 42.936 479.729 42.248 480.689 42.248C481.665 42.248 482.481 42.936 482.481 43.96ZM488.69 44.632C488.642 44.456 488.61 44.248 488.61 44.056C488.61 43.08 489.154 42.328 490.258 42.328C491.298 42.328 491.826 43 491.826 43.752C491.826 44.472 491.474 45.016 490.594 45.544L488.882 46.568C487.026 47.688 486.45 49.176 486.434 51H494.114V49.096H489.138C489.298 48.696 489.634 48.408 490.034 48.152L492.034 46.936C493.314 46.152 494.05 45.064 494.05 43.72C494.05 41.912 492.626 40.376 490.306 40.376C487.89 40.376 486.514 42.024 486.514 43.848C486.514 44.104 486.562 44.424 486.594 44.568L488.69 44.632Z" fill="#38454F"/>
<rect x="653.5" y="0.5" width="193" height="73" stroke="#DCDFF2"/>
<path d="M673.764 23.18C675.72 23.18 677.064 22.04 677.52 20.444L676.476 20.06C676.128 21.224 675.216 22.1 673.764 22.1C672.216 22.1 670.74 20.96 670.74 18.74C670.74 16.52 672.216 15.392 673.764 15.392C675.156 15.392 676.092 16.112 676.416 17.396L677.508 17.012C677.076 15.368 675.708 14.312 673.764 14.312C671.652 14.312 669.54 15.896 669.54 18.74C669.54 21.584 671.568 23.18 673.764 23.18ZM680.371 23V14.312H679.243V23H680.371ZM683.806 23V17.228H682.69V23H683.806ZM682.438 15.044C682.438 15.488 682.798 15.848 683.242 15.848C683.698 15.848 684.058 15.488 684.058 15.044C684.058 14.588 683.698 14.228 683.242 14.228C682.798 14.228 682.438 14.588 682.438 15.044ZM688.549 18.092C689.533 18.092 689.953 18.752 690.097 19.316L691.117 18.884C690.877 18.008 690.085 17.048 688.549 17.048C686.905 17.048 685.645 18.308 685.645 20.108C685.645 21.86 686.881 23.18 688.561 23.18C690.061 23.18 690.889 22.208 691.165 21.38L690.169 20.948C690.037 21.404 689.641 22.136 688.561 22.136C687.625 22.136 686.797 21.428 686.797 20.108C686.797 18.764 687.637 18.092 688.549 18.092ZM698.06 17.228H696.5L694.004 19.784V14.312H692.888V23H694.004V21.26L694.808 20.456L696.692 23H698.108L695.6 19.664L698.06 17.228ZM699.053 21.5C699.149 22.16 699.821 23.18 701.405 23.18C702.833 23.18 703.517 22.208 703.517 21.392C703.517 20.54 702.965 19.904 701.921 19.676L700.985 19.472C700.541 19.376 700.325 19.124 700.325 18.776C700.325 18.38 700.709 18.008 701.285 18.008C702.197 18.008 702.437 18.668 702.485 18.968L703.481 18.596C703.361 18.08 702.869 17.048 701.285 17.048C700.157 17.048 699.233 17.888 699.233 18.872C699.233 19.688 699.773 20.3 700.673 20.492L701.657 20.708C702.137 20.816 702.401 21.092 702.401 21.452C702.401 21.86 702.053 22.22 701.417 22.22C700.601 22.22 700.145 21.74 700.073 21.14L699.053 21.5Z" fill="#38454F"/>
<path d="M669.512 48.776H674.424V51H676.6V48.776H678.312V46.888H676.6V40.616H673.88L669.512 46.472V48.776ZM674.424 46.888H671.464L674.424 42.92V46.888ZM679.795 50.664C680.339 51 681.315 51.24 682.195 51.24C685.747 51.24 687.619 49.032 687.619 45.288C687.619 41.976 685.731 40.376 683.475 40.376C681.171 40.376 679.491 41.896 679.491 44.024C679.491 46.168 681.139 47.512 683.075 47.512C684.163 47.512 685.043 47.048 685.475 46.392C685.331 48.296 684.067 49.336 682.179 49.336C681.459 49.336 680.707 49.096 680.339 48.888L679.795 50.664ZM685.187 43.96C685.187 44.984 684.371 45.672 683.395 45.672C682.419 45.672 681.619 45 681.619 43.96C681.619 42.936 682.435 42.248 683.395 42.248C684.371 42.248 685.187 42.936 685.187 43.96ZM689.01 49.72C689.01 50.488 689.554 51.048 690.338 51.048C690.514 51.048 690.69 51 690.754 50.952C690.722 51.832 689.954 52.52 689.234 52.68V53.704C690.418 53.56 692.05 52.568 692.05 50.216C692.05 49.176 691.458 48.376 690.466 48.376C689.634 48.376 689.01 48.952 689.01 49.72ZM696.187 44.632C696.139 44.456 696.107 44.248 696.107 44.056C696.107 43.08 696.651 42.328 697.755 42.328C698.795 42.328 699.323 43 699.323 43.752C699.323 44.472 698.971 45.016 698.091 45.544L696.379 46.568C694.523 47.688 693.947 49.176 693.931 51H701.611V49.096H696.635C696.795 48.696 697.131 48.408 697.531 48.152L699.531 46.936C700.811 46.152 701.547 45.064 701.547 43.72C701.547 41.912 700.123 40.376 697.803 40.376C695.387 40.376 694.011 42.024 694.011 43.848C694.011 44.104 694.059 44.424 694.091 44.568L696.187 44.632ZM702.831 48.776H707.743V51H709.919V48.776H711.631V46.888H709.919V40.616H707.199L702.831 46.472V48.776ZM707.743 46.888H704.783L707.743 42.92V46.888ZM720.109 40.616H712.221V42.52H717.565C717.565 42.52 714.093 45.416 713.661 51H715.949C716.413 45.768 719.325 43.128 720.109 42.456V40.616Z" fill="#38454F"/>
<path d="M739.82 44.82V43.91H734.1V44.82H736.47V51H737.45V44.82H739.82ZM741.514 47.45C741.514 45.6 742.754 44.66 744.074 44.66C745.394 44.66 746.634 45.6 746.634 47.45C746.634 49.3 745.394 50.25 744.074 50.25C742.754 50.25 741.514 49.3 741.514 47.45ZM740.514 47.45C740.514 49.82 742.294 51.15 744.074 51.15C745.854 51.15 747.634 49.82 747.634 47.45C747.634 45.08 745.854 43.76 744.074 43.76C742.294 43.76 740.514 45.08 740.514 47.45ZM754.048 44.82V43.91H748.328V44.82H750.698V51H751.678V44.82H754.048ZM759.701 51H760.761L757.941 43.91H756.811L753.991 51H755.041L755.791 49.02H758.931L759.701 51ZM757.351 44.93L758.581 48.11H756.141L757.351 44.93ZM766.494 51V50.08H763.144V43.91H762.164V51H766.494Z" fill="#7C8A95"/>
<rect x="871.5" y="0.5" width="193" height="73" stroke="#DCDFF2"/>
<rect x="871" width="194" height="4" fill="#D17C2E"/>
<path d="M893.972 23H895.244L891.86 14.492H890.504L887.12 23H888.38L889.28 20.624H893.048L893.972 23ZM891.152 15.716L892.628 19.532H889.7L891.152 15.716ZM900.226 23.18C902.182 23.18 903.527 22.04 903.983 20.444L902.938 20.06C902.591 21.224 901.678 22.1 900.226 22.1C898.678 22.1 897.202 20.96 897.202 18.74C897.202 16.52 898.678 15.392 900.226 15.392C901.618 15.392 902.554 16.112 902.878 17.396L903.971 17.012C903.539 15.368 902.17 14.312 900.226 14.312C898.114 14.312 896.002 15.896 896.002 18.74C896.002 21.584 898.03 23.18 900.226 23.18ZM906.485 18.74C906.485 16.52 907.973 15.392 909.557 15.392C911.141 15.392 912.629 16.52 912.629 18.74C912.629 20.96 911.141 22.1 909.557 22.1C907.973 22.1 906.485 20.96 906.485 18.74ZM905.285 18.74C905.285 21.584 907.421 23.18 909.557 23.18C911.693 23.18 913.829 21.584 913.829 18.74C913.829 15.896 911.693 14.312 909.557 14.312C907.421 14.312 905.285 15.896 905.285 18.74ZM921.212 16.424C921.02 15.5 920.252 14.312 918.332 14.312C916.76 14.312 915.524 15.512 915.524 16.844C915.524 18.116 916.388 18.908 917.6 19.172L918.812 19.436C919.664 19.616 920.084 20.144 920.084 20.756C920.084 21.5 919.508 22.112 918.332 22.112C917.048 22.112 916.376 21.236 916.292 20.288L915.164 20.648C915.32 21.86 916.292 23.18 918.344 23.18C920.156 23.18 921.284 21.98 921.284 20.66C921.284 19.472 920.492 18.584 919.076 18.272L917.804 17.996C917.084 17.84 916.712 17.372 916.712 16.76C916.712 15.968 917.396 15.344 918.356 15.344C919.544 15.344 920.06 16.184 920.156 16.796L921.212 16.424Z" fill="#D17C2E"/>
<path d="M889.768 44.632C889.72 44.456 889.688 44.248 889.688 44.056C889.688 43.08 890.232 42.328 891.336 42.328C892.376 42.328 892.904 43 892.904 43.752C892.904 44.472 892.552 45.016 891.672 45.544L889.96 46.568C888.104 47.688 887.528 49.176 887.512 51H895.192V49.096H890.216C890.376 48.696 890.712 48.408 891.112 48.152L893.112 46.936C894.392 46.152 895.128 45.064 895.128 43.72C895.128 41.912 893.704 40.376 891.384 40.376C888.968 40.376 887.592 42.024 887.592 43.848C887.592 44.104 887.64 44.424 887.672 44.568L889.768 44.632ZM904.696 40.856C904.264 40.6 903.479 40.376 902.519 40.376C899.095 40.376 896.759 42.744 896.759 46.472C896.759 49.608 898.695 51.24 900.967 51.24C903.255 51.24 904.984 49.72 904.984 47.592C904.984 45.448 903.528 44.104 901.399 44.104C900.183 44.104 899.319 44.68 898.935 45.256C899.175 43.304 900.615 42.28 902.375 42.28C903.031 42.28 903.64 42.456 904.087 42.648L904.696 40.856ZM899.127 47.64C899.127 46.568 899.959 45.912 900.951 45.912C901.959 45.912 902.792 46.568 902.792 47.64C902.792 48.712 901.959 49.384 900.951 49.384C899.991 49.384 899.127 48.696 899.127 47.64ZM906.761 49.656C906.761 50.456 907.417 51.112 908.217 51.112C909.033 51.112 909.689 50.456 909.689 49.656C909.689 48.856 909.033 48.2 908.217 48.2C907.417 48.2 906.761 48.856 906.761 49.656ZM919.402 40.856C918.97 40.6 918.186 40.376 917.226 40.376C913.802 40.376 911.466 42.744 911.466 46.472C911.466 49.608 913.402 51.24 915.674 51.24C917.962 51.24 919.69 49.72 919.69 47.592C919.69 45.448 918.234 44.104 916.106 44.104C914.89 44.104 914.026 44.68 913.642 45.256C913.882 43.304 915.322 42.28 917.082 42.28C917.738 42.28 918.346 42.456 918.794 42.648L919.402 40.856ZM913.834 47.64C913.834 46.568 914.666 45.912 915.658 45.912C916.666 45.912 917.498 46.568 917.498 47.64C917.498 48.712 916.666 49.384 915.658 49.384C914.698 49.384 913.834 48.696 913.834 47.64ZM922.81 43.064C922.81 42.408 923.274 41.96 923.866 41.96C924.474 41.96 924.922 42.408 924.922 43.064C924.922 43.72 924.474 44.184 923.866 44.184C923.274 44.184 922.81 43.736 922.81 43.064ZM921.21 43.064C921.21 44.52 922.41 45.672 923.866 45.672C925.306 45.672 926.538 44.552 926.538 43.064C926.538 41.592 925.306 40.44 923.866 40.44C922.426 40.44 921.21 41.592 921.21 43.064ZM929.802 48.568C929.802 47.912 930.266 47.464 930.858 47.464C931.466 47.464 931.914 47.912 931.914 48.568C931.914 49.224 931.466 49.688 930.858 49.688C930.266 49.688 929.802 49.24 929.802 48.568ZM928.202 48.568C928.202 50.024 929.402 51.176 930.858 51.176C932.298 51.176 933.53 50.056 933.53 48.568C933.53 47.096 932.298 45.944 930.858 45.944C929.418 45.944 928.202 47.096 928.202 48.568ZM924.634 51L931.962 40.616H930.106L922.778 51H924.634Z" fill="#38454F"/>
<path d="M956.81 51H957.87L955.05 43.91H953.92L951.1 51H952.15L952.9 49.02H956.04L956.81 51ZM954.46 44.93L955.69 48.11H953.25L954.46 44.93ZM961.106 49.74L958.966 43.91H957.926L960.596 51H961.566L964.296 43.91H963.266L961.106 49.74ZM970.008 51V50.09H966.678V47.92H969.698V47H966.678V44.82H970.008V43.91H965.698V51H970.008ZM975.579 51H976.719L975.029 48.03C976.099 47.83 976.749 47.04 976.749 46.02C976.749 44.85 975.919 43.91 974.579 43.91H971.909V51H972.899V48.1H973.959L975.579 51ZM972.899 47.22V44.79H974.399C975.199 44.79 975.739 45.27 975.739 46.02C975.739 46.75 975.199 47.22 974.399 47.22H972.899ZM983.361 51H984.421L981.601 43.91H980.471L977.651 51H978.701L979.451 49.02H982.591L983.361 51ZM981.011 44.93L982.241 48.11H979.801L981.011 44.93ZM991.71 51V47.53H988.32V48.41H990.78C990.74 49.14 990.17 50.26 988.59 50.26C987.32 50.26 986.12 49.33 986.12 47.45C986.12 45.57 987.36 44.66 988.63 44.66C989.73 44.66 990.56 45.26 990.88 46.28L991.77 45.9C991.36 44.62 990.17 43.76 988.63 43.76C986.88 43.76 985.12 45.05 985.12 47.45C985.12 49.85 986.78 51.15 988.56 51.15C989.75 51.15 990.52 50.56 990.83 50L990.92 51H991.71ZM997.926 51V50.09H994.596V47.92H997.616V47H994.596V44.82H997.926V43.91H993.616V51H997.926Z" fill="#7C8A95"/>
<path d="M53.8196 138V130.224H52.7876C52.6076 131.064 51.8636 131.664 50.7836 131.688V132.516H52.6676V138H53.8196ZM56.8647 133.02C56.8527 132.9 56.8407 132.78 56.8407 132.672C56.8407 131.784 57.3207 131.076 58.3407 131.076C59.3247 131.076 59.8047 131.736 59.8047 132.444C59.8047 133.044 59.4687 133.596 58.7367 134.064L57.4407 134.904C56.1207 135.756 55.6167 136.728 55.5927 138H61.0407V136.908H57.0447C57.1527 136.428 57.5487 136.104 57.9927 135.816L59.5287 134.832C60.4167 134.268 60.9927 133.452 60.9927 132.432C60.9927 131.136 60.0327 130.044 58.3647 130.044C56.6607 130.044 55.6767 131.232 55.6767 132.564C55.6767 132.66 55.6767 132.768 55.6887 132.876L56.8647 133.02ZM63.6882 134.112C63.6882 132.924 63.9042 132.084 64.3722 131.592C64.6722 131.28 65.0562 131.088 65.6082 131.088C66.1602 131.088 66.5442 131.28 66.8442 131.592C67.3122 132.084 67.5282 132.924 67.5282 134.112C67.5282 135.3 67.3122 136.14 66.8442 136.632C66.5442 136.944 66.1602 137.136 65.6082 137.136C65.0562 137.136 64.6722 136.944 64.3722 136.632C63.9042 136.14 63.6882 135.3 63.6882 134.112ZM62.5242 134.112C62.5242 135.18 62.7042 136.164 63.2202 136.932C63.7242 137.688 64.5042 138.18 65.6082 138.18C66.7122 138.18 67.4922 137.688 67.9962 136.932C68.5122 136.164 68.6922 135.18 68.6922 134.112C68.6922 133.044 68.5122 132.06 67.9962 131.292C67.4922 130.536 66.7122 130.044 65.6082 130.044C64.5042 130.044 63.7242 130.536 63.2202 131.292C62.7042 132.06 62.5242 133.044 62.5242 134.112ZM75.8273 132.228H74.2673L71.7713 134.784V129.312H70.6553V138H71.7713V136.26L72.5753 135.456L74.4593 138H75.8753L73.3673 134.664L75.8273 132.228Z" fill="#478BB4"/>
<path d="M55.2942 174.724C55.6782 174.988 56.4942 175.18 57.0942 175.18C59.7102 175.18 60.9822 173.476 60.9822 170.62C60.9822 168.136 59.4822 167.044 57.9582 167.044C56.4342 167.044 55.0902 168.124 55.0902 169.732C55.0902 171.448 56.4342 172.36 57.7782 172.36C58.8342 172.36 59.5182 171.88 59.7942 171.364C59.7462 172.888 58.9782 174.124 57.0942 174.124C56.5902 174.124 56.0142 173.956 55.6782 173.752L55.2942 174.724ZM59.6382 169.708C59.6382 170.74 58.8222 171.352 57.9582 171.352C57.0702 171.352 56.2782 170.764 56.2782 169.708C56.2782 168.688 57.0942 168.076 57.9582 168.076C58.8102 168.076 59.6382 168.7 59.6382 169.708ZM63.6882 171.112C63.6882 169.924 63.9042 169.084 64.3722 168.592C64.6722 168.28 65.0562 168.088 65.6082 168.088C66.1602 168.088 66.5442 168.28 66.8442 168.592C67.3122 169.084 67.5282 169.924 67.5282 171.112C67.5282 172.3 67.3122 173.14 66.8442 173.632C66.5442 173.944 66.1602 174.136 65.6082 174.136C65.0562 174.136 64.6722 173.944 64.3722 173.632C63.9042 173.14 63.6882 172.3 63.6882 171.112ZM62.5242 171.112C62.5242 172.18 62.7042 173.164 63.2202 173.932C63.7242 174.688 64.5042 175.18 65.6082 175.18C66.7122 175.18 67.4922 174.688 67.9962 173.932C68.5122 173.164 68.6922 172.18 68.6922 171.112C68.6922 170.044 68.5122 169.06 67.9962 168.292C67.4922 167.536 66.7122 167.044 65.6082 167.044C64.5042 167.044 63.7242 167.536 63.2202 168.292C62.7042 169.06 62.5242 170.044 62.5242 171.112ZM75.8273 169.228H74.2673L71.7713 171.784V166.312H70.6553V175H71.7713V173.26L72.5753 172.456L74.4593 175H75.8753L73.3673 171.664L75.8273 169.228Z" fill="#478BB4"/>
<path d="M60.8633 204.476C60.5033 204.224 59.8913 204.044 59.1833 204.044C56.9153 204.044 55.1753 205.688 55.1753 208.58C55.1753 211.148 56.7233 212.18 58.2113 212.18C59.7353 212.18 61.0913 211.196 61.0913 209.528C61.0913 207.836 59.9633 206.876 58.4273 206.876C57.3953 206.876 56.6873 207.368 56.3753 207.884C56.4713 206.288 57.4913 205.1 59.1113 205.1C59.6993 205.1 60.2153 205.268 60.5033 205.436L60.8633 204.476ZM56.5433 209.528C56.5433 208.484 57.3233 207.884 58.2233 207.884C59.1233 207.884 59.9033 208.484 59.9033 209.528C59.9033 210.56 59.1353 211.16 58.2233 211.16C57.3713 211.16 56.5433 210.548 56.5433 209.528ZM63.6882 208.112C63.6882 206.924 63.9042 206.084 64.3722 205.592C64.6722 205.28 65.0562 205.088 65.6082 205.088C66.1602 205.088 66.5442 205.28 66.8442 205.592C67.3122 206.084 67.5282 206.924 67.5282 208.112C67.5282 209.3 67.3122 210.14 66.8442 210.632C66.5442 210.944 66.1602 211.136 65.6082 211.136C65.0562 211.136 64.6722 210.944 64.3722 210.632C63.9042 210.14 63.6882 209.3 63.6882 208.112ZM62.5242 208.112C62.5242 209.18 62.7042 210.164 63.2202 210.932C63.7242 211.688 64.5042 212.18 65.6082 212.18C66.7122 212.18 67.4922 211.688 67.9962 210.932C68.5122 210.164 68.6922 209.18 68.6922 208.112C68.6922 207.044 68.5122 206.06 67.9962 205.292C67.4922 204.536 66.7122 204.044 65.6082 204.044C64.5042 204.044 63.7242 204.536 63.2202 205.292C62.7042 206.06 62.5242 207.044 62.5242 208.112ZM75.8273 206.228H74.2673L71.7713 208.784V203.312H70.6553V212H71.7713V210.26L72.5753 209.456L74.4593 212H75.8753L73.3673 208.664L75.8273 206.228Z" fill="#478BB4"/>
<path d="M57.5914 245.388C57.7954 245.316 58.0354 245.268 58.2754 245.268C59.0434 245.268 59.8594 245.7 59.8594 246.72C59.8594 247.5 59.2834 248.16 58.2154 248.16C57.2794 248.16 56.5354 247.512 56.4874 246.48L55.3354 246.744C55.4074 248.016 56.4274 249.192 58.2274 249.192C60.0394 249.192 61.0474 248.004 61.0474 246.696C61.0474 245.1 59.7874 244.332 58.6474 244.332L60.8674 242.28V241.224H55.5874V242.304H59.3074L57.0154 244.416L57.5914 245.388ZM63.6882 245.112C63.6882 243.924 63.9042 243.084 64.3722 242.592C64.6722 242.28 65.0562 242.088 65.6082 242.088C66.1602 242.088 66.5442 242.28 66.8442 242.592C67.3122 243.084 67.5282 243.924 67.5282 245.112C67.5282 246.3 67.3122 247.14 66.8442 247.632C66.5442 247.944 66.1602 248.136 65.6082 248.136C65.0562 248.136 64.6722 247.944 64.3722 247.632C63.9042 247.14 63.6882 246.3 63.6882 245.112ZM62.5242 245.112C62.5242 246.18 62.7042 247.164 63.2202 247.932C63.7242 248.688 64.5042 249.18 65.6082 249.18C66.7122 249.18 67.4922 248.688 67.9962 247.932C68.5122 247.164 68.6922 246.18 68.6922 245.112C68.6922 244.044 68.5122 243.06 67.9962 242.292C67.4922 241.536 66.7122 241.044 65.6082 241.044C64.5042 241.044 63.7242 241.536 63.2202 242.292C62.7042 243.06 62.5242 244.044 62.5242 245.112ZM75.8273 243.228H74.2673L71.7713 245.784V240.312H70.6553V249H71.7713V247.26L72.5753 246.456L74.4593 249H75.8753L73.3673 245.664L75.8273 243.228Z" fill="#478BB4"/>
<path d="M70.3929 282.112C70.3929 280.924 70.6089 280.084 71.0769 279.592C71.3769 279.28 71.7609 279.088 72.3129 279.088C72.8649 279.088 73.2489 279.28 73.5489 279.592C74.0169 280.084 74.2329 280.924 74.2329 282.112C74.2329 283.3 74.0169 284.14 73.5489 284.632C73.2489 284.944 72.8649 285.136 72.3129 285.136C71.7609 285.136 71.3769 284.944 71.0769 284.632C70.6089 284.14 70.3929 283.3 70.3929 282.112ZM69.2289 282.112C69.2289 283.18 69.4089 284.164 69.9249 284.932C70.4289 285.688 71.2089 286.18 72.3129 286.18C73.4169 286.18 74.1969 285.688 74.7009 284.932C75.2169 284.164 75.3969 283.18 75.3969 282.112C75.3969 281.044 75.2169 280.06 74.7009 279.292C74.1969 278.536 73.4169 278.044 72.3129 278.044C71.2089 278.044 70.4289 278.536 69.9249 279.292C69.4089 280.06 69.2289 281.044 69.2289 282.112Z" fill="#478BB4"/>
<path d="M1010.3 130.476C1009.94 130.224 1009.33 130.044 1008.62 130.044C1006.35 130.044 1004.61 131.688 1004.61 134.58C1004.61 137.148 1006.16 138.18 1007.65 138.18C1009.17 138.18 1010.53 137.196 1010.53 135.528C1010.53 133.836 1009.4 132.876 1007.86 132.876C1006.83 132.876 1006.12 133.368 1005.81 133.884C1005.91 132.288 1006.93 131.1 1008.55 131.1C1009.14 131.1 1009.65 131.268 1009.94 131.436L1010.3 130.476ZM1005.98 135.528C1005.98 134.484 1006.76 133.884 1007.66 133.884C1008.56 133.884 1009.34 134.484 1009.34 135.528C1009.34 136.56 1008.57 137.16 1007.66 137.16C1006.81 137.16 1005.98 136.548 1005.98 135.528ZM1013.12 134.112C1013.12 132.924 1013.34 132.084 1013.81 131.592C1014.11 131.28 1014.49 131.088 1015.04 131.088C1015.6 131.088 1015.98 131.28 1016.28 131.592C1016.75 132.084 1016.96 132.924 1016.96 134.112C1016.96 135.3 1016.75 136.14 1016.28 136.632C1015.98 136.944 1015.6 137.136 1015.04 137.136C1014.49 137.136 1014.11 136.944 1013.81 136.632C1013.34 136.14 1013.12 135.3 1013.12 134.112ZM1011.96 134.112C1011.96 135.18 1012.14 136.164 1012.66 136.932C1013.16 137.688 1013.94 138.18 1015.04 138.18C1016.15 138.18 1016.93 137.688 1017.43 136.932C1017.95 136.164 1018.13 135.18 1018.13 134.112C1018.13 133.044 1017.95 132.06 1017.43 131.292C1016.93 130.536 1016.15 130.044 1015.04 130.044C1013.94 130.044 1013.16 130.536 1012.66 131.292C1012.14 132.06 1011.96 133.044 1011.96 134.112ZM1020.55 132.024C1020.55 131.484 1020.96 131.088 1021.48 131.088C1022.01 131.088 1022.4 131.484 1022.4 132.024C1022.4 132.576 1022.01 132.972 1021.48 132.972C1020.96 132.972 1020.55 132.576 1020.55 132.024ZM1019.56 132.024C1019.56 133.092 1020.45 133.92 1021.48 133.92C1022.51 133.92 1023.41 133.092 1023.41 132.024C1023.41 130.968 1022.51 130.14 1021.48 130.14C1020.45 130.14 1019.56 130.968 1019.56 132.024ZM1025.31 136.2C1025.31 135.66 1025.71 135.264 1026.23 135.264C1026.76 135.264 1027.15 135.66 1027.15 136.2C1027.15 136.752 1026.76 137.148 1026.23 137.148C1025.71 137.148 1025.31 136.752 1025.31 136.2ZM1024.31 136.2C1024.31 137.268 1025.2 138.096 1026.23 138.096C1027.26 138.096 1028.16 137.268 1028.16 136.2C1028.16 135.144 1027.26 134.316 1026.23 134.316C1025.2 134.316 1024.31 135.144 1024.31 136.2ZM1021.62 138L1027.19 130.224H1026.11L1020.52 138H1021.62Z" fill="#D17C2E"/>
<path d="M1004.42 172.888C1004.53 174.112 1005.64 175.192 1007.3 175.192C1009.03 175.192 1010.16 174.004 1010.16 172.54C1010.16 170.932 1009.04 169.96 1007.52 169.96C1006.9 169.96 1006.28 170.152 1005.93 170.536L1006.51 168.304H1009.83V167.224H1005.73L1004.72 171.088C1005.12 171.232 1005.46 171.388 1005.87 171.544C1006.21 171.196 1006.74 170.98 1007.29 170.98C1008.19 170.98 1008.97 171.52 1008.97 172.588C1008.97 173.548 1008.22 174.16 1007.3 174.16C1006.33 174.16 1005.62 173.512 1005.55 172.552L1004.42 172.888ZM1012.74 171.112C1012.74 169.924 1012.95 169.084 1013.42 168.592C1013.72 168.28 1014.11 168.088 1014.66 168.088C1015.21 168.088 1015.59 168.28 1015.89 168.592C1016.36 169.084 1016.58 169.924 1016.58 171.112C1016.58 172.3 1016.36 173.14 1015.89 173.632C1015.59 173.944 1015.21 174.136 1014.66 174.136C1014.11 174.136 1013.72 173.944 1013.42 173.632C1012.95 173.14 1012.74 172.3 1012.74 171.112ZM1011.57 171.112C1011.57 172.18 1011.75 173.164 1012.27 173.932C1012.77 174.688 1013.55 175.18 1014.66 175.18C1015.76 175.18 1016.54 174.688 1017.05 173.932C1017.56 173.164 1017.74 172.18 1017.74 171.112C1017.74 170.044 1017.56 169.06 1017.05 168.292C1016.54 167.536 1015.76 167.044 1014.66 167.044C1013.55 167.044 1012.77 167.536 1012.27 168.292C1011.75 169.06 1011.57 170.044 1011.57 171.112ZM1020.17 169.024C1020.17 168.484 1020.57 168.088 1021.09 168.088C1021.62 168.088 1022.01 168.484 1022.01 169.024C1022.01 169.576 1021.62 169.972 1021.09 169.972C1020.57 169.972 1020.17 169.576 1020.17 169.024ZM1019.17 169.024C1019.17 170.092 1020.06 170.92 1021.09 170.92C1022.12 170.92 1023.02 170.092 1023.02 169.024C1023.02 167.968 1022.12 167.14 1021.09 167.14C1020.06 167.14 1019.17 167.968 1019.17 169.024ZM1024.92 173.2C1024.92 172.66 1025.33 172.264 1025.84 172.264C1026.37 172.264 1026.77 172.66 1026.77 173.2C1026.77 173.752 1026.37 174.148 1025.84 174.148C1025.33 174.148 1024.92 173.752 1024.92 173.2ZM1023.92 173.2C1023.92 174.268 1024.81 175.096 1025.84 175.096C1026.87 175.096 1027.77 174.268 1027.77 173.2C1027.77 172.144 1026.87 171.316 1025.84 171.316C1024.81 171.316 1023.92 172.144 1023.92 173.2ZM1021.23 175L1026.8 167.224H1025.72L1020.13 175H1021.23Z" fill="#D17C2E"/>
<path d="M1004.42 210.248H1008.24V212H1009.38V210.248H1010.71V209.156H1009.38V204.224H1007.76L1004.42 208.892V210.248ZM1008.24 209.156H1005.5L1008.24 205.352V209.156ZM1013.05 208.112C1013.05 206.924 1013.27 206.084 1013.74 205.592C1014.04 205.28 1014.42 205.088 1014.97 205.088C1015.53 205.088 1015.91 205.28 1016.21 205.592C1016.68 206.084 1016.89 206.924 1016.89 208.112C1016.89 209.3 1016.68 210.14 1016.21 210.632C1015.91 210.944 1015.53 211.136 1014.97 211.136C1014.42 211.136 1014.04 210.944 1013.74 210.632C1013.27 210.14 1013.05 209.3 1013.05 208.112ZM1011.89 208.112C1011.89 209.18 1012.07 210.164 1012.59 210.932C1013.09 211.688 1013.87 212.18 1014.97 212.18C1016.08 212.18 1016.86 211.688 1017.36 210.932C1017.88 210.164 1018.06 209.18 1018.06 208.112C1018.06 207.044 1017.88 206.06 1017.36 205.292C1016.86 204.536 1016.08 204.044 1014.97 204.044C1013.87 204.044 1013.09 204.536 1012.59 205.292C1012.07 206.06 1011.89 207.044 1011.89 208.112ZM1020.48 206.024C1020.48 205.484 1020.89 205.088 1021.41 205.088C1021.94 205.088 1022.33 205.484 1022.33 206.024C1022.33 206.576 1021.94 206.972 1021.41 206.972C1020.89 206.972 1020.48 206.576 1020.48 206.024ZM1019.49 206.024C1019.49 207.092 1020.38 207.92 1021.41 207.92C1022.44 207.92 1023.34 207.092 1023.34 206.024C1023.34 204.968 1022.44 204.14 1021.41 204.14C1020.38 204.14 1019.49 204.968 1019.49 206.024ZM1025.24 210.2C1025.24 209.66 1025.64 209.264 1026.16 209.264C1026.69 209.264 1027.08 209.66 1027.08 210.2C1027.08 210.752 1026.69 211.148 1026.16 211.148C1025.64 211.148 1025.24 210.752 1025.24 210.2ZM1024.24 210.2C1024.24 211.268 1025.13 212.096 1026.16 212.096C1027.19 212.096 1028.09 211.268 1028.09 210.2C1028.09 209.144 1027.19 208.316 1026.16 208.316C1025.13 208.316 1024.24 209.144 1024.24 210.2ZM1021.55 212L1027.12 204.224H1026.04L1020.45 212H1021.55Z" fill="#D17C2E"/>
<path d="M1006.7 245.388C1006.9 245.316 1007.14 245.268 1007.38 245.268C1008.15 245.268 1008.97 245.7 1008.97 246.72C1008.97 247.5 1008.39 248.16 1007.32 248.16C1006.39 248.16 1005.64 247.512 1005.6 246.48L1004.44 246.744C1004.52 248.016 1005.54 249.192 1007.34 249.192C1009.15 249.192 1010.16 248.004 1010.16 246.696C1010.16 245.1 1008.9 244.332 1007.76 244.332L1009.98 242.28V241.224H1004.7V242.304H1008.42L1006.12 244.416L1006.7 245.388ZM1012.8 245.112C1012.8 243.924 1013.01 243.084 1013.48 242.592C1013.78 242.28 1014.16 242.088 1014.72 242.088C1015.27 242.088 1015.65 242.28 1015.95 242.592C1016.42 243.084 1016.64 243.924 1016.64 245.112C1016.64 246.3 1016.42 247.14 1015.95 247.632C1015.65 247.944 1015.27 248.136 1014.72 248.136C1014.16 248.136 1013.78 247.944 1013.48 247.632C1013.01 247.14 1012.8 246.3 1012.8 245.112ZM1011.63 245.112C1011.63 246.18 1011.81 247.164 1012.33 247.932C1012.83 248.688 1013.61 249.18 1014.72 249.18C1015.82 249.18 1016.6 248.688 1017.1 247.932C1017.62 247.164 1017.8 246.18 1017.8 245.112C1017.8 244.044 1017.62 243.06 1017.1 242.292C1016.6 241.536 1015.82 241.044 1014.72 241.044C1013.61 241.044 1012.83 241.536 1012.33 242.292C1011.81 243.06 1011.63 244.044 1011.63 245.112ZM1020.23 243.024C1020.23 242.484 1020.63 242.088 1021.15 242.088C1021.68 242.088 1022.07 242.484 1022.07 243.024C1022.07 243.576 1021.68 243.972 1021.15 243.972C1020.63 243.972 1020.23 243.576 1020.23 243.024ZM1019.23 243.024C1019.23 244.092 1020.12 244.92 1021.15 244.92C1022.18 244.92 1023.08 244.092 1023.08 243.024C1023.08 241.968 1022.18 241.14 1021.15 241.14C1020.12 241.14 1019.23 241.968 1019.23 243.024ZM1024.98 247.2C1024.98 246.66 1025.39 246.264 1025.9 246.264C1026.43 246.264 1026.83 246.66 1026.83 247.2C1026.83 247.752 1026.43 248.148 1025.9 248.148C1025.39 248.148 1024.98 247.752 1024.98 247.2ZM1023.98 247.2C1023.98 248.268 1024.87 249.096 1025.9 249.096C1026.93 249.096 1027.83 248.268 1027.83 247.2C1027.83 246.144 1026.93 245.316 1025.9 245.316C1024.87 245.316 1023.98 246.144 1023.98 247.2ZM1021.29 249L1026.86 241.224H1025.78L1020.19 249H1021.29Z" fill="#D17C2E"/>
<path d="M1005.69 281.02C1005.68 280.9 1005.67 280.78 1005.67 280.672C1005.67 279.784 1006.15 279.076 1007.17 279.076C1008.15 279.076 1008.63 279.736 1008.63 280.444C1008.63 281.044 1008.3 281.596 1007.56 282.064L1006.27 282.904C1004.95 283.756 1004.44 284.728 1004.42 286H1009.87V284.908H1005.87C1005.98 284.428 1006.38 284.104 1006.82 283.816L1008.36 282.832C1009.24 282.268 1009.82 281.452 1009.82 280.432C1009.82 279.136 1008.86 278.044 1007.19 278.044C1005.49 278.044 1004.5 279.232 1004.5 280.564C1004.5 280.66 1004.5 280.768 1004.52 280.876L1005.69 281.02ZM1012.52 282.112C1012.52 280.924 1012.73 280.084 1013.2 279.592C1013.5 279.28 1013.88 279.088 1014.44 279.088C1014.99 279.088 1015.37 279.28 1015.67 279.592C1016.14 280.084 1016.36 280.924 1016.36 282.112C1016.36 283.3 1016.14 284.14 1015.67 284.632C1015.37 284.944 1014.99 285.136 1014.44 285.136C1013.88 285.136 1013.5 284.944 1013.2 284.632C1012.73 284.14 1012.52 283.3 1012.52 282.112ZM1011.35 282.112C1011.35 283.18 1011.53 284.164 1012.05 284.932C1012.55 285.688 1013.33 286.18 1014.44 286.18C1015.54 286.18 1016.32 285.688 1016.82 284.932C1017.34 284.164 1017.52 283.18 1017.52 282.112C1017.52 281.044 1017.34 280.06 1016.82 279.292C1016.32 278.536 1015.54 278.044 1014.44 278.044C1013.33 278.044 1012.55 278.536 1012.05 279.292C1011.53 280.06 1011.35 281.044 1011.35 282.112ZM1019.94 280.024C1019.94 279.484 1020.35 279.088 1020.87 279.088C1021.4 279.088 1021.79 279.484 1021.79 280.024C1021.79 280.576 1021.4 280.972 1020.87 280.972C1020.35 280.972 1019.94 280.576 1019.94 280.024ZM1018.95 280.024C1018.95 281.092 1019.84 281.92 1020.87 281.92C1021.9 281.92 1022.8 281.092 1022.8 280.024C1022.8 278.968 1021.9 278.14 1020.87 278.14C1019.84 278.14 1018.95 278.968 1018.95 280.024ZM1024.7 284.2C1024.7 283.66 1025.1 283.264 1025.62 283.264C1026.15 283.264 1026.54 283.66 1026.54 284.2C1026.54 284.752 1026.15 285.148 1025.62 285.148C1025.1 285.148 1024.7 284.752 1024.7 284.2ZM1023.7 284.2C1023.7 285.268 1024.59 286.096 1025.62 286.096C1026.65 286.096 1027.55 285.268 1027.55 284.2C1027.55 283.144 1026.65 282.316 1025.62 282.316C1024.59 282.316 1023.7 283.144 1023.7 284.2ZM1021.01 286L1026.58 278.224H1025.5L1019.91 286H1021.01Z" fill="#D17C2E"/>
<path d="M877.686 316V308.224H876.654C876.474 309.064 875.73 309.664 874.65 309.688V310.516H876.534V316H877.686ZM884.188 307.492H883.096L878.98 316H880.072L884.188 307.492ZM887.92 316V308.224H886.888C886.708 309.064 885.964 309.664 884.884 309.688V310.516H886.768V316H887.92ZM894.422 307.492H893.33L889.214 316H890.306L894.422 307.492ZM896.275 311.02C896.263 310.9 896.251 310.78 896.251 310.672C896.251 309.784 896.731 309.076 897.751 309.076C898.735 309.076 899.215 309.736 899.215 310.444C899.215 311.044 898.879 311.596 898.147 312.064L896.851 312.904C895.531 313.756 895.027 314.728 895.003 316H900.451V314.908H896.455C896.563 314.428 896.959 314.104 897.403 313.816L898.939 312.832C899.827 312.268 900.403 311.452 900.403 310.432C900.403 309.136 899.443 308.044 897.775 308.044C896.071 308.044 895.087 309.232 895.087 310.564C895.087 310.66 895.087 310.768 895.099 310.876L896.275 311.02ZM903.098 312.112C903.098 310.924 903.314 310.084 903.782 309.592C904.082 309.28 904.466 309.088 905.018 309.088C905.57 309.088 905.954 309.28 906.254 309.592C906.722 310.084 906.938 310.924 906.938 312.112C906.938 313.3 906.722 314.14 906.254 314.632C905.954 314.944 905.57 315.136 905.018 315.136C904.466 315.136 904.082 314.944 903.782 314.632C903.314 314.14 903.098 313.3 903.098 312.112ZM901.934 312.112C901.934 313.18 902.114 314.164 902.63 314.932C903.134 315.688 903.914 316.18 905.018 316.18C906.122 316.18 906.902 315.688 907.406 314.932C907.922 314.164 908.102 313.18 908.102 312.112C908.102 311.044 907.922 310.06 907.406 309.292C906.902 308.536 906.122 308.044 905.018 308.044C903.914 308.044 903.134 308.536 902.63 309.292C902.114 310.06 901.934 311.044 901.934 312.112ZM912.383 316V308.224H911.351C911.171 309.064 910.427 309.664 909.347 309.688V310.516H911.231V316H912.383ZM914.361 315.724C914.745 315.988 915.561 316.18 916.161 316.18C918.777 316.18 920.049 314.476 920.049 311.62C920.049 309.136 918.549 308.044 917.025 308.044C915.501 308.044 914.157 309.124 914.157 310.732C914.157 312.448 915.501 313.36 916.845 313.36C917.901 313.36 918.585 312.88 918.861 312.364C918.813 313.888 918.045 315.124 916.161 315.124C915.657 315.124 915.081 314.956 914.745 314.752L914.361 315.724ZM918.705 310.708C918.705 311.74 917.889 312.352 917.025 312.352C916.137 312.352 915.345 311.764 915.345 310.708C915.345 309.688 916.161 309.076 917.025 309.076C917.877 309.076 918.705 309.7 918.705 310.708Z" fill="#7C8A95"/>
<path d="M632.41 316V308.224H631.378C631.198 309.064 630.454 309.664 629.374 309.688V310.516H631.258V316H632.41ZM635.455 311.02C635.443 310.9 635.431 310.78 635.431 310.672C635.431 309.784 635.911 309.076 636.931 309.076C637.915 309.076 638.395 309.736 638.395 310.444C638.395 311.044 638.059 311.596 637.327 312.064L636.031 312.904C634.711 313.756 634.207 314.728 634.183 316H639.631V314.908H635.635C635.743 314.428 636.139 314.104 636.583 313.816L638.119 312.832C639.007 312.268 639.583 311.452 639.583 310.432C639.583 309.136 638.623 308.044 636.955 308.044C635.251 308.044 634.267 309.232 634.267 310.564C634.267 310.66 634.267 310.768 634.279 310.876L635.455 311.02ZM645.722 307.492H644.63L640.514 316H641.606L645.722 307.492ZM649.454 316V308.224H648.422C648.242 309.064 647.498 309.664 646.418 309.688V310.516H648.302V316H649.454ZM655.956 307.492H654.864L650.748 316H651.84L655.956 307.492ZM657.809 311.02C657.797 310.9 657.785 310.78 657.785 310.672C657.785 309.784 658.265 309.076 659.285 309.076C660.269 309.076 660.749 309.736 660.749 310.444C660.749 311.044 660.413 311.596 659.681 312.064L658.385 312.904C657.065 313.756 656.561 314.728 656.537 316H661.985V314.908H657.989C658.097 314.428 658.493 314.104 658.937 313.816L660.473 312.832C661.361 312.268 661.937 311.452 661.937 310.432C661.937 309.136 660.977 308.044 659.309 308.044C657.605 308.044 656.621 309.232 656.621 310.564C656.621 310.66 656.621 310.768 656.633 310.876L657.809 311.02ZM664.632 312.112C664.632 310.924 664.848 310.084 665.316 309.592C665.616 309.28 666 309.088 666.552 309.088C667.104 309.088 667.488 309.28 667.788 309.592C668.256 310.084 668.472 310.924 668.472 312.112C668.472 313.3 668.256 314.14 667.788 314.632C667.488 314.944 667.104 315.136 666.552 315.136C666 315.136 665.616 314.944 665.316 314.632C664.848 314.14 664.632 313.3 664.632 312.112ZM663.468 312.112C663.468 313.18 663.648 314.164 664.164 314.932C664.668 315.688 665.448 316.18 666.552 316.18C667.656 316.18 668.436 315.688 668.94 314.932C669.456 314.164 669.636 313.18 669.636 312.112C669.636 311.044 669.456 310.06 668.94 309.292C668.436 308.536 667.656 308.044 666.552 308.044C665.448 308.044 664.668 308.536 664.164 309.292C663.648 310.06 663.468 311.044 663.468 312.112ZM673.917 316V308.224H672.885C672.705 309.064 671.961 309.664 670.881 309.688V310.516H672.765V316H673.917ZM678.571 311.536C677.743 311.524 677.131 311.02 677.131 310.264C677.131 309.568 677.695 309.016 678.571 309.016C679.447 309.016 680.011 309.568 680.011 310.264C680.011 311.02 679.399 311.524 678.571 311.536ZM678.571 315.16C677.527 315.16 676.939 314.584 676.939 313.852C676.939 313.108 677.539 312.52 678.571 312.52C679.603 312.52 680.203 313.108 680.203 313.852C680.203 314.584 679.615 315.16 678.571 315.16ZM678.571 316.18C680.359 316.18 681.391 315.196 681.391 313.948C681.391 313 680.743 312.292 679.915 312.028C680.635 311.764 681.187 311.044 681.187 310.204C681.187 308.932 680.059 308.044 678.571 308.044C677.083 308.044 675.955 308.932 675.955 310.204C675.955 311.068 676.519 311.764 677.227 312.028C676.399 312.304 675.751 313 675.751 313.948C675.751 315.196 676.783 316.18 678.571 316.18Z" fill="#7C8A95"/>
<path d="M391.5 316V308.224H390.468C390.288 309.064 389.544 309.664 388.464 309.688V310.516H390.348V316H391.5ZM396.13 316V308.224H395.098C394.918 309.064 394.174 309.664 393.094 309.688V310.516H394.978V316H396.13ZM402.633 307.492H401.541L397.425 316H398.517L402.633 307.492ZM406.364 316V308.224H405.332C405.152 309.064 404.408 309.664 403.328 309.688V310.516H405.212V316H406.364ZM412.866 307.492H411.774L407.658 316H408.75L412.866 307.492ZM414.719 311.02C414.707 310.9 414.695 310.78 414.695 310.672C414.695 309.784 415.175 309.076 416.195 309.076C417.179 309.076 417.659 309.736 417.659 310.444C417.659 311.044 417.323 311.596 416.591 312.064L415.295 312.904C413.975 313.756 413.471 314.728 413.447 316H418.895V314.908H414.899C415.007 314.428 415.403 314.104 415.847 313.816L417.383 312.832C418.271 312.268 418.847 311.452 418.847 310.432C418.847 309.136 417.887 308.044 416.219 308.044C414.515 308.044 413.531 309.232 413.531 310.564C413.531 310.66 413.531 310.768 413.543 310.876L414.719 311.02ZM421.543 312.112C421.543 310.924 421.759 310.084 422.227 309.592C422.527 309.28 422.911 309.088 423.463 309.088C424.015 309.088 424.399 309.28 424.699 309.592C425.167 310.084 425.383 310.924 425.383 312.112C425.383 313.3 425.167 314.14 424.699 314.632C424.399 314.944 424.015 315.136 423.463 315.136C422.911 315.136 422.527 314.944 422.227 314.632C421.759 314.14 421.543 313.3 421.543 312.112ZM420.379 312.112C420.379 313.18 420.559 314.164 421.075 314.932C421.579 315.688 422.359 316.18 423.463 316.18C424.567 316.18 425.347 315.688 425.851 314.932C426.367 314.164 426.547 313.18 426.547 312.112C426.547 311.044 426.367 310.06 425.851 309.292C425.347 308.536 424.567 308.044 423.463 308.044C422.359 308.044 421.579 308.536 421.075 309.292C420.559 310.06 420.379 311.044 420.379 312.112ZM430.827 316V308.224H429.795C429.615 309.064 428.871 309.664 427.791 309.688V310.516H429.675V316H430.827ZM435.481 311.536C434.653 311.524 434.041 311.02 434.041 310.264C434.041 309.568 434.605 309.016 435.481 309.016C436.357 309.016 436.921 309.568 436.921 310.264C436.921 311.02 436.309 311.524 435.481 311.536ZM435.481 315.16C434.437 315.16 433.849 314.584 433.849 313.852C433.849 313.108 434.449 312.52 435.481 312.52C436.513 312.52 437.113 313.108 437.113 313.852C437.113 314.584 436.525 315.16 435.481 315.16ZM435.481 316.18C437.269 316.18 438.301 315.196 438.301 313.948C438.301 313 437.653 312.292 436.825 312.028C437.545 311.764 438.097 311.044 438.097 310.204C438.097 308.932 436.969 308.044 435.481 308.044C433.993 308.044 432.865 308.932 432.865 310.204C432.865 311.068 433.429 311.764 434.137 312.028C433.309 312.304 432.661 313 432.661 313.948C432.661 315.196 433.693 316.18 435.481 316.18Z" fill="#7C8A95"/>
<path d="M148.14 316V308.224H147.108C146.928 309.064 146.184 309.664 145.104 309.688V310.516H146.988V316H148.14ZM151.257 312.112C151.257 310.924 151.473 310.084 151.941 309.592C152.241 309.28 152.625 309.088 153.177 309.088C153.729 309.088 154.113 309.28 154.413 309.592C154.881 310.084 155.097 310.924 155.097 312.112C155.097 313.3 154.881 314.14 154.413 314.632C154.113 314.944 153.729 315.136 153.177 315.136C152.625 315.136 152.241 314.944 151.941 314.632C151.473 314.14 151.257 313.3 151.257 312.112ZM150.093 312.112C150.093 313.18 150.273 314.164 150.789 314.932C151.293 315.688 152.073 316.18 153.177 316.18C154.281 316.18 155.061 315.688 155.565 314.932C156.081 314.164 156.261 313.18 156.261 312.112C156.261 311.044 156.081 310.06 155.565 309.292C155.061 308.536 154.281 308.044 153.177 308.044C152.073 308.044 151.293 308.536 150.789 309.292C150.273 310.06 150.093 311.044 150.093 312.112ZM161.992 307.492H160.9L156.784 316H157.876L161.992 307.492ZM165.723 316V308.224H164.691C164.511 309.064 163.767 309.664 162.687 309.688V310.516H164.571V316H165.723ZM172.226 307.492H171.134L167.018 316H168.11L172.226 307.492ZM174.078 311.02C174.066 310.9 174.054 310.78 174.054 310.672C174.054 309.784 174.534 309.076 175.554 309.076C176.538 309.076 177.018 309.736 177.018 310.444C177.018 311.044 176.682 311.596 175.95 312.064L174.654 312.904C173.334 313.756 172.83 314.728 172.806 316H178.254V314.908H174.258C174.366 314.428 174.762 314.104 175.206 313.816L176.742 312.832C177.63 312.268 178.206 311.452 178.206 310.432C178.206 309.136 177.246 308.044 175.578 308.044C173.874 308.044 172.89 309.232 172.89 310.564C172.89 310.66 172.89 310.768 172.902 310.876L174.078 311.02ZM180.902 312.112C180.902 310.924 181.118 310.084 181.586 309.592C181.886 309.28 182.27 309.088 182.822 309.088C183.374 309.088 183.758 309.28 184.058 309.592C184.526 310.084 184.742 310.924 184.742 312.112C184.742 313.3 184.526 314.14 184.058 314.632C183.758 314.944 183.374 315.136 182.822 315.136C182.27 315.136 181.886 314.944 181.586 314.632C181.118 314.14 180.902 313.3 180.902 312.112ZM179.738 312.112C179.738 313.18 179.918 314.164 180.434 314.932C180.938 315.688 181.718 316.18 182.822 316.18C183.926 316.18 184.706 315.688 185.21 314.932C185.726 314.164 185.906 313.18 185.906 312.112C185.906 311.044 185.726 310.06 185.21 309.292C184.706 308.536 183.926 308.044 182.822 308.044C181.718 308.044 180.938 308.536 180.434 309.292C179.918 310.06 179.738 311.044 179.738 312.112ZM190.186 316V308.224H189.154C188.974 309.064 188.23 309.664 187.15 309.688V310.516H189.034V316H190.186ZM194.841 311.536C194.013 311.524 193.401 311.02 193.401 310.264C193.401 309.568 193.965 309.016 194.841 309.016C195.717 309.016 196.281 309.568 196.281 310.264C196.281 311.02 195.669 311.524 194.841 311.536ZM194.841 315.16C193.797 315.16 193.209 314.584 193.209 313.852C193.209 313.108 193.809 312.52 194.841 312.52C195.873 312.52 196.473 313.108 196.473 313.852C196.473 314.584 195.885 315.16 194.841 315.16ZM194.841 316.18C196.629 316.18 197.661 315.196 197.661 313.948C197.661 313 197.013 312.292 196.185 312.028C196.905 311.764 197.457 311.044 197.457 310.204C197.457 308.932 196.329 308.044 194.841 308.044C193.353 308.044 192.225 308.932 192.225 310.204C192.225 311.068 192.789 311.764 193.497 312.028C192.669 312.304 192.021 313 192.021 313.948C192.021 315.196 193.053 316.18 194.841 316.18Z" fill="#7C8A95"/>
<rect x="0.5" y="92.5" width="1064" height="259" stroke="#DCDFF2"/>
<line x1="90" y1="280.5" x2="986" y2="280.5" stroke="#DCDFF2"/>
<line x1="90" y1="244.5" x2="986" y2="244.5" stroke="#DCDFF2"/>
<line x1="90" y1="208.5" x2="986" y2="208.5" stroke="#DCDFF2"/>
<line x1="90" y1="172.5" x2="986" y2="172.5" stroke="#DCDFF2"/>
<line x1="90" y1="135.5" x2="986" y2="135.5" stroke="#DCDFF2"/>
<path d="M897 207L656 267L413.5 249.5L171.5 221.5" stroke="#D17C2E" stroke-width="3"/>
<path d="M895.5 273.5L653 146L411.5 194.5L169.5 267" stroke="#478BB4" stroke-width="3"/>
</svg>
