<svg width="1062" height="352" viewBox="0 0 1062 352" fill="none" xmlns="http://www.w3.org/2000/svg">
<path d="M23.504 16.424C23.312 15.5 22.544 14.312 20.624 14.312C19.052 14.312 17.816 15.512 17.816 16.844C17.816 18.116 18.68 18.908 19.892 19.172L21.104 19.436C21.956 19.616 22.376 20.144 22.376 20.756C22.376 21.5 21.8 22.112 20.624 22.112C19.34 22.112 18.668 21.236 18.584 20.288L17.456 20.648C17.612 21.86 18.584 23.18 20.636 23.18C22.448 23.18 23.576 21.98 23.576 20.66C23.576 19.472 22.784 18.584 21.368 18.272L20.096 17.996C19.376 17.84 19.004 17.372 19.004 16.76C19.004 15.968 19.688 15.344 20.648 15.344C21.836 15.344 22.352 16.184 22.448 16.796L23.504 16.424ZM26.226 25.28V22.22C26.538 22.736 27.21 23.156 28.098 23.156C29.79 23.156 30.786 21.824 30.786 20.108C30.786 18.428 29.862 17.096 28.134 17.096C27.198 17.096 26.514 17.552 26.202 18.128V17.228H25.11V25.28H26.226ZM29.634 20.108C29.634 21.296 28.974 22.148 27.93 22.148C26.898 22.148 26.214 21.296 26.214 20.108C26.214 18.956 26.898 18.092 27.93 18.092C28.986 18.092 29.634 18.956 29.634 20.108ZM33.3553 19.52C33.4033 18.776 33.9793 18.044 34.9273 18.044C35.9473 18.044 36.4873 18.692 36.5113 19.52H33.3553ZM36.6793 21.02C36.4633 21.668 35.9953 22.184 35.0593 22.184C34.0873 22.184 33.3433 21.464 33.3193 20.432H37.6633C37.6753 20.36 37.6873 20.216 37.6873 20.072C37.6873 18.272 36.6913 17.048 34.9153 17.048C33.4633 17.048 32.1553 18.284 32.1553 20.096C32.1553 22.052 33.5113 23.18 35.0593 23.18C36.4033 23.18 37.3273 22.376 37.6513 21.356L36.6793 21.02ZM40.6552 19.664C40.6552 18.788 41.1112 18.08 41.9992 18.08C43.0072 18.08 43.3432 18.728 43.3432 19.532V23H44.4712V19.34C44.4712 18.056 43.7872 17.06 42.4072 17.06C41.7352 17.06 41.0512 17.336 40.6312 18.056V17.228H39.5272V23H40.6552V19.664ZM47.3375 20.096C47.3375 18.908 48.0095 18.068 49.0415 18.068C50.0735 18.068 50.6975 18.884 50.6975 20.072C50.6975 21.26 50.0615 22.16 49.0295 22.16C47.9495 22.16 47.3375 21.284 47.3375 20.096ZM50.7095 22.22C50.7095 22.568 50.7455 22.868 50.7695 23H51.8615C51.8495 22.904 51.8015 22.484 51.8015 21.932V14.312H50.6855V18.044C50.4935 17.576 49.9415 17.072 48.9215 17.072C47.2895 17.072 46.1855 18.464 46.1855 20.096C46.1855 21.812 47.2295 23.156 48.9215 23.156C49.8215 23.156 50.4335 22.676 50.7095 22.124V22.22Z" fill="#38454F"/>
<path d="M120.82 44.82V43.91H115.1V44.82H117.47V51H118.45V44.82H120.82ZM122.514 47.45C122.514 45.6 123.754 44.66 125.074 44.66C126.394 44.66 127.634 45.6 127.634 47.45C127.634 49.3 126.394 50.25 125.074 50.25C123.754 50.25 122.514 49.3 122.514 47.45ZM121.514 47.45C121.514 49.82 123.294 51.15 125.074 51.15C126.854 51.15 128.634 49.82 128.634 47.45C128.634 45.08 126.854 43.76 125.074 43.76C123.294 43.76 121.514 45.08 121.514 47.45ZM135.048 44.82V43.91H129.328V44.82H131.698V51H132.678V44.82H135.048ZM140.701 51H141.761L138.941 43.91H137.811L134.991 51H136.041L136.791 49.02H139.931L140.701 51ZM138.351 44.93L139.581 48.11H137.141L138.351 44.93ZM147.494 51V50.08H144.144V43.91H143.164V51H147.494Z" fill="#7C8A95"/>
<rect x="0.5" y="0.5" width="192" height="73" stroke="#DCDFF2"/>
<path d="M21.76 52.872V51.144C23.68 50.84 24.736 49.48 24.736 48.008C24.736 46.568 23.824 45.368 21.808 44.92L20.352 44.584C19.6 44.424 19.248 44.008 19.248 43.512C19.248 42.856 19.808 42.264 20.832 42.264C22.144 42.264 22.56 43.192 22.656 43.752L24.624 43.192C24.4 42.12 23.6 40.84 21.76 40.504V38.744H20.128V40.456C18.416 40.728 17.104 41.976 17.104 43.672C17.104 45.208 18.176 46.296 19.904 46.68L21.376 47C22.176 47.176 22.576 47.592 22.576 48.136C22.576 48.84 21.968 49.336 20.928 49.336C19.456 49.336 18.784 48.408 18.688 47.4L16.704 47.88C16.848 49.24 17.904 50.856 20.128 51.16V52.872H21.76ZM28.6992 44.632C28.6512 44.456 28.6192 44.248 28.6192 44.056C28.6192 43.08 29.1632 42.328 30.2673 42.328C31.3073 42.328 31.8352 43 31.8352 43.752C31.8352 44.472 31.4832 45.016 30.6033 45.544L28.8912 46.568C27.0352 47.688 26.4592 49.176 26.4432 51H34.1233V49.096H29.1472C29.3072 48.696 29.6432 48.408 30.0432 48.152L32.0433 46.936C33.3232 46.152 34.0592 45.064 34.0592 43.72C34.0592 41.912 32.6353 40.376 30.3152 40.376C27.8992 40.376 26.5232 42.024 26.5232 43.848C26.5232 44.104 26.5712 44.424 26.6032 44.568L28.6992 44.632ZM35.8667 50.664C36.4107 51 37.3867 51.24 38.2667 51.24C41.8187 51.24 43.6908 49.032 43.6908 45.288C43.6908 41.976 41.8027 40.376 39.5467 40.376C37.2427 40.376 35.5627 41.896 35.5627 44.024C35.5627 46.168 37.2107 47.512 39.1467 47.512C40.2347 47.512 41.1147 47.048 41.5467 46.392C41.4027 48.296 40.1387 49.336 38.2507 49.336C37.5307 49.336 36.7787 49.096 36.4107 48.888L35.8667 50.664ZM41.2587 43.96C41.2587 44.984 40.4427 45.672 39.4667 45.672C38.4907 45.672 37.6907 45 37.6907 43.96C37.6907 42.936 38.5067 42.248 39.4667 42.248C40.4427 42.248 41.2587 42.936 41.2587 43.96ZM45.0823 49.72C45.0823 50.488 45.6263 51.048 46.4103 51.048C46.5863 51.048 46.7623 51 46.8263 50.952C46.7943 51.832 46.0263 52.52 45.3063 52.68V53.704C46.4903 53.56 48.1223 52.568 48.1223 50.216C48.1223 49.176 47.5303 48.376 46.5383 48.376C45.7063 48.376 45.0823 48.952 45.0823 49.72ZM50.1511 50.664C50.6951 51 51.6711 51.24 52.5511 51.24C56.1031 51.24 57.9751 49.032 57.9751 45.288C57.9751 41.976 56.0871 40.376 53.8311 40.376C51.5271 40.376 49.8471 41.896 49.8471 44.024C49.8471 46.168 51.4951 47.512 53.4311 47.512C54.5191 47.512 55.3991 47.048 55.8311 46.392C55.6871 48.296 54.4231 49.336 52.5351 49.336C51.8151 49.336 51.0631 49.096 50.6951 48.888L50.1511 50.664ZM55.5431 43.96C55.5431 44.984 54.7271 45.672 53.7511 45.672C52.7751 45.672 51.9751 45 51.9751 43.96C51.9751 42.936 52.7911 42.248 53.7511 42.248C54.7271 42.248 55.5431 42.936 55.5431 43.96ZM59.8793 50.664C60.4233 51 61.3993 51.24 62.2793 51.24C65.8313 51.24 67.7033 49.032 67.7033 45.288C67.7033 41.976 65.8153 40.376 63.5593 40.376C61.2553 40.376 59.5753 41.896 59.5753 44.024C59.5753 46.168 61.2233 47.512 63.1593 47.512C64.2473 47.512 65.1273 47.048 65.5593 46.392C65.4153 48.296 64.1513 49.336 62.2633 49.336C61.5433 49.336 60.7913 49.096 60.4233 48.888L59.8793 50.664ZM65.2713 43.96C65.2713 44.984 64.4553 45.672 63.4793 45.672C62.5033 45.672 61.7033 45 61.7033 43.96C61.7033 42.936 62.5193 42.248 63.4793 42.248C64.4553 42.248 65.2713 42.936 65.2713 43.96ZM72.1521 46.392C72.3761 46.312 72.6481 46.232 73.0961 46.232C74.0881 46.232 74.7921 46.792 74.7921 47.768C74.7921 48.632 74.1361 49.336 73.0321 49.336C71.9441 49.336 71.1921 48.568 71.1441 47.512L69.0161 47.928C69.1441 49.672 70.6161 51.24 73.0321 51.24C75.5441 51.24 77.0161 49.592 77.0161 47.8C77.0161 45.896 75.5761 44.696 74.0081 44.632L76.6961 42.392V40.616H69.3521V42.52H73.8961L71.1761 44.856L72.1521 46.392ZM78.7771 49.656C78.7771 50.456 79.4331 51.112 80.2331 51.112C81.0491 51.112 81.7051 50.456 81.7051 49.656C81.7051 48.856 81.0491 48.2 80.2331 48.2C79.4331 48.2 78.7771 48.856 78.7771 49.656ZM87.6034 44.872C86.6434 44.856 86.0834 44.248 86.0834 43.512C86.0834 42.824 86.6434 42.2 87.6034 42.2C88.5794 42.2 89.1394 42.824 89.1394 43.512C89.1394 44.248 88.5794 44.856 87.6034 44.872ZM87.6034 49.416C86.4674 49.416 85.8594 48.712 85.8594 47.976C85.8594 47.224 86.4354 46.504 87.6034 46.504C88.7714 46.504 89.3634 47.224 89.3634 47.976C89.3634 48.712 88.7554 49.416 87.6034 49.416ZM87.6034 51.24C89.9714 51.24 91.5234 49.992 91.5234 48.2C91.5234 47.08 90.7874 46.072 89.6994 45.672C90.7394 45.288 91.3154 44.264 91.3154 43.352C91.3154 41.608 89.7634 40.376 87.6034 40.376C85.4434 40.376 83.8914 41.608 83.8914 43.352C83.8914 44.28 84.4834 45.288 85.5234 45.672C84.4194 46.088 83.6834 47.08 83.6834 48.2C83.6834 49.992 85.2354 51.24 87.6034 51.24ZM95.339 45.816C95.339 44.728 95.499 43.8 95.899 43.176C96.219 42.664 96.715 42.328 97.467 42.328C98.235 42.328 98.699 42.664 99.019 43.176C99.435 43.8 99.595 44.728 99.595 45.816C99.595 46.904 99.435 47.832 99.019 48.456C98.699 48.968 98.235 49.304 97.467 49.304C96.715 49.304 96.219 48.968 95.899 48.456C95.499 47.832 95.339 46.904 95.339 45.816ZM93.131 45.816C93.131 47.144 93.339 48.44 94.043 49.512C94.731 50.536 95.851 51.256 97.467 51.256C99.083 51.256 100.203 50.536 100.875 49.512C101.579 48.44 101.803 47.144 101.803 45.816C101.803 44.488 101.579 43.192 100.875 42.12C100.203 41.096 99.083 40.376 97.467 40.376C95.851 40.376 94.731 41.096 94.043 42.12C93.339 43.192 93.131 44.488 93.131 45.816Z" fill="#38454F"/>
<path d="M240.504 16.424C240.312 15.5 239.544 14.312 237.624 14.312C236.052 14.312 234.816 15.512 234.816 16.844C234.816 18.116 235.68 18.908 236.892 19.172L238.104 19.436C238.956 19.616 239.376 20.144 239.376 20.756C239.376 21.5 238.8 22.112 237.624 22.112C236.34 22.112 235.668 21.236 235.584 20.288L234.456 20.648C234.612 21.86 235.584 23.18 237.636 23.18C239.448 23.18 240.576 21.98 240.576 20.66C240.576 19.472 239.784 18.584 238.368 18.272L237.096 17.996C236.376 17.84 236.004 17.372 236.004 16.76C236.004 15.968 236.688 15.344 237.648 15.344C238.836 15.344 239.352 16.184 239.448 16.796L240.504 16.424ZM242.055 21.452C242.055 22.364 242.811 23.18 243.987 23.18C245.019 23.18 245.595 22.628 245.847 22.22C245.847 22.64 245.883 22.856 245.907 23H247.011C246.987 22.856 246.939 22.556 246.939 22.052V19.16C246.939 18.032 246.267 17.048 244.539 17.048C243.291 17.048 242.295 17.816 242.175 18.92L243.255 19.172C243.327 18.5 243.771 18.008 244.563 18.008C245.439 18.008 245.811 18.476 245.811 19.04C245.811 19.244 245.715 19.424 245.367 19.472L243.807 19.7C242.811 19.844 242.055 20.42 242.055 21.452ZM244.143 22.232C243.567 22.232 243.207 21.824 243.207 21.392C243.207 20.876 243.567 20.6 244.047 20.528L245.811 20.264V20.528C245.811 21.788 245.067 22.232 244.143 22.232ZM250.224 23V14.312H249.096V23H250.224ZM253.275 19.52C253.323 18.776 253.899 18.044 254.847 18.044C255.867 18.044 256.407 18.692 256.431 19.52H253.275ZM256.599 21.02C256.383 21.668 255.915 22.184 254.979 22.184C254.007 22.184 253.263 21.464 253.239 20.432H257.583C257.595 20.36 257.607 20.216 257.607 20.072C257.607 18.272 256.611 17.048 254.835 17.048C253.383 17.048 252.075 18.284 252.075 20.096C252.075 22.052 253.431 23.18 254.979 23.18C256.323 23.18 257.247 22.376 257.571 21.356L256.599 21.02ZM258.907 21.5C259.003 22.16 259.675 23.18 261.259 23.18C262.687 23.18 263.371 22.208 263.371 21.392C263.371 20.54 262.819 19.904 261.775 19.676L260.839 19.472C260.395 19.376 260.179 19.124 260.179 18.776C260.179 18.38 260.563 18.008 261.139 18.008C262.051 18.008 262.291 18.668 262.339 18.968L263.335 18.596C263.215 18.08 262.723 17.048 261.139 17.048C260.011 17.048 259.087 17.888 259.087 18.872C259.087 19.688 259.627 20.3 260.527 20.492L261.511 20.708C261.991 20.816 262.255 21.092 262.255 21.452C262.255 21.86 261.907 22.22 261.271 22.22C260.455 22.22 259.999 21.74 259.927 21.14L258.907 21.5Z" fill="#478BB4"/>
<rect x="217.5" y="0.5" width="192" height="73" stroke="#DCDFF2"/>
<rect x="217" width="193" height="4" fill="#478BB4"/>
<path d="M336.82 44.82V43.91H331.1V44.82H333.47V51H334.45V44.82H336.82ZM338.514 47.45C338.514 45.6 339.754 44.66 341.074 44.66C342.394 44.66 343.634 45.6 343.634 47.45C343.634 49.3 342.394 50.25 341.074 50.25C339.754 50.25 338.514 49.3 338.514 47.45ZM337.514 47.45C337.514 49.82 339.294 51.15 341.074 51.15C342.854 51.15 344.634 49.82 344.634 47.45C344.634 45.08 342.854 43.76 341.074 43.76C339.294 43.76 337.514 45.08 337.514 47.45ZM351.048 44.82V43.91H345.328V44.82H347.698V51H348.678V44.82H351.048ZM356.701 51H357.761L354.941 43.91H353.811L350.991 51H352.041L352.791 49.02H355.931L356.701 51ZM354.351 44.93L355.581 48.11H353.141L354.351 44.93ZM363.494 51V50.08H360.144V43.91H359.164V51H363.494Z" fill="#7C8A95"/>
<path d="M238.76 52.872V51.144C240.68 50.84 241.736 49.48 241.736 48.008C241.736 46.568 240.824 45.368 238.808 44.92L237.352 44.584C236.6 44.424 236.248 44.008 236.248 43.512C236.248 42.856 236.808 42.264 237.832 42.264C239.144 42.264 239.56 43.192 239.656 43.752L241.624 43.192C241.4 42.12 240.6 40.84 238.76 40.504V38.744H237.128V40.456C235.416 40.728 234.104 41.976 234.104 43.672C234.104 45.208 235.176 46.296 236.904 46.68L238.376 47C239.176 47.176 239.576 47.592 239.576 48.136C239.576 48.84 238.968 49.336 237.928 49.336C236.456 49.336 235.784 48.408 235.688 47.4L233.704 47.88C233.848 49.24 234.904 50.856 237.128 51.16V52.872H238.76ZM243.333 48.088C243.461 49.72 245.029 51.256 247.285 51.256C249.781 51.256 251.269 49.576 251.269 47.64C251.269 45.416 249.797 44.168 247.717 44.168C247.029 44.168 246.293 44.392 245.845 44.808L246.357 42.52H250.709V40.616H244.853L243.621 45.944C243.845 46.008 245.429 46.552 245.637 46.632C245.973 46.248 246.533 45.928 247.237 45.928C248.197 45.928 249.077 46.488 249.077 47.672C249.077 48.712 248.277 49.368 247.285 49.368C246.181 49.368 245.445 48.584 245.397 47.624L243.333 48.088ZM255.552 46.392C255.776 46.312 256.048 46.232 256.496 46.232C257.488 46.232 258.192 46.792 258.192 47.768C258.192 48.632 257.536 49.336 256.432 49.336C255.344 49.336 254.592 48.568 254.544 47.512L252.416 47.928C252.544 49.672 254.016 51.24 256.432 51.24C258.944 51.24 260.416 49.592 260.416 47.8C260.416 45.896 258.976 44.696 257.408 44.632L260.096 42.392V40.616H252.752V42.52H257.296L254.576 44.856L255.552 46.392ZM262.129 49.72C262.129 50.488 262.673 51.048 263.457 51.048C263.633 51.048 263.809 51 263.873 50.952C263.841 51.832 263.073 52.52 262.353 52.68V53.704C263.537 53.56 265.169 52.568 265.169 50.216C265.169 49.176 264.577 48.376 263.585 48.376C262.753 48.376 262.129 48.952 262.129 49.72ZM269.305 44.632C269.257 44.456 269.225 44.248 269.225 44.056C269.225 43.08 269.769 42.328 270.873 42.328C271.913 42.328 272.441 43 272.441 43.752C272.441 44.472 272.089 45.016 271.209 45.544L269.497 46.568C267.641 47.688 267.065 49.176 267.049 51H274.729V49.096H269.753C269.913 48.696 270.249 48.408 270.649 48.152L272.649 46.936C273.929 46.152 274.665 45.064 274.665 43.72C274.665 41.912 273.241 40.376 270.921 40.376C268.505 40.376 267.129 42.024 267.129 43.848C267.129 44.104 267.177 44.424 267.209 44.568L269.305 44.632ZM278.393 44.632C278.345 44.456 278.313 44.248 278.313 44.056C278.313 43.08 278.857 42.328 279.961 42.328C281.001 42.328 281.529 43 281.529 43.752C281.529 44.472 281.177 45.016 280.297 45.544L278.585 46.568C276.729 47.688 276.153 49.176 276.137 51H283.817V49.096H278.841C279.001 48.696 279.337 48.408 279.737 48.152L281.737 46.936C283.017 46.152 283.753 45.064 283.753 43.72C283.753 41.912 282.329 40.376 280.009 40.376C277.593 40.376 276.217 42.024 276.217 43.848C276.217 44.104 276.265 44.424 276.297 44.568L278.393 44.632ZM289.257 44.872C288.297 44.856 287.737 44.248 287.737 43.512C287.737 42.824 288.297 42.2 289.257 42.2C290.233 42.2 290.793 42.824 290.793 43.512C290.793 44.248 290.233 44.856 289.257 44.872ZM289.257 49.416C288.121 49.416 287.513 48.712 287.513 47.976C287.513 47.224 288.089 46.504 289.257 46.504C290.425 46.504 291.017 47.224 291.017 47.976C291.017 48.712 290.409 49.416 289.257 49.416ZM289.257 51.24C291.625 51.24 293.177 49.992 293.177 48.2C293.177 47.08 292.441 46.072 291.353 45.672C292.393 45.288 292.969 44.264 292.969 43.352C292.969 41.608 291.417 40.376 289.257 40.376C287.097 40.376 285.545 41.608 285.545 43.352C285.545 44.28 286.137 45.288 287.177 45.672C286.073 46.088 285.337 47.08 285.337 48.2C285.337 49.992 286.889 51.24 289.257 51.24ZM295.168 49.656C295.168 50.456 295.824 51.112 296.624 51.112C297.44 51.112 298.096 50.456 298.096 49.656C298.096 48.856 297.44 48.2 296.624 48.2C295.824 48.2 295.168 48.856 295.168 49.656ZM303.384 51V40.616H301.48C301.272 41.704 300.216 42.552 298.696 42.568V44.056H301.192V51H303.384ZM308.508 46.392C308.732 46.312 309.004 46.232 309.452 46.232C310.444 46.232 311.148 46.792 311.148 47.768C311.148 48.632 310.492 49.336 309.388 49.336C308.3 49.336 307.548 48.568 307.5 47.512L305.372 47.928C305.5 49.672 306.972 51.24 309.388 51.24C311.9 51.24 313.372 49.592 313.372 47.8C313.372 45.896 311.932 44.696 310.364 44.632L313.052 42.392V40.616H305.708V42.52H310.252L307.532 44.856L308.508 46.392Z" fill="#38454F"/>
<rect x="434.5" y="0.5" width="193" height="73" stroke="#DCDFF2"/>
<path d="M451.74 18.74C451.74 16.52 453.228 15.392 454.812 15.392C456.396 15.392 457.884 16.52 457.884 18.74C457.884 20.96 456.396 22.1 454.812 22.1C453.228 22.1 451.74 20.96 451.74 18.74ZM450.54 18.74C450.54 21.584 452.676 23.18 454.812 23.18C456.948 23.18 459.084 21.584 459.084 18.74C459.084 15.896 456.948 14.312 454.812 14.312C452.676 14.312 450.54 15.896 450.54 18.74ZM464.185 17.168C464.125 17.156 463.969 17.132 463.813 17.132C463.225 17.132 462.505 17.348 462.085 18.236V17.228H460.981V23H462.109V20.108C462.109 18.836 462.745 18.332 463.693 18.332C463.849 18.332 464.017 18.344 464.185 18.368V17.168ZM466.401 20.096C466.401 18.908 467.073 18.068 468.105 18.068C469.137 18.068 469.761 18.884 469.761 20.072C469.761 21.26 469.125 22.16 468.093 22.16C467.013 22.16 466.401 21.284 466.401 20.096ZM469.773 22.22C469.773 22.568 469.809 22.868 469.833 23H470.925C470.913 22.904 470.865 22.484 470.865 21.932V14.312H469.749V18.044C469.557 17.576 469.005 17.072 467.985 17.072C466.353 17.072 465.249 18.464 465.249 20.096C465.249 21.812 466.293 23.156 467.985 23.156C468.885 23.156 469.497 22.676 469.773 22.124V22.22ZM473.915 19.52C473.963 18.776 474.539 18.044 475.487 18.044C476.507 18.044 477.047 18.692 477.071 19.52H473.915ZM477.239 21.02C477.023 21.668 476.555 22.184 475.619 22.184C474.647 22.184 473.903 21.464 473.879 20.432H478.223C478.235 20.36 478.247 20.216 478.247 20.072C478.247 18.272 477.251 17.048 475.475 17.048C474.023 17.048 472.715 18.284 472.715 20.096C472.715 22.052 474.071 23.18 475.619 23.18C476.963 23.18 477.887 22.376 478.211 21.356L477.239 21.02ZM483.291 17.168C483.231 17.156 483.075 17.132 482.919 17.132C482.331 17.132 481.611 17.348 481.191 18.236V17.228H480.087V23H481.215V20.108C481.215 18.836 481.851 18.332 482.799 18.332C482.955 18.332 483.123 18.344 483.291 18.368V17.168ZM484.354 21.5C484.45 22.16 485.122 23.18 486.706 23.18C488.134 23.18 488.818 22.208 488.818 21.392C488.818 20.54 488.266 19.904 487.222 19.676L486.286 19.472C485.842 19.376 485.626 19.124 485.626 18.776C485.626 18.38 486.01 18.008 486.586 18.008C487.498 18.008 487.738 18.668 487.786 18.968L488.782 18.596C488.662 18.08 488.17 17.048 486.586 17.048C485.458 17.048 484.534 17.888 484.534 18.872C484.534 19.688 485.074 20.3 485.974 20.492L486.958 20.708C487.438 20.816 487.702 21.092 487.702 21.452C487.702 21.86 487.354 22.22 486.718 22.22C485.902 22.22 485.446 21.74 485.374 21.14L484.354 21.5Z" fill="#38454F"/>
<path d="M508.82 44.82V43.91H503.1V44.82H505.47V51H506.45V44.82H508.82ZM510.514 47.45C510.514 45.6 511.754 44.66 513.074 44.66C514.394 44.66 515.634 45.6 515.634 47.45C515.634 49.3 514.394 50.25 513.074 50.25C511.754 50.25 510.514 49.3 510.514 47.45ZM509.514 47.45C509.514 49.82 511.294 51.15 513.074 51.15C514.854 51.15 516.634 49.82 516.634 47.45C516.634 45.08 514.854 43.76 513.074 43.76C511.294 43.76 509.514 45.08 509.514 47.45ZM523.048 44.82V43.91H517.328V44.82H519.698V51H520.678V44.82H523.048ZM528.701 51H529.761L526.941 43.91H525.811L522.991 51H524.041L524.791 49.02H527.931L528.701 51ZM526.351 44.93L527.581 48.11H525.141L526.351 44.93ZM535.494 51V50.08H532.144V43.91H531.164V51H535.494Z" fill="#7C8A95"/>
<path d="M452.768 44.632C452.72 44.456 452.688 44.248 452.688 44.056C452.688 43.08 453.232 42.328 454.336 42.328C455.376 42.328 455.904 43 455.904 43.752C455.904 44.472 455.552 45.016 454.672 45.544L452.96 46.568C451.104 47.688 450.528 49.176 450.512 51H458.192V49.096H453.216C453.376 48.696 453.712 48.408 454.112 48.152L456.112 46.936C457.392 46.152 458.128 45.064 458.128 43.72C458.128 41.912 456.704 40.376 454.384 40.376C451.968 40.376 450.592 42.024 450.592 43.848C450.592 44.104 450.64 44.424 450.672 44.568L452.768 44.632ZM460.063 49.72C460.063 50.488 460.607 51.048 461.391 51.048C461.567 51.048 461.743 51 461.807 50.952C461.775 51.832 461.007 52.52 460.287 52.68V53.704C461.471 53.56 463.103 52.568 463.103 50.216C463.103 49.176 462.511 48.376 461.519 48.376C460.687 48.376 460.063 48.952 460.063 49.72ZM471.831 40.616H463.943V42.52H469.287C469.287 42.52 465.815 45.416 465.383 51H467.671C468.135 45.768 471.047 43.128 471.831 42.456V40.616ZM480.762 40.616H472.874V42.52H478.218C478.218 42.52 474.746 45.416 474.314 51H476.602C477.066 45.768 479.978 43.128 480.762 42.456V40.616ZM486.503 51V40.616H484.599C484.391 41.704 483.335 42.552 481.815 42.568V44.056H484.311V51H486.503Z" fill="#38454F"/>
<rect x="652.5" y="0.5" width="192" height="73" stroke="#DCDFF2"/>
<path d="M672.764 23.18C674.72 23.18 676.064 22.04 676.52 20.444L675.476 20.06C675.128 21.224 674.216 22.1 672.764 22.1C671.216 22.1 669.74 20.96 669.74 18.74C669.74 16.52 671.216 15.392 672.764 15.392C674.156 15.392 675.092 16.112 675.416 17.396L676.508 17.012C676.076 15.368 674.708 14.312 672.764 14.312C670.652 14.312 668.54 15.896 668.54 18.74C668.54 21.584 670.568 23.18 672.764 23.18ZM679.371 23V14.312H678.243V23H679.371ZM682.806 23V17.228H681.69V23H682.806ZM681.438 15.044C681.438 15.488 681.798 15.848 682.242 15.848C682.698 15.848 683.058 15.488 683.058 15.044C683.058 14.588 682.698 14.228 682.242 14.228C681.798 14.228 681.438 14.588 681.438 15.044ZM687.549 18.092C688.533 18.092 688.953 18.752 689.097 19.316L690.117 18.884C689.877 18.008 689.085 17.048 687.549 17.048C685.905 17.048 684.645 18.308 684.645 20.108C684.645 21.86 685.881 23.18 687.561 23.18C689.061 23.18 689.889 22.208 690.165 21.38L689.169 20.948C689.037 21.404 688.641 22.136 687.561 22.136C686.625 22.136 685.797 21.428 685.797 20.108C685.797 18.764 686.637 18.092 687.549 18.092ZM697.06 17.228H695.5L693.004 19.784V14.312H691.888V23H693.004V21.26L693.808 20.456L695.692 23H697.108L694.6 19.664L697.06 17.228ZM698.053 21.5C698.149 22.16 698.821 23.18 700.405 23.18C701.833 23.18 702.517 22.208 702.517 21.392C702.517 20.54 701.965 19.904 700.921 19.676L699.985 19.472C699.541 19.376 699.325 19.124 699.325 18.776C699.325 18.38 699.709 18.008 700.285 18.008C701.197 18.008 701.437 18.668 701.485 18.968L702.481 18.596C702.361 18.08 701.869 17.048 700.285 17.048C699.157 17.048 698.233 17.888 698.233 18.872C698.233 19.688 698.773 20.3 699.673 20.492L700.657 20.708C701.137 20.816 701.401 21.092 701.401 21.452C701.401 21.86 701.053 22.22 700.417 22.22C699.601 22.22 699.145 21.74 699.073 21.14L698.053 21.5Z" fill="#38454F"/>
<path d="M670.768 44.632C670.72 44.456 670.688 44.248 670.688 44.056C670.688 43.08 671.232 42.328 672.336 42.328C673.376 42.328 673.904 43 673.904 43.752C673.904 44.472 673.552 45.016 672.672 45.544L670.96 46.568C669.104 47.688 668.528 49.176 668.512 51H676.192V49.096H671.216C671.376 48.696 671.712 48.408 672.112 48.152L674.112 46.936C675.392 46.152 676.128 45.064 676.128 43.72C676.128 41.912 674.704 40.376 672.384 40.376C669.968 40.376 668.592 42.024 668.592 43.848C668.592 44.104 668.64 44.424 668.672 44.568L670.768 44.632ZM682.287 51V40.616H680.383C680.175 41.704 679.119 42.552 677.599 42.568V44.056H680.095V51H682.287ZM684.714 49.72C684.714 50.488 685.258 51.048 686.042 51.048C686.218 51.048 686.394 51 686.458 50.952C686.426 51.832 685.658 52.52 684.938 52.68V53.704C686.122 53.56 687.754 52.568 687.754 50.216C687.754 49.176 687.162 48.376 686.17 48.376C685.338 48.376 684.714 48.952 684.714 49.72ZM689.118 48.776H694.03V51H696.206V48.776H697.918V46.888H696.206V40.616H693.486L689.118 46.472V48.776ZM694.03 46.888H691.07L694.03 42.92V46.888ZM703.097 44.872C702.137 44.856 701.577 44.248 701.577 43.512C701.577 42.824 702.137 42.2 703.097 42.2C704.073 42.2 704.633 42.824 704.633 43.512C704.633 44.248 704.073 44.856 703.097 44.872ZM703.097 49.416C701.961 49.416 701.353 48.712 701.353 47.976C701.353 47.224 701.929 46.504 703.097 46.504C704.265 46.504 704.857 47.224 704.857 47.976C704.857 48.712 704.249 49.416 703.097 49.416ZM703.097 51.24C705.465 51.24 707.017 49.992 707.017 48.2C707.017 47.08 706.281 46.072 705.193 45.672C706.233 45.288 706.809 44.264 706.809 43.352C706.809 41.608 705.257 40.376 703.097 40.376C700.937 40.376 699.385 41.608 699.385 43.352C699.385 44.28 699.977 45.288 701.017 45.672C699.913 46.088 699.177 47.08 699.177 48.2C699.177 49.992 700.729 51.24 703.097 51.24ZM711.518 46.392C711.742 46.312 712.014 46.232 712.462 46.232C713.454 46.232 714.158 46.792 714.158 47.768C714.158 48.632 713.502 49.336 712.398 49.336C711.31 49.336 710.558 48.568 710.51 47.512L708.382 47.928C708.51 49.672 709.982 51.24 712.398 51.24C714.91 51.24 716.382 49.592 716.382 47.8C716.382 45.896 714.942 44.696 713.374 44.632L716.062 42.392V40.616H708.718V42.52H713.262L710.542 44.856L711.518 46.392Z" fill="#38454F"/>
<path d="M737.82 44.82V43.91H732.1V44.82H734.47V51H735.45V44.82H737.82ZM739.514 47.45C739.514 45.6 740.754 44.66 742.074 44.66C743.394 44.66 744.634 45.6 744.634 47.45C744.634 49.3 743.394 50.25 742.074 50.25C740.754 50.25 739.514 49.3 739.514 47.45ZM738.514 47.45C738.514 49.82 740.294 51.15 742.074 51.15C743.854 51.15 745.634 49.82 745.634 47.45C745.634 45.08 743.854 43.76 742.074 43.76C740.294 43.76 738.514 45.08 738.514 47.45ZM752.048 44.82V43.91H746.328V44.82H748.698V51H749.678V44.82H752.048ZM757.701 51H758.761L755.941 43.91H754.811L751.991 51H753.041L753.791 49.02H756.931L757.701 51ZM755.351 44.93L756.581 48.11H754.141L755.351 44.93ZM764.494 51V50.08H761.144V43.91H760.164V51H764.494Z" fill="#7C8A95"/>
<rect x="870.5" y="0.5" width="191" height="73" stroke="#DCDFF2"/>
<rect x="870" width="192" height="4" fill="#D17C2E"/>
<path d="M891.972 23H893.244L889.86 14.492H888.504L885.12 23H886.38L887.28 20.624H891.048L891.972 23ZM889.152 15.716L890.628 19.532H887.7L889.152 15.716ZM898.226 23.18C900.182 23.18 901.527 22.04 901.983 20.444L900.938 20.06C900.591 21.224 899.678 22.1 898.226 22.1C896.678 22.1 895.202 20.96 895.202 18.74C895.202 16.52 896.678 15.392 898.226 15.392C899.618 15.392 900.554 16.112 900.878 17.396L901.971 17.012C901.539 15.368 900.17 14.312 898.226 14.312C896.114 14.312 894.002 15.896 894.002 18.74C894.002 21.584 896.03 23.18 898.226 23.18ZM904.485 18.74C904.485 16.52 905.973 15.392 907.557 15.392C909.141 15.392 910.629 16.52 910.629 18.74C910.629 20.96 909.141 22.1 907.557 22.1C905.973 22.1 904.485 20.96 904.485 18.74ZM903.285 18.74C903.285 21.584 905.421 23.18 907.557 23.18C909.693 23.18 911.829 21.584 911.829 18.74C911.829 15.896 909.693 14.312 907.557 14.312C905.421 14.312 903.285 15.896 903.285 18.74ZM919.212 16.424C919.02 15.5 918.252 14.312 916.332 14.312C914.76 14.312 913.524 15.512 913.524 16.844C913.524 18.116 914.388 18.908 915.6 19.172L916.812 19.436C917.664 19.616 918.084 20.144 918.084 20.756C918.084 21.5 917.508 22.112 916.332 22.112C915.048 22.112 914.376 21.236 914.292 20.288L913.164 20.648C913.32 21.86 914.292 23.18 916.344 23.18C918.156 23.18 919.284 21.98 919.284 20.66C919.284 19.472 918.492 18.584 917.076 18.272L915.804 17.996C915.084 17.84 914.712 17.372 914.712 16.76C914.712 15.968 915.396 15.344 916.356 15.344C917.544 15.344 918.06 16.184 918.156 16.796L919.212 16.424Z" fill="#D17C2E"/>
<path d="M885.464 48.088C885.592 49.72 887.16 51.256 889.416 51.256C891.912 51.256 893.4 49.576 893.4 47.64C893.4 45.416 891.928 44.168 889.848 44.168C889.16 44.168 888.424 44.392 887.976 44.808L888.488 42.52H892.84V40.616H886.984L885.752 45.944C885.976 46.008 887.56 46.552 887.768 46.632C888.104 46.248 888.664 45.928 889.368 45.928C890.328 45.928 891.208 46.488 891.208 47.672C891.208 48.712 890.408 49.368 889.416 49.368C888.312 49.368 887.576 48.584 887.528 47.624L885.464 48.088ZM894.723 48.088C894.851 49.72 896.419 51.256 898.675 51.256C901.171 51.256 902.659 49.576 902.659 47.64C902.659 45.416 901.187 44.168 899.107 44.168C898.419 44.168 897.683 44.392 897.235 44.808L897.747 42.52H902.099V40.616H896.243L895.011 45.944C895.235 46.008 896.819 46.552 897.027 46.632C897.363 46.248 897.923 45.928 898.627 45.928C899.587 45.928 900.467 46.488 900.467 47.672C900.467 48.712 899.667 49.368 898.675 49.368C897.571 49.368 896.835 48.584 896.787 47.624L894.723 48.088ZM904.386 49.656C904.386 50.456 905.042 51.112 905.842 51.112C906.658 51.112 907.314 50.456 907.314 49.656C907.314 48.856 906.658 48.2 905.842 48.2C905.042 48.2 904.386 48.856 904.386 49.656ZM912.155 46.392C912.379 46.312 912.651 46.232 913.099 46.232C914.091 46.232 914.795 46.792 914.795 47.768C914.795 48.632 914.139 49.336 913.035 49.336C911.947 49.336 911.195 48.568 911.147 47.512L909.019 47.928C909.147 49.672 910.619 51.24 913.035 51.24C915.547 51.24 917.019 49.592 917.019 47.8C917.019 45.896 915.579 44.696 914.011 44.632L916.699 42.392V40.616H909.355V42.52H913.899L911.179 44.856L912.155 46.392ZM922.925 51V40.616H921.021C920.813 41.704 919.757 42.552 918.237 42.568V44.056H920.733V51H922.925ZM926.726 43.064C926.726 42.408 927.19 41.96 927.782 41.96C928.39 41.96 928.838 42.408 928.838 43.064C928.838 43.72 928.39 44.184 927.782 44.184C927.19 44.184 926.726 43.736 926.726 43.064ZM925.126 43.064C925.126 44.52 926.326 45.672 927.782 45.672C929.222 45.672 930.454 44.552 930.454 43.064C930.454 41.592 929.222 40.44 927.782 40.44C926.342 40.44 925.126 41.592 925.126 43.064ZM933.718 48.568C933.718 47.912 934.182 47.464 934.774 47.464C935.382 47.464 935.83 47.912 935.83 48.568C935.83 49.224 935.382 49.688 934.774 49.688C934.182 49.688 933.718 49.24 933.718 48.568ZM932.118 48.568C932.118 50.024 933.318 51.176 934.774 51.176C936.214 51.176 937.446 50.056 937.446 48.568C937.446 47.096 936.214 45.944 934.774 45.944C933.334 45.944 932.118 47.096 932.118 48.568ZM928.55 51L935.878 40.616H934.022L926.694 51H928.55Z" fill="#38454F"/>
<path d="M961.81 51H962.87L960.05 43.91H958.92L956.1 51H957.15L957.9 49.02H961.04L961.81 51ZM959.46 44.93L960.69 48.11H958.25L959.46 44.93ZM966.106 49.74L963.966 43.91H962.926L965.596 51H966.566L969.296 43.91H968.266L966.106 49.74ZM975.008 51V50.09H971.678V47.92H974.698V47H971.678V44.82H975.008V43.91H970.698V51H975.008ZM980.579 51H981.719L980.029 48.03C981.099 47.83 981.749 47.04 981.749 46.02C981.749 44.85 980.919 43.91 979.579 43.91H976.909V51H977.899V48.1H978.959L980.579 51ZM977.899 47.22V44.79H979.399C980.199 44.79 980.739 45.27 980.739 46.02C980.739 46.75 980.199 47.22 979.399 47.22H977.899ZM988.361 51H989.421L986.601 43.91H985.471L982.651 51H983.701L984.451 49.02H987.591L988.361 51ZM986.011 44.93L987.241 48.11H984.801L986.011 44.93ZM996.71 51V47.53H993.32V48.41H995.78C995.74 49.14 995.17 50.26 993.59 50.26C992.32 50.26 991.12 49.33 991.12 47.45C991.12 45.57 992.36 44.66 993.63 44.66C994.73 44.66 995.56 45.26 995.88 46.28L996.77 45.9C996.36 44.62 995.17 43.76 993.63 43.76C991.88 43.76 990.12 45.05 990.12 47.45C990.12 49.85 991.78 51.15 993.56 51.15C994.75 51.15 995.52 50.56 995.83 50L995.92 51H996.71ZM1002.93 51V50.09H999.596V47.92H1002.62V47H999.596V44.82H1002.93V43.91H998.616V51H1002.93Z" fill="#7C8A95"/>
<path d="M57.9813 138V130.224H56.9493C56.7693 131.064 56.0253 131.664 54.9453 131.688V132.516H56.8293V138H57.9813ZM65.6344 130.476C65.2744 130.224 64.6624 130.044 63.9544 130.044C61.6864 130.044 59.9464 131.688 59.9464 134.58C59.9464 137.148 61.4944 138.18 62.9824 138.18C64.5064 138.18 65.8624 137.196 65.8624 135.528C65.8624 133.836 64.7344 132.876 63.1984 132.876C62.1664 132.876 61.4584 133.368 61.1464 133.884C61.2424 132.288 62.2624 131.1 63.8824 131.1C64.4704 131.1 64.9864 131.268 65.2744 131.436L65.6344 130.476ZM61.3144 135.528C61.3144 134.484 62.0944 133.884 62.9944 133.884C63.8944 133.884 64.6744 134.484 64.6744 135.528C64.6744 136.56 63.9064 137.16 62.9944 137.16C62.1424 137.16 61.3144 136.548 61.3144 135.528ZM72.8273 132.228H71.2673L68.7713 134.784V129.312H67.6553V138H68.7713V136.26L69.5753 135.456L71.4593 138H72.8753L70.3673 134.664L72.8273 132.228Z" fill="#478BB4"/>
<path d="M58.5907 175V167.224H57.5587C57.3787 168.064 56.6347 168.664 55.5547 168.688V169.516H57.4387V175H58.5907ZM61.6358 170.02C61.6238 169.9 61.6118 169.78 61.6118 169.672C61.6118 168.784 62.0918 168.076 63.1118 168.076C64.0958 168.076 64.5758 168.736 64.5758 169.444C64.5758 170.044 64.2398 170.596 63.5078 171.064L62.2118 171.904C60.8918 172.756 60.3878 173.728 60.3638 175H65.8118V173.908H61.8158C61.9238 173.428 62.3198 173.104 62.7638 172.816L64.2998 171.832C65.1878 171.268 65.7638 170.452 65.7638 169.432C65.7638 168.136 64.8038 167.044 63.1358 167.044C61.4318 167.044 60.4478 168.232 60.4478 169.564C60.4478 169.66 60.4478 169.768 60.4598 169.876L61.6358 170.02ZM72.8273 169.228H71.2673L68.7713 171.784V166.312H67.6553V175H68.7713V173.26L69.5753 172.456L71.4593 175H72.8753L70.3673 171.664L72.8273 169.228Z" fill="#478BB4"/>
<path d="M62.9405 207.536C62.1125 207.524 61.5005 207.02 61.5005 206.264C61.5005 205.568 62.0645 205.016 62.9405 205.016C63.8165 205.016 64.3805 205.568 64.3805 206.264C64.3805 207.02 63.7685 207.524 62.9405 207.536ZM62.9405 211.16C61.8965 211.16 61.3085 210.584 61.3085 209.852C61.3085 209.108 61.9085 208.52 62.9405 208.52C63.9725 208.52 64.5725 209.108 64.5725 209.852C64.5725 210.584 63.9845 211.16 62.9405 211.16ZM62.9405 212.18C64.7285 212.18 65.7605 211.196 65.7605 209.948C65.7605 209 65.1125 208.292 64.2845 208.028C65.0045 207.764 65.5565 207.044 65.5565 206.204C65.5565 204.932 64.4285 204.044 62.9405 204.044C61.4525 204.044 60.3245 204.932 60.3245 206.204C60.3245 207.068 60.8885 207.764 61.5965 208.028C60.7685 208.304 60.1205 209 60.1205 209.948C60.1205 211.196 61.1525 212.18 62.9405 212.18ZM72.8273 206.228H71.2673L68.7713 208.784V203.312H67.6553V212H68.7713V210.26L69.5753 209.456L71.4593 212H72.8753L70.3673 208.664L72.8273 206.228Z" fill="#478BB4"/>
<path d="M59.8247 247.248H63.6407V249H64.7807V247.248H66.1127V246.156H64.7807V241.224H63.1607L59.8247 245.892V247.248ZM63.6407 246.156H60.9047L63.6407 242.352V246.156ZM72.8273 243.228H71.2673L68.7713 245.784V240.312H67.6553V249H68.7713V247.26L69.5753 246.456L71.4593 249H72.8753L70.3673 245.664L72.8273 243.228Z" fill="#478BB4"/>
<path d="M67.3929 282.112C67.3929 280.924 67.6089 280.084 68.0769 279.592C68.3769 279.28 68.7609 279.088 69.3129 279.088C69.8649 279.088 70.2489 279.28 70.5489 279.592C71.0169 280.084 71.2329 280.924 71.2329 282.112C71.2329 283.3 71.0169 284.14 70.5489 284.632C70.2489 284.944 69.8649 285.136 69.3129 285.136C68.7609 285.136 68.3769 284.944 68.0769 284.632C67.6089 284.14 67.3929 283.3 67.3929 282.112ZM66.2289 282.112C66.2289 283.18 66.4089 284.164 66.9249 284.932C67.4289 285.688 68.2089 286.18 69.3129 286.18C70.4169 286.18 71.1969 285.688 71.7009 284.932C72.2169 284.164 72.3969 283.18 72.3969 282.112C72.3969 281.044 72.2169 280.06 71.7009 279.292C71.1969 278.536 70.4169 278.044 69.3129 278.044C68.2089 278.044 67.4289 278.536 66.9249 279.292C66.4089 280.06 66.2289 281.044 66.2289 282.112Z" fill="#478BB4"/>
<path d="M1004.34 138V130.224H1003.3C1003.12 131.064 1002.38 131.664 1001.3 131.688V132.516H1003.18V138H1004.34ZM1007.38 133.02C1007.37 132.9 1007.36 132.78 1007.36 132.672C1007.36 131.784 1007.84 131.076 1008.86 131.076C1009.84 131.076 1010.32 131.736 1010.32 132.444C1010.32 133.044 1009.99 133.596 1009.25 134.064L1007.96 134.904C1006.64 135.756 1006.13 136.728 1006.11 138H1011.56V136.908H1007.56C1007.67 136.428 1008.07 136.104 1008.51 135.816L1010.05 134.832C1010.93 134.268 1011.51 133.452 1011.51 132.432C1011.51 131.136 1010.55 130.044 1008.88 130.044C1007.18 130.044 1006.19 131.232 1006.19 132.564C1006.19 132.66 1006.19 132.768 1006.21 132.876L1007.38 133.02ZM1012.86 135.888C1012.97 137.112 1014.08 138.192 1015.74 138.192C1017.47 138.192 1018.6 137.004 1018.6 135.54C1018.6 133.932 1017.48 132.96 1015.96 132.96C1015.34 132.96 1014.72 133.152 1014.37 133.536L1014.95 131.304H1018.27V130.224H1014.17L1013.16 134.088C1013.56 134.232 1013.9 134.388 1014.31 134.544C1014.65 134.196 1015.18 133.98 1015.73 133.98C1016.63 133.98 1017.41 134.52 1017.41 135.588C1017.41 136.548 1016.66 137.16 1015.74 137.16C1014.77 137.16 1014.06 136.512 1013.99 135.552L1012.86 135.888ZM1020.95 132.024C1020.95 131.484 1021.36 131.088 1021.88 131.088C1022.41 131.088 1022.8 131.484 1022.8 132.024C1022.8 132.576 1022.41 132.972 1021.88 132.972C1021.36 132.972 1020.95 132.576 1020.95 132.024ZM1019.96 132.024C1019.96 133.092 1020.85 133.92 1021.88 133.92C1022.91 133.92 1023.81 133.092 1023.81 132.024C1023.81 130.968 1022.91 130.14 1021.88 130.14C1020.85 130.14 1019.96 130.968 1019.96 132.024ZM1025.71 136.2C1025.71 135.66 1026.11 135.264 1026.63 135.264C1027.16 135.264 1027.55 135.66 1027.55 136.2C1027.55 136.752 1027.16 137.148 1026.63 137.148C1026.11 137.148 1025.71 136.752 1025.71 136.2ZM1024.71 136.2C1024.71 137.268 1025.6 138.096 1026.63 138.096C1027.66 138.096 1028.56 137.268 1028.56 136.2C1028.56 135.144 1027.66 134.316 1026.63 134.316C1025.6 134.316 1024.71 135.144 1024.71 136.2ZM1022.02 138L1027.59 130.224H1026.51L1020.92 138H1022.02Z" fill="#D17C2E"/>
<path d="M1004.34 175V167.224H1003.3C1003.12 168.064 1002.38 168.664 1001.3 168.688V169.516H1003.18V175H1004.34ZM1007.45 171.112C1007.45 169.924 1007.67 169.084 1008.14 168.592C1008.44 168.28 1008.82 168.088 1009.37 168.088C1009.93 168.088 1010.31 168.28 1010.61 168.592C1011.08 169.084 1011.29 169.924 1011.29 171.112C1011.29 172.3 1011.08 173.14 1010.61 173.632C1010.31 173.944 1009.93 174.136 1009.37 174.136C1008.82 174.136 1008.44 173.944 1008.14 173.632C1007.67 173.14 1007.45 172.3 1007.45 171.112ZM1006.29 171.112C1006.29 172.18 1006.47 173.164 1006.99 173.932C1007.49 174.688 1008.27 175.18 1009.37 175.18C1010.48 175.18 1011.26 174.688 1011.76 173.932C1012.28 173.164 1012.46 172.18 1012.46 171.112C1012.46 170.044 1012.28 169.06 1011.76 168.292C1011.26 167.536 1010.48 167.044 1009.37 167.044C1008.27 167.044 1007.49 167.536 1006.99 168.292C1006.47 169.06 1006.29 170.044 1006.29 171.112ZM1015.17 171.112C1015.17 169.924 1015.38 169.084 1015.85 168.592C1016.15 168.28 1016.53 168.088 1017.09 168.088C1017.64 168.088 1018.02 168.28 1018.32 168.592C1018.79 169.084 1019.01 169.924 1019.01 171.112C1019.01 172.3 1018.79 173.14 1018.32 173.632C1018.02 173.944 1017.64 174.136 1017.09 174.136C1016.53 174.136 1016.15 173.944 1015.85 173.632C1015.38 173.14 1015.17 172.3 1015.17 171.112ZM1014 171.112C1014 172.18 1014.18 173.164 1014.7 173.932C1015.2 174.688 1015.98 175.18 1017.09 175.18C1018.19 175.18 1018.97 174.688 1019.47 173.932C1019.99 173.164 1020.17 172.18 1020.17 171.112C1020.17 170.044 1019.99 169.06 1019.47 168.292C1018.97 167.536 1018.19 167.044 1017.09 167.044C1015.98 167.044 1015.2 167.536 1014.7 168.292C1014.18 169.06 1014 170.044 1014 171.112ZM1022.59 169.024C1022.59 168.484 1023 168.088 1023.52 168.088C1024.05 168.088 1024.44 168.484 1024.44 169.024C1024.44 169.576 1024.05 169.972 1023.52 169.972C1023 169.972 1022.59 169.576 1022.59 169.024ZM1021.6 169.024C1021.6 170.092 1022.49 170.92 1023.52 170.92C1024.55 170.92 1025.45 170.092 1025.45 169.024C1025.45 167.968 1024.55 167.14 1023.52 167.14C1022.49 167.14 1021.6 167.968 1021.6 169.024ZM1027.35 173.2C1027.35 172.66 1027.75 172.264 1028.27 172.264C1028.8 172.264 1029.19 172.66 1029.19 173.2C1029.19 173.752 1028.8 174.148 1028.27 174.148C1027.75 174.148 1027.35 173.752 1027.35 173.2ZM1026.35 173.2C1026.35 174.268 1027.24 175.096 1028.27 175.096C1029.3 175.096 1030.2 174.268 1030.2 173.2C1030.2 172.144 1029.3 171.316 1028.27 171.316C1027.24 171.316 1026.35 172.144 1026.35 173.2ZM1023.66 175L1029.23 167.224H1028.15L1022.56 175H1023.66Z" fill="#D17C2E"/>
<path d="M1006.74 204.224H1001.06V205.304H1005.44C1005.44 205.304 1002.58 207.476 1002.24 212H1003.45C1003.82 207.884 1006.02 205.928 1006.74 205.352V204.224ZM1007.45 209.888C1007.55 211.112 1008.67 212.192 1010.33 212.192C1012.05 212.192 1013.18 211.004 1013.18 209.54C1013.18 207.932 1012.07 206.96 1010.54 206.96C1009.93 206.96 1009.31 207.152 1008.96 207.536L1009.53 205.304H1012.86V204.224H1008.75L1007.75 208.088C1008.14 208.232 1008.49 208.388 1008.9 208.544C1009.23 208.196 1009.76 207.98 1010.31 207.98C1011.21 207.98 1011.99 208.52 1011.99 209.588C1011.99 210.548 1011.25 211.16 1010.33 211.16C1009.35 211.16 1008.65 210.512 1008.57 209.552L1007.45 209.888ZM1015.54 206.024C1015.54 205.484 1015.95 205.088 1016.46 205.088C1016.99 205.088 1017.39 205.484 1017.39 206.024C1017.39 206.576 1016.99 206.972 1016.46 206.972C1015.95 206.972 1015.54 206.576 1015.54 206.024ZM1014.54 206.024C1014.54 207.092 1015.43 207.92 1016.46 207.92C1017.49 207.92 1018.39 207.092 1018.39 206.024C1018.39 204.968 1017.49 204.14 1016.46 204.14C1015.43 204.14 1014.54 204.968 1014.54 206.024ZM1020.29 210.2C1020.29 209.66 1020.7 209.264 1021.21 209.264C1021.74 209.264 1022.14 209.66 1022.14 210.2C1022.14 210.752 1021.74 211.148 1021.21 211.148C1020.7 211.148 1020.29 210.752 1020.29 210.2ZM1019.29 210.2C1019.29 211.268 1020.18 212.096 1021.21 212.096C1022.25 212.096 1023.15 211.268 1023.15 210.2C1023.15 209.144 1022.25 208.316 1021.21 208.316C1020.18 208.316 1019.29 209.144 1019.29 210.2ZM1016.61 212L1022.17 204.224H1021.09L1015.5 212H1016.61Z" fill="#D17C2E"/>
<path d="M1001.42 246.888C1001.53 248.112 1002.64 249.192 1004.3 249.192C1006.03 249.192 1007.16 248.004 1007.16 246.54C1007.16 244.932 1006.04 243.96 1004.52 243.96C1003.9 243.96 1003.28 244.152 1002.93 244.536L1003.51 242.304H1006.83V241.224H1002.73L1001.72 245.088C1002.12 245.232 1002.46 245.388 1002.87 245.544C1003.21 245.196 1003.74 244.98 1004.29 244.98C1005.19 244.98 1005.97 245.52 1005.97 246.588C1005.97 247.548 1005.22 248.16 1004.3 248.16C1003.33 248.16 1002.62 247.512 1002.55 246.552L1001.42 246.888ZM1009.74 245.112C1009.74 243.924 1009.95 243.084 1010.42 242.592C1010.72 242.28 1011.11 242.088 1011.66 242.088C1012.21 242.088 1012.59 242.28 1012.89 242.592C1013.36 243.084 1013.58 243.924 1013.58 245.112C1013.58 246.3 1013.36 247.14 1012.89 247.632C1012.59 247.944 1012.21 248.136 1011.66 248.136C1011.11 248.136 1010.72 247.944 1010.42 247.632C1009.95 247.14 1009.74 246.3 1009.74 245.112ZM1008.57 245.112C1008.57 246.18 1008.75 247.164 1009.27 247.932C1009.77 248.688 1010.55 249.18 1011.66 249.18C1012.76 249.18 1013.54 248.688 1014.05 247.932C1014.56 247.164 1014.74 246.18 1014.74 245.112C1014.74 244.044 1014.56 243.06 1014.05 242.292C1013.54 241.536 1012.76 241.044 1011.66 241.044C1010.55 241.044 1009.77 241.536 1009.27 242.292C1008.75 243.06 1008.57 244.044 1008.57 245.112ZM1017.17 243.024C1017.17 242.484 1017.57 242.088 1018.09 242.088C1018.62 242.088 1019.01 242.484 1019.01 243.024C1019.01 243.576 1018.62 243.972 1018.09 243.972C1017.57 243.972 1017.17 243.576 1017.17 243.024ZM1016.17 243.024C1016.17 244.092 1017.06 244.92 1018.09 244.92C1019.12 244.92 1020.02 244.092 1020.02 243.024C1020.02 241.968 1019.12 241.14 1018.09 241.14C1017.06 241.14 1016.17 241.968 1016.17 243.024ZM1021.92 247.2C1021.92 246.66 1022.33 246.264 1022.84 246.264C1023.37 246.264 1023.77 246.66 1023.77 247.2C1023.77 247.752 1023.37 248.148 1022.84 248.148C1022.33 248.148 1021.92 247.752 1021.92 247.2ZM1020.92 247.2C1020.92 248.268 1021.81 249.096 1022.84 249.096C1023.87 249.096 1024.77 248.268 1024.77 247.2C1024.77 246.144 1023.87 245.316 1022.84 245.316C1021.81 245.316 1020.92 246.144 1020.92 247.2ZM1018.23 249L1023.8 241.224H1022.72L1017.13 249H1018.23Z" fill="#D17C2E"/>
<path d="M1002.69 281.02C1002.68 280.9 1002.67 280.78 1002.67 280.672C1002.67 279.784 1003.15 279.076 1004.17 279.076C1005.15 279.076 1005.63 279.736 1005.63 280.444C1005.63 281.044 1005.3 281.596 1004.56 282.064L1003.27 282.904C1001.95 283.756 1001.44 284.728 1001.42 286H1006.87V284.908H1002.87C1002.98 284.428 1003.38 284.104 1003.82 283.816L1005.36 282.832C1006.24 282.268 1006.82 281.452 1006.82 280.432C1006.82 279.136 1005.86 278.044 1004.19 278.044C1002.49 278.044 1001.5 279.232 1001.5 280.564C1001.5 280.66 1001.5 280.768 1001.52 280.876L1002.69 281.02ZM1008.17 283.888C1008.28 285.112 1009.4 286.192 1011.05 286.192C1012.78 286.192 1013.91 285.004 1013.91 283.54C1013.91 281.932 1012.79 280.96 1011.27 280.96C1010.66 280.96 1010.03 281.152 1009.68 281.536L1010.26 279.304H1013.58V278.224H1009.48L1008.47 282.088C1008.87 282.232 1009.22 282.388 1009.62 282.544C1009.96 282.196 1010.49 281.98 1011.04 281.98C1011.94 281.98 1012.72 282.52 1012.72 283.588C1012.72 284.548 1011.98 285.16 1011.05 285.16C1010.08 285.16 1009.37 284.512 1009.3 283.552L1008.17 283.888ZM1016.26 280.024C1016.26 279.484 1016.67 279.088 1017.19 279.088C1017.72 279.088 1018.11 279.484 1018.11 280.024C1018.11 280.576 1017.72 280.972 1017.19 280.972C1016.67 280.972 1016.26 280.576 1016.26 280.024ZM1015.27 280.024C1015.27 281.092 1016.16 281.92 1017.19 281.92C1018.22 281.92 1019.12 281.092 1019.12 280.024C1019.12 278.968 1018.22 278.14 1017.19 278.14C1016.16 278.14 1015.27 278.968 1015.27 280.024ZM1021.02 284.2C1021.02 283.66 1021.42 283.264 1021.94 283.264C1022.47 283.264 1022.86 283.66 1022.86 284.2C1022.86 284.752 1022.47 285.148 1021.94 285.148C1021.42 285.148 1021.02 284.752 1021.02 284.2ZM1020.02 284.2C1020.02 285.268 1020.91 286.096 1021.94 286.096C1022.97 286.096 1023.87 285.268 1023.87 284.2C1023.87 283.144 1022.97 282.316 1021.94 282.316C1020.91 282.316 1020.02 283.144 1020.02 284.2ZM1017.33 286L1022.9 278.224H1021.82L1016.23 286H1017.33Z" fill="#D17C2E"/>
<path d="M936.032 315.724C936.416 315.988 937.232 316.18 937.832 316.18C940.448 316.18 941.72 314.476 941.72 311.62C941.72 309.136 940.22 308.044 938.696 308.044C937.172 308.044 935.828 309.124 935.828 310.732C935.828 312.448 937.172 313.36 938.516 313.36C939.572 313.36 940.256 312.88 940.532 312.364C940.484 313.888 939.716 315.124 937.832 315.124C937.328 315.124 936.752 314.956 936.416 314.752L936.032 315.724ZM940.376 310.708C940.376 311.74 939.56 312.352 938.696 312.352C937.808 312.352 937.016 311.764 937.016 310.708C937.016 309.688 937.832 309.076 938.696 309.076C939.548 309.076 940.376 309.7 940.376 310.708ZM947.448 307.492H946.356L942.24 316H943.332L947.448 307.492ZM951.179 316V308.224H950.147C949.967 309.064 949.223 309.664 948.143 309.688V310.516H950.027V316H951.179ZM957.682 307.492H956.59L952.474 316H953.566L957.682 307.492ZM959.535 311.02C959.523 310.9 959.511 310.78 959.511 310.672C959.511 309.784 959.991 309.076 961.011 309.076C961.995 309.076 962.475 309.736 962.475 310.444C962.475 311.044 962.139 311.596 961.407 312.064L960.111 312.904C958.791 313.756 958.287 314.728 958.263 316H963.711V314.908H959.715C959.823 314.428 960.219 314.104 960.663 313.816L962.199 312.832C963.087 312.268 963.663 311.452 963.663 310.432C963.663 309.136 962.703 308.044 961.035 308.044C959.331 308.044 958.347 309.232 958.347 310.564C958.347 310.66 958.347 310.768 958.359 310.876L959.535 311.02ZM966.358 312.112C966.358 310.924 966.574 310.084 967.042 309.592C967.342 309.28 967.726 309.088 968.278 309.088C968.83 309.088 969.214 309.28 969.514 309.592C969.982 310.084 970.198 310.924 970.198 312.112C970.198 313.3 969.982 314.14 969.514 314.632C969.214 314.944 968.83 315.136 968.278 315.136C967.726 315.136 967.342 314.944 967.042 314.632C966.574 314.14 966.358 313.3 966.358 312.112ZM965.194 312.112C965.194 313.18 965.374 314.164 965.89 314.932C966.394 315.688 967.174 316.18 968.278 316.18C969.382 316.18 970.162 315.688 970.666 314.932C971.182 314.164 971.362 313.18 971.362 312.112C971.362 311.044 971.182 310.06 970.666 309.292C970.162 308.536 969.382 308.044 968.278 308.044C967.174 308.044 966.394 308.536 965.89 309.292C965.374 310.06 965.194 311.044 965.194 312.112ZM975.643 316V308.224H974.611C974.431 309.064 973.687 309.664 972.607 309.688V310.516H974.491V316H975.643ZM980.297 311.536C979.469 311.524 978.857 311.02 978.857 310.264C978.857 309.568 979.421 309.016 980.297 309.016C981.173 309.016 981.737 309.568 981.737 310.264C981.737 311.02 981.125 311.524 980.297 311.536ZM980.297 315.16C979.253 315.16 978.665 314.584 978.665 313.852C978.665 313.108 979.265 312.52 980.297 312.52C981.329 312.52 981.929 313.108 981.929 313.852C981.929 314.584 981.341 315.16 980.297 315.16ZM980.297 316.18C982.085 316.18 983.117 315.196 983.117 313.948C983.117 313 982.469 312.292 981.641 312.028C982.361 311.764 982.913 311.044 982.913 310.204C982.913 308.932 981.785 308.044 980.297 308.044C978.809 308.044 977.681 308.932 977.681 310.204C977.681 311.068 978.245 311.764 978.953 312.028C978.125 312.304 977.477 313 977.477 313.948C977.477 315.196 978.509 316.18 980.297 316.18Z" fill="#7C8A95"/>
<path d="M848.787 308.224H843.111V309.304H847.491C847.491 309.304 844.635 311.476 844.287 316H845.499C845.871 311.884 848.067 309.928 848.787 309.352V308.224ZM853.745 307.492H852.653L848.537 316H849.629L853.745 307.492ZM857.476 316V308.224H856.444C856.264 309.064 855.52 309.664 854.44 309.688V310.516H856.324V316H857.476ZM863.979 307.492H862.887L858.771 316H859.863L863.979 307.492ZM865.831 311.02C865.819 310.9 865.807 310.78 865.807 310.672C865.807 309.784 866.287 309.076 867.307 309.076C868.291 309.076 868.771 309.736 868.771 310.444C868.771 311.044 868.435 311.596 867.703 312.064L866.407 312.904C865.087 313.756 864.583 314.728 864.559 316H870.007V314.908H866.011C866.119 314.428 866.515 314.104 866.959 313.816L868.495 312.832C869.383 312.268 869.959 311.452 869.959 310.432C869.959 309.136 868.999 308.044 867.331 308.044C865.627 308.044 864.643 309.232 864.643 310.564C864.643 310.66 864.643 310.768 864.655 310.876L865.831 311.02ZM872.655 312.112C872.655 310.924 872.871 310.084 873.339 309.592C873.639 309.28 874.023 309.088 874.575 309.088C875.127 309.088 875.511 309.28 875.811 309.592C876.279 310.084 876.495 310.924 876.495 312.112C876.495 313.3 876.279 314.14 875.811 314.632C875.511 314.944 875.127 315.136 874.575 315.136C874.023 315.136 873.639 314.944 873.339 314.632C872.871 314.14 872.655 313.3 872.655 312.112ZM871.491 312.112C871.491 313.18 871.671 314.164 872.187 314.932C872.691 315.688 873.471 316.18 874.575 316.18C875.679 316.18 876.459 315.688 876.963 314.932C877.479 314.164 877.659 313.18 877.659 312.112C877.659 311.044 877.479 310.06 876.963 309.292C876.459 308.536 875.679 308.044 874.575 308.044C873.471 308.044 872.691 308.536 872.187 309.292C871.671 310.06 871.491 311.044 871.491 312.112ZM881.94 316V308.224H880.908C880.728 309.064 879.984 309.664 878.904 309.688V310.516H880.788V316H881.94ZM886.594 311.536C885.766 311.524 885.154 311.02 885.154 310.264C885.154 309.568 885.718 309.016 886.594 309.016C887.47 309.016 888.034 309.568 888.034 310.264C888.034 311.02 887.422 311.524 886.594 311.536ZM886.594 315.16C885.55 315.16 884.962 314.584 884.962 313.852C884.962 313.108 885.562 312.52 886.594 312.52C887.626 312.52 888.226 313.108 888.226 313.852C888.226 314.584 887.638 315.16 886.594 315.16ZM886.594 316.18C888.382 316.18 889.414 315.196 889.414 313.948C889.414 313 888.766 312.292 887.938 312.028C888.658 311.764 889.21 311.044 889.21 310.204C889.21 308.932 888.082 308.044 886.594 308.044C885.106 308.044 883.978 308.932 883.978 310.204C883.978 311.068 884.542 311.764 885.25 312.028C884.422 312.304 883.774 313 883.774 313.948C883.774 315.196 884.806 316.18 886.594 316.18Z" fill="#7C8A95"/>
<path d="M747.844 313.888C747.952 315.112 749.068 316.192 750.724 316.192C752.452 316.192 753.58 315.004 753.58 313.54C753.58 311.932 752.464 310.96 750.94 310.96C750.328 310.96 749.704 311.152 749.356 311.536L749.932 309.304H753.256V308.224H749.152L748.144 312.088C748.54 312.232 748.888 312.388 749.296 312.544C749.632 312.196 750.16 311.98 750.712 311.98C751.612 311.98 752.392 312.52 752.392 313.588C752.392 314.548 751.648 315.16 750.724 315.16C749.752 315.16 749.044 314.512 748.972 313.552L747.844 313.888ZM759.372 307.492H758.28L754.164 316H755.256L759.372 307.492ZM763.103 316V308.224H762.071C761.891 309.064 761.147 309.664 760.067 309.688V310.516H761.951V316H763.103ZM769.606 307.492H768.514L764.398 316H765.49L769.606 307.492ZM771.458 311.02C771.446 310.9 771.434 310.78 771.434 310.672C771.434 309.784 771.914 309.076 772.934 309.076C773.918 309.076 774.398 309.736 774.398 310.444C774.398 311.044 774.062 311.596 773.33 312.064L772.034 312.904C770.714 313.756 770.21 314.728 770.186 316H775.634V314.908H771.638C771.746 314.428 772.142 314.104 772.586 313.816L774.122 312.832C775.01 312.268 775.586 311.452 775.586 310.432C775.586 309.136 774.626 308.044 772.958 308.044C771.254 308.044 770.27 309.232 770.27 310.564C770.27 310.66 770.27 310.768 770.282 310.876L771.458 311.02ZM778.282 312.112C778.282 310.924 778.498 310.084 778.966 309.592C779.266 309.28 779.65 309.088 780.202 309.088C780.754 309.088 781.138 309.28 781.438 309.592C781.906 310.084 782.122 310.924 782.122 312.112C782.122 313.3 781.906 314.14 781.438 314.632C781.138 314.944 780.754 315.136 780.202 315.136C779.65 315.136 779.266 314.944 778.966 314.632C778.498 314.14 778.282 313.3 778.282 312.112ZM777.118 312.112C777.118 313.18 777.298 314.164 777.814 314.932C778.318 315.688 779.098 316.18 780.202 316.18C781.306 316.18 782.086 315.688 782.59 314.932C783.106 314.164 783.286 313.18 783.286 312.112C783.286 311.044 783.106 310.06 782.59 309.292C782.086 308.536 781.306 308.044 780.202 308.044C779.098 308.044 778.318 308.536 777.814 309.292C777.298 310.06 777.118 311.044 777.118 312.112ZM787.566 316V308.224H786.534C786.354 309.064 785.61 309.664 784.53 309.688V310.516H786.414V316H787.566ZM792.221 311.536C791.393 311.524 790.781 311.02 790.781 310.264C790.781 309.568 791.345 309.016 792.221 309.016C793.097 309.016 793.661 309.568 793.661 310.264C793.661 311.02 793.049 311.524 792.221 311.536ZM792.221 315.16C791.177 315.16 790.589 314.584 790.589 313.852C790.589 313.108 791.189 312.52 792.221 312.52C793.253 312.52 793.853 313.108 793.853 313.852C793.853 314.584 793.265 315.16 792.221 315.16ZM792.221 316.18C794.009 316.18 795.041 315.196 795.041 313.948C795.041 313 794.393 312.292 793.565 312.028C794.285 311.764 794.837 311.044 794.837 310.204C794.837 308.932 793.709 308.044 792.221 308.044C790.733 308.044 789.605 308.932 789.605 310.204C789.605 311.068 790.169 311.764 790.877 312.028C790.049 312.304 789.401 313 789.401 313.948C789.401 315.196 790.433 316.18 792.221 316.18Z" fill="#7C8A95"/>
<path d="M655.036 312.388C655.24 312.316 655.48 312.268 655.72 312.268C656.488 312.268 657.304 312.7 657.304 313.72C657.304 314.5 656.728 315.16 655.66 315.16C654.724 315.16 653.98 314.512 653.932 313.48L652.78 313.744C652.852 315.016 653.872 316.192 655.672 316.192C657.484 316.192 658.492 315.004 658.492 313.696C658.492 312.1 657.232 311.332 656.092 311.332L658.312 309.28V308.224H653.032V309.304H656.752L654.46 311.416L655.036 312.388ZM664.46 307.492H663.368L659.252 316H660.344L664.46 307.492ZM668.191 316V308.224H667.159C666.979 309.064 666.235 309.664 665.155 309.688V310.516H667.039V316H668.191ZM674.694 307.492H673.602L669.486 316H670.578L674.694 307.492ZM676.546 311.02C676.534 310.9 676.522 310.78 676.522 310.672C676.522 309.784 677.002 309.076 678.022 309.076C679.006 309.076 679.486 309.736 679.486 310.444C679.486 311.044 679.15 311.596 678.418 312.064L677.122 312.904C675.802 313.756 675.298 314.728 675.274 316H680.722V314.908H676.726C676.834 314.428 677.23 314.104 677.674 313.816L679.21 312.832C680.098 312.268 680.674 311.452 680.674 310.432C680.674 309.136 679.714 308.044 678.046 308.044C676.342 308.044 675.358 309.232 675.358 310.564C675.358 310.66 675.358 310.768 675.37 310.876L676.546 311.02ZM683.37 312.112C683.37 310.924 683.586 310.084 684.054 309.592C684.354 309.28 684.738 309.088 685.29 309.088C685.842 309.088 686.226 309.28 686.526 309.592C686.994 310.084 687.21 310.924 687.21 312.112C687.21 313.3 686.994 314.14 686.526 314.632C686.226 314.944 685.842 315.136 685.29 315.136C684.738 315.136 684.354 314.944 684.054 314.632C683.586 314.14 683.37 313.3 683.37 312.112ZM682.206 312.112C682.206 313.18 682.386 314.164 682.902 314.932C683.406 315.688 684.186 316.18 685.29 316.18C686.394 316.18 687.174 315.688 687.678 314.932C688.194 314.164 688.374 313.18 688.374 312.112C688.374 311.044 688.194 310.06 687.678 309.292C687.174 308.536 686.394 308.044 685.29 308.044C684.186 308.044 683.406 308.536 682.902 309.292C682.386 310.06 682.206 311.044 682.206 312.112ZM692.654 316V308.224H691.622C691.442 309.064 690.698 309.664 689.618 309.688V310.516H691.502V316H692.654ZM697.309 311.536C696.481 311.524 695.869 311.02 695.869 310.264C695.869 309.568 696.433 309.016 697.309 309.016C698.185 309.016 698.749 309.568 698.749 310.264C698.749 311.02 698.137 311.524 697.309 311.536ZM697.309 315.16C696.265 315.16 695.677 314.584 695.677 313.852C695.677 313.108 696.277 312.52 697.309 312.52C698.341 312.52 698.941 313.108 698.941 313.852C698.941 314.584 698.353 315.16 697.309 315.16ZM697.309 316.18C699.097 316.18 700.129 315.196 700.129 313.948C700.129 313 699.481 312.292 698.653 312.028C699.373 311.764 699.925 311.044 699.925 310.204C699.925 308.932 698.797 308.044 697.309 308.044C695.821 308.044 694.693 308.932 694.693 310.204C694.693 311.068 695.257 311.764 695.965 312.028C695.137 312.304 694.489 313 694.489 313.948C694.489 315.196 695.521 316.18 697.309 316.18Z" fill="#7C8A95"/>
<path d="M561.815 316V308.224H560.783C560.603 309.064 559.859 309.664 558.779 309.688V310.516H560.663V316H561.815ZM568.317 307.492H567.225L563.109 316H564.201L568.317 307.492ZM572.049 316V308.224H571.017C570.837 309.064 570.093 309.664 569.013 309.688V310.516H570.897V316H572.049ZM578.551 307.492H577.459L573.343 316H574.435L578.551 307.492ZM580.404 311.02C580.392 310.9 580.38 310.78 580.38 310.672C580.38 309.784 580.86 309.076 581.88 309.076C582.864 309.076 583.344 309.736 583.344 310.444C583.344 311.044 583.008 311.596 582.276 312.064L580.98 312.904C579.66 313.756 579.156 314.728 579.132 316H584.58V314.908H580.584C580.692 314.428 581.088 314.104 581.532 313.816L583.068 312.832C583.956 312.268 584.532 311.452 584.532 310.432C584.532 309.136 583.572 308.044 581.904 308.044C580.2 308.044 579.216 309.232 579.216 310.564C579.216 310.66 579.216 310.768 579.228 310.876L580.404 311.02ZM587.227 312.112C587.227 310.924 587.443 310.084 587.911 309.592C588.211 309.28 588.595 309.088 589.147 309.088C589.699 309.088 590.083 309.28 590.383 309.592C590.851 310.084 591.067 310.924 591.067 312.112C591.067 313.3 590.851 314.14 590.383 314.632C590.083 314.944 589.699 315.136 589.147 315.136C588.595 315.136 588.211 314.944 587.911 314.632C587.443 314.14 587.227 313.3 587.227 312.112ZM586.063 312.112C586.063 313.18 586.243 314.164 586.759 314.932C587.263 315.688 588.043 316.18 589.147 316.18C590.251 316.18 591.031 315.688 591.535 314.932C592.051 314.164 592.231 313.18 592.231 312.112C592.231 311.044 592.051 310.06 591.535 309.292C591.031 308.536 590.251 308.044 589.147 308.044C588.043 308.044 587.263 308.536 586.759 309.292C586.243 310.06 586.063 311.044 586.063 312.112ZM596.512 316V308.224H595.48C595.3 309.064 594.556 309.664 593.476 309.688V310.516H595.36V316H596.512ZM601.166 311.536C600.338 311.524 599.726 311.02 599.726 310.264C599.726 309.568 600.29 309.016 601.166 309.016C602.042 309.016 602.606 309.568 602.606 310.264C602.606 311.02 601.994 311.524 601.166 311.536ZM601.166 315.16C600.122 315.16 599.534 314.584 599.534 313.852C599.534 313.108 600.134 312.52 601.166 312.52C602.198 312.52 602.798 313.108 602.798 313.852C602.798 314.584 602.21 315.16 601.166 315.16ZM601.166 316.18C602.954 316.18 603.986 315.196 603.986 313.948C603.986 313 603.338 312.292 602.51 312.028C603.23 311.764 603.782 311.044 603.782 310.204C603.782 308.932 602.654 308.044 601.166 308.044C599.678 308.044 598.55 308.932 598.55 310.204C598.55 311.068 599.114 311.764 599.822 312.028C598.994 312.304 598.346 313 598.346 313.948C598.346 315.196 599.378 316.18 601.166 316.18Z" fill="#7C8A95"/>
<path d="M464.927 316V308.224H463.895C463.715 309.064 462.971 309.664 461.891 309.688V310.516H463.775V316H464.927ZM469.558 316V308.224H468.526C468.346 309.064 467.602 309.664 466.522 309.688V310.516H468.406V316H469.558ZM476.06 307.492H474.968L470.852 316H471.944L476.06 307.492ZM479.791 316V308.224H478.759C478.579 309.064 477.835 309.664 476.755 309.688V310.516H478.639V316H479.791ZM486.294 307.492H485.202L481.086 316H482.178L486.294 307.492ZM488.147 311.02C488.135 310.9 488.123 310.78 488.123 310.672C488.123 309.784 488.603 309.076 489.623 309.076C490.607 309.076 491.087 309.736 491.087 310.444C491.087 311.044 490.751 311.596 490.019 312.064L488.723 312.904C487.403 313.756 486.899 314.728 486.875 316H492.323V314.908H488.327C488.435 314.428 488.831 314.104 489.275 313.816L490.811 312.832C491.699 312.268 492.275 311.452 492.275 310.432C492.275 309.136 491.315 308.044 489.647 308.044C487.943 308.044 486.959 309.232 486.959 310.564C486.959 310.66 486.959 310.768 486.971 310.876L488.147 311.02ZM494.97 312.112C494.97 310.924 495.186 310.084 495.654 309.592C495.954 309.28 496.338 309.088 496.89 309.088C497.442 309.088 497.826 309.28 498.126 309.592C498.594 310.084 498.81 310.924 498.81 312.112C498.81 313.3 498.594 314.14 498.126 314.632C497.826 314.944 497.442 315.136 496.89 315.136C496.338 315.136 495.954 314.944 495.654 314.632C495.186 314.14 494.97 313.3 494.97 312.112ZM493.806 312.112C493.806 313.18 493.986 314.164 494.502 314.932C495.006 315.688 495.786 316.18 496.89 316.18C497.994 316.18 498.774 315.688 499.278 314.932C499.794 314.164 499.974 313.18 499.974 312.112C499.974 311.044 499.794 310.06 499.278 309.292C498.774 308.536 497.994 308.044 496.89 308.044C495.786 308.044 495.006 308.536 494.502 309.292C493.986 310.06 493.806 311.044 493.806 312.112ZM504.255 316V308.224H503.223C503.043 309.064 502.299 309.664 501.219 309.688V310.516H503.103V316H504.255ZM511.344 308.224H505.668V309.304H510.048C510.048 309.304 507.192 311.476 506.844 316H508.056C508.428 311.884 510.624 309.928 511.344 309.352V308.224Z" fill="#7C8A95"/>
<path d="M368.46 315.724C368.844 315.988 369.66 316.18 370.26 316.18C372.876 316.18 374.148 314.476 374.148 311.62C374.148 309.136 372.648 308.044 371.124 308.044C369.6 308.044 368.256 309.124 368.256 310.732C368.256 312.448 369.6 313.36 370.944 313.36C372 313.36 372.684 312.88 372.96 312.364C372.912 313.888 372.144 315.124 370.26 315.124C369.756 315.124 369.18 314.956 368.844 314.752L368.46 315.724ZM372.804 310.708C372.804 311.74 371.988 312.352 371.124 312.352C370.236 312.352 369.444 311.764 369.444 310.708C369.444 309.688 370.26 309.076 371.124 309.076C371.976 309.076 372.804 309.7 372.804 310.708ZM379.876 307.492H378.784L374.668 316H375.76L379.876 307.492ZM383.607 316V308.224H382.575C382.395 309.064 381.651 309.664 380.571 309.688V310.516H382.455V316H383.607ZM390.11 307.492H389.018L384.902 316H385.994L390.11 307.492ZM391.962 311.02C391.95 310.9 391.938 310.78 391.938 310.672C391.938 309.784 392.418 309.076 393.438 309.076C394.422 309.076 394.902 309.736 394.902 310.444C394.902 311.044 394.566 311.596 393.834 312.064L392.538 312.904C391.218 313.756 390.714 314.728 390.69 316H396.138V314.908H392.142C392.25 314.428 392.646 314.104 393.09 313.816L394.626 312.832C395.514 312.268 396.09 311.452 396.09 310.432C396.09 309.136 395.13 308.044 393.462 308.044C391.758 308.044 390.774 309.232 390.774 310.564C390.774 310.66 390.774 310.768 390.786 310.876L391.962 311.02ZM398.786 312.112C398.786 310.924 399.002 310.084 399.47 309.592C399.77 309.28 400.154 309.088 400.706 309.088C401.258 309.088 401.642 309.28 401.942 309.592C402.41 310.084 402.626 310.924 402.626 312.112C402.626 313.3 402.41 314.14 401.942 314.632C401.642 314.944 401.258 315.136 400.706 315.136C400.154 315.136 399.77 314.944 399.47 314.632C399.002 314.14 398.786 313.3 398.786 312.112ZM397.622 312.112C397.622 313.18 397.802 314.164 398.318 314.932C398.822 315.688 399.602 316.18 400.706 316.18C401.81 316.18 402.59 315.688 403.094 314.932C403.61 314.164 403.79 313.18 403.79 312.112C403.79 311.044 403.61 310.06 403.094 309.292C402.59 308.536 401.81 308.044 400.706 308.044C399.602 308.044 398.822 308.536 398.318 309.292C397.802 310.06 397.622 311.044 397.622 312.112ZM408.07 316V308.224H407.038C406.858 309.064 406.114 309.664 405.034 309.688V310.516H406.918V316H408.07ZM415.159 308.224H409.483V309.304H413.863C413.863 309.304 411.007 311.476 410.659 316H411.871C412.243 311.884 414.439 309.928 415.159 309.352V308.224Z" fill="#7C8A95"/>
<path d="M89.4641 312.388C89.6681 312.316 89.9081 312.268 90.1481 312.268C90.9161 312.268 91.7321 312.7 91.7321 313.72C91.7321 314.5 91.1561 315.16 90.0881 315.16C89.1521 315.16 88.4081 314.512 88.3601 313.48L87.2081 313.744C87.2801 315.016 88.3001 316.192 90.1001 316.192C91.9121 316.192 92.9201 315.004 92.9201 313.696C92.9201 312.1 91.6601 311.332 90.5201 311.332L92.7401 309.28V308.224H87.4601V309.304H91.1801L88.8881 311.416L89.4641 312.388ZM98.8877 307.492H97.7957L93.6797 316H94.7717L98.8877 307.492ZM102.619 316V308.224H101.587C101.407 309.064 100.663 309.664 99.5828 309.688V310.516H101.467V316H102.619ZM109.121 307.492H108.029L103.913 316H105.005L109.121 307.492ZM110.974 311.02C110.962 310.9 110.95 310.78 110.95 310.672C110.95 309.784 111.43 309.076 112.45 309.076C113.434 309.076 113.914 309.736 113.914 310.444C113.914 311.044 113.578 311.596 112.846 312.064L111.55 312.904C110.23 313.756 109.726 314.728 109.702 316H115.15V314.908H111.154C111.262 314.428 111.658 314.104 112.102 313.816L113.638 312.832C114.526 312.268 115.102 311.452 115.102 310.432C115.102 309.136 114.142 308.044 112.474 308.044C110.77 308.044 109.786 309.232 109.786 310.564C109.786 310.66 109.786 310.768 109.798 310.876L110.974 311.02ZM117.798 312.112C117.798 310.924 118.014 310.084 118.482 309.592C118.782 309.28 119.166 309.088 119.718 309.088C120.27 309.088 120.654 309.28 120.954 309.592C121.422 310.084 121.638 310.924 121.638 312.112C121.638 313.3 121.422 314.14 120.954 314.632C120.654 314.944 120.27 315.136 119.718 315.136C119.166 315.136 118.782 314.944 118.482 314.632C118.014 314.14 117.798 313.3 117.798 312.112ZM116.634 312.112C116.634 313.18 116.814 314.164 117.33 314.932C117.834 315.688 118.614 316.18 119.718 316.18C120.822 316.18 121.602 315.688 122.106 314.932C122.622 314.164 122.802 313.18 122.802 312.112C122.802 311.044 122.622 310.06 122.106 309.292C121.602 308.536 120.822 308.044 119.718 308.044C118.614 308.044 117.834 308.536 117.33 309.292C116.814 310.06 116.634 311.044 116.634 312.112ZM127.082 316V308.224H126.05C125.87 309.064 125.126 309.664 124.046 309.688V310.516H125.93V316H127.082ZM134.171 308.224H128.495V309.304H132.875C132.875 309.304 130.019 311.476 129.671 316H130.883C131.255 311.884 133.451 309.928 134.171 309.352V308.224Z" fill="#7C8A95"/>
<path d="M178.272 313.888C178.38 315.112 179.496 316.192 181.152 316.192C182.88 316.192 184.008 315.004 184.008 313.54C184.008 311.932 182.892 310.96 181.368 310.96C180.756 310.96 180.132 311.152 179.784 311.536L180.36 309.304H183.684V308.224H179.58L178.572 312.088C178.968 312.232 179.316 312.388 179.724 312.544C180.06 312.196 180.588 311.98 181.14 311.98C182.04 311.98 182.82 312.52 182.82 313.588C182.82 314.548 182.076 315.16 181.152 315.16C180.18 315.16 179.472 314.512 179.4 313.552L178.272 313.888ZM189.8 307.492H188.708L184.592 316H185.684L189.8 307.492ZM193.531 316V308.224H192.499C192.319 309.064 191.575 309.664 190.495 309.688V310.516H192.379V316H193.531ZM200.033 307.492H198.941L194.825 316H195.917L200.033 307.492ZM201.886 311.02C201.874 310.9 201.862 310.78 201.862 310.672C201.862 309.784 202.342 309.076 203.362 309.076C204.346 309.076 204.826 309.736 204.826 310.444C204.826 311.044 204.49 311.596 203.758 312.064L202.462 312.904C201.142 313.756 200.638 314.728 200.614 316H206.062V314.908H202.066C202.174 314.428 202.57 314.104 203.014 313.816L204.55 312.832C205.438 312.268 206.014 311.452 206.014 310.432C206.014 309.136 205.054 308.044 203.386 308.044C201.682 308.044 200.698 309.232 200.698 310.564C200.698 310.66 200.698 310.768 200.71 310.876L201.886 311.02ZM208.71 312.112C208.71 310.924 208.926 310.084 209.394 309.592C209.694 309.28 210.078 309.088 210.63 309.088C211.182 309.088 211.566 309.28 211.866 309.592C212.334 310.084 212.55 310.924 212.55 312.112C212.55 313.3 212.334 314.14 211.866 314.632C211.566 314.944 211.182 315.136 210.63 315.136C210.078 315.136 209.694 314.944 209.394 314.632C208.926 314.14 208.71 313.3 208.71 312.112ZM207.546 312.112C207.546 313.18 207.726 314.164 208.242 314.932C208.746 315.688 209.526 316.18 210.63 316.18C211.734 316.18 212.514 315.688 213.018 314.932C213.534 314.164 213.714 313.18 213.714 312.112C213.714 311.044 213.534 310.06 213.018 309.292C212.514 308.536 211.734 308.044 210.63 308.044C209.526 308.044 208.746 308.536 208.242 309.292C207.726 310.06 207.546 311.044 207.546 312.112ZM217.994 316V308.224H216.962C216.782 309.064 216.038 309.664 214.958 309.688V310.516H216.842V316H217.994ZM225.083 308.224H219.407V309.304H223.787C223.787 309.304 220.931 311.476 220.583 316H221.795C222.167 311.884 224.363 309.928 225.083 309.352V308.224Z" fill="#7C8A95"/>
<path d="M279.215 308.224H273.539V309.304H277.919C277.919 309.304 275.063 311.476 274.715 316H275.927C276.299 311.884 278.495 309.928 279.215 309.352V308.224ZM284.173 307.492H283.081L278.965 316H280.057L284.173 307.492ZM287.904 316V308.224H286.872C286.692 309.064 285.948 309.664 284.868 309.688V310.516H286.752V316H287.904ZM294.406 307.492H293.314L289.198 316H290.29L294.406 307.492ZM296.259 311.02C296.247 310.9 296.235 310.78 296.235 310.672C296.235 309.784 296.715 309.076 297.735 309.076C298.719 309.076 299.199 309.736 299.199 310.444C299.199 311.044 298.863 311.596 298.131 312.064L296.835 312.904C295.515 313.756 295.011 314.728 294.987 316H300.435V314.908H296.439C296.547 314.428 296.943 314.104 297.387 313.816L298.923 312.832C299.811 312.268 300.387 311.452 300.387 310.432C300.387 309.136 299.427 308.044 297.759 308.044C296.055 308.044 295.071 309.232 295.071 310.564C295.071 310.66 295.071 310.768 295.083 310.876L296.259 311.02ZM303.083 312.112C303.083 310.924 303.299 310.084 303.767 309.592C304.067 309.28 304.451 309.088 305.003 309.088C305.555 309.088 305.939 309.28 306.239 309.592C306.707 310.084 306.923 310.924 306.923 312.112C306.923 313.3 306.707 314.14 306.239 314.632C305.939 314.944 305.555 315.136 305.003 315.136C304.451 315.136 304.067 314.944 303.767 314.632C303.299 314.14 303.083 313.3 303.083 312.112ZM301.919 312.112C301.919 313.18 302.099 314.164 302.615 314.932C303.119 315.688 303.899 316.18 305.003 316.18C306.107 316.18 306.887 315.688 307.391 314.932C307.907 314.164 308.087 313.18 308.087 312.112C308.087 311.044 307.907 310.06 307.391 309.292C306.887 308.536 306.107 308.044 305.003 308.044C303.899 308.044 303.119 308.536 302.615 309.292C302.099 310.06 301.919 311.044 301.919 312.112ZM312.367 316V308.224H311.335C311.155 309.064 310.411 309.664 309.331 309.688V310.516H311.215V316H312.367ZM319.456 308.224H313.78V309.304H318.16C318.16 309.304 315.304 311.476 314.956 316H316.168C316.54 311.884 318.736 309.928 319.456 309.352V308.224Z" fill="#7C8A95"/>
<rect x="0.5" y="92.5" width="1061" height="259" stroke="#DCDFF2"/>
<line x1="87" y1="280.5" x2="983" y2="280.5" stroke="#DCDFF2"/>
<line x1="87" y1="244.5" x2="983" y2="244.5" stroke="#DCDFF2"/>
<line x1="87" y1="208.5" x2="983" y2="208.5" stroke="#DCDFF2"/>
<line x1="87" y1="172.5" x2="983" y2="172.5" stroke="#DCDFF2"/>
<line x1="87" y1="135.5" x2="983" y2="135.5" stroke="#DCDFF2"/>
<path d="M957 261.5L909.5 263L862.5 229.5L815.5 246L768.5 233L721.5 240.5L674.5 238.5L627.5 252L580.5 217.5L533.5 216.5L486.5 217.5L439.5 255.5L392.5 249.5L345.5 247.5L298.5 251.5L251.5 160.5L204.5 156.5L157.5 272.5L110.5 260" stroke="#D17C2E" stroke-width="3"/>
<path d="M956.5 278L909.5 264.5L862.5 278L815.5 259.5L768.5 272.5L721.5 266L674.5 244.5L627.5 274.5L533.5 197.5L486.5 235.5L439.5 173L345.5 261L298.5 279H251.5L204.5 275.5L157.5 279L110.5 271" stroke="#478BB4" stroke-width="3"/>
</svg>
