<svg width="1062" height="352" viewBox="0 0 1062 352" fill="none" xmlns="http://www.w3.org/2000/svg">
<path d="M23.504 16.424C23.312 15.5 22.544 14.312 20.624 14.312C19.052 14.312 17.816 15.512 17.816 16.844C17.816 18.116 18.68 18.908 19.892 19.172L21.104 19.436C21.956 19.616 22.376 20.144 22.376 20.756C22.376 21.5 21.8 22.112 20.624 22.112C19.34 22.112 18.668 21.236 18.584 20.288L17.456 20.648C17.612 21.86 18.584 23.18 20.636 23.18C22.448 23.18 23.576 21.98 23.576 20.66C23.576 19.472 22.784 18.584 21.368 18.272L20.096 17.996C19.376 17.84 19.004 17.372 19.004 16.76C19.004 15.968 19.688 15.344 20.648 15.344C21.836 15.344 22.352 16.184 22.448 16.796L23.504 16.424ZM26.226 25.28V22.22C26.538 22.736 27.21 23.156 28.098 23.156C29.79 23.156 30.786 21.824 30.786 20.108C30.786 18.428 29.862 17.096 28.134 17.096C27.198 17.096 26.514 17.552 26.202 18.128V17.228H25.11V25.28H26.226ZM29.634 20.108C29.634 21.296 28.974 22.148 27.93 22.148C26.898 22.148 26.214 21.296 26.214 20.108C26.214 18.956 26.898 18.092 27.93 18.092C28.986 18.092 29.634 18.956 29.634 20.108ZM33.3553 19.52C33.4033 18.776 33.9793 18.044 34.9273 18.044C35.9473 18.044 36.4873 18.692 36.5113 19.52H33.3553ZM36.6793 21.02C36.4633 21.668 35.9953 22.184 35.0593 22.184C34.0873 22.184 33.3433 21.464 33.3193 20.432H37.6633C37.6753 20.36 37.6873 20.216 37.6873 20.072C37.6873 18.272 36.6913 17.048 34.9153 17.048C33.4633 17.048 32.1553 18.284 32.1553 20.096C32.1553 22.052 33.5113 23.18 35.0593 23.18C36.4033 23.18 37.3273 22.376 37.6513 21.356L36.6793 21.02ZM40.6552 19.664C40.6552 18.788 41.1112 18.08 41.9992 18.08C43.0072 18.08 43.3432 18.728 43.3432 19.532V23H44.4712V19.34C44.4712 18.056 43.7872 17.06 42.4072 17.06C41.7352 17.06 41.0512 17.336 40.6312 18.056V17.228H39.5272V23H40.6552V19.664ZM47.3375 20.096C47.3375 18.908 48.0095 18.068 49.0415 18.068C50.0735 18.068 50.6975 18.884 50.6975 20.072C50.6975 21.26 50.0615 22.16 49.0295 22.16C47.9495 22.16 47.3375 21.284 47.3375 20.096ZM50.7095 22.22C50.7095 22.568 50.7455 22.868 50.7695 23H51.8615C51.8495 22.904 51.8015 22.484 51.8015 21.932V14.312H50.6855V18.044C50.4935 17.576 49.9415 17.072 48.9215 17.072C47.2895 17.072 46.1855 18.464 46.1855 20.096C46.1855 21.812 47.2295 23.156 48.9215 23.156C49.8215 23.156 50.4335 22.676 50.7095 22.124V22.22Z" fill="#38454F"/>
<path d="M117.82 44.82V43.91H112.1V44.82H114.47V51H115.45V44.82H117.82ZM119.514 47.45C119.514 45.6 120.754 44.66 122.074 44.66C123.394 44.66 124.634 45.6 124.634 47.45C124.634 49.3 123.394 50.25 122.074 50.25C120.754 50.25 119.514 49.3 119.514 47.45ZM118.514 47.45C118.514 49.82 120.294 51.15 122.074 51.15C123.854 51.15 125.634 49.82 125.634 47.45C125.634 45.08 123.854 43.76 122.074 43.76C120.294 43.76 118.514 45.08 118.514 47.45ZM132.048 44.82V43.91H126.328V44.82H128.698V51H129.678V44.82H132.048ZM137.701 51H138.761L135.941 43.91H134.811L131.991 51H133.041L133.791 49.02H136.931L137.701 51ZM135.351 44.93L136.581 48.11H134.141L135.351 44.93ZM144.494 51V50.08H141.144V43.91H140.164V51H144.494Z" fill="#7C8A95"/>
<rect x="0.5" y="0.5" width="192" height="73" stroke="#DCDFF2"/>
<path d="M21.76 52.872V51.144C23.68 50.84 24.736 49.48 24.736 48.008C24.736 46.568 23.824 45.368 21.808 44.92L20.352 44.584C19.6 44.424 19.248 44.008 19.248 43.512C19.248 42.856 19.808 42.264 20.832 42.264C22.144 42.264 22.56 43.192 22.656 43.752L24.624 43.192C24.4 42.12 23.6 40.84 21.76 40.504V38.744H20.128V40.456C18.416 40.728 17.104 41.976 17.104 43.672C17.104 45.208 18.176 46.296 19.904 46.68L21.376 47C22.176 47.176 22.576 47.592 22.576 48.136C22.576 48.84 21.968 49.336 20.928 49.336C19.456 49.336 18.784 48.408 18.688 47.4L16.704 47.88C16.848 49.24 17.904 50.856 20.128 51.16V52.872H21.76ZM30.4127 44.872C29.4527 44.856 28.8927 44.248 28.8927 43.512C28.8927 42.824 29.4527 42.2 30.4127 42.2C31.3888 42.2 31.9488 42.824 31.9488 43.512C31.9488 44.248 31.3888 44.856 30.4127 44.872ZM30.4127 49.416C29.2767 49.416 28.6687 48.712 28.6687 47.976C28.6687 47.224 29.2447 46.504 30.4127 46.504C31.5807 46.504 32.1727 47.224 32.1727 47.976C32.1727 48.712 31.5647 49.416 30.4127 49.416ZM30.4127 51.24C32.7807 51.24 34.3328 49.992 34.3328 48.2C34.3328 47.08 33.5967 46.072 32.5087 45.672C33.5487 45.288 34.1248 44.264 34.1248 43.352C34.1248 41.608 32.5728 40.376 30.4127 40.376C28.2527 40.376 26.7007 41.608 26.7007 43.352C26.7007 44.28 27.2927 45.288 28.3327 45.672C27.2287 46.088 26.4927 47.08 26.4927 48.2C26.4927 49.992 28.0447 51.24 30.4127 51.24ZM39.9065 44.872C38.9465 44.856 38.3865 44.248 38.3865 43.512C38.3865 42.824 38.9465 42.2 39.9065 42.2C40.8825 42.2 41.4425 42.824 41.4425 43.512C41.4425 44.248 40.8825 44.856 39.9065 44.872ZM39.9065 49.416C38.7705 49.416 38.1625 48.712 38.1625 47.976C38.1625 47.224 38.7385 46.504 39.9065 46.504C41.0745 46.504 41.6665 47.224 41.6665 47.976C41.6665 48.712 41.0585 49.416 39.9065 49.416ZM39.9065 51.24C42.2745 51.24 43.8265 49.992 43.8265 48.2C43.8265 47.08 43.0905 46.072 42.0025 45.672C43.0425 45.288 43.6185 44.264 43.6185 43.352C43.6185 41.608 42.0665 40.376 39.9065 40.376C37.7465 40.376 36.1945 41.608 36.1945 43.352C36.1945 44.28 36.7865 45.288 37.8265 45.672C36.7225 46.088 35.9865 47.08 35.9865 48.2C35.9865 49.992 37.5385 51.24 39.9065 51.24ZM45.7698 49.72C45.7698 50.488 46.3138 51.048 47.0978 51.048C47.2738 51.048 47.4498 51 47.5138 50.952C47.4818 51.832 46.7138 52.52 45.9938 52.68V53.704C47.1778 53.56 48.8098 52.568 48.8098 50.216C48.8098 49.176 48.2178 48.376 47.2258 48.376C46.3938 48.376 45.7698 48.952 45.7698 49.72ZM50.1745 48.776H55.0865V51H57.2625V48.776H58.9745V46.888H57.2625V40.616H54.5425L50.1745 46.472V48.776ZM55.0865 46.888H52.1265L55.0865 42.92V46.888ZM62.3774 44.632C62.3294 44.456 62.2974 44.248 62.2974 44.056C62.2974 43.08 62.8414 42.328 63.9454 42.328C64.9854 42.328 65.5134 43 65.5134 43.752C65.5134 44.472 65.1614 45.016 64.2814 45.544L62.5694 46.568C60.7134 47.688 60.1374 49.176 60.1214 51H67.8014V49.096H62.8254C62.9854 48.696 63.3214 48.408 63.7214 48.152L65.7214 46.936C67.0014 46.152 67.7374 45.064 67.7374 43.72C67.7374 41.912 66.3134 40.376 63.9934 40.376C61.5774 40.376 60.2014 42.024 60.2014 43.848C60.2014 44.104 60.2494 44.424 60.2814 44.568L62.3774 44.632ZM69.1609 48.088C69.2889 49.72 70.8569 51.256 73.1129 51.256C75.6089 51.256 77.0969 49.576 77.0969 47.64C77.0969 45.416 75.6249 44.168 73.5449 44.168C72.8569 44.168 72.1209 44.392 71.6729 44.808L72.1849 42.52H76.5369V40.616H70.6809L69.4489 45.944C69.6729 46.008 71.2569 46.552 71.4649 46.632C71.8009 46.248 72.3609 45.928 73.0649 45.928C74.0249 45.928 74.9049 46.488 74.9049 47.672C74.9049 48.712 74.1049 49.368 73.1129 49.368C72.0089 49.368 71.2729 48.584 71.2249 47.624L69.1609 48.088ZM78.824 49.656C78.824 50.456 79.48 51.112 80.28 51.112C81.096 51.112 81.752 50.456 81.752 49.656C81.752 48.856 81.096 48.2 80.28 48.2C79.48 48.2 78.824 48.856 78.824 49.656ZM83.1651 48.776H88.0771V51H90.2531V48.776H91.9651V46.888H90.2531V40.616H87.5331L83.1651 46.472V48.776ZM88.0771 46.888H85.1171L88.0771 42.92V46.888ZM97.5496 51V40.616H95.6456C95.4376 41.704 94.3816 42.552 92.8616 42.568V44.056H95.3576V51H97.5496Z" fill="#38454F"/>
<rect x="434.5" y="0.5" width="193" height="73" stroke="#DCDFF2"/>
<rect x="434" width="194" height="4" fill="#478BB4"/>
<path d="M456.972 23H458.244L454.86 14.492H453.504L450.12 23H451.38L452.28 20.624H456.048L456.972 23ZM454.152 15.716L455.628 19.532H452.7L454.152 15.716ZM463.226 23.18C465.182 23.18 466.527 22.04 466.983 20.444L465.938 20.06C465.591 21.224 464.678 22.1 463.226 22.1C461.678 22.1 460.202 20.96 460.202 18.74C460.202 16.52 461.678 15.392 463.226 15.392C464.618 15.392 465.554 16.112 465.878 17.396L466.971 17.012C466.539 15.368 465.17 14.312 463.226 14.312C461.114 14.312 459.002 15.896 459.002 18.74C459.002 21.584 461.03 23.18 463.226 23.18ZM469.485 18.74C469.485 16.52 470.973 15.392 472.557 15.392C474.141 15.392 475.629 16.52 475.629 18.74C475.629 20.96 474.141 22.1 472.557 22.1C470.973 22.1 469.485 20.96 469.485 18.74ZM468.285 18.74C468.285 21.584 470.421 23.18 472.557 23.18C474.693 23.18 476.829 21.584 476.829 18.74C476.829 15.896 474.693 14.312 472.557 14.312C470.421 14.312 468.285 15.896 468.285 18.74ZM484.212 16.424C484.02 15.5 483.252 14.312 481.332 14.312C479.76 14.312 478.524 15.512 478.524 16.844C478.524 18.116 479.388 18.908 480.6 19.172L481.812 19.436C482.664 19.616 483.084 20.144 483.084 20.756C483.084 21.5 482.508 22.112 481.332 22.112C480.048 22.112 479.376 21.236 479.292 20.288L478.164 20.648C478.32 21.86 479.292 23.18 481.344 23.18C483.156 23.18 484.284 21.98 484.284 20.66C484.284 19.472 483.492 18.584 482.076 18.272L480.804 17.996C480.084 17.84 479.712 17.372 479.712 16.76C479.712 15.968 480.396 15.344 481.356 15.344C482.544 15.344 483.06 16.184 483.156 16.796L484.212 16.424Z" fill="#478BB4"/>
<path d="M526.81 51H527.87L525.05 43.91H523.92L521.1 51H522.15L522.9 49.02H526.04L526.81 51ZM524.46 44.93L525.69 48.11H523.25L524.46 44.93ZM531.106 49.74L528.966 43.91H527.926L530.596 51H531.566L534.296 43.91H533.266L531.106 49.74ZM540.008 51V50.09H536.678V47.92H539.698V47H536.678V44.82H540.008V43.91H535.698V51H540.008ZM545.579 51H546.719L545.029 48.03C546.099 47.83 546.749 47.04 546.749 46.02C546.749 44.85 545.919 43.91 544.579 43.91H541.909V51H542.899V48.1H543.959L545.579 51ZM542.899 47.22V44.79H544.399C545.199 44.79 545.739 45.27 545.739 46.02C545.739 46.75 545.199 47.22 544.399 47.22H542.899ZM553.361 51H554.421L551.601 43.91H550.471L547.651 51H548.701L549.451 49.02H552.591L553.361 51ZM551.011 44.93L552.241 48.11H549.801L551.011 44.93ZM561.71 51V47.53H558.32V48.41H560.78C560.74 49.14 560.17 50.26 558.59 50.26C557.32 50.26 556.12 49.33 556.12 47.45C556.12 45.57 557.36 44.66 558.63 44.66C559.73 44.66 560.56 45.26 560.88 46.28L561.77 45.9C561.36 44.62 560.17 43.76 558.63 43.76C556.88 43.76 555.12 45.05 555.12 47.45C555.12 49.85 556.78 51.15 558.56 51.15C559.75 51.15 560.52 50.56 560.83 50L560.92 51H561.71ZM567.926 51V50.09H564.596V47.92H567.616V47H564.596V44.82H567.926V43.91H563.616V51H567.926Z" fill="#7C8A95"/>
<path d="M452.768 44.632C452.72 44.456 452.688 44.248 452.688 44.056C452.688 43.08 453.232 42.328 454.336 42.328C455.376 42.328 455.904 43 455.904 43.752C455.904 44.472 455.552 45.016 454.672 45.544L452.96 46.568C451.104 47.688 450.528 49.176 450.512 51H458.192V49.096H453.216C453.376 48.696 453.712 48.408 454.112 48.152L456.112 46.936C457.392 46.152 458.128 45.064 458.128 43.72C458.128 41.912 456.704 40.376 454.384 40.376C451.968 40.376 450.592 42.024 450.592 43.848C450.592 44.104 450.64 44.424 450.672 44.568L452.768 44.632ZM459.412 48.776H464.324V51H466.5V48.776H468.212V46.888H466.5V40.616H463.78L459.412 46.472V48.776ZM464.324 46.888H461.364L464.324 42.92V46.888ZM469.871 49.656C469.871 50.456 470.527 51.112 471.327 51.112C472.143 51.112 472.799 50.456 472.799 49.656C472.799 48.856 472.143 48.2 471.327 48.2C470.527 48.2 469.871 48.856 469.871 49.656ZM474.212 48.776H479.124V51H481.3V48.776H483.012V46.888H481.3V40.616H478.58L474.212 46.472V48.776ZM479.124 46.888H476.164L479.124 42.92V46.888ZM484.159 48.776H489.071V51H491.247V48.776H492.959V46.888H491.247V40.616H488.527L484.159 46.472V48.776ZM489.071 46.888H486.111L489.071 42.92V46.888ZM495.835 43.064C495.835 42.408 496.299 41.96 496.891 41.96C497.499 41.96 497.947 42.408 497.947 43.064C497.947 43.72 497.499 44.184 496.891 44.184C496.299 44.184 495.835 43.736 495.835 43.064ZM494.235 43.064C494.235 44.52 495.435 45.672 496.891 45.672C498.331 45.672 499.563 44.552 499.563 43.064C499.563 41.592 498.331 40.44 496.891 40.44C495.451 40.44 494.235 41.592 494.235 43.064ZM502.827 48.568C502.827 47.912 503.291 47.464 503.883 47.464C504.491 47.464 504.939 47.912 504.939 48.568C504.939 49.224 504.491 49.688 503.883 49.688C503.291 49.688 502.827 49.24 502.827 48.568ZM501.227 48.568C501.227 50.024 502.427 51.176 503.883 51.176C505.323 51.176 506.555 50.056 506.555 48.568C506.555 47.096 505.323 45.944 503.883 45.944C502.443 45.944 501.227 47.096 501.227 48.568ZM497.659 51L504.987 40.616H503.131L495.803 51H497.659Z" fill="#38454F"/>
<rect x="652.5" y="0.5" width="192" height="73" stroke="#DCDFF2"/>
<path d="M672.764 23.18C674.72 23.18 676.064 22.04 676.52 20.444L675.476 20.06C675.128 21.224 674.216 22.1 672.764 22.1C671.216 22.1 669.74 20.96 669.74 18.74C669.74 16.52 671.216 15.392 672.764 15.392C674.156 15.392 675.092 16.112 675.416 17.396L676.508 17.012C676.076 15.368 674.708 14.312 672.764 14.312C670.652 14.312 668.54 15.896 668.54 18.74C668.54 21.584 670.568 23.18 672.764 23.18ZM679.656 18.464V15.548H681.36C682.38 15.548 683.004 16.124 683.004 17.024C683.004 17.9 682.38 18.464 681.36 18.464H679.656ZM681.576 19.52C683.148 19.52 684.204 18.452 684.204 17.012C684.204 15.584 683.148 14.492 681.576 14.492H678.48V23H679.656V19.52H681.576ZM689.724 23.18C691.68 23.18 693.024 22.04 693.48 20.444L692.436 20.06C692.088 21.224 691.176 22.1 689.724 22.1C688.176 22.1 686.7 20.96 686.7 18.74C686.7 16.52 688.176 15.392 689.724 15.392C691.116 15.392 692.052 16.112 692.376 17.396L693.468 17.012C693.036 15.368 691.668 14.312 689.724 14.312C687.612 14.312 685.5 15.896 685.5 18.74C685.5 21.584 687.528 23.18 689.724 23.18Z" fill="#38454F"/>
<path d="M673.76 52.872V51.144C675.68 50.84 676.736 49.48 676.736 48.008C676.736 46.568 675.824 45.368 673.808 44.92L672.352 44.584C671.6 44.424 671.248 44.008 671.248 43.512C671.248 42.856 671.808 42.264 672.832 42.264C674.144 42.264 674.56 43.192 674.656 43.752L676.624 43.192C676.4 42.12 675.6 40.84 673.76 40.504V38.744H672.128V40.456C670.416 40.728 669.104 41.976 669.104 43.672C669.104 45.208 670.176 46.296 671.904 46.68L673.376 47C674.176 47.176 674.576 47.592 674.576 48.136C674.576 48.84 673.968 49.336 672.928 49.336C671.456 49.336 670.784 48.408 670.688 47.4L668.704 47.88C668.848 49.24 669.904 50.856 672.128 51.16V52.872H673.76ZM680.699 44.632C680.651 44.456 680.619 44.248 680.619 44.056C680.619 43.08 681.163 42.328 682.267 42.328C683.307 42.328 683.835 43 683.835 43.752C683.835 44.472 683.483 45.016 682.603 45.544L680.891 46.568C679.035 47.688 678.459 49.176 678.443 51H686.123V49.096H681.147C681.307 48.696 681.643 48.408 682.043 48.152L684.043 46.936C685.323 46.152 686.059 45.064 686.059 43.72C686.059 41.912 684.635 40.376 682.315 40.376C679.899 40.376 678.523 42.024 678.523 43.848C678.523 44.104 678.571 44.424 678.603 44.568L680.699 44.632ZM688.043 49.656C688.043 50.456 688.699 51.112 689.499 51.112C690.315 51.112 690.971 50.456 690.971 49.656C690.971 48.856 690.315 48.2 689.499 48.2C688.699 48.2 688.043 48.856 688.043 49.656ZM696.259 51V40.616H694.355C694.147 41.704 693.091 42.552 691.571 42.568V44.056H694.067V51H696.259ZM703.003 51V40.616H701.099C700.891 41.704 699.835 42.552 698.315 42.568V44.056H700.811V51H703.003Z" fill="#38454F"/>
<path d="M724.81 51H725.87L723.05 43.91H721.92L719.1 51H720.15L720.9 49.02H724.04L724.81 51ZM722.46 44.93L723.69 48.11H721.25L722.46 44.93ZM729.106 49.74L726.966 43.91H725.926L728.596 51H729.566L732.296 43.91H731.266L729.106 49.74ZM738.008 51V50.09H734.678V47.92H737.698V47H734.678V44.82H738.008V43.91H733.698V51H738.008ZM743.579 51H744.719L743.029 48.03C744.099 47.83 744.749 47.04 744.749 46.02C744.749 44.85 743.919 43.91 742.579 43.91H739.909V51H740.899V48.1H741.959L743.579 51ZM740.899 47.22V44.79H742.399C743.199 44.79 743.739 45.27 743.739 46.02C743.739 46.75 743.199 47.22 742.399 47.22H740.899ZM751.361 51H752.421L749.601 43.91H748.471L745.651 51H746.701L747.451 49.02H750.591L751.361 51ZM749.011 44.93L750.241 48.11H747.801L749.011 44.93ZM759.71 51V47.53H756.32V48.41H758.78C758.74 49.14 758.17 50.26 756.59 50.26C755.32 50.26 754.12 49.33 754.12 47.45C754.12 45.57 755.36 44.66 756.63 44.66C757.73 44.66 758.56 45.26 758.88 46.28L759.77 45.9C759.36 44.62 758.17 43.76 756.63 43.76C754.88 43.76 753.12 45.05 753.12 47.45C753.12 49.85 754.78 51.15 756.56 51.15C757.75 51.15 758.52 50.56 758.83 50L758.92 51H759.71ZM765.926 51V50.09H762.596V47.92H765.616V47H762.596V44.82H765.926V43.91H761.616V51H765.926Z" fill="#7C8A95"/>
<rect x="869.5" y="0.5" width="192" height="73" stroke="#DCDFF2"/>
<rect x="869" width="193" height="4" fill="#D17C2E"/>
<path d="M891.504 16.424C891.312 15.5 890.544 14.312 888.624 14.312C887.052 14.312 885.816 15.512 885.816 16.844C885.816 18.116 886.68 18.908 887.892 19.172L889.104 19.436C889.956 19.616 890.376 20.144 890.376 20.756C890.376 21.5 889.8 22.112 888.624 22.112C887.34 22.112 886.668 21.236 886.584 20.288L885.456 20.648C885.612 21.86 886.584 23.18 888.636 23.18C890.448 23.18 891.576 21.98 891.576 20.66C891.576 19.472 890.784 18.584 889.368 18.272L888.096 17.996C887.376 17.84 887.004 17.372 887.004 16.76C887.004 15.968 887.688 15.344 888.648 15.344C889.836 15.344 890.352 16.184 890.448 16.796L891.504 16.424ZM893.055 21.452C893.055 22.364 893.811 23.18 894.987 23.18C896.019 23.18 896.595 22.628 896.847 22.22C896.847 22.64 896.883 22.856 896.907 23H898.011C897.987 22.856 897.939 22.556 897.939 22.052V19.16C897.939 18.032 897.267 17.048 895.539 17.048C894.291 17.048 893.295 17.816 893.175 18.92L894.255 19.172C894.327 18.5 894.771 18.008 895.563 18.008C896.439 18.008 896.811 18.476 896.811 19.04C896.811 19.244 896.715 19.424 896.367 19.472L894.807 19.7C893.811 19.844 893.055 20.42 893.055 21.452ZM895.143 22.232C894.567 22.232 894.207 21.824 894.207 21.392C894.207 20.876 894.567 20.6 895.047 20.528L896.811 20.264V20.528C896.811 21.788 896.067 22.232 895.143 22.232ZM901.224 23V14.312H900.096V23H901.224ZM904.275 19.52C904.323 18.776 904.899 18.044 905.847 18.044C906.867 18.044 907.407 18.692 907.431 19.52H904.275ZM907.599 21.02C907.383 21.668 906.915 22.184 905.979 22.184C905.007 22.184 904.263 21.464 904.239 20.432H908.583C908.595 20.36 908.607 20.216 908.607 20.072C908.607 18.272 907.611 17.048 905.835 17.048C904.383 17.048 903.075 18.284 903.075 20.096C903.075 22.052 904.431 23.18 905.979 23.18C907.323 23.18 908.247 22.376 908.571 21.356L907.599 21.02ZM909.907 21.5C910.003 22.16 910.675 23.18 912.259 23.18C913.687 23.18 914.371 22.208 914.371 21.392C914.371 20.54 913.819 19.904 912.775 19.676L911.839 19.472C911.395 19.376 911.179 19.124 911.179 18.776C911.179 18.38 911.563 18.008 912.139 18.008C913.051 18.008 913.291 18.668 913.339 18.968L914.335 18.596C914.215 18.08 913.723 17.048 912.139 17.048C911.011 17.048 910.087 17.888 910.087 18.872C910.087 19.688 910.627 20.3 911.527 20.492L912.511 20.708C912.991 20.816 913.255 21.092 913.255 21.452C913.255 21.86 912.907 22.22 912.271 22.22C911.455 22.22 910.999 21.74 910.927 21.14L909.907 21.5Z" fill="#D17C2E"/>
<path d="M890.76 52.872V51.144C892.68 50.84 893.736 49.48 893.736 48.008C893.736 46.568 892.824 45.368 890.808 44.92L889.352 44.584C888.6 44.424 888.248 44.008 888.248 43.512C888.248 42.856 888.808 42.264 889.832 42.264C891.144 42.264 891.56 43.192 891.656 43.752L893.624 43.192C893.4 42.12 892.6 40.84 890.76 40.504V38.744H889.128V40.456C887.416 40.728 886.104 41.976 886.104 43.672C886.104 45.208 887.176 46.296 888.904 46.68L890.376 47C891.176 47.176 891.576 47.592 891.576 48.136C891.576 48.84 890.968 49.336 889.928 49.336C888.456 49.336 887.784 48.408 887.688 47.4L885.704 47.88C885.848 49.24 886.904 50.856 889.128 51.16V52.872H890.76ZM898.293 46.392C898.517 46.312 898.789 46.232 899.237 46.232C900.229 46.232 900.933 46.792 900.933 47.768C900.933 48.632 900.277 49.336 899.173 49.336C898.085 49.336 897.333 48.568 897.285 47.512L895.157 47.928C895.285 49.672 896.757 51.24 899.173 51.24C901.685 51.24 903.157 49.592 903.157 47.8C903.157 45.896 901.717 44.696 900.149 44.632L902.837 42.392V40.616H895.493V42.52H900.037L897.317 44.856L898.293 46.392ZM912.611 40.856C912.179 40.6 911.395 40.376 910.435 40.376C907.011 40.376 904.675 42.744 904.675 46.472C904.675 49.608 906.611 51.24 908.883 51.24C911.171 51.24 912.899 49.72 912.899 47.592C912.899 45.448 911.443 44.104 909.315 44.104C908.099 44.104 907.235 44.68 906.851 45.256C907.091 43.304 908.531 42.28 910.291 42.28C910.947 42.28 911.555 42.456 912.003 42.648L912.611 40.856ZM907.043 47.64C907.043 46.568 907.875 45.912 908.867 45.912C909.875 45.912 910.707 46.568 910.707 47.64C910.707 48.712 909.875 49.384 908.867 49.384C907.907 49.384 907.043 48.696 907.043 47.64ZM918.712 51V40.616H916.808C916.6 41.704 915.544 42.552 914.024 42.568V44.056H916.52V51H918.712ZM921.138 49.72C921.138 50.488 921.682 51.048 922.466 51.048C922.642 51.048 922.818 51 922.882 50.952C922.85 51.832 922.082 52.52 921.362 52.68V53.704C922.546 53.56 924.178 52.568 924.178 50.216C924.178 49.176 923.586 48.376 922.594 48.376C921.762 48.376 921.138 48.952 921.138 49.72ZM932.906 40.616H925.018V42.52H930.362C930.362 42.52 926.89 45.416 926.458 51H928.746C929.21 45.768 932.122 43.128 932.906 42.456V40.616ZM933.209 48.776H938.121V51H940.297V48.776H942.009V46.888H940.297V40.616H937.577L933.209 46.472V48.776ZM938.121 46.888H935.161L938.121 42.92V46.888ZM945.508 45.816C945.508 44.728 945.668 43.8 946.068 43.176C946.388 42.664 946.884 42.328 947.636 42.328C948.404 42.328 948.868 42.664 949.188 43.176C949.604 43.8 949.764 44.728 949.764 45.816C949.764 46.904 949.604 47.832 949.188 48.456C948.868 48.968 948.404 49.304 947.636 49.304C946.884 49.304 946.388 48.968 946.068 48.456C945.668 47.832 945.508 46.904 945.508 45.816ZM943.3 45.816C943.3 47.144 943.508 48.44 944.212 49.512C944.9 50.536 946.02 51.256 947.636 51.256C949.252 51.256 950.372 50.536 951.044 49.512C951.748 48.44 951.972 47.144 951.972 45.816C951.972 44.488 951.748 43.192 951.044 42.12C950.372 41.096 949.252 40.376 947.636 40.376C946.02 40.376 944.9 41.096 944.212 42.12C943.508 43.192 943.3 44.488 943.3 45.816ZM953.411 49.656C953.411 50.456 954.067 51.112 954.867 51.112C955.683 51.112 956.339 50.456 956.339 49.656C956.339 48.856 955.683 48.2 954.867 48.2C954.067 48.2 953.411 48.856 953.411 49.656ZM958.417 50.664C958.961 51 959.937 51.24 960.817 51.24C964.369 51.24 966.241 49.032 966.241 45.288C966.241 41.976 964.353 40.376 962.097 40.376C959.793 40.376 958.113 41.896 958.113 44.024C958.113 46.168 959.761 47.512 961.697 47.512C962.785 47.512 963.665 47.048 964.097 46.392C963.953 48.296 962.689 49.336 960.801 49.336C960.081 49.336 959.329 49.096 958.961 48.888L958.417 50.664ZM963.809 43.96C963.809 44.984 962.993 45.672 962.017 45.672C961.041 45.672 960.241 45 960.241 43.96C960.241 42.936 961.057 42.248 962.017 42.248C962.993 42.248 963.809 42.936 963.809 43.96ZM967.809 48.776H972.721V51H974.897V48.776H976.609V46.888H974.897V40.616H972.177L967.809 46.472V48.776ZM972.721 46.888H969.761L972.721 42.92V46.888Z" fill="#38454F"/>
<path d="M996.82 44.82V43.91H991.1V44.82H993.47V51H994.45V44.82H996.82ZM998.514 47.45C998.514 45.6 999.754 44.66 1001.07 44.66C1002.39 44.66 1003.63 45.6 1003.63 47.45C1003.63 49.3 1002.39 50.25 1001.07 50.25C999.754 50.25 998.514 49.3 998.514 47.45ZM997.514 47.45C997.514 49.82 999.294 51.15 1001.07 51.15C1002.85 51.15 1004.63 49.82 1004.63 47.45C1004.63 45.08 1002.85 43.76 1001.07 43.76C999.294 43.76 997.514 45.08 997.514 47.45ZM1011.05 44.82V43.91H1005.33V44.82H1007.7V51H1008.68V44.82H1011.05ZM1016.7 51H1017.76L1014.94 43.91H1013.81L1010.99 51H1012.04L1012.79 49.02H1015.93L1016.7 51ZM1014.35 44.93L1015.58 48.11H1013.14L1014.35 44.93ZM1023.49 51V50.08H1020.14V43.91H1019.16V51H1023.49Z" fill="#7C8A95"/>
<path d="M59.0747 135.888C59.1827 137.112 60.2987 138.192 61.9547 138.192C63.6827 138.192 64.8107 137.004 64.8107 135.54C64.8107 133.932 63.6947 132.96 62.1707 132.96C61.5587 132.96 60.9347 133.152 60.5867 133.536L61.1627 131.304H64.4867V130.224H60.3827L59.3747 134.088C59.7707 134.232 60.1187 134.388 60.5267 134.544C60.8627 134.196 61.3907 133.98 61.9427 133.98C62.8427 133.98 63.6227 134.52 63.6227 135.588C63.6227 136.548 62.8787 137.16 61.9547 137.16C60.9827 137.16 60.2747 136.512 60.2027 135.552L59.0747 135.888ZM67.3929 134.112C67.3929 132.924 67.6089 132.084 68.0769 131.592C68.3769 131.28 68.7609 131.088 69.3129 131.088C69.8649 131.088 70.2489 131.28 70.5489 131.592C71.0169 132.084 71.2329 132.924 71.2329 134.112C71.2329 135.3 71.0169 136.14 70.5489 136.632C70.2489 136.944 69.8649 137.136 69.3129 137.136C68.7609 137.136 68.3769 136.944 68.0769 136.632C67.6089 136.14 67.3929 135.3 67.3929 134.112ZM66.2289 134.112C66.2289 135.18 66.4089 136.164 66.9249 136.932C67.4289 137.688 68.2089 138.18 69.3129 138.18C70.4169 138.18 71.1969 137.688 71.7009 136.932C72.2169 136.164 72.3969 135.18 72.3969 134.112C72.3969 133.044 72.2169 132.06 71.7009 131.292C71.1969 130.536 70.4169 130.044 69.3129 130.044C68.2089 130.044 67.4289 130.536 66.9249 131.292C66.4089 132.06 66.2289 133.044 66.2289 134.112Z" fill="#478BB4"/>
<path d="M58.7583 173.248H62.5743V175H63.7143V173.248H65.0463V172.156H63.7143V167.224H62.0943L58.7583 171.892V173.248ZM62.5743 172.156H59.8383L62.5743 168.352V172.156ZM67.3929 171.112C67.3929 169.924 67.6089 169.084 68.0769 168.592C68.3769 168.28 68.7609 168.088 69.3129 168.088C69.8649 168.088 70.2489 168.28 70.5489 168.592C71.0169 169.084 71.2329 169.924 71.2329 171.112C71.2329 172.3 71.0169 173.14 70.5489 173.632C70.2489 173.944 69.8649 174.136 69.3129 174.136C68.7609 174.136 68.3769 173.944 68.0769 173.632C67.6089 173.14 67.3929 172.3 67.3929 171.112ZM66.2289 171.112C66.2289 172.18 66.4089 173.164 66.9249 173.932C67.4289 174.688 68.2089 175.18 69.3129 175.18C70.4169 175.18 71.1969 174.688 71.7009 173.932C72.2169 173.164 72.3969 172.18 72.3969 171.112C72.3969 170.044 72.2169 169.06 71.7009 168.292C71.1969 167.536 70.4169 167.044 69.3129 167.044C68.2089 167.044 67.4289 167.536 66.9249 168.292C66.4089 169.06 66.2289 170.044 66.2289 171.112Z" fill="#478BB4"/>
<path d="M61.2961 208.388C61.5001 208.316 61.7401 208.268 61.9801 208.268C62.7481 208.268 63.5641 208.7 63.5641 209.72C63.5641 210.5 62.9881 211.16 61.9201 211.16C60.9841 211.16 60.2401 210.512 60.1921 209.48L59.0401 209.744C59.1121 211.016 60.1321 212.192 61.9321 212.192C63.7441 212.192 64.7521 211.004 64.7521 209.696C64.7521 208.1 63.4921 207.332 62.3521 207.332L64.5721 205.28V204.224H59.2921V205.304H63.0121L60.7201 207.416L61.2961 208.388ZM67.3929 208.112C67.3929 206.924 67.6089 206.084 68.0769 205.592C68.3769 205.28 68.7609 205.088 69.3129 205.088C69.8649 205.088 70.2489 205.28 70.5489 205.592C71.0169 206.084 71.2329 206.924 71.2329 208.112C71.2329 209.3 71.0169 210.14 70.5489 210.632C70.2489 210.944 69.8649 211.136 69.3129 211.136C68.7609 211.136 68.3769 210.944 68.0769 210.632C67.6089 210.14 67.3929 209.3 67.3929 208.112ZM66.2289 208.112C66.2289 209.18 66.4089 210.164 66.9249 210.932C67.4289 211.688 68.2089 212.18 69.3129 212.18C70.4169 212.18 71.1969 211.688 71.7009 210.932C72.2169 210.164 72.3969 209.18 72.3969 208.112C72.3969 207.044 72.2169 206.06 71.7009 205.292C71.1969 204.536 70.4169 204.044 69.3129 204.044C68.2089 204.044 67.4289 204.536 66.9249 205.292C66.4089 206.06 66.2289 207.044 66.2289 208.112Z" fill="#478BB4"/>
<path d="M60.5693 244.02C60.5573 243.9 60.5453 243.78 60.5453 243.672C60.5453 242.784 61.0253 242.076 62.0453 242.076C63.0293 242.076 63.5093 242.736 63.5093 243.444C63.5093 244.044 63.1733 244.596 62.4413 245.064L61.1453 245.904C59.8253 246.756 59.3213 247.728 59.2973 249H64.7453V247.908H60.7493C60.8573 247.428 61.2533 247.104 61.6973 246.816L63.2333 245.832C64.1213 245.268 64.6973 244.452 64.6973 243.432C64.6973 242.136 63.7373 241.044 62.0693 241.044C60.3653 241.044 59.3813 242.232 59.3813 243.564C59.3813 243.66 59.3813 243.768 59.3933 243.876L60.5693 244.02ZM67.3929 245.112C67.3929 243.924 67.6089 243.084 68.0769 242.592C68.3769 242.28 68.7609 242.088 69.3129 242.088C69.8649 242.088 70.2489 242.28 70.5489 242.592C71.0169 243.084 71.2329 243.924 71.2329 245.112C71.2329 246.3 71.0169 247.14 70.5489 247.632C70.2489 247.944 69.8649 248.136 69.3129 248.136C68.7609 248.136 68.3769 247.944 68.0769 247.632C67.6089 247.14 67.3929 246.3 67.3929 245.112ZM66.2289 245.112C66.2289 246.18 66.4089 247.164 66.9249 247.932C67.4289 248.688 68.2089 249.18 69.3129 249.18C70.4169 249.18 71.1969 248.688 71.7009 247.932C72.2169 247.164 72.3969 246.18 72.3969 245.112C72.3969 244.044 72.2169 243.06 71.7009 242.292C71.1969 241.536 70.4169 241.044 69.3129 241.044C68.2089 241.044 67.4289 241.536 66.9249 242.292C66.4089 243.06 66.2289 244.044 66.2289 245.112Z" fill="#478BB4"/>
<path d="M64.2758 286V278.224H63.2438C63.0638 279.064 62.3198 279.664 61.2398 279.688V280.516H63.1238V286H64.2758ZM67.3929 282.112C67.3929 280.924 67.6089 280.084 68.0769 279.592C68.3769 279.28 68.7609 279.088 69.3129 279.088C69.8649 279.088 70.2489 279.28 70.5489 279.592C71.0169 280.084 71.2329 280.924 71.2329 282.112C71.2329 283.3 71.0169 284.14 70.5489 284.632C70.2489 284.944 69.8649 285.136 69.3129 285.136C68.7609 285.136 68.3769 284.944 68.0769 284.632C67.6089 284.14 67.3929 283.3 67.3929 282.112ZM66.2289 282.112C66.2289 283.18 66.4089 284.164 66.9249 284.932C67.4289 285.688 68.2089 286.18 69.3129 286.18C70.4169 286.18 71.1969 285.688 71.7009 284.932C72.2169 284.164 72.3969 283.18 72.3969 282.112C72.3969 281.044 72.2169 280.06 71.7009 279.292C71.1969 278.536 70.4169 278.044 69.3129 278.044C68.2089 278.044 67.4289 278.536 66.9249 279.292C66.4089 280.06 66.2289 281.044 66.2289 282.112Z" fill="#478BB4"/>
<path d="M1003.7 134.388C1003.9 134.316 1004.14 134.268 1004.38 134.268C1005.15 134.268 1005.97 134.7 1005.97 135.72C1005.97 136.5 1005.39 137.16 1004.32 137.16C1003.39 137.16 1002.64 136.512 1002.6 135.48L1001.44 135.744C1001.52 137.016 1002.54 138.192 1004.34 138.192C1006.15 138.192 1007.16 137.004 1007.16 135.696C1007.16 134.1 1005.9 133.332 1004.76 133.332L1006.98 131.28V130.224H1001.7V131.304H1005.42L1003.12 133.416L1003.7 134.388ZM1009.72 133.02C1009.71 132.9 1009.7 132.78 1009.7 132.672C1009.7 131.784 1010.18 131.076 1011.2 131.076C1012.18 131.076 1012.66 131.736 1012.66 132.444C1012.66 133.044 1012.33 133.596 1011.6 134.064L1010.3 134.904C1008.98 135.756 1008.48 136.728 1008.45 138H1013.9V136.908H1009.9C1010.01 136.428 1010.41 136.104 1010.85 135.816L1012.39 134.832C1013.28 134.268 1013.85 133.452 1013.85 132.432C1013.85 131.136 1012.89 130.044 1011.22 130.044C1009.52 130.044 1008.54 131.232 1008.54 132.564C1008.54 132.66 1008.54 132.768 1008.55 132.876L1009.72 133.02ZM1020.92 132.228H1019.36L1016.86 134.784V129.312H1015.74V138H1016.86V136.26L1017.66 135.456L1019.55 138H1020.96L1018.46 134.664L1020.92 132.228Z" fill="#D17C2E"/>
<path d="M1002.69 170.02C1002.68 169.9 1002.67 169.78 1002.67 169.672C1002.67 168.784 1003.15 168.076 1004.17 168.076C1005.15 168.076 1005.63 168.736 1005.63 169.444C1005.63 170.044 1005.3 170.596 1004.56 171.064L1003.27 171.904C1001.95 172.756 1001.44 173.728 1001.42 175H1006.87V173.908H1002.87C1002.98 173.428 1003.38 173.104 1003.82 172.816L1005.36 171.832C1006.24 171.268 1006.82 170.452 1006.82 169.432C1006.82 168.136 1005.86 167.044 1004.19 167.044C1002.49 167.044 1001.5 168.232 1001.5 169.564C1001.5 169.66 1001.5 169.768 1001.52 169.876L1002.69 170.02ZM1008 173.248H1011.81V175H1012.95V173.248H1014.28V172.156H1012.95V167.224H1011.33L1008 171.892V173.248ZM1011.81 172.156H1009.08L1011.81 168.352V172.156ZM1021 169.228H1019.44L1016.94 171.784V166.312H1015.83V175H1016.94V173.26L1017.75 172.456L1019.63 175H1021.05L1018.54 171.664L1021 169.228Z" fill="#D17C2E"/>
<path d="M1004.34 212V204.224H1003.3C1003.12 205.064 1002.38 205.664 1001.3 205.688V206.516H1003.18V212H1004.34ZM1011.99 204.476C1011.63 204.224 1011.02 204.044 1010.31 204.044C1008.04 204.044 1006.3 205.688 1006.3 208.58C1006.3 211.148 1007.85 212.18 1009.34 212.18C1010.86 212.18 1012.22 211.196 1012.22 209.528C1012.22 207.836 1011.09 206.876 1009.55 206.876C1008.52 206.876 1007.81 207.368 1007.5 207.884C1007.6 206.288 1008.62 205.1 1010.24 205.1C1010.83 205.1 1011.34 205.268 1011.63 205.436L1011.99 204.476ZM1007.67 209.528C1007.67 208.484 1008.45 207.884 1009.35 207.884C1010.25 207.884 1011.03 208.484 1011.03 209.528C1011.03 210.56 1010.26 211.16 1009.35 211.16C1008.5 211.16 1007.67 210.548 1007.67 209.528ZM1019.18 206.228H1017.62L1015.13 208.784V203.312H1014.01V212H1015.13V210.26L1015.93 209.456L1017.81 212H1019.23L1016.72 208.664L1019.18 206.228Z" fill="#D17C2E"/>
<path d="M1004.36 244.536C1003.53 244.524 1002.92 244.02 1002.92 243.264C1002.92 242.568 1003.48 242.016 1004.36 242.016C1005.24 242.016 1005.8 242.568 1005.8 243.264C1005.8 244.02 1005.19 244.524 1004.36 244.536ZM1004.36 248.16C1003.32 248.16 1002.73 247.584 1002.73 246.852C1002.73 246.108 1003.33 245.52 1004.36 245.52C1005.39 245.52 1005.99 246.108 1005.99 246.852C1005.99 247.584 1005.4 248.16 1004.36 248.16ZM1004.36 249.18C1006.15 249.18 1007.18 248.196 1007.18 246.948C1007.18 246 1006.53 245.292 1005.7 245.028C1006.42 244.764 1006.98 244.044 1006.98 243.204C1006.98 241.932 1005.85 241.044 1004.36 241.044C1002.87 241.044 1001.74 241.932 1001.74 243.204C1001.74 244.068 1002.31 244.764 1003.02 245.028C1002.19 245.304 1001.54 246 1001.54 246.948C1001.54 248.196 1002.57 249.18 1004.36 249.18ZM1014.25 243.228H1012.69L1010.19 245.784V240.312H1009.07V249H1010.19V247.26L1010.99 246.456L1012.88 249H1014.29L1011.79 245.664L1014.25 243.228Z" fill="#D17C2E"/>
<path d="M1002.76 282.112C1002.76 280.924 1002.98 280.084 1003.45 279.592C1003.75 279.28 1004.13 279.088 1004.68 279.088C1005.24 279.088 1005.62 279.28 1005.92 279.592C1006.39 280.084 1006.6 280.924 1006.6 282.112C1006.6 283.3 1006.39 284.14 1005.92 284.632C1005.62 284.944 1005.24 285.136 1004.68 285.136C1004.13 285.136 1003.75 284.944 1003.45 284.632C1002.98 284.14 1002.76 283.3 1002.76 282.112ZM1001.6 282.112C1001.6 283.18 1001.78 284.164 1002.3 284.932C1002.8 285.688 1003.58 286.18 1004.68 286.18C1005.79 286.18 1006.57 285.688 1007.07 284.932C1007.59 284.164 1007.77 283.18 1007.77 282.112C1007.77 281.044 1007.59 280.06 1007.07 279.292C1006.57 278.536 1005.79 278.044 1004.68 278.044C1003.58 278.044 1002.8 278.536 1002.3 279.292C1001.78 280.06 1001.6 281.044 1001.6 282.112Z" fill="#D17C2E"/>
<path d="M929.673 316V308.224H928.641C928.461 309.064 927.717 309.664 926.637 309.688V310.516H928.521V316H929.673ZM932.718 311.02C932.706 310.9 932.694 310.78 932.694 310.672C932.694 309.784 933.174 309.076 934.194 309.076C935.178 309.076 935.658 309.736 935.658 310.444C935.658 311.044 935.322 311.596 934.59 312.064L933.294 312.904C931.974 313.756 931.47 314.728 931.446 316H936.894V314.908H932.898C933.006 314.428 933.402 314.104 933.846 313.816L935.382 312.832C936.27 312.268 936.846 311.452 936.846 310.432C936.846 309.136 935.886 308.044 934.218 308.044C932.514 308.044 931.53 309.232 931.53 310.564C931.53 310.66 931.53 310.768 931.542 310.876L932.718 311.02ZM942.985 307.492H941.893L937.777 316H938.869L942.985 307.492ZM944.838 311.02C944.826 310.9 944.814 310.78 944.814 310.672C944.814 309.784 945.294 309.076 946.314 309.076C947.298 309.076 947.778 309.736 947.778 310.444C947.778 311.044 947.442 311.596 946.71 312.064L945.414 312.904C944.094 313.756 943.59 314.728 943.566 316H949.014V314.908H945.018C945.126 314.428 945.522 314.104 945.966 313.816L947.502 312.832C948.39 312.268 948.966 311.452 948.966 310.432C948.966 309.136 948.006 308.044 946.338 308.044C944.634 308.044 943.65 309.232 943.65 310.564C943.65 310.66 943.65 310.768 943.662 310.876L944.838 311.02ZM951.59 311.02C951.578 310.9 951.566 310.78 951.566 310.672C951.566 309.784 952.046 309.076 953.066 309.076C954.05 309.076 954.53 309.736 954.53 310.444C954.53 311.044 954.194 311.596 953.462 312.064L952.166 312.904C950.846 313.756 950.342 314.728 950.318 316H955.766V314.908H951.77C951.878 314.428 952.274 314.104 952.718 313.816L954.254 312.832C955.142 312.268 955.718 311.452 955.718 310.432C955.718 309.136 954.758 308.044 953.09 308.044C951.386 308.044 950.402 309.232 950.402 310.564C950.402 310.66 950.402 310.768 950.414 310.876L951.59 311.02ZM961.857 307.492H960.765L956.649 316H957.741L961.857 307.492ZM963.71 311.02C963.698 310.9 963.686 310.78 963.686 310.672C963.686 309.784 964.166 309.076 965.186 309.076C966.17 309.076 966.65 309.736 966.65 310.444C966.65 311.044 966.314 311.596 965.582 312.064L964.286 312.904C962.966 313.756 962.462 314.728 962.438 316H967.886V314.908H963.89C963.998 314.428 964.394 314.104 964.838 313.816L966.374 312.832C967.262 312.268 967.838 311.452 967.838 310.432C967.838 309.136 966.878 308.044 965.21 308.044C963.506 308.044 962.522 309.232 962.522 310.564C962.522 310.66 962.522 310.768 962.534 310.876L963.71 311.02ZM970.534 312.112C970.534 310.924 970.75 310.084 971.218 309.592C971.518 309.28 971.902 309.088 972.454 309.088C973.006 309.088 973.39 309.28 973.69 309.592C974.158 310.084 974.374 310.924 974.374 312.112C974.374 313.3 974.158 314.14 973.69 314.632C973.39 314.944 973.006 315.136 972.454 315.136C971.902 315.136 971.518 314.944 971.218 314.632C970.75 314.14 970.534 313.3 970.534 312.112ZM969.37 312.112C969.37 313.18 969.55 314.164 970.066 314.932C970.57 315.688 971.35 316.18 972.454 316.18C973.558 316.18 974.338 315.688 974.842 314.932C975.358 314.164 975.538 313.18 975.538 312.112C975.538 311.044 975.358 310.06 974.842 309.292C974.338 308.536 973.558 308.044 972.454 308.044C971.35 308.044 970.57 308.536 970.066 309.292C969.55 310.06 969.37 311.044 969.37 312.112ZM978.233 311.02C978.221 310.9 978.209 310.78 978.209 310.672C978.209 309.784 978.689 309.076 979.709 309.076C980.693 309.076 981.173 309.736 981.173 310.444C981.173 311.044 980.837 311.596 980.105 312.064L978.809 312.904C977.489 313.756 976.985 314.728 976.961 316H982.409V314.908H978.413C978.521 314.428 978.917 314.104 979.361 313.816L980.897 312.832C981.785 312.268 982.361 311.452 982.361 310.432C982.361 309.136 981.401 308.044 979.733 308.044C978.029 308.044 977.045 309.232 977.045 310.564C977.045 310.66 977.045 310.768 977.057 310.876L978.233 311.02ZM985.056 312.112C985.056 310.924 985.272 310.084 985.74 309.592C986.04 309.28 986.424 309.088 986.976 309.088C987.528 309.088 987.912 309.28 988.212 309.592C988.68 310.084 988.896 310.924 988.896 312.112C988.896 313.3 988.68 314.14 988.212 314.632C987.912 314.944 987.528 315.136 986.976 315.136C986.424 315.136 986.04 314.944 985.74 314.632C985.272 314.14 985.056 313.3 985.056 312.112ZM983.892 312.112C983.892 313.18 984.072 314.164 984.588 314.932C985.092 315.688 985.872 316.18 986.976 316.18C988.08 316.18 988.86 315.688 989.364 314.932C989.88 314.164 990.06 313.18 990.06 312.112C990.06 311.044 989.88 310.06 989.364 309.292C988.86 308.536 988.08 308.044 986.976 308.044C985.872 308.044 985.092 308.536 984.588 309.292C984.072 310.06 983.892 311.044 983.892 312.112Z" fill="#7C8A95"/>
<path d="M846.282 316V308.224H845.25C845.07 309.064 844.326 309.664 843.246 309.688V310.516H845.13V316H846.282ZM849.327 311.02C849.315 310.9 849.303 310.78 849.303 310.672C849.303 309.784 849.783 309.076 850.803 309.076C851.787 309.076 852.267 309.736 852.267 310.444C852.267 311.044 851.931 311.596 851.199 312.064L849.903 312.904C848.583 313.756 848.079 314.728 848.055 316H853.503V314.908H849.507C849.615 314.428 850.011 314.104 850.455 313.816L851.991 312.832C852.879 312.268 853.455 311.452 853.455 310.432C853.455 309.136 852.495 308.044 850.827 308.044C849.123 308.044 848.139 309.232 848.139 310.564C848.139 310.66 848.139 310.768 848.151 310.876L849.327 311.02ZM859.595 307.492H858.503L854.387 316H855.479L859.595 307.492ZM863.326 316V308.224H862.294C862.114 309.064 861.37 309.664 860.29 309.688V310.516H862.174V316H863.326ZM870.979 308.476C870.619 308.224 870.007 308.044 869.299 308.044C867.031 308.044 865.291 309.688 865.291 312.58C865.291 315.148 866.839 316.18 868.327 316.18C869.851 316.18 871.207 315.196 871.207 313.528C871.207 311.836 870.079 310.876 868.543 310.876C867.511 310.876 866.803 311.368 866.491 311.884C866.587 310.288 867.607 309.1 869.227 309.1C869.815 309.1 870.331 309.268 870.619 309.436L870.979 308.476ZM866.659 313.528C866.659 312.484 867.439 311.884 868.339 311.884C869.239 311.884 870.019 312.484 870.019 313.528C870.019 314.56 869.251 315.16 868.339 315.16C867.487 315.16 866.659 314.548 866.659 313.528ZM877.248 307.492H876.156L872.04 316H873.132L877.248 307.492ZM879.101 311.02C879.089 310.9 879.077 310.78 879.077 310.672C879.077 309.784 879.557 309.076 880.577 309.076C881.561 309.076 882.041 309.736 882.041 310.444C882.041 311.044 881.705 311.596 880.973 312.064L879.677 312.904C878.357 313.756 877.853 314.728 877.829 316H883.277V314.908H879.281C879.389 314.428 879.785 314.104 880.229 313.816L881.765 312.832C882.653 312.268 883.229 311.452 883.229 310.432C883.229 309.136 882.269 308.044 880.601 308.044C878.897 308.044 877.913 309.232 877.913 310.564C877.913 310.66 877.913 310.768 877.925 310.876L879.101 311.02ZM885.924 312.112C885.924 310.924 886.14 310.084 886.608 309.592C886.908 309.28 887.292 309.088 887.844 309.088C888.396 309.088 888.78 309.28 889.08 309.592C889.548 310.084 889.764 310.924 889.764 312.112C889.764 313.3 889.548 314.14 889.08 314.632C888.78 314.944 888.396 315.136 887.844 315.136C887.292 315.136 886.908 314.944 886.608 314.632C886.14 314.14 885.924 313.3 885.924 312.112ZM884.76 312.112C884.76 313.18 884.94 314.164 885.456 314.932C885.96 315.688 886.74 316.18 887.844 316.18C888.948 316.18 889.728 315.688 890.232 314.932C890.748 314.164 890.928 313.18 890.928 312.112C890.928 311.044 890.748 310.06 890.232 309.292C889.728 308.536 888.948 308.044 887.844 308.044C886.74 308.044 885.96 308.536 885.456 309.292C884.94 310.06 884.76 311.044 884.76 312.112ZM893.623 311.02C893.611 310.9 893.599 310.78 893.599 310.672C893.599 309.784 894.079 309.076 895.099 309.076C896.083 309.076 896.563 309.736 896.563 310.444C896.563 311.044 896.227 311.596 895.495 312.064L894.199 312.904C892.879 313.756 892.375 314.728 892.351 316H897.799V314.908H893.803C893.911 314.428 894.307 314.104 894.751 313.816L896.287 312.832C897.175 312.268 897.751 311.452 897.751 310.432C897.751 309.136 896.791 308.044 895.123 308.044C893.419 308.044 892.435 309.232 892.435 310.564C892.435 310.66 892.435 310.768 892.447 310.876L893.623 311.02ZM900.447 312.112C900.447 310.924 900.663 310.084 901.131 309.592C901.431 309.28 901.815 309.088 902.367 309.088C902.919 309.088 903.303 309.28 903.603 309.592C904.071 310.084 904.287 310.924 904.287 312.112C904.287 313.3 904.071 314.14 903.603 314.632C903.303 314.944 902.919 315.136 902.367 315.136C901.815 315.136 901.431 314.944 901.131 314.632C900.663 314.14 900.447 313.3 900.447 312.112ZM899.283 312.112C899.283 313.18 899.463 314.164 899.979 314.932C900.483 315.688 901.263 316.18 902.367 316.18C903.471 316.18 904.251 315.688 904.755 314.932C905.271 314.164 905.451 313.18 905.451 312.112C905.451 311.044 905.271 310.06 904.755 309.292C904.251 308.536 903.471 308.044 902.367 308.044C901.263 308.044 900.483 308.536 899.979 309.292C899.463 310.06 899.283 311.044 899.283 312.112Z" fill="#7C8A95"/>
<path d="M762.317 316V308.224H761.285C761.105 309.064 760.361 309.664 759.281 309.688V310.516H761.165V316H762.317ZM765.362 311.02C765.35 310.9 765.338 310.78 765.338 310.672C765.338 309.784 765.818 309.076 766.838 309.076C767.822 309.076 768.302 309.736 768.302 310.444C768.302 311.044 767.966 311.596 767.234 312.064L765.938 312.904C764.618 313.756 764.114 314.728 764.09 316H769.538V314.908H765.542C765.65 314.428 766.046 314.104 766.49 313.816L768.026 312.832C768.914 312.268 769.49 311.452 769.49 310.432C769.49 309.136 768.53 308.044 766.862 308.044C765.158 308.044 764.174 309.232 764.174 310.564C764.174 310.66 764.174 310.768 764.186 310.876L765.362 311.02ZM775.63 307.492H774.538L770.422 316H771.514L775.63 307.492ZM779.361 316V308.224H778.329C778.149 309.064 777.405 309.664 776.325 309.688V310.516H778.209V316H779.361ZM782.478 312.112C782.478 310.924 782.694 310.084 783.162 309.592C783.462 309.28 783.846 309.088 784.398 309.088C784.95 309.088 785.334 309.28 785.634 309.592C786.102 310.084 786.318 310.924 786.318 312.112C786.318 313.3 786.102 314.14 785.634 314.632C785.334 314.944 784.95 315.136 784.398 315.136C783.846 315.136 783.462 314.944 783.162 314.632C782.694 314.14 782.478 313.3 782.478 312.112ZM781.314 312.112C781.314 313.18 781.494 314.164 782.01 314.932C782.514 315.688 783.294 316.18 784.398 316.18C785.502 316.18 786.282 315.688 786.786 314.932C787.302 314.164 787.482 313.18 787.482 312.112C787.482 311.044 787.302 310.06 786.786 309.292C786.282 308.536 785.502 308.044 784.398 308.044C783.294 308.044 782.514 308.536 782.01 309.292C781.494 310.06 781.314 311.044 781.314 312.112ZM793.213 307.492H792.121L788.005 316H789.097L793.213 307.492ZM795.065 311.02C795.053 310.9 795.041 310.78 795.041 310.672C795.041 309.784 795.521 309.076 796.541 309.076C797.525 309.076 798.005 309.736 798.005 310.444C798.005 311.044 797.669 311.596 796.937 312.064L795.641 312.904C794.321 313.756 793.817 314.728 793.793 316H799.241V314.908H795.245C795.353 314.428 795.749 314.104 796.193 313.816L797.729 312.832C798.617 312.268 799.193 311.452 799.193 310.432C799.193 309.136 798.233 308.044 796.565 308.044C794.861 308.044 793.877 309.232 793.877 310.564C793.877 310.66 793.877 310.768 793.889 310.876L795.065 311.02ZM801.889 312.112C801.889 310.924 802.105 310.084 802.573 309.592C802.873 309.28 803.257 309.088 803.809 309.088C804.361 309.088 804.745 309.28 805.045 309.592C805.513 310.084 805.729 310.924 805.729 312.112C805.729 313.3 805.513 314.14 805.045 314.632C804.745 314.944 804.361 315.136 803.809 315.136C803.257 315.136 802.873 314.944 802.573 314.632C802.105 314.14 801.889 313.3 801.889 312.112ZM800.725 312.112C800.725 313.18 800.905 314.164 801.421 314.932C801.925 315.688 802.705 316.18 803.809 316.18C804.913 316.18 805.693 315.688 806.197 314.932C806.713 314.164 806.893 313.18 806.893 312.112C806.893 311.044 806.713 310.06 806.197 309.292C805.693 308.536 804.913 308.044 803.809 308.044C802.705 308.044 801.925 308.536 801.421 309.292C800.905 310.06 800.725 311.044 800.725 312.112ZM809.588 311.02C809.576 310.9 809.564 310.78 809.564 310.672C809.564 309.784 810.044 309.076 811.064 309.076C812.048 309.076 812.528 309.736 812.528 310.444C812.528 311.044 812.192 311.596 811.46 312.064L810.164 312.904C808.844 313.756 808.34 314.728 808.316 316H813.764V314.908H809.768C809.876 314.428 810.272 314.104 810.716 313.816L812.252 312.832C813.14 312.268 813.716 311.452 813.716 310.432C813.716 309.136 812.756 308.044 811.088 308.044C809.384 308.044 808.4 309.232 808.4 310.564C808.4 310.66 808.4 310.768 808.412 310.876L809.588 311.02ZM816.412 312.112C816.412 310.924 816.628 310.084 817.096 309.592C817.396 309.28 817.78 309.088 818.332 309.088C818.884 309.088 819.268 309.28 819.568 309.592C820.036 310.084 820.252 310.924 820.252 312.112C820.252 313.3 820.036 314.14 819.568 314.632C819.268 314.944 818.884 315.136 818.332 315.136C817.78 315.136 817.396 314.944 817.096 314.632C816.628 314.14 816.412 313.3 816.412 312.112ZM815.248 312.112C815.248 313.18 815.428 314.164 815.944 314.932C816.448 315.688 817.228 316.18 818.332 316.18C819.436 316.18 820.216 315.688 820.72 314.932C821.236 314.164 821.416 313.18 821.416 312.112C821.416 311.044 821.236 310.06 820.72 309.292C820.216 308.536 819.436 308.044 818.332 308.044C817.228 308.044 816.448 308.536 815.944 309.292C815.428 310.06 815.248 311.044 815.248 312.112Z" fill="#7C8A95"/>
<path d="M681.142 316V308.224H680.11C679.93 309.064 679.186 309.664 678.106 309.688V310.516H679.99V316H681.142ZM684.187 311.02C684.175 310.9 684.163 310.78 684.163 310.672C684.163 309.784 684.643 309.076 685.663 309.076C686.647 309.076 687.127 309.736 687.127 310.444C687.127 311.044 686.791 311.596 686.059 312.064L684.763 312.904C683.443 313.756 682.939 314.728 682.915 316H688.363V314.908H684.367C684.475 314.428 684.871 314.104 685.315 313.816L686.851 312.832C687.739 312.268 688.315 311.452 688.315 310.432C688.315 309.136 687.355 308.044 685.687 308.044C683.983 308.044 682.999 309.232 682.999 310.564C682.999 310.66 682.999 310.768 683.011 310.876L684.187 311.02ZM694.455 307.492H693.363L689.247 316H690.339L694.455 307.492ZM694.309 314.248H698.125V316H699.265V314.248H700.597V313.156H699.265V308.224H697.645L694.309 312.892V314.248ZM698.125 313.156H695.389L698.125 309.352V313.156ZM706.388 307.492H705.296L701.18 316H702.272L706.388 307.492ZM708.24 311.02C708.228 310.9 708.216 310.78 708.216 310.672C708.216 309.784 708.696 309.076 709.716 309.076C710.7 309.076 711.18 309.736 711.18 310.444C711.18 311.044 710.844 311.596 710.112 312.064L708.816 312.904C707.496 313.756 706.992 314.728 706.968 316H712.416V314.908H708.42C708.528 314.428 708.924 314.104 709.368 313.816L710.904 312.832C711.792 312.268 712.368 311.452 712.368 310.432C712.368 309.136 711.408 308.044 709.74 308.044C708.036 308.044 707.052 309.232 707.052 310.564C707.052 310.66 707.052 310.768 707.064 310.876L708.24 311.02ZM715.064 312.112C715.064 310.924 715.28 310.084 715.748 309.592C716.048 309.28 716.432 309.088 716.984 309.088C717.536 309.088 717.92 309.28 718.22 309.592C718.688 310.084 718.904 310.924 718.904 312.112C718.904 313.3 718.688 314.14 718.22 314.632C717.92 314.944 717.536 315.136 716.984 315.136C716.432 315.136 716.048 314.944 715.748 314.632C715.28 314.14 715.064 313.3 715.064 312.112ZM713.9 312.112C713.9 313.18 714.08 314.164 714.596 314.932C715.1 315.688 715.88 316.18 716.984 316.18C718.088 316.18 718.868 315.688 719.372 314.932C719.888 314.164 720.068 313.18 720.068 312.112C720.068 311.044 719.888 310.06 719.372 309.292C718.868 308.536 718.088 308.044 716.984 308.044C715.88 308.044 715.1 308.536 714.596 309.292C714.08 310.06 713.9 311.044 713.9 312.112ZM722.763 311.02C722.751 310.9 722.739 310.78 722.739 310.672C722.739 309.784 723.219 309.076 724.239 309.076C725.223 309.076 725.703 309.736 725.703 310.444C725.703 311.044 725.367 311.596 724.635 312.064L723.339 312.904C722.019 313.756 721.515 314.728 721.491 316H726.939V314.908H722.943C723.051 314.428 723.447 314.104 723.891 313.816L725.427 312.832C726.315 312.268 726.891 311.452 726.891 310.432C726.891 309.136 725.931 308.044 724.263 308.044C722.559 308.044 721.575 309.232 721.575 310.564C721.575 310.66 721.575 310.768 721.587 310.876L722.763 311.02ZM729.587 312.112C729.587 310.924 729.803 310.084 730.271 309.592C730.571 309.28 730.955 309.088 731.507 309.088C732.059 309.088 732.443 309.28 732.743 309.592C733.211 310.084 733.427 310.924 733.427 312.112C733.427 313.3 733.211 314.14 732.743 314.632C732.443 314.944 732.059 315.136 731.507 315.136C730.955 315.136 730.571 314.944 730.271 314.632C729.803 314.14 729.587 313.3 729.587 312.112ZM728.423 312.112C728.423 313.18 728.603 314.164 729.119 314.932C729.623 315.688 730.403 316.18 731.507 316.18C732.611 316.18 733.391 315.688 733.895 314.932C734.411 314.164 734.591 313.18 734.591 312.112C734.591 311.044 734.411 310.06 733.895 309.292C733.391 308.536 732.611 308.044 731.507 308.044C730.403 308.044 729.623 308.536 729.119 309.292C728.603 310.06 728.423 311.044 728.423 312.112Z" fill="#7C8A95"/>
<path d="M595.87 316V308.224H594.838C594.658 309.064 593.914 309.664 592.834 309.688V310.516H594.718V316H595.87ZM600.5 316V308.224H599.468C599.288 309.064 598.544 309.664 597.464 309.688V310.516H599.348V316H600.5ZM607.003 307.492H605.911L601.795 316H602.887L607.003 307.492ZM608.856 311.02C608.844 310.9 608.832 310.78 608.832 310.672C608.832 309.784 609.312 309.076 610.332 309.076C611.316 309.076 611.796 309.736 611.796 310.444C611.796 311.044 611.46 311.596 610.728 312.064L609.432 312.904C608.112 313.756 607.608 314.728 607.584 316H613.032V314.908H609.036C609.144 314.428 609.54 314.104 609.984 313.816L611.52 312.832C612.408 312.268 612.984 311.452 612.984 310.432C612.984 309.136 612.024 308.044 610.356 308.044C608.652 308.044 607.668 309.232 607.668 310.564C607.668 310.66 607.668 310.768 607.68 310.876L608.856 311.02ZM617.275 311.536C616.447 311.524 615.835 311.02 615.835 310.264C615.835 309.568 616.399 309.016 617.275 309.016C618.151 309.016 618.715 309.568 618.715 310.264C618.715 311.02 618.103 311.524 617.275 311.536ZM617.275 315.16C616.231 315.16 615.643 314.584 615.643 313.852C615.643 313.108 616.243 312.52 617.275 312.52C618.307 312.52 618.907 313.108 618.907 313.852C618.907 314.584 618.319 315.16 617.275 315.16ZM617.275 316.18C619.063 316.18 620.095 315.196 620.095 313.948C620.095 313 619.447 312.292 618.619 312.028C619.339 311.764 619.891 311.044 619.891 310.204C619.891 308.932 618.763 308.044 617.275 308.044C615.787 308.044 614.659 308.932 614.659 310.204C614.659 311.068 615.223 311.764 615.931 312.028C615.103 312.304 614.455 313 614.455 313.948C614.455 315.196 615.487 316.18 617.275 316.18ZM626.238 307.492H625.146L621.03 316H622.122L626.238 307.492ZM628.091 311.02C628.079 310.9 628.067 310.78 628.067 310.672C628.067 309.784 628.547 309.076 629.567 309.076C630.551 309.076 631.031 309.736 631.031 310.444C631.031 311.044 630.695 311.596 629.963 312.064L628.667 312.904C627.347 313.756 626.843 314.728 626.819 316H632.267V314.908H628.271C628.379 314.428 628.775 314.104 629.219 313.816L630.755 312.832C631.643 312.268 632.219 311.452 632.219 310.432C632.219 309.136 631.259 308.044 629.591 308.044C627.887 308.044 626.903 309.232 626.903 310.564C626.903 310.66 626.903 310.768 626.915 310.876L628.091 311.02ZM634.914 312.112C634.914 310.924 635.13 310.084 635.598 309.592C635.898 309.28 636.282 309.088 636.834 309.088C637.386 309.088 637.77 309.28 638.07 309.592C638.538 310.084 638.754 310.924 638.754 312.112C638.754 313.3 638.538 314.14 638.07 314.632C637.77 314.944 637.386 315.136 636.834 315.136C636.282 315.136 635.898 314.944 635.598 314.632C635.13 314.14 634.914 313.3 634.914 312.112ZM633.75 312.112C633.75 313.18 633.93 314.164 634.446 314.932C634.95 315.688 635.73 316.18 636.834 316.18C637.938 316.18 638.718 315.688 639.222 314.932C639.738 314.164 639.918 313.18 639.918 312.112C639.918 311.044 639.738 310.06 639.222 309.292C638.718 308.536 637.938 308.044 636.834 308.044C635.73 308.044 634.95 308.536 634.446 309.292C633.93 310.06 633.75 311.044 633.75 312.112ZM644.199 316V308.224H643.167C642.987 309.064 642.243 309.664 641.163 309.688V310.516H643.047V316H644.199ZM646.177 315.724C646.561 315.988 647.377 316.18 647.977 316.18C650.593 316.18 651.865 314.476 651.865 311.62C651.865 309.136 650.365 308.044 648.841 308.044C647.317 308.044 645.973 309.124 645.973 310.732C645.973 312.448 647.317 313.36 648.661 313.36C649.717 313.36 650.401 312.88 650.677 312.364C650.629 313.888 649.861 315.124 647.977 315.124C647.473 315.124 646.897 314.956 646.561 314.752L646.177 315.724ZM650.521 310.708C650.521 311.74 649.705 312.352 648.841 312.352C647.953 312.352 647.161 311.764 647.161 310.708C647.161 309.688 647.977 309.076 648.841 309.076C649.693 309.076 650.521 309.7 650.521 310.708Z" fill="#7C8A95"/>
<path d="M512.052 316V308.224H511.02C510.84 309.064 510.096 309.664 509.016 309.688V310.516H510.9V316H512.052ZM516.682 316V308.224H515.65C515.47 309.064 514.726 309.664 513.646 309.688V310.516H515.53V316H516.682ZM523.185 307.492H522.093L517.977 316H519.069L523.185 307.492ZM525.037 311.02C525.025 310.9 525.013 310.78 525.013 310.672C525.013 309.784 525.493 309.076 526.513 309.076C527.497 309.076 527.977 309.736 527.977 310.444C527.977 311.044 527.641 311.596 526.909 312.064L525.613 312.904C524.293 313.756 523.789 314.728 523.765 316H529.213V314.908H525.217C525.325 314.428 525.721 314.104 526.165 313.816L527.701 312.832C528.589 312.268 529.165 311.452 529.165 310.432C529.165 309.136 528.205 308.044 526.537 308.044C524.833 308.044 523.849 309.232 523.849 310.564C523.849 310.66 523.849 310.768 523.861 310.876L525.037 311.02ZM531.789 311.02C531.777 310.9 531.765 310.78 531.765 310.672C531.765 309.784 532.245 309.076 533.265 309.076C534.249 309.076 534.729 309.736 534.729 310.444C534.729 311.044 534.393 311.596 533.661 312.064L532.365 312.904C531.045 313.756 530.541 314.728 530.517 316H535.965V314.908H531.969C532.077 314.428 532.473 314.104 532.917 313.816L534.453 312.832C535.341 312.268 535.917 311.452 535.917 310.432C535.917 309.136 534.957 308.044 533.289 308.044C531.585 308.044 530.601 309.232 530.601 310.564C530.601 310.66 530.601 310.768 530.613 310.876L531.789 311.02ZM542.056 307.492H540.964L536.848 316H537.94L542.056 307.492ZM543.909 311.02C543.897 310.9 543.885 310.78 543.885 310.672C543.885 309.784 544.365 309.076 545.385 309.076C546.369 309.076 546.849 309.736 546.849 310.444C546.849 311.044 546.513 311.596 545.781 312.064L544.485 312.904C543.165 313.756 542.661 314.728 542.637 316H548.085V314.908H544.089C544.197 314.428 544.593 314.104 545.037 313.816L546.573 312.832C547.461 312.268 548.037 311.452 548.037 310.432C548.037 309.136 547.077 308.044 545.409 308.044C543.705 308.044 542.721 309.232 542.721 310.564C542.721 310.66 542.721 310.768 542.733 310.876L543.909 311.02ZM550.733 312.112C550.733 310.924 550.949 310.084 551.417 309.592C551.717 309.28 552.101 309.088 552.653 309.088C553.205 309.088 553.589 309.28 553.889 309.592C554.357 310.084 554.573 310.924 554.573 312.112C554.573 313.3 554.357 314.14 553.889 314.632C553.589 314.944 553.205 315.136 552.653 315.136C552.101 315.136 551.717 314.944 551.417 314.632C550.949 314.14 550.733 313.3 550.733 312.112ZM549.569 312.112C549.569 313.18 549.749 314.164 550.265 314.932C550.769 315.688 551.549 316.18 552.653 316.18C553.757 316.18 554.537 315.688 555.041 314.932C555.557 314.164 555.737 313.18 555.737 312.112C555.737 311.044 555.557 310.06 555.041 309.292C554.537 308.536 553.757 308.044 552.653 308.044C551.549 308.044 550.769 308.536 550.265 309.292C549.749 310.06 549.569 311.044 549.569 312.112ZM560.017 316V308.224H558.985C558.805 309.064 558.061 309.664 556.981 309.688V310.516H558.865V316H560.017ZM561.996 315.724C562.38 315.988 563.196 316.18 563.796 316.18C566.412 316.18 567.684 314.476 567.684 311.62C567.684 309.136 566.184 308.044 564.66 308.044C563.136 308.044 561.792 309.124 561.792 310.732C561.792 312.448 563.136 313.36 564.48 313.36C565.536 313.36 566.22 312.88 566.496 312.364C566.448 313.888 565.68 315.124 563.796 315.124C563.292 315.124 562.716 314.956 562.38 314.752L561.996 315.724ZM566.34 310.708C566.34 311.74 565.524 312.352 564.66 312.352C563.772 312.352 562.98 311.764 562.98 310.708C562.98 309.688 563.796 309.076 564.66 309.076C565.512 309.076 566.34 309.7 566.34 310.708Z" fill="#7C8A95"/>
<path d="M428.661 316V308.224H427.629C427.449 309.064 426.705 309.664 425.625 309.688V310.516H427.509V316H428.661ZM433.291 316V308.224H432.259C432.079 309.064 431.335 309.664 430.255 309.688V310.516H432.139V316H433.291ZM439.794 307.492H438.702L434.586 316H435.678L439.794 307.492ZM443.525 316V308.224H442.493C442.313 309.064 441.569 309.664 440.489 309.688V310.516H442.373V316H443.525ZM451.178 308.476C450.818 308.224 450.206 308.044 449.498 308.044C447.23 308.044 445.49 309.688 445.49 312.58C445.49 315.148 447.038 316.18 448.526 316.18C450.05 316.18 451.406 315.196 451.406 313.528C451.406 311.836 450.278 310.876 448.742 310.876C447.71 310.876 447.002 311.368 446.69 311.884C446.786 310.288 447.806 309.1 449.426 309.1C450.014 309.1 450.53 309.268 450.818 309.436L451.178 308.476ZM446.858 313.528C446.858 312.484 447.638 311.884 448.538 311.884C449.438 311.884 450.218 312.484 450.218 313.528C450.218 314.56 449.45 315.16 448.538 315.16C447.686 315.16 446.858 314.548 446.858 313.528ZM457.447 307.492H456.355L452.239 316H453.331L457.447 307.492ZM459.3 311.02C459.288 310.9 459.276 310.78 459.276 310.672C459.276 309.784 459.756 309.076 460.776 309.076C461.76 309.076 462.24 309.736 462.24 310.444C462.24 311.044 461.904 311.596 461.172 312.064L459.876 312.904C458.556 313.756 458.052 314.728 458.028 316H463.476V314.908H459.48C459.588 314.428 459.984 314.104 460.428 313.816L461.964 312.832C462.852 312.268 463.428 311.452 463.428 310.432C463.428 309.136 462.468 308.044 460.8 308.044C459.096 308.044 458.112 309.232 458.112 310.564C458.112 310.66 458.112 310.768 458.124 310.876L459.3 311.02ZM466.123 312.112C466.123 310.924 466.339 310.084 466.807 309.592C467.107 309.28 467.491 309.088 468.043 309.088C468.595 309.088 468.979 309.28 469.279 309.592C469.747 310.084 469.963 310.924 469.963 312.112C469.963 313.3 469.747 314.14 469.279 314.632C468.979 314.944 468.595 315.136 468.043 315.136C467.491 315.136 467.107 314.944 466.807 314.632C466.339 314.14 466.123 313.3 466.123 312.112ZM464.959 312.112C464.959 313.18 465.139 314.164 465.655 314.932C466.159 315.688 466.939 316.18 468.043 316.18C469.147 316.18 469.927 315.688 470.431 314.932C470.947 314.164 471.127 313.18 471.127 312.112C471.127 311.044 470.947 310.06 470.431 309.292C469.927 308.536 469.147 308.044 468.043 308.044C466.939 308.044 466.159 308.536 465.655 309.292C465.139 310.06 464.959 311.044 464.959 312.112ZM475.408 316V308.224H474.376C474.196 309.064 473.452 309.664 472.372 309.688V310.516H474.256V316H475.408ZM477.386 315.724C477.77 315.988 478.586 316.18 479.186 316.18C481.802 316.18 483.074 314.476 483.074 311.62C483.074 309.136 481.574 308.044 480.05 308.044C478.526 308.044 477.182 309.124 477.182 310.732C477.182 312.448 478.526 313.36 479.87 313.36C480.926 313.36 481.61 312.88 481.886 312.364C481.838 313.888 481.07 315.124 479.186 315.124C478.682 315.124 478.106 314.956 477.77 314.752L477.386 315.724ZM481.73 310.708C481.73 311.74 480.914 312.352 480.05 312.352C479.162 312.352 478.37 311.764 478.37 310.708C478.37 309.688 479.186 309.076 480.05 309.076C480.902 309.076 481.73 309.7 481.73 310.708Z" fill="#7C8A95"/>
<path d="M344.696 316V308.224H343.664C343.484 309.064 342.74 309.664 341.66 309.688V310.516H343.544V316H344.696ZM349.327 316V308.224H348.295C348.115 309.064 347.371 309.664 346.291 309.688V310.516H348.175V316H349.327ZM355.829 307.492H354.737L350.621 316H351.713L355.829 307.492ZM359.56 316V308.224H358.528C358.348 309.064 357.604 309.664 356.524 309.688V310.516H358.408V316H359.56ZM362.677 312.112C362.677 310.924 362.893 310.084 363.361 309.592C363.661 309.28 364.045 309.088 364.597 309.088C365.149 309.088 365.533 309.28 365.833 309.592C366.301 310.084 366.517 310.924 366.517 312.112C366.517 313.3 366.301 314.14 365.833 314.632C365.533 314.944 365.149 315.136 364.597 315.136C364.045 315.136 363.661 314.944 363.361 314.632C362.893 314.14 362.677 313.3 362.677 312.112ZM361.513 312.112C361.513 313.18 361.693 314.164 362.209 314.932C362.713 315.688 363.493 316.18 364.597 316.18C365.701 316.18 366.481 315.688 366.985 314.932C367.501 314.164 367.681 313.18 367.681 312.112C367.681 311.044 367.501 310.06 366.985 309.292C366.481 308.536 365.701 308.044 364.597 308.044C363.493 308.044 362.713 308.536 362.209 309.292C361.693 310.06 361.513 311.044 361.513 312.112ZM373.412 307.492H372.32L368.204 316H369.296L373.412 307.492ZM375.265 311.02C375.253 310.9 375.241 310.78 375.241 310.672C375.241 309.784 375.721 309.076 376.741 309.076C377.725 309.076 378.205 309.736 378.205 310.444C378.205 311.044 377.869 311.596 377.137 312.064L375.841 312.904C374.521 313.756 374.017 314.728 373.993 316H379.441V314.908H375.445C375.553 314.428 375.949 314.104 376.393 313.816L377.929 312.832C378.817 312.268 379.393 311.452 379.393 310.432C379.393 309.136 378.433 308.044 376.765 308.044C375.061 308.044 374.077 309.232 374.077 310.564C374.077 310.66 374.077 310.768 374.089 310.876L375.265 311.02ZM382.088 312.112C382.088 310.924 382.304 310.084 382.772 309.592C383.072 309.28 383.456 309.088 384.008 309.088C384.56 309.088 384.944 309.28 385.244 309.592C385.712 310.084 385.928 310.924 385.928 312.112C385.928 313.3 385.712 314.14 385.244 314.632C384.944 314.944 384.56 315.136 384.008 315.136C383.456 315.136 383.072 314.944 382.772 314.632C382.304 314.14 382.088 313.3 382.088 312.112ZM380.924 312.112C380.924 313.18 381.104 314.164 381.62 314.932C382.124 315.688 382.904 316.18 384.008 316.18C385.112 316.18 385.892 315.688 386.396 314.932C386.912 314.164 387.092 313.18 387.092 312.112C387.092 311.044 386.912 310.06 386.396 309.292C385.892 308.536 385.112 308.044 384.008 308.044C382.904 308.044 382.124 308.536 381.62 309.292C381.104 310.06 380.924 311.044 380.924 312.112ZM391.373 316V308.224H390.341C390.161 309.064 389.417 309.664 388.337 309.688V310.516H390.221V316H391.373ZM393.351 315.724C393.735 315.988 394.551 316.18 395.151 316.18C397.767 316.18 399.039 314.476 399.039 311.62C399.039 309.136 397.539 308.044 396.015 308.044C394.491 308.044 393.147 309.124 393.147 310.732C393.147 312.448 394.491 313.36 395.835 313.36C396.891 313.36 397.575 312.88 397.851 312.364C397.803 313.888 397.035 315.124 395.151 315.124C394.647 315.124 394.071 314.956 393.735 314.752L393.351 315.724ZM397.695 310.708C397.695 311.74 396.879 312.352 396.015 312.352C395.127 312.352 394.335 311.764 394.335 310.708C394.335 309.688 395.151 309.076 396.015 309.076C396.867 309.076 397.695 309.7 397.695 310.708Z" fill="#7C8A95"/>
<path d="M263.521 316V308.224H262.489C262.309 309.064 261.565 309.664 260.485 309.688V310.516H262.369V316H263.521ZM268.152 316V308.224H267.12C266.94 309.064 266.196 309.664 265.116 309.688V310.516H267V316H268.152ZM274.654 307.492H273.562L269.446 316H270.538L274.654 307.492ZM274.508 314.248H278.324V316H279.464V314.248H280.796V313.156H279.464V308.224H277.844L274.508 312.892V314.248ZM278.324 313.156H275.588L278.324 309.352V313.156ZM286.587 307.492H285.495L281.379 316H282.471L286.587 307.492ZM288.44 311.02C288.428 310.9 288.416 310.78 288.416 310.672C288.416 309.784 288.896 309.076 289.916 309.076C290.9 309.076 291.38 309.736 291.38 310.444C291.38 311.044 291.044 311.596 290.312 312.064L289.016 312.904C287.696 313.756 287.192 314.728 287.168 316H292.616V314.908H288.62C288.728 314.428 289.124 314.104 289.568 313.816L291.104 312.832C291.992 312.268 292.568 311.452 292.568 310.432C292.568 309.136 291.608 308.044 289.94 308.044C288.236 308.044 287.252 309.232 287.252 310.564C287.252 310.66 287.252 310.768 287.264 310.876L288.44 311.02ZM295.263 312.112C295.263 310.924 295.479 310.084 295.947 309.592C296.247 309.28 296.631 309.088 297.183 309.088C297.735 309.088 298.119 309.28 298.419 309.592C298.887 310.084 299.103 310.924 299.103 312.112C299.103 313.3 298.887 314.14 298.419 314.632C298.119 314.944 297.735 315.136 297.183 315.136C296.631 315.136 296.247 314.944 295.947 314.632C295.479 314.14 295.263 313.3 295.263 312.112ZM294.099 312.112C294.099 313.18 294.279 314.164 294.795 314.932C295.299 315.688 296.079 316.18 297.183 316.18C298.287 316.18 299.067 315.688 299.571 314.932C300.087 314.164 300.267 313.18 300.267 312.112C300.267 311.044 300.087 310.06 299.571 309.292C299.067 308.536 298.287 308.044 297.183 308.044C296.079 308.044 295.299 308.536 294.795 309.292C294.279 310.06 294.099 311.044 294.099 312.112ZM304.548 316V308.224H303.516C303.336 309.064 302.592 309.664 301.512 309.688V310.516H303.396V316H304.548ZM306.526 315.724C306.91 315.988 307.726 316.18 308.326 316.18C310.942 316.18 312.214 314.476 312.214 311.62C312.214 309.136 310.714 308.044 309.19 308.044C307.666 308.044 306.322 309.124 306.322 310.732C306.322 312.448 307.666 313.36 309.01 313.36C310.066 313.36 310.75 312.88 311.026 312.364C310.978 313.888 310.21 315.124 308.326 315.124C307.822 315.124 307.246 314.956 306.91 314.752L306.526 315.724ZM310.87 310.708C310.87 311.74 310.054 312.352 309.19 312.352C308.302 312.352 307.51 311.764 307.51 310.708C307.51 309.688 308.326 309.076 309.19 309.076C310.042 309.076 310.87 309.7 310.87 310.708Z" fill="#7C8A95"/>
<path d="M174.622 316V308.224H173.59C173.41 309.064 172.666 309.664 171.586 309.688V310.516H173.47V316H174.622ZM177.739 312.112C177.739 310.924 177.955 310.084 178.423 309.592C178.723 309.28 179.107 309.088 179.659 309.088C180.211 309.088 180.595 309.28 180.895 309.592C181.363 310.084 181.579 310.924 181.579 312.112C181.579 313.3 181.363 314.14 180.895 314.632C180.595 314.944 180.211 315.136 179.659 315.136C179.107 315.136 178.723 314.944 178.423 314.632C177.955 314.14 177.739 313.3 177.739 312.112ZM176.575 312.112C176.575 313.18 176.755 314.164 177.271 314.932C177.775 315.688 178.555 316.18 179.659 316.18C180.763 316.18 181.543 315.688 182.047 314.932C182.563 314.164 182.743 313.18 182.743 312.112C182.743 311.044 182.563 310.06 182.047 309.292C181.543 308.536 180.763 308.044 179.659 308.044C178.555 308.044 177.775 308.536 177.271 309.292C176.755 310.06 176.575 311.044 176.575 312.112ZM188.474 307.492H187.382L183.266 316H184.358L188.474 307.492ZM190.326 311.02C190.314 310.9 190.302 310.78 190.302 310.672C190.302 309.784 190.782 309.076 191.802 309.076C192.786 309.076 193.266 309.736 193.266 310.444C193.266 311.044 192.93 311.596 192.198 312.064L190.902 312.904C189.582 313.756 189.078 314.728 189.054 316H194.502V314.908H190.506C190.614 314.428 191.01 314.104 191.454 313.816L192.99 312.832C193.878 312.268 194.454 311.452 194.454 310.432C194.454 309.136 193.494 308.044 191.826 308.044C190.122 308.044 189.138 309.232 189.138 310.564C189.138 310.66 189.138 310.768 189.15 310.876L190.326 311.02ZM196.07 315.724C196.454 315.988 197.27 316.18 197.87 316.18C200.486 316.18 201.758 314.476 201.758 311.62C201.758 309.136 200.258 308.044 198.734 308.044C197.21 308.044 195.866 309.124 195.866 310.732C195.866 312.448 197.21 313.36 198.554 313.36C199.61 313.36 200.294 312.88 200.57 312.364C200.522 313.888 199.754 315.124 197.87 315.124C197.366 315.124 196.79 314.956 196.454 314.752L196.07 315.724ZM200.414 310.708C200.414 311.74 199.598 312.352 198.734 312.352C197.846 312.352 197.054 311.764 197.054 310.708C197.054 309.688 197.87 309.076 198.734 309.076C199.586 309.076 200.414 309.7 200.414 310.708ZM207.486 307.492H206.394L202.278 316H203.37L207.486 307.492ZM209.339 311.02C209.327 310.9 209.315 310.78 209.315 310.672C209.315 309.784 209.795 309.076 210.815 309.076C211.799 309.076 212.279 309.736 212.279 310.444C212.279 311.044 211.943 311.596 211.211 312.064L209.915 312.904C208.595 313.756 208.091 314.728 208.067 316H213.515V314.908H209.519C209.627 314.428 210.023 314.104 210.467 313.816L212.003 312.832C212.891 312.268 213.467 311.452 213.467 310.432C213.467 309.136 212.507 308.044 210.839 308.044C209.135 308.044 208.151 309.232 208.151 310.564C208.151 310.66 208.151 310.768 208.163 310.876L209.339 311.02ZM216.162 312.112C216.162 310.924 216.378 310.084 216.846 309.592C217.146 309.28 217.53 309.088 218.082 309.088C218.634 309.088 219.018 309.28 219.318 309.592C219.786 310.084 220.002 310.924 220.002 312.112C220.002 313.3 219.786 314.14 219.318 314.632C219.018 314.944 218.634 315.136 218.082 315.136C217.53 315.136 217.146 314.944 216.846 314.632C216.378 314.14 216.162 313.3 216.162 312.112ZM214.998 312.112C214.998 313.18 215.178 314.164 215.694 314.932C216.198 315.688 216.978 316.18 218.082 316.18C219.186 316.18 219.966 315.688 220.47 314.932C220.986 314.164 221.166 313.18 221.166 312.112C221.166 311.044 220.986 310.06 220.47 309.292C219.966 308.536 219.186 308.044 218.082 308.044C216.978 308.044 216.198 308.536 215.694 309.292C215.178 310.06 214.998 311.044 214.998 312.112ZM225.447 316V308.224H224.415C224.235 309.064 223.491 309.664 222.411 309.688V310.516H224.295V316H225.447ZM227.425 315.724C227.809 315.988 228.625 316.18 229.225 316.18C231.841 316.18 233.113 314.476 233.113 311.62C233.113 309.136 231.613 308.044 230.089 308.044C228.565 308.044 227.221 309.124 227.221 310.732C227.221 312.448 228.565 313.36 229.909 313.36C230.965 313.36 231.649 312.88 231.925 312.364C231.877 313.888 231.109 315.124 229.225 315.124C228.721 315.124 228.145 314.956 227.809 314.752L227.425 315.724ZM231.769 310.708C231.769 311.74 230.953 312.352 230.089 312.352C229.201 312.352 228.409 311.764 228.409 310.708C228.409 309.688 229.225 309.076 230.089 309.076C230.941 309.076 231.769 309.7 231.769 310.708Z" fill="#7C8A95"/>
<path d="M90.6102 316V308.224H89.5782C89.3982 309.064 88.6542 309.664 87.5742 309.688V310.516H89.4582V316H90.6102ZM93.7273 312.112C93.7273 310.924 93.9433 310.084 94.4113 309.592C94.7113 309.28 95.0953 309.088 95.6473 309.088C96.1993 309.088 96.5833 309.28 96.8833 309.592C97.3513 310.084 97.5673 310.924 97.5673 312.112C97.5673 313.3 97.3513 314.14 96.8833 314.632C96.5833 314.944 96.1993 315.136 95.6473 315.136C95.0953 315.136 94.7113 314.944 94.4113 314.632C93.9433 314.14 93.7273 313.3 93.7273 312.112ZM92.5633 312.112C92.5633 313.18 92.7433 314.164 93.2593 314.932C93.7633 315.688 94.5433 316.18 95.6473 316.18C96.7513 316.18 97.5313 315.688 98.0353 314.932C98.5513 314.164 98.7313 313.18 98.7313 312.112C98.7313 311.044 98.5513 310.06 98.0353 309.292C97.5313 308.536 96.7513 308.044 95.6473 308.044C94.5433 308.044 93.7633 308.536 93.2593 309.292C92.7433 310.06 92.5633 311.044 92.5633 312.112ZM104.462 307.492H103.37L99.2539 316H100.346L104.462 307.492ZM106.315 311.02C106.303 310.9 106.291 310.78 106.291 310.672C106.291 309.784 106.771 309.076 107.791 309.076C108.775 309.076 109.255 309.736 109.255 310.444C109.255 311.044 108.919 311.596 108.187 312.064L106.891 312.904C105.571 313.756 105.067 314.728 105.043 316H110.491V314.908H106.495C106.603 314.428 106.999 314.104 107.443 313.816L108.979 312.832C109.867 312.268 110.443 311.452 110.443 310.432C110.443 309.136 109.483 308.044 107.815 308.044C106.111 308.044 105.127 309.232 105.127 310.564C105.127 310.66 105.127 310.768 105.139 310.876L106.315 311.02ZM114.074 312.388C114.278 312.316 114.518 312.268 114.758 312.268C115.526 312.268 116.342 312.7 116.342 313.72C116.342 314.5 115.766 315.16 114.698 315.16C113.762 315.16 113.018 314.512 112.97 313.48L111.818 313.744C111.89 315.016 112.91 316.192 114.71 316.192C116.522 316.192 117.53 315.004 117.53 313.696C117.53 312.1 116.27 311.332 115.13 311.332L117.35 309.28V308.224H112.07V309.304H115.79L113.498 311.416L114.074 312.388ZM123.498 307.492H122.406L118.29 316H119.382L123.498 307.492ZM125.351 311.02C125.339 310.9 125.327 310.78 125.327 310.672C125.327 309.784 125.807 309.076 126.827 309.076C127.811 309.076 128.291 309.736 128.291 310.444C128.291 311.044 127.955 311.596 127.223 312.064L125.927 312.904C124.607 313.756 124.103 314.728 124.079 316H129.527V314.908H125.531C125.639 314.428 126.035 314.104 126.479 313.816L128.015 312.832C128.903 312.268 129.479 311.452 129.479 310.432C129.479 309.136 128.519 308.044 126.851 308.044C125.147 308.044 124.163 309.232 124.163 310.564C124.163 310.66 124.163 310.768 124.175 310.876L125.351 311.02ZM132.174 312.112C132.174 310.924 132.39 310.084 132.858 309.592C133.158 309.28 133.542 309.088 134.094 309.088C134.646 309.088 135.03 309.28 135.33 309.592C135.798 310.084 136.014 310.924 136.014 312.112C136.014 313.3 135.798 314.14 135.33 314.632C135.03 314.944 134.646 315.136 134.094 315.136C133.542 315.136 133.158 314.944 132.858 314.632C132.39 314.14 132.174 313.3 132.174 312.112ZM131.01 312.112C131.01 313.18 131.19 314.164 131.706 314.932C132.21 315.688 132.99 316.18 134.094 316.18C135.198 316.18 135.978 315.688 136.482 314.932C136.998 314.164 137.178 313.18 137.178 312.112C137.178 311.044 136.998 310.06 136.482 309.292C135.978 308.536 135.198 308.044 134.094 308.044C132.99 308.044 132.21 308.536 131.706 309.292C131.19 310.06 131.01 311.044 131.01 312.112ZM141.459 316V308.224H140.427C140.247 309.064 139.503 309.664 138.423 309.688V310.516H140.307V316H141.459ZM143.437 315.724C143.821 315.988 144.637 316.18 145.237 316.18C147.853 316.18 149.125 314.476 149.125 311.62C149.125 309.136 147.625 308.044 146.101 308.044C144.577 308.044 143.233 309.124 143.233 310.732C143.233 312.448 144.577 313.36 145.921 313.36C146.977 313.36 147.661 312.88 147.937 312.364C147.889 313.888 147.121 315.124 145.237 315.124C144.733 315.124 144.157 314.956 143.821 314.752L143.437 315.724ZM147.781 310.708C147.781 311.74 146.965 312.352 146.101 312.352C145.213 312.352 144.421 311.764 144.421 310.708C144.421 309.688 145.237 309.076 146.101 309.076C146.953 309.076 147.781 309.7 147.781 310.708Z" fill="#7C8A95"/>
<rect x="0.5" y="92.5" width="1061" height="259" stroke="#DCDFF2"/>
<line x1="87" y1="280.5" x2="983" y2="280.5" stroke="#DCDFF2"/>
<line x1="87" y1="244.5" x2="983" y2="244.5" stroke="#DCDFF2"/>
<line x1="87" y1="208.5" x2="983" y2="208.5" stroke="#DCDFF2"/>
<line x1="87" y1="172.5" x2="983" y2="172.5" stroke="#DCDFF2"/>
<line x1="87" y1="135.5" x2="983" y2="135.5" stroke="#DCDFF2"/>
<path d="M961 235L946.5 229L932.5 236.5L918.5 220.5L904.5 223.5L890.5 217L876.5 213L862.5 208.5L848.5 231L834.5 239.5L820.5 244L806.5 246.5L792.5 244L778 245.5L764.5 226L750.5 253L736.5 248.5L722.5 254.5L708.5 260.5L694.5 257L680.5 227.5L666.5 250L652.5 251.5L638.5 234L624.5 262L610.5 266.5L596.5 265L582.5 262L569 259L555 264L540.5 265L526.5 240L512.5 265H498.5L484.5 259H471L456.5 243.5L442.5 271L428.5 269L414.5 271H400.5L358.5 266.5L344.5 269H330.5L316.5 268L302.5 266.5L288.5 268H260.5L246.5 266.5L232 271L218.5 268L204.5 270H176.5L162.5 274L148.5 270H134.5L121 267.5" stroke="#D17C2E" stroke-width="3"/>
<path d="M960.5 243.5L946.5 248L932.5 251L918.5 259.5L904.5 252.5H890.5L876.5 261L862.5 248L834.5 246L820.5 250L806.5 241L792.5 244L778.5 235.5L764.5 239L750.5 228.5L736.5 237L722.5 239L708.5 227L694.5 223.5L680.5 244L666.5 212.5L652.5 204.5L638.5 222L624.5 191L610.5 184.5L596 204.5L582.5 210L568.5 191L554.5 184.5L540.5 210L512.5 219L498.5 213L484.5 214.5L470.5 202.5L456.5 213L442.5 175.5L428.5 201L414.5 191.5L400.5 175.5L386.5 177.5L372.5 173L359 184.5L344.5 180.5L330.5 182L316.5 201.5H302.5L274.5 203.5L260.5 198L246.5 224.5L232.5 182L218.5 215.5L190.5 170L162.5 157.5L148.5 179L134.5 184.5L120.5 219.5" stroke="#478BB4" stroke-width="3"/>
<rect x="217.5" y="0.5" width="192" height="73" stroke="#DCDFF2"/>
<path d="M298.82 44.82V43.91H293.1V44.82H295.47V51H296.45V44.82H298.82ZM300.514 47.45C300.514 45.6 301.754 44.66 303.074 44.66C304.394 44.66 305.634 45.6 305.634 47.45C305.634 49.3 304.394 50.25 303.074 50.25C301.754 50.25 300.514 49.3 300.514 47.45ZM299.514 47.45C299.514 49.82 301.294 51.15 303.074 51.15C304.854 51.15 306.634 49.82 306.634 47.45C306.634 45.08 304.854 43.76 303.074 43.76C301.294 43.76 299.514 45.08 299.514 47.45ZM313.048 44.82V43.91H307.328V44.82H309.698V51H310.678V44.82H313.048ZM318.701 51H319.761L316.941 43.91H315.811L312.991 51H314.041L314.791 49.02H317.931L318.701 51ZM316.351 44.93L317.581 48.11H315.141L316.351 44.93ZM325.494 51V50.08H322.144V43.91H321.164V51H325.494Z" fill="#7C8A95"/>
<path d="M238.184 51V40.616H236.28C236.072 41.704 235.016 42.552 233.496 42.568V44.056H235.992V51H238.184ZM244.928 51V40.616H243.024C242.816 41.704 241.76 42.552 240.24 42.568V44.056H242.736V51H244.928ZM247.354 49.72C247.354 50.488 247.898 51.048 248.682 51.048C248.858 51.048 249.034 51 249.098 50.952C249.066 51.832 248.298 52.52 247.578 52.68V53.704C248.762 53.56 250.394 52.568 250.394 50.216C250.394 49.176 249.802 48.376 248.81 48.376C247.978 48.376 247.354 48.952 247.354 49.72ZM254.314 45.816C254.314 44.728 254.474 43.8 254.874 43.176C255.194 42.664 255.69 42.328 256.442 42.328C257.21 42.328 257.674 42.664 257.994 43.176C258.41 43.8 258.57 44.728 258.57 45.816C258.57 46.904 258.41 47.832 257.994 48.456C257.674 48.968 257.21 49.304 256.442 49.304C255.69 49.304 255.194 48.968 254.874 48.456C254.474 47.832 254.314 46.904 254.314 45.816ZM252.106 45.816C252.106 47.144 252.314 48.44 253.018 49.512C253.706 50.536 254.826 51.256 256.442 51.256C258.058 51.256 259.178 50.536 259.85 49.512C260.554 48.44 260.778 47.144 260.778 45.816C260.778 44.488 260.554 43.192 259.85 42.12C259.178 41.096 258.058 40.376 256.442 40.376C254.826 40.376 253.706 41.096 253.018 42.12C252.314 43.192 252.106 44.488 252.106 45.816ZM262.267 48.088C262.395 49.72 263.963 51.256 266.219 51.256C268.715 51.256 270.203 49.576 270.203 47.64C270.203 45.416 268.731 44.168 266.651 44.168C265.963 44.168 265.227 44.392 264.779 44.808L265.291 42.52H269.643V40.616H263.787L262.555 45.944C262.779 46.008 264.363 46.552 264.571 46.632C264.907 46.248 265.467 45.928 266.171 45.928C267.131 45.928 268.011 46.488 268.011 47.672C268.011 48.712 267.211 49.368 266.219 49.368C265.115 49.368 264.379 48.584 264.331 47.624L262.267 48.088ZM274.487 46.392C274.711 46.312 274.983 46.232 275.431 46.232C276.423 46.232 277.127 46.792 277.127 47.768C277.127 48.632 276.471 49.336 275.367 49.336C274.279 49.336 273.527 48.568 273.479 47.512L271.351 47.928C271.479 49.672 272.951 51.24 275.367 51.24C277.879 51.24 279.351 49.592 279.351 47.8C279.351 45.896 277.911 44.696 276.343 44.632L279.031 42.392V40.616H271.687V42.52H276.231L273.511 44.856L274.487 46.392Z" fill="#38454F"/>
<path d="M234.74 18.74C234.74 16.52 236.228 15.392 237.812 15.392C239.396 15.392 240.884 16.52 240.884 18.74C240.884 20.96 239.396 22.1 237.812 22.1C236.228 22.1 234.74 20.96 234.74 18.74ZM233.54 18.74C233.54 21.584 235.676 23.18 237.812 23.18C239.948 23.18 242.084 21.584 242.084 18.74C242.084 15.896 239.948 14.312 237.812 14.312C235.676 14.312 233.54 15.896 233.54 18.74ZM247.185 17.168C247.125 17.156 246.969 17.132 246.813 17.132C246.225 17.132 245.505 17.348 245.085 18.236V17.228H243.981V23H245.109V20.108C245.109 18.836 245.745 18.332 246.693 18.332C246.849 18.332 247.017 18.344 247.185 18.368V17.168ZM249.401 20.096C249.401 18.908 250.073 18.068 251.105 18.068C252.137 18.068 252.761 18.884 252.761 20.072C252.761 21.26 252.125 22.16 251.093 22.16C250.013 22.16 249.401 21.284 249.401 20.096ZM252.773 22.22C252.773 22.568 252.809 22.868 252.833 23H253.925C253.913 22.904 253.865 22.484 253.865 21.932V14.312H252.749V18.044C252.557 17.576 252.005 17.072 250.985 17.072C249.353 17.072 248.249 18.464 248.249 20.096C248.249 21.812 249.293 23.156 250.985 23.156C251.885 23.156 252.497 22.676 252.773 22.124V22.22ZM256.915 19.52C256.963 18.776 257.539 18.044 258.487 18.044C259.507 18.044 260.047 18.692 260.071 19.52H256.915ZM260.239 21.02C260.023 21.668 259.555 22.184 258.619 22.184C257.647 22.184 256.903 21.464 256.879 20.432H261.223C261.235 20.36 261.247 20.216 261.247 20.072C261.247 18.272 260.251 17.048 258.475 17.048C257.023 17.048 255.715 18.284 255.715 20.096C255.715 22.052 257.071 23.18 258.619 23.18C259.963 23.18 260.887 22.376 261.211 21.356L260.239 21.02ZM266.291 17.168C266.231 17.156 266.075 17.132 265.919 17.132C265.331 17.132 264.611 17.348 264.191 18.236V17.228H263.087V23H264.215V20.108C264.215 18.836 264.851 18.332 265.799 18.332C265.955 18.332 266.123 18.344 266.291 18.368V17.168ZM267.354 21.5C267.45 22.16 268.122 23.18 269.706 23.18C271.134 23.18 271.818 22.208 271.818 21.392C271.818 20.54 271.266 19.904 270.222 19.676L269.286 19.472C268.842 19.376 268.626 19.124 268.626 18.776C268.626 18.38 269.01 18.008 269.586 18.008C270.498 18.008 270.738 18.668 270.786 18.968L271.782 18.596C271.662 18.08 271.17 17.048 269.586 17.048C268.458 17.048 267.534 17.888 267.534 18.872C267.534 19.688 268.074 20.3 268.974 20.492L269.958 20.708C270.438 20.816 270.702 21.092 270.702 21.452C270.702 21.86 270.354 22.22 269.718 22.22C268.902 22.22 268.446 21.74 268.374 21.14L267.354 21.5Z" fill="#38454F"/>
</svg>
