<svg width="1920" height="1024" viewBox="0 0 1920 1024" fill="none" xmlns="http://www.w3.org/2000/svg">
<mask id="mask0" mask-type="alpha" maskUnits="userSpaceOnUse" x="0" y="0" width="1920" height="1025">
<rect width="1920" height="1025" fill="#C4C4C4"/>
</mask>
<g mask="url(#mask0)">
<rect x="-13" width="1934" height="1024" fill="url(#paint0_linear)"/>
<path d="M715.019 693.758C351.151 624.65 115.6 617.694 -69 659C-72.9986 761.471 -66.2978 1064.08 -56.7013 1067.89C-47.1048 1071.71 1308.14 1069.48 1984.56 1067.89C2017.21 936.033 2055.73 666.115 1948.57 641.331C1814.62 610.352 1483.24 715 1367 715C1277.03 715 936.263 735.778 715.019 693.758Z" fill="url(#paint1_linear)" fill-opacity="0.4"/>
<path d="M63 729C-449 833 -68.4003 833.694 -253 875C-256.999 977.471 -53.2978 1026.19 -43.7013 1030C-34.1048 1033.81 1321.14 1031.59 1997.56 1030C2030.21 898.139 2122.88 700.065 2013 705C1345 735 1122.33 626.681 937 611.758C555 581 283.692 684.172 63 729Z" fill="url(#paint2_linear)" fill-opacity="0.4"/>
<circle opacity="0.2" r="166" transform="matrix(-1 0 0 1 123 982)" stroke="white" stroke-width="16"/>
<path opacity="0.2" d="M-7 982C-7 1054.96 51.7047 1114 124 1114C196.295 1114 255 1054.96 255 982C255 909.044 196.295 850 124 850C51.7047 850 -7 909.044 -7 982Z" stroke="white" stroke-width="16"/>
<circle opacity="0.2" r="49" transform="matrix(-1 0 0 1 776 523)" stroke="white" stroke-width="16"/>
<circle opacity="0.5" r="25.5" transform="matrix(-1 0 0 1 776.5 522.5)" stroke="white" stroke-width="16"/>
<circle opacity="0.2" r="82.5" transform="matrix(-1 0 0 1 1733 833)" stroke="white" stroke-width="41"/>
<circle opacity="0.2" r="172" transform="matrix(-1 0 0 1 236.5 337.5)" stroke="white" stroke-width="41"/>
<path opacity="0.5" d="M1801 897.5C1801 911.697 1812.31 923 1826 923C1839.69 923 1851 911.697 1851 897.5C1851 883.303 1839.69 872 1826 872C1812.31 872 1801 883.303 1801 897.5Z" stroke="white" stroke-width="16"/>
<circle opacity="0.2" r="38.5" transform="matrix(-1 0 0 1 163.5 634.5)" fill="white"/>
<circle opacity="0.2" r="19.5" transform="matrix(-1 0 0 1 806.5 143.5)" fill="white"/>
<circle opacity="0.2" r="54.5" transform="matrix(-1 0 0 1 677.5 202.5)" fill="white"/>
<ellipse opacity="0.2" rx="19" ry="19.5" transform="matrix(-1 0 0 1 396 686.5)" fill="white"/>
</g>
<defs>
<linearGradient id="paint0_linear" x1="1145.39" y1="-696.533" x2="1017" y2="1381.57" gradientUnits="userSpaceOnUse">
<stop stop-color="#6D6DF6"/>
<stop offset="0.760417" stop-color="#8FD39D"/>
</linearGradient>
<linearGradient id="paint1_linear" x1="974.411" y1="633.484" x2="974.411" y2="1070" gradientUnits="userSpaceOnUse">
<stop offset="0.546875" stop-color="white"/>
<stop offset="1" stop-color="white" stop-opacity="0"/>
</linearGradient>
<linearGradient id="paint2_linear" x1="906.069" y1="606.126" x2="906.069" y2="1032.11" gradientUnits="userSpaceOnUse">
<stop offset="0.546875" stop-color="white"/>
<stop offset="1" stop-color="white" stop-opacity="0"/>
</linearGradient>
</defs>
</svg>
