<svg width="660" height="479" viewBox="0 0 660 479" fill="none" xmlns="http://www.w3.org/2000/svg">
<path d="M300.398 23.6684C327.786 41.5112 302.028 86.7 285.726 107.064C271.055 83.7909 243.667 92.5183 226.061 92.5183C208.455 92.5183 188.893 61.4874 199.652 30.4564C210.411 -0.574475 266.164 1.36496 300.398 23.6684Z" fill="url(#paint0_linear)"/>
<path d="M654.444 156.681C652.078 155.177 633.417 144.061 626.023 140.67L616.855 118.555C619.576 111.242 624.811 90.7492 625.728 87.1813C626.095 85.5576 626.043 83.8675 625.578 82.269C625.113 80.6705 624.248 79.2157 623.066 78.0405L608.604 63.7101C607.429 62.5267 605.97 61.6618 604.366 61.1975C602.761 60.7331 601.065 60.6845 599.436 61.0563C596.715 61.6755 575.777 66.9536 567.969 69.9022L545.789 60.7614C542.565 53.6847 531.711 35.5505 529.73 32.4249C528.854 30.9945 527.624 29.8123 526.159 28.9914C524.693 28.1705 523.041 27.7384 521.36 27.7366H501.013C499.342 27.7374 497.699 28.1596 496.235 28.9638C494.772 29.7681 493.537 30.9283 492.644 32.3365C491.135 34.6954 479.986 53.3013 476.585 60.673L454.404 69.8138C447.07 67.101 426.516 61.8819 422.937 60.9678C421.309 60.6017 419.614 60.653 418.01 61.1171C416.407 61.5812 414.948 62.4429 413.769 63.6216L399.396 78.0405C398.209 79.2125 397.342 80.6671 396.876 82.2667C396.41 83.8662 396.362 85.5578 396.735 87.1813C397.356 89.8941 402.649 110.77 405.607 118.555L396.439 140.67C389.341 143.884 371.153 154.705 368.018 156.681C366.583 157.554 365.398 158.78 364.574 160.241C363.751 161.702 363.318 163.35 363.316 165.026V185.283C363.317 186.949 363.74 188.587 364.547 190.046C365.353 191.505 366.517 192.737 367.929 193.627C370.295 195.131 388.957 206.248 396.35 209.639L405.518 231.753C402.797 239.066 397.563 259.559 396.646 263.127C396.279 264.751 396.33 266.441 396.796 268.039C397.261 269.638 398.125 271.093 399.307 272.268L413.681 286.598C414.856 287.782 416.315 288.647 417.919 289.111C419.524 289.575 421.22 289.624 422.849 289.252C425.569 288.633 446.508 283.355 454.316 280.406L476.496 289.547C479.72 296.624 490.574 314.758 492.555 317.883C493.435 319.332 494.677 320.529 496.16 321.355C497.642 322.182 499.315 322.612 501.013 322.601H521.331C523.002 322.6 524.645 322.178 526.109 321.374C527.572 320.57 528.807 319.41 529.7 318.001C531.209 315.643 542.358 297.037 545.759 289.665L567.94 280.524C575.274 283.237 595.828 288.456 599.407 289.37C601.035 289.736 602.73 289.685 604.334 289.221C605.937 288.757 607.396 287.895 608.575 286.716L622.948 272.386C624.135 271.214 625.002 269.759 625.468 268.16C625.934 266.56 625.982 264.869 625.609 263.245C624.988 260.532 619.695 239.656 616.737 231.871L625.905 209.757C633.003 206.543 651.191 195.721 654.326 193.745C655.779 192.868 656.979 191.63 657.808 190.152C658.638 188.673 659.068 187.006 659.058 185.312V165.026C659.071 163.357 658.654 161.713 657.846 160.252C657.038 158.79 655.866 157.561 654.444 156.681ZM511.187 239.361C498.441 239.349 485.986 235.57 475.395 228.5C464.804 221.43 456.553 211.388 451.686 199.643C446.82 187.899 445.556 174.979 448.054 162.517C450.552 150.056 456.7 138.613 465.72 129.636C474.741 120.659 486.229 114.55 498.732 112.082C511.235 109.614 524.191 110.899 535.962 115.772C547.732 120.646 557.789 128.891 564.861 139.463C571.932 150.036 575.7 162.461 575.688 175.169C575.649 192.202 568.837 208.525 556.746 220.558C544.654 232.591 528.271 239.353 511.187 239.361Z" fill="#41517B"/>
<path d="M210.376 358.92C208.667 357.835 195.182 349.816 189.839 347.37L183.214 331.417C185.18 326.142 188.963 311.359 189.625 308.786C189.891 307.614 189.853 306.395 189.517 305.242C189.181 304.089 188.556 303.04 187.702 302.192L177.251 291.855C176.402 291.001 175.348 290.377 174.188 290.042C173.029 289.707 171.803 289.672 170.626 289.94C168.66 290.387 153.529 294.194 147.888 296.321L131.859 289.728C129.53 284.623 121.687 271.542 120.255 269.287C119.622 268.255 118.733 267.402 117.674 266.81C116.615 266.218 115.421 265.906 114.207 265.905H99.5035C98.2961 265.906 97.1084 266.21 96.051 266.79C94.9935 267.37 94.1007 268.207 93.4555 269.223C92.3656 270.925 84.3087 284.346 81.851 289.664L65.8228 296.258C60.5228 294.301 45.6699 290.536 43.084 289.877C41.9072 289.612 40.6823 289.649 39.5237 289.984C38.3651 290.319 37.3107 290.941 36.459 291.791L26.0727 302.192C25.2149 303.037 24.5882 304.087 24.2516 305.241C23.915 306.394 23.8798 307.615 24.1493 308.786C24.5981 310.743 28.4235 325.802 30.5606 331.417L23.9356 347.37C18.8065 349.688 5.66332 357.495 3.39799 358.92C2.36128 359.55 1.50441 360.434 0.90944 361.488C0.314473 362.542 0.00133117 363.73 0 364.939L0 379.552C0.000604883 380.754 0.306587 381.936 0.889483 382.988C1.47238 384.041 2.31325 384.929 3.33388 385.571C5.04356 386.656 18.5287 394.675 23.8714 397.121L30.4965 413.074C28.5303 418.349 24.7477 433.132 24.0852 435.705C23.8198 436.877 23.857 438.096 24.1934 439.249C24.5297 440.402 25.1542 441.451 26.0085 442.299L36.3949 452.636C37.2443 453.49 38.2986 454.114 39.4579 454.449C40.6172 454.784 41.8432 454.819 43.0199 454.551C44.986 454.104 60.1167 450.297 65.7587 448.17L81.7869 454.763C84.1164 459.868 91.9595 472.949 93.3914 475.204C94.0274 476.249 94.9248 477.112 95.9962 477.709C97.0675 478.305 98.276 478.615 99.5035 478.607H114.185C115.393 478.607 116.581 478.302 117.638 477.722C118.695 477.142 119.588 476.305 120.233 475.289C121.323 473.587 129.38 460.166 131.838 454.848L147.866 448.255C153.166 450.212 168.019 453.976 170.605 454.636C171.782 454.9 173.007 454.863 174.165 454.528C175.324 454.193 176.378 453.572 177.23 452.721L187.616 442.384C188.474 441.539 189.101 440.489 189.437 439.335C189.774 438.182 189.809 436.961 189.54 435.79C189.091 433.833 185.265 418.774 183.128 413.159L189.753 397.206C194.882 394.888 208.026 387.081 210.291 385.656C211.341 385.023 212.208 384.13 212.807 383.064C213.407 381.998 213.718 380.795 213.71 379.573V364.939C213.72 363.735 213.418 362.55 212.834 361.495C212.25 360.441 211.404 359.554 210.376 358.92ZM106.855 418.561C97.645 418.553 88.6441 415.827 80.9909 410.727C73.3376 405.627 67.3756 398.383 63.8588 389.911C60.3421 381.439 59.4285 372.119 61.2336 363.13C63.0387 354.141 67.4814 345.887 74 339.411C80.5185 332.935 88.8201 328.528 97.855 326.748C106.89 324.968 116.252 325.894 124.758 329.41C133.264 332.926 140.531 338.873 145.641 346.499C150.751 354.126 153.474 363.089 153.465 372.256C153.437 384.543 148.515 396.318 139.777 404.998C131.04 413.678 119.2 418.556 106.855 418.561Z" fill="#E7EFFF"/>
<path d="M216.551 119.633C215.527 118.986 207.449 114.197 204.248 112.736L200.279 103.21C201.457 100.06 203.723 91.2324 204.12 89.6955C204.279 88.9961 204.257 88.2681 204.055 87.5795C203.854 86.8909 203.48 86.2643 202.968 85.758L196.707 79.585C196.199 79.0753 195.567 78.7027 194.873 78.5027C194.178 78.3027 193.444 78.2817 192.739 78.4419C191.561 78.7086 182.497 80.9822 179.117 82.2524L169.515 78.3149C168.12 75.2665 163.421 67.4549 162.563 66.1086C162.184 65.4924 161.652 64.9831 161.018 64.6295C160.383 64.2759 159.668 64.0898 158.94 64.089H150.132C149.409 64.0894 148.697 64.2712 148.064 64.6177C147.43 64.9641 146.896 65.4639 146.509 66.0705C145.856 67.0866 141.03 75.1013 139.557 78.2768L129.955 82.2143C126.78 81.0457 117.883 78.7975 116.334 78.4038C115.629 78.246 114.895 78.2682 114.201 78.4681C113.507 78.668 112.875 79.0392 112.365 79.5469L106.143 85.758C105.629 86.2629 105.254 86.8895 105.052 87.5785C104.85 88.2675 104.829 88.9962 104.991 89.6955C105.26 90.8641 107.551 99.8569 108.831 103.21L104.863 112.736C101.79 114.121 93.9165 118.782 92.5595 119.633C91.9384 120.01 91.4251 120.538 91.0687 121.167C90.7123 121.796 90.5247 122.506 90.5239 123.228V131.954C90.5243 132.672 90.7076 133.377 91.0567 134.006C91.4059 134.634 91.9097 135.165 92.5211 135.549C93.5453 136.196 101.624 140.985 104.824 142.446L108.793 151.972C107.615 155.122 105.349 163.949 104.952 165.486C104.793 166.186 104.816 166.914 105.017 167.602C105.219 168.291 105.593 168.918 106.104 169.424L112.326 175.597C112.835 176.107 113.467 176.479 114.161 176.679C114.856 176.879 115.59 176.9 116.295 176.74C117.473 176.473 126.537 174.2 129.917 172.929L139.519 176.867C140.914 179.915 145.613 187.727 146.471 189.073C146.852 189.697 147.389 190.213 148.031 190.569C148.673 190.925 149.397 191.11 150.132 191.106H158.927C159.651 191.105 160.362 190.923 160.996 190.577C161.629 190.23 162.164 189.731 162.551 189.124C163.203 188.108 168.03 180.093 169.502 176.918L179.104 172.98C182.279 174.149 191.177 176.397 192.726 176.791C193.431 176.949 194.165 176.926 194.859 176.726C195.553 176.527 196.184 176.155 196.695 175.648L202.917 169.475C203.43 168.97 203.806 168.343 204.008 167.654C204.209 166.965 204.23 166.236 204.069 165.537C203.8 164.369 201.508 155.376 200.228 152.023L204.197 142.496C207.27 141.112 215.143 136.45 216.5 135.599C217.129 135.221 217.648 134.688 218.008 134.051C218.367 133.414 218.553 132.696 218.548 131.967V123.228C218.554 122.509 218.373 121.801 218.024 121.171C217.674 120.542 217.167 120.012 216.551 119.633ZM154.536 155.249C149.019 155.244 143.627 153.616 139.042 150.57C134.457 147.525 130.886 143.199 128.779 138.14C126.672 133.081 126.125 127.515 127.206 122.147C128.288 116.78 130.949 111.851 134.854 107.983C138.759 104.116 143.732 101.485 149.145 100.422C154.557 99.3588 160.166 99.912 165.261 102.011C170.356 104.111 174.71 107.662 177.771 112.217C180.832 116.771 182.463 122.123 182.458 127.597C182.441 134.935 179.493 141.966 174.258 147.149C169.024 152.333 161.932 155.245 154.536 155.249Z" fill="#487E8E"/>
<path d="M462.991 417.161C462.352 416.758 457.313 413.781 455.316 412.872L452.841 406.949C453.575 404.99 454.989 399.501 455.237 398.545C455.336 398.11 455.322 397.657 455.196 397.229C455.07 396.801 454.837 396.411 454.518 396.097L450.613 392.258C450.295 391.941 449.901 391.709 449.468 391.585C449.035 391.461 448.577 391.448 448.137 391.547C447.402 391.713 441.748 393.127 439.64 393.917L433.651 391.468C432.78 389.573 429.849 384.715 429.314 383.878C429.078 383.495 428.746 383.178 428.35 382.958C427.954 382.739 427.508 382.623 427.054 382.622H421.56C421.109 382.623 420.665 382.736 420.27 382.951C419.875 383.166 419.541 383.477 419.3 383.854C418.893 384.486 415.882 389.47 414.964 391.445L408.974 393.893C406.994 393.166 401.443 391.768 400.477 391.524C400.037 391.425 399.58 391.439 399.147 391.564C398.714 391.688 398.32 391.919 398.001 392.234L394.12 396.097C393.8 396.411 393.566 396.8 393.44 397.229C393.314 397.657 393.301 398.11 393.402 398.545C393.569 399.272 394.999 404.864 395.797 406.949L393.322 412.872C391.405 413.733 386.494 416.632 385.647 417.161C385.26 417.395 384.94 417.723 384.717 418.115C384.495 418.506 384.378 418.947 384.377 419.396V424.822C384.378 425.268 384.492 425.707 384.71 426.098C384.928 426.489 385.242 426.819 385.623 427.057C386.262 427.46 391.301 430.438 393.298 431.346L395.773 437.27C395.039 439.228 393.625 444.718 393.378 445.673C393.278 446.108 393.292 446.561 393.418 446.989C393.544 447.417 393.777 447.807 394.096 448.122L397.977 451.96C398.295 452.277 398.689 452.509 399.122 452.633C399.555 452.758 400.013 452.771 400.453 452.671C401.188 452.505 406.842 451.091 408.95 450.302L414.94 452.75C415.81 454.646 418.741 459.503 419.276 460.34C419.514 460.728 419.849 461.049 420.249 461.27C420.65 461.492 421.101 461.607 421.56 461.604H427.046C427.497 461.604 427.941 461.491 428.336 461.275C428.732 461.06 429.065 460.749 429.306 460.372C429.714 459.74 432.724 454.756 433.643 452.782L439.632 450.333C441.613 451.06 447.163 452.458 448.129 452.703C448.569 452.801 449.027 452.787 449.459 452.663C449.892 452.538 450.286 452.308 450.605 451.992L454.486 448.153C454.806 447.839 455.041 447.45 455.166 447.021C455.292 446.593 455.305 446.14 455.205 445.705C455.037 444.978 453.607 439.386 452.809 437.301L455.284 431.378C457.201 430.517 462.112 427.618 462.959 427.089C463.351 426.854 463.675 426.522 463.899 426.126C464.123 425.73 464.239 425.284 464.237 424.83V419.396C464.24 418.949 464.127 418.509 463.909 418.117C463.691 417.726 463.375 417.397 462.991 417.161ZM424.307 439.307C420.865 439.304 417.502 438.292 414.642 436.398C411.782 434.505 409.554 431.815 408.24 428.669C406.926 425.523 406.585 422.062 407.259 418.724C407.934 415.386 409.594 412.321 412.03 409.917C414.466 407.512 417.568 405.876 420.944 405.215C424.32 404.554 427.819 404.898 430.997 406.203C434.175 407.509 436.891 409.717 438.801 412.549C440.71 415.381 441.727 418.709 441.724 422.113C441.714 426.676 439.874 431.048 436.609 434.271C433.344 437.494 428.92 439.305 424.307 439.307Z" fill="#3F5386"/>
<path d="M136.895 168.767C136.895 157.721 145.849 148.767 156.895 148.767H516.09C527.136 148.767 536.09 157.721 536.09 168.767V390.703H136.895V168.767Z" fill="#455171"/>
<rect x="148.992" y="159.856" width="373.993" height="216.735" rx="15" fill="#EFF5FF"/>
<path d="M83.4674 390.703H589.518C589.518 406.292 576.881 418.929 561.292 418.929H111.693C96.1046 418.929 83.4674 406.292 83.4674 390.703Z" fill="#312F50"/>
<path fill-rule="evenodd" clip-rule="evenodd" d="M177.177 170.944C174.416 170.944 172.177 173.183 172.177 175.944V180.057C172.177 182.819 174.416 185.057 177.177 185.057H495.808C498.569 185.057 500.808 182.819 500.808 180.057V175.944C500.808 173.183 498.569 170.944 495.808 170.944H177.177ZM176.714 196.146C174.208 196.146 172.177 198.177 172.177 200.682C172.177 203.188 174.208 205.219 176.714 205.219H496.271C498.777 205.219 500.808 203.188 500.808 200.682C500.808 198.177 498.777 196.146 496.271 196.146H176.714ZM381.856 215.803C381.856 213.298 383.887 211.267 386.392 211.267H496.271C498.777 211.267 500.808 213.298 500.808 215.803C500.808 218.309 498.777 220.34 496.271 220.34H386.392C383.887 220.34 381.856 218.309 381.856 215.803ZM176.714 211.267C174.208 211.267 172.177 213.298 172.177 215.803C172.177 218.309 174.208 220.34 176.714 220.34H286.593C289.099 220.34 291.13 218.309 291.13 215.803C291.13 213.298 289.099 211.267 286.593 211.267H176.714ZM285.081 230.924C285.081 228.419 287.112 226.388 289.617 226.388H496.271C498.777 226.388 500.808 228.419 500.808 230.924C500.808 233.43 498.777 235.461 496.271 235.461H289.617C287.112 235.461 285.081 233.43 285.081 230.924ZM289.617 286.872C287.112 286.872 285.081 288.903 285.081 291.408C285.081 293.914 287.112 295.945 289.617 295.945H496.271C498.777 295.945 500.808 293.914 500.808 291.408C500.808 288.903 498.777 286.872 496.271 286.872H289.617ZM262.904 246.045C262.904 243.54 264.935 241.509 267.44 241.509H496.271C498.777 241.509 500.808 243.54 500.808 246.045C500.808 248.551 498.777 250.582 496.271 250.582H267.44C264.935 250.582 262.904 248.551 262.904 246.045ZM267.44 301.993C264.935 301.993 262.904 304.024 262.904 306.529C262.904 309.035 264.935 311.066 267.44 311.066H496.271C498.777 311.066 500.808 309.035 500.808 306.529C500.808 304.024 498.777 301.993 496.271 301.993H267.44ZM262.904 261.166C262.904 258.661 264.935 256.63 267.44 256.63H496.271C498.777 256.63 500.808 258.661 500.808 261.166C500.808 263.672 498.777 265.703 496.271 265.703H267.44C264.935 265.703 262.904 263.672 262.904 261.166ZM386.392 271.751C383.887 271.751 381.856 273.782 381.856 276.287C381.856 278.793 383.887 280.824 386.392 280.824H496.271C498.777 280.824 500.808 278.793 500.808 276.287C500.808 273.782 498.777 271.751 496.271 271.751H386.392Z" fill="#D3DDF6"/>
<path d="M420.949 305.704C417.17 309.227 401.055 313.664 393.469 315.441L392.313 330.028C396.112 326.645 405.569 321.261 421.972 321.926C440.198 322.665 453.1 314.009 459.698 307.74C466.297 301.47 457.7 298.939 452.685 299.643C451.637 299.79 433.522 303.938 433.301 302.366C433.081 300.795 440.423 296.024 437.28 296.465C434.137 296.907 425.673 301.301 420.949 305.704Z" fill="#FCC3BE"/>
<path d="M218.21 441.947C215.535 438.132 211.852 418.882 211.21 411.884L200.052 413.332C202.601 417.148 206.231 426.267 203.592 440.838C200.659 457.028 206.783 469.633 211.56 476.31C216.338 482.986 219.672 475.622 219.668 471.054C219.667 470.099 218.221 453.399 219.652 453.398C221.084 453.397 224.43 460.551 224.428 457.688C224.425 454.825 221.555 446.716 218.21 441.947Z" fill="#FCC3BE"/>
<path d="M330.942 319.133C332.805 309.051 312.451 242.274 303.378 234.21C291.101 223.297 282.386 281.18 282.136 286.842C281.824 293.92 296.428 307.101 305.394 325.44C316.483 348.121 325.957 348.611 330.942 348.121C334.931 347.73 379.649 334.714 405.193 325.44C407.701 323.068 410.725 318.823 403.681 311.327C387.916 309.686 336.566 314.889 330.942 319.133Z" fill="#7776A4"/>
<path d="M303.183 233.988C295.997 228.481 278.732 222.056 270.997 219.532C245.173 215.746 213.735 222.974 198.764 233.988C190.98 255.19 205.75 344.126 215.232 376.479H303.183C306.177 337.587 310.369 239.495 303.183 233.988Z" fill="#B0AFD7"/>
<path d="M236.906 226.416C239.295 220.74 238.897 207.124 238.399 201.026C243.627 201.026 254.529 201.623 256.322 204.013C258.114 206.403 266.278 211.481 270.137 213.721C270.137 222.383 274.368 225.794 276.484 226.416L272.75 238.737L260.802 243.591L245.867 239.858C243.004 235.626 234.516 232.091 236.906 226.416Z" fill="#FCC3BE"/>
<path d="M252.214 218.201C244.149 215.214 239.146 204.511 237.652 199.532L270.137 212.601C269.888 214.219 269.838 218.351 271.63 221.935C269.763 222.309 262.296 221.935 252.214 218.201Z" fill="#F0B3AD"/>
<path d="M296.647 183.104C299.036 176.233 295.651 170.782 293.66 168.915C290.673 168.915 277.978 195.799 283.952 196.545C289.926 197.292 293.66 191.691 296.647 183.104Z" fill="#7776A4"/>
<path d="M289.926 183.477C296.497 158.684 284.201 143.027 277.231 138.298C270.492 131.577 221.224 138.298 224.957 165.928C228.691 193.558 242.88 209.24 254.455 213.721C266.029 218.201 281.712 214.468 289.926 183.477Z" fill="#FCC3BE"/>
<path d="M264.536 158.834C273.497 156.743 284.45 149.499 288.806 146.139V140.165L250.347 148.006C247.983 149.997 243.029 159.058 242.133 179.37C245.867 167.048 253.334 161.447 264.536 158.834Z" fill="#F0B3AD"/>
<path d="M236.532 186.837C237.727 183.253 242.506 187.335 244.747 189.824C239.146 165.928 253.334 157.714 259.309 155.473C265.283 153.233 276.858 146.885 280.965 142.778C288.432 147.632 293.286 165.555 291.419 177.876C301.127 173.022 299.634 160.701 299.634 153.233C299.634 145.765 301.874 137.924 304.114 134.19C306.355 130.457 305.608 120.002 299.634 114.028C293.66 108.054 282.458 110.294 276.858 115.521C271.257 120.749 264.536 120.002 250.347 115.521C236.159 111.041 227.571 114.401 224.584 120.002C221.597 125.603 227.571 127.47 214.503 137.924C201.434 148.379 207.782 153.233 214.503 171.529C219.879 186.165 232.674 197.79 238.399 201.773C237.279 198.288 235.337 190.422 236.532 186.837Z" fill="#141332"/>
<path d="M218.983 185.344C215.25 173.396 223.962 167.173 228.691 166.675C248.107 168.915 243.627 189.078 239.146 192.065C234.665 195.052 222.717 197.292 218.983 185.344Z" fill="#7776A4"/>
<path d="M242.88 235.377C236.607 231.195 237.528 223.678 238.773 220.442C237.404 220.068 234.665 221.114 234.665 228.283C234.665 237.244 242.88 242.098 247.36 243.591C251.841 245.085 263.491 246.541 270.883 242.845C277.604 239.484 277.604 232.017 277.604 228.283C277.604 225.643 273.871 221.189 273.124 220.815C272.377 220.442 271.257 219.695 270.883 220.068C273.871 225.296 273.497 235.377 267.15 237.991C260.802 240.604 250.721 240.604 242.88 235.377Z" fill="#7776A4"/>
<path d="M235.412 190.945C238.524 195.665 249.227 206.845 262.669 204.846" stroke="#B0AFD7" stroke-width="2"/>
<path d="M270.137 118.508C241.162 113.729 230.185 148.877 228.318 167.048C228.069 169.288 228.169 172.425 230.558 167.048C236.234 126.125 258.064 118.633 268.27 120.002C269.514 119.877 271.63 119.405 270.137 118.508Z" fill="#7776A4"/>
<path d="M221.597 187.211C216.519 182.133 218.61 171.472 225.704 168.168C232.001 165.236 239.22 174.097 237.652 180.863C236.185 187.199 227.944 193.558 221.597 187.211Z" fill="#B0AFD7"/>
<path d="M203.075 423.673C172.329 343.081 179.778 249.304 198.821 234.369C223.09 269.84 208.529 309.045 208.529 326.967C208.529 353.69 215.527 417.326 213.66 423.673C211.569 426.66 205.689 424.918 203.075 423.673Z" fill="#7776A4"/>
<path d="M266.403 202.893C263.117 201.997 262.296 204.013 262.296 205.133C262.296 208.867 268.27 207.747 269.017 207C269.763 206.253 270.51 204.013 266.403 202.893Z" fill="#7776A4"/>
<circle cx="426.362" cy="270.5" r="42.8429" fill="url(#paint1_linear)"/>
<path d="M412.4 284.548C420.356 292.481 431.388 296.469 441.167 296.192C443.701 296.121 446.139 295.209 448.099 293.602C450.059 291.994 451.429 289.781 451.995 287.309C452.144 286.601 452.064 285.863 451.764 285.204C451.465 284.545 450.963 283.999 450.331 283.645L440.335 277.916C439.679 277.54 438.918 277.391 438.169 277.49C437.421 277.59 436.725 277.933 436.19 278.466L432.593 282.058C431.815 282.84 430.814 283.361 429.727 283.549C428.64 283.737 427.521 283.582 426.526 283.105C420.981 280.37 416.493 275.882 413.757 270.337C413.281 269.342 413.126 268.223 413.314 267.136C413.502 266.049 414.023 265.047 414.805 264.269L418.397 260.671C418.93 260.137 419.273 259.442 419.373 258.693C419.472 257.945 419.323 257.184 418.947 256.529L413.217 246.531C412.863 245.899 412.317 245.397 411.658 245.098C410.999 244.799 410.262 244.718 409.554 244.868C407.083 245.433 404.869 246.803 403.261 248.763C401.653 250.723 400.742 253.162 400.67 255.696C400.394 265.474 404.381 276.506 412.314 284.463C412.328 284.477 412.386 284.534 412.4 284.548Z" fill="#141332"/>
<path d="M484.298 282.543C485.446 282.933 490.52 282.448 492.314 282.098L492.766 284.989C491.628 284.631 489.086 284.39 485.641 286.112C481.813 288.025 478.219 287.416 476.204 286.71C474.189 286.004 475.784 284.635 476.925 284.302C477.163 284.233 481.438 283.376 481.334 283.018C481.23 282.661 479.2 282.347 479.915 282.139C480.63 281.931 482.863 282.056 484.298 282.543Z" fill="#FCC3BE"/>
<path d="M498.9 384.319C498.9 383.513 499.908 374.575 500.412 370.206L505.957 368.694C504.949 374.239 502.63 385.428 501.421 385.831C499.908 386.335 498.9 385.327 498.9 384.319Z" fill="#FCC3BE"/>
<path d="M549.555 376.17C548.944 375.644 542.826 369.05 539.844 365.819L542.314 360.63C545.859 365.01 552.828 374.066 552.345 375.246C551.741 376.721 550.319 376.827 549.555 376.17Z" fill="#FCC3BE"/>
<path d="M498.9 370.206C497.691 364.158 503.773 319.635 506.965 298.129C513.013 291.073 526.118 302.162 525.11 307.706C524.304 312.142 515.03 352.565 510.493 372.223C508.813 372.223 504.142 371.819 498.9 370.206Z" fill="#7776A4"/>
<path d="M520.07 345.509C516.441 338.251 515.197 310.226 515.029 297.121C519.566 293.425 529.445 288.049 532.671 296.113C536.703 306.194 535.695 315.267 535.191 330.388C534.687 345.509 545.272 357.605 549.304 364.158C547.691 367.787 542.247 370.374 539.727 371.214C534.687 365.67 523.699 352.767 520.07 345.509Z" fill="#B0AFD7"/>
<path d="M504.949 277.464C510.191 274.238 512.509 259.991 513.013 253.27C515.029 261.839 517.449 279.883 510.997 283.512C502.933 288.049 491.34 285.529 489.828 285.529C488.618 285.529 489.324 282.84 489.828 281.496C492.684 281.496 499.707 280.69 504.949 277.464Z" fill="#75C786"/>
<path d="M507.973 238.149C505.957 226.053 508.813 222.692 510.493 222.524L517.55 238.149V247.222C516.878 250.078 515.13 255.387 513.517 253.774C511.501 251.758 510.493 253.27 507.973 238.149Z" fill="#141332"/>
<path d="M516.542 241.174C506.864 243.19 508.477 229.917 510.493 223.028C515.534 218.996 524.102 225.045 524.102 232.101C518.054 239.359 521.582 249.574 524.102 253.774H515.03C515.534 251.254 516.542 245.206 516.542 241.174Z" fill="#FCC3BE"/>
<path d="M511.501 266.375C511.501 257.303 513.517 249.238 515.534 249.742C517.114 250.137 519.792 248.951 521.005 248.271C536.558 254.865 537.207 299.138 534.687 300.146C532.167 301.154 514.525 299.138 503.437 298.129C505.453 294.097 511.501 275.448 511.501 266.375Z" fill="#8FD39D"/>
<path d="M532.288 312.66C532.754 311.541 532.61 306.446 532.381 304.632L535.296 304.375C534.863 305.486 534.452 308.006 535.939 311.559C537.591 315.507 536.742 319.051 535.903 321.015C535.064 322.978 533.805 321.295 533.55 320.134C533.496 319.892 532.928 315.569 532.564 315.649C532.2 315.729 531.751 317.734 531.591 317.007C531.432 316.279 531.706 314.059 532.288 312.66Z" fill="#FCC3BE"/>
<path d="M522.086 265.871C519.263 257.807 520.91 253.102 522.086 251.758C533.679 250.246 535.695 276.96 536.199 282C536.703 287.041 536.199 305.69 535.695 307.202C535.292 308.412 532.839 307.034 531.663 306.194C531.495 301.658 531.058 291.476 530.655 287.041C530.151 281.496 525.614 275.952 522.086 265.871Z" fill="#75C786"/>
<path d="M484.283 388.856C485.896 387.646 494.364 384.655 498.396 383.311C498.732 383.647 499.908 384.118 501.925 383.311C502.328 383.311 503.437 388.352 503.941 390.872H485.796C484.619 390.704 482.67 390.065 484.283 388.856Z" fill="#B0AFD7"/>
<path d="M543.46 390.209C543.595 388.197 546.851 379.828 548.462 375.894C548.936 375.859 550.06 375.274 550.764 373.22C551.027 372.914 555.57 375.361 557.81 376.623L545.975 390.377C545.08 391.159 543.325 392.22 543.46 390.209Z" fill="#B0AFD7"/>
<path d="M528.134 221.516C521.683 213.452 513.685 218.828 510.493 222.524C514.525 232.605 523.598 227.565 523.598 232.605C518.759 239.683 519.961 246.474 520.969 248.566C522.817 248.566 526.513 252.094 529.646 260.831C534.227 273.606 549.808 267.383 551.824 264.359C553.84 261.335 553.336 253.774 539.727 247.726C526.118 241.678 536.199 231.597 528.134 221.516Z" fill="#141332"/>
<path d="M244.084 30.5432C243.957 29.9977 243.854 29.2004 243.66 28.0134C243.492 27.6419 243.185 27.3846 242.741 27.2413C242.009 26.9187 241.02 26.9022 239.851 27.1739C239.15 27.3369 238.467 27.5778 237.975 27.9384C237.131 28.5453 236.772 29.1215 236.881 29.589L237.152 30.7579L237.696 33.0956L239.235 39.719L239.815 42.2126L240.394 44.7061C240.63 45.7191 240.914 47.2957 241.169 49.4539C241.187 49.5319 241.471 51.1084 242.058 54.3395C242.33 55.5084 242.868 58.1759 242.983 59.3809C243.358 61.3471 243.697 63.1575 244.059 64.7159C244.403 66.1965 245.187 69.2173 245.405 70.1524L245.858 72.1005C246.044 72.5499 246.35 72.8073 246.716 72.9686C247.526 73.2732 248.438 73.3077 249.451 73.0723C250.152 72.9093 250.817 72.5904 251.464 72.1937C252.309 71.5867 252.668 71.0105 252.559 70.543C252.324 69.53 251.648 66.9766 251.413 65.9636C251.213 65.1065 250.748 62.7507 250.549 61.8935C250.422 61.3481 250.168 60.2571 249.866 58.6026C249.545 56.8702 249.37 55.7612 249.243 55.2157L248.881 53.6573C248.687 52.4703 248.463 50.7977 248.3 50.0964C248.142 49.0653 247.76 46.3616 247.525 45.3486C247.403 44.4733 247.077 43.0707 246.661 41.2785L246.48 40.4992L245.918 38.0836L245.339 35.5901C245.121 34.655 244.428 32.0237 244.21 31.0886L244.084 30.5432ZM253.44 78.2228C252.708 77.9002 251.719 77.8837 250.55 78.1554C249.849 78.3184 249.166 78.5593 248.674 78.9198C247.83 79.5268 247.471 80.103 247.58 80.5705L248.069 82.6744C248.237 83.046 248.465 83.3214 248.909 83.4646C249.641 83.7873 250.631 83.8037 251.8 83.5321L251.878 83.514C252.579 83.351 253.184 83.1282 253.675 82.7676C254.52 82.1607 254.879 81.5845 254.77 81.1169L254.281 79.013C254.113 78.6415 253.884 78.366 253.44 78.2228Z" fill="white"/>
<path d="M266.748 42.9014C266.696 42.4141 266.693 41.7106 266.653 40.659C266.547 40.3182 266.309 40.0617 265.939 39.8894C265.338 39.5301 264.481 39.409 263.436 39.5186C262.81 39.5844 262.19 39.7198 261.725 39.9798C260.926 40.4156 260.552 40.8771 260.596 41.2948L260.706 42.3391L260.925 44.4276L261.546 50.3451L261.78 52.5729L262.014 54.8006C262.109 55.7056 262.186 57.1053 262.174 59.0069C262.181 59.0765 262.258 60.4762 262.418 63.3451C262.528 64.3894 262.707 66.7637 262.677 67.8225C262.79 69.5703 262.889 71.1788 263.035 72.5711C263.174 73.8939 263.528 76.6016 263.616 77.4371L263.799 79.1775C263.912 79.5879 264.15 79.8444 264.451 80.0241C265.121 80.376 265.909 80.5044 266.814 80.4094C267.441 80.3437 268.052 80.1386 268.657 79.864C269.456 79.4282 269.83 78.9667 269.786 78.549C269.691 77.6439 269.38 75.3539 269.285 74.4489C269.205 73.6831 269.055 71.5872 268.975 70.8214C268.924 70.3341 268.821 69.3595 268.737 67.8902C268.646 66.3513 268.614 65.3693 268.562 64.882L268.416 63.4897C268.376 62.4381 268.362 60.9615 268.296 60.335C268.271 59.4226 268.231 57.0337 268.136 56.1287C268.125 55.3556 267.994 54.1025 267.826 52.5013L267.753 51.8051L267.526 49.647L267.292 47.4192C267.204 46.5838 266.886 44.2241 266.799 43.3887L266.748 42.9014ZM269.722 85.3126C269.121 84.9534 268.264 84.8322 267.219 84.9419C266.593 85.0076 265.974 85.143 265.508 85.4031C264.709 85.8388 264.335 86.3004 264.379 86.7181L264.577 88.5978C264.683 88.9386 264.851 89.2024 265.221 89.3747C265.822 89.734 266.679 89.8551 267.724 89.7455L267.793 89.7382C268.42 89.6724 268.969 89.5443 269.435 89.2843C270.234 88.8485 270.608 88.387 270.564 87.9693L270.366 86.0896C270.26 85.7488 270.092 85.4849 269.722 85.3126Z" fill="white"/>
<path d="M508.775 120.713C484.203 136.86 511.952 192.821 526.578 211.25C539.742 190.188 564.314 198.087 580.11 198.087C595.907 198.087 613.458 170.004 603.805 141.922C594.151 113.839 539.49 100.529 508.775 120.713Z" fill="url(#paint2_linear)"/>
<path d="M540.766 145.999C540.589 147.09 540.464 147.86 540.306 148.427C540.278 149.41 541.104 150.005 542.836 150.286C544.633 150.577 545.604 150.273 545.824 149.321C546.044 148.369 546.263 147.022 546.564 145.161C546.773 143.878 546.956 141.932 547.164 140.649C547.404 139.173 547.719 138.039 548.058 137.172C549.637 134.334 551.545 133.128 553.673 133.408L553.952 133.716C554.673 134.953 555.171 136.35 555.499 137.984C555.752 139.671 555.644 141.958 555.176 144.846L555.103 145.295C554.364 149.85 552.847 152.304 550.047 154.55C548.097 156.012 546.649 157.225 545.723 158.063C544.563 159.126 543.577 160.744 542.625 162.96C541.979 164.502 541.464 166.46 541.09 168.769C541.008 169.678 541.898 170.283 543.63 170.564C545.106 170.803 547.093 170.731 547.249 169.768C547.509 168.164 547.792 166.827 548.151 165.832C548.531 164.708 548.975 163.595 549.493 162.428C550.31 161.046 551.885 159.457 554.366 157.555C556.848 155.653 558.507 153.946 559.27 152.49C560.214 150.733 560.909 148.475 561.336 145.845L561.377 145.588L561.481 144.946C561.575 144.369 561.74 142.947 561.823 142.434C561.946 141.268 561.941 140.082 561.669 138.919C560.932 134.124 558.611 131.377 554.697 130.742C552.195 130.336 550.282 130.355 548.906 130.725C544.829 131.907 542.448 134.814 541.709 139.369C541.532 140.46 541.454 142.16 541.256 143.379C541.184 143.828 540.932 144.972 540.849 145.486L540.766 145.999ZM543.363 175.46C541.053 175.085 539.794 175.539 539.586 176.823C539.389 178.042 540.781 178.794 542.257 179.034C543.219 179.19 544.02 179.122 544.66 178.831C545.375 178.486 545.779 178.024 545.893 177.318C546.049 176.356 545.224 175.761 543.363 175.46Z" fill="white"/>
<path d="M559.257 166.385C558.889 167.151 558.629 167.692 558.39 168.076C558.155 168.796 558.635 169.414 559.852 169.998C561.114 170.604 561.897 170.591 562.266 169.937C562.636 169.282 563.09 168.336 563.717 167.028C564.15 166.127 564.709 164.731 565.142 163.829C565.639 162.793 566.119 162.025 566.557 161.458C568.34 159.707 570.009 159.233 571.519 159.902L571.657 160.19C571.921 161.259 571.984 162.399 571.87 163.676C571.69 164.976 571.114 166.64 570.14 168.668L569.989 168.984C568.453 172.184 566.8 173.665 564.245 174.713C562.489 175.367 561.156 175.948 560.291 176.365C559.204 176.897 558.124 177.876 556.939 179.304C556.128 180.301 555.322 181.634 554.543 183.257C554.286 183.909 554.81 184.549 556.028 185.133C557.064 185.631 558.547 186.009 558.871 185.333C559.412 184.206 559.911 183.281 560.392 182.625C560.917 181.878 561.487 181.154 562.123 180.405C563.026 179.563 564.534 178.734 566.778 177.87C569.023 177.006 570.619 176.108 571.498 175.199C572.577 174.108 573.581 172.593 574.468 170.745L574.554 170.565L574.77 170.114C574.965 169.708 575.396 168.695 575.569 168.334C575.913 167.501 576.167 166.625 576.22 165.707C576.719 162.009 575.604 159.478 572.854 158.158C571.096 157.314 569.681 156.913 568.585 156.886C565.319 156.872 562.93 158.498 561.395 161.699C561.027 162.465 560.6 163.702 560.189 164.558C560.037 164.874 559.603 165.664 559.43 166.024L559.257 166.385ZM554.766 188.687C553.143 187.909 552.115 187.97 551.683 188.872C551.272 189.728 552.135 190.586 553.172 191.084C553.848 191.408 554.454 191.533 554.99 191.457C555.592 191.358 555.99 191.105 556.228 190.609C556.553 189.933 556.073 189.315 554.766 188.687Z" fill="white"/>
<defs>
<linearGradient id="paint0_linear" x1="254.497" y1="7.02057" x2="254.497" y2="107.064" gradientUnits="userSpaceOnUse">
<stop stop-color="#AFC0E4"/>
<stop offset="1" stop-color="#6375A7"/>
</linearGradient>
<linearGradient id="paint1_linear" x1="426.362" y1="227.657" x2="426.362" y2="313.343" gradientUnits="userSpaceOnUse">
<stop stop-color="#80A6C5"/>
<stop offset="1" stop-color="#8AC2AD"/>
</linearGradient>
<linearGradient id="paint2_linear" x1="554.598" y1="120.713" x2="554.598" y2="211.25" gradientUnits="userSpaceOnUse">
<stop stop-color="#75C786"/>
<stop offset="1" stop-color="#DAEDFF"/>
</linearGradient>
</defs>
</svg>
