<svg width="32" height="32" viewBox="0 0 32 32" fill="none" xmlns="http://www.w3.org/2000/svg">
<path d="M24.9999 23V5C24.9999 3.93913 24.5785 2.92172 23.8283 2.17157C23.0782 1.42143 22.0608 1 20.9999 1H4.59991C6.79991 1 7.99991 2.8 7.99991 5V27C7.99991 28.0609 8.42134 29.0783 9.17149 29.8284C9.92163 30.5786 10.939 31 11.9999 31" fill="white"/>
<path d="M8 5H1C1 2.8 2.4 1 4.6 1C5.56765 1.11285 6.45654 1.58835 7.08749 2.33064C7.71843 3.07292 8.04451 4.02681 8 5Z" fill="#B6B6FB"/>
<path opacity="0.1" d="M8 5H1C1 2.8 2.4 1 4.6 1C5.56765 1.11285 6.45654 1.58835 7.08749 2.33064C7.71843 3.07292 8.04451 4.02681 8 5ZM11.5 25.5C11.5 25.5 13.55 29.6 12.3 31L16.5 28.4L16 25.5H11.5Z" fill="#000064"/>
<path d="M27 23H12C13.0609 23 14.0783 23.4214 14.8284 24.1716C15.5786 24.9217 16 25.9391 16 27C16 28.0609 15.5786 29.0783 14.8284 29.8284C14.0783 30.5786 13.0609 31 12 31H27C28.0609 31 29.0783 30.5786 29.8284 29.8284C30.5786 29.0783 31 28.0609 31 27C31 25.9391 30.5786 24.9217 29.8284 24.1716C29.0783 23.4214 28.0609 23 27 23Z" fill="#B6B6FB"/>
<path opacity="0.1" d="M12 31H27C27.6998 30.9975 28.3866 30.8115 28.992 30.4606C29.5974 30.1096 30.1001 29.606 30.45 29H15.45C15.1001 29.606 14.5974 30.1096 13.992 30.4606C13.3866 30.8115 12.6998 30.9975 12 31Z" fill="#000064"/>
<path opacity="0.2" d="M27 23H12C12.6998 23.0025 13.3866 23.1885 13.992 23.5394C14.5974 23.8904 15.1001 24.394 15.45 25H30.45C30.1001 24.394 29.5974 23.8904 28.992 23.5394C28.3866 23.1885 27.6998 23.0025 27 23Z" fill="white"/>
<path d="M24.9999 23V5C24.9999 3.93913 24.5785 2.92172 23.8283 2.17157C23.0782 1.42143 22.0608 1 20.9999 1H4.59991C6.79991 1 7.99991 2.8 7.99991 5V27C7.99991 28.0609 8.42134 29.0783 9.17149 29.8284C9.92163 30.5786 10.939 31 11.9999 31" stroke="#363694" stroke-width="2" stroke-linecap="round" stroke-linejoin="round"/>
<path d="M13 17H20M27 23H12C13.0609 23 14.0783 23.4214 14.8284 24.1716C15.5786 24.9217 16 25.9391 16 27C16 28.0609 15.5786 29.0783 14.8284 29.8284C14.0783 30.5786 13.0609 31 12 31H27C28.0609 31 29.0783 30.5786 29.8284 29.8284C30.5786 29.0783 31 28.0609 31 27C31 25.9391 30.5786 24.9217 29.8284 24.1716C29.0783 23.4214 28.0609 23 27 23ZM4.6 1C2.4 1 1 2.8 1 5H8L4.6 1ZM13 7H20H13ZM13 12H20H13Z" stroke="#363694" stroke-width="2" stroke-linecap="round" stroke-linejoin="round"/>
</svg>
