<svg width="20" height="23" viewBox="0 0 20 23" fill="none" xmlns="http://www.w3.org/2000/svg">
<path fill-rule="evenodd" clip-rule="evenodd" d="M18.166 0.333252C17.3376 0.333252 16.666 1.00482 16.666 1.83325V21.4999C16.666 22.3283 17.3376 22.9999 18.166 22.9999C18.9944 22.9999 19.666 22.3283 19.666 21.4999V1.83325C19.666 1.00482 18.9944 0.333252 18.166 0.333252ZM8.66602 7.16659C8.66602 6.33816 9.33759 5.66658 10.166 5.66658C10.9944 5.66658 11.666 6.33816 11.666 7.16658V21.4999C11.666 22.3283 10.9944 22.9999 10.166 22.9999C9.33759 22.9999 8.66602 22.3283 8.66602 21.4999V7.16659ZM0.666016 12.4999C0.666016 11.6715 1.33759 10.9999 2.16602 10.9999C2.99444 10.9999 3.66602 11.6715 3.66602 12.4999V21.4999C3.66602 22.3283 2.99444 22.9999 2.16602 22.9999C1.33759 22.9999 0.666016 22.3283 0.666016 21.4999V12.4999Z" fill="#6D6DF6"/>
</svg>
