<svg width="21" height="20" viewBox="0 0 21 20" fill="none" xmlns="http://www.w3.org/2000/svg">
<path d="M19.5591 8.06233C19.2112 7.8379 18.9423 7.51003 18.7904 7.12483C17.8707 4.93651 16.126 3.19855 13.9341 2.28733C13.883 2.25992 13.8289 2.23853 13.7729 2.22358L13.6379 2.17108C13.3834 2.08083 13.1618 1.91657 13.0014 1.6994C12.8411 1.48223 12.7493 1.22206 12.7379 0.952332C12.7379 0.952332 12.7379 0.918582 12.7379 0.903582C12.7419 0.720399 12.682 0.541534 12.5684 0.397792C12.4547 0.25405 12.2946 0.154428 12.1154 0.116082C12.0065 0.0967154 11.8947 0.101667 11.7879 0.130583C11.6812 0.159499 11.5822 0.211662 11.498 0.283338C11.4137 0.355013 11.3464 0.444426 11.3008 0.545172C11.2552 0.645919 11.2324 0.755505 11.2341 0.866082C11.2341 1.06499 11.1551 1.25576 11.0145 1.39641C10.8738 1.53706 10.683 1.61608 10.4841 1.61608H10.4504C10.2653 1.61842 10.0863 1.54975 9.95034 1.4242C9.81432 1.29865 9.73158 1.12576 9.71913 0.941082C9.71913 0.941082 9.71913 0.903582 9.71913 0.884832C9.72362 0.744727 9.68876 0.606167 9.6185 0.484869C9.54824 0.363572 9.4454 0.264393 9.32163 0.198582C9.20694 0.137506 9.07835 0.107276 8.94845 0.110855C8.81856 0.114434 8.69183 0.151698 8.58067 0.218996C8.46952 0.286295 8.37776 0.381317 8.31438 0.494753C8.251 0.608188 8.21818 0.736145 8.21913 0.866082C8.21913 1.01811 8.23167 1.16987 8.25663 1.31983C8.27911 1.46843 8.24707 1.62015 8.16643 1.74697C8.08579 1.87379 7.96199 1.96716 7.81788 2.00983C7.71723 2.04227 7.61013 2.04932 7.5061 2.03035C7.40207 2.01137 7.30434 1.96697 7.22163 1.90108C7.06952 1.77764 6.94635 1.62231 6.86082 1.44607C6.77529 1.26983 6.72949 1.07696 6.72663 0.881082C6.72786 0.78259 6.70968 0.684821 6.67313 0.593356C6.63657 0.50189 6.58236 0.41852 6.51359 0.348006C6.44482 0.277491 6.36283 0.221213 6.2723 0.182385C6.18178 0.143556 6.0845 0.122938 5.98601 0.121707C5.88751 0.120475 5.78974 0.138656 5.69828 0.17521C5.60681 0.211763 5.52344 0.265974 5.45293 0.334747C5.38241 0.403521 5.32614 0.48551 5.28731 0.576033C5.24848 0.666556 5.22786 0.76384 5.22663 0.862332C5.22609 1.32685 5.34076 1.78426 5.56038 2.19358C5.65259 2.37331 5.67565 2.58063 5.6252 2.77623C5.57474 2.97184 5.45427 3.14213 5.28663 3.25483C3.90271 4.23144 2.82151 5.57774 2.16663 7.13983C2.0172 7.51502 1.75519 7.83467 1.41663 8.05483C0.983331 8.32408 0.625848 8.69937 0.377968 9.14524C0.130088 9.5911 0 10.0928 0 10.603C0 11.1131 0.130088 11.6148 0.377968 12.0607C0.625848 12.5065 0.983331 12.8818 1.41663 13.1511C1.76446 13.3733 2.03445 13.6984 2.18913 14.0811C2.87409 15.7181 4.0277 17.1161 5.50494 18.0993C6.98217 19.0825 8.7171 19.6071 10.4916 19.6071C12.2662 19.6071 14.0011 19.0825 15.4783 18.0993C16.9556 17.1161 18.1092 15.7181 18.7941 14.0811C18.9488 13.6984 19.2188 13.3733 19.5666 13.1511C19.9999 12.8818 20.3574 12.5065 20.6053 12.0607C20.8532 11.6148 20.9833 11.1131 20.9833 10.603C20.9833 10.0928 20.8532 9.5911 20.6053 9.14524C20.3574 8.69937 19.9999 8.32408 19.5666 8.05483L19.5591 8.06233ZM6.73788 12.1123C6.58954 12.1123 6.44454 12.0683 6.3212 11.9859C6.19787 11.9035 6.10174 11.7864 6.04497 11.6493C5.98821 11.5123 5.97335 11.3615 6.00229 11.216C6.03123 11.0705 6.10266 10.9369 6.20755 10.832C6.31244 10.7271 6.44608 10.6557 6.59156 10.6267C6.73705 10.5978 6.88785 10.6127 7.02489 10.6694C7.16194 10.7262 7.27907 10.8223 7.36148 10.9457C7.44389 11.069 7.48788 11.214 7.48788 11.3623C7.48788 11.5612 7.40886 11.752 7.26821 11.8927C7.12756 12.0333 6.93679 12.1123 6.73788 12.1123ZM10.4879 16.6423C10.1912 16.6423 9.9012 16.5544 9.65452 16.3895C9.40785 16.2247 9.21559 15.9904 9.10206 15.7164C8.98853 15.4423 8.95883 15.1407 9.0167 14.8497C9.07458 14.5587 9.21744 14.2915 9.42722 14.0817C9.637 13.8719 9.90427 13.729 10.1952 13.6712C10.4862 13.6133 10.7878 13.643 11.0619 13.7565C11.336 13.87 11.5703 14.0623 11.7351 14.309C11.8999 14.5556 11.9879 14.8457 11.9879 15.1423C11.9879 15.5402 11.8298 15.9217 11.5485 16.203C11.2672 16.4843 10.8857 16.6423 10.4879 16.6423ZM14.2379 12.1123C14.0895 12.1123 13.9445 12.0683 13.8212 11.9859C13.6979 11.9035 13.6017 11.7864 13.545 11.6493C13.4882 11.5123 13.4734 11.3615 13.5023 11.216C13.5312 11.0705 13.6027 10.9369 13.7076 10.832C13.8124 10.7271 13.9461 10.6557 14.0916 10.6267C14.237 10.5978 14.3878 10.6127 14.5249 10.6694C14.6619 10.7262 14.7791 10.8223 14.8615 10.9457C14.9439 11.069 14.9879 11.214 14.9879 11.3623C14.9879 11.5612 14.9089 11.752 14.7682 11.8927C14.6276 12.0333 14.4368 12.1123 14.2379 12.1123Z" fill="white"/>
</svg>
