<svg width="16" height="16" viewBox="0 0 16 16" fill="none" xmlns="http://www.w3.org/2000/svg">
<path d="M4.36344 5.54188C4.038 5.21644 4.038 4.6888 4.36344 4.36336C4.68888 4.03793 5.21652 4.03793 5.54195 4.36336L11.6367 10.4581C11.9621 10.7836 11.9621 11.3112 11.6367 11.6366C11.3113 11.9621 10.7836 11.9621 10.4582 11.6366L4.36344 5.54188Z" fill="#656A84"/>
<path d="M4.36344 11.6366C4.038 11.3112 4.038 10.7836 4.36344 10.4581L10.4582 4.36337C10.7836 4.03793 11.3113 4.03793 11.6367 4.36337C11.9621 4.6888 11.9621 5.21644 11.6367 5.54188L5.54195 11.6366C5.21652 11.9621 4.68888 11.9621 4.36344 11.6366Z" fill="#656A84"/>
</svg>
