<svg width="18" height="18" viewBox="0 0 18 18" fill="none" xmlns="http://www.w3.org/2000/svg">
<path d="M4.63642 6.05025C4.2459 5.65973 4.2459 5.02656 4.63642 4.63604C5.02695 4.24551 5.66011 4.24551 6.05064 4.63604L13.3643 11.9497C13.7549 12.3403 13.7549 12.9734 13.3643 13.364C12.9738 13.7545 12.3407 13.7545 11.9501 13.364L4.63642 6.05025Z" fill="#343C5A"/>
<path d="M4.63642 13.364C4.2459 12.9734 4.2459 12.3403 4.63642 11.9497L11.9501 4.63604C12.3407 4.24551 12.9738 4.24552 13.3643 4.63604C13.7549 5.02656 13.7549 5.65973 13.3643 6.05025L6.05064 13.364C5.66011 13.7545 5.02695 13.7545 4.63642 13.364Z" fill="#343C5A"/>
</svg>
