<svg width="24" height="24" viewBox="0 0 24 24" fill="white" xmlns="http://www.w3.org/2000/svg">
    <path
        fill-rule="evenodd"
        clip-rule="evenodd"
        d="M8.70711 12.2929C8.31658 11.9024 7.68342 11.9024 7.29289 12.2929C6.90237 12.6834 6.90237 13.3166 7.29289 13.7071L11.2929 17.7071C11.4804 17.8946 11.7348 18 12 18C12.2652 18 12.5196 17.8946 12.7071 17.7071L16.7071 13.7071C17.0976 13.3166 17.0976 12.6834 16.7071 12.2929C16.3166 11.9024 15.6834 11.9024 15.2929 12.2929L13 14.5858V7H17C18.6569 7 20 8.34315 20 10V19C20 20.6569 18.6569 22 17 22H7C5.34315 22 4 20.6569 4 19V10C4 8.34315 5.34315 7 7 7H11L11 14.5858L8.70711 12.2929ZM11 7V3C11 2.44771 11.4477 2 12 2C12.5523 2 13 2.44771 13 3V7H11Z"
    />
</svg>
