<svg width="16" height="16" viewBox="0 0 16 16" fill="none" xmlns="http://www.w3.org/2000/svg">
<path d="M9.62 7.29715C9.62 6.36381 9.20667 5.89715 8.38 5.89715C7.83333 5.89715 7.39333 6.11715 7.06 6.55715C6.74 6.99715 6.58 7.57048 6.58 8.27715C6.58 8.75715 6.7 9.12381 6.94 9.37715C7.19333 9.61715 7.52 9.73715 7.92 9.73715C8.45333 9.73715 8.86667 9.49715 9.16 9.01715C9.46667 8.53715 9.62 7.96381 9.62 7.29715ZM12.32 11.9571H14.66C13.9667 12.9838 13.0533 13.7905 11.92 14.3771C10.7867 14.9638 9.57333 15.2571 8.28 15.2571C5.98667 15.2571 4.16667 14.5705 2.82 13.1971C1.47333 11.8371 0.8 10.0638 0.8 7.87715C0.8 5.70381 1.52667 3.89715 2.98 2.45715C4.43333 1.00381 6.24 0.277147 8.4 0.277147C10.52 0.277147 12.24 0.863814 13.56 2.03715C14.8933 3.19715 15.56 4.71048 15.56 6.57715C15.56 8.13715 15.1333 9.35048 14.28 10.2171C13.44 11.0705 12.4867 11.4971 11.42 11.4971C10.54 11.4971 9.92 11.1971 9.56 10.5971C9.06667 11.1971 8.38667 11.4971 7.52 11.4971C6.6 11.4971 5.86 11.2105 5.3 10.6371C4.75333 10.0638 4.48 9.28381 4.48 8.29715C4.48 7.12381 4.79333 6.12381 5.42 5.29715C6.04667 4.45715 6.89333 4.03715 7.96 4.03715C8.96 4.03715 9.68667 4.35715 10.14 4.99715L10.3 4.31715H12.14L11.24 8.77715C11.2133 8.88381 11.2 8.97048 11.2 9.03715C11.2 9.23715 11.2533 9.41048 11.36 9.55715C11.48 9.69048 11.64 9.75715 11.84 9.75715C12.36 9.75715 12.8 9.47048 13.16 8.89715C13.52 8.32381 13.7 7.58381 13.7 6.67715C13.7 5.17048 13.2 4.02381 12.2 3.23715C11.2133 2.45048 9.92667 2.05715 8.34 2.05715C6.7 2.05715 5.37333 2.59715 4.36 3.67715C3.34667 4.74381 2.84 6.13048 2.84 7.83715C2.84 9.59715 3.34 10.9771 4.34 11.9771C5.35333 12.9771 6.71333 13.4771 8.42 13.4771C9.14 13.4771 9.85333 13.3305 10.56 13.0371C11.28 12.7571 11.8667 12.3971 12.32 11.9571Z" fill="#8FD39D"/>
</svg>
