<svg width="25" height="23" viewBox="0 0 25 23" fill="none" xmlns="http://www.w3.org/2000/svg">
<path d="M1.88533 11.8027C1.88533 11.8027 2.55682 14.7727 2.76343 14.7727C2.99587 14.7727 6.04339 11.8543 6.04339 11.8543H14.1012C15.3926 11.8543 16.4515 10.7955 16.4515 9.50413V2.35021C16.4515 1.05888 15.3926 0 14.1012 0H2.35021C1.05888 0 0 1.05888 0 2.35021V9.47831C0 10.6147 0.80062 11.5703 1.88533 11.8027ZM9.96901 5.01033H11.751V6.79236H9.96901V5.01033ZM7.30889 5.01033H9.09091V6.79236H7.30889V5.01033ZM4.64876 5.01033H6.43079V6.79236H4.64876V5.01033Z" fill="#9C9EDB"/>
<path d="M22.6497 8.05762H18.1559V9.47807C18.1559 11.725 16.3481 13.5328 14.1011 13.5328H8.54846V17.5359C8.54846 18.8272 9.60735 19.8861 10.8987 19.8861H18.9565C18.9565 19.8861 22.004 22.8045 22.2365 22.8045C22.4689 22.8045 23.1146 19.8345 23.1146 19.8345C24.1735 19.602 24.9999 18.6723 24.9999 17.5359V10.4078C24.9999 9.1165 23.941 8.05762 22.6497 8.05762Z" fill="#9C9EDB"/>
</svg>
