<svg width="20" height="17" viewBox="0 0 20 17" fill="none" xmlns="http://www.w3.org/2000/svg">
<path d="M1 10.0001C1.73228 11.1717 2.52904 12.1716 3.37117 13.0001C4.66318 14.2711 6.06227 15.1383 7.50039 15.6015C9.14981 16.1328 10.8506 16.1328 12.5 15.6015C13.9381 15.1383 15.3372 14.2711 16.6291 13.0001C17.4712 12.1716 18.2678 11.1716 19 10.0001" stroke="#38454F" stroke-width="2" stroke-linecap="round" stroke-linejoin="round"/>
<path d="M19 10C18.2677 8.82836 17.471 7.82846 16.6288 7M1 10C1.73223 8.82843 2.5288 7.82843 3.37087 7M3.37087 7L1 4.39856M3.37087 7C4.66285 5.72895 6.06191 4.86181 7.5 4.39856M16.6288 7L19 4.39856M16.6288 7C15.3368 5.72896 13.9377 4.86181 12.4996 4.39856M7.5 4.39856L6.5 1M7.5 4.39856C9.14942 3.86724 10.8502 3.86724 12.4996 4.39856M12.4996 4.39856L13.5 1" stroke="#38454F" stroke-width="2" stroke-linecap="round" stroke-linejoin="round"/>
<circle cx="10" cy="10" r="3" stroke="#38454F" stroke-width="2"/>
</svg>
