<svg width="32" height="32" viewBox="0 0 32 32" fill="none" xmlns="http://www.w3.org/2000/svg">
<path d="M22.1646 4.00527L18.9665 4C15.3736 4 13.0517 6.44707 13.0517 10.2346V13.1091H9.8362C9.55834 13.1091 9.33333 13.3405 9.33333 13.6259V17.7908C9.33333 18.0763 9.55859 18.3074 9.8362 18.3074H13.0517V28.8168C13.0517 29.1022 13.2767 29.3333 13.5546 29.3333H17.7499C18.0277 29.3333 18.2528 29.1019 18.2528 28.8168V18.3074H22.0124C22.2903 18.3074 22.5153 18.0763 22.5153 17.7908L22.5168 13.6259C22.5168 13.4889 22.4637 13.3576 22.3696 13.2607C22.2754 13.1637 22.1471 13.1091 22.0137 13.1091H18.2528V10.6723C18.2528 9.5011 18.5245 8.90653 20.0097 8.90653L22.1641 8.90574C22.4417 8.90574 22.6667 8.67434 22.6667 8.38918V4.52183C22.6667 4.23693 22.4419 4.0058 22.1646 4.00527Z" fill="#C9CBD4"/>
</svg>
