<svg width="20" height="20" viewBox="0 0 20 20" fill="none" xmlns="http://www.w3.org/2000/svg">
<path d="M15.0002 6.66658H14.1668V4.99992C14.1668 2.69992 12.3002 0.833252 10.0002 0.833252C7.70016 0.833252 5.8335 2.69992 5.8335 4.99992V6.66658H5.00016C4.07933 6.66658 3.3335 7.41242 3.3335 8.33325V16.6666C3.3335 17.5874 4.07933 18.3333 5.00016 18.3333H15.0002C15.921 18.3333 16.6668 17.5874 16.6668 16.6666V8.33325C16.6668 7.41242 15.921 6.66658 15.0002 6.66658ZM10.0002 14.1666C9.07933 14.1666 8.3335 13.4208 8.3335 12.4999C8.3335 11.5791 9.07933 10.8333 10.0002 10.8333C10.921 10.8333 11.6668 11.5791 11.6668 12.4999C11.6668 13.4208 10.921 14.1666 10.0002 14.1666ZM12.5835 6.66658H7.41683V4.99992C7.41683 3.57492 8.57516 2.41659 10.0002 2.41659C11.4252 2.41659 12.5835 3.57492 12.5835 4.99992V6.66658Z" fill="#656A84"/>
</svg>
