<svg width="30" height="30" viewBox="0 0 30 30" fill="none" xmlns="http://www.w3.org/2000/svg">
    <mask id="mask0" mask-type="alpha" maskUnits="userSpaceOnUse" x="0" y="0" width="30" height="30">
        <rect x="0.5" y="0.5" width="29" height="29" rx="1.5" fill="#343C5A" stroke="#343C5A"/>
    </mask>
    <g mask="url(#mask0)">
        <path d="M28.5 15C28.5 12.33 27.7082 9.71987 26.2248 7.4998C24.7414 5.27974 22.633 3.54941 20.1662 2.52763C17.6994 1.50584 14.985 1.2385 12.3663 1.7594C9.74754 2.2803 7.34207 3.56605 5.45406 5.45406C3.56605 7.34207 2.2803 9.74754 1.7594 12.3663C1.2385 14.985 1.50584 17.6994 2.52763 20.1662C3.54941 22.633 5.27974 24.7414 7.4998 26.2248C9.71987 27.7082 12.33 28.5 15 28.5"
              stroke="#343C5A" stroke-width="2" stroke-linecap="round"/>
        <mask id="path-3-inside-1" fill="white">
            <path fill-rule="evenodd" clip-rule="evenodd"
                  d="M20.712 16.8419C20.899 16.2615 21 15.6426 21 15C21 11.6863 18.3137 9 15 9C11.6863 9 9 11.6863 9 15C9 18.3137 11.6863 21 15 21C15.6423 21 16.2611 20.8991 16.8412 20.7122L20.1895 29.5311C20.2408 29.6659 20.331 29.7824 20.4486 29.8659C20.5662 29.9493 20.706 29.996 20.8501 30H20.872C21.0106 29.9985 21.146 29.9575 21.2621 29.8818C21.3783 29.806 21.4705 29.6987 21.5278 29.5724L23.7138 24.6871C24.0429 24.0924 24.2902 23.9034 24.7825 23.6838L29.5698 21.529C29.7012 21.4699 29.8122 21.3733 29.8887 21.2512C29.9652 21.1291 30.0039 20.9871 29.9997 20.8431C29.9955 20.699 29.9488 20.5595 29.8653 20.442C29.7819 20.3245 29.6655 20.2344 29.5309 20.1831L29.5285 20.1904L20.712 16.8419ZM20.712 16.8419L15.9875 15.0475C15.8562 14.9976 15.7133 14.9867 15.576 15.0162C15.4386 15.0456 15.3127 15.1141 15.2134 15.2135C15.1141 15.3128 15.0456 15.4387 15.0162 15.5761C14.9867 15.7134 14.9976 15.8564 15.0475 15.9877L16.8412 20.7122C18.6738 20.122 20.1215 18.6743 20.712 16.8419Z"/>
        </mask>
        <path fill-rule="evenodd" clip-rule="evenodd"
              d="M20.712 16.8419C20.899 16.2615 21 15.6426 21 15C21 11.6863 18.3137 9 15 9C11.6863 9 9 11.6863 9 15C9 18.3137 11.6863 21 15 21C15.6423 21 16.2611 20.8991 16.8412 20.7122L20.1895 29.5311C20.2408 29.6659 20.331 29.7824 20.4486 29.8659C20.5662 29.9493 20.706 29.996 20.8501 30H20.872C21.0106 29.9985 21.146 29.9575 21.2621 29.8818C21.3783 29.806 21.4705 29.6987 21.5278 29.5724L23.7138 24.6871C24.0429 24.0924 24.2902 23.9034 24.7825 23.6838L29.5698 21.529C29.7012 21.4699 29.8122 21.3733 29.8887 21.2512C29.9652 21.1291 30.0039 20.9871 29.9997 20.8431C29.9955 20.699 29.9488 20.5595 29.8653 20.442C29.7819 20.3245 29.6655 20.2344 29.5309 20.1831L29.5285 20.1904L20.712 16.8419ZM20.712 16.8419L15.9875 15.0475C15.8562 14.9976 15.7133 14.9867 15.576 15.0162C15.4386 15.0456 15.3127 15.1141 15.2134 15.2135C15.1141 15.3128 15.0456 15.4387 15.0162 15.5761C14.9867 15.7134 14.9976 15.8564 15.0475 15.9877L16.8412 20.7122C18.6738 20.122 20.1215 18.6743 20.712 16.8419Z"
              fill="#343C5A"/>
        <path d="M20.1895 29.5311L19.2546 29.8861L19.2551 29.8874L20.1895 29.5311ZM20.8501 30L20.8224 30.9996L20.8362 31H20.8501V30ZM20.872 30V31.0001L20.8826 30.9999L20.872 30ZM21.2621 29.8818L20.716 29.0441L20.716 29.0441L21.2621 29.8818ZM21.5278 29.5724L22.4384 29.9857L22.4406 29.9809L21.5278 29.5724ZM23.7138 24.6871L22.8388 24.2028L22.8183 24.2399L22.801 24.2786L23.7138 24.6871ZM24.7825 23.6838L25.1899 24.597L25.1929 24.5956L24.7825 23.6838ZM29.5698 21.529L29.1601 20.6167L29.1593 20.6171L29.5698 21.529ZM29.9997 20.8431L29.0001 20.8719L29.0001 20.8719L29.9997 20.8431ZM29.5309 20.1831L29.8872 19.2487L28.9121 18.8769L28.5822 19.867L29.5309 20.1831ZM29.5285 20.1904L29.1734 21.1252L30.1478 21.4953L30.4772 20.5065L29.5285 20.1904ZM15.9875 15.0475L15.6322 15.9823L15.6324 15.9824L15.9875 15.0475ZM15.576 15.0162L15.7856 15.994L15.7856 15.994L15.576 15.0162ZM15.2134 15.2135L14.5063 14.5064L14.5062 14.5064L15.2134 15.2135ZM15.0162 15.5761L15.994 15.7856L15.994 15.7856L15.0162 15.5761ZM15.0475 15.9877L15.9824 15.6327L15.9823 15.6325L15.0475 15.9877ZM20 15C20 15.5372 19.9156 16.0527 19.7602 16.5352L21.6638 17.1486C21.8823 16.4703 22 15.7479 22 15H20ZM15 10C17.7614 10 20 12.2386 20 15H22C22 11.134 18.866 8 15 8V10ZM10 15C10 12.2386 12.2386 10 15 10V8C11.134 8 8 11.134 8 15H10ZM15 20C12.2386 20 10 17.7614 10 15H8C8 18.866 11.134 22 15 22V20ZM16.5347 19.7604C16.0524 19.9157 15.537 20 15 20V22C15.7476 22 16.4698 21.8824 17.1478 21.664L16.5347 19.7604ZM21.1243 29.1762L17.7761 20.3573L15.9064 21.0671L19.2546 29.8861L21.1243 29.1762ZM21.0274 29.0504C21.0712 29.0814 21.1047 29.1248 21.1239 29.1749L19.2551 29.8874C19.3769 30.207 19.5909 30.4834 19.8699 30.6814L21.0274 29.0504ZM20.8778 29.0004C20.9315 29.0019 20.9836 29.0193 21.0274 29.0504L19.8699 30.6814C20.1489 30.8794 20.4804 30.9901 20.8224 30.9996L20.8778 29.0004ZM20.872 29H20.8501V31H20.872V29ZM20.716 29.0441C20.7593 29.0159 20.8097 29.0006 20.8614 29.0001L20.8826 30.9999C21.2116 30.9965 21.5327 30.8991 21.8083 30.7195L20.716 29.0441ZM20.6171 29.1592C20.6385 29.1122 20.6727 29.0723 20.716 29.0441L21.8083 30.7195C22.0839 30.5398 22.3025 30.2852 22.4384 29.9857L20.6171 29.1592ZM22.801 24.2786L20.615 29.164L22.4406 29.9809L24.6265 25.0955L22.801 24.2786ZM24.375 22.7705C24.0913 22.8971 23.795 23.0505 23.5155 23.3037C23.2379 23.5552 23.031 23.8555 22.8388 24.2028L24.5887 25.1713C24.7256 24.924 24.807 24.8324 24.8583 24.7859C24.9078 24.741 24.9813 24.6901 25.1899 24.597L24.375 22.7705ZM29.1593 20.6171L24.372 22.7719L25.1929 24.5956L29.9802 22.4408L29.1593 20.6171ZM29.0414 20.7201C29.0699 20.6747 29.1112 20.6387 29.1601 20.6167L29.9794 22.4412C30.2912 22.3012 30.5545 22.0719 30.736 21.7823L29.0414 20.7201ZM29.0001 20.8719C28.9986 20.8184 29.0129 20.7655 29.0414 20.7201L30.736 21.7823C30.9175 21.4927 31.0091 21.1558 30.9993 20.8142L29.0001 20.8719ZM29.0501 21.0211C29.019 20.9774 29.0017 20.9255 29.0001 20.8719L30.9993 20.8142C30.9894 20.4726 30.8785 20.1415 30.6806 19.8629L29.0501 21.0211ZM29.1746 21.1175C29.1245 21.0984 29.0811 21.0648 29.0501 21.0211L30.6806 19.8629C30.4827 19.5843 30.2066 19.3705 29.8872 19.2487L29.1746 21.1175ZM30.4772 20.5065L30.4797 20.4992L28.5822 19.867L28.5798 19.8743L30.4772 20.5065ZM20.3569 17.7767L29.1734 21.1252L29.8835 19.2556L21.067 15.907L20.3569 17.7767ZM15.6324 15.9824L20.3569 17.7767L21.067 15.907L16.3426 14.1127L15.6324 15.9824ZM15.7856 15.994C15.7344 16.0049 15.6811 16.0009 15.6322 15.9823L16.3428 14.1128C16.0313 13.9944 15.6922 13.9685 15.3664 14.0384L15.7856 15.994ZM15.9206 15.9205C15.8836 15.9575 15.8367 15.983 15.7856 15.994L15.3664 14.0384C15.0405 14.1082 14.7418 14.2708 14.5063 14.5064L15.9206 15.9205ZM15.994 15.7856C15.983 15.8367 15.9576 15.8835 15.9206 15.9205L14.5062 14.5064C14.2707 14.7421 14.1082 15.0408 14.0384 15.3665L15.994 15.7856ZM15.9823 15.6325C16.0009 15.6814 16.0049 15.7345 15.994 15.7856L14.0384 15.3665C13.9686 15.6923 13.9944 16.0314 14.1127 16.3428L15.9823 15.6325ZM17.7761 20.3573L15.9824 15.6327L14.1126 16.3426L15.9064 21.0671L17.7761 20.3573ZM19.7602 16.5352C19.2684 18.0613 18.0608 19.2688 16.5347 19.7604L17.1478 21.664C19.2867 20.9751 20.9746 19.2874 21.6638 17.1486L19.7602 16.5352Z"
              fill="#343C5A" mask="url(#path-3-inside-1)"/>
    </g>
</svg>
