<svg width="469" height="380" viewBox="0 0 469 380" fill="none" xmlns="http://www.w3.org/2000/svg">
<mask id="mask0_21478_53981" style="mask-type:alpha" maskUnits="userSpaceOnUse" x="0" y="0" width="469" height="380">
<rect width="469" height="380" fill="#C4C4C4"/>
</mask>
<g mask="url(#mask0_21478_53981)">
<rect opacity="0.03" x="59.7466" y="312.058" width="243.197" height="238.464" rx="70" transform="rotate(-107.652 59.7466 312.058)" fill="#312C51"/>
<rect opacity="0.03" x="254" y="318.208" width="175.686" height="172.266" rx="57" transform="rotate(-65.7695 254 318.208)" fill="#312C51"/>
<rect opacity="0.03" x="286.814" y="90.2822" width="68.8276" height="67.4881" rx="23" transform="rotate(-94.8456 286.814 90.2822)" fill="#312C51"/>
<rect x="252.829" y="70.4023" width="100.378" height="12.2684" rx="6.13419" transform="rotate(15.1823 252.829 70.4023)" fill="white" stroke="#A9ADBB"/>
<rect x="250.737" y="78.1123" width="100.378" height="4.27942" rx="2.13971" transform="rotate(15.1823 250.737 78.1123)" fill="#EBECEC"/>
<rect x="252.829" y="70.4023" width="100.378" height="12.2684" rx="6.13419" transform="rotate(15.1823 252.829 70.4023)" stroke="#A9ADBB"/>
<rect x="264.877" y="74.1006" width="74.7174" height="12.2684" rx="6.13419" transform="rotate(107.544 264.877 74.1006)" fill="white" stroke="#A9ADBB"/>
<path d="M260.008 72.5613C262.697 73.4114 264.188 76.2804 263.338 78.9693L243.123 142.908C242.698 144.252 241.264 144.998 239.919 144.573C238.575 144.148 237.83 142.713 238.255 141.369L260.008 72.5613Z" fill="#EBECEC"/>
<rect x="264.877" y="74.1006" width="74.7174" height="12.2684" rx="6.13419" transform="rotate(107.544 264.877 74.1006)" stroke="#A9ADBB"/>
<rect x="239.049" y="122.365" width="78.5374" height="12.2684" rx="6.13419" transform="rotate(164.306 239.049 122.365)" fill="white" stroke="#A9ADBB"/>
<rect x="239.049" y="122.365" width="78.5374" height="5.10407" rx="2.55204" transform="rotate(164.306 239.049 122.365)" fill="#EBECEC"/>
<rect x="239.049" y="122.365" width="78.5374" height="12.2684" rx="6.13419" transform="rotate(164.306 239.049 122.365)" stroke="#A9ADBB"/>
<rect x="244.737" y="141.822" width="67.1132" height="12.2684" rx="6.13419" transform="rotate(155.834 244.737 141.822)" fill="white" stroke="#A9ADBB"/>
<rect x="244.737" y="141.822" width="67.1132" height="4.51595" rx="2.25797" transform="rotate(155.834 244.737 141.822)" fill="#EBECEC"/>
<rect x="244.737" y="141.822" width="67.1132" height="12.2684" rx="6.13419" transform="rotate(155.834 244.737 141.822)" stroke="#A9ADBB"/>
<rect x="225.34" y="225.438" width="80.538" height="12.2684" rx="6.13419" transform="rotate(-125.793 225.34 225.438)" fill="white" stroke="#A9ADBB"/>
<rect x="232.1" y="220.563" width="80.538" height="3.93489" rx="1.96745" transform="rotate(-125.793 232.1 220.563)" fill="#EBECEC"/>
<rect x="225.34" y="225.438" width="80.538" height="12.2684" rx="6.13419" transform="rotate(-125.793 225.34 225.438)" stroke="#A9ADBB"/>
<rect x="205.004" y="282.312" width="23.4215" height="12.2684" rx="6.13419" transform="rotate(-90 205.004 282.312)" fill="white" stroke="#A9ADBB"/>
<rect x="213.926" y="282.312" width="23.4215" height="3.34592" rx="1.67296" transform="rotate(-90 213.926 282.312)" fill="#EBECEC"/>
<rect x="205.004" y="282.312" width="23.4215" height="12.2684" rx="6.13419" transform="rotate(-90 205.004 282.312)" stroke="#A9ADBB"/>
<rect x="201.143" y="259.132" width="89.5085" height="12.2684" rx="6.13419" transform="rotate(-135.059 201.143 259.132)" fill="white" stroke="#A9ADBB"/>
<rect x="207.131" y="253.132" width="89.5085" height="3.79098" rx="1.89549" transform="rotate(-135.059 207.131 253.132)" fill="#EBECEC"/>
<rect x="201.143" y="259.132" width="89.5085" height="12.2684" rx="6.13419" transform="rotate(-135.059 201.143 259.132)" stroke="#A9ADBB"/>
<path d="M144.684 197.091L134.354 180.521C133.758 179.566 133.747 178.359 134.325 177.393L160.642 133.406C162.78 129.833 167.236 128.4 171.055 130.058C175.307 131.904 177.219 136.877 175.298 141.096L149.96 196.747C148.969 198.925 145.95 199.122 144.684 197.091Z" fill="white" stroke="#A9ADBB"/>
<path d="M145.51 193.603L143.653 186.438C143.452 185.661 143.571 184.835 143.983 184.146L174.333 133.417C175.744 136.24 175.809 139.548 174.509 142.423L151.147 194.086C149.981 196.665 146.22 196.343 145.51 193.603Z" fill="#EBECEC"/>
<path d="M144.684 197.091L134.354 180.521C133.758 179.566 133.747 178.359 134.325 177.393L160.642 133.406C162.78 129.833 167.236 128.4 171.055 130.058C175.307 131.904 177.219 136.877 175.298 141.096L149.96 196.747C148.969 198.925 145.95 199.122 144.684 197.091Z" stroke="#A9ADBB"/>
<path d="M229.466 111.736C232.628 110.885 235.901 112.672 236.896 115.793L243.765 137.343C244.826 140.672 242.893 144.214 239.518 145.121C236.355 145.972 233.083 144.185 232.088 141.065L225.219 119.515C224.158 116.185 226.091 112.644 229.466 111.736Z" fill="white" stroke="#A9ADBB"/>
<path d="M230.518 111.453C233.538 110.641 236.654 112.392 237.53 115.395L244.138 138.052C245.003 141.017 243.261 144.115 240.278 144.917L230.518 111.453Z" fill="#EBECEC"/>
<path d="M229.466 111.736C232.628 110.885 235.901 112.672 236.896 115.793L243.765 137.343C244.826 140.672 242.893 144.214 239.518 145.121V145.121C236.355 145.972 233.083 144.185 232.088 141.065L225.219 119.515C224.158 116.185 226.091 112.644 229.466 111.736V111.736Z" stroke="#A9ADBB"/>
<mask id="mask1_21478_53981" style="mask-type:alpha" maskUnits="userSpaceOnUse" x="194" y="275" width="34" height="17">
<path d="M198.491 277.134L194.966 291.233H227.31L223.785 277.134C223.563 276.244 222.763 275.619 221.845 275.619H200.431C199.514 275.619 198.714 276.244 198.491 277.134Z" fill="#DDDFE5"/>
</mask>
<g mask="url(#mask1_21478_53981)">
<path d="M198.491 277.134L194.966 291.233H227.31L223.785 277.134C223.563 276.244 222.763 275.619 221.845 275.619H200.431C199.514 275.619 198.714 276.244 198.491 277.134Z" fill="#A9ADBB"/>
<path d="M190.525 277.134L187 291.233H219.344L215.44 275.619H192.465C191.547 275.619 190.747 276.244 190.525 277.134Z" fill="#E4E4E4"/>
</g>
<mask id="mask2_21478_53981" style="mask-type:alpha" maskUnits="userSpaceOnUse" x="146" y="291" width="132" height="10">
<path d="M149.418 292.271L146 301H278L274.582 292.271C274.282 291.504 273.543 291 272.72 291H151.28C150.457 291 149.718 291.504 149.418 292.271Z" fill="#A9ADBB"/>
</mask>
<g mask="url(#mask2_21478_53981)">
<path d="M149.418 292.271L146 301H278L274.582 292.271C274.282 291.504 273.543 291 272.72 291H151.28C150.457 291 149.718 291.504 149.418 292.271Z" fill="#A9ADBB"/>
<path d="M115.418 292.271L112 301H244L240.582 292.271C240.282 291.504 239.543 291 238.72 291H117.28C116.457 291 115.718 291.504 115.418 292.271Z" fill="#E4E4E4"/>
</g>
<mask id="mask3_21478_53981" style="mask-type:alpha" maskUnits="userSpaceOnUse" x="121" y="301" width="182" height="12">
<path d="M126.17 302.134L121.356 312.153H302.036L297.221 302.134C296.888 301.441 296.188 301 295.419 301H127.973C127.204 301 126.503 301.441 126.17 302.134Z" fill="#A9ADBB"/>
</mask>
<g mask="url(#mask3_21478_53981)">
<path d="M126.17 302.134L121.356 312.153H302.036L297.221 302.134C296.888 301.441 296.188 301 295.419 301H127.973C127.204 301 126.503 301.441 126.17 302.134Z" fill="#A9ADBB"/>
<path d="M93.8143 302.134L89 312.153H269.68L264.865 302.134C264.532 301.441 263.832 301 263.063 301H95.617C94.8482 301 94.1474 301.441 93.8143 302.134Z" fill="#E4E4E4"/>
</g>
<mask id="mask4_21478_53981" style="mask-type:alpha" maskUnits="userSpaceOnUse" x="246" y="63" width="165" height="178">
<path fill-rule="evenodd" clip-rule="evenodd" d="M408.287 86.5856C408.926 85.0569 408.205 83.2997 406.676 82.6608L361.788 63.9022C360.259 63.2633 358.502 63.9847 357.863 65.5134L346.184 93.4614C345.981 93.9473 345.654 94.3712 345.235 94.6905L248.172 168.686C246.336 170.086 246.704 172.949 248.834 173.84L406.79 239.849C408.921 240.74 411.217 238.99 410.923 236.699L395.656 117.854C395.589 117.332 395.661 116.801 395.864 116.315L408.287 86.5856Z" fill="#FF5256"/>
</mask>
<g mask="url(#mask4_21478_53981)">
<path fill-rule="evenodd" clip-rule="evenodd" d="M408.287 86.5856C408.926 85.0569 408.205 83.2997 406.676 82.6608L361.788 63.9022C360.259 63.2633 358.502 63.9847 357.863 65.5134L346.184 93.4614C345.981 93.9473 345.654 94.3712 345.235 94.6905L248.172 168.686C246.336 170.086 246.704 172.949 248.834 173.84L406.79 239.849C408.921 240.74 411.217 238.99 410.923 236.699L395.656 117.854C395.589 117.332 395.661 116.801 395.864 116.315L408.287 86.5856Z" fill="#FF5256"/>
<path fill-rule="evenodd" clip-rule="evenodd" d="M391.622 77.2211C392.261 75.6924 391.54 73.9352 390.011 73.2963L339.655 52.2528C338.127 51.6139 336.37 52.3353 335.731 53.8641L322.626 85.2236C322.423 85.7095 322.095 86.1333 321.676 86.4526L213.572 168.866C211.736 170.266 212.103 173.129 214.234 174.019L390.357 247.621C392.488 248.512 394.784 246.761 394.49 244.471L377.485 112.094C377.418 111.571 377.489 111.04 377.692 110.555L391.622 77.2211Z" fill="#FF6C70"/>
</g>
<path d="M249.229 226.206L230.24 211.775C228.016 210.085 224.84 210.544 223.186 212.794L194.478 251.856C193.197 253.599 193.534 256.045 195.238 257.377L207.399 266.877C208.919 268.065 211.071 267.998 212.514 266.719L249.52 233.929C251.879 231.839 251.739 228.114 249.229 226.206Z" fill="white" stroke="#A9ADBB"/>
<path d="M212.514 266.718L249.52 233.929C251.879 231.838 251.739 228.113 249.229 226.206L245.155 223.109L207.234 266.748L207.399 266.877C208.919 268.064 211.071 267.998 212.514 266.718Z" fill="#EBECEC"/>
<path d="M249.229 226.206L230.24 211.775C228.016 210.085 224.84 210.544 223.186 212.794L194.478 251.856C193.197 253.599 193.534 256.045 195.238 257.377L207.399 266.877C208.919 268.065 211.071 267.998 212.514 266.719L249.52 233.929C251.879 231.839 251.739 228.114 249.229 226.206Z" stroke="#A9ADBB"/>
<path d="M82 312H313.5M330 312H444" stroke="#A9ADBB" stroke-width="2" stroke-linejoin="round"/>
<path d="M134.182 202.971V182.606C134.182 181.504 134.785 180.491 135.755 179.967L182.02 154.945C185.88 152.858 190.693 154.054 193.127 157.705C195.696 161.558 194.704 166.759 190.898 169.397L138.89 205.437C136.901 206.816 134.182 205.392 134.182 202.971Z" fill="white" stroke="#A9ADBB"/>
<path d="M134.182 202.964V196.432L194.966 162.415C194.611 165.254 193.066 167.809 190.715 169.441L138.893 205.428C136.903 206.81 134.182 205.386 134.182 202.964Z" fill="#EBECEC"/>
<path d="M134.182 202.971V182.606C134.182 181.504 134.785 180.491 135.755 179.967L182.02 154.945C185.88 152.858 190.693 154.054 193.127 157.705C195.696 161.558 194.704 166.759 190.898 169.397L138.89 205.437C136.901 206.816 134.182 205.392 134.182 202.971Z" stroke="#A9ADBB"/>
<path d="M171.545 136.763C171.545 138.919 169.797 140.667 167.641 140.667C165.485 140.667 163.738 138.919 163.738 136.763C163.738 134.607 165.485 132.859 167.641 132.859C169.797 132.859 171.545 134.607 171.545 136.763Z" fill="#A9ADBB"/>
<circle cx="237.906" cy="138.993" r="3.90358" fill="#A9ADBB"/>
<circle cx="231.214" cy="117.803" r="3.90358" fill="#A9ADBB"/>
<circle cx="256.865" cy="78.7669" r="3.90358" fill="#A9ADBB"/>
<circle cx="237.906" cy="233.795" r="3.90358" fill="#A9ADBB"/>
<circle cx="210.023" cy="258.331" r="3.90358" fill="#A9ADBB"/>
<circle cx="141.989" cy="193.644" r="3.90358" fill="#A9ADBB"/>
<circle cx="186.601" cy="161.3" r="3.90358" fill="#A9ADBB"/>
<path fill-rule="evenodd" clip-rule="evenodd" d="M395.157 290.858C392.474 289.381 391.151 286.327 391.208 283.265C391.399 273.021 386.045 263.018 376.445 257.737C362.653 250.151 345.323 255.18 337.737 268.971C330.15 282.762 335.18 300.093 348.971 307.679C358.571 312.96 369.886 312.128 378.436 306.482C380.992 304.794 384.28 304.276 386.963 305.753L395.41 310.399C399.523 312.662 404.692 311.162 406.955 307.049C409.217 302.936 407.717 297.767 403.604 295.504L395.157 290.858Z" fill="white"/>
<path d="M378.436 306.482L378.161 306.065L378.436 306.482ZM376.204 258.175C385.635 263.363 390.896 273.19 390.708 283.255L391.708 283.274C391.903 272.852 386.455 262.673 376.686 257.299L376.204 258.175ZM338.175 269.212C345.628 255.663 362.654 250.722 376.204 258.175L376.686 257.299C362.652 249.579 345.018 254.697 337.299 268.73L338.175 269.212ZM349.212 307.241C335.663 299.788 330.721 282.762 338.175 269.212L337.299 268.73C329.579 282.763 334.697 300.398 348.73 308.117L349.212 307.241ZM378.161 306.065C369.76 311.612 358.643 312.429 349.212 307.241L348.73 308.117C358.499 313.491 370.013 312.643 378.712 306.899L378.161 306.065ZM395.651 309.961L387.204 305.315L386.722 306.191L395.169 310.837L395.651 309.961ZM406.517 306.808C404.387 310.679 399.522 312.091 395.651 309.961L395.169 310.837C399.524 313.233 404.997 311.645 407.393 307.29L406.517 306.808ZM403.363 295.942C407.234 298.072 408.646 302.937 406.517 306.808L407.393 307.29C409.789 302.935 408.2 297.462 403.845 295.066L403.363 295.942ZM394.916 291.296L403.363 295.942L403.845 295.066L395.398 290.42L394.916 291.296ZM378.712 306.899C381.157 305.285 384.243 304.827 386.722 306.191L387.204 305.315C384.316 303.726 380.827 304.304 378.161 306.065L378.712 306.899ZM390.708 283.255C390.649 286.45 392.028 289.707 394.916 291.296L395.398 290.42C392.919 289.056 391.653 286.204 391.708 283.274L390.708 283.255Z" fill="#A9ADBB"/>
<path d="M403.604 295.504C407.717 297.767 409.217 302.936 406.955 307.049C404.692 311.162 399.523 312.662 395.41 310.399L386 305.223L394.5 290.496L403.604 295.504Z" fill="#EBECEC" stroke="#A9ADBB"/>
<path d="M385.969 305.776L394.645 290.005" stroke="#A9ADBB"/>
<path d="M389.474 307.704L398.15 291.933" stroke="#A9ADBB"/>
<path d="M392.979 309.633L401.655 293.862" stroke="#A9ADBB"/>
<path d="M396.725 311.122L404.918 296.227" stroke="#A9ADBB"/>
<path d="M335.742 291.271C339.352 290.517 341.802 288.898 342.576 288.183L340.167 281.151L341.942 275.85L346.017 274.667L356.247 270.594M356.247 270.594L350.113 267.22L345.711 259.662M356.247 270.594L359.313 272.281L358.262 276.267L353.749 277.209L359.488 279.225L372.609 281.307L376.946 284.834" stroke="#A9ADBB" stroke-linejoin="round"/>
</g>
</svg>
