<svg width="24" height="24" viewBox="0 0 24 24" fill="none" xmlns="http://www.w3.org/2000/svg">
    <path fill-rule="evenodd" clip-rule="evenodd" d="M11 2C9.34315 2 8 3.34315 8 5H6.00982H5.99218H5H4C3.44772 5 3 5.44772 3 6C3 6.55228 3.44772 7 4 7H5H5.065L5.88474 19.1871L5.88491 19.1897C5.985 20.7696 7.29558 22 8.8789 22H15.1211C16.7044 22 18.015 20.7696 18.1151 19.1897L18.1153 19.1871L18.935 7H19H20C20.5523 7 21 6.55228 21 6C21 5.44772 20.5523 5 20 5H19H18.0078H17.9902H16C16 3.34315 14.6569 2 13 2H11ZM14 5H10C10 4.44772 10.4477 4 11 4H13C13.5523 4 14 4.44772 14 5ZM10.6991 9.95718C10.6754 9.4054 10.209 8.97727 9.65718 9.00092C9.1054 9.02456 8.67727 9.49104 8.70092 10.0428L9.00092 17.0428C9.02456 17.5946 9.49104 18.0227 10.0428 17.9991C10.5946 17.9754 11.0227 17.509 10.9991 16.9572L10.6991 9.95718ZM15.2991 10.0428C15.3227 9.49104 14.8946 9.02456 14.3428 9.00092C13.791 8.97727 13.3246 9.4054 13.3009 9.95718L13.0009 16.9572C12.9773 17.509 13.4054 17.9754 13.9572 17.9991C14.509 18.0227 14.9754 17.5946 14.9991 17.0428L15.2991 10.0428Z" fill="#6D6DF6"/>
</svg>
