<svg width="32" height="32" viewBox="0 0 32 32" fill="none" xmlns="http://www.w3.org/2000/svg">
<path d="M28 17C28.394 17 28.7841 16.9224 29.1481 16.7716C29.512 16.6209 29.8427 16.3999 30.1213 16.1213C30.3999 15.8427 30.6209 15.512 30.7716 15.1481C30.9224 14.7841 31 14.394 31 14C31 13.606 30.9224 13.2159 30.7716 12.8519C30.6209 12.488 30.3999 12.1573 30.1213 11.8787C29.8427 11.6001 29.512 11.3791 29.1481 11.2284C28.7841 11.0776 28.394 11 28 11V17ZM4 9C3.20435 9 2.44129 9.31607 1.87868 9.87868C1.31607 10.4413 1 11.2044 1 12V16C1 16.7956 1.31607 17.5587 1.87868 18.1213C2.44129 18.6839 3.20435 19 4 19H10V9H4Z" fill="#6D6DF6"/>
<path d="M13 9H10V19H13C18.4069 19.0143 23.6659 20.7673 28 24V4C23.5973 7.09912 18.3817 8.83766 13 9Z" fill="white"/>
<path opacity="0.14" d="M11 15.5H4C3.20435 15.5 2.44129 15.1839 1.87868 14.6213C1.31607 14.0587 1 13.2957 1 12.5V16C1 16.7957 1.31607 17.5587 1.87868 18.1213C2.44129 18.6839 3.20435 19 4 19H13C18.4069 19.0143 23.6659 20.7673 28 24V20.5C23.6659 17.2673 18.4069 15.5143 13 15.5H11ZM28 11V17C28.5264 17.0006 29.0438 16.8626 29.5 16.6V11.4C29.0438 11.1374 28.5264 10.9994 28 11Z" fill="#000064"/>
<path d="M15 28C10 26 10 22 10 19V9M28 17C28.394 17 28.7841 16.9224 29.1481 16.7716C29.512 16.6209 29.8427 16.3999 30.1213 16.1213C30.3999 15.8427 30.6209 15.512 30.7716 15.1481C30.9224 14.7841 31 14.394 31 14C31 13.606 30.9224 13.2159 30.7716 12.8519C30.6209 12.488 30.3999 12.1573 30.1213 11.8787C29.8427 11.6001 29.512 11.3791 29.1481 11.2284C28.7841 11.0776 28.394 11 28 11" stroke="#363694" stroke-width="2" stroke-miterlimit="10" stroke-linecap="round" stroke-linejoin="round"/>
<path d="M11 19H4C3.20435 19 2.44129 18.6839 1.87868 18.1213C1.31607 17.5587 1 16.7956 1 16V12C1 11.2044 1.31607 10.4413 1.87868 9.87868C2.44129 9.31607 3.20435 9 4 9H13C18.3817 8.83766 23.5973 7.09912 28 4V24C23.6659 20.7673 18.4069 19.0143 13 19H11Z" stroke="#363694" stroke-width="2" stroke-miterlimit="10" stroke-linecap="round" stroke-linejoin="round"/>
</svg>
