<svg width="54" height="54" viewBox="0 0 54 54" fill="none" xmlns="http://www.w3.org/2000/svg">
<g clip-path="url(#clip0)">
<path d="M6.20369 47.8517H47.7963C52.8032 47.8517 55.7403 42.2185 52.8737 38.1131L32.6694 9.17877C29.9173 5.23728 24.0827 5.23728 21.3302 9.17877L1.12594 38.1131C-1.74026 42.2185 1.1968 47.8517 6.20369 47.8517Z" fill="#FFDA92"/>
<path d="M21.8296 30.2498C28.5944 23.1035 29.7789 12.5665 29.8761 6.84313C26.9815 5.52642 23.337 6.30549 21.3302 9.1791L1.12594 38.1134C-1.74026 42.2189 1.1968 47.852 6.20369 47.852H15.0499C14.9663 43.2863 16.0284 36.3777 21.8296 30.2498Z" fill="#FFCE6D"/>
<path d="M27.0004 33.5428C25.1106 33.5428 23.5645 31.9967 23.5645 30.1069V16.3197C23.5645 14.4295 25.1106 12.8833 27.0004 12.8833C28.8902 12.8833 30.4364 14.4295 30.4364 16.3197V30.1069C30.4364 31.9967 28.8902 33.5428 27.0004 33.5428Z" fill="white"/>
<path d="M30.3929 40.0812C30.3929 41.9549 28.8739 43.4735 27.0001 43.4735C25.1264 43.4735 23.6074 41.9549 23.6074 40.0812C23.6074 38.2075 25.1264 36.6885 27.0001 36.6885C28.8739 36.6885 30.3929 38.2075 30.3929 40.0812Z" fill="white"/>
<path d="M29.2701 13.7452C28.6636 13.2092 27.8685 12.8833 27.0004 12.8833C25.1106 12.8833 23.5645 14.4299 23.5645 16.3197V28.1903C26.9094 23.7276 28.5198 18.3796 29.2701 13.7452Z" fill="#F3F7FD"/>
</g>
<defs>
<clipPath id="clip0">
<rect width="54" height="54" fill="white"/>
</clipPath>
</defs>
</svg>
