<svg width="16" height="16" viewBox="0 0 16 16" fill="none" xmlns="http://www.w3.org/2000/svg">
<path d="M1.61803 16H14.382C15.1253 16 15.6088 15.2177 15.2764 14.5528L8.89443 1.78885C8.5259 1.05181 7.4741 1.05181 7.10557 1.78885L0.723607 14.5528C0.391156 15.2177 0.874652 16 1.61803 16Z" fill="#FBB13C"/>
<rect x="6" y="5" width="4" height="10" fill="white"/>
<path d="M8.00014 4C4.68642 4 5.00024 6.68629 5.00024 10C5.00024 13.3137 4.68642 16 8.00014 16C11.3139 16 11.0001 13.3137 11.0001 10C11.0001 6.68629 11.3139 4 8.00014 4ZM7.143 6.57143C7.143 6.09804 7.52675 5.71429 8.00014 5.71429C8.47353 5.71429 8.85728 6.09804 8.85728 6.57143C8.85728 7.04482 8.47353 7.42857 8.00014 7.42857C7.52675 7.42857 7.143 7.04482 7.143 6.57143ZM9.71442 13.8571C9.71442 14.0938 9.52255 14.2857 9.28585 14.2857H6.71442C6.47773 14.2857 6.28585 14.0938 6.28585 13.8571C6.28585 13.6205 6.47773 13.4286 6.71442 13.4286C6.95112 13.4286 7.143 13.2367 7.143 13V9.57143C7.143 9.33474 6.95112 9.14286 6.71442 9.14286C6.47773 9.14286 6.28585 8.95098 6.28585 8.71429C6.28585 8.47759 6.47773 8.28571 6.71442 8.28571H7.143H8.42871C8.6654 8.28571 8.85728 8.47759 8.85728 8.71429V13C8.85728 13.2367 9.04916 13.4286 9.28585 13.4286C9.52255 13.4286 9.71442 13.6205 9.71442 13.8571Z" fill="#FBB13C"/>
</svg>
