<svg width="50" height="50" viewBox="0 0 50 50" fill="none" xmlns="http://www.w3.org/2000/svg">
<mask id="mask0" mask-type="alpha" maskUnits="userSpaceOnUse" x="0" y="-1" width="50" height="51">
<rect y="-0.000976562" width="50" height="50" fill="#C4C4C4"/>
</mask>
<g mask="url(#mask0)">
<path d="M49 12.999V0.999023H37" stroke="#6D6DF6" stroke-width="2" stroke-linecap="round" stroke-linejoin="round"/>
<path d="M49 36.999V48.999H37" stroke="#6D6DF6" stroke-width="2" stroke-linecap="round" stroke-linejoin="round"/>
<path d="M1 12.999V0.999023H13" stroke="#6D6DF6" stroke-width="2" stroke-linecap="round" stroke-linejoin="round"/>
<path d="M1 36.999V48.999H13" stroke="#6D6DF6" stroke-width="2" stroke-linecap="round" stroke-linejoin="round"/>
<path d="M5 8.49902V42.499" stroke="#6D6DF6" stroke-linecap="round" stroke-linejoin="round"/>
<path d="M45 8.49902V42.499" stroke="#6D6DF6" stroke-linecap="round" stroke-linejoin="round"/>
<path d="M25 8.49902V42.499" stroke="#6D6DF6" stroke-linecap="round" stroke-linejoin="round"/>
<path d="M41 8.99902V37.499" stroke="#6D6DF6" stroke-width="2" stroke-linecap="round" stroke-linejoin="round"/>
<path d="M21 8.99902V37.499" stroke="#6D6DF6" stroke-width="2" stroke-linecap="round" stroke-linejoin="round"/>
<path d="M29 8.99902V37.499" stroke="#6D6DF6" stroke-width="2" stroke-linecap="round" stroke-linejoin="round"/>
<path d="M9 8.99902V37.499" stroke="#6D6DF6" stroke-width="2" stroke-linecap="round" stroke-linejoin="round"/>
<path d="M35 8.99902V37.499" stroke="#6D6DF6" stroke-width="2" stroke-linecap="round" stroke-linejoin="round"/>
<path d="M15 8.99902V37.499" stroke="#6D6DF6" stroke-width="2" stroke-linecap="round" stroke-linejoin="round"/>
<path d="M38 8.99902V37.499" stroke="#6D6DF6" stroke-linecap="round" stroke-linejoin="round"/>
<path d="M18 8.99902V37.499" stroke="#6D6DF6" stroke-linecap="round" stroke-linejoin="round"/>
<path d="M32 8.99902V37.499" stroke="#6D6DF6" stroke-linecap="round" stroke-linejoin="round"/>
<path d="M12 8.99902V37.499" stroke="#6D6DF6" stroke-linecap="round" stroke-linejoin="round"/>
</g>
</svg>
