<svg width="50" height="50" viewBox="0 0 50 50" fill="none" xmlns="http://www.w3.org/2000/svg">
<mask id="mask0" mask-type="alpha" maskUnits="userSpaceOnUse" x="0" y="0" width="50" height="50">
<rect width="50" height="50" fill="#C4C4C4"/>
</mask>
<g mask="url(#mask0)">
<path d="M0.999996 49L5.5 49M49 49L46.5 49M5.5 49L5.5 1M5.5 49L15 49M46.5 49L46.5 25.5L42.5 25.5M46.5 49L30.5 49M30.5 49L30.5 29M30.5 49L22.75 49M30.5 29L30.5 25.5L42.5 25.5M30.5 29L22.75 29M2.5 29L15 29M15 29L15 49M15 29L22.75 29M15 49L22.75 49M22.75 29L22.75 49M42.5 25.5L42.5 1" stroke="#6D6DF6" stroke-width="2" stroke-linecap="round"/>
<mask id="path-3-inside-1" fill="white">
<rect x="11" width="10" height="10" rx="0.5"/>
</mask>
<rect x="11" width="10" height="10" rx="0.5" stroke="#6D6DF6" stroke-width="4" stroke-linecap="round" stroke-linejoin="round" mask="url(#path-3-inside-1)"/>
<mask id="path-4-inside-2" fill="white">
<rect x="27" width="10" height="10" rx="0.5"/>
</mask>
<rect x="27" width="10" height="10" rx="0.5" stroke="#6D6DF6" stroke-width="4" stroke-linecap="round" stroke-linejoin="round" mask="url(#path-4-inside-2)"/>
<mask id="path-5-inside-3" fill="white">
<rect x="11" y="13" width="10" height="10" rx="0.5"/>
</mask>
<rect x="11" y="13" width="10" height="10" rx="0.5" stroke="#6D6DF6" stroke-width="4" stroke-linecap="round" stroke-linejoin="round" mask="url(#path-5-inside-3)"/>
<mask id="path-6-inside-4" fill="white">
<rect x="27" y="13" width="10" height="10" rx="0.5"/>
</mask>
<rect x="27" y="13" width="10" height="10" rx="0.5" stroke="#6D6DF6" stroke-width="4" stroke-linecap="round" stroke-linejoin="round" mask="url(#path-6-inside-4)"/>
<path d="M20.5 36V42.5" stroke="#6D6DF6" stroke-linecap="round"/>
<path d="M25 36V42.5" stroke="#6D6DF6" stroke-linecap="round"/>
<path d="M38.5132 28L39.1786 28.8699L40.1402 28.3458L40.3942 29.4111L41.4858 29.3235L41.2845 30.4L42.3175 30.7639L41.6957 31.6655L42.4913 32.4181L41.5566 32.9889L41.9773 34L40.8913 34.1412L40.8644 35.2361L39.8148 34.9233L39.3449 35.9126L38.5132 35.2L37.6816 35.9126L37.2117 34.9233L36.1621 35.2361L36.1352 34.1412L35.0491 34L35.4699 32.9889L34.5352 32.4181L35.3308 31.6655L34.709 30.7639L35.742 30.4L35.5407 29.3235L36.6323 29.4111L36.8863 28.3458L37.8479 28.8699L38.5132 28Z" fill="#6D6DF6"/>
<path d="M34 38H43V40.5H34V38Z" fill="#6D6DF6"/>
</g>
</svg>
