<svg width="50" height="50" viewBox="0 0 50 50" fill="none" xmlns="http://www.w3.org/2000/svg">
<path d="M0.982848 43.3198L9.34365 41.7998L10.8503 49.3331C10.8826 49.4947 10.962 49.6431 11.0786 49.7595C11.1952 49.876 11.3437 49.9552 11.5053 49.9873C11.5587 49.9968 11.6128 50.001 11.667 49.9998C11.8041 49.9998 11.9392 49.966 12.0601 49.9013C12.1811 49.8366 12.2842 49.7431 12.3603 49.629L18.207 40.859L19.4478 42.9282C19.5056 43.0247 19.5824 43.1084 19.6735 43.1745C19.7646 43.2405 19.8681 43.2874 19.9778 43.3123C20.0398 43.3266 20.1033 43.3336 20.167 43.3332C20.3299 43.3331 20.4892 43.2853 20.6253 43.1957L25.0003 40.3132L29.3786 43.1957C29.4725 43.2575 29.5779 43.2998 29.6885 43.3198C29.7992 43.3398 29.9127 43.3373 30.0223 43.3123C30.132 43.2873 30.2354 43.2404 30.3264 43.1744C30.4174 43.1084 30.4941 43.0246 30.5519 42.9282L31.7936 40.8582L37.6402 49.629C37.7163 49.7431 37.8195 49.8366 37.9404 49.9013C38.0614 49.966 38.1964 49.9998 38.3336 49.9998C38.3878 49.9999 38.442 49.9946 38.4952 49.984C38.6568 49.9519 38.8053 49.8726 38.9219 49.7562C39.0385 49.6398 39.1179 49.4914 39.1502 49.3298L40.6669 41.7307L49.0919 42.4998C49.2485 42.514 49.4059 42.4836 49.546 42.4121C49.686 42.3406 49.803 42.2309 49.8833 42.0957C49.9637 41.9605 50.0042 41.8054 50.0001 41.6482C49.996 41.491 49.9475 41.3382 49.8602 41.2073L43.7702 32.069L44.8377 31.7357C44.9467 31.7017 45.0476 31.6456 45.1341 31.5709C45.2205 31.4963 45.2907 31.4046 45.3402 31.3017C45.3898 31.1988 45.4176 31.0868 45.4221 30.9726C45.4265 30.8585 45.4074 30.7447 45.366 30.6382L43.4935 25.8224L47.3069 22.2766C47.3906 22.1986 47.4575 22.1042 47.5032 21.9992C47.5489 21.8943 47.5724 21.781 47.5724 21.6666C47.5724 21.5521 47.5489 21.4389 47.5032 21.3339C47.4575 21.229 47.3906 21.1346 47.3069 21.0566L43.4935 17.5116L45.3669 12.6958C45.4083 12.5893 45.4273 12.4755 45.4229 12.3613C45.4185 12.2472 45.3906 12.1352 45.3411 12.0323C45.2915 11.9294 45.2213 11.8377 45.1349 11.7631C45.0484 11.6884 44.9476 11.6323 44.8385 11.5983L39.8252 10.0349L39.3869 4.8933C39.3773 4.78008 39.3448 4.66999 39.2914 4.56971C39.238 4.46943 39.1647 4.38106 39.0761 4.30997C38.9879 4.23909 38.8861 4.18707 38.777 4.15711C38.668 4.12715 38.5539 4.1199 38.4419 4.1358L33.2244 4.8583L30.5527 0.404983C30.495 0.30854 30.4182 0.224789 30.3272 0.158772C30.2362 0.0927557 30.1328 0.0458392 30.0232 0.0208474C29.9135 -0.00414432 29.8 -0.00669457 29.6894 0.0133502C29.5787 0.033395 29.4733 0.0756203 29.3794 0.137484L25.0003 3.01997L20.6219 0.137484C20.5281 0.0756203 20.4226 0.033395 20.312 0.0133502C20.2014 -0.00669457 20.0878 -0.00414432 19.9782 0.0208474C19.8686 0.0458392 19.7651 0.0927557 19.6741 0.158772C19.5831 0.224789 19.5064 0.30854 19.4486 0.404983L16.777 4.85997L11.5603 4.13747C11.4482 4.1219 11.3341 4.12933 11.225 4.1593C11.1158 4.18928 11.0139 4.24117 10.9255 4.31182C10.8371 4.38247 10.764 4.47038 10.7106 4.57021C10.6573 4.67004 10.6249 4.77969 10.6153 4.89247L10.1762 10.0341L5.167 11.5974C5.05797 11.6315 4.9571 11.6876 4.87065 11.7622C4.7842 11.8369 4.71403 11.9285 4.66448 12.0315C4.61494 12.1344 4.58708 12.2464 4.58264 12.3605C4.5782 12.4747 4.59727 12.5885 4.63867 12.6949L6.51116 17.5108L2.69368 21.0566C2.60989 21.1346 2.54306 21.229 2.49737 21.3339C2.45168 21.4389 2.4281 21.5521 2.4281 21.6666C2.4281 21.781 2.45168 21.8943 2.49737 21.9992C2.54306 22.1042 2.60989 22.1986 2.69368 22.2766L6.507 25.8216L4.63367 30.6374C4.59227 30.7438 4.5732 30.8577 4.57764 30.9718C4.58208 31.0859 4.60994 31.198 4.65948 31.3009C4.70903 31.4038 4.7792 31.4954 4.86565 31.5701C4.9521 31.6447 5.05297 31.7008 5.162 31.7349L6.26783 32.079L0.123685 42.0632C0.0392609 42.2003 -0.00361654 42.359 0.000238922 42.52C0.00409439 42.681 0.0545175 42.8374 0.145409 42.9703C0.236301 43.1033 0.363766 43.2071 0.512387 43.2691C0.661009 43.3311 0.824418 43.3487 0.982848 43.3198ZM47.5069 40.679L40.0752 39.9998C39.871 39.9841 39.6681 40.0429 39.5041 40.1656C39.3401 40.2882 39.2262 40.4662 39.1836 40.6665L37.9111 47.0273L32.7444 39.2773L33.2261 38.474L38.4427 39.1965C38.5548 39.2121 38.6689 39.2047 38.7781 39.1747C38.8872 39.1447 38.9891 39.0928 39.0775 39.0222C39.166 38.9515 39.2391 38.8636 39.2924 38.7638C39.3457 38.6639 39.3782 38.5543 39.3877 38.4415L39.8269 33.2999L42.1144 32.5865L47.5069 40.679ZM4.48534 21.6666L8.05616 18.3466C8.1784 18.2329 8.26369 18.0852 8.30099 17.9225C8.33828 17.7598 8.32586 17.5896 8.26532 17.4341L6.51533 12.9224L11.2111 11.4583C11.3695 11.4092 11.5095 11.3139 11.6134 11.1848C11.7173 11.0556 11.7804 10.8984 11.7945 10.7333L12.2061 5.90913L17.0986 6.58663C17.2612 6.60988 17.4271 6.58456 17.5754 6.51384C17.7236 6.44311 17.8477 6.33014 17.932 6.18913L20.4403 2.00748L24.5419 4.71413C24.678 4.80374 24.8373 4.8515 25.0003 4.8515C25.1632 4.8515 25.3225 4.80374 25.4586 4.71413L29.5703 2.00748L32.0786 6.18996C32.1632 6.32957 32.2867 6.44146 32.434 6.51192C32.5813 6.58237 32.7459 6.60834 32.9077 6.58663L37.8002 5.90996L38.2119 10.7341C38.226 10.8993 38.289 11.0565 38.3929 11.1856C38.4968 11.3148 38.6369 11.41 38.7952 11.4591L43.491 12.9241L41.736 17.4341C41.6755 17.5896 41.6631 17.7598 41.7004 17.9225C41.7377 18.0852 41.823 18.2329 41.9452 18.3466L45.5152 21.6666L41.9444 24.9866C41.8221 25.1002 41.7368 25.248 41.6996 25.4107C41.6623 25.5734 41.6747 25.7435 41.7352 25.8991L43.4852 30.4107L38.7936 31.8749C38.6352 31.924 38.4952 32.0192 38.3913 32.1484C38.2874 32.2775 38.2243 32.4347 38.2102 32.5999L37.7986 37.424L32.9069 36.7499C32.745 36.7282 32.5803 36.7543 32.433 36.8249C32.2857 36.8955 32.1623 37.0076 32.0777 37.1474L29.5694 41.329L25.4586 38.619C25.3225 38.5294 25.1632 38.4817 25.0003 38.4817C24.8373 38.4817 24.678 38.5294 24.5419 38.619L20.4303 41.3257L17.922 37.1432C17.848 37.0198 17.7434 36.9176 17.6182 36.8466C17.4931 36.7757 17.3517 36.7383 17.2078 36.7382C17.1693 36.7381 17.1309 36.7408 17.0928 36.7465L12.2003 37.4232L11.7886 32.599C11.7745 32.4339 11.7115 32.2767 11.6076 32.1475C11.5037 32.0184 11.3636 31.9232 11.2053 31.874L6.51116 30.409L8.26116 25.8991C8.32169 25.7435 8.33411 25.5734 8.29682 25.4107C8.25953 25.248 8.17423 25.1002 8.05199 24.9866L4.48534 21.6666ZM7.90949 32.5915L10.1753 33.2982L10.6136 38.4398C10.6232 38.5531 10.6557 38.6632 10.7091 38.7634C10.7626 38.8637 10.8358 38.9521 10.9245 39.0232C11.0128 39.0937 11.1146 39.1455 11.2237 39.1755C11.3327 39.2054 11.4467 39.2129 11.5586 39.1973L16.7761 38.4748L17.2586 39.2799L12.092 47.0298L10.817 40.6665C10.7742 40.4523 10.649 40.2635 10.4683 40.1407C10.2877 40.0179 10.0661 39.9709 9.85115 40.0098L2.52201 41.3432L7.90949 32.5915Z" fill="#6D6DF6"/>
<path d="M13.3333 30.8333H19.1666C19.3877 30.8333 19.5996 30.7455 19.7559 30.5892C19.9122 30.4329 20 30.2209 20 29.9999H32.4999C33.162 29.9966 33.7959 29.7322 34.2641 29.2641C34.7322 28.7959 34.9966 28.162 34.9999 27.4999C34.9971 27.0701 34.8822 26.6484 34.6666 26.2766C34.8204 26.1807 34.9624 26.0671 35.0899 25.9383C35.4826 25.5564 35.7363 25.0541 35.8106 24.5114C35.8849 23.9687 35.7755 23.4167 35.4999 22.9433C35.6537 22.8473 35.7958 22.7338 35.9233 22.6049C36.3159 22.223 36.5696 21.7208 36.6439 21.178C36.7182 20.6353 36.6088 20.0834 36.3333 19.61C36.487 19.514 36.6291 19.4005 36.7566 19.2716C36.9933 19.0415 37.1812 18.766 37.3089 18.4616C37.4366 18.1572 37.5016 17.8301 37.4999 17.5C37.4999 16.8369 37.2365 16.201 36.7677 15.7322C36.2988 15.2634 35.663 15 34.9999 15H29.1666V11.6667C29.1672 11.1193 29.0598 10.5773 28.8506 10.0715C28.6414 9.56573 28.3345 9.10618 27.9474 8.71916C27.5604 8.33215 27.1009 8.02525 26.5951 7.81605C26.0893 7.60685 25.5473 7.49945 25 7.5C24.7789 7.5 24.567 7.5878 24.4107 7.74408C24.2544 7.90036 24.1666 8.11232 24.1666 8.33333V12.3033L22.6666 15.2966L19.985 17.4425C19.9719 17.2337 19.8802 17.0375 19.7284 16.8936C19.5766 16.7496 19.3759 16.6685 19.1666 16.6666H13.3333C13.1123 16.6666 12.9004 16.7544 12.7441 16.9107C12.5878 17.067 12.5 17.279 12.5 17.5V29.9999C12.5 30.2209 12.5878 30.4329 12.7441 30.5892C12.9004 30.7455 13.1123 30.8333 13.3333 30.8333ZM23.8541 16.4841C23.9483 16.4086 24.025 16.3137 24.0791 16.2058L25.7458 12.8725C25.8035 12.7568 25.8334 12.6293 25.8333 12.5V9.30916C26.3215 9.48046 26.7442 9.79947 27.0429 10.2219C27.3415 10.6444 27.5013 11.1493 27.4999 11.6667V15.8333C27.4999 16.0543 27.5877 16.2663 27.744 16.4226C27.9003 16.5788 28.1123 16.6666 28.3333 16.6666H34.9999C35.2209 16.6666 35.4329 16.7544 35.5892 16.9107C35.7455 17.067 35.8333 17.279 35.8333 17.5C35.8336 17.6111 35.8112 17.721 35.7673 17.8231C35.7234 17.9251 35.6591 18.0171 35.5783 18.0933C35.503 18.1703 35.413 18.2312 35.3136 18.2724C35.2142 18.3137 35.1075 18.3344 34.9999 18.3333H31.6666V20H34.1666C34.3876 20 34.5996 20.0878 34.7558 20.244C34.9121 20.4003 34.9999 20.6123 34.9999 20.8333C35.0003 20.9444 34.9778 21.0544 34.934 21.1564C34.8901 21.2585 34.8258 21.3504 34.7449 21.4266C34.6697 21.5036 34.5797 21.5645 34.4803 21.6058C34.3809 21.647 34.2742 21.6677 34.1666 21.6666H30.8333V23.3333H33.3333C33.5543 23.3333 33.7662 23.4211 33.9225 23.5774C34.0788 23.7336 34.1666 23.9456 34.1666 24.1666C34.167 24.2777 34.1445 24.3877 34.1006 24.4897C34.0568 24.5918 33.9924 24.6838 33.9116 24.7599C33.8364 24.8369 33.7464 24.8978 33.647 24.9391C33.5476 24.9803 33.4409 25.001 33.3333 24.9999H29.9999V26.6666H32.4999C32.7209 26.6666 32.9329 26.7544 33.0892 26.9107C33.2455 27.067 33.3333 27.2789 33.3333 27.4999C33.3336 27.611 33.3112 27.721 33.2673 27.8231C33.2235 27.9251 33.1591 28.0171 33.0783 28.0933C33.003 28.1702 32.913 28.2312 32.8136 28.2724C32.7142 28.3136 32.6075 28.3343 32.4999 28.3333H20V19.5666L23.8541 16.4841ZM14.1667 18.3333H18.3333V29.1666H14.1667V18.3333Z" fill="#6D6DF6"/>
</svg>
