<svg width="1005" height="846" viewBox="0 0 1005 846" fill="none" xmlns="http://www.w3.org/2000/svg">
<path d="M343.172 744.04C337.571 744.04 332.272 741.898 328.253 738.008L326.048 735.875L323.843 738.008C319.822 741.898 314.523 744.04 308.922 744.04C303.321 744.04 298.022 741.898 294.002 738.008L291.797 735.875L289.592 738.008C285.571 741.898 280.272 744.04 274.672 744.04C269.071 744.04 263.772 741.898 259.753 738.008L257.548 735.875L255.343 738.008C251.322 741.898 246.023 744.04 240.422 744.04V750.384C246.695 750.384 252.675 748.309 257.548 744.491C262.419 748.309 268.4 750.384 274.673 750.384C280.946 750.384 286.927 748.309 291.799 744.491C296.671 748.309 302.652 750.384 308.925 750.384C315.198 750.384 321.178 748.309 326.051 744.491C330.919 748.309 336.899 750.384 343.172 750.384V744.04Z" fill="#6D6DF6"/>
<path d="M220.774 579.337C215.173 579.337 209.874 577.195 205.854 573.305L203.649 571.172L201.444 573.305C197.423 577.195 192.125 579.337 186.523 579.337C180.922 579.337 175.623 577.195 171.604 573.305L169.399 571.172L167.194 573.305C163.173 577.195 157.874 579.337 152.274 579.337C146.673 579.337 141.374 577.195 137.354 573.305L135.149 571.172L132.944 573.305C128.923 577.195 123.624 579.337 118.023 579.337V585.681C124.296 585.681 130.277 583.606 135.149 579.788C140.021 583.606 146.002 585.681 152.275 585.681C158.548 585.681 164.528 583.606 169.401 579.788C174.272 583.606 180.253 585.681 186.527 585.681C192.8 585.681 198.78 583.606 203.652 579.788C208.521 583.606 214.501 585.681 220.774 585.681V579.337Z" fill="#6D6DF6"/>
<path d="M102.915 612.58C97.3136 612.58 92.0146 610.437 87.9949 606.548L85.7899 604.415L83.5848 606.548C79.5641 610.437 74.2651 612.58 68.6641 612.58C63.063 612.58 57.7641 610.437 53.7444 606.548L51.5393 604.415L49.3343 606.548C45.3135 610.437 40.0146 612.58 34.4146 612.58C28.8136 612.58 23.5146 610.437 19.4949 606.548L17.2898 604.415L15.0848 606.548C11.0641 610.437 5.76511 612.58 0.164062 612.58V618.924C6.43711 618.924 12.4173 616.849 17.2898 613.031C22.1613 616.849 28.1426 618.924 34.4156 618.924C40.6887 618.924 46.6689 616.849 51.5414 613.031C56.4129 616.849 62.3941 618.924 68.6672 618.924C74.9402 618.924 80.9204 616.849 85.7929 613.031C90.6614 616.849 96.6416 618.924 102.915 618.924V612.58Z" fill="#6D6DF6"/>
<path d="M829.719 8.16471C824.118 8.16471 818.819 6.02232 814.8 2.13313L812.595 0L810.389 2.13313C806.369 6.02232 801.07 8.16471 795.469 8.16471C789.868 8.16471 784.569 6.02232 780.549 2.13313L778.344 0L776.139 2.13313C772.118 6.02232 766.819 8.16471 761.219 8.16471C755.618 8.16471 750.319 6.02232 746.3 2.13313L744.095 0L741.889 2.13313C737.869 6.02232 732.57 8.16471 726.969 8.16471V14.5087C733.242 14.5087 739.222 12.4341 744.095 8.61582C748.966 12.4341 754.947 14.5087 761.22 14.5087C767.493 14.5087 773.474 12.4341 778.346 8.61582C783.218 12.4341 789.199 14.5087 795.472 14.5087C801.745 14.5087 807.725 12.4341 812.598 8.61582C817.466 12.4341 823.446 14.5087 829.719 14.5087V8.16471Z" fill="#6D6DF6"/>
<path d="M937.008 839.235C931.407 839.235 926.108 837.093 922.089 833.204L919.884 831.071L917.679 833.204C913.658 837.093 908.359 839.235 902.758 839.235C897.157 839.235 891.858 837.093 887.838 833.204L885.633 831.071L883.428 833.204C879.407 837.093 874.108 839.235 868.508 839.235C862.907 839.235 857.608 837.093 853.589 833.204L851.384 831.071L849.179 833.204C845.158 837.093 839.859 839.235 834.258 839.235V845.579C840.531 845.579 846.511 843.505 851.384 839.686C856.255 843.505 862.236 845.579 868.509 845.579C874.782 845.579 880.763 843.505 885.635 839.686C890.507 843.505 896.488 845.579 902.761 845.579C909.034 845.579 915.014 843.505 919.887 839.686C924.755 843.505 930.735 845.579 937.008 845.579V839.235Z" fill="#6D6DF6"/>
<path d="M704.305 126.026C698.704 126.026 693.405 123.883 689.386 119.994L687.18 117.861L684.975 119.994C680.955 123.883 675.656 126.026 670.055 126.026C664.454 126.026 659.155 123.883 655.135 119.994L652.93 117.861L650.725 119.994C646.704 123.883 641.405 126.026 635.805 126.026C630.204 126.026 624.905 123.883 620.886 119.994L618.68 117.861L616.475 119.994C612.455 123.883 607.156 126.026 601.555 126.026V132.37C607.828 132.37 613.808 130.295 618.68 126.477C623.552 130.295 629.533 132.37 635.806 132.37C642.079 132.37 648.059 130.295 652.932 126.477C657.804 130.295 663.785 132.37 670.058 132.37C676.331 132.37 682.311 130.295 687.184 126.477C692.052 130.295 698.032 132.37 704.305 132.37V126.026Z" fill="#6D6DF6"/>
<path d="M462.544 780.305C456.943 780.305 451.644 778.162 447.624 774.273L445.419 772.14L443.214 774.273C439.193 778.162 433.894 780.305 428.293 780.305C422.692 780.305 417.393 778.162 413.373 774.273L411.168 772.14L408.963 774.273C404.942 778.162 399.644 780.305 394.044 780.305C388.442 780.305 383.143 778.162 379.124 774.273L376.919 772.14L374.714 774.273C370.693 778.162 365.394 780.305 359.793 780.305V786.649C366.066 786.649 372.046 784.574 376.919 780.756C381.79 784.574 387.771 786.649 394.045 786.649C400.318 786.649 406.298 784.574 411.17 780.756C416.042 784.574 422.023 786.649 428.296 786.649C434.569 786.649 440.549 784.574 445.422 780.756C450.29 784.574 456.271 786.649 462.544 786.649V780.305Z" fill="#6D6DF6"/>
<path d="M656.544 67.9966L748.244 125.839H1005V753.3H891.294L766.584 787.251L342.88 667.283L267.74 494.449L88.009 465.982V393.625L187.402 240.281L69.6691 158.532V103.031L421.794 110.75L656.544 67.9966Z" fill="#404089"/>
<path d="M656.542 15.1103L748.242 69.793H1005V662.981H891.293L766.582 695.077L342.878 581.663L267.738 418.269L88.0073 391.357L187.401 177.984L69.6675 100.701L88.0073 46.0179L421.792 55.5279L656.542 15.1103Z" fill="#7575BD"/>
<path d="M584.071 104.964C578.424 101.545 576.288 91.9902 575.926 87.6402C576.797 91.0676 579.52 98.6185 583.445 101.403C588.352 104.883 593.728 107.314 596.071 112.572C598.414 117.83 606.44 116.373 611.274 118.401C616.108 120.43 617.5 126.096 620.98 128.434C624.46 130.772 627.641 133.464 627.053 135.878C626.466 138.292 637.314 138.374 639.945 141.572C642.577 144.769 642.729 152.904 653.006 157.961C661.227 162.007 660.019 186.943 658.388 198.906C648.593 201.211 628.003 203.276 624.001 193.097C618.999 180.373 624.284 174.414 619.858 173.337C615.432 172.26 616.977 162.408 615.922 154.48C614.867 146.552 610.854 147.28 606.515 144.094C602.176 140.907 604.33 132.055 603.993 126.432C603.656 120.81 596.642 123.365 592.39 118.069C588.138 112.773 591.128 109.239 584.071 104.964Z" fill="white" fill-opacity="0.2"/>
<path d="M538.099 129.679C534.703 126.276 534.983 117.098 535.547 112.934C535.521 116.229 536.042 123.507 538.325 126.262C541.18 129.706 544.569 132.158 545.251 137.237C545.934 142.317 551.957 141.12 555.035 143.174C558.112 145.229 558.036 150.675 560.085 152.993C562.134 155.311 563.902 157.959 563.024 160.251C562.146 162.543 569.899 162.884 571.178 166.002C572.457 169.12 571.026 176.894 577.427 181.974C582.548 186.038 576.961 209.828 573.527 221.215C566.076 223.179 550.94 224.653 550.002 214.833C548.83 202.557 553.743 196.993 550.778 195.857C547.812 194.721 550.784 185.348 551.53 177.749C552.276 170.151 549.265 170.749 546.761 167.6C544.257 164.451 547.476 156.048 548.299 150.669C549.123 145.29 543.616 147.561 541.574 142.399C539.532 137.237 542.343 133.933 538.099 129.679Z" fill="white" fill-opacity="0.2"/>
<path d="M715.315 222.797V230.978H632.723V170.203L637.787 167.476V111.58L686.875 155.141V170.203H704.406V193.967L698.173 190.072V201.369H704.406V215.395L715.315 222.797Z" fill="white"/>
<path d="M637.289 111.16L695.761 162.189" stroke="#337841" stroke-width="2"/>
<path d="M576.232 226.029V230.589H622.203V196.719L619.384 195.199V188.903H592.062V196.719H582.304V209.963L585.773 207.792V214.088H582.304V221.904L576.232 226.029Z" fill="#EEEEEE"/>
<path d="M638.573 227.995V230.978H553.254V208.82L558.486 207.826V203.707H609.194V208.82H627.305V217.485L620.865 216.064V220.183H627.305V225.297L638.573 227.995Z" fill="white"/>
<path d="M656.736 218.48L601.767 167.947L601.27 163.299L661.587 217.961L656.736 218.48Z" fill="#593636"/>
<path d="M641.081 226.752L622.655 167.662L624.465 165.119L645.056 229.581L641.081 226.752Z" fill="#593636"/>
<path d="M615.971 207.315V230.978H679.084V221.089L667.007 216.498V207.315L662.332 204.49H653.761L650.255 193.188H614.023V202.018L615.971 207.315Z" fill="#EEEEEE"/>
<rect x="655.66" y="151.217" width="12.5584" height="26.6866" fill="#898282"/>
<path d="M583.277 247.913L579.299 252.467V243.755H577.157V257.255H579.299V255.023L580.937 253.259L583.691 257.255H586.247L582.359 251.855L585.977 247.913H583.277ZM593.496 254.195C593.298 254.663 592.992 255.005 592.596 255.257C592.2 255.509 591.732 255.635 591.228 255.635C590.49 255.635 589.896 255.419 589.428 254.969C588.96 254.537 588.69 253.943 588.618 253.205H595.728L595.746 252.539C595.746 251.873 595.638 251.243 595.422 250.649C595.206 250.055 594.882 249.533 594.486 249.101C594.072 248.669 593.586 248.327 593.01 248.075C592.434 247.823 591.822 247.697 591.156 247.697C590.472 247.697 589.86 247.823 589.284 248.075C588.708 248.327 588.204 248.687 587.79 249.119C587.376 249.569 587.052 250.091 586.836 250.685C586.62 251.297 586.512 251.927 586.512 252.575C586.512 253.259 586.62 253.907 586.836 254.501C587.052 255.113 587.376 255.635 587.79 256.067C588.186 256.517 588.69 256.859 589.266 257.111C589.842 257.363 590.49 257.471 591.174 257.471C592.164 257.471 593.028 257.237 593.784 256.733C594.54 256.229 595.08 255.563 595.422 254.699L593.496 254.195ZM591.156 249.443C591.48 249.443 591.822 249.515 592.182 249.641C592.542 249.785 592.848 250.019 593.118 250.379C593.37 250.739 593.55 251.153 593.622 251.621H588.654C588.69 251.333 588.816 251.009 588.996 250.667C589.176 250.325 589.446 250.037 589.842 249.803C590.22 249.569 590.652 249.443 591.156 249.443ZM599.858 257.165L599.642 257.687C599.444 258.155 599.21 258.551 598.922 258.839C598.634 259.127 598.238 259.271 597.734 259.271L597.194 259.253V261.161L597.806 261.197C598.562 261.197 599.174 261.053 599.642 260.747C600.11 260.459 600.488 260.081 600.794 259.631C601.082 259.181 601.352 258.659 601.586 258.083L605.726 247.913H603.494L600.92 254.681L598.382 247.913H596.096L599.858 257.165ZM615.57 257.255H617.604L620.862 247.913H618.684L616.578 254.627L614.454 247.913H612.474L610.332 254.609L608.244 247.913H606.03L609.288 257.255H611.322L613.446 250.847H613.464L615.57 257.255ZM626.317 257.471C627.037 257.471 627.685 257.345 628.297 257.093C628.909 256.841 629.413 256.481 629.845 256.031C630.277 255.581 630.601 255.059 630.835 254.465C631.051 253.871 631.177 253.241 631.177 252.593C631.177 251.945 631.051 251.333 630.835 250.739C630.601 250.145 630.277 249.623 629.845 249.155C629.413 248.705 628.909 248.345 628.297 248.093C627.685 247.841 627.037 247.697 626.317 247.697C625.597 247.697 624.949 247.841 624.337 248.093C623.725 248.345 623.221 248.705 622.789 249.155C622.357 249.623 622.033 250.145 621.817 250.739C621.583 251.333 621.475 251.945 621.475 252.593C621.475 253.241 621.583 253.871 621.817 254.465C622.033 255.059 622.357 255.581 622.789 256.031C623.221 256.481 623.725 256.841 624.337 257.093C624.949 257.345 625.597 257.471 626.317 257.471ZM623.617 252.593C623.617 252.053 623.725 251.531 623.959 251.045C624.175 250.577 624.517 250.217 624.949 249.965C625.381 249.713 625.831 249.587 626.317 249.587C626.785 249.587 627.253 249.713 627.685 249.965C628.117 250.217 628.459 250.577 628.693 251.045C628.909 251.531 629.035 252.053 629.035 252.593C629.035 253.493 628.765 254.213 628.261 254.753C627.757 255.311 627.109 255.581 626.317 255.581C625.525 255.581 624.877 255.311 624.373 254.753C623.869 254.213 623.617 253.493 623.617 252.593ZM638.201 247.841L637.895 247.823C637.535 247.823 637.157 247.877 636.779 247.985C636.383 248.093 636.059 248.255 635.771 248.489C635.483 248.723 635.285 248.957 635.141 249.209V247.913H633.161V257.255H635.303V252.395C635.303 251.531 635.501 250.883 635.933 250.451C636.347 250.019 636.941 249.803 637.715 249.803L638.201 249.839V247.841ZM646.045 249.137C645.757 248.723 645.361 248.381 644.857 248.111C644.335 247.841 643.741 247.697 643.057 247.697C642.391 247.697 641.779 247.823 641.239 248.075C640.699 248.327 640.231 248.687 639.871 249.137C639.493 249.587 639.205 250.109 639.025 250.703C638.827 251.315 638.737 251.945 638.737 252.593C638.737 253.259 638.827 253.889 639.025 254.483C639.205 255.077 639.493 255.599 639.871 256.049C640.231 256.499 640.699 256.841 641.239 257.093C641.779 257.345 642.391 257.471 643.057 257.471C643.759 257.471 644.389 257.345 644.929 257.057C645.469 256.787 645.901 256.409 646.207 255.923V257.255H648.187V243.755H646.045V249.137ZM646.135 252.593C646.135 253.457 645.883 254.159 645.415 254.735C644.929 255.311 644.299 255.581 643.507 255.581C643.003 255.581 642.553 255.455 642.139 255.203C641.707 254.951 641.401 254.573 641.185 254.087C640.969 253.619 640.879 253.115 640.879 252.593C640.879 251.729 641.113 251.027 641.599 250.451C642.067 249.875 642.715 249.587 643.507 249.587C643.993 249.587 644.443 249.713 644.875 249.965C645.289 250.217 645.595 250.595 645.811 251.081C646.027 251.567 646.135 252.071 646.135 252.593ZM651.71 257.399C652.124 257.399 652.466 257.273 652.754 256.985C653.042 256.715 653.186 256.373 653.186 255.941C653.186 255.527 653.042 255.185 652.754 254.897C652.466 254.609 652.124 254.465 651.71 254.465C651.278 254.465 650.936 254.609 650.648 254.897C650.36 255.185 650.216 255.527 650.216 255.941C650.216 256.373 650.342 256.715 650.63 256.985C650.918 257.273 651.278 257.399 651.71 257.399ZM651.71 250.721C652.124 250.721 652.466 250.595 652.754 250.307C653.042 250.019 653.186 249.677 653.186 249.245C653.186 248.831 653.042 248.489 652.754 248.201C652.466 247.913 652.124 247.769 651.71 247.769C651.278 247.769 650.936 247.913 650.648 248.201C650.36 248.489 650.216 248.831 650.216 249.245C650.216 249.677 650.342 250.019 650.63 250.307C650.918 250.595 651.278 250.721 651.71 250.721ZM669.582 244.475H659.448V246.491H666.738L659.376 255.347V257.255H669.654V255.239H662.22L669.582 246.383V244.475ZM680.943 255.239H674.139V251.783H680.637V249.767H674.139V246.491H680.943V244.475H671.961V257.255H680.943V255.239ZM693.664 257.255L690.73 251.945C691.126 251.819 691.522 251.603 691.918 251.315C692.314 251.027 692.62 250.631 692.872 250.091C693.106 249.551 693.232 248.975 693.232 248.345C693.232 247.805 693.142 247.283 692.962 246.815C692.782 246.347 692.53 245.933 692.17 245.573C691.81 245.231 691.378 244.961 690.838 244.763C690.298 244.583 689.704 244.475 689.02 244.475H683.404V257.255H685.582V252.215H688.516L691.108 257.255H693.664ZM691.036 248.345C691.036 248.759 690.928 249.119 690.748 249.407C690.55 249.713 690.298 249.929 689.974 250.037C689.65 250.145 689.344 250.199 689.038 250.199H685.582V246.491H689.038C689.344 246.491 689.65 246.563 689.974 246.671C690.298 246.779 690.55 246.995 690.748 247.283C690.928 247.589 691.036 247.949 691.036 248.345ZM697.118 250.865C697.118 250.199 697.226 249.551 697.478 248.903C697.712 248.273 698.072 247.751 698.558 247.337C699.026 246.941 699.512 246.653 699.998 246.509C700.484 246.365 700.952 246.293 701.42 246.293C702.032 246.293 702.59 246.401 703.13 246.617C703.652 246.833 704.102 247.157 704.498 247.553C704.894 247.967 705.182 248.453 705.398 249.011C705.614 249.587 705.722 250.199 705.722 250.865C705.722 251.549 705.596 252.197 705.362 252.827C705.11 253.475 704.75 253.997 704.282 254.393C703.796 254.807 703.31 255.077 702.824 255.221C702.338 255.365 701.87 255.437 701.42 255.437C700.808 255.437 700.232 255.329 699.71 255.113C699.17 254.897 698.72 254.591 698.324 254.177C697.928 253.781 697.64 253.295 697.424 252.719C697.208 252.161 697.118 251.549 697.118 250.865ZM694.814 250.865C694.814 251.801 694.976 252.665 695.3 253.493C695.624 254.321 696.074 255.023 696.668 255.617C697.244 256.229 697.946 256.697 698.774 257.021C699.602 257.363 700.484 257.525 701.42 257.525C702.356 257.525 703.22 257.363 704.048 257.021C704.876 256.697 705.578 256.229 706.172 255.617C706.748 255.023 707.216 254.321 707.54 253.493C707.864 252.665 708.026 251.801 708.026 250.865C708.026 249.947 707.864 249.083 707.54 248.255C707.216 247.427 706.748 246.725 706.172 246.113C705.578 245.519 704.876 245.051 704.048 244.709C703.22 244.385 702.356 244.205 701.42 244.205C700.484 244.205 699.602 244.385 698.774 244.709C697.946 245.051 697.244 245.519 696.668 246.113C696.074 246.725 695.624 247.427 695.3 248.255C694.976 249.083 694.814 249.947 694.814 250.865ZM573.788 269.891C573.788 269.513 573.842 269.135 573.986 268.775C574.112 268.415 574.346 268.127 574.688 267.893C575.012 267.659 575.426 267.533 575.894 267.533C576.488 267.533 576.938 267.731 577.226 268.127C577.514 268.523 577.658 269.027 577.658 269.657V275.255H579.8V269.387C579.8 268.739 579.692 268.163 579.494 267.677C579.278 267.209 579.026 266.813 578.702 266.507C578.378 266.219 578 266.003 577.604 265.877C577.208 265.769 576.794 265.697 576.398 265.697C575.066 265.697 574.022 266.201 573.23 267.173C572.96 266.723 572.582 266.363 572.114 266.093C571.628 265.841 571.07 265.697 570.422 265.697C570.08 265.697 569.72 265.751 569.342 265.859C568.964 265.967 568.622 266.129 568.316 266.363C568.01 266.615 567.776 266.867 567.632 267.155V265.913H565.652V275.255H567.794V269.819C567.794 269.495 567.848 269.135 567.974 268.775C568.1 268.415 568.334 268.127 568.676 267.893C569 267.659 569.414 267.533 569.882 267.533C570.476 267.533 570.926 267.731 571.214 268.109C571.502 268.505 571.646 269.009 571.646 269.657V275.255H573.788V269.891ZM588.059 270.881V271.457C588.059 271.925 587.933 272.339 587.699 272.735C587.447 273.131 587.123 273.419 586.709 273.563C586.295 273.725 585.881 273.797 585.485 273.797C584.945 273.797 584.531 273.707 584.261 273.491C583.991 273.293 583.865 273.005 583.865 272.627C583.865 272.303 583.991 272.015 584.243 271.799C584.495 271.583 584.927 271.403 585.575 271.295L588.059 270.881ZM585.053 275.471C585.737 275.471 586.385 275.363 586.961 275.147C587.537 274.931 587.987 274.625 588.311 274.229C588.401 274.445 588.545 274.661 588.761 274.841C588.977 275.039 589.211 275.183 589.481 275.255C589.751 275.327 590.003 275.363 590.255 275.363C590.525 275.363 590.759 275.345 590.939 275.291V273.563L590.759 273.581C590.345 273.581 590.147 273.383 590.147 272.951V269.189C590.147 268.109 589.805 267.245 589.121 266.633C588.437 266.021 587.447 265.697 586.115 265.697C585.323 265.697 584.657 265.823 584.099 266.039C583.523 266.273 583.073 266.597 582.731 267.011C582.371 267.443 582.137 267.947 582.029 268.541L584.081 268.883C584.153 268.451 584.351 268.091 584.693 267.839C585.035 267.587 585.485 267.461 586.061 267.461C586.691 267.461 587.177 267.605 587.537 267.893C587.879 268.181 588.059 268.595 588.059 269.135V269.261L585.359 269.657C582.965 270.017 581.777 271.007 581.777 272.645C581.777 273.491 582.047 274.175 582.605 274.697C583.145 275.219 583.973 275.471 585.053 275.471ZM596.829 273.347C596.613 273.419 596.397 273.437 596.163 273.437C595.461 273.437 595.119 273.077 595.119 272.339V267.623H596.865V265.913H595.119V263.483H592.977V265.913H591.555V267.623H592.977V272.555C592.977 274.391 593.877 275.309 595.713 275.309C596.181 275.309 596.541 275.273 596.829 275.201V273.347ZM602.415 273.581C601.659 273.581 601.047 273.311 600.597 272.753C600.129 272.195 599.913 271.475 599.913 270.593C599.913 269.711 600.129 268.991 600.597 268.433C601.047 267.875 601.659 267.587 602.415 267.587C602.667 267.587 602.955 267.641 603.279 267.749C603.603 267.857 603.891 268.055 604.143 268.325C604.395 268.613 604.575 268.937 604.683 269.297L606.735 268.793C606.609 268.433 606.429 268.055 606.213 267.659C605.979 267.281 605.691 266.939 605.331 266.651C604.971 266.363 604.539 266.129 604.053 265.949C603.549 265.787 603.009 265.697 602.433 265.697C601.767 265.697 601.137 265.823 600.561 266.075C599.985 266.327 599.481 266.687 599.067 267.137C598.653 267.587 598.329 268.109 598.113 268.703C597.879 269.315 597.771 269.945 597.771 270.593C597.771 271.259 597.879 271.889 598.113 272.483C598.329 273.077 598.653 273.599 599.067 274.049C599.481 274.499 599.985 274.841 600.561 275.093C601.137 275.345 601.767 275.471 602.433 275.471C603.009 275.471 603.549 275.399 604.053 275.219C604.539 275.057 604.971 274.823 605.331 274.535C605.691 274.247 605.979 273.905 606.213 273.509C606.429 273.131 606.609 272.753 606.735 272.375L604.683 271.871C604.575 272.249 604.395 272.573 604.143 272.843C603.891 273.131 603.603 273.311 603.279 273.419C602.955 273.527 602.667 273.581 602.415 273.581ZM610.72 261.755H608.578V275.255H610.72V269.855C610.72 269.333 610.828 268.883 611.062 268.505C611.278 268.127 611.566 267.875 611.926 267.731C612.268 267.605 612.592 267.533 612.916 267.533C613.528 267.533 613.978 267.731 614.302 268.109C614.608 268.505 614.77 269.009 614.77 269.657V275.255H616.912V269.387C616.912 268.703 616.804 268.127 616.588 267.659C616.372 267.191 616.102 266.795 615.778 266.507C615.454 266.219 615.076 266.003 614.662 265.877C614.248 265.769 613.834 265.697 613.438 265.697C612.79 265.697 612.25 265.823 611.782 266.057C611.314 266.291 610.954 266.579 610.72 266.921V261.755ZM628.294 273.347C628.078 273.419 627.862 273.437 627.628 273.437C626.926 273.437 626.584 273.077 626.584 272.339V267.623H628.33V265.913H626.584V263.483H624.442V265.913H623.02V267.623H624.442V272.555C624.442 274.391 625.342 275.309 627.178 275.309C627.646 275.309 628.006 275.273 628.294 275.201V273.347ZM632.597 275.165L632.381 275.687C632.183 276.155 631.949 276.551 631.661 276.839C631.373 277.127 630.977 277.271 630.473 277.271L629.933 277.253V279.161L630.545 279.197C631.301 279.197 631.913 279.053 632.381 278.747C632.849 278.459 633.227 278.081 633.533 277.631C633.821 277.181 634.091 276.659 634.325 276.083L638.465 265.913H636.233L633.659 272.681L631.121 265.913H628.835L632.597 275.165ZM641.992 274.031C642.262 274.463 642.658 274.805 643.18 275.075C643.702 275.345 644.296 275.471 644.98 275.471C645.628 275.471 646.24 275.345 646.78 275.093C647.32 274.841 647.788 274.499 648.166 274.049C648.544 273.599 648.832 273.077 649.03 272.483C649.21 271.889 649.318 271.259 649.318 270.593C649.318 269.945 649.21 269.315 649.03 268.703C648.832 268.109 648.544 267.587 648.166 267.137C647.788 266.687 647.32 266.327 646.78 266.075C646.24 265.823 645.628 265.697 644.98 265.697C644.278 265.697 643.648 265.841 643.108 266.111C642.568 266.399 642.136 266.777 641.83 267.245V265.913H639.85V278.999H641.992V274.031ZM641.92 270.593C641.92 269.945 642.028 269.405 642.28 268.937C642.532 268.487 642.838 268.145 643.234 267.911C643.612 267.677 644.044 267.551 644.548 267.551C645.34 267.551 645.97 267.839 646.456 268.415C646.924 268.991 647.176 269.729 647.176 270.593C647.176 271.223 647.05 271.763 646.798 272.213C646.546 272.663 646.24 273.005 645.862 273.239C645.466 273.473 645.034 273.581 644.548 273.581C643.756 273.581 643.108 273.311 642.64 272.735C642.154 272.159 641.92 271.457 641.92 270.593ZM657.665 272.195C657.467 272.663 657.161 273.005 656.765 273.257C656.369 273.509 655.901 273.635 655.397 273.635C654.659 273.635 654.065 273.419 653.597 272.969C653.129 272.537 652.859 271.943 652.787 271.205H659.897L659.915 270.539C659.915 269.873 659.807 269.243 659.591 268.649C659.375 268.055 659.051 267.533 658.655 267.101C658.241 266.669 657.755 266.327 657.179 266.075C656.603 265.823 655.991 265.697 655.325 265.697C654.641 265.697 654.029 265.823 653.453 266.075C652.877 266.327 652.373 266.687 651.959 267.119C651.545 267.569 651.221 268.091 651.005 268.685C650.789 269.297 650.681 269.927 650.681 270.575C650.681 271.259 650.789 271.907 651.005 272.501C651.221 273.113 651.545 273.635 651.959 274.067C652.355 274.517 652.859 274.859 653.435 275.111C654.011 275.363 654.659 275.471 655.343 275.471C656.333 275.471 657.197 275.237 657.953 274.733C658.709 274.229 659.249 273.563 659.591 272.699L657.665 272.195ZM655.325 267.443C655.649 267.443 655.991 267.515 656.351 267.641C656.711 267.785 657.017 268.019 657.287 268.379C657.539 268.739 657.719 269.153 657.791 269.621H652.823C652.859 269.333 652.985 269.009 653.165 268.667C653.345 268.325 653.615 268.037 654.011 267.803C654.389 267.569 654.821 267.443 655.325 267.443ZM662.793 275.399C663.207 275.399 663.549 275.273 663.837 274.985C664.125 274.715 664.269 274.373 664.269 273.941C664.269 273.527 664.125 273.185 663.837 272.897C663.549 272.609 663.207 272.465 662.793 272.465C662.361 272.465 662.019 272.609 661.731 272.897C661.443 273.185 661.299 273.527 661.299 273.941C661.299 274.373 661.425 274.715 661.713 274.985C662.001 275.273 662.361 275.399 662.793 275.399ZM662.793 268.721C663.207 268.721 663.549 268.595 663.837 268.307C664.125 268.019 664.269 267.677 664.269 267.245C664.269 266.831 664.125 266.489 663.837 266.201C663.549 265.913 663.207 265.769 662.793 265.769C662.361 265.769 662.019 265.913 661.731 266.201C661.443 266.489 661.299 266.831 661.299 267.245C661.299 267.677 661.425 268.019 661.713 268.307C662.001 268.595 662.361 268.721 662.793 268.721ZM673.105 267.137V261.755H670.963V275.255H672.943V273.923C673.231 274.409 673.663 274.787 674.221 275.057C674.761 275.345 675.391 275.471 676.093 275.471C676.741 275.471 677.353 275.345 677.893 275.093C678.433 274.841 678.901 274.499 679.279 274.049C679.657 273.599 679.945 273.077 680.143 272.483C680.323 271.889 680.431 271.259 680.431 270.593C680.431 269.945 680.323 269.315 680.143 268.703C679.945 268.109 679.657 267.587 679.279 267.137C678.901 266.687 678.433 266.327 677.893 266.075C677.353 265.823 676.741 265.697 676.093 265.697C675.409 265.697 674.815 265.841 674.293 266.111C673.771 266.381 673.375 266.723 673.105 267.137ZM673.033 270.593C673.033 270.071 673.123 269.567 673.339 269.081C673.555 268.595 673.861 268.217 674.293 267.965C674.707 267.713 675.157 267.587 675.661 267.587C676.453 267.587 677.083 267.875 677.569 268.451C678.037 269.027 678.289 269.729 678.289 270.593C678.289 271.223 678.163 271.763 677.911 272.213C677.659 272.663 677.353 273.005 676.975 273.239C676.579 273.473 676.147 273.581 675.661 273.581C674.869 273.581 674.221 273.311 673.753 272.735C673.267 272.159 673.033 271.457 673.033 270.593ZM687.446 265.841L687.14 265.823C686.78 265.823 686.402 265.877 686.024 265.985C685.628 266.093 685.304 266.255 685.016 266.489C684.728 266.723 684.53 266.957 684.386 267.209V265.913H682.406V275.255H684.548V270.395C684.548 269.531 684.746 268.883 685.178 268.451C685.592 268.019 686.186 267.803 686.96 267.803L687.446 267.839V265.841ZM692.824 275.471C693.544 275.471 694.192 275.345 694.804 275.093C695.416 274.841 695.92 274.481 696.352 274.031C696.784 273.581 697.108 273.059 697.342 272.465C697.558 271.871 697.684 271.241 697.684 270.593C697.684 269.945 697.558 269.333 697.342 268.739C697.108 268.145 696.784 267.623 696.352 267.155C695.92 266.705 695.416 266.345 694.804 266.093C694.192 265.841 693.544 265.697 692.824 265.697C692.104 265.697 691.456 265.841 690.844 266.093C690.232 266.345 689.728 266.705 689.296 267.155C688.864 267.623 688.54 268.145 688.324 268.739C688.09 269.333 687.982 269.945 687.982 270.593C687.982 271.241 688.09 271.871 688.324 272.465C688.54 273.059 688.864 273.581 689.296 274.031C689.728 274.481 690.232 274.841 690.844 275.093C691.456 275.345 692.104 275.471 692.824 275.471ZM690.124 270.593C690.124 270.053 690.232 269.531 690.466 269.045C690.682 268.577 691.024 268.217 691.456 267.965C691.888 267.713 692.338 267.587 692.824 267.587C693.292 267.587 693.76 267.713 694.192 267.965C694.624 268.217 694.966 268.577 695.2 269.045C695.416 269.531 695.542 270.053 695.542 270.593C695.542 271.493 695.272 272.213 694.768 272.753C694.264 273.311 693.616 273.581 692.824 273.581C692.032 273.581 691.384 273.311 690.88 272.753C690.376 272.213 690.124 271.493 690.124 270.593ZM705.428 270.881V271.457C705.428 271.925 705.302 272.339 705.068 272.735C704.816 273.131 704.492 273.419 704.078 273.563C703.664 273.725 703.25 273.797 702.854 273.797C702.314 273.797 701.9 273.707 701.63 273.491C701.36 273.293 701.234 273.005 701.234 272.627C701.234 272.303 701.36 272.015 701.612 271.799C701.864 271.583 702.296 271.403 702.944 271.295L705.428 270.881ZM702.422 275.471C703.106 275.471 703.754 275.363 704.33 275.147C704.906 274.931 705.356 274.625 705.68 274.229C705.77 274.445 705.914 274.661 706.13 274.841C706.346 275.039 706.58 275.183 706.85 275.255C707.12 275.327 707.372 275.363 707.624 275.363C707.894 275.363 708.128 275.345 708.308 275.291V273.563L708.128 273.581C707.714 273.581 707.516 273.383 707.516 272.951V269.189C707.516 268.109 707.174 267.245 706.49 266.633C705.806 266.021 704.816 265.697 703.484 265.697C702.692 265.697 702.026 265.823 701.468 266.039C700.892 266.273 700.442 266.597 700.1 267.011C699.74 267.443 699.506 267.947 699.398 268.541L701.45 268.883C701.522 268.451 701.72 268.091 702.062 267.839C702.404 267.587 702.854 267.461 703.43 267.461C704.06 267.461 704.546 267.605 704.906 267.893C705.248 268.181 705.428 268.595 705.428 269.135V269.261L702.728 269.657C700.334 270.017 699.146 271.007 699.146 272.645C699.146 273.491 699.416 274.175 699.974 274.697C700.514 275.219 701.342 275.471 702.422 275.471ZM716.893 267.137C716.605 266.723 716.209 266.381 715.705 266.111C715.183 265.841 714.589 265.697 713.905 265.697C713.239 265.697 712.627 265.823 712.087 266.075C711.547 266.327 711.079 266.687 710.719 267.137C710.341 267.587 710.053 268.109 709.873 268.703C709.675 269.315 709.585 269.945 709.585 270.593C709.585 271.259 709.675 271.889 709.873 272.483C710.053 273.077 710.341 273.599 710.719 274.049C711.079 274.499 711.547 274.841 712.087 275.093C712.627 275.345 713.239 275.471 713.905 275.471C714.607 275.471 715.237 275.345 715.777 275.057C716.317 274.787 716.749 274.409 717.055 273.923V275.255H719.035V261.755H716.893V267.137ZM716.983 270.593C716.983 271.457 716.731 272.159 716.263 272.735C715.777 273.311 715.147 273.581 714.355 273.581C713.851 273.581 713.401 273.455 712.987 273.203C712.555 272.951 712.249 272.573 712.033 272.087C711.817 271.619 711.727 271.115 711.727 270.593C711.727 269.729 711.961 269.027 712.447 268.451C712.915 267.875 713.563 267.587 714.355 267.587C714.841 267.587 715.291 267.713 715.723 267.965C716.137 268.217 716.443 268.595 716.659 269.081C716.875 269.567 716.983 270.071 716.983 270.593Z" fill="white"/>
<path d="M449.266 215.289C447.987 207.348 454.548 198.404 457.988 194.924C455.713 198.234 451.297 206.308 451.838 212.121C452.516 219.388 454.436 226.355 451.693 232.411C448.95 238.467 456.154 245.212 458.015 251.365C459.876 257.517 456.079 262.942 456.67 268.002C457.261 273.062 457.329 278.086 454.834 279.252C452.339 280.418 460.327 291.009 459.555 295.864C458.784 300.718 451.96 306.715 455.282 320.329C457.939 331.221 435.778 347.979 424.365 354.996C415.124 347.143 398.067 328.636 403.775 317.432C410.909 303.426 419.917 304.272 417.547 299.201C415.178 294.129 424.726 288.544 430.703 281.819C436.68 275.095 433.078 271.722 432.572 265.218C432.066 258.714 441.214 254.439 445.758 250.069C450.303 245.7 442.913 240.726 444.271 232.789C445.629 224.853 450.864 225.215 449.266 215.289Z" fill="white" fill-opacity="0.2"/>
<path d="M387.41 282.184H418.343M398.58 303.236C400.299 303.58 419.346 303.379 428.654 303.236M410.61 308.392H448.417M436.387 321.71H471.617M430.373 318.273H465.602" stroke="#593636" stroke-width="2"/>
<path d="M338.863 384.005V318.273L436.388 321.28L433.81 336.746H447.558L444.121 359.517H454.432V384.005H338.863Z" fill="white"/>
<path d="M457.442 324.717H331.562L358.199 278.747H411.043L408.895 283.903L416.628 302.377H420.924L423.502 306.673H437.68L435.532 312.688L457.442 317.843V324.717Z" fill="#872929"/>
<path d="M399.859 331.591H416.614V359.947H396.852L399.859 331.591Z" fill="#898282"/>
<path d="M354.754 332.021H377.094V384.435H357.332L354.754 332.021Z" fill="#898282"/>
<path d="M326.402 370.774H367.646M326.402 384.986H347.024M367.646 384.986H358.729M364.302 368.109V387.872M358.729 368.109V384.986M358.729 387.872V384.986M353.155 368.109V387.872M347.024 368.109V387.872M340.893 368.109V387.872M329.189 368.109V387.872" stroke="#593636" stroke-width="2"/>
<path d="M503.838 384.005H463.453V368.539L469.468 358.228L478.92 365.102H487.512L499.971 370.257L503.838 384.005Z" fill="#EEEEEE"/>
<rect x="363.348" y="267.577" width="8.59249" height="22.3405" fill="#EEEEEE"/>
<path d="M396.852 336.747H424.777M396.852 351.354L420.911 355.65M419.622 329.013L402.007 368.539M403.726 327.295L399.859 365.102" stroke="#593636" stroke-width="2"/>
<path d="M359.642 405.061L355.664 409.615V400.903H353.522V414.403H355.664V412.171L357.302 410.407L360.056 414.403H362.612L358.724 409.003L362.342 405.061H359.642ZM369.861 411.343C369.663 411.811 369.357 412.153 368.961 412.405C368.565 412.657 368.097 412.783 367.593 412.783C366.855 412.783 366.261 412.567 365.793 412.117C365.325 411.685 365.055 411.091 364.983 410.353H372.093L372.111 409.687C372.111 409.021 372.003 408.391 371.787 407.797C371.571 407.203 371.247 406.681 370.851 406.249C370.437 405.817 369.951 405.475 369.375 405.223C368.799 404.971 368.187 404.845 367.521 404.845C366.837 404.845 366.225 404.971 365.649 405.223C365.073 405.475 364.569 405.835 364.155 406.267C363.741 406.717 363.417 407.239 363.201 407.833C362.985 408.445 362.877 409.075 362.877 409.723C362.877 410.407 362.985 411.055 363.201 411.649C363.417 412.261 363.741 412.783 364.155 413.215C364.551 413.665 365.055 414.007 365.631 414.259C366.207 414.511 366.855 414.619 367.539 414.619C368.529 414.619 369.393 414.385 370.149 413.881C370.905 413.377 371.445 412.711 371.787 411.847L369.861 411.343ZM367.521 406.591C367.845 406.591 368.187 406.663 368.547 406.789C368.907 406.933 369.213 407.167 369.483 407.527C369.735 407.887 369.915 408.301 369.987 408.769H365.019C365.055 408.481 365.181 408.157 365.361 407.815C365.541 407.473 365.811 407.185 366.207 406.951C366.585 406.717 367.017 406.591 367.521 406.591ZM376.223 414.313L376.007 414.835C375.809 415.303 375.575 415.699 375.287 415.987C374.999 416.275 374.603 416.419 374.099 416.419L373.559 416.401V418.309L374.171 418.345C374.927 418.345 375.539 418.201 376.007 417.895C376.475 417.607 376.853 417.229 377.159 416.779C377.447 416.329 377.717 415.807 377.951 415.231L382.091 405.061H379.859L377.285 411.829L374.747 405.061H372.461L376.223 414.313ZM391.935 414.403H393.969L397.227 405.061H395.049L392.943 411.775L390.819 405.061H388.839L386.697 411.757L384.609 405.061H382.395L385.653 414.403H387.687L389.811 407.995H389.829L391.935 414.403ZM402.682 414.619C403.402 414.619 404.05 414.493 404.662 414.241C405.274 413.989 405.778 413.629 406.21 413.179C406.642 412.729 406.966 412.207 407.2 411.613C407.416 411.019 407.542 410.389 407.542 409.741C407.542 409.093 407.416 408.481 407.2 407.887C406.966 407.293 406.642 406.771 406.21 406.303C405.778 405.853 405.274 405.493 404.662 405.241C404.05 404.989 403.402 404.845 402.682 404.845C401.962 404.845 401.314 404.989 400.702 405.241C400.09 405.493 399.586 405.853 399.154 406.303C398.722 406.771 398.398 407.293 398.182 407.887C397.948 408.481 397.84 409.093 397.84 409.741C397.84 410.389 397.948 411.019 398.182 411.613C398.398 412.207 398.722 412.729 399.154 413.179C399.586 413.629 400.09 413.989 400.702 414.241C401.314 414.493 401.962 414.619 402.682 414.619ZM399.982 409.741C399.982 409.201 400.09 408.679 400.324 408.193C400.54 407.725 400.882 407.365 401.314 407.113C401.746 406.861 402.196 406.735 402.682 406.735C403.15 406.735 403.618 406.861 404.05 407.113C404.482 407.365 404.824 407.725 405.058 408.193C405.274 408.679 405.4 409.201 405.4 409.741C405.4 410.641 405.13 411.361 404.626 411.901C404.122 412.459 403.474 412.729 402.682 412.729C401.89 412.729 401.242 412.459 400.738 411.901C400.234 411.361 399.982 410.641 399.982 409.741ZM414.566 404.989L414.26 404.971C413.9 404.971 413.522 405.025 413.144 405.133C412.748 405.241 412.424 405.403 412.136 405.637C411.848 405.871 411.65 406.105 411.506 406.357V405.061H409.526V414.403H411.668V409.543C411.668 408.679 411.866 408.031 412.298 407.599C412.712 407.167 413.306 406.951 414.08 406.951L414.566 406.987V404.989ZM422.41 406.285C422.122 405.871 421.726 405.529 421.222 405.259C420.7 404.989 420.106 404.845 419.422 404.845C418.756 404.845 418.144 404.971 417.604 405.223C417.064 405.475 416.596 405.835 416.236 406.285C415.858 406.735 415.57 407.257 415.39 407.851C415.192 408.463 415.102 409.093 415.102 409.741C415.102 410.407 415.192 411.037 415.39 411.631C415.57 412.225 415.858 412.747 416.236 413.197C416.596 413.647 417.064 413.989 417.604 414.241C418.144 414.493 418.756 414.619 419.422 414.619C420.124 414.619 420.754 414.493 421.294 414.205C421.834 413.935 422.266 413.557 422.572 413.071V414.403H424.552V400.903H422.41V406.285ZM422.5 409.741C422.5 410.605 422.248 411.307 421.78 411.883C421.294 412.459 420.664 412.729 419.872 412.729C419.368 412.729 418.918 412.603 418.504 412.351C418.072 412.099 417.766 411.721 417.55 411.235C417.334 410.767 417.244 410.263 417.244 409.741C417.244 408.877 417.478 408.175 417.964 407.599C418.432 407.023 419.08 406.735 419.872 406.735C420.358 406.735 420.808 406.861 421.24 407.113C421.654 407.365 421.96 407.743 422.176 408.229C422.392 408.715 422.5 409.219 422.5 409.741ZM428.075 414.547C428.489 414.547 428.831 414.421 429.119 414.133C429.407 413.863 429.551 413.521 429.551 413.089C429.551 412.675 429.407 412.333 429.119 412.045C428.831 411.757 428.489 411.613 428.075 411.613C427.643 411.613 427.301 411.757 427.013 412.045C426.725 412.333 426.581 412.675 426.581 413.089C426.581 413.521 426.707 413.863 426.995 414.133C427.283 414.421 427.643 414.547 428.075 414.547ZM428.075 407.869C428.489 407.869 428.831 407.743 429.119 407.455C429.407 407.167 429.551 406.825 429.551 406.393C429.551 405.979 429.407 405.637 429.119 405.349C428.831 405.061 428.489 404.917 428.075 404.917C427.643 404.917 427.301 405.061 427.013 405.349C426.725 405.637 426.581 405.979 426.581 406.393C426.581 406.825 426.707 407.167 426.995 407.455C427.283 407.743 427.643 407.869 428.075 407.869ZM445.947 401.623H435.813V403.639H443.103L435.741 412.495V414.403H446.019V412.387H438.585L445.947 403.531V401.623ZM457.308 412.387H450.504V408.931H457.002V406.915H450.504V403.639H457.308V401.623H448.326V414.403H457.308V412.387ZM470.03 414.403L467.096 409.093C467.492 408.967 467.888 408.751 468.284 408.463C468.68 408.175 468.986 407.779 469.238 407.239C469.472 406.699 469.598 406.123 469.598 405.493C469.598 404.953 469.508 404.431 469.328 403.963C469.148 403.495 468.896 403.081 468.536 402.721C468.176 402.379 467.744 402.109 467.204 401.911C466.664 401.731 466.07 401.623 465.386 401.623H459.77V414.403H461.948V409.363H464.882L467.474 414.403H470.03ZM467.402 405.493C467.402 405.907 467.294 406.267 467.114 406.555C466.916 406.861 466.664 407.077 466.34 407.185C466.016 407.293 465.71 407.347 465.404 407.347H461.948V403.639H465.404C465.71 403.639 466.016 403.711 466.34 403.819C466.664 403.927 466.916 404.143 467.114 404.431C467.294 404.737 467.402 405.097 467.402 405.493ZM473.483 408.013C473.483 407.347 473.591 406.699 473.843 406.051C474.077 405.421 474.437 404.899 474.923 404.485C475.391 404.089 475.877 403.801 476.363 403.657C476.849 403.513 477.317 403.441 477.785 403.441C478.397 403.441 478.955 403.549 479.495 403.765C480.017 403.981 480.467 404.305 480.863 404.701C481.259 405.115 481.547 405.601 481.763 406.159C481.979 406.735 482.087 407.347 482.087 408.013C482.087 408.697 481.961 409.345 481.727 409.975C481.475 410.623 481.115 411.145 480.647 411.541C480.161 411.955 479.675 412.225 479.189 412.369C478.703 412.513 478.235 412.585 477.785 412.585C477.173 412.585 476.597 412.477 476.075 412.261C475.535 412.045 475.085 411.739 474.689 411.325C474.293 410.929 474.005 410.443 473.789 409.867C473.573 409.309 473.483 408.697 473.483 408.013ZM471.179 408.013C471.179 408.949 471.341 409.813 471.665 410.641C471.989 411.469 472.439 412.171 473.033 412.765C473.609 413.377 474.311 413.845 475.139 414.169C475.967 414.511 476.849 414.673 477.785 414.673C478.721 414.673 479.585 414.511 480.413 414.169C481.241 413.845 481.943 413.377 482.537 412.765C483.113 412.171 483.581 411.469 483.905 410.641C484.229 409.813 484.391 408.949 484.391 408.013C484.391 407.095 484.229 406.231 483.905 405.403C483.581 404.575 483.113 403.873 482.537 403.261C481.943 402.667 481.241 402.199 480.413 401.857C479.585 401.533 478.721 401.353 477.785 401.353C476.849 401.353 475.967 401.533 475.139 401.857C474.311 402.199 473.609 402.667 473.033 403.261C472.439 403.873 471.989 404.575 471.665 405.403C471.341 406.231 471.179 407.095 471.179 408.013ZM346.075 427.039C346.075 426.661 346.129 426.283 346.273 425.923C346.399 425.563 346.633 425.275 346.975 425.041C347.299 424.807 347.713 424.681 348.181 424.681C348.775 424.681 349.225 424.879 349.513 425.275C349.801 425.671 349.945 426.175 349.945 426.805V432.403H352.087V426.535C352.087 425.887 351.979 425.311 351.781 424.825C351.565 424.357 351.313 423.961 350.989 423.655C350.665 423.367 350.287 423.151 349.891 423.025C349.495 422.917 349.081 422.845 348.685 422.845C347.353 422.845 346.309 423.349 345.517 424.321C345.247 423.871 344.869 423.511 344.401 423.241C343.915 422.989 343.357 422.845 342.709 422.845C342.367 422.845 342.007 422.899 341.629 423.007C341.251 423.115 340.909 423.277 340.603 423.511C340.297 423.763 340.063 424.015 339.919 424.303V423.061H337.939V432.403H340.081V426.967C340.081 426.643 340.135 426.283 340.261 425.923C340.387 425.563 340.621 425.275 340.963 425.041C341.287 424.807 341.701 424.681 342.169 424.681C342.763 424.681 343.213 424.879 343.501 425.257C343.789 425.653 343.933 426.157 343.933 426.805V432.403H346.075V427.039ZM360.346 428.029V428.605C360.346 429.073 360.22 429.487 359.986 429.883C359.734 430.279 359.41 430.567 358.996 430.711C358.582 430.873 358.168 430.945 357.772 430.945C357.232 430.945 356.818 430.855 356.548 430.639C356.278 430.441 356.152 430.153 356.152 429.775C356.152 429.451 356.278 429.163 356.53 428.947C356.782 428.731 357.214 428.551 357.862 428.443L360.346 428.029ZM357.34 432.619C358.024 432.619 358.672 432.511 359.248 432.295C359.824 432.079 360.274 431.773 360.598 431.377C360.688 431.593 360.832 431.809 361.048 431.989C361.264 432.187 361.498 432.331 361.768 432.403C362.038 432.475 362.29 432.511 362.542 432.511C362.812 432.511 363.046 432.493 363.226 432.439V430.711L363.046 430.729C362.632 430.729 362.434 430.531 362.434 430.099V426.337C362.434 425.257 362.092 424.393 361.408 423.781C360.724 423.169 359.734 422.845 358.402 422.845C357.61 422.845 356.944 422.971 356.386 423.187C355.81 423.421 355.36 423.745 355.018 424.159C354.658 424.591 354.424 425.095 354.316 425.689L356.368 426.031C356.44 425.599 356.638 425.239 356.98 424.987C357.322 424.735 357.772 424.609 358.348 424.609C358.978 424.609 359.464 424.753 359.824 425.041C360.166 425.329 360.346 425.743 360.346 426.283V426.409L357.646 426.805C355.252 427.165 354.064 428.155 354.064 429.793C354.064 430.639 354.334 431.323 354.892 431.845C355.432 432.367 356.26 432.619 357.34 432.619ZM369.116 430.495C368.9 430.567 368.684 430.585 368.45 430.585C367.748 430.585 367.406 430.225 367.406 429.487V424.771H369.152V423.061H367.406V420.631H365.264V423.061H363.842V424.771H365.264V429.703C365.264 431.539 366.164 432.457 368 432.457C368.468 432.457 368.828 432.421 369.116 432.349V430.495ZM374.702 430.729C373.946 430.729 373.334 430.459 372.884 429.901C372.416 429.343 372.2 428.623 372.2 427.741C372.2 426.859 372.416 426.139 372.884 425.581C373.334 425.023 373.946 424.735 374.702 424.735C374.954 424.735 375.242 424.789 375.566 424.897C375.89 425.005 376.178 425.203 376.43 425.473C376.682 425.761 376.862 426.085 376.97 426.445L379.022 425.941C378.896 425.581 378.716 425.203 378.5 424.807C378.266 424.429 377.978 424.087 377.618 423.799C377.258 423.511 376.826 423.277 376.34 423.097C375.836 422.935 375.296 422.845 374.72 422.845C374.054 422.845 373.424 422.971 372.848 423.223C372.272 423.475 371.768 423.835 371.354 424.285C370.94 424.735 370.616 425.257 370.4 425.851C370.166 426.463 370.058 427.093 370.058 427.741C370.058 428.407 370.166 429.037 370.4 429.631C370.616 430.225 370.94 430.747 371.354 431.197C371.768 431.647 372.272 431.989 372.848 432.241C373.424 432.493 374.054 432.619 374.72 432.619C375.296 432.619 375.836 432.547 376.34 432.367C376.826 432.205 377.258 431.971 377.618 431.683C377.978 431.395 378.266 431.053 378.5 430.657C378.716 430.279 378.896 429.901 379.022 429.523L376.97 429.019C376.862 429.397 376.682 429.721 376.43 429.991C376.178 430.279 375.89 430.459 375.566 430.567C375.242 430.675 374.954 430.729 374.702 430.729ZM383.007 418.903H380.865V432.403H383.007V427.003C383.007 426.481 383.115 426.031 383.349 425.653C383.565 425.275 383.853 425.023 384.213 424.879C384.555 424.753 384.879 424.681 385.203 424.681C385.815 424.681 386.265 424.879 386.589 425.257C386.895 425.653 387.057 426.157 387.057 426.805V432.403H389.199V426.535C389.199 425.851 389.091 425.275 388.875 424.807C388.659 424.339 388.389 423.943 388.065 423.655C387.741 423.367 387.363 423.151 386.949 423.025C386.535 422.917 386.121 422.845 385.725 422.845C385.077 422.845 384.537 422.971 384.069 423.205C383.601 423.439 383.241 423.727 383.007 424.069V418.903ZM400.581 430.495C400.365 430.567 400.149 430.585 399.915 430.585C399.213 430.585 398.871 430.225 398.871 429.487V424.771H400.617V423.061H398.871V420.631H396.729V423.061H395.307V424.771H396.729V429.703C396.729 431.539 397.629 432.457 399.465 432.457C399.933 432.457 400.293 432.421 400.581 432.349V430.495ZM404.884 432.313L404.668 432.835C404.47 433.303 404.236 433.699 403.948 433.987C403.66 434.275 403.264 434.419 402.76 434.419L402.22 434.401V436.309L402.832 436.345C403.588 436.345 404.2 436.201 404.668 435.895C405.136 435.607 405.514 435.229 405.82 434.779C406.108 434.329 406.378 433.807 406.612 433.231L410.752 423.061H408.52L405.946 429.829L403.408 423.061H401.122L404.884 432.313ZM414.279 431.179C414.549 431.611 414.945 431.953 415.467 432.223C415.989 432.493 416.583 432.619 417.267 432.619C417.915 432.619 418.527 432.493 419.067 432.241C419.607 431.989 420.075 431.647 420.453 431.197C420.831 430.747 421.119 430.225 421.317 429.631C421.497 429.037 421.605 428.407 421.605 427.741C421.605 427.093 421.497 426.463 421.317 425.851C421.119 425.257 420.831 424.735 420.453 424.285C420.075 423.835 419.607 423.475 419.067 423.223C418.527 422.971 417.915 422.845 417.267 422.845C416.565 422.845 415.935 422.989 415.395 423.259C414.855 423.547 414.423 423.925 414.117 424.393V423.061H412.137V436.147H414.279V431.179ZM414.207 427.741C414.207 427.093 414.315 426.553 414.567 426.085C414.819 425.635 415.125 425.293 415.521 425.059C415.899 424.825 416.331 424.699 416.835 424.699C417.627 424.699 418.257 424.987 418.743 425.563C419.211 426.139 419.463 426.877 419.463 427.741C419.463 428.371 419.337 428.911 419.085 429.361C418.833 429.811 418.527 430.153 418.149 430.387C417.753 430.621 417.321 430.729 416.835 430.729C416.043 430.729 415.395 430.459 414.927 429.883C414.441 429.307 414.207 428.605 414.207 427.741ZM429.952 429.343C429.754 429.811 429.448 430.153 429.052 430.405C428.656 430.657 428.188 430.783 427.684 430.783C426.946 430.783 426.352 430.567 425.884 430.117C425.416 429.685 425.146 429.091 425.074 428.353H432.184L432.202 427.687C432.202 427.021 432.094 426.391 431.878 425.797C431.662 425.203 431.338 424.681 430.942 424.249C430.528 423.817 430.042 423.475 429.466 423.223C428.89 422.971 428.278 422.845 427.612 422.845C426.928 422.845 426.316 422.971 425.74 423.223C425.164 423.475 424.66 423.835 424.246 424.267C423.832 424.717 423.508 425.239 423.292 425.833C423.076 426.445 422.968 427.075 422.968 427.723C422.968 428.407 423.076 429.055 423.292 429.649C423.508 430.261 423.832 430.783 424.246 431.215C424.642 431.665 425.146 432.007 425.722 432.259C426.298 432.511 426.946 432.619 427.63 432.619C428.62 432.619 429.484 432.385 430.24 431.881C430.996 431.377 431.536 430.711 431.878 429.847L429.952 429.343ZM427.612 424.591C427.936 424.591 428.278 424.663 428.638 424.789C428.998 424.933 429.304 425.167 429.574 425.527C429.826 425.887 430.006 426.301 430.078 426.769H425.11C425.146 426.481 425.272 426.157 425.452 425.815C425.632 425.473 425.902 425.185 426.298 424.951C426.676 424.717 427.108 424.591 427.612 424.591ZM435.08 432.547C435.494 432.547 435.836 432.421 436.124 432.133C436.412 431.863 436.556 431.521 436.556 431.089C436.556 430.675 436.412 430.333 436.124 430.045C435.836 429.757 435.494 429.613 435.08 429.613C434.648 429.613 434.306 429.757 434.018 430.045C433.73 430.333 433.586 430.675 433.586 431.089C433.586 431.521 433.712 431.863 434 432.133C434.288 432.421 434.648 432.547 435.08 432.547ZM435.08 425.869C435.494 425.869 435.836 425.743 436.124 425.455C436.412 425.167 436.556 424.825 436.556 424.393C436.556 423.979 436.412 423.637 436.124 423.349C435.836 423.061 435.494 422.917 435.08 422.917C434.648 422.917 434.306 423.061 434.018 423.349C433.73 423.637 433.586 423.979 433.586 424.393C433.586 424.825 433.712 425.167 434 425.455C434.288 425.743 434.648 425.869 435.08 425.869ZM445.392 431.179C445.662 431.611 446.058 431.953 446.58 432.223C447.102 432.493 447.696 432.619 448.38 432.619C449.028 432.619 449.64 432.493 450.18 432.241C450.72 431.989 451.188 431.647 451.566 431.197C451.944 430.747 452.232 430.225 452.43 429.631C452.61 429.037 452.718 428.407 452.718 427.741C452.718 427.093 452.61 426.463 452.43 425.851C452.232 425.257 451.944 424.735 451.566 424.285C451.188 423.835 450.72 423.475 450.18 423.223C449.64 422.971 449.028 422.845 448.38 422.845C447.678 422.845 447.048 422.989 446.508 423.259C445.968 423.547 445.536 423.925 445.23 424.393V423.061H443.25V436.147H445.392V431.179ZM445.32 427.741C445.32 427.093 445.428 426.553 445.68 426.085C445.932 425.635 446.238 425.293 446.634 425.059C447.012 424.825 447.444 424.699 447.948 424.699C448.74 424.699 449.37 424.987 449.856 425.563C450.324 426.139 450.576 426.877 450.576 427.741C450.576 428.371 450.45 428.911 450.198 429.361C449.946 429.811 449.64 430.153 449.262 430.387C448.866 430.621 448.434 430.729 447.948 430.729C447.156 430.729 446.508 430.459 446.04 429.883C445.554 429.307 445.32 428.605 445.32 427.741ZM456.835 418.903H454.693V432.403H456.835V427.003C456.835 426.481 456.943 426.031 457.177 425.653C457.393 425.275 457.681 425.023 458.041 424.879C458.383 424.753 458.707 424.681 459.031 424.681C459.643 424.681 460.093 424.879 460.417 425.257C460.723 425.653 460.885 426.157 460.885 426.805V432.403H463.027V426.535C463.027 425.851 462.919 425.275 462.703 424.807C462.487 424.339 462.217 423.943 461.893 423.655C461.569 423.367 461.191 423.151 460.777 423.025C460.363 422.917 459.949 422.845 459.553 422.845C458.905 422.845 458.365 422.971 457.897 423.205C457.429 423.439 457.069 423.727 456.835 424.069V418.903ZM470.579 422.989L470.273 422.971C469.913 422.971 469.535 423.025 469.157 423.133C468.761 423.241 468.437 423.403 468.149 423.637C467.861 423.871 467.663 424.105 467.519 424.357V423.061H465.539V432.403H467.681V427.543C467.681 426.679 467.879 426.031 468.311 425.599C468.725 425.167 469.319 424.951 470.093 424.951L470.579 424.987V422.989ZM477.697 428.029V428.605C477.697 429.073 477.571 429.487 477.337 429.883C477.085 430.279 476.761 430.567 476.347 430.711C475.933 430.873 475.519 430.945 475.123 430.945C474.583 430.945 474.169 430.855 473.899 430.639C473.629 430.441 473.503 430.153 473.503 429.775C473.503 429.451 473.629 429.163 473.881 428.947C474.133 428.731 474.565 428.551 475.213 428.443L477.697 428.029ZM474.691 432.619C475.375 432.619 476.023 432.511 476.599 432.295C477.175 432.079 477.625 431.773 477.949 431.377C478.039 431.593 478.183 431.809 478.399 431.989C478.615 432.187 478.849 432.331 479.119 432.403C479.389 432.475 479.641 432.511 479.893 432.511C480.163 432.511 480.397 432.493 480.577 432.439V430.711L480.397 430.729C479.983 430.729 479.785 430.531 479.785 430.099V426.337C479.785 425.257 479.443 424.393 478.759 423.781C478.075 423.169 477.085 422.845 475.753 422.845C474.961 422.845 474.295 422.971 473.737 423.187C473.161 423.421 472.711 423.745 472.369 424.159C472.009 424.591 471.775 425.095 471.667 425.689L473.719 426.031C473.791 425.599 473.989 425.239 474.331 424.987C474.673 424.735 475.123 424.609 475.699 424.609C476.329 424.609 476.815 424.753 477.175 425.041C477.517 425.329 477.697 425.743 477.697 426.283V426.409L474.997 426.805C472.603 427.165 471.415 428.155 471.415 429.793C471.415 430.639 471.685 431.323 472.243 431.845C472.783 432.367 473.611 432.619 474.691 432.619ZM481.729 429.793C481.819 430.405 482.017 430.909 482.323 431.269C482.611 431.647 482.935 431.917 483.277 432.097C483.601 432.277 483.961 432.421 484.357 432.493C484.753 432.583 485.167 432.619 485.635 432.619C486.247 432.619 486.805 432.547 487.309 432.403C487.813 432.259 488.227 432.043 488.551 431.773C488.875 431.503 489.109 431.197 489.289 430.837C489.451 430.477 489.541 430.099 489.541 429.703C489.541 429.163 489.415 428.695 489.199 428.335C488.983 427.975 488.659 427.669 488.263 427.453C487.849 427.237 487.165 427.021 486.229 426.841C485.275 426.661 484.699 426.481 484.519 426.301C484.339 426.121 484.249 425.923 484.249 425.707C484.249 425.365 484.375 425.095 484.663 424.897C484.933 424.699 485.329 424.591 485.851 424.591C486.337 424.591 486.733 424.735 487.021 424.987C487.309 425.257 487.471 425.563 487.525 425.923L489.523 425.563C489.415 425.059 489.199 424.573 488.857 424.123C488.515 423.673 488.083 423.349 487.543 423.151C487.003 422.953 486.463 422.845 485.905 422.845C485.203 422.845 484.609 422.953 484.123 423.169C483.637 423.385 483.277 423.637 483.025 423.889C482.773 424.141 482.557 424.429 482.413 424.735C482.269 425.059 482.197 425.401 482.197 425.779C482.197 426.535 482.395 427.129 482.827 427.543C483.241 427.975 483.907 428.281 484.843 428.461C484.969 428.497 485.239 428.551 485.671 428.623C486.103 428.713 486.445 428.803 486.733 428.893C487.003 429.001 487.201 429.127 487.309 429.289C487.417 429.451 487.489 429.613 487.489 429.793C487.489 430.117 487.327 430.387 487.021 430.567C486.715 430.765 486.301 430.855 485.761 430.855C485.149 430.855 484.663 430.729 484.321 430.477C483.961 430.225 483.781 429.883 483.745 429.469L481.729 429.793ZM497.874 429.343C497.676 429.811 497.37 430.153 496.974 430.405C496.578 430.657 496.11 430.783 495.606 430.783C494.868 430.783 494.274 430.567 493.806 430.117C493.338 429.685 493.068 429.091 492.996 428.353H500.106L500.124 427.687C500.124 427.021 500.016 426.391 499.8 425.797C499.584 425.203 499.26 424.681 498.864 424.249C498.45 423.817 497.964 423.475 497.388 423.223C496.812 422.971 496.2 422.845 495.534 422.845C494.85 422.845 494.238 422.971 493.662 423.223C493.086 423.475 492.582 423.835 492.168 424.267C491.754 424.717 491.43 425.239 491.214 425.833C490.998 426.445 490.89 427.075 490.89 427.723C490.89 428.407 490.998 429.055 491.214 429.649C491.43 430.261 491.754 430.783 492.168 431.215C492.564 431.665 493.068 432.007 493.644 432.259C494.22 432.511 494.868 432.619 495.552 432.619C496.542 432.619 497.406 432.385 498.162 431.881C498.918 431.377 499.458 430.711 499.8 429.847L497.874 429.343ZM495.534 424.591C495.858 424.591 496.2 424.663 496.56 424.789C496.92 424.933 497.226 425.167 497.496 425.527C497.748 425.887 497.928 426.301 498 426.769H493.032C493.068 426.481 493.194 426.157 493.374 425.815C493.554 425.473 493.824 425.185 494.22 424.951C494.598 424.717 495.03 424.591 495.534 424.591Z" fill="white"/>
<path d="M350.172 29.1314C353.322 25.975 353.063 17.4615 352.539 13.5993C352.563 16.6555 352.08 23.4067 349.962 25.9619C347.314 29.1558 344.171 31.4301 343.538 36.1415C342.905 40.8528 337.318 39.7425 334.464 41.6484C331.609 43.5542 331.68 48.6054 329.779 50.7553C327.879 52.9053 326.239 55.3616 327.053 57.4874C327.867 59.6131 320.676 59.9298 319.49 62.8218C318.304 65.7137 319.632 72.9242 313.694 77.636C308.944 81.4054 314.127 103.471 317.312 114.033C324.223 115.855 338.262 117.222 339.132 108.113C340.219 96.7277 335.661 91.5667 338.412 90.5131C341.163 89.4596 338.406 80.765 337.714 73.7173C337.022 66.6696 339.815 67.2248 342.138 64.3039C344.46 61.3831 341.475 53.5887 340.711 48.5998C339.947 43.6109 345.055 45.7171 346.949 40.9291C348.843 36.141 346.235 33.077 350.172 29.1314Z" fill="white" fill-opacity="0.2"/>
<path d="M367.729 66.9671C366.327 64.174 368.372 58.566 369.57 56.1111C368.882 58.1396 367.718 62.7381 368.566 64.9043C369.625 67.612 371.217 69.8168 370.602 73.0911C369.986 76.3653 373.948 76.8553 375.428 78.7513C376.909 80.6474 375.751 83.993 376.542 85.8417C377.334 87.6903 377.885 89.6856 376.876 90.921C375.867 92.1564 380.582 93.9488 380.735 96.1341C380.888 98.3195 378.419 102.825 381.333 107.267C383.665 110.82 375.363 124.363 370.92 130.69C365.921 130.383 356.279 128.204 357.703 121.952C359.484 114.136 363.652 111.705 362.053 110.399C360.454 109.092 364.201 103.913 366.212 99.3758C368.223 94.8384 366.242 94.5933 365.339 92.139C364.436 89.6846 368.137 85.1547 369.743 82.0029C371.348 78.8512 367.486 79.1292 367.279 75.5266C367.072 71.9239 369.481 70.4586 367.729 66.9671Z" fill="white" fill-opacity="0.2"/>
<path d="M418.974 149.007H354.243H330.107L315.844 125.026L330.107 118.486V113.036L339.981 106.496L348.758 113.036H361.923V121.756H372.895L361.923 127.206H387.158L397.032 133.747L406.906 137.017V141.377L418.974 149.007Z" fill="#EEEEEE"/>
<path d="M337.484 132.869L357.953 94.2932M337.484 135.624L370.156 114.368" stroke="#593636" stroke-width="2"/>
<path d="M257.578 149.007H274.231H366.22L355.118 139.56H348.774L347.188 136.411L340.05 130.113L326.569 116.73L322.604 114.368L319.432 104.134L307.537 97.0484H296.435L290.091 112.794L287.712 114.368V119.092L274.231 121.453L277.403 126.964L274.231 132.475L261.543 136.411L264.715 140.348L257.578 149.007Z" fill="#EEEEEE"/>
<path d="M278.849 69.4946L286.217 94.36M291.446 112.006L286.217 94.36M269.402 94.36L274.913 91.2157M289.084 83.1305L274.913 91.2157M274.913 91.2157L286.217 94.36" stroke="#593636" stroke-width="2"/>
<path d="M287.496 57.026L310.135 60.6489M317.412 61.8134L310.135 60.6489M293.964 47.4512C295.258 48.7279 302.05 84.6864 305.284 102.506M310.135 60.6489L313.369 106.496M296.39 78.5692L314.986 76.9734" stroke="#593636" stroke-width="2"/>
<path d="M319.777 104.921V149.007H376.46L363.755 139.21V126.474H348.119V139.21H329.55V119.616L335.414 113.738V104.921H319.777Z" fill="white"/>
<path d="M302.457 149.007H241.051V126.964H267.03L270.573 119.879L292.616 118.304V124.602L297.34 132.869V140.741L302.457 149.007Z" fill="white"/>
<path d="M263.817 171.982L264.735 169.516H270.459L271.377 171.982H273.753L268.785 159.202H266.463L261.513 171.982H263.817ZM267.615 161.902L269.739 167.536H265.455L267.579 161.902H267.615ZM280.88 168.022C280.88 168.796 280.682 169.372 280.286 169.768C279.89 170.164 279.368 170.362 278.72 170.362C278.108 170.362 277.64 170.182 277.352 169.804C277.046 169.426 276.902 168.904 276.902 168.238V162.64H274.76V168.526C274.76 169.21 274.85 169.804 275.066 170.272C275.264 170.74 275.534 171.118 275.858 171.406C276.182 171.694 276.56 171.91 276.974 172.018C277.37 172.144 277.784 172.198 278.198 172.198C278.882 172.198 279.476 172.072 279.98 171.784C280.466 171.514 280.826 171.172 281.042 170.776V171.982H283.022V162.64H280.88V168.022ZM289.802 170.074C289.586 170.146 289.37 170.164 289.136 170.164C288.434 170.164 288.092 169.804 288.092 169.066V164.35H289.838V162.64H288.092V160.21H285.95V162.64H284.528V164.35H285.95V169.282C285.95 171.118 286.85 172.036 288.686 172.036C289.154 172.036 289.514 172 289.802 171.928V170.074ZM295.586 172.198C296.306 172.198 296.954 172.072 297.566 171.82C298.178 171.568 298.682 171.208 299.114 170.758C299.546 170.308 299.87 169.786 300.104 169.192C300.32 168.598 300.446 167.968 300.446 167.32C300.446 166.672 300.32 166.06 300.104 165.466C299.87 164.872 299.546 164.35 299.114 163.882C298.682 163.432 298.178 163.072 297.566 162.82C296.954 162.568 296.306 162.424 295.586 162.424C294.866 162.424 294.218 162.568 293.606 162.82C292.994 163.072 292.49 163.432 292.058 163.882C291.626 164.35 291.302 164.872 291.086 165.466C290.852 166.06 290.744 166.672 290.744 167.32C290.744 167.968 290.852 168.598 291.086 169.192C291.302 169.786 291.626 170.308 292.058 170.758C292.49 171.208 292.994 171.568 293.606 171.82C294.218 172.072 294.866 172.198 295.586 172.198ZM292.886 167.32C292.886 166.78 292.994 166.258 293.228 165.772C293.444 165.304 293.786 164.944 294.218 164.692C294.65 164.44 295.1 164.314 295.586 164.314C296.054 164.314 296.522 164.44 296.954 164.692C297.386 164.944 297.728 165.304 297.962 165.772C298.178 166.258 298.304 166.78 298.304 167.32C298.304 168.22 298.034 168.94 297.53 169.48C297.026 170.038 296.378 170.308 295.586 170.308C294.794 170.308 294.146 170.038 293.642 169.48C293.138 168.94 292.886 168.22 292.886 167.32ZM311.138 170.308C310.382 170.308 309.77 170.038 309.32 169.48C308.852 168.922 308.636 168.202 308.636 167.32C308.636 166.438 308.852 165.718 309.32 165.16C309.77 164.602 310.382 164.314 311.138 164.314C311.39 164.314 311.678 164.368 312.002 164.476C312.326 164.584 312.614 164.782 312.866 165.052C313.118 165.34 313.298 165.664 313.406 166.024L315.458 165.52C315.332 165.16 315.152 164.782 314.936 164.386C314.702 164.008 314.414 163.666 314.054 163.378C313.694 163.09 313.262 162.856 312.776 162.676C312.272 162.514 311.732 162.424 311.156 162.424C310.49 162.424 309.86 162.55 309.284 162.802C308.708 163.054 308.204 163.414 307.79 163.864C307.376 164.314 307.052 164.836 306.836 165.43C306.602 166.042 306.494 166.672 306.494 167.32C306.494 167.986 306.602 168.616 306.836 169.21C307.052 169.804 307.376 170.326 307.79 170.776C308.204 171.226 308.708 171.568 309.284 171.82C309.86 172.072 310.49 172.198 311.156 172.198C311.732 172.198 312.272 172.126 312.776 171.946C313.262 171.784 313.694 171.55 314.054 171.262C314.414 170.974 314.702 170.632 314.936 170.236C315.152 169.858 315.332 169.48 315.458 169.102L313.406 168.598C313.298 168.976 313.118 169.3 312.866 169.57C312.614 169.858 312.326 170.038 312.002 170.146C311.678 170.254 311.39 170.308 311.138 170.308ZM322.956 167.608V168.184C322.956 168.652 322.83 169.066 322.596 169.462C322.344 169.858 322.02 170.146 321.606 170.29C321.192 170.452 320.778 170.524 320.382 170.524C319.842 170.524 319.428 170.434 319.158 170.218C318.888 170.02 318.762 169.732 318.762 169.354C318.762 169.03 318.888 168.742 319.14 168.526C319.392 168.31 319.824 168.13 320.472 168.022L322.956 167.608ZM319.95 172.198C320.634 172.198 321.282 172.09 321.858 171.874C322.434 171.658 322.884 171.352 323.208 170.956C323.298 171.172 323.442 171.388 323.658 171.568C323.874 171.766 324.108 171.91 324.378 171.982C324.648 172.054 324.9 172.09 325.152 172.09C325.422 172.09 325.656 172.072 325.836 172.018V170.29L325.656 170.308C325.242 170.308 325.044 170.11 325.044 169.678V165.916C325.044 164.836 324.702 163.972 324.018 163.36C323.334 162.748 322.344 162.424 321.012 162.424C320.22 162.424 319.554 162.55 318.996 162.766C318.42 163 317.97 163.324 317.628 163.738C317.268 164.17 317.034 164.674 316.926 165.268L318.978 165.61C319.05 165.178 319.248 164.818 319.59 164.566C319.932 164.314 320.382 164.188 320.958 164.188C321.588 164.188 322.074 164.332 322.434 164.62C322.776 164.908 322.956 165.322 322.956 165.862V165.988L320.256 166.384C317.862 166.744 316.674 167.734 316.674 169.372C316.674 170.218 316.944 170.902 317.502 171.424C318.042 171.946 318.87 172.198 319.95 172.198ZM335.861 166.618C335.861 166.24 335.915 165.862 336.059 165.502C336.185 165.142 336.419 164.854 336.761 164.62C337.085 164.386 337.499 164.26 337.967 164.26C338.561 164.26 339.011 164.458 339.299 164.854C339.587 165.25 339.731 165.754 339.731 166.384V171.982H341.873V166.114C341.873 165.466 341.765 164.89 341.567 164.404C341.351 163.936 341.099 163.54 340.775 163.234C340.451 162.946 340.073 162.73 339.677 162.604C339.281 162.496 338.867 162.424 338.471 162.424C337.139 162.424 336.095 162.928 335.303 163.9C335.033 163.45 334.655 163.09 334.187 162.82C333.701 162.568 333.143 162.424 332.495 162.424C332.153 162.424 331.793 162.478 331.415 162.586C331.037 162.694 330.695 162.856 330.389 163.09C330.083 163.342 329.849 163.594 329.705 163.882V162.64H327.725V171.982H329.867V166.546C329.867 166.222 329.921 165.862 330.047 165.502C330.173 165.142 330.407 164.854 330.749 164.62C331.073 164.386 331.487 164.26 331.955 164.26C332.549 164.26 332.999 164.458 333.287 164.836C333.575 165.232 333.719 165.736 333.719 166.384V171.982H335.861V166.618ZM346.514 170.758C346.784 171.19 347.18 171.532 347.702 171.802C348.224 172.072 348.818 172.198 349.502 172.198C350.15 172.198 350.762 172.072 351.302 171.82C351.842 171.568 352.31 171.226 352.688 170.776C353.066 170.326 353.354 169.804 353.552 169.21C353.732 168.616 353.84 167.986 353.84 167.32C353.84 166.672 353.732 166.042 353.552 165.43C353.354 164.836 353.066 164.314 352.688 163.864C352.31 163.414 351.842 163.054 351.302 162.802C350.762 162.55 350.15 162.424 349.502 162.424C348.8 162.424 348.17 162.568 347.63 162.838C347.09 163.126 346.658 163.504 346.352 163.972V162.64H344.372V175.726H346.514V170.758ZM346.442 167.32C346.442 166.672 346.55 166.132 346.802 165.664C347.054 165.214 347.36 164.872 347.756 164.638C348.134 164.404 348.566 164.278 349.07 164.278C349.862 164.278 350.492 164.566 350.978 165.142C351.446 165.718 351.698 166.456 351.698 167.32C351.698 167.95 351.572 168.49 351.32 168.94C351.068 169.39 350.762 169.732 350.384 169.966C349.988 170.2 349.556 170.308 349.07 170.308C348.278 170.308 347.63 170.038 347.162 169.462C346.676 168.886 346.442 168.184 346.442 167.32ZM361.575 167.608V168.184C361.575 168.652 361.449 169.066 361.215 169.462C360.963 169.858 360.639 170.146 360.225 170.29C359.811 170.452 359.397 170.524 359.001 170.524C358.461 170.524 358.047 170.434 357.777 170.218C357.507 170.02 357.381 169.732 357.381 169.354C357.381 169.03 357.507 168.742 357.759 168.526C358.011 168.31 358.443 168.13 359.091 168.022L361.575 167.608ZM358.569 172.198C359.253 172.198 359.901 172.09 360.477 171.874C361.053 171.658 361.503 171.352 361.827 170.956C361.917 171.172 362.061 171.388 362.277 171.568C362.493 171.766 362.727 171.91 362.997 171.982C363.267 172.054 363.519 172.09 363.771 172.09C364.041 172.09 364.275 172.072 364.455 172.018V170.29L364.275 170.308C363.861 170.308 363.663 170.11 363.663 169.678V165.916C363.663 164.836 363.321 163.972 362.637 163.36C361.953 162.748 360.963 162.424 359.631 162.424C358.839 162.424 358.173 162.55 357.615 162.766C357.039 163 356.589 163.324 356.247 163.738C355.887 164.17 355.653 164.674 355.545 165.268L357.597 165.61C357.669 165.178 357.867 164.818 358.209 164.566C358.551 164.314 359.001 164.188 359.577 164.188C360.207 164.188 360.693 164.332 361.053 164.62C361.395 164.908 361.575 165.322 361.575 165.862V165.988L358.875 166.384C356.481 166.744 355.293 167.734 355.293 169.372C355.293 170.218 355.563 170.902 356.121 171.424C356.661 171.946 357.489 172.198 358.569 172.198ZM367.424 161.074C367.802 161.074 368.126 160.966 368.378 160.714C368.63 160.462 368.756 160.156 368.756 159.76C368.756 159.382 368.63 159.058 368.378 158.806C368.126 158.554 367.802 158.41 367.424 158.41C367.028 158.41 366.704 158.554 366.452 158.806C366.2 159.058 366.074 159.382 366.074 159.76C366.074 160.156 366.2 160.462 366.452 160.714C366.704 160.966 367.028 161.074 367.424 161.074ZM366.344 171.982H368.486V162.64H366.344V171.982ZM374.655 169.228C375.339 169.228 375.987 169.084 376.599 168.796C377.193 168.508 377.643 168.076 377.949 167.536C378.237 166.996 378.399 166.42 378.399 165.826C378.399 165.43 378.309 164.998 378.165 164.566L378.129 164.17C378.129 163.9 378.219 163.684 378.399 163.522C378.579 163.378 378.813 163.288 379.119 163.288L379.515 163.306V161.452L378.993 161.416C378.471 161.416 378.003 161.56 377.589 161.83C377.157 162.1 376.851 162.46 376.671 162.892C376.239 162.676 375.825 162.55 375.447 162.496C375.051 162.46 374.799 162.424 374.655 162.424C373.953 162.424 373.305 162.586 372.711 162.874C372.099 163.162 371.649 163.594 371.361 164.134C371.055 164.674 370.911 165.25 370.911 165.826C370.911 166.744 371.199 167.518 371.811 168.13C371.487 168.31 371.235 168.58 371.019 168.904C370.803 169.246 370.695 169.642 370.695 170.074C370.695 170.434 370.767 170.758 370.911 171.046C371.055 171.334 371.235 171.568 371.469 171.73C371.109 171.982 370.857 172.252 370.695 172.576C370.533 172.9 370.461 173.224 370.461 173.548C370.461 174.394 370.803 175.024 371.487 175.456C372.171 175.888 373.251 176.104 374.763 176.104C375.681 176.104 376.473 175.978 377.121 175.726C377.769 175.474 378.273 175.132 378.651 174.664C379.029 174.214 379.227 173.692 379.227 173.08C379.227 172.486 379.101 171.982 378.867 171.568C378.633 171.172 378.291 170.848 377.859 170.632C377.427 170.416 376.869 170.29 376.221 170.29H373.161C372.981 170.29 372.819 170.254 372.693 170.146C372.567 170.038 372.513 169.894 372.513 169.678C372.513 169.57 372.531 169.462 372.603 169.354C372.657 169.246 372.729 169.138 372.837 169.066C372.945 168.994 373.017 168.94 373.089 168.922C373.629 169.138 374.151 169.228 374.655 169.228ZM372.873 165.826C372.873 165.358 373.017 164.98 373.341 164.674C373.665 164.386 374.097 164.224 374.655 164.224C375.195 164.224 375.627 164.386 375.951 164.674C376.275 164.98 376.437 165.358 376.437 165.826C376.437 166.294 376.275 166.69 375.951 166.978C375.627 167.284 375.195 167.428 374.655 167.428C374.097 167.428 373.665 167.284 373.341 166.978C373.017 166.69 372.873 166.294 372.873 165.826ZM376.167 172.198C376.491 172.198 376.761 172.288 376.959 172.45C377.157 172.612 377.265 172.828 377.265 173.098C377.265 173.512 377.049 173.818 376.617 174.016C376.185 174.232 375.555 174.322 374.727 174.322C373.827 174.322 373.197 174.232 372.855 174.034C372.513 173.854 372.351 173.548 372.351 173.152C372.351 172.972 372.387 172.792 372.495 172.612C372.603 172.432 372.729 172.306 372.873 172.198H376.167ZM382.967 162.64H380.987V171.982H383.129V166.564C383.129 166.042 383.237 165.592 383.471 165.214C383.687 164.854 383.975 164.602 384.335 164.458C384.677 164.332 385.001 164.26 385.325 164.26C385.937 164.26 386.387 164.458 386.711 164.836C387.017 165.232 387.179 165.736 387.179 166.384V171.982H389.321V166.114C389.321 165.43 389.213 164.854 388.997 164.386C388.781 163.918 388.511 163.522 388.187 163.234C387.863 162.946 387.485 162.73 387.071 162.604C386.657 162.496 386.243 162.424 385.847 162.424C385.487 162.424 385.127 162.478 384.731 162.586C384.335 162.694 383.993 162.856 383.669 163.09C383.345 163.342 383.111 163.594 382.967 163.882V162.64Z" fill="white"/>
<path d="M561.256 376.026C557.105 372.075 556.116 363.447 556.141 359.627C556.577 362.74 558.163 369.742 561.021 372.841C564.593 376.714 568.603 379.764 570.056 384.719C571.508 389.673 577.855 389.836 581.472 392.443C585.09 395.05 585.773 400.188 588.316 402.823C590.858 405.458 593.143 408.345 592.516 410.326C591.889 412.306 600.322 414.297 602.144 417.523C603.966 420.75 603.511 427.8 611.15 433.986C617.26 438.934 614.564 460.25 612.451 470.289C604.669 470.546 588.506 468.684 586.11 459.187C583.115 447.316 587.647 443.107 584.279 441.393C580.912 439.68 582.808 431.447 582.546 424.415C582.284 417.384 579.111 417.302 575.96 413.783C572.809 410.264 575.108 403.002 575.242 398.088C575.376 393.174 569.739 394.139 566.804 388.813C563.87 383.488 566.446 380.966 561.256 376.026Z" fill="white" fill-opacity="0.2"/>
<path d="M720.688 524.829L728.487 533.479H550.578V505.057H566.663L574.949 509.382L581.286 501.967L591.522 495.788H671.946L679.257 505.057H687.544L694.368 513.089L704.116 516.796L713.864 513.089L720.688 524.829Z" fill="#EEEEEE"/>
<path d="M623.682 449.448H601.727L595.2 454.762M591.639 476.017L589.562 454.762H595.2M604.397 471.842L595.2 454.762" stroke="#593636" stroke-width="2"/>
<path d="M664.633 533.479H587.133V469.102H603.59L609.575 458.561H614.363L619.449 452.537H664.633V533.479Z" fill="white"/>
<path d="M610.047 460.056H668.05L660.911 438.326H621.053L618.078 442.833L611.534 446.589L610.047 460.056Z" fill="#613A88"/>
<rect x="593.961" y="472.927" width="12.673" height="23.4794" fill="#898282"/>
<rect x="641.242" y="472.927" width="12.673" height="23.4794" fill="#898282"/>
<path d="M616.863 500.872C616.863 496.699 620.246 493.317 624.418 493.317C628.591 493.317 631.973 496.699 631.973 500.872V533.479H616.863V500.872Z" fill="#898282"/>
<path d="M569.566 511.152L555.203 472.39M572.345 515.263L567.712 482.961L572.345 487.072L575.589 477.675" stroke="#593636" stroke-width="2"/>
<path d="M585.551 548.692L581.573 553.246V544.534H579.431V558.034H581.573V555.802L583.211 554.038L585.965 558.034H588.521L584.633 552.634L588.251 548.692H585.551ZM595.769 554.974C595.571 555.442 595.265 555.784 594.869 556.036C594.473 556.288 594.005 556.414 593.501 556.414C592.763 556.414 592.169 556.198 591.701 555.748C591.233 555.316 590.963 554.722 590.891 553.984H598.001L598.019 553.318C598.019 552.652 597.911 552.022 597.695 551.428C597.479 550.834 597.155 550.312 596.759 549.88C596.345 549.448 595.859 549.106 595.283 548.854C594.707 548.602 594.095 548.476 593.429 548.476C592.745 548.476 592.133 548.602 591.557 548.854C590.981 549.106 590.477 549.466 590.063 549.898C589.649 550.348 589.325 550.87 589.109 551.464C588.893 552.076 588.785 552.706 588.785 553.354C588.785 554.038 588.893 554.686 589.109 555.28C589.325 555.892 589.649 556.414 590.063 556.846C590.459 557.296 590.963 557.638 591.539 557.89C592.115 558.142 592.763 558.25 593.447 558.25C594.437 558.25 595.301 558.016 596.057 557.512C596.813 557.008 597.353 556.342 597.695 555.478L595.769 554.974ZM593.429 550.222C593.753 550.222 594.095 550.294 594.455 550.42C594.815 550.564 595.121 550.798 595.391 551.158C595.643 551.518 595.823 551.932 595.895 552.4H590.927C590.963 552.112 591.089 551.788 591.269 551.446C591.449 551.104 591.719 550.816 592.115 550.582C592.493 550.348 592.925 550.222 593.429 550.222ZM602.131 557.944L601.915 558.466C601.717 558.934 601.483 559.33 601.195 559.618C600.907 559.906 600.511 560.05 600.007 560.05L599.467 560.032V561.94L600.079 561.976C600.835 561.976 601.447 561.832 601.915 561.526C602.383 561.238 602.761 560.86 603.067 560.41C603.355 559.96 603.625 559.438 603.859 558.862L607.999 548.692H605.767L603.193 555.46L600.655 548.692H598.369L602.131 557.944ZM617.844 558.034H619.878L623.136 548.692H620.958L618.852 555.406L616.728 548.692H614.748L612.606 555.388L610.518 548.692H608.304L611.562 558.034H613.596L615.72 551.626H615.738L617.844 558.034ZM628.59 558.25C629.31 558.25 629.958 558.124 630.57 557.872C631.182 557.62 631.686 557.26 632.118 556.81C632.55 556.36 632.874 555.838 633.108 555.244C633.324 554.65 633.45 554.02 633.45 553.372C633.45 552.724 633.324 552.112 633.108 551.518C632.874 550.924 632.55 550.402 632.118 549.934C631.686 549.484 631.182 549.124 630.57 548.872C629.958 548.62 629.31 548.476 628.59 548.476C627.87 548.476 627.222 548.62 626.61 548.872C625.998 549.124 625.494 549.484 625.062 549.934C624.63 550.402 624.306 550.924 624.09 551.518C623.856 552.112 623.748 552.724 623.748 553.372C623.748 554.02 623.856 554.65 624.09 555.244C624.306 555.838 624.63 556.36 625.062 556.81C625.494 557.26 625.998 557.62 626.61 557.872C627.222 558.124 627.87 558.25 628.59 558.25ZM625.89 553.372C625.89 552.832 625.998 552.31 626.232 551.824C626.448 551.356 626.79 550.996 627.222 550.744C627.654 550.492 628.104 550.366 628.59 550.366C629.058 550.366 629.526 550.492 629.958 550.744C630.39 550.996 630.732 551.356 630.966 551.824C631.182 552.31 631.308 552.832 631.308 553.372C631.308 554.272 631.038 554.992 630.534 555.532C630.03 556.09 629.382 556.36 628.59 556.36C627.798 556.36 627.15 556.09 626.646 555.532C626.142 554.992 625.89 554.272 625.89 553.372ZM640.474 548.62L640.168 548.602C639.808 548.602 639.43 548.656 639.052 548.764C638.656 548.872 638.332 549.034 638.044 549.268C637.756 549.502 637.558 549.736 637.414 549.988V548.692H635.434V558.034H637.576V553.174C637.576 552.31 637.774 551.662 638.206 551.23C638.62 550.798 639.214 550.582 639.988 550.582L640.474 550.618V548.62ZM648.318 549.916C648.03 549.502 647.634 549.16 647.13 548.89C646.608 548.62 646.014 548.476 645.33 548.476C644.664 548.476 644.052 548.602 643.512 548.854C642.972 549.106 642.504 549.466 642.144 549.916C641.766 550.366 641.478 550.888 641.298 551.482C641.1 552.094 641.01 552.724 641.01 553.372C641.01 554.038 641.1 554.668 641.298 555.262C641.478 555.856 641.766 556.378 642.144 556.828C642.504 557.278 642.972 557.62 643.512 557.872C644.052 558.124 644.664 558.25 645.33 558.25C646.032 558.25 646.662 558.124 647.202 557.836C647.742 557.566 648.174 557.188 648.48 556.702V558.034H650.46V544.534H648.318V549.916ZM648.408 553.372C648.408 554.236 648.156 554.938 647.688 555.514C647.202 556.09 646.572 556.36 645.78 556.36C645.276 556.36 644.826 556.234 644.412 555.982C643.98 555.73 643.674 555.352 643.458 554.866C643.242 554.398 643.152 553.894 643.152 553.372C643.152 552.508 643.386 551.806 643.872 551.23C644.34 550.654 644.988 550.366 645.78 550.366C646.266 550.366 646.716 550.492 647.148 550.744C647.562 550.996 647.868 551.374 648.084 551.86C648.3 552.346 648.408 552.85 648.408 553.372ZM653.983 558.178C654.397 558.178 654.739 558.052 655.027 557.764C655.315 557.494 655.459 557.152 655.459 556.72C655.459 556.306 655.315 555.964 655.027 555.676C654.739 555.388 654.397 555.244 653.983 555.244C653.551 555.244 653.209 555.388 652.921 555.676C652.633 555.964 652.489 556.306 652.489 556.72C652.489 557.152 652.615 557.494 652.903 557.764C653.191 558.052 653.551 558.178 653.983 558.178ZM653.983 551.5C654.397 551.5 654.739 551.374 655.027 551.086C655.315 550.798 655.459 550.456 655.459 550.024C655.459 549.61 655.315 549.268 655.027 548.98C654.739 548.692 654.397 548.548 653.983 548.548C653.551 548.548 653.209 548.692 652.921 548.98C652.633 549.268 652.489 549.61 652.489 550.024C652.489 550.456 652.615 550.798 652.903 551.086C653.191 551.374 653.551 551.5 653.983 551.5ZM671.855 545.254H661.721V547.27H669.011L661.649 556.126V558.034H671.927V556.018H664.493L671.855 547.162V545.254ZM683.216 556.018H676.412V552.562H682.91V550.546H676.412V547.27H683.216V545.254H674.234V558.034H683.216V556.018ZM695.938 558.034L693.004 552.724C693.4 552.598 693.796 552.382 694.192 552.094C694.588 551.806 694.894 551.41 695.146 550.87C695.38 550.33 695.506 549.754 695.506 549.124C695.506 548.584 695.416 548.062 695.236 547.594C695.056 547.126 694.804 546.712 694.444 546.352C694.084 546.01 693.652 545.74 693.112 545.542C692.572 545.362 691.978 545.254 691.294 545.254H685.678V558.034H687.856V552.994H690.79L693.382 558.034H695.938ZM693.31 549.124C693.31 549.538 693.202 549.898 693.022 550.186C692.824 550.492 692.572 550.708 692.248 550.816C691.924 550.924 691.618 550.978 691.312 550.978H687.856V547.27H691.312C691.618 547.27 691.924 547.342 692.248 547.45C692.572 547.558 692.824 547.774 693.022 548.062C693.202 548.368 693.31 548.728 693.31 549.124ZM699.391 551.644C699.391 550.978 699.499 550.33 699.751 549.682C699.985 549.052 700.345 548.53 700.831 548.116C701.299 547.72 701.785 547.432 702.271 547.288C702.757 547.144 703.225 547.072 703.693 547.072C704.305 547.072 704.863 547.18 705.403 547.396C705.925 547.612 706.375 547.936 706.771 548.332C707.167 548.746 707.455 549.232 707.671 549.79C707.887 550.366 707.995 550.978 707.995 551.644C707.995 552.328 707.869 552.976 707.635 553.606C707.383 554.254 707.023 554.776 706.555 555.172C706.069 555.586 705.583 555.856 705.097 556C704.611 556.144 704.143 556.216 703.693 556.216C703.081 556.216 702.505 556.108 701.983 555.892C701.443 555.676 700.993 555.37 700.597 554.956C700.201 554.56 699.913 554.074 699.697 553.498C699.481 552.94 699.391 552.328 699.391 551.644ZM697.087 551.644C697.087 552.58 697.249 553.444 697.573 554.272C697.897 555.1 698.347 555.802 698.941 556.396C699.517 557.008 700.219 557.476 701.047 557.8C701.875 558.142 702.757 558.304 703.693 558.304C704.629 558.304 705.493 558.142 706.321 557.8C707.149 557.476 707.851 557.008 708.445 556.396C709.021 555.802 709.489 555.1 709.813 554.272C710.137 553.444 710.299 552.58 710.299 551.644C710.299 550.726 710.137 549.862 709.813 549.034C709.489 548.206 709.021 547.504 708.445 546.892C707.851 546.298 707.149 545.83 706.321 545.488C705.493 545.164 704.629 544.984 703.693 544.984C702.757 544.984 701.875 545.164 701.047 545.488C700.219 545.83 699.517 546.298 698.941 546.892C698.347 547.504 697.897 548.206 697.573 549.034C697.249 549.862 697.087 550.726 697.087 551.644ZM578.347 570.67C578.347 570.292 578.401 569.914 578.545 569.554C578.671 569.194 578.905 568.906 579.247 568.672C579.571 568.438 579.985 568.312 580.453 568.312C581.047 568.312 581.497 568.51 581.785 568.906C582.073 569.302 582.217 569.806 582.217 570.436V576.034H584.359V570.166C584.359 569.518 584.251 568.942 584.053 568.456C583.837 567.988 583.585 567.592 583.261 567.286C582.937 566.998 582.559 566.782 582.163 566.656C581.767 566.548 581.353 566.476 580.957 566.476C579.625 566.476 578.581 566.98 577.789 567.952C577.519 567.502 577.141 567.142 576.673 566.872C576.187 566.62 575.629 566.476 574.981 566.476C574.639 566.476 574.279 566.53 573.901 566.638C573.523 566.746 573.181 566.908 572.875 567.142C572.569 567.394 572.335 567.646 572.191 567.934V566.692H570.211V576.034H572.353V570.598C572.353 570.274 572.407 569.914 572.533 569.554C572.659 569.194 572.893 568.906 573.235 568.672C573.559 568.438 573.973 568.312 574.441 568.312C575.035 568.312 575.485 568.51 575.773 568.888C576.061 569.284 576.205 569.788 576.205 570.436V576.034H578.347V570.67ZM592.617 571.66V572.236C592.617 572.704 592.491 573.118 592.257 573.514C592.005 573.91 591.681 574.198 591.267 574.342C590.853 574.504 590.439 574.576 590.043 574.576C589.503 574.576 589.089 574.486 588.819 574.27C588.549 574.072 588.423 573.784 588.423 573.406C588.423 573.082 588.549 572.794 588.801 572.578C589.053 572.362 589.485 572.182 590.133 572.074L592.617 571.66ZM589.611 576.25C590.295 576.25 590.943 576.142 591.519 575.926C592.095 575.71 592.545 575.404 592.869 575.008C592.959 575.224 593.103 575.44 593.319 575.62C593.535 575.818 593.769 575.962 594.039 576.034C594.309 576.106 594.561 576.142 594.813 576.142C595.083 576.142 595.317 576.124 595.497 576.07V574.342L595.317 574.36C594.903 574.36 594.705 574.162 594.705 573.73V569.968C594.705 568.888 594.363 568.024 593.679 567.412C592.995 566.8 592.005 566.476 590.673 566.476C589.881 566.476 589.215 566.602 588.657 566.818C588.081 567.052 587.631 567.376 587.289 567.79C586.929 568.222 586.695 568.726 586.587 569.32L588.639 569.662C588.711 569.23 588.909 568.87 589.251 568.618C589.593 568.366 590.043 568.24 590.619 568.24C591.249 568.24 591.735 568.384 592.095 568.672C592.437 568.96 592.617 569.374 592.617 569.914V570.04L589.917 570.436C587.523 570.796 586.335 571.786 586.335 573.424C586.335 574.27 586.605 574.954 587.163 575.476C587.703 575.998 588.531 576.25 589.611 576.25ZM601.387 574.126C601.171 574.198 600.955 574.216 600.721 574.216C600.019 574.216 599.677 573.856 599.677 573.118V568.402H601.423V566.692H599.677V564.262H597.535V566.692H596.113V568.402H597.535V573.334C597.535 575.17 598.435 576.088 600.271 576.088C600.739 576.088 601.099 576.052 601.387 575.98V574.126ZM606.973 574.36C606.217 574.36 605.605 574.09 605.155 573.532C604.687 572.974 604.471 572.254 604.471 571.372C604.471 570.49 604.687 569.77 605.155 569.212C605.605 568.654 606.217 568.366 606.973 568.366C607.225 568.366 607.513 568.42 607.837 568.528C608.161 568.636 608.449 568.834 608.701 569.104C608.953 569.392 609.133 569.716 609.241 570.076L611.293 569.572C611.167 569.212 610.987 568.834 610.771 568.438C610.537 568.06 610.249 567.718 609.889 567.43C609.529 567.142 609.097 566.908 608.611 566.728C608.107 566.566 607.567 566.476 606.991 566.476C606.325 566.476 605.695 566.602 605.119 566.854C604.543 567.106 604.039 567.466 603.625 567.916C603.211 568.366 602.887 568.888 602.671 569.482C602.437 570.094 602.329 570.724 602.329 571.372C602.329 572.038 602.437 572.668 602.671 573.262C602.887 573.856 603.211 574.378 603.625 574.828C604.039 575.278 604.543 575.62 605.119 575.872C605.695 576.124 606.325 576.25 606.991 576.25C607.567 576.25 608.107 576.178 608.611 575.998C609.097 575.836 609.529 575.602 609.889 575.314C610.249 575.026 610.537 574.684 610.771 574.288C610.987 573.91 611.167 573.532 611.293 573.154L609.241 572.65C609.133 573.028 608.953 573.352 608.701 573.622C608.449 573.91 608.161 574.09 607.837 574.198C607.513 574.306 607.225 574.36 606.973 574.36ZM615.279 562.534H613.137V576.034H615.279V570.634C615.279 570.112 615.387 569.662 615.621 569.284C615.837 568.906 616.125 568.654 616.485 568.51C616.827 568.384 617.151 568.312 617.475 568.312C618.087 568.312 618.537 568.51 618.861 568.888C619.167 569.284 619.329 569.788 619.329 570.436V576.034H621.471V570.166C621.471 569.482 621.363 568.906 621.147 568.438C620.931 567.97 620.661 567.574 620.337 567.286C620.013 566.998 619.635 566.782 619.221 566.656C618.807 566.548 618.393 566.476 617.997 566.476C617.349 566.476 616.809 566.602 616.341 566.836C615.873 567.07 615.513 567.358 615.279 567.7V562.534ZM632.852 574.126C632.636 574.198 632.42 574.216 632.186 574.216C631.484 574.216 631.142 573.856 631.142 573.118V568.402H632.888V566.692H631.142V564.262H629V566.692H627.578V568.402H629V573.334C629 575.17 629.9 576.088 631.736 576.088C632.204 576.088 632.564 576.052 632.852 575.98V574.126ZM637.155 575.944L636.939 576.466C636.741 576.934 636.507 577.33 636.219 577.618C635.931 577.906 635.535 578.05 635.031 578.05L634.491 578.032V579.94L635.103 579.976C635.859 579.976 636.471 579.832 636.939 579.526C637.407 579.238 637.785 578.86 638.091 578.41C638.379 577.96 638.649 577.438 638.883 576.862L643.023 566.692H640.791L638.217 573.46L635.679 566.692H633.393L637.155 575.944ZM646.55 574.81C646.82 575.242 647.216 575.584 647.738 575.854C648.26 576.124 648.854 576.25 649.538 576.25C650.186 576.25 650.798 576.124 651.338 575.872C651.878 575.62 652.346 575.278 652.724 574.828C653.102 574.378 653.39 573.856 653.588 573.262C653.768 572.668 653.876 572.038 653.876 571.372C653.876 570.724 653.768 570.094 653.588 569.482C653.39 568.888 653.102 568.366 652.724 567.916C652.346 567.466 651.878 567.106 651.338 566.854C650.798 566.602 650.186 566.476 649.538 566.476C648.836 566.476 648.206 566.62 647.666 566.89C647.126 567.178 646.694 567.556 646.388 568.024V566.692H644.408V579.778H646.55V574.81ZM646.478 571.372C646.478 570.724 646.586 570.184 646.838 569.716C647.09 569.266 647.396 568.924 647.792 568.69C648.17 568.456 648.602 568.33 649.106 568.33C649.898 568.33 650.528 568.618 651.014 569.194C651.482 569.77 651.734 570.508 651.734 571.372C651.734 572.002 651.608 572.542 651.356 572.992C651.104 573.442 650.798 573.784 650.42 574.018C650.024 574.252 649.592 574.36 649.106 574.36C648.314 574.36 647.666 574.09 647.198 573.514C646.712 572.938 646.478 572.236 646.478 571.372ZM662.223 572.974C662.025 573.442 661.719 573.784 661.323 574.036C660.927 574.288 660.459 574.414 659.955 574.414C659.217 574.414 658.623 574.198 658.155 573.748C657.687 573.316 657.417 572.722 657.345 571.984H664.455L664.473 571.318C664.473 570.652 664.365 570.022 664.149 569.428C663.933 568.834 663.609 568.312 663.213 567.88C662.799 567.448 662.313 567.106 661.737 566.854C661.161 566.602 660.549 566.476 659.883 566.476C659.199 566.476 658.587 566.602 658.011 566.854C657.435 567.106 656.931 567.466 656.517 567.898C656.103 568.348 655.779 568.87 655.563 569.464C655.347 570.076 655.239 570.706 655.239 571.354C655.239 572.038 655.347 572.686 655.563 573.28C655.779 573.892 656.103 574.414 656.517 574.846C656.913 575.296 657.417 575.638 657.993 575.89C658.569 576.142 659.217 576.25 659.901 576.25C660.891 576.25 661.755 576.016 662.511 575.512C663.267 575.008 663.807 574.342 664.149 573.478L662.223 572.974ZM659.883 568.222C660.207 568.222 660.549 568.294 660.909 568.42C661.269 568.564 661.575 568.798 661.845 569.158C662.097 569.518 662.277 569.932 662.349 570.4H657.381C657.417 570.112 657.543 569.788 657.723 569.446C657.903 569.104 658.173 568.816 658.569 568.582C658.947 568.348 659.379 568.222 659.883 568.222ZM667.351 576.178C667.765 576.178 668.107 576.052 668.395 575.764C668.683 575.494 668.827 575.152 668.827 574.72C668.827 574.306 668.683 573.964 668.395 573.676C668.107 573.388 667.765 573.244 667.351 573.244C666.919 573.244 666.577 573.388 666.289 573.676C666.001 573.964 665.857 574.306 665.857 574.72C665.857 575.152 665.983 575.494 666.271 575.764C666.559 576.052 666.919 576.178 667.351 576.178ZM667.351 569.5C667.765 569.5 668.107 569.374 668.395 569.086C668.683 568.798 668.827 568.456 668.827 568.024C668.827 567.61 668.683 567.268 668.395 566.98C668.107 566.692 667.765 566.548 667.351 566.548C666.919 566.548 666.577 566.692 666.289 566.98C666.001 567.268 665.857 567.61 665.857 568.024C665.857 568.456 665.983 568.798 666.271 569.086C666.559 569.374 666.919 569.5 667.351 569.5ZM681.893 572.974C681.695 573.442 681.389 573.784 680.993 574.036C680.597 574.288 680.129 574.414 679.625 574.414C678.887 574.414 678.293 574.198 677.825 573.748C677.357 573.316 677.087 572.722 677.015 571.984H684.125L684.143 571.318C684.143 570.652 684.035 570.022 683.819 569.428C683.603 568.834 683.279 568.312 682.883 567.88C682.469 567.448 681.983 567.106 681.407 566.854C680.831 566.602 680.219 566.476 679.553 566.476C678.869 566.476 678.257 566.602 677.681 566.854C677.105 567.106 676.601 567.466 676.187 567.898C675.773 568.348 675.449 568.87 675.233 569.464C675.017 570.076 674.909 570.706 674.909 571.354C674.909 572.038 675.017 572.686 675.233 573.28C675.449 573.892 675.773 574.414 676.187 574.846C676.583 575.296 677.087 575.638 677.663 575.89C678.239 576.142 678.887 576.25 679.571 576.25C680.561 576.25 681.425 576.016 682.181 575.512C682.937 575.008 683.477 574.342 683.819 573.478L681.893 572.974ZM679.553 568.222C679.877 568.222 680.219 568.294 680.579 568.42C680.939 568.564 681.245 568.798 681.515 569.158C681.767 569.518 681.947 569.932 682.019 570.4H677.051C677.087 570.112 677.213 569.788 677.393 569.446C677.573 569.104 677.843 568.816 678.239 568.582C678.617 568.348 679.049 568.222 679.553 568.222ZM693.962 566.692H691.388L689.21 569.68L687.014 566.692H684.44L687.986 571.3L684.332 576.034H686.906L689.21 572.902L691.496 576.034H694.088L690.416 571.3L693.962 566.692ZM700.723 571.66V572.236C700.723 572.704 700.597 573.118 700.363 573.514C700.111 573.91 699.787 574.198 699.373 574.342C698.959 574.504 698.545 574.576 698.149 574.576C697.609 574.576 697.195 574.486 696.925 574.27C696.655 574.072 696.529 573.784 696.529 573.406C696.529 573.082 696.655 572.794 696.907 572.578C697.159 572.362 697.591 572.182 698.239 572.074L700.723 571.66ZM697.717 576.25C698.401 576.25 699.049 576.142 699.625 575.926C700.201 575.71 700.651 575.404 700.975 575.008C701.065 575.224 701.209 575.44 701.425 575.62C701.641 575.818 701.875 575.962 702.145 576.034C702.415 576.106 702.667 576.142 702.919 576.142C703.189 576.142 703.423 576.124 703.603 576.07V574.342L703.423 574.36C703.009 574.36 702.811 574.162 702.811 573.73V569.968C702.811 568.888 702.469 568.024 701.785 567.412C701.101 566.8 700.111 566.476 698.779 566.476C697.987 566.476 697.321 566.602 696.763 566.818C696.187 567.052 695.737 567.376 695.395 567.79C695.035 568.222 694.801 568.726 694.693 569.32L696.745 569.662C696.817 569.23 697.015 568.87 697.357 568.618C697.699 568.366 698.149 568.24 698.725 568.24C699.355 568.24 699.841 568.384 700.201 568.672C700.543 568.96 700.723 569.374 700.723 569.914V570.04L698.023 570.436C695.629 570.796 694.441 571.786 694.441 573.424C694.441 574.27 694.711 574.954 695.269 575.476C695.809 575.998 696.637 576.25 697.717 576.25ZM709.524 574.36C708.768 574.36 708.156 574.09 707.706 573.532C707.238 572.974 707.022 572.254 707.022 571.372C707.022 570.49 707.238 569.77 707.706 569.212C708.156 568.654 708.768 568.366 709.524 568.366C709.776 568.366 710.064 568.42 710.388 568.528C710.712 568.636 711 568.834 711.252 569.104C711.504 569.392 711.684 569.716 711.792 570.076L713.844 569.572C713.718 569.212 713.538 568.834 713.322 568.438C713.088 568.06 712.8 567.718 712.44 567.43C712.08 567.142 711.648 566.908 711.162 566.728C710.658 566.566 710.118 566.476 709.542 566.476C708.876 566.476 708.246 566.602 707.67 566.854C707.094 567.106 706.59 567.466 706.176 567.916C705.762 568.366 705.438 568.888 705.222 569.482C704.988 570.094 704.88 570.724 704.88 571.372C704.88 572.038 704.988 572.668 705.222 573.262C705.438 573.856 705.762 574.378 706.176 574.828C706.59 575.278 707.094 575.62 707.67 575.872C708.246 576.124 708.876 576.25 709.542 576.25C710.118 576.25 710.658 576.178 711.162 575.998C711.648 575.836 712.08 575.602 712.44 575.314C712.8 575.026 713.088 574.684 713.322 574.288C713.538 573.91 713.718 573.532 713.844 573.154L711.792 572.65C711.684 573.028 711.504 573.352 711.252 573.622C711 573.91 710.712 574.09 710.388 574.198C710.064 574.306 709.776 574.36 709.524 574.36ZM719.881 574.126C719.665 574.198 719.449 574.216 719.215 574.216C718.513 574.216 718.171 573.856 718.171 573.118V568.402H719.917V566.692H718.171V564.262H716.029V566.692H714.607V568.402H716.029V573.334C716.029 575.17 716.929 576.088 718.765 576.088C719.233 576.088 719.593 576.052 719.881 575.98V574.126Z" fill="white"/>
<path d="M391.32 102.235C419.337 80.0463 489.445 45.1791 545.74 83.2161" stroke="#B4B4FF" stroke-dasharray="2 2"/>
<path d="M539.887 79.2873L599.143 115.165" stroke="#C7C7FF"/>
<path d="M527.012 80.192L536.662 77.3379L534.718 67.4644L548.255 84.3574L527.012 80.192Z" fill="white"/>
<path d="M588.055 114.047L594.259 112.212L593.009 105.864L601.712 116.725L588.055 114.047Z" fill="white"/>
<path d="M184.035 140.435L249.707 118.396" stroke="#C7C7FF"/>
<path d="M176.402 150.844L180.46 141.636L171.669 136.739L193.309 137.324L176.402 150.844Z" fill="white"/>
<path d="M241.758 126.085L244.351 120.2L238.733 117.07L252.562 117.444L241.758 126.085Z" fill="white"/>
<path d="M756.871 418.7L722.841 479.035" stroke="#C7C7FF"/>
<path d="M755.57 405.861L758.721 415.418L768.53 413.17L752.063 427.223L755.57 405.861Z" fill="white"/>
<path d="M723.594 468.066L725.597 474.144L731.835 472.715L721.363 481.651L723.594 468.066Z" fill="white"/>
<path d="M493.539 168.891L562.583 163.293" stroke="#C7C7FF"/>
<path d="M483.633 177.16L489.786 169.197L482.43 162.33L503.295 168.102L483.633 177.16Z" fill="white"/>
<path d="M553.199 168.758L557.074 163.744L552.442 159.42L565.579 163.054L553.199 168.758Z" fill="white"/>
<path d="M494.324 233.347L445.785 282.768" stroke="#C7C7FF"/>
<path d="M496.398 220.611L496.958 230.659L507.014 231.037L487.461 240.328L496.398 220.611Z" fill="white"/>
<path d="M449.344 272.397L449.699 278.774L456.08 279.014L443.672 284.91L449.344 272.397Z" fill="white"/>
<path d="M565.914 344.077L503.155 314.755" stroke="#C7C7FF"/>
<path d="M578.625 341.798L569.337 345.67L572.327 355.278L557.058 339.933L578.625 341.798Z" fill="white"/>
<path d="M513.91 314.644L508.11 317.061L509.977 323.061L500.442 313.479L513.91 314.644Z" fill="white"/>
<path d="M367.359 268.635C376.459 225.124 409.596 198.918 487.168 171.457" stroke="#B4B4FF" stroke-dasharray="2 2"/>
<path d="M654.899 437.698C645.786 407.549 609.337 372.878 573.695 349.839" stroke="#B4B4FF" stroke-dasharray="2 2"/>
<path d="M576.358 196.128C562.102 193.636 537.379 196.128 499.148 230.03" stroke="#B4B4FF" stroke-dasharray="2 2"/>
<path d="M732.109 216.718C774.184 216.718 822.13 304.383 758.529 416.399" stroke="#B4B4FF" stroke-dasharray="2 2"/>
<path d="M311.446 324.546C266.376 280.75 82.7813 230.914 174.225 144.833" stroke="#B4B4FF" stroke-dasharray="2 2"/>
</svg>
