<svg width="285" height="227" viewBox="0 0 285 227" fill="none" xmlns="http://www.w3.org/2000/svg">
<mask id="path-1-inside-1" fill="white">
<path fill-rule="evenodd" clip-rule="evenodd" d="M178.065 87.288C205.567 94.0055 228.582 103.625 244.118 111.168C250.399 114.218 255.458 116.929 259.098 118.971L237.028 91.9895L242.676 90.6177L275.24 130.433L217.549 122.019L216.276 116.831L256.122 122.642C243.9 115.844 215.067 101.254 178.374 92.2902C133.22 81.2605 66.7235 76.8547 6.34521 118.502L0.666937 114.048C62.6872 71.2666 131.368 75.8806 178.065 87.288Z"/>
</mask>
<path fill-rule="evenodd" clip-rule="evenodd" d="M178.065 87.288C205.567 94.0055 228.582 103.625 244.118 111.168C250.399 114.218 255.458 116.929 259.098 118.971L237.028 91.9895L242.676 90.6177L275.24 130.433L217.549 122.019L216.276 116.831L256.122 122.642C243.9 115.844 215.067 101.254 178.374 92.2902C133.22 81.2605 66.7235 76.8547 6.34521 118.502L0.666937 114.048C62.6872 71.2666 131.368 75.8806 178.065 87.288Z" fill="#6D6DF6"/>
<path d="M178.065 87.288L177.828 88.2594L177.828 88.2594L178.065 87.288ZM259.098 118.971L259.872 118.338C260.176 118.71 260.173 119.246 259.864 119.614C259.555 119.982 259.028 120.079 258.608 119.843L259.098 118.971ZM237.028 91.9895L236.254 92.6226C236.037 92.3566 235.971 91.9975 236.08 91.6716C236.189 91.3457 236.458 91.0988 236.792 91.0177L237.028 91.9895ZM242.676 90.6177L242.44 89.6459C242.814 89.5552 243.207 89.6868 243.45 89.9846L242.676 90.6177ZM275.24 130.433L276.014 129.8C276.276 130.12 276.314 130.567 276.11 130.926C275.907 131.285 275.504 131.482 275.096 131.423L275.24 130.433ZM217.549 122.019L217.405 123.008C217.002 122.95 216.675 122.652 216.578 122.257L217.549 122.019ZM216.276 116.831L215.305 117.07C215.225 116.746 215.312 116.405 215.536 116.159C215.759 115.913 216.091 115.794 216.42 115.842L216.276 116.831ZM256.122 122.642L256.608 121.768C257.03 122.002 257.224 122.505 257.069 122.962C256.915 123.419 256.456 123.701 255.978 123.631L256.122 122.642ZM178.374 92.2902L178.612 91.3187L178.612 91.3187L178.374 92.2902ZM6.34521 118.502L6.91301 119.325C6.55263 119.574 6.07245 119.559 5.72799 119.289L6.34521 118.502ZM0.666937 114.048L0.0497212 114.835C-0.200416 114.638 -0.342344 114.335 -0.332593 114.017C-0.322841 113.699 -0.162571 113.405 0.099127 113.225L0.666937 114.048ZM243.681 112.068C228.191 104.547 205.244 94.956 177.828 88.2594L178.302 86.3166C205.89 93.0551 228.973 102.703 244.555 110.269L243.681 112.068ZM258.608 119.843C254.984 117.809 249.943 115.108 243.681 112.068L244.555 110.269C250.855 113.328 255.932 116.048 259.587 118.099L258.608 119.843ZM237.802 91.3563L259.872 118.338L258.324 119.604L236.254 92.6226L237.802 91.3563ZM242.912 91.5894L237.264 92.9612L236.792 91.0177L242.44 89.6459L242.912 91.5894ZM274.466 131.066L241.902 91.2508L243.45 89.9846L276.014 129.8L274.466 131.066ZM217.693 121.029L275.385 129.444L275.096 131.423L217.405 123.008L217.693 121.029ZM217.247 116.593L218.52 121.78L216.578 122.257L215.305 117.07L217.247 116.593ZM255.978 123.631L216.131 117.821L216.42 115.842L256.267 121.652L255.978 123.631ZM178.612 91.3187C215.422 100.311 244.341 114.945 256.608 121.768L255.636 123.516C243.46 116.743 214.713 102.196 178.137 93.2616L178.612 91.3187ZM5.77741 117.679C66.4888 75.8018 133.322 80.2561 178.612 91.3187L178.137 93.2616C133.118 82.265 66.9582 77.9077 6.91301 119.325L5.77741 117.679ZM1.28415 113.261L6.96242 117.715L5.72799 119.289L0.0497212 114.835L1.28415 113.261ZM177.828 88.2594C131.263 76.8845 62.9206 72.3205 1.23475 114.871L0.099127 113.225C62.4539 70.2128 131.472 74.8767 178.302 86.3166L177.828 88.2594Z" fill="white" mask="url(#path-1-inside-1)"/>
<path d="M104 174.182C120.5 172.719 154.2 169.891 157 170.281M135 142C133 159.554 129.1 195.929 129.5 201" stroke="#6D6DF6" stroke-width="2"/>
</svg>
