<svg width="580" height="538" viewBox="0 0 580 538" fill="none" xmlns="http://www.w3.org/2000/svg">
<rect x="214.227" y="126.733" width="128.732" height="327.235" rx="64.3661" fill="#51518D"/>
<rect x="175.906" y="90.3735" width="27.5153" height="325.27" fill="white"/>
<rect x="170.004" y="116.906" width="6.87882" height="298.737" fill="#B6B6FF"/>
<rect x="352.785" y="115.923" width="6.87882" height="299.72" fill="#B6B6FF"/>
<rect x="359.664" y="116.906" width="27.5153" height="298.737" fill="white"/>
<path d="M381.282 109.045C381.282 80.6366 370.152 53.3919 350.341 33.3043C330.53 13.2167 303.66 1.93164 275.643 1.93164C247.626 1.93164 220.756 13.2167 200.945 33.3043C181.134 53.3919 170.004 80.6365 170.004 109.045H198.588C198.588 88.3232 206.706 68.4505 221.157 53.7982C235.607 39.146 255.207 30.9144 275.643 30.9144C296.079 30.9144 315.679 39.146 330.129 53.7982C344.58 68.4505 352.698 88.3233 352.698 109.045H381.282Z" fill="#B6B6FF"/>
<rect x="49.1328" y="116.906" width="120.871" height="18.6711" fill="url(#paint0_linear)"/>
<rect y="300.669" width="120.871" height="14.7403" fill="url(#paint1_linear)"/>
<path d="M580 300.992H458.386L459.129 316.229H580V300.992Z" fill="url(#paint2_linear)"/>
<rect width="126.767" height="18.6711" transform="matrix(-1 0 0 1 513.949 116.906)" fill="url(#paint3_linear)"/>
<rect x="49.1328" y="90.3735" width="154.282" height="26.5326" fill="url(#paint4_linear)"/>
<rect width="154.282" height="26.5326" transform="matrix(-1 0 0 1 513.949 90.3735)" fill="url(#paint5_linear)"/>
<rect x="203.418" y="108.062" width="156.248" height="7.86151" fill="white"/>
<rect x="210.297" y="192.573" width="6.87882" height="222.088" fill="white"/>
<rect x="276.133" y="128.698" width="5.89613" height="283.014" fill="white"/>
<rect x="217.176" y="202.4" width="7.86151" height="123.819" transform="rotate(-90 217.176 202.4)" fill="white"/>
<rect x="217.176" y="254.483" width="6.87882" height="123.819" transform="rotate(-90 217.176 254.483)" fill="white"/>
<rect x="217.176" y="307.548" width="6.87882" height="123.819" transform="rotate(-90 217.176 307.548)" fill="white"/>
<rect x="217.176" y="361.596" width="6.87882" height="123.819" transform="rotate(-90 217.176 361.596)" fill="white"/>
<rect x="217.176" y="414.661" width="6.87882" height="123.819" transform="rotate(-90 217.176 414.661)" fill="white"/>
<rect x="340.992" y="192.573" width="6.87882" height="222.088" fill="white"/>
<path d="M354.752 108.062C354.752 87.9942 346.78 68.748 332.59 54.5576C318.399 40.3673 299.153 32.3953 279.085 32.3953C259.017 32.3953 239.771 40.3673 225.58 54.5576C211.39 68.7479 203.418 87.9942 203.418 108.062H223.636C223.636 93.3564 229.478 79.2529 239.877 68.8542C250.276 58.4556 264.379 52.6137 279.085 52.6137C293.791 52.6137 307.894 58.4556 318.293 68.8542C328.692 79.2529 334.534 93.3564 334.534 108.062H354.752Z" fill="#51518D"/>
<path d="M359.665 108.062C359.665 87.4722 351.435 67.7261 336.784 53.1672C322.133 38.6083 302.261 30.4292 281.542 30.4292C260.822 30.4292 240.951 38.6083 226.3 53.1672C211.649 67.7261 203.418 87.4722 203.418 108.062L224.293 108.062C224.293 92.9738 230.324 78.5039 241.061 67.8351C251.797 57.1664 266.358 51.1728 281.542 51.1728C296.725 51.1728 311.287 57.1664 322.023 67.8352C332.759 78.5039 338.791 92.9738 338.791 108.062H359.665Z" fill="#E0E0FF"/>
<path d="M347.873 192.573C347.873 174.329 340.626 156.833 327.726 143.933C314.825 131.032 297.329 123.785 279.085 123.785C260.841 123.785 243.345 131.032 230.444 143.933C217.544 156.833 210.297 174.329 210.297 192.573H217.176C217.176 176.154 223.698 160.407 235.309 148.797C246.919 137.186 262.666 130.244 279.085 130.244C295.504 130.244 311.251 137.186 322.862 148.797C334.472 160.407 340.994 176.154 340.994 192.573H347.873Z" fill="white"/>
<path d="M381.282 108.062C381.282 79.6536 370.515 52.409 351.348 32.3214C332.182 12.2338 306.187 0.948733 279.082 0.94873C251.977 0.948728 225.983 12.2338 206.816 32.3214C187.65 52.409 176.883 79.6536 176.883 108.062H204.536C204.536 87.3403 212.39 67.4676 226.37 52.8153C240.35 38.1631 259.312 29.9315 279.082 29.9315C298.853 29.9315 317.815 38.1631 331.795 52.8153C345.775 67.4676 353.629 87.3403 353.629 108.062H381.282Z" fill="#B6B6FF"/>
<path d="M387.184 109.045C387.184 80.6366 376.055 53.3919 356.243 33.3043C336.432 13.2167 309.563 1.93164 281.545 1.93164C253.528 1.93164 226.658 13.2167 206.847 33.3043C187.036 53.3919 175.906 80.6365 175.906 109.045H204.49C204.49 88.3232 212.608 68.4505 227.059 53.7982C241.51 39.146 261.109 30.9144 281.545 30.9144C301.982 30.9144 321.581 39.146 336.032 53.7982C350.482 68.4505 358.6 88.3233 358.6 109.045H387.184Z" fill="white"/>
<path d="M513.244 517.466C515.399 516.928 518.978 510.06 520.324 506.694L494.393 499.961L447.938 504.674C434.697 512.753 414.005 530.258 437.165 535.645C460.326 541.031 475.541 533.4 480.254 528.912L481.275 528.239L483.968 517.466C491.823 517.691 511.09 518.005 513.244 517.466Z" fill="#6868C9"/>
<path d="M520.652 506.694C525.499 497.538 511.899 487.618 504.493 483.803L466.117 481.11L448.097 526.687C455.858 528.24 475.075 528.239 480.729 528.239L480.929 528.239C484.16 524.468 485.417 520.384 485.642 518.813L493.048 506.694H520.652Z" fill="#B6B6FF"/>
<path d="M242.6 517.466C244.754 516.927 248.333 510.06 249.68 506.694L223.748 499.961L177.293 504.674C164.052 512.753 143.36 530.258 166.521 535.644C189.681 541.03 204.897 533.4 209.61 528.912L210.63 528.238L213.323 517.466C221.178 517.69 240.445 518.005 242.6 517.466Z" fill="#6868C9"/>
<path d="M250.007 506.694C254.855 497.537 241.255 487.618 233.849 483.803L195.472 481.11L178.85 526.196C186.704 527.767 204.898 528.238 210.284 528.238C213.516 524.468 214.773 520.383 214.997 518.813L222.403 506.694H250.007Z" fill="#B6B6FF"/>
<path d="M223.753 510.734C229.139 499.423 208.043 489.862 196.822 486.496L128.732 457.531C126.882 456.391 124.795 455.485 122.436 454.852L128.732 457.531C152.479 472.161 137.09 525.282 155.079 532.278C179.316 541.704 187.396 522.179 190.762 509.387C194.128 496.595 208.94 506.021 208.267 510.734C207.594 515.446 217.02 524.872 223.753 510.734Z" fill="#51518D"/>
<path d="M495.229 510.734C500.615 499.423 479.52 489.862 468.299 486.496L400.209 457.531C398.359 456.391 396.272 455.485 393.912 454.852L400.209 457.531C423.955 472.161 408.567 525.282 426.555 532.278C450.793 541.704 458.872 522.179 462.238 509.387C465.605 496.595 480.417 506.021 479.743 510.734C479.07 515.446 488.497 524.872 495.229 510.734Z" fill="#51518D"/>
<path d="M119.025 455.739L204.355 491.318L211.074 476.41L119.025 436.088V455.739Z" fill="#51518D"/>
<path d="M119.025 436.771L204.355 474.678L211.074 455.044L119.025 415.2V436.771Z" fill="#5C5CA2"/>
<path d="M462.425 414.138L551.305 450.075L538.511 452.788L209.253 454.144L119.027 414.816L148.596 414.816L462.425 414.138Z" fill="white"/>
<path d="M212.805 418.917C215.354 417.218 219.532 418.209 221.302 418.917C232.455 418.917 277.704 409.535 292.574 409.535C307.443 409.535 333.886 418.917 326.097 421.041C318.308 423.166 236.88 424.228 221.302 425.644C205.725 427.06 209.619 421.041 212.805 418.917Z" fill="white"/>
<path d="M292.048 410.243C314.706 398.914 319.663 287.511 327.275 227.384C342.321 215.051 377.229 189.254 396.489 184.722C420.563 205.256 372.078 389.389 369.936 399.622C366.75 414.846 329.413 424.759 321.787 424.759C310.104 424.759 284.259 424.759 242.483 426.883C209.062 428.582 204.776 422.988 215.222 421.572C217.347 421.572 269.39 421.572 292.048 410.243Z" fill="#601A18"/>
<path fill-rule="evenodd" clip-rule="evenodd" d="M430.295 168.437C437.023 180.651 391.705 210.289 386.573 204.017C373.619 197.978 396.131 180.952 417.903 163.304C429.661 153.772 428.418 161.935 430.295 168.437Z" fill="#9C9CBC"/>
<path fill-rule="evenodd" clip-rule="evenodd" d="M414.362 160.825C410.334 172.059 415.352 175.489 423.264 175.871C436.843 178.173 432.939 153.338 432.346 141.532C429.502 138.895 426.915 137.71 423.264 139.258C419.313 145.536 414.954 159.174 414.362 160.825Z" fill="#281616"/>
<path fill-rule="evenodd" clip-rule="evenodd" d="M389.406 257.654L385.978 328.819L384.422 350.972L378.902 428.595H368.164L366.246 268.369C366.246 268.369 384.947 245.135 389.406 257.654Z" fill="#293057"/>
<path fill-rule="evenodd" clip-rule="evenodd" d="M349.725 266.663C346.659 271.859 345.268 276.118 344.296 289.766L339.907 308.444L335.715 328.836L331.158 350.984L315.204 428.595H325.321L372.105 268.389C372.105 268.389 357.632 254.144 349.725 266.663Z" fill="#293057"/>
<path fill-rule="evenodd" clip-rule="evenodd" d="M357.823 254.99L351.083 258.769C351.083 258.769 357.4 287.194 366.564 287.246C375.729 287.298 383.34 258.597 383.34 258.597L357.823 254.99Z" fill="#6D6DF6"/>
<path fill-rule="evenodd" clip-rule="evenodd" d="M359.097 161.125C359.097 161.125 358.725 159.566 360.445 160.189C360.665 160.27 360.724 160.102 360.696 159.762C360.696 159.712 360.696 159.662 360.696 159.606C359.048 143.645 381.441 165.464 384.431 153.593C384.48 155.969 383.775 158.3 382.417 160.245C378.569 165.997 372.096 168.257 368.071 167.503C364.046 166.748 360.368 165.801 359.097 161.125Z" fill="#281616"/>
<path fill-rule="evenodd" clip-rule="evenodd" d="M361.344 165.898C361.097 167.253 360.744 168.479 360.247 169.076C358.793 170.816 356.938 166.108 356.227 164.319C355.516 162.53 354.341 159.888 355.695 159.506C356.286 159.402 356.891 159.392 357.485 159.475C357.272 157.415 354.084 149.717 363.033 149.209C370.114 148.808 375.463 152.128 378.026 148.704C380.59 145.279 383.005 151.318 379.164 157.452C375.324 163.586 368.864 166.582 364.848 166.314C363.672 166.254 362.501 166.115 361.344 165.898Z" fill="white"/>
<path fill-rule="evenodd" clip-rule="evenodd" d="M378.992 156.488C378.992 156.488 378.792 163.691 377.405 165.449C376.019 167.206 374.249 162.445 373.57 160.635C372.892 158.825 371.771 156.151 373.06 155.765C374.349 155.379 378.992 156.488 378.992 156.488Z" fill="#281616"/>
<path fill-rule="evenodd" clip-rule="evenodd" d="M366.226 167.281L361.66 169.992L360.876 192.777L376.098 194.463L374.601 174.701L366.226 167.281Z" fill="#FFE1DA"/>
<path fill-rule="evenodd" clip-rule="evenodd" d="M373.615 194.175L376.098 194.464L374.67 174.696L371.759 171.993L371.386 172.235L373.615 194.175Z" fill="#FF8685"/>
<path fill-rule="evenodd" clip-rule="evenodd" d="M364.911 167.281L362.684 168.788C362.617 176.545 367.877 185.558 375.73 185.401L375.161 174.086L364.911 167.281Z" fill="#412F2F"/>
<path fill-rule="evenodd" clip-rule="evenodd" d="M375.366 151.696C375.305 153.048 384.555 177.612 376.268 179.965C367.981 182.318 359.863 172.785 359.431 164.405C358.999 156.025 375.366 151.696 375.366 151.696Z" fill="#FFD3CA"/>
<path fill-rule="evenodd" clip-rule="evenodd" d="M372.473 180.329C365.653 179.414 359.8 171.524 359.433 164.453C359.343 162.692 359.996 161.115 361.082 159.713C362.621 159.673 363.88 159.67 363.88 159.67C363.88 159.67 365.165 170.412 367.904 172.454C370 174.004 371.478 177.945 372.473 180.329Z" fill="#FFE1DA"/>
<path fill-rule="evenodd" clip-rule="evenodd" d="M375.282 151.696C375.258 152.24 376.683 156.472 377.902 161.539C374.026 165.497 368.976 167.248 365.616 166.868C363.328 166.604 361.153 166.27 359.473 165.22C359.454 165.011 359.439 164.81 359.427 164.617C359 156.098 375.282 151.696 375.282 151.696Z" fill="#FF8685"/>
<path fill-rule="evenodd" clip-rule="evenodd" d="M375.336 151.696C375.277 152.998 383.903 175.798 377.109 179.604C377.085 179.487 377.099 179.366 377.15 179.257C377.949 177.275 376.714 176.243 376.251 175.331C375.864 174.645 375.741 173.843 375.906 173.074C376.027 172.316 375.567 172.557 375.402 172.016C375.237 171.475 375.828 171.126 375.713 170.779C375.598 170.433 375.091 169.71 375.193 169.234C375.296 168.757 377.06 168.393 377.103 167.688C377.147 166.983 372.347 156.124 372.108 155.558L373.965 152.108C374.814 151.832 375.336 151.696 375.336 151.696Z" fill="#FF8685"/>
<path fill-rule="evenodd" clip-rule="evenodd" d="M356.558 161.241C356.558 161.241 356.186 159.714 357.906 160.138C359.456 160.515 353.177 149.854 363.718 149.231C370.812 148.822 376.174 152.185 378.747 148.716C381.319 145.248 383.734 151.365 379.884 157.573C376.035 163.781 369.56 166.813 365.534 166.539C361.508 166.265 357.829 165.763 356.558 161.241Z" fill="#412F2F"/>
<path fill-rule="evenodd" clip-rule="evenodd" d="M356.558 161.195C356.558 161.195 356.186 159.663 357.906 160.088C358.127 160.142 358.185 159.97 358.158 159.629C358.158 159.582 358.158 159.532 358.139 159.476C356.49 143.671 378.906 162.867 381.882 150.609C381.987 152.484 381.46 155.003 379.885 157.548C376.039 163.773 369.561 166.814 365.535 166.539C361.508 166.264 357.829 165.73 356.558 161.195Z" fill="#281616"/>
<path fill-rule="evenodd" clip-rule="evenodd" d="M362.68 160.446C362.68 160.446 362.468 167.392 361.004 169.086C359.541 170.781 357.669 166.19 356.956 164.445C356.243 162.699 355.056 160.121 356.417 159.749C357.778 159.376 362.68 160.446 362.68 160.446Z" fill="#281616"/>
<path fill-rule="evenodd" clip-rule="evenodd" d="M360.662 168.001C360.662 168.001 358.719 165.454 357.533 166.408C356.347 167.362 359.115 173.397 360.862 173.442C362.61 173.487 363.066 171.38 360.662 168.001Z" fill="#FFE1DA"/>
<path d="M350.457 310.759L364.973 263.042L373.469 260.84L380.904 310.759H350.457Z" fill="#9C9CBC"/>
<path d="M360.844 186.155L342.748 196.659C342.748 196.659 344.848 215.679 348.575 230.628C351.785 243.531 348.895 259.403 350.457 261.194L330.277 308.635L357.183 313.591L367.45 268.275H371.699L375.807 313.591L398.605 310.405L389.401 259.955C390.653 248.731 397.404 216.327 391.583 198.543C390.875 196.362 393.204 187.831 390.813 186.155C387.006 183.484 377.879 188.048 375.807 186.808C372.374 192.259 360.844 186.155 360.844 186.155Z" fill="#6D6DF6"/>
<path fill-rule="evenodd" clip-rule="evenodd" d="M352.593 267.444C347.715 267.05 349.292 268.557 348.333 267.444C347.993 265.185 346.77 244.891 343.559 231.986C341.456 223.534 343.449 213.125 341.309 206.88L348.466 200.3C348.466 200.3 357.233 211.667 357.898 226.144C358.563 240.621 352.992 262.64 352.593 267.444Z" fill="#293057"/>
<path fill-rule="evenodd" clip-rule="evenodd" d="M358.972 160.722C358.99 160.746 365.037 169.075 375.136 159.307L375.371 159.523C364.99 169.565 358.718 160.929 358.699 160.906L358.972 160.722Z" fill="#412F2F"/>
<path fill-rule="evenodd" clip-rule="evenodd" d="M354.345 159.366C354.345 159.366 356.502 157.339 358.332 159.808L358.057 160.033C356.437 157.861 354.572 159.631 354.569 159.634L354.345 159.366Z" fill="#281616"/>
<path fill-rule="evenodd" clip-rule="evenodd" d="M355.433 157.865C355.433 157.865 358.303 157.6 358.332 160.395H357.988C357.962 157.936 355.462 158.168 355.455 158.168L355.433 157.865Z" fill="#281616"/>
<path fill-rule="evenodd" clip-rule="evenodd" d="M371.745 172.39C371.745 172.39 374.809 172.426 376.256 171.268L376.453 171.517C374.912 172.747 371.751 172.717 371.742 172.717L371.745 172.39Z" fill="#FF8685"/>
<path fill-rule="evenodd" clip-rule="evenodd" d="M372.105 172.232C372.105 172.232 371.645 172.587 371.972 172.879L371.571 173.08C371.05 172.58 371.764 171.996 371.764 171.993L372.105 172.232Z" fill="#FF8685"/>
<path fill-rule="evenodd" clip-rule="evenodd" d="M362.694 172.872C362.688 172.859 362.685 172.844 362.684 172.829C362.684 172.814 362.687 172.799 362.693 172.786C362.699 172.772 362.708 172.76 362.719 172.75C362.73 172.739 362.743 172.731 362.757 172.726C362.784 172.715 362.815 172.715 362.843 172.726C362.871 172.737 362.893 172.758 362.905 172.785C363.672 174.5 364.827 176.019 366.282 177.225C367.737 178.432 369.454 179.294 371.299 179.746C371.314 179.749 371.327 179.755 371.339 179.763C371.351 179.772 371.361 179.783 371.368 179.795C371.376 179.808 371.38 179.822 371.382 179.836C371.384 179.851 371.382 179.865 371.378 179.879C371.375 179.894 371.369 179.907 371.36 179.92C371.351 179.932 371.34 179.942 371.327 179.95C371.314 179.958 371.3 179.963 371.285 179.965C371.27 179.967 371.254 179.967 371.24 179.963C369.36 179.502 367.613 178.623 366.132 177.394C364.65 176.165 363.474 174.618 362.694 172.872Z" fill="white"/>
<path fill-rule="evenodd" clip-rule="evenodd" d="M358.132 167.644C359.684 168.69 360.623 169.678 361.121 170.447C362.28 172.229 361.102 172.834 359.79 170.274L360.061 170.14C361.054 172.174 361.725 171.834 360.843 170.536C360.067 169.489 359.092 168.589 357.969 167.881L358.132 167.644Z" fill="#FF8685"/>
<path fill-rule="evenodd" clip-rule="evenodd" d="M366.688 170.361C366.97 170.247 367.275 170.185 367.584 170.18C367.892 170.176 368.199 170.228 368.486 170.333C368.772 170.438 369.032 170.595 369.251 170.794C369.47 170.993 369.643 171.231 369.76 171.492C369.995 172.028 369.991 172.626 369.751 173.16C369.51 173.693 369.05 174.12 368.47 174.348C368.188 174.463 367.883 174.524 367.574 174.529C367.265 174.534 366.958 174.482 366.671 174.377C366.385 174.271 366.124 174.114 365.905 173.915C365.686 173.716 365.512 173.479 365.395 173.218C365.161 172.681 365.164 172.083 365.406 171.549C365.647 171.016 366.107 170.589 366.688 170.361Z" fill="#FF8685"/>
<path fill-rule="evenodd" clip-rule="evenodd" d="M370.346 166.211C370.416 166.193 370.488 166.189 370.558 166.199C370.629 166.21 370.697 166.234 370.758 166.27C370.819 166.307 370.872 166.355 370.914 166.412C370.956 166.469 370.986 166.534 371.002 166.603C371.034 166.743 371.01 166.89 370.935 167.013C370.859 167.136 370.739 167.226 370.599 167.264C370.529 167.282 370.457 167.286 370.387 167.276C370.316 167.266 370.248 167.242 370.187 167.205C370.126 167.168 370.073 167.12 370.031 167.063C369.989 167.006 369.959 166.941 369.943 166.872C369.91 166.732 369.933 166.584 370.009 166.461C370.084 166.337 370.205 166.248 370.346 166.211Z" fill="#281616"/>
<path fill-rule="evenodd" clip-rule="evenodd" d="M368.121 166.838L371.256 166.194L371.383 166.635L368.248 167.281L368.121 166.838Z" fill="#281616"/>
<path fill-rule="evenodd" clip-rule="evenodd" d="M376.093 164.709L378.806 164.019L378.992 164.417L376.279 165.107L376.093 164.709Z" fill="#281616"/>
<path fill-rule="evenodd" clip-rule="evenodd" d="M377.184 164.414C377.251 164.39 377.322 164.379 377.393 164.382C377.465 164.385 377.534 164.402 377.599 164.433C377.663 164.463 377.721 164.506 377.768 164.558C377.816 164.611 377.852 164.673 377.875 164.739C377.92 164.877 377.909 165.026 377.846 165.155C377.782 165.285 377.671 165.386 377.534 165.436C377.467 165.461 377.395 165.472 377.324 165.468C377.253 165.465 377.183 165.447 377.118 165.417C377.054 165.386 376.996 165.343 376.949 165.29C376.902 165.237 376.866 165.175 376.843 165.108C376.798 164.972 376.808 164.823 376.871 164.693C376.935 164.563 377.047 164.463 377.184 164.414Z" fill="#281616"/>
<path fill-rule="evenodd" clip-rule="evenodd" d="M370.93 417.359C372.162 417.567 396.807 425.108 397.574 428.595H365.68C365.68 428.595 366.783 420.961 370.93 417.359Z" fill="#281616"/>
<path fill-rule="evenodd" clip-rule="evenodd" d="M423.491 138.741C422.595 140.569 423.776 143.006 426.127 144.19C428.479 145.374 431.108 144.846 432.004 143.018C432.901 141.19 431.716 138.751 429.365 137.57C427.015 136.389 424.384 136.911 423.491 138.741Z" fill="#281616"/>
<path fill-rule="evenodd" clip-rule="evenodd" d="M344.979 199.63C344.98 199.649 351.196 205.471 346.977 229.283L346.216 229.141C350.359 205.751 344.46 200.214 344.444 200.196L344.979 199.63Z" fill="#A3CF80"/>
<path fill-rule="evenodd" clip-rule="evenodd" d="M329.054 225.701C323.388 238.701 319.777 252.247 327.659 254.967C343.602 260.487 353.804 203.51 350.668 199.31C339.93 184.926 330.534 222.294 329.054 225.701Z" fill="#9C9CBC"/>
<path fill-rule="evenodd" clip-rule="evenodd" d="M314.699 248.094C322.903 239.308 323.602 237.828 332.223 244.2C344.438 253.228 322.122 264.557 311.287 269.486C307.617 268.184 305.351 266.442 305.055 262.497C308.841 256.085 313.499 249.378 314.699 248.094Z" fill="#281616"/>
<path fill-rule="evenodd" clip-rule="evenodd" d="M304.989 263.348C305.889 261.495 308.602 260.956 311.037 262.146C313.472 263.336 314.729 265.799 313.825 267.653C312.921 269.506 310.212 270.045 307.777 268.855C305.342 267.665 304.085 265.201 304.989 263.348Z" fill="#281616"/>
<path fill-rule="evenodd" clip-rule="evenodd" d="M436.852 131.996C436.852 131.996 434.846 139.331 432.224 141.721C429.846 143.894 422.767 140.283 423.245 137.125C423.77 133.662 428.825 127.874 428.825 127.874L436.852 131.996Z" fill="#FF8685"/>
<path fill-rule="evenodd" clip-rule="evenodd" d="M427.24 129.896L427.198 129.97C427.118 130.113 427.068 130.27 427.05 130.431C427.033 130.593 427.048 130.755 427.096 130.909C427.143 131.062 427.222 131.204 427.327 131.326C427.432 131.448 427.561 131.547 427.707 131.618C428.005 131.762 428.351 131.785 428.672 131.681C428.993 131.577 429.263 131.354 429.424 131.061L429.462 130.986L434.773 120.518C434.816 120.443 434.852 120.364 434.881 120.283C434.944 120.091 434.938 119.885 434.862 119.701C434.786 119.517 434.646 119.367 434.466 119.277C434.265 119.181 434.033 119.164 433.816 119.229C433.599 119.294 433.412 119.437 433.293 119.628L433.261 119.682L427.24 129.896Z" fill="#FF8685"/>
<path fill-rule="evenodd" clip-rule="evenodd" d="M430.2 129.796L430.151 129.864C430.062 130 430.001 130.154 429.972 130.314C429.943 130.475 429.946 130.639 429.981 130.798C430.017 130.957 430.084 131.107 430.179 131.24C430.273 131.372 430.393 131.485 430.532 131.57C430.816 131.743 431.157 131.797 431.482 131.722C431.807 131.647 432.09 131.448 432.271 131.168L432.314 131.097L438.402 120.952C438.521 120.759 438.559 120.527 438.508 120.307C438.457 120.086 438.321 119.895 438.13 119.774C437.933 119.657 437.699 119.62 437.475 119.67C437.251 119.72 437.055 119.854 436.926 120.044L430.2 129.796Z" fill="#FF8685"/>
<path fill-rule="evenodd" clip-rule="evenodd" d="M431.549 131.604L431.505 131.675C431.426 131.818 431.376 131.976 431.358 132.137C431.341 132.299 431.356 132.462 431.403 132.616C431.45 132.771 431.528 132.914 431.633 133.037C431.737 133.161 431.865 133.261 432.011 133.334C432.308 133.481 432.654 133.506 432.974 133.404C433.295 133.302 433.564 133.081 433.726 132.788L433.765 132.716L439.142 122.143C439.247 121.941 439.269 121.708 439.202 121.494C439.134 121.279 438.984 121.102 438.784 120.999C438.578 120.9 438.34 120.883 438.119 120.951C437.898 121.02 437.711 121.169 437.594 121.368L431.549 131.604Z" fill="#FF8685"/>
<path fill-rule="evenodd" clip-rule="evenodd" d="M434.914 132.607L434.878 132.66C434.813 132.772 434.771 132.897 434.754 133.028C434.738 133.159 434.747 133.294 434.782 133.423C434.817 133.553 434.876 133.675 434.957 133.782C435.037 133.89 435.137 133.981 435.251 134.05C435.483 134.19 435.755 134.233 436.01 134.17C436.264 134.107 436.48 133.944 436.612 133.715L436.645 133.655L441.04 125.364C441.124 125.207 441.144 125.019 441.095 124.84C441.046 124.662 440.932 124.507 440.777 124.409C440.616 124.316 440.429 124.287 440.254 124.328C440.079 124.37 439.928 124.479 439.833 124.633L434.914 132.607Z" fill="#FF8685"/>
<path fill-rule="evenodd" clip-rule="evenodd" d="M308.711 279.251C308.924 279.343 309.163 279.347 309.376 279.261C309.589 279.175 309.759 279.006 309.848 278.792C309.899 278.671 309.921 278.54 309.912 278.408C310.179 276.633 311.646 274.65 311.914 274.298L311.929 274.294C311.988 274.213 312.038 274.126 312.078 274.033C312.139 273.885 312.171 273.725 312.171 273.563C312.171 273.401 312.139 273.241 312.077 273.091C312.015 272.941 311.925 272.804 311.812 272.689C311.698 272.575 311.564 272.484 311.416 272.422C311.157 272.314 310.872 272.297 310.605 272.373C310.338 272.45 310.106 272.615 309.944 272.843C308.288 275.036 308.098 278.504 308.166 278.514C308.18 278.676 308.239 278.831 308.335 278.961C308.432 279.092 308.562 279.192 308.711 279.251Z" fill="#FF8685"/>
<path fill-rule="evenodd" clip-rule="evenodd" d="M425.584 127.465C425.357 127.417 425.122 127.461 424.931 127.587C424.739 127.714 424.606 127.913 424.56 128.141C424.534 128.269 424.539 128.402 424.573 128.529C424.663 130.322 423.616 132.556 423.423 132.953L423.41 132.961C423.367 133.052 423.335 133.147 423.314 133.246C423.284 133.403 423.284 133.566 423.316 133.725C423.349 133.883 423.412 134.035 423.502 134.169C423.592 134.304 423.707 134.42 423.841 134.51C423.975 134.601 424.125 134.663 424.282 134.695C424.557 134.749 424.84 134.71 425.086 134.582C425.333 134.454 425.528 134.246 425.642 133.99C426.832 131.514 426.333 128.077 426.264 128.08C426.218 127.924 426.13 127.784 426.01 127.675C425.889 127.567 425.742 127.494 425.584 127.465Z" fill="#FFE1DA"/>
<path fill-rule="evenodd" clip-rule="evenodd" d="M312.722 269.151C312.747 269.023 312.762 268.891 312.765 268.758C312.784 268.241 312.653 267.717 312.391 267.264C312.129 266.81 311.75 266.451 311.308 266.238C310.745 265.959 310.123 265.929 309.576 266.156C309.029 266.383 308.602 266.847 308.386 267.45C308.221 267.904 308.194 268.415 308.309 268.912C308.325 268.977 308.346 269.041 308.372 269.103L309.425 273.041C309.463 273.32 309.567 273.587 309.727 273.816C309.887 274.044 310.096 274.225 310.333 274.339C310.688 274.513 311.08 274.531 311.425 274.388C311.769 274.246 312.04 273.954 312.178 273.576C312.197 273.521 312.213 273.464 312.225 273.405C312.253 273.287 312.268 273.163 312.27 273.038L312.722 269.151Z" fill="#FF8685"/>
<path fill-rule="evenodd" clip-rule="evenodd" d="M423.341 137.611C423.333 137.728 423.337 137.846 423.351 137.962C423.402 138.415 423.597 138.838 423.909 139.169C424.22 139.5 424.632 139.722 425.083 139.803C425.66 139.913 426.261 139.792 426.755 139.467C427.25 139.142 427.598 138.639 427.725 138.067C427.823 137.634 427.78 137.185 427.604 136.781C427.58 136.729 427.551 136.678 427.519 136.63L425.985 133.465C425.912 133.233 425.776 133.026 425.592 132.865C425.409 132.705 425.184 132.598 424.942 132.555C424.578 132.487 424.2 132.564 423.888 132.768C423.577 132.973 423.356 133.289 423.274 133.649C423.263 133.701 423.256 133.754 423.252 133.808C423.24 133.917 423.242 134.028 423.257 134.137L423.341 137.611Z" fill="#FFE1DA"/>
<path d="M389.758 257.654C385.509 261.619 361.258 260.663 347.804 258.893C347.214 260.309 346.742 264.062 346.742 267.744C348.725 271.426 381.969 271.815 390.82 267.744C390.82 266.092 391.882 257.654 389.758 257.654Z" fill="#281616"/>
<path d="M330.632 344.393L313.992 423.697H327.446C333.464 403.635 346.811 359.014 349.927 348.818C346.741 346.694 343.908 342.799 342.492 336.604C341.642 339.153 334.526 343.33 330.632 344.393Z" fill="#281616"/>
<path d="M366.211 344.465L365.955 425.496L379.487 425.496C381.323 404.631 385.013 355.512 386.002 344.897C382.452 343.461 378.891 340.22 376.251 334.439C375.934 337.107 369.81 342.638 366.211 344.465Z" fill="#281616"/>
<path d="M334.884 228.623C366.606 227.49 383.977 203.132 388.698 191.095C392.23 184.298 381.319 183.306 375.598 183.66C375.598 185.785 375.421 185.608 375.421 187.378C371.527 189.856 363.738 187.732 361.26 186.316V183.483C357.484 184.546 347.207 186.068 340.195 191.095C330.813 197.822 319.129 230.747 334.884 228.623Z" fill="#601A18"/>
<path d="M364.09 216.94C373.012 212.549 381.143 201.185 383.208 196.051C386.748 191.272 388.873 186.67 384.978 184.545C395.068 183.66 392.944 189.856 389.935 196.051C386.925 202.247 380.347 216.505 365.506 223.489C350.46 230.57 331.342 230.747 329.395 230.57C327.447 230.393 325.146 227.03 327.27 221.719C330.103 226.499 352.938 222.427 364.09 216.94Z" fill="white"/>
<circle cx="386.388" cy="194.458" r="6.9037" fill="#D39523"/>
<path fill-rule="evenodd" clip-rule="evenodd" d="M309.745 428.653H327.753C328.3 420.931 324.103 418.316 319.378 419.288C314.652 420.26 311.625 423.436 309.745 428.653Z" fill="#281616"/>
<path d="M366.04 262.256C366.182 258.857 369.757 259.778 371.881 260.486C373.475 261.902 372.59 265.088 372.59 267.744C372.59 270.399 371.882 270.753 368.164 270.93C364.447 271.107 365.863 266.505 366.04 262.256Z" stroke="#A37133" stroke-width="3"/>
<path d="M369.756 142.807C370.733 144.287 369.906 146.004 369.37 146.677C370.205 147.849 371.802 149.675 371.517 147.609C371.16 145.026 370.98 144.042 372.032 142.449C371.603 142.201 371.236 141.769 370.756 139.248C370.808 141.214 370.439 141.397 369.756 142.807Z" fill="#935A11"/>
<path d="M359.716 147.924C360.947 147.622 362.908 148.799 363.092 148.861C362.992 148.451 363.075 147.214 364.213 145.548C362.983 145.788 361.368 145.064 360.714 144.672C360.648 145.777 360.397 146.821 359.716 147.924Z" fill="#935A11"/>
<path d="M352.814 152.256C355.825 152.454 356.737 154.609 356.797 154.732C357.517 154.223 358.599 153.106 357.175 152.706C355.395 152.206 354.907 151.528 354.543 150.482C353.313 150.783 352.946 150.352 351.169 149.237C352.76 150.597 352.636 150.965 352.814 152.256Z" fill="#935A11"/>
<path d="M365.221 154.094C358.718 157.31 357.252 158.852 357.332 159.221L355.932 156.388C354.156 155.069 349.746 151.812 346.315 149.339C348.669 150.627 350.817 150.383 351.597 150.1C351.676 150.674 352.19 152.106 353.611 153.243C355.386 154.664 356.866 153.626 356.506 151.658C356.146 149.69 354.061 148.882 352.401 148.936C352.899 147.463 352.72 146.479 351.38 143.769C352.235 144.879 354.935 145.69 356.164 145.696C356.404 147.11 356.646 147.91 357.745 149.513C358.844 151.116 361.305 150.512 361.559 148.547C361.814 146.582 360.096 145.898 358.014 144.475C358.629 144.171 359.497 142.515 358.466 139.5C358.891 140.669 360.422 141.905 362.694 142.161C362.553 146.216 363.469 147.45 364.022 147.636C364.574 147.823 366.968 148.326 367.226 145.746C367.432 143.682 365.562 142.174 364.602 141.678C366.271 139.473 366.214 138.428 366.285 136.401C366.963 138.518 368.85 139.833 369.709 140.226C369.647 140.206 369.412 140.618 368.961 142.435C368.398 144.706 370.235 146.251 371.034 146.009C371.834 145.767 372.082 145.338 372.58 143.865C373.079 142.392 371.978 141.097 370.938 140.232C372.715 138.618 373.576 136.577 373.785 135.759L373.546 147.679L374.887 150.392C374.918 150.427 374.937 150.467 374.947 150.513L374.887 150.392C374.541 150.004 372.686 150.404 365.221 154.094Z" fill="#D39523"/>
<path d="M364.611 152.248C360.916 154.075 357.669 156.498 356.476 157.496L356.111 156.757C356.976 155.716 360.243 153.334 364.185 151.386C368.62 149.193 372.23 148.022 373.603 147.802L374.03 148.665C371.94 148.778 368.676 150.238 364.611 152.248Z" fill="#F2BB56"/>
<path d="M364.979 152.987C361.283 154.814 358.036 157.237 356.843 158.235L356.478 157.496C357.343 156.455 360.611 154.074 364.552 152.125C368.987 149.933 372.597 148.761 373.971 148.542L374.397 149.404C372.307 149.517 369.043 150.978 364.979 152.987Z" fill="#F2BB56"/>
<path d="M364.791 152.617C361.096 154.444 357.848 156.867 356.656 157.866L356.29 157.126C357.155 156.086 360.423 153.704 364.365 151.755C368.799 149.563 372.41 148.391 373.783 148.172L374.209 149.034C372.12 149.148 368.856 150.608 364.791 152.617Z" fill="#9D5604"/>
<path d="M359.853 144.177L360.042 143.01L361.269 143.63L361.139 145.227L359.853 144.177Z" fill="#9D5604"/>
<path d="M366.625 141.442L366.938 140.214L367.979 141.079L367.725 142.737L366.625 141.442Z" fill="#9D5604"/>
<path d="M374.371 140.678L373.517 139.261L373.567 141.842L374.371 140.678Z" fill="#9D5604"/>
<path d="M354.182 147.899L354.004 146.608L355.232 146.921L355.593 148.582L354.182 147.899Z" fill="#9D5604"/>
<path d="M349.675 152.734L349.189 151.441L351.333 152.987L349.675 152.734Z" fill="#9D5604"/>
<path d="M296.555 419.213L300.059 298.183L305.721 298.347L301.848 432.116L296.555 419.213Z" fill="#8E999D"/>
<path d="M307.883 419.541L311.387 298.511L305.725 298.347L301.852 432.117L307.883 419.541Z" fill="#C0CCD0"/>
<path d="M302.339 292.936L293.946 292.693C294.292 293.612 295.205 298.003 296.331 300.217C300.751 297.371 301.221 298.252 305.247 300.475C310.294 297.35 314.367 299.376 315.772 300.78L317.969 293.389L309.549 293.145L310.029 276.571C310.797 275.726 310.133 272.98 310.161 271.989C310.19 270.999 310.866 269.035 304.661 269.351C299.696 269.604 301.107 274.123 302.819 276.362L302.339 292.936Z" fill="#D39523"/>
<path fill-rule="evenodd" clip-rule="evenodd" d="M303.111 272.317L303.151 272.244C303.237 272.104 303.349 271.983 303.481 271.888C303.613 271.793 303.762 271.726 303.919 271.69C304.077 271.655 304.24 271.652 304.399 271.682C304.557 271.712 304.709 271.774 304.844 271.864C305.118 272.05 305.311 272.338 305.381 272.667C305.45 272.996 305.391 273.34 305.216 273.625L305.172 273.695L302.246 279.997C302.123 280.188 301.93 280.322 301.711 280.369C301.492 280.417 301.263 280.374 301.074 280.25C300.887 280.12 300.755 279.922 300.705 279.696C300.656 279.47 300.692 279.233 300.808 279.034L303.111 272.317Z" fill="#FF8685"/>
<path fill-rule="evenodd" clip-rule="evenodd" d="M301.908 269.638L301.948 269.566C302.034 269.426 302.146 269.305 302.278 269.21C302.409 269.114 302.559 269.047 302.716 269.012C302.874 268.976 303.037 268.974 303.196 269.003C303.354 269.033 303.506 269.095 303.641 269.186C303.915 269.371 304.108 269.66 304.178 269.989C304.247 270.318 304.188 270.662 304.012 270.947L303.969 271.016L301.043 277.318C300.919 277.509 300.727 277.643 300.508 277.691C300.289 277.738 300.06 277.695 299.871 277.572C299.684 277.442 299.552 277.243 299.502 277.017C299.452 276.791 299.489 276.555 299.605 276.355L301.908 269.638Z" fill="#FF8685"/>
<path fill-rule="evenodd" clip-rule="evenodd" d="M300.842 266.452L300.882 266.379C300.967 266.239 301.079 266.118 301.211 266.023C301.343 265.928 301.492 265.861 301.65 265.825C301.807 265.79 301.97 265.787 302.129 265.817C302.288 265.847 302.439 265.909 302.574 265.999C302.849 266.185 303.042 266.473 303.111 266.802C303.181 267.131 303.121 267.475 302.946 267.76L302.903 267.83L299.977 274.132C299.853 274.323 299.661 274.457 299.442 274.504C299.222 274.552 298.994 274.509 298.805 274.385C298.617 274.255 298.485 274.057 298.436 273.831C298.386 273.605 298.423 273.368 298.538 273.169L300.842 266.452Z" fill="#FF8685"/>
<path fill-rule="evenodd" clip-rule="evenodd" d="M305.126 274.846L305.155 274.788C305.22 274.676 305.308 274.578 305.414 274.499C305.52 274.419 305.641 274.361 305.771 274.328C305.901 274.294 306.036 274.285 306.17 274.302C306.303 274.319 306.431 274.361 306.547 274.426C306.784 274.558 306.956 274.774 307.027 275.026C307.098 275.278 307.063 275.547 306.928 275.775L306.893 275.832L301.855 283.749C301.76 283.901 301.606 284.011 301.427 284.056C301.248 284.102 301.057 284.079 300.895 283.993C300.734 283.899 300.617 283.751 300.566 283.578C300.516 283.405 300.536 283.22 300.623 283.061L305.126 274.846Z" fill="#FF8685"/>
<path fill-rule="evenodd" clip-rule="evenodd" d="M306.084 276.736C306.084 276.736 311.47 271.368 312.254 267.907C312.968 264.767 306.331 260.395 303.821 262.371C300.895 264.203 299.656 270.045 299.656 270.045L306.084 276.736Z" fill="#FF8685"/>
<path d="M544.578 470.075H198.331L201.699 490.255H535.147L544.578 470.075Z" fill="#6868C9"/>
<path d="M551.305 450.25H198.331C209.852 456.295 206.12 461.187 198.331 470.076H544.569C536.137 461.872 538.144 457.571 551.305 450.25Z" fill="#B6B6FF"/>
<path d="M452.987 407.962C463.22 407.962 465.33 414.5 465.106 417.769C461.066 419.87 439.521 420.011 439.521 417.769C439.521 414.967 440.195 407.962 452.987 407.962Z" fill="#B6B6FF"/>
<path d="M444.907 419.171C444.907 413.007 449.844 409.131 452.312 407.963C441.54 407.963 439.296 414.501 439.52 417.77C440.194 418.237 442.214 419.171 444.907 419.171Z" fill="#5E5EB4"/>
<path d="M465.105 358.928C465.105 347.72 461.515 333.71 459.719 328.106C455.904 326.005 447.601 323.063 444.907 328.106C441.541 334.411 436.828 349.121 436.828 358.928C436.828 366.774 444.459 394.887 448.274 407.963C449.62 409.364 452.717 411.325 454.333 407.963C456.353 403.76 465.105 372.938 465.105 358.928Z" fill="#9292EC"/>
<path d="M452.987 328.807C463.22 328.807 465.33 322.269 465.106 319C456.577 318.066 439.521 316.758 439.521 319C439.521 321.802 440.195 328.807 452.987 328.807Z" fill="#B6B6FF"/>
<path d="M442.887 356.126C442.348 351.083 448.946 336.279 452.312 329.508C450.966 327.64 447.734 324.604 445.58 327.406C442.887 330.909 436.154 347.02 436.827 358.928C437.366 368.455 444.682 395.588 448.273 407.963L448.946 409.364C449.844 409.598 451.37 409.645 450.293 407.963C448.273 401.659 443.56 362.431 442.887 356.126Z" fill="#5E5EB4"/>
<path d="M452.988 328.806C447.064 326.004 446.48 320.167 446.929 317.598C444.46 315.73 439.523 313.395 439.523 318.999C439.523 326.004 446.929 329.507 452.988 328.806Z" fill="#5E5EB4"/>
<path d="M475.881 417.833C486.115 417.833 488.224 424.117 488 427.259C483.96 429.278 462.416 429.413 462.416 427.259C462.416 424.566 463.089 417.833 475.881 417.833Z" fill="#ECECEC"/>
<path d="M467.801 428.606C467.801 422.681 472.738 418.955 475.207 417.833C464.435 417.833 462.191 424.117 462.415 427.259C463.088 427.708 465.108 428.606 467.801 428.606Z" fill="#5E5EB4"/>
<path d="M488 370.704C488 359.932 484.409 346.467 482.614 341.081C478.799 339.061 470.495 336.233 467.802 341.081C464.436 347.14 459.723 361.279 459.723 370.704C459.723 378.245 467.353 405.265 471.168 417.833C472.515 419.18 475.612 421.065 477.228 417.833C479.248 413.794 488 384.17 488 370.704Z" fill="#9292EC"/>
<path d="M475.881 341.754C486.115 341.754 488.224 335.47 488 332.329C479.472 331.431 462.416 330.174 462.416 332.329C462.416 335.022 463.089 341.754 475.881 341.754Z" fill="#ECECEC"/>
<path d="M465.781 368.012C465.243 363.164 471.841 348.936 475.207 342.427C473.86 340.632 470.629 337.715 468.474 340.408C465.781 343.774 459.049 359.259 459.722 370.705C460.261 379.861 467.577 405.939 471.167 417.833L471.841 419.18C472.738 419.404 474.264 419.449 473.187 417.833C471.167 411.774 466.455 374.071 465.781 368.012Z" fill="#5E5EB4"/>
<path d="M475.883 341.754C469.958 339.061 469.375 333.45 469.823 330.982C467.355 329.186 462.417 326.942 462.417 332.328C462.417 339.061 469.823 342.427 475.883 341.754Z" fill="#787878"/>
<path d="M501.471 428.605C511.705 428.605 513.814 434.889 513.59 438.031C509.55 440.05 488.006 440.186 488.006 438.031C488.006 435.338 488.679 428.605 501.471 428.605Z" fill="#ECECEC"/>
<path d="M493.391 439.378C493.391 433.453 498.328 429.728 500.797 428.606C490.025 428.606 487.78 434.89 488.005 438.031C488.678 438.48 490.698 439.378 493.391 439.378Z" fill="#5E5EB4"/>
<path d="M513.59 381.477C513.59 370.705 509.999 357.239 508.204 351.853C504.389 349.833 496.085 347.006 493.392 351.853C490.026 357.912 485.313 372.051 485.313 381.477C485.313 389.017 492.943 416.038 496.758 428.605C498.105 429.952 501.202 431.837 502.818 428.605C504.837 424.566 513.59 394.942 513.59 381.477Z" fill="#9292EC"/>
<path d="M501.471 352.527C511.705 352.527 513.814 346.243 513.59 343.101C505.062 342.203 488.006 340.946 488.006 343.101C488.006 345.794 488.679 352.527 501.471 352.527Z" fill="#ECECEC"/>
<path d="M490.234 378.784C489.696 373.936 496.294 359.708 499.66 353.2C498.314 351.404 495.082 348.487 492.927 351.18C490.234 354.546 483.502 370.031 484.175 381.477C484.714 390.633 492.03 416.711 495.621 428.606L496.294 429.952C497.192 430.177 498.718 430.222 497.64 428.606C495.621 422.546 490.908 384.843 490.234 378.784Z" fill="#5E5EB4"/>
<path d="M501.473 352.526C495.548 349.833 494.964 344.223 495.413 341.754C492.945 339.959 488.007 337.714 488.007 343.1C488.007 349.833 495.413 353.199 501.473 352.526Z" fill="#6868C9"/>
<path d="M516.284 436.674C526.517 436.674 528.627 442.958 528.402 446.1C524.363 448.119 502.818 448.254 502.818 446.1C502.818 443.407 503.492 436.674 516.284 436.674Z" fill="#C9C9FF"/>
<path d="M508.203 447.447C508.203 441.522 513.141 437.796 515.609 436.674C504.837 436.674 502.593 442.958 502.817 446.1C503.491 446.549 505.51 447.447 508.203 447.447Z" fill="#6868C9"/>
<path d="M528.402 389.545C528.402 378.773 524.812 365.308 523.016 359.922C519.201 357.902 510.897 355.074 508.204 359.922C504.838 365.981 500.125 380.12 500.125 389.545C500.125 397.086 507.756 424.106 511.571 436.674C512.917 438.021 516.014 439.906 517.63 436.674C519.65 432.634 528.402 403.011 528.402 389.545Z" fill="#D1D1FF"/>
<path d="M516.284 360.595C526.517 360.595 528.627 354.311 528.402 351.17C519.874 350.272 502.818 349.015 502.818 351.17C502.818 353.863 503.492 360.595 516.284 360.595Z" fill="#C9C9FF"/>
<path d="M505.047 386.853C504.508 382.005 511.106 367.777 514.473 361.269C513.126 359.473 509.894 356.556 507.74 359.249C505.047 362.615 498.314 378.1 498.988 389.546C499.526 398.702 506.842 424.78 510.433 436.674L511.106 438.021C512.004 438.245 513.53 438.29 512.453 436.674C510.433 430.615 505.72 392.912 505.047 386.853Z" fill="#7474D1"/>
<path d="M515.148 360.595C509.224 357.902 508.64 352.291 509.089 349.823C506.62 348.027 501.683 345.783 501.683 351.169C501.683 357.902 509.089 361.268 515.148 360.595Z" fill="#6868C9"/>
<path d="M427.958 309.513L487.894 335.542L494.656 325.48L427.958 297.588V309.513Z" fill="#51518D"/>
<path d="M474.534 436.674C484.767 436.674 486.877 442.958 486.652 446.1C482.613 448.119 461.068 448.254 461.068 446.1C461.068 443.407 461.742 436.674 474.534 436.674Z" fill="#C9C9FF"/>
<path d="M466.453 447.447C466.453 441.522 471.391 437.797 473.859 436.675C463.087 436.675 460.843 442.958 461.067 446.1C461.741 446.549 463.76 447.447 466.453 447.447Z" fill="#6868C9"/>
<path d="M486.652 389.546C486.652 378.773 483.062 365.308 481.266 359.922C477.451 357.902 469.147 355.074 466.454 359.922C463.088 365.981 458.375 380.12 458.375 389.546C458.375 397.086 466.006 424.107 469.821 436.674C471.167 438.021 474.264 439.906 475.88 436.674C477.9 432.635 486.652 403.011 486.652 389.546Z" fill="#D1D1FF"/>
<path d="M474.534 360.595C484.767 360.595 486.877 354.312 486.652 351.17C478.124 350.272 461.068 349.015 461.068 351.17C461.068 353.863 461.742 360.595 474.534 360.595Z" fill="#C9C9FF"/>
<path d="M463.297 386.853C462.758 382.005 469.356 367.777 472.723 361.269C471.376 359.473 468.144 356.556 465.99 359.249C463.297 362.615 456.564 378.1 457.238 389.546C457.776 398.702 465.092 424.78 468.683 436.675L469.356 438.021C470.254 438.245 471.78 438.29 470.703 436.675C468.683 430.615 463.97 392.912 463.297 386.853Z" fill="#7474D1"/>
<path d="M473.398 360.595C467.474 357.902 466.89 352.291 467.339 349.823C464.87 348.027 459.933 345.783 459.933 351.169C459.933 357.902 467.339 361.268 473.398 360.595Z" fill="#6868C9"/>
<path d="M432.795 436.674C443.029 436.674 445.139 442.958 444.914 446.1C440.874 448.119 419.33 448.254 419.33 446.1C419.33 443.407 420.003 436.674 432.795 436.674Z" fill="#C9C9FF"/>
<path d="M424.715 447.447C424.715 441.522 429.652 437.796 432.121 436.674C421.349 436.674 419.105 442.958 419.329 446.1C420.002 446.549 422.022 447.447 424.715 447.447Z" fill="#6868C9"/>
<path d="M444.914 389.546C444.914 378.773 441.323 365.308 439.528 359.922C435.713 357.902 427.409 355.074 424.716 359.922C421.35 365.981 416.637 380.12 416.637 389.546C416.637 397.086 424.267 424.107 428.082 436.674C429.429 438.021 432.526 439.906 434.142 436.674C436.162 432.635 444.914 403.011 444.914 389.546Z" fill="#D1D1FF"/>
<path d="M432.795 360.595C443.029 360.595 445.139 354.311 444.914 351.17C436.386 350.272 419.33 349.015 419.33 351.17C419.33 353.863 420.003 360.595 432.795 360.595Z" fill="#C9C9FF"/>
<path d="M421.559 386.853C421.02 382.005 427.618 367.777 430.984 361.269C429.638 359.473 426.406 356.556 424.252 359.249C421.559 362.615 414.826 378.1 415.499 389.546C416.038 398.702 423.354 424.78 426.945 436.674L427.618 438.021C428.516 438.245 430.042 438.29 428.965 436.674C426.945 430.615 422.232 392.912 421.559 386.853Z" fill="#7474D1"/>
<path d="M431.664 360.595C425.739 357.902 425.156 352.291 425.605 349.823C423.136 348.027 418.199 345.783 418.199 351.169C418.199 357.902 425.605 361.268 431.664 360.595Z" fill="#6868C9"/>
<path d="M391.053 436.674C401.287 436.674 403.396 442.958 403.172 446.1C399.132 448.119 377.588 448.254 377.588 446.1C377.588 443.407 378.261 436.674 391.053 436.674Z" fill="#C9C9FF"/>
<path d="M382.973 447.447C382.973 441.522 387.91 437.796 390.379 436.674C379.607 436.674 377.362 442.958 377.587 446.1C378.26 446.549 380.28 447.447 382.973 447.447Z" fill="#6868C9"/>
<path d="M403.172 389.546C403.172 378.773 399.581 365.308 397.786 359.922C393.971 357.902 385.667 355.074 382.974 359.922C379.608 365.981 374.895 380.12 374.895 389.546C374.895 397.086 382.525 424.107 386.34 436.674C387.687 438.021 390.784 439.906 392.4 436.674C394.419 432.635 403.172 403.011 403.172 389.546Z" fill="#D1D1FF"/>
<path d="M391.053 360.595C401.287 360.595 403.396 354.311 403.172 351.17C394.644 350.272 377.588 349.015 377.588 351.17C377.588 353.863 378.261 360.595 391.053 360.595Z" fill="#C9C9FF"/>
<path d="M379.816 386.853C379.278 382.005 385.876 367.777 389.242 361.269C387.896 359.473 384.664 356.556 382.51 359.249C379.816 362.615 373.084 378.1 373.757 389.546C374.296 398.702 381.612 424.78 385.203 436.674L385.876 438.021C386.774 438.245 388.3 438.29 387.222 436.674C385.203 430.615 380.49 392.912 379.816 386.853Z" fill="#7474D1"/>
<path d="M389.922 360.595C383.997 357.902 383.414 352.291 383.862 349.823C381.394 348.027 376.457 345.783 376.457 351.169C376.457 357.902 383.862 361.268 389.922 360.595Z" fill="#6868C9"/>
<path d="M349.311 436.674C359.545 436.674 361.654 442.958 361.43 446.1C357.39 448.119 335.845 448.254 335.845 446.1C335.845 443.407 336.519 436.674 349.311 436.674Z" fill="#C9C9FF"/>
<path d="M341.231 447.447C341.231 441.522 346.168 437.796 348.637 436.674C337.864 436.674 335.62 442.958 335.845 446.1C336.518 446.549 338.538 447.447 341.231 447.447Z" fill="#6868C9"/>
<path d="M361.43 389.546C361.43 378.773 357.839 365.308 356.044 359.922C352.228 357.902 343.925 355.074 341.232 359.922C337.865 365.981 333.152 380.12 333.152 389.546C333.152 397.086 340.783 424.107 344.598 436.674C345.945 438.021 349.042 439.906 350.657 436.674C352.677 432.635 361.43 403.011 361.43 389.546Z" fill="#D1D1FF"/>
<path d="M349.311 360.595C359.545 360.595 361.654 354.311 361.43 351.17C352.902 350.272 335.845 349.015 335.845 351.17C335.845 353.863 336.519 360.595 349.311 360.595Z" fill="#C9C9FF"/>
<path d="M338.074 386.853C337.536 382.005 344.134 367.777 347.5 361.269C346.153 359.473 342.922 356.556 340.767 359.249C338.074 362.615 331.342 378.1 332.015 389.546C332.553 398.702 339.87 424.78 343.46 436.674L344.134 438.021C345.031 438.245 346.557 438.29 345.48 436.674C343.46 430.615 338.748 392.912 338.074 386.853Z" fill="#7474D1"/>
<path d="M348.176 360.595C342.251 357.902 341.668 352.291 342.116 349.823C339.648 348.027 334.71 345.783 334.71 351.169C334.71 357.902 342.116 361.268 348.176 360.595Z" fill="#6868C9"/>
<path d="M307.561 436.674C317.795 436.674 319.904 442.958 319.68 446.1C315.64 448.119 294.095 448.254 294.095 446.1C294.095 443.407 294.769 436.674 307.561 436.674Z" fill="#C9C9FF"/>
<path d="M299.481 447.447C299.481 441.522 304.418 437.796 306.887 436.674C296.114 436.674 293.87 442.958 294.095 446.1C294.768 446.549 296.788 447.447 299.481 447.447Z" fill="#6868C9"/>
<path d="M319.68 389.546C319.68 378.773 316.089 365.308 314.294 359.922C310.478 357.902 302.175 355.074 299.482 359.922C296.115 365.981 291.402 380.12 291.402 389.546C291.402 397.086 299.033 424.107 302.848 436.674C304.195 438.021 307.292 439.906 308.907 436.674C310.927 432.635 319.68 403.011 319.68 389.546Z" fill="#D1D1FF"/>
<path d="M307.561 360.595C317.795 360.595 319.904 354.311 319.68 351.17C311.152 350.272 294.095 349.015 294.095 351.17C294.095 353.863 294.769 360.595 307.561 360.595Z" fill="#C9C9FF"/>
<path d="M296.324 386.853C295.786 382.005 302.384 367.777 305.75 361.269C304.403 359.473 301.172 356.556 299.017 359.249C296.324 362.615 289.592 378.1 290.265 389.546C290.803 398.702 298.12 424.78 301.71 436.674L302.384 438.021C303.281 438.245 304.807 438.29 303.73 436.674C301.71 430.615 296.998 392.912 296.324 386.853Z" fill="#7474D1"/>
<path d="M306.43 360.595C300.505 357.902 299.921 352.291 300.37 349.823C297.902 348.027 292.964 345.783 292.964 351.169C292.964 357.902 300.37 361.268 306.43 360.595Z" fill="#6868C9"/>
<path d="M265.819 436.674C276.052 436.674 278.162 442.958 277.938 446.1C273.898 448.119 252.353 448.254 252.353 446.1C252.353 443.407 253.027 436.674 265.819 436.674Z" fill="#C9C9FF"/>
<path d="M257.739 447.447C257.739 441.522 262.676 437.796 265.145 436.674C254.372 436.674 252.128 442.958 252.352 446.1C253.026 446.549 255.046 447.447 257.739 447.447Z" fill="#6868C9"/>
<path d="M277.938 389.546C277.938 378.773 274.347 365.308 272.551 359.922C268.736 357.902 260.433 355.074 257.74 359.922C254.373 365.981 249.66 380.12 249.66 389.546C249.66 397.086 257.291 424.107 261.106 436.674C262.452 438.021 265.549 439.906 267.165 436.674C269.185 432.635 277.938 403.011 277.938 389.546Z" fill="#D1D1FF"/>
<path d="M265.819 360.595C276.052 360.595 278.162 354.312 277.938 351.17C269.409 350.272 252.353 349.015 252.353 351.17C252.353 353.863 253.027 360.595 265.819 360.595Z" fill="#C9C9FF"/>
<path d="M254.582 386.853C254.043 382.005 260.641 367.777 264.008 361.269C262.661 359.473 259.43 356.556 257.275 359.249C254.582 362.615 247.849 378.1 248.523 389.546C249.061 398.702 256.377 424.78 259.968 436.675L260.641 438.021C261.539 438.245 263.065 438.29 261.988 436.675C259.968 430.615 255.255 392.912 254.582 386.853Z" fill="#7474D1"/>
<path d="M264.688 360.595C258.763 357.902 258.179 352.291 258.628 349.823C256.159 348.027 251.222 345.783 251.222 351.169C251.222 357.902 258.628 361.268 264.688 360.595Z" fill="#6868C9"/>
<path d="M147.327 411.101C157.56 411.101 159.67 417.385 159.445 420.527C155.406 422.546 133.861 422.681 133.861 420.527C133.861 417.834 134.534 411.101 147.327 411.101Z" fill="#B6B6FF"/>
<path d="M139.246 421.873C139.246 415.949 144.184 412.223 146.652 411.101C135.88 411.101 133.636 417.385 133.86 420.527C134.534 420.976 136.553 421.873 139.246 421.873Z" fill="#5E5EB4"/>
<path d="M159.445 363.972C159.445 353.2 155.855 339.735 154.059 334.349C150.244 332.329 141.94 329.501 139.247 334.349C135.881 340.408 131.168 354.547 131.168 363.972C131.168 371.513 138.798 398.533 142.614 411.101C143.96 412.447 147.057 414.333 148.673 411.101C150.693 407.061 159.445 377.438 159.445 363.972Z" fill="#9292EC"/>
<path d="M147.327 335.022C157.56 335.022 159.67 328.738 159.445 325.596C150.917 324.699 133.861 323.442 133.861 325.596C133.861 328.289 134.534 335.022 147.327 335.022Z" fill="#B6B6FF"/>
<path d="M136.09 361.279C135.551 356.432 142.149 342.204 145.516 335.695C144.169 333.9 140.937 330.982 138.783 333.675C136.09 337.042 129.357 352.527 130.03 363.972C130.569 373.129 137.885 399.207 141.476 411.101L142.149 412.448C143.047 412.672 144.573 412.717 143.496 411.101C141.476 405.042 136.763 367.339 136.09 361.279Z" fill="#5E5EB4"/>
<path d="M146.195 335.022C140.271 332.329 139.687 326.718 140.136 324.249C137.667 322.454 132.73 320.21 132.73 325.596C132.73 332.329 140.136 335.695 146.195 335.022Z" fill="#5E5EB4"/>
<path d="M170.217 421.873C180.451 421.873 182.56 428.157 182.336 431.299C178.296 433.318 156.752 433.453 156.752 431.299C156.752 428.605 157.425 421.873 170.217 421.873Z" fill="#B6B6FF"/>
<path d="M162.137 432.645C162.137 426.721 167.074 422.995 169.543 421.873C158.771 421.873 156.526 428.157 156.751 431.299C157.424 431.748 159.444 432.645 162.137 432.645Z" fill="#5E5EB4"/>
<path d="M182.336 374.744C182.336 363.972 178.745 350.507 176.95 345.121C173.135 343.101 164.831 340.273 162.138 345.121C158.772 351.18 154.059 365.319 154.059 374.744C154.059 382.285 161.689 409.305 165.504 421.873C166.851 423.219 169.948 425.105 171.564 421.873C173.583 417.833 182.336 388.21 182.336 374.744Z" fill="#9292EC"/>
<path d="M170.217 345.794C180.451 345.794 182.56 339.51 182.336 336.368C173.808 335.471 156.752 334.214 156.752 336.368C156.752 339.061 157.425 345.794 170.217 345.794Z" fill="#B6B6FF"/>
<path d="M158.981 372.052C158.442 367.204 165.04 352.976 168.406 346.467C167.06 344.672 163.828 341.755 161.674 344.448C158.981 347.814 152.248 363.299 152.921 374.745C153.46 383.901 160.776 409.979 164.367 421.873L165.04 423.22C165.938 423.444 167.464 423.489 166.386 421.873C164.367 415.814 159.654 378.111 158.981 372.052Z" fill="#5E5EB4"/>
<path d="M169.086 345.794C163.161 343.101 162.578 337.49 163.027 335.021C160.558 333.226 155.621 330.982 155.621 336.368C155.621 343.101 163.027 346.467 169.086 345.794Z" fill="#5E5EB4"/>
<path d="M195.799 432.645C206.033 432.645 208.142 438.929 207.918 442.071C203.878 444.09 182.334 444.225 182.334 442.071C182.334 439.378 183.007 432.645 195.799 432.645Z" fill="#B6B6FF"/>
<path d="M187.719 443.418C187.719 437.493 192.656 433.767 195.125 432.645C184.353 432.645 182.109 438.929 182.333 442.071C183.006 442.52 185.026 443.418 187.719 443.418Z" fill="#5E5EB4"/>
<path d="M207.918 385.517C207.918 374.744 204.327 361.279 202.532 355.893C198.717 353.873 190.413 351.045 187.72 355.893C184.354 361.952 179.641 376.091 179.641 385.517C179.641 393.057 187.271 420.078 191.086 432.645C192.433 433.992 195.53 435.877 197.146 432.645C199.166 428.606 207.918 398.982 207.918 385.517Z" fill="#9292EC"/>
<path d="M195.799 356.566C206.033 356.566 208.142 350.283 207.918 347.141C199.39 346.243 182.334 344.986 182.334 347.141C182.334 349.834 183.007 356.566 195.799 356.566Z" fill="#B6B6FF"/>
<path d="M185.699 382.824C185.161 377.976 191.759 363.748 195.125 357.24C193.778 355.444 190.547 352.527 188.392 355.22C185.699 358.586 178.967 374.071 179.64 385.517C180.178 394.673 187.495 420.751 191.085 432.645L191.759 433.992C192.656 434.216 194.182 434.261 193.105 432.645C191.085 426.586 186.373 388.883 185.699 382.824Z" fill="#5E5EB4"/>
<path d="M195.801 356.566C189.876 353.873 189.293 348.262 189.741 345.794C187.273 343.998 182.335 341.754 182.335 347.14C182.335 353.873 189.741 357.239 195.801 356.566Z" fill="#5E5EB4"/>
<path d="M224.084 436.674C234.318 436.674 236.428 442.958 236.203 446.1C232.163 448.119 210.619 448.254 210.619 446.1C210.619 443.407 211.292 436.674 224.084 436.674Z" fill="#C9C9FF"/>
<path d="M216.004 447.446C216.004 441.522 220.942 437.796 223.41 436.674C212.638 436.674 210.394 442.958 210.618 446.1C211.291 446.549 213.311 447.446 216.004 447.446Z" fill="#6868C9"/>
<path d="M236.203 389.545C236.203 378.773 232.612 365.308 230.817 359.922C227.002 357.902 218.698 355.074 216.005 359.922C212.639 365.981 207.926 380.12 207.926 389.545C207.926 397.086 215.556 424.106 219.371 436.674C220.718 438.02 223.815 439.906 225.431 436.674C227.451 432.634 236.203 403.011 236.203 389.545Z" fill="#D1D1FF"/>
<path d="M224.084 360.595C234.318 360.595 236.428 354.311 236.203 351.169C227.675 350.272 210.619 349.015 210.619 351.169C210.619 353.863 211.292 360.595 224.084 360.595Z" fill="#C9C9FF"/>
<path d="M212.848 386.853C212.309 382.005 218.907 367.777 222.273 361.268C220.927 359.473 217.695 356.556 215.541 359.249C212.848 362.615 206.115 378.1 206.788 389.546C207.327 398.702 214.643 424.78 218.234 436.674L218.907 438.021C219.805 438.245 221.331 438.29 220.254 436.674C218.234 430.615 213.521 392.912 212.848 386.853Z" fill="#7474D1"/>
<path d="M222.949 360.595C217.024 357.902 216.441 352.291 216.89 349.823C214.421 348.027 209.484 345.783 209.484 351.169C209.484 357.902 216.89 361.268 222.949 360.595Z" fill="#6868C9"/>
<path d="M120.868 315.409L201.674 351.827L211.074 339.744L119.394 300.178L120.868 315.409Z" fill="#51518D"/>
<path d="M452.71 297.588L544.578 334.365L535.152 339.082L204.574 337.061L118.905 300.496L113.009 297.721H141.015L209.287 324.258L491.389 324.258L427.926 297.588H452.71Z" fill="white"/>
<path d="M544.578 334.126H198.331L201.699 351.827H535.147L544.578 334.126Z" fill="#6868C9"/>
<path d="M4.69922 300.362H121.277L131.65 296.769H4.69922V300.362Z" fill="url(#paint6_linear)"/>
<path d="M578.082 300.992H460.65L451.005 297.588H577.388L578.082 300.992Z" fill="url(#paint7_linear)"/>
<path d="M395.374 200.957C394.625 202.154 393.352 204.55 394.251 204.55C395.374 204.55 397.624 202.753 395.374 200.957Z" fill="#6D6DF6"/>
<path d="M402.663 185.322C402.981 186.377 403.734 188.345 404.201 187.774C404.785 187.061 404.893 184.764 402.663 185.322Z" fill="#6D6DF6"/>
<path d="M392.263 208.143C391.889 209.34 391.252 211.736 391.701 211.736C392.263 211.736 393.388 209.939 392.263 208.143Z" fill="#6D6DF6"/>
<path d="M386.012 214.409C385.042 215.043 383.269 216.388 383.938 216.698C384.775 217.085 387.069 216.522 386.012 214.409Z" fill="#6D6DF6"/>
<path d="M378.956 219.827C377.861 220.209 375.816 221.087 376.391 221.549C377.11 222.126 379.472 222.132 378.956 219.827Z" fill="#6D6DF6"/>
<path d="M371.268 220.824C370.174 221.206 368.129 222.084 368.704 222.546C369.423 223.123 371.785 223.129 371.268 220.824Z" fill="#6D6DF6"/>
<path d="M363.699 226.183C362.541 226.153 360.317 226.253 360.692 226.888C361.161 227.682 363.369 228.522 363.699 226.183Z" fill="#6D6DF6"/>
<path d="M357.883 225.031C356.724 225.002 354.501 225.102 354.876 225.737C355.345 226.531 357.552 227.37 357.883 225.031Z" fill="#6D6DF6"/>
<path d="M350.02 227.979C348.861 227.95 346.637 228.05 347.012 228.685C347.481 229.479 349.689 230.318 350.02 227.979Z" fill="#6D6DF6"/>
<path d="M343.196 226.068C342.339 225.288 340.592 223.908 340.46 224.634C340.295 225.541 341.416 227.62 343.196 226.068Z" fill="#6D6DF6"/>
<defs>
<linearGradient id="paint0_linear" x1="159.197" y1="125.75" x2="49.1328" y2="125.75" gradientUnits="userSpaceOnUse">
<stop offset="0.109375" stop-color="#E0E0FF"/>
<stop offset="1" stop-color="#E0E0E0" stop-opacity="0"/>
</linearGradient>
<linearGradient id="paint1_linear" x1="110.064" y1="307.651" x2="6.89214e-07" y2="307.651" gradientUnits="userSpaceOnUse">
<stop offset="0.109375" stop-color="#E0E0FF"/>
<stop offset="1" stop-color="#E0E0E0" stop-opacity="0"/>
</linearGradient>
<linearGradient id="paint2_linear" x1="469.936" y1="308.47" x2="580" y2="308.47" gradientUnits="userSpaceOnUse">
<stop offset="0.109375" stop-color="#E0E0FF"/>
<stop offset="1" stop-color="#E0E0E0" stop-opacity="0"/>
</linearGradient>
<linearGradient id="paint3_linear" x1="115.433" y1="8.84407" x2="7.22834e-07" y2="8.84408" gradientUnits="userSpaceOnUse">
<stop offset="0.109375" stop-color="#E0E0FF"/>
<stop offset="1" stop-color="#E0E0E0" stop-opacity="0"/>
</linearGradient>
<linearGradient id="paint4_linear" x1="49.1328" y1="103.149" x2="191.665" y2="103.149" gradientUnits="userSpaceOnUse">
<stop stop-color="#C4C4C4" stop-opacity="0"/>
<stop offset="0.661458" stop-color="white"/>
</linearGradient>
<linearGradient id="paint5_linear" x1="0" y1="12.775" x2="142.532" y2="12.775" gradientUnits="userSpaceOnUse">
<stop stop-color="#C4C4C4" stop-opacity="0"/>
<stop offset="0.661458" stop-color="white"/>
</linearGradient>
<linearGradient id="paint6_linear" x1="111.891" y1="300.362" x2="5.19319" y2="300.362" gradientUnits="userSpaceOnUse">
<stop stop-color="white"/>
<stop offset="1" stop-color="white" stop-opacity="0"/>
</linearGradient>
<linearGradient id="paint7_linear" x1="470.196" y1="301.181" x2="576.894" y2="301.181" gradientUnits="userSpaceOnUse">
<stop stop-color="white"/>
<stop offset="1" stop-color="white" stop-opacity="0"/>
</linearGradient>
</defs>
</svg>
