<svg width="38" height="75" viewBox="0 0 38 75" fill="none" xmlns="http://www.w3.org/2000/svg">
<path fill-rule="evenodd" clip-rule="evenodd" d="M32.4425 33.0363C29.7231 35.8064 20.1875 43.3203 20.1875 52.0179V55.6502C20.1875 59.3397 23.2038 61.7661 24.035 62.6129C25.3294 63.9194 26.125 65.7339 26.125 67.7419C26.125 71.746 22.9425 75 19 75C15.0575 75 11.875 71.746 11.875 67.7419C11.875 65.7339 12.6706 63.9194 13.9531 62.6129C14.7963 61.7661 17.8125 59.3397 17.8125 55.6502C17.8125 51.9607 17.8125 52.0179 17.8125 52.0179C17.8125 43.3203 8.27687 35.8064 5.5575 33.0363C2.12562 29.5403 0 24.7016 0 19.3548C0 8.66129 8.49062 0.0120968 19 0C29.5094 0.0120968 38 8.66129 38 19.3548C38 24.7016 35.8744 29.5403 32.4425 33.0363Z" fill="#6D6DF6"/>
</svg>
