<svg width="133" height="56" viewBox="0 0 133 56" fill="none" xmlns="http://www.w3.org/2000/svg">
    <path d="M100.901 4.22336C99.7131 2.69439 93.0171 3.50096 90.0117 3.85865C89.096 3.97087 88.9563 3.17132 89.781 2.5962C95.114 -1.1701 103.865 -0.0829929 104.885 1.17945C105.906 2.44892 104.62 11.251 99.6082 15.4521C98.8394 16.0974 98.1055 15.7537 98.448 14.8981C99.5733 12.0786 102.096 5.75934 100.901 4.22336Z" fill="white"/>
    <path d="M75.9194 49.0602C72.1335 52.6425 66.5518 54.6637 61.6986 54.8134C54.8936 55.0233 48.6768 52.1721 43.8914 47.2587C43.5154 46.8723 43.8255 46.3203 44.2717 46.6165C49.3782 49.9774 55.6257 51.9014 62.0141 51.7044C66.3226 51.5715 71.0301 50.3486 75.3215 47.9798C75.9698 47.6217 76.5459 48.4633 75.9194 49.0602Z" fill="white"/>
    <path d="M6.81116 24.3989C7.80791 24.3989 8.686 24.6082 9.44544 25.0267C10.2049 25.4452 10.7903 26.0408 11.2016 26.8134C11.6288 27.5699 11.8424 28.4472 11.8424 29.4451C11.8424 30.427 11.6288 31.2962 11.2016 32.0527C10.7744 32.8093 10.1653 33.3968 9.37424 33.8153C8.59899 34.2177 7.69716 34.4189 6.66876 34.4189H2.89533C2.80041 34.4189 2.75294 34.4672 2.75294 34.5638V40.9379C2.75294 41.1955 2.62637 41.3242 2.37323 41.3242H0.379716C0.126572 41.3242 0 41.1955 0 40.9379V24.7852C0 24.5277 0.126572 24.3989 0.379716 24.3989H6.81116ZM6.40771 32.1493C7.2146 32.1493 7.86329 31.9079 8.35375 31.425C8.84422 30.9421 9.08945 30.3063 9.08945 29.5176C9.08945 28.7127 8.84422 28.0608 8.35375 27.5619C7.86329 27.0629 7.2146 26.8134 6.40771 26.8134H2.89533C2.80041 26.8134 2.75294 26.8617 2.75294 26.9582V32.0044C2.75294 32.101 2.80041 32.1493 2.89533 32.1493H6.40771Z" fill="white"/>
    <path d="M19.6438 28.8415C20.1026 28.8415 20.5219 28.93 20.9016 29.1071C21.0915 29.2037 21.1627 29.3647 21.1152 29.59L20.7355 31.594C20.7197 31.7228 20.6722 31.8032 20.5931 31.8354C20.5298 31.8676 20.427 31.8676 20.2846 31.8354C20.0947 31.7711 19.8416 31.7389 19.5252 31.7389C19.3353 31.7389 19.185 31.7469 19.0742 31.763C18.4097 31.7952 17.856 32.0366 17.413 32.4873C16.97 32.9219 16.7485 33.4934 16.7485 34.2016V40.9379C16.7485 41.1955 16.6219 41.3242 16.3688 41.3242H14.3753C14.1221 41.3242 13.9955 41.1955 13.9955 40.9379V29.3727C13.9955 29.1152 14.1221 28.9864 14.3753 28.9864H16.3688C16.6219 28.9864 16.7485 29.1152 16.7485 29.3727V30.3143C16.7485 30.3787 16.7643 30.419 16.7959 30.4351C16.8276 30.4512 16.8592 30.427 16.8909 30.3626C17.5554 29.3486 18.473 28.8415 19.6438 28.8415Z" fill="white"/>
    <path d="M27.8602 41.5174C26.6103 41.5174 25.5344 41.1955 24.6326 40.5516C23.7308 39.9077 23.1058 39.0144 22.7577 37.8716C22.4888 37.0828 22.3543 36.1654 22.3543 35.1191C22.3543 34.0889 22.4809 33.1714 22.734 32.3666C23.0979 31.2399 23.7308 30.3626 24.6326 29.7349C25.5344 29.1071 26.6182 28.7932 27.8839 28.7932C29.0863 28.7932 30.1227 29.1071 30.9928 29.7349C31.8788 30.3626 32.5038 31.2318 32.8677 32.3425C33.1525 33.1151 33.2949 34.0326 33.2949 35.0949C33.2949 36.109 33.1604 37.0265 32.8914 37.8474C32.5275 38.9903 31.9026 39.8917 31.0166 40.5516C30.1306 41.1955 29.0784 41.5174 27.8602 41.5174ZM27.8602 39.1029C28.4456 39.1029 28.9439 38.9339 29.3553 38.5959C29.7825 38.2579 30.0831 37.783 30.2571 37.1714C30.4312 36.6563 30.5182 35.9802 30.5182 35.1432C30.5182 34.3545 30.4391 33.6785 30.2809 33.1151C30.1068 32.5034 29.7983 32.0366 29.3553 31.7147C28.9281 31.3767 28.4139 31.2077 27.8127 31.2077C27.2115 31.2077 26.6973 31.3767 26.2701 31.7147C25.8429 32.0366 25.5423 32.5034 25.3683 33.1151C25.2101 33.6785 25.131 34.3545 25.131 35.1432C25.131 35.932 25.2101 36.608 25.3683 37.1714C25.5423 37.783 25.8429 38.2579 26.2701 38.5959C26.7131 38.9339 27.2431 39.1029 27.8602 39.1029Z" fill="white"/>
    <path d="M42.1147 28.9622C42.3679 28.9622 42.4944 29.091 42.4944 29.3486V31.0628C42.4944 31.3204 42.3679 31.4491 42.1147 31.4491H39.8839C39.789 31.4491 39.7415 31.4974 39.7415 31.594V40.9379C39.7415 41.1955 39.6149 41.3242 39.3618 41.3242H37.3683C37.1151 41.3242 36.9886 41.1955 36.9886 40.9379V31.594C36.9886 31.4974 36.9411 31.4491 36.8462 31.4491H35.4934C35.2403 31.4491 35.1137 31.3204 35.1137 31.0628V29.3486C35.1137 29.091 35.2403 28.9622 35.4934 28.9622H36.8462C36.9411 28.9622 36.9886 28.914 36.9886 28.8174V28.4069C36.9886 27.3607 37.123 26.5558 37.392 25.9925C37.661 25.413 38.104 25.0025 38.721 24.7611C39.3381 24.5197 40.2082 24.407 41.3316 24.4231H42.0673C42.3204 24.4231 42.447 24.5518 42.447 24.8094V26.3063C42.447 26.5639 42.3204 26.6927 42.0673 26.6927H41.5452C40.8648 26.6927 40.3902 26.8295 40.1212 27.1031C39.8681 27.3768 39.7415 27.8757 39.7415 28.6001V28.8174C39.7415 28.914 39.789 28.9622 39.8839 28.9622H42.1147ZM46.3865 27.4411C45.8644 27.4411 45.4372 27.2802 45.105 26.9582C44.7727 26.6202 44.6066 26.1937 44.6066 25.6786C44.6066 25.1635 44.7727 24.745 45.105 24.4231C45.4372 24.1011 45.8644 23.9402 46.3865 23.9402C46.9086 23.9402 47.3279 24.1011 47.6443 24.4231C47.9766 24.745 48.1427 25.1635 48.1427 25.6786C48.1427 26.1937 47.9766 26.6202 47.6443 26.9582C47.3279 27.2802 46.9086 27.4411 46.3865 27.4411ZM45.3898 41.3242C45.1366 41.3242 45.0101 41.1955 45.0101 40.9379V29.3727C45.0101 29.1152 45.1366 28.9864 45.3898 28.9864H47.3833C47.6364 28.9864 47.763 29.1152 47.763 29.3727V40.9379C47.763 41.1955 47.6364 41.3242 47.3833 41.3242H45.3898Z" fill="white"/>
    <path d="M57.3 30.8697C57.3 31.1272 57.1735 31.256 56.9203 31.256H54.6183C54.5234 31.256 54.4759 31.3043 54.4759 31.4008V37.0989C54.4759 37.7267 54.6025 38.1774 54.8556 38.451C55.1246 38.7247 55.5438 38.8615 56.1134 38.8615H56.7305C56.9836 38.8615 57.1102 38.9903 57.1102 39.2478V40.8655C57.1102 41.123 56.9836 41.2598 56.7305 41.2759L55.5913 41.3001C54.3414 41.3001 53.4079 41.0828 52.7909 40.6482C52.1739 40.1975 51.8574 39.3685 51.8416 38.1613V31.4008C51.8416 31.3043 51.7941 31.256 51.6992 31.256H50.4651C50.212 31.256 50.0854 31.1272 50.0854 30.8697V29.3727C50.0854 29.1152 50.212 28.9864 50.4651 28.9864H51.6992C51.7941 28.9864 51.8416 28.9381 51.8416 28.8415V26.1373C51.8416 25.8798 51.9682 25.751 52.2213 25.751H54.0962C54.3493 25.751 54.4759 25.8798 54.4759 26.1373V28.8415C54.4759 28.9381 54.5234 28.9864 54.6183 28.9864H56.9203C57.1735 28.9864 57.3 29.1152 57.3 29.3727V30.8697Z" fill="white"/>
    <path d="M63.732 41.3242C63.558 41.3242 63.4472 41.2357 63.3998 41.0586L58.8907 24.7852L58.8669 24.6887C58.8669 24.5116 58.9618 24.4231 59.1517 24.4231H60.3146C60.4886 24.4231 60.5994 24.5116 60.6468 24.6887L64.2067 37.775C64.2225 37.8233 64.2462 37.8474 64.2779 37.8474C64.3095 37.8474 64.3332 37.8233 64.3491 37.775L67.6716 24.6887C67.719 24.5116 67.8377 24.4231 68.0276 24.4231H69.1667C69.3408 24.4231 69.4515 24.5116 69.499 24.6887L72.9639 37.7991C72.9797 37.8474 73.0034 37.8716 73.0351 37.8716C73.0667 37.8716 73.0904 37.8474 73.1063 37.7991L76.6661 24.6887C76.7136 24.5116 76.8243 24.4231 76.9984 24.4231H78.09C78.2008 24.4231 78.2799 24.4553 78.3274 24.5197C78.3748 24.584 78.3827 24.6726 78.3511 24.7852L73.9132 41.0586C73.8657 41.2357 73.755 41.3242 73.5809 41.3242H72.4418C72.2519 41.3242 72.1332 41.2357 72.0858 41.0586L68.6683 27.6343C68.6525 27.586 68.6288 27.5619 68.5971 27.5619C68.5655 27.5619 68.5418 27.586 68.5259 27.6343L65.156 41.0586C65.1085 41.2357 64.9898 41.3242 64.8 41.3242H63.732Z" fill="white"/>
    <path d="M85.8522 28.9381C87.1021 28.9381 88.0988 29.3164 88.8424 30.0729C89.6019 30.8294 89.9816 31.8435 89.9816 33.1151V41.0103C89.9816 41.2196 89.8787 41.3242 89.673 41.3242H88.6051C88.3994 41.3242 88.2966 41.2196 88.2966 41.0103V33.4531C88.2966 32.5517 88.0355 31.8274 87.5134 31.2801C86.9913 30.7167 86.311 30.4351 85.4724 30.4351C84.6655 30.4351 83.9931 30.6685 83.4552 31.1352C82.9331 31.602 82.6325 32.2137 82.5534 32.9702V41.0103C82.5534 41.2196 82.4505 41.3242 82.2449 41.3242H81.1769C80.9712 41.3242 80.8684 41.2196 80.8684 41.0103V24.737C80.8684 24.5277 80.9712 24.4231 81.1769 24.4231H82.2449C82.4505 24.4231 82.5534 24.5277 82.5534 24.737V30.3143C82.5534 30.3626 82.5692 30.4029 82.6008 30.4351C82.6325 30.4512 82.6562 30.4351 82.672 30.3868C83.3682 29.421 84.4282 28.9381 85.8522 28.9381Z" fill="white"/>
    <path d="M97.8147 28.914C99.2386 28.914 100.338 29.2842 101.113 30.0246C101.905 30.765 102.3 31.7469 102.3 32.9702V41.0103C102.3 41.2196 102.197 41.3242 101.992 41.3242H100.924C100.718 41.3242 100.615 41.2196 100.615 41.0103V40.1411C100.615 40.0929 100.599 40.0607 100.568 40.0446C100.536 40.0285 100.504 40.0446 100.473 40.0929C100.046 40.5597 99.5076 40.9138 98.8589 41.1552C98.2261 41.3967 97.5299 41.5174 96.7705 41.5174C95.663 41.5174 94.7295 41.2276 93.9701 40.6482C93.2265 40.0687 92.8547 39.1834 92.8547 37.9923C92.8547 36.7851 93.2818 35.8354 94.1362 35.1432C95.0064 34.435 96.2088 34.0809 97.7435 34.0809H100.496C100.576 34.0809 100.615 34.0406 100.615 33.9602V33.0668C100.615 32.2459 100.386 31.602 99.9269 31.1352C99.4839 30.6524 98.7877 30.4109 97.8384 30.4109C97.0948 30.4109 96.4857 30.5558 96.011 30.8455C95.5364 31.1352 95.2358 31.5377 95.1092 32.0527C95.0618 32.2459 94.9431 32.3264 94.7532 32.2942L93.5903 32.1493C93.3847 32.1171 93.2897 32.0286 93.3056 31.8837C93.4638 30.9984 93.9463 30.2821 94.7532 29.7349C95.576 29.1876 96.5964 28.914 97.8147 28.914ZM97.1502 40.0446C98.0837 40.0446 98.8906 39.8112 99.5709 39.3444C100.267 38.8615 100.615 38.2176 100.615 37.4128V35.5537C100.615 35.4732 100.576 35.433 100.496 35.433H98.0045C96.9603 35.433 96.1218 35.6503 95.4889 36.0849C94.8561 36.5195 94.5396 37.1231 94.5396 37.8957C94.5396 38.6039 94.7849 39.1432 95.2753 39.5134C95.7658 39.8675 96.3908 40.0446 97.1502 40.0446Z" fill="white"/>
    <path d="M106.091 41.3242C105.885 41.3242 105.783 41.2196 105.783 41.0103V24.737C105.783 24.5277 105.885 24.4231 106.091 24.4231H107.159C107.365 24.4231 107.468 24.5277 107.468 24.737V41.0103C107.468 41.2196 107.365 41.3242 107.159 41.3242H106.091Z" fill="white"/>
    <path d="M115.974 40.0446C116.686 40.0285 117.295 39.8675 117.801 39.5617C118.323 39.2398 118.727 38.7971 119.011 38.2337C119.043 38.1532 119.098 38.0969 119.178 38.0647C119.257 38.0325 119.336 38.0406 119.415 38.0889L120.103 38.4752C120.293 38.5878 120.34 38.7247 120.246 38.8856C119.866 39.6904 119.296 40.3343 118.537 40.8172C117.777 41.284 116.876 41.5174 115.831 41.5174C114.724 41.5174 113.79 41.2518 113.031 40.7206C112.272 40.1894 111.726 39.449 111.393 38.4993C111.093 37.6945 110.943 36.5839 110.943 35.1674C110.943 34.4752 110.95 33.928 110.966 33.5256C110.998 33.107 111.061 32.7207 111.156 32.3666C111.425 31.3204 111.963 30.4833 112.77 29.8556C113.593 29.2278 114.581 28.914 115.736 28.914C117.113 28.914 118.189 29.2761 118.964 30.0005C119.755 30.7248 120.261 31.7469 120.483 33.0668C120.578 33.5819 120.625 34.3867 120.625 35.4813C120.625 35.6905 120.522 35.7951 120.317 35.7951H112.722C112.643 35.7951 112.604 35.8354 112.604 35.9159C112.604 36.7207 112.651 37.3082 112.746 37.6784C112.92 38.4027 113.284 38.9822 113.838 39.4168C114.407 39.8353 115.119 40.0446 115.974 40.0446ZM115.736 30.4109C114.945 30.4109 114.297 30.6202 113.79 31.0387C113.284 31.4411 112.952 31.9884 112.794 32.6805C112.699 33.0024 112.635 33.5497 112.604 34.3223C112.604 34.4028 112.643 34.443 112.722 34.443H118.822C118.901 34.443 118.94 34.4028 118.94 34.3223C118.909 33.6141 118.861 33.099 118.798 32.7771C118.624 32.0527 118.268 31.4813 117.73 31.0628C117.208 30.6282 116.543 30.4109 115.736 30.4109Z" fill="white"/>
    <path d="M127.915 41.4449C127.029 41.4449 126.238 41.3001 125.542 41.0103C124.862 40.7206 124.332 40.3343 123.952 39.8514C123.588 39.3685 123.406 38.8293 123.406 38.2337V38.0164C123.406 37.8072 123.509 37.7026 123.715 37.7026H124.735C124.83 37.7026 124.901 37.7267 124.949 37.775C125.012 37.8072 125.044 37.8555 125.044 37.9199V38.1372C125.044 38.6683 125.313 39.1351 125.851 39.5375C126.389 39.9238 127.069 40.117 127.892 40.117C128.714 40.117 129.379 39.9319 129.885 39.5617C130.391 39.1754 130.645 38.6925 130.645 38.113C130.645 37.7106 130.518 37.3806 130.265 37.1231C130.012 36.8655 129.703 36.6643 129.339 36.5195C128.975 36.3746 128.43 36.1895 127.702 35.9641C126.816 35.7066 126.088 35.4491 125.518 35.1915C124.949 34.934 124.466 34.5799 124.071 34.1292C123.675 33.6624 123.477 33.0749 123.477 32.3666C123.477 31.3365 123.873 30.5155 124.664 29.9039C125.471 29.2922 126.523 28.9864 127.82 28.9864C128.691 28.9864 129.458 29.1313 130.122 29.421C130.803 29.7107 131.325 30.1131 131.689 30.6282C132.053 31.1272 132.235 31.6906 132.235 32.3183C132.235 32.5276 132.132 32.6322 131.926 32.6322H130.953C130.747 32.6322 130.645 32.5759 130.645 32.4632V32.3183C130.645 31.7711 130.383 31.3123 129.861 30.9421C129.355 30.5719 128.667 30.3868 127.797 30.3868C126.99 30.3868 126.341 30.5558 125.851 30.8938C125.36 31.2157 125.115 31.6664 125.115 32.2459C125.115 32.7932 125.344 33.2117 125.803 33.5014C126.278 33.7911 127.014 34.0809 128.01 34.3706C128.928 34.6282 129.672 34.8776 130.241 35.1191C130.811 35.3605 131.301 35.7147 131.712 36.1814C132.124 36.6482 132.33 37.2519 132.33 37.9923C132.33 39.0385 131.926 39.8756 131.119 40.5033C130.328 41.1311 129.26 41.4449 127.915 41.4449Z" fill="white"/>
    <g opacity="0.5">
        <path d="M35.9835 16.0291C35.2477 16.0291 34.6027 15.9111 34.0483 15.6751C33.504 15.4391 33.0807 15.1057 32.7783 14.6747C32.486 14.2335 32.3398 13.7256 32.3398 13.151V12.72C32.3398 12.5866 32.4054 12.5199 32.5364 12.5199H33.1865C33.3175 12.5199 33.3831 12.5866 33.3831 12.72V13.0894C33.3831 13.6743 33.625 14.1514 34.1088 14.5208C34.5926 14.8902 35.2427 15.0749 36.0591 15.0749C36.8352 15.0749 37.4249 14.9107 37.828 14.5824C38.2312 14.2438 38.4328 13.7974 38.4328 13.2433C38.4328 12.8842 38.337 12.5764 38.1455 12.3199C37.9641 12.0633 37.6819 11.8222 37.2989 11.5965C36.9159 11.3707 36.3665 11.1091 35.6509 10.8115C34.895 10.5037 34.3053 10.2369 33.882 10.0112C33.4687 9.77517 33.1311 9.47761 32.869 9.11848C32.617 8.74909 32.491 8.28736 32.491 7.73328C32.491 6.87137 32.7833 6.20442 33.3679 5.73242C33.9626 5.25016 34.779 5.00903 35.8172 5.00903C36.9259 5.00903 37.8028 5.27581 38.4479 5.80938C39.093 6.34294 39.4155 7.05093 39.4155 7.93336V8.22579C39.4155 8.35918 39.35 8.42588 39.219 8.42588H38.5538C38.4227 8.42588 38.3572 8.35918 38.3572 8.22579V7.99493C38.3572 7.3998 38.1304 6.91241 37.6768 6.53276C37.2233 6.15311 36.5832 5.96329 35.7567 5.96329C35.0411 5.96329 34.4918 6.11207 34.1088 6.40963C33.7358 6.7072 33.5494 7.13815 33.5494 7.70249C33.5494 8.07188 33.6401 8.37971 33.8215 8.62597C34.013 8.86196 34.2801 9.07231 34.6228 9.257C34.9756 9.43144 35.5098 9.66231 36.2254 9.94961C36.9612 10.2574 37.5559 10.5447 38.0095 10.8115C38.463 11.0783 38.8259 11.4066 39.098 11.7966C39.3702 12.1762 39.5062 12.6431 39.5062 13.1972C39.5062 14.0488 39.1938 14.7363 38.5689 15.2596C37.954 15.7726 37.0922 16.0291 35.9835 16.0291Z" fill="#F3F7FD"/>
        <path d="M44.4795 16.0291C43.7437 16.0291 43.1137 15.8393 42.5896 15.4597C42.0755 15.08 41.7177 14.5567 41.5161 13.8898C41.375 13.4178 41.3045 12.7867 41.3045 11.9966C41.3045 11.2168 41.37 10.5909 41.501 10.1189C41.7026 9.46222 42.0604 8.94405 42.5745 8.5644C43.0986 8.18475 43.7336 7.99493 44.4795 7.99493C45.2052 7.99493 45.825 8.18475 46.3391 8.5644C46.8632 8.94405 47.221 9.45709 47.4125 10.1035C47.5536 10.596 47.6242 11.2271 47.6242 11.9966C47.6242 12.7867 47.5536 13.4178 47.4125 13.8898C47.211 14.5567 46.8481 15.08 46.324 15.4597C45.8099 15.8393 45.1951 16.0291 44.4795 16.0291ZM44.4795 15.0749C44.9633 15.0749 45.3765 14.9415 45.7192 14.6747C46.0619 14.3977 46.2937 14.0283 46.4147 13.5665C46.4953 13.2382 46.5356 12.72 46.5356 12.012C46.5356 11.2733 46.4953 10.7551 46.4147 10.4575C46.3038 9.99578 46.072 9.63152 45.7192 9.36474C45.3765 9.0877 44.9532 8.94918 44.4492 8.94918C43.9654 8.94918 43.5522 9.0877 43.2095 9.36474C42.8668 9.63152 42.6349 9.99578 42.514 10.4575C42.4333 10.7551 42.393 11.2733 42.393 12.012C42.393 12.7508 42.4333 13.269 42.514 13.5665C42.6249 14.0283 42.8516 14.3977 43.1943 14.6747C43.5471 14.9415 43.9755 15.0749 44.4795 15.0749Z" fill="#F3F7FD"/>
        <path d="M52.735 6.08642C52.1807 6.08642 51.8027 6.21468 51.6011 6.4712C51.3995 6.71746 51.2987 7.14328 51.2987 7.74867V8.0411C51.2987 8.0924 51.3239 8.11806 51.3743 8.11806H53.0072C53.1382 8.11806 53.2037 8.18475 53.2037 8.31814V8.9184C53.2037 9.05179 53.1382 9.11848 53.0072 9.11848H51.3743C51.3239 9.11848 51.2987 9.14414 51.2987 9.19544V15.7059C51.2987 15.8393 51.2332 15.906 51.1022 15.906H50.4369C50.3059 15.906 50.2404 15.8393 50.2404 15.7059V9.19544C50.2404 9.14414 50.2152 9.11848 50.1648 9.11848H49.2123C49.0813 9.11848 49.0157 9.05179 49.0157 8.9184V8.31814C49.0157 8.18475 49.0813 8.11806 49.2123 8.11806H50.1648C50.2152 8.11806 50.2404 8.0924 50.2404 8.0411V7.6871C50.2404 7.05093 50.3109 6.55328 50.452 6.19416C50.5932 5.82477 50.8351 5.55799 51.1778 5.39381C51.5305 5.21938 52.0194 5.13216 52.6443 5.13216H53.0374C53.1684 5.13216 53.2339 5.19886 53.2339 5.33225V5.88633C53.2339 6.01972 53.1684 6.08642 53.0374 6.08642H52.735Z" fill="#F3F7FD"/>
        <path d="M58.5323 8.82605C58.5323 8.95944 58.4668 9.02614 58.3358 9.02614H56.6878C56.6374 9.02614 56.6122 9.05179 56.6122 9.10309V13.5973C56.6122 14.0898 56.718 14.4387 56.9297 14.6439C57.1515 14.8389 57.4942 14.9364 57.9578 14.9364H58.2904C58.4215 14.9364 58.487 15.0031 58.487 15.1364V15.6751C58.487 15.8085 58.4215 15.8804 58.2904 15.8906H57.7764C57.0507 15.8906 56.5013 15.7521 56.1284 15.475C55.7555 15.198 55.569 14.685 55.569 13.9359V9.10309C55.569 9.05179 55.5438 9.02614 55.4934 9.02614H54.6316C54.5006 9.02614 54.4351 8.95944 54.4351 8.82605V8.31814C54.4351 8.18475 54.5006 8.11806 54.6316 8.11806H55.4934C55.5438 8.11806 55.569 8.0924 55.569 8.0411V6.31728C55.569 6.18389 55.6345 6.1172 55.7655 6.1172H56.4157C56.5467 6.1172 56.6122 6.18389 56.6122 6.31728V8.0411C56.6122 8.0924 56.6374 8.11806 56.6878 8.11806H58.3358C58.4668 8.11806 58.5323 8.18475 58.5323 8.31814V8.82605Z" fill="#F3F7FD"/>
        <path d="M62.2253 15.906C62.1144 15.906 62.0438 15.8496 62.0136 15.7367L59.8969 8.34892C59.8869 8.3284 59.8818 8.30275 59.8818 8.27197C59.8818 8.23092 59.8969 8.19501 59.9272 8.16423C59.9675 8.13345 60.0128 8.11806 60.0632 8.11806H60.7738C60.8847 8.11806 60.9553 8.17449 60.9855 8.28736L62.5579 14.2899C62.568 14.3207 62.5831 14.3361 62.6032 14.3361C62.6234 14.3361 62.6385 14.3207 62.6486 14.2899L64.2663 8.28736C64.2966 8.17449 64.3671 8.11806 64.478 8.11806H65.1432C65.2541 8.11806 65.3246 8.17449 65.3549 8.28736L67.0029 14.2899C67.0129 14.3207 67.0281 14.3361 67.0482 14.3361C67.0684 14.3361 67.0835 14.3207 67.0936 14.2899L68.7113 8.28736C68.7415 8.17449 68.8171 8.11806 68.9381 8.11806L69.6336 8.13345C69.7041 8.13345 69.7545 8.15397 69.7848 8.19501C69.815 8.23605 69.82 8.29249 69.7999 8.36431L67.653 15.7367C67.6227 15.8496 67.5522 15.906 67.4413 15.906H66.7005C66.5896 15.906 66.5191 15.8496 66.4888 15.7367L64.856 10.0573C64.8459 10.0266 64.8308 10.0112 64.8106 10.0112C64.7904 10.0112 64.7753 10.0266 64.7652 10.0573L63.1929 15.7367C63.1626 15.8496 63.0921 15.906 62.9812 15.906H62.2253Z" fill="#F3F7FD"/>
        <path d="M73.9872 7.99493C74.8944 7.99493 75.5949 8.23092 76.0888 8.70292C76.5928 9.17492 76.8447 9.80083 76.8447 10.5806V15.7059C76.8447 15.8393 76.7792 15.906 76.6482 15.906H75.9678C75.8368 15.906 75.7713 15.8393 75.7713 15.7059V15.1518C75.7713 15.1211 75.7612 15.1005 75.741 15.0903C75.7209 15.08 75.7007 15.0903 75.6806 15.1211C75.4084 15.4186 75.0657 15.6444 74.6525 15.7983C74.2493 15.9522 73.8058 16.0291 73.322 16.0291C72.6165 16.0291 72.0218 15.8444 71.538 15.475C71.0642 15.1057 70.8274 14.5413 70.8274 13.782C70.8274 13.0125 71.0995 12.4071 71.6438 11.9659C72.1982 11.5144 72.9642 11.2886 73.9419 11.2886H75.6957C75.7461 11.2886 75.7713 11.263 75.7713 11.2117V10.6422C75.7713 10.1189 75.6251 9.70848 75.3328 9.41092C75.0506 9.10309 74.6071 8.94918 74.0024 8.94918C73.5286 8.94918 73.1406 9.04153 72.8382 9.22622C72.5358 9.41092 72.3443 9.66744 72.2637 9.99578C72.2334 10.1189 72.1578 10.1702 72.0369 10.1497L71.2961 10.0573C71.165 10.0368 71.1046 9.98039 71.1146 9.88804C71.2154 9.3237 71.5229 8.86709 72.0369 8.51823C72.561 8.16936 73.2111 7.99493 73.9872 7.99493ZM73.5639 15.0903C74.1586 15.0903 74.6726 14.9415 75.106 14.6439C75.5495 14.3361 75.7713 13.9257 75.7713 13.4126V12.2275C75.7713 12.1762 75.7461 12.1505 75.6957 12.1505H74.1082C73.443 12.1505 72.9088 12.2891 72.5056 12.5661C72.1024 12.8432 71.9008 13.2279 71.9008 13.7205C71.9008 14.1719 72.0571 14.5157 72.3695 14.7517C72.682 14.9774 73.0801 15.0903 73.5639 15.0903Z" fill="#F3F7FD"/>
        <path d="M82.1476 8.0411C82.4802 8.0411 82.7574 8.10266 82.9792 8.22579C83.0799 8.26684 83.1152 8.34892 83.085 8.47205L82.9338 9.14927C82.9036 9.2724 82.8229 9.31344 82.6919 9.2724C82.5004 9.21083 82.2534 9.18518 81.9511 9.19544C81.4269 9.21596 80.9935 9.41605 80.6508 9.7957C80.3081 10.1651 80.1368 10.6371 80.1368 11.2117V15.7059C80.1368 15.8393 80.0713 15.906 79.9402 15.906H79.2599C79.1288 15.906 79.0633 15.8393 79.0633 15.7059V8.31814C79.0633 8.18475 79.1288 8.11806 79.2599 8.11806H79.9402C80.0713 8.11806 80.1368 8.18475 80.1368 8.31814V9.18005C80.1368 9.22109 80.1418 9.24674 80.1519 9.257C80.1721 9.257 80.1922 9.24161 80.2124 9.21083C80.424 8.84144 80.6911 8.55414 81.0137 8.34892C81.3463 8.14371 81.7243 8.0411 82.1476 8.0411Z" fill="#F3F7FD"/>
        <path d="M87.4752 15.0903C87.9287 15.08 88.3168 14.9774 88.6393 14.7824C88.9719 14.5772 89.229 14.2951 89.4104 13.9359C89.4306 13.8846 89.4658 13.8487 89.5162 13.8282C89.5666 13.8077 89.617 13.8128 89.6674 13.8436L90.1059 14.0898C90.2268 14.1617 90.2571 14.2489 90.1966 14.3515C89.9547 14.8645 89.5918 15.275 89.108 15.5828C88.6242 15.8804 88.0497 16.0291 87.3844 16.0291C86.6789 16.0291 86.0842 15.8598 85.6004 15.5212C85.1166 15.1826 84.7689 14.7106 84.5572 14.1052C84.3657 13.5922 84.2699 12.8842 84.2699 11.9812C84.2699 11.54 84.275 11.1912 84.2851 10.9346C84.3052 10.6679 84.3455 10.4216 84.406 10.1959C84.5774 9.52892 84.92 8.99535 85.4341 8.59518C85.9582 8.19501 86.5882 7.99493 87.324 7.99493C88.2009 7.99493 88.8863 8.22579 89.3802 8.68753C89.8841 9.14927 90.2067 9.80083 90.3478 10.6422C90.4082 10.9706 90.4385 11.4836 90.4385 12.1813C90.4385 12.3147 90.373 12.3814 90.2419 12.3814H85.4039C85.3535 12.3814 85.3283 12.4071 85.3283 12.4584C85.3283 12.9714 85.3585 13.3459 85.419 13.5819C85.5299 14.0437 85.7617 14.4131 86.1144 14.6901C86.4773 14.9569 86.9309 15.0903 87.4752 15.0903ZM87.324 8.94918C86.82 8.94918 86.4068 9.08257 86.0842 9.34935C85.7617 9.60587 85.55 9.95474 85.4492 10.396C85.3887 10.6012 85.3484 10.95 85.3283 11.4426C85.3283 11.4939 85.3535 11.5195 85.4039 11.5195H89.2894C89.3398 11.5195 89.365 11.4939 89.365 11.4426C89.3449 10.9911 89.3146 10.6627 89.2743 10.4575C89.1634 9.99578 88.9367 9.63152 88.594 9.36474C88.2613 9.0877 87.838 8.94918 87.324 8.94918Z" fill="#F3F7FD"/>
    </g>
</svg>
