<svg width="56" height="20" viewBox="0 0 56 20" fill="none" xmlns="http://www.w3.org/2000/svg">
<path d="M39.6295 4.53673C40.1202 4.65428 40.636 4.60717 41.0973 4.40267C41.5587 4.19816 41.9399 3.8476 42.1824 3.40502C42.4248 2.96245 42.515 2.45242 42.439 1.95355C42.363 1.45467 42.125 0.994644 41.7617 0.644361C41.3985 0.294078 40.9301 0.0729841 40.4288 0.0151551C39.9275 -0.0426739 39.4211 0.0659719 38.9876 0.324348C38.5541 0.582724 38.2177 0.976487 38.0301 1.44495C37.8425 1.91342 37.8141 2.43058 37.9495 2.91673C38.0595 3.31208 38.2733 3.67079 38.5687 3.95565C38.8641 4.2405 39.2304 4.44114 39.6295 4.53673Z" fill="#BDC6CF"/>
<path d="M7.86 4.91675C8.96525 4.95386 10.064 5.10126 11.14 5.35675C11.4015 5.41548 11.6729 5.4144 11.9339 5.3536C12.1949 5.29279 12.4388 5.17383 12.6474 5.00559C12.8561 4.83735 13.024 4.62417 13.1387 4.38195C13.2535 4.13974 13.312 3.87475 13.31 3.60675V3.41675C13.3201 3.00834 13.191 2.60864 12.9438 2.28334C12.6966 1.95804 12.3462 1.72649 11.95 1.62675C10.37 1.21822 8.74171 1.02646 7.11 1.05675C1.86 1.05675 0 4.11675 0 6.73675C0 8.24675 0.65 11.7968 6.66 12.2068C7.17 12.2068 8.52 12.3167 8.52 13.5867C8.52 14.5867 7.41 15.2468 5.52 15.2468C4.42869 15.2402 3.34169 15.1094 2.28 14.8567C2.04432 14.7959 1.79785 14.7896 1.55937 14.8384C1.32089 14.8872 1.09669 14.9897 0.903824 15.1382C0.710959 15.2867 0.55452 15.4773 0.446417 15.6954C0.338314 15.9135 0.281397 16.1533 0.28 16.3968V17.1268C0.280377 17.4988 0.410375 17.859 0.647634 18.1456C0.884893 18.4321 1.21458 18.627 1.58 18.6968C3.19998 18.9896 4.84381 19.1303 6.49 19.1168C11.62 19.1168 13.92 16.2267 13.92 13.3567C13.92 10.1067 11.35 7.99675 7.03 7.70675C6.44 7.70675 5.03 7.57675 5.03 6.35675C5.16 4.91675 7.12 4.91675 7.86 4.91675Z" fill="#BDC6CF"/>
<path d="M19.2002 1.20673L15.6802 1.90673C15.5337 1.93469 15.4015 2.01295 15.3066 2.12798C15.2116 2.243 15.1598 2.38758 15.1602 2.53673V18.2767C15.1602 18.3608 15.1767 18.444 15.2089 18.5216C15.241 18.5993 15.2882 18.6698 15.3476 18.7293C15.407 18.7887 15.4776 18.8358 15.5552 18.868C15.6329 18.9002 15.7161 18.9167 15.8002 18.9167H19.3202C19.4899 18.9167 19.6527 18.8493 19.7727 18.7293C19.8927 18.6093 19.9602 18.4465 19.9602 18.2767V14.5567C19.9615 14.504 19.9801 14.4533 20.0132 14.4122C20.0462 14.3712 20.0919 14.3422 20.1431 14.3296C20.1943 14.3171 20.2482 14.3218 20.2964 14.343C20.3447 14.3641 20.3847 14.4006 20.4102 14.4467C21.0619 15.7192 21.5684 17.061 21.9202 18.4467C21.9556 18.5842 22.0358 18.7059 22.148 18.7928C22.2603 18.8797 22.3982 18.9268 22.5402 18.9267H26.9502C27.0515 18.9271 27.1515 18.9033 27.2419 18.8574C27.3323 18.8115 27.4105 18.7448 27.4701 18.6628C27.5296 18.5808 27.5689 18.4858 27.5845 18.3856C27.6002 18.2855 27.5918 18.183 27.5602 18.0867C26.8278 16.1783 25.9554 14.3266 24.9502 12.5467C24.8917 12.4384 24.8662 12.3154 24.8768 12.1927C24.8875 12.0701 24.9338 11.9533 25.0102 11.8567C26.1791 10.2774 27.1247 8.54442 27.8202 6.70673C27.8576 6.60956 27.8707 6.50473 27.8585 6.40133C27.8462 6.29793 27.8089 6.19909 27.7498 6.11337C27.6907 6.02766 27.6115 5.95766 27.5192 5.90945C27.4269 5.86124 27.3243 5.83628 27.2202 5.83673H23.0602C22.9332 5.83738 22.8094 5.87576 22.7043 5.94699C22.5993 6.01821 22.5178 6.11906 22.4702 6.23673C21.9361 7.52303 21.2406 8.73611 20.4002 9.84673C20.3684 9.88279 20.3266 9.90849 20.2801 9.92052C20.2336 9.93254 20.1845 9.93033 20.1393 9.91418C20.094 9.89802 20.0547 9.86866 20.0263 9.82989C19.998 9.79112 19.9819 9.74473 19.9802 9.69673V1.83673C19.981 1.74033 19.96 1.64498 19.9188 1.55782C19.8777 1.47065 19.8173 1.39392 19.7423 1.33334C19.6673 1.27277 19.5796 1.22992 19.4857 1.20799C19.3918 1.18607 19.2942 1.18564 19.2002 1.20673Z" fill="#BDC6CF"/>
<path d="M54.2308 1.36672L52.5008 1.67672C52.1636 1.73775 51.8586 1.91545 51.6392 2.17871C51.4198 2.44198 51.3 2.77403 51.3008 3.11672V17.4567C51.3008 17.8439 51.4546 18.2153 51.7284 18.4891C52.0022 18.7629 52.3736 18.9167 52.7608 18.9167H54.4908C54.878 18.9167 55.2494 18.7629 55.5232 18.4891C55.797 18.2153 55.9508 17.8439 55.9508 17.4567V2.80672C55.9513 2.59269 55.9047 2.38117 55.8144 2.18714C55.724 1.99311 55.5921 1.82131 55.428 1.68392C55.2639 1.54652 55.0716 1.44689 54.8647 1.39208C54.6578 1.33726 54.4414 1.32861 54.2308 1.36672Z" fill="#BDC6CF"/>
<path d="M47.43 1.36672L45.7 1.67672C45.3628 1.73774 45.0578 1.91545 44.8384 2.17871C44.619 2.44198 44.4992 2.77402 44.5 3.11672V17.4567C44.5 17.8422 44.6524 18.2121 44.9241 18.4856C45.1957 18.7591 45.5645 18.9141 45.95 18.9167H47.68C48.0672 18.9167 48.4386 18.7629 48.7124 18.4891C48.9862 18.2153 49.14 17.8439 49.14 17.4567V2.80672C49.1402 2.59369 49.0938 2.3832 49.0041 2.19001C48.9143 1.99681 48.7834 1.8256 48.6204 1.68838C48.4575 1.55117 48.2665 1.45127 48.0609 1.3957C47.8552 1.34013 47.6399 1.33024 47.43 1.36672Z" fill="#BDC6CF"/>
<path d="M41.3891 5.85675H39.0091C38.3795 5.85675 37.8691 6.36715 37.8691 6.99675V17.7768C37.8691 18.4064 38.3795 18.9167 39.0091 18.9167H41.3891C42.0187 18.9167 42.5291 18.4064 42.5291 17.7768V6.99675C42.5291 6.36715 42.0187 5.85675 41.3891 5.85675Z" fill="#BDC6CF"/>
<path d="M32.09 18.9167C32.4507 18.9167 32.7966 18.7734 33.0517 18.5184C33.3067 18.2633 33.45 17.9174 33.45 17.5567V12.9167C33.45 10.9767 33.66 9.97673 35.36 9.65673C35.6716 9.5965 35.9526 9.42997 36.1551 9.18557C36.3575 8.94118 36.4688 8.63408 36.47 8.31673V6.91672C36.4756 6.56805 36.345 6.23094 36.106 5.977C35.867 5.72306 35.5384 5.57229 35.19 5.55672C33.5408 5.50001 31.9365 6.09993 30.7291 7.22481C29.5217 8.34969 28.8099 9.90763 28.75 11.5567V17.5567C28.75 17.7362 28.7855 17.9138 28.8545 18.0795C28.9234 18.2452 29.0245 18.3955 29.1519 18.5219C29.2792 18.6484 29.4303 18.7483 29.5965 18.8161C29.7626 18.8838 29.9406 18.918 30.12 18.9167H32.09Z" fill="#BDC6CF"/>
</svg>
