<svg width="32" height="12" viewBox="0 0 32 12" fill="none" xmlns="http://www.w3.org/2000/svg">
<path d="M15.4813 1.0564H12.9188L11.3188 10.9689H13.8751L15.4813 1.0564Z" fill="#7C8A95"/>
<path d="M25.831 9.48146H29.1247C29.206 9.82521 29.4372 10.9627 29.4372 10.9627H31.8122L29.7497 1.06896H27.7435C27.4588 1.0312 27.1698 1.09261 26.9251 1.24285C26.6804 1.3931 26.4948 1.62302 26.3997 1.89396L22.606 11.0002H25.2935C25.2935 11.0002 25.731 9.75021 25.831 9.48146ZM27.5872 4.68146C27.5872 4.68146 27.7997 4.10646 27.9247 3.73771L28.0935 4.59396L28.7185 7.45646H26.5935C26.781 6.88771 27.5872 4.68146 27.5872 4.68146Z" fill="#7C8A95"/>
<path d="M22.7872 7.73137C22.7872 6.60012 22.1122 5.74387 20.6372 5.03762C19.7435 4.58137 19.1935 4.27512 19.1997 3.78762C19.206 3.30012 19.6622 2.93762 20.6685 2.93762C21.3262 2.92256 21.9792 3.05274 22.581 3.31887L22.8122 3.43137L23.1622 1.28137C22.4302 1.00085 21.6524 0.858853 20.8685 0.862622C18.3685 0.862622 16.5622 2.20637 16.5435 4.13137C16.5435 5.55637 17.7935 6.35012 18.781 6.82512C19.7685 7.30012 20.1122 7.61887 20.1122 8.07512C20.1122 8.73762 19.3122 9.04387 18.581 9.04387C17.7445 9.06201 16.9163 8.87534 16.1685 8.50012L15.8372 8.34387L15.481 10.5626C16.3895 10.9153 17.3564 11.0934 18.331 11.0876C20.9997 11.1126 22.7685 9.78137 22.7872 7.73137Z" fill="#7C8A95"/>
<path d="M5.14365 10.9564H7.8749L11.8999 1.06893H9.1749L6.6749 7.82518L6.40615 6.45018L5.5124 1.90018C5.45557 1.64326 5.30648 1.41612 5.09338 1.26176C4.88029 1.10741 4.61798 1.03658 4.35615 1.06268H0.306153C0.284643 1.06818 0.265577 1.08069 0.251962 1.09823C0.238347 1.11577 0.230957 1.13735 0.230957 1.15955C0.230957 1.18175 0.238347 1.20333 0.251962 1.22087C0.265577 1.23841 0.284643 1.25092 0.306153 1.25643C0.891707 1.41565 1.46254 1.62475 2.0124 1.88143C2.28284 2.00575 2.52234 2.18852 2.71363 2.41656C2.90493 2.6446 3.04326 2.91223 3.11865 3.20018L5.14365 10.9564Z" fill="#7C8A95"/>
</svg>
