<svg width="46" height="14" viewBox="0 0 46 14" fill="none" xmlns="http://www.w3.org/2000/svg">
<rect width="46" height="14" rx="4" fill="#8FD39D"/>
<path d="M8.20989 4.77V5.88C8.11655 5.86667 8.02655 5.86 7.93989 5.86C7.04655 5.86 6.59989 6.34 6.59989 7.3V10H5.40989V4.81H6.50989V5.53C6.80322 5.01667 7.31322 4.76 8.03989 4.76L8.20989 4.77ZM12.422 7.8V4.81H13.612V10H12.512V9.33C12.392 9.55667 12.1953 9.74667 11.922 9.9C11.6553 10.0467 11.3253 10.12 10.932 10.12C10.3187 10.12 9.84533 9.93667 9.512 9.57C9.18533 9.19667 9.022 8.7 9.022 8.08V4.81H10.212V7.92C10.212 8.70667 10.5487 9.1 11.222 9.1C11.5953 9.1 11.8887 8.99 12.102 8.77C12.3153 8.54333 12.422 8.22 12.422 7.8ZM16.1486 4.81V5.5C16.2686 5.27333 16.4652 5.08333 16.7386 4.93C17.0186 4.77 17.3552 4.69 17.7486 4.69C18.3619 4.69 18.8352 4.87667 19.1686 5.25C19.5086 5.62333 19.6786 6.12 19.6786 6.74V10H18.4886V6.89C18.4886 6.52333 18.4019 6.23667 18.2286 6.03C18.0619 5.81667 17.8052 5.71 17.4586 5.71C17.0786 5.71 16.7786 5.82333 16.5586 6.05C16.3452 6.27667 16.2386 6.59 16.2386 6.99V10H15.0486V4.81H16.1486ZM22.174 4.81V5.5C22.294 5.27333 22.4906 5.08333 22.764 4.93C23.044 4.77 23.3806 4.69 23.774 4.69C24.3873 4.69 24.8606 4.87667 25.194 5.25C25.534 5.62333 25.704 6.12 25.704 6.74V10H24.514V6.89C24.514 6.52333 24.4273 6.23667 24.254 6.03C24.0873 5.81667 23.8306 5.71 23.484 5.71C23.104 5.71 22.804 5.82333 22.584 6.05C22.3706 6.27667 22.264 6.59 22.264 6.99V10H21.074V4.81H22.174ZM27.6993 3.94C27.4793 3.94 27.2993 3.87333 27.1593 3.74C27.0193 3.6 26.9493 3.42333 26.9493 3.21C26.9493 2.99 27.0193 2.81 27.1593 2.67C27.2993 2.53 27.4793 2.46 27.6993 2.46C27.9127 2.46 28.0893 2.53 28.2293 2.67C28.3693 2.81 28.4393 2.99 28.4393 3.21C28.4393 3.42333 28.3693 3.6 28.2293 3.74C28.0893 3.87333 27.9127 3.94 27.6993 3.94ZM27.0993 10V4.81H28.2893V10H27.0993ZM30.8263 4.81V5.5C30.9463 5.27333 31.143 5.08333 31.4163 4.93C31.6963 4.77 32.033 4.69 32.4263 4.69C33.0396 4.69 33.513 4.87667 33.8463 5.25C34.1863 5.62333 34.3563 6.12 34.3563 6.74V10H33.1663V6.89C33.1663 6.52333 33.0796 6.23667 32.9063 6.03C32.7396 5.81667 32.483 5.71 32.1363 5.71C31.7563 5.71 31.4563 5.82333 31.2363 6.05C31.023 6.27667 30.9163 6.59 30.9163 6.99V10H29.7263V4.81H30.8263ZM39.5317 5.55V4.81H40.6317V9.78C40.6317 10.4867 40.4117 11.0633 39.9717 11.51C39.5383 11.9633 38.9317 12.19 38.1517 12.19C37.4383 12.19 36.8783 12.0067 36.4717 11.64C36.0717 11.2733 35.8383 10.8533 35.7717 10.38H36.9617C37.1083 10.9067 37.5117 11.17 38.1717 11.17C38.5717 11.17 38.8817 11.0567 39.1017 10.83C39.3283 10.61 39.4417 10.3133 39.4417 9.94V9.13C39.095 9.66333 38.5483 9.93 37.8017 9.93C37.0817 9.93 36.5017 9.68 36.0617 9.18C35.6283 8.67333 35.4117 8.05 35.4117 7.31C35.4117 6.57 35.6283 5.95 36.0617 5.45C36.5017 4.94333 37.0817 4.69 37.8017 4.69C38.595 4.69 39.1717 4.97667 39.5317 5.55ZM39.4917 7.31C39.4917 6.85 39.3583 6.47333 39.0917 6.18C38.825 5.88667 38.475 5.74 38.0417 5.74C37.615 5.74 37.2683 5.88667 37.0017 6.18C36.735 6.47333 36.6017 6.85 36.6017 7.31C36.6017 7.76333 36.735 8.14 37.0017 8.44C37.2683 8.73333 37.615 8.88 38.0417 8.88C38.475 8.88 38.825 8.73333 39.0917 8.44C39.3583 8.14 39.4917 7.76333 39.4917 7.31Z" fill="white"/>
</svg>
