<svg width="20" height="20" viewBox="0 0 20 20" fill="none" xmlns="http://www.w3.org/2000/svg">
<path fill-rule="evenodd" clip-rule="evenodd" d="M20 2C20 0.895431 19.1046 0 18 0H7C5.89543 0 5 0.895431 5 2V4H11C13.2091 4 15 5.79086 15 8V14.2254C16.6733 15.0707 18.0285 15.7297 18.4974 15.8952C19.6896 16.3158 19.9877 15.3693 19.9877 14.8435V10.2234C19.9958 10.1501 20 10.0755 20 10V2Z" fill="#B6B6FB"/>
<path d="M0 18.9158V14L12 14.4789C8.92308 16.1222 2.49231 19.5073 1.38462 19.9017C0.276923 20.2961 0 19.4087 0 18.9158Z" fill="#B6B6FB"/>
<path fill-rule="evenodd" clip-rule="evenodd" d="M2 6C0.895431 6 0 6.89543 0 8V16.0714C0 17.176 0.89543 18.0714 2 18.0714H11C12.1046 18.0714 13 17.176 13 16.0714V8C13 6.89543 12.1046 6 11 6H2ZM3 13.5714C3.55228 13.5714 4 13.1237 4 12.5714C4 12.0191 3.55228 11.5714 3 11.5714C2.44772 11.5714 2 12.0191 2 12.5714C2 13.1237 2.44772 13.5714 3 13.5714ZM7.57143 12.5714C7.57143 13.1237 7.12371 13.5714 6.57143 13.5714C6.01914 13.5714 5.57143 13.1237 5.57143 12.5714C5.57143 12.0191 6.01914 11.5714 6.57143 11.5714C7.12371 11.5714 7.57143 12.0191 7.57143 12.5714ZM10 13.5714C10.5523 13.5714 11 13.1237 11 12.5714C11 12.0191 10.5523 11.5714 10 11.5714C9.44771 11.5714 9 12.0191 9 12.5714C9 13.1237 9.44771 13.5714 10 13.5714Z" fill="#B6B6FB"/>
</svg>
