<svg width="20" height="20" viewBox="0 0 20 20" fill="none" xmlns="http://www.w3.org/2000/svg">
<path fill-rule="evenodd" clip-rule="evenodd" d="M0 10C0 4.47715 4.47715 0 10 0C15.5228 0 20 4.47715 20 10C20 15.5228 15.5228 20 10 20C4.47715 20 0 15.5228 0 10ZM8.66473 6.40997C8.27736 6.73092 8 7.2636 8 7.99994C8 8.55223 7.55228 8.99994 7 8.99994C6.44772 8.99994 6 8.55223 6 7.99994C6 6.73628 6.4927 5.61228 7.38874 4.86989C8.2854 4.12699 9.4924 3.84333 10.7725 4.07605C12.3396 4.36096 13.4669 5.26647 13.8577 6.51008C14.2454 7.74335 13.8284 9.07085 12.8063 9.99989C12.3743 10.3927 12.011 10.6525 11.7182 10.8479C11.6056 10.9231 11.5191 10.9794 11.4501 11.0244L11.4498 11.0245L11.4497 11.0246L11.4497 11.0246C11.3153 11.1121 11.2473 11.1563 11.1825 11.2123L11.1794 11.2149C11.1644 11.2278 11.1574 11.2338 11.1527 11.2413C11.1487 11.2478 11.1464 11.2554 11.142 11.2696L11.142 11.2696L11.1404 11.2749C11.1132 11.3634 11.0802 11.5591 11.0802 12C11.0802 12.5523 10.6325 13 10.0802 13C9.52793 13 9.08021 12.5523 9.08021 12C9.08021 11.5076 9.11139 11.0691 9.22858 10.6876C9.36158 10.2546 9.58827 9.94608 9.87636 9.69765C10.0513 9.54678 10.2814 9.39732 10.4676 9.27639L10.4676 9.27638L10.4676 9.27638L10.4676 9.27637C10.5183 9.24343 10.5658 9.2126 10.608 9.18443C10.8446 9.02649 11.1231 8.8272 11.461 8.51997C11.9791 8.04901 12.0755 7.50984 11.9498 7.10977C11.8273 6.72005 11.4144 6.22555 10.4147 6.0438C9.64129 5.90318 9.05149 6.08953 8.66473 6.40997ZM10 16C10.5523 16 11 15.5523 11 15C11 14.4477 10.5523 14 10 14C9.44771 14 9 14.4477 9 15C9 15.5523 9.44771 16 10 16Z" fill="#B6B6FB"/>
</svg>
