<svg width="20" height="20" viewBox="0 0 20 20" fill="none" xmlns="http://www.w3.org/2000/svg">
<mask id="mask0" mask-type="alpha" maskUnits="userSpaceOnUse" x="0" y="0" width="20" height="20">
<rect width="20" height="20" fill="#DB9CBA"/>
</mask>
<g mask="url(#mask0)">
<path d="M1 1L4 4L1 7" stroke="#B6B6FB" stroke-width="2" stroke-linecap="round" stroke-linejoin="round"/>
<path d="M9 10H4.5C2.5 10 1 10.8571 1 13.1429C1 15.7143 3.94828 16 4.5 16C4.94138 16 10.4368 16 12 16" stroke="#B6B6FB" stroke-width="2" stroke-linecap="round"/>
<path d="M4 4H15.5C17 4 19 5.14286 19 7.14286C19 9.71429 16.0517 10 15.5 10C15.0586 10 10.5632 10 9 10" stroke="#B6B6FB" stroke-width="2" stroke-linecap="round"/>
<path fill-rule="evenodd" clip-rule="evenodd" d="M16 20C18.2091 20 20 18.2091 20 16C20 13.7909 18.2091 12 16 12C13.7909 12 12 13.7909 12 16C12 18.2091 13.7909 20 16 20ZM18.6556 14.3642C18.8568 14.0021 18.7263 13.5455 18.3642 13.3444C18.0021 13.1432 17.5455 13.2737 17.3444 13.6358L15.6651 16.6585L14.5857 15.3093C14.3269 14.9858 13.8549 14.9334 13.5315 15.1921C13.208 15.4509 13.1556 15.9229 13.4143 16.2463L15.1921 18.4685C15.3483 18.6637 15.5915 18.7683 15.8406 18.7474C16.0897 18.7264 16.312 18.5828 16.4334 18.3642L18.6556 14.3642Z" fill="#9C9EDB"/>
</g>
</svg>
