<svg width="21" height="20" viewBox="0 0 21 20" fill="none" xmlns="http://www.w3.org/2000/svg">
<path d="M7 15L1 10M1 10L7 5M1 10L9 10" stroke="#B6B6FB" stroke-width="2" stroke-linecap="round" stroke-linejoin="round"/>
<path fill-rule="evenodd" clip-rule="evenodd" d="M14 0C12.8954 0 12 0.895431 12 2V9H12.0094H12.0188H12.0283H12.0378H12.0473H12.0568H12.0664H12.0761H12.0857H12.0954H12.1051H12.1149H12.1247H12.1345H12.1443H12.1542H12.1641H12.174H12.184H12.194H12.2041H12.2141H12.2242H12.2343H12.2445H12.2547H12.2649H12.2751H12.2854H12.2957H12.306H12.3164H12.3268H12.3372H12.3477H12.3581H12.3686H12.3792H12.3897H12.4003H12.4109H12.4216H12.4323H12.443H12.4537H12.4644H12.4752H12.486H12.4969H12.5077H12.5186H12.5295H12.5405H12.5514H12.5624H12.5734H12.5845H12.5956H12.6067H12.6178H12.6289H12.6401H12.6513H12.6625H12.6737H12.685H12.6963H12.7076H12.719H12.7303H12.7417H12.7531H12.7645H12.776H12.7875H12.799H12.8105H12.8221H12.8336H12.8452H12.8568H12.8685H12.8801H12.8918H12.9035H12.9152H12.927H12.9387H12.9505H12.9623H12.9742H12.986H12.9979H13.0098H13.0217H13.0336H13.0455H13.0575H13.0695H13.0815H13.0935H13.1056H13.1176H13.1297H13.1418H13.1539H13.1661H13.1782H13.1904H13.2026H13.2148H13.2271H13.2393H13.2516H13.2638H13.2761H13.2885H13.3008H13.3131H13.3255H13.3379H13.3503H13.3627H13.3751H13.3876H13.4H13.4125H13.425H13.4375H13.45H13.4626H13.4751H13.4877H13.5003H13.5129H13.5255H13.5381H13.5507H13.5634H13.5761H13.5887H13.6014H13.6141H13.6269H13.6396H13.6523H13.6651H13.6779H13.6906H13.7034H13.7162H13.7291H13.7419H13.7547H13.7676H13.7805H13.7933H13.8062H13.8191H13.832H13.845H13.8579H13.8708H13.8838H13.8967H13.9097H13.9227H13.9357H13.9487H13.9617H13.9747H13.9877H14.0008H14.0138H14.0269H14.0399H14.053H14.0661H14.0792H14.0923H14.1054H14.1185H14.1316H14.1447H14.1579H14.171H14.1842H14.1973H14.2105H14.2236H14.2368H14.25H14.2632H14.2764H14.2896H14.3028H14.316H14.3292H14.3424H14.3557H14.3689H14.3821H14.3954H14.4086H14.4218H14.4351H14.4484H14.4616H14.4749H14.4882H14.5014H14.5147H14.528H14.5413H14.5545H14.5678H14.5811H14.5944H14.6077H14.621H14.6343H14.6476H14.6609H14.6742H14.6875H14.7008H14.7141H14.7275H14.7408H14.7541H14.7674H14.7807H14.794H14.8073H14.8206H14.834H14.8473H14.8606H14.8739H14.8872H14.9005H14.9138H14.9271H14.9404H14.9538H14.9671H14.9804H14.9937H15.007H15.0203H15.0336H15.0469H15.0601H15.0734H15.0867H15.1H15.1133H15.1266H15.1398H15.1531H15.1664H15.1796H15.1929H15.2061H15.2194H15.2326H15.2459H15.2591H15.2723H15.2856H15.2988H15.312H15.3252H15.3384H15.3516H15.3648H15.378H15.3912H15.4044H15.4175H15.4307H15.4439H15.457H15.4702H15.4833H15.4964H15.5095H15.5227H15.5358H15.5489H15.562H15.575H15.5881H15.6012H15.6142H15.6273H15.6403H15.6534H15.6664H15.6794H15.6924H15.7054H15.7184H15.7313H15.7443H15.7573H15.7702H15.7831H15.7961H15.809H15.8219H15.8348H15.8477H15.8605H15.8734H15.8862H15.8991H15.9119H15.9247H15.9375H15.9503H15.9631H15.9758H15.9886H16.0013H16.014H16.0267H16.0394H16.0521H16.0648H16.0775H16.0901H16.1027H16.1153H16.1279H16.1405H16.1531H16.1657H16.1782H16.1907H16.2032H16.2157H16.2282H16.2407H16.2531H16.2656H16.278H16.2904H16.3028H16.3152H16.3275H16.3398H16.3522H16.3645H16.3768H16.389H16.4013H16.4135H16.4257H16.4379H16.4501H16.4623H16.4744H16.4865H16.4987H16.5107H16.5228H16.5349H16.5469H16.5589H16.5709H16.5829H16.5948H16.6068H16.6187H16.6306H16.6425H16.6543H16.6661H16.678H16.6897H16.7015H16.7133H16.725H16.7367H16.7484H16.7601H16.7717H16.7833H16.7949H16.8065H16.8181H16.8296H16.8411H16.8526H16.864H16.8755H16.8869H16.8983H16.9097H16.921H16.9323H16.9436H16.9549H16.9662H16.9774H16.9886H16.9998H17.0109H17.022H17.0332H17.0442H17.0553H17.0663H17.0773H17.0883H17.0992H17.1102H17.121H17.1319H17.1428H17.1536H17.1644H17.1751H17.1859H17.1966H17.2073H17.2179H17.2285H17.2391H17.2497H17.2603H17.2708H17.2813H17.2917H17.3021H17.3125H17.3229H17.3333H17.3436H17.3539H17.3641H17.3743H17.3845H17.3947H17.4048H17.4149H17.425H17.435H17.4451H17.455H17.465H17.4749H17.4848H17.4947H17.5045H17.5143H17.524H17.5338H17.5435H17.5531H17.5628H17.5724H17.5819H17.5915H17.601H17.6104H17.6199H17.6293H17.6386H17.648H17.6573H17.6666H17.6758H17.685H17.6942H17.7033H17.7124H17.7214H17.7305H17.7395H17.7484H17.7573H17.7662H17.7751H17.7839H17.7927H17.8014H17.8101H17.8188H17.8274H17.836H17.8446H17.8531H17.8616H17.87H17.8784H17.8868H17.8951H17.9034H17.9117H17.9199H17.9281H17.9362H17.9443H17.9524H17.9604H17.9684H17.9764H17.9843H17.9922H18C18.5523 9 19 9.44771 19 10C19 10.5523 18.5523 11 18 11H17.9922H17.9843H17.9764H17.9684H17.9604H17.9524H17.9443H17.9362H17.9281H17.9199H17.9117H17.9034H17.8951H17.8868H17.8784H17.87H17.8616H17.8531H17.8446H17.836H17.8274H17.8188H17.8101H17.8014H17.7927H17.7839H17.7751H17.7662H17.7573H17.7484H17.7395H17.7305H17.7214H17.7124H17.7033H17.6942H17.685H17.6758H17.6666H17.6573H17.648H17.6386H17.6293H17.6199H17.6104H17.601H17.5915H17.5819H17.5724H17.5628H17.5531H17.5435H17.5338H17.524H17.5143H17.5045H17.4947H17.4848H17.4749H17.465H17.455H17.4451H17.435H17.425H17.4149H17.4048H17.3947H17.3845H17.3743H17.3641H17.3539H17.3436H17.3333H17.3229H17.3125H17.3021H17.2917H17.2813H17.2708H17.2603H17.2497H17.2391H17.2285H17.2179H17.2073H17.1966H17.1859H17.1751H17.1644H17.1536H17.1428H17.1319H17.121H17.1102H17.0992H17.0883H17.0773H17.0663H17.0553H17.0442H17.0332H17.022H17.0109H16.9998H16.9886H16.9774H16.9662H16.9549H16.9436H16.9323H16.921H16.9097H16.8983H16.8869H16.8755H16.864H16.8526H16.8411H16.8296H16.8181H16.8065H16.7949H16.7833H16.7717H16.7601H16.7484H16.7367H16.725H16.7133H16.7015H16.6897H16.678H16.6661H16.6543H16.6425H16.6306H16.6187H16.6068H16.5948H16.5829H16.5709H16.5589H16.5469H16.5349H16.5228H16.5107H16.4987H16.4865H16.4744H16.4623H16.4501H16.4379H16.4257H16.4135H16.4013H16.389H16.3768H16.3645H16.3522H16.3398H16.3275H16.3152H16.3028H16.2904H16.278H16.2656H16.2531H16.2407H16.2282H16.2157H16.2032H16.1907H16.1782H16.1657H16.1531H16.1405H16.1279H16.1153H16.1027H16.0901H16.0775H16.0648H16.0521H16.0394H16.0267H16.014H16.0013H15.9886H15.9758H15.9631H15.9503H15.9375H15.9247H15.9119H15.8991H15.8862H15.8734H15.8605H15.8477H15.8348H15.8219H15.809H15.7961H15.7831H15.7702H15.7573H15.7443H15.7313H15.7184H15.7054H15.6924H15.6794H15.6664H15.6534H15.6403H15.6273H15.6142H15.6012H15.5881H15.575H15.562H15.5489H15.5358H15.5227H15.5095H15.4964H15.4833H15.4702H15.457H15.4439H15.4307H15.4175H15.4044H15.3912H15.378H15.3648H15.3516H15.3384H15.3252H15.312H15.2988H15.2856H15.2723H15.2591H15.2459H15.2326H15.2194H15.2061H15.1929H15.1796H15.1664H15.1531H15.1398H15.1266H15.1133H15.1H15.0867H15.0734H15.0601H15.0469H15.0336H15.0203H15.007H14.9937H14.9804H14.9671H14.9538H14.9404H14.9271H14.9138H14.9005H14.8872H14.8739H14.8606H14.8473H14.834H14.8206H14.8073H14.794H14.7807H14.7674H14.7541H14.7408H14.7275H14.7141H14.7008H14.6875H14.6742H14.6609H14.6476H14.6343H14.621H14.6077H14.5944H14.5811H14.5678H14.5545H14.5413H14.528H14.5147H14.5014H14.4882H14.4749H14.4616H14.4484H14.4351H14.4218H14.4086H14.3954H14.3821H14.3689H14.3557H14.3424H14.3292H14.316H14.3028H14.2896H14.2764H14.2632H14.25H14.2368H14.2236H14.2105H14.1973H14.1842H14.171H14.1579H14.1447H14.1316H14.1185H14.1054H14.0923H14.0792H14.0661H14.053H14.0399H14.0269H14.0138H14.0008H13.9877H13.9747H13.9617H13.9487H13.9357H13.9227H13.9097H13.8967H13.8838H13.8708H13.8579H13.845H13.832H13.8191H13.8062H13.7933H13.7805H13.7676H13.7547H13.7419H13.7291H13.7162H13.7034H13.6906H13.6779H13.6651H13.6523H13.6396H13.6269H13.6141H13.6014H13.5887H13.5761H13.5634H13.5507H13.5381H13.5255H13.5129H13.5003H13.4877H13.4751H13.4626H13.45H13.4375H13.425H13.4125H13.4H13.3876H13.3751H13.3627H13.3503H13.3379H13.3255H13.3131H13.3008H13.2885H13.2761H13.2638H13.2516H13.2393H13.2271H13.2148H13.2026H13.1904H13.1782H13.1661H13.1539H13.1418H13.1297H13.1176H13.1056H13.0935H13.0815H13.0695H13.0575H13.0455H13.0336H13.0217H13.0098H12.9979H12.986H12.9742H12.9623H12.9505H12.9387H12.927H12.9152H12.9035H12.8918H12.8801H12.8685H12.8568H12.8452H12.8336H12.8221H12.8105H12.799H12.7875H12.776H12.7645H12.7531H12.7417H12.7303H12.719H12.7076H12.6963H12.685H12.6737H12.6625H12.6513H12.6401H12.6289H12.6178H12.6067H12.5956H12.5845H12.5734H12.5624H12.5514H12.5405H12.5295H12.5186H12.5077H12.4969H12.486H12.4752H12.4644H12.4537H12.443H12.4323H12.4216H12.4109H12.4003H12.3897H12.3792H12.3686H12.3581H12.3477H12.3372H12.3268H12.3164H12.306H12.2957H12.2854H12.2751H12.2649H12.2547H12.2445H12.2343H12.2242H12.2141H12.2041H12.194H12.184H12.174H12.1641H12.1542H12.1443H12.1345H12.1247H12.1149H12.1051H12.0954H12.0857H12.0761H12.0664H12.0568H12.0473H12.0378H12.0283H12.0188H12.0094H12V18C12 19.1046 12.8954 20 14 20H19C20.1046 20 21 19.1046 21 18V2C21 0.895431 20.1046 0 19 0H14Z" fill="#B6B6FB"/>
</svg>
