<svg width="20" height="20" viewBox="0 0 20 20" fill="none" xmlns="http://www.w3.org/2000/svg">
<mask id="mask0" mask-type="alpha" maskUnits="userSpaceOnUse" x="0" y="0" width="20" height="20">
<rect width="20" height="20" rx="2" fill="#C4C4C4"/>
</mask>
<g mask="url(#mask0)">
<path d="M19 10C19 8.21997 18.4722 6.47991 17.4832 4.99987C16.4943 3.51983 15.0887 2.36627 13.4442 1.68508C11.7996 1.0039 9.99002 0.825665 8.24419 1.17293C6.49836 1.5202 4.89471 2.37737 3.63604 3.63604C2.37737 4.89471 1.5202 6.49836 1.17293 8.24419C0.825665 9.99002 1.0039 11.7996 1.68508 13.4442C2.36627 15.0887 3.51983 16.4943 4.99987 17.4832C6.47991 18.4722 8.21997 19 10 19" stroke="#B6B6FB" stroke-width="2" stroke-linecap="round"/>
<path fill-rule="evenodd" clip-rule="evenodd" d="M13.808 11.2279C13.9327 10.841 14 10.4284 14 10C14 7.79086 12.2091 6 10 6C7.79086 6 6 7.79086 6 10C6 12.2091 7.79086 14 10 14C10.4282 14 10.8407 13.9327 11.2275 13.8081L13.4596 19.6874C13.4939 19.7773 13.554 19.8549 13.6324 19.9106C13.7108 19.9662 13.804 19.9973 13.9001 20H13.9146C14.0071 19.999 14.0973 19.9717 14.1748 19.9212C14.2522 19.8707 14.3136 19.7992 14.3518 19.715L15.8092 16.458C16.0286 16.0616 16.1934 15.9356 16.5216 15.7892L19.7132 14.3526C19.8008 14.3133 19.8748 14.2489 19.9258 14.1675C19.9768 14.0861 20.0026 13.9914 19.9998 13.8954C19.997 13.7994 19.9659 13.7063 19.9102 13.628C19.8546 13.5497 19.777 13.4896 19.6873 13.4554L19.6857 13.4603L13.808 11.2279ZM13.808 11.2279L10.6583 10.0317C10.5708 9.99842 10.4755 9.99116 10.384 10.0108C10.2924 10.0304 10.2085 10.0761 10.1423 10.1423C10.0761 10.2085 10.0304 10.2925 10.0108 10.384C9.99116 10.4756 9.99842 10.5709 10.0317 10.6585L11.2275 13.8081C12.4492 13.4146 13.4144 12.4496 13.808 11.2279Z" fill="#B6B6FB"/>
</g>
</svg>
