<svg width="20" height="20" viewBox="0 0 20 20" fill="none" xmlns="http://www.w3.org/2000/svg">
<path d="M2.49999 15H3.74999V14.9688C3.74999 14.803 3.81584 14.644 3.93305 14.5268C4.05026 14.4096 4.20923 14.3438 4.37499 14.3438C4.54075 14.3438 4.69973 14.4096 4.81694 14.5268C4.93415 14.644 4.99999 14.803 4.99999 14.9688V15H17.5C17.8315 15 18.1495 14.8683 18.3839 14.6339C18.6183 14.3995 18.75 14.0815 18.75 13.75V12.3594C18.756 12.1036 18.6979 11.8505 18.5811 11.6229C18.4643 11.3953 18.2925 11.2005 18.0812 11.0563C17.9038 10.9434 17.7577 10.7875 17.6565 10.6032C17.5552 10.4188 17.5022 10.2119 17.5022 10.0016C17.5022 9.79124 17.5552 9.58432 17.6565 9.39996C17.7577 9.2156 17.9038 9.05976 18.0812 8.94687C18.293 8.80234 18.4651 8.60706 18.5819 8.37888C18.6987 8.1507 18.7565 7.89689 18.75 7.64063V6.25C18.75 5.91848 18.6183 5.60054 18.3839 5.36612C18.1495 5.1317 17.8315 5 17.5 5H4.99999V5.03125C4.99999 5.19701 4.93415 5.35598 4.81694 5.47319C4.69973 5.5904 4.54075 5.65625 4.37499 5.65625C4.20923 5.65625 4.05026 5.5904 3.93305 5.47319C3.81584 5.35598 3.74999 5.19701 3.74999 5.03125V5H2.49999C2.16847 5 1.85053 5.1317 1.61611 5.36612C1.38169 5.60054 1.24999 5.91848 1.24999 6.25V7.64375C1.244 7.89949 1.30204 8.15267 1.41884 8.38026C1.53564 8.60785 1.70748 8.80263 1.91874 8.94687C2.0962 9.05976 2.24231 9.2156 2.34353 9.39996C2.44475 9.58432 2.49782 9.79124 2.49782 10.0016C2.49782 10.2119 2.44475 10.4188 2.34353 10.6032C2.24231 10.7875 2.0962 10.9434 1.91874 11.0563C1.70748 11.2005 1.53564 11.3953 1.41884 11.6229C1.30204 11.8505 1.244 12.1036 1.24999 12.3594V13.75C1.24999 14.0815 1.38169 14.3995 1.61611 14.6339C1.85053 14.8683 2.16847 15 2.49999 15ZM13.1 12.5C12.9764 12.5 12.8555 12.4633 12.7528 12.3947C12.65 12.326 12.5699 12.2284 12.5226 12.1142C12.4753 12 12.4629 11.8743 12.487 11.7531C12.5111 11.6318 12.5706 11.5205 12.6581 11.4331C12.7455 11.3457 12.8568 11.2861 12.9781 11.262C13.0993 11.2379 13.225 11.2503 13.3392 11.2976C13.4534 11.3449 13.551 11.425 13.6197 11.5278C13.6883 11.6305 13.725 11.7514 13.725 11.875C13.725 11.9573 13.7087 12.0389 13.6771 12.1149C13.6455 12.1909 13.5992 12.26 13.5408 12.3181C13.4825 12.3761 13.4132 12.4221 13.337 12.4533C13.2608 12.4845 13.1792 12.5004 13.0969 12.5H13.1ZM13.5437 7.70937C13.6019 7.76742 13.648 7.83635 13.6794 7.91222C13.7109 7.9881 13.727 8.06943 13.727 8.15156C13.727 8.2337 13.7109 8.31503 13.6794 8.3909C13.648 8.46677 13.6019 8.5357 13.5437 8.59375L9.81874 12.3C9.70147 12.4173 9.54241 12.4832 9.37656 12.4832C9.2107 12.4832 9.05164 12.4173 8.93437 12.3C8.81709 12.1827 8.75121 12.0237 8.75121 11.8578C8.75121 11.692 8.81709 11.5329 8.93437 11.4156L12.6562 7.69687C12.7143 7.63876 12.7832 7.59267 12.8591 7.56121C12.935 7.52976 13.0163 7.51357 13.0984 7.51357C13.1806 7.51357 13.2619 7.52976 13.3378 7.56121C13.4136 7.59267 13.4826 7.63876 13.5406 7.69687L13.5437 7.70937ZM9.37499 7.5C9.49861 7.5 9.61944 7.53666 9.72223 7.60533C9.82501 7.67401 9.90511 7.77162 9.95242 7.88582C9.99972 8.00003 10.0121 8.12569 9.98798 8.24693C9.96387 8.36817 9.90434 8.47953 9.81693 8.56694C9.72953 8.65435 9.61816 8.71388 9.49692 8.73799C9.37569 8.76211 9.25002 8.74973 9.13582 8.70242C9.02161 8.65512 8.924 8.57501 8.85532 8.47223C8.78665 8.36945 8.74999 8.24861 8.74999 8.125C8.74999 7.95924 8.81584 7.80027 8.93305 7.68306C9.05026 7.56585 9.20923 7.5 9.37499 7.5ZM3.74999 7.46875C3.74999 7.30299 3.81584 7.14402 3.93305 7.02681C4.05026 6.9096 4.20923 6.84375 4.37499 6.84375C4.54075 6.84375 4.69973 6.9096 4.81694 7.02681C4.93415 7.14402 4.99999 7.30299 4.99999 7.46875V7.53125C4.99999 7.69701 4.93415 7.85598 4.81694 7.97319C4.69973 8.0904 4.54075 8.15625 4.37499 8.15625C4.20923 8.15625 4.05026 8.0904 3.93305 7.97319C3.81584 7.85598 3.74999 7.69701 3.74999 7.53125V7.46875ZM3.74999 9.96875C3.74999 9.80299 3.81584 9.64402 3.93305 9.52681C4.05026 9.4096 4.20923 9.34375 4.37499 9.34375C4.54075 9.34375 4.69973 9.4096 4.81694 9.52681C4.93415 9.64402 4.99999 9.80299 4.99999 9.96875V10.0312C4.99999 10.197 4.93415 10.356 4.81694 10.4732C4.69973 10.5904 4.54075 10.6562 4.37499 10.6562C4.20923 10.6562 4.05026 10.5904 3.93305 10.4732C3.81584 10.356 3.74999 10.197 3.74999 10.0312V9.96875ZM3.74999 12.4688C3.74999 12.303 3.81584 12.144 3.93305 12.0268C4.05026 11.9096 4.20923 11.8438 4.37499 11.8438C4.54075 11.8438 4.69973 11.9096 4.81694 12.0268C4.93415 12.144 4.99999 12.303 4.99999 12.4688V12.5312C4.99999 12.697 4.93415 12.856 4.81694 12.9732C4.69973 13.0904 4.54075 13.1562 4.37499 13.1562C4.20923 13.1562 4.05026 13.0904 3.93305 12.9732C3.81584 12.856 3.74999 12.697 3.74999 12.5312V12.4688Z" fill="white"/>
</svg>
