<svg width="866" height="670" viewBox="0 0 866 670" fill="none" xmlns="http://www.w3.org/2000/svg">
<path d="M672.492 68.4257C654.248 73.0085 632.236 81.88 627.196 100.949C621.128 123.909 641.957 120.156 649 134C662.712 160.953 611.844 200.528 588 232C561.928 266.413 590.34 325.912 515.999 356" stroke="#BABAE5"/>
<path d="M706.316 40.4992L693.565 51.8011L735.26 57.0572L706.316 40.4992Z" fill="#ECECEC"/>
<path d="M701.902 76.1599L693.475 51.4349L748.704 58.0151L701.902 76.1599Z" fill="#9A9AD7"/>
<path d="M733.695 60.1623L689.798 57.0029L680.232 73.3461L733.695 60.1623Z" fill="#ECECEC"/>
<path fill-rule="evenodd" clip-rule="evenodd" d="M644.143 278.655C635.185 302.669 629.478 327.691 641.937 332.715C667.141 342.913 682.178 238.468 678.311 229.904C668.836 208.929 646.483 272.361 644.143 278.655Z" fill="#FCE8E8"/>
<path fill-rule="evenodd" clip-rule="evenodd" d="M622.518 319.508C637.667 303.284 654.553 290.402 661.943 303.059C674.271 324.087 632.798 350.414 612.792 359.516C606.014 357.111 601.831 353.895 601.283 346.611C608.275 334.771 620.303 321.878 622.518 319.508Z" fill="#FCE8E8"/>
<path fill-rule="evenodd" clip-rule="evenodd" d="M665.53 345.107L674.591 475.094L677.422 516L687.496 659.331H713.046L710.52 363.474C710.52 363.474 673.645 321.991 665.53 345.107Z" fill="#281616"/>
<path fill-rule="evenodd" clip-rule="evenodd" d="M740.056 345.109L751.406 437.43L756.026 475.09L761.046 515.995L778.63 659.331H752.895L698.322 363.453C698.322 363.453 727.44 321.994 740.056 345.109Z" fill="#6D6DF6"/>
<path fill-rule="evenodd" clip-rule="evenodd" d="M726.47 338.1L738.477 345.158C738.477 345.158 723.451 398.233 706.516 398.33C689.582 398.428 678.915 344.852 678.915 344.852L726.47 338.1Z" fill="#6D6DF6"/>
<path fill-rule="evenodd" clip-rule="evenodd" d="M717.729 158.574C717.729 158.574 717.672 155.705 714.799 157.197C714.433 157.386 714.227 157.105 714.135 156.485C714.135 156.399 714.106 156.307 714.095 156.204C709.602 127.286 678.641 171.361 667.537 150.81C668.23 154.178 670.359 158.46 674.366 162.287C684.159 171.705 697.152 174.282 704.21 172.043C711.267 169.805 717.592 167.223 717.729 158.574Z" fill="#281616"/>
<path fill-rule="evenodd" clip-rule="evenodd" d="M716.147 167.793C717.247 170.128 718.451 172.189 719.655 173.048C723.11 175.55 724.182 166.236 724.614 162.692C725.046 159.148 725.881 153.858 723.266 153.761C722.155 153.834 721.062 154.081 720.029 154.494C719.418 150.681 721.446 135.379 705.1 138.39C692.164 140.771 684.123 149.112 677.862 144.052C671.601 138.991 670.156 150.962 680.016 160.356C689.877 169.751 702.951 172.327 710.053 170.088C712.135 169.464 714.172 168.697 716.147 167.793Z" fill="white"/>
<path fill-rule="evenodd" clip-rule="evenodd" d="M679.583 158.695C679.583 158.695 683.386 171.26 686.848 173.724C690.309 176.187 691.383 167.016 691.821 163.521C692.26 160.025 693.085 154.822 690.465 154.732C687.846 154.642 679.583 158.695 679.583 158.695Z" fill="#281616"/>
<path fill-rule="evenodd" clip-rule="evenodd" d="M710.957 173.469L719.587 178.476L721.076 220.553L692.299 223.662L695.128 187.172L710.957 173.469Z" fill="#FFE1DA"/>
<path fill-rule="evenodd" clip-rule="evenodd" d="M697.238 223.134L692.299 223.662L695.136 187.166L700.927 182.169L701.668 182.622L697.238 223.134Z" fill="#FF8685"/>
<path fill-rule="evenodd" clip-rule="evenodd" d="M710.561 173.469L714.894 175.95C716.386 190.172 707.25 207.53 692.968 208.269L694.635 187.06L710.561 173.469Z" fill="#412F2F"/>
<path fill-rule="evenodd" clip-rule="evenodd" d="M684.422 148.708C685.174 151.12 680.252 199.651 696.288 200.227C712.324 200.803 722.358 179.983 719.136 164.633C715.914 149.284 684.422 148.708 684.422 148.708Z" fill="#FFD3CA"/>
<path fill-rule="evenodd" clip-rule="evenodd" d="M703.007 198.9C715.042 194.263 721.901 177.471 719.122 164.562C718.427 161.352 716.467 158.809 713.823 156.738C710.979 157.314 708.647 157.889 708.647 157.889C708.647 157.889 711.538 177.822 707.517 182.706C704.443 186.417 703.66 194.165 703.007 198.9Z" fill="#FFE1DA"/>
<path fill-rule="evenodd" clip-rule="evenodd" d="M684.414 148.708C684.711 149.648 684.13 157.682 684.3 167.087C693.095 172.316 702.967 173.177 708.809 171.053C712.799 169.597 716.538 168.061 719.068 165.483C719.006 165.121 718.937 164.764 718.863 164.407C715.666 149.291 684.414 148.708 684.414 148.708Z" fill="#FF8685"/>
<path fill-rule="evenodd" clip-rule="evenodd" d="M684.414 148.708C685.119 150.994 680.721 195.712 694.307 199.569C694.289 199.349 694.209 199.139 694.077 198.964C691.761 195.758 693.428 193.363 693.814 191.534C694.164 190.122 694.003 188.629 693.361 187.328C692.801 186.02 693.708 186.254 693.741 185.208C693.775 184.162 692.594 183.797 692.622 183.151C692.65 182.505 693.182 180.962 692.807 180.145C692.432 179.328 689.176 179.442 688.773 178.219C688.37 176.996 691.671 155.36 691.822 154.263L686.993 148.828C685.387 148.725 684.414 148.708 684.414 148.708Z" fill="#FF8685"/>
<path fill-rule="evenodd" clip-rule="evenodd" d="M722.414 157.297C722.414 157.297 722.357 154.439 719.498 155.925C716.953 157.269 723.075 135.521 704.072 139.059C691.282 141.437 683.332 149.764 677.136 144.712C670.941 139.659 669.523 151.61 679.272 160.989C689.021 170.369 701.948 172.94 708.969 170.706C715.991 168.471 722.283 165.91 722.414 157.297Z" fill="#412F2F"/>
<path fill-rule="evenodd" clip-rule="evenodd" d="M722.414 157.261C722.414 157.261 722.357 154.391 719.483 155.884C719.117 156.079 718.911 155.792 718.825 155.178V155.143C718.825 155.057 718.825 154.965 718.785 154.868C714.291 125.947 683.327 170.02 672.222 149.467C672.914 152.836 675.044 157.118 679.051 160.946C688.846 170.364 701.846 172.947 708.904 170.703C715.963 168.459 722.282 165.91 722.414 157.261Z" fill="#281616"/>
<path fill-rule="evenodd" clip-rule="evenodd" d="M711.038 158.695C711.038 158.695 714.846 171.26 718.302 173.724C721.758 176.187 722.843 167.016 723.276 163.521C723.708 160.026 724.545 154.828 721.92 154.732C719.294 154.637 711.038 158.695 711.038 158.695Z" fill="#281616"/>
<path fill-rule="evenodd" clip-rule="evenodd" d="M717.873 171.308C717.873 171.308 720.402 165.747 723.19 166.946C725.978 168.146 723.621 180.473 720.236 181.367C716.852 182.261 714.855 178.612 717.873 171.308Z" fill="#FFE1DA"/>
<path fill-rule="evenodd" clip-rule="evenodd" d="M754.537 231.019L720.856 211.615C720.856 211.615 699.393 222.891 693.016 212.823C686.737 216.601 667.116 224.036 663.663 234.499C652.826 267.347 663.295 339.688 665.632 360.42C666.501 368.141 735.394 369.228 741.668 362.102C744.58 358.794 737.725 317.595 743.699 293.762C750.589 266.151 754.537 231.019 754.537 231.019Z" fill="white"/>
<path fill-rule="evenodd" clip-rule="evenodd" d="M737.137 329.4C736.408 320.407 735.484 308.443 736.758 296.76C732.653 296.394 728.387 296.196 724.098 296.05C720.435 295.948 700.529 295.412 685.848 298.096C684.183 304.603 682.225 312.243 680.922 317.407C693.852 322.454 717.375 328.526 737.137 329.4Z" fill="#FCE8E8"/>
<path fill-rule="evenodd" clip-rule="evenodd" d="M723.619 366.208C732.793 365.481 739.879 364.107 741.7 362.059C744.643 358.751 737.709 317.557 743.753 293.727C747.709 278.121 753.189 261.467 757.215 249.935L750.583 245.746C750.583 245.746 722.659 281.537 721.403 308.269C720.146 335.001 722.869 357.337 723.619 366.208Z" fill="#FCE8E8"/>
<path fill-rule="evenodd" clip-rule="evenodd" d="M717.828 157.408C717.828 157.461 711.332 176.641 688.587 161.876L688.284 162.404C711.658 177.584 718.382 157.704 718.399 157.657L717.828 157.408Z" fill="#412F2F"/>
<path fill-rule="evenodd" clip-rule="evenodd" d="M725.091 153.359C725.091 153.359 720.923 150.846 719.068 155.812L719.589 156.069C721.225 151.705 724.851 153.896 724.862 153.902L725.091 153.359Z" fill="#281616"/>
<path fill-rule="evenodd" clip-rule="evenodd" d="M739.571 328.197L734.41 249.889L674.703 261.365L676.966 334.503L739.571 328.197Z" fill="#FCE8E8"/>
<path fill-rule="evenodd" clip-rule="evenodd" d="M731.622 326.894L726.389 255.37L666.693 265.773L669.023 332.572L731.622 326.894Z" fill="#F8CA7A"/>
<path fill-rule="evenodd" clip-rule="evenodd" d="M733.692 325.058L728.468 252.98L668.767 263.471L671.092 330.788L733.692 325.058Z" fill="white"/>
<path fill-rule="evenodd" clip-rule="evenodd" d="M731.174 320.836L725.94 249.312L666.245 259.715L668.575 326.515L731.174 320.836Z" fill="#F8CA7A"/>
<path fill-rule="evenodd" clip-rule="evenodd" d="M722.317 150.715C722.317 150.715 717.295 151.429 718.622 156.739L719.194 156.611C718.05 151.969 722.403 151.325 722.414 151.325L722.317 150.715Z" fill="#281616"/>
<path fill-rule="evenodd" clip-rule="evenodd" d="M700.836 184.236C700.836 184.236 695.145 185.714 691.875 184.177L691.63 184.764C695.128 186.395 700.958 184.863 700.999 184.863L700.836 184.236Z" fill="#FF8685"/>
<path fill-rule="evenodd" clip-rule="evenodd" d="M699.661 184.068C699.661 184.068 700.491 184.61 700.219 185.257L700.9 185.515C701.369 184.401 700.021 183.508 700.021 183.508L699.661 184.068Z" fill="#FF8685"/>
<path fill-rule="evenodd" clip-rule="evenodd" d="M717.06 181.069C717.065 181.014 717.048 180.958 717.014 180.915C716.98 180.871 716.93 180.842 716.875 180.833C716.849 180.829 716.822 180.83 716.796 180.837C716.77 180.843 716.745 180.855 716.724 180.871C716.702 180.887 716.684 180.907 716.671 180.93C716.657 180.954 716.648 180.979 716.645 181.006C716.645 181.04 715.533 191.725 705.121 197.171C705.097 197.184 705.076 197.201 705.059 197.222C705.043 197.243 705.03 197.267 705.022 197.293C705.015 197.318 705.013 197.345 705.016 197.372C705.019 197.398 705.027 197.424 705.04 197.448C705.067 197.497 705.112 197.534 705.166 197.551C705.219 197.568 705.278 197.564 705.328 197.54C715.925 191.996 717.054 181.103 717.06 181.069Z" fill="white"/>
<path fill-rule="evenodd" clip-rule="evenodd" d="M722.626 169.454C720.395 172.036 719.224 174.255 718.714 175.882C717.543 179.649 719.927 180.253 720.992 174.991L720.448 174.859C719.692 179.022 718.328 178.683 719.277 175.917C720.142 173.666 721.434 171.596 723.083 169.816L722.626 169.454Z" fill="#FF8685"/>
<path fill-rule="evenodd" clip-rule="evenodd" d="M708.588 178.219C708.032 178.123 707.461 178.133 706.909 178.248C706.357 178.363 705.837 178.58 705.38 178.886C704.922 179.193 704.538 179.582 704.251 180.03C703.963 180.477 703.778 180.974 703.707 181.49C703.569 182.557 703.882 183.631 704.581 184.493C705.279 185.354 706.31 185.936 707.461 186.12C708.017 186.215 708.589 186.205 709.141 186.09C709.692 185.976 710.213 185.758 710.67 185.452C711.127 185.146 711.511 184.757 711.799 184.309C712.087 183.861 712.272 183.364 712.343 182.848C712.481 181.781 712.169 180.706 711.47 179.845C710.772 178.983 709.74 178.401 708.588 178.219Z" fill="#FF8685"/>
<path fill-rule="evenodd" clip-rule="evenodd" d="M700.297 172.8C700.123 172.797 699.95 172.821 699.789 172.87C699.628 172.919 699.482 172.992 699.36 173.084C699.238 173.177 699.142 173.287 699.079 173.409C699.015 173.53 698.986 173.66 698.992 173.79C699.005 174.06 699.155 174.315 699.411 174.505C699.667 174.694 700.01 174.802 700.369 174.807C700.543 174.811 700.715 174.787 700.876 174.738C701.037 174.689 701.182 174.616 701.304 174.523C701.425 174.431 701.52 174.32 701.583 174.199C701.645 174.077 701.674 173.948 701.667 173.817C701.656 173.548 701.508 173.293 701.253 173.104C700.998 172.914 700.655 172.806 700.297 172.8Z" fill="#281616"/>
<path fill-rule="evenodd" clip-rule="evenodd" d="M704.316 172.829L698.323 172.8L698.352 173.44L704.346 173.469L704.316 172.829Z" fill="#281616"/>
<path fill-rule="evenodd" clip-rule="evenodd" d="M688.953 172.552L684.337 172.131L684.269 173.042L688.884 173.469L688.953 172.552Z" fill="#281616"/>
<path fill-rule="evenodd" clip-rule="evenodd" d="M687.356 172.809C687.226 172.791 687.094 172.8 686.969 172.836C686.843 172.871 686.726 172.933 686.624 173.017C686.523 173.101 686.44 173.205 686.38 173.323C686.32 173.441 686.285 173.57 686.277 173.703C686.274 173.968 686.367 174.226 686.537 174.428C686.708 174.63 686.945 174.761 687.205 174.799C687.334 174.817 687.467 174.808 687.593 174.772C687.719 174.736 687.836 174.673 687.938 174.589C688.039 174.505 688.122 174.4 688.182 174.281C688.241 174.163 688.276 174.033 688.284 173.9C688.292 173.633 688.201 173.373 688.029 173.17C687.857 172.968 687.617 172.839 687.356 172.809Z" fill="#281616"/>
<path fill-rule="evenodd" clip-rule="evenodd" d="M749.329 294.411C750.002 319.884 756.393 330.343 769.854 329.334C797.086 327.297 764.968 239.259 758.175 233.292C752.266 228.129 745.984 229.683 744.018 238.651C740.437 254.973 749.214 290.114 749.329 294.411Z" fill="white"/>
<path fill-rule="evenodd" clip-rule="evenodd" d="M781.307 660H751.86C752.029 647.026 759.252 642.631 766.848 644.264C774.443 645.898 778.953 651.234 781.307 660Z" fill="#281616"/>
<path fill-rule="evenodd" clip-rule="evenodd" d="M695.886 638.585C693.585 638.968 647.56 652.892 646.122 659.331H705.684C705.684 659.331 703.63 645.235 695.886 638.585Z" fill="#281616"/>
<path d="M725.122 375.783L724.146 376.87L748.159 398.346L749.134 397.259L725.122 375.783Z" fill="black"/>
<path fill-rule="evenodd" clip-rule="evenodd" d="M601.156 348.18C602.819 344.758 607.827 343.763 612.324 345.96C616.82 348.157 619.142 352.706 617.473 356.128C615.803 359.55 610.801 360.545 606.305 358.348C601.808 356.151 599.487 351.602 601.156 348.18Z" fill="#281616"/>
<path fill-rule="evenodd" clip-rule="evenodd" d="M603.176 372.9C603.176 372.9 613.123 362.989 614.569 356.599C615.889 350.8 603.633 342.727 598.999 346.375C593.918 350.376 589.237 363.772 589.237 363.772L603.176 372.9Z" fill="#FF8685"/>
<path fill-rule="evenodd" clip-rule="evenodd" d="M591.039 359.383L591.119 359.248C591.276 358.989 591.483 358.765 591.726 358.59C591.968 358.415 592.243 358.292 592.533 358.228C592.823 358.164 593.123 358.16 593.414 358.218C593.705 358.275 593.983 358.392 594.229 358.562C594.732 358.909 595.084 359.444 595.21 360.054C595.336 360.664 595.225 361.3 594.901 361.828L594.816 361.957L582.854 380.032C582.772 380.168 582.678 380.298 582.575 380.419C582.325 380.696 581.988 380.873 581.623 380.919C581.259 380.965 580.89 380.877 580.582 380.671C580.245 380.435 580.006 380.078 579.912 379.67C579.818 379.262 579.876 378.833 580.075 378.466L580.132 378.367L591.039 359.383Z" fill="#FF8685"/>
<path fill-rule="evenodd" clip-rule="evenodd" d="M593.577 364.224L593.641 364.085C593.779 363.816 593.97 363.579 594.201 363.386C594.432 363.193 594.699 363.048 594.987 362.96C595.274 362.872 595.576 362.842 595.876 362.873C596.175 362.904 596.465 362.995 596.728 363.14C597.265 363.439 597.663 363.936 597.839 364.527C598.015 365.117 597.954 365.753 597.669 366.298L597.594 366.431L586.861 385.46C586.658 385.827 586.32 386.099 585.92 386.219C585.52 386.338 585.089 386.294 584.72 386.097C584.353 385.888 584.079 385.546 583.956 385.141C583.833 384.736 583.868 384.298 584.056 383.919L593.577 364.224Z" fill="#FF8685"/>
<path fill-rule="evenodd" clip-rule="evenodd" d="M597.71 364.741L597.784 364.607C597.942 364.348 598.149 364.125 598.392 363.949C598.636 363.773 598.911 363.649 599.202 363.584C599.493 363.519 599.794 363.513 600.087 363.568C600.38 363.623 600.66 363.738 600.909 363.905C601.416 364.248 601.772 364.78 601.9 365.388C602.029 365.995 601.919 366.63 601.596 367.157L601.516 367.285L589.446 385.562C589.218 385.915 588.863 386.162 588.458 386.25C588.053 386.337 587.631 386.258 587.282 386.03C586.936 385.79 586.692 385.424 586.6 385.007C586.509 384.589 586.577 384.152 586.79 383.784L597.71 364.741Z" fill="#FF8685"/>
<path fill-rule="evenodd" clip-rule="evenodd" d="M602.392 369.235L602.445 369.128C602.566 368.922 602.728 368.74 602.924 368.594C603.119 368.448 603.343 368.341 603.583 368.278C603.822 368.216 604.072 368.2 604.319 368.231C604.565 368.262 604.802 368.34 605.016 368.459C605.452 368.705 605.77 369.103 605.902 369.568C606.033 370.034 605.968 370.53 605.72 370.95L605.655 371.057L596.352 385.676C596.176 385.955 595.892 386.158 595.561 386.242C595.23 386.326 594.878 386.284 594.579 386.125C594.282 385.952 594.065 385.678 593.972 385.359C593.879 385.04 593.916 384.699 594.077 384.405L602.392 369.235Z" fill="#FF8685"/>
<path fill-rule="evenodd" clip-rule="evenodd" d="M585.625 358.942C585.341 358.621 585.197 358.204 585.225 357.781C585.253 357.358 585.451 356.963 585.776 356.681C585.958 356.523 586.176 356.409 586.412 356.348C589.372 354.856 592.002 351.138 592.465 350.466V350.437C592.572 350.287 592.696 350.149 592.835 350.025C593.06 349.832 593.322 349.684 593.606 349.591C593.89 349.498 594.19 349.461 594.489 349.483C594.788 349.504 595.079 349.584 595.346 349.717C595.613 349.85 595.85 350.033 596.044 350.257C596.382 350.648 596.577 351.139 596.597 351.651C596.617 352.163 596.461 352.667 596.154 353.082C593.263 357.252 587.29 359.586 587.233 359.473C586.941 359.541 586.635 359.527 586.351 359.433C586.066 359.339 585.815 359.169 585.625 358.942Z" fill="#FFE1DA"/>
<path fill-rule="evenodd" clip-rule="evenodd" d="M599.864 346.08C600.046 345.961 600.237 345.86 600.437 345.777C601.21 345.445 602.067 345.373 602.883 345.571C603.699 345.769 604.431 346.227 604.973 346.878C605.675 347.705 606.03 348.78 605.959 349.87C605.888 350.96 605.398 351.978 604.594 352.704C603.99 353.254 603.229 353.597 602.421 353.682C602.314 353.691 602.207 353.691 602.1 353.682L595.621 354.108C595.181 354.201 594.724 354.172 594.299 354.024C593.874 353.875 593.496 353.612 593.207 353.263C592.766 352.74 592.545 352.063 592.588 351.376C592.632 350.69 592.939 350.048 593.442 349.587C593.516 349.522 593.595 349.461 593.677 349.406C593.842 349.288 594.022 349.19 594.21 349.115L599.864 346.08Z" fill="#FFE1DA"/>
<path fill-rule="evenodd" clip-rule="evenodd" d="M732.96 292.85C758.143 297.669 782.365 305.992 779.778 320.026C775.462 343.445 713.912 320.342 689.622 306.974C690.938 302.053 692.902 294.78 694.573 288.589C709.305 288.335 729.286 292.144 732.96 292.85Z" fill="white"/>
<path fill-rule="evenodd" clip-rule="evenodd" d="M763.238 300.63C763.135 300.591 728.802 287.336 697.653 286.569V288.002C728.522 288.758 762.643 301.928 762.746 301.962L763.238 300.63Z" fill="#FCE8E8"/>
<path fill-rule="evenodd" clip-rule="evenodd" d="M726.908 213.623C726.828 213.673 700.687 232.922 688.178 213.623L686.945 214.387C700.303 235 727.665 214.825 727.768 214.769L726.908 213.623Z" fill="#3B47BC"/>
<path fill-rule="evenodd" clip-rule="evenodd" d="M682.261 287.919C682.261 287.24 676.843 277.869 676.843 277.869C676.843 277.869 659.123 281.424 658.283 282.471C657.443 283.518 661.462 295.639 662.99 296.899C664.518 298.159 675.023 299.954 675.023 299.954L682.261 287.919Z" fill="#FFE1DA"/>
<path fill-rule="evenodd" clip-rule="evenodd" d="M676.499 277.976C676.561 277.944 676.626 277.917 676.693 277.896C678.823 277.151 697.679 292.223 697.679 292.223C701.303 303.175 696.473 305.364 694.588 305.977L674.866 299.971C668.081 289.644 676.499 277.976 676.499 277.976Z" fill="#FF8685"/>
<path fill-rule="evenodd" clip-rule="evenodd" d="M747.846 414.524L766.464 639.923L767.923 639.791L749.304 414.392L747.846 414.524Z" fill="white"/>
<path fill-rule="evenodd" clip-rule="evenodd" d="M748.009 236.377C747.981 236.411 737.256 247.868 747.796 291.254L749.183 290.904C738.824 248.286 749.037 237.391 749.065 237.356L748.009 236.377Z" fill="#3B47BC"/>
<path fill-rule="evenodd" clip-rule="evenodd" d="M157.325 216.706C155.469 218.753 152.306 218.907 150.26 217.051L130.982 199.56C130.981 199.56 130.981 199.56 130.982 199.56C130.982 199.56 130.982 199.56 130.982 199.56L160.312 166.984C160.312 166.984 160.312 166.984 160.312 166.984L160.312 166.984C160.312 166.983 160.312 166.983 160.313 166.984C160.313 166.984 160.313 166.984 160.313 166.984L160.313 166.983C160.313 166.983 160.313 166.983 160.313 166.984L160.313 166.984C160.313 166.984 160.313 166.984 160.313 166.984L183.507 187.813C183.507 187.813 183.508 187.813 183.508 187.813C183.508 187.813 183.508 187.814 183.508 187.814L183.211 188.141L157.325 216.706Z" fill="#181E3E"/>
<path fill-rule="evenodd" clip-rule="evenodd" d="M460.514 80.8304L478.384 34.0384L478.388 34.0451L478.385 34.0391L544.572 59.028L544.573 59.0277L544.573 59.0283L544.574 59.0288L544.573 59.0294L526.862 106.124L526.863 106.126L526.351 105.93L460.514 80.8304Z" fill="#181E3E"/>
<path fill-rule="evenodd" clip-rule="evenodd" d="M819.832 243.414L806.891 212.137L806.894 212.138L806.892 212.137L850.999 193.691L851 193.69L851 193.691L851.001 193.69L851 193.691L864.16 225.043L864.161 225.043L863.9 225.151L819.832 243.414Z" fill="#181E3E"/>
<path d="M619.066 354.614C619.066 315.554 467 214.554 467 214.554C442.5 198.554 407 200.554 383.5 214.554C383.5 214.554 230 304.554 230 354.554L428.813 592.669L619.066 354.614Z" fill="#61B472"/>
<rect x="239.517" y="231.054" width="270.56" height="311.67" rx="4" fill="#E3DFDF"/>
<rect x="267" y="272.054" width="271" height="312" rx="4" fill="#D2D2D2" fill-opacity="0.5"/>
<rect x="263.418" y="276.219" width="323.143" height="311.67" rx="4" fill="#ECE7E7"/>
<path d="M461 514.554L263 375.054V402.054L434 526.554L461 514.554Z" fill="#BDE8C6"/>
<path d="M229.956 632.823L230 354.554L429.769 507.582L619.066 354.615V632.823H229.956Z" fill="#8FD39D"/>
<path d="M619 633.054L449.846 490.83C431.303 477.588 423.14 482.051 408.736 490.83L229 631.867L619 633.054Z" fill="#7DC98C"/>
<path fill-rule="evenodd" clip-rule="evenodd" d="M291.997 558.059L292 558.054H231L231.003 558.058L231 558.054V633.054V633.054H292V633.054V558.054L291.997 558.059Z" fill="#6EBC7E" fill-opacity="0.5"/>
<path fill-rule="evenodd" clip-rule="evenodd" d="M291.978 633.063L292 633.054H231L231.02 633.062L231 633.054V654.054V654.054H292V654.054V633.054L291.978 633.063Z" fill="#4F548A"/>
<path d="M142 662.054V562.054L214.405 616.587L283 562.054V662.054H142Z" fill="#BABAE5"/>
<path d="M283 662.054L221.397 610.125C214.647 605.249 211.675 606.892 206.431 610.125L142 662.054H283Z" fill="#ABABDD"/>
<path d="M283 562.054L221.397 613.983C214.647 618.858 211.675 617.215 206.431 613.983L142 562.054H283Z" fill="#9A9AD7"/>
<path d="M443.123 84.054L461.623 35.554L486.809 75.7241L530.123 62.054L511.767 110.6L443.123 84.054Z" fill="#BABAE5"/>
<path d="M511.767 110.6L491.413 73.8761C489.032 70.2486 487.28 70.4968 484.126 71.0973L443.124 84.054L511.767 110.6Z" fill="#ABABDD"/>
<path d="M530.124 62.054L490.697 75.7544C486.504 76.875 485.363 75.5232 483.41 72.9756L461.623 35.554L530.124 62.054Z" fill="#9A9AD7"/>
<path d="M813.5 251.054L799.5 217.054L831.903 225.671L847.501 197.054L861.748 231.615L813.5 251.054Z" fill="#BABAE5"/>
<path d="M861.747 231.616L833.389 222.48C830.396 221.758 829.609 222.736 828.268 224.577L813.5 251.054L861.747 231.616Z" fill="#ABABDD"/>
<path d="M847.501 197.054L833.93 223.8C832.304 226.414 831.056 226.269 828.809 225.897L799.501 217.054L847.501 197.054Z" fill="#9A9AD7"/>
<path d="M148.001 219L127.501 199L153.598 194.665L156.001 169L177.112 189.661L148.001 219Z" fill="#BABAE5"/>
<path d="M177.112 189.661L153.681 191.886C151.283 192.296 151.018 193.252 150.619 195.007L148.001 219L177.112 189.661Z" fill="#ABABDD"/>
<path d="M156 169L154.485 192.675C154.12 195.08 153.17 195.364 151.423 195.796L127.5 199L156 169Z" fill="#9A9AD7"/>
<path fill-rule="evenodd" clip-rule="evenodd" d="M294.728 171.453C292.121 172.366 289.267 170.992 288.355 168.385L276 133.057C276 133.056 276.001 133.054 276.002 133.055C276.001 133.054 276.001 133.053 276.002 133.053L332.498 113.054C332.498 113.054 332.498 113.054 332.498 113.054L332.499 113.054C332.499 113.054 332.499 113.054 332.499 113.054C332.499 113.054 332.499 113.054 332.499 113.054L332.499 113.054C332.499 113.054 332.499 113.054 332.499 113.054L332.499 113.054C332.499 113.054 332.499 113.055 332.499 113.055L346.775 153.217C346.775 153.217 346.775 153.217 346.775 153.217C346.775 153.218 346.775 153.218 346.775 153.218L346.599 153.279L294.728 171.453Z" fill="#181E3E"/>
<path d="M280.507 181.607L266.5 141.554L303.245 153.088L323 121.554L337.276 161.718L280.507 181.607Z" fill="#ED694A"/>
<path d="M337.277 161.718L305.149 149.5C301.744 148.489 300.779 149.57 299.124 151.611L280.501 181.554L337.277 161.718Z" fill="#E56344"/>
<path d="M323 121.554L305.694 151.053C303.664 153.969 302.235 153.726 299.668 153.164L266.5 141.554L323 121.554Z" fill="#E35C3C"/>
<path d="M547 276.054H500V338.054L523.5 318.627L547 338.054V276.054Z" fill="#DCDBDB"/>
<path d="M543 263.054H496V338.054L519.5 314.554L543 338.054V263.054Z" fill="#ED694A"/>
<rect x="292" y="308.054" width="188" height="19" rx="3" fill="#D8D8E8"/>
<rect x="292" y="352.054" width="246" height="12" rx="3" fill="#D8D8E8"/>
<rect x="343" y="378.054" width="195" height="18" rx="3" fill="#D8D8E8"/>
<path d="M696 660L808 660" stroke="white"/>
<path d="M633 660L684 660" stroke="white"/>
<path d="M283 633.054L337 633.054" stroke="white"/>
<path d="M348 633.054L381 633.054" stroke="white"/>
<path d="M415 633.054L524 633.054" stroke="white"/>
<path d="M534 633.054L643 633.054" stroke="white"/>
<path d="M510 639.054L584 639.054" stroke="white"/>
<path d="M283 639.054L365 639.054" stroke="white"/>
<path d="M199 669.054L281 669.054" stroke="white"/>
<path d="M659 669L741 669" stroke="white"/>
<path d="M107 662.054L173 662.054" stroke="white"/>
<path d="M193 662.054L213 662.054" stroke="white"/>
<path d="M229 662.054L331 662.054" stroke="white"/>
<path d="M103.115 37C127.782 40.6667 157.98 49.5 167.115 74C178.115 103.5 171.035 123.783 151.115 129C130.115 134.5 160.554 67.5894 196.115 106C235 148 130 356 232 386" stroke="#BABAE5"/>
<path d="M54.8494 4.56807L73.1456 17.8156L18.8232 30.1877L54.8494 4.56807Z" fill="#ECECEC"/>
<path d="M65.3236 51.0391L73.2178 17.3207L1.2129 33.2046L65.3236 51.0391Z" fill="#9A9AD7"/>
<path d="M21.2933 34.08L78.7945 24.187L93.5457 44.5008L21.2933 34.08Z" fill="#ECECEC"/>
</svg>
