<svg width="172" height="253" viewBox="0 0 172 253" fill="none" xmlns="http://www.w3.org/2000/svg">
<path fill-rule="evenodd" clip-rule="evenodd" d="M28.3127 11.9883C28.3127 11.9883 27.991 10.6304 29.4789 11.1735C29.6693 11.2442 29.7202 11.0975 29.6961 10.8015C29.6961 10.758 29.6961 10.7146 29.6961 10.6657C28.2698 -3.23906 47.6446 15.7686 50.2316 5.42697C50.274 7.49736 49.6636 9.5275 48.4891 11.2224C45.1594 16.233 39.559 18.202 36.0766 17.5447C32.5941 16.8875 29.4119 16.0619 28.3127 11.9883Z" fill="#281616"/>
<path fill-rule="evenodd" clip-rule="evenodd" d="M30.0685 16.1207C29.8503 17.3215 29.5393 18.4078 29.1001 18.9372C27.818 20.4792 26.1812 16.3063 25.5538 14.7206C24.9264 13.135 23.8898 10.7933 25.0846 10.4549C25.6065 10.3633 26.1394 10.3541 26.6641 10.4276C26.4758 8.60179 23.6634 1.77883 31.5579 1.32851C37.8048 0.97372 42.524 3.91579 44.7854 0.880932C47.0469 -2.15392 49.1773 3.19801 45.7893 8.63455C42.4013 14.0711 36.7027 16.7266 33.1592 16.4891C32.1218 16.4361 31.0893 16.313 30.0685 16.1207Z" fill="white"/>
<path fill-rule="evenodd" clip-rule="evenodd" d="M45.9507 8.17436C45.9507 8.17436 45.7532 14.2548 44.3878 15.7381C43.0224 17.2214 41.2794 13.2028 40.6112 11.6748C39.9431 10.1468 38.8391 7.89032 40.1086 7.56421C41.3782 7.23809 45.9507 8.17436 45.9507 8.17436Z" fill="#281616"/>
<path fill-rule="evenodd" clip-rule="evenodd" d="M34.2473 17.6673L30.0719 20.017L29.3542 39.7622L43.2738 41.2237L41.9053 24.0974L34.2473 17.6673Z" fill="#FFE1DA"/>
<path fill-rule="evenodd" clip-rule="evenodd" d="M41.0171 40.969L43.2738 41.2237L41.976 23.7976L39.3299 21.4149L38.9909 21.6285L41.0171 40.969Z" fill="#FF8685"/>
<path fill-rule="evenodd" clip-rule="evenodd" d="M33.4156 17.1319L31.4962 18.4679C31.4386 25.3423 35.9712 33.3309 42.7385 33.1913L42.2477 23.1631L33.4156 17.1319Z" fill="#412F2F"/>
<path fill-rule="evenodd" clip-rule="evenodd" d="M42.162 3.74762C42.1082 4.93516 50.1606 26.5229 42.9468 28.591C35.733 30.659 28.667 22.2809 28.2907 14.9165C27.9145 7.55211 42.162 3.74762 42.162 3.74762Z" fill="#FFD3CA"/>
<path fill-rule="evenodd" clip-rule="evenodd" d="M39.5263 28.9101C33.6498 28.1043 28.6068 21.1527 28.2906 14.9221C28.2129 13.3706 28.7756 11.9803 29.7108 10.7457C31.0372 10.7102 32.1224 10.7074 32.1224 10.7074C32.1224 10.7074 33.2291 20.1721 35.5899 21.9721C37.396 23.3379 38.6688 26.8096 39.5263 28.9101Z" fill="#FFE1DA"/>
<path fill-rule="evenodd" clip-rule="evenodd" d="M42.0679 3.74762C42.0466 4.22581 43.285 7.9463 44.3446 12.402C40.9763 15.8821 36.5885 17.4217 33.6686 17.0872C31.6802 16.855 29.7906 16.562 28.3306 15.6388C28.3146 15.4545 28.3013 15.2776 28.2906 15.1081C27.9196 7.61738 42.0679 3.74762 42.0679 3.74762Z" fill="#FF8685"/>
<path fill-rule="evenodd" clip-rule="evenodd" d="M42.2516 3.74762C42.2017 4.8963 49.4826 25.016 43.7482 28.3748C43.7278 28.2717 43.7398 28.1646 43.7824 28.0692C44.4571 26.3202 43.4148 25.4089 43.0236 24.604C42.6966 23.999 42.593 23.2909 42.7321 22.6122C42.8345 21.9438 42.4459 22.1566 42.3068 21.6791C42.1676 21.2016 42.6665 20.8933 42.5693 20.5877C42.4722 20.2821 42.0442 19.6437 42.1309 19.2235C42.2175 18.8033 43.7062 18.4813 43.743 17.8593C43.7797 17.2372 39.7284 7.65478 39.5262 7.15547L41.0937 4.1105C41.8105 3.86767 42.2516 3.74762 42.2516 3.74762Z" fill="#FF8685"/>
<path fill-rule="evenodd" clip-rule="evenodd" d="M25.6366 12.0671C25.6366 12.0671 25.3069 10.7657 26.8315 11.1269C28.205 11.4483 22.6396 2.36271 31.9822 1.83154C38.2701 1.48363 43.0225 4.34926 45.3025 1.39334C47.5825 -1.56259 49.7225 3.65078 46.3107 8.94117C42.8989 14.2316 37.1603 16.8157 33.5919 16.582C30.0236 16.3483 26.7629 15.9207 25.6366 12.0671Z" fill="#412F2F"/>
<path fill-rule="evenodd" clip-rule="evenodd" d="M25.6366 11.9167C25.6366 11.9167 25.3069 10.5799 26.8316 10.951C27.0266 10.9973 27.0788 10.8473 27.0541 10.5499C27.0541 10.509 27.0541 10.4654 27.0376 10.4163C25.5761 -3.37936 45.4435 13.3762 48.0807 2.67685C48.1741 4.31367 47.7071 6.51246 46.3116 8.73307C42.9024 14.1673 37.1608 16.8217 33.5923 16.5816C30.0238 16.3415 26.7629 15.875 25.6366 11.9167Z" fill="#281616"/>
<path fill-rule="evenodd" clip-rule="evenodd" d="M30.9603 11.3865C30.9603 11.3865 30.7792 17.467 29.5275 18.9503C28.2757 20.4336 26.6751 16.415 26.0653 14.887C25.4554 13.359 24.4407 11.1025 25.6045 10.7764C26.7684 10.4503 30.9603 11.3865 30.9603 11.3865Z" fill="#281616"/>
<path fill-rule="evenodd" clip-rule="evenodd" d="M29.5601 18.1984C29.5601 18.1984 27.9206 15.9404 26.9193 16.7862C25.9179 17.6319 28.2544 22.9805 29.7294 23.0204C31.2045 23.0603 31.5898 21.1932 29.5601 18.1984Z" fill="#FFE1DA"/>
<path fill-rule="evenodd" clip-rule="evenodd" d="M27.9842 11.5158C28.0005 11.5379 33.2433 19.4476 41.9995 10.1721L42.2031 10.3771C33.2026 19.9131 27.7643 11.7125 27.748 11.6903L27.9842 11.5158Z" fill="#412F2F"/>
<path fill-rule="evenodd" clip-rule="evenodd" d="M24.0004 10.5041C24.0004 10.5041 25.7383 8.25826 27.2127 10.9941L26.9909 11.2428C25.6862 8.83736 24.1831 10.7974 24.1805 10.8011L24.0004 10.5041Z" fill="#281616"/>
<path fill-rule="evenodd" clip-rule="evenodd" d="M25.0712 9.10703C25.0712 9.10703 27.1911 8.8834 27.2127 11.2428H26.9588C26.9396 9.16733 25.0927 9.36332 25.088 9.36332L25.0712 9.10703Z" fill="#281616"/>
<path fill-rule="evenodd" clip-rule="evenodd" d="M38.9936 21.7086C38.9936 21.7086 41.7792 21.7352 43.0949 20.8795L43.2738 21.0635C41.8728 21.9724 38.9991 21.9502 38.9909 21.9502L38.9936 21.7086Z" fill="#FF8685"/>
<path fill-rule="evenodd" clip-rule="evenodd" d="M39.5263 21.6501C39.5263 21.6501 39.1858 21.9998 39.4275 22.2876L39.1313 22.4857C38.7466 21.9936 39.2743 21.418 39.2743 21.4149L39.5263 21.6501Z" fill="#FF8685"/>
<path fill-rule="evenodd" clip-rule="evenodd" d="M30.9689 22.0872C30.9633 22.0752 30.9604 22.0622 30.9603 22.049C30.9602 22.0358 30.9629 22.0228 30.9684 22.0107C30.9739 21.9986 30.9819 21.9876 30.992 21.9786C31.0021 21.9695 31.014 21.9625 31.0271 21.958C31.0526 21.9479 31.0812 21.9477 31.1068 21.9575C31.1324 21.9673 31.1529 21.9862 31.1638 22.0102C31.8718 23.5299 32.9384 24.876 34.2819 25.9453C35.6253 27.0146 37.2098 27.7788 38.9139 28.1792C38.9272 28.182 38.9396 28.1874 38.9506 28.195C38.9615 28.2026 38.9706 28.2122 38.9775 28.2233C38.9843 28.2344 38.9886 28.2467 38.9902 28.2595C38.9918 28.2722 38.9906 28.2851 38.9866 28.2974C38.9836 28.3103 38.9778 28.3225 38.9696 28.3333C38.9615 28.3441 38.9512 28.3532 38.9392 28.3601C38.9273 28.367 38.914 28.3716 38.9002 28.3736C38.8863 28.3756 38.8722 28.3749 38.8587 28.3717C37.1236 27.9633 35.5104 27.1846 34.1428 26.0952C32.7752 25.0059 31.6895 23.6348 30.9689 22.0872Z" fill="white"/>
<path fill-rule="evenodd" clip-rule="evenodd" d="M27.357 17.6673C28.7325 18.5686 29.5646 19.4202 30.0061 20.0831C31.0335 21.6185 29.9891 22.1399 28.8259 19.9337L29.0665 19.8184C29.9467 21.5713 30.541 21.2778 29.7599 20.159C29.0713 19.257 28.2076 18.4813 27.2127 17.8717L27.357 17.6673Z" fill="#FF8685"/>
<path fill-rule="evenodd" clip-rule="evenodd" d="M34.8031 19.9646C35.0277 19.8661 35.27 19.8132 35.5156 19.8091C35.7612 19.8049 36.0052 19.8496 36.233 19.9405C36.4609 20.0313 36.668 20.1665 36.8421 20.3381C37.0161 20.5096 37.1537 20.714 37.2465 20.9391C37.4333 21.4007 37.4307 21.9163 37.2391 22.376C37.0476 22.8358 36.6823 23.2034 36.221 23.4005C35.9962 23.499 35.7537 23.552 35.5079 23.5561C35.2621 23.5603 35.018 23.5157 34.7899 23.4248C34.5619 23.334 34.3546 23.1988 34.1802 23.0272C34.0059 22.8557 33.8681 22.6512 33.775 22.4261C33.5883 21.9641 33.5913 21.4482 33.7834 20.9885C33.9754 20.5287 34.3414 20.1613 34.8031 19.9646Z" fill="#FF8685"/>
<path fill-rule="evenodd" clip-rule="evenodd" d="M37.7966 16.6134C37.8647 16.5959 37.9357 16.592 38.0053 16.602C38.075 16.612 38.1419 16.6357 38.2021 16.6717C38.2623 16.7077 38.3146 16.7553 38.3558 16.8115C38.397 16.8678 38.4263 16.9317 38.442 16.9994C38.4734 17.1375 38.4496 17.2822 38.3756 17.4034C38.3017 17.5246 38.1832 17.6131 38.0448 17.6504C37.9767 17.668 37.9057 17.6719 37.836 17.6619C37.7664 17.6519 37.6995 17.6282 37.6393 17.5922C37.5791 17.5562 37.5268 17.5086 37.4856 17.4523C37.4444 17.396 37.4151 17.3321 37.3994 17.2644C37.3665 17.1263 37.3896 16.9809 37.4638 16.8593C37.538 16.7377 37.6574 16.6495 37.7966 16.6134Z" fill="#281616"/>
<path fill-rule="evenodd" clip-rule="evenodd" d="M35.7786 17.0118L38.8656 16.0612L38.9909 16.7128L35.9039 17.6673L35.7786 17.0118Z" fill="#281616"/>
<path fill-rule="evenodd" clip-rule="evenodd" d="M42.7385 15.1341L45.2431 14.455L45.4153 14.8468L42.9107 15.5258L42.7385 15.1341Z" fill="#281616"/>
<path fill-rule="evenodd" clip-rule="evenodd" d="M43.6711 14.8644C43.7299 14.8322 43.7925 14.8177 43.8551 14.8218C43.9178 14.826 43.9792 14.8488 44.0358 14.8887C44.0924 14.9287 44.1431 14.9851 44.1847 15.0546C44.2264 15.124 44.2582 15.2052 44.2784 15.2932C44.318 15.4742 44.309 15.6708 44.2531 15.8421C44.1973 16.0135 44.0989 16.1462 43.9787 16.2126C43.9197 16.2448 43.857 16.2591 43.7942 16.2547C43.7314 16.2502 43.6699 16.2272 43.6132 16.1868C43.5566 16.1464 43.506 16.0896 43.4645 16.0197C43.4229 15.9498 43.3913 15.8683 43.3714 15.7799C43.3312 15.5995 43.34 15.403 43.3959 15.232C43.4519 15.0611 43.5506 14.9292 43.6711 14.8644Z" fill="#281616"/>
<path fill-rule="evenodd" clip-rule="evenodd" d="M66.5316 69.5718C70.7909 81.1614 73.5044 93.2371 67.5806 95.6621C55.5976 100.584 48.4482 50.1771 50.2866 46.0439C54.7916 35.9209 65.4192 66.5344 66.5316 69.5718Z" fill="#8FB575"/>
<path fill-rule="evenodd" clip-rule="evenodd" d="M81.4094 87.6585C71.6441 83.2626 61.7637 80.6903 60.9716 87.7491C59.6333 99.486 82.8749 103.428 93.3921 103.719C95.8958 101.363 97.1062 99.1336 95.94 95.7715C90.5927 91.7956 82.837 88.3004 81.4094 87.6585Z" fill="#8FB575"/>
<path fill-rule="evenodd" clip-rule="evenodd" d="M56 101.381L51.6143 164.103L50.2438 183.84L45.3675 253H33L34.2225 110.243C34.2225 110.243 52.0721 90.227 56 101.381Z" fill="#281616"/>
<path fill-rule="evenodd" clip-rule="evenodd" d="M20.2524 101.382L14.8817 145.929L12.6956 164.101L10.3206 183.838L2 253H14.1773L40 110.234C40 110.234 26.2223 90.2284 20.2524 101.382Z" fill="#6D6DF6"/>
<path fill-rule="evenodd" clip-rule="evenodd" d="M26.8459 98L21 101.398C21 101.398 28.3158 126.953 36.5611 127C44.8064 127.047 50 101.251 50 101.251L26.8459 98Z" fill="#6D6DF6"/>
<path fill-rule="evenodd" clip-rule="evenodd" d="M13 46.3729L29.1895 37C29.1895 37 39.5057 42.4468 42.571 37.5834C45.5893 39.4082 55.0202 42.9997 56.6801 48.0539C61.8894 63.9214 56.8572 98.8664 55.734 108.881C55.3162 112.611 22.2013 113.136 19.1858 109.694C17.786 108.095 21.0809 88.1941 18.2093 76.6812C14.8978 63.3435 13 46.3729 13 46.3729Z" fill="#A3CF80"/>
<path fill-rule="evenodd" clip-rule="evenodd" d="M48.1021 86H43.8075L40 64.2196L40.2392 61H53.4389L54 64.2196L52.3938 86H48.1021Z" fill="#8FB575"/>
<path fill-rule="evenodd" clip-rule="evenodd" d="M22 94C22.3502 89.6999 22.7942 83.979 22.182 78.3928C24.1537 78.2176 26.2026 78.1232 28.2626 78.0531C30.022 78.0046 39.5827 77.7485 46.634 79.0318C47.4337 82.143 48.374 85.7961 49 88.2656C42.7898 90.6785 31.4918 93.5821 22 94Z" fill="#8FB575"/>
<path fill-rule="evenodd" clip-rule="evenodd" d="M27.8037 112C23.4882 111.65 20.155 110.989 19.2985 110.002C17.9138 108.41 21.1758 88.5757 18.3324 77.1019C16.4716 69.5877 13.8937 61.5693 12 56.017L15.1197 54C15.1197 54 28.2553 71.2327 28.8464 84.1036C29.4375 96.9744 28.1568 107.729 27.8037 112Z" fill="#8FB575"/>
<path fill-rule="evenodd" clip-rule="evenodd" d="M16.0371 77.0435C15.7141 89.3885 12.6444 94.4572 6.17916 93.9678C-6.90037 92.9808 8.52563 50.3155 11.7886 47.4239C14.6265 44.9215 17.6438 45.675 18.5879 50.0208C20.3077 57.931 16.0923 74.961 16.0371 77.0435Z" fill="#A3CF80"/>
<path fill-rule="evenodd" clip-rule="evenodd" d="M0 253H15C14.9142 247.345 11.2345 245.43 7.3653 246.142C3.49615 246.854 1.19893 249.18 0 253Z" fill="#281616"/>
<path fill-rule="evenodd" clip-rule="evenodd" d="M41.7703 243C42.8907 243.185 65.2997 249.897 66 253H37C37 253 38 246.206 41.7703 243Z" fill="#281616"/>
<path d="M27.4042 116.381L27.8745 116.905L16.293 127.263L15.8227 126.739L27.4042 116.381Z" fill="black"/>
<path fill-rule="evenodd" clip-rule="evenodd" d="M95.8503 94.9498C94.0076 94.1454 91.9771 95.3581 91.3216 97.6537C90.6662 99.9492 91.6181 102.468 93.4627 103.27C95.3073 104.073 97.3359 102.862 97.9914 100.566C98.6468 98.2709 97.6949 95.7522 95.8503 94.9498Z" fill="#281616"/>
<path fill-rule="evenodd" clip-rule="evenodd" d="M104.5 103.5C104.5 103.5 97.4321 103.806 94.836 102.104C92.478 100.563 93.9739 93.7931 96.7473 93.5141C99.7883 93.2093 105.789 96.2341 105.789 96.2341L104.5 103.5Z" fill="#FF8685"/>
<path fill-rule="evenodd" clip-rule="evenodd" d="M103.558 95.4818L103.486 95.4602C103.348 95.42 103.205 95.4075 103.067 95.4235C102.929 95.4394 102.798 95.4834 102.681 95.5529C102.565 95.6224 102.466 95.716 102.39 95.8281C102.314 95.9401 102.263 96.0685 102.239 96.2054C102.192 96.4851 102.256 96.7824 102.421 97.034C102.585 97.2856 102.835 97.4716 103.118 97.5524L103.189 97.5702L113.175 100.067C113.248 100.088 113.322 100.103 113.396 100.113C113.571 100.13 113.741 100.085 113.875 99.9855C114.01 99.8861 114.101 99.739 114.132 99.57C114.163 99.3815 114.121 99.1819 114.015 99.0105C113.908 98.839 113.745 98.7082 113.557 98.6438L113.505 98.6272L103.558 95.4818Z" fill="#FF8685"/>
<path fill-rule="evenodd" clip-rule="evenodd" d="M104.451 97.4799L104.383 97.455C104.245 97.4125 104.1 97.3982 103.954 97.4131C103.808 97.4279 103.665 97.4716 103.534 97.5415C103.402 97.6115 103.284 97.7062 103.187 97.8203C103.09 97.9343 103.016 98.0653 102.969 98.2056C102.875 98.4922 102.894 98.7983 103.024 99.0583C103.154 99.3184 103.384 99.5118 103.664 99.5971L103.734 99.6161L113.79 102.32C113.983 102.374 114.192 102.349 114.375 102.25C114.557 102.152 114.697 101.988 114.765 101.794C114.828 101.596 114.814 101.386 114.726 101.206C114.638 101.027 114.482 100.892 114.291 100.829L104.451 97.4799Z" fill="#FF8685"/>
<path fill-rule="evenodd" clip-rule="evenodd" d="M102.802 98.9999L102.732 98.9767C102.594 98.9369 102.451 98.9246 102.312 98.9406C102.174 98.9566 102.042 99.0006 101.925 99.0699C101.808 99.1392 101.708 99.2326 101.63 99.3444C101.553 99.4562 101.5 99.5843 101.475 99.7212C101.425 100.001 101.487 100.298 101.649 100.55C101.812 100.802 102.061 100.988 102.344 101.068L102.413 101.087L112.502 103.619C112.695 103.67 112.894 103.644 113.056 103.546C113.218 103.448 113.329 103.287 113.366 103.098C113.399 102.905 113.356 102.701 113.245 102.527C113.135 102.353 112.966 102.222 112.772 102.162L102.802 98.9999Z" fill="#FF8685"/>
<path fill-rule="evenodd" clip-rule="evenodd" d="M103.251 101.554L103.199 101.538C103.092 101.514 102.978 101.513 102.863 101.534C102.748 101.555 102.635 101.599 102.53 101.662C102.425 101.725 102.331 101.806 102.252 101.902C102.174 101.997 102.113 102.104 102.073 102.216C101.992 102.445 102.001 102.682 102.097 102.875C102.194 103.069 102.37 103.204 102.588 103.252L102.644 103.263L110.475 104.692C110.624 104.72 110.788 104.687 110.932 104.599C111.077 104.511 111.19 104.375 111.248 104.221C111.301 104.063 111.294 103.901 111.229 103.767C111.164 103.633 111.046 103.538 110.898 103.5L103.251 101.554Z" fill="#FF8685"/>
<path fill-rule="evenodd" clip-rule="evenodd" d="M105.703 92.5356C105.7 92.3167 105.61 92.1147 105.452 91.9736C105.295 91.8325 105.083 91.7635 104.863 91.7818C104.739 91.792 104.617 91.831 104.506 91.8957C102.868 92.4474 100.583 92.0814 100.175 92.0104L100.165 92.0003C100.072 91.9858 99.9772 91.9818 99.8818 91.9883C99.7296 92.0017 99.5792 92.0451 99.4393 92.116C99.2995 92.1868 99.173 92.2837 99.0672 92.401C98.9615 92.5183 98.8786 92.6536 98.8235 92.799C98.7683 92.9445 98.742 93.0971 98.746 93.2481C98.7533 93.5123 98.8494 93.7594 99.0193 93.95C99.1891 94.1405 99.4227 94.2636 99.683 94.2996C102.223 94.732 105.295 93.3769 105.278 93.3152C105.412 93.2326 105.523 93.1156 105.598 92.9777C105.673 92.8398 105.71 92.6866 105.703 92.5356Z" fill="#FFE1DA"/>
<path fill-rule="evenodd" clip-rule="evenodd" d="M96.1643 92.8185C96.0679 92.836 95.9737 92.8623 95.8827 92.8972C95.5277 93.0284 95.2286 93.2717 95.029 93.5916C94.8295 93.9114 94.74 94.291 94.7737 94.6749C94.8118 95.1671 95.0413 95.6325 95.4127 95.9706C95.784 96.3087 96.2673 96.4922 96.7583 96.4817C97.1292 96.4751 97.4837 96.3512 97.7713 96.1275C97.8084 96.097 97.843 96.0636 97.8747 96.0274L100.098 94.148C100.27 94.0419 100.408 93.8899 100.497 93.7083C100.586 93.5266 100.624 93.3221 100.605 93.1164C100.58 92.8064 100.435 92.5136 100.201 92.3004C99.9677 92.0872 99.6638 91.9705 99.3544 91.9752C99.3096 91.9768 99.265 91.9814 99.2209 91.9888C99.1297 92.0013 99.0408 92.0248 98.956 92.0588L96.1643 92.8185Z" fill="#FFE1DA"/>
<path fill-rule="evenodd" clip-rule="evenodd" d="M23.8937 76.0595C11.6291 78.3824 -0.167263 82.3944 1.09265 89.1591C3.19436 100.447 33.1702 89.3114 45 82.8677C44.3589 80.4958 43.4028 76.9897 42.5889 74.0058C35.4141 73.8834 25.6832 75.7195 23.8937 76.0595Z" fill="#A3CF80"/>
<path fill-rule="evenodd" clip-rule="evenodd" d="M9 80.3082C9.0502 80.2876 25.8019 73.3987 41 73V73.7446C25.9386 74.1374 9.29008 80.9824 9.23987 81L9 80.3082Z" fill="#8FB575"/>
<path fill-rule="evenodd" clip-rule="evenodd" d="M26.4215 38C26.4608 38.0252 39.2678 47.6124 45.3959 38L46 38.3806C39.456 48.6478 26.0506 38.5989 26 38.5709L26.4215 38Z" fill="#8FB575"/>
<path d="M48.7683 51.1429L53.6809 67.5142L53.0082 67.7154L48.0957 51.3441L48.7683 51.1429Z" fill="#3B47BC"/>
<path fill-rule="evenodd" clip-rule="evenodd" d="M52.4235 85H48.4361L46 64H59L56.4082 85H52.4235Z" fill="#F8CA7A"/>
<path fill-rule="evenodd" clip-rule="evenodd" d="M46.3851 61L46 64H59L58.6395 61H46.3851Z" fill="#C57C62"/>
<path fill-rule="evenodd" clip-rule="evenodd" d="M52.5102 68.0001C53.202 68.0024 53.8777 68.239 54.4519 68.6799C55.0261 69.1209 55.4731 69.7464 55.7365 70.4775C55.9998 71.2086 56.0677 72.0124 55.9315 72.7876C55.7953 73.5627 55.4611 74.2743 54.9712 74.8326C54.4813 75.3908 53.8577 75.7706 53.179 75.924C52.5004 76.0774 51.7972 75.9975 51.1583 75.6944C50.5193 75.3913 49.9733 74.8786 49.5892 74.2211C49.205 73.5636 49 72.7907 49 72.0001C48.9976 71.473 49.0869 70.9507 49.2626 70.4634C49.4382 69.9761 49.6969 69.5336 50.0234 69.1614C50.35 68.7893 50.738 68.495 51.1649 68.2957C51.5918 68.0963 52.0491 67.9959 52.5102 68.0001Z" fill="#C57C62"/>
<path fill-rule="evenodd" clip-rule="evenodd" d="M48 74.0057C48 73.6676 50.6989 69 50.6989 69C50.6989 69 59.5248 70.7708 59.9431 71.2923C60.3614 71.8138 58.3598 77.851 57.5986 78.4785C56.8375 79.106 51.6053 80 51.6053 80L48 74.0057Z" fill="#FFE1DA"/>
<path fill-rule="evenodd" clip-rule="evenodd" d="M50.9231 69.0533C50.893 69.0374 50.8616 69.024 50.8293 69.0133C49.7944 68.6422 40.6373 76.1494 40.6373 76.1494C38.8776 81.6042 41.223 82.6946 42.1384 83L51.7162 80.0086C55.0112 74.8649 50.9231 69.0533 50.9231 69.0533Z" fill="#FF8685"/>
<path fill-rule="evenodd" clip-rule="evenodd" d="M16 135.064L7.65393 244L7 243.936L15.3461 135L16 135.064Z" fill="white"/>
<path fill-rule="evenodd" clip-rule="evenodd" d="M16.5848 49C16.5988 49.0169 21.9405 54.6536 16.6911 76L16 75.8281C21.1598 54.8594 16.0728 49.4988 16.0588 49.4819L16.5848 49Z" fill="#8FB575"/>
<g filter="url(#filter0_d)">
<rect x="110.2" y="43.2" width="56.6" height="38.6" rx="6.8" fill="#9999F9" stroke="#363694" stroke-width="2.4" stroke-linecap="round" stroke-linejoin="round"/>
<path d="M111 47L138.89 69L166 47" stroke="#363694" stroke-width="2.4" stroke-linecap="round" stroke-linejoin="round"/>
<path d="M113 80.5L130.5 62.5" stroke="#363694" stroke-width="2.4" stroke-linecap="round" stroke-linejoin="round"/>
<path d="M164 80L147.5 62" stroke="#363694" stroke-width="2.4" stroke-linecap="round" stroke-linejoin="round"/>
</g>
<defs>
<filter id="filter0_d" x="105" y="42" width="67" height="49" filterUnits="userSpaceOnUse" color-interpolation-filters="sRGB">
<feFlood flood-opacity="0" result="BackgroundImageFix"/>
<feColorMatrix in="SourceAlpha" type="matrix" values="0 0 0 0 0 0 0 0 0 0 0 0 0 0 0 0 0 0 127 0"/>
<feOffset dy="4"/>
<feGaussianBlur stdDeviation="2"/>
<feColorMatrix type="matrix" values="0 0 0 0 0 0 0 0 0 0 0 0 0 0 0 0 0 0 0.25 0"/>
<feBlend mode="normal" in2="BackgroundImageFix" result="effect1_dropShadow"/>
<feBlend mode="normal" in="SourceGraphic" in2="effect1_dropShadow" result="shape"/>
</filter>
</defs>
</svg>
