<svg width="88" height="91" viewBox="0 0 88 91" fill="none" xmlns="http://www.w3.org/2000/svg">
<path d="M12.0069 38.363C13.7534 14.3491 34.2016 9.4372 44.2073 9.98297C55.1227 9.98297 73.6663 16.0944 75.862 38.363C78.0729 60.7858 68.767 88.028 43.1158 88.028C17.4646 88.028 9.2504 55.0506 12.0069 38.363Z" stroke="#BDC6CF" stroke-width="4"/>
<path d="M0 45.0002C0 42.2388 2.23858 40.0002 5 40.0002H15.2815V62.9226H5C2.23857 62.9226 0 60.684 0 57.9226V45.0002Z" fill="#7C8A95"/>
<path d="M87.3231 45.0002C87.3231 42.2388 85.0845 40.0002 82.3231 40.0002H72.0415V62.9226H82.3231C85.0845 62.9226 87.3231 60.684 87.3231 57.9226V45.0002Z" fill="#7C8A95"/>
<path d="M6.38271 43.5802C2.08138 26.3746 12.538 2 42.2278 2C82.0321 2 82.3743 30.676 80.9405 43.5802" stroke="#7C8A95" stroke-width="4"/>
<path d="M12.118 57.9182C13.3914 62.1024 22.1546 72.2562 39.3602 70.8224" stroke="#7C8A95" stroke-width="4"/>
<rect x="37.9264" y="66.5209" width="15.2815" height="7.64077" rx="3.82039" fill="#BDC6CF"/>
<path d="M10.996 45.8487C23.2393 45.3695 29.047 31.2709 30.4204 24.2816C30.4204 28.4752 38.0725 35.0651 46.3131 36.8623C52.9056 38.3002 55.731 40.6566 56.3196 41.6551C56.3196 40.4569 55.731 37.4614 53.3765 35.0651C64.5603 35.0651 74.5668 44.0514 76.9213 46.4478C79.8644 41.056 79.8644 5.70983 42.7814 6.30892C5.69842 6.90801 7.46428 41.6551 10.996 45.8487Z" fill="#BDC6CF"/>
</svg>
