<svg width="292" height="558" viewBox="0 0 292 558" fill="none" xmlns="http://www.w3.org/2000/svg">
<path fill-rule="evenodd" clip-rule="evenodd" d="M203.959 25.1344C203.959 25.1344 204.633 22.2874 201.514 23.4262C201.115 23.5742 201.008 23.2668 201.059 22.6462C201.059 22.5551 201.059 22.464 201.059 22.3615C204.049 -6.79086 163.428 33.0601 158.004 11.3781C157.916 15.7188 159.195 19.9752 161.658 23.5287C168.639 34.0338 180.38 38.1618 187.681 36.7839C194.983 35.406 201.654 33.6751 203.959 25.1344Z" fill="#281616"/>
<path fill-rule="evenodd" clip-rule="evenodd" d="M200.278 33.7982C200.735 36.3159 201.387 38.5932 202.308 39.7033C204.996 42.9361 208.428 34.1873 209.743 30.8629C211.059 27.5384 213.232 22.629 210.727 21.9195C209.633 21.7275 208.515 21.7081 207.415 21.8622C207.81 18.0343 213.707 3.72944 197.155 2.78533C184.058 2.04147 174.164 8.20973 169.423 1.84694C164.681 -4.51585 160.215 6.70486 167.318 18.103C174.421 29.501 186.369 35.0685 193.798 34.5707C195.973 34.4594 198.138 34.2014 200.278 33.7982Z" fill="white"/>
<path fill-rule="evenodd" clip-rule="evenodd" d="M166.98 17.1381C166.98 17.1381 167.394 29.8862 170.256 32.996C173.119 36.1059 176.773 27.6806 178.174 24.4771C179.575 21.2735 181.89 16.5426 179.228 15.8589C176.566 15.1752 166.98 17.1381 166.98 17.1381Z" fill="#281616"/>
<path fill-rule="evenodd" clip-rule="evenodd" d="M191.517 37.0409L200.271 41.9673L201.775 83.3644L172.592 86.4286L175.461 50.5221L191.517 37.0409Z" fill="#FFE1DA"/>
<path fill-rule="evenodd" clip-rule="evenodd" d="M177.323 85.8945L172.592 86.4284L175.313 49.8933L180.861 44.8979L181.571 45.3457L177.323 85.8945Z" fill="#FF8685"/>
<path fill-rule="evenodd" clip-rule="evenodd" d="M193.26 35.9184L197.285 38.7194C197.405 53.132 187.902 69.8808 173.714 69.588L174.743 48.5632L193.26 35.9184Z" fill="#412F2F"/>
<path fill-rule="evenodd" clip-rule="evenodd" d="M174.923 7.85699C175.036 10.3468 158.153 55.6071 173.278 59.9428C188.402 64.2786 203.216 46.7134 204.005 31.2734C204.794 15.8334 174.923 7.85699 174.923 7.85699Z" fill="#FFD3CA"/>
<path fill-rule="evenodd" clip-rule="evenodd" d="M180.449 60.612C192.769 58.9226 203.342 44.348 204.005 31.2852C204.168 28.0324 202.989 25.1175 201.028 22.529C198.247 22.4545 195.972 22.4488 195.972 22.4488C195.972 22.4488 193.651 42.2921 188.702 46.066C184.915 48.9294 182.247 56.2081 180.449 60.612Z" fill="#FFE1DA"/>
<path fill-rule="evenodd" clip-rule="evenodd" d="M175.12 7.85699C175.165 8.85956 172.568 16.6598 170.347 26.0016C177.409 33.2977 186.608 36.5256 192.73 35.8244C196.899 35.3376 200.86 34.7233 203.921 32.7877C203.955 32.4014 203.983 32.0305 204.005 31.6751C204.783 15.9702 175.12 7.85699 175.12 7.85699Z" fill="#FF8685"/>
<path fill-rule="evenodd" clip-rule="evenodd" d="M174.735 7.85699C174.84 10.2653 159.575 52.4477 171.597 59.4896C171.64 59.2736 171.615 59.049 171.526 58.8489C170.111 55.1821 172.296 53.2715 173.117 51.5839C173.802 50.3154 174.019 48.8309 173.728 47.408C173.513 46.0065 174.328 46.4527 174.619 45.4516C174.911 44.4506 173.865 43.8042 174.069 43.1635C174.273 42.5228 175.17 41.1842 174.988 40.3033C174.807 39.4223 171.685 38.7473 171.608 37.443C171.531 36.1388 180.025 16.0486 180.449 15.0018L177.163 8.6178C175.66 8.10869 174.735 7.85699 174.735 7.85699Z" fill="#FF8685"/>
<path fill-rule="evenodd" clip-rule="evenodd" d="M209.57 25.2996C209.57 25.2996 210.261 22.5712 207.064 23.3285C204.185 24.0022 215.853 4.95371 196.266 3.84008C183.082 3.11066 173.119 9.11866 168.339 2.92135C163.558 -3.27597 159.072 7.65424 166.225 18.7459C173.378 29.8376 185.409 35.2554 192.891 34.7654C200.372 34.2754 207.208 33.379 209.57 25.2996Z" fill="#412F2F"/>
<path fill-rule="evenodd" clip-rule="evenodd" d="M209.57 24.9843C209.57 24.9843 210.261 22.1817 207.064 22.9596C206.655 23.0568 206.546 22.7422 206.598 22.1188C206.598 22.033 206.598 21.9415 206.632 21.8385C209.696 -7.08497 168.043 28.0442 162.514 5.6123C162.318 9.04401 163.297 13.6539 166.223 18.3096C173.371 29.7029 185.408 35.2679 192.89 34.7646C200.372 34.2613 207.208 33.2833 209.57 24.9843Z" fill="#281616"/>
<path fill-rule="evenodd" clip-rule="evenodd" d="M198.408 23.8726C198.408 23.8726 198.788 36.6207 201.412 39.7305C204.036 42.8404 207.392 34.4151 208.671 31.2116C209.95 28.008 212.077 23.2771 209.637 22.5934C207.197 21.9097 198.408 23.8726 198.408 23.8726Z" fill="#281616"/>
<path fill-rule="evenodd" clip-rule="evenodd" d="M201.344 38.1543C201.344 38.1543 204.781 33.4202 206.88 35.1934C208.98 36.9666 204.081 48.1803 200.989 48.264C197.896 48.3476 197.088 44.4331 201.344 38.1543Z" fill="#FFE1DA"/>
<path fill-rule="evenodd" clip-rule="evenodd" d="M204.648 24.1437C204.614 24.1901 193.622 40.7733 175.264 21.3265L174.837 21.7564C193.707 41.7492 205.109 24.5561 205.143 24.5096L204.648 24.1437Z" fill="#412F2F"/>
<path fill-rule="evenodd" clip-rule="evenodd" d="M213 22.0227C213 22.0227 209.356 17.3141 206.265 23.05L206.73 23.5714C209.466 18.5282 212.617 22.6375 212.623 22.6453L213 22.0227Z" fill="#281616"/>
<path fill-rule="evenodd" clip-rule="evenodd" d="M210.755 19.0934C210.755 19.0934 206.311 18.6246 206.265 23.5713H206.798C206.838 19.2199 210.71 19.6308 210.72 19.6308L210.755 19.0934Z" fill="#281616"/>
<path fill-rule="evenodd" clip-rule="evenodd" d="M181.566 45.5135C181.566 45.5135 175.725 45.5693 172.967 43.7753L172.592 44.1611C175.529 46.0666 181.554 46.0201 181.571 46.0201L181.566 45.5135Z" fill="#FF8685"/>
<path fill-rule="evenodd" clip-rule="evenodd" d="M180.449 45.391C180.449 45.391 181.163 46.1241 180.656 46.7275L181.277 47.1428C182.084 46.1112 180.977 44.9044 180.977 44.8979L180.449 45.391Z" fill="#FF8685"/>
<path fill-rule="evenodd" clip-rule="evenodd" d="M198.39 46.3075C198.402 46.2823 198.408 46.255 198.408 46.2274C198.408 46.1998 198.403 46.1725 198.391 46.1471C198.38 46.1216 198.363 46.0987 198.342 46.0797C198.32 46.0607 198.295 46.046 198.268 46.0365C198.215 46.0154 198.155 46.015 198.101 46.0355C198.047 46.056 198.004 46.0958 197.981 46.1461C196.497 49.3321 194.261 52.1543 191.444 54.3962C188.628 56.6382 185.306 58.2403 181.733 59.0797C181.705 59.0857 181.679 59.097 181.656 59.1129C181.633 59.1289 181.614 59.1491 181.599 59.1723C181.585 59.1956 181.576 59.2214 181.573 59.2481C181.57 59.2748 181.572 59.3019 181.58 59.3277C181.587 59.3547 181.599 59.3803 181.616 59.4029C181.633 59.4255 181.655 59.4446 181.68 59.4591C181.705 59.4736 181.733 59.4832 181.762 59.4874C181.791 59.4916 181.82 59.4902 181.849 59.4833C185.486 58.6271 188.869 56.9945 191.736 54.7106C194.603 52.4267 196.879 49.5522 198.39 46.3075Z" fill="white"/>
<path fill-rule="evenodd" clip-rule="evenodd" d="M205.963 37.0409C203.079 38.9306 201.334 40.7159 200.409 42.1057C198.255 45.3248 200.444 46.4179 202.883 41.7926L202.379 41.5509C200.533 45.2259 199.287 44.6106 200.925 42.265C202.368 40.3738 204.179 38.7476 206.265 37.4694L205.963 37.0409Z" fill="#FF8685"/>
<path fill-rule="evenodd" clip-rule="evenodd" d="M190.351 41.8573C189.88 41.6508 189.372 41.5399 188.857 41.5312C188.343 41.5225 187.831 41.6162 187.353 41.8067C186.876 41.9972 186.441 42.2807 186.076 42.6403C185.711 42.9999 185.423 43.4283 185.228 43.9003C184.837 44.8682 184.842 45.9491 185.244 46.913C185.646 47.8769 186.411 48.6476 187.379 49.0608C187.85 49.2675 188.358 49.3784 188.874 49.3872C189.389 49.396 189.901 49.3023 190.379 49.1119C190.857 48.9214 191.292 48.6379 191.657 48.2782C192.023 47.9186 192.312 47.49 192.507 47.0179C192.898 46.0494 192.892 44.9678 192.489 44.0038C192.087 43.0399 191.319 42.2696 190.351 41.8573Z" fill="#FF8685"/>
<path fill-rule="evenodd" clip-rule="evenodd" d="M184.075 34.8313C183.933 34.7944 183.784 34.7863 183.638 34.8073C183.492 34.8282 183.351 34.878 183.225 34.9534C183.099 35.0289 182.989 35.1286 182.903 35.2466C182.816 35.3647 182.755 35.4986 182.722 35.6405C182.656 35.93 182.706 36.2333 182.861 36.4875C183.016 36.7417 183.265 36.9272 183.555 37.0054C183.698 37.0423 183.846 37.0504 183.993 37.0294C184.139 37.0085 184.279 36.9587 184.405 36.8833C184.531 36.8078 184.641 36.7081 184.727 36.59C184.814 36.472 184.875 36.3381 184.908 36.1962C184.977 35.9065 184.929 35.6017 184.773 35.3467C184.617 35.0918 184.367 34.9068 184.075 34.8313Z" fill="#281616"/>
<path fill-rule="evenodd" clip-rule="evenodd" d="M188.306 35.6665L181.834 33.6734L181.571 35.0396L188.044 37.0407L188.306 35.6665Z" fill="#281616"/>
<path fill-rule="evenodd" clip-rule="evenodd" d="M173.5 31.5L168.5 30L168.102 31.1275L173.353 32.551L173.5 31.5Z" fill="#281616"/>
<path fill-rule="evenodd" clip-rule="evenodd" d="M171.321 31.0604C171.198 31.0154 171.067 30.9952 170.936 31.001C170.805 31.0068 170.677 31.0385 170.558 31.0942C170.44 31.15 170.334 31.2286 170.247 31.3255C170.16 31.4224 170.093 31.5355 170.051 31.6583C169.968 31.9106 169.987 32.1848 170.104 32.4237C170.221 32.6626 170.426 32.8476 170.678 32.9402C170.801 32.9851 170.932 33.0051 171.064 32.9989C171.195 32.9927 171.324 32.9606 171.442 32.9043C171.561 32.848 171.666 32.7688 171.753 32.6713C171.84 32.5739 171.906 32.4602 171.948 32.3369C172.032 32.0854 172.014 31.8113 171.897 31.573C171.78 31.3346 171.573 31.1507 171.321 31.0604Z" fill="#281616"/>
<path fill-rule="evenodd" clip-rule="evenodd" d="M64.2515 82.7775C63.0335 90.288 71.8948 95.4711 84.7516 99.2775C90.7516 99.2775 96.7516 99.2775 103.252 99.2775C107.752 99.2775 114.252 101.851 117.752 106.278C143.717 108.627 167.177 105.357 162.311 99.5522C184.055 69.3944 66.8617 66.6682 64.2515 82.7775Z" fill="#A3CF80"/>
<path fill-rule="evenodd" clip-rule="evenodd" d="M145.972 222.732L134.948 359.371L131.458 402.367L119.36 553.041L145.832 557.037L189.679 248.871C189.679 248.871 158.009 199.954 145.972 222.732Z" fill="#281616"/>
<path fill-rule="evenodd" clip-rule="evenodd" d="M222.725 231.678C227.245 242.56 228.766 251.165 226.851 277.753L230.185 315.005L232.661 355.504L235.353 399.494L244.768 553.634L217.485 549.686L178.661 228.699C178.661 228.699 210.82 205.311 222.725 231.678Z" fill="#6D6DF6"/>
<path fill-rule="evenodd" clip-rule="evenodd" d="M206.824 210.72L219.82 218.252C219.82 218.252 207.64 274.889 189.968 274.993C172.297 275.098 157.62 217.907 157.62 217.907L206.824 210.72Z" fill="#6D6DF6"/>
<path fill-rule="evenodd" clip-rule="evenodd" d="M236.406 98.5812L200.934 78.1239C200.934 78.1239 178.333 90.0121 171.603 79.3972C167.542 81.811 143.467 72.3367 136.004 77.5385C131.318 80.8033 142.067 98.0019 140.678 102.25C129.269 136.883 140.296 213.154 142.752 235.012C143.667 243.152 216.242 244.299 222.85 236.786C225.912 233.298 218.691 189.861 224.984 164.733C232.29 135.622 236.406 98.5812 236.406 98.5812Z" fill="#A3CF80"/>
<path fill-rule="evenodd" clip-rule="evenodd" d="M203.801 239.747C213.277 238.984 222.97 237.241 224.833 235.084C225.494 230.704 218.337 188.668 224.574 163.649C228.661 147.264 234.321 129.779 238.48 117.672L231.629 113.273C231.629 113.273 202.785 150.851 201.493 178.916C200.201 206.982 203.026 230.433 203.801 239.747Z" fill="#8FB575"/>
<path fill-rule="evenodd" clip-rule="evenodd" d="M228.377 159.585C229.084 186.247 235.802 197.194 249.951 196.137C278.575 194.005 244.822 101.86 237.675 95.6152C231.47 90.2108 224.861 91.8382 222.795 101.224C219.031 118.308 228.256 155.088 228.377 159.585Z" fill="#A3CF80"/>
<path fill-rule="evenodd" clip-rule="evenodd" d="M247.682 554.244H216.665C215.722 540.845 222.95 536.307 231.09 537.994C239.23 539.681 244.444 545.191 247.682 554.244Z" fill="#281616"/>
<path fill-rule="evenodd" clip-rule="evenodd" d="M131.228 533.039C128.818 533.419 80.5001 547.901 78.8832 554.953L141.074 556.017C141.074 556.017 139.189 540.487 131.228 533.039Z" fill="#281616"/>
<path fill-rule="evenodd" clip-rule="evenodd" d="M199.273 248.859L225.493 272.194L226.528 270.981L200.308 247.652L199.273 248.859Z" fill="black"/>
<path fill-rule="evenodd" clip-rule="evenodd" d="M206.506 80.1001C206.43 80.1523 179.871 100.03 167.165 80.1001L165.913 80.8892C179.481 102.177 207.274 81.3417 207.379 81.2837L206.506 80.1001Z" fill="#8FB575"/>
<path fill-rule="evenodd" clip-rule="evenodd" d="M230.262 291.953L238.068 531.716L239.557 531.742L231.75 291.98L230.262 291.953Z" fill="white"/>
<path fill-rule="evenodd" clip-rule="evenodd" d="M226.904 94.6135C226.904 94.6498 215.777 106.769 226.684 152.667L228.113 152.297C217.404 107.212 227.962 95.6861 227.991 95.6497L226.904 94.6135Z" fill="#8FB575"/>
<path fill-rule="evenodd" clip-rule="evenodd" d="M252.475 220.747C262.364 199.809 268.342 178.48 253.217 176.212C228.07 172.394 218.539 222.728 217.43 245.62C222.377 251.256 227.109 254.064 234.384 251.782C243.168 240.437 251.031 223.808 252.475 220.747Z" fill="#A3CF80"/>
<path fill-rule="evenodd" clip-rule="evenodd" d="M231.363 256.227C233.757 253.075 232.328 248.046 228.178 245.011C224.028 241.977 218.717 242.047 216.327 245.204C213.936 248.362 215.363 253.386 219.512 256.42C223.662 259.455 228.973 259.385 231.363 256.227Z" fill="#281616"/>
<path fill-rule="evenodd" clip-rule="evenodd" d="M211.428 256.002C211.428 256.002 210.892 252.229 215.585 248.315C219.842 244.757 231.684 251.26 230.605 256.591C229.42 262.436 223.967 267.495 223.967 267.495L211.428 256.002Z" fill="#FF8685"/>
<path fill-rule="evenodd" clip-rule="evenodd" d="M36.1334 99.1696C53.2803 83.0747 70.4302 72.096 81.4642 79.032C113.5 99.1696 46.8501 124.646 23.8717 135.487C20.9481 131.868 15.9442 129.925 12.2745 125.361C20.036 114.295 33.6298 101.517 36.1334 99.1696Z" fill="#A3CF80"/>
<path fill-rule="evenodd" clip-rule="evenodd" d="M29.5387 132.619C30.9276 128.555 27.7382 123.862 22.4271 122.153C17.1159 120.445 11.6693 122.33 10.2851 126.399C8.90085 130.468 12.0856 135.156 17.3967 136.865C22.7078 138.574 28.1545 136.688 29.5387 132.619Z" fill="#281616"/>
<path fill-rule="evenodd" clip-rule="evenodd" d="M9.86401 140.966C9.23338 140.951 0.408884 145.712 0.408884 145.712C0.408884 145.712 3.32366 162.042 4.27792 162.835C5.23219 163.629 16.5806 160.212 17.7845 158.839C18.9883 157.465 20.8857 147.871 20.8857 147.871L9.86401 140.966Z" fill="#FFE1DA"/>
<path fill-rule="evenodd" clip-rule="evenodd" d="M0.496788 146.181C0.468596 146.121 0.445181 146.06 0.4268 145.997C-0.215419 143.97 14.1728 126.517 14.1728 126.517C24.4005 123.341 26.3199 127.945 26.8455 129.736L20.8372 148.208C11.117 154.379 0.496788 146.181 0.496788 146.181Z" fill="#FF8685"/>
<path d="M134.938 97.7011C137.657 97.248 142.732 97.4292 141.282 101.779C139.47 107.217 134.938 134.688 137.657 153.267" stroke="#8FB575" stroke-width="1.7"/>
</svg>
