<svg width="67" height="82" viewBox="0 0 67 82" fill="none" xmlns="http://www.w3.org/2000/svg">
<path d="M14.4201 30H8.65363C6.43575 30 2 31.1315 2 35.6576C2 40.1837 2 53.791 2 60.0288C2 62.2048 3.24201 66.5569 8.21005 66.5569C13.1781 66.5569 16.1944 66.5569 17.0816 66.5569V77.4369C16.9337 78.8875 17.3477 81.2666 20.1866 79.1777C23.0255 77.0887 29.9452 69.8934 33.0503 66.5569H58.3341C60.5519 66.5569 64.9877 65.4253 64.9877 60.8992C64.9877 56.3732 64.9877 42.1856 64.9877 35.6576C65.1355 33.7717 64.0118 30 58.3341 30C52.6563 30 52.4197 30 53.0112 30" stroke="#BDC6CF" stroke-width="4" stroke-linecap="round" stroke-linejoin="round"/>
<path d="M37.7187 38.7303H29.3771C28.8071 38.7329 28.2612 38.9615 27.8586 39.3661C27.4561 39.7708 27.2294 40.3186 27.2281 40.8902V47.8401C27.2294 48.4116 27.4561 48.9595 27.8586 49.3642C28.2612 49.7688 28.8071 49.9974 29.3771 50H37.7187C38.2896 49.9987 38.8367 49.7707 39.2404 49.3659C39.6441 48.9611 39.8714 48.4125 39.8727 47.8401V40.8902C39.8714 40.3178 39.6441 39.7691 39.2404 39.3644C38.8367 38.9596 38.2896 38.7316 37.7187 38.7303ZM52.9811 15.2308C52.7966 11.3309 50.9169 8.14101 48.1496 5.50108C43.0489 0.686192 36.9908 -0.88877 30.12 0.466197C24.0819 1.66617 19.7141 5.16608 16.5479 10.321C15.7103 11.6809 15.8 12.1709 17.0465 13.1009L23.1644 17.6558C24.0819 18.3358 24.73 18.2358 25.478 17.3608C26.53 16.1358 27.5571 14.8608 28.694 13.7409C29.9927 12.481 31.6963 11.7257 33.4996 11.6103C35.303 11.4948 37.0885 12.0268 38.5365 13.1109C40.8051 14.8358 40.8949 17.8458 38.6661 19.6407C37.8411 20.2269 36.9764 20.7548 36.0783 21.2207C34.9714 21.8757 33.8097 22.4407 32.7776 23.1906C29.2873 25.6906 26.9389 28.8405 27.4026 33.4654C27.5322 34.7154 27.981 35.2654 29.2375 35.2754C30.7632 35.2754 32.2889 35.2754 33.8147 35.2754H38.4866C39.3342 35.2754 39.9824 34.9354 40.117 34.0604C40.496 31.5204 42.1115 29.9305 44.1059 28.6305C45.2876 27.8755 46.5341 27.2155 47.6759 26.4006C51.5152 23.6856 53.2005 19.8807 52.9811 15.2508V15.2308Z" fill="#7C8A95"/>
</svg>
