<svg width="384" height="225" viewBox="0 0 384 225" fill="none" xmlns="http://www.w3.org/2000/svg">
<mask id="mask0" mask-type="alpha" maskUnits="userSpaceOnUse" x="0" y="0" width="384" height="225">
<path d="M383.173 0H0.172974V225H383.173V0Z" fill="#83FED0"/>
</mask>
<g mask="url(#mask0)">
<path opacity="0.8" fill-rule="evenodd" clip-rule="evenodd" d="M229.999 -244.027L152.097 -230.757L239.848 -158.655L254.089 -147.988L254.742 -147.499L255.151 -146.794L338.343 -3.40979L338.374 -3.35738L338.402 -3.30408L351.166 20.3146L355.395 16.4243L397.413 -22.2253L421.31 -141.552L429.154 -139.981L405.002 -19.3775L404.746 -18.1006L403.787 -17.219L360.811 22.3122L356.827 25.9771L389.644 44.705L390.824 45.3785L391.35 46.6314C394.63 54.4485 402.262 72.6254 406.554 82.8062C410.664 92.5544 416.262 100.092 418.38 102.471L418.499 102.605L418.605 102.748L481.223 187.17L481.256 187.215L481.288 187.26C483.449 190.35 491.341 197.933 503.754 200.129C517.29 202.525 596.355 214.661 634.263 220.44L634.964 220.547L635.586 220.888C644.551 225.813 664.515 236.67 673.018 240.916L673.508 241.161L673.914 241.528L699.855 264.978L694.491 270.913L669.505 248.326L658.448 247.086L650.129 296.747L642.239 295.426L648.327 259.083L609.202 256.695L602.192 300.593L602.135 300.949L601.863 301.187L575.932 323.918L575.649 324.166H575.273H541.424L510.806 332.317L504.7 354.189L504.468 355.02L503.612 354.912L425.154 345.026V372.336L431.245 381.444L429.582 382.556L423.323 373.196L423.154 372.944V372.64V343.892V342.758L424.279 342.9L503.006 352.82L509.033 331.229L509.187 330.678L509.739 330.531L541.036 322.2L541.163 322.166H541.293H574.896L600.274 299.921L607.37 255.484L607.513 254.588L608.419 254.643L648.66 257.099L650.487 246.193C625.045 243.338 597.022 240.195 567.222 236.852L565.071 246.499L564.028 251.179L562.079 259.924L567.843 264.454L568.342 264.846L568.199 265.465L561.94 292.637L561.819 293.161L561.316 293.349L548.797 298.029L548.606 298.101L548.402 298.091L520.682 296.848L504.465 296.12L499.328 312.764L499.084 313.554L498.262 313.463L466.072 309.912L443.717 307.446L442.652 307.329L442.842 306.274L444.534 296.915L447.313 281.538L447.469 280.674L448.346 280.717L476.066 282.054L501.037 283.258L494.117 276.87L493.795 276.573V276.136V263.895L486.743 249.393L486.588 249.075L486.668 248.729L489.001 238.701L491.408 228.349C477.558 226.796 463.5 225.22 449.297 223.627V234.916V235.608L448.65 235.852L418.84 247.082L429.601 247.959L430.68 248.047L430.507 249.116L428.122 263.824L425.738 278.533L423.353 293.241L423.212 294.112L422.33 294.08L403.706 293.417L386.864 298.057L386.132 298.258L385.741 297.608L362.157 258.409L361.997 258.143L362.016 257.832L362.907 243.545L363.97 226.497L364.741 214.147C355.536 213.115 346.325 212.083 337.121 211.051L314.713 208.54C314.784 209.945 314.931 211.473 315.189 212.987C315.777 216.449 316.804 219 318.03 220.224C321.587 223.776 323.167 228.479 323.552 233.378C323.935 238.256 323.162 243.594 321.752 248.877C321.343 250.407 320.018 255.452 318.047 262.972L333.921 264.243L334.455 264.286L334.715 264.754L340.387 274.961L360.398 269.387L361.173 269.171L361.55 269.881L395.426 333.729L404.471 350.777L404.588 350.997V351.246V356.595V372.64H402.588V357.409L377.826 352.302L360.513 362.24L357.182 382.165L355.209 381.835L358.619 361.444L361.862 342.045L343.121 339.019L339.297 360.779L339.13 361.729L338.175 361.596L317.608 358.749L293.856 355.46C288.288 376.766 282.907 397.363 278.819 413.011L271.079 410.989C275.93 392.418 282.607 366.863 289.256 341.423L275.816 338.91L255.516 346.829L255.498 346.836L255.48 346.842L223.843 357.804L269.881 409.335L263.915 414.665L213.479 358.212L169.666 374.912L168.954 373.043L212.053 356.615L184.424 325.69C182.221 323.623 178.961 319.78 175.959 314.607L173.833 320.816L173.784 320.959L173.695 321.081L162.964 335.79L162.626 336.254L162.054 336.195L143.376 334.28L139.882 349.465L137.933 349.016L141.625 332.971L145.198 317.444L127.21 314.807H106.63L98.7523 351.456L96.7969 351.036L104.619 314.648L79.7365 311.159L70.1273 347.49L68.1937 346.979L77.7417 310.88L40.4386 305.65L28.406 368.53L20.5486 367.027L56.4122 179.609C-9.2197 172.267 -58.183 166.8 -77.0448 164.718C-144.73 157.247 -233.65 158.488 -269.654 160.049L-270 152.056C-251.392 151.25 -218.681 150.525 -182.004 151.038L-170.56 104.308L-170.359 103.488L-169.516 103.549L-142.335 105.516L-135.797 96.961L-138.162 86.9396L-166.771 90.8287L-166.885 90.8442L-166.999 90.8335L-188.46 88.8278L-209.92 86.8221L-209.734 84.8308L-189.143 86.7552L-182.187 56.8517L-181.986 55.9899L-181.107 56.0839L-162.329 58.0896L-161.296 58.1999L-161.445 59.2278L-165.725 88.6682L-137.532 84.8356L-137.401 84.8177L-137.27 84.8347L-116.703 87.4858L-85.4238 91.5182L-85.4067 91.5203L-43.3969 96.1982L-42.8924 96.2543L-42.64 96.6947L-37.5204 105.626L66.8644 119.586L72.74 85.5908L41.5464 82.259V88.4777V89.9497L40.1779 89.4073L11.5638 78.0648L10.9323 77.8145V77.1351V60.4211V59.3026L12.0437 59.4273L29.5822 61.3942L34.2846 58.4644L37.5655 41.906L-71.3382 29.7696L-71.5548 29.7454L-71.7416 29.6334L-95.9049 15.1479L-104.589 9.94168H-116.831H-118.038L-117.814 8.75583L-113.566 -13.703L-126.896 -16.8272L-127.859 -17.053L-127.643 -18.0184L-118.614 -58.5237C-141.687 -65.2777 -163.511 -71.6476 -180.597 -76.6244L-178.36 -84.3052C-121.561 -67.7607 -12.2126 -35.7649 21.1511 -25.5008L31.6699 -32.5495C31.573 -33.2049 31.5271 -33.856 31.5144 -34.4836C31.476 -36.3851 31.7367 -38.4515 32.166 -40.5364C33.0256 -44.7103 34.6629 -49.4372 36.5879 -53.971C38.5216 -58.525 40.8043 -63.0217 43.0285 -66.7558C44.6097 -69.4104 46.293 -71.9066 47.9116 -73.7565C47.7242 -75.2207 47.6142 -76.9128 47.5454 -78.6527C47.4314 -81.5384 47.4213 -84.9262 47.4724 -88.3963C47.5705 -95.062 47.8964 -102.178 48.1802 -106.927L38.3394 -149.241L24.1594 -210.213L31.9515 -212.025L44.9654 -156.067L82.8903 -175.717L86.0417 -185.631L79.1844 -191.281L74.9322 -194.784L79.5803 -197.743L135.986 -233.642L114.97 -250.909L120.049 -257.091L143.917 -237.479L228.656 -251.913L229.999 -244.027ZM-116.691 -57.9606L-125.476 -18.5487L-113.194 -15.67L-108.583 -40.0493L-105.798 -54.7705C-109.448 -55.84 -113.084 -56.9046 -116.691 -57.9606ZM-103.87 -54.2053L-106.423 -40.7043L-86.3354 -37.8118L-84.2769 -48.4582C-90.7976 -50.3727 -97.3536 -52.2956 -103.87 -54.2053ZM-82.3493 -47.8922L-84.5527 -36.4963L-89.6261 -10.2568L-94.276 13.7925L-71.9268 27.1906L-58.1614 -40.7795C-66.0579 -43.1051 -74.17 -45.4903 -82.3493 -47.8922ZM-56.2357 -40.2123L-70.0304 27.9029L38.8585 40.0378L38.8688 40.0389L66.497 42.8303C61.1822 32.7692 55.1552 21.927 49.2565 12.3102L-33.8269 -0.767487L-34.8359 -0.926331L-34.6558 -1.93172L-29.2253 -32.2371C-37.7321 -34.7558 -46.8206 -37.4388 -56.2357 -40.2123ZM-27.2958 -31.6657L-32.507 -2.58435L47.869 10.0672C44.327 4.3913 40.8557 -0.781673 37.6396 -5.01157C35.3928 -7.96655 33.3379 -10.37 31.5318 -12.1307C29.6478 -13.9673 28.3425 -14.7958 27.6203 -15.0504C26.4764 -15.4536 24.1007 -16.2142 20.6102 -17.2954C11.0687 -20.2507 -6.23174 -25.4261 -27.2958 -31.6657ZM67.6141 44.9533L39.5622 42.1191L36.371 58.2244L76.6033 63.2379L76.6724 62.8384C74.1492 57.6616 71.0494 51.5081 67.6141 44.9533ZM76.2623 65.2108L35.4093 60.1201L30.3449 63.2755L30.05 63.4592L29.7046 63.4205L12.9323 61.5395V76.4558L39.5464 87.0056V81.1465V80.034L40.6526 80.1522L73.0813 83.6159L76.2623 65.2108ZM75.6374 43.0338L95.0009 30.0411L107.811 41.6143L85.2791 57.8799L83.2332 58.0441C81.0538 53.6008 78.4756 48.4852 75.6374 43.0338ZM89.1235 57.5714L105.561 56.2523L106.326 56.1909L107.059 56.4171L108.23 56.7783L124.914 44.8981L125.794 44.2715L126.351 45.197L134.108 58.0839H143.378H143.778L144.067 58.3588L160.61 74.0701L173.902 86.6949L174.043 85.8384C172.59 84.3701 171.012 82.4358 169.784 80.2161C168.355 77.6334 167.171 74.2228 167.722 70.5821C163.902 65.888 157.835 59.0764 150.79 52.3651C142.901 44.8503 134.028 37.697 125.869 33.6766L125.168 33.3311L124.648 32.7468C122.151 29.9389 117.181 25.5541 110.526 20.1654C103.94 14.833 95.9074 8.6792 87.4464 2.3746C73.1041 -8.31227 57.5989 -19.3812 45.9597 -27.5272L45.1179 -12.5535L57.3062 -15.4313L57.7202 -15.529L58.0778 -15.2986L80.4326 -0.889893L84.0093 1.41553L84.0536 1.44409L84.0947 1.47714L95.7192 10.837L107.344 20.1969L108.402 21.0491L107.274 21.8062L96.7129 28.8924L110.069 40.9593L110.987 41.7883L109.984 42.5121L89.1235 57.5714ZM45.0008 -10.4709L44.8993 -8.6666C49.2129 -2.85539 53.8907 4.41573 58.5501 12.2201L78.0304 -0.0587463L57.3518 -13.3871L45.0008 -10.4709ZM59.5718 13.9402C62.2671 18.5016 64.9468 23.219 67.5368 27.9125L93.3775 11.5193L82.8815 3.06802L79.8848 1.13651L59.5718 13.9402ZM68.5022 29.6685L95.0228 12.8441L105.031 20.9025L94.5348 27.9453L74.7059 41.2504C72.7368 37.493 70.6544 33.597 68.5022 29.6685ZM173.511 89.0815L173.332 90.1719L156.539 93.8694L157.728 88.7259L160.501 76.7254L173.511 89.0815ZM172.984 92.2965L168.722 118.287L151.202 116.966L156.041 96.0271L172.984 92.2965ZM149.185 116.814L154.234 94.9612L155.599 89.0579L138.393 80.8562L132.336 115.544L149.185 116.814ZM138.751 78.8108L156.06 87.0621L158.706 75.6121L139.84 72.5698L138.751 78.8108ZM140.184 70.5995L156.887 73.293L142.979 60.0839H133.542H132.977L132.685 59.5996L125.195 47.1537L110.636 57.5203L137.474 65.7974L140.842 66.8361L140.235 70.3078L140.184 70.5995ZM130.901 77.2593L83.4483 70.607L84.2465 65.9885L105.435 64.2881L131.748 72.4034L130.901 77.2593ZM83.1075 72.5788L130.556 79.2306L123.697 118.513L120.199 138.543L96.555 135.645L72.7126 132.722L83.1075 72.5788ZM72.3715 134.695L65.8183 172.612C73.6924 173.493 81.7885 174.399 90.0848 175.327L95.3039 137.506L72.3715 134.695ZM92.0731 175.55C99.022 176.328 106.109 177.121 113.322 177.928L119.855 140.516L97.2893 137.75L92.0731 175.55ZM147.362 124.7L144.206 138.358C143.51 140.241 140.945 144.06 136.834 147.724C133.787 150.44 129.953 153.013 125.512 154.623L130.954 123.463L147.362 124.7ZM125.12 156.871C130.318 155.195 134.741 152.269 138.165 149.217C142.45 145.398 145.286 141.276 146.108 138.98L146.128 138.925L146.141 138.868L149.38 124.852L167.044 126.183L159.398 156.674L152.955 182.366C142.181 181.16 131.613 179.976 121.287 178.82L125.12 156.871ZM154.961 182.591C164.323 183.639 173.839 184.705 183.484 185.785L189.708 160.329L161.132 157.983L154.961 182.591ZM185.488 186.01C192.996 186.851 200.58 187.701 208.232 188.558L213.466 162.279L191.727 160.494L185.488 186.01ZM206.663 196.432C190.959 194.673 175.536 192.945 160.489 191.26L157.581 203.494L204.275 208.42L206.663 196.432ZM158.487 191.036C145.512 189.583 132.822 188.162 120.476 186.779C120.41 192.414 120.906 196.323 122.364 199.779L155.575 203.283L158.487 191.036ZM113.642 198.859C112.636 194.932 112.39 190.719 112.488 185.885C95.7232 184.008 79.6365 182.208 64.3867 180.502L61.9181 193.402L113.642 198.859ZM61.5409 195.373L114.255 200.934C114.8 202.553 115.493 204.132 116.365 205.695C118.793 210.045 122.508 214.08 127.786 218.597L112.001 219.88L111.266 219.939L111.106 220.659L107.724 235.827L79.1092 232.585L78.3269 232.497L78.0571 233.236L75.6518 239.831L53.6245 236.743L61.5409 195.373ZM53.2482 238.709L51.396 248.388L117.565 256.259L160.301 261.343C160.114 260.837 159.924 260.332 159.731 259.827C154.567 246.332 147.303 233.617 137.475 226.256C134.715 224.189 132.221 222.261 129.975 220.425L112.897 221.813L109.481 237.139L109.285 238.017L108.392 237.915L79.6663 234.661L77.2535 241.276L76.9763 242.036L76.1752 241.923L53.2482 238.709ZM141.758 219.468C141.928 219.595 142.099 219.724 142.271 219.853C152.04 227.17 159.205 238.502 164.417 250.216L195.333 253.794L203.885 210.39L157.114 205.456L154.187 217.765L154.019 218.471L153.295 218.53L141.758 219.468ZM165.337 252.336C165.991 253.88 166.613 255.427 167.203 256.969C169.101 261.931 170.699 266.908 172.032 271.662L189.747 269.358L189.876 269.342L190.005 269.358L212.359 272.251L234.714 275.144L282.035 281.267L284.406 266.114L221.952 258.887L196.021 255.887L165.337 252.336ZM163.596 271.279C162.833 268.706 161.989 266.081 161.06 263.447L118.447 258.378V265.459L163.596 271.279ZM164.203 273.374C165.639 278.443 166.763 283.267 167.621 287.528L153.316 286.069L133.644 284.063L133.593 284.058H133.542H112.082H111.276L111.105 284.846L105.043 312.687L79.1354 309.056L40.8149 303.683L51.0192 250.358L116.447 258.14V266.339V267.218L117.319 267.33L164.203 273.374ZM168.022 289.579L153.991 288.148L147.633 315.779L172.21 319.382L174.655 312.239C172.16 307.454 170 301.731 169.018 295.356C168.751 293.625 168.421 291.684 168.022 289.579ZM172.567 273.609L189.049 271.466L195.149 307.954L195.203 308.274L195.434 308.502L221.106 333.774L206.752 338.674L190.267 320.222L190.138 320.078L189.995 319.946C186.617 316.832 178.902 306.976 176.925 294.138C176.104 288.81 174.711 281.578 172.567 273.609ZM208.199 340.293L222.399 356.188L253.643 345.362L245.361 332.025L243.098 328.381L223.284 335.144L208.199 340.293ZM139.373 217.655C130.578 210.893 125.939 206.376 123.409 201.9L155.109 205.245L152.41 216.596L139.373 217.655ZM208.658 196.655C216.555 197.54 224.521 198.433 232.546 199.332L221.264 256.794L197.326 254.024L206.058 209.706L206.059 209.704L208.658 196.655ZM230.677 191.072C223.814 190.303 216.995 189.539 210.226 188.781L215.647 161.569L218.387 147.817L239.637 151.483L230.677 191.072ZM234.54 199.555L223.257 257.025L285.67 264.247L308.743 266.917C311.577 256.099 313.512 248.727 314.022 246.813C315.295 242.046 315.864 237.669 315.577 234.004C315.29 230.36 314.187 227.692 312.377 225.885C309.309 222.82 307.951 218.149 307.302 214.326C306.906 211.999 306.725 209.675 306.674 207.639C282.339 204.911 258.193 202.205 234.54 199.555ZM308.232 268.871L286.394 266.344L283.86 282.539L283.71 283.501L282.744 283.376L235.799 277.301L239.097 296.626L264.82 323.832L282.538 317.544L282.761 317.465L282.996 317.494L295.117 319.005C300.118 299.874 304.775 282.07 308.232 268.871ZM294.606 320.956L282.983 319.508L264.876 325.935L247.715 332.025L255.563 344.664L275.355 336.943L275.621 336.839L275.902 336.892L289.763 339.483C291.391 333.255 293.015 327.045 294.606 320.956ZM232.677 191.296L241.82 150.898L242.053 149.871L241.015 149.692L217.766 145.68L216.806 145.515L216.615 146.47L213.86 160.305L192.207 158.527L199.79 127.515L200.036 126.505L199.018 126.298L176.276 121.66L182.286 85.0074L182.658 82.7364L180.882 81.273C179.698 80.2975 177.956 78.4601 176.784 76.3434C176.368 75.5901 176.064 74.8801 175.867 74.2153L213.666 79.732V90.5064V90.9803L214.033 91.2804L230.376 104.652L230.652 104.878H231.009H239.18L230.049 136.359L229.829 137.115L230.513 137.505L260.915 154.888L261.885 155.442L262.329 154.418L272.722 130.458L325.221 143.542L350.15 174.995L334.547 192.961L333.567 194.089V195.584V202.603L311.176 200.093C284.673 197.123 258.375 194.176 232.677 191.296ZM351.484 173.458L382.875 137.312L365.723 125.603H354.407V123.603H366.032H366.341L366.596 123.777L384.196 135.792L393.501 125.077V105.978L279.62 89.3577L276.011 107.709L349.176 117.595L351.134 117.86L349.762 119.281L327.121 142.719L351.484 173.458ZM277.639 89.0685L247.139 84.6172L241.472 104.156L232.189 136.16L260.939 152.598L271.168 129.015L273.833 108.429L273.837 108.397L273.843 108.365L277.639 89.0685ZM245.141 84.3256L215.666 80.0239V90.0325L231.366 102.878H239.76L245.141 84.3256ZM169.068 126.336L171.776 126.54L175.431 126.816L175.952 123.635L197.6 128.05L190.189 158.362L161.625 156.017L169.068 126.336ZM66.5236 121.558L-37.3456 107.667L-38.3643 112.765L-41.9719 130.816L-45.3791 147.865L-47.7882 159.919C-22.7206 162.711 13.8391 166.797 57.8537 171.721L66.5236 121.558ZM-49.7833 159.697L-47.552 148.532L-70.4858 145.757L-73.5094 157.06C-67.6821 157.705 -59.684 158.594 -49.7833 159.697ZM-75.5202 156.838L-72.1935 144.402L-71.9692 143.563L-71.1074 143.667L-47.1588 146.565L-44.1445 131.482L-91.4262 125.707L-97.4725 154.74C-90.2058 155.331 -83.0784 156.004 -76.1671 156.767C-75.9553 156.79 -75.7396 156.814 -75.5202 156.838ZM-99.4818 154.578L-93.1968 124.399L-89.4374 106.348L-86.7338 93.3658L-115.943 89.6004L-122.573 153.031C-114.791 153.466 -107.065 153.979 -99.4818 154.578ZM-124.572 152.921L-117.927 89.3446L-136.092 87.003L-133.742 96.9623L-133.633 97.4231L-133.921 97.7993L-141.074 107.159L-141.402 107.588L-141.941 107.549L-168.818 105.605L-179.952 151.068C-176.618 151.119 -173.254 151.18 -169.866 151.252L-163.399 127.681L-163.198 126.946H-162.435H-149.022H-147.82L-148.039 128.128L-152.408 151.722C-143.158 152.025 -133.831 152.419 -124.572 152.921ZM-154.43 151.658L-150.224 128.946H-161.672L-167.805 151.298C-163.378 151.398 -158.914 151.517 -154.43 151.658ZM294.365 353.512L316.966 356.641L323.826 325.217L311.833 308.737L306.227 308.138C302.468 322.512 298.377 338.162 294.365 353.512ZM306.739 306.181L312.299 306.775L331.698 301.476L350.049 296.464L339.022 276.621L333.227 266.194L317.532 264.937C314.803 275.354 311 289.887 306.739 306.181ZM366.731 214.37L366.026 225.66L409.741 230.044V219.192C395.467 217.592 381.11 215.982 366.731 214.37ZM411.741 219.416V230.245L447.297 233.811V223.403C435.53 222.084 423.666 220.753 411.741 219.416ZM493.409 228.574L491.175 238.182L532.255 247.815L538.646 237.079L538.969 236.536L539.598 236.595L553.905 237.932L554.812 238.017V238.927V242.834L563.344 245.053L565.223 236.628C542.207 234.046 518.147 231.348 493.409 228.574ZM495.234 220.728L498.398 207.128C499.674 207.47 500.995 207.765 502.36 208.007C515.935 210.409 594.259 222.433 632.357 228.242C636.835 230.699 643.726 234.457 650.598 238.155C605.403 233.084 552.124 227.108 495.234 220.728ZM496.474 206.57L493.233 220.504C444.356 215.023 392.859 209.249 341.567 203.499V197.078L400.521 129.194L401.501 128.066V126.571V107.146L413.17 108.849L474.766 191.894C477.551 195.846 485.059 202.989 496.474 206.57ZM88.5237 -193.952L142.489 -228.298L230.83 -155.71L160.048 -104.565H124.666H123.488L122.498 -103.927L92.5618 -84.6187L79.56 -93.7844L77.322 -95.362L75.0415 -93.8466L64.5306 -86.8622C62.9898 -97.8282 58.9048 -105.49 55.8761 -109.152L46.8355 -148.025L88.0409 -169.376L89.5111 -170.138L90.0127 -171.716L94.4854 -185.786L95.3051 -188.365L93.2169 -190.085L88.5237 -193.952ZM163.685 -97.3232L236.273 -149.773L275.977 -87.0217L239.963 -63.4311L239.805 -63.3277L239.696 -63.1739L230.194 -49.8026L230.009 -49.5425V-49.2233V-43.2619L194.035 -31.4537L193.994 -31.4402L193.954 -31.4231L168.917 -20.7261L168.31 -20.4668V-19.8065V1.69238L128.863 25.5678C125.722 22.4111 121.046 18.39 115.56 13.9479C108.857 8.52095 100.73 2.29611 92.2264 -4.04037C76.2722 -15.9283 58.9071 -28.2718 46.9491 -36.5923C49.5514 -45.9347 55.724 -63.3795 64.4013 -75.4498L65.1535 -76.4961V-77.671L77.1885 -85.6681L90.1578 -76.5255L92.3631 -74.9708L94.6306 -76.4333L125.844 -96.5654H161.342H162.636L163.685 -97.3232ZM130.376 26.9901C135.967 29.874 141.653 33.9001 147.037 38.3305L164.323 27.9191L165.355 29.6323L148.661 39.6868C151.311 41.9307 153.876 44.2564 156.307 46.5726C156.992 47.2251 157.668 47.8785 158.335 48.531L216.88 10.8872L230.077 -8.84662L232.718 -20.0363L232.9 -20.8065H233.692H253.036L297.314 -53.2988L277.046 -85.3314L241.217 -61.8615L232.009 -48.9042V-42.5377V-41.8134L231.321 -41.5876L194.7 -29.567L170.31 -19.1463V2.25604V2.8197L169.828 3.11154L130.376 26.9901ZM298.386 -51.6047L253.955 -19.0003L253.691 -18.8065H253.364H234.483L232.104 -8.72485L245.161 5.5936L245.354 5.80566L245.406 6.08801L247.651 18.4C252.072 16.5822 256.44 14.9627 260.678 13.6103C272.748 9.75884 284.576 7.79755 293.588 10.4245C308.095 4.58673 321.231 -0.495327 328.881 -3.40865L298.386 -51.6047ZM245.762 19.1875L243.49 6.72922L231.131 -6.8237L218.427 12.1718L218.312 12.3446L218.137 12.4571L159.792 49.972C164.659 54.8333 168.931 59.5692 172.171 63.4136C172.788 62.8441 173.471 62.2445 174.208 61.6211C177.045 59.2224 180.916 56.2844 185.515 53.0516C194.723 46.579 207.041 38.7931 220.259 31.6002C228.542 27.0929 237.229 22.7914 245.762 19.1875ZM296.771 17.7673C312.013 11.6353 325.711 6.35056 333.026 3.57401L344.919 25.5816L333.018 30.412L317.944 36.53L296.771 17.7673ZM294.698 18.6027L293.808 18.9614L292.367 18.4371C285.891 16.081 275.68 17.2206 263.11 21.2317C262.773 21.3393 262.435 21.4488 262.095 21.5601L279.948 36.9321L280.584 37.4796L280.155 38.2009L273.067 50.1246L264.709 79.0968L337.81 89.7656L341.816 74.5407L341.924 74.1304L342.294 73.9229L351.236 68.9087L351.566 68.7236L351.936 68.8034L361.772 70.9248L375.185 73.8176L375.78 73.946L375.939 74.5337L381.804 96.1864L398.079 98.5616L406.527 99.7946C404.1 96.0131 401.437 91.2609 399.183 85.9142C395.103 76.2376 388.011 59.3486 384.499 50.9798L376.786 46.5783L362.069 55.2651L361.834 55.404H361.561H337.418H336.779L336.51 54.8241L332.486 46.1328L332.284 45.6953L332.5 45.2643L336.27 37.7472L332.996 32.5792L318.122 38.6165L317.547 38.8498L317.082 38.4383L294.698 18.6027ZM374.785 45.4367L348.108 30.2125L347.115 29.6459L346.572 28.6401L345.875 27.3518L334.879 31.8148L338.263 37.1547L338.565 37.6326L338.312 38.1382L334.504 45.7301L338.057 53.404H361.288L374.785 45.4367ZM379.647 95.8715L374.168 75.6443L362.247 73.0734L356.29 92.4627L379.647 95.8715ZM354.288 92.1705L360.285 72.6501L351.884 70.8383L343.642 75.4598L339.802 90.0562L354.288 92.1705ZM262.712 78.8053L270.813 50.724H251.502L246.383 76.4221L262.712 78.8053ZM244.401 76.1328L249.701 49.5287L249.861 48.724H250.681H268.185L255.571 41.9126L254.999 41.6035L255.049 40.955L256.407 23.5568C245.917 27.4669 234.741 32.8275 224.083 38.6272C211.136 45.6723 199.077 53.2968 190.115 59.5965C186.238 62.3216 182.976 64.7743 180.488 66.805L244.401 76.1328ZM258.472 22.8028L257.094 40.4619L271.773 48.3882L278.007 37.9002L259.893 22.3028C259.421 22.4662 258.947 22.6329 258.472 22.8028ZM37.9237 -27.1101L37.3885 -17.5912C37.2975 -17.6815 37.2067 -17.7708 37.1161 -17.8591C35.1688 -19.7574 33.0495 -21.4553 30.8552 -22.3735L37.9237 -27.1101ZM57.1406 -79.0347C56.6365 -78.3061 56.1411 -77.563 55.6547 -76.8077C55.6097 -77.452 55.5707 -78.1728 55.5392 -78.9686C55.4331 -81.6524 55.4215 -84.8811 55.4715 -88.2787C55.486 -89.2643 55.5056 -90.2607 55.5295 -91.2583C56.3717 -87.9548 56.9857 -84.0829 57.1241 -79.6694C57.1307 -79.459 57.1362 -79.2475 57.1406 -79.0347ZM-115.624 7.94168L-111.608 -13.2945L-91.7813 -9.6458L-96.1014 12.6982L-103.798 8.08398L-104.036 7.94168H-104.313H-115.624ZM-86.7155 -35.8459L-91.4016 -11.6095L-111.236 -15.2596L-106.796 -38.7373L-86.7155 -35.8459ZM-167.759 88.7538L-187.133 86.9431L-180.439 58.1666L-163.574 59.968L-167.759 88.7538ZM-87.2578 105.692L-84.741 93.6066L-44.1227 98.1297L-39.1965 106.724L-40.1438 111.464L-87.2578 105.692ZM-87.667 107.656L-40.5369 113.43L-43.7515 129.515L-91.017 123.742L-87.667 107.656ZM325.475 141.544L273.248 128.528L275.687 109.683L346.95 119.312L325.475 141.544ZM197.068 307.305L191.085 271.515L211.395 274.143L217.511 303.979L217.575 304.291L217.808 304.509L241.627 326.77L223.223 333.052L197.068 307.305ZM219.406 303.265L213.492 274.414L233.724 277.032L237.177 297.261L237.228 297.559L237.436 297.779L262.76 324.563L246.635 330.286L244.377 326.65L244.307 326.538L244.211 326.447L219.406 303.265ZM495.795 275.698V264.664H512.573V279.078L503.918 283.196L495.795 275.698ZM528.374 266.204L514.573 264.773V278.183L533.132 270.088L528.374 266.204ZM504.737 285.021L513.496 280.854L519.727 284.93V294.803L504.737 294.131V285.021ZM521.727 294.893V285.492L541.196 287.391L541.544 287.425L541.837 287.235L548.366 283.006L559.022 292.072L548.288 296.084L521.727 294.893ZM534.861 271.516L546.776 281.653L541.043 285.366L521.069 283.418L515.67 279.886L534.861 271.516ZM547.848 259.521L535.061 269.081L529.67 264.68L528.091 257.964L534.84 259.297L535.415 259.41L535.795 258.964L541.755 251.962H561.804L560.164 259.321H548.447H548.114L547.848 259.521ZM525.936 257.538L527.479 264.101L513.676 262.67L513.625 262.664H513.573H495.421L489.42 250.326L525.936 257.538ZM490.722 240.13L488.85 248.175L526.956 255.701L534.652 257.221L539.47 251.561L532.512 249.93L490.722 240.13ZM562.25 249.962H541.409L534.298 248.294L540.041 238.645L552.812 239.838V243.607V244.381L553.56 244.575L562.909 247.006L562.25 249.962ZM548.779 261.321H560.62L566.108 265.634L560.36 290.585L549.095 281L536.637 270.4L548.779 261.321ZM502.737 285.343V294.365L487.556 299.41L467.921 296.351L476.52 284.078L502.737 285.343ZM446.354 298.092H465.181V307.802L445.001 305.576L446.354 298.092ZM497.66 311.385L467.181 308.023V298.26L487.488 301.423L487.727 301.461L487.957 301.384L502.209 296.648L497.66 311.385ZM465.661 296.092H446.715L449.126 282.757L474.158 283.964L465.661 296.092ZM421.52 292.05L404.201 291.434L396.817 277.486L423.588 279.296L421.52 292.05ZM423.909 277.314L395.716 275.407L388.337 261.468L425.975 264.572L423.909 277.314ZM389.747 246.717L385.884 259.243L364.072 256.998L364.84 244.687L389.747 246.717ZM387.064 295.927L364.903 259.094L385.964 261.262L394.209 276.835L402.121 291.779L387.064 295.927ZM391.15 244.825L364.964 242.69L365.902 227.658L410.642 232.145L443.95 235.485L414.176 246.702L391.15 244.825ZM387.92 259.427L391.788 246.884L414.237 248.714L428.359 249.865L426.296 262.592L387.92 259.427ZM333.458 303.069L351.049 298.264L364.988 323.346L363.537 332.027L362.192 340.072L343.468 337.049L345.556 325.165L345.618 324.815L345.444 324.504L333.458 303.069ZM314.041 308.372L331.47 303.612L343.525 325.17L341.322 337.702L337.494 359.483L318.953 356.916L325.876 325.205L325.972 324.767L325.708 324.404L314.041 308.372ZM377.158 350.379L360.94 359.69L364 341.383L365.36 333.25L393.92 335.158L402.588 351.495V355.367L377.858 350.267L377.487 350.19L377.158 350.379ZM392.818 333.08L365.691 331.268L367.018 323.331L367.076 322.986L366.906 322.681L352.416 296.607L341.386 276.758L360.16 271.529L392.818 333.08ZM112.887 286.058L107.063 312.807H126.477L132.301 286.058H112.887ZM145.648 315.488L128.488 312.972L134.329 286.144L151.986 287.944L145.648 315.488ZM143.828 332.316L147.183 317.735L171.102 321.241L161.687 334.147L143.828 332.316Z" stroke="#6D6DF6"/>
<rect x="185.931" y="88.9121" width="12" height="26" transform="rotate(8.88835 185.931 88.9121)" fill="#6D6DF6"/>
<path opacity="0.2" fill-rule="evenodd" clip-rule="evenodd" d="M129.127 -13L107.173 -0.0543146L110.254 5.17135L132.208 -7.77433L129.127 -13ZM118.173 7.94568L140.127 -5.00001L143.208 0.225661L121.254 13.1713L118.173 7.94568ZM148.127 3.99999L126.173 16.9457L129.254 22.1713L151.208 9.22566L148.127 3.99999ZM226.173 8.80603L237.84 5.99998L240.434 16.7856L228.767 19.5916L226.173 8.80603ZM250.887 63.7279L262.743 65.582L261.029 76.5419L249.173 74.6878L250.887 63.7279ZM350.575 34.7061L360.914 40.7971L355.283 50.355L344.944 44.2639L350.575 34.7061ZM273.849 36.8348L265.642 32L261.173 39.5865L269.379 44.4212L273.849 36.8348ZM231.621 58.756L243.218 60.5793L241.532 71.2995L229.936 69.4761L231.621 58.756ZM245.533 53.6856L240.278 52.8593L239.514 57.7172L244.769 58.5435L245.533 53.6856ZM220.937 65L226.192 65.8263L225.428 70.6842L220.173 69.8579L220.937 65ZM208.192 62.8263L202.937 62L202.173 66.8579L207.428 67.6842L208.192 62.8263ZM100.937 66L110.808 67.552L110.044 72.4099L100.173 70.8579L100.937 66ZM199.192 60.8263L193.937 60L193.173 64.8579L198.428 65.6842L199.192 60.8263ZM16.9509 63.9889L39.3491 67.6247L38.5612 72.4788L16.163 68.8429L16.9509 63.9889ZM126.705 55.6871L123.749 51.2644L119.66 53.997L122.616 58.4197L126.705 55.6871ZM164.261 83L167.217 87.4227L163.129 90.1553L160.173 85.7326L164.261 83ZM153.069 81.758L153.568 76.4619L148.673 76L148.173 81.2961L153.069 81.758ZM37.7755 77.9175L35.7013 82.816L31.1729 80.8985L33.2472 76L37.7755 77.9175ZM356.19 75.2643L351.014 73.9446L347.627 87.2283L352.803 88.548L356.19 75.2643ZM313.791 98.1359L319.078 98.8996L317.508 109.765L312.222 109.001L313.791 98.1359ZM361.744 181.484L358.173 185.456L366.337 192.797L369.908 188.825L361.744 181.484ZM222.173 89.2912L222.904 84L237.281 85.9871L236.55 91.2783L222.173 89.2912ZM216.626 179.278L215.748 184.547L226.577 186.351L227.455 181.082L216.626 179.278ZM211.099 204.757L211.977 199.488L228.953 202.317L228.076 207.585L211.099 204.757ZM355.912 216.27L350.596 215.751L348.923 232.879L354.239 233.399L355.912 216.27ZM209.173 213.269L210.051 208L227.027 210.829L226.149 216.097L209.173 213.269ZM347.289 214.924L341.973 214.405L340.3 231.534L345.616 232.053L347.289 214.924ZM207.173 222.269L208.051 217L225.027 219.829L224.149 225.097L207.173 222.269ZM338.174 213.538L332.858 213.019L331.185 230.147L336.501 230.667L338.174 213.538ZM218.173 174.269L219.051 169L229.88 170.804L229.002 176.073L218.173 174.269ZM222.051 153L221.173 158.269L232.002 160.073L232.88 154.804L222.051 153ZM102.253 147.519L102.903 142.217L113.8 143.554L113.149 148.856L102.253 147.519ZM132.824 127L132.173 132.302L143.07 133.639L143.72 128.337L132.824 127ZM75.2579 144.702L75.8508 139.394L91.2466 141.113L90.6538 146.421L75.2579 144.702ZM32.7658 182L32.173 187.308L47.5688 189.028L48.1617 183.719L32.7658 182ZM35.173 126.308L35.7658 121L51.1617 122.719L50.5688 128.028L35.173 126.308ZM30.7658 131L30.173 136.308L45.5688 138.028L46.1617 132.719L30.7658 131ZM5.17297 122.308L5.76583 117L21.1617 118.719L20.5688 124.028L5.17297 122.308ZM0.765826 127L0.17297 132.308L15.5688 134.028L16.1617 128.719L0.765826 127ZM4.17297 108.308L4.76583 103L20.1617 104.719L19.5688 110.028L4.17297 108.308ZM35.2586 105.445L34.5631 110.741L65.5912 114.816L66.2867 109.52L35.2586 105.445ZM204.974 112.782L203.173 107.753L222.022 101L223.824 106.028L204.974 112.782ZM104.173 49.5496L107.254 53.9128L123.609 42.3632L120.528 38L104.173 49.5496ZM213.974 118.782L212.173 113.753L231.022 107L232.824 112.028L213.974 118.782ZM207.173 125.753L208.974 130.782L227.824 124.028L226.022 119L207.173 125.753ZM159.974 218.536L158.173 213.508L170.754 209L172.556 214.028L159.974 218.536ZM179.173 222.753L180.974 227.782L199.824 221.028L198.022 216L179.173 222.753ZM155.974 229.782L154.173 224.753L173.022 218L174.824 223.028L155.974 229.782ZM205.173 137.753L206.974 142.782L225.824 136.028L224.022 131L205.173 137.753ZM171.291 23.8031L175.694 20.7781L181.911 29.8262L177.509 32.8512L171.291 23.8031ZM83.7462 42L79.173 44.7598L84.8452 54.1592L89.4185 51.3994L83.7462 42ZM16.2847 85L21.2374 87.0005L17.1257 97.1798L12.173 95.1793L16.2847 85ZM67.7462 12L63.173 14.7598L68.8452 24.1592L73.4185 21.3994L67.7462 12ZM73.173 7.75981L77.7462 5L83.4185 14.3994L78.8452 17.1592L73.173 7.75981ZM94.7462 35L90.173 37.7598L95.8452 47.1592L100.418 44.3994L94.7462 35ZM28.4867 89.5946L33.4394 91.5951L29.3277 101.774L24.375 99.7739L28.4867 89.5946ZM183.575 16L179.173 19.025L185.39 28.0731L189.793 25.0481L183.575 16ZM104.173 29.4709L107.096 25L116.285 31.0072L113.362 35.4781L104.173 29.4709ZM136.794 44L132.173 46.6795L136.751 54.5751L141.372 51.8956L136.794 44ZM194.173 10.025L198.575 7L204.793 16.0481L200.39 19.0731L194.173 10.025ZM183.185 -1.21069L178.783 1.81433L193.39 23.0731L197.793 20.0481L183.185 -1.21069ZM95.5717 17L98.5541 21.4313L77.1553 35.8333L74.1729 31.402L95.5717 17ZM329.029 99.7638L323.743 99L322.173 109.866L327.46 110.629L329.029 99.7638ZM364.419 177.661L367.99 173.689L376.154 181.029L372.582 185.001L364.419 177.661ZM338.029 100.764L332.743 100L331.173 110.866L336.46 111.629L338.029 100.764ZM370.249 170.732L373.82 166.76L381.984 174.101L378.412 178.073L370.249 170.732ZM348.029 101.764L342.743 101L341.173 111.866L346.46 112.629L348.029 101.764ZM376.635 162.972L380.206 159L388.37 166.34L384.798 170.312L376.635 162.972ZM344.038 31L339.173 33.2061L341.195 37.6658L346.06 35.4598L344.038 31ZM203.316 81.5337L208.605 82.2836L207.917 87.1321L202.629 86.3822L203.316 81.5337ZM198.085 80.5917L186.86 79L186.173 83.8484L197.398 85.4401L198.085 80.5917ZM333.173 22.206L338.038 20L340.06 24.4598L335.195 26.6658L333.173 22.206ZM309.038 16L304.173 18.206L306.195 22.6658L311.06 20.4598L309.038 16ZM363.56 76L368.736 77.3197L365.349 90.6035L360.173 89.2837L363.56 76ZM264.743 54.8541L252.887 53L251.651 60.9019L263.507 62.756L264.743 54.8541ZM128.296 166.503L151.218 169.607L150.144 177.533L127.222 174.429L128.296 166.503ZM30.7741 48.8115L-4.75367 44L-5.82703 51.9256L29.7007 56.7371L30.7741 48.8115ZM126.69 190.326L149.692 192.762L149.202 197.389L126.2 194.952L126.69 190.326ZM175.273 198.442L161.663 197L161.173 201.626L174.783 203.068L175.273 198.442ZM67.663 186L81.2734 187.442L80.7833 192.068L67.1729 190.626L67.663 186ZM75.4356 217.564L62.2179 214.012L61.0106 218.504L74.2283 222.056L75.4356 217.564ZM59.3802 221L72.598 224.552L71.3907 229.045L58.173 225.493L59.3802 221ZM203.274 199.442L183.87 197.386L183.38 202.013L202.783 204.068L203.274 199.442ZM89.8705 186.386L109.274 188.442L108.783 193.068L89.3804 191.013L89.8705 186.386ZM20.0661 205.055L0.663083 203L0.173001 207.626L19.576 209.682L20.0661 205.055ZM0.663083 213L20.0661 215.055L19.576 219.682L0.173001 217.626L0.663083 213ZM298.347 49.0157L282.082 40L277.173 48.8568L293.438 57.8726L298.347 49.0157ZM298.104 25.0001L303.259 29.5172L296.585 37.1332L291.43 32.6161L298.104 25.0001ZM310.002 35.5171L304.847 31L298.173 38.6159L303.327 43.133L310.002 35.5171ZM273.409 69L298.46 72.9176L297.224 80.8195L272.173 76.9019L273.409 69ZM331.757 7L315.94 13.2439L318.877 20.6832L334.694 14.4392L331.757 7ZM322.999 50.7597L329.99 48L332.927 55.4392L325.936 58.1989L322.999 50.7597ZM251.928 153.934L245.761 152.914L244.675 159.477L250.842 160.498L251.928 153.934ZM297.259 168L303.426 169.02L302.34 175.584L296.173 174.563L297.259 168ZM188.033 38L167.173 52.4137L171.72 58.9936L192.579 44.5799L188.033 38ZM142.173 23.9542L163.969 11L169.149 19.7159L147.353 32.6701L142.173 23.9542ZM214.033 21L193.173 35.4137L197.72 41.9936L218.579 27.5799L214.033 21ZM249.409 87L274.46 90.9176L273.224 98.8195L248.173 94.9019L249.409 87ZM262.331 139.617L240.211 127.225L236.301 134.202L258.422 146.595L262.331 139.617ZM256.324 100.144L248.372 128.171L237.953 125.215L245.905 97.188L256.324 100.144ZM190.732 143.061L193.387 131.405L182.828 129L180.173 140.656L190.732 143.061ZM105.387 220.225L103.554 228.273L85.007 224.048L86.8403 216L105.387 220.225ZM72.7323 212.061L75.3873 200.405L64.828 198L62.1729 209.656L72.7323 212.061ZM112.722 203.576L111.99 211.498L84.3814 208.95L85.1126 201.028L112.722 203.576ZM64.1589 58.0414L65.4056 48.8452L44.4197 46L43.1729 55.1962L64.1589 58.0414ZM71.4056 69.8452L70.1589 79.0414L49.1729 76.1962L50.4197 67L71.4056 69.8452ZM243.892 229.968L246.28 218.255L235.668 216.092L233.281 227.806L243.892 229.968ZM188.955 212.609L188.74 216.342L178.173 215.734L178.388 212L188.955 212.609ZM146.857 214.735L147.137 206.254L139.454 206L139.173 214.481L146.857 214.735ZM163.052 130.622L155.153 163.283L144.627 160.738L152.525 128.076L163.052 130.622ZM41.3972 231.141L47.9933 198.192L37.3741 196.066L30.778 229.016L41.3972 231.141ZM61.744 131.318L56.8768 159.774L49.173 158.457L54.0402 130L61.744 131.318ZM21.8068 199.224L24.63 181.245L16.9089 180.033L14.0858 198.012L21.8068 199.224ZM7.25586 178.909L5.64752 197.038L-2.13757 196.347L-0.529227 178.219L7.25586 178.909ZM122.883 102.414L125.836 82.5956L115.124 81L112.172 100.819L122.883 102.414ZM36.0204 146.027L33.0681 165.846L26.173 164.819L29.1253 145L36.0204 146.027ZM18.0681 162.846L21.0204 143.027L14.1252 142L11.173 161.819L18.0681 162.846ZM6.02038 140.027L3.06813 159.846L-3.827 158.819L-0.87475 139L6.02038 140.027ZM115.885 134.414L118.837 114.596L96.8645 111.323L93.9123 131.141L115.885 134.414ZM108.074 80.4185L105.121 100.237L82.1727 96.8188L85.125 77L108.074 80.4185ZM46.9618 22.8837L48.0738 15.4185L25.1252 12L24.0132 19.4652L46.9618 22.8837ZM27.2336 28.4185L26.1216 35.8837L3.17299 32.4652L4.28502 25L27.2336 28.4185ZM33.1729 37.3057L37.8265 37.8512L39.0334 27.556L34.3797 27.0105L33.1729 37.3057ZM46.8265 38.8407L42.1729 38.2952L43.3797 28L48.0334 28.5455L46.8265 38.8407ZM86.8845 130.414L89.8368 110.596L79.1251 109L76.1729 128.819L86.8845 130.414ZM68.0367 88.9396L65.8483 102.158L60.173 101.218L62.3614 88L68.0367 88.9396ZM54.8483 100.158L57.0367 86.9396L51.3614 86L49.173 99.2182L54.8483 100.158ZM263.645 103.724C266.485 104.53 268.134 107.485 267.329 110.326L263.326 124.433C262.52 127.273 259.565 128.922 256.725 128.116C253.884 127.311 252.235 124.355 253.041 121.515L257.043 107.408C257.849 104.567 260.805 102.918 263.645 103.724ZM212.441 49.8237C208.979 51.7158 207.707 56.0559 209.599 59.5178C211.491 62.9796 215.831 64.2521 219.293 62.36L236.487 52.9622C239.949 51.0701 241.222 46.7299 239.33 43.2681C237.438 39.8063 233.097 38.5338 229.636 40.4259L212.441 49.8237ZM283.409 92L308.46 95.9176L307.224 103.819L282.173 99.9019L283.409 92ZM275.179 182.97L250.129 179.052L249.173 185.162L274.224 189.08L275.179 182.97ZM291.129 182L316.179 185.918L315.224 192.027L290.173 188.11L291.129 182ZM242.419 164L237.173 188.807L244.998 190.461L250.243 165.655L242.419 164ZM276.173 193.807L281.419 169L289.243 170.655L283.998 195.461L276.173 193.807ZM273.413 136.009L266.03 156.281L272.148 158.509L279.531 138.237L273.413 136.009ZM264.173 225.367L269.041 212L273.526 213.633L268.658 227L264.173 225.367ZM315.556 144L308.173 164.272L314.291 166.5L321.674 146.228L315.556 144ZM287.173 159.272L294.556 139L300.674 141.228L293.291 161.5L287.173 159.272ZM322.419 173L317.173 197.807L324.998 199.461L330.243 174.655L322.419 173ZM278.871 118.148L303.57 123.88L301.762 131.671L277.063 125.939L278.871 118.148ZM263.434 205.018L238.199 202.544L237.419 210.504L262.653 212.978L263.434 205.018ZM278.953 208L304.187 210.474L303.407 218.434L278.173 215.96L278.953 208ZM392.439 200.755L348.047 195.499L347.367 201.242L391.759 206.498L392.439 200.755ZM322.224 120.776L329.373 122.435L325.872 137.523L318.723 135.863L322.224 120.776ZM176.823 138.659L169.674 137L166.173 152.088L173.322 153.747L176.823 138.659ZM160.372 98.0716L167.577 99.4705L164.278 116.457L157.074 115.058L160.372 98.0716ZM146.882 89.3989L139.677 88L135.173 111.198L142.378 112.597L146.882 89.3989ZM162.674 165L169.823 166.659L166.322 181.747L159.173 180.088L162.674 165ZM80.8233 156.659L73.6742 155L70.1729 170.088L77.322 171.747L80.8233 156.659ZM97.6742 157L104.823 158.659L101.322 173.747L94.1729 172.088L97.6742 157ZM182.823 165.659L175.674 164L172.173 179.088L179.322 180.747L182.823 165.659ZM83.6742 154L90.8233 155.659L87.322 170.747L80.1729 169.088L83.6742 154ZM114.823 157.659L107.674 156L104.173 171.088L111.322 172.747L114.823 157.659ZM195.482 164.519L206.173 167L201.864 185.569L191.173 183.088L195.482 164.519ZM382.46 106.918L357.409 103L356.173 110.902L381.224 114.819L382.46 106.918ZM340.571 138L355.786 158.283L349.388 163.082L334.173 142.799L340.571 138ZM368.495 147.828L357.504 138L352.173 143.962L363.163 153.79L368.495 147.828ZM365.504 129L376.495 138.828L371.163 144.79L360.173 134.962L365.504 129ZM330.171 77.465L314.409 75L313.173 82.9019L328.936 85.3669L330.171 77.465ZM352.223 59.1868L391.52 65.3324L390.47 72.0474L351.173 65.9019L352.223 59.1868ZM306.039 56L302.173 81.0587L310.077 82.2782L313.943 57.2194L306.039 56Z" fill="#6D6DF6"/>
</g>
<path d="M190.675 81C186.537 81 183.173 84.5856 183.173 88.992C183.173 95.9136 190.04 104.472 190.333 104.832C190.418 104.938 190.54 105 190.675 105C190.806 105 190.927 104.938 191.013 104.832C191.306 104.472 198.173 95.9136 198.173 88.992C198.173 84.5856 194.809 81 190.675 81ZM190.675 92.9808C188.613 92.9808 186.933 91.1904 186.933 88.992C186.933 86.7936 188.613 85.008 190.675 85.008C192.733 85.008 194.413 86.7936 194.413 88.992C194.413 91.1904 192.733 92.9808 190.675 92.9808Z" fill="white"/>
</svg>
