<svg width="139" height="91" viewBox="0 0 139 91" fill="none" xmlns="http://www.w3.org/2000/svg">
<rect x="0.219604" y="37.1364" width="41.9844" height="14.6188" transform="rotate(-59.9093 0.219604 37.1364)" fill="#BDC6CF"/>
<rect width="44.9466" height="14.6188" transform="matrix(-0.460655 -0.887579 -0.887579 0.460655 138.68 44.8936)" fill="#7C8A95"/>
<path d="M15.5987 43.1514L34.0505 11C40.97 15.5931 60.575 16.7413 73.2607 21.3344C85.5619 32.4343 108.626 54.0093 112.5 56.4999C117.084 59.4466 119.39 62.6719 117.084 66.1167C115.239 68.8726 112.471 68.796 111.318 68.4133L106.705 66.1167C108.242 66.8823 110.768 70.4802 108 74.1546C105.232 77.829 100.554 75.3029 98.6319 74.1546C102.092 76.4511 98.6319 83.3407 92.8657 81.0442L90.5592 79.8002C92.4044 82.4795 90.5592 84.0424 89.406 84.489C65.188 89.0821 29.0078 61.6949 15.5987 43.1514Z" fill="#BDC6CF"/>
<path d="M98.6319 74.1546C102.092 76.4511 98.6319 83.3407 92.8657 81.0442L90.5592 79.8002M98.6319 74.1546C94.0189 70.4802 76.7204 60.3754 68.6477 55.7824M98.6319 74.1546C100.554 75.3029 105.232 77.8291 108 74.1546C110.768 70.4802 108.242 66.8823 106.705 66.1167M64.5 66.1167L90.5592 79.8002M106.705 66.1167L74.4139 45.448M106.705 66.1167L111.318 68.4133C112.471 68.796 115.239 68.8726 117.084 66.1167C119.39 62.6719 117.084 59.4466 112.5 56.4999C108.626 54.0093 85.5619 32.4343 73.2607 21.3344C60.575 16.7413 40.97 15.5931 34.0505 11L15.5987 43.1514C29.0078 61.6949 65.188 89.0821 89.406 84.489C90.5592 84.0424 92.4044 82.4795 90.5592 79.8002" stroke="white" stroke-width="3" stroke-linecap="round" stroke-linejoin="round"/>
<path d="M122.599 48.9668L105.338 16.9582C99.584 20.3877 89.2274 15.815 73.1171 13.5287C60.2289 11.6996 53.171 15.0529 51.2531 16.9582C45.4995 23.4361 35.1428 37.3065 39.7458 40.9647C45.4995 45.5373 57.0068 35.2488 58.1576 34.1057C59.3083 32.9625 62.7605 29.533 67.3634 28.3899C71.9664 27.2467 111.091 58.1122 114.544 56.969C117.305 56.0545 121.064 51.2532 122.599 48.9668Z" fill="#7C8A95" stroke="white" stroke-width="3"/>
<rect x="22.2037" y="63.0004" width="16.2723" height="8.63056" rx="4.31528" transform="rotate(-54.6395 22.2037 63.0004)" fill="#7C8A95" stroke="white" stroke-width="3"/>
<rect x="29.109" y="69.9057" width="24.0505" height="9.44938" rx="4.5" transform="rotate(-54.6395 29.109 69.9057)" fill="#7C8A95" stroke="white" stroke-width="3"/>
<rect x="38.316" y="76.249" width="24.0505" height="9.44938" rx="4.5" transform="rotate(-54.6395 38.316 76.249)" fill="#7C8A95" stroke="white" stroke-width="3"/>
<rect x="47.523" y="83.1543" width="19.1342" height="9.44938" rx="4.5" transform="rotate(-54.6395 47.523 83.1543)" fill="#7C8A95" stroke="white" stroke-width="3"/>
</svg>
