<svg width="189" height="35" viewBox="0 0 189 35" fill="none" xmlns="http://www.w3.org/2000/svg">
<rect width="34.9109" height="34.9109" fill="white"/>
<path d="M30.3526 14.1132H20.609L17.6096 4.84875L14.5925 14.1132L4.84888 14.0954L12.729 19.828L9.71181 29.0924L17.5919 23.3598L25.472 29.0924L22.4726 19.828L30.3526 14.1132Z" fill="#1BB57C"/>
<path d="M23.1472 21.9223L22.4728 19.8281L17.6099 23.3599L23.1472 21.9223Z" fill="#005128"/>
<rect x="38.5225" width="34.9109" height="34.9109" fill="white"/>
<path d="M68.8749 14.1132H59.1313L56.1319 4.84875L53.1147 14.1132L43.3711 14.0954L51.2512 19.828L48.234 29.0924L56.1141 23.3598L63.9942 29.0924L60.9948 19.828L68.8749 14.1132Z" fill="#1BB57C"/>
<path d="M61.6694 21.9223L60.995 19.8281L56.1321 23.3599L61.6694 21.9223Z" fill="#005128"/>
<rect x="77.0449" width="34.9109" height="34.9109" fill="white"/>
<path d="M107.397 14.1132H97.6537L94.6543 4.84875L91.6372 14.1132L81.8936 14.0954L89.7736 19.828L86.7565 29.0924L94.6366 23.3598L102.517 29.0924L99.5172 19.828L107.397 14.1132Z" fill="#1BB57C"/>
<path d="M100.192 21.9223L99.5172 19.8281L94.6543 23.3599L100.192 21.9223Z" fill="#005128"/>
<rect x="115.567" width="34.9109" height="34.9109" fill="white"/>
<path d="M145.919 14.1132H136.176L133.176 4.84875L130.159 14.1132L120.416 14.0954L128.296 19.828L125.278 29.0924L133.159 23.3598L141.039 29.0924L138.039 19.828L145.919 14.1132Z" fill="#1BB57C"/>
<path d="M138.714 21.9223L138.039 19.8281L133.177 23.3599L138.714 21.9223Z" fill="#005128"/>
<rect x="154.089" width="34.9109" height="34.9109" fill="white"/>
<path d="M184.442 14.1132H174.698L171.699 4.84875L168.682 14.1132L158.938 14.0954L166.818 19.828L163.801 29.0924L171.681 23.3598L179.561 29.0924L176.562 19.828L184.442 14.1132Z" fill="#1BB57C"/>
<path d="M177.236 21.9223L176.562 19.8281L171.699 23.3599L177.236 21.9223Z" fill="#005128"/>
</svg>
