<svg width="319" height="79" viewBox="0 0 319 79" fill="none" xmlns="http://www.w3.org/2000/svg">
<path d="M83.8437 27.753H116.116V33.7608H103.409V67.628H96.4442V33.7608H83.7905L83.8437 27.753ZM114.734 38.7585H120.688V44.341H120.795C121.007 43.5435 121.379 42.7992 121.911 42.0548C122.443 41.3105 123.081 40.6193 123.878 40.0345C124.623 39.3965 125.473 38.918 126.43 38.5458C127.334 38.1737 128.291 37.961 129.248 37.961C129.992 37.961 130.524 38.0142 130.79 38.0142C131.056 38.0673 131.375 38.1205 131.641 38.1205V44.2347C131.215 44.1283 130.737 44.0751 130.258 44.022C129.78 43.9688 129.354 43.9157 128.876 43.9157C127.813 43.9157 126.802 44.1283 125.845 44.5536C124.888 44.979 124.091 45.617 123.347 46.4145C122.655 47.2651 122.071 48.2753 121.645 49.4982C121.22 50.721 121.007 52.1565 121.007 53.7515V67.4685H114.627L114.734 38.7585ZM160.882 67.628H154.609V63.5873H154.502C153.705 65.076 152.535 66.1925 150.993 67.0963C149.451 68.0002 147.856 68.4255 146.261 68.4255C142.487 68.4255 139.722 67.5217 138.021 65.6077C136.319 63.7468 135.469 60.8758 135.469 57.101V38.7585H141.849V56.463C141.849 59.015 142.327 60.8227 143.337 61.8328C144.294 62.8961 145.677 63.4278 147.431 63.4278C148.76 63.4278 149.877 63.2152 150.781 62.7898C151.684 62.3645 152.429 61.8328 152.96 61.1417C153.545 60.4505 153.917 59.5998 154.183 58.6428C154.449 57.6858 154.555 56.6225 154.555 55.506V38.7585H160.935V67.628H160.882ZM171.728 58.377C171.941 60.2378 172.632 61.5138 173.855 62.3113C175.078 63.0557 176.566 63.4278 178.268 63.4278C178.853 63.4278 179.544 63.3747 180.288 63.2683C181.032 63.162 181.777 63.0025 182.415 62.7367C183.106 62.4708 183.638 62.0987 184.063 61.567C184.488 61.0353 184.701 60.3973 184.648 59.5998C184.595 58.8023 184.329 58.1111 183.744 57.5795C183.159 57.0478 182.468 56.6757 181.617 56.3035C180.767 55.9845 179.756 55.7187 178.64 55.506C177.523 55.2933 176.407 55.0275 175.237 54.7617C174.068 54.4958 172.898 54.1768 171.781 53.8047C170.665 53.4325 169.708 52.954 168.804 52.2628C167.953 51.6248 167.209 50.8273 166.731 49.8172C166.199 48.807 165.933 47.6373 165.933 46.1486C165.933 44.5536 166.305 43.2776 167.103 42.2143C167.847 41.151 168.857 40.3003 170.027 39.6623C171.197 39.0243 172.526 38.5458 173.961 38.28C175.397 38.0142 176.779 37.9078 178.055 37.9078C179.544 37.9078 180.979 38.0673 182.308 38.3863C183.638 38.7053 184.914 39.1838 185.977 39.9282C187.093 40.6193 187.997 41.5763 188.688 42.6928C189.433 43.8093 189.858 45.1917 190.071 46.7867H183.425C183.106 45.2448 182.415 44.2347 181.351 43.703C180.235 43.1713 179.012 42.9055 177.577 42.9055C177.151 42.9055 176.566 42.9587 175.982 43.0118C175.344 43.1181 174.812 43.2245 174.227 43.4372C173.695 43.6498 173.217 43.9688 172.845 44.341C172.473 44.7132 172.26 45.2448 172.26 45.8828C172.26 46.6803 172.526 47.2651 173.057 47.7436C173.589 48.2221 174.28 48.5943 175.184 48.9665C176.035 49.2855 177.045 49.5513 178.161 49.764C179.278 49.9767 180.448 50.2425 181.617 50.5083C182.787 50.7742 183.903 51.0931 185.02 51.4653C186.136 51.8375 187.147 52.316 187.997 53.0072C188.848 53.6452 189.592 54.4427 190.124 55.3997C190.656 56.3567 190.921 57.5795 190.921 58.9618C190.921 60.6632 190.549 62.0987 189.752 63.3215C188.954 64.4912 187.944 65.5013 186.721 66.2457C185.498 66.99 184.063 67.5217 182.574 67.8938C181.032 68.2128 179.544 68.4255 178.055 68.4255C176.247 68.4255 174.546 68.2128 173.004 67.7875C171.462 67.3622 170.08 66.7242 168.964 65.9267C167.847 65.076 166.943 64.0658 166.305 62.7898C165.667 61.567 165.295 60.0783 165.242 58.3238H171.675V58.377H171.728ZM192.729 38.7585H197.567V30.0392H203.947V38.7053H209.689V43.4372H203.947V58.8555C203.947 59.5467 204 60.0783 204.054 60.61C204.107 61.0885 204.266 61.5138 204.426 61.8328C204.638 62.1518 204.957 62.4177 205.33 62.5772C205.755 62.7367 206.287 62.843 207.031 62.843C207.456 62.843 207.935 62.843 208.36 62.7898C208.785 62.7367 209.264 62.6835 209.689 62.5772V67.5217C208.998 67.628 208.307 67.6812 207.616 67.7343C206.925 67.8407 206.287 67.8407 205.542 67.8407C203.841 67.8407 202.512 67.6812 201.502 67.3622C200.491 67.0432 199.694 66.5647 199.109 65.9798C198.524 65.3418 198.152 64.5975 197.939 63.6936C197.727 62.7898 197.62 61.6733 197.567 60.5037V43.4903H192.729V38.6522V38.7585ZM214.155 38.7585H220.163V42.6928H220.269C221.173 40.9915 222.396 39.8218 223.991 39.0775C225.586 38.3332 227.287 37.961 229.201 37.961C231.488 37.961 233.455 38.3332 235.156 39.1838C236.857 39.9813 238.24 41.0447 239.356 42.4802C240.473 43.8625 241.323 45.5107 241.855 47.3715C242.387 49.2323 242.706 51.2526 242.706 53.3261C242.706 55.2933 242.44 57.1542 241.961 58.9618C241.43 60.7695 240.685 62.4177 239.675 63.8C238.665 65.1823 237.389 66.2988 235.794 67.1495C234.199 68.0002 232.391 68.4255 230.265 68.4255C229.361 68.4255 228.404 68.3192 227.5 68.1597C226.596 68.0002 225.692 67.7343 224.842 67.3622C223.991 66.99 223.194 66.5115 222.502 65.9267C221.758 65.3418 221.173 64.6507 220.695 63.9063H220.588V78.3145H214.208V38.7585H214.155ZM236.432 53.2198C236.432 51.9438 236.273 50.6678 235.9 49.445C235.581 48.2222 235.05 47.1588 234.359 46.2018C233.667 45.2448 232.817 44.5005 231.86 43.9157C230.85 43.3308 229.68 43.065 228.404 43.065C225.746 43.065 223.725 43.9688 222.343 45.8297C221.014 47.6905 220.323 50.1893 220.323 53.273C220.323 54.7617 220.482 56.0908 220.854 57.3137C221.226 58.5365 221.705 59.5998 222.449 60.5037C223.14 61.4075 223.991 62.0987 225.001 62.6303C226.011 63.162 227.128 63.4278 228.457 63.4278C229.946 63.4278 231.115 63.1088 232.126 62.524C233.136 61.9392 233.933 61.1417 234.624 60.2378C235.262 59.2808 235.741 58.2175 236.007 56.9947C236.273 55.7187 236.432 54.4958 236.432 53.2198ZM247.65 27.753H254.03V33.7608H247.65V27.753ZM247.65 38.7585H254.03V67.628H247.65V38.7585ZM259.719 27.753H266.099V67.628H259.719V27.753ZM285.558 68.4255C283.272 68.4255 281.198 68.0533 279.391 67.2558C277.583 66.4583 276.094 65.4482 274.818 64.119C273.596 62.7898 272.639 61.1417 272.001 59.2808C271.363 57.42 270.99 55.3465 270.99 53.1667C270.99 50.9868 271.309 48.9665 272.001 47.1057C272.639 45.2448 273.596 43.6498 274.818 42.2675C276.041 40.9383 277.583 39.875 279.391 39.1307C281.198 38.3863 283.272 37.961 285.558 37.961C287.844 37.961 289.918 38.3332 291.725 39.1307C293.533 39.875 295.022 40.9383 296.298 42.2675C297.521 43.5967 298.478 45.2448 299.116 47.1057C299.754 48.9665 300.126 50.9868 300.126 53.1667C300.126 55.3997 299.807 57.42 299.116 59.2808C298.424 61.1417 297.521 62.7367 296.298 64.119C295.075 65.4482 293.533 66.5115 291.725 67.2558C289.918 68.0002 287.897 68.4255 285.558 68.4255ZM285.558 63.3747C286.94 63.3747 288.216 63.0557 289.227 62.4708C290.29 61.886 291.087 61.0885 291.779 60.1315C292.47 59.1745 292.948 58.058 293.267 56.8883C293.586 55.6655 293.746 54.4427 293.746 53.1667C293.746 51.9438 293.586 50.721 293.267 49.4982C292.948 48.2753 292.47 47.212 291.779 46.255C291.087 45.298 290.237 44.5537 289.227 43.9688C288.163 43.384 286.94 43.065 285.558 43.065C284.176 43.065 282.9 43.384 281.89 43.9688C280.826 44.5537 280.029 45.3512 279.338 46.255C278.646 47.212 278.168 48.2753 277.849 49.4982C277.53 50.721 277.37 51.9438 277.37 53.1667C277.37 54.4427 277.53 55.6655 277.849 56.8883C278.168 58.1112 278.646 59.1745 279.338 60.1315C280.029 61.0885 280.879 61.886 281.89 62.4708C282.953 63.1088 284.176 63.3747 285.558 63.3747ZM302.04 38.7585H306.878V30.0392H313.258V38.7053H319V43.4372H313.258V58.8555C313.258 59.5467 313.311 60.0783 313.364 60.61C313.417 61.0885 313.577 61.5138 313.736 61.8328C313.949 62.1518 314.268 62.4177 314.64 62.5772C315.066 62.7367 315.597 62.843 316.342 62.843C316.767 62.843 317.245 62.843 317.671 62.7898C318.096 62.7367 318.575 62.6835 319 62.5772V67.5217C318.309 67.628 317.618 67.6812 316.926 67.7343C316.235 67.8407 315.597 67.8407 314.853 67.8407C313.152 67.8407 311.822 67.6812 310.812 67.3622C309.802 67.0432 309.005 66.5647 308.42 65.9798C307.835 65.3418 307.463 64.5975 307.25 63.6936C307.037 62.7898 306.931 61.6733 306.878 60.5037V43.4903H302.04V38.6522V38.7585Z" fill="black"/>
<path d="M76.4005 27.753H47.212L38.2268 0L29.1885 27.753L0 27.6998L23.606 44.8727L14.5677 72.6257L38.1737 55.4528L61.7797 72.6257L52.7945 44.8727L76.4005 27.753Z" fill="#00B67A"/>
<path d="M54.8151 51.1464L52.7947 44.8727L38.2271 55.4528L54.8151 51.1464Z" fill="#005128"/>
</svg>
