<svg width="100" height="100" viewBox="0 0 100 100" fill="none" xmlns="http://www.w3.org/2000/svg">
<rect width="100" height="100" fill="#FF5256"/>
<path d="M54.5137 90.5691L55.2777 80.1273C55.2885 79.9796 55.1576 79.8598 55.011 79.8814C54.3571 79.9779 52.6406 80.194 50.3926 80.194C48.1499 80.194 46.4363 79.9789 45.7788 79.8821C45.6308 79.8603 45.4993 79.9827 45.5126 80.1318L46.13 87.0459C46.152 87.2925 46.4967 87.3309 46.5725 87.0952L47.3095 84.8022C47.3806 84.5812 47.6982 84.5964 47.7478 84.8232L50.1496 95.821C50.2026 96.0637 50.5509 96.0574 50.595 95.8129L52.4305 85.6468C52.4742 85.4048 52.8177 85.395 52.875 85.6342L54.0662 90.6055C54.1267 90.8578 54.4947 90.8279 54.5137 90.5691Z" fill="white"/>
<path d="M18.3571 79.5716C18.1168 79.8346 17.7774 79.9849 17.4212 79.9849L-nan -nanL-nan -nanL17.4212 79.9849C16.6818 79.9849 16.0994 79.3543 16.1769 78.619C17.1012 69.8486 19.9736 59.4605 23.8746 49.424C24.0299 49.0245 24.4152 48.7624 24.8438 48.7624L-nan -nanL-nan -nanL24.8438 48.7624C25.3468 48.7624 25.7734 49.1236 25.9008 49.6102C27.3288 55.0653 32.4105 58.5268 37.5424 60.5674C40.5837 61.7767 43.3609 62.4701 44.594 62.7382C48.0136 63.4816 57.3803 64.0763 58.2724 60.508C59.1645 56.9397 51.2845 55.7503 46.5268 54.7095C46.1145 54.6193 45.6151 54.5168 45.0471 54.3955C40.0576 53.3295 29.7795 50.8075 26.8121 42.3673C26.2198 40.6827 25.9188 38.7623 26.0091 36.5707C26.4105 26.8383 32.2286 21.1684 40.5391 18.5102C43.5948 14.6113 46.6282 11.6963 49.4354 10.202C49.9414 9.93266 50.5461 9.93266 51.0522 10.202C53.4471 11.4769 56.0068 13.786 58.6045 16.8579C65.9713 17.531 71.53 19.6924 74.6775 21.44C75.1683 21.7125 75.3572 22.3134 75.1379 22.8301L70.0186 34.8959C69.7724 35.476 69.102 35.7444 68.5191 35.5048C65.1153 34.1053 60.0208 32.3318 56.0422 31.9617C49.6491 31.367 45.6347 32.5564 45.3374 35.53C45.04 38.5035 51.5819 39.693 57.3803 40.585C63.1788 41.4771 75.9652 43.8852 80.4256 60.4483C82.3497 66.8211 83.7233 73.0461 84.3106 78.6181C84.3881 79.3534 83.8057 79.9849 83.0663 79.9849L-nan -nanL-nan -nanL83.0663 79.9849C82.7101 79.9849 82.3711 79.835 82.1308 79.572C79.9186 77.1515 76.8666 73.9337 73.4376 70.5033C71.1083 73.0691 64.5169 78.2008 50.2438 78.2008C37.3087 78.2008 30.7107 75.3759 25.4607 72.1049C22.6812 74.9267 20.2211 77.5321 18.3571 79.5716Z" fill="white"/>
</svg>
