<svg width="358" height="330" viewBox="0 0 358 330" fill="none" xmlns="http://www.w3.org/2000/svg">
<path fill-rule="evenodd" clip-rule="evenodd" d="M162.731 52.8053C160.968 56.1512 159.037 59.0718 157.244 60.2273C152.014 63.5897 151.05 49.73 150.667 44.4585C150.285 39.1869 149.394 31.2994 153.246 31.4129C154.876 31.6287 156.463 32.0983 157.948 32.8047C159.089 27.2326 157.109 4.44426 180.901 10.4727C199.725 15.2476 210.961 28.3428 220.479 21.4809C229.997 14.619 231.326 32.4237 216.239 45.334C201.151 58.2442 181.809 60.7807 171.539 56.7755C168.517 55.6517 165.575 54.3252 162.731 52.8053Z" fill="white"/>
<path fill-rule="evenodd" clip-rule="evenodd" d="M196.939 145.658L204.667 146.704L200.222 75.1356L191.161 65.3501L190 66.2274L196.939 145.658Z" fill="#FFD3CA"/>
<path fill-rule="evenodd" clip-rule="evenodd" d="M160.523 57.9028C160.523 57.9028 156.045 49.9346 152.216 52.0572C148.387 54.1799 153.722 72.2287 158.73 73.141C163.738 74.0533 165.969 68.3936 160.523 57.9028Z" fill="#FFE1DA"/>
<rect x="80.667" y="101.359" width="213.333" height="146.705" rx="5" fill="#D3D1DE"/>
<path d="M88.667 114.362C88.667 111.6 90.9056 109.362 93.667 109.362H279.667C282.428 109.362 284.667 111.6 284.667 114.362V237.395H88.667V114.362Z" fill="white"/>
<rect x="99" y="119.96" width="176" height="10" fill="#DFDFF4"/>
<rect y="275.96" width="358" height="18" fill="#412F2F"/>
<rect x="99" y="137.96" width="176" height="44" rx="3" fill="#DFDFF4"/>
<rect x="227" y="191.96" width="48" height="45" rx="3" fill="#DFDFF4"/>
<path fill-rule="evenodd" clip-rule="evenodd" d="M176.999 72.0186L164.2 79.4684L162 142.071L204.667 146.704L200.472 92.4053L176.999 72.0186Z" fill="#FF8685"/>
<path fill-rule="evenodd" clip-rule="evenodd" d="M154.268 36.6552C154.268 36.6552 154.543 32.3973 158.68 34.9058C162.411 37.1533 154.733 4.40528 182.708 11.4407C201.528 16.2049 212.76 29.3082 222.289 22.4407C231.818 15.5733 233.126 33.3891 218.038 46.2994C202.951 59.2097 183.609 61.7462 173.341 57.733C163.074 53.7197 153.896 49.4025 154.268 36.6552Z" fill="#412F2F"/>
<path fill-rule="evenodd" clip-rule="evenodd" d="M154.268 36.6557C154.268 36.6557 154.543 32.3979 158.68 34.9064C159.21 35.224 159.503 34.8287 159.707 33.9265C159.746 33.8055 159.786 33.6765 159.783 33.516C168.325 -8.62973 211.14 59.3065 228.85 30.1105C227.601 35.0369 224.182 41.1063 218.013 46.3807C202.933 59.2935 183.584 61.8274 173.316 57.8142C163.048 53.801 153.896 49.403 154.268 36.6557Z" fill="#281616"/>
<path fill-rule="evenodd" clip-rule="evenodd" d="M202.702 55.3989C202.702 55.3989 207.18 47.4307 211.009 49.5533C214.838 51.676 209.503 69.7248 204.495 70.6371C199.487 71.5494 197.256 65.8897 202.702 55.3989Z" fill="#FFE1DA"/>
<path fill-rule="evenodd" clip-rule="evenodd" d="M108.666 143.03L160.426 124.032C160.426 124.032 191.664 138.464 200.965 125.578C206.579 128.508 230.526 136.715 240.841 143.03C256.61 185.072 244.235 287.952 240.841 314.485C239.576 324.368 139.269 325.759 130.136 316.639C125.904 312.405 135.884 259.674 127.186 229.17C117.089 193.831 108.666 143.03 108.666 143.03Z" fill="#8FB575"/>
<path fill-rule="evenodd" clip-rule="evenodd" d="M150.24 30.3863C150.24 30.3863 157.155 27.1996 159.847 34.5815L158.991 34.9058C156.597 28.4071 150.605 31.2015 150.594 31.2071L150.24 30.3863Z" fill="#281616"/>
<path fill-rule="evenodd" clip-rule="evenodd" d="M154.448 27.0839C154.448 27.0839 161.822 28.6165 159.511 36.214L158.655 35.9444C160.687 29.261 154.262 27.9296 154.246 27.9245L154.448 27.0839Z" fill="#281616"/>
<path fill-rule="evenodd" clip-rule="evenodd" d="M149.239 126.543C149.358 126.61 191.017 152.029 213.065 130.566L215.04 131.595C191.496 154.521 147.902 127.882 147.736 127.805L149.239 126.543Z" fill="#6A8A53"/>
<path fill-rule="evenodd" clip-rule="evenodd" d="M102.805 226.98C100.77 262.896 108.639 278.37 127.92 278.55C166.924 278.924 137.334 154.387 128.356 145.184C120.56 137.218 108.499 136.928 104.647 149.309C97.6327 171.846 103.146 220.921 102.805 226.98Z" fill="#8FB575"/>
<path fill-rule="evenodd" clip-rule="evenodd" d="M236.71 228.588C234.251 263.15 230.574 275.206 249.844 275.737C303.019 270.049 257.115 154.459 248.249 145.428C240.55 137.61 230.708 140.579 226.712 152.435C219.434 174.016 237.123 222.758 236.71 228.588Z" fill="#8FB575"/>
<path fill-rule="evenodd" clip-rule="evenodd" d="M207.718 41.8418C207.718 41.8418 210.811 50.7881 205.829 67.4026C201.423 82.1001 187.412 94.2257 180.65 91.6855C163.307 94.5085 157.528 73.5072 155.282 63.0144C153.036 52.5217 148.832 36.9502 160.506 36.0869C172.179 35.2237 207.718 41.8418 207.718 41.8418Z" fill="#281616"/>
<path fill-rule="evenodd" clip-rule="evenodd" d="M160.228 41.344C160.228 41.417 171.305 68.9623 206.83 45.7619L207.333 46.5158C170.786 70.3566 159.367 41.8141 159.333 41.7331L160.228 41.344Z" fill="#412F2F"/>
<path d="M125 151.96C124.245 179.118 123.189 236.339 125 247.96" stroke="#6A8A53" stroke-width="1.5"/>
<path d="M232 154.96C234.683 169.067 236.442 174.371 240.249 202.195C242.647 219.719 242.519 236.433 240.249 242.96" stroke="#6A8A53" stroke-width="1.5"/>
<path d="M159.037 217.96C113.499 217.96 111.091 287.011 115.58 321.536C121.377 335.1 256.623 330.168 263.701 321.536C267.129 240.8 240.238 218.845 226.365 217.96H159.037Z" fill="#412F2F"/>
<path d="M234.153 326.96C229.963 294.94 220.711 228.303 227.295 220.298C260.814 222.966 265.608 288.884 263.613 320.904C259.809 325.143 244.374 325.749 234.153 326.96Z" fill="#281616"/>
<rect x="148" y="165.96" width="83" height="32" rx="10" fill="#281616"/>
<path d="M148 175.96C148 170.437 152.477 165.96 158 165.96H210.618C215.417 165.96 219.54 169.37 220.44 174.084L222.732 186.084C223.909 192.248 219.185 197.96 212.91 197.96H158C152.477 197.96 148 193.483 148 187.96V175.96Z" fill="#412F2F"/>
<rect x="181" y="182.96" width="15" height="64" rx="7.5" fill="#281616"/>
</svg>
