<svg width="121" height="244" viewBox="0 0 121 244" fill="none" xmlns="http://www.w3.org/2000/svg">
<path fill-rule="evenodd" clip-rule="evenodd" d="M35.8635 71.1384C45.2856 67.7273 54.6942 66.0202 55.0583 72.6126C55.6679 83.6121 33.6153 85.6796 23.7283 85.2298C21.5049 82.8698 20.4989 80.7182 21.7745 77.6692C27.0078 74.3528 34.4845 71.6379 35.8635 71.1384Z" fill="#8FB575"/>
<rect x="22.9355" y="63.196" width="6.24442" height="14.1244" rx="2" transform="rotate(-5.95191 22.9355 63.196)" fill="black"/>
<path fill-rule="evenodd" clip-rule="evenodd" d="M48.4289 80.3482C59.3566 82.6818 61.7962 39.745 58.8605 37.3929C46.2964 27.3491 41.5246 78.8748 48.4289 80.3482Z" fill="#8FB575"/>
<path fill-rule="evenodd" clip-rule="evenodd" d="M57.5255 99.1383L52.7565 158.263L51.2469 176.868L46.0132 242.065L57.4653 243.795L76.4331 110.449C76.4331 110.449 62.7329 89.2822 57.5255 99.1383Z" fill="#281616"/>
<path fill-rule="evenodd" clip-rule="evenodd" d="M90.7285 103.009C92.6837 107.718 93.3417 111.442 92.5134 122.946L93.9558 139.065L95.0266 156.59L96.1916 175.624L100.264 242.322L88.4619 240.614L71.6668 101.72C71.6668 101.72 85.5783 91.6001 90.7285 103.009Z" fill="#6D6DF6"/>
<path fill-rule="evenodd" clip-rule="evenodd" d="M83.8499 93.9407L89.4718 97.1996C89.4718 97.1996 84.2031 121.707 76.5583 121.752C68.9135 121.797 62.5645 97.0506 62.5645 97.0506L83.8499 93.9407Z" fill="#6D6DF6"/>
<path fill-rule="evenodd" clip-rule="evenodd" d="M76.4155 12.8453C76.4155 12.8453 76.248 11.5348 75.1186 12.5068C74.9745 12.6322 74.881 12.5189 74.804 12.2483C74.7896 12.2098 74.7752 12.1713 74.7589 12.1279C71.3994 -0.676591 60.6545 22.5683 54.9451 14.2469C55.5949 16.0975 56.806 17.6972 58.4023 18.8138C62.996 22.1615 68.5789 22.0628 71.426 20.3324C74.2731 18.602 76.8 16.8211 76.4155 12.8453Z" fill="#281616"/>
<path fill-rule="evenodd" clip-rule="evenodd" d="M76.1271 16.5206C76.71 17.496 77.3367 18.3412 77.894 18.6589C79.5198 19.583 79.5919 15.4081 79.6241 13.8198C79.6563 12.2316 79.8002 9.85007 78.6434 9.94669C78.1566 10.0379 77.6868 10.2046 77.2513 10.4407C76.8205 8.787 77.0578 1.916 69.9973 4.11134C64.4109 5.84984 61.2378 9.96212 58.2674 8.05733C55.2969 6.15254 55.1771 11.5174 59.9176 15.1469C64.6582 18.7764 70.5149 19.2237 73.5407 17.855C74.4318 17.4687 75.2959 17.0228 76.1271 16.5206Z" fill="white"/>
<path fill-rule="evenodd" clip-rule="evenodd" d="M59.6828 14.1168C59.6828 14.1168 62.0692 20.0231 63.6847 21.0771C65.3002 22.1311 65.1929 17.6774 65.1563 15.9824C65.1197 14.2873 65.1577 11.7498 64.042 11.8027C62.9264 11.8556 59.6828 14.1168 59.6828 14.1168Z" fill="#281616"/>
<path fill-rule="evenodd" clip-rule="evenodd" d="M74.0425 20.4898L78.4036 22.1266L82.2781 41.3031L69.2409 44.9272L67.7789 27.9799L74.0425 20.4898Z" fill="#FFE1DA"/>
<path fill-rule="evenodd" clip-rule="evenodd" d="M71.5325 44.3022L69.2407 44.927L67.8772 28.3534L70.241 25.6653L70.6243 25.8078L71.5325 44.3022Z" fill="#FF8685"/>
<path fill-rule="evenodd" clip-rule="evenodd" d="M75.1246 20.3106L77.1444 21.2623C78.2639 27.6936 75.2207 35.8862 68.8075 36.8129L67.7173 27.3412L75.1246 20.3106Z" fill="#412F2F"/>
<path fill-rule="evenodd" clip-rule="evenodd" d="M61.0733 9.96317C61.5224 11.0157 61.5301 33.202 68.7445 32.6271C75.9589 32.0521 79.5161 22.1091 77.3718 15.3422C75.2276 8.57523 61.0733 9.96317 61.0733 9.96317Z" fill="#FFD3CA"/>
<path fill-rule="evenodd" clip-rule="evenodd" d="M72.0183 31.7296C77.0088 29.0134 79.1292 20.9031 77.2606 15.045C76.7944 13.5865 75.8096 12.4919 74.5447 11.6659C73.3432 12.0783 72.3692 12.44 72.3692 12.44C72.3692 12.44 74.6461 21.5492 73.1512 24.0033C72.0036 25.8703 72.0616 29.5026 72.0183 31.7296Z" fill="#FFE1DA"/>
<path fill-rule="evenodd" clip-rule="evenodd" d="M61.3543 9.85774C61.5305 10.2709 61.6528 13.953 62.1759 18.2217C66.315 20.1592 70.7226 20.052 73.2087 18.7862C74.9003 17.9204 76.484 17.0339 77.4785 15.7366C77.4322 15.5693 77.3859 15.4094 77.3396 15.2568C75.2063 8.54986 61.3543 9.85774 61.3543 9.85774Z" fill="#FF8685"/>
<path fill-rule="evenodd" clip-rule="evenodd" d="M61.0363 9.97689C61.4632 10.9788 61.4768 31.321 67.8399 32.3358C67.8244 32.2374 67.7779 32.1465 67.7073 32.0764C66.5092 30.7561 67.1608 29.5906 67.2517 28.7425C67.3502 28.0938 67.21 27.4302 66.8574 26.8758C66.5419 26.3179 66.9682 26.3736 66.937 25.9023C66.9059 25.4311 66.347 25.3285 66.3345 25.0242C66.322 24.7198 66.5018 24.0068 66.2831 23.6638C66.0643 23.3207 64.5949 23.5452 64.3548 23.0059C64.1147 22.4667 64.6424 12.5783 64.6617 12.0662L62.2165 9.90208C61.4798 9.93226 61.0363 9.97689 61.0363 9.97689Z" fill="#FF8685"/>
<path fill-rule="evenodd" clip-rule="evenodd" d="M78.9092 11.8347C78.9092 11.8347 78.7462 10.4986 77.5066 11.3504C76.3883 12.114 78.1773 1.69061 69.6136 4.32603C63.8534 6.10879 60.6021 10.4022 57.5164 8.38398C54.4307 6.36573 54.3488 11.9932 59.2717 15.8298C64.1946 19.6665 70.2501 20.1739 73.3671 18.7562C76.4842 17.3385 79.257 15.8415 78.9092 11.8347Z" fill="#412F2F"/>
<path fill-rule="evenodd" clip-rule="evenodd" d="M78.9194 11.8626C78.9194 11.8626 78.7622 10.5416 77.5208 11.3893C77.3617 11.4967 77.264 11.3784 77.1855 11.1008C77.1716 11.0638 77.1568 11.0243 77.155 10.9743C73.7919 -2.00739 61.6551 19.8317 55.666 11.0292C56.1368 12.5426 57.3004 14.3768 59.3039 15.919C64.2015 19.6952 70.2485 20.1716 73.3667 18.7565C76.4849 17.3415 79.2505 15.8247 78.9194 11.8626Z" fill="#281616"/>
<path fill-rule="evenodd" clip-rule="evenodd" d="M73.5405 12.7609C73.5405 12.7609 75.9528 18.6575 77.747 19.6446C79.5412 20.6317 79.6645 16.0917 79.7127 14.3649C79.7609 12.6381 79.9459 10.0455 78.6642 10.1606C77.3824 10.2757 73.5405 12.7609 73.5405 12.7609Z" fill="#281616"/>
<path fill-rule="evenodd" clip-rule="evenodd" d="M77.0992 18.0886C77.0992 18.0886 77.9335 15.4196 79.2052 15.8263C80.4768 16.233 80.0176 21.9873 78.5848 22.5653C77.152 23.1433 76.1346 21.5754 77.0992 18.0886Z" fill="#FFE1DA"/>
<path fill-rule="evenodd" clip-rule="evenodd" d="M96.6471 45.4175L81.302 36.5654C81.302 36.5654 71.5248 41.7095 68.6137 37.1164C66.8565 38.1609 56.442 34.0613 53.2135 36.3121C51.1862 37.7248 55.8362 45.1668 55.2356 47.0051C50.2998 61.9909 55.0704 94.9941 56.1325 104.452C56.5286 107.975 87.9242 108.471 90.7828 105.22C92.1073 103.71 88.9837 84.9148 91.706 74.0417C94.8663 61.4451 96.6471 45.4175 96.6471 45.4175Z" fill="#A3CF80"/>
<path fill-rule="evenodd" clip-rule="evenodd" d="M82.5419 106.501C86.6414 106.17 90.8345 105.417 91.6403 104.483C91.9263 102.588 88.8302 84.3987 91.5285 73.5726C93.2962 66.4826 95.745 58.9168 97.5439 53.6779L94.5804 51.7748C94.5804 51.7748 82.1026 68.0347 81.5437 80.179C80.9848 92.3233 82.2066 102.471 82.5419 106.501Z" fill="#8FB575"/>
<path fill-rule="evenodd" clip-rule="evenodd" d="M76.87 12.0908C76.8621 12.1158 74.5676 20.8371 63.4003 15.7973L63.2778 16.0469C74.7573 21.2288 77.1387 12.1858 77.1466 12.1608L76.87 12.0908Z" fill="#412F2F"/>
<path fill-rule="evenodd" clip-rule="evenodd" d="M80.0364 9.6466C80.0364 9.6466 77.3393 7.97732 76.8681 11.417L77.1974 11.5904C77.6206 8.56277 79.9601 10.0249 79.9643 10.0278L80.0364 9.6466Z" fill="#281616"/>
<path fill-rule="evenodd" clip-rule="evenodd" d="M78.8584 9.05795C78.8584 9.05795 76.298 9.8163 76.9654 11.6773L77.2642 11.5654C76.6774 9.92831 78.9083 9.26857 78.9139 9.26646L78.8584 9.05795Z" fill="#281616"/>
<path fill-rule="evenodd" clip-rule="evenodd" d="M77.4111 23.128C77.4123 23.1168 77.4109 23.1057 77.4071 23.0953C77.4033 23.085 77.3972 23.0756 77.3891 23.0678C77.3809 23.06 77.371 23.0539 77.3599 23.05C77.3488 23.046 77.3367 23.0443 77.3245 23.0448C77.3002 23.0449 77.2762 23.0537 77.2576 23.0694C77.2391 23.0851 77.2275 23.1064 77.2254 23.1286C77.0791 24.5429 76.5817 25.9334 75.7715 27.1933C74.9612 28.4533 73.8596 29.5493 72.5511 30.3973C72.5409 30.4037 72.532 30.4118 72.5251 30.4212C72.5182 30.4306 72.5134 30.4411 72.5109 30.4519C72.5085 30.4627 72.5085 30.4737 72.5109 30.4842C72.5133 30.4947 72.5181 30.5045 72.525 30.5129C72.5314 30.5221 72.5398 30.5298 72.5498 30.5357C72.5597 30.5416 72.5711 30.5456 72.5831 30.5472C72.5951 30.5489 72.6076 30.5484 72.6197 30.5456C72.6319 30.5428 72.6435 30.5379 72.6539 30.5311C73.986 29.6671 75.1073 28.5507 75.9319 27.2674C76.7565 25.9842 77.2625 24.5682 77.4111 23.128Z" fill="white"/>
<path fill-rule="evenodd" clip-rule="evenodd" d="M79.8555 17.3011C78.7192 18.648 78.1345 19.7375 77.8951 20.5048C77.3356 22.2841 78.603 22.3428 79.0795 19.9088L78.7892 19.8996C78.4566 21.8162 77.7365 21.7858 78.1782 20.4766C78.5957 19.398 79.239 18.3642 80.0751 17.4278L79.8555 17.3011Z" fill="#FF8685"/>
<path fill-rule="evenodd" clip-rule="evenodd" d="M73.5003 21.755C73.2156 21.7609 72.9263 21.8151 72.6496 21.9144C72.373 22.0138 72.1145 22.1562 71.8897 22.3333C71.6648 22.5103 71.4781 22.7185 71.3405 22.9453C71.2029 23.1722 71.1174 23.4132 71.0888 23.654C71.0344 24.1464 71.2103 24.6077 71.5793 24.9396C71.9482 25.2716 72.481 25.448 73.0641 25.4312C73.3491 25.4253 73.6386 25.371 73.9155 25.2717C74.1924 25.1723 74.451 25.0298 74.6761 24.8527C74.9012 24.6755 75.0882 24.4673 75.226 24.2403C75.3638 24.0133 75.4497 23.7722 75.4785 23.5312C75.5327 23.0386 75.3562 22.5772 74.9867 22.2454C74.6172 21.9136 74.0838 21.7377 73.5003 21.755Z" fill="#FF8685"/>
<path fill-rule="evenodd" clip-rule="evenodd" d="M93.1737 71.8143C93.4795 83.351 96.3856 88.0879 102.506 87.6306C114.889 86.7081 100.288 46.8362 97.1958 44.1339C94.5118 41.7954 91.6526 42.4995 90.7588 46.5608C89.1306 53.9531 93.1214 69.8681 93.1737 71.8143Z" fill="#A3CF80"/>
<path fill-rule="evenodd" clip-rule="evenodd" d="M101.525 242.586H88.1069C87.6992 236.788 90.826 234.824 94.3472 235.554C97.8685 236.284 100.124 238.669 101.525 242.586Z" fill="#281616"/>
<path fill-rule="evenodd" clip-rule="evenodd" d="M51.1473 233.41C50.1047 233.575 29.2024 239.842 28.503 242.893L55.4064 243.353C55.4064 243.353 54.5909 236.633 51.1473 233.41Z" fill="#281616"/>
<path fill-rule="evenodd" clip-rule="evenodd" d="M80.5831 110.444L91.9258 120.541L92.3734 120.016L81.0308 109.921L80.5831 110.444Z" fill="black"/>
<path fill-rule="evenodd" clip-rule="evenodd" d="M83.7121 37.4205C83.6793 37.4431 72.1901 46.0441 66.6937 37.4205L66.1519 37.762C72.0212 46.973 84.0447 37.9578 84.0901 37.9327L83.7121 37.4205Z" fill="#8FB575"/>
<path fill-rule="evenodd" clip-rule="evenodd" d="M93.9889 129.091L97.3662 232.838L98.0099 232.849L94.6327 129.102L93.9889 129.091Z" fill="white"/>
<path fill-rule="evenodd" clip-rule="evenodd" d="M92.5366 43.7004C92.5366 43.7162 87.7231 48.9604 92.4411 68.8205L93.0594 68.6606C88.4269 49.1519 92.994 44.1646 93.0066 44.1488L92.5366 43.7004Z" fill="#8FB575"/>
<path fill-rule="evenodd" clip-rule="evenodd" d="M103.598 98.2795C107.876 89.2195 110.462 79.9904 103.919 79.0088C93.041 77.3567 88.9177 99.1367 88.4382 109.042C90.5782 111.481 92.6252 112.696 95.7721 111.708C99.5722 106.799 102.974 99.604 103.598 98.2795Z" fill="#A3CF80"/>
<path fill-rule="evenodd" clip-rule="evenodd" d="M94.4652 113.632C95.5005 112.268 94.8824 110.092 93.0872 108.779C91.292 107.466 88.9947 107.496 87.9605 108.862C86.9264 110.229 87.5433 112.402 89.3385 113.715C91.1337 115.029 93.431 114.998 94.4652 113.632Z" fill="#281616"/>
<path fill-rule="evenodd" clip-rule="evenodd" d="M85.8414 113.534C85.8414 113.534 85.6096 111.902 87.6399 110.208C89.4811 108.669 94.6042 111.483 94.1374 113.79C93.6246 116.319 91.2659 118.508 91.2659 118.508L85.8414 113.534Z" fill="#FF8685"/>
<path fill-rule="evenodd" clip-rule="evenodd" d="M69.8575 24.7338C69.8575 24.7338 67.4222 25.6785 65.9181 25.1791L65.836 25.4383C67.4366 25.9676 69.9511 24.9988 69.9584 24.9961L69.8575 24.7338Z" fill="#FF8685"/>
<path fill-rule="evenodd" clip-rule="evenodd" d="M69.5437 24.6892C69.5437 24.6892 69.8876 24.8716 69.7999 25.1603L70.068 25.2361C70.1976 24.75 69.6549 24.4412 69.654 24.4388L69.5437 24.6892Z" fill="#FF8685"/>
<path fill-rule="evenodd" clip-rule="evenodd" d="M69.0218 19.6768C68.96 19.6832 68.9 19.7019 68.8455 19.7319C68.7909 19.7619 68.743 19.8025 68.7045 19.8513C68.6659 19.9001 68.6376 19.9562 68.6212 20.0161C68.6047 20.0761 68.6005 20.1387 68.6087 20.2003C68.626 20.3257 68.6911 20.4396 68.7903 20.5183C68.8895 20.597 69.0153 20.6345 69.1416 20.6229C69.2034 20.6165 69.2634 20.5978 69.3179 20.5678C69.3724 20.5378 69.4204 20.4972 69.4589 20.4484C69.4975 20.3996 69.5258 20.3435 69.5423 20.2836C69.5587 20.2236 69.5629 20.161 69.5547 20.0994C69.5386 19.9734 69.4739 19.8587 69.3743 19.7798C69.2748 19.7008 69.1483 19.6639 69.0218 19.6768Z" fill="#281616"/>
<path fill-rule="evenodd" clip-rule="evenodd" d="M70.9199 19.3875L68.3125 19.681L68.3694 20.1276L70.9776 19.8366L70.9199 19.3875Z" fill="#281616"/>
<path fill-rule="evenodd" clip-rule="evenodd" d="M64.138 20.14L61.8758 20.1996L61.8871 20.6496L64.1493 20.5899L64.138 20.14Z" fill="#281616"/>
<path fill-rule="evenodd" clip-rule="evenodd" d="M63.238 20.2457C63.1759 20.2459 63.1145 20.2586 63.0574 20.2829C63.0003 20.3073 62.9486 20.3428 62.9054 20.3875C62.8623 20.4321 62.8285 20.4849 62.8061 20.5428C62.7837 20.6007 62.7732 20.6625 62.7751 20.7245C62.7806 20.8513 62.835 20.9711 62.9268 21.0588C63.0187 21.1465 63.1409 21.1953 63.268 21.195C63.3302 21.1946 63.3918 21.1818 63.449 21.1573C63.5062 21.1327 63.5578 21.0969 63.6009 21.052C63.644 21.0071 63.6777 20.9541 63.6998 20.896C63.722 20.8379 63.7323 20.7759 63.7301 20.7138C63.7252 20.5871 63.6711 20.4673 63.5792 20.3799C63.4873 20.2924 63.3649 20.2443 63.238 20.2457Z" fill="#281616"/>
<path fill-rule="evenodd" clip-rule="evenodd" d="M27.3118 74.5411C27.3118 74.1382 28.9195 68.5759 28.9195 68.5759C28.9195 68.5759 34.1769 70.6861 34.4261 71.3075C34.6753 71.929 33.4829 79.1234 33.0295 79.8711C32.5761 80.6189 29.4594 81.6842 29.4594 81.6842L27.3118 74.5411Z" fill="#FFE1DA"/>
<path fill-rule="evenodd" clip-rule="evenodd" d="M29.3633 68.6394C29.3412 68.6205 29.3182 68.6045 29.2945 68.5918C28.5359 68.1496 21.8225 77.0955 21.8225 77.0955C20.5323 83.5958 22.2518 84.8952 22.923 85.2591L29.9448 81.6944C32.3605 75.5649 29.3633 68.6394 29.3633 68.6394Z" fill="#FF8685"/>
<path d="M21.3062 62.9082L20.6061 63.0766L20.3465 61.9974C19.6112 62.1331 18.9969 62.0306 18.5035 61.6899C18.0101 61.3492 17.6871 60.8612 17.5343 60.226L18.9343 59.8892C19.0032 60.1469 19.1315 60.3526 19.3193 60.5063C19.5121 60.6519 19.7508 60.7179 20.0355 60.7043L19.6192 58.9736L19.0688 58.9517C18.5225 58.9323 18.0751 58.7828 17.7267 58.5032C17.3832 58.2155 17.153 57.8286 17.0361 57.3425C16.9051 56.798 16.9897 56.2943 17.2897 55.8313C17.5897 55.3683 18.0342 55.0351 18.6229 54.8318L18.361 53.7428L19.061 53.5744L19.323 54.6634C19.9834 54.5868 20.545 54.7123 21.0077 55.0398C21.4705 55.3673 21.7759 55.839 21.924 56.4548L20.524 56.7915C20.391 56.2955 20.0966 56.0269 19.641 55.9857L20.0199 57.5607L20.3085 57.5633C21.5726 57.6021 22.338 58.1757 22.6046 59.2841C22.734 59.822 22.6584 60.3202 22.3778 60.7785C22.0957 61.2304 21.6504 61.5741 21.0419 61.8096L21.3062 62.9082ZM18.4342 56.9548C18.4498 57.0196 18.4671 57.0772 18.486 57.1275C18.505 57.1778 18.5329 57.2225 18.5697 57.2616C18.613 57.2992 18.6443 57.3294 18.6635 57.3522C18.6892 57.3734 18.7318 57.394 18.7915 57.414C18.8511 57.4339 18.8923 57.448 18.9148 57.4563C18.9439 57.463 19.002 57.4765 19.0891 57.4967C19.1827 57.5153 19.244 57.528 19.2731 57.5347L18.9316 56.1152C18.745 56.1944 18.6049 56.3103 18.5114 56.4631C18.4178 56.6159 18.3921 56.7798 18.4342 56.9548ZM21.1656 59.6302C21.0783 59.2672 20.8118 59.057 20.366 58.9997L20.7309 60.5164C21.1127 60.308 21.2576 60.0126 21.1656 59.6302Z" fill="#6D6DF6"/>
<path d="M27.6696 55.5311L26.9546 55.4466L27.0848 54.3443C26.348 54.217 25.8072 53.908 25.4623 53.4175C25.1175 52.927 24.9834 52.3573 25.0601 51.7085L26.4902 51.8775C26.4655 52.1431 26.5146 52.3805 26.6376 52.5897C26.768 52.7931 26.9691 52.9377 27.2409 53.0235L27.4497 51.2558L26.941 51.0446C26.4352 50.8372 26.0673 50.542 25.8373 50.159C25.6147 49.7702 25.5328 49.3275 25.5915 48.831C25.6572 48.2748 25.9109 47.8316 26.3528 47.5011C26.7946 47.1707 27.3269 47.012 27.9496 47.0252L28.0811 45.913L28.7961 45.9974L28.6647 47.1097C29.3107 47.2666 29.7941 47.5788 30.1148 48.0463C30.4355 48.5139 30.5586 49.0621 30.4843 49.6911L29.0543 49.5221C29.1013 49.0107 28.9182 48.6568 28.5051 48.4603L28.315 50.0691L28.5848 50.1715C29.7573 50.6457 30.2766 51.4488 30.1429 52.581C30.0779 53.1305 29.8345 53.5716 29.4125 53.9044C28.9913 54.2306 28.4545 54.3987 27.8022 54.4089L27.6696 55.5311ZM27.0373 48.9515C27.0295 49.0177 27.0257 49.0776 27.0261 49.1314C27.0265 49.1851 27.0372 49.2368 27.0582 49.2862C27.0858 49.3365 27.1047 49.3756 27.1148 49.4037C27.1315 49.4325 27.1644 49.4666 27.2134 49.506C27.2625 49.5453 27.2962 49.5728 27.3145 49.5884C27.3394 49.6048 27.3892 49.6375 27.464 49.6866C27.5454 49.7365 27.5985 49.7696 27.6234 49.786L27.7947 48.3361C27.5922 48.3457 27.4206 48.406 27.28 48.5169C27.1393 48.6279 27.0584 48.7727 27.0373 48.9515ZM28.6731 52.4073C28.7169 52.0365 28.5396 51.7471 28.1413 51.5389L27.9582 53.0881C28.3886 53.0248 28.6269 52.7979 28.6731 52.4073Z" fill="#6D6DF6"/>
<path d="M11.7529 52.1379L10.7419 52.5177L10.1565 50.959C9.08688 51.2967 8.15345 51.2574 7.35618 50.8412C6.5589 50.4249 5.98796 49.7581 5.64336 48.8407L7.66542 48.0812C7.81544 48.4521 8.04441 48.7346 8.35233 48.9288C8.6661 49.11 9.03364 49.1642 9.45495 49.0914L8.51609 46.5919L7.69274 46.6609C6.87583 46.7327 6.18229 46.5926 5.61211 46.2406C5.04777 45.8758 4.63374 45.3423 4.37002 44.6402C4.07465 43.8538 4.10759 43.0884 4.46884 42.3438C4.8301 41.5992 5.4302 41.0213 6.26916 40.61L5.67842 39.0373L6.68945 38.6575L7.28019 40.2303C8.24917 39.9945 9.10829 40.0777 9.85758 40.4799C10.6069 40.8821 11.1485 41.5279 11.4826 42.4172L9.46051 43.1768C9.17104 42.463 8.68337 42.1174 7.99752 42.14L8.85199 44.4148L9.28209 44.3654C11.171 44.19 12.4162 44.9027 13.0174 46.5035C13.3093 47.2805 13.2886 48.036 12.9555 48.77C12.6188 49.4947 12.0193 50.0884 11.1569 50.5512L11.7529 52.1379ZM6.37975 43.8052C6.41491 43.8988 6.45124 43.9813 6.48873 44.0527C6.52622 44.124 6.576 44.1855 6.63806 44.2369C6.70948 44.2849 6.76158 44.3241 6.79437 44.3545C6.83652 44.3814 6.90383 44.4042 6.9963 44.4228C7.08878 44.4415 7.15257 44.4549 7.18769 44.4631C7.23217 44.4678 7.32112 44.4771 7.45456 44.491C7.59735 44.5015 7.69099 44.5091 7.73547 44.5137L6.9654 42.4636C6.70214 42.6159 6.51498 42.8144 6.40392 43.059C6.29286 43.3037 6.28481 43.5524 6.37975 43.8052ZM10.9392 47.2841C10.7423 46.7599 10.3068 46.4962 9.63261 46.493L10.4554 48.6836C10.9854 48.3029 11.1467 47.8364 10.9392 47.2841Z" fill="#6D6DF6"/>
<path d="M29.1976 43.7093L28.2681 43.5995L28.4374 42.1664C27.4796 42.0009 26.7765 41.5993 26.3282 40.9616C25.88 40.3239 25.7057 39.5834 25.8053 38.7399L27.6644 38.9596C27.6323 39.3048 27.6962 39.6135 27.8561 39.8854C28.0256 40.1498 28.287 40.3378 28.6403 40.4494L28.9119 38.1514L28.2505 37.8769C27.5929 37.6072 27.1147 37.2234 26.8157 36.7255C26.5263 36.2201 26.4198 35.6446 26.4961 34.9991C26.5815 34.2761 26.9114 33.6999 27.4858 33.2703C28.0602 32.8407 28.7521 32.6345 29.5617 32.6516L29.7326 31.2057L30.6621 31.3155L30.4913 32.7615C31.3311 32.9654 31.9595 33.3713 32.3764 33.9791C32.7933 34.5869 32.9534 35.2996 32.8568 36.1172L30.9978 35.8976C31.0588 35.2328 30.8209 34.7727 30.2838 34.5172L30.0367 36.6087L30.3875 36.7418C31.9117 37.3582 32.5868 38.4023 32.4129 39.8741C32.3285 40.5885 32.012 41.1619 31.4635 41.5946C30.9159 42.0186 30.2181 42.2372 29.37 42.2504L29.1976 43.7093ZM28.3757 35.1557C28.3655 35.2418 28.3607 35.3198 28.3611 35.3897C28.3616 35.4595 28.3755 35.5266 28.4028 35.5909C28.4387 35.6563 28.4633 35.7072 28.4764 35.7436C28.4981 35.7811 28.5409 35.8254 28.6047 35.8766C28.6684 35.9278 28.7122 35.9635 28.736 35.9837C28.7684 36.005 28.8332 36.0476 28.9304 36.1114C29.0362 36.1763 29.1052 36.2194 29.1376 36.2407L29.3604 34.3558C29.0971 34.3683 28.874 34.4467 28.6912 34.5909C28.5083 34.7351 28.4031 34.9234 28.3757 35.1557ZM30.5022 39.6483C30.5591 39.1663 30.3287 38.79 29.8109 38.5194L29.5729 40.5334C30.1324 40.4511 30.4422 40.1561 30.5022 39.6483Z" fill="#6D6DF6"/>
<path d="M19.8299 50.5513L19.2584 50.6236L19.1469 49.7427C18.5502 49.786 18.0708 49.6505 17.7084 49.3361C17.346 49.0218 17.132 48.6054 17.0664 48.0869L18.2093 47.9422C18.2413 48.1532 18.3253 48.328 18.4611 48.4667C18.6016 48.5994 18.7856 48.6729 19.0132 48.6871L18.8343 47.2744L18.3986 47.2086C17.9659 47.1451 17.6233 46.9869 17.3708 46.7339C17.123 46.475 16.974 46.1472 16.9237 45.7503C16.8674 45.3059 16.9789 44.9127 17.2582 44.571C17.5375 44.2292 17.9201 44.0033 18.4062 43.8934L18.2936 43.0045L18.865 42.9321L18.9776 43.821C19.5095 43.8182 19.945 43.9673 20.2842 44.2684C20.6233 44.5695 20.8248 44.9714 20.8884 45.4741L19.7455 45.6188C19.6834 45.2127 19.4729 44.9732 19.1143 44.9004L19.2771 46.1861L19.5064 46.2135C20.5081 46.3555 21.0663 46.8788 21.1809 47.7836C21.2365 48.2228 21.1326 48.6122 20.8692 48.952C20.6051 49.2865 20.2208 49.5206 19.7163 49.6544L19.8299 50.5513ZM18.0695 45.5649C18.0762 45.6178 18.0849 45.6651 18.0955 45.7068C18.1062 45.7484 18.1244 45.7864 18.1503 45.8208C18.1814 45.8545 18.2036 45.8812 18.2169 45.9011C18.2354 45.9202 18.2676 45.9403 18.3132 45.9614C18.3589 45.9825 18.3904 45.9974 18.4076 46.0059C18.4301 46.0138 18.4751 46.0296 18.5426 46.0533C18.6154 46.0764 18.6631 46.0918 18.6856 46.0998L18.5388 44.941C18.3834 44.9876 18.2619 45.0675 18.1741 45.1807C18.0863 45.294 18.0514 45.422 18.0695 45.5649ZM20.0063 47.9324C19.9687 47.6361 19.7753 47.4455 19.4258 47.3607L19.5826 48.5989C19.9046 48.4667 20.0458 48.2445 20.0063 47.9324Z" fill="#6D6DF6"/>
<path d="M30.1239 61.0915L29.6161 60.8197L30.0351 60.0367C29.5236 59.7267 29.211 59.3386 29.0975 58.8726C28.984 58.4065 29.0505 57.9431 29.2971 57.4823L30.3128 58.0258C30.2169 58.2165 30.1841 58.4076 30.2146 58.5994C30.2523 58.7889 30.3598 58.9553 30.5372 59.0986L31.2091 57.8431L30.8919 57.5373C30.5758 57.235 30.388 56.9077 30.3286 56.5553C30.2764 56.2007 30.3447 55.8471 30.5334 55.4944C30.7448 55.0994 31.0633 54.8434 31.4889 54.7264C31.9145 54.6093 32.3572 54.6467 32.8172 54.8384L33.24 54.0484L33.7478 54.3202L33.325 55.1102C33.7604 55.4157 34.0292 55.7895 34.1314 56.2313C34.2337 56.6732 34.1653 57.1175 33.9262 57.5642L32.9105 57.0206C33.0949 56.6535 33.0619 56.3365 32.8117 56.0694L32.2001 57.2121L32.3712 57.3672C33.1059 58.0628 33.2581 58.8127 32.8277 59.6168C32.6188 60.0071 32.3087 60.2645 31.8972 60.3891C31.4882 60.509 31.0393 60.4774 30.5505 60.2944L30.1239 61.0915ZM31.575 56.0065C31.5499 56.0535 31.5296 56.0971 31.5141 56.1372C31.4987 56.1774 31.4916 56.2189 31.4928 56.2619C31.4987 56.3074 31.5013 56.3421 31.5006 56.3659C31.5047 56.3923 31.5192 56.4273 31.5442 56.4709C31.5693 56.5146 31.5863 56.5449 31.5954 56.5618C31.6092 56.5813 31.6367 56.6202 31.6781 56.6786C31.7241 56.7396 31.754 56.7798 31.7678 56.7992L32.3189 55.7694C32.1653 55.7175 32.0199 55.7122 31.8827 55.7538C31.7455 55.7953 31.643 55.8795 31.575 56.0065ZM31.7838 59.0581C31.9247 58.7948 31.8773 58.5274 31.6414 58.256L31.0526 59.3563C31.3916 59.4349 31.6353 59.3355 31.7838 59.0581Z" fill="#6D6DF6"/>
</svg>
