<svg width="189" height="255" viewBox="0 0 189 255" fill="none" xmlns="http://www.w3.org/2000/svg">
<path fill-rule="evenodd" clip-rule="evenodd" d="M134.924 95.85L139.013 156.127L140.291 175.095L144.837 241.559H156.368L155.228 104.367C155.228 104.367 138.586 85.1309 134.924 95.85Z" fill="#281616"/>
<path fill-rule="evenodd" clip-rule="evenodd" d="M169.032 95.8513L174.42 138.661L176.613 156.125L178.996 175.093L187.343 241.559H175.127L149.22 104.358C149.22 104.358 163.042 85.1322 169.032 95.8513Z" fill="#6D6DF6"/>
<path fill-rule="evenodd" clip-rule="evenodd" d="M162.758 92.6008L168.282 95.8125C168.282 95.8125 161.369 119.964 153.578 120.009C145.788 120.054 140.88 95.6736 140.88 95.6736L162.758 92.6008Z" fill="#6D6DF6"/>
<path fill-rule="evenodd" clip-rule="evenodd" d="M188.535 241.559H174.238C174.32 235.783 177.827 233.827 181.515 234.554C185.203 235.281 187.392 237.656 188.535 241.559Z" fill="#281616"/>
<path fill-rule="evenodd" clip-rule="evenodd" d="M148.287 232.026C147.228 232.202 126.054 238.6 125.393 241.559H152.794C152.794 241.559 151.849 235.081 148.287 232.026Z" fill="#281616"/>
<path d="M162.129 110.017L161.677 110.521L172.806 120.477L173.258 119.973L162.129 110.017Z" fill="black"/>
<path fill-rule="evenodd" clip-rule="evenodd" d="M173.047 128.411L180.781 232.025L181.387 231.965L173.653 128.351L173.047 128.411Z" fill="white"/>
<path fill-rule="evenodd" clip-rule="evenodd" d="M161.105 12.0301C161.105 12.0301 161.419 10.7159 159.966 11.2416C159.78 11.3099 159.73 11.168 159.754 10.8815C159.754 10.8395 159.754 10.7974 159.754 10.7501C161.147 -2.70643 142.219 15.6886 139.691 5.68025C139.65 7.68391 140.246 9.64861 141.394 11.2889C144.647 16.138 150.118 18.0435 153.52 17.4074C156.922 16.7714 160.031 15.9724 161.105 12.0301Z" fill="#281616"/>
<path fill-rule="evenodd" clip-rule="evenodd" d="M155.335 17.526L159.266 19.9033L159.942 39.8806L146.837 41.3592L148.126 24.0317L155.335 17.526Z" fill="#FFE1DA"/>
<path fill-rule="evenodd" clip-rule="evenodd" d="M148.72 41.1141L146.837 41.3593L147.92 24.5861L150.128 22.2927L150.411 22.4983L148.72 41.1141Z" fill="#FF8685"/>
<path fill-rule="evenodd" clip-rule="evenodd" d="M156.716 17.526L158.75 18.8146C158.811 25.4452 154.008 33.1506 146.837 33.0159L147.357 23.3433L156.716 17.526Z" fill="#412F2F"/>
<path fill-rule="evenodd" clip-rule="evenodd" d="M147.095 4.41785C147.15 5.5989 139.005 27.0686 146.302 29.1253C153.598 31.182 160.745 22.8498 161.126 15.5257C161.507 8.20153 147.095 4.41785 147.095 4.41785Z" fill="#FFD3CA"/>
<path fill-rule="evenodd" clip-rule="evenodd" d="M147.379 4.41785C147.434 5.5295 139.333 25.0006 145.714 28.2511C145.736 28.1514 145.723 28.0477 145.676 27.9554C144.925 26.2628 146.085 25.3809 146.52 24.6019C146.884 24.0164 146.999 23.3311 146.844 22.6743C146.73 22.0274 147.163 22.2334 147.318 21.7713C147.472 21.3092 146.917 21.0108 147.025 20.7151C147.134 20.4193 147.61 19.8015 147.513 19.3948C147.417 18.9882 145.76 18.6766 145.72 18.0746C145.679 17.4725 150.186 8.19905 150.411 7.71584L148.667 4.76903C147.87 4.53403 147.379 4.41785 147.379 4.41785Z" fill="#FF8685"/>
<path fill-rule="evenodd" clip-rule="evenodd" d="M163.488 12.8212C163.488 12.8212 163.802 11.4694 162.348 11.8446C161.038 12.1784 166.346 2.74092 157.436 2.18919C151.439 1.8278 146.907 4.80443 144.732 1.734C142.558 -1.33642 140.517 4.07889 143.771 9.57421C147.025 15.0695 152.497 17.7537 155.901 17.511C159.304 17.2682 162.413 16.8241 163.488 12.8212Z" fill="#412F2F"/>
<path fill-rule="evenodd" clip-rule="evenodd" d="M163.488 12.7183C163.488 12.7183 163.802 11.3451 162.348 11.7262C162.162 11.7738 162.112 11.6197 162.136 11.3142C162.136 11.2722 162.136 11.2273 162.151 11.1769C163.545 -2.99557 144.598 14.2177 142.083 3.22607C141.994 4.9076 142.439 7.16646 143.77 9.44773C147.021 15.0304 152.497 17.7573 155.9 17.5106C159.304 17.264 162.413 16.7848 163.488 12.7183Z" fill="#281616"/>
<path fill-rule="evenodd" clip-rule="evenodd" d="M158.751 12.2291C158.751 12.2291 158.934 18.1503 160.2 19.5947C161.466 21.0391 163.085 17.1258 163.702 15.6379C164.319 14.1499 165.345 11.9525 164.168 11.6349C162.991 11.3173 158.751 12.2291 158.751 12.2291Z" fill="#281616"/>
<path fill-rule="evenodd" clip-rule="evenodd" d="M160.309 18.1172C160.309 18.1172 162.133 15.6042 163.247 16.5455C164.361 17.4868 161.762 23.4393 160.12 23.4837C158.479 23.5281 158.05 21.4502 160.309 18.1172Z" fill="#FFE1DA"/>
<path fill-rule="evenodd" clip-rule="evenodd" d="M160.919 11.7054C160.905 11.7273 156.152 19.5521 148.213 10.3761L148.029 10.5789C156.188 20.0126 161.119 11.9 161.134 11.878L160.919 11.7054Z" fill="#412F2F"/>
<path fill-rule="evenodd" clip-rule="evenodd" d="M165.899 11.0197C165.899 11.0197 163.965 9.3533 162.325 11.3833L162.572 11.5678C164.023 9.78298 165.696 11.2373 165.699 11.24L165.899 11.0197Z" fill="#281616"/>
<path fill-rule="evenodd" clip-rule="evenodd" d="M164.708 9.19077C164.708 9.19077 162.349 8.94188 162.325 11.5678H162.607C162.629 9.25789 164.684 9.47601 164.689 9.47601L164.708 9.19077Z" fill="#281616"/>
<path fill-rule="evenodd" clip-rule="evenodd" d="M150.409 22.0238C150.409 22.0238 148.085 22.0534 146.987 21.1011L146.837 21.3058C148.006 22.3174 150.404 22.2927 150.411 22.2927L150.409 22.0238Z" fill="#FF8685"/>
<path fill-rule="evenodd" clip-rule="evenodd" d="M162.218 17.526C161.198 18.6724 160.58 19.7555 160.253 20.5987C159.491 22.5516 160.265 23.2147 161.128 20.4087L160.95 20.2621C160.297 22.4916 159.856 22.1183 160.435 20.6953C160.946 19.548 161.587 18.5614 162.325 17.7859L162.218 17.526Z" fill="#FF8685"/>
<path fill-rule="evenodd" clip-rule="evenodd" d="M154.886 20.0581C154.6 19.9641 154.292 19.9136 153.98 19.9097C153.667 19.9057 153.357 19.9483 153.067 20.035C152.778 20.1217 152.514 20.2507 152.293 20.4143C152.071 20.5779 151.897 20.7729 151.779 20.9876C151.541 21.428 151.544 21.9198 151.788 22.3584C152.032 22.797 152.496 23.1476 153.083 23.3357C153.368 23.4297 153.677 23.4802 153.989 23.4842C154.302 23.4881 154.612 23.4455 154.902 23.3589C155.192 23.2722 155.456 23.1432 155.678 22.9796C155.899 22.8159 156.074 22.6209 156.193 22.4061C156.43 21.9654 156.426 21.4733 156.182 21.0347C155.938 20.5961 155.473 20.2457 154.886 20.0581Z" fill="#FF8685"/>
<path fill-rule="evenodd" clip-rule="evenodd" d="M153.985 17.0398L150.551 16.3345L150.411 16.8179L153.846 17.5261L153.985 17.0398Z" fill="#281616"/>
<path fill-rule="evenodd" clip-rule="evenodd" d="M146.837 15.8984L144.608 15.1428L144.455 15.5788L146.684 16.3344L146.837 15.8984Z" fill="#281616"/>
<path fill-rule="evenodd" clip-rule="evenodd" d="M124.937 64.7804C120.829 75.9354 118.212 87.5582 123.925 89.8923C135.482 94.6292 142.377 46.1131 140.604 42.1348C136.259 32.3914 126.01 61.8569 124.937 64.7804Z" fill="#8FB575"/>
<path fill-rule="evenodd" clip-rule="evenodd" d="M114.792 83.5498C121.677 76.0134 129.352 70.0298 132.711 75.9092C138.314 85.6771 119.464 97.9062 110.371 102.134C107.29 101.017 105.389 99.5231 105.14 96.1397C108.318 90.6398 113.785 84.6508 114.792 83.5498Z" fill="#8FB575"/>
<path fill-rule="evenodd" clip-rule="evenodd" d="M175.43 43.1448L159.916 34.2094C159.916 34.2094 150.03 39.4019 147.093 34.7655C144.201 36.5052 135.163 39.9291 133.573 44.7474C128.581 59.8744 133.403 93.1885 134.479 102.735C134.88 106.291 166.612 106.792 169.502 103.51C170.843 101.987 167.686 83.0143 170.438 72.0387C173.611 59.3235 175.43 43.1448 175.43 43.1448Z" fill="#A3CF80"/>
<path fill-rule="evenodd" clip-rule="evenodd" d="M173.41 71.8375C173.709 83.4837 176.553 88.2655 182.544 87.8038C194.664 86.8727 180.37 46.6223 177.346 43.8943C174.717 41.5336 171.921 42.2444 171.046 46.3442C169.453 53.8067 173.359 69.8728 173.41 71.8375Z" fill="#A3CF80"/>
<path fill-rule="evenodd" clip-rule="evenodd" d="M104.208 97.5466C105.005 96.1618 107.406 95.7591 109.561 96.6482C111.716 97.5373 112.828 99.3784 112.028 100.763C111.228 102.148 108.831 102.551 106.676 101.662C104.521 100.773 103.408 98.9315 104.208 97.5466Z" fill="#281616"/>
<path fill-rule="evenodd" clip-rule="evenodd" d="M105.713 108.092C105.713 108.092 110.373 103.788 111.05 101.013C111.668 98.4941 105.927 94.9882 103.756 96.5724C101.376 98.3102 99.183 104.128 99.183 104.128L105.713 108.092Z" fill="#FF8685"/>
<path fill-rule="evenodd" clip-rule="evenodd" d="M99.6055 102.702L99.6425 102.639C99.7156 102.517 99.8113 102.411 99.9241 102.329C100.037 102.246 100.164 102.188 100.299 102.158C100.434 102.128 100.573 102.126 100.708 102.153C100.844 102.18 100.972 102.236 101.087 102.316C101.321 102.479 101.484 102.731 101.542 103.019C101.601 103.306 101.549 103.606 101.399 103.855L101.359 103.916L95.8044 112.435C95.766 112.5 95.7226 112.561 95.6748 112.618C95.5586 112.748 95.402 112.832 95.2326 112.853C95.0633 112.875 94.892 112.834 94.749 112.737C94.5925 112.626 94.4815 112.457 94.4379 112.265C94.3944 112.073 94.4214 111.87 94.5136 111.698L94.54 111.651L99.6055 102.702Z" fill="#FF8685"/>
<path fill-rule="evenodd" clip-rule="evenodd" d="M100.909 105.141L100.936 105.078C100.995 104.955 101.075 104.846 101.173 104.758C101.271 104.669 101.384 104.603 101.506 104.563C101.628 104.522 101.756 104.509 101.883 104.523C102.01 104.537 102.133 104.579 102.244 104.645C102.472 104.782 102.641 105.01 102.715 105.28C102.79 105.55 102.764 105.841 102.643 106.091L102.611 106.152L98.062 114.865C97.9763 115.033 97.8331 115.158 97.6634 115.212C97.4936 115.267 97.3109 115.247 97.1546 115.157C96.999 115.061 96.8832 114.904 96.8309 114.719C96.7786 114.533 96.7938 114.333 96.8733 114.159L100.909 105.141Z" fill="#FF8685"/>
<path fill-rule="evenodd" clip-rule="evenodd" d="M103.169 105.088L103.204 105.025C103.277 104.903 103.373 104.798 103.486 104.715C103.599 104.632 103.727 104.574 103.862 104.543C103.997 104.512 104.137 104.509 104.273 104.535C104.409 104.561 104.539 104.615 104.655 104.694C104.891 104.856 105.056 105.106 105.115 105.393C105.175 105.679 105.124 105.979 104.974 106.227L104.937 106.287L99.3314 114.902C99.2255 115.068 99.0607 115.185 98.8727 115.226C98.6847 115.267 98.4885 115.23 98.3268 115.123C98.1658 115.01 98.0525 114.837 98.01 114.64C97.9675 114.444 97.9991 114.237 98.0982 114.064L103.169 105.088Z" fill="#FF8685"/>
<path fill-rule="evenodd" clip-rule="evenodd" d="M104.917 107.372L104.938 107.322C104.985 107.227 105.05 107.143 105.127 107.076C105.204 107.008 105.293 106.959 105.387 106.93C105.482 106.901 105.581 106.894 105.679 106.908C105.776 106.922 105.87 106.958 105.955 107.013C106.127 107.127 106.253 107.31 106.305 107.525C106.357 107.74 106.331 107.969 106.233 108.163L106.207 108.213L102.527 114.961C102.457 115.09 102.345 115.184 102.214 115.223C102.083 115.262 101.944 115.242 101.826 115.169C101.708 115.089 101.622 114.963 101.586 114.815C101.549 114.668 101.563 114.511 101.627 114.375L104.917 107.372Z" fill="#FF8685"/>
<path fill-rule="evenodd" clip-rule="evenodd" d="M97.0116 101.862C96.8627 101.71 96.7874 101.512 96.8021 101.311C96.8168 101.11 96.9204 100.922 97.0903 100.788C97.1858 100.713 97.2998 100.659 97.4233 100.63C98.9732 99.9218 100.351 98.1563 100.593 97.837V97.8236C100.649 97.7522 100.714 97.6865 100.786 97.6277C100.904 97.536 101.042 97.466 101.19 97.4218C101.339 97.3776 101.496 97.3602 101.653 97.3704C101.809 97.3806 101.961 97.4184 102.101 97.4815C102.241 97.5446 102.365 97.6317 102.467 97.7378C102.644 97.9236 102.746 98.1566 102.756 98.3997C102.767 98.6429 102.685 98.8821 102.524 99.0793C101.01 101.059 97.8834 102.168 97.8532 102.114C97.7003 102.146 97.5403 102.14 97.3914 102.095C97.2426 102.05 97.1109 101.97 97.0116 101.862Z" fill="#FFE1DA"/>
<path fill-rule="evenodd" clip-rule="evenodd" d="M103.615 96.4299C103.696 96.3812 103.781 96.3395 103.87 96.3054C104.214 96.169 104.595 96.1393 104.958 96.2207C105.322 96.3021 105.647 96.4903 105.888 96.7578C106.201 97.0976 106.359 97.5392 106.327 97.9871C106.296 98.435 106.078 98.8533 105.72 99.1517C105.451 99.378 105.112 99.5188 104.753 99.5539C104.705 99.5573 104.658 99.5573 104.61 99.5539L101.726 99.7286C101.53 99.7672 101.327 99.7553 101.138 99.6941C100.949 99.633 100.781 99.525 100.652 99.3815C100.456 99.1666 100.357 98.8885 100.377 98.6063C100.396 98.3241 100.533 98.0602 100.757 97.871C100.79 97.8441 100.825 97.8194 100.861 97.7968C100.935 97.7481 101.015 97.7079 101.099 97.6771L103.615 96.4299Z" fill="#FFE1DA"/>
<path fill-rule="evenodd" clip-rule="evenodd" d="M165.648 71.9227C177.27 74.1372 188.449 77.962 187.255 84.4109C185.264 95.1722 156.857 84.5561 145.646 78.4131C146.253 76.152 147.159 72.8095 147.931 69.9649C154.73 69.8482 163.952 71.5986 165.648 71.9227Z" fill="#A3CF80"/>
<path fill-rule="evenodd" clip-rule="evenodd" d="M163.115 35.401C163.077 35.425 150.871 44.5648 145.03 35.401L144.455 35.7638C150.692 45.5519 163.468 35.9719 163.516 35.9452L163.115 35.401Z" fill="#8FB575"/>
<path fill-rule="evenodd" clip-rule="evenodd" d="M137.979 79.4925H141.999L144.455 60.4259H131.35L133.962 79.4925H137.979Z" fill="#F8CA7A"/>
<path fill-rule="evenodd" clip-rule="evenodd" d="M144.066 56.851L144.455 60.426H131.35L131.713 56.851H144.066Z" fill="#C57C62"/>
<path fill-rule="evenodd" clip-rule="evenodd" d="M29.7543 25.3263C29.2543 26.5107 28.6891 27.5623 28.1292 28.0138C26.4963 29.3415 25.866 24.7421 25.6134 22.9921C25.3608 21.2421 24.8998 18.6449 26.1603 18.5361C26.6929 18.5457 27.2205 18.6425 27.7229 18.8229C27.9834 16.9162 26.8088 9.37703 34.7208 10.4871C40.9712 11.3634 44.9533 15.3149 47.9118 12.6593C50.8704 10.0037 51.7037 15.9044 47.0654 20.7933C42.4271 25.6822 36.161 27.2649 32.7129 26.3142C31.7052 26.0559 30.7166 25.7258 29.7543 25.3263Z" fill="white"/>
<path fill-rule="evenodd" clip-rule="evenodd" d="M63.4423 134.82C63.4423 134.82 66.1856 137.845 68.7148 137.819C71.2439 137.794 74.1371 137.884 74.1371 137.884C74.1371 137.884 74.4823 133.198 72.724 133.12C70.9656 133.042 63.4423 134.82 63.4423 134.82Z" fill="#FF8685"/>
<path fill-rule="evenodd" clip-rule="evenodd" d="M22.235 85.3477C23.2578 98.138 20.9036 103.523 14.7515 103.32C2.30324 102.909 12.2718 58.0405 15.0418 54.9023C17.4483 52.1751 20.3779 52.8209 21.7381 57.272C24.2099 65.3763 22.0624 83.1915 22.235 85.3477Z" fill="#FCE8E8"/>
<path fill-rule="evenodd" clip-rule="evenodd" d="M9.22224 93.5971C14.7348 82.3958 53.826 117.631 55.7077 121.997C57.3456 125.803 55.5169 128.114 50.6722 126.777C38.4466 123.395 3.74151 104.733 9.22224 93.5971Z" fill="#FCE8E8"/>
<path fill-rule="evenodd" clip-rule="evenodd" d="M46.473 15.1428C46.1221 16.3756 49.1925 40.6674 41.1263 41.3502C39.0213 41.529 36.571 39.0283 34.9094 37.9581C30.2018 34.9236 28.1105 29.7597 29.1575 23.9942C30.5907 16.1967 46.473 15.1428 46.473 15.1428Z" fill="#FFE1DA"/>
<path fill-rule="evenodd" clip-rule="evenodd" d="M46.7633 30.765C46.6489 31.8552 46.4565 32.9385 46.1871 34.0092C46.0615 34.0814 45.9231 34.1362 45.777 34.1716C44.9568 34.3724 44.335 33.7498 44.3832 32.7842C44.4315 31.8186 45.1391 30.871 45.9593 30.6725C46.0929 30.6361 46.2346 30.6255 46.3738 30.6415C46.513 30.6575 46.6462 30.6997 46.7633 30.765Z" fill="#FF8685"/>
<path fill-rule="evenodd" clip-rule="evenodd" d="M42.4939 41.0508C42.1187 41.2141 41.7196 41.3151 41.3122 41.3499C39.1753 41.5327 36.6877 38.9761 35.0008 37.882C30.2217 34.7797 28.0986 29.5003 29.1615 23.6059C29.2711 23.008 29.4674 22.4294 29.7441 21.8886C34.8683 18.1409 44.0841 17.526 44.0841 17.526C43.8025 18.5259 45.6799 34.1149 42.4939 41.0508Z" fill="#FFD3CA"/>
<path fill-rule="evenodd" clip-rule="evenodd" d="M46.464 13.951C46.3129 14.4642 46.7289 18.7694 46.7634 23.833C42.0125 26.8951 36.6178 27.6363 33.3984 26.6499C31.1992 25.977 29.1272 25.2557 27.7017 23.9413C27.7308 23.7474 27.7626 23.5507 27.7997 23.3711C29.3551 15.1428 46.464 13.951 46.464 13.951Z" fill="#FF8685"/>
<path fill-rule="evenodd" clip-rule="evenodd" d="M28.6198 34.9185L27.7017 53.276L43.1893 50.9245L38.8706 30.6343L28.6198 34.9185Z" fill="#FF8685"/>
<path fill-rule="evenodd" clip-rule="evenodd" d="M26.5103 20.7518C26.5103 20.7518 26.5103 19.3831 27.8846 20.0332C29.1137 20.6147 25.9416 10.4268 35.0472 11.6736C41.1668 12.5116 45.0681 16.2902 47.9622 13.7508C50.8563 11.2115 51.6773 16.8539 47.136 21.5288C42.5947 26.2038 36.4598 27.7172 33.0838 26.8082C29.7078 25.8991 26.676 24.8452 26.5103 20.7518Z" fill="#412F2F"/>
<path fill-rule="evenodd" clip-rule="evenodd" d="M44.3806 24.7446C44.3806 24.7446 37.0782 35.3673 33.9058 36.4788C30.7334 37.5903 31.2692 30.2788 30.7228 27.0272C30.1764 23.7756 29.1658 18.9436 31.935 18.7233C34.7042 18.5031 44.3806 24.7446 44.3806 24.7446Z" fill="#FF8685"/>
<path fill-rule="evenodd" clip-rule="evenodd" d="M26.5103 20.4614C26.5103 20.4614 26.5103 19.0279 27.8903 19.7087C28.067 19.7965 28.1463 19.6502 28.1976 19.3444V19.3284C28.1976 19.2859 28.1976 19.238 28.2129 19.1901C30.0052 4.75962 45.2882 25.8602 50.3374 15.4163C50.048 17.1024 49.0828 19.2726 47.2188 21.2672C42.6613 26.1634 36.4984 27.7485 33.1084 26.7964C29.7184 25.8442 26.6767 24.7485 26.5103 20.4614Z" fill="#281616"/>
<path fill-rule="evenodd" clip-rule="evenodd" d="M43.1893 21.9351C43.1893 21.9351 37.3613 34.5492 32.5764 37.2721C27.7915 39.995 26.8522 31.1401 26.1438 27.6615C25.4354 24.1829 24.1094 19.0205 27.7915 18.7344C31.4736 18.4482 43.1893 21.9351 43.1893 21.9351Z" fill="#281616"/>
<path fill-rule="evenodd" clip-rule="evenodd" d="M40.272 26.9542C40.272 26.9542 41.3908 24.2251 42.6374 24.7409C43.884 25.2568 42.8341 31.2334 41.3219 31.7391C39.8097 32.2447 38.9393 30.5295 40.272 26.9542Z" fill="#FFD3CA"/>
<path fill-rule="evenodd" clip-rule="evenodd" d="M24.1276 19.0043C24.1276 19.0043 26.5457 17.9804 27.7016 19.8029L27.4141 19.9094C26.3991 18.3081 24.2943 19.2009 24.2886 19.205L24.1276 19.0043Z" fill="#281616"/>
<path fill-rule="evenodd" clip-rule="evenodd" d="M25.3809 17.526C25.3809 17.526 28.2883 17.7185 27.5948 19.9094L27.2511 19.8696C27.8703 17.9443 25.3283 17.7783 25.319 17.7761L25.3809 17.526Z" fill="#281616"/>
<path fill-rule="evenodd" clip-rule="evenodd" d="M42.9722 25.8678C41.8278 27.211 41.2275 28.35 40.9682 29.172C40.3678 31.0846 41.5939 31.321 42.1351 28.675L41.8532 28.624C41.4671 30.722 40.7708 30.585 41.2444 29.18C41.6876 28.0296 42.3466 26.9655 43.1892 26.0397L42.9722 25.8678Z" fill="#FF8685"/>
<path fill-rule="evenodd" clip-rule="evenodd" d="M23.0716 116.062C20.7176 120.496 16.9093 126 19.5144 138.892C17.5266 150.062 15.8003 157.927 14.1316 169.122L11.3146 188.023L2.68318 248.332L14.809 251.092L41.9979 117.535C41.9979 117.535 29.1581 105.378 23.0716 116.062Z" fill="#281616"/>
<path fill-rule="evenodd" clip-rule="evenodd" d="M0.30049 254.667H13.4038C13.4865 248.891 10.3271 246.935 6.94005 247.662C3.55304 248.389 1.45362 250.765 0.30049 254.667Z" fill="#281616"/>
<path fill-rule="evenodd" clip-rule="evenodd" d="M40.3545 245.134C41.3703 245.31 61.6074 251.708 62.251 254.667H36.0411C36.0411 254.667 36.9453 248.19 40.3545 245.134Z" fill="#281616"/>
<path fill-rule="evenodd" clip-rule="evenodd" d="M56.2942 110.389L54.4012 169.261L53.0491 188.151L48.8223 246.693C46.3019 251.999 40.4094 251.644 36.0879 252.284C36.1474 231.713 31.4718 219.149 36.2637 190.571L36.3881 146.708L36.4097 139.014C24.3109 128.444 33.289 114.704 33.289 114.704C35.9933 114.397 38.2054 114.514 39.9767 114.968C45.0363 110.119 53.3682 102.324 56.2942 110.389Z" fill="#660B0B"/>
<path fill-rule="evenodd" clip-rule="evenodd" d="M14.3731 54.428L27.1835 46.1541C27.1835 46.1541 30.7305 49.0647 42.9569 44.9343C47.7043 47.0775 54.5293 49.8293 58.028 53.8221C60.4501 67.2582 55.2587 93.2467 55.9853 114.592C56.1064 118.174 23.1089 123.458 20.1754 120.161C21.0797 104.468 21.8602 91.8787 17.721 81.2843C10.6807 63.2654 14.3731 54.428 14.3731 54.428Z" fill="white"/>
<path fill-rule="evenodd" clip-rule="evenodd" d="M48.9025 94.9843L84.8867 98.6879L79.1984 135.501L45.572 133.619L48.9025 94.9843Z" fill="white"/>
<path fill-rule="evenodd" clip-rule="evenodd" d="M50.1948 96.1758L87.2694 99.8821L81.4087 136.692L46.7633 134.811L50.1948 96.1758Z" fill="#F8CA7A"/>
<path fill-rule="evenodd" clip-rule="evenodd" d="M64.3479 79.6107C67.3385 90.285 65.8047 95.9022 59.5923 98.2061C47.0268 102.864 50.1475 59.9532 52.4469 56.1168C54.4459 52.7798 57.4976 52.1536 59.5365 55.4721C63.266 61.5015 63.8455 77.8114 64.3479 79.6107Z" fill="#FCE8E8"/>
<path fill-rule="evenodd" clip-rule="evenodd" d="M67.6706 133.96C67.6706 133.96 66.4761 129.084 67.3153 125.648C68.0877 122.516 72.0729 117.56 75.0386 125.413C76.4134 129.256 76.5472 136.252 76.5472 136.252C76.4237 138.529 70.0623 138.281 68.3786 136.389L67.6706 133.96Z" fill="#FF8685"/>
<path fill-rule="evenodd" clip-rule="evenodd" d="M65.8814 87.781C63.7309 82.1818 60.6729 80.6993 56.3774 82.763C44.5485 88.4476 64.9029 123.917 68.3126 125.512C71.2753 126.901 73.9272 125.075 74.1589 120.555C74.3797 116.19 68.0891 93.5269 65.8814 87.781Z" fill="#FCE8E8"/>
<path fill-rule="evenodd" clip-rule="evenodd" d="M50.8613 59.2343C50.8613 59.3337 46.5158 93.6536 62.8561 116.434L63.4424 116.062C47.2493 93.4887 51.5532 59.4097 51.5643 59.3102L50.8613 59.2343Z" fill="#3B47BC"/>
<path fill-rule="evenodd" clip-rule="evenodd" d="M143.263 68.8815C143.263 68.5519 140.852 64.001 140.852 64.001C140.852 64.001 132.966 65.7275 132.592 66.2359C132.218 66.7444 134.007 72.6306 134.687 73.2425C135.367 73.8543 140.042 74.7259 140.042 74.7259L143.263 68.8815Z" fill="#FFE1DA"/>
<path fill-rule="evenodd" clip-rule="evenodd" d="M140.401 64.0509C140.429 64.036 140.457 64.0235 140.487 64.0134C141.435 63.666 149.827 70.695 149.827 70.695C151.44 75.8024 149.291 76.8233 148.452 77.1093L139.674 74.3084C136.655 69.4923 140.401 64.0509 140.401 64.0509Z" fill="#FF8685"/>
</svg>
