<svg width="272" height="257" viewBox="0 0 272 257" fill="none" xmlns="http://www.w3.org/2000/svg">
<path d="M141.713 4.38894L146.735 8.46438L155.524 11.5993V2.19447H161.801V11.5993L169.648 4.38894L172.159 15.9883H166.823L176.867 20.3772L186.597 15.9883L191.305 20.3772L184.086 22.5717L186.597 28.8416H208.254V39.8139L201.349 42.6354L208.254 47.9648H215.159L220.809 60.5046H211.393L215.159 65.8341H223.947V75.5524L218.925 77.1199V88.0922L237.13 84.9573V89.6597L226.458 96.2431L223.947 101.259H230.852L237.13 108.469L223.947 115.68H237.13L234.305 124.458H223.947L241.524 135.43L237.13 145.775L226.458 142.954L237.13 155.18L234.305 163.018L223.947 159.569L215.159 164.899L228.969 169.601L226.458 177.752H220.809V181.514L228.969 192.173L226.458 196.248L215.159 193.74L220.809 209.102L215.159 213.177C213.485 211.296 209.258 207.534 205.743 207.534C202.228 207.534 201.349 211.296 201.349 213.177L212.334 221.014L210.137 226.03L201.349 223.522L205.743 231.987L188.794 234.181V223.522C186.178 224.358 180.319 226.03 177.808 226.03C174.67 226.03 185.027 231.987 186.911 234.181C188.417 235.937 183.563 241.392 180.947 243.9L173.1 238.57L161.173 239.824L163.684 243.9L154.896 246.721L142.341 243.9L149.56 254.872L142.341 256.439L129.159 246.721V256.439H120.37L113.465 246.721V254.872L104.677 251.737L108.443 238.57L99.6549 236.062V246.721L93.3775 251.737L88.0417 241.392L82.0781 243.9L74.5453 239.824L82.0781 231.987H70.7788L63.8737 239.824L59.1656 238.57V229.792H47.5524V217.252H59.1656V210.982H45.3554L42.5305 200.01L51.3189 196.248L45.3554 189.978L40.6473 196.248L33.1144 193.74L37.5086 179.319L29.9757 181.514L28.4064 169.601L40.6473 167.407L35.9393 161.137L26.837 164.899L23.6983 157.375L31.5451 152.986L28.4064 147.97L31.5451 140.759L23.6983 142.954L19.9319 135.43L26.837 130.414L19.9319 121.636L23.6983 117.247L28.4064 121.636L35.9393 108.469L40.6473 110.35L47.5524 101.259L28.4064 102.827L26.837 98.1241L35.9393 94.3622L26.837 90.9137V80.5683H33.1144L31.5451 70.5365H42.5305L47.5524 75.5524L51.3189 68.969L40.6473 62.6991L42.5305 58.6237L52.8882 60.5046L55.0853 54.2347H42.5305V44.5164H57.5963V36.3655L47.5524 33.2305L52.8882 26.0201L65.1292 28.8416L67.954 22.5717L83.3336 15.9883L91.8081 22.5717V11.5993L111.582 4.38894L115.348 13.7938V4.38894H121.626L125.392 8.46438L134.181 0L141.713 4.38894Z" fill="#7D802B"/>
<path d="M246.811 73.7376L240.851 64.6132L255.907 58.6351L262.18 66.501L246.811 73.7376Z" fill="#6E7537"/>
<path d="M250.261 104.572C249.006 104.572 247.438 108.138 246.811 109.921L259.043 127.54L271.904 118.416C265.212 113.801 251.516 104.572 250.261 104.572Z" fill="#6E7537"/>
<path d="M229.246 204.311L225.796 210.289L238.656 223.189L246.811 215.008L229.246 204.311Z" fill="#6E7537"/>
<path d="M209.172 236.404H200.389L198.507 252.765L203.526 254.652L209.172 236.404Z" fill="#6E7537"/>
<path d="M24.7399 239.865L34.777 224.133L40.4228 229.167L32.895 245.528L24.7399 239.865Z" fill="#6E7537"/>
<path d="M17.8393 204.625V210.289H7.17492V204.625H17.8393Z" fill="#6E7537"/>
<path d="M17.8393 183.23L15.3301 189.523L0.274414 183.23L2.78369 178.825L17.8393 183.23Z" fill="#6E7537"/>
<path d="M7.17492 125.967L10.9388 129.742L17.8393 124.079L15.3301 118.101L7.17492 125.967Z" fill="#6E7537"/>
<path d="M19.7213 106.774L7.17492 95.1327L12.8208 91.6717L22.8579 103.628L19.7213 106.774Z" fill="#6E7537"/>
<path d="M28.5038 66.501L19.7213 49.8254L25.0535 45.7351L32.2677 58.6351L28.5038 66.501Z" fill="#6E7537"/>
<path d="M60.8107 15.2156L43.2458 12.0692L45.1277 3.5741L60.8107 7.34971V15.2156Z" fill="#6E7537"/>
<path d="M77.6285 78.5707L86.0486 70.7308L82.6182 64.1453L75.1336 65.7133L69.2084 69.1628V59.4413L82.6182 57.8734L75.1336 48.4655L66.7136 50.0335L64.5306 45.3295L69.2084 37.8032H61.1002V30.277L75.1336 26.8274L72.3269 14.5972H82.6182V24.9458L88.8553 26.8274V18.9875H96.9635L105.695 30.277V22.7507L109.438 21.1827L117.546 24.9458L125.03 22.7507L121.288 17.4195L117.546 10.5204L126.902 14.5972H140.935L144.989 2.68054H151.226L148.108 17.4195L155.592 21.1827L163.7 14.5972L171.497 18.9875L168.69 24.9458L173.68 30.277V22.7507L181.164 24.9458L184.907 34.9809H191.767L197.381 45.3295H212.038V54.1102L205.489 56.3054V64.1453H200.811L195.51 59.4413L184.907 64.1453L195.51 62.5773L197.381 70.7308L188.961 74.1803V81.7066L197.381 78.5707L200.811 85.1562L195.51 91.1145H187.401L193.639 102.404L187.401 106.481L184.907 102.404L175.239 103.972L184.907 113.693L181.164 117.77L167.443 109.93L166.195 117.77L175.239 119.338L173.68 124.983L166.195 126.864L168.69 138.467H179.605V147.562H166.195V162.928L175.239 160.106L179.605 168.886L168.69 176.413H177.11V185.507L163.7 183.312L168.69 189.27L177.11 191.465L166.195 199.619L167.443 212.162H173.68V222.197L163.7 226.274L167.443 234.741L158.711 243.522L151.226 240.7L140.623 245.717L138.44 238.818L146.237 232.546H140.623L138.44 220.002L133.451 226.274L128.149 222.197L133.451 202.441L128.149 196.483L124.719 202.441L119.417 196.483L117.546 185.507H107.255L115.051 195.228L105.695 198.364L114.116 209.654L107.255 215.612L101.953 206.204L91.9738 205.263L96.9635 212.162L91.9738 215.612L82.6182 205.263L72.3269 209.654L77.6285 215.612L69.2084 218.434L61.412 212.162L63.9069 200.559L52.9919 196.483L54.5512 188.329L63.9069 191.465L72.3269 177.98L66.7136 174.531V157.91H77.6285L82.6182 145.68H69.2084V130.628L86.0486 129.06L82.6182 117.77L88.8553 113.693L91.9738 124.983L100.706 117.77L96.9635 99.268L86.0486 103.972L82.6182 99.268L95.0924 87.665L86.0486 81.7066L82.6182 91.1145L77.6285 78.5707Z" fill="#5E642C"/>
<path fill-rule="evenodd" clip-rule="evenodd" d="M145.549 49.2382C145.549 49.2382 145.929 48.2776 146.611 49.2482C146.698 49.3731 146.791 49.3063 146.902 49.1168C146.921 49.0905 146.939 49.0642 146.96 49.0346C151.996 40.0048 155.807 59.8663 161.791 54.7241C160.937 55.9953 159.699 56.9605 158.258 57.4794C154.084 59.0751 149.809 57.8504 147.951 55.9503C146.093 54.0501 144.491 52.1776 145.549 49.2382Z" fill="#281616"/>
<path fill-rule="evenodd" clip-rule="evenodd" d="M144.838 52.5515C144.198 53.1821 143.551 53.7044 143.062 53.837C141.637 54.2219 142.415 51.0151 142.707 49.7942C143 48.5734 143.365 46.7238 144.229 47.0266C144.582 47.1927 144.908 47.4131 145.193 47.6798C145.852 46.5006 147.042 41.1994 151.994 44.2755C155.913 46.7105 157.514 50.4831 160.162 49.6144C162.81 48.7458 161.831 52.8719 157.488 54.7091C153.144 56.5464 148.583 55.7293 146.546 54.0838C145.943 53.6121 145.372 53.1001 144.838 52.5515Z" fill="white"/>
<path fill-rule="evenodd" clip-rule="evenodd" d="M157.895 54.2169C157.895 54.2169 155.113 57.9379 153.689 58.3212C152.264 58.7045 153.041 55.4993 153.334 54.2784C153.626 53.0576 153.991 51.208 154.854 51.5096C155.716 51.8113 157.895 54.2169 157.895 54.2169Z" fill="#281616"/>
<path fill-rule="evenodd" clip-rule="evenodd" d="M146.679 57.9502L143.372 58.7702L138.361 72.8987L147.251 76.8871L150.277 64.2132L146.679 57.9502Z" fill="#FFE1DA"/>
<path fill-rule="evenodd" clip-rule="evenodd" d="M145.813 76.2293L147.251 76.8871L150.357 64.1247L149.146 61.8598L148.873 61.9415L145.813 76.2293Z" fill="#FF8685"/>
<path fill-rule="evenodd" clip-rule="evenodd" d="M145.237 56.7105L143.343 57.2138C141.656 62.3636 143.469 69.5475 149.055 71.2071L151.045 63.5447L145.237 56.7105Z" fill="#412F2F"/>
<path fill-rule="evenodd" clip-rule="evenodd" d="M156.984 52.2232C156.447 52.9183 152.204 69.4391 146.909 67.5854C141.614 65.7317 140.848 57.6242 143.746 53.0085C146.645 48.3928 156.984 52.2232 156.984 52.2232Z" fill="#FFD3CA"/>
<path fill-rule="evenodd" clip-rule="evenodd" d="M144.732 66.2742C141.464 63.253 141.306 56.8936 143.746 53.0084C144.354 52.0414 145.287 51.4478 146.383 51.1086C147.213 51.6598 147.88 52.1265 147.88 52.1265C147.88 52.1265 144.559 58.2988 145.248 60.4008C145.779 62.0021 145.093 64.6403 144.732 66.2742Z" fill="#FFE1DA"/>
<path fill-rule="evenodd" clip-rule="evenodd" d="M157.572 50.369C157.359 50.6441 156.569 53.3928 155.361 56.5013C151.83 57.1107 148.482 56.1247 146.822 54.6604C145.693 53.6607 144.65 52.6676 144.136 51.486C144.203 51.3695 144.269 51.2586 144.333 51.1531C147.233 46.5386 157.572 50.369 157.572 50.369Z" fill="#FF8685"/>
<path opacity="0.3" fill-rule="evenodd" clip-rule="evenodd" d="M155.747 55.7401C155.403 56.1729 154.498 61.2202 151.829 64.5244C150.164 67.0042 148.411 68.5783 145.973 67.1769C145.973 67.1769 146.028 66.9114 146.103 66.8783C147.393 66.2113 146.929 65.0654 146.951 64.3565C146.941 63.8049 146.875 63.4066 147.275 63.0775C147.641 62.7335 147.336 62.5196 147.424 62.1523C147.513 61.785 147.722 61.7505 147.773 61.5108C147.823 61.2711 147.61 60.9893 147.858 60.7858C148.107 60.5824 149.263 61.483 149.674 60.9868C149.968 60.6332 150.959 52.1427 151.005 51.7262L154.051 50.9074C154.738 51.1716 155.747 55.7401 155.747 55.7401Z" fill="#FF8685"/>
<path fill-rule="evenodd" clip-rule="evenodd" d="M144.084 48.2868C144.084 48.2868 144.452 47.3427 145.208 48.2081C145.891 48.9853 146.507 41.0197 152.334 44.6247C156.252 47.0569 157.853 50.8311 160.504 49.9619C163.154 49.0928 162.17 53.2199 157.826 55.0571C153.482 56.8944 148.922 56.0773 146.886 54.4302C144.85 52.7831 143.083 51.1457 144.084 48.2868Z" fill="#412F2F"/>
<path fill-rule="evenodd" clip-rule="evenodd" d="M144.083 48.2868C144.083 48.2868 144.452 47.3427 145.208 48.2081C145.305 48.3182 145.4 48.2498 145.511 48.0602C145.528 48.0356 145.547 48.0093 145.557 47.9728C150.521 39.0465 155.329 57.5052 161.437 52.17C160.8 53.1954 159.59 54.3234 157.814 55.0736C153.472 56.912 148.91 56.0937 146.874 54.4467C144.838 52.7996 143.082 51.1457 144.083 48.2868Z" fill="#281616"/>
<path fill-rule="evenodd" clip-rule="evenodd" d="M147.606 50.0905C147.606 50.0905 144.824 53.8115 143.4 54.1948C141.975 54.5781 142.751 51.3718 143.045 50.1521C143.339 48.9324 143.703 47.0816 144.565 47.3833C145.427 47.685 147.606 50.0905 147.606 50.0905Z" fill="#281616"/>
<path fill-rule="evenodd" clip-rule="evenodd" d="M143.783 53.5022C143.783 53.5022 143.664 51.3343 142.626 51.385C141.588 51.4358 140.832 55.8418 141.804 56.5615C142.775 57.2813 143.844 56.3092 143.783 53.5022Z" fill="#FFE1DA"/>
<path fill-rule="evenodd" clip-rule="evenodd" d="M145.637 48.9834C145.637 49.0035 145.518 55.929 154.69 54.1568L154.728 54.3651C145.299 56.1877 145.421 49.0064 145.421 48.9863L145.637 48.9834Z" fill="#412F2F"/>
<path fill-rule="evenodd" clip-rule="evenodd" d="M143.623 46.5779C143.623 46.5779 145.417 46.3539 145.496 48.2186L145.279 48.2304C145.204 46.5872 143.646 46.7887 143.644 46.7892L143.623 46.5779Z" fill="#281616"/>
<path fill-rule="evenodd" clip-rule="evenodd" d="M144.812 46.1329C144.812 46.1329 146.371 47.0102 145.301 48.5639L145.127 48.4413C146.068 47.0745 144.709 46.3109 144.706 46.3086L144.812 46.1329Z" fill="#281616"/>
<path fill-rule="evenodd" clip-rule="evenodd" d="M142.445 58.7791C142.446 58.7696 142.45 58.7607 142.456 58.7528C142.461 58.7449 142.468 58.7382 142.476 58.7331C142.485 58.728 142.494 58.7247 142.503 58.7233C142.513 58.7219 142.522 58.7225 142.532 58.725C142.55 58.7291 142.567 58.7403 142.577 58.7564C142.587 58.7724 142.591 58.7919 142.587 58.8105C142.35 60.0002 142.388 61.2288 142.699 62.4021C143.011 63.5754 143.586 64.6622 144.382 65.5792C144.389 65.5862 144.393 65.5944 144.396 65.6032C144.399 65.6121 144.401 65.6215 144.4 65.6309C144.399 65.6402 144.396 65.6493 144.392 65.6575C144.387 65.6658 144.381 65.673 144.374 65.6788C144.367 65.6853 144.358 65.6903 144.349 65.6935C144.34 65.6967 144.33 65.698 144.321 65.6974C144.311 65.6968 144.302 65.6943 144.293 65.6899C144.284 65.6856 144.277 65.6796 144.27 65.6723C143.46 64.7382 142.874 63.6312 142.558 62.4364C142.241 61.2415 142.203 59.9904 142.445 58.7791Z" fill="white"/>
<path fill-rule="evenodd" clip-rule="evenodd" d="M142.56 52.2708C142.962 53.3983 143.071 54.2724 143.035 54.8687C142.956 56.2516 142.119 56.1519 142.415 54.2927L142.606 54.3187C142.345 55.7779 142.82 55.8367 142.859 54.8157C142.856 53.9685 142.695 53.129 142.386 52.34L142.56 52.2708Z" fill="#FF8685"/>
<path fill-rule="evenodd" clip-rule="evenodd" d="M146.185 61.7654C146.185 61.7654 147.397 63.1069 148.476 63.2392L148.447 63.4306C147.299 63.2885 146.046 61.9075 146.042 61.9036L146.185 61.7654Z" fill="#FF8685"/>
<path fill-rule="evenodd" clip-rule="evenodd" d="M146.393 61.8318C146.393 61.8318 146.125 61.8454 146.091 62.0575L145.903 62.0254C145.971 61.6738 146.4 61.6388 146.401 61.6375L146.393 61.8318Z" fill="#FF8685"/>
<path fill-rule="evenodd" clip-rule="evenodd" d="M146.063 57.8846C145.917 57.7559 145.746 57.6575 145.561 57.5952C145.376 57.533 145.181 57.5081 144.986 57.5221C144.792 57.5361 144.602 57.5887 144.429 57.6767C144.256 57.7648 144.103 57.8865 143.978 58.0347C143.726 58.3395 143.604 58.7308 143.638 59.1252C143.673 59.5196 143.861 59.8861 144.163 60.1464C144.309 60.2752 144.48 60.3737 144.665 60.436C144.851 60.4983 145.046 60.5232 145.241 60.5093C145.435 60.4954 145.625 60.4428 145.798 60.3548C145.972 60.2668 146.125 60.1451 146.25 59.9969C146.502 59.6918 146.624 59.3003 146.589 58.9057C146.555 58.5111 146.366 58.1447 146.063 57.8846Z" fill="#FF8685"/>
<path fill-rule="evenodd" clip-rule="evenodd" d="M152.901 60.0249C152.834 59.9419 152.752 59.8827 152.66 59.8508C152.567 59.8189 152.467 59.8149 152.364 59.8391C152.262 59.8634 152.159 59.9153 152.062 59.9918C151.965 60.0683 151.876 60.1679 151.8 60.2846C151.646 60.5244 151.554 60.8177 151.544 61.102C151.533 61.3863 151.605 61.6391 151.744 61.8066C151.812 61.8897 151.894 61.9489 151.986 61.9809C152.079 62.0128 152.179 62.0168 152.282 61.9927C152.385 61.9685 152.488 61.9166 152.585 61.8401C152.682 61.7636 152.771 61.664 152.847 61.5473C153.001 61.3073 153.093 61.0138 153.103 60.7294C153.113 60.445 153.041 60.1923 152.901 60.0249Z" fill="#FF8685"/>
<path fill-rule="evenodd" clip-rule="evenodd" d="M153.161 58.2278L151.086 57.3993L150.95 57.7573L153.024 58.588L153.161 58.2278Z" fill="#281616"/>
<path fill-rule="evenodd" clip-rule="evenodd" d="M145.241 55.9917L147.425 56.4575L147.34 56.8311L145.154 56.3673L145.241 55.9917Z" fill="#281616"/>
<path fill-rule="evenodd" clip-rule="evenodd" d="M107.081 48.6378C98.8463 54.4077 129.027 81.2787 132.51 80.7442C147.402 78.4435 112.284 44.9917 107.081 48.6378Z" fill="#A3CF80"/>
<path fill-rule="evenodd" clip-rule="evenodd" d="M188.861 78.5312C192.257 87.9971 152.106 92.5195 149.569 90.0721C138.736 79.5968 186.716 72.5504 188.861 78.5312Z" fill="#A3CF80"/>
<path fill-rule="evenodd" clip-rule="evenodd" d="M115.26 45.1761C117.328 53.167 118.001 61.0152 112.569 60.8048C103.505 60.4553 103.514 42.2094 104.646 34.1353C106.752 32.4941 108.594 31.8352 110.994 33.1168C113.309 37.665 114.957 44.0066 115.26 45.1761Z" fill="#A3CF80"/>
<path fill-rule="evenodd" clip-rule="evenodd" d="M187.36 70.8284C180.074 74.7048 173.837 79.5137 177.664 83.3757C184.047 89.8209 197.485 77.482 202.669 71.1899C202.454 68.5279 201.695 66.7252 199.128 65.8216C194.213 67.1897 188.426 70.2612 187.36 70.8284Z" fill="#A3CF80"/>
<path fill-rule="evenodd" clip-rule="evenodd" d="M116.013 112.67L98.8547 158.287L93.4485 172.638L74.5478 222.946L83.3341 226.979L128.612 126.013C128.612 126.013 122.409 106.094 116.013 112.67Z" fill="#281616"/>
<path fill-rule="evenodd" clip-rule="evenodd" d="M138.287 124.443C139.338 128.474 138.855 131.266 138.084 141.184L137.463 154.422L136.389 168.762L135.224 184.337L131.133 238.913L121.837 236.265L123.675 121.727C123.675 121.727 135.408 114.632 138.287 124.443Z" fill="#6D6DF6"/>
<path fill-rule="evenodd" clip-rule="evenodd" d="M136.039 120.212L138.588 123.495C138.588 123.495 130.167 139.412 125.721 138.033C121.276 136.655 123.008 118.431 123.008 118.431L136.039 120.212Z" fill="#6D6DF6"/>
<path fill-rule="evenodd" clip-rule="evenodd" d="M160.617 79.962C156.95 76.0619 151.729 75.9658 149.402 71.7478C145.906 72.1617 140.513 73.3468 139.386 69.0389C137.759 69.42 130.667 63.6411 127.595 64.6005C125.666 65.2023 127.44 72.1656 126.517 73.4529C118.956 83.9369 114.483 110.896 112.964 118.546C112.399 121.395 136.721 129.55 139.753 127.718C141.159 126.867 153.031 101.386 154.171 90.4173C159.756 81.3602 164.283 83.8621 160.617 79.962Z" fill="#A3CF80"/>
<path fill-rule="evenodd" clip-rule="evenodd" d="M80.6782 217.215C79.8395 216.988 62.0898 214.568 60.6009 216.534L80.7614 225.789C80.7614 225.789 82.2622 220.678 80.6782 217.215Z" fill="#281616"/>
<path fill-rule="evenodd" clip-rule="evenodd" d="M128.524 230.856C129.321 231.202 144.696 240.399 144.632 242.864L123.107 237.501C123.107 237.501 125.125 232.572 128.524 230.856Z" fill="#281616"/>
<path fill-rule="evenodd" clip-rule="evenodd" d="M110.925 32.7847C111.451 34.0947 110.485 35.6831 108.769 36.3368C107.053 36.9906 105.238 36.4543 104.712 35.1443C104.186 33.8343 105.154 32.2445 106.87 31.5928C108.585 30.9411 110.401 31.4732 110.925 32.7847Z" fill="#281616"/>
<path fill-rule="evenodd" clip-rule="evenodd" d="M199.42 65.6485C198.1 66.1463 197.582 67.9316 198.26 69.6385C198.938 71.3455 200.56 72.3208 201.881 71.823C203.201 71.3252 203.718 69.537 203.039 67.8319C202.36 66.1268 200.74 65.1478 199.42 65.6485Z" fill="#281616"/>
<path fill-rule="evenodd" clip-rule="evenodd" d="M102.413 28.8851C102.413 28.8851 104.049 33.3631 105.808 34.7175C107.412 35.9508 111.627 33.303 111.163 31.3579C110.654 29.2203 107.2 25.8736 107.2 25.8736L102.413 28.8851Z" fill="#FF8685"/>
<path fill-rule="evenodd" clip-rule="evenodd" d="M208.857 68.9264C208.857 68.9264 204.937 71.6386 202.72 71.7297C200.698 71.8108 198.784 67.2153 200.285 65.8947C201.933 64.4425 206.685 63.7031 206.685 63.7031L208.857 68.9264Z" fill="#FF8685"/>
<path fill-rule="evenodd" clip-rule="evenodd" d="M108.364 27.2539L108.396 27.3022C108.456 27.3985 108.497 27.5069 108.518 27.6208C108.539 27.7348 108.539 27.8521 108.518 27.9658C108.497 28.0795 108.455 28.1874 108.395 28.283C108.335 28.3787 108.257 28.4603 108.168 28.5229C107.984 28.6488 107.761 28.6917 107.548 28.6426C107.335 28.5934 107.147 28.456 107.024 28.2594L106.997 28.2087L102.94 21.1434C102.908 21.0925 102.881 21.0386 102.858 20.9825C102.805 20.8506 102.796 20.7025 102.834 20.5648C102.872 20.427 102.953 20.3086 103.064 20.2306C103.188 20.1459 103.337 20.1152 103.481 20.1445C103.625 20.1738 103.754 20.261 103.842 20.3888L103.868 20.4239L108.364 27.2539Z" fill="#FF8685"/>
<path fill-rule="evenodd" clip-rule="evenodd" d="M204.938 64.1582L204.884 64.1792C204.779 64.2233 204.683 64.2877 204.6 64.3687C204.517 64.4496 204.449 64.5455 204.401 64.6506C204.353 64.7557 204.325 64.868 204.319 64.9809C204.313 65.0937 204.329 65.2049 204.366 65.3078C204.443 65.517 204.6 65.6803 204.803 65.7633C205.005 65.8463 205.238 65.8425 205.452 65.7527L205.504 65.7274L212.893 62.2993C212.948 62.276 213.002 62.2478 213.053 62.215C213.172 62.1381 213.265 62.0221 213.313 61.8878C213.362 61.7536 213.364 61.6097 213.318 61.482C213.266 61.3414 213.162 61.2303 213.027 61.171C212.893 61.1117 212.737 61.1085 212.591 61.1619L212.55 61.1759L204.938 64.1582Z" fill="#FF8685"/>
<path fill-rule="evenodd" clip-rule="evenodd" d="M106.371 27.0091L106.404 27.0555C106.467 27.1478 106.51 27.2517 106.532 27.361C106.554 27.4704 106.553 27.583 106.531 27.6921C106.508 27.8013 106.464 27.905 106.401 27.9969C106.338 28.0889 106.257 28.1673 106.164 28.2276C105.971 28.3489 105.738 28.3905 105.515 28.3437C105.292 28.2969 105.096 28.1654 104.968 27.9769L104.939 27.9284L100.711 21.1546C100.678 21.1058 100.65 21.0542 100.626 21.0003C100.571 20.8738 100.562 20.7317 100.602 20.5994C100.642 20.4672 100.727 20.3533 100.843 20.2782C100.973 20.1967 101.129 20.1669 101.279 20.1948C101.43 20.2226 101.565 20.3061 101.657 20.4285L101.683 20.4622L106.371 27.0091Z" fill="#FF8685"/>
<path fill-rule="evenodd" clip-rule="evenodd" d="M206.707 65.1091L206.653 65.1278C206.548 65.1671 206.453 65.2269 206.372 65.3037C206.291 65.3804 206.227 65.4726 206.182 65.5747C206.137 65.6768 206.114 65.7869 206.112 65.8984C206.11 66.0099 206.131 66.1207 206.173 66.2241C206.261 66.4344 206.427 66.6026 206.636 66.6932C206.845 66.7837 207.081 66.7895 207.294 66.7093L207.346 66.6864L214.707 63.5953C214.762 63.5745 214.815 63.5487 214.865 63.5184C214.984 63.4471 215.073 63.3361 215.117 63.2051C215.16 63.0741 215.156 62.9318 215.105 62.8035C215.046 62.662 214.936 62.5478 214.797 62.4835C214.658 62.4193 214.499 62.4096 214.354 62.4566L214.313 62.4688L206.707 65.1091Z" fill="#FF8685"/>
<path fill-rule="evenodd" clip-rule="evenodd" d="M105.129 30.2036L105.164 30.237C105.23 30.3041 105.282 30.3835 105.316 30.4705C105.349 30.5576 105.365 30.6505 105.36 30.7439C105.356 30.8372 105.332 30.9291 105.29 31.0142C105.248 31.0992 105.189 31.1757 105.116 31.2391C104.966 31.3672 104.771 31.4354 104.572 31.4293C104.373 31.4232 104.186 31.3432 104.049 31.2063L104.018 31.1705L99.4358 26.1974C99.4007 26.162 99.3691 26.1235 99.3412 26.0825C99.276 25.9862 99.249 25.8703 99.2652 25.7553C99.2814 25.6404 99.3397 25.534 99.4296 25.4552C99.5305 25.369 99.661 25.3218 99.795 25.3228C99.929 25.3238 100.057 25.3731 100.153 25.4607L100.181 25.4846L105.129 30.2036Z" fill="#FF8685"/>
<path fill-rule="evenodd" clip-rule="evenodd" d="M205.878 68.4354L205.83 68.4424C205.737 68.4587 205.649 68.4937 205.571 68.5453C205.494 68.5969 205.428 68.6641 205.377 68.7428C205.327 68.8216 205.294 68.9104 205.279 69.0041C205.264 69.0977 205.268 69.1943 205.291 69.2881C205.339 69.4793 205.459 69.6476 205.626 69.7576C205.792 69.8675 205.991 69.9104 206.181 69.8772L206.228 69.8662L212.839 68.4498C212.888 68.4411 212.936 68.428 212.982 68.4106C213.091 68.3696 213.18 68.2905 213.233 68.1873C213.286 68.0841 213.3 67.9635 213.272 67.8472C213.239 67.7186 213.16 67.6048 213.05 67.5282C212.94 67.4517 212.807 67.4181 212.678 67.4342L212.642 67.4378L205.878 68.4354Z" fill="#FF8685"/>
<path fill-rule="evenodd" clip-rule="evenodd" d="M105.17 27.7027L105.202 27.7384C105.264 27.8099 105.31 27.8927 105.338 27.9818C105.366 28.071 105.375 28.1647 105.364 28.2575C105.353 28.3504 105.323 28.4404 105.276 28.5224C105.228 28.6044 105.164 28.6767 105.087 28.735C104.928 28.8526 104.729 28.9073 104.531 28.8877C104.333 28.868 104.151 28.7754 104.025 28.6296L103.995 28.5916L99.7631 23.3179C99.7305 23.2801 99.7015 23.2396 99.6765 23.1968C99.618 23.0963 99.599 22.9787 99.623 22.8652C99.6469 22.7516 99.7123 22.6494 99.8074 22.5769C99.914 22.4978 100.047 22.4596 100.181 22.4698C100.315 22.4799 100.439 22.5378 100.529 22.6318L100.555 22.6575L105.17 27.7027Z" fill="#FF8685"/>
<path fill-rule="evenodd" clip-rule="evenodd" d="M207.288 66.3694L207.241 66.3797C207.149 66.4023 207.064 66.4432 206.989 66.5C206.915 66.5568 206.854 66.6283 206.809 66.7103C206.765 66.7923 206.737 66.8832 206.729 66.9777C206.72 67.0721 206.731 67.1682 206.76 67.2602C206.822 67.4477 206.953 67.6074 207.126 67.7058C207.299 67.8041 207.501 67.8333 207.688 67.7873L207.734 67.7731L214.233 65.9094C214.282 65.8974 214.329 65.881 214.374 65.8605C214.48 65.8122 214.563 65.7272 214.609 65.6206C214.655 65.514 214.66 65.3928 214.625 65.2787C214.583 65.1526 214.496 65.0444 214.381 64.9756C214.266 64.9067 214.132 64.8823 214.004 64.9071L213.968 64.9132L207.288 66.3694Z" fill="#FF8685"/>
<path fill-rule="evenodd" clip-rule="evenodd" d="M111.359 24.8689C111.519 24.8751 111.67 24.9434 111.78 25.0594C111.89 25.1754 111.951 25.3299 111.948 25.4897C111.946 25.5801 111.923 25.6688 111.882 25.7492C111.552 26.9356 111.927 28.6064 112.003 28.9066L112 28.9168C112.015 28.9848 112.022 29.0541 112.022 29.1237C112.019 29.2346 111.995 29.344 111.949 29.4453C111.904 29.5466 111.839 29.6379 111.758 29.7138C111.677 29.7896 111.582 29.8486 111.477 29.8871C111.373 29.9257 111.262 29.9431 111.151 29.9384C110.955 29.9295 110.768 29.8547 110.619 29.726C110.471 29.5973 110.37 29.4223 110.333 29.2294C109.899 27.3712 110.749 25.1467 110.797 25.1596C110.853 25.063 110.936 24.9845 111.035 24.9331C111.135 24.8816 111.247 24.8594 111.359 24.8689Z" fill="#FFE1DA"/>
<path fill-rule="evenodd" clip-rule="evenodd" d="M203.868 60.4822C203.734 60.3949 203.571 60.3634 203.414 60.3946C203.257 60.4257 203.119 60.5169 203.028 60.6487C202.978 60.7239 202.946 60.8095 202.933 60.8991C202.518 62.0583 201.247 63.2061 201.013 63.4077L201.009 63.4179C200.958 63.4648 200.912 63.5172 200.872 63.5741C200.81 63.6661 200.767 63.7696 200.746 63.8785C200.724 63.9874 200.725 64.0995 200.747 64.2082C200.769 64.317 200.813 64.4202 200.876 64.5118C200.939 64.6034 201.019 64.6816 201.113 64.7418C201.278 64.8479 201.474 64.895 201.67 64.8756C201.865 64.8562 202.049 64.7714 202.19 64.635C203.617 63.3686 204.206 61.0611 204.16 61.0441C204.169 60.9325 204.147 60.8206 204.095 60.7211C204.044 60.6217 203.965 60.5389 203.868 60.4822Z" fill="#FFE1DA"/>
<path fill-rule="evenodd" clip-rule="evenodd" d="M111.438 31.9516C111.425 32.0298 111.405 32.1068 111.379 32.1819C111.272 32.4766 111.074 32.7296 110.814 32.9041C110.554 33.0786 110.244 33.1654 109.931 33.1521C109.532 33.1364 109.155 32.9655 108.88 32.676C108.605 32.3865 108.455 32.0013 108.46 31.6026C108.466 31.2993 108.565 31.0052 108.746 30.7613C108.769 30.7305 108.795 30.6984 108.819 30.6703L110.346 28.7865C110.432 28.6425 110.556 28.5245 110.704 28.445C110.852 28.3655 111.018 28.3275 111.186 28.335C111.439 28.3442 111.679 28.4521 111.853 28.6356C112.028 28.8191 112.124 29.0635 112.12 29.3165C112.109 29.3512 112.116 29.3917 112.112 29.4263C112.097 29.4961 112.075 29.5644 112.047 29.6302L111.438 31.9516Z" fill="#FFE1DA"/>
<path fill-rule="evenodd" clip-rule="evenodd" d="M199.717 66.2204C199.683 66.2922 199.655 66.3666 199.633 66.4429C199.55 66.745 199.565 67.0658 199.677 67.3587C199.789 67.6515 199.992 67.9011 200.255 68.0711C200.59 68.2885 200.997 68.3666 201.388 68.2888C201.779 68.2109 202.125 67.9833 202.35 67.6545C202.521 67.4038 202.609 67.1061 202.603 66.8028C202.601 66.7643 202.599 66.723 202.595 66.6859L202.435 64.2661C202.448 64.0987 202.415 63.931 202.34 63.7807C202.265 63.6304 202.151 63.5031 202.009 63.4123C201.797 63.2737 201.539 63.2236 201.291 63.2727C201.042 63.3218 200.823 63.4662 200.68 63.6749C200.669 63.7095 200.64 63.7384 200.623 63.7691C200.596 63.8349 200.574 63.9032 200.559 63.973L199.717 66.2204Z" fill="#FFE1DA"/>
<path fill-rule="evenodd" clip-rule="evenodd" d="M151.406 73.2196C151.373 73.2295 139.844 77.2589 137.616 68.8377L137.089 68.9756C139.468 77.97 151.537 73.7417 151.58 73.733L151.406 73.2196Z" fill="#86A96F"/>
<path fill-rule="evenodd" clip-rule="evenodd" d="M138.856 147.163L130.59 232.161L131.125 232.245L139.391 147.247L138.856 147.163Z" fill="white"/>
<path fill-rule="evenodd" clip-rule="evenodd" d="M157.832 78.6863C157.83 78.6925 153.363 79.557 154.601 88.5999L155.11 88.6921C153.896 79.8097 158.136 78.9849 158.148 78.9818L157.832 78.6863Z" fill="#86A96F"/>
<path fill-rule="evenodd" clip-rule="evenodd" d="M126.401 67.7149C126.412 67.7182 129.174 70.2484 125.481 75.5688C121.94 80.6521 118.832 92.9643 118.833 93.0028L118.305 92.8686C118.316 92.8339 121.437 80.4228 125.022 75.2569C128.456 70.328 126.037 68.1179 126.032 68.1119L126.401 67.7149Z" fill="#86A96F"/>
<path d="M48.9532 86.5351H57.1617L55.5831 99.0373L52.426 100.913L48.9532 86.5351Z" fill="#959930"/>
<path d="M59.3717 156.235L55.5831 152.797L41.3762 160.611L48.9532 166.549L59.3717 156.235Z" fill="#959930"/>
<path d="M190.391 206.243V197.492L194.811 194.366V204.056L190.391 206.243Z" fill="#959930"/>
<path d="M203.335 141.545L194.811 131.856L203.335 120.916L208.071 127.167L203.335 133.418L208.071 138.419L203.335 141.545Z" fill="#959930"/>
<path d="M230.802 89.6607L216.279 93.4113L213.753 89.6607L225.119 83.097L230.802 89.6607Z" fill="#959930"/>
<path d="M92.5211 234.061L102.624 224.997L107.359 228.747L102.624 241.25L92.5211 234.061Z" fill="#959930"/>
<path d="M175.868 221.871L167.66 224.997L172.08 238.749L179.341 236.249L175.868 221.871Z" fill="#959930"/>
<path d="M169.238 156.235L175.868 147.171L182.814 149.671L175.868 157.798L169.238 156.235Z" fill="#959930"/>
</svg>
