<svg width="696" height="718" viewBox="0 0 696 718" fill="none" xmlns="http://www.w3.org/2000/svg">
<path d="M696 358.5C696 124.478 513.531 18.395 482.853 2.21307C480.14 0.782035 477.059 1.16639 474.739 3.17267C449.349 25.128 304 159.504 304 358.5C304 557.438 449.265 692.627 474.717 714.787C477.046 716.815 480.156 717.202 482.882 715.751C513.647 699.376 696 592.447 696 358.5Z" fill="url(#paint0_linear)"/>
<rect x="452" y="569" width="48" height="48" rx="8" fill="url(#paint1_linear)"/>
<rect x="119" y="206" width="24" height="24" rx="4" fill="url(#paint2_linear)"/>
<rect x="569" y="291" width="24" height="24" rx="4" fill="url(#paint3_linear)"/>
<rect x="524" y="553" width="24" height="24" rx="4" fill="url(#paint4_linear)"/>
<rect x="576" y="582" width="16" height="16" rx="4" fill="url(#paint5_linear)"/>
<rect x="34" y="593" width="24" height="24" rx="8" fill="url(#paint6_linear)"/>
<rect y="633" width="14" height="14" rx="4" fill="url(#paint7_linear)"/>
<rect x="581" y="254" width="14" height="14" rx="4" fill="url(#paint8_linear)"/>
<rect x="329" y="13" width="14" height="14" rx="4" fill="url(#paint9_linear)"/>
<rect x="597" y="213" width="6" height="6" rx="3" fill="url(#paint10_linear)"/>
<rect x="304" y="58" width="48" height="48" rx="8" fill="url(#paint11_linear)"/>
<defs>
<linearGradient id="paint0_linear" x1="642.892" y1="352" x2="379.367" y2="339.612" gradientUnits="userSpaceOnUse">
<stop stop-color="#F6F9FE"/>
<stop offset="1" stop-color="#F3F7FD" stop-opacity="0"/>
</linearGradient>
<linearGradient id="paint1_linear" x1="476" y1="630" x2="481.222" y2="538.297" gradientUnits="userSpaceOnUse">
<stop stop-color="#E5EEFE"/>
<stop offset="1" stop-color="#F3F7FD" stop-opacity="0"/>
</linearGradient>
<linearGradient id="paint2_linear" x1="131" y1="236.5" x2="133.611" y2="190.649" gradientUnits="userSpaceOnUse">
<stop stop-color="#E5EEFE"/>
<stop offset="1" stop-color="#F3F7FD" stop-opacity="0"/>
</linearGradient>
<linearGradient id="paint3_linear" x1="581" y1="321.5" x2="583.611" y2="275.649" gradientUnits="userSpaceOnUse">
<stop stop-color="#E5EEFE"/>
<stop offset="1" stop-color="#F3F7FD" stop-opacity="0"/>
</linearGradient>
<linearGradient id="paint4_linear" x1="536" y1="583.5" x2="538.611" y2="537.649" gradientUnits="userSpaceOnUse">
<stop stop-color="#E5EEFE"/>
<stop offset="1" stop-color="#F3F7FD" stop-opacity="0"/>
</linearGradient>
<linearGradient id="paint5_linear" x1="584" y1="602.333" x2="585.741" y2="571.766" gradientUnits="userSpaceOnUse">
<stop stop-color="#E5EEFE"/>
<stop offset="1" stop-color="#F3F7FD" stop-opacity="0"/>
</linearGradient>
<linearGradient id="paint6_linear" x1="46" y1="623.5" x2="48.611" y2="577.649" gradientUnits="userSpaceOnUse">
<stop stop-color="#E5EEFE"/>
<stop offset="1" stop-color="#F3F7FD" stop-opacity="0"/>
</linearGradient>
<linearGradient id="paint7_linear" x1="7" y1="650.792" x2="8.52305" y2="624.045" gradientUnits="userSpaceOnUse">
<stop stop-color="#E5EEFE"/>
<stop offset="1" stop-color="#F3F7FD" stop-opacity="0"/>
</linearGradient>
<linearGradient id="paint8_linear" x1="588" y1="271.792" x2="589.523" y2="245.045" gradientUnits="userSpaceOnUse">
<stop stop-color="#E5EEFE"/>
<stop offset="1" stop-color="#F3F7FD" stop-opacity="0"/>
</linearGradient>
<linearGradient id="paint9_linear" x1="336" y1="30.7917" x2="337.523" y2="4.04508" gradientUnits="userSpaceOnUse">
<stop stop-color="#E5EEFE"/>
<stop offset="1" stop-color="#F3F7FD" stop-opacity="0"/>
</linearGradient>
<linearGradient id="paint10_linear" x1="600" y1="220.625" x2="600.653" y2="209.162" gradientUnits="userSpaceOnUse">
<stop stop-color="#E5EEFE"/>
<stop offset="1" stop-color="#F3F7FD" stop-opacity="0"/>
</linearGradient>
<linearGradient id="paint11_linear" x1="328" y1="90" x2="340.851" y2="127.732" gradientUnits="userSpaceOnUse">
<stop stop-color="#E5EEFE"/>
<stop offset="1" stop-color="#F3F7FD" stop-opacity="0"/>
</linearGradient>
</defs>
</svg>
