<svg width="33" height="41" viewBox="0 0 33 41" fill="none" xmlns="http://www.w3.org/2000/svg">
<path opacity="0.5" d="M13.7747 33.7881C12.8533 33.8265 12.0756 33.1196 12.0376 32.2091C11.9996 31.2986 12.7157 30.5294 13.637 30.4909L17.2972 30.3382C18.2185 30.2997 18.9963 31.0066 19.0343 31.9171C19.0723 32.8276 18.3561 33.5968 17.4348 33.6353L13.7747 33.7881Z" fill="#E3775E"/>
<path opacity="0.5" d="M17.3276 37.0701L15.1215 37.1901C14.5649 37.1901 14.1095 36.5001 14.0488 35.6C14.0488 34.69 14.4435 33.93 15.0001 33.9L17.1961 33.78C17.7526 33.78 18.208 34.47 18.2688 35.37C18.3092 36.2801 17.8842 37.0001 17.3276 37.0701Z" fill="#E3775E"/>
<path opacity="0.5" d="M16.5603 36.31C16.563 36.3333 16.563 36.3568 16.5603 36.38C16.562 36.4 16.562 36.4201 16.5603 36.44C16.3197 36.8382 15.8953 37.0928 15.4268 37.12C14.6334 37.1366 13.9765 36.5144 13.9598 35.7303C13.9596 35.7202 13.9595 35.7101 13.9595 35.7V35.39C13.9292 34.7277 14.3397 34.1233 14.9714 33.9L14.8905 33.52C14.6897 33.644 14.4592 33.713 14.2226 33.72C13.3908 33.7593 12.6842 33.1248 12.6444 32.3028C12.6442 32.2985 12.644 32.2943 12.6439 32.29V32L12.6439 32C12.6097 31.1778 13.2565 30.4838 14.0886 30.4501C14.0894 30.45 14.0902 30.45 14.091 30.45H14.1517C14.9632 30.4491 15.6319 31.079 15.6697 31.88V32.19C15.6826 32.303 15.6826 32.417 15.6697 32.53C15.6221 33.1124 15.8283 33.6872 16.2364 34.11C16.3113 34.1927 16.3925 34.2696 16.4793 34.34C17.0094 34.8807 17.0443 35.7286 16.5603 36.31L16.5603 36.31Z" fill="#E3775E"/>
<path opacity="0.5" d="M13.7051 33.83H19.0585V33.83C19.9807 33.83 20.7283 34.5687 20.7283 35.48C20.7283 36.3913 19.9807 37.13 19.0585 37.13H13.7051" stroke="#E3775E" stroke-width="2" stroke-linecap="round" stroke-linejoin="round"/>
<path d="M16.813 39.6002C17.1371 39.9204 17.1371 40.4396 16.813 40.7598C16.489 41.0801 15.9636 41.0801 15.6395 40.7598C15.3155 40.4396 15.3155 39.9204 15.6395 39.6002C15.9636 39.2799 16.489 39.2799 16.813 39.6002Z" fill="#E3775E"/>
<path d="M19.0685 33.83H13.7049V33.83C12.7827 33.83 12.0352 33.0912 12.0352 32.18V32.18C12.0407 31.271 12.785 30.5355 13.7049 30.53H16.1843C16.1843 30.53 23.076 31.08 23.2682 24.4401" stroke="#E3775E" stroke-width="2" stroke-linecap="round" stroke-linejoin="round"/>
<path opacity="0.5" d="M20.3744 26.48C19.7782 26.5426 19.1753 26.4672 18.6136 26.26C17.6433 25.8724 16.9435 25.0184 16.7616 24L15.5371 17.83C15.5371 17.83 16.8021 16.46 16.9944 19.57V19.57C17.0574 20.5983 17.2827 21.6105 17.6623 22.57C17.8597 23.2624 18.2742 23.8751 18.8463 24.32L19.0588 24.42C19.566 24.5555 20.0883 24.2592 20.2255 23.758C20.2877 23.5309 20.2614 23.2889 20.1518 23.08C19.0791 20.93 20.5566 20.22 20.5566 20.22L21.5686 23.5C21.8064 23.5484 22.0103 23.6986 22.1252 23.91C22.9752 25.26 22.5704 26.26 20.3744 26.48L20.3744 26.48Z" fill="#E3775E"/>
<path opacity="0.5" d="M21.4368 18.24C21.4368 18.24 19.1496 19.76 20.2325 23.12C21.3153 26.48 23.147 24.59 23.147 24.59C21.6365 22.8368 21.008 20.5032 21.4368 18.24Z" fill="#E3775E"/>
<path opacity="0.5" d="M12.7342 14.15C12.7101 14.2471 12.6613 14.3366 12.5926 14.41C12.4708 14.5297 12.3087 14.6009 12.1372 14.61C11.702 14.6084 11.2874 14.4271 10.9936 14.11C10.6799 13.82 10.4269 13.46 10.0929 13.2C8.96961 12.3 7.21886 12.54 6.04495 11.69C5.49817 11.2512 5.09355 10.6637 4.88116 10C4.58628 9.21702 4.52309 8.36724 4.699 7.55005C4.8508 6.90006 5.36691 5.80007 6.22711 6.17007C6.51703 6.32133 6.7614 6.54555 6.93551 6.82006V6.82006C7.53885 7.64069 8.00364 8.55249 8.31182 9.52003C8.35333 9.69295 8.42899 9.85607 8.53446 10C8.64153 10.1119 8.76843 10.2034 8.90889 10.27L11.9449 11.91C12.0536 11.9639 12.1527 12.0348 12.2384 12.12C12.3185 12.2147 12.3803 12.3231 12.4205 12.44C12.5652 12.8063 12.6769 13.1844 12.7545 13.57C12.7879 13.7627 12.781 13.9601 12.7342 14.15Z" fill="#E3775E"/>
<path opacity="0.5" d="M6.06487 5.47007C6.06487 5.47007 6.81374 4.47007 7.80549 7.02006C8.17311 8.30628 9.52631 9.05448 10.8279 8.69122C10.9432 8.65904 11.056 8.61855 11.1653 8.57006C11.1653 8.57006 11.7624 8.66006 11.1653 9.34006C10.5682 10.0201 6.01427 12.0701 6.06487 5.47007L6.06487 5.47007Z" fill="#E3775E"/>
<path opacity="0.5" d="M1.76501 14.83C1.7949 14.7947 1.83313 14.7672 1.87633 14.75C2.17992 14.63 2.58472 15 2.71628 15.22V15.22C2.87829 15.573 3.01359 15.9373 3.12107 16.31C3.50563 17.23 4.46702 17.88 4.63906 18.85C4.77062 19.62 4.36582 20.42 4.51762 21.19C4.6998 21.9325 5.30595 22.5001 6.06596 22.64C6.82693 22.7509 7.60031 22.5445 8.20126 22.07C8.48979 21.805 8.81317 21.5797 9.16265 21.4C10.0836 21.04 10.4479 21.91 10.0431 22.6V22.6C9.6214 23.3118 9.03536 23.9148 8.33282 24.36C7.53729 24.9071 6.55438 25.1193 5.60045 24.9501C4.77987 24.7141 4.04777 24.2445 3.49551 23.6V23.6C3.2703 23.3874 3.08525 23.1368 2.94903 22.86C2.80482 22.1471 2.80482 21.413 2.94903 20.7V20.7C2.85389 19.6813 2.56188 18.6901 2.08885 17.78C1.77803 17.1043 1.61261 16.3722 1.60309 15.63C1.57903 15.3536 1.6352 15.0761 1.76501 14.83Z" fill="#E3775E"/>
<path opacity="0.5" d="M10.8328 2.84C10.67 3.15475 10.7963 3.54029 11.1148 3.70115C11.1939 3.7411 11.2805 3.76454 11.3692 3.77001C12.2496 3.91001 12.3811 2.39999 12.8669 2.35999C13.3527 2.31999 14.2736 1.70998 13.3628 1.49998C12.3364 1.46242 11.3694 1.97464 10.8328 2.84Z" fill="#E3775E"/>
<path opacity="0.5" d="M15.5993 16.62C15.5993 16.62 14.1623 15.56 14.3445 18.17V18.17C14.5215 19.6772 14.4909 21.201 14.2534 22.7C14.1635 23.3207 13.8847 23.8996 13.4539 24.36C12.8426 24.7926 12.014 24.7681 11.43 24.3C10.7823 23.93 10.1953 23.78 9.85127 24.6C9.21372 26.15 9.85127 27.15 12.2395 26.94H12.2395C13.6489 26.8112 14.901 25.9977 15.5791 24.77L15.5993 16.62Z" fill="#E3775E"/>
<path opacity="0.5" d="M18.4724 8.73998C18.4131 8.69539 18.3618 8.64131 18.3206 8.57998C18.2497 8.46998 18.2093 8.33998 18.1384 8.22998C17.7134 7.60997 17.3187 8.94999 17.3086 9.22999V9.22998C17.3212 9.95736 17.6229 10.6506 18.1485 11.16C18.5837 11.64 18.4521 11.87 18.4724 12.51C18.4724 12.88 18.6748 13.31 19.0492 13.36C19.2699 13.3795 19.4859 13.2896 19.626 13.12C19.7644 12.9495 19.8645 12.7518 19.9195 12.54V12.54C20.1613 11.5591 20.2467 10.5469 20.1725 9.53999C20.1897 9.42525 20.1095 9.31848 19.9934 9.3015C19.989 9.30086 19.9846 9.30035 19.9802 9.29998L18.9683 9.00998C18.7889 8.948 18.6212 8.85673 18.4724 8.73998L18.4724 8.73998Z" fill="#E3775E"/>
<path d="M5.802 7.94004V7.94004C5.59492 7.43141 5.48843 6.88828 5.48828 6.34004V6.34003C5.48828 4.02043 7.39122 2.14003 9.73864 2.14003V2.14003C10.0311 2.13993 10.3228 2.1701 10.6089 2.23003V2.23003C11.6336 0.876934 13.5743 0.600834 14.9436 1.61335C15.7269 2.19251 16.1871 3.10335 16.185 4.07004V23.8V23.8C16.2114 25.766 14.62 27.3809 12.6305 27.407C10.8543 27.4304 9.326 26.1709 9.03024 24.44V24.44C10.3295 23.706 11.1294 22.3389 11.1251 20.8601C11.1251 20.7501 11.1251 20.6501 11.1251 20.5501V20.5501C10.9844 18.7405 9.66751 17.2324 7.87658 16.8301" stroke="#E3775E" stroke-width="2" stroke-linecap="round" stroke-linejoin="round"/>
<path d="M5.80273 7.94001V7.94001C6.3572 9.27268 7.5643 10.2315 9.00061 10.48V10.48C9.24453 10.522 9.49179 10.5421 9.73936 10.54V10.54C11.8259 10.5362 13.6011 9.03625 13.929 7" stroke="#E3775E" stroke-width="2" stroke-linecap="round" stroke-linejoin="round"/>
<path d="M9.82031 10.54V10.54C11.5306 10.54 12.917 11.91 12.917 13.6" stroke="#E3775E" stroke-width="2" stroke-linecap="round" stroke-linejoin="round"/>
<path d="M7.87659 16.83V16.83C9.6711 17.2264 10.9909 18.7378 11.1251 20.5499C11.1251 20.6499 11.1251 20.7599 11.1251 20.8599V20.8599C11.1122 23.1408 9.23057 24.9795 6.92231 24.9668C4.97489 24.9561 3.29305 23.6177 2.86722 21.7399V21.7399C2.7207 21.1149 2.7207 20.465 2.86722 19.8399V19.8399C2.99287 19.3716 2.82121 18.8746 2.43206 18.5799V18.5799C1.54657 17.9326 1.02456 16.9084 1.02539 15.82V15.82C1.02813 15.1296 1.25124 14.4577 1.66294 13.9V13.9C1.86861 13.6233 2.11019 13.3745 2.38145 13.16V13.16C2.5203 13.0484 2.6656 12.9449 2.81661 12.85C2.93805 12.77 3.272 12.72 3.22141 12.52V12.52C3.00481 11.9457 2.87853 11.3421 2.84697 10.73V10.73C2.87717 10.2331 3.04139 9.75312 3.3226 9.34003" stroke="#E3775E" stroke-width="2" stroke-linecap="round" stroke-linejoin="round"/>
<path d="M7.87664 16.83H7.80664" stroke="#E3775E" stroke-width="2" stroke-linecap="round" stroke-linejoin="round"/>
<path d="M26.568 7.94006V7.94006C26.7751 7.43143 26.8816 6.88829 26.8817 6.34005C26.8817 4.02043 24.9788 2.14002 22.6314 2.14002V2.14002C22.3389 2.13991 22.0472 2.17008 21.7611 2.23002V2.23002C20.9917 1.2134 19.667 0.771756 18.4316 1.12001" stroke="#E3775E" stroke-width="2" stroke-linecap="round" stroke-linejoin="round"/>
<path d="M26.5686 7.94006V7.94006C26.0141 9.27271 24.807 10.2315 23.3707 10.48H23.3707C23.1268 10.522 22.8795 10.5421 22.6319 10.54V10.54C20.9075 10.5427 19.3523 9.51559 18.6953 7.94006" stroke="#E3775E" stroke-width="2" stroke-linecap="round" stroke-linejoin="round"/>
<path d="M22.5498 10.54V10.54C20.8396 10.54 19.4531 11.91 19.4531 13.6V13.6" stroke="#E3775E" stroke-width="2" stroke-linecap="round" stroke-linejoin="round"/>
<path d="M24.4926 16.83V16.83C22.6981 17.2265 21.3784 18.7378 21.2441 20.55C21.2441 20.65 21.2441 20.76 21.2441 20.86V20.86C21.257 23.1409 23.1386 24.9796 25.4469 24.9669C27.3943 24.9561 29.0761 23.6178 29.5019 21.74V21.74C29.6485 21.1149 29.6485 20.465 29.5019 19.84V19.84C29.3763 19.3717 29.5479 18.8747 29.9371 18.58V18.58C30.8226 17.9327 31.3446 16.9084 31.3437 15.82V15.82C31.341 15.1297 31.1179 14.4578 30.7062 13.9V13.9C30.5005 13.6234 30.259 13.3746 29.9877 13.1601V13.1601C29.8489 13.0485 29.7036 12.945 29.5525 12.8501C29.4311 12.7701 29.0972 12.7201 29.1478 12.5201V12.5201C29.3643 11.9458 29.4906 11.3421 29.5222 10.7301V10.7301C29.3861 9.27457 28.2303 8.11576 26.7595 7.96008H26.6077" stroke="#E3775E" stroke-width="2" stroke-linecap="round" stroke-linejoin="round"/>
<path d="M24.4941 16.83H24.5641" stroke="#E3775E" stroke-width="2" stroke-linecap="round" stroke-linejoin="round"/>
<path d="M27.4791 15.8302C27.8031 16.1505 27.8031 16.6696 27.4791 16.9898C27.155 17.31 26.6296 17.31 26.3055 16.9898C25.9815 16.6696 25.9815 16.1505 26.3055 15.8302C26.6296 15.51 27.155 15.51 27.4791 15.8302Z" fill="#E3775E"/>
</svg>
