<svg width="40" height="38" viewBox="0 0 40 38" fill="none" xmlns="http://www.w3.org/2000/svg">
<path opacity="0.5" d="M4.90827 2.87004C4.99666 3.0538 5.03503 3.25716 5.01959 3.46004C4.88651 4.47282 5.00459 5.50238 5.36367 6.46004C5.9875 7.33531 6.96699 7.89779 8.04544 8.00004H8.04544C9.11571 8.10439 10.1774 8.28147 11.2231 8.53003C12.8174 9.15873 14.1386 10.3192 14.9573 11.81H14.9573C16.3913 14.2899 17.2163 17.0677 17.3659 19.92V19.9199C17.3778 21.9149 17.6257 23.9017 18.1046 25.8399C18.7219 27.7399 20.2196 29.5199 22.2133 29.7899C23.2253 29.9199 24.4801 29.7899 24.9659 30.6499C25.2296 31.2551 25.0658 31.9594 24.5611 32.39C24.0747 32.8065 23.49 33.0954 22.861 33.23C21.4388 33.6375 19.9695 33.8626 18.4892 33.9C15.9408 33.9977 13.413 33.4138 11.1725 32.21C8.10535 30.3978 5.86483 27.4852 4.91839 24.08C4.00116 20.6872 4.04316 17.1109 5.03983 13.74C5.29453 13.286 5.1285 12.7138 4.66899 12.4622C4.64797 12.4507 4.62652 12.4399 4.60467 12.43C2.83369 11.13 1.11331 9.23003 1.28535 7.00003C1.35619 6.19003 3.5522 1.44004 4.80707 2.75004L4.90827 2.87004Z" fill="#5D30D6"/>
<path opacity="0.5" d="M2.29688 9.41004C2.3576 9.36004 2.51951 9.41004 2.82311 9.49004H2.82311C3.19982 9.57732 3.58178 9.64078 3.96666 9.68005C5.49606 9.77425 6.99599 9.23429 8.10569 8.19005C8.25749 8.04005 8.44976 7.87005 8.65216 7.92005C8.85456 7.97005 8.96588 8.32005 8.96588 8.58004C8.90516 12.27 7.2961 15.71 6.9419 19.37L6.9419 19.3701C6.73997 21.7766 7.19058 24.1928 8.24737 26.3701C9.32007 28.5501 11.2125 30.3701 11.7185 32.7701C11.8632 33.2904 11.8632 33.8397 11.7185 34.3601C11.4321 35.0726 10.8259 35.6124 10.0791 35.8201C9.34026 36.0188 8.566 36.053 7.81221 35.92C7.46658 35.9012 7.13488 35.7792 6.86094 35.5701C6.32459 35.0801 6.55735 34.2001 6.91154 33.5701C7.30071 32.9025 7.79231 32.2987 8.3688 31.7801C8.65216 31.5201 8.98612 31.3301 9.25935 31.0701C9.98799 30.4201 8.78372 29.3801 8.34857 28.7501L6.00075 25.33C5.59021 24.7947 5.25016 24.2101 4.98876 23.5901V23.59C4.67467 22.3581 4.60933 21.077 4.79648 19.82C4.8572 18.61 4.79648 17.39 4.79648 16.18C4.79648 14.97 4.92804 13.4601 6.00075 12.8C5.13833 12.4924 4.32148 12.072 3.57198 11.55C2.96457 11.1378 2.51538 10.5354 2.29688 9.84005C2.29687 9.57005 2.29688 9.45005 2.29688 9.41005L2.29688 9.41004Z" fill="#5D30D6"/>
<path d="M9.6438 8L9.6438 8C8.25234 9.21732 7.10561 10.6829 6.26367 12.3201" stroke="#5D30D6" stroke-width="2" stroke-linecap="round" stroke-linejoin="round"/>
<path d="M28.7808 30.83L28.7808 30.83C27.8164 31.6285 26.7518 32.3007 25.6133 32.83V32.83C23.0903 34.001 20.2851 34.448 17.5174 34.12H17.5174C14.6743 33.7938 11.9919 32.6459 9.80608 30.82V30.82C4.42797 26.4394 2.85775 18.9517 6.03138 12.82V12.82C2.89205 12.3539 0.729561 9.46115 1.20133 6.35902C1.6731 3.25688 4.60047 1.12 7.73979 1.58618C9.6522 1.87017 11.2919 3.08539 12.1033 4.82004V4.82004C12.4536 5.5782 13.3342 5.94368 14.1273 5.66004H14.1273C21.8197 2.79277 30.4079 6.63046 33.3095 14.2318C35.5691 20.1512 33.7454 26.8352 28.7808 30.83L28.7808 30.83Z" stroke="#5D30D6" stroke-width="2" stroke-linecap="round" stroke-linejoin="round"/>
<path d="M36.2088 11.25H36.2088C38.5383 9.07849 38.6454 5.45201 36.4478 3.15004C34.2503 0.848074 30.5803 0.742314 28.2508 2.91382C28.1688 2.99025 28.0891 3.06902 28.0117 3.15003" stroke="#5D30D6" stroke-width="2" stroke-linecap="round" stroke-linejoin="round"/>
<path d="M25.5723 32.8L28.8106 36.0001V36.0001C29.526 36.7042 30.6837 36.702 31.3963 35.9951C32.1089 35.2881 32.1066 34.1442 31.3912 33.4401" stroke="#5D30D6" stroke-width="2" stroke-linecap="round" stroke-linejoin="round"/>
<path d="M12.9533 32.79L9.69474 36.0001V36.0001C8.97935 36.7042 7.82173 36.702 7.10914 35.9951C6.39654 35.2881 6.39881 34.1442 7.1142 33.44L9.80606 30.78V30.78C10.763 31.5814 11.8208 32.2571 12.9533 32.79H12.9533Z" stroke="#5D30D6" stroke-width="2" stroke-linecap="round" stroke-linejoin="round"/>
<path d="M20.1597 8.23955C20.5233 8.59882 20.5233 9.18132 20.1597 9.5406C19.7961 9.89988 19.2066 9.89988 18.843 9.5406C18.4794 9.18133 18.4794 8.59883 18.843 8.23955C19.2066 7.88027 19.7961 7.88027 20.1597 8.23955Z" fill="#5D30D6"/>
<path d="M9.94869 18.3795C10.3123 18.7388 10.3123 19.3213 9.94869 19.6806C9.58511 20.0398 8.99564 20.0398 8.63206 19.6806C8.26848 19.3213 8.26848 18.7388 8.63206 18.3795C8.99564 18.0202 9.58511 18.0202 9.94869 18.3795Z" fill="#5D30D6"/>
<path d="M20.2105 28.4595C20.5741 28.8188 20.5741 29.4013 20.2105 29.7606C19.8469 30.1198 19.2574 30.1198 18.8938 29.7606C18.5302 29.4013 18.5302 28.8188 18.8938 28.4595C19.2574 28.1002 19.8469 28.1002 20.2105 28.4595Z" fill="#5D30D6"/>
<path d="M30.4213 18.3195C30.7849 18.6788 30.7849 19.2614 30.4213 19.6207C30.0578 19.98 29.4683 19.98 29.1047 19.6207C28.7411 19.2614 28.7411 18.6788 29.1047 18.3195C29.4683 17.9602 30.0578 17.9602 30.4213 18.3195Z" fill="#5D30D6"/>
<path d="M19.5 12.3301V19H25.0052" stroke="#5D30D6" stroke-width="2" stroke-linecap="round" stroke-linejoin="round"/>
<path d="M19.5008 19L13.0039 25.42" stroke="#5D30D6" stroke-width="2" stroke-linecap="round" stroke-linejoin="round"/>
</svg>
