<svg width="42" height="41" viewBox="0 0 42 41" fill="none" xmlns="http://www.w3.org/2000/svg">
<path opacity="0.2" d="M28.1038 35.82C28.8324 35.99 28.1038 36.91 27.8811 37.17C26.8015 38.1471 25.5401 38.9078 24.1671 39.41C22.5462 40.0006 20.8347 40.3118 19.1072 40.33C15.3608 40.5334 11.6288 39.7281 8.30932 38C7.5631 37.4983 6.71831 37.1576 5.82996 37C4.83772 37.0085 3.86734 37.2889 3.02676 37.81C2.82305 37.9357 2.58882 38.0047 2.34873 38.01C2.22294 37.9914 2.10247 37.9471 1.99509 37.8798C1.8877 37.8124 1.79578 37.7236 1.72523 37.619C1.65469 37.5145 1.60708 37.3965 1.58549 37.2726C1.5639 37.1488 1.56879 37.0218 1.59986 36.9C1.71891 36.4359 1.97628 36.0178 2.33861 35.7C2.93314 35.0914 3.56878 34.5235 4.24114 34C4.94507 33.3171 5.87712 32.9117 6.86218 32.86C7.75907 33.0038 8.59515 33.3995 9.27071 34C12.1852 36.06 15.5248 37.95 19.1072 37.75C20.7987 37.6367 22.4739 37.3519 24.1064 36.9C24.9261 36.68 25.7357 36.44 26.5453 36.18C27.0326 35.9507 27.5641 35.8279 28.1038 35.82Z" fill="#27AE60"/>
<path d="M31.2617 32.82C31.4504 32.628 31.6761 32.4753 31.9255 32.3711C32.1749 32.2668 32.443 32.2131 32.7138 32.2131C32.9846 32.2131 33.2527 32.2668 33.5021 32.3711C33.7516 32.4753 33.9773 32.628 34.1659 32.82V32.82C34.3602 33.0064 34.5147 33.2295 34.6202 33.476C34.7257 33.7225 34.78 33.9874 34.78 34.255C34.78 34.5227 34.7257 34.7876 34.6202 35.0341C34.5147 35.2806 34.3602 35.5036 34.1659 35.6901" stroke="#27AE60" stroke-width="2" stroke-linecap="round" stroke-linejoin="round"/>
<path d="M1.31641 34.61L1.48844 34.44L8.12709 27.89C8.51976 27.4933 8.98284 27.1713 9.49328 26.94C10.0313 26.683 10.6166 26.5367 11.2137 26.51C11.318 26.5001 11.423 26.5001 11.5274 26.51H21.8395C22.3505 26.5385 22.8297 26.764 23.1742 27.138C23.5186 27.512 23.7007 28.0047 23.6814 28.51C23.7119 29.0558 23.5228 29.5915 23.1551 30C22.9954 30.186 22.7971 30.3358 22.5736 30.4393C22.3501 30.5429 22.1066 30.5977 21.8598 30.6H12.8936" stroke="#27AE60" stroke-width="2" stroke-linecap="round" stroke-linejoin="round"/>
<path d="M31.2915 32.7901C30.4619 33.8776 29.4319 34.8005 28.2556 35.5101C26.5699 36.5457 24.6239 37.0931 22.639 37.0901H22.3354C20.2696 37.036 18.2641 36.3901 16.5627 35.2309C14.8614 34.0716 13.5375 32.4489 12.752 30.5601" stroke="#27AE60" stroke-width="2" stroke-linecap="round" stroke-linejoin="round"/>
<path opacity="0.2" d="M36.9189 19.14V19.39C36.8884 20.8996 36.3856 22.3628 35.4796 23.5786C34.5736 24.7945 33.3088 25.7032 31.859 26.18C31.2045 26.3905 30.5231 26.5083 29.8351 26.53H29.2279L27.4569 26.1C26.9261 25.5177 26.3001 25.0275 25.605 24.65C24.421 23.86 23.156 22.65 22.569 19.02C22.569 18.94 22.4071 19.02 22.3262 19.02C22.3545 18.3401 22.477 17.6671 22.6905 17.0201C23.1741 15.5932 24.0933 14.3495 25.3216 13.4601L25.433 13.3801C26.6192 12.5517 28.0287 12.0921 29.4809 12.0601H29.6327C31.538 12.08 33.3613 12.8287 34.7199 14.1488C36.0785 15.469 36.8667 17.2579 36.9189 19.14Z" fill="#27AE60"/>
<path d="M23.1348 19C23.1348 16.7457 24.041 14.5837 25.6542 12.9896C27.2674 11.3955 29.4553 10.5 31.7366 10.5C34.018 10.5 36.2059 11.3955 37.8191 12.9896C39.4322 14.5837 40.3385 16.7457 40.3385 19" stroke="#27AE60" stroke-width="2" stroke-linecap="round" stroke-linejoin="round"/>
<path d="M40.3385 19C40.3385 21.2543 39.4322 23.4163 37.8191 25.0104C36.2059 26.6045 34.018 27.5 31.7366 27.5C29.4553 27.5 27.2674 26.6045 25.6542 25.0104C24.041 23.4163 23.1348 21.2543 23.1348 19" stroke="#27AE60" stroke-width="2" stroke-linecap="round" stroke-linejoin="round"/>
<path d="M31.7367 19C31.3704 19 31.0124 18.8927 30.7078 18.6916C30.4033 18.4905 30.1659 18.2047 30.0257 17.8703C29.8856 17.5359 29.8489 17.168 29.9204 16.813C29.9918 16.458 30.1682 16.1319 30.4272 15.876C30.6862 15.62 31.0162 15.4457 31.3754 15.3751C31.7346 15.3045 32.107 15.3408 32.4454 15.4793C32.7838 15.6178 33.073 15.8523 33.2765 16.1533C33.48 16.4542 33.5886 16.808 33.5886 17.17" stroke="#27AE60" stroke-width="2" stroke-linecap="round" stroke-linejoin="round"/>
<path d="M31.7368 22.65C31.2456 22.65 30.7745 22.4572 30.4272 22.114C30.0799 21.7709 29.8848 21.3054 29.8848 20.8201" stroke="#27AE60" stroke-width="2" stroke-linecap="round" stroke-linejoin="round"/>
<path d="M31.7363 19C32.2289 19 32.7013 19.1933 33.0496 19.5375C33.3978 19.8816 33.5935 20.3483 33.5935 20.835C33.5935 21.3217 33.3978 21.7884 33.0496 22.1326C32.7013 22.4767 32.2289 22.67 31.7363 22.67" stroke="#27AE60" stroke-width="2" stroke-linecap="round" stroke-linejoin="round"/>
<path d="M31.7363 15.3201V13.6901" stroke="#27AE60" stroke-width="2" stroke-linecap="round" stroke-linejoin="round"/>
<path d="M31.7363 24.28V22.65" stroke="#27AE60" stroke-width="2" stroke-linecap="round" stroke-linejoin="round"/>
<path d="M32.041 6.65002V1.65002" stroke="#27AE60" stroke-width="2" stroke-linecap="round" stroke-linejoin="round"/>
<path d="M21.8895 9.47998L17.3457 4.98999" stroke="#27AE60" stroke-width="2" stroke-linecap="round" stroke-linejoin="round"/>
<path d="M18.3585 18.65H12.8125" stroke="#27AE60" stroke-width="2" stroke-linecap="round" stroke-linejoin="round"/>
</svg>
