<svg width="16" height="16" viewBox="0 0 16 16" fill="none" xmlns="http://www.w3.org/2000/svg">
<path d="M9.62 7.44C9.62 6.50667 9.20667 6.04 8.38 6.04C7.83333 6.04 7.39333 6.26 7.06 6.7C6.74 7.14 6.58 7.71333 6.58 8.42C6.58 8.9 6.7 9.26667 6.94 9.52C7.19333 9.76 7.52 9.88 7.92 9.88C8.45333 9.88 8.86667 9.64 9.16 9.16C9.46667 8.68 9.62 8.10667 9.62 7.44ZM12.32 12.1H14.66C13.9667 13.1267 13.0533 13.9333 11.92 14.52C10.7867 15.1067 9.57333 15.4 8.28 15.4C5.98667 15.4 4.16667 14.7133 2.82 13.34C1.47333 11.98 0.8 10.2067 0.8 8.02C0.8 5.84667 1.52667 4.04 2.98 2.6C4.43333 1.14667 6.24 0.42 8.4 0.42C10.52 0.42 12.24 1.00667 13.56 2.18C14.8933 3.34 15.56 4.85333 15.56 6.72C15.56 8.28 15.1333 9.49333 14.28 10.36C13.44 11.2133 12.4867 11.64 11.42 11.64C10.54 11.64 9.92 11.34 9.56 10.74C9.06667 11.34 8.38667 11.64 7.52 11.64C6.6 11.64 5.86 11.3533 5.3 10.78C4.75333 10.2067 4.48 9.42667 4.48 8.44C4.48 7.26667 4.79333 6.26667 5.42 5.44C6.04667 4.6 6.89333 4.18 7.96 4.18C8.96 4.18 9.68667 4.5 10.14 5.14L10.3 4.46H12.14L11.24 8.92C11.2133 9.02667 11.2 9.11333 11.2 9.18C11.2 9.38 11.2533 9.55333 11.36 9.7C11.48 9.83333 11.64 9.9 11.84 9.9C12.36 9.9 12.8 9.61333 13.16 9.04C13.52 8.46667 13.7 7.72667 13.7 6.82C13.7 5.31333 13.2 4.16667 12.2 3.38C11.2133 2.59333 9.92667 2.2 8.34 2.2C6.7 2.2 5.37333 2.74 4.36 3.82C3.34667 4.88667 2.84 6.27333 2.84 7.98C2.84 9.74 3.34 11.12 4.34 12.12C5.35333 13.12 6.71333 13.62 8.42 13.62C9.14 13.62 9.85333 13.4733 10.56 13.18C11.28 12.9 11.8667 12.54 12.32 12.1Z" fill="#8FD39D"/>
</svg>
