<svg width="1394" height="392" viewBox="0 0 1394 392" fill="none" xmlns="http://www.w3.org/2000/svg">
<path d="M1367.79 0H781.489C748.686 0 718.041 16.3536 699.781 43.6045L699.38 44.2023C698.021 46.23 695.028 46.1976 693.714 44.1409C676.136 16.6406 645.751 0 613.113 0H12.3509C8.29359 0 6.26495 0 4.6858 0.718787C2.92795 1.51891 1.51891 2.92795 0.718787 4.6858C0 6.26495 0 8.2936 0 12.3509C0 123.926 0 179.714 19.7666 223.141C41.77 271.481 80.5187 310.23 128.859 332.233C172.286 352 228.074 352 339.649 352H591.868C604.421 352 610.697 352 616.787 352.623C635.809 354.569 654.09 361.032 670.108 371.474C675.236 374.817 680.172 378.806 690.044 386.783L690.044 386.783C691.341 387.831 691.99 388.355 692.633 388.705C695.038 390.009 697.942 389.995 700.333 388.666C700.974 388.31 701.61 387.786 702.882 386.736C711.633 379.519 716.008 375.911 720.572 372.804C737.384 361.359 756.83 354.374 777.082 352.507C782.58 352 788.251 352 799.594 352H1064.21C1206.73 352 1278 352 1326.31 313.145C1336.19 305.192 1345.19 296.193 1353.15 286.305C1392 237.996 1392 166.734 1392 24.2116C1392 13.6844 1392 8.42076 1389.13 4.85247C1388.54 4.12209 1387.88 3.45739 1387.15 2.86996C1383.58 0 1378.32 0 1367.79 0Z" fill="url(#paint0_linear)"/>
<path opacity="0.2" d="M3.03516 11.4238C3.03033 10.1295 3.02792 9.48233 3.10049 8.93963C3.57734 5.37373 6.37586 2.56475 9.93996 2.0746C10.4824 2 11.1296 2 12.4239 2H478.511C582.22 2 634.075 2 666.293 34.2183C698.511 66.4365 698.511 118.291 698.511 222V354C698.511 354 690 273.157 649 270C626.358 268.257 432.021 268.439 262.526 268.952C226.727 269.06 208.828 269.114 193.947 267.119C96.0384 253.994 19.1162 177.59 5.33009 79.7721C3.23472 64.9047 3.1682 47.0777 3.03516 11.4238Z" fill="url(#paint1_linear)"/>
<path opacity="0.2" d="M3 140.154C3 140.011 3 139.939 3.00092 139.879C3.06646 135.555 6.55538 132.066 10.8787 132.001C10.9394 132 11.011 132 11.1544 132H477.42C582.24 132 634.649 132 666.944 164.673C699.238 197.346 698.627 249.753 697.405 354.565L697.169 374.761C697.078 382.621 697.032 386.55 694.532 388.885C692.032 391.219 688.108 390.995 680.261 390.549L214.503 364.038C210.763 363.826 208.894 363.719 207.29 363.604C93.4105 355.452 4.69157 261.539 3.02348 147.38C3 145.773 3 143.9 3 140.154Z" fill="url(#paint2_linear)"/>
<path opacity="0.2" d="M1393.96 11.4238C1393.97 10.1295 1393.97 9.48233 1393.9 8.93963C1393.42 5.37373 1390.62 2.56475 1387.06 2.0746C1386.52 2 1385.87 2 1384.58 2H918.489C814.78 2 762.925 2 730.707 34.2183C698.489 66.4365 698.489 118.291 698.489 222V354C698.489 354 707 273.157 748 270C770.642 268.257 964.979 268.439 1134.47 268.952C1170.27 269.06 1188.17 269.114 1203.05 267.119C1300.96 253.994 1377.88 177.59 1391.67 79.7721C1393.77 64.9047 1393.83 47.0777 1393.96 11.4238Z" fill="url(#paint3_linear)"/>
<path opacity="0.2" d="M1389 140.134C1389 140.01 1389 139.948 1389 139.895C1388.94 135.559 1385.44 132.058 1381.1 132.001C1381.05 132 1380.99 132 1380.87 132H918C814.291 132 762.437 132 730.218 164.218C698 196.437 698 248.291 698 352V372.608C698 380.533 698 384.496 700.499 386.862C702.997 389.229 706.954 389.014 714.867 388.585L1177.45 363.481C1180.69 363.305 1182.31 363.217 1183.7 363.124C1298.17 355.456 1387.53 261.116 1388.98 146.403C1389 145.009 1389 143.384 1389 140.134Z" fill="url(#paint4_linear)"/>
<defs>
<linearGradient id="paint0_linear" x1="696" y1="0" x2="696" y2="392" gradientUnits="userSpaceOnUse">
<stop stop-color="#F2994A"/>
<stop offset="1" stop-color="#F24A7C"/>
</linearGradient>
<linearGradient id="paint1_linear" x1="522.466" y1="-38.8002" x2="-81.8722" y2="78.218" gradientUnits="userSpaceOnUse">
<stop stop-color="white"/>
<stop offset="1" stop-color="white" stop-opacity="0"/>
</linearGradient>
<linearGradient id="paint2_linear" x1="693.216" y1="483" x2="202.967" y2="384.896" gradientUnits="userSpaceOnUse">
<stop stop-color="white"/>
<stop offset="1" stop-color="white" stop-opacity="0"/>
</linearGradient>
<linearGradient id="paint3_linear" x1="874.534" y1="-38.8002" x2="1478.87" y2="78.218" gradientUnits="userSpaceOnUse">
<stop stop-color="white"/>
<stop offset="1" stop-color="white" stop-opacity="0"/>
</linearGradient>
<linearGradient id="paint4_linear" x1="704.726" y1="483" x2="1191.08" y2="386.514" gradientUnits="userSpaceOnUse">
<stop stop-color="white"/>
<stop offset="1" stop-color="white" stop-opacity="0"/>
</linearGradient>
</defs>
</svg>
