<svg width="32" height="32" viewBox="0 0 32 32" fill="none" xmlns="http://www.w3.org/2000/svg">
<path fill-rule="evenodd" clip-rule="evenodd" d="M24.166 5.33325C23.3376 5.33325 22.666 6.00482 22.666 6.83325V26.4999C22.666 27.3283 23.3376 27.9999 24.166 27.9999C24.9944 27.9999 25.666 27.3283 25.666 26.4999V6.83325C25.666 6.00482 24.9944 5.33325 24.166 5.33325ZM14.666 12.1666C14.666 11.3382 15.3376 10.6666 16.166 10.6666C16.9944 10.6666 17.666 11.3382 17.666 12.1666V26.4999C17.666 27.3283 16.9944 27.9999 16.166 27.9999C15.3376 27.9999 14.666 27.3283 14.666 26.4999V12.1666ZM6.66602 17.4999C6.66602 16.6715 7.33759 15.9999 8.16602 15.9999C8.99444 15.9999 9.66602 16.6715 9.66602 17.4999V26.4999C9.66602 27.3283 8.99444 27.9999 8.16602 27.9999C7.33759 27.9999 6.66602 27.3283 6.66602 26.4999V17.4999Z" fill="#6D6DF6"/>
</svg>
