<svg width="21" height="12" viewBox="0 0 21 12" fill="none" xmlns="http://www.w3.org/2000/svg">
<path d="M1.50051 12H3.00051V11.9625C3.00051 11.7636 3.07952 11.5728 3.22018 11.4322C3.36083 11.2915 3.55159 11.2125 3.7505 11.2125C3.94942 11.2125 4.14018 11.2915 4.28084 11.4322C4.42149 11.5728 4.5005 11.7636 4.5005 11.9625V12H19.5005C19.8983 12 20.2799 11.842 20.5612 11.5607C20.8425 11.2794 21.0005 10.8978 21.0005 10.5V8.83125C21.0077 8.52436 20.938 8.22054 20.7979 7.94744C20.6577 7.67433 20.4515 7.4406 20.198 7.2675C19.9851 7.13204 19.8097 6.94503 19.6883 6.7238C19.5668 6.50257 19.5031 6.25426 19.5031 6.00188C19.5031 5.74949 19.5668 5.50118 19.6883 5.27995C19.8097 5.05872 19.9851 4.87171 20.198 4.73625C20.4521 4.56281 20.6586 4.32847 20.7988 4.05466C20.939 3.78084 21.0083 3.47627 21.0005 3.16875V1.5C21.0005 1.10218 20.8425 0.720645 20.5612 0.43934C20.2799 0.158036 19.8983 0 19.5005 0H4.5005V0.0375001C4.5005 0.236413 4.42149 0.427178 4.28084 0.56783C4.14018 0.708482 3.94942 0.7875 3.7505 0.7875C3.55159 0.7875 3.36083 0.708482 3.22018 0.56783C3.07952 0.427178 3.00051 0.236413 3.00051 0.0375001V0H1.50051C1.10268 0 0.72115 0.158036 0.439845 0.43934C0.158541 0.720645 0.000505576 1.10218 0.000505576 1.5V3.1725C-0.00668697 3.47939 0.0629627 3.7832 0.203119 4.05631C0.343275 4.32942 0.54949 4.56315 0.803005 4.73625C1.01596 4.87171 1.19128 5.05872 1.31275 5.27995C1.43422 5.50118 1.4979 5.74949 1.4979 6.00188C1.4979 6.25426 1.43422 6.50257 1.31275 6.7238C1.19128 6.94503 1.01596 7.13204 0.803005 7.2675C0.54949 7.4406 0.343275 7.67433 0.203119 7.94744C0.0629627 8.22054 -0.00668697 8.52436 0.000505576 8.83125V10.5C0.000505576 10.8978 0.158541 11.2794 0.439845 11.5607C0.72115 11.842 1.10268 12 1.50051 12ZM14.2205 9C14.0722 9 13.9272 8.95601 13.8038 8.8736C13.6805 8.79119 13.5844 8.67406 13.5276 8.53701C13.4708 8.39997 13.456 8.24917 13.4849 8.10368C13.5139 7.9582 13.5853 7.82456 13.6902 7.71967C13.7951 7.61478 13.9287 7.54335 14.0742 7.51441C14.2197 7.48547 14.3705 7.50032 14.5075 7.55709C14.6446 7.61386 14.7617 7.70999 14.8441 7.83332C14.9265 7.95666 14.9705 8.10166 14.9705 8.25C14.9705 8.34881 14.951 8.44664 14.9131 8.53788C14.8751 8.62912 14.8195 8.71197 14.7495 8.78166C14.6795 8.85135 14.5963 8.90652 14.5049 8.94399C14.4135 8.98146 14.3156 9.00049 14.2168 9H14.2205ZM14.753 3.25125C14.8227 3.3209 14.8781 3.40362 14.9158 3.49467C14.9535 3.58572 14.973 3.68331 14.973 3.78187C14.973 3.88044 14.9535 3.97803 14.9158 4.06908C14.8781 4.16013 14.8227 4.24285 14.753 4.3125L10.283 8.76C10.1423 8.90073 9.9514 8.97979 9.75238 8.97979C9.55336 8.97979 9.36248 8.90073 9.22175 8.76C9.08102 8.61927 9.00196 8.4284 9.00196 8.22937C9.00196 8.03035 9.08102 7.83948 9.22175 7.69875L13.688 3.23625C13.7577 3.16652 13.8404 3.1112 13.9314 3.07346C14.0225 3.03571 14.1201 3.01628 14.2186 3.01628C14.3172 3.01628 14.4148 3.03571 14.5058 3.07346C14.5969 3.1112 14.6796 3.16652 14.7493 3.23625L14.753 3.25125ZM9.7505 3C9.89884 3 10.0438 3.04399 10.1672 3.1264C10.2905 3.20881 10.3866 3.32594 10.4434 3.46299C10.5002 3.60003 10.515 3.75083 10.4861 3.89632C10.4572 4.0418 10.3857 4.17544 10.2808 4.28033C10.1759 4.38522 10.0423 4.45665 9.89682 4.48559C9.75134 4.51453 9.60054 4.49968 9.46349 4.44291C9.32645 4.38614 9.20931 4.29001 9.1269 4.16668C9.04449 4.04334 9.0005 3.89834 9.0005 3.75C9.0005 3.55109 9.07952 3.36032 9.22017 3.21967C9.36083 3.07902 9.55159 3 9.7505 3ZM3.00051 2.9625C3.00051 2.76359 3.07952 2.57282 3.22018 2.43217C3.36083 2.29152 3.55159 2.2125 3.7505 2.2125C3.94942 2.2125 4.14018 2.29152 4.28084 2.43217C4.42149 2.57282 4.5005 2.76359 4.5005 2.9625V3.0375C4.5005 3.23641 4.42149 3.42718 4.28084 3.56783C4.14018 3.70848 3.94942 3.7875 3.7505 3.7875C3.55159 3.7875 3.36083 3.70848 3.22018 3.56783C3.07952 3.42718 3.00051 3.23641 3.00051 3.0375V2.9625ZM3.00051 5.9625C3.00051 5.76359 3.07952 5.57282 3.22018 5.43217C3.36083 5.29152 3.55159 5.2125 3.7505 5.2125C3.94942 5.2125 4.14018 5.29152 4.28084 5.43217C4.42149 5.57282 4.5005 5.76359 4.5005 5.9625V6.0375C4.5005 6.23641 4.42149 6.42718 4.28084 6.56783C4.14018 6.70848 3.94942 6.7875 3.7505 6.7875C3.55159 6.7875 3.36083 6.70848 3.22018 6.56783C3.07952 6.42718 3.00051 6.23641 3.00051 6.0375V5.9625ZM3.00051 8.9625C3.00051 8.76359 3.07952 8.57282 3.22018 8.43217C3.36083 8.29152 3.55159 8.2125 3.7505 8.2125C3.94942 8.2125 4.14018 8.29152 4.28084 8.43217C4.42149 8.57282 4.5005 8.76359 4.5005 8.9625V9.0375C4.5005 9.23641 4.42149 9.42718 4.28084 9.56783C4.14018 9.70848 3.94942 9.7875 3.7505 9.7875C3.55159 9.7875 3.36083 9.70848 3.22018 9.56783C3.07952 9.42718 3.00051 9.23641 3.00051 9.0375V8.9625Z" fill="#6D6DF6"/>
</svg>
