<svg width="32" height="32" viewBox="0 0 32 32" fill="none" xmlns="http://www.w3.org/2000/svg">
<path d="M7.38091 13.1666C7.65077 13.3571 8.46424 13.9226 9.82135 14.8631C11.1785 15.8035 12.2182 16.5276 12.9404 17.0355C13.0198 17.0911 13.1883 17.2121 13.4462 17.3986C13.7042 17.5853 13.9185 17.7361 14.089 17.8511C14.2597 17.9661 14.466 18.0951 14.7082 18.238C14.9503 18.3806 15.1785 18.488 15.3928 18.559C15.6071 18.6307 15.8055 18.6661 15.988 18.6661H16H16.012C16.1945 18.6661 16.393 18.6306 16.6073 18.559C16.8215 18.488 17.0499 18.3805 17.2918 18.238C17.5338 18.095 17.7401 17.9661 17.9108 17.8511C18.0815 17.7361 18.2956 17.5853 18.5536 17.3986C18.8115 17.212 18.9803 17.0911 19.0596 17.0355C19.7897 16.5276 21.647 15.2379 24.631 13.1664C25.2103 12.7618 25.6943 12.2736 26.0832 11.7022C26.4723 11.1309 26.6666 10.5317 26.6666 9.9048C26.6666 9.38092 26.478 8.93247 26.101 8.55949C25.724 8.18643 25.2775 8 24.7618 8H7.23801C6.62694 8 6.15668 8.20632 5.82732 8.61895C5.49799 9.03167 5.33333 9.54754 5.33333 10.1665C5.33333 10.6665 5.55166 11.2083 5.9881 11.7916C6.4245 12.375 6.88892 12.8334 7.38091 13.1666Z" fill="#C9CBD4"/>
<path d="M25.476 14.4403C22.8731 16.2021 20.8967 17.5712 19.5476 18.5475C19.0953 18.8807 18.7283 19.1408 18.4465 19.3272C18.1646 19.5137 17.7898 19.7042 17.3215 19.8986C16.8533 20.0932 16.417 20.1902 16.0122 20.1902H16H15.9881C15.5833 20.1902 15.1467 20.0932 14.6786 19.8986C14.2104 19.7042 13.8353 19.5137 13.5536 19.3272C13.2719 19.1408 12.9048 18.8807 12.4525 18.5475C11.381 17.7619 9.4088 16.3926 6.53583 14.4403C6.08334 14.1389 5.68254 13.7935 5.33333 13.4047V22.8568C5.33333 23.3809 5.51976 23.8291 5.89282 24.2021C6.2658 24.5753 6.7143 24.7618 7.23814 24.7618H24.762C25.2857 24.7618 25.7342 24.5753 26.1072 24.2021C26.4803 23.829 26.6667 23.3809 26.6667 22.8568V13.4047C26.3253 13.7854 25.9286 14.1309 25.476 14.4403Z" fill="#C9CBD4"/>
</svg>
