<svg width="12" height="12" viewBox="0 0 12 12" fill="none" xmlns="http://www.w3.org/2000/svg">
<path d="M6 0H6C2.68629 1.44847e-07 0 2.68629 0 6C1.44847e-07 9.31371 2.68629 12 6 12C9.31371 12 12 9.31371 12 6C12 2.68629 9.31371 3.06538e-07 6 3.06538e-07L6 0ZM5.14286 2.57143C5.14286 2.09804 5.52661 1.71429 6 1.71429C6.47339 1.71429 6.85714 2.09804 6.85714 2.57143C6.85714 3.04482 6.47339 3.42857 6 3.42857C5.52661 3.42857 5.14286 3.04482 5.14286 2.57143ZM7.71429 9.85714C7.71429 10.0938 7.52241 10.2857 7.28571 10.2857H4.71429C4.47759 10.2857 4.28571 10.0938 4.28571 9.85714C4.28571 9.62045 4.47759 9.42857 4.71429 9.42857C4.95098 9.42857 5.14286 9.23669 5.14286 9V5.57143C5.14286 5.33473 4.95098 5.14286 4.71429 5.14286C4.47759 5.14286 4.28571 4.95098 4.28571 4.71429C4.28571 4.47759 4.47759 4.28571 4.71429 4.28571H5.14286H6.42857C6.66527 4.28571 6.85714 4.47759 6.85714 4.71429V9C6.85714 9.23669 7.04902 9.42857 7.28571 9.42857C7.52241 9.42857 7.71429 9.62045 7.71429 9.85714Z" fill="#656A84"/>
</svg>
