<svg width="32" height="32" viewBox="0 0 32 32" fill="none" xmlns="http://www.w3.org/2000/svg">
    <mask id="mask0" mask-type="alpha" maskUnits="userSpaceOnUse" x="0" y="0" width="32" height="32">
        <rect width="32" height="32" fill="#C4C4C4"/>
    </mask>
    <g mask="url(#mask0)">
        <rect x="26" y="21.0005" width="2" height="6" rx="1" fill="#7C8A95"/>
        <rect x="30" y="23" width="2" height="6" rx="1" transform="rotate(90 30 23)" fill="#7C8A95"/>
        <g opacity="0.5">
            <rect x="16.9999" y="24.9995" width="2" height="6" rx="1" fill="#BDC6CF"/>
            <rect x="20.9998" y="27" width="2" height="6" rx="1" transform="rotate(90 20.9998 27)" fill="#BDC6CF"/>
        </g>
        <path d="M14.1991 15.4035C14.9801 14.6224 16.2464 14.6224 17.0275 15.4035C17.8085 16.1845 17.8085 17.4509 17.0275 18.2319L6.24209 29.0173C5.46104 29.7984 4.19471 29.7984 3.41366 29.0173C2.63261 28.2363 2.63261 26.9699 3.41366 26.1889L14.1991 15.4035Z" fill="#BDC6CF"/>
        <path fill-rule="evenodd" clip-rule="evenodd" d="M18.9671 18.092L18.4376 17.0869C18.344 16.9093 18.2243 16.7468 18.0823 16.6049L15.3951 13.9176C15.2531 13.7757 15.0906 13.6559 14.9131 13.5624L13.908 13.0328C12.675 12.3833 12.675 10.6177 13.908 9.96818C14.6459 9.57941 15.0019 8.71988 14.755 7.92317C14.3425 6.59207 15.591 5.34363 16.9221 5.75613C17.7188 6.00303 18.5783 5.64701 18.9671 4.90906C19.6166 3.67615 21.3822 3.67615 22.0318 4.90906C22.4205 5.64701 23.2801 6.00303 24.0768 5.75613C25.4079 5.34363 26.6563 6.59207 26.2438 7.92317C25.9969 8.71988 26.3529 9.57941 27.0909 9.96818C28.3238 10.6177 28.3238 12.3833 27.0909 13.0328C26.3529 13.4216 25.9969 14.2811 26.2438 15.0778C26.6563 16.409 25.4079 17.6574 24.0768 17.2449C23.2801 16.998 22.4205 17.354 22.0318 18.092C21.3822 19.3249 19.6166 19.3249 18.9671 18.092ZM22.1832 10.2475C21.4021 9.46645 20.1358 9.46645 19.3547 10.2475L17.0269 12.5753C16.2459 13.3564 16.2459 14.6227 17.0269 15.4038C17.808 16.1848 19.0743 16.1848 19.8553 15.4038L22.1832 13.0759C22.9642 12.2949 22.9642 11.0286 22.1832 10.2475Z" fill="#7C8A95"/>
    </g>
</svg>
