<svg width="24" height="24" viewBox="0 0 24 24" fill="none" xmlns="http://www.w3.org/2000/svg">
<path d="M19 9C19.5523 9 20 8.55228 20 8C20 7.44772 19.5523 7 19 7V9ZM5 15C4.44772 15 4 15.4477 4 16C4 16.5523 4.44772 17 5 17V15ZM19 7H10V9H19V7ZM9 8C9 9.10457 8.10457 10 7 10V12C9.20914 12 11 10.2091 11 8H9ZM7 10C5.89543 10 5 9.10457 5 8H3C3 10.2091 4.79086 12 7 12V10ZM5 8C5 6.89543 5.89543 6 7 6V4C4.79086 4 3 5.79086 3 8H5ZM7 6C8.10457 6 9 6.89543 9 8H11C11 5.79086 9.20914 4 7 4V6ZM5 17H14V15H5V17ZM13 16C13 18.2091 14.7909 20 17 20V18C15.8954 18 15 17.1046 15 16H13ZM17 20C19.2091 20 21 18.2091 21 16H19C19 17.1046 18.1046 18 17 18V20ZM21 16C21 13.7909 19.2091 12 17 12V14C18.1046 14 19 14.8954 19 16H21ZM17 12C14.7909 12 13 13.7909 13 16H15C15 14.8954 15.8954 14 17 14V12Z" fill="#656A84"/>
</svg>
