<svg width="40" height="16" viewBox="0 0 40 16" fill="none" xmlns="http://www.w3.org/2000/svg">
    <rect width="40" height="16" rx="4" fill="#B6B6FB"/>
    <path d="M11.2637 10.3184C11.2637 10.0254 11.1523 9.79883 10.9297 9.63867C10.7109 9.47461 10.3262 9.33398 9.77539 9.2168C9.22852 9.09961 8.79297 8.95898 8.46875 8.79492C8.14844 8.63086 7.91016 8.43555 7.75391 8.20898C7.60156 7.98242 7.52539 7.71289 7.52539 7.40039C7.52539 6.88086 7.74414 6.44141 8.18164 6.08203C8.62305 5.72266 9.18555 5.54297 9.86914 5.54297C10.5879 5.54297 11.1699 5.72852 11.6152 6.09961C12.0645 6.4707 12.2891 6.94531 12.2891 7.52344H11.1992C11.1992 7.22656 11.0723 6.9707 10.8184 6.75586C10.5684 6.54102 10.252 6.43359 9.86914 6.43359C9.47461 6.43359 9.16602 6.51953 8.94336 6.69141C8.7207 6.86328 8.60938 7.08789 8.60938 7.36523C8.60938 7.62695 8.71289 7.82422 8.91992 7.95703C9.12695 8.08984 9.5 8.2168 10.0391 8.33789C10.582 8.45898 11.0215 8.60352 11.3574 8.77148C11.6934 8.93945 11.9414 9.14258 12.1016 9.38086C12.2656 9.61523 12.3477 9.90234 12.3477 10.2422C12.3477 10.8086 12.1211 11.2637 11.668 11.6074C11.2148 11.9473 10.627 12.1172 9.9043 12.1172C9.39648 12.1172 8.94727 12.0273 8.55664 11.8477C8.16602 11.668 7.85938 11.418 7.63672 11.0977C7.41797 10.7734 7.30859 10.4238 7.30859 10.0488H8.39258C8.41211 10.4121 8.55664 10.7012 8.82617 10.916C9.09961 11.127 9.45898 11.2324 9.9043 11.2324C10.3145 11.2324 10.6426 11.1504 10.8887 10.9863C11.1387 10.8184 11.2637 10.5957 11.2637 10.3184ZM13.4727 8.77148C13.4727 8.15039 13.5938 7.5918 13.8359 7.0957C14.082 6.59961 14.4219 6.2168 14.8555 5.94727C15.293 5.67773 15.791 5.54297 16.3496 5.54297C17.2129 5.54297 17.9102 5.8418 18.4414 6.43945C18.9766 7.03711 19.2441 7.83203 19.2441 8.82422V8.90039C19.2441 9.51758 19.125 10.0723 18.8867 10.5645C18.6523 11.0527 18.3145 11.4336 17.873 11.707C17.4355 11.9805 16.9316 12.1172 16.3613 12.1172C15.502 12.1172 14.8047 11.8184 14.2695 11.2207C13.7383 10.623 13.4727 9.83203 13.4727 8.84766V8.77148ZM14.5625 8.90039C14.5625 9.60352 14.7246 10.168 15.0488 10.5938C15.377 11.0195 15.8145 11.2324 16.3613 11.2324C16.9121 11.2324 17.3496 11.0176 17.6738 10.5879C17.998 10.1543 18.1602 9.54883 18.1602 8.77148C18.1602 8.07617 17.9941 7.51367 17.6621 7.08398C17.334 6.65039 16.8965 6.43359 16.3496 6.43359C15.8145 6.43359 15.3828 6.64648 15.0547 7.07227C14.7266 7.49805 14.5625 8.10742 14.5625 8.90039ZM20.3164 8.77148C20.3164 8.15039 20.4375 7.5918 20.6797 7.0957C20.9258 6.59961 21.2656 6.2168 21.6992 5.94727C22.1367 5.67773 22.6348 5.54297 23.1934 5.54297C24.0566 5.54297 24.7539 5.8418 25.2852 6.43945C25.8203 7.03711 26.0879 7.83203 26.0879 8.82422V8.90039C26.0879 9.51758 25.9688 10.0723 25.7305 10.5645C25.4961 11.0527 25.1582 11.4336 24.7168 11.707C24.2793 11.9805 23.7754 12.1172 23.2051 12.1172C22.3457 12.1172 21.6484 11.8184 21.1133 11.2207C20.582 10.623 20.3164 9.83203 20.3164 8.84766V8.77148ZM21.4062 8.90039C21.4062 9.60352 21.5684 10.168 21.8926 10.5938C22.2207 11.0195 22.6582 11.2324 23.2051 11.2324C23.7559 11.2324 24.1934 11.0176 24.5176 10.5879C24.8418 10.1543 25.0039 9.54883 25.0039 8.77148C25.0039 8.07617 24.8379 7.51367 24.5059 7.08398C24.1777 6.65039 23.7402 6.43359 23.1934 6.43359C22.6582 6.43359 22.2266 6.64648 21.8984 7.07227C21.5703 7.49805 21.4062 8.10742 21.4062 8.90039ZM28.4727 5.66016L28.5078 6.45703C28.9922 5.84766 29.625 5.54297 30.4062 5.54297C31.7461 5.54297 32.4219 6.29883 32.4336 7.81055V12H31.3496V7.80469C31.3457 7.34766 31.2402 7.00977 31.0332 6.79102C30.8301 6.57227 30.5117 6.46289 30.0781 6.46289C29.7266 6.46289 29.418 6.55664 29.1523 6.74414C28.8867 6.93164 28.6797 7.17773 28.5312 7.48242V12H27.4473V5.66016H28.4727Z" fill="#343C5A"/>
</svg>
