<svg  viewBox="0 0 460 271" fill="none" xmlns="http://www.w3.org/2000/svg">
<g clip-path="url(#clip0)">
<path fill-rule="evenodd" clip-rule="evenodd" d="M323.113 154.183C317.767 158.046 310.018 160.107 303.347 160.107C293.992 160.107 285.57 156.715 279.199 151.073C278.699 150.629 279.147 150.025 279.748 150.37C286.624 154.293 295.125 156.652 303.907 156.652C309.83 156.652 316.346 155.451 322.337 152.958C323.242 152.581 323.998 153.539 323.113 154.183Z" fill="#FF9900"/>
<path fill-rule="evenodd" clip-rule="evenodd" d="M325.336 151.689C324.655 150.833 320.819 151.285 319.097 151.485C318.572 151.548 318.492 151.1 318.964 150.779C322.02 148.67 327.034 149.279 327.618 149.985C328.203 150.696 327.466 155.623 324.595 157.975C324.154 158.336 323.734 158.144 323.93 157.665C324.575 156.087 326.02 152.549 325.336 151.689Z" fill="#FF9900"/>
<path fill-rule="evenodd" clip-rule="evenodd" d="M319.217 135.894V133.845C319.217 133.535 319.457 133.327 319.746 133.327H329.105C329.405 133.327 329.645 133.539 329.645 133.845V135.6C329.641 135.894 329.389 136.279 328.94 136.888L324.091 143.676C325.893 143.633 327.795 143.896 329.429 144.799C329.797 145.003 329.897 145.302 329.925 145.596V147.783C329.925 148.081 329.589 148.431 329.237 148.25C326.357 146.77 322.533 146.609 319.349 148.266C319.025 148.439 318.685 148.093 318.685 147.795V145.718C318.685 145.384 318.689 144.815 319.029 144.308L324.647 136.409H319.758C319.457 136.409 319.217 136.201 319.217 135.894Z" fill="black"/>
<path fill-rule="evenodd" clip-rule="evenodd" d="M285.078 148.682H282.23C281.958 148.662 281.742 148.462 281.722 148.207V133.88C281.722 133.594 281.966 133.366 282.27 133.366H284.925C285.202 133.378 285.422 133.586 285.442 133.845V135.718H285.494C286.187 133.908 287.488 133.064 289.242 133.064C291.024 133.064 292.138 133.908 292.939 135.718C293.627 133.908 295.193 133.064 296.871 133.064C298.064 133.064 299.37 133.546 300.167 134.63C301.068 135.835 300.884 137.586 300.884 139.122L300.88 148.164C300.88 148.45 300.635 148.682 300.331 148.682H297.488C297.203 148.662 296.975 148.438 296.975 148.164V140.57C296.975 139.966 297.031 138.458 296.895 137.885C296.683 136.923 296.046 136.652 295.221 136.652C294.532 136.652 293.812 137.104 293.519 137.826C293.227 138.548 293.255 139.758 293.255 140.57V148.164C293.255 148.45 293.011 148.682 292.706 148.682H289.863C289.575 148.662 289.35 148.438 289.35 148.164L289.346 140.57C289.346 138.972 289.615 136.621 287.592 136.621C285.546 136.621 285.626 138.914 285.626 140.57V148.164C285.626 148.45 285.382 148.682 285.078 148.682" fill="black"/>
<path fill-rule="evenodd" clip-rule="evenodd" d="M337.702 133.064C341.927 133.064 344.214 136.621 344.214 141.144C344.214 145.513 341.687 148.98 337.702 148.98C333.554 148.98 331.295 145.423 331.295 140.99C331.295 136.53 333.582 133.064 337.702 133.064ZM337.726 135.989C335.628 135.989 335.496 138.792 335.496 140.539C335.496 142.29 335.468 146.028 337.702 146.028C339.909 146.028 340.013 143.012 340.013 141.175C340.013 139.966 339.961 138.521 339.588 137.374C339.268 136.377 338.631 135.989 337.726 135.989Z" fill="black"/>
<path fill-rule="evenodd" clip-rule="evenodd" d="M349.692 148.682H346.856C346.572 148.662 346.344 148.438 346.344 148.164L346.34 133.833C346.364 133.57 346.6 133.366 346.888 133.366H349.527C349.776 133.378 349.98 133.543 350.036 133.766V135.957H350.088C350.885 133.998 352.002 133.064 353.969 133.064C355.246 133.064 356.491 133.515 357.292 134.752C358.037 135.898 358.037 137.826 358.037 139.212V148.23C358.005 148.482 357.769 148.682 357.489 148.682H354.633C354.373 148.662 354.157 148.474 354.129 148.23V140.449C354.129 138.882 354.313 136.589 352.347 136.589C351.654 136.589 351.017 137.045 350.701 137.736C350.3 138.611 350.248 139.483 350.248 140.449V148.164C350.244 148.45 349.996 148.682 349.692 148.682" fill="black"/>
<path fill-rule="evenodd" clip-rule="evenodd" d="M311.756 141.839C311.756 142.926 311.784 143.833 311.223 144.799C310.771 145.584 310.05 146.067 309.253 146.067C308.16 146.067 307.519 145.25 307.519 144.045C307.519 141.666 309.693 141.234 311.756 141.234V141.839ZM314.627 148.643C314.439 148.808 314.167 148.819 313.954 148.709C313.009 147.94 312.837 147.583 312.32 146.848C310.759 148.411 309.649 148.878 307.627 148.878C305.228 148.878 303.366 147.429 303.366 144.528C303.366 142.263 304.616 140.72 306.402 139.966C307.947 139.298 310.106 139.18 311.756 138.996V138.635C311.756 137.971 311.808 137.186 311.407 136.613C311.063 136.098 310.398 135.886 309.81 135.886C308.724 135.886 307.759 136.432 307.523 137.563C307.475 137.814 307.287 138.062 307.026 138.073L304.267 137.783C304.035 137.732 303.775 137.547 303.843 137.198C304.475 133.915 307.503 132.926 310.21 132.926C311.596 132.926 313.406 133.287 314.499 134.316C315.885 135.584 315.752 137.276 315.752 139.118V143.468C315.752 144.775 316.305 145.349 316.826 146.055C317.006 146.307 317.046 146.609 316.814 146.797C316.233 147.272 315.2 148.156 314.631 148.65L314.627 148.643" fill="black"/>
<path fill-rule="evenodd" clip-rule="evenodd" d="M274.43 141.839C274.43 142.926 274.458 143.833 273.897 144.799C273.445 145.584 272.728 146.067 271.927 146.067C270.834 146.067 270.197 145.251 270.197 144.045C270.197 141.666 272.371 141.234 274.43 141.234V141.839ZM277.301 148.643C277.113 148.808 276.84 148.819 276.628 148.71C275.683 147.94 275.515 147.583 274.994 146.849C273.433 148.411 272.327 148.878 270.301 148.878C267.906 148.878 266.04 147.43 266.04 144.528C266.04 142.263 267.293 140.72 269.076 139.966C270.621 139.298 272.78 139.181 274.43 138.996V138.635C274.43 137.971 274.482 137.186 274.085 136.613C273.737 136.099 273.072 135.887 272.487 135.887C271.402 135.887 270.433 136.432 270.197 137.563C270.149 137.814 269.961 138.062 269.704 138.073L266.941 137.783C266.709 137.732 266.453 137.547 266.517 137.198C267.153 133.916 270.177 132.926 272.884 132.926C274.269 132.926 276.08 133.287 277.173 134.316C278.558 135.584 278.426 137.276 278.426 139.118V143.468C278.426 144.775 278.979 145.349 279.499 146.055C279.684 146.307 279.724 146.609 279.491 146.797C278.911 147.273 277.878 148.156 277.309 148.651L277.301 148.643" fill="black"/>
</g>
<path d="M131.73 126.728C130.727 125.457 125.077 126.127 122.541 126.425C121.768 126.518 121.65 125.854 122.346 125.376C126.846 122.246 134.23 123.15 135.091 124.199C135.952 125.253 134.867 132.567 130.638 136.058C129.99 136.594 129.37 136.308 129.659 135.597C130.609 133.255 132.738 128.004 131.73 126.728Z" fill="#363694"/>
<path d="M110.651 163.983C107.457 166.959 102.747 168.639 98.6517 168.763C92.9097 168.937 87.664 166.568 83.6262 162.486C83.3089 162.165 83.5706 161.706 83.9471 161.952C88.2559 164.745 93.5275 166.343 98.918 166.18C102.553 166.069 106.526 165.053 110.147 163.085C110.694 162.787 111.18 163.487 110.651 163.983Z" fill="#363694"/>
<path d="M52.338 143.492C53.1791 143.492 53.92 143.666 54.5608 144.013C55.2016 144.361 55.6956 144.856 56.0427 145.498C56.4031 146.126 56.5833 146.855 56.5833 147.685C56.5833 148.5 56.4031 149.223 56.0427 149.851C55.6822 150.48 55.1682 150.968 54.5007 151.316C53.8466 151.65 53.0856 151.817 52.2179 151.817H49.0339C48.9538 151.817 48.9137 151.857 48.9137 151.938V157.234C48.9137 157.448 48.8069 157.555 48.5933 157.555H46.9112C46.6976 157.555 46.5908 157.448 46.5908 157.234V143.813C46.5908 143.599 46.6976 143.492 46.9112 143.492H52.338ZM51.9976 149.932C52.6784 149.932 53.2258 149.731 53.6396 149.33C54.0535 148.928 54.2604 148.4 54.2604 147.745C54.2604 147.076 54.0535 146.534 53.6396 146.12C53.2258 145.705 52.6784 145.498 51.9976 145.498H49.0339C48.9538 145.498 48.9137 145.538 48.9137 145.618V149.811C48.9137 149.891 48.9538 149.932 49.0339 149.932H51.9976Z" fill="#363694"/>
<path d="M63.1661 147.183C63.5533 147.183 63.907 147.257 64.2274 147.404C64.3876 147.484 64.4477 147.618 64.4077 147.805L64.0873 149.47C64.0739 149.577 64.0339 149.644 63.9671 149.671C63.9137 149.697 63.8269 149.697 63.7068 149.671C63.5466 149.617 63.333 149.59 63.066 149.59C62.9058 149.59 62.7789 149.597 62.6855 149.611C62.1248 149.637 61.6575 149.838 61.2837 150.212C60.9099 150.573 60.723 151.048 60.723 151.637V157.234C60.723 157.448 60.6162 157.555 60.4026 157.555H58.7205C58.5069 157.555 58.4001 157.448 58.4001 157.234V147.624C58.4001 147.41 58.5069 147.303 58.7205 147.303H60.4026C60.6162 147.303 60.723 147.41 60.723 147.624V148.407C60.723 148.46 60.7364 148.494 60.7631 148.507C60.7898 148.521 60.8165 148.5 60.8432 148.447C61.4039 147.604 62.1782 147.183 63.1661 147.183Z" fill="#363694"/>
<path d="M70.099 157.715C69.0443 157.715 68.1365 157.448 67.3756 156.913C66.6146 156.378 66.0873 155.636 65.7936 154.686C65.5667 154.031 65.4532 153.268 65.4532 152.399C65.4532 151.543 65.56 150.781 65.7736 150.112C66.0806 149.176 66.6146 148.447 67.3756 147.925C68.1365 147.404 69.051 147.143 70.119 147.143C71.1336 147.143 72.0081 147.404 72.7423 147.925C73.4899 148.447 74.0172 149.169 74.3243 150.092C74.5646 150.734 74.6847 151.496 74.6847 152.379C74.6847 153.222 74.5713 153.984 74.3443 154.666C74.0373 155.616 73.5099 156.365 72.7623 156.913C72.0147 157.448 71.1269 157.715 70.099 157.715ZM70.099 155.709C70.5929 155.709 71.0135 155.569 71.3606 155.288C71.721 155.007 71.9747 154.613 72.1215 154.104C72.2684 153.676 72.3418 153.115 72.3418 152.419C72.3418 151.764 72.2751 151.202 72.1416 150.734C71.9947 150.226 71.7344 149.838 71.3606 149.57C71.0001 149.29 70.5662 149.149 70.0589 149.149C69.5516 149.149 69.1178 149.29 68.7573 149.57C68.3969 149.838 68.1432 150.226 67.9964 150.734C67.8629 151.202 67.7961 151.764 67.7961 152.419C67.7961 153.075 67.8629 153.636 67.9964 154.104C68.1432 154.613 68.3969 155.007 68.7573 155.288C69.1311 155.569 69.5783 155.709 70.099 155.709Z" fill="#363694"/>
<path d="M82.1269 147.283C82.3405 147.283 82.4473 147.39 82.4473 147.604V149.029C82.4473 149.243 82.3405 149.35 82.1269 149.35H80.2445C80.1644 149.35 80.1244 149.39 80.1244 149.47V157.234C80.1244 157.448 80.0176 157.555 79.804 157.555H78.1218C77.9082 157.555 77.8014 157.448 77.8014 157.234V149.47C77.8014 149.39 77.7614 149.35 77.6813 149.35H76.5399C76.3263 149.35 76.2195 149.243 76.2195 149.029V147.604C76.2195 147.39 76.3263 147.283 76.5399 147.283H77.6813C77.7614 147.283 77.8014 147.243 77.8014 147.163V146.822C77.8014 145.953 77.9149 145.284 78.1419 144.816C78.3688 144.334 78.7426 143.993 79.2633 143.793C79.7839 143.592 80.5182 143.498 81.466 143.512H82.0868C82.3004 143.512 82.4072 143.619 82.4072 143.833V145.077C82.4072 145.291 82.3004 145.398 82.0868 145.398H81.6463C81.0722 145.398 80.6717 145.511 80.4448 145.739C80.2312 145.966 80.1244 146.381 80.1244 146.982V147.163C80.1244 147.243 80.1644 147.283 80.2445 147.283H82.1269ZM85.7314 146.019C85.2908 146.019 84.9304 145.886 84.65 145.618C84.3697 145.337 84.2295 144.983 84.2295 144.555C84.2295 144.127 84.3697 143.779 84.65 143.512C84.9304 143.244 85.2908 143.111 85.7314 143.111C86.1719 143.111 86.5257 143.244 86.7927 143.512C87.0731 143.779 87.2132 144.127 87.2132 144.555C87.2132 144.983 87.0731 145.337 86.7927 145.618C86.5257 145.886 86.1719 146.019 85.7314 146.019ZM84.8903 157.555C84.6767 157.555 84.5699 157.448 84.5699 157.234V147.624C84.5699 147.41 84.6767 147.303 84.8903 147.303H86.5724C86.786 147.303 86.8928 147.41 86.8928 147.624V157.234C86.8928 157.448 86.786 157.555 86.5724 157.555H84.8903Z" fill="#363694"/>
<path d="M94.9401 148.868C94.9401 149.082 94.8333 149.189 94.6197 149.189H92.6773C92.5972 149.189 92.5571 149.229 92.5571 149.31V154.044C92.5571 154.566 92.6639 154.94 92.8775 155.168C93.1045 155.395 93.4582 155.509 93.9388 155.509H94.4595C94.6731 155.509 94.7799 155.616 94.7799 155.83V157.174C94.7799 157.388 94.6731 157.501 94.4595 157.515L93.4983 157.535C92.4436 157.535 91.656 157.354 91.1353 156.993C90.6147 156.619 90.3477 155.93 90.3343 154.927V149.31C90.3343 149.229 90.2943 149.189 90.2142 149.189H89.1729C88.9593 149.189 88.8525 149.082 88.8525 148.868V147.624C88.8525 147.41 88.9593 147.303 89.1729 147.303H90.2142C90.2943 147.303 90.3343 147.263 90.3343 147.183V144.936C90.3343 144.722 90.4411 144.615 90.6547 144.615H92.2367C92.4503 144.615 92.5571 144.722 92.5571 144.936V147.183C92.5571 147.263 92.5972 147.303 92.6773 147.303H94.6197C94.8333 147.303 94.9401 147.41 94.9401 147.624V148.868Z" fill="#363694"/>
<path d="M100.367 157.555C100.221 157.555 100.127 157.481 100.087 157.334L96.2822 143.813L96.2622 143.732C96.2622 143.585 96.3423 143.512 96.5025 143.512H97.4837C97.6306 143.512 97.724 143.585 97.7641 143.732L100.768 154.606C100.781 154.646 100.801 154.666 100.828 154.666C100.855 154.666 100.875 154.646 100.888 154.606L103.692 143.732C103.732 143.585 103.832 143.512 103.992 143.512H104.953C105.1 143.512 105.193 143.585 105.233 143.732L108.157 154.626C108.17 154.666 108.19 154.686 108.217 154.686C108.244 154.686 108.264 154.666 108.277 154.626L111.281 143.732C111.321 143.585 111.415 143.512 111.561 143.512H112.483C112.576 143.512 112.643 143.539 112.683 143.592C112.723 143.646 112.729 143.719 112.703 143.813L108.958 157.334C108.918 157.481 108.825 157.555 108.678 157.555H107.717C107.556 157.555 107.456 157.481 107.416 157.334L104.533 146.18C104.519 146.14 104.499 146.12 104.472 146.12C104.446 146.12 104.426 146.14 104.412 146.18L101.569 157.334C101.529 157.481 101.429 157.555 101.268 157.555H100.367Z" fill="#363694"/>
<path d="M119.032 147.263C120.087 147.263 120.928 147.578 121.555 148.206C122.196 148.835 122.516 149.677 122.516 150.734V157.294C122.516 157.468 122.43 157.555 122.256 157.555H121.355C121.181 157.555 121.095 157.468 121.095 157.294V151.015C121.095 150.266 120.874 149.664 120.434 149.209C119.993 148.741 119.419 148.507 118.712 148.507C118.031 148.507 117.463 148.701 117.01 149.089C116.569 149.477 116.315 149.985 116.249 150.614V157.294C116.249 157.468 116.162 157.555 115.988 157.555H115.087C114.914 157.555 114.827 157.468 114.827 157.294V143.773C114.827 143.599 114.914 143.512 115.087 143.512H115.988C116.162 143.512 116.249 143.599 116.249 143.773V148.407C116.249 148.447 116.262 148.48 116.289 148.507C116.315 148.521 116.335 148.507 116.349 148.467C116.936 147.665 117.831 147.263 119.032 147.263Z" fill="#363694"/>
<path d="M129.126 147.243C130.328 147.243 131.255 147.551 131.909 148.166C132.577 148.781 132.911 149.597 132.911 150.614V157.294C132.911 157.468 132.824 157.555 132.65 157.555H131.749C131.576 157.555 131.489 157.468 131.489 157.294V156.572C131.489 156.532 131.476 156.505 131.449 156.492C131.422 156.478 131.396 156.492 131.369 156.532C131.008 156.92 130.554 157.214 130.007 157.415C129.473 157.615 128.886 157.715 128.245 157.715C127.31 157.715 126.523 157.475 125.882 156.993C125.254 156.512 124.941 155.776 124.941 154.786C124.941 153.783 125.301 152.994 126.022 152.419C126.756 151.831 127.771 151.536 129.066 151.536H131.389C131.456 151.536 131.489 151.503 131.489 151.436V150.694C131.489 150.012 131.295 149.477 130.908 149.089C130.534 148.688 129.947 148.487 129.146 148.487C128.519 148.487 128.005 148.607 127.604 148.848C127.204 149.089 126.95 149.423 126.843 149.851C126.803 150.012 126.703 150.079 126.543 150.052L125.562 149.932C125.388 149.905 125.308 149.831 125.321 149.711C125.455 148.975 125.862 148.38 126.543 147.925C127.237 147.471 128.098 147.243 129.126 147.243ZM128.565 156.492C129.353 156.492 130.034 156.298 130.608 155.91C131.195 155.509 131.489 154.974 131.489 154.305V152.76C131.489 152.693 131.456 152.66 131.389 152.66H129.286C128.405 152.66 127.698 152.84 127.164 153.202C126.63 153.563 126.363 154.064 126.363 154.706C126.363 155.295 126.569 155.743 126.983 156.05C127.397 156.345 127.925 156.492 128.565 156.492Z" fill="#363694"/>
<path d="M136.11 157.555C135.936 157.555 135.849 157.468 135.849 157.294V143.773C135.849 143.599 135.936 143.512 136.11 143.512H137.011C137.184 143.512 137.271 143.599 137.271 143.773V157.294C137.271 157.468 137.184 157.555 137.011 157.555H136.11Z" fill="#363694"/>
<path d="M144.448 156.492C145.049 156.478 145.563 156.345 145.99 156.09C146.431 155.823 146.771 155.455 147.012 154.987C147.038 154.92 147.085 154.873 147.152 154.847C147.219 154.82 147.285 154.827 147.352 154.867L147.933 155.188C148.093 155.281 148.133 155.395 148.053 155.529C147.733 156.197 147.252 156.732 146.611 157.134C145.97 157.522 145.209 157.715 144.328 157.715C143.394 157.715 142.606 157.495 141.965 157.053C141.325 156.612 140.864 155.997 140.584 155.208C140.33 154.539 140.203 153.616 140.203 152.439C140.203 151.864 140.21 151.409 140.223 151.075C140.25 150.727 140.303 150.406 140.383 150.112C140.61 149.243 141.064 148.547 141.745 148.026C142.439 147.504 143.274 147.243 144.248 147.243C145.41 147.243 146.317 147.544 146.972 148.146C147.639 148.748 148.066 149.597 148.253 150.694C148.333 151.122 148.373 151.791 148.373 152.7C148.373 152.874 148.287 152.961 148.113 152.961H141.705C141.638 152.961 141.605 152.994 141.605 153.061C141.605 153.73 141.645 154.218 141.725 154.526C141.872 155.127 142.179 155.609 142.646 155.97C143.127 156.318 143.728 156.492 144.448 156.492ZM144.248 148.487C143.581 148.487 143.033 148.661 142.606 149.009C142.179 149.343 141.899 149.798 141.765 150.373C141.685 150.64 141.632 151.095 141.605 151.737C141.605 151.804 141.638 151.837 141.705 151.837H146.851C146.918 151.837 146.952 151.804 146.952 151.737C146.925 151.149 146.885 150.721 146.831 150.453C146.685 149.851 146.384 149.376 145.93 149.029C145.49 148.668 144.929 148.487 144.248 148.487Z" fill="#363694"/>
<path d="M154.525 157.655C153.777 157.655 153.11 157.535 152.522 157.294C151.948 157.053 151.501 156.732 151.18 156.331C150.873 155.93 150.72 155.482 150.72 154.987V154.807C150.72 154.633 150.807 154.546 150.98 154.546H151.841C151.921 154.546 151.981 154.566 152.022 154.606C152.075 154.633 152.102 154.673 152.102 154.726V154.907C152.102 155.348 152.329 155.736 152.782 156.07C153.236 156.391 153.81 156.552 154.505 156.552C155.199 156.552 155.76 156.398 156.187 156.09C156.614 155.769 156.828 155.368 156.828 154.887C156.828 154.552 156.721 154.278 156.507 154.064C156.294 153.85 156.033 153.683 155.726 153.563C155.419 153.442 154.959 153.289 154.344 153.101C153.597 152.887 152.983 152.673 152.502 152.459C152.022 152.245 151.614 151.951 151.281 151.577C150.947 151.189 150.78 150.701 150.78 150.112C150.78 149.256 151.114 148.574 151.781 148.066C152.462 147.558 153.35 147.303 154.445 147.303C155.179 147.303 155.826 147.424 156.387 147.665C156.961 147.905 157.402 148.24 157.709 148.668C158.016 149.082 158.169 149.55 158.169 150.072C158.169 150.246 158.082 150.333 157.909 150.333H157.088C156.914 150.333 156.828 150.286 156.828 150.192V150.072C156.828 149.617 156.607 149.236 156.167 148.928C155.74 148.621 155.159 148.467 154.425 148.467C153.744 148.467 153.196 148.607 152.782 148.888C152.369 149.156 152.162 149.53 152.162 150.012C152.162 150.466 152.355 150.814 152.742 151.055C153.143 151.296 153.764 151.536 154.605 151.777C155.379 151.991 156.007 152.198 156.487 152.399C156.968 152.6 157.382 152.894 157.729 153.282C158.076 153.67 158.249 154.171 158.249 154.786C158.249 155.656 157.909 156.351 157.228 156.873C156.561 157.394 155.659 157.655 154.525 157.655Z" fill="#363694"/>
<g opacity="0.5">
<path d="M76.9534 136.537C76.3326 136.537 75.7882 136.439 75.3205 136.243C74.8612 136.047 74.504 135.77 74.2489 135.412C74.0022 135.045 73.8789 134.623 73.8789 134.146V133.788C73.8789 133.677 73.9342 133.621 74.0448 133.621H74.5933C74.7039 133.621 74.7592 133.677 74.7592 133.788V134.095C74.7592 134.581 74.9633 134.977 75.3715 135.284C75.7797 135.591 76.3283 135.744 77.0172 135.744C77.6721 135.744 78.1696 135.608 78.5098 135.335C78.85 135.054 79.0201 134.683 79.0201 134.222C79.0201 133.924 78.9393 133.668 78.7777 133.455C78.6246 133.242 78.3865 133.042 78.0633 132.854C77.7401 132.667 77.2766 132.449 76.6727 132.202C76.0349 131.946 75.5374 131.724 75.1801 131.537C74.8314 131.341 74.5465 131.094 74.3254 130.795C74.1128 130.488 74.0065 130.105 74.0065 129.644C74.0065 128.928 74.2531 128.374 74.7464 127.982C75.2482 127.581 75.9371 127.381 76.8131 127.381C77.7486 127.381 78.4885 127.602 79.0328 128.046C79.5772 128.489 79.8493 129.077 79.8493 129.81V130.053C79.8493 130.164 79.794 130.22 79.6835 130.22H79.1221C79.0116 130.22 78.9563 130.164 78.9563 130.053V129.862C78.9563 129.367 78.7649 128.962 78.3822 128.647C77.9995 128.331 77.4594 128.173 76.762 128.173C76.1582 128.173 75.6947 128.297 75.3715 128.544C75.0568 128.792 74.8995 129.15 74.8995 129.619C74.8995 129.926 74.976 130.181 75.1291 130.386C75.2907 130.582 75.5161 130.757 75.8053 130.91C76.1029 131.055 76.5537 131.247 77.1575 131.486C77.7784 131.741 78.2802 131.98 78.6629 132.202C79.0456 132.424 79.3518 132.696 79.5814 133.02C79.811 133.336 79.9258 133.724 79.9258 134.184C79.9258 134.892 79.6622 135.463 79.1349 135.898C78.6161 136.324 77.8889 136.537 76.9534 136.537Z" fill="#363694"/>
<path d="M84.1222 136.537C83.5013 136.537 82.9698 136.379 82.5275 136.064C82.0938 135.749 81.7919 135.314 81.6218 134.76C81.5027 134.367 81.4432 133.843 81.4432 133.187C81.4432 132.539 81.4984 132.019 81.609 131.626C81.7791 131.081 82.081 130.65 82.5148 130.335C82.957 130.019 83.4928 129.862 84.1222 129.862C84.7345 129.862 85.2576 130.019 85.6913 130.335C86.1336 130.65 86.4355 131.076 86.5971 131.614C86.7162 132.023 86.7757 132.547 86.7757 133.187C86.7757 133.843 86.7162 134.367 86.5971 134.76C86.427 135.314 86.1208 135.749 85.6786 136.064C85.2448 136.379 84.726 136.537 84.1222 136.537ZM84.1222 135.744C84.5304 135.744 84.8791 135.633 85.1683 135.412C85.4575 135.182 85.6531 134.875 85.7551 134.491C85.8232 134.218 85.8572 133.788 85.8572 133.199C85.8572 132.586 85.8232 132.155 85.7551 131.908C85.6616 131.524 85.466 131.221 85.1683 131C84.8791 130.77 84.5219 130.654 84.0967 130.654C83.6884 130.654 83.3397 130.77 83.0506 131C82.7614 131.221 82.5658 131.524 82.4637 131.908C82.3957 132.155 82.3617 132.586 82.3617 133.199C82.3617 133.813 82.3957 134.244 82.4637 134.491C82.5573 134.875 82.7487 135.182 83.0378 135.412C83.3355 135.633 83.6969 135.744 84.1222 135.744Z" fill="#363694"/>
<path d="M91.0882 128.276C90.6204 128.276 90.3015 128.382 90.1314 128.595C89.9613 128.8 89.8762 129.154 89.8762 129.657V129.9C89.8762 129.943 89.8975 129.964 89.94 129.964H91.3178C91.4284 129.964 91.4836 130.019 91.4836 130.13V130.629C91.4836 130.74 91.4284 130.795 91.3178 130.795H89.94C89.8975 130.795 89.8762 130.816 89.8762 130.859V136.269C89.8762 136.379 89.8209 136.435 89.7104 136.435H89.1491C89.0385 136.435 88.9832 136.379 88.9832 136.269V130.859C88.9832 130.816 88.9619 130.795 88.9194 130.795H88.1157C88.0052 130.795 87.9499 130.74 87.9499 130.629V130.13C87.9499 130.019 88.0052 129.964 88.1157 129.964H88.9194C88.9619 129.964 88.9832 129.943 88.9832 129.9V129.606C88.9832 129.077 89.0427 128.664 89.1618 128.365C89.2809 128.058 89.485 127.837 89.7742 127.7C90.0718 127.555 90.4843 127.483 91.0116 127.483H91.3433C91.4539 127.483 91.5091 127.538 91.5091 127.649V128.11C91.5091 128.22 91.4539 128.276 91.3433 128.276H91.0882Z" fill="#363694"/>
<path d="M95.9799 130.552C95.9799 130.663 95.9246 130.718 95.814 130.718H94.4235C94.381 130.718 94.3597 130.74 94.3597 130.782V134.517C94.3597 134.926 94.449 135.216 94.6276 135.386C94.8147 135.548 95.1039 135.629 95.4951 135.629H95.7758C95.8863 135.629 95.9416 135.685 95.9416 135.795V136.243C95.9416 136.354 95.8863 136.414 95.7758 136.422H95.342C94.7297 136.422 94.2661 136.307 93.9515 136.077C93.6368 135.847 93.4794 135.42 93.4794 134.798V130.782C93.4794 130.74 93.4582 130.718 93.4157 130.718H92.6885C92.5779 130.718 92.5226 130.663 92.5226 130.552V130.13C92.5226 130.019 92.5779 129.964 92.6885 129.964H93.4157C93.4582 129.964 93.4794 129.943 93.4794 129.9V128.468C93.4794 128.357 93.5347 128.301 93.6453 128.301H94.1939C94.3044 128.301 94.3597 128.357 94.3597 128.468V129.9C94.3597 129.943 94.381 129.964 94.4235 129.964H95.814C95.9246 129.964 95.9799 130.019 95.9799 130.13V130.552Z" fill="#363694"/>
<path d="M99.0959 136.435C99.0024 136.435 98.9428 136.388 98.9173 136.294L97.1313 130.156C97.1228 130.139 97.1186 130.117 97.1186 130.092C97.1186 130.058 97.1313 130.028 97.1568 130.002C97.1908 129.977 97.2291 129.964 97.2716 129.964H97.8712C97.9648 129.964 98.0243 130.011 98.0498 130.105L99.3766 135.092C99.3851 135.118 99.3979 135.13 99.4149 135.13C99.4319 135.13 99.4446 135.118 99.4531 135.092L100.818 130.105C100.844 130.011 100.903 129.964 100.997 129.964H101.558C101.652 129.964 101.711 130.011 101.737 130.105L103.127 135.092C103.136 135.118 103.148 135.13 103.165 135.13C103.183 135.13 103.195 135.118 103.204 135.092L104.569 130.105C104.594 130.011 104.658 129.964 104.76 129.964L105.347 129.977C105.407 129.977 105.449 129.994 105.475 130.028C105.5 130.062 105.504 130.109 105.487 130.168L103.676 136.294C103.65 136.388 103.591 136.435 103.497 136.435H102.872C102.779 136.435 102.719 136.388 102.693 136.294L101.316 131.575C101.307 131.55 101.294 131.537 101.277 131.537C101.26 131.537 101.248 131.55 101.239 131.575L99.9124 136.294C99.8869 136.388 99.8273 136.435 99.7338 136.435H99.0959Z" fill="#363694"/>
<path d="M109.021 129.862C109.786 129.862 110.377 130.058 110.794 130.45C111.219 130.842 111.432 131.362 111.432 132.01V136.269C111.432 136.379 111.376 136.435 111.266 136.435H110.692C110.581 136.435 110.526 136.379 110.526 136.269V135.808C110.526 135.783 110.517 135.766 110.5 135.757C110.483 135.749 110.466 135.757 110.449 135.783C110.22 136.03 109.931 136.217 109.582 136.345C109.242 136.473 108.867 136.537 108.459 136.537C107.864 136.537 107.362 136.384 106.954 136.077C106.554 135.77 106.354 135.301 106.354 134.67C106.354 134.031 106.584 133.528 107.043 133.161C107.511 132.786 108.157 132.598 108.982 132.598H110.462C110.505 132.598 110.526 132.577 110.526 132.534V132.061C110.526 131.626 110.403 131.285 110.156 131.038C109.918 130.782 109.544 130.654 109.033 130.654C108.634 130.654 108.306 130.731 108.051 130.885C107.796 131.038 107.634 131.251 107.566 131.524C107.541 131.626 107.477 131.669 107.375 131.652L106.75 131.575C106.639 131.558 106.588 131.511 106.597 131.435C106.682 130.966 106.941 130.586 107.375 130.296C107.817 130.007 108.366 129.862 109.021 129.862ZM108.663 135.757C109.165 135.757 109.599 135.633 109.965 135.386C110.339 135.13 110.526 134.789 110.526 134.363V133.378C110.526 133.336 110.505 133.314 110.462 133.314H109.123C108.561 133.314 108.111 133.43 107.77 133.66C107.43 133.89 107.26 134.21 107.26 134.619C107.26 134.994 107.392 135.28 107.656 135.476C107.919 135.663 108.255 135.757 108.663 135.757Z" fill="#363694"/>
<path d="M115.906 129.9C116.187 129.9 116.421 129.951 116.608 130.053C116.693 130.087 116.723 130.156 116.697 130.258L116.57 130.821C116.544 130.923 116.476 130.957 116.365 130.923C116.204 130.872 115.996 130.851 115.74 130.859C115.298 130.876 114.932 131.042 114.643 131.358C114.354 131.665 114.209 132.057 114.209 132.534V136.269C114.209 136.379 114.154 136.435 114.044 136.435H113.47C113.359 136.435 113.304 136.379 113.304 136.269V130.13C113.304 130.019 113.359 129.964 113.47 129.964H114.044C114.154 129.964 114.209 130.019 114.209 130.13V130.846C114.209 130.88 114.214 130.902 114.222 130.91C114.239 130.91 114.256 130.897 114.273 130.872C114.452 130.565 114.677 130.326 114.949 130.156C115.23 129.985 115.549 129.9 115.906 129.9Z" fill="#363694"/>
<path d="M120.402 135.757C120.784 135.749 121.112 135.663 121.384 135.501C121.665 135.331 121.881 135.096 122.034 134.798C122.052 134.755 122.081 134.725 122.124 134.708C122.166 134.691 122.209 134.696 122.251 134.721L122.621 134.926C122.723 134.986 122.749 135.058 122.698 135.143C122.494 135.57 122.188 135.911 121.779 136.166C121.371 136.414 120.886 136.537 120.325 136.537C119.73 136.537 119.228 136.397 118.82 136.115C118.411 135.834 118.118 135.442 117.939 134.939C117.778 134.512 117.697 133.924 117.697 133.174C117.697 132.807 117.701 132.517 117.71 132.304C117.727 132.083 117.761 131.878 117.812 131.69C117.956 131.136 118.246 130.693 118.679 130.36C119.122 130.028 119.653 129.862 120.274 129.862C121.014 129.862 121.592 130.053 122.009 130.437C122.434 130.821 122.706 131.362 122.825 132.061C122.876 132.334 122.902 132.76 122.902 133.34C122.902 133.451 122.847 133.506 122.736 133.506H118.654C118.611 133.506 118.59 133.528 118.59 133.57C118.59 133.997 118.616 134.308 118.667 134.504C118.76 134.887 118.956 135.194 119.253 135.425C119.56 135.646 119.942 135.757 120.402 135.757ZM120.274 130.654C119.849 130.654 119.5 130.765 119.228 130.987C118.956 131.2 118.777 131.49 118.692 131.857C118.641 132.027 118.607 132.317 118.59 132.726C118.59 132.769 118.611 132.79 118.654 132.79H121.932C121.975 132.79 121.996 132.769 121.996 132.726C121.979 132.351 121.954 132.078 121.92 131.908C121.826 131.524 121.635 131.221 121.346 131C121.065 130.77 120.708 130.654 120.274 130.654Z" fill="#363694"/>
</g>
<path fill-rule="evenodd" clip-rule="evenodd" d="M271.527 6.778C295.011 -2.11506 315.084 6.77758 322.104 12.2395C324.391 14.2441 326.979 17.4534 327.712 20.6366C328.069 22.1867 327.975 23.6695 327.26 25.0378C326.538 26.4194 325.091 27.8592 322.415 29.1332C314.888 32.7166 311.848 37.944 312.586 42.7708C313.309 47.5043 317.587 51.0694 322.97 51.3898C330.51 51.8385 368.561 51.5957 388.009 51.4073V51.4471V51.542V51.6373V51.733V51.8291V51.9255V52.0223V52.1195V52.217V52.3149V52.4131V52.5117V52.6107V52.71V52.8096V52.9097V53.01V53.1107V53.2118V53.3132V53.4149V53.517V53.6194V53.7222V53.8253V53.9287V54.0324V54.1365V54.2409V54.3457V54.4507V54.5561V54.6618V54.7678V54.8741V54.9807V55.0877V55.1949V55.3025V55.4104V55.5186V55.627V55.7358V55.8449V55.9543V56.0639V56.1739V56.2841V56.3947V56.5055V56.6166V56.728V56.8396V56.9516V57.0638V57.1763V57.2891V57.4022V57.5155V57.6291V57.7429V57.857V57.9714V58.086V58.2009V58.3161V58.4315V58.5472V58.6631V58.7793V58.8957V59.0123V59.1292V59.2464V59.3637V59.4814V59.5992V59.7173V59.8356V59.9542V60.0729V60.192V60.3112V60.4306V60.5503V60.6702V60.7903V60.9106V61.0312V61.1519V61.2729V61.3941V61.5154V61.637V61.7588V61.8808V62.0029V62.1253V62.2479V62.3707V62.4936V62.6167V62.7401V62.8636V62.9873V63.1112V63.2352V63.3595V63.4839V63.6085V63.7332V63.8581V63.9832V64.1085V64.2339V64.3595V64.4853V64.6112V64.7372V64.8634V64.9898V65.1163V65.243V65.3698V65.4968V65.6239V65.7512V65.8786V66.0061V66.1338V66.2616V66.3895V66.5176V66.6458V66.7741V66.9025V67.0311V67.1598V67.2886V67.4175V67.5466V67.6757V67.805V67.9343V68.0638V68.1934V68.3231V68.4529V68.5828V68.7128V68.8429V68.9731V69.1034V69.2337V69.3642V69.4947V69.6254V69.7561V69.8869V70.0178V70.1487V70.2798V70.4109V70.542V70.6733V70.8046V70.936V71.0674V71.1989V71.3305V71.4622V71.5938V71.7256V71.8574V71.9892V72.1211V72.2531V72.3851V72.5171V72.6492V72.7813V72.9134V73.0456V73.1779V73.3101V73.4424V73.5747V73.7071V73.8394V73.9718V74.1043V74.2367V74.3691V74.5016V74.6341V74.7666V74.8991V75.0316V75.1641V75.2967V75.4292V75.5617V75.6942V75.8268V75.9593V76.0918V76.2243V76.3568V76.4893V76.6217V76.7542V76.8866V77.019V77.1514V77.2838V77.4161V77.5484V77.6807V77.813V77.9452V78.0774V78.2095V78.3416V78.4737V78.6057V78.7377V78.8696V79.0015V79.1333V79.2651V79.3968V79.5285V79.6601V79.7917V79.9232V80.0546V80.186V80.3173V80.4485V80.5797V80.7107V80.8418V80.9727V81.1035V81.2343V81.365V81.4956V81.6261V81.7566V81.8869V82.0172V82.1473V82.2774V82.4074V82.5373V82.667V82.7967V82.9262V83.0557V83.1851V83.3143V83.4434V83.5724V83.7013V83.8301V83.9587V84.0873V84.2157V84.344V84.4721V84.6002V84.7281V84.8558V84.9835V85.111V85.2383V85.3655V85.4926V85.6195V85.7463V85.8729V85.9994V86.1258V86.2519V86.378V86.5038V86.6295V86.7551V86.8805V87.0057V87.1307V87.2556V87.3803V87.5049V87.6292V87.7534V87.8774V88.0012V88.1249V88.2484V88.3716V88.4947V88.6176V88.7403V88.8629V88.9852V89.1073V89.2292V89.351V89.4725V89.5938V89.7149V89.8358V89.9565V90.077V90.1973V90.3173V90.4371V90.5567V90.6761V90.7953V90.9143V91.033V91.1515V91.2697V91.3877V91.5055V91.6231V91.7404V91.8575V91.9743V92.0909V92.2073V92.3233V92.4392V92.5548V92.6701V92.7852V92.9V93.0146V93.1289V93.243V93.3568V93.4703V93.5835V93.6965V93.8092V93.9216V94.0338V94.1457V94.2572V94.3686V94.4796V94.5903V94.7008V94.811V94.9208V95.0304V95.1397V95.2487V95.3574V95.4658V95.5739V95.6817V95.7892V95.8963V96.0032V96.1098V96.216V96.3219V96.4275V96.5328V96.6378V96.7424V96.8467V96.9507V97.0544V97.1577V97.2607V97.3634V97.4657V97.5677V97.6693V97.7707V97.8716V97.9722V98.0725V98.1724V98.272V98.3712V98.4701V98.5686V98.6667V98.7645V98.8619V98.959V99.0557V99.152V99.248V99.3436V99.4388V99.5336V99.6281V99.7221V99.8158V99.9091V100.002V100.095V100.187V100.279V100.37V100.461V100.551V100.642V100.731V100.821V100.91V100.998V101.086V101.174V101.262V101.348V101.435V101.521V101.607V101.692V101.777V101.861V101.945V102.029V102.112V102.195V102.277V102.359V102.44V102.521V102.601V102.681V102.761V102.84V102.919V102.997V103.075V103.152V103.229V103.306V103.382V103.457V103.532V103.607V103.681V103.755V103.828V103.9V103.973V104.044V104.116V104.186V104.257V104.327V104.396V104.465V104.533V104.601V104.668V104.735V104.802V104.867V104.933V104.998V105.062V105.126V105.189V105.252V105.314V105.376V105.437V105.498V105.558V105.618V105.677V105.736V105.794V105.852V105.909V105.965V106.021V106.077V106.132V106.186V106.24V106.293V106.346V106.398V106.45V106.501C388.009 109.315 388.319 112.189 389.012 114.782C389.702 117.361 390.796 119.761 392.435 121.524C394.111 123.327 396.332 124.43 399.082 124.365C401.767 124.3 404.794 123.127 408.181 120.75C414.689 116.184 422.668 111.234 430.442 109.87C434.292 109.195 438.024 109.413 441.491 110.942C444.954 112.47 448.29 115.368 451.247 120.294C457.157 130.141 457.354 141.139 455.515 150.259C454.598 154.812 453.179 158.858 451.746 161.999C450.289 165.192 448.884 167.302 448.062 168.1C446.209 169.902 441.858 172.744 436.188 173.689C430.589 174.622 423.659 173.716 416.474 168.002C408.879 161.961 402.831 159.354 398.03 159.762C393.01 160.189 389.916 163.821 388.104 168.649C387.155 171.179 386.726 175.033 386.565 179.267C386.402 183.555 386.511 188.417 386.726 193.073C386.941 197.733 387.264 202.21 387.531 205.728C387.585 206.427 387.635 207.084 387.682 207.694V207.695C387.828 209.586 387.94 211.027 387.986 211.892C387.534 211.984 386.842 212.046 385.896 212.056C383.768 212.079 380.762 211.842 377.351 211.447C370.557 210.659 362.385 209.27 356.924 208.228C352.754 207.337 346.512 207.148 341.504 209.719C338.958 211.027 336.729 213.053 335.306 216.035C333.89 219.002 333.328 222.799 333.901 227.57C335.281 239.07 335.495 247.315 331.092 253.408C326.694 259.493 317.347 263.862 298.199 266.426C279.115 268.981 267.634 265.895 262.34 260.122C257.181 254.497 257.349 245.614 263.395 234.981C266.48 229.554 268.569 225.608 269.822 222.75C270.449 221.321 270.888 220.116 271.134 219.104C271.375 218.113 271.468 217.163 271.25 216.316C271.008 215.374 270.419 214.704 269.628 214.306C268.922 213.951 268.109 213.84 267.372 213.801C266.616 213.761 265.759 213.791 264.895 213.826L264.63 213.837L264.628 213.837C263.823 213.871 262.982 213.905 262.091 213.905H262.052H262.012H261.972H261.931H261.89H261.848H261.805H261.762H261.718H261.673H261.628H261.582H261.535H261.488H261.441H261.392H261.343H261.294H261.243H261.193H261.141H261.089H261.037H260.983H260.93H260.875H260.82H260.764H260.708H260.651H260.594H260.536H260.477H260.418H260.359H260.298H260.237H260.176H260.114H260.051H259.988H259.924H259.86H259.795H259.73H259.664H259.598H259.53H259.463H259.395H259.326H259.257H259.187H259.117H259.046H258.974H258.902H258.83H258.757H258.683H258.609H258.535H258.46H258.384H258.308H258.231H258.154H258.077H257.998H257.92H257.841H257.761H257.681H257.6H257.519H257.437H257.355H257.272H257.189H257.106H257.021H256.937H256.852H256.766H256.68H256.594H256.507H256.419H256.331H256.243H256.154H256.065H255.975H255.885H255.794H255.703H255.612H255.52H255.427H255.334H255.241H255.147H255.053H254.958H254.863H254.768H254.672H254.576H254.479H254.382H254.284H254.186H254.087H253.989H253.889H253.79H253.69H253.589H253.488H253.387H253.285H253.183H253.08H252.978H252.874H252.771H252.666H252.562H252.457H252.352H252.246H252.14H252.034H251.927H251.82H251.713H251.605H251.497H251.388H251.279H251.17H251.06H250.95H250.84H250.729H250.618H250.507H250.395H250.283H250.171H250.058H249.945H249.832H249.718H249.604H249.49H249.375H249.26H249.144H249.029H248.913H248.796H248.68H248.563H248.446H248.328H248.21H248.092H247.974H247.855H247.736H247.617H247.497H247.377H247.257H247.136H247.016H246.895H246.773H246.652H246.53H246.408H246.285H246.163H246.04H245.917H245.793H245.669H245.545H245.421H245.297H245.172H245.047H244.922H244.796H244.67H244.544H244.418H244.292H244.165H244.038H243.911H243.784H243.656H243.528H243.4H243.272H243.143H243.015H242.886H242.757H242.627H242.498H242.368H242.238H242.108H241.978H241.847H241.716H241.585H241.454H241.323H241.191H241.06H240.928H240.796H240.664H240.531H240.399H240.266H240.133H240H239.867H239.733H239.6H239.466H239.332H239.198H239.064H238.93H238.795H238.66H238.526H238.391H238.256H238.12H237.985H237.85H237.714H237.578H237.442H237.306H237.17H237.034H236.898H236.761H236.624H236.488H236.351H236.214H236.077H235.94H235.803H235.665H235.528H235.39H235.253H235.115H234.977H234.839H234.701H234.563H234.425H234.287H234.148H234.01H233.871H233.733H233.594H233.456H233.317H233.178H233.039H232.9H232.761H232.622H232.483H232.344H232.205H232.066H231.926H231.787H231.648H231.508H231.369H231.229H231.09H230.95H230.811H230.671H230.532H230.392H230.252H230.113H229.973H229.833H229.693H229.554H229.414H229.274H229.135H228.995H228.855H228.715H228.576H228.436H228.296H228.157H228.017H227.877H227.738H227.598H227.458H227.319H227.179H227.04H226.9H226.761H226.621H226.482H226.343H226.203H226.064H225.925H225.786H225.646H225.507H225.368H225.229H225.09H224.952H224.813H224.674H224.535H224.397H224.258H224.12H223.982H223.843H223.705H223.567H223.429H223.291H223.153H223.015H222.878H222.74H222.602H222.465H222.328H222.191H222.053H221.916H221.78H221.643H221.506H221.37H221.233H221.097H220.961H220.825H220.689H220.553H220.417H220.281H220.146H220.011H219.876H219.741H219.606H219.471H219.336H219.202H219.068H218.934H218.8H218.666H218.532H218.399H218.265H218.132H217.999H217.866H217.733H217.601H217.469H217.336H217.204H217.073H216.941H216.81H216.678H216.547H216.416H216.286H216.155H216.025H215.895H215.765H215.635H215.506H215.377H215.248H215.119H214.99H214.862H214.734H214.606H214.478H214.351H214.223H214.096H213.969H213.843H213.716H213.59H213.464H213.339H213.213H213.088H212.963H212.839H212.714H212.59H212.466H212.343H212.219H212.096H211.973H211.851H211.728H211.606H211.485H211.363H211.242H211.121H211H210.88H210.76H210.64H210.521H210.401H210.283H210.164H210.046H209.928H209.81H209.692H209.575H209.459H209.342H209.226H209.11H208.994H208.879H208.764H208.65H208.535H208.422H208.308H208.195H208.082H207.969H207.857H207.745H207.633H207.522H207.411H207.301H207.191H207.081H206.971H206.862H206.753H206.645H206.537H206.429H206.322H206.215H206.108H206.002H205.896H205.791H205.686H205.581H205.477H205.373H205.269H205.166H205.063H204.961H204.859H204.758H204.656H204.556H204.455H204.355H204.256H204.157H204.058H203.96H203.862H189.18C187.29 208.317 184.063 194.173 183.56 172.999C183.285 161.458 185.896 156.63 188.559 154.863C191.13 153.157 194.46 153.867 197.007 155.386C201.816 160.475 215.128 168.383 231.738 161.295C237.026 159.039 240.552 155.751 242.591 151.84C244.621 147.944 245.111 143.558 244.564 139.195C243.476 130.518 238.258 121.652 232.166 116.034C226.853 111.136 218.71 111.474 211.253 113.433C205.297 114.998 199.402 117.692 194.926 120.187C195.145 118.971 195.314 117.539 195.398 115.903C195.607 111.855 195.306 106.449 193.899 99.7188C191.431 87.9069 190.057 70.2712 189.641 61.4987C197.712 61.4745 212.738 61.2713 227.558 60.669C235.49 60.3467 243.376 59.9095 250.111 59.3229C256.81 58.7394 262.48 57.9996 265.917 57.0451C274.334 54.7078 278.714 50.5659 279.251 46.0013C279.792 41.4054 276.324 37.4685 271.454 35.9079C269.442 35.2633 266.606 33.7273 263.943 31.5766C261.277 29.4244 258.928 26.7727 257.732 23.9763C256.565 21.2455 256.495 18.4094 258.293 15.5896C260.15 12.6755 264.124 9.58166 271.527 6.778ZM186.634 61.4003C182.031 61.0536 177.014 60.6467 171.801 60.2238C153.726 58.7576 133.29 57.0998 119.601 57.0998C110.802 57.0998 107.405 59.7694 106.226 62.4168C105.007 65.1546 105.777 68.6268 107.092 71.1937C109.687 73.4086 113.014 77.1219 114.786 81.3609C115.704 83.5588 116.233 85.9674 115.958 88.4131C115.681 90.8859 114.592 93.2944 112.448 95.4643C102.207 105.824 84.291 106.969 61.9747 97.8906C57.0409 95.8836 53.9959 92.8862 52.4996 89.2085C51.0229 85.579 51.1412 81.4978 52.0931 77.4471C53.7552 70.3753 58.0736 62.9329 61.9622 57.0998H3.76161C2.32267 68.2157 3.14441 86.7823 4.38355 105.33C4.76097 110.979 5.17688 116.623 5.57571 122.036C6.52859 134.967 7.38395 146.576 7.38394 153.766C7.38391 180.353 6.33683 199.927 4.22414 213.843L84.612 211.053L85.0524 211.037L85.4311 211.263C86.5259 211.914 86.8425 213.155 86.7433 214.347C86.6435 215.547 86.1256 217.029 85.1396 218.824C83.1573 222.434 79.0403 227.738 71.3291 235.31C66.6803 239.875 65.7938 243.31 66.5745 245.857C67.401 248.554 70.2885 251.028 74.9997 253.131C84.3156 257.289 99.1471 259.281 111.416 259.565C123.221 259.838 131.279 254.395 135.362 247.725C139.501 240.964 139.501 233.132 135.568 228.343C133.644 226 132.812 223.733 133.26 221.603C133.702 219.5 135.293 218.016 137.074 216.988C140.619 214.943 145.946 214.101 149.665 213.907L149.704 213.905H149.743H186.026C183.99 207.395 181.042 193.326 180.561 173.07C180.282 161.34 182.857 155.046 186.9 152.363C190.979 149.657 195.787 151.102 198.751 152.936L198.926 153.045L199.065 153.196C203.143 157.622 215.262 165.064 230.56 158.536C235.297 156.515 238.253 153.671 239.93 150.453C241.616 147.218 242.077 143.476 241.587 139.569C240.601 131.705 235.793 123.46 230.132 118.24C226.042 114.468 219.321 114.415 212.016 116.335C204.824 118.225 197.638 121.884 193.235 124.678L188.637 127.595L191.092 122.735C191.534 121.86 192.206 119.559 192.402 115.748C192.597 111.981 192.322 106.835 190.963 100.333C188.426 88.1934 187.039 70.1774 186.634 61.4003ZM323.983 9.90042C316.359 3.94544 295.173 -5.38432 270.465 3.97243C262.797 6.87612 258.123 10.2744 255.763 13.9772C253.343 17.7744 253.488 21.68 254.974 25.156C256.433 28.5664 259.179 31.5864 262.058 33.9108C264.939 36.2368 268.097 37.9825 270.538 38.7648C274.574 40.0578 276.587 42.9698 276.271 45.6507C275.952 48.363 273.139 51.926 265.114 54.1545C261.975 55.0264 256.557 55.75 249.851 56.3342C243.18 56.9152 235.345 57.3501 227.436 57.6715C211.658 58.3127 195.638 58.5003 188.095 58.5012C183.221 58.1399 177.814 57.7012 172.159 57.2424C154.06 55.774 133.425 54.0998 119.601 54.0998C110.316 54.0998 105.378 56.9473 103.485 61.1963C101.673 65.2662 103.003 69.9325 104.58 72.8619L104.717 73.1177L104.94 73.3036C107.338 75.301 110.44 78.7411 112.018 82.5175C112.8 84.3908 113.179 86.277 112.977 88.0785C112.778 89.853 112.005 91.6441 110.314 93.3553C101.374 102.4 85.0372 104.034 63.1052 95.1118C58.7761 93.3507 56.4158 90.8734 55.2784 88.0779C54.1215 85.2344 54.1415 81.8442 55.0136 78.1335C56.7664 70.675 61.8087 62.5385 66.0301 56.455L67.6644 54.0998H64.7978H2.45872H1.17189L0.976172 55.3717C-0.766699 66.6977 0.108988 86.3523 1.39022 105.53C1.7737 111.27 2.19379 116.971 2.59483 122.413C3.54261 135.275 4.38395 146.692 4.38394 153.766C4.38391 181.479 3.24182 201.397 0.978595 215.162L0.681655 216.968L2.51076 216.905L83.7548 214.084L83.7536 214.099C83.7036 214.701 83.4023 215.756 82.5101 217.38C80.7361 220.61 76.8609 225.674 69.2272 233.169C64.2853 238.022 62.4316 242.577 63.7061 246.736C64.9347 250.745 68.8977 253.693 73.777 255.87C83.6424 260.274 98.9529 262.277 111.346 262.564C124.202 262.861 133.27 256.889 137.921 249.291C142.517 241.784 142.859 232.494 137.887 226.439C136.249 224.444 136.013 223.091 136.196 222.22C136.385 221.322 137.123 220.423 138.573 219.587C141.48 217.91 146.2 217.096 149.783 216.905H203.862H203.96H204.058H204.157H204.256H204.355H204.455H204.556H204.656H204.758H204.859H204.961H205.063H205.166H205.269H205.373H205.477H205.581H205.686H205.791H205.896H206.002H206.108H206.215H206.322H206.429H206.537H206.645H206.753H206.862H206.971H207.081H207.191H207.301H207.411H207.522H207.633H207.745H207.857H207.969H208.082H208.195H208.308H208.422H208.535H208.65H208.764H208.879H208.994H209.11H209.226H209.342H209.459H209.575H209.692H209.81H209.928H210.046H210.164H210.283H210.401H210.521H210.64H210.76H210.88H211H211.121H211.242H211.363H211.485H211.606H211.728H211.851H211.973H212.096H212.219H212.343H212.466H212.59H212.714H212.839H212.963H213.088H213.213H213.339H213.464H213.59H213.716H213.843H213.969H214.096H214.223H214.351H214.478H214.606H214.734H214.862H214.99H215.119H215.248H215.377H215.506H215.635H215.765H215.895H216.025H216.155H216.286H216.416H216.547H216.678H216.81H216.941H217.073H217.204H217.336H217.469H217.601H217.733H217.866H217.999H218.132H218.265H218.399H218.532H218.666H218.8H218.934H219.068H219.202H219.336H219.471H219.606H219.741H219.876H220.011H220.146H220.281H220.417H220.553H220.689H220.825H220.961H221.097H221.233H221.37H221.506H221.643H221.78H221.916H222.053H222.191H222.328H222.465H222.602H222.74H222.878H223.015H223.153H223.291H223.429H223.567H223.705H223.843H223.982H224.12H224.258H224.397H224.535H224.674H224.813H224.952H225.09H225.229H225.368H225.507H225.646H225.786H225.925H226.064H226.203H226.343H226.482H226.621H226.761H226.9H227.04H227.179H227.319H227.458H227.598H227.738H227.877H228.017H228.157H228.296H228.436H228.576H228.715H228.855H228.995H229.135H229.274H229.414H229.554H229.693H229.833H229.973H230.113H230.252H230.392H230.532H230.671H230.811H230.95H231.09H231.229H231.369H231.508H231.648H231.787H231.926H232.066H232.205H232.344H232.483H232.622H232.761H232.9H233.039H233.178H233.317H233.456H233.594H233.733H233.871H234.01H234.148H234.287H234.425H234.563H234.701H234.839H234.977H235.115H235.253H235.39H235.528H235.665H235.803H235.94H236.077H236.214H236.351H236.488H236.624H236.761H236.898H237.034H237.17H237.306H237.442H237.578H237.714H237.85H237.985H238.12H238.256H238.391H238.526H238.66H238.795H238.93H239.064H239.198H239.332H239.466H239.6H239.733H239.867H240H240.133H240.266H240.399H240.531H240.664H240.796H240.928H241.06H241.191H241.323H241.454H241.585H241.716H241.847H241.978H242.108H242.238H242.368H242.498H242.627H242.757H242.886H243.015H243.143H243.272H243.4H243.528H243.656H243.784H243.911H244.038H244.165H244.292H244.418H244.544H244.67H244.796H244.922H245.047H245.172H245.297H245.421H245.545H245.669H245.793H245.917H246.04H246.163H246.285H246.408H246.53H246.652H246.773H246.895H247.016H247.136H247.257H247.377H247.497H247.617H247.736H247.855H247.974H248.092H248.21H248.328H248.446H248.563H248.68H248.796H248.913H249.029H249.144H249.26H249.375H249.49H249.604H249.718H249.832H249.945H250.058H250.171H250.283H250.395H250.507H250.618H250.729H250.84H250.95H251.06H251.17H251.279H251.388H251.497H251.605H251.713H251.82H251.927H252.034H252.14H252.246H252.352H252.457H252.562H252.666H252.771H252.874H252.978H253.08H253.183H253.285H253.387H253.488H253.589H253.69H253.79H253.889H253.989H254.087H254.186H254.284H254.382H254.479H254.576H254.672H254.768H254.863H254.958H255.053H255.147H255.241H255.334H255.427H255.52H255.612H255.703H255.794H255.885H255.975H256.065H256.154H256.243H256.331H256.419H256.507H256.594H256.68H256.766H256.852H256.937H257.021H257.106H257.189H257.272H257.355H257.437H257.519H257.6H257.681H257.761H257.841H257.92H257.998H258.077H258.154H258.231H258.308H258.384H258.46H258.535H258.609H258.683H258.757H258.83H258.902H258.974H259.046H259.117H259.187H259.257H259.326H259.395H259.463H259.53H259.598H259.664H259.73H259.795H259.86H259.924H259.988H260.051H260.114H260.176H260.237H260.298H260.359H260.418H260.477H260.536H260.594H260.651H260.708H260.764H260.82H260.875H260.93H260.983H261.037H261.089H261.141H261.193H261.243H261.294H261.343H261.392H261.441H261.488H261.535H261.582H261.628H261.673H261.718H261.762H261.805H261.848H261.89H261.931H261.972H262.012H262.052H262.091C263.048 216.905 263.952 216.868 264.752 216.835L265.018 216.824C265.904 216.788 266.621 216.765 267.213 216.796C267.825 216.829 268.136 216.914 268.28 216.986L268.295 216.993C268.316 217.004 268.325 217.008 268.331 217.016C268.335 217.022 268.337 217.03 268.34 217.043C268.341 217.049 268.343 217.055 268.345 217.063C268.384 217.215 268.412 217.602 268.219 218.395C268.032 219.166 267.669 220.191 267.075 221.545C265.888 224.251 263.867 228.081 260.787 233.498C254.501 244.554 253.642 255.076 260.129 262.149C266.48 269.075 279.318 271.981 298.597 269.4C317.812 266.827 328.331 262.35 333.523 255.165C338.711 247.988 338.24 238.541 336.88 227.212C336.356 222.851 336.902 219.656 338.014 217.327C339.119 215.011 340.837 213.434 342.875 212.388C347.029 210.255 352.49 210.346 356.312 211.165L356.329 211.168L356.345 211.171C361.845 212.221 370.105 213.627 377.005 214.427C380.445 214.826 383.604 215.081 385.929 215.056C387.073 215.043 388.122 214.963 388.925 214.753C389.319 214.65 389.779 214.485 390.169 214.187C390.599 213.86 391.009 213.31 391.009 212.552C391.009 211.797 390.862 209.9 390.667 207.372L390.667 207.371C390.621 206.78 390.573 206.154 390.523 205.5C390.256 201.99 389.936 197.549 389.723 192.935C389.51 188.316 389.404 183.548 389.563 179.381C389.723 175.162 390.15 171.739 390.913 169.703C392.527 165.4 394.913 163.038 398.285 162.752C401.876 162.446 407.132 164.405 414.607 170.35C422.493 176.622 430.292 177.713 436.681 176.648C442.999 175.596 447.896 172.445 450.153 170.252C451.387 169.053 452.979 166.525 454.476 163.244C455.997 159.91 457.49 155.645 458.456 150.852C460.385 141.281 460.24 129.449 453.819 118.75C450.61 113.403 446.839 110.023 442.702 108.198C438.57 106.374 434.21 106.164 429.924 106.915C421.429 108.405 412.967 113.728 406.458 118.294C403.338 120.483 400.884 121.321 399.01 121.365C397.201 121.409 395.782 120.719 394.632 119.481C393.445 118.203 392.527 116.313 391.911 114.007C391.298 111.716 391.009 109.11 391.009 106.501V106.45V106.398V106.346V106.293V106.24V106.186V106.132V106.077V106.021V105.965V105.909V105.852V105.794V105.736V105.677V105.618V105.558V105.498V105.437V105.376V105.314V105.252V105.189V105.126V105.062V104.998V104.933V104.867V104.802V104.735V104.668V104.601V104.533V104.465V104.396V104.327V104.257V104.186V104.116V104.044V103.973V103.9V103.828V103.755V103.681V103.607V103.532V103.457V103.382V103.306V103.229V103.152V103.075V102.997V102.919V102.84V102.761V102.681V102.601V102.521V102.44V102.359V102.277V102.195V102.112V102.029V101.945V101.861V101.777V101.692V101.607V101.521V101.435V101.348V101.262V101.174V101.086V100.998V100.91V100.821V100.731V100.642V100.551V100.461V100.37V100.279V100.187V100.095V100.002V99.9091V99.8158V99.7221V99.6281V99.5336V99.4388V99.3436V99.248V99.152V99.0557V98.959V98.8619V98.7645V98.6667V98.5686V98.4701V98.3712V98.272V98.1724V98.0725V97.9722V97.8716V97.7707V97.6693V97.5677V97.4657V97.3634V97.2607V97.1577V97.0544V96.9507V96.8467V96.7424V96.6378V96.5328V96.4275V96.3219V96.216V96.1098V96.0032V95.8963V95.7892V95.6817V95.5739V95.4658V95.3574V95.2487V95.1397V95.0304V94.9208V94.811V94.7008V94.5903V94.4796V94.3686V94.2572V94.1457V94.0338V93.9216V93.8092V93.6965V93.5835V93.4703V93.3568V93.243V93.1289V93.0146V92.9V92.7852V92.6701V92.5548V92.4392V92.3233V92.2073V92.0909V91.9743V91.8575V91.7404V91.6231V91.5055V91.3877V91.2697V91.1515V91.033V90.9143V90.7953V90.6761V90.5567V90.4371V90.3173V90.1973V90.077V89.9565V89.8358V89.7149V89.5938V89.4725V89.351V89.2292V89.1073V88.9852V88.8629V88.7403V88.6176V88.4947V88.3716V88.2484V88.1249V88.0012V87.8774V87.7534V87.6292V87.5049V87.3803V87.2556V87.1307V87.0057V86.8805V86.7551V86.6295V86.5038V86.378V86.2519V86.1258V85.9994V85.8729V85.7463V85.6195V85.4926V85.3655V85.2383V85.111V84.9835V84.8558V84.7281V84.6002V84.4721V84.344V84.2157V84.0873V83.9587V83.8301V83.7013V83.5724V83.4434V83.3143V83.1851V83.0557V82.9262V82.7967V82.667V82.5373V82.4074V82.2774V82.1473V82.0172V81.8869V81.7566V81.6261V81.4956V81.365V81.2343V81.1035V80.9727V80.8418V80.7107V80.5797V80.4485V80.3173V80.186V80.0546V79.9232V79.7917V79.6601V79.5285V79.3968V79.2651V79.1333V79.0015V78.8696V78.7377V78.6057V78.4737V78.3416V78.2095V78.0774V77.9452V77.813V77.6807V77.5484V77.4161V77.2838V77.1514V77.019V76.8866V76.7542V76.6217V76.4893V76.3568V76.2243V76.0918V75.9593V75.8268V75.6942V75.5617V75.4292V75.2967V75.1641V75.0316V74.8991V74.7666V74.6341V74.5016V74.3691V74.2367V74.1043V73.9718V73.8394V73.7071V73.5747V73.4424V73.3101V73.1779V73.0456V72.9134V72.7813V72.6492V72.5171V72.3851V72.2531V72.1211V71.9892V71.8574V71.7256V71.5938V71.4622V71.3305V71.1989V71.0674V70.936V70.8046V70.6733V70.542V70.4109V70.2798V70.1487V70.0178V69.8869V69.7561V69.6254V69.4947V69.3642V69.2337V69.1034V68.9731V68.8429V68.7128V68.5828V68.4529V68.3231V68.1934V68.0638V67.9343V67.805V67.6757V67.5466V67.4175V67.2886V67.1598V67.0311V66.9025V66.7741V66.6458V66.5176V66.3895V66.2616V66.1338V66.0061V65.8786V65.7512V65.6239V65.4968V65.3698V65.243V65.1163V64.9898V64.8634V64.7372V64.6112V64.4853V64.3595V64.2339V64.1085V63.9832V63.8581V63.7332V63.6085V63.4839V63.3595V63.2352V63.1112V62.9873V62.8636V62.7401V62.6167V62.4936V62.3707V62.2479V62.1253V62.0029V61.8808V61.7588V61.637V61.5154V61.3941V61.2729V61.1519V61.0312V60.9106V60.7903V60.6702V60.5503V60.4306V60.3112V60.192V60.0729V59.9542V59.8356V59.7173V59.5992V59.4814V59.3637V59.2464V59.1292V59.0123V58.8957V58.7793V58.6631V58.5472V58.4315V58.3161V58.2009V58.086V57.9714V57.857V57.7429V57.6291V57.5155V57.4022V57.2891V57.1763V57.0638V56.9516V56.8396V56.728V56.6166V56.5055V56.3947V56.2841V56.1739V56.0639V55.9543V55.8449V55.7358V55.627V55.5186V55.4104V55.3025V55.1949V55.0877V54.9807V54.8741V54.7678V54.6618V54.5561V54.4507V54.3457V54.2409V54.1365V54.0324V53.9287V53.8253V53.7222V53.6194V53.517V53.4149V53.3132V53.2118V53.1107V53.01V52.9097V52.8096V52.71V52.6107V52.5117V52.4131V52.3149V52.217V52.1195V52.0223V51.9255V51.8291V51.733V51.6373V51.542V51.4471V51.3525V51.2584V51.1646V51.0712V50.9781V50.8855V50.7932V50.7014V50.6099V50.5188V50.4281V50.3379V50.248V50.1585V50.0694V49.9807V49.8925V48.3773L389.494 48.3925C370.5 48.5832 330.753 48.8477 323.149 48.3951C318.942 48.1447 316.027 45.4318 315.551 42.3178C315.09 39.2969 316.845 35.1072 323.704 31.8418C326.783 30.3763 328.812 28.5438 329.919 26.4273C331.032 24.2975 331.117 22.0563 330.635 19.9632C329.693 15.8743 326.547 12.1352 324.046 9.95246L324.015 9.92558L323.983 9.90042ZM83.7324 213.675C83.7332 213.674 83.7372 213.681 83.7421 213.699C83.734 213.684 83.7316 213.675 83.7324 213.675Z" fill="url(#paint0_linear)"/>
<defs>
<linearGradient id="paint0_linear" x1="138.361" y1="-8.49879" x2="275.455" y2="306.401" gradientUnits="userSpaceOnUse">
<stop offset="0.0837049" stop-color="#9CA4FF"/>
<stop offset="1" stop-color="#9CA4FF" stop-opacity="0.16"/>
</linearGradient>
<clipPath id="clip0">
<rect x="266.04" y="132.926" width="91.9974" height="27.181" fill="white"/>
</clipPath>
</defs>
</svg>
