<svg width="635" height="325" viewBox="0 0 635 325" fill="none" xmlns="http://www.w3.org/2000/svg">
<g filter="url(#filter0_ddd)">
<rect x="20" y="20.2186" width="595" height="277.099" rx="3.71384" fill="white"/>
</g>
<g filter="url(#filter1_dd)">
<rect x="178.526" y="89.1553" width="134.185" height="182.317" rx="6.13809" fill="#6D6DF6"/>
</g>
<rect opacity="0.2" x="260.59" y="140.514" width="37.014" height="14.8056" rx="1.94712" fill="white"/>
<path d="M271.099 151.338V144.78H269.788V152.514H274.718V151.338H271.099ZM278.072 152.659C279.689 152.659 280.865 151.51 280.865 149.694C280.865 147.874 279.689 146.73 278.072 146.73C276.45 146.73 275.28 147.874 275.28 149.694C275.28 151.51 276.45 152.659 278.072 152.659ZM278.072 151.558C277.149 151.558 276.552 150.838 276.552 149.694C276.552 148.545 277.149 147.825 278.072 147.825C278.991 147.825 279.592 148.545 279.592 149.694C279.592 150.838 278.991 151.558 278.072 151.558ZM288.7 146.875L287.589 150.967L286.31 146.875H285.059L283.775 150.967L282.669 146.875H281.326L283.056 152.514H284.328L285.682 148.298L287.035 152.514H288.303L290.022 146.875H288.7Z" fill="white"/>
<rect opacity="0.2" x="260.59" y="162.722" width="37.014" height="14.8056" rx="1.94712" fill="white"/>
<path d="M277.474 166.988H276.217L273.687 173.455L271.158 166.988H269.906V174.722H270.878V168.702L273.166 174.722H274.208L276.502 168.696V174.722H277.474V166.988ZM279.296 168.03H280.311V166.988H279.296V168.03ZM279.35 174.722H280.263V169.121H279.35V174.722ZM285.94 166.988V169.91C285.639 169.438 285.033 168.981 284.066 168.981C282.718 168.981 281.638 170.179 281.638 171.924C281.638 173.67 282.718 174.862 284.066 174.862C285.07 174.862 285.666 174.368 285.946 173.933V174.722H286.853V166.988H285.94ZM284.27 174.014C283.362 174.014 282.583 173.305 282.583 171.924C282.583 170.544 283.362 169.83 284.27 169.83C285.237 169.83 285.967 170.662 285.967 171.924C285.967 173.181 285.247 174.014 284.27 174.014Z" fill="white"/>
<rect opacity="0.2" x="260.59" y="184.931" width="37.014" height="14.8056" rx="1.94712" fill="white"/>
<path d="M274.998 189.197V192.586H270.884V189.197H269.906V196.931H270.884V193.477H274.998V196.931H275.975V189.197H274.998ZM277.796 190.239H278.811V189.197H277.796V190.239ZM277.85 196.931H278.763V191.329H277.85V196.931ZM284.392 191.329V192.038C284.096 191.603 283.559 191.189 282.668 191.189C281.185 191.189 280.138 192.301 280.138 194.031C280.138 195.755 281.185 196.872 282.673 196.872C283.538 196.872 284.064 196.485 284.386 196.034V196.453C284.386 197.398 283.785 198.129 282.652 198.129C281.964 198.129 281.368 197.876 280.895 197.296L280.283 197.903C280.901 198.601 281.637 198.95 282.625 198.95C284.306 198.95 285.3 197.957 285.3 196.415V191.329H284.392ZM282.759 196.029C281.782 196.029 281.089 195.266 281.089 194.031C281.089 192.79 281.782 192.033 282.759 192.033C283.656 192.033 284.419 192.666 284.419 194.031C284.419 195.395 283.656 196.029 282.759 196.029ZM289.799 191.189C288.719 191.189 288.161 191.737 287.984 192.033V189.197H287.071V196.931H287.984V193.612C287.984 192.833 288.596 192.017 289.589 192.017C290.315 192.017 290.771 192.473 290.771 193.311V196.931H291.684V193.101C291.684 191.898 290.911 191.189 289.799 191.189Z" fill="white"/>
<rect opacity="0.2" x="260.59" y="207.139" width="37.014" height="14.8056" rx="1.94712" fill="white"/>
<path d="M271.099 217.963V211.405H269.788V219.139H274.718V217.963H271.099ZM278.072 219.284C279.689 219.284 280.865 218.135 280.865 216.32C280.865 214.499 279.689 213.355 278.072 213.355C276.45 213.355 275.28 214.499 275.28 216.32C275.28 218.135 276.45 219.284 278.072 219.284ZM278.072 218.183C277.149 218.183 276.552 217.464 276.552 216.32C276.552 215.17 277.149 214.451 278.072 214.451C278.991 214.451 279.592 215.17 279.592 216.32C279.592 217.464 278.991 218.183 278.072 218.183ZM288.7 213.5L287.589 217.592L286.31 213.5H285.059L283.775 217.592L282.669 213.5H281.326L283.056 219.139H284.328L285.682 214.923L287.035 219.139H288.303L290.022 213.5H288.7Z" fill="white"/>
<rect opacity="0.2" x="194.891" y="233.974" width="102.318" height="23.3365" rx="6.13809" fill="white"/>
<path d="M197.863 119.908C200.447 119.908 202.086 118.072 202.086 115.304C202.086 112.536 200.447 110.7 197.863 110.7C195.272 110.7 193.64 112.536 193.64 115.304C193.64 118.072 195.272 119.908 197.863 119.908ZM197.863 118.526C196.242 118.526 195.174 117.293 195.174 115.304C195.174 113.315 196.242 112.081 197.863 112.081C199.489 112.081 200.551 113.315 200.551 115.304C200.551 117.293 199.489 118.526 197.863 118.526ZM206.769 113.125C205.726 113.125 205.136 113.794 204.922 114.279V113.278H203.534V119.723H204.946V116.568C204.946 115.322 205.664 114.445 206.646 114.445C206.849 114.445 207.088 114.475 207.236 114.506L207.518 113.223C207.211 113.143 206.935 113.125 206.769 113.125ZM212.59 113.278V114.082C212.277 113.604 211.663 113.113 210.681 113.113C208.987 113.113 207.808 114.402 207.808 116.36C207.808 118.312 208.987 119.601 210.687 119.601C211.651 119.601 212.228 119.134 212.565 118.643V119.122C212.565 120.036 211.97 120.822 210.755 120.822C209.994 120.822 209.331 120.57 208.797 120.012L207.974 120.976C208.656 121.669 209.552 122.037 210.742 122.037C212.762 122.037 213.977 120.89 213.977 119.103V113.278H212.59ZM210.939 118.361C209.951 118.361 209.257 117.593 209.257 116.36C209.257 115.12 209.951 114.353 210.939 114.353C211.86 114.353 212.608 115.015 212.608 116.36C212.608 117.704 211.86 118.361 210.939 118.361ZM218.14 113.125C217.054 113.125 216.158 113.561 215.599 114.303L216.508 115.132C216.882 114.647 217.41 114.334 218.067 114.334C218.889 114.334 219.411 114.77 219.411 115.752V115.826H218.429C216.453 115.826 215.323 116.433 215.323 117.87C215.323 119.134 216.275 119.883 217.521 119.883C218.521 119.883 219.141 119.459 219.436 118.968V119.723H220.829V115.715C220.829 113.96 219.761 113.125 218.14 113.125ZM219.417 117.305C219.417 117.937 218.822 118.778 217.815 118.778C217.128 118.778 216.704 118.459 216.704 117.839C216.704 117.059 217.502 116.857 218.65 116.857H219.417V117.305ZM225.918 113.119C224.739 113.119 224.107 113.696 223.892 114.076V113.278H222.505V119.723H223.917V115.961C223.917 115.151 224.506 114.34 225.476 114.34C226.194 114.34 226.66 114.782 226.66 115.666V119.723H228.072V115.341C228.072 113.886 227.127 113.119 225.918 113.119ZM229.694 112.229H231.204V110.885H229.694V112.229ZM229.743 119.723H231.155V113.278H229.743V119.723ZM235.669 119.889C236.694 119.889 237.664 119.558 238.363 118.22L237.154 117.643C236.792 118.348 236.326 118.643 235.693 118.643C234.631 118.643 233.932 117.827 233.932 116.507C233.932 115.224 234.601 114.383 235.693 114.383C236.307 114.383 236.78 114.641 237.154 115.304L238.345 114.69C237.688 113.481 236.632 113.131 235.65 113.131C233.748 113.131 232.483 114.463 232.483 116.513C232.483 118.551 233.754 119.889 235.669 119.889ZM247.95 115.169C248.723 114.788 249.19 114.107 249.19 113.174C249.19 111.775 248.195 110.885 246.489 110.885H242.555V119.723H246.704C248.416 119.723 249.399 118.766 249.399 117.268C249.399 116.243 248.889 115.513 247.95 115.169ZM244.052 112.21H246.336C247.177 112.21 247.668 112.665 247.668 113.395C247.668 114.162 247.115 114.592 246.293 114.592H244.052V112.21ZM246.55 118.398H244.052V115.875H246.52C247.324 115.875 247.876 116.329 247.876 117.133C247.876 117.9 247.385 118.398 246.55 118.398ZM253.758 119.889C255.606 119.889 256.95 118.576 256.95 116.501C256.95 114.42 255.606 113.113 253.758 113.113C251.905 113.113 250.566 114.42 250.566 116.501C250.566 118.576 251.905 119.889 253.758 119.889ZM253.758 118.631C252.703 118.631 252.021 117.808 252.021 116.501C252.021 115.187 252.703 114.365 253.758 114.365C254.808 114.365 255.495 115.187 255.495 116.501C255.495 117.808 254.808 118.631 253.758 118.631ZM261.069 119.889C262.916 119.889 264.261 118.576 264.261 116.501C264.261 114.42 262.916 113.113 261.069 113.113C259.215 113.113 257.877 114.42 257.877 116.501C257.877 118.576 259.215 119.889 261.069 119.889ZM261.069 118.631C260.013 118.631 259.332 117.808 259.332 116.501C259.332 115.187 260.013 114.365 261.069 114.365C262.118 114.365 262.806 115.187 262.806 116.501C262.806 117.808 262.118 118.631 261.069 118.631ZM267.933 119.908C269.499 119.908 270.61 119.189 270.61 117.845C270.61 116.397 269.413 116.041 268.228 115.856C267.295 115.709 266.693 115.549 266.693 115.009C266.693 114.531 267.209 114.303 267.884 114.303C268.584 114.303 269.13 114.524 269.572 115.028L270.499 114.205C269.873 113.475 269.032 113.1 267.89 113.1C266.344 113.1 265.294 113.819 265.294 115.058C265.294 116.403 266.368 116.875 267.663 117.078C268.609 117.225 269.21 117.36 269.21 117.919C269.21 118.41 268.731 118.698 267.958 118.698C267.049 118.698 266.362 118.391 265.902 117.802L264.932 118.619C265.521 119.374 266.491 119.908 267.933 119.908ZM275.137 118.539C274.849 118.631 274.659 118.661 274.444 118.661C273.891 118.661 273.701 118.471 273.701 117.784V114.481H275.291V113.278H273.701V111.504H272.289V113.278H271.313V114.481H272.289V118.127C272.289 119.423 273.044 119.889 274.18 119.889C274.56 119.889 275.033 119.809 275.438 119.668L275.137 118.539Z" fill="#FCFCFD"/>
<path d="M196.665 151.812C198.411 151.812 199.549 150.915 199.549 149.562C199.549 147.821 198.062 147.51 196.757 147.258C195.72 147.053 194.78 146.855 194.78 145.958C194.78 145.206 195.5 144.674 196.596 144.674C197.568 144.674 198.363 145.093 198.706 145.807L199.512 145.356C199.002 144.352 197.927 143.783 196.601 143.783C194.893 143.783 193.787 144.663 193.787 145.979C193.787 147.607 195.199 147.907 196.477 148.154C197.552 148.369 198.551 148.595 198.551 149.583C198.551 150.389 197.799 150.92 196.671 150.92C195.575 150.92 194.775 150.485 194.351 149.626L193.545 150.104C194.12 151.216 195.231 151.812 196.665 151.812ZM203.789 145.92C202.79 145.92 202.199 146.393 201.899 146.844V146.06H200.996V153.541H201.909V150.883C202.237 151.366 202.839 151.796 203.784 151.796C205.127 151.796 206.195 150.604 206.195 148.853C206.195 147.102 205.132 145.92 203.789 145.92ZM203.574 150.947C202.602 150.947 201.877 150.12 201.877 148.853C201.877 147.601 202.597 146.769 203.574 146.769C204.477 146.769 205.245 147.472 205.245 148.853C205.245 150.233 204.477 150.947 203.574 150.947ZM208.153 149.159H212.418V148.917C212.418 147.102 211.36 145.92 209.813 145.92C208.282 145.92 207.197 147.086 207.197 148.88C207.197 150.641 208.277 151.801 209.963 151.801C210.93 151.801 211.725 151.372 212.214 150.62L211.489 150.152C211.043 150.813 210.517 150.974 209.942 150.974C208.819 150.974 208.234 150.249 208.153 149.159ZM209.808 146.742C210.651 146.742 211.279 147.354 211.435 148.385H208.18C208.331 147.333 208.97 146.742 209.808 146.742ZM216.512 145.92C215.4 145.92 214.842 146.495 214.675 146.78V146.06H213.773V151.662H214.686V148.337C214.686 147.558 215.309 146.742 216.292 146.742C217.017 146.742 217.474 147.198 217.474 148.036V151.662H218.387V147.832C218.387 146.629 217.613 145.92 216.512 145.92ZM224.024 143.928V146.849C223.724 146.377 223.117 145.92 222.15 145.92C220.802 145.92 219.722 147.118 219.722 148.863C219.722 150.609 220.802 151.801 222.15 151.801C223.154 151.801 223.75 151.307 224.03 150.872V151.662H224.937V143.928H224.024ZM222.354 150.953C221.446 150.953 220.668 150.244 220.668 148.863C220.668 147.483 221.446 146.769 222.354 146.769C223.321 146.769 224.051 147.601 224.051 148.863C224.051 150.12 223.332 150.953 222.354 150.953ZM226.627 147.311H227.808V146.06H226.627V147.311ZM226.627 151.662H227.808V150.41H226.627V151.662Z" fill="white"/>
<path d="M197.176 167.264H194.099V174.998H195.076V171.883H197.176C198.626 171.883 199.507 170.975 199.507 169.574C199.507 168.172 198.626 167.264 197.176 167.264ZM197.122 170.997H195.076V168.156H197.122C197.998 168.156 198.508 168.736 198.508 169.574C198.508 170.417 197.998 170.997 197.122 170.997ZM203.251 169.262C202.241 169.262 201.758 169.976 201.591 170.315V169.396H200.689V174.998H201.602V172.2C201.602 171.024 202.29 170.164 203.197 170.164C203.353 170.164 203.53 170.186 203.648 170.213L203.874 169.348C203.638 169.278 203.385 169.262 203.251 169.262ZM206.922 175.138C208.511 175.138 209.607 173.983 209.607 172.195C209.607 170.406 208.511 169.257 206.922 169.257C205.326 169.257 204.236 170.406 204.236 172.195C204.236 173.983 205.326 175.138 206.922 175.138ZM206.922 174.284C205.874 174.284 205.187 173.473 205.187 172.195C205.187 170.916 205.874 170.105 206.922 170.105C207.963 170.105 208.656 170.916 208.656 172.195C208.656 173.473 207.963 174.284 206.922 174.284ZM212.866 167.952C213.006 167.952 213.156 167.968 213.333 168.016L213.57 167.259C213.328 167.173 213.108 167.124 212.829 167.124C211.921 167.124 211.201 167.656 211.201 168.784V169.396H210.369V170.202H211.201V174.998H212.114V170.202H213.468V169.396H212.114V169.01C212.114 168.29 212.27 167.952 212.866 167.952ZM214.553 167.264V168.306H215.568V167.264H214.553ZM214.601 174.998H215.514V169.396H214.601V174.998ZM219.739 174.192C219.481 174.284 219.32 174.316 219.11 174.316C218.616 174.316 218.46 174.128 218.46 173.521V170.202H219.862V169.396H218.46V167.887H217.547V169.396H216.726V170.202H217.547V173.725C217.547 174.778 218.111 175.132 219.014 175.132C219.304 175.132 219.626 175.068 219.948 174.955L219.739 174.192ZM221.158 170.648H222.34V169.396H221.158V170.648ZM221.158 174.998H222.34V173.747H221.158V174.998Z" fill="white"/>
<path d="M199.41 198.335H200.463L197.488 190.601H196.419L193.449 198.335H194.485L195.291 196.197H198.605L199.41 198.335ZM195.619 195.322L196.945 191.804L198.272 195.322H195.619ZM204.721 198.491C206.074 198.491 207.057 197.862 207.739 196.53L206.891 196.111C206.402 197.11 205.741 197.572 204.742 197.572C203.19 197.572 202.154 196.364 202.154 194.468C202.154 192.572 203.163 191.364 204.71 191.364C205.618 191.364 206.354 191.777 206.901 192.69L207.723 192.25C207.052 191.036 205.978 190.445 204.694 190.445C202.513 190.445 201.155 192.051 201.155 194.468C201.155 196.885 202.54 198.491 204.721 198.491ZM212.484 198.491C214.708 198.491 216.088 196.885 216.088 194.468C216.088 192.051 214.708 190.445 212.484 190.445C210.261 190.445 208.886 192.051 208.886 194.468C208.886 196.885 210.261 198.491 212.484 198.491ZM212.484 197.572C210.927 197.572 209.885 196.385 209.885 194.468C209.885 192.551 210.927 191.364 212.484 191.364C214.047 191.364 215.084 192.551 215.084 194.468C215.084 196.385 214.047 197.572 212.484 197.572ZM220.296 198.485C222.042 198.485 223.18 197.588 223.18 196.235C223.18 194.495 221.692 194.183 220.387 193.931C219.351 193.727 218.411 193.528 218.411 192.631C218.411 191.879 219.131 191.348 220.226 191.348C221.198 191.348 221.993 191.766 222.337 192.481L223.143 192.03C222.632 191.025 221.558 190.456 220.232 190.456C218.524 190.456 217.417 191.337 217.417 192.653C217.417 194.28 218.83 194.581 220.108 194.828C221.182 195.043 222.181 195.268 222.181 196.256C222.181 197.062 221.429 197.594 220.301 197.594C219.206 197.594 218.405 197.159 217.981 196.299L217.176 196.777C217.75 197.889 218.862 198.485 220.296 198.485ZM224.546 193.985H225.728V192.733H224.546V193.985ZM224.546 198.335H225.728V197.084H224.546V198.335Z" fill="white"/>
<path d="M199.384 213.937H193.364V214.834H195.888V221.671H196.86V214.834H199.384V213.937ZM202.308 215.935C201.298 215.935 200.815 216.649 200.648 216.988V216.069H199.746V221.671H200.659V218.873C200.659 217.697 201.346 216.837 202.254 216.837C202.41 216.837 202.587 216.859 202.705 216.886L202.931 216.021C202.695 215.951 202.442 215.935 202.308 215.935ZM205.699 215.935C204.769 215.935 204.05 216.316 203.561 217.009L204.216 217.541C204.565 217.031 205.054 216.751 205.677 216.751C206.499 216.751 206.998 217.213 206.998 218.223V218.277H206.107C204.377 218.277 203.319 218.771 203.319 220.065C203.319 221.15 204.13 221.805 205.253 221.805C206.209 221.805 206.773 221.376 207.004 220.973V221.671H207.911V218.159C207.911 216.633 206.972 215.935 205.699 215.935ZM206.998 219.566C206.998 220.146 206.424 221.021 205.366 221.021C204.673 221.021 204.238 220.677 204.238 220.06C204.238 219.2 205.113 219.034 206.338 219.034H206.998V219.566ZM211.503 214.625C211.643 214.625 211.793 214.641 211.971 214.689L212.207 213.932C211.965 213.846 211.745 213.797 211.466 213.797C210.558 213.797 209.838 214.329 209.838 215.457V216.069H209.006V216.875H209.838V221.671H210.751V216.875H212.105V216.069H210.751V215.683C210.751 214.963 210.907 214.625 211.503 214.625ZM213.19 213.937V214.979H214.205V213.937H213.19ZM213.238 221.671H214.151V216.069H213.238V221.671ZM218.231 221.811C219.085 221.811 219.885 221.515 220.454 220.447L219.654 220.038C219.31 220.677 218.854 220.968 218.247 220.968C217.184 220.968 216.48 220.162 216.48 218.878C216.48 217.605 217.173 216.794 218.247 216.794C218.832 216.794 219.294 217.047 219.654 217.654L220.433 217.213C219.901 216.273 219.069 215.951 218.209 215.951C216.604 215.951 215.535 217.095 215.535 218.878C215.535 220.656 216.598 221.811 218.231 221.811ZM221.652 217.321H222.834V216.069H221.652V217.321ZM221.652 221.671H222.834V220.42H221.652V221.671Z" fill="white"/>
<rect opacity="0.5" x="38.7502" y="89.3987" width="133.698" height="181.83" rx="5.8947" fill="white" stroke="#C9CBD4" stroke-width="0.486781"/>
<rect x="61.8438" y="230.632" width="88.0714" height="22.5524" rx="6.13809" fill="#6D6DF6"/>
<path d="M94.6374 245.909C96.2302 245.909 97.2338 245.135 97.2338 243.915C97.2338 242.318 95.8619 242.069 94.7387 241.871C93.9238 241.729 93.2011 241.572 93.2011 240.928C93.2011 240.389 93.7443 240.016 94.5729 240.016C95.3694 240.016 96.0415 240.343 96.3545 240.877L97.2108 240.274C96.6998 239.464 95.7422 239.003 94.5821 239.003C93.0399 239.003 92.0548 239.781 92.0548 240.96C92.0548 242.456 93.3576 242.705 94.4625 242.907C95.3141 243.068 96.0829 243.229 96.0829 243.947C96.0829 244.518 95.5121 244.9 94.6466 244.9C93.7397 244.9 93.086 244.583 92.6763 243.901L91.8292 244.518C92.3954 245.43 93.3806 245.909 94.6374 245.909ZM99.2775 243.685H102.804V243.404C102.804 241.857 101.892 240.812 100.497 240.812C99.1532 240.812 98.1773 241.825 98.1773 243.386C98.1773 244.9 99.1993 245.895 100.594 245.895C101.487 245.895 102.146 245.577 102.624 244.91L101.86 244.371C101.506 244.864 101.105 245.002 100.636 245.002C99.7839 245.002 99.3604 244.472 99.2775 243.685ZM100.493 241.706C101.096 241.706 101.552 242.12 101.69 242.856H99.3051C99.4479 242.097 99.9128 241.706 100.493 241.706ZM103.962 245.771H105.021V239.141H103.962V245.771ZM107.299 243.685H110.825V243.404C110.825 241.857 109.914 240.812 108.519 240.812C107.175 240.812 106.199 241.825 106.199 243.386C106.199 244.9 107.221 245.895 108.616 245.895C109.509 245.895 110.167 245.577 110.646 244.91L109.882 244.371C109.527 244.864 109.127 245.002 108.657 245.002C107.805 245.002 107.382 244.472 107.299 243.685ZM108.514 241.706C109.117 241.706 109.573 242.12 109.711 242.856H107.327C107.469 242.097 107.934 241.706 108.514 241.706ZM114.073 245.895C114.842 245.895 115.569 245.646 116.094 244.643L115.187 244.21C114.916 244.739 114.566 244.96 114.092 244.96C113.295 244.96 112.771 244.348 112.771 243.358C112.771 242.396 113.272 241.765 114.092 241.765C114.552 241.765 114.907 241.959 115.187 242.456L116.08 241.996C115.588 241.089 114.796 240.826 114.06 240.826C112.632 240.826 111.684 241.825 111.684 243.363C111.684 244.891 112.637 245.895 114.073 245.895ZM119.634 244.882C119.418 244.951 119.275 244.974 119.114 244.974C118.7 244.974 118.557 244.831 118.557 244.316V241.839H119.749V240.937H118.557V239.606H117.498V240.937H116.766V241.839H117.498V244.574C117.498 245.545 118.065 245.895 118.916 245.895C119.202 245.895 119.556 245.835 119.86 245.729L119.634 244.882Z" fill="white"/>
<path d="M58.3021 145.284C60.0476 145.284 61.1862 144.387 61.1862 143.033C61.1862 141.293 59.6985 140.982 58.3934 140.729C57.3568 140.525 56.4169 140.326 56.4169 139.429C56.4169 138.678 57.1366 138.146 58.2322 138.146C59.2044 138.146 59.9993 138.565 60.343 139.279L61.1486 138.828C60.6384 137.824 59.5642 137.254 58.2376 137.254C56.5297 137.254 55.4233 138.135 55.4233 139.451C55.4233 141.078 56.8358 141.379 58.1141 141.626C59.1883 141.841 60.1872 142.066 60.1872 143.055C60.1872 143.86 59.4353 144.392 58.3074 144.392C57.2118 144.392 56.4115 143.957 55.9872 143.098L55.1816 143.576C55.7563 144.687 56.8681 145.284 58.3021 145.284ZM65.426 139.392C64.427 139.392 63.8362 139.864 63.5354 140.316V139.531H62.6331V147.013H63.5462V144.354C63.8738 144.838 64.4753 145.268 65.4206 145.268C66.7633 145.268 67.8321 144.075 67.8321 142.324C67.8321 140.573 66.7687 139.392 65.426 139.392ZM65.2111 144.419C64.239 144.419 63.514 143.592 63.514 142.324C63.514 141.073 64.2336 140.24 65.2111 140.24C66.1134 140.24 66.8815 140.944 66.8815 142.324C66.8815 143.705 66.1134 144.419 65.2111 144.419ZM69.7901 142.63H74.0545V142.389C74.0545 140.573 72.9965 139.392 71.4497 139.392C69.919 139.392 68.8341 140.557 68.8341 142.351C68.8341 144.113 69.9136 145.273 71.6001 145.273C72.5668 145.273 73.3617 144.843 73.8505 144.091L73.1254 143.624C72.6796 144.285 72.1533 144.446 71.5786 144.446C70.4561 144.446 69.8707 143.721 69.7901 142.63ZM71.4443 140.214C72.2875 140.214 72.9159 140.826 73.0717 141.857H69.817C69.9673 140.804 70.6065 140.214 71.4443 140.214ZM78.149 139.392C77.0372 139.392 76.4786 139.967 76.3121 140.251V139.531H75.4098V145.133H76.3229V141.809C76.3229 141.03 76.9459 140.214 77.9288 140.214C78.6538 140.214 79.1103 140.67 79.1103 141.508V145.133H80.0234V141.304C80.0234 140.101 79.25 139.392 78.149 139.392ZM85.6611 137.399V140.321C85.3603 139.848 84.7534 139.392 83.7867 139.392C82.4386 139.392 81.359 140.59 81.359 142.335C81.359 144.081 82.4386 145.273 83.7867 145.273C84.791 145.273 85.3872 144.779 85.6664 144.344V145.133H86.5741V137.399H85.6611ZM83.9907 144.424C83.0831 144.424 82.3043 143.715 82.3043 142.335C82.3043 140.955 83.0831 140.24 83.9907 140.24C84.9575 140.24 85.6879 141.073 85.6879 142.335C85.6879 143.592 84.9682 144.424 83.9907 144.424ZM88.2633 140.783H89.4449V139.531H88.2633V140.783ZM88.2633 145.133H89.4449V143.882H88.2633V145.133Z" fill="#343C5A"/>
<path d="M59.0716 160.735H55.9941V168.469H56.9716V165.354H59.0716C60.5217 165.354 61.4025 164.447 61.4025 163.045C61.4025 161.643 60.5217 160.735 59.0716 160.735ZM59.0179 164.468H56.9716V161.627H59.0179C59.8933 161.627 60.4035 162.207 60.4035 163.045C60.4035 163.888 59.8933 164.468 59.0179 164.468ZM65.1465 162.733C64.1368 162.733 63.6534 163.448 63.4869 163.786V162.868H62.5846V168.469H63.4976V165.671C63.4976 164.495 64.1851 163.636 65.0928 163.636C65.2485 163.636 65.4258 163.657 65.5439 163.684L65.7695 162.819C65.5332 162.749 65.2808 162.733 65.1465 162.733ZM68.817 168.609C70.4068 168.609 71.5024 167.454 71.5024 165.666C71.5024 163.877 70.4068 162.728 68.817 162.728C67.2219 162.728 66.1316 163.877 66.1316 165.666C66.1316 167.454 67.2219 168.609 68.817 168.609ZM68.817 167.755C67.7697 167.755 67.0823 166.944 67.0823 165.666C67.0823 164.387 67.7697 163.577 68.817 163.577C69.859 163.577 70.5518 164.387 70.5518 165.666C70.5518 166.944 69.859 167.755 68.817 167.755ZM74.7616 161.423C74.9013 161.423 75.0516 161.439 75.2289 161.487L75.4652 160.73C75.2235 160.644 75.0033 160.596 74.724 160.596C73.8164 160.596 73.0967 161.127 73.0967 162.255V162.868H72.2642V163.673H73.0967V168.469H74.0097V163.673H75.3632V162.868H74.0097V162.481C74.0097 161.761 74.1655 161.423 74.7616 161.423ZM76.4481 160.735V161.777H77.4631V160.735H76.4481ZM76.4964 168.469H77.4094V162.868H76.4964V168.469ZM81.6341 167.664C81.3763 167.755 81.2152 167.787 81.0057 167.787C80.5116 167.787 80.3558 167.599 80.3558 166.992V163.673H81.7576V162.868H80.3558V161.358H79.4428V162.868H78.6211V163.673H79.4428V167.196C79.4428 168.249 80.0067 168.604 80.909 168.604C81.1991 168.604 81.5213 168.539 81.8436 168.426L81.6341 167.664ZM83.0538 164.119H84.2353V162.868H83.0538V164.119ZM83.0538 168.469H84.2353V167.218H83.0538V168.469Z" fill="#343C5A"/>
<path d="M61.3058 191.805H62.3585L59.3831 184.071H58.3143L55.3442 191.805H56.3808L57.1864 189.668H60.5002L61.3058 191.805ZM57.514 188.792L58.8406 185.274L60.1672 188.792H57.514ZM66.6163 191.961C67.9698 191.961 68.9526 191.333 69.6347 190.001L68.7862 189.582C68.2974 190.581 67.6368 191.043 66.6378 191.043C65.0856 191.043 64.0491 189.834 64.0491 187.938C64.0491 186.042 65.0588 184.834 66.6056 184.834C67.5133 184.834 68.2491 185.248 68.7969 186.161L69.6186 185.72C68.9473 184.506 67.8731 183.916 66.5895 183.916C64.4089 183.916 63.0501 185.521 63.0501 187.938C63.0501 190.355 64.4358 191.961 66.6163 191.961ZM74.3796 191.961C76.6031 191.961 77.9834 190.355 77.9834 187.938C77.9834 185.521 76.6031 183.916 74.3796 183.916C72.1561 183.916 70.7812 185.521 70.7812 187.938C70.7812 190.355 72.1561 191.961 74.3796 191.961ZM74.3796 191.043C72.8221 191.043 71.7801 189.856 71.7801 187.938C71.7801 186.021 72.8221 184.834 74.3796 184.834C75.9425 184.834 76.9791 186.021 76.9791 187.938C76.9791 189.856 75.9425 191.043 74.3796 191.043ZM82.1915 191.956C83.937 191.956 85.0756 191.059 85.0756 189.705C85.0756 187.965 83.5879 187.654 82.2828 187.401C81.2462 187.197 80.3063 186.998 80.3063 186.101C80.3063 185.35 81.026 184.818 82.1217 184.818C83.0938 184.818 83.8887 185.237 84.2324 185.951L85.038 185.5C84.5278 184.496 83.4536 183.926 82.127 183.926C80.4191 183.926 79.3127 184.807 79.3127 186.123C79.3127 187.75 80.7253 188.051 82.0035 188.298C83.0777 188.513 84.0767 188.739 84.0767 189.727C84.0767 190.532 83.3247 191.064 82.1969 191.064C81.1012 191.064 80.301 190.629 79.8767 189.77L79.071 190.248C79.6457 191.36 80.7575 191.956 82.1915 191.956ZM86.442 187.455H87.6236V186.204H86.442V187.455ZM86.442 191.805H87.6236V190.554H86.442V191.805Z" fill="#343C5A"/>
<path d="M61.279 207.408H55.2583V208.305H57.7826V215.142H58.7547V208.305H61.279V207.408ZM64.2024 209.406C63.1927 209.406 62.7093 210.121 62.5428 210.459V209.54H61.6405V215.142H62.5536V212.344C62.5536 211.168 63.241 210.308 64.1487 210.308C64.3044 210.308 64.4817 210.33 64.5998 210.357L64.8254 209.492C64.5891 209.422 64.3367 209.406 64.2024 209.406ZM67.5932 209.406C66.664 209.406 65.9443 209.788 65.4556 210.48L66.1108 211.012C66.4599 210.502 66.9487 210.223 67.5717 210.223C68.3934 210.223 68.8929 210.684 68.8929 211.694V211.748H68.0013C66.2719 211.748 65.2139 212.242 65.2139 213.536C65.2139 214.621 66.0249 215.277 67.1474 215.277C68.1034 215.277 68.6673 214.847 68.8983 214.444V215.142H69.8059V211.63C69.8059 210.104 68.866 209.406 67.5932 209.406ZM68.8929 213.037C68.8929 213.617 68.3182 214.492 67.2602 214.492C66.5673 214.492 66.1323 214.149 66.1323 213.531C66.1323 212.672 67.0077 212.505 68.2323 212.505H68.8929V213.037ZM73.3979 208.096C73.5376 208.096 73.688 208.112 73.8652 208.16L74.1015 207.403C73.8598 207.317 73.6396 207.269 73.3603 207.269C72.4527 207.269 71.733 207.8 71.733 208.928V209.54H70.9005V210.346H71.733V215.142H72.646V210.346H73.9995V209.54H72.646V209.154C72.646 208.434 72.8018 208.096 73.3979 208.096ZM75.0844 207.408V208.45H76.0995V207.408H75.0844ZM75.1327 215.142H76.0458V209.54H75.1327V215.142ZM80.1254 215.282C80.9794 215.282 81.7796 214.986 82.3489 213.918L81.5487 213.51C81.2049 214.149 80.7484 214.439 80.1415 214.439C79.0781 214.439 78.3745 213.633 78.3745 212.349C78.3745 211.077 79.0673 210.266 80.1415 210.266C80.7269 210.266 81.1888 210.518 81.5487 211.125L82.3274 210.684C81.7957 209.745 80.9632 209.422 80.1039 209.422C78.498 209.422 77.4292 210.566 77.4292 212.349C77.4292 214.127 78.4927 215.282 80.1254 215.282ZM83.5468 210.792H84.7284V209.54H83.5468V210.792ZM83.5468 215.142H84.7284V213.891H83.5468V215.142Z" fill="#343C5A"/>
<rect opacity="0.1" x="121.349" y="136.374" width="36.0404" height="13.832" rx="1.46034" stroke="#363694" stroke-width="0.973561"/>
<path d="M131.37 146.711V140.153H130.06V147.887H134.99V146.711H131.37ZM138.344 148.032C139.96 148.032 141.137 146.883 141.137 145.067C141.137 143.247 139.96 142.103 138.344 142.103C136.722 142.103 135.551 143.247 135.551 145.067C135.551 146.883 136.722 148.032 138.344 148.032ZM138.344 146.931C137.42 146.931 136.824 146.211 136.824 145.067C136.824 143.918 137.42 143.198 138.344 143.198C139.262 143.198 139.864 143.918 139.864 145.067C139.864 146.211 139.262 146.931 138.344 146.931ZM148.972 142.248L147.86 146.34L146.582 142.248H145.33L144.047 146.34L142.94 142.248H141.598L143.327 147.887H144.6L145.953 143.671L147.307 147.887H148.574L150.293 142.248H148.972Z" fill="#656A84"/>
<rect opacity="0.1" x="121.348" y="158.582" width="36.0404" height="13.832" rx="1.46034" stroke="#363694" stroke-width="0.973561"/>
<path d="M137.743 162.362H136.486L133.957 168.828L131.427 162.362H130.176V170.096H131.148V164.075L133.436 170.096H134.478L136.771 164.07V170.096H137.743V162.362ZM139.566 163.404H140.581V162.362H139.566V163.404ZM139.619 170.096H140.533V164.494H139.619V170.096ZM146.21 162.362V165.283C145.909 164.811 145.302 164.354 144.335 164.354C142.987 164.354 141.908 165.552 141.908 167.297C141.908 169.043 142.987 170.235 144.335 170.235C145.34 170.235 145.936 169.741 146.215 169.306V170.096H147.123V162.362H146.21ZM144.539 169.387C143.632 169.387 142.853 168.678 142.853 167.297C142.853 165.917 143.632 165.203 144.539 165.203C145.506 165.203 146.237 166.035 146.237 167.297C146.237 168.554 145.517 169.387 144.539 169.387Z" fill="#47B881"/>
<rect opacity="0.1" x="121.348" y="180.791" width="36.0404" height="13.832" rx="1.46034" stroke="#363694" stroke-width="0.973561"/>
<path d="M135.267 184.57V187.959H131.153V184.57H130.176V192.304H131.153V188.85H135.267V192.304H136.245V184.57H135.267ZM138.066 185.612H139.081V184.57H138.066V185.612ZM138.119 192.304H139.032V186.702H138.119V192.304ZM144.661 186.702V187.411C144.366 186.976 143.829 186.563 142.937 186.563C141.455 186.563 140.408 187.674 140.408 189.404C140.408 191.128 141.455 192.245 142.943 192.245C143.807 192.245 144.334 191.858 144.656 191.407V191.826C144.656 192.771 144.054 193.502 142.921 193.502C142.234 193.502 141.638 193.249 141.165 192.669L140.553 193.276C141.17 193.974 141.906 194.323 142.894 194.323C144.575 194.323 145.569 193.33 145.569 191.788V186.702H144.661ZM143.029 191.402C142.051 191.402 141.358 190.639 141.358 189.404C141.358 188.163 142.051 187.406 143.029 187.406C143.926 187.406 144.688 188.039 144.688 189.404C144.688 190.768 143.926 191.402 143.029 191.402ZM150.068 186.563C148.989 186.563 148.43 187.11 148.253 187.406V184.57H147.34V192.304H148.253V188.985C148.253 188.206 148.865 187.39 149.859 187.39C150.584 187.39 151.041 187.846 151.041 188.684V192.304H151.954V188.475C151.954 187.271 151.18 186.563 150.068 186.563Z" fill="#6D6DF6"/>
<rect opacity="0.1" x="121.348" y="202.999" width="36.0404" height="13.832" rx="1.46034" stroke="#363694" stroke-width="0.973561"/>
<path d="M131.368 213.336V206.778H130.058V214.512H134.988V213.336H131.368ZM138.342 214.657C139.959 214.657 141.135 213.508 141.135 211.693C141.135 209.872 139.959 208.728 138.342 208.728C136.72 208.728 135.549 209.872 135.549 211.693C135.549 213.508 136.72 214.657 138.342 214.657ZM138.342 213.556C137.418 213.556 136.822 212.837 136.822 211.693C136.822 210.543 137.418 209.824 138.342 209.824C139.26 209.824 139.862 210.543 139.862 211.693C139.862 212.837 139.26 213.556 138.342 213.556ZM148.97 208.873L147.858 212.965L146.58 208.873H145.328L144.045 212.965L142.938 208.873H141.596L143.325 214.512H144.598L145.951 210.296L147.305 214.512H148.572L150.291 208.873H148.97Z" fill="#656A84"/>
<path d="M59.0628 119.907C61.647 119.907 63.2858 118.072 63.2858 115.304C63.2858 112.536 61.647 110.7 59.0628 110.7C56.4725 110.7 54.8398 112.536 54.8398 115.304C54.8398 118.072 56.4725 119.907 59.0628 119.907ZM59.0628 118.526C57.4424 118.526 56.3743 117.293 56.3743 115.304C56.3743 113.315 57.4424 112.081 59.0628 112.081C60.6894 112.081 61.7513 113.315 61.7513 115.304C61.7513 117.293 60.6894 118.526 59.0628 118.526ZM67.9693 113.125C66.9258 113.125 66.3366 113.794 66.1217 114.279V113.278H64.7345V119.723H66.1463V116.568C66.1463 115.322 66.8644 114.445 67.8465 114.445C68.0491 114.445 68.2885 114.475 68.4358 114.506L68.7181 113.223C68.4112 113.143 68.135 113.125 67.9693 113.125ZM73.7902 113.278V114.082C73.4772 113.604 72.8634 113.113 71.8813 113.113C70.1872 113.113 69.0086 114.402 69.0086 116.36C69.0086 118.312 70.1872 119.601 71.8874 119.601C72.8511 119.601 73.4281 119.134 73.7657 118.643V119.122C73.7657 120.036 73.1703 120.822 71.9549 120.822C71.1938 120.822 70.5309 120.57 69.9969 120.012L69.1744 120.975C69.8557 121.669 70.7519 122.037 71.9426 122.037C73.9621 122.037 75.1774 120.89 75.1774 119.103V113.278H73.7902ZM72.1391 118.361C71.1508 118.361 70.4572 117.593 70.4572 116.36C70.4572 115.12 71.1508 114.352 72.1391 114.352C73.0598 114.352 73.8086 115.015 73.8086 116.36C73.8086 117.704 73.0598 118.361 72.1391 118.361ZM79.3407 113.125C78.2542 113.125 77.3581 113.561 76.7995 114.303L77.7079 115.132C78.0824 114.647 78.6102 114.334 79.267 114.334C80.0895 114.334 80.6113 114.77 80.6113 115.752V115.826H79.6292C77.6527 115.826 76.5233 116.433 76.5233 117.87C76.5233 119.134 77.4747 119.883 78.7207 119.883C79.7212 119.883 80.3412 119.459 80.6358 118.968V119.723H82.0292V115.715C82.0292 113.96 80.9611 113.125 79.3407 113.125ZM80.6174 117.305C80.6174 117.937 80.022 118.778 79.0154 118.778C78.3279 118.778 77.9044 118.459 77.9044 117.839C77.9044 117.059 78.7023 116.857 79.8501 116.857H80.6174V117.305ZM87.1178 113.119C85.9393 113.119 85.3071 113.696 85.0923 114.076V113.278H83.7051V119.723H85.1168V115.961C85.1168 115.15 85.7061 114.34 86.6759 114.34C87.394 114.34 87.8605 114.782 87.8605 115.666V119.723H89.2723V115.341C89.2723 113.886 88.327 113.119 87.1178 113.119ZM90.8946 112.229H92.4046V110.884H90.8946V112.229ZM90.9437 119.723H92.3554V113.278H90.9437V119.723ZM96.869 119.889C97.894 119.889 98.8638 119.558 99.5636 118.219L98.3544 117.642C97.9922 118.348 97.5257 118.643 96.8935 118.643C95.8316 118.643 95.1319 117.827 95.1319 116.507C95.1319 115.224 95.8009 114.383 96.8935 114.383C97.5073 114.383 97.98 114.641 98.3544 115.304L99.5452 114.69C98.8884 113.481 97.8326 113.131 96.8505 113.131C94.9477 113.131 93.6833 114.463 93.6833 116.513C93.6833 118.551 94.9539 119.889 96.869 119.889ZM107.548 110.884H103.755V119.723H105.252V116.36H107.548C109.31 116.36 110.347 115.292 110.347 113.628C110.347 111.952 109.31 110.884 107.548 110.884ZM107.413 115.034H105.252V112.223H107.413C108.315 112.223 108.825 112.793 108.825 113.628C108.825 114.463 108.315 115.034 107.413 115.034ZM114.621 113.125C113.578 113.125 112.988 113.794 112.774 114.279V113.278H111.386V119.723H112.798V116.568C112.798 115.322 113.516 114.445 114.498 114.445C114.701 114.445 114.94 114.475 115.088 114.506L115.37 113.223C115.063 113.143 114.787 113.125 114.621 113.125ZM118.852 119.889C120.7 119.889 122.044 118.575 122.044 116.501C122.044 114.42 120.7 113.113 118.852 113.113C116.999 113.113 115.661 114.42 115.661 116.501C115.661 118.575 116.999 119.889 118.852 119.889ZM118.852 118.631C117.797 118.631 117.115 117.808 117.115 116.501C117.115 115.187 117.797 114.365 118.852 114.365C119.902 114.365 120.589 115.187 120.589 116.501C120.589 117.808 119.902 118.631 118.852 118.631ZM125.072 112.935C125.072 112.235 125.263 111.903 125.876 111.903C126.042 111.903 126.239 111.922 126.46 111.983L126.748 110.884C126.404 110.774 126.073 110.719 125.723 110.719C124.544 110.719 123.661 111.375 123.661 112.701V113.278H122.721V114.481H123.661V119.723H125.072V114.481H126.619V113.278H125.072V112.935ZM127.682 112.229H129.192V110.884H127.682V112.229ZM127.731 119.723H129.143V113.278H127.731V119.723ZM134.129 118.539C133.841 118.631 133.651 118.661 133.436 118.661C132.883 118.661 132.693 118.471 132.693 117.784V114.481H134.283V113.278H132.693V111.504H131.281V113.278H130.305V114.481H131.281V118.127C131.281 119.423 132.036 119.889 133.172 119.889C133.552 119.889 134.025 119.809 134.43 119.668L134.129 118.539Z" fill="#343C5A"/>
<rect opacity="0.5" x="318.789" y="89.3987" width="133.698" height="181.83" rx="5.8947" fill="white" stroke="#C9CBD4" stroke-width="0.486781"/>
<rect opacity="0.1" x="404.559" y="140.075" width="36.0404" height="13.832" rx="1.46034" stroke="#363694" stroke-width="0.973561"/>
<path d="M414.581 150.412V143.855H413.27V151.589H418.201V150.412H414.581ZM421.555 151.734C423.171 151.734 424.348 150.584 424.348 148.769C424.348 146.948 423.171 145.804 421.555 145.804C419.933 145.804 418.762 146.948 418.762 148.769C418.762 150.584 419.933 151.734 421.555 151.734ZM421.555 150.633C420.631 150.633 420.035 149.913 420.035 148.769C420.035 147.62 420.631 146.9 421.555 146.9C422.473 146.9 423.075 147.62 423.075 148.769C423.075 149.913 422.473 150.633 421.555 150.633ZM432.183 145.949L431.071 150.042L429.793 145.949H428.541L427.258 150.042L426.151 145.949H424.809L426.538 151.589H427.811L429.164 147.373L430.518 151.589H431.785L433.504 145.949H432.183Z" fill="#656A84"/>
<rect opacity="0.1" x="404.559" y="162.284" width="36.0404" height="13.832" rx="1.46034" stroke="#363694" stroke-width="0.973561"/>
<path d="M420.956 166.063H419.699L417.17 172.53L414.64 166.063H413.389V173.797H414.361V167.776L416.649 173.797H417.691L419.984 167.771V173.797H420.956V166.063ZM422.779 167.105H423.794V166.063H422.779V167.105ZM422.832 173.797H423.745V168.195H422.832V173.797ZM429.423 166.063V168.985C429.122 168.512 428.515 168.056 427.548 168.056C426.2 168.056 425.121 169.253 425.121 170.999C425.121 172.744 426.2 173.937 427.548 173.937C428.553 173.937 429.149 173.443 429.428 173.008V173.797H430.336V166.063H429.423ZM427.752 173.088C426.845 173.088 426.066 172.379 426.066 170.999C426.066 169.619 426.845 168.904 427.752 168.904C428.719 168.904 429.45 169.737 429.45 170.999C429.45 172.256 428.73 173.088 427.752 173.088Z" fill="#47B881"/>
<rect opacity="0.1" x="404.559" y="184.492" width="36.0404" height="13.832" rx="1.46034" stroke="#363694" stroke-width="0.973561"/>
<path d="M418.48 188.271V191.66H414.366V188.271H413.389V196.005H414.366V192.552H418.48V196.005H419.458V188.271H418.48ZM421.279 189.313H422.294V188.271H421.279V189.313ZM421.332 196.005H422.245V190.404H421.332V196.005ZM427.874 190.404V191.113C427.579 190.678 427.042 190.264 426.15 190.264C424.668 190.264 423.621 191.376 423.621 193.105C423.621 194.829 424.668 195.946 426.156 195.946C427.02 195.946 427.547 195.56 427.869 195.108V195.527C427.869 196.473 427.267 197.203 426.134 197.203C425.447 197.203 424.85 196.951 424.378 196.371L423.766 196.978C424.383 197.676 425.119 198.025 426.107 198.025C427.788 198.025 428.782 197.031 428.782 195.49V190.404H427.874ZM426.242 195.103C425.264 195.103 424.571 194.34 424.571 193.105C424.571 191.864 425.264 191.107 426.242 191.107C427.138 191.107 427.901 191.741 427.901 193.105C427.901 194.469 427.138 195.103 426.242 195.103ZM433.281 190.264C432.202 190.264 431.643 190.812 431.466 191.107V188.271H430.553V196.005H431.466V192.686C431.466 191.907 432.078 191.091 433.072 191.091C433.797 191.091 434.253 191.548 434.253 192.385V196.005H435.167V192.176C435.167 190.973 434.393 190.264 433.281 190.264Z" fill="#6D6DF6"/>
<rect opacity="0.1" x="404.559" y="206.701" width="36.0404" height="13.832" rx="1.46034" stroke="#363694" stroke-width="0.973561"/>
<path d="M414.581 217.038V210.48H413.27V218.214H418.201V217.038H414.581ZM421.555 218.359C423.171 218.359 424.348 217.209 424.348 215.394C424.348 213.573 423.171 212.429 421.555 212.429C419.933 212.429 418.762 213.573 418.762 215.394C418.762 217.209 419.933 218.359 421.555 218.359ZM421.555 217.258C420.631 217.258 420.035 216.538 420.035 215.394C420.035 214.245 420.631 213.525 421.555 213.525C422.473 213.525 423.075 214.245 423.075 215.394C423.075 216.538 422.473 217.258 421.555 217.258ZM432.183 212.574L431.071 216.667L429.793 212.574H428.541L427.258 216.667L426.151 212.574H424.809L426.538 218.214H427.811L429.164 213.998L430.518 218.214H431.785L433.504 212.574H432.183Z" fill="#656A84"/>
<rect x="341.881" y="230.632" width="88.0714" height="22.5524" rx="6.13809" fill="#6D6DF6"/>
<path d="M374.673 245.909C376.265 245.909 377.269 245.135 377.269 243.915C377.269 242.318 375.897 242.069 374.774 241.871C373.959 241.729 373.236 241.572 373.236 240.928C373.236 240.389 373.779 240.016 374.608 240.016C375.405 240.016 376.077 240.343 376.39 240.877L377.246 240.274C376.735 239.464 375.777 239.003 374.617 239.003C373.075 239.003 372.09 239.781 372.09 240.96C372.09 242.456 373.393 242.705 374.498 242.907C375.349 243.068 376.118 243.229 376.118 243.947C376.118 244.518 375.547 244.9 374.682 244.9C373.775 244.9 373.121 244.583 372.711 243.901L371.864 244.518C372.431 245.43 373.416 245.909 374.673 245.909ZM379.313 243.685H382.839V243.404C382.839 241.857 381.928 240.812 380.533 240.812C379.188 240.812 378.212 241.825 378.212 243.386C378.212 244.9 379.234 245.895 380.629 245.895C381.522 245.895 382.181 245.577 382.659 244.91L381.895 244.371C381.541 244.864 381.14 245.002 380.671 245.002C379.819 245.002 379.396 244.472 379.313 243.685ZM380.528 241.706C381.131 241.706 381.587 242.12 381.725 242.856H379.34C379.483 242.097 379.948 241.706 380.528 241.706ZM383.997 245.771H385.056V239.141H383.997V245.771ZM387.334 243.685H390.86V243.404C390.86 241.857 389.949 240.812 388.554 240.812C387.21 240.812 386.234 241.825 386.234 243.386C386.234 244.9 387.256 245.895 388.651 245.895C389.544 245.895 390.202 245.577 390.681 244.91L389.917 244.371C389.562 244.864 389.162 245.002 388.692 245.002C387.841 245.002 387.417 244.472 387.334 243.685ZM388.549 241.706C389.153 241.706 389.608 242.12 389.746 242.856H387.362C387.504 242.097 387.969 241.706 388.549 241.706ZM394.108 245.895C394.877 245.895 395.605 245.646 396.129 244.643L395.223 244.21C394.951 244.739 394.601 244.96 394.127 244.96C393.33 244.96 392.806 244.348 392.806 243.358C392.806 242.396 393.307 241.765 394.127 241.765C394.587 241.765 394.942 241.959 395.223 242.456L396.116 241.996C395.623 241.089 394.831 240.826 394.095 240.826C392.668 240.826 391.719 241.825 391.719 243.363C391.719 244.891 392.672 245.895 394.108 245.895ZM399.67 244.882C399.453 244.951 399.31 244.974 399.149 244.974C398.735 244.974 398.592 244.831 398.592 244.316V241.839H399.785V240.937H398.592V239.606H397.533V240.937H396.802V241.839H397.533V244.574C397.533 245.545 398.1 245.895 398.951 245.895C399.237 245.895 399.591 245.835 399.895 245.729L399.67 244.882Z" fill="white"/>
<path d="M338.7 145.284C340.445 145.284 341.584 144.387 341.584 143.033C341.584 141.293 340.096 140.982 338.791 140.729C337.754 140.525 336.814 140.326 336.814 139.429C336.814 138.677 337.534 138.146 338.63 138.146C339.602 138.146 340.397 138.565 340.74 139.279L341.546 138.828C341.036 137.823 339.962 137.254 338.635 137.254C336.927 137.254 335.821 138.135 335.821 139.451C335.821 141.078 337.233 141.379 338.512 141.626C339.586 141.841 340.585 142.066 340.585 143.055C340.585 143.86 339.833 144.392 338.705 144.392C337.609 144.392 336.809 143.957 336.385 143.098L335.579 143.576C336.154 144.687 337.266 145.284 338.7 145.284ZM345.823 139.392C344.824 139.392 344.234 139.864 343.933 140.316V139.531H343.031V147.013H343.944V144.354C344.271 144.838 344.873 145.267 345.818 145.267C347.161 145.267 348.23 144.075 348.23 142.324C348.23 140.573 347.166 139.392 345.823 139.392ZM345.609 144.419C344.636 144.419 343.911 143.592 343.911 142.324C343.911 141.073 344.631 140.24 345.609 140.24C346.511 140.24 347.279 140.944 347.279 142.324C347.279 143.705 346.511 144.419 345.609 144.419ZM350.188 142.63H354.452V142.389C354.452 140.573 353.394 139.392 351.847 139.392C350.316 139.392 349.232 140.557 349.232 142.351C349.232 144.113 350.311 145.273 351.998 145.273C352.964 145.273 353.759 144.843 354.248 144.091L353.523 143.624C353.077 144.285 352.551 144.446 351.976 144.446C350.854 144.446 350.268 143.721 350.188 142.63ZM351.842 140.213C352.685 140.213 353.313 140.826 353.469 141.857H350.214C350.365 140.804 351.004 140.213 351.842 140.213ZM358.546 139.392C357.435 139.392 356.876 139.966 356.71 140.251V139.531H355.807V145.133H356.72V141.809C356.72 141.03 357.343 140.213 358.326 140.213C359.051 140.213 359.508 140.67 359.508 141.508V145.133H360.421V141.304C360.421 140.101 359.647 139.392 358.546 139.392ZM366.059 137.399V140.321C365.758 139.848 365.151 139.392 364.184 139.392C362.836 139.392 361.757 140.589 361.757 142.335C361.757 144.08 362.836 145.273 364.184 145.273C365.188 145.273 365.785 144.779 366.064 144.344V145.133H366.972V137.399H366.059ZM364.388 144.424C363.481 144.424 362.702 143.715 362.702 142.335C362.702 140.955 363.481 140.24 364.388 140.24C365.355 140.24 366.085 141.073 366.085 142.335C366.085 143.592 365.366 144.424 364.388 144.424ZM368.661 140.783H369.842V139.531H368.661V140.783ZM368.661 145.133H369.842V143.882H368.661V145.133Z" fill="#343C5A"/>
<path d="M339.111 160.735H336.033V168.469H337.011V165.354H339.111C340.561 165.354 341.442 164.447 341.442 163.045C341.442 161.643 340.561 160.735 339.111 160.735ZM339.057 164.468H337.011V161.627H339.057C339.932 161.627 340.443 162.207 340.443 163.045C340.443 163.888 339.932 164.468 339.057 164.468ZM345.186 162.733C344.176 162.733 343.692 163.448 343.526 163.786V162.868H342.624V168.469H343.537V165.671C343.537 164.495 344.224 163.636 345.132 163.636C345.288 163.636 345.465 163.657 345.583 163.684L345.809 162.819C345.572 162.749 345.32 162.733 345.186 162.733ZM348.856 168.609C350.446 168.609 351.542 167.454 351.542 165.666C351.542 163.877 350.446 162.728 348.856 162.728C347.261 162.728 346.171 163.877 346.171 165.666C346.171 167.454 347.261 168.609 348.856 168.609ZM348.856 167.755C347.809 167.755 347.121 166.944 347.121 165.666C347.121 164.387 347.809 163.577 348.856 163.577C349.898 163.577 350.591 164.387 350.591 165.666C350.591 166.944 349.898 167.755 348.856 167.755ZM354.801 161.423C354.94 161.423 355.091 161.439 355.268 161.487L355.504 160.73C355.263 160.644 355.042 160.596 354.763 160.596C353.855 160.596 353.136 161.127 353.136 162.255V162.868H352.303V163.673H353.136V168.469H354.049V163.673H355.402V162.868H354.049V162.481C354.049 161.761 354.205 161.423 354.801 161.423ZM356.487 160.735V161.777H357.502V160.735H356.487ZM356.535 168.469H357.449V162.868H356.535V168.469ZM361.673 167.664C361.415 167.755 361.254 167.787 361.045 167.787C360.551 167.787 360.395 167.599 360.395 166.992V163.673H361.797V162.868H360.395V161.358H359.482V162.868H358.66V163.673H359.482V167.196C359.482 168.249 360.046 168.604 360.948 168.604C361.238 168.604 361.56 168.539 361.883 168.426L361.673 167.664ZM363.093 164.119H364.274V162.868H363.093V164.119ZM363.093 168.469H364.274V167.218H363.093V168.469Z" fill="#343C5A"/>
<path d="M341.345 191.805H342.398L339.422 184.071H338.353L335.383 191.805H336.42L337.225 189.668H340.539L341.345 191.805ZM337.553 188.792L338.88 185.274L340.206 188.792H337.553ZM346.655 191.961C348.009 191.961 348.992 191.333 349.674 190.001L348.825 189.582C348.336 190.581 347.676 191.043 346.677 191.043C345.125 191.043 344.088 189.834 344.088 187.938C344.088 186.042 345.098 184.834 346.645 184.834C347.552 184.834 348.288 185.248 348.836 186.161L349.658 185.72C348.986 184.506 347.912 183.916 346.629 183.916C344.448 183.916 343.089 185.521 343.089 187.938C343.089 190.355 344.475 191.961 346.655 191.961ZM354.419 191.961C356.642 191.961 358.023 190.355 358.023 187.938C358.023 185.521 356.642 183.916 354.419 183.916C352.195 183.916 350.82 185.521 350.82 187.938C350.82 190.355 352.195 191.961 354.419 191.961ZM354.419 191.043C352.861 191.043 351.819 189.856 351.819 187.938C351.819 186.021 352.861 184.834 354.419 184.834C355.982 184.834 357.018 186.021 357.018 187.938C357.018 189.856 355.982 191.043 354.419 191.043ZM362.231 191.956C363.976 191.956 365.115 191.059 365.115 189.705C365.115 187.965 363.627 187.654 362.322 187.401C361.285 187.197 360.345 186.998 360.345 186.101C360.345 185.35 361.065 184.818 362.161 184.818C363.133 184.818 363.928 185.237 364.271 185.951L365.077 185.5C364.567 184.496 363.493 183.926 362.166 183.926C360.458 183.926 359.352 184.807 359.352 186.123C359.352 187.75 360.764 188.051 362.043 188.298C363.117 188.513 364.116 188.739 364.116 189.727C364.116 190.532 363.364 191.064 362.236 191.064C361.14 191.064 360.34 190.629 359.916 189.77L359.11 190.248C359.685 191.36 360.797 191.956 362.231 191.956ZM366.481 187.455H367.663V186.204H366.481V187.455ZM366.481 191.805H367.663V190.554H366.481V191.805Z" fill="#343C5A"/>
<path d="M341.318 207.408H335.297V208.305H337.822V215.142H338.794V208.305H341.318V207.408ZM344.241 209.406C343.232 209.406 342.748 210.121 342.582 210.459V209.54H341.68V215.142H342.593V212.344C342.593 211.168 343.28 210.308 344.188 210.308C344.344 210.308 344.521 210.33 344.639 210.357L344.864 209.492C344.628 209.422 344.376 209.406 344.241 209.406ZM347.632 209.406C346.703 209.406 345.983 209.788 345.495 210.48L346.15 211.012C346.499 210.502 346.988 210.223 347.611 210.223C348.432 210.223 348.932 210.684 348.932 211.694V211.748H348.04C346.311 211.748 345.253 212.242 345.253 213.536C345.253 214.621 346.064 215.277 347.186 215.277C348.142 215.277 348.706 214.847 348.937 214.444V215.142H349.845V211.63C349.845 210.104 348.905 209.406 347.632 209.406ZM348.932 213.037C348.932 213.617 348.357 214.492 347.299 214.492C346.606 214.492 346.171 214.149 346.171 213.531C346.171 212.672 347.047 212.505 348.271 212.505H348.932V213.037ZM353.437 208.096C353.577 208.096 353.727 208.112 353.904 208.16L354.141 207.403C353.899 207.317 353.679 207.269 353.399 207.269C352.492 207.269 351.772 207.8 351.772 208.928V209.54H350.94V210.346H351.772V215.142H352.685V210.346H354.039V209.54H352.685V209.154C352.685 208.434 352.841 208.096 353.437 208.096ZM355.123 207.408V208.45H356.139V207.408H355.123ZM355.172 215.142H356.085V209.54H355.172V215.142ZM360.164 215.282C361.018 215.282 361.819 214.986 362.388 213.918L361.588 213.51C361.244 214.149 360.787 214.439 360.181 214.439C359.117 214.439 358.414 213.633 358.414 212.349C358.414 211.077 359.106 210.266 360.181 210.266C360.766 210.266 361.228 210.518 361.588 211.125L362.367 210.684C361.835 209.745 361.002 209.422 360.143 209.422C358.537 209.422 357.468 210.566 357.468 212.349C357.468 214.127 358.532 215.282 360.164 215.282ZM363.586 210.792H364.767V209.54H363.586V210.792ZM363.586 215.142H364.767V213.891H363.586V215.142Z" fill="#343C5A"/>
<path d="M339.405 110.884H335.612V119.723H337.109V116.36H339.405C341.167 116.36 342.204 115.292 342.204 113.628C342.204 111.952 341.167 110.884 339.405 110.884ZM339.27 115.034H337.109V112.223H339.27C340.172 112.223 340.682 112.793 340.682 113.628C340.682 114.463 340.172 115.034 339.27 115.034ZM346.478 113.125C345.435 113.125 344.845 113.794 344.63 114.279V113.278H343.243V119.723H344.655V116.568C344.655 115.322 345.373 114.445 346.355 114.445C346.558 114.445 346.797 114.475 346.944 114.506L347.227 113.223C346.92 113.143 346.644 113.125 346.478 113.125ZM350.709 119.889C352.557 119.889 353.901 118.575 353.901 116.501C353.901 114.42 352.557 113.113 350.709 113.113C348.855 113.113 347.517 114.42 347.517 116.501C347.517 118.575 348.855 119.889 350.709 119.889ZM350.709 118.631C349.653 118.631 348.972 117.808 348.972 116.501C348.972 115.187 349.653 114.365 350.709 114.365C351.759 114.365 352.446 115.187 352.446 116.501C352.446 117.808 351.759 118.631 350.709 118.631ZM359.628 110.884V114.101C359.284 113.597 358.615 113.113 357.608 113.113C356.037 113.113 354.828 114.487 354.828 116.501C354.828 118.52 356.037 119.889 357.608 119.889C358.64 119.889 359.327 119.38 359.652 118.882V119.723H361.04V110.884H359.628ZM357.964 118.637C357.031 118.637 356.276 117.894 356.276 116.501C356.276 115.114 357.031 114.365 357.964 114.365C358.94 114.365 359.671 115.193 359.671 116.501C359.671 117.808 358.953 118.637 357.964 118.637ZM366.865 113.278V117.041C366.865 117.851 366.276 118.668 365.306 118.668C364.606 118.668 364.14 118.219 364.14 117.336V113.278H362.728V117.655C362.728 119.109 363.673 119.883 364.864 119.883C366.037 119.883 366.663 119.318 366.884 118.931V119.723H368.277V113.278H366.865ZM372.791 119.889C373.816 119.889 374.785 119.558 375.485 118.219L374.276 117.642C373.914 118.348 373.447 118.643 372.815 118.643C371.753 118.643 371.053 117.827 371.053 116.507C371.053 115.224 371.723 114.383 372.815 114.383C373.429 114.383 373.902 114.641 374.276 115.304L375.467 114.69C374.81 113.481 373.754 113.131 372.772 113.131C370.869 113.131 369.605 114.463 369.605 116.513C369.605 118.551 370.875 119.889 372.791 119.889ZM379.962 118.539C379.674 118.631 379.484 118.661 379.269 118.661C378.716 118.661 378.526 118.471 378.526 117.784V114.481H380.116V113.278H378.526V111.504H377.114V113.278H376.138V114.481H377.114V118.127C377.114 119.423 377.869 119.889 379.005 119.889C379.385 119.889 379.858 119.809 380.263 119.668L379.962 118.539ZM385.979 118.379V110.884H384.481V119.723H390.116V118.379H385.979ZM391.117 112.229H392.627V110.884H391.117V112.229ZM391.166 119.723H392.578V113.278H391.166V119.723ZM398.73 113.278V114.107C398.405 113.616 397.717 113.113 396.692 113.113C395.115 113.113 393.905 114.481 393.905 116.495C393.905 118.514 395.115 119.883 396.692 119.883C397.693 119.883 398.368 119.398 398.712 118.895V121.872H400.123V113.278H398.73ZM397.048 118.631C396.115 118.631 395.36 117.888 395.36 116.495C395.36 115.101 396.115 114.365 397.048 114.365C398.03 114.365 398.755 115.193 398.755 116.495C398.755 117.808 398.03 118.631 397.048 118.631ZM405.943 113.278V117.041C405.943 117.851 405.354 118.668 404.384 118.668C403.684 118.668 403.217 118.219 403.217 117.336V113.278H401.806V117.655C401.806 119.109 402.751 119.883 403.942 119.883C405.114 119.883 405.74 119.318 405.961 118.931V119.723H407.355V113.278H405.943ZM409.032 112.229H410.542V110.884H409.032V112.229ZM409.081 119.723H410.493V113.278H409.081V119.723ZM416.621 110.884V114.101C416.277 113.597 415.608 113.113 414.602 113.113C413.03 113.113 411.821 114.487 411.821 116.501C411.821 118.52 413.03 119.889 414.602 119.889C415.633 119.889 416.32 119.38 416.646 118.882V119.723H418.033V110.884H416.621ZM414.958 118.637C414.025 118.637 413.27 117.894 413.27 116.501C413.27 115.114 414.025 114.365 414.958 114.365C415.934 114.365 416.664 115.193 416.664 116.501C416.664 117.808 415.946 118.637 414.958 118.637ZM422.201 113.125C421.115 113.125 420.218 113.561 419.66 114.303L420.568 115.132C420.943 114.647 421.471 114.334 422.127 114.334C422.95 114.334 423.472 114.77 423.472 115.752V115.826H422.49C420.513 115.826 419.384 116.433 419.384 117.87C419.384 119.134 420.335 119.883 421.581 119.883C422.582 119.883 423.202 119.459 423.496 118.968V119.723H424.89V115.715C424.89 113.96 423.822 113.125 422.201 113.125ZM423.478 117.305C423.478 117.937 422.882 118.778 421.876 118.778C421.188 118.778 420.765 118.459 420.765 117.839C420.765 117.059 421.563 116.857 422.711 116.857H423.478V117.305ZM429.741 118.539C429.452 118.631 429.262 118.661 429.047 118.661C428.495 118.661 428.305 118.471 428.305 117.784V114.481H429.894V113.278H428.305V111.504H426.893V113.278H425.917V114.481H426.893V118.127C426.893 119.423 427.648 119.889 428.783 119.889C429.164 119.889 429.636 119.809 430.042 119.668L429.741 118.539ZM431.237 112.229H432.747V110.884H431.237V112.229ZM431.286 119.723H432.698V113.278H431.286V119.723ZM437.218 119.889C439.065 119.889 440.41 118.575 440.41 116.501C440.41 114.42 439.065 113.113 437.218 113.113C435.364 113.113 434.026 114.42 434.026 116.501C434.026 118.575 435.364 119.889 437.218 119.889ZM437.218 118.631C436.162 118.631 435.481 117.808 435.481 116.501C435.481 115.187 436.162 114.365 437.218 114.365C438.267 114.365 438.955 115.187 438.955 116.501C438.955 117.808 438.267 118.631 437.218 118.631ZM445.148 113.119C443.97 113.119 443.338 113.696 443.123 114.076V113.278H441.736V119.723H443.147V115.961C443.147 115.15 443.737 114.34 444.706 114.34C445.425 114.34 445.891 114.782 445.891 115.666V119.723H447.303V115.341C447.303 113.886 446.358 113.119 445.148 113.119Z" fill="#343C5A"/>
<rect opacity="0.5" x="458.861" y="89.3987" width="133.698" height="181.83" rx="5.8947" fill="white" stroke="#C9CBD4" stroke-width="0.486781"/>
<rect opacity="0.1" x="540.586" y="136.374" width="36.0404" height="13.832" rx="1.46034" stroke="#363694" stroke-width="0.973561"/>
<path d="M550.608 146.711V140.153H549.298V147.887H554.228V146.711H550.608ZM557.582 148.032C559.199 148.032 560.375 146.883 560.375 145.068C560.375 143.247 559.199 142.103 557.582 142.103C555.96 142.103 554.789 143.247 554.789 145.068C554.789 146.883 555.96 148.032 557.582 148.032ZM557.582 146.931C556.658 146.931 556.062 146.212 556.062 145.068C556.062 143.918 556.658 143.199 557.582 143.199C558.501 143.199 559.102 143.918 559.102 145.068C559.102 146.212 558.501 146.931 557.582 146.931ZM568.21 142.248L567.098 146.34L565.82 142.248H564.569L563.285 146.34L562.179 142.248H560.836L562.565 147.887H563.838L565.192 143.671L566.545 147.887H567.813L569.531 142.248H568.21Z" fill="#656A84"/>
<rect opacity="0.1" x="540.586" y="158.582" width="36.0404" height="13.832" rx="1.46034" stroke="#363694" stroke-width="0.973561"/>
<path d="M556.983 162.362H555.727L553.197 168.828L550.667 162.362H549.416V170.096H550.388V164.075L552.676 170.096H553.718L556.011 164.07V170.096H556.983V162.362ZM558.806 163.404H559.821V162.362H558.806V163.404ZM558.86 170.096H559.773V164.494H558.86V170.096ZM565.45 162.362V165.283C565.149 164.811 564.542 164.354 563.576 164.354C562.227 164.354 561.148 165.552 561.148 167.297C561.148 169.043 562.227 170.235 563.576 170.235C564.58 170.235 565.176 169.741 565.455 169.306V170.096H566.363V162.362H565.45ZM563.78 169.387C562.872 169.387 562.093 168.678 562.093 167.297C562.093 165.917 562.872 165.203 563.78 165.203C564.746 165.203 565.477 166.035 565.477 167.297C565.477 168.554 564.757 169.387 563.78 169.387Z" fill="#47B881"/>
<rect opacity="0.1" x="540.586" y="180.791" width="36.0404" height="13.832" rx="1.46034" stroke="#363694" stroke-width="0.973561"/>
<path d="M554.508 184.57V187.959H550.393V184.57H549.416V192.304H550.393V188.851H554.508V192.304H555.485V184.57H554.508ZM557.306 185.612H558.321V184.57H557.306V185.612ZM557.36 192.304H558.273V186.702H557.36V192.304ZM563.902 186.702V187.411C563.606 186.976 563.069 186.563 562.178 186.563C560.695 186.563 559.648 187.674 559.648 189.404C559.648 191.128 560.695 192.245 562.183 192.245C563.048 192.245 563.574 191.858 563.896 191.407V191.826C563.896 192.771 563.295 193.502 562.161 193.502C561.474 193.502 560.878 193.249 560.405 192.669L559.793 193.276C560.411 193.974 561.146 194.323 562.135 194.323C563.816 194.323 564.809 193.33 564.809 191.788V186.702H563.902ZM562.269 191.402C561.291 191.402 560.599 190.639 560.599 189.404C560.599 188.163 561.291 187.406 562.269 187.406C563.166 187.406 563.928 188.04 563.928 189.404C563.928 190.768 563.166 191.402 562.269 191.402ZM569.309 186.563C568.229 186.563 567.671 187.11 567.493 187.406V184.57H566.58V192.304H567.493V188.985C567.493 188.206 568.106 187.39 569.099 187.39C569.824 187.39 570.281 187.846 570.281 188.684V192.304H571.194V188.475C571.194 187.272 570.42 186.563 569.309 186.563Z" fill="#6D6DF6"/>
<rect opacity="0.1" x="540.586" y="202.999" width="36.0404" height="13.832" rx="1.46034" stroke="#363694" stroke-width="0.973561"/>
<path d="M550.608 213.336V206.778H549.298V214.512H554.228V213.336H550.608ZM557.582 214.657C559.199 214.657 560.375 213.508 560.375 211.693C560.375 209.872 559.199 208.728 557.582 208.728C555.96 208.728 554.789 209.872 554.789 211.693C554.789 213.508 555.96 214.657 557.582 214.657ZM557.582 213.556C556.658 213.556 556.062 212.837 556.062 211.693C556.062 210.543 556.658 209.824 557.582 209.824C558.501 209.824 559.102 210.543 559.102 211.693C559.102 212.837 558.501 213.556 557.582 213.556ZM568.21 208.873L567.098 212.966L565.82 208.873H564.569L563.285 212.966L562.179 208.873H560.836L562.565 214.512H563.838L565.192 210.296L566.545 214.512H567.813L569.531 208.873H568.21Z" fill="#656A84"/>
<rect x="481.953" y="230.632" width="88.0714" height="22.5524" rx="6.13809" fill="#6D6DF6"/>
<path d="M514.747 245.909C516.34 245.909 517.343 245.135 517.343 243.915C517.343 242.318 515.971 242.069 514.848 241.871C514.033 241.729 513.31 241.572 513.31 240.928C513.31 240.389 513.854 240.016 514.682 240.016C515.479 240.016 516.151 240.343 516.464 240.877L517.32 240.274C516.809 239.464 515.852 239.003 514.692 239.003C513.149 239.003 512.164 239.781 512.164 240.96C512.164 242.456 513.467 242.705 514.572 242.907C515.423 243.068 516.192 243.229 516.192 243.947C516.192 244.518 515.621 244.9 514.756 244.9C513.849 244.9 513.195 244.583 512.786 243.901L511.939 244.518C512.505 245.43 513.49 245.909 514.747 245.909ZM519.387 243.685H522.913V243.404C522.913 241.857 522.002 240.812 520.607 240.812C519.263 240.812 518.287 241.825 518.287 243.386C518.287 244.9 519.309 245.895 520.704 245.895C521.597 245.895 522.255 245.577 522.734 244.91L521.969 244.371C521.615 244.864 521.215 245.002 520.745 245.002C519.893 245.002 519.47 244.472 519.387 243.685ZM520.602 241.706C521.205 241.706 521.661 242.12 521.799 242.856H519.415C519.557 242.097 520.022 241.706 520.602 241.706ZM524.071 245.771H525.13V239.141H524.071V245.771ZM527.408 243.685H530.935V243.404C530.935 241.857 530.023 240.812 528.628 240.812C527.284 240.812 526.308 241.825 526.308 243.386C526.308 244.9 527.33 245.895 528.725 245.895C529.618 245.895 530.276 245.577 530.755 244.91L529.991 244.371C529.637 244.864 529.236 245.002 528.766 245.002C527.915 245.002 527.491 244.472 527.408 243.685ZM528.624 241.706C529.227 241.706 529.683 242.12 529.821 242.856H527.436C527.579 242.097 528.044 241.706 528.624 241.706ZM534.183 245.895C534.951 245.895 535.679 245.646 536.204 244.643L535.297 244.21C535.025 244.739 534.675 244.96 534.201 244.96C533.405 244.96 532.88 244.348 532.88 243.358C532.88 242.396 533.382 241.765 534.201 241.765C534.661 241.765 535.016 241.959 535.297 242.456L536.19 241.996C535.697 241.089 534.905 240.826 534.169 240.826C532.742 240.826 531.793 241.825 531.793 243.363C531.793 244.891 532.746 245.895 534.183 245.895ZM539.744 244.882C539.527 244.951 539.385 244.974 539.224 244.974C538.809 244.974 538.667 244.831 538.667 244.316V241.839H539.859V240.937H538.667V239.606H537.608V240.937H536.876V241.839H537.608V244.574C537.608 245.545 538.174 245.895 539.026 245.895C539.311 245.895 539.665 245.835 539.969 245.729L539.744 244.882Z" fill="white"/>
<path d="M478.412 145.283C480.158 145.283 481.297 144.386 481.297 143.033C481.297 141.293 479.809 140.981 478.504 140.729C477.467 140.525 476.527 140.326 476.527 139.429C476.527 138.677 477.247 138.146 478.343 138.146C479.315 138.146 480.11 138.564 480.453 139.279L481.259 138.828C480.749 137.823 479.675 137.254 478.348 137.254C476.64 137.254 475.534 138.135 475.534 139.451C475.534 141.078 476.946 141.379 478.224 141.626C479.299 141.841 480.298 142.066 480.298 143.054C480.298 143.86 479.546 144.392 478.418 144.392C477.322 144.392 476.522 143.957 476.098 143.097L475.292 143.575C475.867 144.687 476.978 145.283 478.412 145.283ZM485.536 139.392C484.537 139.392 483.947 139.864 483.646 140.315V139.531H482.743V147.013H483.657V144.354C483.984 144.838 484.586 145.267 485.531 145.267C486.874 145.267 487.942 144.075 487.942 142.324C487.942 140.573 486.879 139.392 485.536 139.392ZM485.321 144.419C484.349 144.419 483.624 143.592 483.624 142.324C483.624 141.073 484.344 140.24 485.321 140.24C486.224 140.24 486.992 140.944 486.992 142.324C486.992 143.704 486.224 144.419 485.321 144.419ZM489.9 142.63H494.165V142.389C494.165 140.573 493.107 139.392 491.56 139.392C490.029 139.392 488.944 140.557 488.944 142.351C488.944 144.113 490.024 145.273 491.71 145.273C492.677 145.273 493.472 144.843 493.961 144.091L493.236 143.624C492.79 144.284 492.264 144.446 491.689 144.446C490.566 144.446 489.981 143.72 489.9 142.63ZM491.555 140.213C492.398 140.213 493.026 140.826 493.182 141.857H489.927C490.078 140.804 490.717 140.213 491.555 140.213ZM498.259 139.392C497.148 139.392 496.589 139.966 496.422 140.251V139.531H495.52V145.133H496.433V141.808C496.433 141.03 497.056 140.213 498.039 140.213C498.764 140.213 499.221 140.67 499.221 141.508V145.133H500.134V141.304C500.134 140.101 499.36 139.392 498.259 139.392ZM505.771 137.399V140.321C505.471 139.848 504.864 139.392 503.897 139.392C502.549 139.392 501.469 140.589 501.469 142.335C501.469 144.08 502.549 145.273 503.897 145.273C504.901 145.273 505.498 144.779 505.777 144.343V145.133H506.684V137.399H505.771ZM504.101 144.424C503.193 144.424 502.415 143.715 502.415 142.335C502.415 140.954 503.193 140.24 504.101 140.24C505.068 140.24 505.798 141.073 505.798 142.335C505.798 143.592 505.079 144.424 504.101 144.424ZM508.374 140.783H509.555V139.531H508.374V140.783ZM508.374 145.133H509.555V143.882H508.374V145.133Z" fill="#343C5A"/>
<path d="M479.183 160.735H476.105V168.469H477.083V165.354H479.183C480.633 165.354 481.514 164.446 481.514 163.045C481.514 161.643 480.633 160.735 479.183 160.735ZM479.129 164.468H477.083V161.627H479.129C480.005 161.627 480.515 162.207 480.515 163.045C480.515 163.888 480.005 164.468 479.129 164.468ZM485.258 162.733C484.248 162.733 483.765 163.448 483.598 163.786V162.867H482.696V168.469H483.609V165.671C483.609 164.495 484.296 163.635 485.204 163.635C485.36 163.635 485.537 163.657 485.655 163.684L485.881 162.819C485.645 162.749 485.392 162.733 485.258 162.733ZM488.928 168.609C490.518 168.609 491.614 167.454 491.614 165.666C491.614 163.877 490.518 162.728 488.928 162.728C487.333 162.728 486.243 163.877 486.243 165.666C486.243 167.454 487.333 168.609 488.928 168.609ZM488.928 167.755C487.881 167.755 487.194 166.944 487.194 165.666C487.194 164.387 487.881 163.576 488.928 163.576C489.97 163.576 490.663 164.387 490.663 165.666C490.663 166.944 489.97 167.755 488.928 167.755ZM494.873 161.423C495.013 161.423 495.163 161.439 495.34 161.487L495.577 160.73C495.335 160.644 495.115 160.596 494.835 160.596C493.928 160.596 493.208 161.127 493.208 162.255V162.867H492.376V163.673H493.208V168.469H494.121V163.673H495.474V162.867H494.121V162.481C494.121 161.761 494.277 161.423 494.873 161.423ZM496.559 160.735V161.777H497.574V160.735H496.559ZM496.608 168.469H497.521V162.867H496.608V168.469ZM501.745 167.664C501.488 167.755 501.327 167.787 501.117 167.787C500.623 167.787 500.467 167.599 500.467 166.992V163.673H501.869V162.867H500.467V161.358H499.554V162.867H498.732V163.673H499.554V167.196C499.554 168.249 500.118 168.604 501.02 168.604C501.31 168.604 501.633 168.539 501.955 168.426L501.745 167.664ZM503.165 164.119H504.347V162.867H503.165V164.119ZM503.165 168.469H504.347V167.218H503.165V168.469Z" fill="#343C5A"/>
<path d="M481.417 191.805H482.47L479.494 184.071H478.426L475.456 191.805H476.492L477.298 189.668H480.612L481.417 191.805ZM477.625 188.792L478.952 185.274L480.279 188.792H477.625ZM486.728 191.961C488.081 191.961 489.064 191.333 489.746 190.001L488.897 189.582C488.409 190.581 487.748 191.043 486.749 191.043C485.197 191.043 484.16 189.834 484.16 187.938C484.16 186.042 485.17 184.834 486.717 184.834C487.625 184.834 488.36 185.247 488.908 186.16L489.73 185.72C489.059 184.506 487.984 183.915 486.701 183.915C484.52 183.915 483.161 185.521 483.161 187.938C483.161 190.355 484.547 191.961 486.728 191.961ZM494.491 191.961C496.714 191.961 498.095 190.355 498.095 187.938C498.095 185.521 496.714 183.915 494.491 183.915C492.267 183.915 490.892 185.521 490.892 187.938C490.892 190.355 492.267 191.961 494.491 191.961ZM494.491 191.043C492.933 191.043 491.891 189.856 491.891 187.938C491.891 186.021 492.933 184.834 494.491 184.834C496.054 184.834 497.09 186.021 497.09 187.938C497.09 189.856 496.054 191.043 494.491 191.043ZM502.303 191.956C504.048 191.956 505.187 191.059 505.187 189.705C505.187 187.965 503.699 187.654 502.394 187.401C501.358 187.197 500.418 186.998 500.418 186.101C500.418 185.349 501.137 184.818 502.233 184.818C503.205 184.818 504 185.237 504.344 185.951L505.149 185.5C504.639 184.496 503.565 183.926 502.238 183.926C500.53 183.926 499.424 184.807 499.424 186.123C499.424 187.75 500.837 188.051 502.115 188.298C503.189 188.513 504.188 188.738 504.188 189.727C504.188 190.532 503.436 191.064 502.308 191.064C501.213 191.064 500.412 190.629 499.988 189.77L499.182 190.248C499.757 191.359 500.869 191.956 502.303 191.956ZM506.553 187.455H507.735V186.203H506.553V187.455ZM506.553 191.805H507.735V190.554H506.553V191.805Z" fill="#343C5A"/>
<path d="M481.39 207.408H475.37V208.305H477.894V215.142H478.866V208.305H481.39V207.408ZM484.314 209.406C483.304 209.406 482.821 210.12 482.654 210.459V209.54H481.752V215.142H482.665V212.344C482.665 211.168 483.352 210.308 484.26 210.308C484.416 210.308 484.593 210.33 484.711 210.357L484.937 209.492C484.7 209.422 484.448 209.406 484.314 209.406ZM487.704 209.406C486.775 209.406 486.056 209.787 485.567 210.48L486.222 211.012C486.571 210.502 487.06 210.223 487.683 210.223C488.505 210.223 489.004 210.684 489.004 211.694V211.748H488.113C486.383 211.748 485.325 212.242 485.325 213.536C485.325 214.621 486.136 215.276 487.259 215.276C488.215 215.276 488.779 214.847 489.01 214.444V215.142H489.917V211.63C489.917 210.104 488.977 209.406 487.704 209.406ZM489.004 213.037C489.004 213.617 488.43 214.492 487.371 214.492C486.679 214.492 486.244 214.149 486.244 213.531C486.244 212.672 487.119 212.505 488.344 212.505H489.004V213.037ZM493.509 208.096C493.649 208.096 493.799 208.112 493.977 208.16L494.213 207.403C493.971 207.317 493.751 207.269 493.472 207.269C492.564 207.269 491.844 207.8 491.844 208.928V209.54H491.012V210.346H491.844V215.142H492.757V210.346H494.111V209.54H492.757V209.154C492.757 208.434 492.913 208.096 493.509 208.096ZM495.196 207.408V208.45H496.211V207.408H495.196ZM495.244 215.142H496.157V209.54H495.244V215.142ZM500.237 215.282C501.091 215.282 501.891 214.986 502.46 213.918L501.66 213.509C501.316 214.149 500.86 214.439 500.253 214.439C499.189 214.439 498.486 213.633 498.486 212.349C498.486 211.076 499.179 210.265 500.253 210.265C500.838 210.265 501.3 210.518 501.66 211.125L502.439 210.684C501.907 209.745 501.075 209.422 500.215 209.422C498.609 209.422 497.541 210.566 497.541 212.349C497.541 214.127 498.604 215.282 500.237 215.282ZM503.658 210.792H504.84V209.54H503.658V210.792ZM503.658 215.142H504.84V213.891H503.658V215.142Z" fill="#343C5A"/>
<path d="M479.135 110.884H475.342V119.723H476.84V116.36H479.135C480.897 116.36 481.934 115.292 481.934 113.628C481.934 111.952 480.897 110.884 479.135 110.884ZM479 115.034H476.84V112.223H479C479.903 112.223 480.412 112.793 480.412 113.628C480.412 114.463 479.903 115.034 479 115.034ZM486.208 113.125C485.165 113.125 484.576 113.794 484.361 114.279V113.278H482.974V119.723H484.385V116.568C484.385 115.322 485.104 114.445 486.086 114.445C486.288 114.445 486.528 114.475 486.675 114.506L486.957 113.223C486.65 113.143 486.374 113.125 486.208 113.125ZM490.44 119.889C492.287 119.889 493.631 118.575 493.631 116.501C493.631 114.42 492.287 113.113 490.44 113.113C488.586 113.113 487.248 114.42 487.248 116.501C487.248 118.575 488.586 119.889 490.44 119.889ZM490.44 118.631C489.384 118.631 488.703 117.808 488.703 116.501C488.703 115.187 489.384 114.365 490.44 114.365C491.489 114.365 492.177 115.187 492.177 116.501C492.177 117.808 491.489 118.631 490.44 118.631ZM499.358 110.884V114.101C499.015 113.597 498.346 113.113 497.339 113.113C495.768 113.113 494.558 114.487 494.558 116.501C494.558 118.52 495.768 119.889 497.339 119.889C498.37 119.889 499.058 119.38 499.383 118.882V119.723H500.77V110.884H499.358ZM497.695 118.637C496.762 118.637 496.007 117.894 496.007 116.501C496.007 115.114 496.762 114.365 497.695 114.365C498.671 114.365 499.401 115.193 499.401 116.501C499.401 117.808 498.683 118.637 497.695 118.637ZM506.596 113.278V117.041C506.596 117.851 506.006 118.668 505.037 118.668C504.337 118.668 503.87 118.219 503.87 117.336V113.278H502.459V117.655C502.459 119.109 503.404 119.883 504.595 119.883C505.767 119.883 506.393 119.318 506.614 118.931V119.723H508.007V113.278H506.596ZM512.521 119.889C513.546 119.889 514.516 119.558 515.216 118.219L514.006 117.642C513.644 118.348 513.178 118.643 512.546 118.643C511.484 118.643 510.784 117.827 510.784 116.507C510.784 115.224 511.453 114.383 512.546 114.383C513.159 114.383 513.632 114.641 514.006 115.304L515.197 114.69C514.54 113.481 513.485 113.131 512.503 113.131C510.6 113.131 509.335 114.463 509.335 116.513C509.335 118.551 510.606 119.889 512.521 119.889ZM519.693 118.539C519.404 118.631 519.214 118.661 518.999 118.661C518.447 118.661 518.256 118.471 518.256 117.784V114.481H519.846V113.278H518.256V111.504H516.845V113.278H515.869V114.481H516.845V118.127C516.845 119.423 517.6 119.889 518.735 119.889C519.116 119.889 519.588 119.809 519.994 119.668L519.693 118.539ZM525.709 118.379V110.884H524.212V119.723H529.847V118.379H525.709ZM533.351 113.125C532.265 113.125 531.368 113.561 530.81 114.303L531.718 115.132C532.093 114.647 532.621 114.334 533.277 114.334C534.1 114.334 534.622 114.77 534.622 115.752V115.826H533.64C531.663 115.826 530.534 116.433 530.534 117.87C530.534 119.134 531.485 119.883 532.731 119.883C533.732 119.883 534.352 119.459 534.646 118.968V119.723H536.04V115.715C536.04 113.96 534.971 113.125 533.351 113.125ZM534.628 117.305C534.628 117.937 534.032 118.778 533.026 118.778C532.338 118.778 531.915 118.459 531.915 117.839C531.915 117.059 532.713 116.857 533.86 116.857H534.628V117.305ZM541.803 113.278V117.041C541.803 117.851 541.214 118.668 540.244 118.668C539.545 118.668 539.078 118.219 539.078 117.336V113.278H537.666V117.655C537.666 119.109 538.612 119.883 539.802 119.883C540.975 119.883 541.601 119.318 541.822 118.931V119.723H543.215V113.278H541.803ZM548.355 113.119C547.176 113.119 546.544 113.696 546.329 114.076V113.278H544.942V119.723H546.354V115.961C546.354 115.15 546.943 114.34 547.913 114.34C548.631 114.34 549.098 114.782 549.098 115.666V119.723H550.509V115.341C550.509 113.886 549.564 113.119 548.355 113.119ZM554.967 119.889C555.992 119.889 556.962 119.558 557.662 118.219L556.453 117.642C556.091 118.348 555.624 118.643 554.992 118.643C553.93 118.643 553.23 117.827 553.23 116.507C553.23 115.224 553.899 114.383 554.992 114.383C555.606 114.383 556.078 114.641 556.453 115.304L557.644 114.69C556.987 113.481 555.931 113.131 554.949 113.131C553.046 113.131 551.782 114.463 551.782 116.513C551.782 118.551 553.052 119.889 554.967 119.889ZM562.268 113.113C561.163 113.113 560.531 113.647 560.292 114.039V110.884H558.88V119.723H560.292V115.979C560.292 115.175 560.844 114.365 561.845 114.365C562.569 114.365 563.035 114.807 563.035 115.691V119.723H564.447V115.347C564.447 113.892 563.502 113.113 562.268 113.113Z" fill="#343C5A"/>
<path d="M252.18 241.126L243.428 249.877L239.053 245.502" stroke="#FDFEFE" stroke-width="1.53452" stroke-linecap="round" stroke-linejoin="round"/>
<path d="M54.0439 59.3585C56.6986 59.3585 58.3713 58.0695 58.3713 56.0363C58.3713 53.3739 56.0848 52.9596 54.2127 52.6297C52.8547 52.3918 51.6501 52.1309 51.6501 51.0568C51.6501 50.1591 52.5554 49.5376 53.9365 49.5376C55.2639 49.5376 56.3841 50.0823 56.9058 50.9724L58.3329 49.9673C57.4813 48.6169 55.8853 47.8496 53.9518 47.8496C51.3815 47.8496 49.7396 49.1463 49.7396 51.1105C49.7396 53.6041 51.9109 54.0184 53.7524 54.356C55.1718 54.6245 56.4531 54.8931 56.4531 56.09C56.4531 57.0414 55.5017 57.6782 54.0593 57.6782C52.5478 57.6782 51.4582 57.1488 50.7754 56.0133L49.3636 57.0414C50.3074 58.5606 51.9493 59.3585 54.0439 59.3585ZM61.4603 55.6527H67.3376V55.1846C67.3376 52.6066 65.8184 50.865 63.4936 50.865C61.2532 50.865 59.6266 52.5529 59.6266 55.1539C59.6266 57.6782 61.3299 59.3355 63.6547 59.3355C65.1432 59.3355 66.2404 58.8061 67.0383 57.6936L65.7647 56.7959C65.1739 57.6169 64.5064 57.847 63.7238 57.847C62.3043 57.847 61.5984 56.9647 61.4603 55.6527ZM63.4859 52.3534C64.491 52.3534 65.2506 53.044 65.4808 54.2716H61.5064C61.7442 53.0056 62.5192 52.3534 63.4859 52.3534ZM68.9504 59.1284H70.7151V48.0798H68.9504V59.1284ZM74.1952 55.6527H80.0724V55.1846C80.0724 52.6066 78.5532 50.865 76.2284 50.865C73.988 50.865 72.3614 52.5529 72.3614 55.1539C72.3614 57.6782 74.0648 59.3355 76.3896 59.3355C77.8781 59.3355 78.9752 58.8061 79.7732 57.6936L78.4995 56.7959C77.9087 57.6169 77.2412 57.847 76.4586 57.847C75.0392 57.847 74.3333 56.9647 74.1952 55.6527ZM76.2208 52.3534C77.2259 52.3534 77.9855 53.044 78.2157 54.2716H74.2412C74.4791 53.0056 75.254 52.3534 76.2208 52.3534ZM85.1686 59.3355C86.4499 59.3355 87.6622 58.9212 88.5369 57.2486L87.0254 56.5273C86.5727 57.4097 85.9896 57.778 85.1993 57.778C83.8719 57.778 82.9972 56.7575 82.9972 55.1079C82.9972 53.5043 83.8336 52.4532 85.1993 52.4532C85.9666 52.4532 86.5573 52.7754 87.0254 53.6041L88.5139 52.8368C87.6929 51.3253 86.3732 50.888 85.1456 50.888C82.7671 50.888 81.1865 52.5529 81.1865 55.1156C81.1865 57.6629 82.7747 59.3355 85.1686 59.3355ZM94.1199 57.6475C93.7593 57.7626 93.5214 57.801 93.2529 57.801C92.5624 57.801 92.3245 57.5631 92.3245 56.7038V52.5759H94.3117V51.0721H92.3245V48.8547H90.5598V51.0721H89.3399V52.5759H90.5598V57.1335C90.5598 58.7524 91.5035 59.3355 92.923 59.3355C93.3987 59.3355 93.9895 59.2358 94.4959 59.0593L94.1199 57.6475ZM109.151 51.0721L107.563 56.9186L105.737 51.0721H103.949L102.115 56.9186L100.535 51.0721H98.6168L101.087 59.1284H102.906L104.839 53.1054L106.773 59.1284H108.583L111.039 51.0721H109.151ZM116.56 50.865C115.179 50.865 114.389 51.5325 114.09 52.0235V48.0798H112.325V59.1284H114.09V54.4481C114.09 53.4429 114.78 52.4302 116.031 52.4302C116.936 52.4302 117.519 52.9826 117.519 54.0874V59.1284H119.284V53.6578C119.284 51.8394 118.102 50.865 116.56 50.865ZM121.298 49.7601H123.186V48.0798H121.298V49.7601ZM121.36 59.1284H123.125V51.0721H121.36V59.1284ZM128.753 59.3355C130.034 59.3355 131.247 58.9212 132.121 57.2486L130.61 56.5273C130.157 57.4097 129.574 57.778 128.784 57.778C127.456 57.778 126.582 56.7575 126.582 55.1079C126.582 53.5043 127.418 52.4532 128.784 52.4532C129.551 52.4532 130.142 52.7754 130.61 53.6041L132.098 52.8368C131.277 51.3253 129.958 50.888 128.73 50.888C126.351 50.888 124.771 52.5529 124.771 55.1156C124.771 57.6629 126.359 59.3355 128.753 59.3355ZM137.865 50.865C136.484 50.865 135.694 51.5325 135.395 52.0235V48.0798H133.63V59.1284H135.395V54.4481C135.395 53.4429 136.085 52.4302 137.336 52.4302C138.241 52.4302 138.825 52.9826 138.825 54.0874V59.1284H140.589V53.6578C140.589 51.8394 139.408 50.865 137.865 50.865ZM149.721 59.3355C152.031 59.3355 153.711 57.6936 153.711 55.1002C153.711 52.4992 152.031 50.865 149.721 50.865C147.404 50.865 145.731 52.4992 145.731 55.1002C145.731 57.6936 147.404 59.3355 149.721 59.3355ZM149.721 57.7626C148.401 57.7626 147.55 56.7345 147.55 55.1002C147.55 53.4583 148.401 52.4302 149.721 52.4302C151.033 52.4302 151.893 53.4583 151.893 55.1002C151.893 56.7345 151.033 57.7626 149.721 57.7626ZM159.682 50.865C158.409 50.865 157.565 51.4481 157.089 52.1156V51.0721H155.355V61.8138H157.12V58.1079C157.626 58.7908 158.47 59.3278 159.667 59.3278C161.616 59.3278 163.104 57.6169 163.104 55.0926C163.104 52.5299 161.631 50.865 159.682 50.865ZM159.191 57.7626C157.971 57.7626 157.058 56.7345 157.058 55.0926C157.058 53.466 157.964 52.4302 159.191 52.4302C160.357 52.4302 161.286 53.3509 161.286 55.0926C161.286 56.8342 160.357 57.7626 159.191 57.7626ZM168.689 57.6475C168.328 57.7626 168.09 57.801 167.822 57.801C167.131 57.801 166.893 57.5631 166.893 56.7038V52.5759H168.881V51.0721H166.893V48.8547H165.129V51.0721H163.909V52.5759H165.129V57.1335C165.129 58.7524 166.072 59.3355 167.492 59.3355C167.967 59.3355 168.558 59.2358 169.065 59.0593L168.689 57.6475ZM170.546 49.7601H172.433V48.0798H170.546V49.7601ZM170.607 59.1284H172.372V51.0721H170.607V59.1284ZM183.333 50.865C181.898 50.865 181.185 51.7089 180.832 52.2307C180.425 51.3176 179.566 50.865 178.53 50.865C177.218 50.865 176.543 51.5862 176.251 52.0465V51.0721H174.517V59.1284H176.282V54.425C176.282 53.3662 176.965 52.3995 178.024 52.3995C178.837 52.3995 179.32 52.9596 179.32 54.0107V59.1284H181.085V54.425C181.085 53.3662 181.775 52.3995 182.827 52.3995C183.648 52.3995 184.131 52.9519 184.131 54.0107V59.1284H185.896V53.535C185.896 51.755 184.783 50.865 183.333 50.865ZM187.911 49.7601H189.799V48.0798H187.911V49.7601ZM187.973 59.1284H189.737V51.0721H187.973V59.1284ZM191.33 59.1284H197.806V57.6399H193.501L197.66 52.4532V51.0721H191.537V52.5606H195.481L191.33 57.7626V59.1284ZM200.529 55.6527H206.406V55.1846C206.406 52.6066 204.887 50.865 202.562 50.865C200.322 50.865 198.695 52.5529 198.695 55.1539C198.695 57.6782 200.399 59.3355 202.723 59.3355C204.212 59.3355 205.309 58.8061 206.107 57.6936L204.833 56.7959C204.243 57.6169 203.575 57.847 202.793 57.847C201.373 57.847 200.667 56.9647 200.529 55.6527ZM202.555 52.3534C203.56 52.3534 204.319 53.044 204.55 54.2716H200.575C200.813 53.0056 201.588 52.3534 202.555 52.3534ZM215.797 59.3585C218.451 59.3585 220.124 58.0695 220.124 56.0363C220.124 53.3739 217.837 52.9596 215.965 52.6297C214.607 52.3918 213.403 52.1309 213.403 51.0568C213.403 50.1591 214.308 49.5376 215.689 49.5376C217.016 49.5376 218.137 50.0823 218.658 50.9724L220.086 49.9673C219.234 48.6169 217.638 47.8496 215.704 47.8496C213.134 47.8496 211.492 49.1463 211.492 51.1105C211.492 53.6041 213.664 54.0184 215.505 54.356C216.924 54.6245 218.206 54.8931 218.206 56.09C218.206 57.0414 217.254 57.6782 215.812 57.6782C214.3 57.6782 213.211 57.1488 212.528 56.0133L211.116 57.0414C212.06 58.5606 213.702 59.3585 215.797 59.3585ZM225.817 57.6475C225.457 57.7626 225.219 57.801 224.95 57.801C224.26 57.801 224.022 57.5631 224.022 56.7038V52.5759H226.009V51.0721H224.022V48.8547H222.257V51.0721H221.037V52.5759H222.257V57.1335C222.257 58.7524 223.201 59.3355 224.62 59.3355C225.096 59.3355 225.687 59.2358 226.193 59.0593L225.817 57.6475ZM231.779 50.8803C230.475 50.8803 229.738 51.7166 229.47 52.3227V51.0721H227.736V59.1284H229.501V55.1846C229.501 53.6271 230.398 52.5299 231.626 52.5299C231.879 52.5299 232.178 52.5683 232.362 52.6066L232.715 51.0031C232.332 50.9033 231.986 50.8803 231.779 50.8803ZM236.542 50.8803C235.184 50.8803 234.064 51.4251 233.366 52.3534L234.501 53.3892C234.969 52.7831 235.629 52.3918 236.45 52.3918C237.478 52.3918 238.13 52.9366 238.13 54.1642V54.2562H236.903C234.432 54.2562 233.02 55.0158 233.02 56.8112C233.02 58.3918 234.21 59.3278 235.767 59.3278C237.018 59.3278 237.793 58.7984 238.161 58.1846V59.1284H239.903V54.1181C239.903 51.9238 238.568 50.8803 236.542 50.8803ZM238.138 56.1053C238.138 56.8956 237.394 57.9468 236.136 57.9468C235.276 57.9468 234.747 57.5478 234.747 56.7729C234.747 55.7984 235.744 55.5452 237.179 55.5452H238.138V56.1053ZM245.953 57.6475C245.593 57.7626 245.355 57.801 245.086 57.801C244.396 57.801 244.158 57.5631 244.158 56.7038V52.5759H246.145V51.0721H244.158V48.8547H242.393V51.0721H241.173V52.5759H242.393V57.1335C242.393 58.7524 243.337 59.3355 244.757 59.3355C245.232 59.3355 245.823 59.2358 246.329 59.0593L245.953 57.6475ZM248.922 55.6527H254.8V55.1846C254.8 52.6066 253.28 50.865 250.956 50.865C248.715 50.865 247.089 52.5529 247.089 55.1539C247.089 57.6782 248.792 59.3355 251.117 59.3355C252.605 59.3355 253.702 58.8061 254.5 57.6936L253.227 56.7959C252.636 57.6169 251.968 57.847 251.186 57.847C249.766 57.847 249.061 56.9647 248.922 55.6527ZM250.948 52.3534C251.953 52.3534 252.713 53.044 252.943 54.2716H248.968C249.206 53.0056 249.981 52.3534 250.948 52.3534ZM261.891 51.0721V52.0772C261.499 51.4788 260.732 50.865 259.505 50.865C257.387 50.865 255.914 52.4762 255.914 54.9238C255.914 57.3637 257.387 58.9749 259.512 58.9749C260.717 58.9749 261.438 58.3918 261.86 57.778V58.3764C261.86 59.5197 261.116 60.5018 259.597 60.5018C258.645 60.5018 257.817 60.1872 257.149 59.489L256.121 60.6936C256.973 61.5606 258.093 62.0209 259.581 62.0209C262.106 62.0209 263.625 60.5862 263.625 58.3534V51.0721H261.891ZM259.827 57.425C258.591 57.425 257.724 56.466 257.724 54.9238C257.724 53.3739 258.591 52.4148 259.827 52.4148C260.978 52.4148 261.914 53.2435 261.914 54.9238C261.914 56.6041 260.978 57.425 259.827 57.425ZM270.925 51.0721L268.907 56.7959L266.759 51.0721H264.826L268.025 58.8215L267.618 59.9033C267.434 60.402 267.204 60.5401 266.767 60.5401C266.521 60.5401 266.291 60.4787 265.992 60.402L265.57 61.8138C266.007 61.9442 266.498 62.0209 266.997 62.0209C268.002 62.0209 268.731 61.645 269.253 60.3176L272.874 51.0721H270.925Z" fill="#363694"/>
<path d="M288.134 47.5869C284.109 47.5869 280.842 50.854 280.842 54.8795C280.842 58.9051 284.109 62.1722 288.134 62.1722C292.16 62.1722 295.427 58.9051 295.427 54.8795C295.427 50.854 292.16 47.5869 288.134 47.5869ZM288.864 57.7966C288.864 58.1993 288.537 58.5258 288.134 58.5258C287.732 58.5258 287.405 58.1993 287.405 57.7966V54.8795C287.405 54.4768 287.732 54.1502 288.134 54.1502C288.537 54.1502 288.864 54.4768 288.864 54.8795V57.7966ZM288.864 51.9624C288.864 52.3652 288.537 52.6917 288.134 52.6917C287.732 52.6917 287.405 52.3652 287.405 51.9624C287.405 51.5597 287.732 51.2332 288.134 51.2332C288.537 51.2332 288.864 51.5597 288.864 51.9624Z" fill="#464898"/>
<path d="M472.153 51.3084V50.2895H466.223V59.1284H467.334V55.2429H471.545V54.2302H467.334V51.3084H472.153ZM476.309 52.5729C475.155 52.5729 474.603 53.3892 474.412 53.7759V52.7263H473.381V59.1284H474.425V55.9304C474.425 54.5862 475.21 53.6041 476.248 53.6041C476.426 53.6041 476.628 53.6286 476.763 53.6593L477.021 52.6711C476.751 52.5913 476.462 52.5729 476.309 52.5729ZM478.489 56.268H483.363V55.9918C483.363 53.9171 482.154 52.5667 480.386 52.5667C478.636 52.5667 477.396 53.8987 477.396 55.9488C477.396 57.9621 478.63 59.2879 480.558 59.2879C481.662 59.2879 482.571 58.7969 483.129 57.9376L482.301 57.4036C481.791 58.1585 481.19 58.3427 480.533 58.3427C479.25 58.3427 478.581 57.514 478.489 56.268ZM480.38 53.5059C481.343 53.5059 482.061 54.2056 482.239 55.3841H478.52C478.692 54.1811 479.422 53.5059 480.38 53.5059ZM485.524 56.268H490.398V55.9918C490.398 53.9171 489.188 52.5667 487.421 52.5667C485.671 52.5667 484.431 53.8987 484.431 55.9488C484.431 57.9621 485.665 59.2879 487.592 59.2879C488.697 59.2879 489.606 58.7969 490.164 57.9376L489.336 57.4036C488.826 58.1585 488.225 58.3427 487.568 58.3427C486.285 58.3427 485.616 57.514 485.524 56.268ZM487.414 53.5059C488.378 53.5059 489.096 54.2056 489.274 55.3841H485.555C485.726 54.1811 486.457 53.5059 487.414 53.5059ZM500.856 50.2895H493.975V51.3146H496.86V59.1284H497.971V51.3146H500.856V50.2895ZM504.158 52.5729C503.004 52.5729 502.452 53.3892 502.262 53.7759V52.7263H501.23V59.1284H502.274V55.9304C502.274 54.5862 503.059 53.6041 504.097 53.6041C504.275 53.6041 504.477 53.6286 504.612 53.6593L504.87 52.6711C504.6 52.5913 504.312 52.5729 504.158 52.5729ZM505.926 51.4803H507.086V50.2895H505.926V51.4803ZM505.987 59.1284H507.031V52.7263H505.987V59.1284ZM511.289 52.5729C510.228 52.5729 509.405 53.0087 508.846 53.8005L509.595 54.4082C509.994 53.825 510.553 53.5059 511.265 53.5059C512.204 53.5059 512.775 54.0337 512.775 55.1877V55.2491H511.756C509.779 55.2491 508.57 55.8138 508.57 57.2931C508.57 58.533 509.497 59.2818 510.78 59.2818C511.873 59.2818 512.517 58.7908 512.781 58.3304V59.1284H513.818V55.114C513.818 53.3708 512.744 52.5729 511.289 52.5729ZM512.775 56.7222C512.775 57.3851 512.118 58.3856 510.909 58.3856C510.117 58.3856 509.62 57.9928 509.62 57.2869C509.62 56.3048 510.62 56.1146 512.02 56.1146H512.775V56.7222ZM515.741 59.1284H516.785V50.2895H515.741V59.1284ZM548.725 50.2895H545.613V59.1284H548.725C551.15 59.1284 552.739 57.4588 552.739 54.7212C552.739 51.9775 551.15 50.2895 548.725 50.2895ZM548.596 58.1033H546.724V51.3146H548.596C550.456 51.3146 551.592 52.6097 551.592 54.7212C551.592 56.8266 550.456 58.1033 548.596 58.1033ZM556.565 52.5729C555.503 52.5729 554.681 53.0087 554.122 53.8005L554.871 54.4082C555.27 53.825 555.828 53.5059 556.54 53.5059C557.48 53.5059 558.05 54.0337 558.05 55.1877V55.2491H557.032C555.055 55.2491 553.846 55.8138 553.846 57.2931C553.846 58.533 554.773 59.2818 556.056 59.2818C557.148 59.2818 557.793 58.7908 558.057 58.3304V59.1284H559.094V55.114C559.094 53.3708 558.02 52.5729 556.565 52.5729ZM558.05 56.7222C558.05 57.3851 557.394 58.3856 556.184 58.3856C555.393 58.3856 554.895 57.9928 554.895 57.2869C554.895 56.3048 555.896 56.1146 557.295 56.1146H558.05V56.7222ZM564.978 52.7263L563.167 57.6982L561.239 52.7263H560.073L562.621 58.9258L562.234 59.9693C562.074 60.3989 561.921 60.5217 561.565 60.5217C561.362 60.5217 561.184 60.4787 560.969 60.4235L560.718 61.2951C560.994 61.3749 561.375 61.4363 561.675 61.4363C562.393 61.4363 562.848 61.1355 563.185 60.27L566.156 52.7263H564.978ZM569.423 59.2941C570.939 59.2941 571.94 58.5637 571.94 57.3422C571.94 55.8813 570.718 55.6112 569.595 55.4148C568.711 55.2614 567.981 55.0588 567.981 54.3836C567.981 53.8066 568.576 53.5181 569.343 53.5181C570.055 53.5181 570.595 53.7882 570.988 54.3406L571.798 53.7637C571.24 52.9719 570.424 52.5606 569.343 52.5606C567.931 52.5606 566.919 53.2174 566.919 54.4204C566.919 55.7831 568.066 56.1882 569.22 56.3785C570.129 56.5319 570.872 56.6731 570.872 57.3667C570.872 57.956 570.313 58.3304 569.435 58.3304C568.539 58.3304 567.864 57.9867 567.44 57.3115L566.618 57.8823C567.121 58.7048 568.017 59.2941 569.423 59.2941ZM577.649 58.1094V50.2895H576.531V59.1284H581.945V58.1094H577.649ZM583.801 56.268H588.674V55.9918C588.674 53.9171 587.465 52.5667 585.697 52.5667C583.948 52.5667 582.708 53.8987 582.708 55.9488C582.708 57.9621 583.942 59.2879 585.869 59.2879C586.974 59.2879 587.882 58.7969 588.441 57.9376L587.612 57.4036C587.103 58.1585 586.501 58.3427 585.844 58.3427C584.562 58.3427 583.893 57.514 583.801 56.268ZM585.691 53.5059C586.655 53.5059 587.373 54.2056 587.551 55.3841H583.831C584.003 54.1811 584.733 53.5059 585.691 53.5059ZM591.469 52.2844C591.469 51.4619 591.647 51.0752 592.329 51.0752C592.488 51.0752 592.66 51.0936 592.863 51.1488L593.133 50.2834C592.856 50.1852 592.605 50.1299 592.286 50.1299C591.248 50.1299 590.426 50.7376 590.426 52.0266V52.7263H589.474V53.647H590.426V59.1284H591.469V53.647H593.016V52.7263H591.469V52.2844ZM596.956 58.2076C596.661 58.312 596.477 58.3488 596.237 58.3488C595.673 58.3488 595.495 58.134 595.495 57.4404V53.647H597.097V52.7263H595.495V51.0015H594.451V52.7263H593.512V53.647H594.451V57.6736C594.451 58.8767 595.096 59.2818 596.127 59.2818C596.458 59.2818 596.827 59.2082 597.195 59.0793L596.956 58.2076Z" fill="#464898"/>
<rect x="519.234" y="49.0454" width="17.5024" height="11.6683" rx="5.83413" fill="#EC7F5C"/>
<path d="M526.228 52.1797V53.3148H529.051C527.798 54.7243 527.169 56.273 527.093 58.0454H528.523C528.587 56.2392 529.215 54.6779 530.511 53.2726V52.1797H526.228Z" fill="white"/>
<defs>
<filter id="filter0_ddd" x="0.528772" y="0.747339" width="633.942" height="323.83" filterUnits="userSpaceOnUse" color-interpolation-filters="sRGB">
<feFlood flood-opacity="0" result="BackgroundImageFix"/>
<feColorMatrix in="SourceAlpha" type="matrix" values="0 0 0 0 0 0 0 0 0 0 0 0 0 0 0 0 0 0 127 0"/>
<feOffset dy="11.6827"/>
<feGaussianBlur stdDeviation="7.78849"/>
<feColorMatrix type="matrix" values="0 0 0 0 0.576471 0 0 0 0 0.588235 0 0 0 0 0.819608 0 0 0 0.12 0"/>
<feBlend mode="normal" in2="BackgroundImageFix" result="effect1_dropShadow"/>
<feColorMatrix in="SourceAlpha" type="matrix" values="0 0 0 0 0 0 0 0 0 0 0 0 0 0 0 0 0 0 127 0"/>
<feOffset/>
<feGaussianBlur stdDeviation="9.73561"/>
<feColorMatrix type="matrix" values="0 0 0 0 0.578003 0 0 0 0 0.587717 0 0 0 0 0.820833 0 0 0 0.12 0"/>
<feBlend mode="normal" in2="effect1_dropShadow" result="effect2_dropShadow"/>
<feColorMatrix in="SourceAlpha" type="matrix" values="0 0 0 0 0 0 0 0 0 0 0 0 0 0 0 0 0 0 127 0"/>
<feOffset dy="1.94712"/>
<feGaussianBlur stdDeviation="0.973561"/>
<feColorMatrix type="matrix" values="0 0 0 0 0.729412 0 0 0 0 0.729412 0 0 0 0 0.898039 0 0 0 0.24 0"/>
<feBlend mode="normal" in2="effect2_dropShadow" result="effect3_dropShadow"/>
<feBlend mode="normal" in="SourceGraphic" in2="effect3_dropShadow" result="shape"/>
</filter>
<filter id="filter1_dd" x="163.181" y="73.81" width="164.875" height="219.145" filterUnits="userSpaceOnUse" color-interpolation-filters="sRGB">
<feFlood flood-opacity="0" result="BackgroundImageFix"/>
<feColorMatrix in="SourceAlpha" type="matrix" values="0 0 0 0 0 0 0 0 0 0 0 0 0 0 0 0 0 0 127 0"/>
<feOffset dy="9.20714"/>
<feGaussianBlur stdDeviation="6.13809"/>
<feColorMatrix type="matrix" values="0 0 0 0 0.556863 0 0 0 0 0.576471 0 0 0 0 0.752941 0 0 0 0.2 0"/>
<feBlend mode="normal" in2="BackgroundImageFix" result="effect1_dropShadow"/>
<feColorMatrix in="SourceAlpha" type="matrix" values="0 0 0 0 0 0 0 0 0 0 0 0 0 0 0 0 0 0 127 0"/>
<feOffset/>
<feGaussianBlur stdDeviation="7.67261"/>
<feColorMatrix type="matrix" values="0 0 0 0 0.556863 0 0 0 0 0.576471 0 0 0 0 0.752941 0 0 0 0.16 0"/>
<feBlend mode="normal" in2="effect1_dropShadow" result="effect2_dropShadow"/>
<feBlend mode="normal" in="SourceGraphic" in2="effect2_dropShadow" result="shape"/>
</filter>
</defs>
</svg>
