<svg width="127" height="50" viewBox="0 0 127 50" fill="none" xmlns="http://www.w3.org/2000/svg">
<g clip-path="url(#clip0)">
<path d="M17.5494 1.85194e-07C14.0775 -0.000501818 10.6835 1.01959 7.79655 2.93126C4.90959 4.84294 2.65939 7.56032 1.33053 10.7397C0.00167518 13.9192 -0.346148 17.4178 0.331054 20.7932C1.00826 24.1686 2.68007 27.2691 5.13504 29.7026C7.59002 32.1361 10.7179 33.7932 14.1231 34.4645C17.5282 35.1358 21.0578 34.791 24.2653 33.4738C27.4727 32.1566 30.2141 29.926 32.1427 27.0643C34.0712 24.2026 35.1003 20.8383 35.0998 17.3968C35.0991 12.7831 33.2498 8.35854 29.9587 5.09615C26.6675 1.83376 22.2039 0.00067318 17.5494 1.85194e-07ZM17.5059 25.9429C15.8093 25.9429 14.1508 25.4442 12.7402 24.5099C11.3295 23.5756 10.2301 22.2476 9.58082 20.6939C8.93157 19.1402 8.76169 17.4305 9.09268 15.7811C9.42366 14.1317 10.2406 12.6166 11.4403 11.4275C12.64 10.2383 14.1684 9.42847 15.8324 9.10038C17.4964 8.7723 19.2211 8.94068 20.7885 9.58425C22.356 10.2278 23.6957 11.3177 24.6382 12.716C25.5808 14.1143 26.0839 15.7582 26.0839 17.44C26.0839 19.6951 25.1802 21.8579 23.5715 23.4525C21.9628 25.0471 19.7809 25.9429 17.5059 25.9429Z" fill="#293057"/>
<path d="M9.56035 34.7759V40.6467C9.56068 41.8751 9.31685 43.0915 8.84277 44.2265C8.36869 45.3614 7.67367 46.3927 6.79741 47.2613C5.92114 48.1298 4.88081 48.8188 3.73585 49.2887C2.59089 49.7586 1.36374 50.0004 0.124512 50V25.448C2.04578 29.574 5.3927 32.8826 9.56035 34.7759Z" fill="#293057"/>
<path d="M31.5442 15.0033C32.1225 14.7731 32.7417 14.6609 33.3648 14.6733V17.049C33.078 17.0262 32.8834 17.016 32.7835 17.016C32.465 16.9979 32.1461 17.0434 31.8456 17.1497C31.5452 17.2561 31.2694 17.4213 31.0346 17.6354C30.6147 18.0466 30.4021 18.6659 30.4021 19.4908V23.6814H27.8057V14.7977H30.2818V15.9678C30.6029 15.5352 31.0404 15.2009 31.5442 15.0033Z" fill="white"/>
<path d="M36.5523 23.2271C35.8264 22.8572 35.2183 22.2948 34.7957 21.6026C34.3829 20.8837 34.1658 20.0706 34.1658 19.2434C34.1658 18.4161 34.3829 17.603 34.7957 16.8841C35.2175 16.1913 35.8258 15.6288 36.5523 15.2596C37.3407 14.874 38.2081 14.6733 39.0873 14.6733C39.9665 14.6733 40.8339 14.874 41.6223 15.2596C42.3448 15.6305 42.9494 16.1929 43.3686 16.8841C43.7832 17.6025 44.0013 18.4157 44.0013 19.2434C44.0013 20.071 43.7832 20.8842 43.3686 21.6026C42.9486 22.2933 42.3443 22.8554 41.6223 23.2271C40.8339 23.6127 39.9665 23.8134 39.0873 23.8134C38.2081 23.8134 37.3407 23.6127 36.5523 23.2271ZM40.7312 21.034C41.1456 20.5276 41.3717 19.8954 41.3717 19.2434C41.3717 18.5913 41.1456 17.9591 40.7312 17.4526C40.5204 17.2331 40.2653 17.0602 39.9824 16.9451C39.6996 16.8301 39.3954 16.7756 39.0898 16.7851C38.7836 16.7763 38.4789 16.8311 38.1953 16.9461C37.9117 17.0611 37.6556 17.2336 37.4434 17.4526C37.0245 17.957 36.7954 18.59 36.7954 19.2434C36.7954 19.8967 37.0245 20.5297 37.4434 21.034C37.6556 21.2531 37.9117 21.4256 38.1953 21.5406C38.4789 21.6556 38.7836 21.7104 39.0898 21.7016C39.3954 21.7111 39.6996 21.6566 39.9824 21.5416C40.2653 21.4265 40.5204 21.2536 40.7312 21.034Z" fill="#293057"/>
<path d="M48.5773 15.0034H50.8818V16.9832H48.6515V23.6815H46.0474V16.9832H44.6672V15.0034H46.0474V14.6074C46.0474 13.5921 46.3504 12.7892 46.9564 12.1986C47.5624 11.6081 48.416 11.3111 49.517 11.3077C49.8903 11.3056 50.2625 11.3473 50.6258 11.4321C50.9354 11.4982 51.2309 11.6176 51.4989 11.7849L50.8153 13.6505C50.5078 13.4399 50.1416 13.3299 49.768 13.3358C48.9793 13.3358 48.585 13.7647 48.585 14.6226L48.5773 15.0034ZM53.637 13.1555C53.4958 13.0245 53.3832 12.8661 53.3062 12.6901C53.2292 12.5142 53.1895 12.3244 53.1895 12.1327C53.1895 11.9409 53.2292 11.7511 53.3062 11.5752C53.3832 11.3992 53.4958 11.2408 53.637 11.1098C53.9566 10.8274 54.3743 10.679 54.8021 10.696C55.227 10.677 55.6434 10.8185 55.9672 11.092C56.1115 11.2137 56.2268 11.3656 56.3047 11.5367C56.3827 11.7079 56.4213 11.8941 56.4179 12.0819C56.4231 12.2811 56.3856 12.4791 56.3079 12.6628C56.2302 12.8466 56.1141 13.0119 55.9672 13.1479C55.6498 13.4345 55.231 13.5851 54.8021 13.5667C54.3747 13.5844 53.957 13.437 53.637 13.1555ZM53.5039 14.8054H56.1003V23.6891H53.5039V14.8054Z" fill="#293057"/>
<path d="M64.2886 23.2525C64.0062 23.4527 63.6869 23.5958 63.3488 23.6738C62.9651 23.7674 62.5713 23.8143 62.1761 23.8134C61.1109 23.8134 60.2872 23.5436 59.7051 23.0038C59.123 22.464 58.8311 21.6721 58.8294 20.628V16.9832H57.4492V15.0034H58.8294V12.8408H61.4258V15.0034H63.6561V16.9832H61.4258V20.595C61.4054 20.911 61.5101 21.2224 61.7177 21.4631C61.8259 21.5683 61.9552 21.6498 62.0973 21.7023C62.2393 21.7548 62.3909 21.7771 62.5422 21.7677C62.919 21.7788 63.2884 21.6624 63.5895 21.4377L64.2886 23.2525Z" fill="#293057"/>
<path d="M82.4497 12.1326L78.5217 23.6814H77.2235L73.8128 13.8306L70.3816 23.6814H69.1013L65.1733 12.1326H66.4383L69.8003 22.0645L73.2776 12.1326H74.4273L77.856 22.1128L81.2667 12.1326H82.4497Z" fill="#293057"/>
<path d="M91.7775 15.8866C92.4278 16.5195 92.7522 17.44 92.7505 18.6482V23.6814H91.57V18.7649C91.57 17.8647 91.3421 17.1769 90.8864 16.7014C90.4331 16.2293 89.7827 15.9932 88.9403 15.9932C88.5292 15.9718 88.118 16.0347 87.7325 16.1779C87.347 16.3212 86.9954 16.5417 86.6998 16.8258C86.1518 17.3808 85.8778 18.1482 85.8778 19.1279V23.6814H84.6948V11.4397H85.8778V16.5161C86.2013 16.0087 86.6629 15.6022 87.2093 15.3434C87.8176 15.0601 88.4835 14.9194 89.1554 14.9323C90.253 14.9356 91.1271 15.2538 91.7775 15.8866Z" fill="#293057"/>
<path d="M101.656 15.7878C102.265 16.353 102.57 17.1914 102.57 18.3031V23.6816H101.438V22.3287C101.162 22.7885 100.753 23.1561 100.265 23.3846C99.6901 23.6501 99.0607 23.7795 98.4266 23.7628C97.4485 23.7628 96.6718 23.5318 96.0965 23.0699C95.8307 22.8504 95.6158 22.5766 95.4665 22.2672C95.3173 21.9579 95.2371 21.6202 95.2315 21.2773C95.2259 20.9345 95.295 20.5944 95.4341 20.2804C95.5733 19.9665 95.7791 19.6859 96.0376 19.458C96.5753 19.0062 97.4288 18.7803 98.5982 18.7803H101.389V18.2524C101.389 17.5061 101.177 16.9376 100.757 16.5467C100.337 16.1558 99.7172 15.9604 98.908 15.9604C98.3636 15.9589 97.823 16.0508 97.3102 16.232C96.8276 16.401 96.3818 16.6594 95.9966 16.9934L95.464 16.0974C95.9348 15.7087 96.4775 15.4148 97.0618 15.2319C97.6958 15.0267 98.3589 14.9238 99.0258 14.9273C100.168 14.9341 101.044 15.2209 101.656 15.7878ZM100.324 22.3871C100.81 22.072 101.183 21.6127 101.389 21.0749V19.6509H98.6494C97.1506 19.6509 96.402 20.1679 96.4037 21.2018C96.3948 21.4329 96.443 21.6628 96.5444 21.8712C96.6457 22.0796 96.797 22.2602 96.985 22.3973C97.4661 22.7153 98.0389 22.8686 98.6161 22.8338C99.2169 22.8507 99.8099 22.6956 100.324 22.3871Z" fill="#293057"/>
<path d="M105.783 11.4397H106.964V23.6814H105.783V11.4397Z" fill="#293057"/>
<path d="M117.882 19.7041H110.559C110.577 20.1199 110.679 20.5279 110.86 20.9038C111.04 21.2796 111.295 21.6157 111.609 21.892C112.273 22.4585 113.128 22.7559 114.003 22.7246C114.518 22.7304 115.028 22.632 115.503 22.4352C115.957 22.2435 116.36 21.9529 116.684 21.5849L117.35 22.3464C116.958 22.811 116.458 23.1735 115.893 23.4023C115.201 23.6729 114.459 23.7946 113.716 23.7591C112.973 23.7237 112.246 23.5319 111.583 23.1967C110.904 22.8323 110.341 22.2861 109.96 21.6204C109.564 20.9241 109.363 20.1353 109.379 19.3361C109.364 18.5401 109.555 17.7536 109.934 17.0517C110.29 16.3986 110.822 15.8564 111.471 15.4856C112.139 15.1178 112.891 14.9248 113.656 14.9248C114.421 14.9248 115.173 15.1178 115.841 15.4856C116.482 15.8564 117.005 16.3959 117.355 17.0441C117.73 17.7472 117.918 18.5332 117.903 19.3284L117.882 19.7041ZM111.532 16.7446C110.953 17.293 110.605 18.0385 110.559 18.831H116.766C116.719 18.0385 116.372 17.293 115.793 16.7446C115.206 16.2277 114.448 15.9422 113.662 15.9422C112.877 15.9422 112.119 16.2277 111.532 16.7446Z" fill="#293057"/>
<path d="M120.62 23.4581C120.067 23.305 119.549 23.0464 119.096 22.6966L119.629 21.7727C120.045 22.085 120.513 22.3221 121.012 22.4732C121.57 22.6557 122.155 22.7474 122.743 22.7448C123.542 22.7448 124.133 22.623 124.515 22.3742C124.696 22.2659 124.844 22.1117 124.945 21.9274C125.046 21.7431 125.095 21.5355 125.088 21.326C125.098 21.1837 125.074 21.0411 125.019 20.9092C124.965 20.7773 124.881 20.6594 124.773 20.5645C124.54 20.373 124.267 20.2344 123.974 20.1584C123.553 20.044 123.126 19.9533 122.694 19.8868C122.116 19.7861 121.543 19.6513 120.981 19.4832C120.556 19.3492 120.175 19.1067 119.875 18.7801C119.55 18.3996 119.386 17.9096 119.417 17.4121C119.413 17.0647 119.494 16.7216 119.653 16.4121C119.812 16.1026 120.045 15.8361 120.331 15.6353C120.942 15.1734 121.791 14.9424 122.878 14.9424C123.452 14.9429 124.023 15.018 124.576 15.1657C125.071 15.2833 125.544 15.4805 125.974 15.7495L125.462 16.6912C124.701 16.1837 123.8 15.9238 122.884 15.9475C122.127 15.9475 121.559 16.0795 121.178 16.3435C121 16.4535 120.854 16.607 120.753 16.7892C120.652 16.9714 120.6 17.1763 120.602 17.3841C120.596 17.5315 120.622 17.6785 120.678 17.8151C120.734 17.9517 120.819 18.0748 120.927 18.1761C121.159 18.3811 121.435 18.5305 121.734 18.6126C122.172 18.7322 122.617 18.8288 123.065 18.902C123.633 19.0026 124.195 19.1348 124.748 19.2979C125.161 19.4253 125.534 19.6582 125.828 19.9731C126.145 20.3387 126.307 20.8118 126.279 21.293C126.288 21.6501 126.204 22.0035 126.037 22.3197C125.869 22.636 125.623 22.9046 125.321 23.1002C124.683 23.5469 123.798 23.7694 122.666 23.7677C121.972 23.7695 121.282 23.6651 120.62 23.4581Z" fill="#293057"/>
<path d="M85.5377 35.5589H80.635L79.5791 37.9227H78.6111L82.6338 29.0741H83.5515L87.5743 37.9227H86.5937L85.5377 35.5589ZM85.1983 34.8004L83.0864 30.0474L80.9744 34.8004H85.1983Z" fill="#293057"/>
<path d="M94.9421 31.2736V37.1137C94.9421 38.243 94.6656 39.0773 94.1125 39.6166C93.5677 40.1644 92.7422 40.4383 91.636 40.4383C91.0242 40.4383 90.4417 40.3456 89.8886 40.1602C89.3438 39.9832 88.8996 39.7346 88.556 39.4144L89.0086 38.7317C89.3271 39.0183 89.7126 39.2416 90.1651 39.4017C90.6261 39.5618 91.108 39.6419 91.6108 39.6419C92.4489 39.6419 93.0649 39.4438 93.4588 39.0478C93.8527 38.6601 94.0496 38.0534 94.0496 37.2275V36.3805C93.773 36.8019 93.4085 37.1221 92.9559 37.3412C92.5117 37.5604 92.0173 37.6699 91.4725 37.6699C90.8524 37.6699 90.2867 37.5351 89.7754 37.2654C89.2726 36.9873 88.8745 36.6039 88.5812 36.1151C88.2962 35.6179 88.1538 35.0575 88.1538 34.4338C88.1538 33.8102 88.2962 33.254 88.5812 32.7652C88.8745 32.2765 89.2726 31.8972 89.7754 31.6276C90.2783 31.3579 90.844 31.223 91.4725 31.223C92.034 31.223 92.5411 31.3368 92.9936 31.5644C93.4462 31.7919 93.8107 32.1206 94.0873 32.5503V31.2736H94.9421ZM91.5605 36.8735C92.0382 36.8735 92.4698 36.7724 92.8553 36.5702C93.2409 36.3595 93.5384 36.0687 93.7479 35.6979C93.9658 35.3271 94.0747 34.9058 94.0747 34.4338C94.0747 33.9619 93.9658 33.5448 93.7479 33.1824C93.5384 32.8116 93.2409 32.5251 92.8553 32.3228C92.4782 32.1121 92.0466 32.0068 91.5605 32.0068C91.0828 32.0068 90.6512 32.1079 90.2657 32.3102C89.8886 32.5124 89.5911 32.7989 89.3732 33.1697C89.1636 33.5405 89.0589 33.9619 89.0589 34.4338C89.0589 34.9058 89.1636 35.3271 89.3732 35.6979C89.5911 36.0687 89.8886 36.3595 90.2657 36.5702C90.6512 36.7724 91.0828 36.8735 91.5605 36.8735Z" fill="#293057"/>
<path d="M103.236 34.8763H97.7044C97.7547 35.5673 98.0187 36.1277 98.4964 36.5575C98.9741 36.9789 99.5775 37.1896 100.307 37.1896C100.717 37.1896 101.094 37.1179 101.438 36.9747C101.782 36.823 102.079 36.6039 102.331 36.3173L102.833 36.8988C102.54 37.2528 102.171 37.5224 101.727 37.7078C101.291 37.8932 100.809 37.9859 100.281 37.9859C99.6026 37.9859 98.9992 37.8427 98.4712 37.5561C97.9516 37.2612 97.5452 36.8567 97.2518 36.3426C96.9585 35.8286 96.8119 35.2471 96.8119 34.5982C96.8119 33.9493 96.9501 33.3678 97.2267 32.8537C97.5117 32.3397 97.8972 31.9394 98.3832 31.6528C98.8777 31.3663 99.4308 31.223 100.043 31.223C100.654 31.223 101.203 31.3663 101.689 31.6528C102.176 31.9394 102.557 32.3397 102.833 32.8537C103.11 33.3594 103.248 33.9408 103.248 34.5982L103.236 34.8763ZM100.043 31.9941C99.4057 31.9941 98.8693 32.2006 98.4335 32.6135C98.0061 33.0181 97.7631 33.549 97.7044 34.2063H102.393C102.335 33.549 102.088 33.0181 101.652 32.6135C101.224 32.2006 100.688 31.9941 100.043 31.9941Z" fill="#293057"/>
<path d="M108.474 31.223C109.304 31.223 109.962 31.4674 110.448 31.9562C110.942 32.4366 111.189 33.1403 111.189 34.0673V37.9227H110.297V34.1557C110.297 33.4647 110.125 32.938 109.781 32.5756C109.438 32.2133 108.948 32.0321 108.311 32.0321C107.598 32.0321 107.033 32.247 106.614 32.6768C106.203 33.0981 105.998 33.6838 105.998 34.4338V37.9227H105.105V31.2736H105.96V32.4998C106.203 32.0953 106.538 31.7835 106.966 31.5644C107.401 31.3368 107.904 31.223 108.474 31.223Z" fill="#293057"/>
<path d="M116.418 37.9859C115.764 37.9859 115.177 37.8427 114.658 37.5561C114.146 37.2696 113.744 36.8693 113.451 36.3553C113.158 35.8328 113.011 35.2471 113.011 34.5982C113.011 33.9493 113.158 33.3678 113.451 32.8537C113.744 32.3397 114.146 31.9394 114.658 31.6528C115.177 31.3663 115.764 31.223 116.418 31.223C116.988 31.223 117.495 31.3368 117.939 31.5644C118.391 31.7835 118.747 32.1079 119.007 32.5377L118.341 32.9928C118.123 32.6641 117.847 32.4197 117.511 32.2596C117.176 32.0911 116.812 32.0068 116.418 32.0068C115.94 32.0068 115.508 32.1163 115.123 32.3354C114.746 32.5461 114.448 32.8495 114.23 33.2456C114.021 33.6417 113.916 34.0925 113.916 34.5982C113.916 35.1122 114.021 35.5673 114.23 35.9634C114.448 36.351 114.746 36.6544 115.123 36.8735C115.508 37.0842 115.94 37.1896 116.418 37.1896C116.812 37.1896 117.176 37.1095 117.511 36.9494C117.847 36.7893 118.123 36.5449 118.341 36.2162L119.007 36.6713C118.747 37.1011 118.391 37.4297 117.939 37.6573C117.486 37.8764 116.979 37.9859 116.418 37.9859Z" fill="#293057"/>
<path d="M126.259 31.2736L122.953 38.7191C122.685 39.3427 122.374 39.7852 122.022 40.0464C121.67 40.3076 121.247 40.4383 120.753 40.4383C120.434 40.4383 120.137 40.3877 119.86 40.2866C119.584 40.1854 119.345 40.0338 119.144 39.8315L119.559 39.1615C119.894 39.4986 120.296 39.6672 120.765 39.6672C121.067 39.6672 121.323 39.5829 121.532 39.4144C121.75 39.2458 121.951 38.9593 122.136 38.5548L122.425 37.9101L119.471 31.2736H120.401L122.89 36.9241L125.379 31.2736H126.259Z" fill="#293057"/>
</g>
<defs>
<clipPath id="clip0">
<rect width="126.271" height="50" fill="white"/>
</clipPath>
</defs>
</svg>
