<svg width="1577" height="621" viewBox="0 0 1577 621" fill="none" xmlns="http://www.w3.org/2000/svg">
<g clip-path="url(#clip0)">
<path d="M219.189 2.30011e-06C175.828 -0.00623258 133.44 12.6633 97.3851 36.4063C61.3299 60.1493 33.2271 93.8991 16.631 133.388C0.0348922 172.876 -4.30908 216.329 4.14851 258.251C12.6061 300.174 33.4853 338.682 64.1455 368.906C94.8057 399.13 133.87 419.712 176.397 428.049C218.924 436.387 263.004 432.104 303.063 415.744C343.121 399.384 377.358 371.681 401.444 336.139C425.529 300.597 438.382 258.812 438.375 216.069C438.367 158.766 415.271 103.813 374.168 63.2942C333.064 22.7753 277.318 0.0083609 219.189 2.30011e-06ZM218.645 322.211C197.456 322.211 176.744 316.018 159.126 304.413C141.509 292.809 127.777 276.316 119.669 257.018C111.56 237.721 109.439 216.487 113.572 196.002C117.706 175.516 127.909 156.699 142.892 141.929C157.874 127.16 176.963 117.102 197.745 113.027C218.526 108.952 240.067 111.043 259.642 119.036C279.218 127.03 295.949 140.565 307.721 157.932C319.493 175.299 325.776 195.717 325.776 216.604C325.776 244.613 314.489 271.475 294.398 291.28C274.307 311.085 247.058 322.211 218.645 322.211Z" fill="white"/>
<path d="M119.399 431.916V504.832C119.403 520.089 116.357 535.197 110.437 549.292C104.516 563.388 95.8358 576.196 84.8922 586.984C73.9485 597.772 60.9558 606.329 46.6564 612.165C32.357 618.002 17.0311 621.004 1.55444 621V316.064C25.5491 367.309 67.3488 408.402 119.399 431.916Z" fill="white"/>
<path d="M393.956 186.34C401.179 183.482 408.912 182.088 416.694 182.242V211.749C413.112 211.465 410.682 211.339 409.434 211.339C405.457 211.114 401.473 211.678 397.721 213C393.969 214.321 390.525 216.372 387.592 219.031C382.348 224.138 379.693 231.83 379.693 242.076V294.122H347.266V183.787H378.19V198.32C382.201 192.947 387.664 188.795 393.956 186.34Z" fill="#293057"/>
<path d="M456.502 288.48C447.436 283.886 439.841 276.902 434.564 268.304C429.408 259.375 426.697 249.277 426.697 239.002C426.697 228.728 429.408 218.63 434.564 209.7C439.832 201.096 447.429 194.109 456.502 189.525C466.348 184.735 477.181 182.243 488.162 182.243C499.142 182.243 509.975 184.735 519.821 189.525C528.845 194.131 536.395 201.115 541.631 209.7C546.809 218.623 549.532 228.724 549.532 239.002C549.532 249.281 546.809 259.382 541.631 268.304C536.386 276.882 528.838 283.864 519.821 288.48C509.975 293.27 499.142 295.762 488.162 295.762C477.181 295.762 466.348 293.27 456.502 288.48ZM508.692 261.243C513.867 254.953 516.691 247.101 516.691 239.002C516.691 230.904 513.867 223.052 508.692 216.762C506.06 214.035 502.874 211.887 499.341 210.459C495.809 209.03 492.01 208.353 488.193 208.471C484.369 208.361 480.563 209.043 477.022 210.47C473.48 211.898 470.281 214.042 467.631 216.762C462.399 223.026 459.539 230.888 459.539 239.002C459.539 247.117 462.399 254.979 467.631 261.243C470.281 263.963 473.48 266.106 477.022 267.534C480.563 268.962 484.369 269.643 488.193 269.534C492.01 269.652 495.809 268.975 499.341 267.546C502.874 266.118 506.06 263.97 508.692 261.243Z" fill="white"/>
<path d="M606.68 186.342H635.462V210.931H607.608V294.124H575.085V210.931H557.848V186.342H575.085V181.424C575.085 168.814 578.869 158.842 586.437 151.507C594.006 144.172 604.666 140.484 618.417 140.442C623.078 140.415 627.726 140.934 632.264 141.987C636.131 142.807 639.822 144.29 643.169 146.369L634.63 169.539C630.79 166.924 626.217 165.557 621.551 165.63C611.701 165.63 606.776 170.958 606.776 181.613L606.68 186.342ZM669.872 163.392C668.107 161.764 666.701 159.797 665.74 157.611C664.778 155.426 664.282 153.069 664.282 150.687C664.282 148.306 664.778 145.949 665.74 143.764C666.701 141.578 668.107 139.611 669.872 137.983C673.863 134.476 679.08 132.634 684.422 132.845C689.729 132.609 694.929 134.366 698.973 137.762C700.775 139.274 702.215 141.16 703.188 143.286C704.162 145.412 704.644 147.725 704.601 150.057C704.666 152.531 704.198 154.99 703.228 157.272C702.258 159.555 700.807 161.608 698.973 163.297C695.009 166.857 689.779 168.726 684.422 168.499C679.084 168.718 673.868 166.888 669.872 163.392ZM668.209 183.883H700.636V294.218H668.209V183.883Z" fill="white"/>
<path d="M802.899 288.796C799.372 291.282 795.385 293.06 791.162 294.029C786.37 295.191 781.451 295.774 776.516 295.763C763.212 295.763 752.926 292.411 745.656 285.707C738.386 279.003 734.74 269.167 734.719 256.2V210.931H717.482V186.342H734.719V159.483H767.146V186.342H795V210.931H767.146V255.79C766.891 259.715 768.198 263.583 770.791 266.571C772.143 267.879 773.758 268.891 775.532 269.543C777.306 270.195 779.199 270.471 781.089 270.354C785.794 270.493 790.407 269.047 794.168 266.256L802.899 288.796Z" fill="white"/>
<path d="M1029.71 150.686L980.658 294.123H964.444L921.847 171.776L878.995 294.123H863.005L813.949 150.686H829.747L871.736 274.042L915.164 150.686H929.522L972.343 274.641L1014.94 150.686H1029.71Z" fill="white"/>
<path d="M1146.21 197.312C1154.33 205.172 1158.38 216.605 1158.36 231.61V294.123H1143.62V233.061C1143.62 221.88 1140.77 213.337 1135.08 207.431C1129.42 201.568 1121.3 198.636 1110.78 198.636C1105.64 198.37 1100.51 199.151 1095.69 200.93C1090.88 202.709 1086.49 205.448 1082.79 208.976C1075.95 215.869 1072.53 225.4 1072.53 237.569V294.123H1057.75V142.081H1072.53V205.13C1076.57 198.828 1082.33 193.779 1089.16 190.566C1096.75 187.046 1105.07 185.299 1113.46 185.459C1127.17 185.501 1138.09 189.452 1146.21 197.312Z" fill="white"/>
<path d="M1269.58 196.084C1277.19 203.104 1280.99 213.517 1280.99 227.325V294.125H1266.86V277.323C1263.41 283.033 1258.31 287.598 1252.21 290.437C1245.03 293.734 1237.17 295.341 1229.25 295.134C1217.04 295.134 1207.33 292.265 1200.15 286.528C1196.83 283.801 1194.15 280.401 1192.28 276.559C1190.42 272.716 1189.42 268.523 1189.35 264.264C1189.28 260.006 1190.14 255.782 1191.88 251.883C1193.62 247.983 1196.19 244.499 1199.41 241.668C1206.13 236.057 1216.79 233.251 1231.39 233.251H1266.25V226.694C1266.25 217.426 1263.6 210.365 1258.35 205.51C1253.11 200.655 1245.37 198.228 1235.26 198.228C1228.46 198.209 1221.71 199.35 1215.31 201.601C1209.28 203.7 1203.71 206.909 1198.9 211.058L1192.25 199.93C1198.13 195.102 1204.91 191.451 1212.21 189.18C1220.12 186.631 1228.41 185.354 1236.73 185.397C1251 185.481 1261.94 189.044 1269.58 196.084ZM1252.95 278.048C1259.02 274.134 1263.67 268.429 1266.25 261.749V244.064H1232.03C1213.31 244.064 1203.97 250.485 1203.99 263.326C1203.88 266.197 1204.48 269.051 1205.74 271.64C1207.01 274.228 1208.9 276.471 1211.25 278.174C1217.26 282.123 1224.41 284.028 1231.62 283.596C1239.12 283.806 1246.53 281.88 1252.95 278.048Z" fill="white"/>
<path d="M1321.13 142.081H1335.87V294.123H1321.13V142.081Z" fill="white"/>
<path d="M1472.23 244.725H1380.77C1381 249.889 1382.27 254.957 1384.53 259.625C1386.78 264.293 1389.96 268.467 1393.88 271.899C1402.17 278.935 1412.85 282.628 1423.78 282.239C1430.21 282.312 1436.59 281.089 1442.52 278.645C1448.18 276.264 1453.22 272.654 1457.26 268.084L1465.58 277.542C1460.69 283.312 1454.44 287.815 1447.38 290.656C1438.74 294.017 1429.47 295.528 1420.19 295.088C1410.91 294.648 1401.84 292.267 1393.56 288.102C1385.08 283.577 1378.05 276.794 1373.29 268.526C1368.34 259.877 1365.83 250.08 1366.03 240.154C1365.85 230.267 1368.23 220.5 1372.97 211.782C1377.41 203.671 1384.05 196.937 1392.15 192.331C1400.51 187.763 1409.9 185.366 1419.45 185.366C1429 185.366 1438.39 187.763 1446.74 192.331C1454.74 196.937 1461.28 203.637 1465.64 211.687C1470.33 220.42 1472.68 230.183 1472.49 240.059L1472.23 244.725ZM1392.92 207.967C1385.69 214.778 1381.35 224.038 1380.77 233.88H1458.29C1457.71 224.038 1453.37 214.778 1446.14 207.967C1438.8 201.548 1429.34 198.003 1419.53 198.003C1409.72 198.003 1400.26 201.548 1392.92 207.967Z" fill="white"/>
<path d="M1506.42 291.349C1499.52 289.449 1493.05 286.236 1487.4 281.892L1494.05 270.417C1499.24 274.296 1505.09 277.241 1511.32 279.117C1518.29 281.383 1525.59 282.522 1532.93 282.491C1542.91 282.491 1550.3 280.977 1555.06 277.888C1557.33 276.543 1559.18 274.627 1560.44 272.338C1561.7 270.049 1562.32 267.471 1562.23 264.868C1562.34 263.101 1562.05 261.331 1561.37 259.692C1560.69 258.054 1559.63 256.59 1558.29 255.411C1555.38 253.033 1551.98 251.311 1548.32 250.367C1543.06 248.947 1537.72 247.82 1532.33 246.994C1525.1 245.743 1517.96 244.069 1510.93 241.982C1505.63 240.317 1500.86 237.305 1497.12 233.249C1493.06 228.523 1491.01 222.437 1491.39 216.258C1491.34 211.944 1492.36 207.682 1494.34 203.838C1496.33 199.995 1499.24 196.684 1502.81 194.191C1510.44 188.453 1521.05 185.584 1534.63 185.584C1541.79 185.591 1548.92 186.524 1555.83 188.359C1562.01 189.819 1567.91 192.268 1573.29 195.609L1566.9 207.305C1557.4 201.002 1546.14 197.774 1534.69 198.068C1525.25 198.068 1518.15 199.707 1513.39 202.986C1511.17 204.352 1509.34 206.258 1508.08 208.522C1506.82 210.785 1506.18 213.329 1506.2 215.911C1506.12 217.741 1506.45 219.567 1507.15 221.264C1507.85 222.96 1508.91 224.489 1510.26 225.747C1513.15 228.294 1516.6 230.149 1520.33 231.169C1525.81 232.654 1531.36 233.854 1536.96 234.763C1544.05 236.013 1551.07 237.655 1557.97 239.68C1563.14 241.263 1567.79 244.154 1571.47 248.066C1575.43 252.607 1577.44 258.482 1577.1 264.459C1577.21 268.894 1576.16 273.283 1574.07 277.211C1571.98 281.139 1568.9 284.475 1565.14 286.904C1557.16 292.452 1546.11 295.216 1531.97 295.195C1523.31 295.217 1514.69 293.92 1506.42 291.349Z" fill="white"/>
<path d="M1068.28 441.641H1007.05L993.86 471H981.771L1032.01 361.1H1043.47L1093.71 471H1081.47L1068.28 441.641ZM1064.04 432.221L1037.66 373.189L1011.29 432.221H1064.04Z" fill="white"/>
<path d="M1185.73 388.418V460.952C1185.73 474.977 1182.28 485.339 1175.37 492.038C1168.56 498.841 1158.25 502.243 1144.44 502.243C1136.8 502.243 1129.52 501.092 1122.62 498.789C1115.81 496.591 1110.26 493.503 1105.97 489.526L1111.63 481.048C1115.6 484.607 1120.42 487.38 1126.07 489.369C1131.83 491.358 1137.84 492.352 1144.12 492.352C1154.59 492.352 1162.28 489.892 1167.2 484.973C1172.12 480.158 1174.58 472.622 1174.58 462.365V451.846C1171.13 457.079 1166.58 461.057 1160.92 463.778C1155.38 466.499 1149.2 467.86 1142.4 467.86C1134.65 467.86 1127.59 466.185 1121.2 462.836C1114.92 459.382 1109.95 454.62 1106.29 448.549C1102.73 442.374 1100.95 435.413 1100.95 427.668C1100.95 419.923 1102.73 413.015 1106.29 406.944C1109.95 400.873 1114.92 396.163 1121.2 392.814C1127.48 389.465 1134.55 387.79 1142.4 387.79C1149.41 387.79 1155.74 389.203 1161.39 392.029C1167.05 394.855 1171.6 398.937 1175.05 404.275V388.418H1185.73ZM1143.5 457.969C1149.46 457.969 1154.85 456.713 1159.67 454.201C1164.48 451.584 1168.2 447.973 1170.81 443.368C1173.54 438.763 1174.9 433.529 1174.9 427.668C1174.9 421.807 1173.54 416.626 1170.81 412.125C1168.2 407.52 1164.48 403.961 1159.67 401.449C1154.96 398.832 1149.57 397.524 1143.5 397.524C1137.53 397.524 1132.14 398.78 1127.33 401.292C1122.62 403.804 1118.9 407.363 1116.18 411.968C1113.56 416.573 1112.25 421.807 1112.25 427.668C1112.25 433.529 1113.56 438.763 1116.18 443.368C1118.9 447.973 1122.62 451.584 1127.33 454.201C1132.14 456.713 1137.53 457.969 1143.5 457.969Z" fill="white"/>
<path d="M1289.31 433.163H1220.23C1220.86 441.746 1224.15 448.706 1230.12 454.044C1236.08 459.277 1243.62 461.894 1252.73 461.894C1257.86 461.894 1262.57 461.004 1266.86 459.225C1271.15 457.341 1274.86 454.62 1278 451.061L1284.28 458.283C1280.62 462.679 1276.01 466.028 1270.47 468.331C1265.02 470.634 1259.01 471.785 1252.41 471.785C1243.93 471.785 1236.4 470.006 1229.8 466.447C1223.32 462.784 1218.24 457.76 1214.58 451.375C1210.91 444.99 1209.08 437.768 1209.08 429.709C1209.08 421.65 1210.81 414.428 1214.26 408.043C1217.82 401.658 1222.63 396.687 1228.71 393.128C1234.88 389.569 1241.79 387.79 1249.43 387.79C1257.07 387.79 1263.93 389.569 1270 393.128C1276.07 396.687 1280.83 401.658 1284.28 408.043C1287.74 414.323 1289.46 421.545 1289.46 429.709L1289.31 433.163ZM1249.43 397.367C1241.47 397.367 1234.78 399.931 1229.33 405.06C1224 410.084 1220.96 416.678 1220.23 424.842H1278.79C1278.06 416.678 1274.97 410.084 1269.53 405.06C1264.19 399.931 1257.49 397.367 1249.43 397.367Z" fill="white"/>
<path d="M1354.73 387.79C1365.09 387.79 1373.31 390.825 1379.38 396.896C1385.55 402.862 1388.64 411.602 1388.64 423.115V471H1377.49V424.214C1377.49 415.631 1375.35 409.09 1371.06 404.589C1366.77 400.088 1360.64 397.838 1352.69 397.838C1343.79 397.838 1336.73 400.507 1331.49 405.845C1326.36 411.078 1323.8 418.353 1323.8 427.668V471H1312.65V388.418H1323.33V403.647C1326.36 398.623 1330.55 394.75 1335.89 392.029C1341.33 389.203 1347.61 387.79 1354.73 387.79Z" fill="white"/>
<path d="M1453.94 471.785C1445.77 471.785 1438.45 470.006 1431.96 466.447C1425.57 462.888 1420.55 457.917 1416.89 451.532C1413.22 445.043 1411.39 437.768 1411.39 429.709C1411.39 421.65 1413.22 414.428 1416.89 408.043C1420.55 401.658 1425.57 396.687 1431.96 393.128C1438.45 389.569 1445.77 387.79 1453.94 387.79C1461.05 387.79 1467.39 389.203 1472.93 392.029C1478.59 394.75 1483.03 398.78 1486.28 404.118L1477.96 409.77C1475.24 405.688 1471.78 402.653 1467.6 400.664C1463.41 398.571 1458.86 397.524 1453.94 397.524C1447.97 397.524 1442.58 398.885 1437.77 401.606C1433.06 404.223 1429.34 407.991 1426.62 412.91C1424 417.829 1422.69 423.429 1422.69 429.709C1422.69 436.094 1424 441.746 1426.62 446.665C1429.34 451.48 1433.06 455.248 1437.77 457.969C1442.58 460.586 1447.97 461.894 1453.94 461.894C1458.86 461.894 1463.41 460.9 1467.6 458.911C1471.78 456.922 1475.24 453.887 1477.96 449.805L1486.28 455.457C1483.03 460.795 1478.59 464.877 1472.93 467.703C1467.28 470.424 1460.95 471.785 1453.94 471.785Z" fill="white"/>
<path d="M1576.84 388.418L1535.55 480.891C1532.2 488.636 1528.33 494.131 1523.94 497.376C1519.54 500.621 1514.25 502.243 1508.08 502.243C1504.1 502.243 1500.39 501.615 1496.93 500.359C1493.48 499.103 1490.49 497.219 1487.98 494.707L1493.16 486.386C1497.35 490.573 1502.37 492.666 1508.24 492.666C1512 492.666 1515.2 491.619 1517.81 489.526C1520.53 487.433 1523.05 483.874 1525.35 478.85L1528.96 470.843L1492.06 388.418H1503.68L1534.77 458.597L1565.85 388.418H1576.84Z" fill="white"/>
</g>
<defs>
<clipPath id="clip0">
<rect width="1577" height="621" fill="white"/>
</clipPath>
</defs>
</svg>
