<svg width="102" height="40" fill="none" xmlns="http://www.w3.org/2000/svg"><g clip-path="url(#a)"><path d="M14.113 0C11.321 0 8.592.816 6.27 2.345a13.963 13.963 0 0 0-5.2 6.247 13.74 13.74 0 0 0-.803 8.042 13.86 13.86 0 0 0 3.863 7.128 14.177 14.177 0 0 0 7.228 3.81 14.3 14.3 0 0 0 8.156-.793 14.075 14.075 0 0 0 6.334-5.128 13.783 13.783 0 0 0 2.378-7.733c0-3.691-1.487-7.231-4.134-9.841A14.216 14.216 0 0 0 14.113 0Zm-.035 20.754a6.967 6.967 0 0 1-3.832-1.146 6.823 6.823 0 0 1-2.54-3.053 6.715 6.715 0 0 1-.393-3.93A6.774 6.774 0 0 1 9.2 9.142a6.928 6.928 0 0 1 3.531-1.862 6.988 6.988 0 0 1 3.986.387 6.878 6.878 0 0 1 3.096 2.506 6.735 6.735 0 0 1 1.162 3.779 6.755 6.755 0 0 1-2.02 4.81 6.947 6.947 0 0 1-4.878 1.992ZM7.688 27.82v4.697a7.39 7.39 0 0 1-.577 2.864 7.475 7.475 0 0 1-1.645 2.428 7.594 7.594 0 0 1-2.462 1.622c-.92.376-1.907.57-2.904.569V20.358a15.339 15.339 0 0 0 7.588 7.463Z" fill="#6D6DF6"></path><path d="M25.366 12.002a3.775 3.775 0 0 1 1.464-.264v1.901a7.096 7.096 0 0 0-.467-.026 1.94 1.94 0 0 0-1.407.495c-.337.33-.508.825-.508 1.484v3.353H22.36v-7.107h1.991v.936c.258-.346.61-.613 1.015-.771Z" fill="#fff"></path><path d="M29.393 18.582a3.527 3.527 0 0 1-1.412-1.3 3.774 3.774 0 0 1 0-3.775 3.512 3.512 0 0 1 1.412-1.3 4.66 4.66 0 0 1 4.078 0 3.516 3.516 0 0 1 1.404 1.3 3.76 3.76 0 0 1 0 3.775 3.53 3.53 0 0 1-1.404 1.3 4.659 4.659 0 0 1-4.077 0Zm3.36-1.755a2.255 2.255 0 0 0 0-2.865 1.746 1.746 0 0 0-1.319-.534 1.786 1.786 0 0 0-1.324.534 2.235 2.235 0 0 0 0 2.865 1.766 1.766 0 0 0 1.324.534 1.768 1.768 0 0 0 1.32-.534ZM39.063 12.003h1.853v1.584h-1.793v5.358h-2.094v-5.358h-1.11v-1.584h1.11v-.317c0-.812.243-1.454.73-1.927.488-.472 1.175-.71 2.06-.713.3-.001.6.032.892.1.248.053.486.148.702.282l-.55 1.493a1.455 1.455 0 0 0-.842-.252c-.635 0-.952.343-.952 1.03l-.006.304Zm4.069-1.478a1.121 1.121 0 0 1-.36-.819 1.108 1.108 0 0 1 .36-.818 1.34 1.34 0 0 1 .937-.331c.342-.015.676.098.937.317a1.017 1.017 0 0 1 .362.792 1.113 1.113 0 0 1-.362.852c-.255.23-.592.35-.937.336a1.34 1.34 0 0 1-.937-.33Zm-.107 1.32h2.088v7.106h-2.088v-7.107ZM51.697 18.602c-.227.16-.483.274-.755.337a3.962 3.962 0 0 1-.943.112c-.857 0-1.52-.216-1.987-.648-.468-.432-.703-1.066-.705-1.9v-2.917h-1.11v-1.584h1.11v-1.73h2.088v1.73h1.794v1.584h-1.794v2.89a.964.964 0 0 0 .235.694.871.871 0 0 0 .663.244c.303.009.6-.084.842-.264l.563 1.452ZM66.302 9.706l-3.159 9.24H62.1l-2.743-7.882-2.759 7.881h-1.03L52.41 9.706h1.017l2.704 7.946 2.796-7.946h.925l2.757 7.984 2.742-7.984h.952ZM73.803 12.71c.523.506.784 1.242.782 2.209v4.026h-.95v-3.933c0-.72-.182-1.27-.549-1.65-.364-.379-.887-.567-1.565-.567a2.437 2.437 0 0 0-1.802.666c-.44.444-.66 1.058-.66 1.841v3.643h-.952V9.152h.951v4.061c.26-.406.632-.731 1.071-.938a3.561 3.561 0 0 1 1.565-.33c.883.004 1.586.258 2.109.764ZM81.746 12.63c.49.452.735 1.123.735 2.013v4.302h-.91v-1.082c-.222.368-.55.662-.943.845a3.334 3.334 0 0 1-1.478.302c-.787 0-1.412-.184-1.874-.554a1.886 1.886 0 0 1-.047-2.89c.432-.36 1.118-.542 2.059-.542h2.244v-.422c0-.597-.17-1.052-.508-1.364-.338-.313-.837-.47-1.487-.47a3.843 3.843 0 0 0-1.285.218 3.258 3.258 0 0 0-1.056.609l-.429-.717a3.807 3.807 0 0 1 1.285-.692 5.066 5.066 0 0 1 1.58-.244c.918.005 1.623.235 2.114.688Zm-1.07 5.28c.39-.252.69-.62.856-1.05v-1.14H79.33c-1.205 0-1.807.414-1.806 1.242a1.12 1.12 0 0 0 .467.956c.387.254.848.377 1.312.35.483.013.96-.111 1.373-.358ZM85.066 9.152h.949v9.793h-.95V9.152ZM94.795 15.763h-5.89a2.457 2.457 0 0 0 .845 1.75 2.82 2.82 0 0 0 1.925.667c.414.004.825-.074 1.207-.232.364-.153.689-.386.95-.68l.535.61a3.005 3.005 0 0 1-1.172.844 4.272 4.272 0 0 1-3.466-.165 3.296 3.296 0 0 1-1.305-1.26 3.543 3.543 0 0 1-.468-1.828 3.689 3.689 0 0 1 .447-1.828 3.225 3.225 0 0 1 1.236-1.252 3.661 3.661 0 0 1 3.515 0 3.2 3.2 0 0 1 1.217 1.246 3.71 3.71 0 0 1 .44 1.828l-.016.3Zm-5.107-2.367a2.496 2.496 0 0 0-.782 1.669h4.991a2.496 2.496 0 0 0-.782-1.67 2.602 2.602 0 0 0-1.714-.641c-.631 0-1.24.228-1.713.642ZM96.996 18.767a3.562 3.562 0 0 1-1.225-.61l.428-.739c.335.25.711.44 1.112.56.45.147.92.22 1.392.218.643 0 1.118-.097 1.425-.296a.945.945 0 0 0 .462-.839.747.747 0 0 0-.254-.61 1.674 1.674 0 0 0-.642-.324 9.45 9.45 0 0 0-1.03-.217 12.07 12.07 0 0 1-1.377-.323 2.044 2.044 0 0 1-.89-.563 1.535 1.535 0 0 1-.368-1.094 1.698 1.698 0 0 1 .19-.8c.128-.248.315-.46.545-.622.491-.37 1.174-.554 2.049-.554.46 0 .92.06 1.365.179.398.094.778.252 1.124.467l-.412.753a3.584 3.584 0 0 0-2.073-.595c-.608 0-1.066.106-1.372.317a.96.96 0 0 0-.463.833.813.813 0 0 0 .261.633c.187.164.409.284.65.35.352.095.709.172 1.07.23.456.081.908.187 1.353.317.332.102.632.289.869.54.254.293.384.672.362 1.057.007.285-.06.568-.195.821a1.693 1.693 0 0 1-.575.624c-.514.358-1.225.536-2.135.534a5.492 5.492 0 0 1-1.646-.247Z" fill="#6D6DF6"></path></g><defs><clipPath id="a"><path fill="#fff" d="M0 0h101.541v40H0z"></path></clipPath></defs></svg>