<svg xmlns="http://www.w3.org/2000/svg"
     viewBox="0 0 2000 393">
    <path className="cls-1"
          fill="#ffffff"
          d="M412.7,277.82a134.34,134.34,0,0,1-36.34-4.91q-17.39-5.15-28-13.18l12.41-27.26a84.2,84.2,0,0,0,24.15,11.84,91.54,91.54,0,0,0,28,4.47q15.57,0,23-4.47,7.46-4.68,7.45-12.28a11.16,11.16,0,0,0-4.51-9.16,30.91,30.91,0,0,0-11.29-6q-6.76-2.24-18.51-4.92a259.45,259.45,0,0,1-29.56-8.49,48.87,48.87,0,0,1-19.87-13.63q-8.11-9.37-8.12-25A42.66,42.66,0,0,1,359,140.21q7.44-11.18,22.34-17.65,15.12-6.48,36.79-6.48a122.26,122.26,0,0,1,29.57,3.58A87.68,87.68,0,0,1,473,129.93l-11.28,27.48q-21.9-12.28-43.79-12.29-15.36,0-22.8,4.92-7.23,4.92-7.22,13t8.35,12.06q8.58,3.8,26,7.6a259.69,259.69,0,0,1,29.56,8.48,48.08,48.08,0,0,1,19.64,13.41q8.36,9.15,8.35,24.8a42.52,42.52,0,0,1-7.67,24.57q-7.46,11-22.57,17.43T412.7,277.82Z"/>
    <path className="cls-1"
          fill="#ffffff"
          d="M573.11,118.76q21,0,36.34,6.93,15.57,6.93,23.93,19.66t8.35,30.16q0,17.19-8.35,30.16-8.36,12.72-23.93,19.65Q594.11,232,573.11,232H541.28v43.11H504.72V118.76Zm-2,83.78q16.47,0,25-6.93,8.58-7.14,8.58-20.1,0-13.19-8.58-20.11-8.58-7.16-25-7.15h-29.8v54.29Z"/>
    <path className="cls-1"
          fill="#ffffff"
          d="M746.55,277.82q-24.6,0-44.46-10.5a79.76,79.76,0,0,1-30.93-28.81Q660.11,220,660.1,197t11.06-41.33a79.23,79.23,0,0,1,30.93-29q19.86-10.5,44.46-10.5t44.24,10.5a79.16,79.16,0,0,1,30.93,29Q833,174,833,197a78.42,78.42,0,0,1-11.28,41.56,79.69,79.69,0,0,1-30.93,28.81Q771.16,277.82,746.55,277.82Zm0-30.83a51.25,51.25,0,0,0,25.28-6.25,45.9,45.9,0,0,0,17.61-17.87,54.61,54.61,0,0,0,0-51.83,44.31,44.31,0,0,0-17.61-17.65,52.55,52.55,0,0,0-50.56,0A46,46,0,0,0,703.44,171a56.29,56.29,0,0,0,0,51.83,47.64,47.64,0,0,0,17.83,17.87A51.27,51.27,0,0,0,746.55,247Z"/>
    <path className="cls-1"
          fill="#ffffff"
          d="M1005.39,118.76V275.14h-30L896.6,180.2v94.94H860.48V118.76h30.25l78.55,95V118.76Z"/>
    <path className="cls-1"
          fill="#ffffff"
          d="M1094.69,277.82a134.39,134.39,0,0,1-36.34-4.91q-17.38-5.15-28-13.18l12.41-27.26a84.39,84.39,0,0,0,24.16,11.84,91.48,91.48,0,0,0,28,4.47q15.58,0,23-4.47,7.44-4.68,7.45-12.28a11.17,11.17,0,0,0-4.52-9.16,30.94,30.94,0,0,0-11.28-6q-6.78-2.24-18.51-4.92a259.09,259.09,0,0,1-29.57-8.49,48.77,48.77,0,0,1-19.86-13.63q-8.13-9.37-8.13-25a42.66,42.66,0,0,1,7.45-24.57q7.44-11.18,22.34-17.65,15.14-6.48,36.8-6.48a122.24,122.24,0,0,1,29.56,3.58A87.68,87.68,0,0,1,1155,129.93l-11.28,27.48q-21.9-12.28-43.79-12.29-15.35,0-22.8,4.92-7.21,4.92-7.22,13t8.35,12.06q8.58,3.8,26,7.6a259.93,259.93,0,0,1,29.57,8.48,48,48,0,0,1,19.63,13.41q8.36,9.15,8.36,24.8a42.45,42.45,0,0,1-7.68,24.57q-7.44,11-22.57,17.43T1094.69,277.82Z"/>
    <path className="cls-1"
          fill="#ffffff"
          d="M1477.83,275.14l-30.47-43.56h-33.64v43.56h-36.56V118.76h68.39q21,0,36.34,6.93,15.57,6.93,23.93,19.66t8.35,30.16q0,17.42-8.58,30.16-8.35,12.51-23.93,19.21l35.44,50.26Zm-.68-99.63q0-13.19-8.58-20.11-8.58-7.16-25-7.15h-29.8v54.51h29.8q16.47,0,25-7.15T1477.15,175.51Z"/>
    <path className="cls-1"
          fill="#ffffff"
          d="M1665.47,246.1v29H1543.14V118.76h119.4v29h-83.06v34h73.35v28.15h-73.35V246.1Z"/>
    <path className="cls-1"
          fill="#ffffff"
          d="M1694.57,118.76h71.78q25.73,0,45.37,9.83,19.86,9.61,30.69,27.26,11.07,17.64,11.06,41.1t-11.06,41.11q-10.83,17.64-30.69,27.48-19.65,9.6-45.37,9.6h-71.78Zm70,126.67q23.7,0,37.7-13,14.22-13.17,14.22-35.52t-14.22-35.29q-14-13.18-37.7-13.18h-33.4v97Z"/>
    <path className="cls-1"
          fill="#ffffff"
          d="M1933,277.82a134.39,134.39,0,0,1-36.34-4.91q-17.37-5.15-28-13.18l12.42-27.26a84.2,84.2,0,0,0,24.15,11.84,91.54,91.54,0,0,0,28,4.47q15.57,0,23-4.47,7.45-4.68,7.45-12.28a11.16,11.16,0,0,0-4.51-9.16,31,31,0,0,0-11.29-6q-6.77-2.24-18.51-4.92a259.7,259.7,0,0,1-29.57-8.49,48.9,48.9,0,0,1-19.86-13.63q-8.13-9.37-8.13-25a42.73,42.73,0,0,1,7.45-24.57q7.46-11.18,22.35-17.65,15.12-6.48,36.79-6.48a122.32,122.32,0,0,1,29.57,3.58,87.68,87.68,0,0,1,25.28,10.27l-11.29,27.48q-21.89-12.28-43.79-12.29-15.35,0-22.79,4.92-7.23,4.92-7.23,13t8.36,12.06q8.57,3.8,26,7.6a259.33,259.33,0,0,1,29.57,8.48,48.08,48.08,0,0,1,19.64,13.41q8.36,9.15,8.35,24.8a42.52,42.52,0,0,1-7.67,24.57q-7.45,11-22.58,17.43T1933,277.82Z"/>
    <path className="cls-2"
          fill="#ffffff"
          fill-rule="evenodd"
          d="M1218.76,267.32a79.66,79.66,0,0,1-30.92-28.81Q1176.79,220,1176.78,197t11.06-41.33a79.13,79.13,0,0,1,30.92-29q19.86-10.5,44.47-10.5a96.4,96.4,0,0,1,32.94,5.48,85.77,85.77,0,0,1,11.3,5,84.11,84.11,0,0,1,9.84,6.15,78,78,0,0,1,21.08,22.89Q1349.69,174,1349.68,197a78.34,78.34,0,0,1-11.29,41.56,79.66,79.66,0,0,1-30.92,28.81q-19.63,10.5-44.24,10.5-1.35,0-2.67,0a94.41,94.41,0,0,1-35.63-7.51Q1221.79,268.93,1218.76,267.32Zm87.35-44.45a45.94,45.94,0,0,1-17.6,17.87,49.14,49.14,0,0,1-15.61,5.45,56.42,56.42,0,0,1-9.67.8,51.25,51.25,0,0,1-25.28-6.25,47.5,47.5,0,0,1-17.83-17.87,56.29,56.29,0,0,1,0-51.83A45.82,45.82,0,0,1,1238,153.39a49.84,49.84,0,0,1,25.28-6.48,51.5,51.5,0,0,1,18.13,3.13c1,.35,1.9.74,2.82,1.15a47.56,47.56,0,0,1,4.33,2.2,44.14,44.14,0,0,1,14.56,12.85,46.53,46.53,0,0,1,3,4.8,54.54,54.54,0,0,1,0,51.83Z"/>
    <path className="cls-1"
          fill="#ffffff"
          d="M174.39,368.16l3.48-47.58a1.05,1.05,0,0,0-1.21-1.12,156.51,156.51,0,0,1-42.07,0,1.07,1.07,0,0,0-1.22,1.14l2.82,31.51a1,1,0,0,0,2,.22l3.36-10.45a1,1,0,0,1,2,.1L154.5,392.1a1,1,0,0,0,2,0l8.37-46.33a1,1,0,0,1,2-.06l5.43,22.66A1,1,0,0,0,174.39,368.16Z"/>
    <path className="cls-1"
          fill="#ffffff"
          d="M10.31,317.05a5.79,5.79,0,0,1-4.26,1.88A5.65,5.65,0,0,1,.38,312.7c2.35-22.34,7.48-47,14.65-72.36,5.66-20,12.59-40.51,20.43-60.68a4.72,4.72,0,0,1,4.41-3,5.06,5.06,0,0,1,4.82,3.86c3.19,12.19,10.39,22.2,19.65,30.33,9.63,8.45,21.49,14.86,33.4,19.6a217.41,217.41,0,0,0,32.14,9.9c15.58,3.38,58.27,6.09,62.33-10.17s-31.84-21.68-53.53-26.42c-1.87-.41-4.15-.88-6.74-1.43C109.2,197.46,62.36,186,48.84,147.5a70.22,70.22,0,0,1-3.66-26.41c1.17-28.29,12.38-49,30.16-63.51,10.11-8.22,22.34-14.41,36.06-18.8C125.32,21,139.15,7.73,151.94.92a7.82,7.82,0,0,1,7.37,0c10.91,5.81,22.58,16.33,34.41,30.33A214.47,214.47,0,0,1,234,38.78a162.25,162.25,0,0,1,33,13.35,5,5,0,0,1,2.1,6.34l-23.33,55a5.24,5.24,0,0,1-6.83,2.78c-15.51-6.38-38.73-14.46-56.86-16.15-29.14-2.71-47.43,2.71-48.79,16.26s28.46,19,54.89,23c13.81,2.13,36.34,6.14,57.59,20.28,19.39,12.9,37.73,34.23,47.43,70.24,8.76,29,15,57.41,17.7,82.8a5.66,5.66,0,0,1-5.67,6.23,5.76,5.76,0,0,1-4.26-1.88c-10.08-11-24-25.7-39.62-41.33-8.27,9.11-28.35,25.33-67.6,32a225.8,225.8,0,0,1-38.1,3c-58.94,0-89-12.87-112.94-27.78C30,295.88,18.81,307.75,10.31,317.05Z"/>
</svg>