<svg width="122" height="19" viewBox="0 0 122 19" fill="none" xmlns="http://www.w3.org/2000/svg">
<path d="M5.88159 14.6172C4.76312 14.6172 3.67037 14.4951 2.60333 14.2508C1.54914 13.9937 0.681364 13.653 0 13.2288L1.46558 9.91192C2.10837 10.2847 2.8283 10.5869 3.62537 10.8183C4.42244 11.0368 5.18737 11.1461 5.92016 11.1461C6.5501 11.1461 7.00005 11.0882 7.27003 10.9725C7.54 10.844 7.67499 10.6576 7.67499 10.4133C7.67499 10.1305 7.49501 9.91835 7.13504 9.77693C6.78793 9.63552 6.20941 9.48125 5.39949 9.31412C4.35816 9.09557 3.49038 8.86416 2.79616 8.6199C2.10194 8.36278 1.49772 7.95139 0.983479 7.38573C0.469241 6.80722 0.212123 6.02943 0.212123 5.05238C0.212123 4.20389 0.449958 3.43253 0.925627 2.73831C1.4013 2.04409 2.10837 1.49772 3.04686 1.09918C3.99819 0.700648 5.1488 0.501382 6.49867 0.501382C7.4243 0.501382 8.33064 0.604229 9.2177 0.809923C10.1176 1.00276 10.9083 1.29202 11.5896 1.6777L10.2205 4.97524C8.8963 4.30674 7.64285 3.97248 6.4601 3.97248C5.29022 3.97248 4.70527 4.25531 4.70527 4.82097C4.70527 5.09095 4.87882 5.29664 5.22593 5.43806C5.57305 5.56662 6.14513 5.70803 6.9422 5.8623C7.97068 6.05514 8.83845 6.28012 9.54553 6.53724C10.2526 6.7815 10.8633 7.18646 11.3775 7.75212C11.9046 8.31779 12.1681 9.08914 12.1681 10.0662C12.1681 10.9147 11.9303 11.686 11.4546 12.3803C10.979 13.0616 10.2655 13.608 9.31412 14.0194C8.37564 14.4179 7.23146 14.6172 5.88159 14.6172Z" fill="white"/>
<path d="M20.426 3.56752C21.3516 3.56752 22.2001 3.7925 22.9715 4.24246C23.7557 4.67956 24.3728 5.31593 24.8227 6.15156C25.2856 6.9872 25.517 7.95139 25.517 9.04415C25.517 10.1369 25.2856 11.1011 24.8227 11.9367C24.3728 12.7595 23.7557 13.3959 22.9715 13.8458C22.2001 14.2829 21.3516 14.5015 20.426 14.5015C19.2561 14.5015 18.3626 14.1994 17.7456 13.5951V18.0497H13.3874V3.76036H17.5334V4.62813C18.1634 3.92106 19.1276 3.56752 20.426 3.56752ZM19.3847 11.1075C19.8861 11.1075 20.2975 10.9275 20.6189 10.5676C20.9403 10.2076 21.1009 9.6998 21.1009 9.04415C21.1009 8.38849 20.9403 7.88068 20.6189 7.52072C20.2975 7.1479 19.8861 6.96149 19.3847 6.96149C18.8833 6.96149 18.4719 7.1479 18.1505 7.52072C17.8291 7.88068 17.6684 8.38849 17.6684 9.04415C17.6684 9.6998 17.8291 10.2076 18.1505 10.5676C18.4719 10.9275 18.8833 11.1075 19.3847 11.1075Z" fill="white"/>
<path d="M32.4629 14.5015C31.293 14.5015 30.2389 14.2701 29.3004 13.8073C28.3747 13.3316 27.6484 12.6824 27.1213 11.8596C26.5942 11.024 26.3307 10.079 26.3307 9.02486C26.3307 7.97068 26.5942 7.03219 27.1213 6.20941C27.6484 5.37378 28.3747 4.72455 29.3004 4.26174C30.2389 3.79893 31.293 3.56752 32.4629 3.56752C33.6457 3.56752 34.6999 3.79893 35.6255 4.26174C36.564 4.72455 37.2903 5.37378 37.8046 6.20941C38.3317 7.03219 38.5952 7.97068 38.5952 9.02486C38.5952 10.079 38.3317 11.024 37.8046 11.8596C37.2903 12.6824 36.564 13.3316 35.6255 13.8073C34.6999 14.2701 33.6457 14.5015 32.4629 14.5015ZM32.4629 11.1075C32.9643 11.1075 33.3757 10.9275 33.6971 10.5676C34.0185 10.1948 34.1792 9.68051 34.1792 9.02486C34.1792 8.36921 34.0185 7.8614 33.6971 7.50143C33.3757 7.14147 32.9643 6.96149 32.4629 6.96149C31.9615 6.96149 31.5502 7.14147 31.2288 7.50143C30.9074 7.8614 30.7467 8.36921 30.7467 9.02486C30.7467 9.68051 30.9074 10.1948 31.2288 10.5676C31.5502 10.9275 31.9615 11.1075 32.4629 11.1075Z" fill="white"/>
<path d="M47.2871 3.56752C48.5856 3.56752 49.6269 3.95963 50.4111 4.74384C51.2082 5.52805 51.6067 6.7108 51.6067 8.29208V14.3087H47.2486V9.04415C47.2486 7.83569 46.8179 7.23146 45.9565 7.23146C45.468 7.23146 45.0695 7.40501 44.7609 7.75212C44.4652 8.08638 44.3174 8.6199 44.3174 9.35269V14.3087H39.9592V3.76036H44.1053V4.80169C44.5167 4.3903 44.9923 4.08176 45.5323 3.87606C46.0722 3.67037 46.6572 3.56752 47.2871 3.56752Z" fill="white"/>
<path d="M57.6261 14.5015C56.7262 14.5015 55.8392 14.4051 54.965 14.2122C54.0908 14.0194 53.3837 13.7687 52.8437 13.4602L54.0393 10.5869C54.5279 10.8825 55.1064 11.114 55.7749 11.2811C56.4434 11.4482 57.0926 11.5318 57.7226 11.5318C58.2239 11.5318 58.5711 11.4932 58.7639 11.4161C58.9696 11.3261 59.0724 11.1975 59.0724 11.0304C59.0724 10.8633 58.9439 10.7476 58.6868 10.6833C58.4425 10.619 58.0375 10.5547 57.4719 10.4904C56.6105 10.3876 55.8777 10.259 55.2735 10.1048C54.6693 9.93763 54.1358 9.62266 53.673 9.15985C53.223 8.69704 52.998 8.03496 52.998 7.17361C52.998 6.49224 53.2037 5.88159 53.6151 5.34164C54.0265 4.80169 54.6371 4.37102 55.4471 4.04962C56.2698 3.72822 57.2533 3.56752 58.3975 3.56752C59.1946 3.56752 59.9724 3.64466 60.7309 3.79893C61.5022 3.94034 62.1579 4.15246 62.6978 4.4353L61.5022 7.3086C60.5766 6.79436 59.561 6.53724 58.4554 6.53724C57.504 6.53724 57.0283 6.70437 57.0283 7.03862C57.0283 7.20575 57.1569 7.32788 57.414 7.40501C57.6711 7.46929 58.0761 7.53358 58.6289 7.59786C59.4903 7.7007 60.2166 7.83569 60.808 8.00282C61.4122 8.16994 61.9393 8.48491 62.3893 8.94773C62.8521 9.41054 63.0835 10.0726 63.0835 10.934C63.0835 11.5896 62.8778 12.1874 62.4664 12.7274C62.055 13.2673 61.4379 13.698 60.6152 14.0194C59.7924 14.3408 58.796 14.5015 57.6261 14.5015Z" fill="white"/>
<path d="M69.9761 14.5015C68.8062 14.5015 67.752 14.2701 66.8136 13.8073C65.8879 13.3316 65.1616 12.6824 64.6345 11.8596C64.1074 11.024 63.8438 10.079 63.8438 9.02486C63.8438 7.97068 64.1074 7.03219 64.6345 6.20941C65.1616 5.37378 65.8879 4.72455 66.8136 4.26174C67.752 3.79893 68.8062 3.56752 69.9761 3.56752C71.1589 3.56752 72.2131 3.79893 73.1387 4.26174C74.0772 4.72455 74.8035 5.37378 75.3178 6.20941C75.8449 7.03219 76.1084 7.97068 76.1084 9.02486C76.1084 10.079 75.8449 11.024 75.3178 11.8596C74.8035 12.6824 74.0772 13.3316 73.1387 13.8073C72.2131 14.2701 71.1589 14.5015 69.9761 14.5015ZM69.9761 11.1075C70.4775 11.1075 70.8889 10.9275 71.2103 10.5676C71.5317 10.1948 71.6924 9.68051 71.6924 9.02486C71.6924 8.36921 71.5317 7.8614 71.2103 7.50143C70.8889 7.14147 70.4775 6.96149 69.9761 6.96149C69.4747 6.96149 69.0634 7.14147 68.742 7.50143C68.4206 7.8614 68.2599 8.36921 68.2599 9.02486C68.2599 9.68051 68.4206 10.1948 68.742 10.5676C69.0634 10.9275 69.4747 11.1075 69.9761 11.1075Z" fill="white"/>
<path d="M81.6185 4.89811C82.3898 4.01105 83.5276 3.56752 85.0317 3.56752V7.4243C84.6846 7.37288 84.3632 7.34716 84.0675 7.34716C82.5762 7.34716 81.8306 8.10566 81.8306 9.62266V14.3087H77.4724V3.76036H81.6185V4.89811Z" fill="white"/>
<path d="M97.396 9.02486C97.396 9.08914 97.3767 9.42982 97.3382 10.0469H90.0103C90.1646 10.4454 90.4217 10.754 90.7816 10.9725C91.1416 11.1782 91.5916 11.2811 92.1315 11.2811C92.5943 11.2811 92.98 11.2232 93.2885 11.1075C93.6099 10.9918 93.957 10.7926 94.3299 10.5097L96.6054 12.8045C95.5769 13.9358 94.0406 14.5015 91.9965 14.5015C90.7238 14.5015 89.6053 14.2701 88.6411 13.8073C87.6769 13.3316 86.9313 12.6759 86.4042 11.8403C85.8771 11.0047 85.6135 10.0662 85.6135 9.02486C85.6135 7.97068 85.8707 7.03219 86.3849 6.20941C86.912 5.37378 87.6255 4.72455 88.5254 4.26174C89.4382 3.79893 90.4602 3.56752 91.5916 3.56752C92.6586 3.56752 93.6292 3.77964 94.5034 4.20389C95.3905 4.62813 96.0911 5.25165 96.6054 6.07443C97.1325 6.89721 97.396 7.88068 97.396 9.02486ZM91.6301 6.53724C91.1802 6.53724 90.8074 6.65937 90.5117 6.90363C90.216 7.1479 90.0231 7.49501 89.9331 7.94496H93.3271C93.2371 7.50786 93.0443 7.16718 92.7486 6.92292C92.4529 6.6658 92.0801 6.53724 91.6301 6.53724Z" fill="white"/>
<path d="M110.438 0V14.3087H106.292V13.4409C105.662 14.148 104.698 14.5015 103.399 14.5015C102.474 14.5015 101.619 14.2829 100.835 13.8458C100.063 13.3959 99.4463 12.7531 98.9835 11.9174C98.5335 11.0818 98.3085 10.1176 98.3085 9.02486C98.3085 7.93211 98.5335 6.97434 98.9835 6.15156C99.4463 5.31593 100.063 4.67956 100.835 4.24246C101.619 3.7925 102.474 3.56752 103.399 3.56752C104.569 3.56752 105.463 3.86963 106.08 4.47386V0H110.438ZM104.441 11.1075C104.942 11.1075 105.354 10.9275 105.675 10.5676C105.996 10.1948 106.157 9.68051 106.157 9.02486C106.157 8.36921 105.996 7.8614 105.675 7.50143C105.354 7.14147 104.942 6.96149 104.441 6.96149C103.939 6.96149 103.528 7.14147 103.207 7.50143C102.885 7.8614 102.725 8.36921 102.725 9.02486C102.725 9.68051 102.885 10.1948 103.207 10.5676C103.528 10.9275 103.939 11.1075 104.441 11.1075Z" fill="white"/>
<path fill-rule="evenodd" clip-rule="evenodd" d="M117.68 11.4159C117.487 11.4931 117.14 11.5316 116.639 11.5316C116.009 11.5316 115.36 11.4481 114.691 11.2809C114.232 11.1662 113.815 11.0211 113.441 10.8457C113.271 10.7657 113.109 10.6794 112.956 10.5867L111.76 13.46C112.3 13.7686 113.007 14.0193 113.881 14.2121C114.755 14.4049 115.643 14.5014 116.542 14.5014C117.712 14.5014 118.709 14.3407 119.531 14.0193C120.354 13.6979 120.971 13.2672 121.383 12.7272C121.794 12.1873 122 11.5895 122 10.9338C122 10.0725 121.768 9.4104 121.306 8.94759C120.856 8.48478 120.328 8.16981 119.724 8.00268C119.133 7.83555 118.407 7.70056 117.545 7.59772C116.992 7.53344 116.587 7.46916 116.33 7.40488C116.073 7.32774 115.945 7.20561 115.945 7.03848C115.945 6.70423 116.42 6.5371 117.372 6.5371C118.285 6.5371 119.137 6.71252 119.927 7.06336C120.094 7.13728 120.257 7.21897 120.418 7.30846L121.614 4.43516C121.074 4.15233 120.418 3.9402 119.647 3.79879C118.889 3.64452 118.111 3.56738 117.314 3.56738C116.17 3.56738 115.186 3.72808 114.363 4.04948C113.553 4.37088 112.943 4.80155 112.531 5.3415C112.12 5.88145 111.914 6.49211 111.914 7.17347C111.914 8.03482 112.139 8.6969 112.589 9.15971C113.052 9.62253 113.586 9.9375 114.19 10.1046C114.794 10.2589 115.527 10.3875 116.388 10.4903C116.954 10.5546 117.359 10.6189 117.603 10.6831C117.86 10.7474 117.989 10.8631 117.989 11.0303C117.989 11.1974 117.886 11.3259 117.68 11.4159ZM117.739 10.1525C117.912 10.1959 118.103 10.2705 118.259 10.4109C118.434 10.5685 118.537 10.7853 118.537 11.0303C118.537 11.4922 118.223 11.7764 117.9 11.9178L117.892 11.9213L117.884 11.9246C117.583 12.045 117.139 12.0795 116.639 12.0795C115.96 12.0795 115.266 11.9894 114.558 11.8124C114.079 11.6925 113.635 11.5397 113.231 11.3519L112.462 13.1991C112.878 13.3813 113.388 13.5422 113.999 13.6771C114.834 13.8614 115.682 13.9535 116.542 13.9535C117.665 13.9535 118.59 13.7989 119.332 13.509C120.089 13.2134 120.612 12.8345 120.947 12.3952C121.288 11.9471 121.452 11.465 121.452 10.9338C121.452 10.1701 121.249 9.66565 120.918 9.33497L120.915 9.33224L120.913 9.32947C120.528 8.93425 120.086 8.67109 119.578 8.53069L119.577 8.53028L119.575 8.52987C119.02 8.37302 118.324 8.24251 117.481 8.14181C116.925 8.07711 116.491 8.00969 116.197 7.93636L116.185 7.93327L116.173 7.92961C116.001 7.87794 115.814 7.79546 115.664 7.65261C115.498 7.49518 115.397 7.28217 115.397 7.03848C115.397 6.80944 115.484 6.60272 115.636 6.44207C115.777 6.29408 115.954 6.20392 116.12 6.14558C116.447 6.03064 116.879 5.98926 117.372 5.98926C118.354 5.98926 119.278 6.17794 120.138 6.55744L120.905 4.71298C120.516 4.55859 120.065 4.43235 119.548 4.33765L119.543 4.33669L119.538 4.33564C118.816 4.18889 118.075 4.11522 117.314 4.11522C116.219 4.11522 115.307 4.26913 114.564 4.55925C113.822 4.85408 113.303 5.23256 112.967 5.67351C112.629 6.11766 112.462 6.61157 112.462 7.17347C112.462 7.93919 112.66 8.44503 112.979 8.77517C113.376 9.17119 113.825 9.43441 114.331 9.57519C114.903 9.72107 115.609 9.84547 116.452 9.94614C117.016 10.0104 117.454 10.0777 117.739 10.1525Z" fill="white"/>
</svg>
