<svg width="14" height="14" viewBox="0 0 14 14" fill="none" xmlns="http://www.w3.org/2000/svg">
<g clip-path="url(#clip0)">
<path d="M13.2402 6.02424H7.97672V0.760696C7.97672 0.52092 7.65113 0.00100708 6.99997 0.00100708C6.34881 0.00100708 6.02322 0.520949 6.02322 0.760696V6.02427H0.759688C0.519941 6.02424 0 6.34983 0 7.00096C0 7.65209 0.519941 7.97771 0.759688 7.97771H6.02325V13.2413C6.02325 13.481 6.34881 14.001 7 14.001C7.65119 14.001 7.97675 13.481 7.97675 13.2413V7.97771H13.2403C13.48 7.97771 14 7.65215 14 7.00096C14 6.34978 13.48 6.02424 13.2402 6.02424Z" fill="#8FD29D"/>
</g>
<defs>
<clipPath id="clip0">
<rect width="14" height="14" fill="white"/>
</clipPath>
</defs>
</svg>
