<svg width="32" height="32" viewBox="0 0 32 32" fill="none" xmlns="http://www.w3.org/2000/svg">
<path d="M20.2426 3.75736C22.5858 6.10051 22.5858 9.89949 20.2426 12.2426C17.8995 14.5858 14.1005 14.5858 11.7574 12.2426C9.41421 9.89948 9.41421 6.10049 11.7574 3.75736C14.1005 1.41421 17.8995 1.41421 20.2426 3.75736Z" fill="#BDC6CF"/>
<path d="M16 9.73334C14.2314 9.7337 12.5531 10.5143 11.4133 11.8667C13.5518 14.398 17.3374 14.7164 19.8687 12.5779C20.1253 12.3612 20.3632 12.1232 20.58 11.8667C19.4417 10.5161 17.7662 9.73566 16 9.73334L16 9.73334Z" fill="#F8FAFE"/>
<path d="M16.0001 9.73334C15.2442 9.73417 14.4953 9.87897 13.7935 10.16C14.3189 11.3769 15.7314 11.9373 16.9483 11.4119C17.5098 11.1693 17.9576 10.7216 18.2001 10.16V10.16C17.5004 9.8798 16.7539 9.73501 16.0001 9.73334L16.0001 9.73334Z" fill="#BDC6CF"/>
<path d="M17.6972 5.10962C18.6344 6.04688 18.6344 7.56648 17.6972 8.50374C16.7599 9.441 15.2403 9.441 14.303 8.50374C13.3658 7.56648 13.3658 6.04688 14.303 5.10962C15.2403 4.17236 16.7599 4.17236 17.6972 5.10962Z" fill="#F8FAFE"/>
<path d="M8.82843 23.1716C10.3905 24.7337 10.3905 27.2664 8.82843 28.8285C7.26633 30.3906 4.73367 30.3906 3.17157 28.8285C1.60947 27.2664 1.60947 24.7337 3.17157 23.1716C4.73368 21.6095 7.26634 21.6095 8.82843 23.1716Z" fill="#BDC6CF"/>
<path d="M6.00011 27.1533C4.82297 27.1543 3.70603 27.6738 2.94678 28.5733H2.94678C4.37171 30.2615 6.89537 30.4748 8.58352 29.0499C8.75551 28.9047 8.91494 28.7453 9.06011 28.5733C8.29935 27.672 7.17958 27.1524 6.00011 27.1533H6.00011Z" fill="#F8FAFE"/>
<path d="M5.99987 27.1533C5.49731 27.1559 4.99974 27.2531 4.5332 27.44C4.88211 28.2518 5.82309 28.6271 6.63495 28.2782C7.01139 28.1165 7.31143 27.8164 7.4732 27.44C7.00458 27.2523 6.50467 27.1551 5.99987 27.1533Z" fill="#BDC6CF"/>
<path d="M7.13127 24.0753C7.75611 24.7001 7.75611 25.7132 7.13127 26.338C6.50643 26.9628 5.49337 26.9628 4.86853 26.338C4.24369 25.7132 4.24369 24.7001 4.86853 24.0753C5.49337 23.4504 6.50643 23.4504 7.13127 24.0753Z" fill="#F8FAFE"/>
<path d="M18.8284 23.1716C20.3905 24.7337 20.3905 27.2664 18.8284 28.8285C17.2663 30.3906 14.7337 30.3906 13.1716 28.8285C11.6095 27.2664 11.6095 24.7337 13.1716 23.1716C14.7337 21.6095 17.2663 21.6095 18.8284 23.1716Z" fill="#BDC6CF"/>
<path d="M16.0001 27.1533C14.823 27.1543 13.706 27.6738 12.9468 28.5733C14.3717 30.2615 16.8954 30.4748 18.5835 29.0499C18.7555 28.9047 18.9149 28.7453 19.0601 28.5733C18.2993 27.672 17.1796 27.1524 16.0001 27.1533H16.0001Z" fill="#F8FAFE"/>
<path d="M15.9999 27.1533C15.4973 27.1559 14.9997 27.2531 14.5332 27.44C14.8821 28.2518 15.8231 28.6271 16.6349 28.2782C17.0114 28.1165 17.3114 27.8164 17.4732 27.44C17.0046 27.2523 16.5047 27.1551 15.9999 27.1533Z" fill="#BDC6CF"/>
<path d="M17.1313 24.0753C17.7561 24.7001 17.7561 25.7132 17.1313 26.338C16.5064 26.9628 15.4934 26.9628 14.8685 26.338C14.2437 25.7132 14.2437 24.7001 14.8685 24.0753C15.4934 23.4504 16.5064 23.4504 17.1313 24.0753Z" fill="#F8FAFE"/>
<path d="M28.8284 23.1716C30.3905 24.7337 30.3905 27.2664 28.8284 28.8285C27.2663 30.3906 24.7337 30.3906 23.1716 28.8285C21.6095 27.2664 21.6095 24.7337 23.1716 23.1716C24.7337 21.6095 27.2663 21.6095 28.8284 23.1716Z" fill="#BDC6CF"/>
<path d="M26.0001 27.1533C24.823 27.1543 23.706 27.6738 22.9468 28.5733H22.9468C24.3717 30.2615 26.8954 30.4748 28.5835 29.0499C28.7555 28.9047 28.9149 28.7453 29.0601 28.5733C28.2993 27.672 27.1796 27.1524 26.0001 27.1533H26.0001Z" fill="#F8FAFE"/>
<path d="M25.9999 27.1533C25.4973 27.1559 24.9997 27.2531 24.5332 27.44C24.8821 28.2518 25.8231 28.6271 26.635 28.2782C27.0114 28.1165 27.3114 27.8164 27.4732 27.44C27.0046 27.2523 26.5047 27.1551 25.9999 27.1533Z" fill="#BDC6CF"/>
<path d="M27.1313 24.0753C27.7561 24.7001 27.7561 25.7132 27.1313 26.338C26.5064 26.9628 25.4934 26.9628 24.8685 26.338C24.2437 25.7132 24.2437 24.7001 24.8685 24.0753C25.4934 23.4504 26.5064 23.4504 27.1313 24.0753Z" fill="#F8FAFE"/>
<path d="M24.3399 16H7.67326C6.2005 16 5.00659 17.1939 5.00659 18.6667V19.3333C5.00659 19.7015 5.30507 20 5.67326 20H6.33993C6.70812 20 7.00659 19.7015 7.00659 19.3333V18.6667C7.00659 18.2985 7.30507 18 7.67326 18H14.6666C14.8654 18 15.0266 18.1612 15.0266 18.36V19.3333C15.0266 19.7015 15.3251 20 15.6933 20H16.3599C16.7281 20 17.0266 19.7015 17.0266 19.3333V18.36C17.0246 18.1803 17.1555 18.0266 17.3333 18H24.3399C24.7081 18 25.0066 18.2985 25.0066 18.6667V19.3333C25.0066 19.7015 25.3051 20 25.6733 20H26.3399C26.7081 20 27.0066 19.7015 27.0066 19.3333V18.6667C27.0066 17.1939 25.8127 16 24.3399 16V16Z" fill="#7C8A95"/>
</svg>
