<svg width="50" height="50" viewBox="0 0 50 50" fill="none" xmlns="http://www.w3.org/2000/svg">
<mask id="mask0" mask-type="alpha" maskUnits="userSpaceOnUse" x="0" y="0" width="50" height="50">
<rect width="50" height="50" fill="#C4C4C4"/>
</mask>
<g mask="url(#mask0)">
<path d="M1 5C1 4.44772 1.44772 4 2 4H38C38.5523 4 39 4.44772 39 5V11V41C39 41.5523 38.5523 42 38 42H2C1.44772 42 1 41.5523 1 41V11V5Z" stroke="#6D6DF6" stroke-width="2" stroke-linecap="round" stroke-linejoin="round"/>
<path d="M5 1L5 7" stroke="#6D6DF6" stroke-width="2" stroke-linecap="round"/>
<path d="M15 1L15 7" stroke="#6D6DF6" stroke-width="2" stroke-linecap="round"/>
<path d="M25 1L25 7" stroke="#6D6DF6" stroke-width="2" stroke-linecap="round"/>
<path d="M35 1L35 7" stroke="#6D6DF6" stroke-width="2" stroke-linecap="round"/>
<circle cx="5" cy="19" r="1" fill="#6D6DF6"/>
<circle cx="10" cy="19" r="1" fill="#6D6DF6"/>
<circle cx="15" cy="19" r="1" fill="#6D6DF6"/>
<circle cx="20" cy="19" r="1" fill="#6D6DF6"/>
<circle cx="25" cy="19" r="1" fill="#6D6DF6"/>
<circle cx="35" cy="19" r="1" fill="#6D6DF6"/>
<circle cx="30" cy="19" r="1" fill="#6D6DF6"/>
<circle cx="5" cy="24" r="1" fill="#6D6DF6"/>
<circle cx="10" cy="24" r="1" fill="#6D6DF6"/>
<circle cx="15" cy="24" r="1" fill="#6D6DF6"/>
<circle cx="20" cy="24" r="1" fill="#6D6DF6"/>
<circle cx="25" cy="24" r="1" fill="#6D6DF6"/>
<circle cx="35" cy="24" r="1" fill="#6D6DF6"/>
<circle cx="30" cy="24" r="1" fill="#6D6DF6"/>
<circle cx="5" cy="29" r="1" fill="#6D6DF6"/>
<circle cx="10" cy="29" r="1" fill="#6D6DF6"/>
<circle cx="15" cy="29" r="1" fill="#6D6DF6"/>
<circle cx="20" cy="29" r="1" fill="#6D6DF6"/>
<circle cx="25" cy="29" r="1" fill="#6D6DF6"/>
<circle cx="35" cy="29" r="1" fill="#6D6DF6"/>
<circle cx="30" cy="29" r="1" fill="#6D6DF6"/>
<circle cx="5" cy="34" r="1" fill="#6D6DF6"/>
<circle cx="10" cy="34" r="1" fill="#6D6DF6"/>
<circle cx="15" cy="34" r="1" fill="#6D6DF6"/>
<circle cx="20" cy="34" r="1" fill="#6D6DF6"/>
<circle cx="25" cy="34" r="1" fill="#6D6DF6"/>
<circle cx="35" cy="34" r="1" fill="#6D6DF6"/>
<circle cx="30" cy="34" r="1" fill="#6D6DF6"/>
<circle cx="37.5" cy="37.5" r="11.5" fill="white" stroke="#6D6DF6" stroke-width="2"/>
<path d="M31.5 37.5L36 42.5L44 33" stroke="#6D6DF6" stroke-width="2" stroke-linecap="round" stroke-linejoin="round"/>
</g>
</svg>
