<svg width="50" height="50" viewBox="0 0 50 50" fill="none" xmlns="http://www.w3.org/2000/svg">
<mask id="mask0" mask-type="alpha" maskUnits="userSpaceOnUse" x="0" y="0" width="50" height="50">
<rect width="50" height="50" fill="#C4C4C4"/>
</mask>
<g mask="url(#mask0)">
<path d="M1 7.40161C1 6.84933 1.44772 6.40161 2 6.40161H5.44186H15.7209H20.8605H24C24.5523 6.40161 25 6.84933 25 7.40161V12.4016C25 12.9539 24.5523 13.4016 24 13.4016H20.8605H15.7209H5.44186H2C1.44771 13.4016 1 12.9539 1 12.4016V7.40161Z" stroke="#6D6DF6" stroke-width="2" stroke-linecap="round" stroke-linejoin="round"/>
<path d="M6 14.4016C6 13.8493 6.44772 13.4016 7 13.4016H10.4419H20.7209H25.8605H29C29.5523 13.4016 30 13.8493 30 14.4016V19.4016C30 19.9539 29.5523 20.4016 29 20.4016H25.8605H20.7209H10.4419H7C6.44771 20.4016 6 19.9539 6 19.4016V14.4016Z" stroke="#6D6DF6" stroke-width="2" stroke-linecap="round" stroke-linejoin="round"/>
<path d="M6 28.4016C6 27.8493 6.44772 27.4016 7 27.4016H10.4419H20.7209H25.8605H29C29.5523 27.4016 30 27.8493 30 28.4016V33.4016C30 33.9539 29.5523 34.4016 29 34.4016H25.8605H20.7209H10.4419H7C6.44771 34.4016 6 33.9539 6 33.4016V28.4016Z" stroke="#6D6DF6" stroke-width="2" stroke-linecap="round" stroke-linejoin="round"/>
<path d="M1 21.4016C1 20.8493 1.44772 20.4016 2 20.4016H5.44186H15.7209H20.8605H24C24.5523 20.4016 25 20.8493 25 21.4016V26.4016C25 26.9539 24.5523 27.4016 24 27.4016H20.8605H15.7209H5.44186H2C1.44771 27.4016 1 26.9539 1 26.4016V21.4016Z" stroke="#6D6DF6" stroke-width="2" stroke-linecap="round" stroke-linejoin="round"/>
<path d="M1 35.4016C1 34.8493 1.44772 34.4016 2 34.4016H5.44186H15.7209H20.8605H24C24.5523 34.4016 25 34.8493 25 35.4016V40.4016C25 40.9539 24.5523 41.4016 24 41.4016H20.8605H15.7209H5.44186H2C1.44771 41.4016 1 40.9539 1 40.4016V35.4016Z" stroke="#6D6DF6" stroke-width="2" stroke-linecap="round" stroke-linejoin="round"/>
<circle cx="33.5" cy="37.5" r="11.5" fill="white" stroke="#6D6DF6" stroke-width="2"/>
<path d="M32.4239 36.3393L32.424 36.3394C32.7962 36.5075 33.2124 36.6085 33.6832 36.7217C33.8206 36.7546 33.9601 36.7882 34.0988 36.8239C36.1065 37.3392 37.3655 38.6992 37.3655 40.4939C37.3655 42.2748 36.0362 43.7498 34.2749 44.1716V45.3988C34.2749 45.7947 33.9542 46.1165 33.558 46.1165C33.1618 46.1165 32.8411 45.7947 32.8411 45.3988V44.2672C31.6639 44.1473 30.5834 43.5662 29.8937 42.6455C29.8937 42.6455 29.8936 42.6454 29.8936 42.6453L30.0936 42.4954C29.9386 42.2889 29.9804 41.9957 30.1868 41.8407L32.4239 36.3393ZM32.4239 36.3393C31.7015 36.0134 31.1839 35.1961 31.1839 34.3548C31.1839 33.0852 32.3493 32.0024 33.8499 31.9888C34.7514 31.997 35.5795 32.4029 36.0749 33.0641L32.4239 36.3393ZM29.75 34.3546C29.75 35.739 30.6009 37.0912 31.8347 37.6477L36.9288 33.0076C37.1352 32.8526 37.1769 32.5594 37.0219 32.3529L37.222 32.203C37.222 32.2029 37.2219 32.2029 37.2219 32.2028C36.5322 31.2822 35.4517 30.701 34.2747 30.5811V29.4677C34.2747 29.0718 33.954 28.75 33.5578 28.75C33.1616 28.75 32.8409 29.0718 32.8409 29.4677V30.6772C31.0794 31.099 29.75 32.5737 29.75 34.3546Z" fill="#6D6DF6" stroke="#6D6DF6" stroke-width="0.5"/>
<path d="M30 1.40173L49.0006 19.9016M49.0006 19.9016L49.0006 13.5986M49.0006 19.9016L42.5115 19.9016" stroke="#6D6DF6" stroke-width="2" stroke-linecap="round" stroke-linejoin="round"/>
</g>
</svg>
