<svg width="32" height="24" viewBox="0 0 32 24" fill="none" xmlns="http://www.w3.org/2000/svg">
<path fill-rule="evenodd" clip-rule="evenodd" d="M0 10.2968V3.44516C0 1.54839 1.60401 0 3.56892 0H10.6667C12.6316 0 14.2356 1.54839 14.2356 3.44516V10.2968C14.2356 17.8839 7.85965 24 0.0401001 24V19.1613C3.68922 18.929 6.81704 16.7613 8.30075 13.7032H3.56892C1.60401 13.7032 0 12.1935 0 10.2968ZM21.3333 0H28.4311C30.396 0 32 1.54839 32 3.44516V10.2968C32 17.8839 25.6241 24 17.8045 24V19.1613C21.4536 18.929 24.5815 16.7613 26.0652 13.7032H21.3333C19.3684 13.7032 17.7644 12.1548 17.7644 10.2581V3.40645C17.7644 1.54839 19.3684 0 21.3333 0Z" fill="#DCDFF2"/>
</svg>
