<svg width="23" height="23" viewBox="0 0 23 23" fill="none" xmlns="http://www.w3.org/2000/svg">
<path d="M19.6317 3.36828C24.1228 7.85931 24.1228 15.1407 19.6317 19.6317C15.1407 24.1228 7.85929 24.1228 3.36828 19.6317C-1.12276 15.1407 -1.12276 7.85929 3.36828 3.36828C7.85931 -1.12276 15.1407 -1.12276 19.6317 3.36828Z" fill="#BDC6CF"/>
<path d="M11.5003 14.8157C8.11598 14.8186 4.90478 16.312 2.72192 18.8982H2.72193C6.81861 23.7516 14.0741 24.3651 18.9275 20.2684C19.422 19.851 19.8804 19.3926 20.2977 18.8982C18.1106 16.3068 14.8912 14.8129 11.5002 14.8157H11.5003Z" fill="#F8FAFE"/>
<path d="M11.4996 14.8157C10.0548 14.8231 8.62426 15.1027 7.28296 15.6398C8.28605 17.9739 10.9914 19.0529 13.3255 18.0498C14.4078 17.5847 15.2704 16.7221 15.7355 15.6398C14.3882 15.1003 12.9509 14.8207 11.4996 14.8157Z" fill="#BDC6CF"/>
<path d="M14.7524 5.96627C16.5488 7.76268 16.5488 10.6752 14.7524 12.4717C12.9559 14.2681 10.0434 14.2681 8.24697 12.4717C6.45056 10.6752 6.45056 7.76268 8.24697 5.96627C10.0434 4.16985 12.9559 4.16985 14.7524 5.96627Z" fill="#F8FAFE"/>
</svg>
