<svg width="20" height="20" viewBox="0 0 20 20" fill="none" xmlns="http://www.w3.org/2000/svg">
<path fill-rule="evenodd" clip-rule="evenodd" d="M17.0711 2.92894C20.9763 6.83419 20.9763 13.1658 17.0711 17.0711C13.1658 20.9763 6.83417 20.9763 2.92894 17.0711C-0.976312 13.1658 -0.976312 6.83417 2.92894 2.92894C6.83419 -0.976312 13.1658 -0.976312 17.0711 2.92894ZM12.8275 5.18805C14.3896 6.75015 14.3896 9.28281 12.8275 10.8449C11.2654 12.407 8.7327 12.407 7.1706 10.8449C5.6085 9.28281 5.6085 6.75015 7.1706 5.18805C8.73269 3.62596 11.2654 3.62596 12.8275 5.18805ZM2.36622 16.4332C4.26434 14.1843 7.0567 12.8857 9.99954 12.8832C12.9482 12.8808 15.7476 14.1798 17.6495 16.4332C17.2866 16.8632 16.888 17.2617 16.4581 17.6247C12.2377 21.187 5.92855 20.6536 2.36622 16.4332Z" fill="#BDC6CF"/>
</svg>
