<svg width="32" height="32" viewBox="0 0 32 32" fill="none" xmlns="http://www.w3.org/2000/svg">
<mask id="mask0" mask-type="alpha" maskUnits="userSpaceOnUse" x="0" y="0" width="32" height="32">
<rect width="32" height="32" fill="#C4C4C4"/>
</mask>
<g mask="url(#mask0)">
<rect x="26" y="21.0001" width="2" height="6" rx="1" fill="#F25D71"/>
<rect x="30" y="22.9997" width="2" height="6" rx="1" transform="rotate(90 30 22.9997)" fill="#F25D71"/>
<g opacity="0.5">
<rect x="16.9998" y="24.9996" width="2" height="6" rx="1" fill="#F25D71"/>
<rect x="20.9998" y="26.9999" width="2" height="6" rx="1" transform="rotate(90 20.9998 26.9999)" fill="#F25D71"/>
</g>
<path d="M14.1991 15.4035C14.9801 14.6225 16.2464 14.6225 17.0275 15.4035C17.8085 16.1846 17.8085 17.4509 17.0275 18.232L6.24209 29.0174C5.46104 29.7984 4.19471 29.7984 3.41366 29.0174C2.63261 28.2363 2.63261 26.97 3.41366 26.189L14.1991 15.4035Z" fill="#363694"/>
<path fill-rule="evenodd" clip-rule="evenodd" d="M18.9672 18.092L18.4377 17.0869C18.3441 16.9093 18.2244 16.7468 18.0825 16.6049L15.3952 13.9176C15.2532 13.7757 15.0908 13.6559 14.9132 13.5624L13.9081 13.0328C12.6752 12.3833 12.6752 10.6177 13.9081 9.96818C14.646 9.57941 15.0021 8.71988 14.7552 7.92317C14.3427 6.59207 15.5911 5.34363 16.9222 5.75613C17.7189 6.00303 18.5784 5.64701 18.9672 4.90906C19.6168 3.67615 21.3823 3.67615 22.0319 4.90906C22.4207 5.64701 23.2802 6.00303 24.0769 5.75613C25.408 5.34363 26.6564 6.59207 26.2439 7.92317C25.997 8.71988 26.3531 9.57941 27.091 9.96818C28.3239 10.6177 28.3239 12.3833 27.091 13.0328C26.3531 13.4216 25.997 14.2811 26.2439 15.0778C26.6564 16.409 25.408 17.6574 24.0769 17.2449C23.2802 16.998 22.4207 17.354 22.0319 18.092C21.3823 19.3249 19.6168 19.3249 18.9672 18.092ZM22.1833 10.2475C21.4022 9.46645 20.1359 9.46645 19.3549 10.2475L17.027 12.5753C16.246 13.3564 16.246 14.6227 17.027 15.4038C17.8081 16.1848 19.0744 16.1848 19.8555 15.4038L22.1833 13.0759C22.9643 12.2949 22.9643 11.0286 22.1833 10.2475Z" fill="#F25D71"/>
</g>
</svg>
