<svg width="233" height="93" viewBox="0 0 233 93" fill="none" xmlns="http://www.w3.org/2000/svg">
<path d="M4.33439 42.7054C4.08356 42.7054 3.83836 42.631 3.6298 42.4916C3.42124 42.3522 3.25869 42.1541 3.1627 41.9224C3.06671 41.6906 3.0416 41.4356 3.09053 41.1895C3.13947 40.9435 3.26025 40.7175 3.43762 40.5401C3.61498 40.3627 3.84096 40.2419 4.08697 40.193C4.33298 40.144 4.58798 40.1692 4.81972 40.2652C5.05145 40.3612 5.24953 40.5237 5.38888 40.7323C5.52823 40.9409 5.60261 41.1861 5.60261 41.437C5.60197 41.7732 5.46814 42.0954 5.23044 42.3332C4.99275 42.5709 4.67054 42.7047 4.33439 42.7054ZM4.33439 40.6593C4.18059 40.6593 4.03025 40.7049 3.90237 40.7903C3.77449 40.8758 3.67482 40.9973 3.61597 41.1394C3.55711 41.2815 3.54171 41.4379 3.57171 41.5887C3.60172 41.7396 3.67578 41.8781 3.78453 41.9869C3.89328 42.0957 4.03184 42.1697 4.18268 42.1998C4.33353 42.2298 4.48988 42.2144 4.63197 42.1555C4.77406 42.0966 4.89551 41.997 4.98095 41.8691C5.0664 41.7412 5.112 41.5908 5.112 41.437C5.112 41.2307 5.03008 41.0329 4.88425 40.8871C4.73842 40.7412 4.54063 40.6593 4.33439 40.6593Z" fill="#E7D07D"/>
<path d="M138.72 7.17598C138.468 7.17646 138.222 7.10234 138.013 6.96299C137.804 6.82365 137.641 6.62534 137.544 6.39317C137.447 6.161 137.422 5.9054 137.471 5.65872C137.519 5.41204 137.64 5.18537 137.818 5.0074C137.995 4.82942 138.222 4.70814 138.468 4.65891C138.715 4.60967 138.971 4.6347 139.203 4.73081C139.435 4.82692 139.634 4.98981 139.774 5.19885C139.913 5.40789 139.988 5.65369 139.988 5.90514C139.988 6.24176 139.854 6.56463 139.617 6.80289C139.379 7.04115 139.056 7.17533 138.72 7.17598ZM138.72 5.12743C138.565 5.12694 138.414 5.17235 138.285 5.25789C138.157 5.34343 138.056 5.46525 137.997 5.6079C137.938 5.75056 137.922 5.90763 137.952 6.05919C137.982 6.21076 138.056 6.34999 138.166 6.45925C138.275 6.56851 138.414 6.64286 138.566 6.67288C138.717 6.70291 138.874 6.68725 139.017 6.6279C139.159 6.56855 139.281 6.46817 139.367 6.3395C139.452 6.21082 139.498 6.05965 139.497 5.90514C139.495 5.69993 139.413 5.50375 139.267 5.35909C139.122 5.21444 138.925 5.13297 138.72 5.13234V5.12743Z" fill="#E7D07D"/>
<path d="M231.732 63.8042C231.481 63.8042 231.236 63.7298 231.027 63.5904C230.819 63.451 230.656 63.2529 230.56 63.0212C230.464 62.7894 230.439 62.5344 230.488 62.2883C230.537 62.0423 230.658 61.8163 230.835 61.6389C231.012 61.4615 231.238 61.3407 231.484 61.2918C231.73 61.2428 231.985 61.2679 232.217 61.3639C232.449 61.4599 232.647 61.6225 232.786 61.8311C232.926 62.0397 233 62.2849 233 62.5358C232.999 62.872 232.866 63.1942 232.628 63.4319C232.39 63.6697 232.068 63.8035 231.732 63.8042ZM231.732 61.7581C231.578 61.7581 231.428 61.8037 231.3 61.8891C231.172 61.9746 231.072 62.0961 231.013 62.2382C230.955 62.3803 230.939 62.5366 230.969 62.6875C230.999 62.8384 231.073 62.9769 231.182 63.0857C231.291 63.1945 231.429 63.2685 231.58 63.2985C231.731 63.3286 231.887 63.3132 232.029 63.2543C232.172 63.1954 232.293 63.0957 232.378 62.9679C232.464 62.84 232.509 62.6896 232.509 62.5358C232.509 62.3295 232.428 62.1317 232.282 61.9859C232.136 61.84 231.938 61.7581 231.732 61.7581Z" fill="#E7D07D"/>
<path d="M38.488 18.3804C38.488 17.6192 38.1856 16.8891 37.6474 16.3507C37.1091 15.8124 36.3791 15.51 35.6179 15.51H35.5444C35.579 15.2868 35.5963 15.0612 35.5959 14.8353C35.5983 13.7354 35.1779 12.6767 34.4216 11.8782C33.6653 11.0797 32.631 10.6025 31.5327 10.5454C30.4344 10.4884 29.3562 10.8558 28.5212 11.5717C27.6863 12.2875 27.1585 13.2971 27.047 14.3913C26.5617 14.2094 26.0424 14.1361 25.5257 14.1765C25.009 14.2169 24.5074 14.3701 24.0562 14.6252C23.6051 14.8804 23.2153 15.2313 22.9144 15.6533C22.6134 16.0753 22.4086 16.5582 22.3143 17.0679C22.22 17.5776 22.2386 18.1018 22.3686 18.6035C22.4987 19.1053 22.7372 19.5724 23.0672 19.9721C23.3972 20.3718 23.8108 20.6943 24.2788 20.9169C24.7469 21.1396 25.2581 21.2569 25.7763 21.2607H35.8878V21.2484C36.6009 21.1811 37.263 20.8495 37.7441 20.3188C38.2252 19.7882 38.4906 19.0968 38.488 18.3804Z" fill="url(#paint0_linear)"/>
<path d="M191.896 15.3383C191.896 14.7052 192.148 14.098 192.596 13.6503C193.043 13.2027 193.65 12.9512 194.283 12.9512H194.347C194.267 12.4786 194.282 11.9947 194.393 11.5284C194.504 11.062 194.708 10.6228 194.992 10.2371C195.277 9.85131 195.636 9.52689 196.049 9.28321C196.462 9.03954 196.919 8.88161 197.394 8.81889C197.87 8.75617 198.352 8.78993 198.814 8.91816C199.276 9.04639 199.707 9.26645 200.082 9.56519C200.457 9.86392 200.768 10.2352 200.996 10.6568C201.224 11.0784 201.364 11.5417 201.409 12.0189C201.812 11.8684 202.243 11.8079 202.671 11.8416C203.1 11.8754 203.515 12.0026 203.89 12.2142C204.264 12.4259 204.587 12.7169 204.836 13.0668C205.086 13.4168 205.256 13.8171 205.334 14.2397C205.413 14.6624 205.398 15.0971 205.29 15.5132C205.182 15.9294 204.985 16.317 204.712 16.6487C204.439 16.9804 204.096 17.2483 203.708 17.4335C203.32 17.6186 202.896 17.7166 202.467 17.7205H194.06C193.469 17.6611 192.921 17.3847 192.521 16.9448C192.121 16.5049 191.899 15.9326 191.896 15.3383Z" fill="url(#paint1_linear)"/>
<g opacity="0.57">
<path opacity="0.57" d="M139.456 16.5527C139.21 16.641 138.965 16.7342 138.749 16.8299C138.543 16.9262 138.343 17.0351 138.151 17.1562C137.813 17.3619 137.502 17.6092 137.226 17.8922C136.985 18.1451 136.774 18.425 136.598 18.7263C136.436 19.014 136.304 19.3173 136.203 19.6316C136.198 19.6485 136.197 19.6665 136.201 19.6838C136.204 19.701 136.212 19.7171 136.224 19.7306C136.235 19.744 136.25 19.7543 136.266 19.7606C136.283 19.7669 136.301 19.7689 136.318 19.7666C136.645 19.7298 136.946 19.6733 137.258 19.6341C137.41 19.612 137.562 19.5826 137.714 19.5482C137.866 19.5139 138.023 19.4942 138.178 19.4574C138.484 19.374 138.811 19.3127 139.159 19.1974C139.331 19.1459 139.507 19.1017 139.691 19.0379L139.973 18.9422L140.273 18.8564C141.186 18.5547 142.116 18.3089 143.059 18.1204C144.028 17.9462 145.022 17.8505 145.777 17.7278C145.22 17.1145 144.188 16.5797 143.005 16.3417C141.823 16.1129 140.602 16.1855 139.456 16.5527Z" fill="#9589C3"/>
<path opacity="0.57" d="M137.842 20.4829C137.658 20.4354 137.472 20.3977 137.285 20.37C137.106 20.3529 136.932 20.348 136.76 20.348C136.434 20.3483 136.111 20.3946 135.798 20.4853C135.505 20.5707 135.222 20.6909 134.957 20.8435C134.697 21.0028 134.451 21.1833 134.221 21.3833C134.209 21.3953 134.2 21.4102 134.195 21.4266C134.19 21.443 134.189 21.4604 134.192 21.4772C134.196 21.494 134.203 21.5097 134.214 21.5229C134.225 21.536 134.239 21.5462 134.255 21.5526C134.808 21.7891 135.373 21.9955 135.948 22.1708C136.242 22.264 136.539 22.3474 136.841 22.4161C137.143 22.4848 137.474 22.583 137.798 22.6615C138.502 22.843 139.181 23.0368 139.733 23.2061C140.285 23.3754 140.714 23.5496 140.999 23.53C140.812 22.8413 140.453 22.212 139.954 21.7022C139.814 21.5568 139.664 21.423 139.502 21.3023C139.338 21.1761 139.167 21.059 138.99 20.9515C138.811 20.8533 138.624 20.765 138.43 20.6816C138.335 20.6424 138.237 20.6031 138.138 20.5688L137.842 20.4829Z" fill="#9589C3"/>
<path opacity="0.57" d="M134.069 23.5889C133.895 23.6281 133.728 23.6723 133.578 23.7238C133.429 23.7772 133.284 23.8387 133.142 23.9078C133.004 23.9765 132.869 24.0476 132.744 24.1261C132.619 24.2046 132.511 24.293 132.403 24.3715C132.295 24.4597 132.192 24.5539 132.094 24.6536C132.003 24.7542 131.915 24.8572 131.832 24.9652C131.662 25.1817 131.514 25.4142 131.39 25.6595C131.383 25.673 131.38 25.688 131.38 25.7032C131.38 25.7184 131.384 25.7333 131.392 25.7465C131.399 25.7597 131.41 25.7707 131.423 25.7787C131.436 25.7866 131.451 25.7912 131.466 25.792C132.013 25.8146 132.561 25.7916 133.105 25.7233C133.382 25.6889 133.662 25.6398 133.949 25.5761C134.236 25.5123 134.552 25.446 134.866 25.3602C135.543 25.1982 136.205 25.0216 136.779 24.9038C137.062 24.8204 137.312 24.8106 137.515 24.7542C137.696 24.724 137.87 24.666 138.033 24.5825C137.802 24.38 137.549 24.2031 137.28 24.055C136.974 23.886 136.651 23.7511 136.316 23.6526C135.584 23.4407 134.811 23.4187 134.069 23.5889Z" fill="#9589C3"/>
<path opacity="0.57" d="M132.535 27.4578C132.366 27.5657 132.209 27.6761 132.062 27.7914C131.915 27.9067 131.79 28.0368 131.667 28.1521C131.434 28.3862 131.23 28.6473 131.059 28.9298C130.743 29.4574 130.531 30.0402 130.433 30.6471C130.43 30.6641 130.431 30.6816 130.437 30.698C130.442 30.7144 130.452 30.7291 130.465 30.7407C130.477 30.7523 130.493 30.7604 130.51 30.7642C130.527 30.768 130.544 30.7674 130.561 30.7624C131.152 30.6054 131.727 30.3917 132.278 30.1246C132.886 29.8222 133.47 29.4728 134.024 29.0794L135.884 27.789C136.329 27.51 136.741 27.1808 137.11 26.8076C136.779 26.7014 136.437 26.6307 136.09 26.5967C135.696 26.5631 135.3 26.5697 134.908 26.6163C134.49 26.672 134.079 26.7707 133.681 26.9107C133.28 27.0497 132.896 27.2332 132.535 27.4578Z" fill="#9589C3"/>
<path opacity="0.57" d="M131.804 32.3081C131.425 32.7496 131.137 33.2622 130.958 33.8161C130.778 34.37 130.711 34.954 130.759 35.5342C130.761 35.5492 130.765 35.5636 130.773 35.5763C130.782 35.5889 130.793 35.5994 130.806 35.6067C130.819 35.614 130.834 35.6179 130.849 35.6181C130.864 35.6183 130.879 35.6147 130.892 35.6078C131.91 35.0632 132.791 34.2938 133.468 33.3581C133.902 32.7938 134.343 32.1829 134.694 31.6285C135.008 31.1799 135.256 30.6882 135.43 30.1687C134.766 30.2637 134.127 30.4897 133.551 30.8336C133.219 31.0272 132.904 31.2479 132.609 31.4935C132.319 31.7428 132.05 32.0152 131.804 32.3081Z" fill="#9589C3"/>
<path opacity="0.57" d="M134.95 19.033C134.746 19.4427 134.592 19.8426 134.417 20.1738C134.243 20.505 134.101 20.8337 133.927 21.1183C133.627 21.6719 133.3 22.2099 132.946 22.7302C132.936 22.7444 132.923 22.756 132.909 22.764C132.894 22.7721 132.877 22.7763 132.86 22.7763C132.843 22.7763 132.826 22.7721 132.811 22.764C132.796 22.756 132.783 22.7444 132.774 22.7302C132.611 22.4641 132.471 22.1842 132.357 21.8936C132.242 21.591 132.159 21.2768 132.112 20.9564C132.057 20.5855 132.057 20.2086 132.112 19.8377C132.139 19.6194 132.181 19.403 132.237 19.19C132.298 18.9692 132.377 18.7386 132.482 18.4908C132.935 17.3729 133.627 16.3679 134.511 15.5468C135.421 14.6979 136.5 14.038 137.454 13.7853C137.323 14.1779 137.159 14.5587 136.964 14.9236C136.763 15.3505 136.525 15.797 136.282 16.2533C135.84 17.1856 135.345 18.1351 134.95 19.033Z" fill="#9589C3"/>
<path opacity="0.57" d="M130.743 23.3239C130.772 23.5529 130.797 23.7688 130.816 23.9716C130.841 24.1801 130.865 24.3789 130.88 24.5678C130.907 24.9407 130.936 25.2915 130.936 25.6227C130.941 26.2497 130.9 26.8762 130.811 27.4971C130.809 27.514 130.803 27.5302 130.793 27.5441C130.783 27.558 130.77 27.5692 130.755 27.5768C130.739 27.5843 130.722 27.5879 130.705 27.5873C130.688 27.5867 130.672 27.5818 130.657 27.5731C129.622 26.896 128.748 26.0496 128.356 24.1212C128.153 22.9881 128.188 21.8251 128.459 20.7062C128.522 20.4117 128.604 20.1216 128.704 19.8377C128.798 19.5581 128.91 19.2852 129.04 19.0207C129.165 18.7607 129.3 18.5129 129.44 18.2847C129.592 18.0583 129.755 17.8405 129.931 17.6321C130.051 18.0222 130.134 18.4232 130.176 18.8294C130.25 19.2832 130.313 19.7764 130.365 20.2818C130.416 20.7871 130.485 21.3146 130.546 21.8274C130.608 22.3401 130.667 22.8406 130.743 23.3239Z" fill="#9589C3"/>
<path opacity="0.57" d="M129.221 28.996C129.835 30.0128 130.232 31.1454 130.387 32.3228C130.389 32.3372 130.388 32.352 130.383 32.3658C130.378 32.3796 130.369 32.3918 130.358 32.4014C130.347 32.411 130.334 32.4176 130.319 32.4206C130.305 32.4236 130.29 32.4228 130.276 32.4185C129.258 32.0971 128.363 31.6015 127.526 30.2301C127.061 29.4439 126.736 28.5832 126.565 27.686C126.479 27.2353 126.433 26.7781 126.425 26.3194C126.42 25.907 126.463 25.4953 126.553 25.0928C127.076 25.6053 127.532 26.1824 127.909 26.8101C128.154 27.1634 128.375 27.5314 128.591 27.8969C128.807 28.2625 129.03 28.6452 129.221 28.996Z" fill="#9589C3"/>
<path opacity="0.57" d="M129.322 34.6731C130.102 35.3975 130.691 36.3023 131.039 37.308C131.044 37.3204 131.045 37.3339 131.043 37.347C131.041 37.3601 131.036 37.3726 131.028 37.3831C131.02 37.3937 131.009 37.402 130.997 37.4073C130.985 37.4126 130.972 37.4147 130.958 37.4135C130.477 37.3763 130.004 37.2628 129.558 37.0774C129.02 36.8423 128.53 36.5096 128.113 36.096C127.549 35.5494 127.071 34.9208 126.695 34.2315C126.336 33.5884 126.101 32.8835 126.003 32.1535C126.595 32.4208 127.145 32.7701 127.639 33.1913C128.228 33.653 128.79 34.1477 129.322 34.6731Z" fill="#9589C3"/>
<path opacity="0.57" d="M133.968 46.145L134.199 46.0542L133.431 44.1038C132.593 42.0182 131.883 39.883 131.307 37.7104C130.887 36.0902 130.628 34.4328 130.532 32.762C130.487 31.9279 130.5 31.0919 130.568 30.2595C130.631 29.4278 130.757 28.6019 130.944 27.789C131.126 26.9751 131.377 26.1781 131.694 25.4068C132.014 24.6364 132.404 23.8973 132.86 23.1988C133.321 22.5077 133.857 21.87 134.459 21.2975C135.064 20.7289 135.738 20.2385 136.466 19.8377L136.343 19.6218C135.598 20.0334 134.908 20.5362 134.287 21.1184C133.672 21.7031 133.124 22.3548 132.653 23.0614C132.189 23.7709 131.791 24.5215 131.464 25.3038C131.144 26.0878 130.888 26.8969 130.701 27.7228C130.511 28.5478 130.384 29.386 130.321 30.2301C130.249 31.0738 130.237 31.9215 130.284 32.7669C130.38 34.4536 130.642 36.1267 131.066 37.7619C131.643 39.9452 132.356 42.0903 133.201 44.1847L133.968 46.145Z" fill="#9589C3"/>
</g>
<g opacity="0.78">
<path opacity="0.78" d="M172.599 81.6547H171.264V80.2563H172.599V81.6547ZM175.253 79.4295H173.916V81.6547H175.253V79.4295ZM177.907 78.4874H176.57V81.6596H177.907V78.4874ZM180.561 77.4815H179.237V81.6522H180.573L180.561 77.4815Z" fill="#6E6AC0"/>
<path opacity="0.78" d="M179.894 74.5327C179.779 74.5327 179.668 74.5784 179.587 74.6598C179.505 74.7413 179.46 74.8517 179.46 74.9669C179.458 74.9849 179.458 75.0029 179.46 75.0209L177.534 75.9777C177.482 75.9269 177.419 75.89 177.349 75.8703C177.279 75.8507 177.206 75.849 177.135 75.8654C177.065 75.8818 177 75.9158 176.946 75.9642C176.892 76.0125 176.851 76.0737 176.827 76.1421H174.985C174.951 76.0456 174.884 75.9644 174.796 75.9128C174.708 75.8612 174.604 75.8425 174.503 75.8602C174.403 75.8779 174.312 75.9307 174.246 76.0092C174.181 76.0878 174.145 76.187 174.146 76.2893C174.145 76.3121 174.145 76.3351 174.146 76.3579L172.208 77.4252C172.132 77.3631 172.037 77.329 171.938 77.3285C171.84 77.328 171.744 77.3611 171.667 77.4223C171.59 77.4835 171.537 77.5692 171.515 77.6651C171.493 77.7611 171.505 77.8615 171.548 77.9499C171.591 78.0383 171.663 78.1093 171.752 78.1511C171.842 78.1929 171.942 78.2031 172.038 78.18C172.133 78.1568 172.218 78.1017 172.278 78.0238C172.338 77.9459 172.37 77.8498 172.368 77.7514C172.368 77.7269 172.368 77.7024 172.368 77.6779L174.301 76.6106C174.381 76.6852 174.486 76.7272 174.595 76.7284C174.686 76.7278 174.775 76.6985 174.848 76.6448C174.922 76.5911 174.977 76.5156 175.005 76.4291H176.84C176.872 76.5263 176.938 76.6088 177.025 76.662C177.113 76.7151 177.217 76.7353 177.318 76.7191C177.419 76.7029 177.511 76.6513 177.577 76.5734C177.644 76.4956 177.681 76.3966 177.681 76.2942C177.682 76.2745 177.682 76.2549 177.681 76.2353L179.604 75.2809C179.654 75.3327 179.717 75.3713 179.785 75.393C179.854 75.4148 179.927 75.4191 179.998 75.4057C180.068 75.3922 180.135 75.3613 180.191 75.3158C180.247 75.2703 180.29 75.2116 180.318 75.145C180.345 75.0784 180.356 75.006 180.348 74.9343C180.341 74.8626 180.316 74.7939 180.275 74.7344C180.235 74.6749 180.18 74.6264 180.116 74.5933C180.052 74.5602 179.98 74.5436 179.908 74.5449L179.894 74.5327Z" fill="#6E6AC0"/>
</g>
<path d="M102.373 28.6231C102.638 29.225 102.76 29.8798 102.731 30.5368L106.3 30.6864C106.347 29.5785 106.16 28.4731 105.75 27.4428C105.339 26.4126 104.716 25.4807 103.92 24.7085C103.124 23.9362 102.174 23.3411 101.132 22.9621C100.09 22.5831 98.9799 22.4288 97.874 22.5094L98.134 26.0717C99.0173 26.0084 99.8986 26.2195 100.657 26.6762C101.416 27.1329 102.015 27.8129 102.373 28.6231Z" fill="#6E6AC0"/>
<path d="M106.3 30.6864L102.731 30.5368C102.694 31.3613 102.419 32.1576 101.94 32.8297C101.461 33.5018 100.798 34.0212 100.031 34.3254C99.2637 34.6296 98.4249 34.7056 97.6155 34.5443C96.8061 34.383 96.0605 33.9913 95.4685 33.4162C94.8764 32.8412 94.4631 32.1073 94.2783 31.3028C94.0934 30.4984 94.1449 29.6577 94.4265 28.8818C94.7081 28.1059 95.2078 27.428 95.8655 26.9294C96.5233 26.4309 97.3111 26.133 98.1341 26.0717L97.8741 22.5094C96.361 22.6191 94.9119 23.1642 93.7015 24.0789C92.4912 24.9937 91.5711 26.239 91.0524 27.6648C90.5337 29.0906 90.4383 30.636 90.7779 32.1148C91.1175 33.5936 91.8775 34.9425 92.9663 35.9991C94.055 37.0557 95.4261 37.7748 96.9143 38.0697C98.4024 38.3646 99.9441 38.2227 101.353 37.6612C102.763 37.0996 103.98 36.1424 104.857 34.9049C105.735 33.6673 106.236 32.2023 106.3 30.6864Z" fill="#BDC6EB"/>
<path d="M94.2019 93.4701C100.651 93.4701 105.878 92.5342 105.878 91.3798C105.878 90.2254 100.651 89.2896 94.2019 89.2896C87.7531 89.2896 82.5254 90.2254 82.5254 91.3798C82.5254 92.5342 87.7531 93.4701 94.2019 93.4701Z" fill="url(#paint2_linear)"/>
<path d="M47.3263 84.427C47.3263 85.0698 43.4824 85.5924 38.7407 85.5924C33.999 85.5924 30.155 85.0698 30.155 84.427C30.155 83.7843 33.999 83.2617 38.7407 83.2617C43.4824 83.2617 47.3263 83.7843 47.3263 84.427Z" fill="url(#paint3_linear)"/>
<g opacity="0.68">
<path opacity="0.68" d="M51.5852 31.1673C52.7152 32.0581 54.0778 32.6049 55.5101 32.7423C55.5281 32.7439 55.5462 32.7411 55.5629 32.734C55.5795 32.7269 55.5942 32.7159 55.6056 32.7019C55.617 32.6878 55.6247 32.6712 55.6282 32.6534C55.6316 32.6356 55.6307 32.6173 55.6254 32.6C55.1809 31.2058 54.2872 29.998 53.084 29.1653C51.5484 28.0172 49.4045 27.1585 48.0332 27.2615C48.59 28.4661 50.0938 30.0534 51.5852 31.1673Z" fill="#A8A7DB"/>
<path opacity="0.68" d="M55.8829 30.8483C56.0067 32.2405 56.5306 33.5672 57.3915 34.6682C57.4023 34.6816 57.4163 34.6922 57.4322 34.699C57.448 34.7057 57.4653 34.7085 57.4825 34.7071C57.4997 34.7056 57.5163 34.7 57.5308 34.6906C57.5453 34.6813 57.5573 34.6685 57.5657 34.6535C58.2396 33.4184 58.4895 31.9963 58.2771 30.6054C58.0636 28.7605 57.2591 26.5991 56.2925 25.5319C55.775 26.7856 55.6646 29.0255 55.8829 30.8483Z" fill="#A8A7DB"/>
<path opacity="0.68" d="M59.6656 35.3355C59.6254 36.5846 59.9548 37.8179 60.6125 38.8806C60.621 38.8937 60.6326 38.9046 60.6463 38.9121C60.66 38.9196 60.6754 38.9235 60.691 38.9235C60.7067 38.9235 60.722 38.9196 60.7358 38.9121C60.7495 38.9046 60.7611 38.8937 60.7695 38.8806C61.4889 37.8524 61.8563 36.6191 61.817 35.3649C61.8317 33.7114 61.3656 31.7364 60.6616 30.7036C60.0336 31.7389 59.6706 33.6942 59.6656 35.3355Z" fill="#A8A7DB"/>
<path opacity="0.68" d="M62.8497 39.0204C62.8165 39.7725 62.8883 40.5256 63.0631 41.2579C63.2277 41.8718 63.4683 42.4627 63.7794 43.0169C63.789 43.0316 63.8021 43.0436 63.8175 43.052C63.8329 43.0603 63.8502 43.0647 63.8677 43.0647C63.8852 43.0647 63.9025 43.0603 63.9179 43.052C63.9333 43.0436 63.9464 43.0316 63.956 43.0169C64.7983 41.8946 65.2536 40.5292 65.2536 39.1259C65.3199 37.2785 64.8783 35.0509 64.1253 33.8757C63.3918 35.0141 62.9086 37.1878 62.8497 39.0204Z" fill="#A8A7DB"/>
<path opacity="0.68" d="M65.9601 43.6253C65.8396 44.8451 66.0819 46.0732 66.6568 47.1557C66.6637 47.1692 66.6739 47.1808 66.6865 47.1894C66.6991 47.1979 66.7136 47.2032 66.7288 47.2046C66.7439 47.2061 66.7592 47.2037 66.7732 47.1978C66.7872 47.1918 66.7994 47.1824 66.8089 47.1704C67.5802 46.2118 68.0208 45.0293 68.0648 43.7995C68.117 42.9549 68.0725 42.1071 67.9323 41.2726C67.8244 40.5385 67.5939 39.8277 67.2504 39.17C66.5636 40.1342 66.0729 42.0184 65.9601 43.6253Z" fill="#A8A7DB"/>
<path opacity="0.68" d="M55.0489 34.0646C56.4039 34.3756 57.6201 35.1208 58.5126 36.1868C58.524 36.2001 58.5318 36.216 58.5355 36.233C58.5392 36.2501 58.5386 36.2679 58.5337 36.2846C58.5288 36.3014 58.5199 36.3167 58.5076 36.3292C58.4954 36.3417 58.4802 36.3509 58.4636 36.3561C57.1386 36.7532 55.7263 36.7532 54.4013 36.3561C52.667 35.8924 50.7585 34.9748 49.8828 34.0671C50.6521 33.8089 51.4609 33.6885 52.2721 33.7114C53.2087 33.7152 54.1412 33.8338 55.0489 34.0646Z" fill="#A8A7DB"/>
<path opacity="0.68" d="M58.2526 38.4463C59.6176 38.7102 60.8603 39.4092 61.7948 40.4385C61.8068 40.4514 61.8154 40.4672 61.8197 40.4843C61.824 40.5014 61.824 40.5193 61.8196 40.5364C61.8152 40.5534 61.8066 40.5692 61.7945 40.5821C61.7825 40.595 61.7674 40.6046 61.7507 40.6102C60.4396 41.0581 59.0252 41.1076 57.686 40.7525C55.9345 40.3428 53.9794 39.4817 53.0645 38.5837C53.8326 38.309 54.6428 38.1704 55.4586 38.174C56.3975 38.152 57.3357 38.2434 58.2526 38.4463Z" fill="#A8A7DB"/>
<path opacity="0.68" d="M61.7654 42.617C62.9318 42.8836 63.9803 43.5215 64.7532 44.4349C64.7628 44.4463 64.7694 44.4599 64.7725 44.4745C64.7755 44.489 64.775 44.5041 64.7709 44.5184C64.7668 44.5327 64.7592 44.5458 64.7488 44.5565C64.7385 44.5672 64.7257 44.5751 64.7115 44.5797C63.5703 44.9257 62.3522 44.9257 61.211 44.5797C59.7171 44.1724 58.0539 43.353 57.2861 42.5434C58.3728 42.1779 60.2641 42.2122 61.7654 42.617Z" fill="#A8A7DB"/>
<path opacity="0.68" d="M64.9644 47.0085C66.0048 47.2874 66.9277 47.8938 67.5965 48.7381C67.6046 48.749 67.6099 48.7616 67.612 48.7749C67.6141 48.7883 67.6129 48.8019 67.6086 48.8147C67.6042 48.8275 67.5968 48.8391 67.5871 48.8484C67.5773 48.8577 67.5654 48.8645 67.5524 48.8682C66.515 49.1457 65.4186 49.1081 64.4027 48.7602C63.0682 48.348 61.6013 47.563 60.939 46.7975C61.9251 46.4909 63.6201 46.5939 64.9644 47.0085Z" fill="#A8A7DB"/>
<path opacity="0.68" d="M70.898 54.268L70.5325 53.635C69.6715 52.1458 68.7639 50.6566 67.8342 49.219C66.0754 46.459 64.1546 43.6695 61.9469 40.6911C59.7661 37.7471 57.6541 35.1049 55.4905 32.5951L55.6229 32.4798C57.7914 34.9994 59.906 37.6514 62.0892 40.593C64.2969 43.5738 66.2176 46.3657 67.9765 49.1306C68.9062 50.5781 69.8138 52.0747 70.6748 53.5614C70.7975 53.7724 70.9201 53.9834 71.0403 54.1968L70.898 54.268Z" fill="#B2C0E8"/>
</g>
<g opacity="0.49">
<path opacity="0.49" d="M173.536 34.9405C173.237 36.4007 173.366 37.916 173.906 39.305C173.913 39.3225 173.923 39.3382 173.938 39.3505C173.952 39.3628 173.969 39.3714 173.987 39.3755C174.005 39.3797 174.024 39.3792 174.042 39.3742C174.06 39.3691 174.077 39.3597 174.09 39.3467C175.174 38.2842 175.875 36.8927 176.084 35.3895C176.433 33.4268 176.224 31.0348 175.496 29.8204C174.642 30.8925 173.872 33.0367 173.536 34.9405Z" fill="#9589C3"/>
<path opacity="0.49" d="M175.836 38.7751C174.603 39.5421 173.618 40.6498 173.001 41.9645C172.993 41.9808 172.989 41.9988 172.99 42.0169C172.991 42.035 172.997 42.0525 173.006 42.0679C173.016 42.0833 173.029 42.0961 173.045 42.105C173.06 42.1139 173.078 42.1188 173.096 42.119C174.421 42.1362 175.633 41.908 177.178 40.8924C178.787 39.835 180.416 38.0784 180.953 36.6849C179.55 36.7806 177.423 37.7226 175.836 38.7751Z" fill="#9589C3"/>
<path opacity="0.49" d="M173.442 44.3859C172.266 44.9313 171.276 45.811 170.597 46.9153C170.588 46.9292 170.584 46.945 170.583 46.9612C170.582 46.9773 170.586 46.9934 170.593 47.008C170.6 47.0226 170.61 47.0352 170.623 47.0447C170.637 47.0542 170.652 47.0603 170.668 47.0625C171.956 47.2504 173.27 47.0163 174.414 46.3952C175.954 45.6347 177.566 44.2829 178.199 43.1494C176.948 43.039 174.966 43.6131 173.442 44.3859Z" fill="#9589C3"/>
<path opacity="0.49" d="M171.512 49.0473C170.803 49.3683 170.143 49.7861 169.549 50.2886C169.055 50.7254 168.62 51.2243 168.254 51.7729C168.244 51.7879 168.238 51.8051 168.236 51.8231C168.234 51.841 168.237 51.8591 168.244 51.8757C168.251 51.8923 168.262 51.9069 168.277 51.918C168.291 51.9292 168.307 51.9367 168.325 51.9398C169.758 52.1987 171.237 51.9843 172.537 51.3289C174.279 50.5315 176.141 49.0816 176.877 47.8328C175.478 47.6783 173.241 48.245 171.512 49.0473Z" fill="#9589C3"/>
<path opacity="0.49" d="M168.688 54.0766C167.503 54.5349 166.48 55.3318 165.745 56.3681C165.735 56.3809 165.729 56.3958 165.727 56.4116C165.725 56.4273 165.727 56.4433 165.732 56.4581C165.738 56.473 165.747 56.4862 165.759 56.4966C165.771 56.507 165.786 56.5142 165.801 56.5177C167.05 56.7857 168.352 56.642 169.512 56.108C170.32 55.7626 171.085 55.3264 171.794 54.8077C172.423 54.3648 172.973 53.8191 173.42 53.1934C172.213 53.007 170.236 53.4314 168.688 54.0766Z" fill="#9589C3"/>
<path opacity="0.49" d="M172.465 39.5013C172.813 40.9021 172.692 42.3781 172.122 43.7039C172.115 43.7202 172.103 43.7344 172.089 43.7454C172.075 43.7564 172.059 43.7638 172.041 43.7669C172.023 43.77 172.005 43.7688 171.988 43.7634C171.971 43.758 171.956 43.7485 171.943 43.7358C170.955 42.6934 170.295 41.384 170.044 39.9699C169.667 38.1446 169.627 35.9513 170.059 34.7123C170.656 35.3071 171.145 36.0011 171.504 36.7633C171.936 37.6327 172.259 38.5524 172.465 39.5013Z" fill="#9589C3"/>
<path opacity="0.49" d="M169.9 44.516C170.292 45.9041 170.224 47.3821 169.706 48.7284C169.7 48.7452 169.689 48.7602 169.675 48.7719C169.661 48.7837 169.645 48.7919 169.627 48.7957C169.609 48.7996 169.591 48.7991 169.574 48.7942C169.556 48.7893 169.54 48.7801 169.527 48.7676C168.5 47.7606 167.794 46.4727 167.496 45.0655C167.059 43.25 166.947 41.0371 167.354 39.7687C167.965 40.3535 168.471 41.04 168.848 41.7977C169.308 42.6575 169.661 43.5704 169.9 44.516Z" fill="#9589C3"/>
<path opacity="0.49" d="M167.675 49.717C167.97 50.9232 167.867 52.1923 167.383 53.3357C167.377 53.3501 167.368 53.3628 167.356 53.3725C167.343 53.3822 167.329 53.3887 167.313 53.3914C167.298 53.3941 167.282 53.3929 167.267 53.3879C167.253 53.3829 167.239 53.3742 167.229 53.3627C166.374 52.4684 165.805 51.3404 165.593 50.1218C165.271 48.5468 165.247 46.6282 165.651 45.5414C166.51 46.3633 167.347 48.1322 167.675 49.717Z" fill="#9589C3"/>
<path opacity="0.49" d="M165.097 54.7292C165.324 55.8244 165.191 56.9636 164.719 57.9775C164.713 57.99 164.704 58.001 164.693 58.0093C164.682 58.0177 164.669 58.0231 164.655 58.0253C164.641 58.0275 164.627 58.0263 164.614 58.0218C164.601 58.0173 164.589 58.0097 164.579 57.9995C163.838 57.1673 163.361 56.133 163.21 55.0285C162.965 53.5982 163.014 51.8711 163.412 50.902C164.157 51.6724 164.852 53.294 165.097 54.7292Z" fill="#9589C3"/>
<path opacity="0.49" d="M161.282 63.7159L161.14 63.6202C161.28 63.4092 161.42 63.1982 161.557 62.9872C162.538 61.4907 163.495 59.9573 164.4 58.424C166.139 55.507 167.835 52.4206 169.552 48.9909C171.269 45.6003 172.741 42.4061 174.048 39.2241L174.205 39.2903C172.883 42.4797 171.411 45.669 169.704 49.0669C167.969 52.5016 166.269 55.5904 164.552 58.5099C163.645 60.0457 162.686 61.5839 161.704 63.0804L161.282 63.7159Z" fill="#9196CC"/>
</g>
<path d="M206.205 36.4125L201.493 37.676L202.641 38.8242L199.933 41.5327L195.581 37.178L190.373 42.3864L191.526 43.542L195.581 39.4841L199.933 43.8388L203.794 39.9773L204.942 41.1254L206.205 36.4125Z" fill="#ABB9E0"/>
<path d="M21.182 36.0004L21.393 36.5401L20.8877 37.0308L20.3578 36.7855L19.6881 37.0799L19.5042 37.627L18.805 37.6736L18.5597 37.1535L17.8582 36.9498L17.3676 37.2491L16.8034 36.8345L16.9407 36.2727L16.536 35.6667L15.9644 35.5784L15.7976 34.8988L16.2661 34.5578L16.3446 33.8218L15.9644 33.3876L16.2735 32.7595L16.85 32.7988L17.3774 32.2934L17.3651 31.7144L18.0053 31.4347L18.4224 31.8346L19.1583 31.7855L19.5213 31.3366L20.191 31.5304L20.2548 32.1069L20.8435 32.5387L21.4102 32.4259L21.7978 33.0073L21.4764 33.498L21.6506 34.207L22.1559 34.4842L22.0799 35.181L21.5255 35.3404L21.182 36.0004ZM20.0929 33.3949C19.8761 33.1687 19.5971 33.0118 19.2912 32.9442C18.9852 32.8765 18.6661 32.901 18.3741 33.0147C18.0821 33.1283 17.8304 33.326 17.6507 33.5827C17.471 33.8394 17.3714 34.1437 17.3646 34.4569C17.3577 34.7702 17.4439 35.0785 17.6122 35.3428C17.7805 35.6072 18.0233 35.8157 18.3101 35.942C18.5968 36.0683 18.9145 36.1068 19.2231 36.0526C19.5317 35.9983 19.8173 35.8538 20.0438 35.6373C20.1947 35.4935 20.3157 35.3214 20.3998 35.1307C20.484 34.9401 20.5296 34.7347 20.5342 34.5263C20.5387 34.318 20.5021 34.1108 20.4264 33.9166C20.3506 33.7224 20.2373 33.5452 20.0929 33.3949Z" fill="#ABB9E0"/>
<path d="M85.5129 24.4843H67.1445V81.6547H85.5129V24.4843Z" fill="url(#paint4_linear)"/>
<g style="mix-blend-mode:multiply" opacity="0.3">
<path d="M85.5105 40.7771H67.1445V40.3453H85.5105V40.7771ZM85.5105 35.4484H67.1445V35.0166H85.5105V35.4484ZM85.5105 30.1197H67.1445V29.6879H85.5105V30.1197ZM85.5105 45.5169H67.1445V45.9487H85.5105V45.5169ZM85.5105 50.691H67.1445V51.1228H85.5105V50.691ZM85.5105 55.8627H67.1445V56.2945H85.5105V55.8627ZM85.5105 61.0368H67.1445V61.4661H85.5105V61.0368ZM85.5105 66.2085H67.1445V66.6403H85.5105V66.2085ZM85.5105 71.3801H67.1445V71.8119H85.5105V71.3801ZM85.5105 76.5542H67.1445V76.986H85.5105V76.5542Z" fill="#D5DBEF"/>
</g>
<path d="M83.6366 23.8268C82.6553 23.6846 81.8826 23.5545 81.7747 23.5521C80.8695 23.5324 78.8507 24.1531 78.0608 24.3985V24.369C78.7967 24.0869 79.589 23.3264 80.5874 22.0016C81.3531 22.0411 82.108 22.2 82.8246 22.4726C83.0542 22.9474 83.326 23.4006 83.6366 23.8268Z" fill="#7987C2"/>
<path d="M82.8099 18.3412C82.8099 18.4246 82.5818 18.405 82.5008 18.405H82.4223C82.3432 18.3789 82.2603 18.3665 82.177 18.3682C82.1226 18.3682 82.0683 18.3739 82.0151 18.3853C81.684 18.3584 81.343 18.3166 80.7567 18.3166C79.8564 18.3166 78.9684 18.4074 78.0706 18.4074C77.6921 18.4109 77.3142 18.3772 76.9422 18.3068C76.8809 17.7205 76.7533 17.2887 76.4516 17.2298C75.9438 17.1292 75.5955 16.7072 75.2251 16.2485C75.8899 16.6729 76.8613 17.4138 80.0012 17.4138C80.4795 17.4138 80.9554 17.3917 81.4337 17.3917C82.0127 17.3991 82.8099 17.3353 82.8099 18.3412Z" fill="#F8D1B5"/>
<path d="M72.5702 18.2819L72.4822 18.1989H72.6044L72.5702 18.2819ZM72.492 18.2086H72.387H72.492Z" fill="#7D95EF"/>
<path d="M71.2455 17.8892L71.033 17.8355C71.039 17.813 71.0439 17.7901 71.0476 17.7671H71.1575L71.2626 17.7964C71.2577 17.8355 71.2528 17.8672 71.2455 17.8892Z" fill="#7D95EF"/>
<path d="M73.8071 13.8049C73.8071 13.7853 73.8071 13.7657 73.8071 13.7485V13.7019L74.023 13.6553L74.0402 13.7583L73.8071 13.8049Z" fill="#7D95EF"/>
<path d="M73.3253 13.8093H73.1055L73.103 13.6725H73.3228L73.3253 13.8093Z" fill="#7D95EF"/>
<path d="M72.4927 18.2062C72.3921 18.481 72.2817 18.768 72.1542 19.0673C71.4722 20.7185 70.4567 22.664 69.4338 23.8686C69.3128 24.01 69.1622 24.1232 68.9926 24.1999C68.823 24.2767 68.6387 24.3151 68.4525 24.3126H67.6872C67.6677 24.3125 67.6487 24.3061 67.6331 24.2944C67.6175 24.2826 67.6061 24.2662 67.6006 24.2475C67.5951 24.2287 67.5958 24.2087 67.6025 24.1904C67.6093 24.1721 67.6218 24.1564 67.6381 24.1458C69.6128 22.767 70.4174 21.1502 70.9129 18.9937C70.9939 18.6405 71.0675 18.2749 71.1362 17.8897C71.5824 18.0192 72.0352 18.1249 72.4927 18.2062Z" fill="#F8D1B5"/>
<path d="M73.2086 18.638C72.8995 18.8691 72.5364 19.0169 72.1538 19.0674C72.2814 18.7681 72.3991 18.481 72.4923 18.2062L73.0663 18.3289C73.1129 18.427 73.1644 18.5301 73.2086 18.638Z" fill="#45409C"/>
<path d="M74.1899 10.6916C74.1629 10.6769 74.1359 10.6745 74.1163 10.6646C73.7722 10.4732 73.3885 10.3641 72.9952 10.3457H72.9339C72.8824 10.3457 72.8382 10.3457 72.7867 10.3457C71.1603 10.591 71.9012 12.1734 70.7948 12.5537C70.1178 12.7991 69.6125 13.3511 69.6125 14.0257C69.6125 14.3275 69.7597 14.7446 69.7597 15.1886C69.7597 16.3049 68.9084 16.3245 68.9084 17.1219C68.9084 17.6959 69.9142 18.6135 70.9175 18.9521C70.9984 18.5988 71.072 18.2332 71.1407 17.848C71.3443 16.7465 72.2078 15.2009 73.2283 15.0022C73.2102 14.9442 73.2019 14.8837 73.2037 14.8231C73.2037 14.5458 73.2184 14.2662 73.2184 13.9889C73.2184 13.9227 73.2184 13.8564 73.2184 13.7878C72.9999 13.735 72.7999 13.6239 72.6395 13.4664C73.4049 12.9512 73.9519 12.1416 74.05 11.4497C74.2749 11.5558 74.4629 11.7268 74.5899 11.9406C74.7168 12.1544 74.7769 12.4013 74.7624 12.6496C74.7479 12.8978 74.6594 13.1361 74.5084 13.3337C74.3575 13.5312 74.1508 13.6791 73.9151 13.7583C73.9961 14.1975 74.077 14.6391 74.1751 15.0807C74.1812 15.1098 74.1812 15.1399 74.1751 15.169C74.2846 15.2293 74.3881 15.3 74.4842 15.38C74.5226 15.1064 74.616 14.8435 74.759 14.6072C75.1784 14.038 75.4728 13.6675 75.4728 13.0076C75.4728 12.0459 75.1882 11.4227 74.3542 10.7824C74.3002 10.775 74.2463 10.726 74.1899 10.6916Z" fill="#45409C"/>
<path d="M77.1629 21.1208C76.3131 21.4469 75.4438 21.7197 74.5602 21.9378C74.0696 20.8681 73.6624 19.6415 73.2085 18.638C73.1644 18.5301 73.1129 18.4271 73.0663 18.3289L72.4923 18.2063C72.0361 18.1183 71.5849 18.0061 71.1406 17.8701C71.3442 16.7686 72.2077 15.223 73.2282 15.0243C73.2485 15.1007 73.2854 15.1718 73.3363 15.2324C73.3872 15.2931 73.4507 15.3418 73.5225 15.3751C73.6202 15.4185 73.7234 15.4482 73.8292 15.4634C73.8703 15.4711 73.9126 15.47 73.9532 15.4601C73.9939 15.4503 74.032 15.4318 74.0649 15.406C74.0979 15.3803 74.125 15.3478 74.1444 15.3107C74.1638 15.2736 74.1751 15.2329 74.1775 15.1911C74.287 15.2514 74.3905 15.3221 74.4866 15.4021C74.7674 15.6559 75.0214 15.9379 75.2446 16.2436C75.6076 16.7048 75.956 17.1268 76.4711 17.2249C76.7704 17.2838 76.8979 17.7156 76.9617 18.3019C77.0427 19.1361 77.0059 20.2818 77.1629 21.1208Z" fill="#F04B72"/>
<path d="M73.9128 13.7804C73.9938 14.2196 74.0747 14.6612 74.1728 15.1028C74.1788 15.1319 74.1788 15.162 74.1728 15.1911C74.1704 15.2329 74.1591 15.2737 74.1397 15.3107C74.1203 15.3478 74.0932 15.3803 74.0602 15.4061C74.0273 15.4318 73.9892 15.4503 73.9485 15.4602C73.9079 15.4701 73.8656 15.4712 73.8245 15.4634C73.7187 15.4482 73.6155 15.4185 73.5179 15.3751C73.4202 15.3257 73.3385 15.2498 73.2821 15.1561C73.2257 15.0623 73.1969 14.9546 73.199 14.8452C73.199 14.568 73.2137 14.2883 73.2137 14.011C73.2137 13.9448 73.2137 13.8786 73.2137 13.8099C72.9952 13.7571 72.7951 13.6461 72.6348 13.4885C73.4001 12.9733 73.9471 12.1637 74.0453 11.4718C74.2701 11.5779 74.4581 11.7489 74.5851 11.9627C74.712 12.1765 74.7721 12.4235 74.7576 12.6717C74.7431 12.92 74.6546 13.1582 74.5037 13.3558C74.3527 13.5534 74.1461 13.7013 73.9103 13.7804H73.9128Z" fill="#F8D1B5"/>
<path d="M84.5636 23.0933C83.499 20.2008 83.212 18.6552 82.4344 18.4025H82.4221C82.343 18.3765 82.2601 18.364 82.1768 18.3657C82.1224 18.3657 82.0681 18.3715 82.0149 18.3829C80.8276 18.5914 78.3844 20.9246 77.4007 21.8765C77.275 21.6411 77.1919 21.3852 77.1554 21.1208C76.3056 21.4469 75.4364 21.7197 74.5527 21.9378C75.2126 23.3534 76.0466 24.4966 77.4056 24.4966C77.63 24.4952 77.8521 24.4519 78.0606 24.3691C78.7965 24.0869 79.5888 23.3264 80.5872 22.0016C80.9732 21.4913 81.3918 20.8959 81.8432 20.2155C82.0566 20.7307 82.4098 21.6311 82.8244 22.4726C83.0517 22.9472 83.3209 23.4004 83.629 23.8269C83.9602 23.7018 84.3428 23.5423 84.6715 23.4024C84.6372 23.2871 84.6004 23.1939 84.5636 23.0933Z" fill="#7987C2"/>
<path d="M85.111 23.7287C85.0104 23.7287 84.9049 23.7287 84.8068 23.7287C84.7626 23.6134 84.7185 23.503 84.6792 23.3926C84.3505 23.5324 83.9678 23.6919 83.644 23.8219C83.9384 24.2071 84.2426 24.4574 84.5296 24.4574C84.8166 24.4574 85.4789 24.2734 85.6138 24.0722C85.6288 24.0514 85.6374 24.0267 85.6384 24.001C85.6384 23.8072 85.3268 23.7287 85.111 23.7287Z" fill="#262697"/>
<path d="M86.1754 23.3068C85.6317 23.2987 85.0908 23.227 84.5637 23.0933C84.6398 23.3019 84.7207 23.5153 84.809 23.7386C84.9071 23.7386 85.0126 23.7386 85.1132 23.7386C85.3291 23.7386 85.6406 23.8171 85.6406 24.0207C85.6396 24.0463 85.6311 24.0711 85.6161 24.0918C86.1803 24.1532 86.7077 24.2022 87.1124 24.2121H87.1909C87.1909 23.8759 87.1639 23.5423 87.1541 23.2062C86.8355 23.2927 86.5049 23.3267 86.1754 23.3068Z" fill="#7987C2"/>
<path d="M87.878 22.4947C87.4879 22.4947 87.7136 22.9363 87.4192 23.0884C87.3332 23.1315 87.2437 23.1676 87.1519 23.1963C87.1519 23.5325 87.1788 23.8661 87.1887 24.2022C88.1429 24.2145 88.1846 24.0084 88.2018 23.3754C88.2091 23.0859 88.165 22.502 87.878 22.4947Z" fill="#262697"/>
<path d="M162.259 22.1341C162.259 17.7475 158.702 14.7495 154.316 14.7495C149.93 14.7495 146.366 17.7475 146.366 22.1341C146.385 23.9813 146.986 25.7755 148.083 27.2616C149.728 29.5676 150.885 32.1858 151.483 34.9553L151.888 36.7585H156.754L157.159 34.9553C157.758 32.186 158.916 29.5681 160.561 27.2616C161.652 25.7731 162.246 23.9791 162.259 22.1341Z" fill="url(#paint5_linear)"/>
<path d="M157.272 33.9052H151.363C151.233 33.9052 151.108 33.9569 151.016 34.0489C150.924 34.141 150.872 34.2658 150.872 34.3959V35.0804H157.772V34.4008C157.773 34.3351 157.761 34.27 157.736 34.2092C157.711 34.1485 157.674 34.0933 157.627 34.0471C157.58 34.0009 157.525 33.9645 157.464 33.9402C157.403 33.9158 157.338 33.9039 157.272 33.9052Z" fill="url(#paint6_linear)"/>
<path d="M149.287 41.4419C148.357 41.4419 147.465 41.8115 146.807 42.4694C146.149 43.1274 145.78 44.0197 145.78 44.9502V84.7509H142.058V44.9551C142.058 44.4942 142.148 44.0376 142.324 43.6116C142.5 43.1855 142.758 42.7983 143.083 42.472C143.409 42.1458 143.795 41.8869 144.221 41.7101C144.647 41.5334 145.103 41.4422 145.564 41.4419H149.287Z" fill="#ABB9E0"/>
<path d="M167.273 44.9551V82.5649C167.273 82.8522 167.217 83.1366 167.107 83.402C166.997 83.6674 166.836 83.9085 166.632 84.1115C166.429 84.3145 166.188 84.4755 165.922 84.5852C165.657 84.6949 165.372 84.7512 165.085 84.7509H145.78V44.9551C145.78 44.0246 146.149 43.1323 146.807 42.4744C147.465 41.8164 148.357 41.4468 149.288 41.4468H163.761C164.222 41.4462 164.678 41.5364 165.105 41.7125C165.531 41.8885 165.918 42.1468 166.244 42.4726C166.57 42.7985 166.829 43.1854 167.006 43.6114C167.182 44.0374 167.273 44.494 167.273 44.9551Z" fill="#6E6AC0"/>
<path d="M160.064 52.8132H152.989C152.952 52.8142 152.914 52.8065 152.88 52.7909C152.846 52.7752 152.816 52.7518 152.792 52.7227C152.769 52.6935 152.752 52.6593 152.743 52.6227C152.735 52.586 152.735 52.548 152.744 52.5114C152.892 51.6134 153.355 50.7973 154.049 50.2085C154.743 49.6197 155.624 49.2965 156.534 49.2965C157.444 49.2965 158.325 49.6197 159.019 50.2085C159.713 50.7973 160.175 51.6134 160.324 52.5114C160.333 52.5492 160.333 52.5887 160.324 52.6265C160.315 52.6644 160.297 52.6995 160.271 52.7289C160.246 52.7584 160.214 52.7814 160.178 52.7961C160.142 52.8107 160.103 52.8166 160.064 52.8132Z" fill="#B0C0E3"/>
<path d="M157.589 52.8009V52.8132H155.903V52.8009C155.901 52.6255 155.955 52.4538 156.056 52.3102L155.44 51.3289C155.427 51.3091 155.422 51.2854 155.426 51.2623C155.43 51.2391 155.442 51.2182 155.46 51.2033C155.478 51.1885 155.501 51.1809 155.525 51.1818C155.548 51.1828 155.57 51.1924 155.587 51.2087L156.45 52.0109C156.578 51.9617 156.715 51.9443 156.851 51.9604C156.986 51.9765 157.116 52.0255 157.228 52.1032C157.34 52.1809 157.432 52.2848 157.495 52.406C157.558 52.5272 157.59 52.6619 157.589 52.7985V52.8009Z" fill="#2D3069"/>
<path d="M157.65 35.0853H150.995C150.692 35.0853 150.402 35.2055 150.188 35.4194C149.974 35.6333 149.854 35.9235 149.854 36.2261V39.6411H158.778V36.2261C158.778 35.9256 158.66 35.6373 158.448 35.4237C158.237 35.2101 157.95 35.0885 157.65 35.0853Z" fill="url(#paint7_linear)"/>
<path d="M159.428 39.6411H149.206V41.4395H159.428V39.6411Z" fill="#5753A5"/>
<path d="M158.359 24.0231C157.772 24.0231 157.517 23.4417 157.294 22.9265C157.132 22.5511 156.963 22.1635 156.742 22.1635C156.521 22.1635 156.352 22.5511 156.188 22.9265C155.964 23.4417 155.712 24.0231 155.123 24.0231C154.534 24.0231 154.284 23.4417 154.061 22.9265C153.896 22.5511 153.73 22.1635 153.509 22.1635C153.288 22.1635 153.119 22.5511 152.955 22.9265C152.731 23.4417 152.479 24.0231 151.89 24.0231C151.301 24.0231 151.051 23.4417 150.828 22.9265C150.663 22.5511 150.497 22.1635 150.276 22.1635C150.237 22.1671 150.198 22.1626 150.161 22.1503C150.124 22.138 150.09 22.118 150.061 22.0918C150.033 22.0656 150.01 22.0337 149.994 21.9981C149.978 21.9625 149.97 21.924 149.97 21.885C149.97 21.8461 149.978 21.8076 149.994 21.772C150.01 21.7364 150.033 21.7044 150.061 21.6782C150.09 21.652 150.124 21.6321 150.161 21.6198C150.198 21.6074 150.237 21.6029 150.276 21.6066C150.862 21.6066 151.115 22.1905 151.338 22.7032C151.502 23.0786 151.669 23.4662 151.89 23.4662C152.111 23.4662 152.28 23.0786 152.444 22.7032C152.668 22.1905 152.92 21.6066 153.509 21.6066C154.098 21.6066 154.348 22.1905 154.571 22.7032C154.735 23.0786 154.902 23.4662 155.123 23.4662C155.344 23.4662 155.513 23.0786 155.677 22.7032C155.901 22.1905 156.153 21.6066 156.742 21.6066C157.331 21.6066 157.583 22.1905 157.807 22.7032C157.969 23.0786 158.138 23.4662 158.359 23.4662C158.397 23.4626 158.436 23.4671 158.473 23.4794C158.51 23.4917 158.544 23.5116 158.573 23.5379C158.602 23.5641 158.625 23.596 158.641 23.6316C158.656 23.6672 158.664 23.7057 158.664 23.7447C158.664 23.7836 158.656 23.8221 158.641 23.8577C158.625 23.8933 158.602 23.9253 158.573 23.9515C158.544 23.9777 158.51 23.9976 158.473 24.0099C158.436 24.0223 158.397 24.0268 158.359 24.0231Z" fill="white"/>
<path d="M159.514 57.0844H153.541C152.788 57.0844 152.177 57.6952 152.177 58.4485V58.5859C152.177 59.3393 152.788 59.95 153.541 59.95H159.514C160.267 59.95 160.878 59.3393 160.878 58.5859V58.4485C160.878 57.6952 160.267 57.0844 159.514 57.0844Z" fill="#2D3069"/>
<path d="M158.876 58.9956C158.97 58.9932 159.061 58.9631 159.138 58.9091C159.215 58.8551 159.275 58.7796 159.309 58.692C159.344 58.6044 159.351 58.5086 159.331 58.4166C159.312 58.3246 159.265 58.2405 159.198 58.1748C159.13 58.1092 159.045 58.0648 158.953 58.0473C158.86 58.0298 158.765 58.04 158.678 58.0765C158.591 58.1131 158.517 58.1744 158.465 58.2527C158.413 58.3311 158.386 58.4231 158.386 58.5172C158.385 58.5812 158.398 58.6446 158.422 58.7036C158.447 58.7626 158.483 58.816 158.529 58.8607C158.575 58.9053 158.629 58.9403 158.689 58.9635C158.749 58.9867 158.812 58.9976 158.876 58.9956Z" fill="#5753A4"/>
<path d="M156.769 58.9956C156.864 58.9956 156.956 58.9675 157.035 58.915C157.114 58.8624 157.175 58.7877 157.211 58.7002C157.247 58.6128 157.257 58.5166 157.238 58.4238C157.22 58.331 157.174 58.2458 157.108 58.1789C157.041 58.112 156.955 58.0664 156.863 58.048C156.77 58.0295 156.674 58.039 156.586 58.0752C156.499 58.1114 156.424 58.1727 156.372 58.2514C156.319 58.3301 156.291 58.4226 156.291 58.5172C156.291 58.58 156.303 58.6422 156.327 58.7002C156.351 58.7583 156.387 58.811 156.431 58.8555C156.476 58.8999 156.528 58.9351 156.586 58.9592C156.644 58.9832 156.707 58.9956 156.769 58.9956Z" fill="#5753A4"/>
<path d="M154.669 58.9956C154.763 58.9932 154.855 58.9631 154.932 58.9091C155.009 58.8551 155.068 58.7796 155.102 58.692C155.137 58.6044 155.144 58.5086 155.125 58.4166C155.105 58.3246 155.058 58.2405 154.991 58.1748C154.924 58.1092 154.838 58.0648 154.746 58.0473C154.654 58.0298 154.558 58.04 154.471 58.0765C154.385 58.1131 154.311 58.1744 154.259 58.2527C154.207 58.3311 154.179 58.4231 154.179 58.5172C154.178 58.5812 154.191 58.6446 154.216 58.7036C154.24 58.7626 154.277 58.816 154.322 58.8607C154.368 58.9053 154.423 58.9403 154.482 58.9635C154.542 58.9867 154.605 58.9976 154.669 58.9956Z" fill="#5753A4"/>
<path d="M108.282 21.1355C99.4707 29.7811 88.7435 42.8109 81.2446 56.741C73.7162 70.725 84.1711 87.4618 100.44 87.4618H125.831C142.097 87.4618 152.555 70.7226 145.026 56.741C137.535 42.8109 126.8 29.7811 117.986 21.1355H108.282Z" fill="url(#paint8_linear)"/>
<path d="M117.798 18.2602H108.474C107.745 18.2602 107.154 18.8511 107.154 19.5801V19.8181C107.154 20.547 107.745 21.138 108.474 21.138H117.798C118.526 21.138 119.117 20.547 119.117 19.8181V19.5801C119.117 18.8511 118.526 18.2602 117.798 18.2602Z" fill="#7987C2"/>
<path d="M106.749 1.26343C103.396 1.96754 100.168 3.45672 98.1438 4.54846C100.055 6.58228 105.142 13.0567 108.221 18.2602H117.91C120.135 14.406 126.665 11.9502 126.665 8.05675C126.665 7.43605 126.224 5.50527 125.753 4.04062H125.535C123.992 4.90937 122.254 5.37277 120.484 5.3875C113.963 5.39486 112.185 1.50631 106.749 1.26343Z" fill="#ABB9E0"/>
<path d="M110.306 0.861053C109.111 0.872227 107.919 1.00706 106.752 1.2634C112.188 1.50874 113.966 5.39484 120.474 5.39484C122.241 5.37845 123.975 4.91511 125.515 4.04795H125.25C121.1 4.05531 117.349 0.861053 110.306 0.861053Z" fill="#7987C2"/>
<path d="M113.135 70.8404C121.219 70.8404 127.772 64.2862 127.772 56.2012C127.772 48.1163 121.219 41.5621 113.135 41.5621C105.051 41.5621 98.4973 48.1163 98.4973 56.2012C98.4973 64.2862 105.051 70.8404 113.135 70.8404Z" fill="url(#paint9_linear)"/>
<path d="M113.135 70.8404C121.219 70.8404 127.772 64.2862 127.772 56.2012C127.772 48.1163 121.219 41.5621 113.135 41.5621C105.051 41.5621 98.4973 48.1163 98.4973 56.2012C98.4973 64.2862 105.051 70.8404 113.135 70.8404Z" fill="url(#paint10_linear)"/>
<path d="M113.134 69.6014C112.867 69.6014 112.595 69.6014 112.33 69.5769C112.274 69.5688 112.223 69.5402 112.187 69.4965C112.152 69.4529 112.133 69.3975 112.137 69.3412C112.14 69.2849 112.164 69.2318 112.204 69.1923C112.244 69.1528 112.298 69.1299 112.354 69.1279C112.8 69.1512 113.247 69.1512 113.694 69.1279C113.725 69.1236 113.756 69.1258 113.787 69.1344C113.817 69.1431 113.845 69.1579 113.869 69.178C113.893 69.1981 113.913 69.2231 113.927 69.2513C113.941 69.2794 113.949 69.3102 113.95 69.3416C113.951 69.373 113.946 69.4044 113.935 69.4337C113.923 69.4629 113.906 69.4895 113.884 69.5117C113.861 69.5338 113.835 69.5511 113.805 69.5623C113.776 69.5735 113.745 69.5785 113.713 69.5769C113.522 69.5965 113.328 69.6014 113.134 69.6014ZM115.73 69.3561C115.674 69.3555 115.621 69.3343 115.58 69.2968C115.539 69.2593 115.513 69.2079 115.508 69.1526C115.502 69.0973 115.517 69.0419 115.55 68.9971C115.583 68.9522 115.631 68.9211 115.685 68.9096C116.124 68.8234 116.557 68.7137 116.983 68.5808C117.012 68.5687 117.043 68.5628 117.075 68.5634C117.106 68.5641 117.137 68.5713 117.166 68.5847C117.194 68.598 117.22 68.6172 117.24 68.6409C117.261 68.6647 117.276 68.6925 117.286 68.7225C117.295 68.7526 117.298 68.7843 117.294 68.8156C117.291 68.8468 117.28 68.877 117.264 68.904C117.248 68.9311 117.227 68.9546 117.201 68.9728C117.176 68.9911 117.146 69.0038 117.116 69.0102C116.676 69.1451 116.225 69.2555 115.774 69.3512L115.73 69.3561ZM110.321 69.3095H110.272C109.821 69.2113 109.375 69.0893 108.937 68.9439C108.906 68.9371 108.877 68.924 108.852 68.9053C108.827 68.8866 108.805 68.8628 108.79 68.8354C108.774 68.808 108.764 68.7776 108.761 68.7463C108.758 68.7149 108.761 68.6832 108.771 68.6533C108.781 68.6233 108.797 68.5958 108.818 68.5724C108.839 68.5489 108.865 68.5302 108.894 68.5174C108.923 68.5046 108.954 68.4979 108.985 68.4978C109.017 68.4978 109.048 68.5043 109.077 68.517C109.501 68.6568 109.931 68.7747 110.367 68.8703C110.42 68.8838 110.465 68.9157 110.496 68.9602C110.527 69.0046 110.541 69.0586 110.535 69.1124C110.53 69.1663 110.505 69.2162 110.465 69.2533C110.426 69.2904 110.375 69.312 110.321 69.3144V69.3095ZM118.948 68.2619C118.897 68.2628 118.847 68.2462 118.807 68.215C118.767 68.1838 118.739 68.1397 118.727 68.0902C118.715 68.0406 118.721 67.9885 118.743 67.9426C118.765 67.8966 118.801 67.8595 118.847 67.8375C119.248 67.6403 119.637 67.4224 120.015 67.1849C120.065 67.1523 120.127 67.1412 120.185 67.1538C120.244 67.1665 120.295 67.2019 120.328 67.2523C120.36 67.3028 120.371 67.3641 120.359 67.4227C120.346 67.4814 120.311 67.5326 120.26 67.5652C119.869 67.8105 119.465 68.0357 119.051 68.2398C119.018 68.2512 118.983 68.2554 118.948 68.2521V68.2619ZM107.124 68.1613C107.088 68.1616 107.053 68.1532 107.021 68.1368C106.61 67.9264 106.211 67.6947 105.824 67.4425C105.797 67.4274 105.774 67.4069 105.755 67.3823C105.736 67.3578 105.723 67.3296 105.716 67.2997C105.708 67.2697 105.707 67.2386 105.712 67.2081C105.717 67.1777 105.729 67.1486 105.745 67.1228C105.762 67.0969 105.784 67.0747 105.81 67.0576C105.836 67.0406 105.864 67.0289 105.895 67.0235C105.925 67.0181 105.956 67.0189 105.986 67.026C106.016 67.0331 106.045 67.0462 106.069 67.0647C106.443 67.3095 106.829 67.5339 107.227 67.7369C107.28 67.7646 107.32 67.8122 107.338 67.8692C107.356 67.9262 107.351 67.9881 107.323 68.0411C107.302 68.0768 107.272 68.1059 107.236 68.1254C107.199 68.1449 107.158 68.1539 107.117 68.1515L107.124 68.1613ZM121.774 66.3826C121.742 66.3822 121.71 66.375 121.681 66.3615C121.652 66.3479 121.626 66.3284 121.605 66.3041C121.566 66.2591 121.547 66.2006 121.551 66.1414C121.555 66.0821 121.582 66.0269 121.627 65.9876C121.964 65.6948 122.286 65.3844 122.591 65.0578C122.632 65.0161 122.688 64.9921 122.747 64.9911C122.806 64.9901 122.863 65.012 122.906 65.0523C122.948 65.0926 122.974 65.1481 122.976 65.2068C122.979 65.2656 122.959 65.323 122.919 65.3669C122.604 65.7034 122.271 66.0235 121.923 66.3262C121.88 66.3577 121.827 66.3741 121.774 66.3728V66.3826ZM104.328 66.2354C104.272 66.2351 104.219 66.2141 104.178 66.1766C103.835 65.8663 103.507 65.5388 103.197 65.1952C103.177 65.1732 103.162 65.1474 103.152 65.1194C103.142 65.0915 103.138 65.0618 103.139 65.0322C103.141 65.0026 103.148 64.9735 103.161 64.9468C103.174 64.92 103.192 64.8961 103.214 64.8763C103.236 64.8565 103.262 64.8413 103.289 64.8314C103.317 64.8216 103.346 64.8174 103.376 64.819C103.405 64.8206 103.434 64.828 103.461 64.8407C103.487 64.8535 103.511 64.8714 103.531 64.8935C103.83 65.2222 104.149 65.5411 104.477 65.838C104.499 65.8576 104.517 65.8813 104.53 65.9079C104.543 65.9344 104.55 65.9632 104.552 65.9927C104.554 66.0221 104.549 66.0515 104.539 66.0793C104.53 66.1071 104.514 66.1326 104.495 66.1545C104.473 66.1763 104.447 66.1935 104.418 66.2049C104.389 66.2163 104.359 66.2217 104.328 66.2207V66.2354ZM124.043 63.8336C123.998 63.8341 123.954 63.8204 123.918 63.7943C123.893 63.7778 123.872 63.7567 123.856 63.732C123.84 63.7074 123.829 63.6798 123.823 63.6508C123.818 63.6219 123.818 63.5921 123.824 63.5633C123.83 63.5344 123.842 63.5071 123.859 63.4828C124.109 63.1136 124.341 62.732 124.553 62.3395C124.565 62.3103 124.583 62.2839 124.606 62.2621C124.629 62.2403 124.656 62.2236 124.686 62.213C124.716 62.2024 124.748 62.1981 124.779 62.2005C124.811 62.203 124.841 62.212 124.869 62.227C124.897 62.2421 124.921 62.2628 124.941 62.2878C124.96 62.3129 124.974 62.3417 124.981 62.3724C124.989 62.4031 124.989 62.4351 124.984 62.4662C124.978 62.4973 124.966 62.5268 124.948 62.553C124.728 62.9589 124.489 63.3536 124.229 63.7355C124.208 63.7656 124.181 63.7903 124.148 63.8074C124.116 63.8244 124.08 63.8334 124.043 63.8336ZM102.127 63.6472C102.09 63.6473 102.053 63.6382 102.02 63.6207C101.987 63.6031 101.959 63.5777 101.939 63.5466C101.685 63.1605 101.452 62.7617 101.239 62.3518C101.213 62.2983 101.208 62.2365 101.226 62.1796C101.245 62.1227 101.285 62.0753 101.338 62.0476C101.391 62.0209 101.452 62.0163 101.509 62.0347C101.565 62.053 101.612 62.0929 101.639 62.1457C101.844 62.5425 102.07 62.9282 102.316 63.3012C102.348 63.3512 102.359 63.4115 102.346 63.4693C102.334 63.5271 102.299 63.5778 102.25 63.6103C102.211 63.638 102.163 63.651 102.115 63.6472H102.127ZM125.576 60.8062C125.551 60.806 125.526 60.801 125.502 60.7915C125.475 60.7821 125.449 60.7672 125.427 60.7478C125.405 60.7283 125.387 60.7046 125.374 60.6781C125.361 60.6516 125.354 60.6228 125.352 60.5934C125.351 60.564 125.355 60.5345 125.365 60.5069C125.513 60.0852 125.639 59.6561 125.743 59.2213C125.761 59.1684 125.799 59.1242 125.848 59.0973C125.897 59.0705 125.955 59.0629 126.009 59.0761C126.063 59.0893 126.111 59.1222 126.143 59.1685C126.174 59.2149 126.187 59.2713 126.18 59.3268C126.073 59.7757 125.943 60.2187 125.789 60.6541C125.773 60.7003 125.742 60.7401 125.702 60.7675C125.661 60.7949 125.613 60.8084 125.564 60.8062H125.576ZM100.646 60.5903C100.599 60.5907 100.553 60.5762 100.514 60.5488C100.476 60.5215 100.447 60.4828 100.432 60.4382C100.285 59.9995 100.163 59.5532 100.064 59.1011C100.052 59.0432 100.063 58.9826 100.095 58.9327C100.126 58.8828 100.177 58.8476 100.235 58.8349C100.293 58.8222 100.353 58.8331 100.403 58.865C100.453 58.897 100.488 58.9475 100.501 59.0054C100.597 59.4414 100.716 59.8721 100.857 60.2959C100.866 60.3237 100.87 60.3532 100.869 60.3827C100.867 60.4121 100.859 60.4408 100.846 60.4673C100.833 60.4938 100.815 60.5174 100.793 60.5368C100.771 60.5562 100.745 60.5711 100.717 60.5805C100.69 60.5885 100.662 60.5918 100.634 60.5903H100.646ZM126.28 57.4819H126.251C126.221 57.4797 126.192 57.4716 126.165 57.4581C126.139 57.4445 126.115 57.4257 126.096 57.4028C126.077 57.3799 126.062 57.3534 126.053 57.3249C126.045 57.2963 126.042 57.2663 126.045 57.2366C126.072 56.8931 126.086 56.5423 126.086 56.1963C126.086 55.7498 126.062 55.2984 126.018 54.8593C126.011 54.8 126.029 54.7408 126.067 54.6946C126.104 54.6483 126.158 54.6189 126.218 54.6127C126.277 54.6065 126.336 54.6241 126.382 54.6616C126.428 54.6991 126.458 54.7534 126.464 54.8126C126.511 55.2724 126.535 55.7342 126.535 56.1963C126.535 56.5545 126.52 56.9152 126.491 57.2709C126.488 57.328 126.463 57.3816 126.421 57.4209C126.38 57.4601 126.325 57.482 126.268 57.4819H126.28ZM99.9982 57.2562C99.941 57.2563 99.886 57.2344 99.8445 57.1952C99.803 57.1559 99.7781 57.1023 99.7749 57.0452C99.7578 56.768 99.7479 56.4834 99.7479 56.2012C99.7479 56.0197 99.7479 55.8406 99.7479 55.6615C99.7461 55.6301 99.7508 55.5986 99.7619 55.5691C99.7729 55.5396 99.79 55.5128 99.812 55.4903C99.8341 55.4678 99.8605 55.4502 99.8898 55.4385C99.919 55.4269 99.9504 55.4215 99.9819 55.4227C100.013 55.4239 100.044 55.4317 100.072 55.4455C100.101 55.4593 100.126 55.479 100.146 55.5031C100.166 55.5272 100.181 55.5552 100.19 55.5855C100.199 55.6157 100.201 55.6475 100.197 55.6787C100.197 55.8529 100.197 56.0271 100.197 56.2012C100.197 56.4736 100.197 56.7483 100.224 57.0182C100.227 57.0482 100.223 57.0785 100.214 57.1073C100.205 57.136 100.19 57.1626 100.17 57.1854C100.15 57.2083 100.126 57.227 100.099 57.2404C100.072 57.2538 100.043 57.2617 100.013 57.2635L99.9982 57.2562ZM100.221 53.8681H100.177C100.148 53.8628 100.121 53.8518 100.096 53.8357C100.071 53.8195 100.05 53.7986 100.034 53.7741C100.017 53.7497 100.006 53.7221 100 53.6932C99.9944 53.6642 99.9946 53.6345 100.001 53.6056C100.089 53.1518 100.201 52.7031 100.337 52.2612C100.358 52.2094 100.398 52.1676 100.449 52.1438C100.5 52.12 100.558 52.116 100.611 52.1325C100.665 52.1491 100.711 52.185 100.739 52.2332C100.768 52.2815 100.777 52.3387 100.766 52.3936C100.636 52.8181 100.521 53.2548 100.44 53.6915C100.429 53.7438 100.4 53.7906 100.358 53.823C100.315 53.8555 100.262 53.8715 100.209 53.8681H100.221ZM125.888 53.056C125.838 53.0561 125.79 53.0398 125.75 53.0097C125.711 52.9795 125.682 52.9372 125.669 52.8892C125.555 52.4573 125.42 52.0315 125.262 51.6135C125.241 51.5578 125.243 51.4962 125.268 51.4422C125.293 51.3881 125.338 51.346 125.393 51.3252C125.449 51.3044 125.511 51.3065 125.565 51.3311C125.619 51.3557 125.661 51.4008 125.682 51.4565C125.846 51.8875 125.987 52.3273 126.103 52.7739C126.111 52.8024 126.113 52.8322 126.109 52.8615C126.106 52.8908 126.096 52.9191 126.081 52.9446C126.066 52.9702 126.047 52.9925 126.023 53.0104C125.999 53.0283 125.973 53.0413 125.944 53.0487C125.922 53.0549 125.898 53.0574 125.875 53.056H125.888ZM101.303 50.6493C101.269 50.6493 101.236 50.6418 101.205 50.6272C101.178 50.6144 101.154 50.5964 101.135 50.5742C101.115 50.552 101.1 50.5261 101.09 50.498C101.081 50.4699 101.077 50.4402 101.079 50.4105C101.081 50.3809 101.089 50.352 101.102 50.3255C101.304 49.9111 101.528 49.5074 101.772 49.116C101.787 49.0907 101.807 49.0687 101.831 49.0513C101.855 49.0339 101.882 49.0214 101.911 49.0146C101.94 49.0077 101.969 49.0066 101.999 49.0114C102.028 49.0162 102.056 49.0267 102.081 49.0424C102.131 49.0738 102.167 49.1239 102.181 49.1818C102.195 49.2397 102.185 49.3007 102.154 49.3515C101.917 49.7296 101.7 50.1203 101.504 50.5217C101.485 50.5618 101.455 50.5953 101.417 50.618C101.379 50.6407 101.335 50.6516 101.291 50.6493H101.303ZM124.607 49.9133C124.568 49.9141 124.529 49.9039 124.494 49.884C124.46 49.8641 124.432 49.8352 124.413 49.8005C124.188 49.4126 123.942 49.0367 123.677 48.6744C123.642 48.6259 123.628 48.5654 123.637 48.5063C123.647 48.4472 123.679 48.3942 123.728 48.3591C123.776 48.324 123.837 48.3095 123.896 48.319C123.955 48.3284 124.008 48.3609 124.043 48.4094C124.31 48.7848 124.563 49.1773 124.779 49.5747C124.808 49.6268 124.815 49.6883 124.799 49.7458C124.783 49.8033 124.745 49.852 124.693 49.8814C124.662 49.8996 124.626 49.9097 124.59 49.9109L124.607 49.9133ZM103.16 47.8206C103.107 47.8198 103.056 47.8007 103.015 47.7666C102.993 47.7473 102.974 47.7238 102.961 47.6973C102.947 47.6708 102.939 47.6419 102.937 47.6123C102.935 47.5826 102.938 47.5528 102.947 47.5246C102.957 47.4963 102.971 47.4702 102.991 47.4477C103.293 47.1018 103.614 46.7657 103.95 46.4492C103.993 46.4085 104.051 46.3867 104.11 46.3885C104.17 46.3904 104.226 46.4157 104.266 46.459C104.307 46.5023 104.329 46.5599 104.327 46.6193C104.325 46.6786 104.3 46.7348 104.257 46.7755C103.932 47.0819 103.624 47.4045 103.332 47.7421C103.311 47.7668 103.284 47.7866 103.255 47.8002C103.225 47.8137 103.193 47.8207 103.16 47.8206ZM122.539 47.2048C122.509 47.205 122.479 47.1992 122.452 47.1878C122.424 47.1765 122.399 47.1597 122.377 47.1386C122.066 46.8221 121.735 46.5154 121.396 46.2308C121.373 46.2123 121.354 46.1894 121.341 46.1635C121.327 46.1376 121.318 46.1092 121.315 46.08C121.313 46.0508 121.316 46.0213 121.325 45.9932C121.333 45.9652 121.348 45.9392 121.367 45.9168C121.385 45.8939 121.408 45.875 121.435 45.8611C121.461 45.8472 121.489 45.8386 121.519 45.8359C121.548 45.8332 121.578 45.8363 121.606 45.8451C121.634 45.854 121.66 45.8683 121.683 45.8874C122.039 46.1816 122.378 46.4945 122.701 46.8245C122.722 46.8453 122.738 46.8699 122.75 46.8971C122.761 46.9243 122.767 46.9534 122.767 46.9828C122.767 47.0122 122.761 47.0413 122.75 47.0685C122.738 47.0956 122.722 47.1203 122.701 47.141C122.68 47.1607 122.655 47.176 122.628 47.1861C122.602 47.1962 122.573 47.2009 122.544 47.1999L122.539 47.2048ZM105.689 45.5562C105.641 45.5572 105.593 45.5425 105.554 45.5142C105.515 45.4859 105.486 45.4456 105.471 45.3993C105.457 45.3531 105.458 45.3034 105.474 45.2578C105.49 45.2122 105.521 45.1731 105.562 45.1465C105.942 44.8842 106.336 44.6426 106.742 44.4227C106.793 44.3992 106.852 44.3962 106.906 44.4143C106.96 44.4323 107.005 44.4701 107.033 44.5201C107.06 44.57 107.067 44.6285 107.053 44.6836C107.039 44.7388 107.005 44.7867 106.957 44.8177C106.564 45.03 106.182 45.2634 105.814 45.5169C105.779 45.54 105.737 45.5519 105.694 45.5513L105.689 45.5562ZM119.873 45.0998C119.832 45.1 119.792 45.089 119.757 45.0679C119.375 44.8422 118.977 44.6312 118.575 44.4448C118.521 44.4192 118.48 44.3736 118.459 44.3176C118.438 44.2617 118.44 44.1999 118.465 44.1455C118.477 44.1186 118.495 44.0944 118.516 44.0744C118.538 44.0544 118.564 44.0389 118.592 44.0288C118.62 44.0188 118.649 44.0144 118.679 44.0159C118.708 44.0174 118.737 44.0247 118.764 44.0375C119.184 44.2305 119.593 44.4459 119.99 44.6828C120.041 44.7138 120.078 44.7636 120.093 44.8213C120.107 44.8791 120.099 44.9403 120.069 44.9919C120.048 45.0254 120.02 45.053 119.985 45.0719C119.951 45.0909 119.912 45.1005 119.873 45.0998ZM108.716 44.0081C108.67 44.0078 108.625 43.9933 108.587 43.9665C108.55 43.9397 108.521 43.902 108.505 43.8584C108.495 43.8306 108.491 43.801 108.492 43.7714C108.494 43.7419 108.501 43.7129 108.514 43.6861C108.527 43.6594 108.545 43.6355 108.567 43.6158C108.589 43.5961 108.615 43.581 108.643 43.5714C109.078 43.4164 109.521 43.2837 109.97 43.174C110.025 43.1662 110.082 43.1793 110.128 43.2109C110.174 43.2424 110.207 43.29 110.22 43.3445C110.234 43.399 110.226 43.4564 110.199 43.5056C110.172 43.5548 110.128 43.5922 110.075 43.6107C109.641 43.7162 109.213 43.8439 108.792 43.9934C108.769 44.0027 108.744 44.0077 108.719 44.0081H108.716ZM116.755 43.7628H116.694C116.265 43.6402 115.83 43.5395 115.391 43.461C115.332 43.4508 115.28 43.4177 115.245 43.369C115.211 43.3202 115.197 43.2598 115.207 43.2009C115.212 43.1719 115.223 43.1441 115.239 43.1192C115.254 43.0944 115.275 43.0728 115.299 43.056C115.323 43.0391 115.351 43.0272 115.379 43.0209C115.408 43.0146 115.438 43.0141 115.467 43.0194C115.923 43.0992 116.374 43.2023 116.819 43.3285C116.876 43.3456 116.924 43.3846 116.952 43.437C116.981 43.4894 116.988 43.5509 116.971 43.6082C116.955 43.6514 116.925 43.6886 116.887 43.7145C116.849 43.7404 116.804 43.7539 116.757 43.7529L116.755 43.7628ZM112.035 43.304C111.979 43.3007 111.927 43.2767 111.887 43.2366C111.848 43.1966 111.825 43.1433 111.823 43.0873C111.821 43.0313 111.84 42.9764 111.876 42.9335C111.912 42.8906 111.963 42.8626 112.018 42.855C112.391 42.8231 112.754 42.8133 113.146 42.8084H113.392C113.421 42.809 113.451 42.8155 113.478 42.8275C113.505 42.8394 113.529 42.8566 113.55 42.878C113.57 42.8994 113.587 42.9246 113.597 42.9523C113.608 42.9799 113.613 43.0094 113.613 43.039C113.612 43.0687 113.606 43.0979 113.594 43.1251C113.582 43.1523 113.565 43.1768 113.544 43.1971C113.522 43.2175 113.497 43.2333 113.469 43.2437C113.441 43.254 113.412 43.2587 113.382 43.2574H113.124C112.764 43.2574 112.401 43.2721 112.045 43.3015L112.035 43.304Z" fill="#CDD6F1"/>
<path d="M112.308 62.2487C110.439 62.0721 109.08 61.4023 108.074 60.4333L109.678 58.1566C110.676 59.1514 112.027 59.7099 113.436 59.7095C114.476 59.7095 115.109 59.3047 115.109 58.7405C115.109 57.136 108.444 58.4215 108.444 53.8902C108.444 52.1091 109.803 50.5046 112.308 50.2102V48.5566H114.27V50.2322C115.608 50.3935 116.871 50.934 117.911 51.7901L116.257 53.954C115.284 53.1691 114.073 52.7368 112.823 52.7273C111.942 52.7273 111.552 53.0781 111.552 53.5737C111.552 55.0727 118.2 53.9785 118.2 58.3528C118.2 60.4676 116.809 61.9494 114.275 62.2316V63.8361H112.313L112.308 62.2487Z" fill="#7987C2"/>
<g opacity="0.8">
<path opacity="0.8" d="M211.852 56.9446H200.973V81.3579H211.852V56.9446Z" fill="url(#paint11_linear)"/>
<g style="mix-blend-mode:multiply" opacity="0.5">
<path d="M211.862 59.9524H200.973V60.1978H211.862V59.9524ZM211.862 63.0167H200.973V63.262H211.862V63.0167ZM211.862 66.0809H200.973V66.3262H211.862V66.0809ZM211.862 69.1427H200.973V69.388H211.862V69.1427ZM211.862 72.2069H200.973V72.4645H211.862V72.2069ZM211.862 75.2711H200.973V75.5165H211.862V75.2711ZM211.862 78.3354H200.973V78.5807H211.862V78.3354ZM211.862 81.3996H200.973V81.6449H211.862V81.3996Z" fill="#D5DBEF"/>
</g>
</g>
<path d="M16.3794 49.0129C15.9574 49.8569 15.5649 50.8284 15.5649 51.7803C15.5649 55.4873 18.1137 58.159 20.5054 59.4912C20.6255 58.9416 20.6847 58.3805 20.682 57.818C20.682 52.6243 18.3173 50.2126 16.3794 49.0129Z" fill="#ABB9E0"/>
<path d="M19.595 66.0539C19.2854 66.1311 18.9672 66.1682 18.6481 66.1643C15.1525 66.1643 12.594 64.1231 12.594 59.3293V59.0324C16.2956 60.87 19.595 62.5113 19.595 66.0539Z" fill="#ABB9E0"/>
<path d="M27.5695 57.2783C23.5294 57.4451 22.1876 59.95 21.9692 63.3307C22.1902 63.3626 22.4132 63.3782 22.6365 63.3773C25.4305 63.3773 27.6456 61.2993 27.6456 58.2032C27.6462 57.8933 27.6207 57.5839 27.5695 57.2783Z" fill="#ABB9E0"/>
<path d="M25.7669 66.0956C25.3207 65.9793 24.8617 65.9191 24.4005 65.9165C22.4774 65.9165 21.0497 67.1137 20.613 68.6618C21.0495 68.8043 21.5087 68.8642 21.9671 68.8384C22.8112 68.8507 23.6367 68.5905 24.3212 68.0964C25.0057 67.6023 25.5127 66.9007 25.7669 66.0956Z" fill="#ABB9E0"/>
<path d="M19.6982 72.5994C19.6752 72.5988 19.6533 72.5892 19.6373 72.5727C19.6213 72.5562 19.6123 72.5341 19.6123 72.5111C19.7022 70.8999 19.9063 69.2971 20.2231 67.7148C20.5175 66.0416 20.8217 64.312 20.8217 62.6928C20.8217 60.053 19.2051 56.3484 18.4275 54.5673C18.2754 54.214 18.1527 53.9344 18.0792 53.7454C18.0748 53.7352 18.0725 53.7241 18.0725 53.7129C18.0725 53.7017 18.0747 53.6907 18.0791 53.6804C18.0834 53.6701 18.0898 53.6608 18.0978 53.653C18.1058 53.6452 18.1153 53.6391 18.1258 53.635C18.1362 53.6306 18.1475 53.6283 18.1588 53.6283C18.1702 53.6283 18.1814 53.6305 18.1919 53.6348C18.2024 53.6391 18.2119 53.6455 18.2199 53.6536C18.228 53.6616 18.2343 53.6712 18.2386 53.6817C18.3122 53.8706 18.4324 54.1478 18.5845 54.4986C19.367 56.2896 20.9934 60.0187 20.9934 62.6928C20.9934 64.3267 20.6867 66.0637 20.3924 67.7467C20.0769 69.3216 19.8752 70.9171 19.7889 72.5209C19.787 72.5433 19.7765 72.564 19.7595 72.5786C19.7426 72.5933 19.7205 72.6008 19.6982 72.5994Z" fill="#605BB5"/>
<path d="M20.429 67.1211C20.4146 67.1206 20.4006 67.1166 20.3881 67.1093C20.3757 67.102 20.3653 67.0917 20.3579 67.0794C19.8231 66.2477 18.9866 65.5509 16.9653 63.8655C16.2589 63.2767 15.3807 62.5456 14.3283 61.6575C14.3202 61.6497 14.3138 61.6403 14.3094 61.63C14.305 61.6197 14.3027 61.6086 14.3027 61.5974C14.3027 61.5861 14.305 61.575 14.3094 61.5647C14.3138 61.5544 14.3202 61.545 14.3283 61.5372C14.3444 61.5215 14.3659 61.5127 14.3884 61.5127C14.4109 61.5127 14.4325 61.5215 14.4485 61.5372C15.5009 62.4327 16.3791 63.1638 17.0831 63.7453C19.1191 65.443 19.963 66.1446 20.5173 67.0008C20.5236 67.0103 20.5278 67.0209 20.5298 67.032C20.5319 67.0431 20.5316 67.0545 20.5291 67.0655C20.5266 67.0765 20.5218 67.0869 20.5152 67.096C20.5085 67.1052 20.5001 67.1128 20.4904 67.1186C20.471 67.1274 20.449 67.1283 20.429 67.1211Z" fill="#605BB5"/>
<path d="M20.0734 69.1868C20.0624 69.1869 20.0516 69.1848 20.0415 69.1806C20.0313 69.1763 20.0222 69.1701 20.0145 69.1622C19.9988 69.1462 19.99 69.1246 19.99 69.1021C19.99 69.0797 19.9988 69.0581 20.0145 69.042C20.4533 68.5203 21.0387 68.1425 21.6949 67.9576C22.4022 67.7168 23.0835 67.4053 23.7284 67.0278C23.7383 67.0221 23.7491 67.0184 23.7603 67.017C23.7716 67.0155 23.783 67.0163 23.794 67.0192C23.8049 67.0222 23.8152 67.0273 23.8241 67.0342C23.8331 67.0412 23.8406 67.0499 23.8462 67.0597C23.8518 67.0694 23.8555 67.08 23.8569 67.0911C23.8584 67.1021 23.8576 67.1134 23.8546 67.1241C23.8516 67.1349 23.8465 67.1449 23.8396 67.1537C23.8327 67.1624 23.8241 67.1697 23.8143 67.175C23.161 67.5584 22.4706 67.8748 21.7537 68.1196C21.1234 68.2949 20.5608 68.6566 20.1396 69.1573C20.1318 69.1672 20.1217 69.175 20.1101 69.1802C20.0986 69.1853 20.086 69.1876 20.0734 69.1868Z" fill="#605BB5"/>
<path d="M20.8218 64.393C20.8097 64.3928 20.7977 64.3901 20.7867 64.3851C20.7757 64.38 20.7659 64.3727 20.758 64.3635C20.7499 64.3557 20.7435 64.3464 20.7391 64.3361C20.7347 64.3257 20.7324 64.3146 20.7324 64.3034C20.7324 64.2922 20.7347 64.2811 20.7391 64.2708C20.7435 64.2604 20.7499 64.2511 20.758 64.2433L21.0303 64.0102C23.1056 62.2414 24.1481 61.3533 25.6028 59.3489C25.6164 59.3308 25.6366 59.3187 25.6589 59.315C25.6813 59.3114 25.7042 59.3165 25.723 59.3293C25.7322 59.3358 25.74 59.3442 25.746 59.3538C25.7519 59.3634 25.7559 59.3741 25.7578 59.3853C25.7596 59.3965 25.7592 59.4079 25.7566 59.4189C25.754 59.4299 25.7492 59.4403 25.7426 59.4495C24.2708 61.4686 23.2258 62.3616 21.1407 64.1403L20.8684 64.3709C20.8556 64.383 20.8393 64.3907 20.8218 64.393Z" fill="#605BB5"/>
<path d="M12.6135 74.0101V75.2981C12.6142 75.3539 12.6366 75.4072 12.676 75.4466C12.7154 75.486 12.7687 75.5084 12.8245 75.5091H24.7831C24.8388 75.5084 24.8921 75.486 24.9315 75.4466C24.971 75.4072 24.9934 75.3539 24.994 75.2981V74.0174C24.994 73.9615 24.9718 73.9078 24.9323 73.8682C24.8927 73.8287 24.839 73.8065 24.7831 73.8065H12.8245C12.7698 73.8064 12.7172 73.8276 12.6779 73.8656C12.6385 73.9036 12.6154 73.9554 12.6135 74.0101Z" fill="url(#paint12_linear)"/>
<path d="M13.0354 75.5017H24.5647L22.146 81.3702C22.0773 81.537 21.8075 81.6547 21.4935 81.6547H16.1091C15.7951 81.6547 15.5228 81.537 15.4541 81.3702L13.0354 75.5017Z" fill="url(#paint13_linear)"/>
<path d="M18.8076 72.4179C19.3813 72.4175 19.9484 72.5406 20.4704 72.7789C20.9923 73.0173 21.4567 73.3652 21.8322 73.7991H15.7781C16.1542 73.3647 16.6195 73.0165 17.1422 72.7781C17.665 72.5398 18.233 72.4169 18.8076 72.4179Z" fill="#605BB5"/>
<path d="M203.829 47.1459H190.001V81.6547H203.829V47.1459Z" fill="url(#paint14_linear)"/>
<g style="mix-blend-mode:multiply" opacity="0.3">
<path d="M203.826 51.1645H190.001V50.8431H203.826V51.1645ZM203.826 54.6998H190.001V55.0236H203.826V54.6998ZM203.826 58.5589H190.001V58.8803H203.826V58.5589ZM203.826 62.418H190.001V62.7394H203.826V62.418ZM203.826 66.2747H190.001V66.5985H203.826V66.2747ZM203.826 70.1338H190.001V70.4552H203.826V70.1338ZM203.826 73.9929H190.001V74.3168H203.826V73.9929ZM203.826 77.8496H190.001V78.1734H203.826V77.8496Z" fill="#E4B863"/>
</g>
<path d="M60.7495 55.5536H48.0894V81.6547H60.7495V55.5536Z" fill="url(#paint15_linear)"/>
<g style="mix-blend-mode:multiply" opacity="0.3">
<path d="M60.7544 59.2557H48.0894V58.9392H60.7544V59.2557ZM60.7544 62.7345H48.0894V63.051H60.7544V62.7345ZM60.7544 66.5274H48.0894V66.8439H60.7544V66.5274ZM60.7544 70.3227H48.0894V70.6367H60.7544V70.3227ZM60.7544 74.118H48.0894V74.4345H60.7544V74.118ZM60.7544 77.9134H48.0894V78.2421H60.7544V77.9134Z" fill="#E4B863"/>
</g>
<path d="M102.267 77.4129H85.388C84.9843 77.4129 84.657 77.7402 84.657 78.144V90.7566C84.657 91.1604 84.9843 91.4877 85.388 91.4877H102.267C102.671 91.4877 102.998 91.1604 102.998 90.7566V78.144C102.998 77.7402 102.671 77.4129 102.267 77.4129Z" fill="#6775BA"/>
<path d="M102.267 77.4129H85.388C84.9843 77.4129 84.657 77.7402 84.657 78.144V84.7582C84.657 85.162 84.9843 85.4893 85.388 85.4893H102.267C102.671 85.4893 102.998 85.162 102.998 84.7582V78.144C102.998 77.7402 102.671 77.4129 102.267 77.4129Z" fill="#7986C3"/>
<path d="M94.7786 84.3141H92.8775C92.4738 84.3141 92.1465 84.6415 92.1465 85.0452V86.1615C92.1465 86.5653 92.4738 86.8926 92.8775 86.8926H94.7786C95.1823 86.8926 95.5096 86.5653 95.5096 86.1615V85.0452C95.5096 84.6415 95.1823 84.3141 94.7786 84.3141Z" fill="#F4F5FE"/>
<path d="M98.0018 77.4129H97.1285L96.947 75.9605C96.9219 75.787 96.8357 75.6282 96.7039 75.5126C96.5722 75.397 96.4035 75.3323 96.2283 75.33H91.4178C91.243 75.3329 91.0749 75.3979 90.9437 75.5134C90.8124 75.629 90.7266 75.7875 90.7015 75.9605L90.52 77.4129H89.6443L89.8405 75.8526C89.8899 75.4688 90.0772 75.116 90.3674 74.8601C90.6576 74.6042 91.0309 74.4625 91.4178 74.4615H96.2184C96.6055 74.462 96.9791 74.6035 97.2694 74.8595C97.5597 75.1155 97.7468 75.4686 97.7958 75.8526L98.0018 77.4129Z" fill="#6775BA"/>
<path d="M63.3965 113.205C63.5004 113.638 63.6373 114.063 63.8061 114.476C63.402 114.561 62.992 114.616 62.5796 114.64C61.2746 114.66 61.3531 114.063 60.9385 113.865C60.8838 113.838 60.8272 113.815 60.7693 113.796C60.811 113.305 60.8355 112.751 60.8257 112.211C60.7668 108.61 59.4348 103.87 59.3833 100.847C59.3072 96.3896 61.8093 91.792 63.6712 88.3646C63.0708 86.618 62.6106 84.8263 62.295 83.0065C63.9901 83.3525 66.009 83.6935 68.332 83.9535V84.2626C68.4914 93.5854 62.5698 98.443 62.7268 107.673C62.7684 109.534 62.9927 111.387 63.3965 113.205Z" fill="#F8D1B5"/>
<path d="M77.5185 114.522C77.2226 114.523 76.9269 114.506 76.633 114.471C75.8554 114.321 76.032 113.921 75.0066 113.875H74.9281H74.7883C74.1603 110.055 71.2559 103.018 71.2559 95.8964C71.2708 93.6083 71.5407 91.329 72.0605 89.1006C71.204 87.5533 70.5988 85.8797 70.2673 84.1424C72.1071 84.2994 74.1063 84.4049 76.2601 84.4246C76.2601 84.9668 76.2724 85.5678 76.2724 86.2155C76.2724 89.7508 76.0786 97.8297 76.0786 99.1962C76.0786 102.648 76.243 110.455 77.5185 114.522Z" fill="#F8D1B5"/>
<path d="M72.5293 55.0899C75.89 55.897 77.0257 60.9436 78.7257 63.2154C79.0618 63.6643 79.6603 64.047 79.6603 64.6358C79.6603 65.3154 79.1697 65.8969 78.5393 65.8969C77.4059 65.8969 76.1206 63.7453 75.105 62.1113L72.5293 55.0899Z" fill="#F8D1B5"/>
<path d="M70.677 54.8617C70.6622 54.6164 70.6524 54.371 70.6524 54.1257C70.6524 50.6027 73.628 50.166 73.628 47.1778C73.628 45.1219 72.4505 45.6739 71.982 43.7946C71.8299 43.1838 70.7555 42.2515 69.6859 42.2515C65.4863 42.2515 67.9516 46.6798 62.7463 46.6798C62.0815 46.6798 61.4143 46.6381 60.747 46.6381C58.6865 46.6381 57.2931 47.4624 57.2931 49.4913C57.2931 51.0394 57.9775 50.9633 57.9775 51.9447C57.9775 53.2032 55.4043 53.191 55.4043 56.8833C55.4043 58.0609 56.2383 60.7939 58.814 60.7939C61.8215 60.7939 63.6514 56.9029 66.6638 56.7508C68.1675 56.6723 70.7211 56.2895 70.7211 54.7292C70.7211 54.6434 70.672 54.4005 70.5788 54.4005L70.677 54.8617Z" fill="#2D3069"/>
<path d="M71.9529 47.3128C71.9529 49.1282 70.9987 50.0384 69.9905 50.2838C69.7985 50.3302 69.6017 50.3541 69.4042 50.3549C69.0842 50.3559 68.7664 50.302 68.4647 50.1954C68.0293 50.0248 67.6387 49.7567 67.3228 49.4119C67.0069 49.067 66.7741 48.6545 66.6421 48.2058C68.8964 47.1508 70.1131 46.2308 71.0821 44.8275C71.6716 45.5186 71.9822 46.4048 71.9529 47.3128Z" fill="#F8D1B5"/>
<path d="M72.5145 56.162C72.5145 57.8474 71.4915 58.6031 70.1276 58.6031C67.6746 58.6031 66.1022 56.6576 65.5576 54.187C67.0294 53.9957 68.4743 53.6964 68.4743 51.0615C68.4743 50.7695 68.462 50.4751 68.4522 50.1881C68.754 50.2946 69.0717 50.3485 69.3917 50.3475C69.5893 50.3467 69.786 50.3229 69.978 50.2764C70.0982 52.4182 71.1849 53.6792 72.3526 54.9034C72.4535 55.3155 72.5079 55.7377 72.5145 56.162Z" fill="#F8D1B5"/>
<path d="M78.9956 86.7479C78.5295 86.7749 77.9211 86.8092 76.9792 86.8092H76.2604C74.1066 86.7896 72.1074 86.6841 70.2676 86.5247C69.6029 86.4682 68.9577 86.4044 68.3371 86.3333C66.0141 86.0708 63.9952 85.7322 62.3001 85.3838C61.5642 85.2317 60.8749 85.0821 60.2592 84.9349C60.2347 84.4663 60.2224 83.9952 60.2224 83.5242C60.2224 74.751 65.6338 70.3375 65.6338 67.2438C65.6338 62.8744 62.4915 59.8837 62.4915 56.9618C62.4915 54.4815 64.0369 54.3907 65.5578 54.1969C66.1024 56.6698 67.6748 58.6129 70.1278 58.6129C71.4917 58.6129 72.5146 57.8573 72.5146 56.1718C72.5092 55.7702 72.4598 55.3704 72.3674 54.9795C72.3686 54.9632 72.3686 54.9468 72.3674 54.9304C72.3674 54.9304 72.3674 54.9304 72.3674 54.9157C72.3674 54.901 72.3674 54.9157 72.3822 54.9157C72.4361 54.9378 72.5539 54.9721 72.598 54.9868C74.1729 55.5585 73.15 56.2749 74.2146 58.5589C74.6905 59.5771 74.9824 60.4161 74.9824 61.1766C74.9824 63.2448 73.2775 63.9097 73.2775 65.9705C73.2652 68.6741 78.9342 76.3359 78.9956 86.7479Z" fill="#45409C"/>
<path d="M82.4273 71.807H75.0486L79.3561 60.7277H86.7324L82.4273 71.807Z" fill="#F4F5FE"/>
<path d="M79.123 67.9503C79.1137 67.8313 79.0625 67.7194 78.9785 67.6346C78.8945 67.5497 78.7832 67.4973 78.6643 67.4866C77.2366 67.4866 77.1631 68.9734 75.154 68.9734C61.4857 68.9734 67.9372 56.2601 63.8087 55.2346C63.7875 55.2322 63.7661 55.2322 63.7449 55.2346C62.6631 55.2346 62.6067 56.7066 62.6067 57.9824C62.6067 62.4107 63.9019 68.6569 69.3305 70.6318C72.6666 71.8315 79.123 71.4954 79.123 67.9503Z" fill="#F8D1B5"/>
<path d="M190.867 78.3599C190.771 78.2324 190.673 78.1146 190.577 77.9895C187.356 79.5989 185.053 80.644 183.434 81.5714C182.163 82.3074 180.51 82.9526 180.51 88.7768C180.51 92.8666 181.513 100.075 181.834 102.27C182.109 102.27 182.384 102.285 182.659 102.285C183.382 102.285 184.094 102.248 184.7 102.204C184.626 101.017 184.557 99.9396 184.557 98.1486C184.557 81.2205 190.538 84.5178 193.371 83.2421L192.748 81.7186C192.267 80.523 191.635 79.3942 190.867 78.3599Z" fill="#262697"/>
<path d="M182.595 58.8435C182.595 60.0457 182.155 61.1938 182.155 62.0108V62.0304C181.368 61.6968 180.438 61.0344 179.928 59.5182C179.17 59.8396 178.211 60.107 177.762 60.107C177.53 60.1079 177.298 60.0848 177.07 60.0383C176.283 59.8666 175.778 59.3636 175.778 58.4264C175.778 57.369 176.558 56.8931 177.375 56.8931C178.424 56.8931 178.55 57.3715 179.491 57.3715C180.536 57.3715 180.75 56.9348 181.329 56.9348C182.197 56.9348 182.595 57.948 182.595 58.8435Z" fill="#2D3069"/>
<path d="M182.794 63.5613C182.174 63.684 181.622 64.034 181.246 64.5426C181.064 64.3341 180.611 63.8066 180.395 63.8066C180.076 63.8066 179.548 64.182 178.962 64.182C177.652 64.182 176.96 62.0623 176.96 60.9706C176.967 60.6594 177.004 60.3496 177.071 60.0457C177.298 60.0922 177.53 60.1152 177.763 60.1143C178.224 60.1143 179.171 59.8469 179.929 59.5255C180.449 61.0417 181.369 61.7041 182.156 62.0378C182.158 62.58 182.578 63.2767 182.794 63.5613Z" fill="#F8D1B5"/>
<path d="M181.049 64.2573L180.856 64.1473C180.868 64.1245 180.883 64.1032 180.9 64.0838L181.068 64.2304L181.049 64.2573Z" fill="black"/>
<path d="M174.156 66.1471C174.38 67.5946 174.632 69.2948 174.799 70.1559C174.019 70.2148 173.276 70.2393 172.616 70.2393C158.982 70.2393 157.054 68.4165 156.134 65.1167C156.106 65.0252 156.107 64.9271 156.139 64.8365C156.17 64.746 156.229 64.6678 156.308 64.6132C156.387 64.5585 156.481 64.5303 156.576 64.5327C156.672 64.535 156.765 64.5677 156.84 64.6261C157.578 65.1882 158.349 65.7052 159.149 66.1741C159.909 66.1398 160.67 66.1226 161.43 66.1226C165.203 66.1226 171.218 66.7654 171.218 66.7654C171.676 66.7727 172.771 66.5078 174.156 66.1471Z" fill="#F8D1B5"/>
<path d="M182.74 63.1221C181.353 63.7923 179.901 64.3201 178.408 64.6972C176.936 65.0652 174.669 66.0171 174.156 66.1471C174.402 67.7099 174.62 69.2211 174.799 70.1509H174.843L175.29 70.1141L175.717 70.0724L175.854 70.0577C175.999 70.043 176.146 70.0258 176.291 70.0062C176.435 69.9866 176.629 69.9645 176.796 69.9375C176.963 69.9105 177.061 69.9007 177.193 69.8786L177.439 69.8394C177.689 69.7985 177.939 69.7519 178.189 69.6995L178.523 69.6284C178.633 69.6063 178.744 69.5793 178.854 69.5523L179.183 69.4714C179.512 69.388 179.835 69.2923 180.164 69.1892C180.328 69.1353 180.493 69.0813 180.655 69.02C181.69 74.7019 186.351 74.5621 189.915 78.4089C192.279 77.5949 194.599 76.6572 196.864 75.5998C194.053 69.6137 187.822 63.0313 183.846 63.0313C183.475 63.0261 183.105 63.0565 182.74 63.1221Z" fill="#F04B72"/>
<path d="M206.868 96.7109C205.396 95.0525 203.537 93.5436 201.471 91.7895C199.737 90.3175 200.61 90.4475 198.378 79.5424C198.132 78.3157 197.519 76.9688 196.876 75.5999C194.458 76.7652 192.461 77.3761 189.927 78.4089C191.889 80.5262 191.889 82.322 193.989 87.3195C194.84 89.3533 195.773 93.3253 199.165 95.3518C200.637 96.2301 202.943 97.5794 207.567 102.074C208.406 101.929 209.284 101.767 210.096 101.618C209.205 99.8673 208.123 98.2216 206.868 96.7109Z" fill="#45409C"/>
<path d="M157.788 98.7467C166.206 90.3279 166.206 76.6784 157.788 68.2597C149.37 59.8409 135.722 59.8409 127.305 68.2597C118.887 76.6784 118.887 90.3279 127.305 98.7467C135.722 107.165 149.37 107.165 157.788 98.7467Z" fill="#EBD586"/>
<path d="M142.546 102.138C152.836 102.138 161.177 93.7954 161.177 83.5046C161.177 73.2138 152.836 64.8714 142.546 64.8714C132.257 64.8714 123.916 73.2138 123.916 83.5046C123.916 93.7954 132.257 102.138 142.546 102.138Z" fill="url(#paint16_linear)"/>
<path d="M149.337 90.9774C147.183 92.7586 145.049 93.4823 142.959 93.5191L142.252 89.4367C143.29 89.4359 144.317 89.2304 145.276 88.8322C146.234 88.434 147.105 87.8508 147.838 87.1159C148.934 86.0217 149.175 84.9275 148.574 84.3313C146.886 82.6434 141.215 91.0142 136.456 86.2449C134.582 84.3706 134.321 81.2524 136.642 78.301L134.896 76.5567L136.956 74.4958L138.72 76.2573C140.31 75.0157 142.223 74.257 144.232 74.0714L144.771 78.0974C142.919 78.3006 141.189 79.1256 139.865 80.4379C138.938 81.3652 138.901 82.1552 139.421 82.6655C140.999 84.243 146.844 76.093 151.441 80.7028C153.669 82.9305 153.762 85.9554 151.385 88.924L153.075 90.6143L151.014 92.6727L149.337 90.9774Z" fill="#D5B128"/>
<path d="M148.353 89.9936C146.199 91.7748 144.065 92.4985 141.975 92.5378L141.271 88.4529C143.366 88.4502 145.375 87.6164 146.856 86.1345C147.95 85.0379 148.191 83.9437 147.592 83.35C145.905 81.6596 140.233 90.0304 135.474 85.2611C133.6 83.3868 133.34 80.2686 135.661 77.3172L133.917 75.5729L135.977 73.5121L137.738 75.276C139.328 74.0339 141.241 73.2751 143.25 73.0901L143.788 77.1185C141.935 77.3198 140.205 78.1441 138.881 79.4565C137.952 80.3839 137.915 81.1739 138.435 81.6842C140.012 83.2617 145.858 75.1141 150.455 79.7215C152.682 81.9491 152.776 84.9741 150.401 87.9427L152.089 89.633L150.028 91.6938L148.353 89.9936Z" fill="#EBD586"/>
<path d="M36.4447 66.9935C34.9974 71.8634 34.7104 78.4874 33.7979 83.377H35.1004L38.4071 72.5307C39.7367 76.8363 40.5707 79.2382 42.1259 83.377H43.583C42.0229 77.4276 41.3361 73.1146 39.9035 67.0818L36.4447 66.9935Z" fill="#5753A4"/>
<path d="M38.2575 62.077C38.5029 62.104 38.7751 62.1286 39.0842 62.1506L42.3566 52.482L43.956 52.823L41.0687 61.2503C40.8009 61.9483 40.6694 62.6911 40.6812 63.4386C40.7106 65.5878 40.5217 66.1766 40.2298 68.4705L36.1136 68.4288C35.152 62.9431 33.6875 60.2076 31.6221 53.4633C31.6221 53.4633 33.1822 52.9285 33.0694 53.0046C34.2738 56.5227 35.0318 58.4338 36.457 61.763C36.7391 61.8243 36.9869 61.8759 37.2199 61.92L38.2575 62.077Z" fill="#F04B72"/>
<path d="M33.2535 52.5653C33.2535 52.3455 33.1883 52.1307 33.0662 51.9479C32.9441 51.7651 32.7705 51.6227 32.5675 51.5386C32.3644 51.4545 32.141 51.4325 31.9255 51.4753C31.7099 51.5182 31.5119 51.6241 31.3565 51.7795C31.2011 51.9349 31.0952 52.1329 31.0524 52.3485C31.0095 52.5641 31.0315 52.7876 31.1156 52.9906C31.1997 53.1937 31.3421 53.3673 31.5249 53.4894C31.7076 53.6115 31.9225 53.6767 32.1422 53.6767C32.437 53.6767 32.7196 53.5596 32.928 53.3512C33.1364 53.1428 33.2535 52.8601 33.2535 52.5653Z" fill="#F8D1B5"/>
<path d="M44.1277 52.5653C44.1277 52.3455 44.0626 52.1307 43.9405 51.9479C43.8184 51.7651 43.6448 51.6227 43.4418 51.5386C43.2387 51.4545 43.0153 51.4325 42.7997 51.4753C42.5842 51.5182 42.3862 51.6241 42.2307 51.7795C42.0753 51.9349 41.9695 52.1329 41.9266 52.3485C41.8837 52.5641 41.9058 52.7876 41.9899 52.9906C42.074 53.1937 42.2164 53.3673 42.3991 53.4894C42.5819 53.6115 42.7967 53.6767 43.0165 53.6767C43.3112 53.6767 43.5939 53.5596 43.8023 53.3512C44.0107 53.1428 44.1277 52.8601 44.1277 52.5653Z" fill="#F8D1B5"/>
<path d="M36.5481 60.1658C36.6295 60.4544 36.7995 60.7101 37.0342 60.8967C37.2688 61.0834 37.5561 61.1916 37.8556 61.206C38.6111 61.206 38.9987 60.2811 38.9987 59.5108C39.0234 59.085 38.8965 58.6643 38.6405 58.3233L36.5481 60.1658Z" fill="#F8D1B5"/>
<path d="M37.3427 61.0908C37.3108 61.3508 37.2691 61.6084 37.2299 61.866C37.2108 61.9868 37.2375 62.1102 37.3046 62.2123C37.3717 62.3144 37.4746 62.3878 37.5929 62.4181C37.6726 62.4387 37.7562 62.439 37.836 62.4188C37.9157 62.3987 37.9892 62.3588 38.0495 62.3029C38.1099 62.2469 38.1552 62.1767 38.1813 62.0986C38.2074 62.0206 38.2134 61.9372 38.1988 61.8562C38.1547 61.6281 38.1203 61.3999 38.0934 61.1693L37.3427 61.0908Z" fill="#F8D1B5"/>
<path d="M36.6585 60.3548C37.1172 58.7037 38.8074 58.8828 38.8074 57.8352C38.8099 57.7055 38.7637 57.5796 38.6778 57.4823C38.592 57.3851 38.4727 57.3237 38.3437 57.3102C38.0641 57.3102 36.1851 57.6414 36.1851 59.0471C36.1911 59.5066 36.3597 59.949 36.6609 60.2959L36.6585 60.3548Z" fill="#2D3069"/>
<path d="M33.7979 83.377V84.6331H35.9173C35.9538 84.6329 35.9895 84.6219 36.0199 84.6015C36.0503 84.5812 36.074 84.5524 36.0881 84.5186C36.1022 84.4849 36.1061 84.4478 36.0993 84.4119C36.0925 84.3759 36.0752 84.3428 36.0497 84.3166L35.1053 83.3721L33.7979 83.377Z" fill="#262697"/>
<path d="M42.1333 83.377V84.6331H44.2527C44.2896 84.6336 44.3258 84.6229 44.3565 84.6026C44.3873 84.5823 44.4112 84.5532 44.4253 84.519C44.4393 84.4849 44.4427 84.4474 44.4351 84.4113C44.4276 84.3752 44.4093 84.3422 44.3827 84.3166L43.4408 83.3721L42.1333 83.377Z" fill="#262697"/>
<path d="M39.4581 52.8071C44.3837 51.5678 47.3723 46.5698 46.1332 41.6436C44.8942 36.7173 39.8967 33.7284 34.9711 34.9676C30.0455 36.2068 27.0569 41.2049 28.296 46.1311C29.5351 51.0574 34.5325 54.0463 39.4581 52.8071Z" fill="#EBD586"/>
<path d="M37.4677 51.8291C41.855 51.6905 45.2992 48.021 45.1606 43.6332C45.0219 39.2453 41.3529 35.8007 36.9656 35.9393C32.5783 36.078 29.1341 39.7474 29.2728 44.1353C29.4114 48.5231 33.0804 51.9678 37.4677 51.8291Z" fill="url(#paint17_linear)"/>
<path d="M34.7793 46.8393C34.1171 46.092 33.734 45.1384 33.6951 44.1406L35.4367 43.8388C35.4354 44.7323 35.7882 45.5898 36.4179 46.2235C36.884 46.6896 37.3526 46.7927 37.6052 46.54C38.3264 45.8187 34.7548 43.4046 36.7884 41.3683C37.5881 40.5685 38.9201 40.4581 40.1785 41.4468L40.9144 40.7108L41.795 41.5891L41.0419 42.3423C41.5718 43.0174 41.8962 43.8307 41.9766 44.6852L40.2594 44.9159C40.1713 44.1266 39.8196 43.3901 39.261 42.8256C38.8636 42.4282 38.5251 42.4134 38.3092 42.6342C37.6371 43.3089 41.1131 45.8015 39.1506 47.7666C38.1989 48.7161 36.9086 48.748 35.6428 47.7421L34.9216 48.4634L34.0606 47.5753L34.7793 46.8393Z" fill="#D5B128"/>
<path d="M34.4483 46.3608C33.7816 45.6114 33.3981 44.6524 33.364 43.6499L35.1057 43.3506C35.105 44.2432 35.4578 45.0997 36.0869 45.7328C36.553 46.2014 37.0215 46.3044 37.2742 46.0493C37.9954 45.3304 34.4237 42.9139 36.4573 40.8801C37.257 40.0803 38.589 39.9674 39.8474 40.9586L40.5833 40.2226L41.464 41.1033L40.7109 41.854C41.2405 42.5303 41.5648 43.3443 41.6455 44.1994L39.9284 44.4276C39.8423 43.6383 39.4912 42.9014 38.9324 42.3374C38.535 41.9424 38.1965 41.9252 37.9806 42.1484C37.3085 42.8207 40.7845 45.3157 38.8196 47.2784C37.8703 48.2303 36.58 48.2597 35.3142 47.2563L34.593 47.9752L33.7295 47.0846L34.4483 46.3608Z" fill="#EBD586"/>
<path d="M175.338 10.5783L174.096 11.8204C173.973 11.9431 173.973 12.1419 174.096 12.2645L175.338 13.5066C175.46 13.6293 175.659 13.6293 175.782 13.5066L177.024 12.2645C177.146 12.1419 177.146 11.9431 177.024 11.8204L175.782 10.5783C175.659 10.4557 175.46 10.4557 175.338 10.5783Z" fill="#EBD586"/>
<path d="M220.153 49.1061C220.004 49.1057 219.862 49.0467 219.756 48.9418L218.529 47.7004C218.477 47.6484 218.436 47.5867 218.408 47.5187C218.38 47.4507 218.365 47.3778 218.365 47.3042C218.365 47.2305 218.38 47.1576 218.408 47.0897C218.436 47.0217 218.477 46.9599 218.529 46.9079L219.756 45.6813C219.862 45.5783 220.004 45.5207 220.152 45.5207C220.3 45.5207 220.442 45.5783 220.548 45.6813L221.79 46.9079C221.842 46.9602 221.883 47.0221 221.911 47.0903C221.94 47.1585 221.954 47.2316 221.954 47.3054C221.954 47.3788 221.94 47.4516 221.911 47.5194C221.883 47.5872 221.842 47.6487 221.79 47.7004L220.548 48.9418C220.444 49.0465 220.302 49.1056 220.153 49.1061ZM220.153 45.9953C220.144 45.9949 220.135 45.9964 220.127 45.9998C220.118 46.0032 220.111 46.0083 220.104 46.0149L218.863 47.2563C218.857 47.2626 218.851 47.2703 218.848 47.2787C218.845 47.2872 218.843 47.2963 218.843 47.3054C218.843 47.3145 218.845 47.3235 218.848 47.332C218.852 47.3404 218.857 47.3481 218.863 47.3545L220.104 48.5958C220.111 48.6024 220.118 48.6076 220.127 48.6111C220.135 48.6146 220.144 48.6165 220.153 48.6165C220.163 48.6165 220.172 48.6146 220.18 48.6111C220.188 48.6076 220.196 48.6024 220.202 48.5958L221.444 47.3692C221.45 47.3628 221.455 47.3551 221.459 47.3467C221.462 47.3382 221.464 47.3292 221.463 47.3201C221.464 47.311 221.462 47.3019 221.459 47.2934C221.455 47.285 221.45 47.2773 221.444 47.271L220.202 46.0149C220.196 46.0085 220.188 46.0034 220.18 46C220.172 45.9966 220.162 45.995 220.153 45.9953Z" fill="#ABB9E0"/>
<path d="M2.72534 62.2169C2.65189 62.2171 2.57912 62.2027 2.5113 62.1745C2.44348 62.1463 2.38198 62.1048 2.3304 62.0525L1.08916 60.8234C0.98406 60.7178 0.924979 60.5749 0.924806 60.4259C0.924678 60.3525 0.939142 60.2797 0.967357 60.2119C0.995571 60.1441 1.03697 60.0826 1.08916 60.0309L2.3304 58.7895C2.43688 58.6871 2.57885 58.6299 2.72657 58.6299C2.87428 58.6299 3.01626 58.6871 3.12273 58.7895L4.34926 60.0309C4.40144 60.0826 4.44285 60.1441 4.47106 60.2119C4.49927 60.2797 4.51374 60.3525 4.51361 60.4259C4.51344 60.5749 4.45436 60.7178 4.34926 60.8234L3.12273 62.0623C3.01573 62.1641 2.87297 62.2196 2.72534 62.2169ZM2.72534 59.106C2.70712 59.1063 2.68964 59.1133 2.67628 59.1256L1.43504 60.367C1.42244 60.3803 1.41541 60.3978 1.41541 60.4161C1.41541 60.4344 1.42244 60.4519 1.43504 60.4652L2.67628 61.7066C2.68267 61.7131 2.69031 61.7183 2.69873 61.7218C2.70716 61.7254 2.7162 61.7272 2.72534 61.7272C2.73448 61.7272 2.74352 61.7254 2.75195 61.7218C2.76037 61.7183 2.76801 61.7131 2.7744 61.7066L4.01564 60.4652C4.02824 60.4519 4.03527 60.4344 4.03527 60.4161C4.03527 60.3978 4.02824 60.3803 4.01564 60.367L2.7744 59.1256C2.76104 59.1133 2.74356 59.1063 2.72534 59.106Z" fill="#ABB9E0"/>
<path d="M56.2385 10.4242C55.9754 10.4247 55.7181 10.3471 55.4992 10.2013C55.2802 10.0555 55.1094 9.84801 55.0084 9.60508C54.9074 9.36215 54.8807 9.09471 54.9317 8.83661C54.9828 8.57851 55.1092 8.34134 55.295 8.15514C55.4809 7.96893 55.7178 7.84204 55.9758 7.79053C56.2337 7.73903 56.5012 7.76522 56.7443 7.86579C56.9874 7.96636 57.1952 8.13679 57.3414 8.35551C57.4876 8.57423 57.5656 8.83142 57.5656 9.09452C57.5656 9.44675 57.4259 9.7846 57.177 10.0339C56.9282 10.2832 56.5907 10.4236 56.2385 10.4242ZM56.2385 8.25792C56.0724 8.25744 55.9098 8.3063 55.7715 8.3983C55.6331 8.49031 55.5252 8.62133 55.4614 8.77475C55.3976 8.92816 55.3808 9.09707 55.4131 9.26005C55.4454 9.42304 55.5254 9.57277 55.6428 9.69026C55.7603 9.80775 55.91 9.88771 56.073 9.92001C56.2359 9.95231 56.4048 9.93548 56.5582 9.87167C56.7116 9.80787 56.8426 9.69994 56.9346 9.56159C57.0266 9.42323 57.0755 9.26067 57.075 9.09452C57.075 8.87264 56.9869 8.65985 56.83 8.50296C56.6731 8.34607 56.4603 8.25792 56.2385 8.25792Z" fill="#E7D07D"/>
<g opacity="0.73">
<path opacity="0.73" d="M224.875 72.3909L221.498 81.6547H225.638L224.875 72.3909Z" fill="#BDC6EB"/>
<path opacity="0.73" d="M224.875 72.3908L227.733 81.6547H225.638L224.875 72.3908Z" fill="#7F89BF"/>
</g>
<g opacity="0.73">
<path opacity="0.73" d="M1.9796 76.2303L0 81.6547H2.42606L1.9796 76.2303Z" fill="#BDC6EB"/>
<path opacity="0.73" d="M1.97974 76.2303L3.65271 81.6547H2.42619L1.97974 76.2303Z" fill="#7F89BF"/>
</g>
<defs>
<linearGradient id="paint0_linear" x1="30.3586" y1="11.7932" x2="30.3586" y2="28.9691" gradientUnits="userSpaceOnUse">
<stop stop-color="#E7ECFA"/>
<stop offset="1" stop-color="white"/>
</linearGradient>
<linearGradient id="paint1_linear" x1="12265.2" y1="1034.92" x2="12265.2" y2="1473.32" gradientUnits="userSpaceOnUse">
<stop stop-color="#E7ECFA"/>
<stop offset="1" stop-color="white"/>
</linearGradient>
<linearGradient id="paint2_linear" x1="10069" y1="2000" x2="12163.1" y2="-103.532" gradientUnits="userSpaceOnUse">
<stop stop-color="#E9EAF1"/>
<stop offset="1" stop-color="white"/>
</linearGradient>
<linearGradient id="paint3_linear" x1="3680.61" y1="1077.84" x2="4505.69" y2="-15.6835" gradientUnits="userSpaceOnUse">
<stop stop-color="#E9EAF1"/>
<stop offset="1" stop-color="white"/>
</linearGradient>
<linearGradient id="paint4_linear" x1="77.0254" y1="53.0707" x2="100.04" y2="53.0707" gradientUnits="userSpaceOnUse">
<stop stop-color="#D5D5F0"/>
<stop offset="1" stop-color="#908EDD"/>
</linearGradient>
<linearGradient id="paint5_linear" x1="152.619" y1="24.2685" x2="158.607" y2="28.804" gradientUnits="userSpaceOnUse">
<stop stop-color="#EAD692"/>
<stop offset="1" stop-color="#E0BF45"/>
</linearGradient>
<linearGradient id="paint6_linear" x1="146.699" y1="28.7115" x2="153.022" y2="33.6149" gradientUnits="userSpaceOnUse">
<stop stop-color="#ABB9E0"/>
<stop offset="1" stop-color="#909ACC"/>
</linearGradient>
<linearGradient id="paint7_linear" x1="6363.05" y1="1080.11" x2="6687.71" y2="1080.11" gradientUnits="userSpaceOnUse">
<stop stop-color="#ABB9E0"/>
<stop offset="1" stop-color="#909ACC"/>
</linearGradient>
<linearGradient id="paint8_linear" x1="132.167" y1="67.6117" x2="83.1186" y2="42.2074" gradientUnits="userSpaceOnUse">
<stop stop-color="#93A7DE"/>
<stop offset="0.29" stop-color="#A3B8F0"/>
<stop offset="1" stop-color="#F0E3FD"/>
</linearGradient>
<linearGradient id="paint9_linear" x1="17952.5" y1="10859.9" x2="13830.4" y2="6738.3" gradientUnits="userSpaceOnUse">
<stop stop-color="#ABB9E0"/>
<stop offset="1" stop-color="#909ACC"/>
</linearGradient>
<linearGradient id="paint10_linear" x1="17333.4" y1="10240.6" x2="14862.6" y2="7770.15" gradientUnits="userSpaceOnUse">
<stop stop-color="#ABB9E0"/>
<stop offset="1" stop-color="#909ACC"/>
</linearGradient>
<linearGradient id="paint11_linear" x1="206.826" y1="69.15" x2="220.458" y2="69.15" gradientUnits="userSpaceOnUse">
<stop stop-color="#DFE4F4"/>
<stop offset="1" stop-color="#96A6E1"/>
</linearGradient>
<linearGradient id="paint12_linear" x1="-358.895" y1="723.12" x2="-983.616" y2="723.12" gradientUnits="userSpaceOnUse">
<stop stop-color="#ABB9E0"/>
<stop offset="1" stop-color="#909ACC"/>
</linearGradient>
<linearGradient id="paint13_linear" x1="-309.378" y1="2494.74" x2="-618.773" y2="2567.13" gradientUnits="userSpaceOnUse">
<stop stop-color="#ABB9E0"/>
<stop offset="1" stop-color="#909ACC"/>
</linearGradient>
<linearGradient id="paint14_linear" x1="190.001" y1="64.4003" x2="203.826" y2="64.4003" gradientUnits="userSpaceOnUse">
<stop stop-color="#EBD586"/>
<stop offset="1" stop-color="#E4B762"/>
</linearGradient>
<linearGradient id="paint15_linear" x1="3610.28" y1="9366.36" x2="4263.68" y2="9366.36" gradientUnits="userSpaceOnUse">
<stop stop-color="#EBD586"/>
<stop offset="1" stop-color="#E4B762"/>
</linearGradient>
<linearGradient id="paint16_linear" x1="122.427" y1="63.3822" x2="164.234" y2="105.185" gradientUnits="userSpaceOnUse">
<stop stop-color="#DCB624"/>
<stop offset="0.52" stop-color="#E1C24F"/>
<stop offset="1" stop-color="#DCB624"/>
</linearGradient>
<linearGradient id="paint17_linear" x1="6591.85" y1="8946.63" x2="5436.08" y2="10102.4" gradientUnits="userSpaceOnUse">
<stop stop-color="#DCB624"/>
<stop offset="0.52" stop-color="#E1C24F"/>
<stop offset="1" stop-color="#DCB624"/>
</linearGradient>
</defs>
</svg>
