<svg width="20" height="20" viewBox="0 0 20 20" fill="none" xmlns="http://www.w3.org/2000/svg">
<mask id="mask0" mask-type="alpha" maskUnits="userSpaceOnUse" x="0" y="0" width="20" height="20">
<rect x="0.5" y="0.5" width="19" height="19" rx="9.5" fill="#B6B6FB" stroke="#BDC6CF"/>
</mask>
<g mask="url(#mask0)">
<rect x="1" y="1" width="18" height="18" rx="9" stroke="#BDC6CF" stroke-width="2"/>
<path d="M6.24877 15.1631L7.4571 11.4443C7.59098 11.0322 7.44432 10.5809 7.09383 10.3262L3.93039 8.02786L7.84062 8.02786C8.27384 8.02786 8.6578 7.7489 8.79167 7.33688L10 3.61803L11.2083 7.33688C11.3422 7.7489 11.7262 8.02786 12.1594 8.02786H16.0696L12.9062 10.3262C12.5557 10.5809 12.409 11.0323 12.5429 11.4443L13.7512 15.1631L10.5878 12.8647C10.2373 12.6101 9.7627 12.6101 9.41221 12.8647L6.24877 15.1631ZM6.24877 15.1631L5.77325 15.0086L6.24877 15.1631L6.54267 15.5676L6.24877 15.1631Z" fill="#BDC6CF" stroke="#BDC6CF"/>
</g>
</svg>
