<svg width="64" height="64" viewBox="0 0 64 64" fill="none" xmlns="http://www.w3.org/2000/svg">
<rect width="64" height="64" rx="32" fill="white"/>
<mask id="mask0" mask-type="alpha" maskUnits="userSpaceOnUse" x="0" y="0" width="64" height="64">
<rect width="64" height="64" rx="32" fill="url(#paint0_linear)"/>
</mask>
<g mask="url(#mask0)">
<path fill-rule="evenodd" clip-rule="evenodd" d="M9.88795 23.265C4.7204 23.3386 0 26.8319 0 32C0 49.6731 14.3269 64 32 64C41.2939 64 40.2609 53.1638 31.409 50.3318L26.4473 48.7443C25.0217 48.2882 23.5442 47.8619 22.2851 47.0526C20.8525 46.1319 19.1992 44.72 19.1992 43.4359C19.1992 40.4766 20.2071 37.6057 22.057 35.2959L31.4457 23.5726C31.5424 23.4518 31.6753 23.3295 31.6753 23.1748C31.6753 23.0307 31.5773 22.9587 31.3812 22.9587L9.88795 23.265ZM30.9589 0.0166165C16.3188 0.484577 22.3374 16.1761 36.9839 15.9999C40.6648 15.9999 40.6648 19.8755 40.6648 20.423C40.6648 22.3435 40.0074 24.2062 38.8019 25.7013L28.3348 38.683C28.2377 38.8034 28.1047 38.9256 28.1047 39.0803C28.1047 39.3569 28.5283 39.3225 28.7999 39.3748C30.8833 39.7762 40.6241 41.5833 47.1991 41.5999C49.59 41.6059 52.3914 41.3773 55.1038 41.062C59.9327 40.5006 64 36.8614 64 32C64 14.3269 49.6731 0 32 0C31.6516 0 31.3046 0.00556686 30.9589 0.0166165Z" fill="url(#paint1_linear)"/>
</g>
<defs>
<linearGradient id="paint0_linear" x1="6.6129" y1="55.5001" x2="49.4264" y2="55.5355" gradientUnits="userSpaceOnUse">
<stop stop-color="#6523DF"/>
<stop offset="1" stop-color="#DF2389"/>
</linearGradient>
<linearGradient id="paint1_linear" x1="6.6129" y1="55.5001" x2="49.4264" y2="55.5355" gradientUnits="userSpaceOnUse">
<stop stop-color="#6523DF"/>
<stop offset="1" stop-color="#DF2389"/>
</linearGradient>
</defs>
</svg>
