<svg width="1273" height="351" viewBox="0 0 1273 351" fill="none" xmlns="http://www.w3.org/2000/svg">
<path fill-rule="evenodd" clip-rule="evenodd" d="M1200.59 28.5084C1169.91 22.8333 1129.74 33.8861 1087.54 59.1281C1045.32 84.3801 1000.99 123.871 961.968 175.194C947.237 194.567 936.516 215.261 926.871 235.358C924.865 239.538 922.906 243.69 920.968 247.798C913.579 263.463 906.487 278.496 898.221 291.993C887.793 309.018 875.521 323.552 858.484 333.752C841.449 343.95 819.609 349.839 790.006 349.501C760.363 349.162 742.688 344.357 732.811 337.82C727.882 334.557 724.905 330.87 723.338 327.095C721.77 323.32 721.598 319.422 722.336 315.716C722.617 314.305 723.03 312.922 723.547 311.588C729.163 311.368 733.809 310.586 737.168 309.169C740.96 307.57 743.216 305.104 743.216 301.656C743.216 299.988 742.929 298.664 742.379 297.678C741.823 296.678 741.007 296.047 740.014 295.769C738.075 295.227 735.587 296.061 733.135 297.689C729.274 300.252 725.194 304.984 722.861 310.611C722.374 310.626 721.88 310.637 721.378 310.644C708.308 310.825 690.296 308.226 670.602 303.409C631.204 293.772 585.241 275.297 558.828 252.622C488.271 189.47 415.26 189.485 336.681 189.5C335.455 189.5 334.228 189.5 333 189.5C299.804 189.5 272.636 197.336 254.036 206.758C251.561 202.971 248.062 198.92 243.336 194.63C239.606 191.244 234.357 188.964 228.03 187.583C221.7 186.202 214.256 185.712 206.098 185.933C189.781 186.374 170.547 189.657 151.529 194.39C132.507 199.123 113.681 205.311 98.176 211.571C82.6921 217.822 70.4578 224.169 64.6705 229.24L65.3295 229.992C70.9771 225.044 83.068 218.749 98.5504 212.498C114.011 206.256 132.793 200.083 151.77 195.36C170.751 190.637 189.907 187.371 206.125 186.932C214.233 186.713 221.591 187.201 227.817 188.56C234.047 189.92 239.11 192.144 242.664 195.371C247.31 199.588 250.729 203.545 253.14 207.216C251.567 208.03 250.056 208.854 248.611 209.685C239.347 215.016 232.726 220.652 229.217 225.562C227.465 228.013 226.458 230.327 226.328 232.36C226.195 234.427 226.975 236.176 228.711 237.408C232.037 239.769 236.933 240.329 241.766 239.382C246.609 238.433 251.484 235.953 254.801 232.107C258.132 228.246 259.876 223.023 258.453 216.67C257.822 213.856 256.573 210.829 254.575 207.606C273.028 198.277 300.007 190.5 333 190.5C333.597 190.5 334.194 190.5 334.79 190.5L336.593 190.5C415.227 190.485 487.895 190.472 558.167 253.373L558.5 253L558.174 253.379C584.762 276.204 630.904 294.728 670.364 304.38C690.099 309.207 708.203 311.826 721.392 311.644C721.568 311.642 721.744 311.639 721.919 311.635C722.101 311.632 722.283 311.628 722.464 311.623C721.997 312.887 721.62 314.191 721.355 315.521C720.585 319.39 720.759 323.493 722.414 327.479C724.07 331.465 727.192 335.299 732.259 338.654C742.377 345.351 760.287 350.161 789.994 350.501C819.741 350.841 841.772 344.922 858.997 334.61C876.22 324.299 888.597 309.621 899.073 292.515C907.371 278.968 914.493 263.87 921.885 248.199L921.886 248.198L921.893 248.183C923.825 244.086 925.777 239.949 927.772 235.791C937.411 215.708 948.097 195.089 962.764 175.799C1001.72 124.565 1045.95 85.165 1088.05 59.9864C1130.17 34.7979 1170.08 23.8809 1200.41 29.4917L1200.59 28.5084ZM736.78 308.248C733.665 309.562 729.314 310.327 723.965 310.569C726.244 305.322 730.081 300.917 733.688 298.522C736.077 296.936 738.241 296.312 739.744 296.732C740.472 296.936 741.075 297.39 741.506 298.165C741.945 298.952 742.216 300.091 742.216 301.656C742.216 304.544 740.371 306.732 736.78 308.248ZM249.11 210.552C250.567 209.714 252.091 208.882 253.682 208.062C255.653 211.23 256.87 214.178 257.477 216.889C258.828 222.919 257.178 227.821 254.044 231.454C250.897 235.102 246.237 237.487 241.573 238.401C236.899 239.317 232.315 238.74 229.289 236.593C227.848 235.57 227.215 234.159 227.326 232.424C227.439 230.654 228.332 228.52 230.031 226.143C233.425 221.395 239.911 215.845 249.11 210.552Z" fill="#BABAE5"/>
<path d="M42.6452 214.436L67.3853 214.593L26.8497 260.205L42.6452 214.436Z" fill="#ECECEC"/>
<path d="M81.5668 249.183L67.1346 214.106L13.0762 274.106L81.5668 249.183Z" fill="#9A9AD7"/>
<path d="M31.5293 262.101L76.4761 216.675L102.556 225.387L31.5293 262.101Z" fill="#ECECEC"/>
<path d="M1218.47 0.288866L1196.46 12.0695L1254.09 33.6951L1218.47 0.288866Z" fill="#ECECEC"/>
<path d="M1200.09 49.6043L1196.46 11.5171L1272.92 39.6178L1200.09 49.6043Z" fill="#9A9AD7"/>
<path d="M1250.81 37.5888L1189.33 18.2043L1170.16 38.248L1250.81 37.5888Z" fill="#ECECEC"/>
</svg>
