<svg width="906" height="591" viewBox="0 0 906 591" fill="none" xmlns="http://www.w3.org/2000/svg">
<path fill-rule="evenodd" clip-rule="evenodd" d="M374.369 287.651C405.259 322.343 428.941 360.598 401.8 376.185C346.913 407.77 268.656 242.983 274.195 226.508C287.772 186.155 366.293 278.554 374.369 287.651Z" fill="#4747B8"/>
<path fill-rule="evenodd" clip-rule="evenodd" d="M312.937 454.906L306.143 489.659V591H212.726L218.052 462.861C218.052 462.861 295.823 444.894 312.937 454.906Z" fill="#4747B8"/>
<path fill-rule="evenodd" clip-rule="evenodd" d="M160.966 492.021C160.966 492.021 142.13 507.513 125.863 536.777C109.596 566.04 109.596 591 109.596 591H221.755L238.022 462.574C238.022 462.574 187.599 481.988 160.966 492.021Z" fill="#4747B8"/>
<path fill-rule="evenodd" clip-rule="evenodd" d="M178.874 451.871L153.377 466.92C153.377 466.92 185.284 580.089 221.246 580.298C257.207 580.506 279.858 466.269 279.858 466.269L178.874 451.871Z" fill="#4747B8"/>
<path fill-rule="evenodd" clip-rule="evenodd" d="M188.71 71.9739C188.71 71.9739 188.029 65.8996 194.513 68.2466C195.339 68.5441 195.696 67.8928 195.716 66.5586C195.692 66.3768 195.726 66.175 195.722 65.9537C197.124 3.64253 274.812 88.0418 292.511 41.5483C291.991 48.8543 288.692 58.4885 281.303 67.6903C263.258 90.3114 236.546 99.3841 221.02 96.6317C205.494 93.8793 191.418 90.195 188.71 71.9739Z" fill="#4747B8"/>
<path fill-rule="evenodd" clip-rule="evenodd" d="M194.628 90.9944C192.958 96.2335 190.993 100.921 188.692 103.071C182.095 109.319 177.229 89.953 175.326 82.592C173.423 75.2309 170.181 64.2961 175.675 63.3596C178.041 63.2026 180.417 63.4193 182.714 64.0018C182.937 55.7812 174.379 24.0396 209.732 25.8275C237.71 27.2392 257.018 42.602 268.822 30.1669C280.625 17.7317 287.024 42.6014 268.832 65.1927C250.639 87.784 223.755 96.8783 208.136 94.1377C203.565 93.402 199.052 92.3517 194.628 90.9944Z" fill="#4747B8"/>
<path fill-rule="evenodd" clip-rule="evenodd" d="M269.282 61.5648C269.282 61.5648 264.767 89.1568 258.147 95.3257C251.526 101.495 246.697 82.4304 244.794 75.1739C242.891 67.9174 239.694 57.1627 245.199 56.2399C250.705 55.3172 269.282 61.5648 269.282 61.5648Z" fill="#4747B8"/>
<path fill-rule="evenodd" clip-rule="evenodd" d="M208.984 100.645L190.602 111.321L187.43 201.038L248.724 207.667L242.699 129.861L208.984 100.645Z" fill="#4747B8"/>
<path fill-rule="evenodd" clip-rule="evenodd" d="M237.953 206.565L248.724 207.667L242.537 131.503L229.909 121.076L228.293 122.022L237.953 206.565Z" fill="#4747B8"/>
<path fill-rule="evenodd" clip-rule="evenodd" d="M209.577 100.645L200.414 106.054C197.258 137.069 216.577 174.92 246.778 176.533L243.253 130.283L209.577 100.645Z" fill="#4747B8"/>
<path fill-rule="evenodd" clip-rule="evenodd" d="M256.275 41.8309C255.361 47.1346 279.321 148.222 245.624 153.921C211.928 159.62 184.923 118.468 187.435 85.1594C189.946 51.8505 256.275 41.8309 256.275 41.8309Z" fill="#4747B8"/>
<path fill-rule="evenodd" clip-rule="evenodd" d="M231.069 152.998C204.363 146.573 185.185 113.037 187.444 85.0053C188.014 78.0337 191.442 72.1172 196.445 67.0056C202.611 67.4251 207.694 67.9878 207.694 67.9878C207.694 67.9878 207.163 110.881 217.019 120.068C224.546 127.043 228.365 143.184 231.069 152.998Z" fill="#4747B8"/>
<path fill-rule="evenodd" clip-rule="evenodd" d="M256.291 41.8285C255.928 43.897 259.401 60.6961 261.67 80.6003C244.564 94.0996 223.962 98.6776 211.033 95.8252C202.203 93.8664 193.879 91.6701 187.816 86.935C187.847 86.1519 187.891 85.3793 187.948 84.605C190.473 51.7973 256.291 41.8285 256.291 41.8285Z" fill="#4747B8"/>
<path fill-rule="evenodd" clip-rule="evenodd" d="M256.292 41.8285C255.443 46.8518 277.23 140.036 249.624 151.978C249.6 151.508 249.709 151.042 249.939 150.635C253.934 143.219 249.744 138.63 248.418 134.876C247.285 131.993 247.208 128.795 248.199 125.869C249.014 122.95 247.166 123.698 246.803 121.5C246.439 119.301 248.83 118.199 248.59 116.843C248.351 115.487 246.797 112.378 247.36 110.548C247.923 108.718 254.831 108.049 255.339 105.354C255.848 102.659 242.829 57.9018 242.204 55.6274L250.88 42.803C254.241 42.1369 256.292 41.8285 256.292 41.8285Z" fill="#4747B8"/>
<path fill-rule="evenodd" clip-rule="evenodd" d="M178.462 70.5869C178.462 70.5869 177.784 64.5374 184.235 66.8757C189.984 68.9999 170.98 24.7956 212.09 26.9527C239.758 28.397 258.87 43.7565 270.539 31.357C282.207 18.9575 288.542 43.7936 270.581 66.3213C252.62 88.8491 226.046 97.8932 210.597 95.1379C195.148 92.3825 181.147 88.7356 178.462 70.5869Z" fill="#4747B8"/>
<path fill-rule="evenodd" clip-rule="evenodd" d="M178.453 70.5107C178.453 70.5107 177.771 64.4359 184.256 66.7831C185.084 67.0927 185.439 66.4292 185.448 65.1086L185.439 65.0359C185.414 64.8541 185.389 64.6603 185.446 64.4431C186.849 2.12623 264.544 86.5209 282.245 40.0231C281.724 47.3298 278.425 56.9648 271.035 66.1675C252.989 88.7907 226.263 97.878 210.734 95.1133C195.204 92.3486 181.149 88.7351 178.453 70.5107Z" fill="#4747B8"/>
<path fill-rule="evenodd" clip-rule="evenodd" d="M202.874 70.3584C202.874 70.3584 198.346 97.9518 191.738 104.119C185.129 110.286 180.275 91.2256 178.384 83.9675C176.494 76.7095 173.274 65.97 178.79 65.0338C184.306 64.0975 202.874 70.3584 202.874 70.3584Z" fill="#4747B8"/>
<path fill-rule="evenodd" clip-rule="evenodd" d="M191.967 98.8993C191.967 98.8993 185.074 87.8645 179.523 91.1762C173.972 94.4879 182.394 119.856 189.79 120.797C197.186 121.738 200.381 113.476 191.967 98.8993Z" fill="#4747B8"/>
<path fill-rule="evenodd" clip-rule="evenodd" d="M118.352 223.711L190.26 182.371C190.26 182.371 236.081 206.394 249.695 184.944C263.101 192.992 304.99 208.833 312.363 231.125C335.501 301.11 313.149 455.239 308.16 499.408C306.305 515.859 159.221 518.176 145.827 502.993C139.61 495.945 154.244 408.167 141.49 357.389C126.781 298.562 118.352 223.711 118.352 223.711Z" fill="#4747B8"/>
<path fill-rule="evenodd" clip-rule="evenodd" d="M188.178 69.538C188.193 69.6508 207.269 108.329 251.163 70.7979L251.951 71.8283C206.844 110.413 187.09 70.3196 187.041 70.2241L188.178 69.538Z" fill="#4747B8"/>
<path fill-rule="evenodd" clip-rule="evenodd" d="M171.71 63.0196C171.71 63.0196 179.808 56.5505 185.112 66.5163L184.084 67.2047C179.41 58.4481 172.366 64.0874 172.346 64.1026L171.71 63.0196Z" fill="#4747B8"/>
<path fill-rule="evenodd" clip-rule="evenodd" d="M176.828 56.6637C176.828 56.6637 187.63 56.7667 186.313 68.3473L185.069 68.2377C186.187 58.1171 176.817 57.9741 176.793 57.9773L176.828 56.6637Z" fill="#4747B8"/>
<path fill-rule="evenodd" clip-rule="evenodd" d="M231.553 121.43C231.553 121.43 243.98 122.961 250.456 118.801L251.137 119.971C244.207 124.393 231.47 122.789 231.384 122.801L231.553 121.43Z" fill="#4747B8"/>
<path fill-rule="evenodd" clip-rule="evenodd" d="M233.987 120.747C233.987 120.747 232.385 122.124 233.141 123.413L231.776 124.15C230.472 121.927 233.069 119.665 233.069 119.665L233.987 120.747Z" fill="#4747B8"/>
<path fill-rule="evenodd" clip-rule="evenodd" d="M196.414 119.279C196.388 119.164 196.407 119.043 196.467 118.941C196.527 118.839 196.624 118.764 196.737 118.73C196.792 118.714 196.85 118.709 196.907 118.716C196.963 118.722 197.018 118.74 197.068 118.768C197.118 118.796 197.162 118.833 197.197 118.878C197.232 118.923 197.257 118.975 197.272 119.03C197.282 119.103 202.617 141.352 226.122 149.939C226.176 149.959 226.225 149.99 226.266 150.029C226.308 150.068 226.341 150.115 226.364 150.167C226.387 150.22 226.399 150.276 226.4 150.333C226.401 150.39 226.391 150.447 226.37 150.5C226.327 150.611 226.242 150.702 226.133 150.753C226.025 150.805 225.901 150.812 225.787 150.774C201.865 142.032 196.436 119.351 196.414 119.279Z" fill="#4747B8"/>
<path fill-rule="evenodd" clip-rule="evenodd" d="M181.413 96.3129C186.845 101.14 189.938 105.499 191.469 108.792C194.995 116.417 190.131 118.358 186.41 107.547L187.523 107.116C190.282 115.694 193.068 114.596 190.292 109.022C187.835 104.511 184.53 100.502 180.55 97.2055L181.413 96.3129Z" fill="#4747B8"/>
<path fill-rule="evenodd" clip-rule="evenodd" d="M213.501 110.894C214.648 110.537 215.857 110.398 217.054 110.486C218.252 110.574 219.411 110.888 220.462 111.407C221.513 111.926 222.432 112.64 223.165 113.504C223.898 114.369 224.428 115.367 224.722 116.437C225.31 118.65 224.95 121.006 223.716 123.019C222.482 125.033 220.468 126.55 218.089 127.26C216.942 127.617 215.732 127.756 214.535 127.668C213.338 127.58 212.179 127.266 211.128 126.747C210.077 126.228 209.157 125.514 208.425 124.65C207.692 123.785 207.162 122.787 206.868 121.717C206.277 119.504 206.636 117.146 207.87 115.132C209.104 113.118 211.12 111.601 213.501 110.894Z" fill="#4747B8"/>
<path fill-rule="evenodd" clip-rule="evenodd" d="M229.493 97.1357C229.859 97.0807 230.23 97.0823 230.584 97.1403C230.938 97.1983 231.267 97.3116 231.551 97.4731C231.835 97.6347 232.067 97.8411 232.235 98.0797C232.403 98.3184 232.501 98.5843 232.525 98.861C232.573 99.4336 232.328 100.015 231.84 100.486C231.352 100.957 230.658 101.282 229.901 101.394C229.536 101.449 229.165 101.447 228.812 101.389C228.459 101.33 228.131 101.217 227.849 101.055C227.566 100.893 227.335 100.686 227.169 100.448C227.003 100.209 226.906 99.9428 226.885 99.6663C226.833 99.0952 227.075 98.5142 227.56 98.0433C228.045 97.5723 228.737 97.2474 229.493 97.1357Z" fill="#4747B8"/>
<path fill-rule="evenodd" clip-rule="evenodd" d="M221.016 98.3202L233.663 96.5829L233.779 97.9423L221.133 99.6797L221.016 98.3202Z" fill="#4747B8"/>
<path fill-rule="evenodd" clip-rule="evenodd" d="M253.375 93.4406L263.003 91.2601L263.403 93.1657L253.776 95.3573L253.375 93.4406Z" fill="#4747B8"/>
<path fill-rule="evenodd" clip-rule="evenodd" d="M256.82 93.5365C257.088 93.4616 257.369 93.4436 257.645 93.4838C257.92 93.5241 258.185 93.6216 258.422 93.7703C258.66 93.919 258.864 94.1157 259.024 94.348C259.183 94.5804 259.294 94.8434 259.348 95.1207C259.428 95.6815 259.304 96.2517 259 96.7252C258.696 97.1986 258.232 97.543 257.695 97.694C257.426 97.7692 257.145 97.7869 256.868 97.746C256.592 97.7052 256.326 97.6067 256.089 97.4568C255.851 97.3069 255.646 97.1089 255.488 96.8751C255.329 96.6413 255.219 96.3768 255.166 96.0983C255.073 95.5371 255.192 94.962 255.499 94.4873C255.805 94.0127 256.277 93.6732 256.82 93.5365Z" fill="#4747B8"/>
<path fill-rule="evenodd" clip-rule="evenodd" d="M109.096 353.08C79.878 392.275 66.262 419.985 39.5105 409.456C-14.6131 388.169 106.156 229.269 123.734 221.406C139.006 214.62 150.809 221.738 149.163 241.22C153.993 304.62 114.085 343.103 109.096 353.08Z" fill="#4747B8"/>
<path d="M181.721 532.392L183.798 534.707L132.658 580.445L130.581 578.13L181.721 532.392Z" fill="#4747B8"/>
<path fill-rule="evenodd" clip-rule="evenodd" d="M434.263 312.898C387.771 321.461 345.283 336.975 359.513 364.758C383.094 411.006 477.918 366.807 517.205 341.356C520.668 326.435 519.697 315.241 507.258 305.9C477.992 304.858 441.058 311.644 434.263 312.898Z" fill="#4747B8"/>
<path fill-rule="evenodd" clip-rule="evenodd" d="M106.958 425.056C85.6034 388.626 51.7941 358.663 30.8973 370.772C-3.97352 390.975 72.5022 481.882 106.958 511.998C114.063 507.116 120.121 499.636 129.05 493.47C124.774 470.666 116.935 446.436 106.958 425.056Z" fill="#4747B8"/>
<path fill-rule="evenodd" clip-rule="evenodd" d="M78.4191 378.31C78.5481 378.483 121.77 436.096 135.171 493.847L131.887 494.544C118.616 437.311 75.6671 380.051 75.5511 379.876L78.4191 378.31Z" fill="#4747B8"/>
<path fill-rule="evenodd" clip-rule="evenodd" d="M178.532 187.235C178.7 187.338 233.525 226.514 259.759 187.235L262.345 188.79C234.331 230.745 176.944 189.682 176.728 189.568L178.532 187.235Z" fill="#4747B8"/>
<path fill-rule="evenodd" clip-rule="evenodd" d="M136.827 487.017C137.724 485.884 159.163 477.405 159.163 477.405C159.163 477.405 184.043 506.772 184.061 509.631C184.078 512.49 161.34 527.41 157.123 527.493C152.906 527.575 132.996 516.68 132.996 516.68L136.827 487.017Z" fill="#4747B8"/>
<path fill-rule="evenodd" clip-rule="evenodd" d="M162.706 480.501C162.689 480.402 162.664 480.309 162.63 480.223C161.608 477.39 123.914 488.481 123.914 488.481C106.018 504.06 107.673 511.319 108.637 513.749L135.158 518.439C155.206 506.262 162.706 480.501 162.706 480.501Z" fill="#4747B8"/>
<path fill-rule="evenodd" clip-rule="evenodd" d="M139.303 223.234C139.362 223.291 161.883 242.587 139.751 315.662L136.838 315.073C158.591 243.292 137.144 224.941 137.085 224.883L139.303 223.234Z" fill="#4747B8"/>
<path fill-rule="evenodd" clip-rule="evenodd" d="M528.063 273.188C527.032 273.365 526.123 273.942 525.532 274.793C524.941 275.643 524.716 276.699 524.907 277.731C525.014 278.31 525.256 278.86 525.613 279.336C528.991 286.692 528.348 297.796 528.207 299.784L528.164 299.838C528.14 300.288 528.166 300.741 528.242 301.189C528.377 301.9 528.653 302.581 529.053 303.191C529.454 303.801 529.97 304.329 530.573 304.743C531.176 305.157 531.854 305.449 532.565 305.602C533.277 305.755 534.009 305.766 534.719 305.634C535.961 305.403 537.081 304.763 537.899 303.816C538.717 302.869 539.186 301.669 539.233 300.409C540.067 288.046 532.222 274.494 531.94 274.622C531.487 274.047 530.882 273.608 530.196 273.354C529.511 273.1 528.771 273.043 528.063 273.188Z" fill="#4747B8"/>
<circle cx="585.889" cy="424.869" r="144.889" fill="#4747B8"/>
<path d="M670.262 411.486L542.83 337.912V485.059L670.262 411.486Z" fill="#4747B8"/>
<path fill-rule="evenodd" clip-rule="evenodd" d="M587.023 287.476L587.088 287.323C587.205 287.023 587.199 286.645 587.072 286.213C586.944 285.781 586.697 285.303 586.345 284.807C585.992 284.312 585.543 283.809 585.022 283.328C584.501 282.847 583.919 282.399 583.311 282.009C582.071 281.213 580.8 280.698 579.771 280.573C578.742 280.448 578.035 280.723 577.801 281.34L577.753 281.501L571.051 304.109C570.989 304.267 570.953 304.442 570.943 304.632C570.942 305.091 571.21 305.681 571.7 306.299C572.19 306.918 572.87 307.524 573.621 308.012C574.457 308.544 575.31 308.895 576.014 308.995C576.717 309.095 577.22 308.938 577.422 308.553L577.472 308.443L587.023 287.476Z" fill="#4747B8"/>
<path fill-rule="evenodd" clip-rule="evenodd" d="M576.516 283.898L576.61 283.772C576.769 283.502 576.807 283.149 576.722 282.734C576.637 282.319 576.43 281.851 576.115 281.356C575.799 280.861 575.381 280.35 574.885 279.852C574.388 279.355 573.824 278.881 573.224 278.459C571.999 277.601 570.71 277.002 569.632 276.79C568.554 276.578 567.772 276.77 567.455 277.324L567.385 277.469L557.508 298.15C557.311 298.541 557.449 299.146 557.893 299.835C558.336 300.523 559.05 301.24 559.881 301.832C560.725 302.418 561.611 302.829 562.355 302.979C563.1 303.129 563.647 303.007 563.883 302.639L576.516 283.898Z" fill="#4747B8"/>
<path fill-rule="evenodd" clip-rule="evenodd" d="M570.067 277.994L570.158 277.831C570.307 277.489 570.316 277.06 570.184 276.569C570.052 276.078 569.782 275.535 569.389 274.972C568.996 274.41 568.489 273.838 567.896 273.292C567.304 272.745 566.639 272.234 565.94 271.789C564.512 270.884 563.036 270.298 561.828 270.156C560.62 270.013 559.775 270.326 559.474 271.027L559.402 271.201L550.379 297.123C550.196 297.614 550.403 298.328 550.955 299.11C551.507 299.892 552.36 300.68 553.328 301.303C554.313 301.92 555.326 302.322 556.162 302.426C556.998 302.53 557.592 302.329 557.825 301.863L570.067 277.994Z" fill="#4747B8"/>
<path fill-rule="evenodd" clip-rule="evenodd" d="M555.342 274.21L555.398 274.053C555.463 273.717 555.377 273.316 555.147 272.873C554.917 272.431 554.546 271.957 554.057 271.478C553.568 270.999 552.97 270.526 552.299 270.086C551.628 269.645 550.897 269.248 550.149 268.915C548.624 268.239 547.124 267.866 545.971 267.876C544.818 267.886 544.104 268.278 543.981 268.968L543.955 269.147L541.362 294.391C541.308 294.871 541.658 295.508 542.337 296.168C543.017 296.829 543.973 297.46 545.002 297.928C546.052 298.385 547.079 298.638 547.877 298.637C548.675 298.636 549.185 298.381 549.304 297.922L555.342 274.21Z" fill="#4747B8"/>
<rect x="0.627747" y="563.758" width="835.745" height="27.242" rx="13.621" fill="#4747B8"/>
<path fill-rule="evenodd" clip-rule="evenodd" d="M431.141 279.21C462.89 314.868 487.231 354.187 459.335 370.207C402.921 402.671 322.487 233.3 328.18 216.366C342.135 174.89 422.84 269.86 431.141 279.21Z" fill="#FCE8E8"/>
<path fill-rule="evenodd" clip-rule="evenodd" d="M368 451.119L361.017 486.84V591H265L270.475 459.296C270.475 459.296 350.41 440.829 368 451.119Z" fill="#281616"/>
<path fill-rule="evenodd" clip-rule="evenodd" d="M211.8 489.267C211.8 489.267 192.44 505.19 175.72 535.268C159 565.345 159 591 159 591H274.28L291 459C291 459 239.173 478.954 211.8 489.267Z" fill="#6D6DF6"/>
<path fill-rule="evenodd" clip-rule="evenodd" d="M230.206 448L204 463.468C204 463.468 236.795 579.785 273.757 580C310.718 580.214 334 462.799 334 462.799L230.206 448Z" fill="#6D6DF6"/>
<path fill-rule="evenodd" clip-rule="evenodd" d="M240.316 57.5314C240.316 57.5314 239.616 51.2881 246.28 53.7005C247.129 54.0062 247.496 53.3367 247.516 51.9654C247.492 51.7786 247.527 51.5712 247.523 51.3437C248.964 -12.7013 328.814 74.0465 347.005 26.2592C346.47 33.7685 343.08 43.6708 335.485 53.1286C316.939 76.3792 289.483 85.7043 273.525 82.8753C257.567 80.0463 243.099 76.2596 240.316 57.5314Z" fill="#281616"/>
<path fill-rule="evenodd" clip-rule="evenodd" d="M246.399 77.0812C244.682 82.466 242.662 87.2843 240.297 89.4937C233.516 95.9157 228.515 76.0108 226.56 68.445C224.604 60.8791 221.272 49.64 226.918 48.6774C229.35 48.516 231.792 48.7388 234.153 49.3375C234.382 40.8881 225.586 8.26328 261.923 10.101C290.68 11.5519 310.525 27.3422 322.657 14.5611C334.789 1.77989 341.366 27.3416 322.667 50.5615C303.969 73.7815 276.336 83.1288 260.282 80.312C255.584 79.5558 250.945 78.4763 246.399 77.0812Z" fill="white"/>
<path fill-rule="evenodd" clip-rule="evenodd" d="M323.13 46.8326C323.13 46.8326 318.489 75.1925 311.685 81.533C304.88 87.8735 299.916 68.2789 297.96 60.8204C296.004 53.362 292.719 42.3081 298.377 41.3597C304.036 40.4113 323.13 46.8326 323.13 46.8326Z" fill="#281616"/>
<path fill-rule="evenodd" clip-rule="evenodd" d="M261.154 87L242.261 97.9736L239 190.187L302 197L295.807 117.03L261.154 87Z" fill="#FFE1DA"/>
<path fill-rule="evenodd" clip-rule="evenodd" d="M290.929 195.868L302 197L295.64 118.717L282.661 108L281 108.972L290.929 195.868Z" fill="#FF8685"/>
<path fill-rule="evenodd" clip-rule="evenodd" d="M261.763 87L252.346 92.5596C249.102 124.438 268.959 163.342 300 165L296.377 117.463L261.763 87Z" fill="#412F2F"/>
<path fill-rule="evenodd" clip-rule="evenodd" d="M309.761 26.5497C308.821 32.001 333.448 135.901 298.814 141.759C264.18 147.616 236.424 105.32 239.005 71.0839C241.587 36.8481 309.761 26.5497 309.761 26.5497Z" fill="#FFD3CA"/>
<path fill-rule="evenodd" clip-rule="evenodd" d="M283.853 140.81C256.404 134.206 236.693 99.7374 239.015 70.9254C239.6 63.7599 243.124 57.6787 248.266 52.4249C254.603 52.8561 259.828 53.4344 259.828 53.4344C259.828 53.4344 259.282 97.5211 269.413 106.964C277.149 114.133 281.075 130.724 283.853 140.81Z" fill="#FFE1DA"/>
<path fill-rule="evenodd" clip-rule="evenodd" d="M309.777 26.5472C309.404 28.6733 312.974 45.9399 315.306 66.3979C297.724 80.2728 276.549 84.9782 263.261 82.0464C254.184 80.0331 245.629 77.7757 239.397 72.9089C239.429 72.104 239.475 71.3098 239.533 70.514C242.128 36.7934 309.777 26.5472 309.777 26.5472Z" fill="#FF8685"/>
<path fill-rule="evenodd" clip-rule="evenodd" d="M309.779 26.5472C308.905 31.7103 331.299 127.487 302.925 139.762C302.9 139.279 303.012 138.8 303.249 138.382C307.355 130.759 303.048 126.042 301.685 122.184C300.521 119.221 300.441 115.934 301.46 112.927C302.298 109.926 300.398 110.695 300.025 108.435C299.652 106.175 302.109 105.042 301.862 103.649C301.616 102.256 300.019 99.0601 300.598 97.179C301.177 95.2979 308.276 94.6102 308.799 91.8405C309.322 89.0708 295.941 43.0678 295.298 40.7301L304.215 27.5488C307.671 26.8642 309.779 26.5472 309.779 26.5472Z" fill="#FF8685"/>
<path fill-rule="evenodd" clip-rule="evenodd" d="M229.783 56.1059C229.783 56.1059 229.085 49.888 235.716 52.2914C241.626 54.4747 222.092 9.04035 264.346 11.2575C292.785 12.742 312.429 28.5288 324.422 15.7843C336.415 3.03979 342.926 28.567 324.465 51.7216C306.004 74.8762 278.691 84.172 262.812 81.34C246.933 78.5079 232.542 74.7595 229.783 56.1059Z" fill="#412F2F"/>
<path fill-rule="evenodd" clip-rule="evenodd" d="M229.773 56.0275C229.773 56.0275 229.073 49.7837 235.738 52.1962C236.589 52.5144 236.953 51.8324 236.963 50.4751L236.953 50.4004C236.929 50.2136 236.902 50.0143 236.961 49.7911C238.403 -14.2598 318.26 72.4832 336.454 24.6916C335.919 32.2016 332.528 42.1047 324.932 51.5635C306.383 74.8162 278.914 84.1564 262.952 81.3147C246.991 78.473 232.544 74.7591 229.773 56.0275Z" fill="#281616"/>
<path fill-rule="evenodd" clip-rule="evenodd" d="M254.874 55.871C254.874 55.871 250.22 84.2322 243.428 90.5711C236.636 96.91 231.646 77.3188 229.703 69.8588C227.76 62.3988 224.451 51.3605 230.12 50.3982C235.79 49.4359 254.874 55.871 254.874 55.871Z" fill="#281616"/>
<path fill-rule="evenodd" clip-rule="evenodd" d="M243.663 85.2061C243.663 85.2061 236.579 73.8642 230.873 77.2681C225.168 80.6719 233.824 106.746 241.426 107.714C249.028 108.681 252.312 100.188 243.663 85.2061Z" fill="#FFE1DA"/>
<path fill-rule="evenodd" clip-rule="evenodd" d="M168 213.49L241.909 171C241.909 171 289.005 195.692 302.998 173.645C316.777 181.917 359.832 198.199 367.409 221.111C391.191 293.044 368.218 451.461 363.09 496.859C361.183 513.768 210.006 516.149 196.24 500.544C189.849 493.3 204.891 403.08 191.782 350.888C176.664 290.424 168 213.49 168 213.49Z" fill="white"/>
<path fill-rule="evenodd" clip-rule="evenodd" d="M239.769 55.0278C239.785 55.1437 259.391 94.8985 304.507 56.3227L305.316 57.3818C258.955 97.0398 238.651 55.8311 238.6 55.733L239.769 55.0278Z" fill="#412F2F"/>
<path fill-rule="evenodd" clip-rule="evenodd" d="M222.842 48.328C222.842 48.328 231.166 41.6788 236.618 51.922L235.561 52.6295C230.757 43.6293 223.517 49.4255 223.496 49.4412L222.842 48.328Z" fill="#281616"/>
<path fill-rule="evenodd" clip-rule="evenodd" d="M228.103 41.7952C228.103 41.7952 239.206 41.9011 237.852 53.804L236.574 53.6913C237.722 43.289 228.092 43.142 228.067 43.1453L228.103 41.7952Z" fill="#281616"/>
<path fill-rule="evenodd" clip-rule="evenodd" d="M284.351 108.363C284.351 108.363 297.124 109.937 303.78 105.661L304.48 106.864C297.358 111.409 284.266 109.761 284.177 109.773L284.351 108.363Z" fill="#FF8685"/>
<path fill-rule="evenodd" clip-rule="evenodd" d="M286.853 107.662C286.853 107.662 285.206 109.077 285.983 110.402L284.58 111.159C283.24 108.875 285.909 106.55 285.909 106.55L286.853 107.662Z" fill="#FF8685"/>
<path fill-rule="evenodd" clip-rule="evenodd" d="M248.234 106.153C248.207 106.035 248.227 105.91 248.289 105.805C248.35 105.7 248.45 105.623 248.567 105.589C248.623 105.572 248.682 105.567 248.741 105.574C248.799 105.581 248.855 105.599 248.906 105.627C248.958 105.656 249.003 105.695 249.039 105.741C249.075 105.787 249.101 105.84 249.116 105.897C249.126 105.972 254.61 128.84 278.769 137.666C278.824 137.687 278.874 137.718 278.917 137.759C278.96 137.799 278.994 137.847 279.017 137.901C279.041 137.954 279.054 138.012 279.055 138.071C279.056 138.129 279.045 138.188 279.023 138.242C278.979 138.357 278.892 138.451 278.781 138.503C278.669 138.556 278.542 138.563 278.425 138.525C253.837 129.539 248.257 106.227 248.234 106.153Z" fill="white"/>
<path fill-rule="evenodd" clip-rule="evenodd" d="M232.815 82.5477C238.399 87.5093 241.578 91.9893 243.152 95.3742C246.775 103.211 241.777 105.206 237.952 94.0946L239.096 93.6512C241.931 102.468 244.795 101.34 241.942 95.6106C239.417 90.9739 236.019 86.8529 231.928 83.4651L232.815 82.5477Z" fill="#FF8685"/>
<path fill-rule="evenodd" clip-rule="evenodd" d="M265.796 97.5344C266.976 97.1674 268.219 97.0248 269.449 97.1154C270.679 97.206 271.871 97.5279 272.951 98.0614C274.031 98.5948 274.977 99.3286 275.73 100.218C276.483 101.107 277.027 102.132 277.33 103.231C277.934 105.507 277.564 107.928 276.296 109.997C275.028 112.067 272.958 113.627 270.512 114.356C269.333 114.723 268.09 114.866 266.86 114.775C265.629 114.684 264.438 114.363 263.358 113.829C262.278 113.296 261.332 112.562 260.579 111.673C259.826 110.784 259.282 109.758 258.979 108.659C258.372 106.384 258.74 103.961 260.009 101.891C261.278 99.8207 263.349 98.2613 265.796 97.5344Z" fill="#FF8685"/>
<path fill-rule="evenodd" clip-rule="evenodd" d="M282.234 83.3934C282.61 83.3369 282.992 83.3385 283.355 83.3981C283.719 83.4577 284.057 83.5742 284.349 83.7402C284.64 83.9062 284.88 84.1184 285.052 84.3637C285.224 84.609 285.326 84.8823 285.35 85.1667C285.4 85.7552 285.148 86.3529 284.646 86.837C284.145 87.3211 283.432 87.6549 282.653 87.7698C282.278 87.8264 281.897 87.8246 281.534 87.7648C281.171 87.7049 280.834 87.5881 280.544 87.4218C280.253 87.2554 280.015 87.0429 279.845 86.7974C279.674 86.5519 279.575 86.2786 279.553 85.9944C279.5 85.4075 279.748 84.8103 280.247 84.3262C280.746 83.8422 281.457 83.5082 282.234 83.3934Z" fill="#281616"/>
<path fill-rule="evenodd" clip-rule="evenodd" d="M273.521 84.6109L286.519 82.8252L286.639 84.2225L273.641 86.0081L273.521 84.6109Z" fill="#281616"/>
<path fill-rule="evenodd" clip-rule="evenodd" d="M306.78 79.5955L316.676 77.3543L317.087 79.3129L307.193 81.5655L306.78 79.5955Z" fill="#281616"/>
<path fill-rule="evenodd" clip-rule="evenodd" d="M310.321 79.6941C310.597 79.617 310.885 79.5986 311.169 79.6399C311.452 79.6813 311.724 79.7815 311.968 79.9343C312.212 80.0871 312.422 80.2893 312.586 80.5282C312.75 80.767 312.863 81.0373 312.92 81.3223C313.002 81.8987 312.875 82.4848 312.562 82.9714C312.249 83.4581 311.773 83.812 311.221 83.9673C310.944 84.0445 310.655 84.0627 310.371 84.0207C310.086 83.9788 309.814 83.8775 309.569 83.7235C309.325 83.5694 309.115 83.3658 308.952 83.1255C308.788 82.8852 308.676 82.6133 308.621 82.3271C308.526 81.7503 308.648 81.1592 308.963 80.6713C309.278 80.1834 309.763 79.8346 310.321 79.6941Z" fill="#281616"/>
<path fill-rule="evenodd" clip-rule="evenodd" d="M158.487 346.459C128.456 386.745 114.461 415.226 86.9648 404.405C23.0001 390 150.432 221.082 168.5 213C184.197 206.025 201.36 211.463 199.668 231.487C204.633 296.651 163.614 336.205 158.487 346.459Z" fill="white"/>
<path d="M233.133 530.761L235.267 533.141L182.704 580.152L180.57 577.772L233.133 530.761Z" fill="black"/>
<path fill-rule="evenodd" clip-rule="evenodd" d="M492.702 305.16C444.916 313.961 401.246 329.907 415.871 358.462C440.109 405.997 537.571 360.569 577.951 334.41C581.511 319.073 580.513 307.568 567.728 297.967C537.647 296.896 499.685 303.87 492.702 305.16Z" fill="#FCE8E8"/>
<path fill-rule="evenodd" clip-rule="evenodd" d="M156.289 420.438C134.34 382.995 99.5901 352.198 78.1118 364.644C42.2707 385.409 120.874 478.845 156.289 509.8C163.591 504.781 169.819 497.094 178.996 490.756C174.601 467.317 166.544 442.413 156.289 420.438Z" fill="white"/>
<path fill-rule="evenodd" clip-rule="evenodd" d="M229.854 176C230.028 176.106 286.378 216.372 313.342 176L316 177.598C287.206 220.721 228.223 178.515 228 178.398L229.854 176Z" fill="#3B47BC"/>
<path fill-rule="evenodd" clip-rule="evenodd" d="M186.989 484.124C187.911 482.959 209.946 474.244 209.946 474.244C209.946 474.244 235.519 504.429 235.537 507.367C235.555 510.305 212.185 525.641 207.85 525.726C203.516 525.81 183.051 514.612 183.051 514.612L186.989 484.124Z" fill="#FFE1DA"/>
<path fill-rule="evenodd" clip-rule="evenodd" d="M213.588 477.427C213.571 477.324 213.545 477.229 213.51 477.141C212.459 474.228 173.717 485.629 173.717 485.629C155.323 501.641 157.024 509.102 158.015 511.6L185.274 516.42C205.879 503.904 213.588 477.427 213.588 477.427Z" fill="#FF8685"/>
<path d="M109.5 375.5C123.667 379.167 155.5 399.7 169.5 452.5" stroke="#FCE8E8" stroke-width="3"/>
<path fill-rule="evenodd" clip-rule="evenodd" d="M189.534 213C189.595 213.059 212.742 232.892 189.995 308L187 307.395C209.359 233.616 187.315 214.755 187.255 214.696L189.534 213Z" fill="#3B47BC"/>
<path fill-rule="evenodd" clip-rule="evenodd" d="M589.112 264.344C588.052 264.527 587.117 265.12 586.51 265.994C585.903 266.868 585.672 267.953 585.868 269.014C585.978 269.61 586.226 270.175 586.594 270.663C590.065 278.224 589.405 289.637 589.26 291.68L589.215 291.736C589.191 292.199 589.218 292.665 589.295 293.124C589.434 293.856 589.718 294.555 590.13 295.183C590.541 295.81 591.072 296.352 591.692 296.777C592.312 297.203 593.008 297.503 593.739 297.66C594.471 297.817 595.224 297.829 595.953 297.694C597.23 297.456 598.38 296.798 599.221 295.825C600.062 294.851 600.544 293.618 600.592 292.323C601.45 279.616 593.387 265.687 593.096 265.818C592.63 265.228 592.009 264.776 591.305 264.515C590.6 264.255 589.84 264.195 589.112 264.344Z" fill="#FFE1DA"/>
<circle cx="616.754" cy="419.754" r="142.754" fill="url(#paint0_linear)"/>
<path d="M711 420L570 338.594V501.406L711 420Z" fill="white"/>
<path fill-rule="evenodd" clip-rule="evenodd" d="M649.713 279.03L649.779 278.873C649.899 278.564 649.894 278.176 649.762 277.732C649.631 277.288 649.377 276.797 649.015 276.287C648.653 275.778 648.191 275.261 647.655 274.767C647.12 274.273 646.522 273.812 645.898 273.411C644.622 272.593 643.317 272.063 642.259 271.935C641.201 271.806 640.474 272.089 640.234 272.723L640.185 272.889L633.296 296.126C633.232 296.288 633.195 296.468 633.185 296.663C633.184 297.135 633.459 297.742 633.963 298.377C634.467 299.013 635.166 299.636 635.938 300.137C636.796 300.685 637.674 301.045 638.397 301.148C639.12 301.251 639.636 301.089 639.844 300.693L639.896 300.581L649.713 279.03Z" fill="#FF8685"/>
<path fill-rule="evenodd" clip-rule="evenodd" d="M638.913 275.352L639.01 275.223C639.173 274.945 639.212 274.583 639.125 274.156C639.037 273.73 638.825 273.248 638.501 272.74C638.177 272.231 637.747 271.706 637.236 271.194C636.726 270.683 636.146 270.196 635.53 269.762C634.271 268.88 632.945 268.265 631.837 268.047C630.729 267.829 629.926 268.026 629.599 268.596L629.528 268.745L619.376 290.001C619.173 290.403 619.315 291.025 619.771 291.733C620.228 292.44 620.961 293.178 621.815 293.785C622.683 294.388 623.593 294.81 624.358 294.964C625.123 295.119 625.685 294.994 625.929 294.615L638.913 275.352Z" fill="#FF8685"/>
<path fill-rule="evenodd" clip-rule="evenodd" d="M632.284 269.285L632.378 269.117C632.531 268.765 632.541 268.324 632.405 267.82C632.269 267.315 631.991 266.757 631.588 266.179C631.184 265.6 630.662 265.013 630.054 264.451C629.445 263.889 628.761 263.364 628.043 262.907C626.575 261.977 625.058 261.374 623.816 261.228C622.574 261.081 621.706 261.403 621.397 262.124L621.323 262.302L612.049 288.946C611.861 289.45 612.073 290.184 612.641 290.988C613.208 291.792 614.084 292.602 615.08 293.242C616.092 293.876 617.134 294.289 617.993 294.396C618.851 294.503 619.463 294.296 619.702 293.817L632.284 269.285Z" fill="#FF8685"/>
<path fill-rule="evenodd" clip-rule="evenodd" d="M617.15 265.395L617.207 265.233C617.274 264.888 617.186 264.476 616.949 264.021C616.712 263.567 616.332 263.079 615.829 262.587C615.326 262.095 614.712 261.608 614.022 261.156C613.332 260.703 612.581 260.294 611.812 259.953C610.244 259.258 608.703 258.875 607.518 258.885C606.333 258.895 605.599 259.298 605.473 260.007L605.446 260.191L602.781 286.138C602.725 286.631 603.085 287.286 603.783 287.964C604.482 288.643 605.464 289.292 606.522 289.773C607.601 290.243 608.657 290.503 609.477 290.502C610.298 290.501 610.822 290.238 610.944 289.767L617.15 265.395Z" fill="#FF8685"/>
<rect x="47" y="563" width="859" height="28" rx="14" fill="#06033E"/>
<defs>
<linearGradient id="paint0_linear" x1="616.754" y1="277" x2="616.754" y2="562.508" gradientUnits="userSpaceOnUse">
<stop offset="0.125" stop-color="#FF6161"/>
<stop offset="1" stop-color="#FE2424"/>
</linearGradient>
</defs>
</svg>
