<svg width="120" height="120" viewBox="0 0 120 120" fill="none" xmlns="http://www.w3.org/2000/svg">
    <mask id="mask0_21225_70590" style="mask-type:alpha" maskUnits="userSpaceOnUse" x="0" y="0" width="120" height="120">
        <circle cx="60" cy="60" r="60" fill="#F3F3F3"/>
    </mask>
    <g mask="url(#mask0_21225_70590)">
        <circle cx="60" cy="60" r="60" fill="#F3F3F3"/>
        <path d="M28.5 50C26.5109 50 24.6032 49.1993 23.1967 47.774C21.7902 46.3487 21 44.4156 21 42.4V22.1333C21 19.4458 22.0536 16.8684 23.9289 14.968C25.8043 13.0676 28.3478 12 31 12C33.6522 12 36.1957 13.0676 38.0711 14.968C39.9464 16.8684 41 19.4458 41 22.1333V46.2C41 46.5359 40.8683 46.8581 40.6339 47.0957C40.3995 47.3332 40.0815 47.4667 39.75 47.4667C39.4185 47.4667 39.1005 47.3332 38.8661 47.0957C38.6317 46.8581 38.5 46.5359 38.5 46.2V22.1333C38.5 20.1177 37.7098 18.1846 36.3033 16.7593C34.8968 15.334 32.9891 14.5333 31 14.5333C29.0109 14.5333 27.1032 15.334 25.6967 16.7593C24.2902 18.1846 23.5 20.1177 23.5 22.1333V42.4C23.5 43.7438 24.0268 45.0325 24.9645 45.9827C25.9021 46.9329 27.1739 47.4667 28.5 47.4667C29.8261 47.4667 31.0979 46.9329 32.0355 45.9827C32.9732 45.0325 33.5 43.7438 33.5 42.4V23.4C33.5 22.7281 33.2366 22.0838 32.7678 21.6087C32.2989 21.1336 31.663 20.8667 31 20.8667C30.337 20.8667 29.7011 21.1336 29.2322 21.6087C28.7634 22.0838 28.5 22.7281 28.5 23.4V39.8667C28.5 40.2026 28.3683 40.5248 28.1339 40.7623C27.8995 40.9999 27.5815 41.1333 27.25 41.1333C26.9185 41.1333 26.6005 40.9999 26.3661 40.7623C26.1317 40.5248 26 40.2026 26 39.8667V23.4C26 22.0562 26.5268 20.7675 27.4645 19.8173C28.4021 18.8671 29.6739 18.3333 31 18.3333C32.3261 18.3333 33.5979 18.8671 34.5355 19.8173C35.4732 20.7675 36 22.0562 36 23.4V42.4C36 44.4156 35.2098 46.3487 33.8033 47.774C32.3968 49.1993 30.4891 50 28.5 50Z" fill="#9DA2B1" stroke="#9DA2B1" stroke-width="0.6"/>
        <rect x="12" y="25" width="81" height="120" rx="5" fill="#A9ADBB"/>
        <rect x="18" y="23" width="74" height="109" rx="5" fill="#BABDC8"/>
        <rect x="11" y="25.6455" width="81" height="126.001" rx="5" transform="rotate(-16.973 11 25.6455)" fill="#CACCD6"/>
        <path d="M17.6951 23.6025L83.6896 3.46004C86.3308 2.65393 89.1253 4.14151 89.9314 6.78265L117.334 96.563L51.3392 116.706C48.698 117.512 45.9035 116.024 45.0974 113.383L17.6951 23.6025Z" fill="#DEDFE4"/>
        <path d="M45 75.1797L94.735 59.9998" stroke="#BABDC8" stroke-width="3" stroke-linecap="round"/>
        <path d="M47.7732 84.2656L97.5082 69.0858" stroke="#BABDC8" stroke-width="3" stroke-linecap="round"/>
        <path d="M50.6925 93.8301L100.428 78.6502" stroke="#BABDC8" stroke-width="3" stroke-linecap="round"/>
        <path d="M53.6117 103.395L103.347 88.2147" stroke="#BABDC8" stroke-width="3" stroke-linecap="round"/>
        <path d="M71.396 45.0725C70.7195 44.4626 69.9111 44.0167 69.0335 43.7694C68.1789 43.5278 67.2941 43.4084 66.4055 43.4149C65.9137 43.4131 65.3262 43.4356 64.6555 43.4589C64.1143 43.4722 63.531 43.5081 62.636 43.5852C61.7092 43.6676 60.7774 43.6766 59.8493 43.6124C59.393 43.5709 58.9538 43.419 58.5698 43.1698C58.248 42.9406 58.0208 42.6023 57.9305 42.218C57.9127 42.1598 57.8963 42.106 57.8785 42.0477C57.7992 41.7245 57.8169 41.3851 57.9294 41.0716C58.142 40.5594 58.4901 40.1143 58.9363 39.7841C59.6757 39.255 60.5057 38.8654 61.3853 38.6347C62.0589 38.4292 62.7562 38.3119 63.4598 38.2858C63.9283 38.2762 64.3947 38.3495 64.8374 38.5025C65.1177 38.5972 65.3775 38.7441 65.6031 38.9353C66.3945 39.602 67.5826 39.5025 68.2522 38.7137C68.9221 37.9247 68.8262 36.7379 68.0347 36.071C67.4522 35.576 66.7811 35.1955 66.0567 34.9496C65.2011 34.6549 64.2999 34.5135 63.3946 34.5319C63.0428 34.5394 62.6915 34.5648 62.3422 34.6081L61.7441 32.6484C61.4411 31.6558 60.3908 31.0967 59.3981 31.3997C58.4055 31.7026 57.8464 32.7529 58.1494 33.7456L58.7242 35.629C58.032 35.9395 57.3726 36.3181 56.7556 36.7592C55.7508 37.4871 54.9636 38.4747 54.4788 39.6154L54.4472 39.6888C54.023 40.7769 53.9573 41.9713 54.2598 43.0983C54.5599 44.3499 55.2989 45.4525 56.3432 46.2067L56.4249 46.2651C57.3696 46.8946 58.462 47.2687 59.5954 47.3509C60.7165 47.4235 61.8417 47.4078 62.9605 47.304C63.7809 47.2399 64.3062 47.207 64.7849 47.1981L64.8343 47.183C65.4488 47.1523 65.9693 47.1356 66.4255 47.1336C66.9564 47.1282 67.4853 47.1978 67.9965 47.3402C68.3036 47.4315 68.5867 47.5894 68.8254 47.8028C69.0861 48.0751 69.2727 48.4096 69.3675 48.7743C69.3757 48.8012 69.3839 48.8281 69.3921 48.855C69.5404 49.2856 69.5469 49.7524 69.4107 50.1873C69.2052 50.7931 68.8234 51.3242 68.3143 51.7129C67.5438 52.3123 66.6593 52.749 65.7147 52.9964L65.6024 53.0307C64.5996 53.3703 63.5301 53.4648 62.4838 53.3062C61.9581 53.2007 61.4654 52.9713 61.0468 52.6372C60.2333 51.996 59.0512 52.1338 58.4089 52.9464C57.7661 53.7596 57.9045 54.941 58.7186 55.5826C59.6198 56.2958 60.6797 56.7824 61.8091 57.0016L61.8653 57.009C62.9846 57.1827 64.1249 57.174 65.2418 56.9831L65.8098 58.8442C66.1128 59.8368 67.1631 60.3959 68.1557 60.0929C69.1484 59.79 69.7075 58.7397 69.4045 57.747L68.8119 55.8053C69.4582 55.4777 70.069 55.0843 70.6345 54.6314C71.7059 53.8004 72.5132 52.6773 72.9583 51.3982C73.2921 50.3093 73.3273 49.1514 73.0605 48.0451C72.7937 46.9388 72.2345 45.9244 71.4412 45.1077L71.396 45.0725Z" fill="white"/>
        <path d="M23.1967 47.774C24.6032 49.1993 26.5109 50 28.5 50C30.4891 50 32.3968 49.1993 33.8033 47.774C35.2098 46.3487 36 44.4156 36 42.4V23.4C36 22.0562 35.4732 20.7675 34.5355 19.8173C33.5979 18.8671 32.3261 18.3333 31 18.3333C29.6739 18.3333 28.4021 18.8671 27.4645 19.8173C26.5268 20.7675 26 22.0562 26 23.4V39.8667C26 40.2026 26.1317 40.5248 26.3661 40.7623C26.6005 40.9999 26.9185 41.1333 27.25 41.1333C27.5815 41.1333 27.8995 40.9999 28.1339 40.7623C28.3683 40.5248 28.5 40.2026 28.5 39.8667V23.4C28.5 22.7281 28.7634 22.0838 29.2322 21.6087C29.7011 21.1336 30.337 20.8667 31 20.8667C31.663 20.8667 32.2989 21.1336 32.7678 21.6087C33.2366 22.0838 33.5 22.7281 33.5 23.4V42.4C33.5 43.7438 32.9732 45.0325 32.0355 45.9827C31.0979 46.9329 29.8261 47.4667 28.5 47.4667C27.1739 47.4667 25.9021 46.9329 24.9645 45.9827C24.0268 45.0325 23.5 43.7438 23.5 42.4V22.1333C23.5 20.1177 24.2902 18.1846 25.6967 16.7593C27.1032 15.334 29.0109 14.5333 31 14.5333V12C28.3478 12 25.8043 13.0676 23.9289 14.968C22.0536 16.8684 21 19.4458 21 22.1333V42.4C21 44.4156 21.7902 46.3487 23.1967 47.774Z" fill="#9DA2B1" stroke="#9DA2B1" stroke-width="0.6"/>
    </g>
    <path d="M83.6896 3.45991L76.3378 5.70378C71.9087 7.05561 71.5385 13.1824 75.7726 15.0577L85.0655 19.1735C88.9811 20.9078 93.1226 17.2382 91.8725 13.1423L89.9314 6.78252C89.1253 4.14138 86.3308 2.65379 83.6896 3.45991Z" fill="#DEDFE4"/>
</svg>
