<svg width="120" height="120" viewBox="0 0 120 120" fill="none" xmlns="http://www.w3.org/2000/svg">
<mask id="mask0_20938:64821" style="mask-type:alpha" maskUnits="userSpaceOnUse" x="0" y="0" width="120" height="120">
<circle cx="60" cy="60" r="60" fill="#F3F3F3"/>
</mask>
<g mask="url(#mask0_20938:64821)">
<circle cx="60" cy="60" r="60" fill="#F3F3F3"/>
<mask id="mask1_20938:64821" style="mask-type:alpha" maskUnits="userSpaceOnUse" x="11" y="6" width="95" height="95">
<rect x="9" y="62.5674" width="82.9469" height="57.4248" rx="7" transform="rotate(-44.9172 9 62.5674)" fill="#C4C4C4"/>
</mask>
<g mask="url(#mask1_20938:64821)">
<rect x="9" y="62.5674" width="82.9469" height="57.4248" rx="7" transform="rotate(-44.9172 9 62.5674)" fill="#BABDC8"/>
<rect width="10.0265" height="93.7753" transform="matrix(-0.708093 -0.706119 -0.706119 0.708093 84.8066 13.4873)" fill="#A9ADBB"/>
</g>
<rect x="29.0531" y="50.4863" width="82.9469" height="57.4248" rx="7" fill="#DEDFE4"/>
<rect x="34" y="58.6895" width="14.5841" height="10.9381" rx="2" fill="#CACCD6"/>
<rect x="33.6106" y="74.1865" width="3.64602" height="7.29204" rx="1.82301" fill="white"/>
<rect x="33.6106" y="85.124" width="10.0265" height="3.64602" rx="1.82301" fill="#BABDC8"/>
<rect x="33.6106" y="91.5049" width="10.0265" height="3.64602" rx="1.82301" fill="#BABDC8"/>
<rect x="48.1947" y="85.124" width="10.0265" height="3.64602" rx="1.82301" fill="#BABDC8"/>
<rect x="48.1947" y="91.5049" width="10.0265" height="3.64602" rx="1.82301" fill="#BABDC8"/>
<rect x="62.7787" y="85.124" width="10.0265" height="3.64602" rx="1.82301" fill="#BABDC8"/>
<rect x="40.9027" y="74.1865" width="3.64602" height="7.29204" rx="1.82301" fill="white"/>
<rect x="75.5398" y="74.1865" width="3.64602" height="7.29204" rx="1.82301" fill="white"/>
<rect x="48.1947" y="74.1865" width="3.64602" height="7.29204" rx="1.82301" fill="white"/>
<rect x="82.8318" y="74.1865" width="3.64602" height="7.29204" rx="1.82301" fill="white"/>
<rect x="55.4868" y="74.1865" width="3.64602" height="7.29204" rx="1.82301" fill="white"/>
<rect x="90.1239" y="74.1865" width="3.64602" height="7.29204" rx="1.82301" fill="white"/>
<rect x="62.7787" y="74.1865" width="3.64602" height="7.29204" rx="1.82301" fill="white"/>
<rect x="97.4159" y="74.1865" width="3.64602" height="7.29204" rx="1.82301" fill="white"/>
</g>
</svg>
