<svg width="33" height="22" viewBox="0 0 33 22" fill="none" xmlns="http://www.w3.org/2000/svg">
<rect x="0.316406" y="1" width="32.1053" height="20" rx="3" fill="url(#paint0_linear_21243_71835)" stroke="#C9CBD4" stroke-width="0.3"/>
<path fill-rule="evenodd" clip-rule="evenodd" d="M4.21075 6.09859H2.94727V10.4962H4.19435C4.86726 10.4962 5.343 10.3484 5.76969 9.98748C6.26199 9.57736 6.57368 8.95366 6.57368 8.29731C6.57368 7.00117 5.60548 6.09859 4.21075 6.09859ZM5.21177 9.41315C4.93288 9.64298 4.58806 9.75781 4.0303 9.75781H3.80063V6.85337H4.0303C4.58806 6.85337 4.91632 6.9518 5.21177 7.19787C5.50705 7.46035 5.68766 7.87078 5.68766 8.29731C5.68751 8.72399 5.50705 9.15068 5.21177 9.41315ZM6.96756 10.4963H7.82077V6.09859H6.96756V10.4963ZM9.92106 7.78876C9.39595 7.5919 9.2483 7.47707 9.2483 7.23084C9.2483 6.95196 9.52718 6.7551 9.88825 6.7551C10.1507 6.7551 10.3641 6.85353 10.5774 7.0996L11.0369 6.52543C10.6594 6.19718 10.2165 6.03313 9.74061 6.03313C8.95302 6.03313 8.36228 6.57465 8.36228 7.29662C8.36228 7.90375 8.64117 8.1992 9.44532 8.49448C9.78998 8.60932 9.95403 8.69134 10.0361 8.74056C10.2165 8.85555 10.2985 9.01944 10.2985 9.20005C10.2985 9.56112 10.0196 9.82359 9.62577 9.82359C9.2319 9.82359 8.8874 9.61033 8.69038 9.23286L8.14902 9.77438C8.5429 10.3485 9.01864 10.6112 9.67499 10.6112C10.561 10.6112 11.1847 10.0205 11.1847 9.16724C11.1845 8.46152 10.8893 8.14967 9.92106 7.78876ZM11.4472 8.29731C11.4472 9.59361 12.4646 10.5946 13.7771 10.5946C14.1382 10.5946 14.4663 10.5288 14.8438 10.3484V9.33097C14.4991 9.67547 14.2038 9.82327 13.81 9.82327C12.9567 9.82327 12.3332 9.18333 12.3332 8.29715C12.3332 7.46035 12.9731 6.78759 13.7771 6.78759C14.1874 6.78759 14.4991 6.93523 14.8438 7.27989V6.27888C14.4827 6.08186 14.171 6 13.7935 6C12.4973 6.00016 11.4472 7.03398 11.4472 8.29731Z" fill="#231F20"/>
<path fill-rule="evenodd" clip-rule="evenodd" d="M17.5195 6C16.2231 6 15.1729 7.01742 15.1729 8.26434C15.1729 9.61001 16.1739 10.5945 17.5195 10.5945C18.8319 10.5945 19.8659 9.59345 19.8659 8.29715C19.8661 7.01742 18.8485 6 17.5195 6Z" fill="#DB8135"/>
<path fill-rule="evenodd" clip-rule="evenodd" d="M17.5195 6C16.2231 6 15.1729 7.01742 15.1729 8.26434C15.1729 9.61001 16.1739 10.5945 17.5195 10.5945C18.8319 10.5945 19.8659 9.59345 19.8659 8.29715C19.8661 7.01742 18.8485 6 17.5195 6ZM17.5195 8.29715H19.8659H17.5195Z" fill="#DB8135"/>
<path fill-rule="evenodd" clip-rule="evenodd" d="M17.5195 8.29715H19.8659C19.8659 7.01726 18.8483 6 17.5195 6C16.2231 6 15.1729 7.01742 15.1729 8.26434C15.1729 9.61001 16.1739 10.5945 17.5195 10.5945C18.8319 10.5945 19.8659 9.59345 19.8659 8.29715H17.5195Z" fill="#DB8135"/>
<path fill-rule="evenodd" clip-rule="evenodd" d="M17.5195 8.29715H19.8659C19.8659 7.01726 18.8483 6 17.5195 6C16.2231 6 15.1729 7.01742 15.1729 8.26434C15.1729 9.61001 16.1739 10.5945 17.5195 10.5945C18.8319 10.5945 19.8659 9.59345 19.8659 8.29715H17.5195Z" fill="#DB8137"/>
<path fill-rule="evenodd" clip-rule="evenodd" d="M17.5195 8.29715H19.8659C19.8659 7.01726 18.8483 6 17.5195 6C16.2231 6 15.1729 7.01742 15.1729 8.26434C15.1729 9.61001 16.1739 10.5945 17.5195 10.5945C18.8319 10.5945 19.8659 9.59345 19.8659 8.29715H17.5195Z" fill="#DC8337"/>
<path fill-rule="evenodd" clip-rule="evenodd" d="M17.5195 8.29715H19.8659C19.8659 7.01726 18.8483 6 17.5195 6C16.2231 6 15.1729 7.01742 15.1729 8.26434C15.1729 9.61001 16.1739 10.5945 17.5195 10.5945C18.8319 10.5945 19.8659 9.59345 19.8659 8.29715H17.5195Z" fill="#DC8539"/>
<path fill-rule="evenodd" clip-rule="evenodd" d="M17.5195 8.29715H19.8659C19.8659 7.01726 18.8483 6 17.5195 6C16.2231 6 15.1729 7.01742 15.1729 8.26434C15.1729 9.61001 16.1739 10.5945 17.5195 10.5945C18.8319 10.5945 19.8659 9.59345 19.8659 8.29715H17.5195Z" fill="#DC853A"/>
<path fill-rule="evenodd" clip-rule="evenodd" d="M17.5195 8.29715H19.8659C19.8659 7.01726 18.8483 6 17.5195 6C16.2231 6 15.1729 7.01742 15.1729 8.26434C15.1729 9.61001 16.1739 10.5945 17.5195 10.5945C18.8319 10.5945 19.8659 9.59345 19.8659 8.29715H17.5195Z" fill="#DC853C"/>
<path fill-rule="evenodd" clip-rule="evenodd" d="M17.5195 8.29715H19.8659C19.8659 7.01726 18.8483 6 17.5195 6C16.2231 6 15.1729 7.01742 15.1729 8.26434C15.1729 9.61001 16.1739 10.5945 17.5195 10.5945C18.8319 10.5945 19.8659 9.59345 19.8659 8.29715H17.5195Z" fill="#DD873E"/>
<path fill-rule="evenodd" clip-rule="evenodd" d="M17.5195 8.29715H19.8659C19.8659 7.01726 18.8483 6 17.5195 6C16.2231 6 15.1729 7.01742 15.1729 8.26434C15.1729 9.61001 16.1739 10.5945 17.5195 10.5945C18.8319 10.5945 19.8659 9.59345 19.8659 8.29715H17.5195Z" fill="#DD873E"/>
<path fill-rule="evenodd" clip-rule="evenodd" d="M17.5195 8.29715H19.8659C19.8659 7.01726 18.8483 6 17.5195 6C16.2231 6 15.1729 7.01742 15.1729 8.26434C15.1729 9.61001 16.1739 10.5945 17.5195 10.5945C18.8319 10.5945 19.8659 9.59345 19.8659 8.29715H17.5195Z" fill="#DD883F"/>
<path fill-rule="evenodd" clip-rule="evenodd" d="M17.5195 8.29715H19.8659C19.8659 7.01726 18.8483 6 17.5195 6C16.2231 6 15.1729 7.01742 15.1729 8.26434C15.1729 9.61001 16.1739 10.5945 17.5195 10.5945C18.8319 10.5945 19.8659 9.59345 19.8659 8.29715H17.5195Z" fill="#DD8841"/>
<path fill-rule="evenodd" clip-rule="evenodd" d="M17.5195 8.29715H19.8659C19.8659 7.01726 18.8483 6 17.5195 6C16.2231 6 15.1729 7.01742 15.1729 8.26434C15.1729 9.61001 16.1739 10.5945 17.5195 10.5945C18.8319 10.5945 19.8659 9.59345 19.8659 8.29715H17.5195Z" fill="#DE8A41"/>
<path fill-rule="evenodd" clip-rule="evenodd" d="M17.5195 8.29715H19.8659C19.8659 7.01726 18.8483 6 17.5195 6C16.2231 6 15.1729 7.01742 15.1729 8.26434C15.1729 9.61001 16.1739 10.5945 17.5195 10.5945C18.8319 10.5945 19.8659 9.59345 19.8659 8.29715H17.5195Z" fill="#DE8A43"/>
<path fill-rule="evenodd" clip-rule="evenodd" d="M17.5195 8.29715H19.8659C19.8659 7.01726 18.8483 6 17.5195 6C16.2231 6 15.1729 7.01742 15.1729 8.26434C15.1729 9.61001 16.1739 10.5945 17.5195 10.5945C18.8319 10.5945 19.8659 9.59345 19.8659 8.29715H17.5195Z" fill="#DE8A44"/>
<path fill-rule="evenodd" clip-rule="evenodd" d="M17.5195 8.29715H19.8659C19.8659 7.01726 18.8483 6 17.5195 6C16.2231 6 15.1729 7.01742 15.1729 8.26434C15.1729 9.61001 16.1739 10.5945 17.5195 10.5945C18.8319 10.5945 19.8659 9.59345 19.8659 8.29715H17.5195Z" fill="#DE8C46"/>
<path fill-rule="evenodd" clip-rule="evenodd" d="M17.5192 8.29731H19.8656H17.5192ZM19.8657 8.29731C19.8657 8.2774 19.8654 8.25749 19.8648 8.23758V8.23679C19.8644 8.21724 19.8636 8.1977 19.8626 8.17818V8.17658C19.8616 8.15746 19.8604 8.13834 19.8589 8.11925C19.8589 8.11845 19.8589 8.11765 19.8586 8.11686C19.8573 8.0981 19.8557 8.07935 19.854 8.06063C19.8536 8.05952 19.8536 8.05856 19.8536 8.05745C19.8518 8.0391 19.8496 8.02078 19.8471 8.0025V8.00202C19.8449 7.98459 19.8425 7.96717 19.8399 7.94978C19.8396 7.94803 19.8393 7.94628 19.8393 7.94453C19.8364 7.92733 19.8337 7.91028 19.8305 7.89308L19.8296 7.88735L19.8246 7.85948L19.8181 7.82651L19.8148 7.81074C19.8119 7.79736 19.8092 7.78398 19.806 7.77076C19.8047 7.76455 19.8028 7.7585 19.8017 7.75229L19.7923 7.71502L19.7829 7.67998L19.7783 7.66278C19.775 7.65051 19.7711 7.63841 19.7678 7.6263L19.7622 7.60735C19.4717 6.67037 18.5981 6 17.5194 6C16.5698 6 15.7526 6.54598 15.3831 7.32799C15.2462 7.62718 15.1746 7.95206 15.1729 8.28106C15.1746 8.56536 15.2213 8.83341 15.3062 9.07917L15.3135 9.09971L15.3167 9.10831C15.4072 9.35393 15.5383 9.58262 15.7045 9.78489C16.1266 10.2885 16.7694 10.5945 17.5194 10.5945C18.5857 10.5945 19.4679 9.93381 19.7616 8.99061L19.7765 8.93996V8.9398C19.8194 8.78904 19.8469 8.63436 19.8587 8.47808L19.859 8.47776C19.8603 8.45801 19.8619 8.4381 19.8627 8.4182V8.41804C19.8647 8.37782 19.8657 8.33757 19.8657 8.29731Z" fill="#DF8E47"/>
<path fill-rule="evenodd" clip-rule="evenodd" d="M17.5188 8.29715H19.8487C19.8487 7.4046 19.3376 6.63198 18.5945 6.24591C18.2747 6.08855 17.9104 6 17.5188 6C17.0147 6 16.5485 6.15401 16.1661 6.4149C15.5757 6.83426 15.1885 7.52023 15.1885 8.29715C15.1885 9.15179 15.657 9.90402 16.3492 10.3095C16.689 10.4925 17.0857 10.5945 17.5188 10.5945C18.0647 10.5945 18.5621 10.4212 18.9571 10.1259C19.4986 9.69777 19.8487 9.03568 19.8487 8.29715H17.5188Z" fill="#DF8E48"/>
<path fill-rule="evenodd" clip-rule="evenodd" d="M17.5191 8.29715H19.8161C19.8161 7.03366 18.7825 6 17.5191 6C17.4992 6 17.4797 6.00032 17.4601 6.0008H17.4585C16.2229 6.03313 15.2217 7.05405 15.2217 8.29715C15.2211 8.77818 15.3704 9.24744 15.6488 9.63974C15.9271 10.032 16.3208 10.3279 16.775 10.4862C17.0066 10.5567 17.2562 10.5946 17.519 10.5946C17.8398 10.5946 18.1436 10.5346 18.4201 10.4255C18.8352 10.2458 19.1885 9.94851 19.4366 9.57032C19.6846 9.19213 19.8165 8.74959 19.816 8.29731H17.5191V8.29715Z" fill="#DF8E4A"/>
<path fill-rule="evenodd" clip-rule="evenodd" d="M17.5184 8.29848H19.7991C19.7991 7.0514 18.7815 6.01758 17.5184 6.01758C16.2547 6.01758 15.2373 7.0514 15.2373 8.29848C15.2367 8.59821 15.2952 8.89512 15.4096 9.17215C15.524 9.44919 15.692 9.7009 15.904 9.91283C16.1159 10.1248 16.3676 10.2927 16.6447 10.4071C16.9217 10.5215 17.2186 10.5801 17.5184 10.5794C17.8181 10.58 18.115 10.5214 18.392 10.407C18.669 10.2926 18.9207 10.1247 19.1326 9.91272C19.3445 9.70079 19.5125 9.4491 19.6268 9.17208C19.7412 8.89506 19.7998 8.59818 19.7991 8.29848H17.5184Z" fill="#DF904A"/>
<path fill-rule="evenodd" clip-rule="evenodd" d="M17.5186 8.2979H19.7829C19.7829 7.05082 18.7653 6.0498 17.5186 6.0498C16.2713 6.0498 15.2539 7.05082 15.2539 8.2979C15.2539 9.54514 16.2713 10.5624 17.5186 10.5624C18.7653 10.5624 19.7829 9.54498 19.7829 8.2979H17.5186Z" fill="#E0914C"/>
<path fill-rule="evenodd" clip-rule="evenodd" d="M17.5188 8.29794H19.7665C19.7665 7.06726 18.7493 6.06641 17.5188 6.06641C16.2879 6.06641 15.2705 7.06726 15.2705 8.29794C15.2705 9.54518 16.2879 10.546 17.5188 10.546C18.7494 10.546 19.7665 9.54518 19.7665 8.29794H17.5188Z" fill="#E0914E"/>
<path fill-rule="evenodd" clip-rule="evenodd" d="M17.5182 8.29829H19.7333C19.7333 7.08402 18.7487 6.08301 17.5182 6.08301C16.2873 6.08301 15.3027 7.08402 15.3027 8.29829C15.3027 9.52897 16.2873 10.5298 17.5182 10.5298C18.7489 10.5298 19.7333 9.52897 19.7333 8.29829H17.5182Z" fill="#DF924F"/>
<path fill-rule="evenodd" clip-rule="evenodd" d="M17.5184 8.29735H19.7171C19.7171 7.08308 18.7325 6.09863 17.5184 6.09863C16.3039 6.09863 15.3193 7.08324 15.3193 8.29735C15.3193 9.51147 16.3039 10.4962 17.5184 10.4962C18.7325 10.4962 19.7171 9.51147 19.7171 8.29735H17.5184Z" fill="#E09351"/>
<path fill-rule="evenodd" clip-rule="evenodd" d="M17.5186 8.29775H19.7007C19.7007 7.09988 18.7161 6.13184 17.5186 6.13184C16.3205 6.13184 15.3359 7.09988 15.3359 8.29775C15.3359 9.51202 16.3205 10.4802 17.5186 10.4802C18.7163 10.4802 19.7007 9.51202 19.7007 8.29775H17.5186Z" fill="#E09552"/>
<path fill-rule="evenodd" clip-rule="evenodd" d="M17.5188 8.29697H19.6683C19.6683 7.11566 18.7163 6.14746 17.5188 6.14746C16.3207 6.14746 15.3525 7.11566 15.3525 8.29697C15.3525 9.49484 16.3207 10.4629 17.5188 10.4629C18.7165 10.4629 19.6683 9.49484 19.6683 8.29697H17.5188Z" fill="#E09554"/>
<path fill-rule="evenodd" clip-rule="evenodd" d="M17.519 8.29815H19.6521C19.6526 8.01788 19.5978 7.74026 19.4908 7.48122C19.3838 7.22219 19.2267 6.98683 19.0285 6.78864C18.8303 6.59046 18.595 6.43336 18.3359 6.32635C18.0769 6.21933 17.7993 6.16452 17.519 6.16504C17.2387 6.16448 16.9611 6.21926 16.702 6.32626C16.4429 6.43325 16.2076 6.59035 16.0094 6.78854C15.8112 6.98673 15.654 7.2221 15.547 7.48116C15.44 7.74022 15.3852 8.01786 15.3857 8.29815C15.3857 9.47961 16.3374 10.4478 17.519 10.4478C18.7002 10.4478 19.6521 9.47961 19.6521 8.29815H17.519Z" fill="#E09555"/>
<path fill-rule="evenodd" clip-rule="evenodd" d="M17.5194 8.29834H19.6359C19.6359 7.13328 18.6843 6.18164 17.5194 6.18164C16.3541 6.18164 15.4023 7.13328 15.4023 8.29834C15.4023 9.4798 16.3541 10.4152 17.5194 10.4152C17.7975 10.4159 18.0731 10.3616 18.3302 10.2554C18.5873 10.1493 18.8209 9.99337 19.0176 9.79666C19.2143 9.59996 19.3701 9.36633 19.4762 9.1092C19.5824 8.85207 19.6366 8.5765 19.6359 8.29834H17.5194Z" fill="#E19756"/>
<path fill-rule="evenodd" clip-rule="evenodd" d="M17.5184 8.29775H19.6186C19.6186 7.14926 18.6835 6.21387 17.5184 6.21387C16.3532 6.21387 15.418 7.14926 15.418 8.29775C15.4171 8.57382 15.4709 8.84734 15.5761 9.10256C15.6814 9.35778 15.8361 9.58966 16.0313 9.78487C16.2265 9.98007 16.4584 10.1347 16.7136 10.24C16.9688 10.3452 17.2424 10.3989 17.5184 10.398C17.7945 10.3989 18.068 10.3451 18.3231 10.2399C18.5783 10.1346 18.8102 9.97995 19.0054 9.78475C19.2006 9.58955 19.3552 9.35768 19.4605 9.10248C19.5657 8.84729 19.6194 8.5738 19.6186 8.29775H17.5184Z" fill="#E19757"/>
<path fill-rule="evenodd" clip-rule="evenodd" d="M17.5186 8.29795H19.5859C19.5859 7.14946 18.667 6.23047 17.5186 6.23047C16.3698 6.23047 15.4346 7.14946 15.4346 8.29795C15.4346 9.44661 16.37 10.3818 17.5186 10.3818C18.6671 10.3818 19.5859 9.44645 19.5859 8.29795H17.5186Z" fill="#E29959"/>
<path fill-rule="evenodd" clip-rule="evenodd" d="M17.519 8.29717H19.5699C19.5699 7.16492 18.6509 6.24609 17.519 6.24609C16.3866 6.24609 15.4678 7.16492 15.4678 8.29717C15.4678 9.42942 16.3868 10.3647 17.519 10.3647C18.6509 10.3647 19.5699 9.42942 19.5699 8.29717H17.519Z" fill="#E2995B"/>
<path fill-rule="evenodd" clip-rule="evenodd" d="M17.5182 8.29737H19.5526C19.5526 7.18168 18.6336 6.2627 17.5182 6.2627C16.4022 6.2627 15.4834 7.18168 15.4834 8.29737C15.4834 9.42962 16.4024 10.332 17.5182 10.332C18.6338 10.332 19.5526 9.42962 19.5526 8.29737H17.5182Z" fill="#E29B5B"/>
<path fill-rule="evenodd" clip-rule="evenodd" d="M17.5184 8.29679H19.5367C19.5367 7.19735 18.634 6.29492 17.5184 6.29492C16.4024 6.29492 15.5 7.19735 15.5 8.29679C15.5 9.41263 16.4026 10.3151 17.5184 10.3151C18.634 10.3151 19.5367 9.41247 19.5367 8.29679H17.5184Z" fill="#E29B5D"/>
<path fill-rule="evenodd" clip-rule="evenodd" d="M17.5188 8.29796H19.5041C19.5046 8.0371 19.4536 7.7787 19.354 7.5376C19.2544 7.2965 19.1082 7.07743 18.9238 6.89296C18.7393 6.7085 18.5203 6.56227 18.2792 6.46266C18.0381 6.36305 17.7797 6.31202 17.5188 6.3125C16.4192 6.3125 15.5332 7.19852 15.5332 8.29796C15.5332 9.3974 16.4192 10.3 17.5188 10.3C18.6181 10.3 19.5041 9.3974 19.5041 8.29796H17.5188Z" fill="#E39D5F"/>
<path fill-rule="evenodd" clip-rule="evenodd" d="M17.519 8.29718H19.4878C19.4878 7.21414 18.6019 6.32812 17.519 6.32812C16.4358 6.32812 15.5498 7.21414 15.5498 8.29718C15.5498 9.39662 16.4358 10.2826 17.519 10.2826C18.6019 10.2826 19.4878 9.39662 19.4878 8.29718H17.519Z" fill="#E39D61"/>
<path fill-rule="evenodd" clip-rule="evenodd" d="M17.5192 8.2964H19.4719C19.4719 7.22977 18.6021 6.34375 17.5192 6.34375C16.436 6.34375 15.5664 7.22977 15.5664 8.2964C15.5664 9.37943 16.436 10.249 17.5192 10.249C18.6021 10.249 19.4719 9.37943 19.4719 8.2964H17.5192Z" fill="#E39F63"/>
<path fill-rule="evenodd" clip-rule="evenodd" d="M17.5184 8.29875H19.4545C19.4545 7.23212 18.5847 6.37891 17.5184 6.37891C16.4516 6.37891 15.582 7.23212 15.582 8.29875C15.582 9.36538 16.4516 10.2352 17.5184 10.2352C18.5847 10.2352 19.4545 9.36538 19.4545 8.29875H17.5184Z" fill="#E39F63"/>
<path fill-rule="evenodd" clip-rule="evenodd" d="M17.5188 8.29797H19.4219C19.4219 7.2479 18.5691 6.39453 17.5188 6.39453C16.4684 6.39453 15.6152 7.24774 15.6152 8.29797C15.6152 9.3646 16.4684 10.2178 17.5188 10.2178C18.5691 10.2178 19.4219 9.3646 19.4219 8.29797H17.5188Z" fill="#E39F64"/>
<path fill-rule="evenodd" clip-rule="evenodd" d="M17.519 8.29816H19.4061C19.4061 7.2645 18.5693 6.41113 17.519 6.41113C16.4686 6.41113 15.6318 7.2645 15.6318 8.29816C15.6318 9.34839 16.4686 10.2018 17.519 10.2018C18.5693 10.2018 19.4061 9.34839 19.4061 8.29816H17.519Z" fill="#E4A166"/>
<path fill-rule="evenodd" clip-rule="evenodd" d="M17.5192 8.29836H19.3897C19.3897 7.2647 18.5529 6.42773 17.5192 6.42773C16.4852 6.42773 15.6484 7.26454 15.6484 8.29836C15.6484 9.33218 16.4852 10.1691 17.5192 10.1691C18.5529 10.1691 19.3897 9.33218 19.3897 8.29836H17.5192Z" fill="#E4A367"/>
<path fill-rule="evenodd" clip-rule="evenodd" d="M17.5184 8.29778H19.3725C19.3725 7.28052 18.5357 6.45996 17.5184 6.45996C16.5009 6.45996 15.6641 7.28036 15.6641 8.29778C15.6641 9.3316 16.5009 10.152 17.5184 10.152C18.5357 10.152 19.3725 9.3316 19.3725 8.29778H17.5184Z" fill="#E4A369"/>
<path fill-rule="evenodd" clip-rule="evenodd" d="M17.5188 8.29797H19.3402C19.3402 7.29712 18.5361 6.47656 17.5188 6.47656C16.5013 6.47656 15.6973 7.29712 15.6973 8.29797C15.6973 9.31539 16.5013 10.1358 17.5188 10.1358C18.5361 10.1358 19.3402 9.31539 19.3402 8.29797H17.5188Z" fill="#E4A36A"/>
<path fill-rule="evenodd" clip-rule="evenodd" d="M17.519 8.29818H19.3239C19.3246 8.06097 19.2783 7.82596 19.1879 7.60668C19.0974 7.38739 18.9645 7.18815 18.7968 7.0204C18.629 6.85266 18.4298 6.71973 18.2105 6.62925C17.9913 6.53877 17.7563 6.49252 17.519 6.49317C17.2818 6.49246 17.0468 6.53866 16.8274 6.62911C16.6081 6.71957 16.4088 6.85249 16.2411 7.02024C16.0733 7.18799 15.9403 7.38726 15.8499 7.60658C15.7594 7.82589 15.7132 8.06093 15.7139 8.29818C15.7139 9.29919 16.5179 10.1196 17.519 10.1196C18.5197 10.1196 19.3239 9.29919 19.3239 8.29818H17.519Z" fill="#E5A56C"/>
<path fill-rule="evenodd" clip-rule="evenodd" d="M17.5192 8.29723H19.3077C19.3077 7.31278 18.5035 6.50879 17.5192 6.50879C16.5345 6.50879 15.7305 7.31278 15.7305 8.29723C15.7305 9.28184 16.5345 10.0858 17.5192 10.0858C18.5035 10.0858 19.3077 9.28184 19.3077 8.29723H17.5192Z" fill="#E5A56C"/>
<path fill-rule="evenodd" clip-rule="evenodd" d="M17.5184 8.29762H19.2903C19.2903 7.32958 18.4865 6.54199 17.5184 6.54199C16.5501 6.54199 15.7461 7.32958 15.7461 8.29762C15.7461 9.28223 16.5501 10.0697 17.5184 10.0697C18.4865 10.0697 19.2903 9.28223 19.2903 8.29762H17.5184Z" fill="#E5A76E"/>
<path fill-rule="evenodd" clip-rule="evenodd" d="M17.5187 8.29684H19.2579C19.2579 7.34521 18.4867 6.55762 17.5187 6.55762C16.5503 6.55762 15.7793 7.34521 15.7793 8.29684C15.7793 9.26505 16.5505 10.0526 17.5187 10.0526C18.4867 10.0526 19.2579 9.26505 19.2579 8.29684H17.5187Z" fill="#E5A770"/>
<path fill-rule="evenodd" clip-rule="evenodd" d="M17.519 8.29704H19.2417C19.2417 7.3454 18.4705 6.57422 17.519 6.57422C16.5671 6.57422 15.7959 7.3454 15.7959 8.29704C15.7959 9.24884 16.5671 10.02 17.519 10.02C18.4707 10.02 19.2417 9.24884 19.2417 8.29704H17.519Z" fill="#E6A970"/>
<path fill-rule="evenodd" clip-rule="evenodd" d="M17.5192 8.29724H19.2255C19.2255 7.362 18.4543 6.59082 17.5192 6.59082C16.5837 6.59082 15.8125 7.362 15.8125 8.29724C15.8125 9.24903 16.5837 10.0037 17.5192 10.0037C18.4543 10.0037 19.2255 9.24903 19.2255 8.29724H17.5192Z" fill="#E6A972"/>
<path fill-rule="evenodd" clip-rule="evenodd" d="M17.5185 8.29763H19.2085C19.2085 7.3788 18.4535 6.62402 17.5185 6.62402C16.5829 6.62402 15.8281 7.3788 15.8281 8.29763C15.8278 8.51969 15.8713 8.73963 15.9562 8.94484C16.041 9.15005 16.1655 9.33651 16.3225 9.49352C16.4795 9.65053 16.666 9.77502 16.8712 9.85983C17.0765 9.94465 17.2964 9.98814 17.5185 9.9878C17.7405 9.9881 17.9604 9.94458 18.1656 9.85974C18.3708 9.7749 18.5572 9.65042 18.7142 9.49341C18.8712 9.3364 18.9957 9.14996 19.0805 8.94477C19.1653 8.73957 19.2088 8.51966 19.2085 8.29763H17.5185Z" fill="#E6AB74"/>
<path fill-rule="evenodd" clip-rule="evenodd" d="M17.5189 8.29784H19.1759C19.1765 8.08006 19.134 7.86431 19.051 7.66299C18.9679 7.46168 18.8459 7.27876 18.6919 7.12476C18.5379 6.97076 18.355 6.84871 18.1537 6.76563C17.9524 6.68254 17.7366 6.64006 17.5189 6.64063C17.301 6.64 17.0852 6.68243 16.8839 6.76549C16.6825 6.84854 16.4996 6.97058 16.3455 7.12459C16.1915 7.2786 16.0694 7.46153 15.9863 7.66288C15.9032 7.86423 15.8607 8.08002 15.8613 8.29784C15.8613 9.21682 16.5997 9.9716 17.5189 9.9716C18.4375 9.9716 19.1759 9.21682 19.1759 8.29784H17.5189Z" fill="#E6AB75"/>
<path fill-rule="evenodd" clip-rule="evenodd" d="M17.519 8.29705H19.1597C19.1597 7.39447 18.4215 6.65625 17.519 6.65625C16.6165 6.65625 15.8779 7.39462 15.8779 8.29705C15.8779 9.21604 16.6163 9.93801 17.519 9.93801C17.7347 9.93874 17.9484 9.8968 18.1478 9.81459C18.3472 9.73238 18.5284 9.61153 18.6809 9.459C18.8334 9.30648 18.9542 9.12528 19.0364 8.92586C19.1186 8.72644 19.1605 8.51273 19.1597 8.29705H17.519Z" fill="#E7AD77"/>
<path fill-rule="evenodd" clip-rule="evenodd" d="M17.5183 8.29822H19.1427C19.1427 7.4122 18.4207 6.67383 17.5183 6.67383C16.6157 6.67383 15.8936 7.4122 15.8936 8.29822C15.8936 9.2008 16.6155 9.92278 17.5183 9.92278C17.7318 9.92366 17.9435 9.88224 18.141 9.80091C18.3385 9.71958 18.5179 9.59995 18.6689 9.44892C18.8199 9.29789 18.9395 9.11844 19.0209 8.92095C19.1022 8.72345 19.1436 8.5118 19.1427 8.29822H17.5183Z" fill="#E7AD77"/>
<path fill-rule="evenodd" clip-rule="evenodd" d="M17.5185 8.29682H19.1265C19.1265 7.4108 18.4045 6.70508 17.5185 6.70508C16.6323 6.70508 15.9102 7.4108 15.9102 8.29682C15.9102 9.183 16.6321 9.90497 17.5185 9.90497C18.4043 9.90497 19.1265 9.183 19.1265 8.29682H17.5185Z" fill="#E8AF79"/>
<path fill-rule="evenodd" clip-rule="evenodd" d="M17.5189 8.29784H19.0939C19.0939 7.42822 18.3883 6.72266 17.5189 6.72266C16.6491 6.72266 15.9434 7.42822 15.9434 8.29784C15.9434 9.18401 16.6489 9.88958 17.5189 9.88958C18.3883 9.88958 19.0939 9.18401 19.0939 8.29784H17.5189Z" fill="#E8AF7B"/>
<path fill-rule="evenodd" clip-rule="evenodd" d="M17.5191 8.29721H19.0778C19.0778 7.44401 18.3885 6.73828 17.5191 6.73828C16.6493 6.73828 15.96 7.44401 15.96 8.29721C15.96 9.16683 16.6491 9.85615 17.5191 9.85615C18.3885 9.85615 19.0778 9.16699 19.0778 8.29721H17.5191Z" fill="#E8B17B"/>
<path fill-rule="evenodd" clip-rule="evenodd" d="M17.5193 8.29628H19.0616C19.0618 8.09367 19.0221 7.89301 18.9446 7.70579C18.8672 7.51857 18.7536 7.34845 18.6103 7.20519C18.4671 7.06193 18.297 6.94832 18.1097 6.87089C17.9225 6.79345 17.7219 6.7537 17.5193 6.75391C17.3166 6.75366 17.1159 6.79338 16.9287 6.87079C16.7414 6.94821 16.5713 7.06181 16.428 7.20508C16.2847 7.34834 16.171 7.51847 16.0936 7.70572C16.0161 7.89296 15.9764 8.09364 15.9766 8.29628C15.9763 8.49892 16.0161 8.69963 16.0935 8.88689C16.171 9.07415 16.2846 9.2443 16.4279 9.38758C16.5712 9.53087 16.7414 9.64448 16.9286 9.7219C17.1159 9.79933 17.3166 9.83906 17.5193 9.83881C17.7219 9.839 17.9225 9.79922 18.1098 9.72177C18.297 9.64431 18.4671 9.5307 18.6103 9.38742C18.7536 9.24414 18.8672 9.07402 18.9446 8.88679C19.0221 8.69956 19.0618 8.49889 19.0616 8.29628H17.5193Z" fill="#E8B17D"/>
<path fill-rule="evenodd" clip-rule="evenodd" d="M17.5185 8.29862H19.0443C19.0443 7.46182 18.3553 6.78906 17.5185 6.78906C16.6815 6.78906 15.9922 7.46182 15.9922 8.29862C15.9922 9.13543 16.6813 9.82475 17.5185 9.82475C18.3553 9.82475 19.0443 9.13559 19.0443 8.29862H17.5185Z" fill="#E8B17E"/>
<path fill-rule="evenodd" clip-rule="evenodd" d="M17.5187 8.2959H19.0119C19.0119 7.4755 18.339 6.80274 17.5187 6.80274C17.3224 6.80207 17.128 6.84023 16.9465 6.91503C16.765 6.98983 16.6001 7.09978 16.4613 7.23857C16.3225 7.37735 16.2126 7.54222 16.1377 7.72369C16.0629 7.90515 16.0247 8.09962 16.0254 8.2959C16.0254 9.1327 16.6818 9.80546 17.5187 9.80546C18.339 9.80546 19.0119 9.1327 19.0119 8.2959H17.5187Z" fill="#E9B381"/>
<path fill-rule="evenodd" clip-rule="evenodd" d="M17.5189 8.29805H18.9955C18.9963 8.10391 18.9587 7.91152 18.8848 7.73199C18.8109 7.55246 18.7021 7.38935 18.5649 7.25206C18.4276 7.11477 18.2645 7.00602 18.085 6.93208C17.9054 6.85815 17.7131 6.8205 17.5189 6.8213C17.3247 6.82048 17.1323 6.85812 16.9528 6.93204C16.7732 7.00596 16.6101 7.1147 16.4728 7.25199C16.3355 7.38928 16.2267 7.5524 16.1528 7.73194C16.0789 7.91148 16.0412 8.10389 16.042 8.29805C16.0412 8.49223 16.0789 8.68464 16.1528 8.86419C16.2267 9.04374 16.3355 9.20687 16.4728 9.34417C16.6101 9.48147 16.7732 9.59023 16.9528 9.66417C17.1323 9.73811 17.3247 9.77576 17.5189 9.77496C17.7131 9.77574 17.9055 9.73807 18.085 9.66412C18.2645 9.59017 18.4276 9.48141 18.5649 9.3441C18.7021 9.2068 18.8109 9.04368 18.8848 8.86414C18.9587 8.6846 18.9963 8.49221 18.9955 8.29805H17.5189Z" fill="#E9B381"/>
<path fill-rule="evenodd" clip-rule="evenodd" d="M17.5191 8.29824H18.9793C18.9793 7.49424 18.3229 6.83789 17.5191 6.83789C16.7149 6.83789 16.0586 7.49424 16.0586 8.29824C16.0586 9.10223 16.7149 9.75858 17.5191 9.75858C18.3229 9.75858 18.9793 9.10223 18.9793 8.29824H17.5191Z" fill="#E9B583"/>
<path fill-rule="evenodd" clip-rule="evenodd" d="M17.5183 8.29765H18.9623C18.9623 7.51006 18.3056 6.87012 17.5183 6.87012C16.7306 6.87012 16.0742 7.51006 16.0742 8.29765C16.0742 9.10165 16.7306 9.74159 17.5183 9.74159C18.3056 9.74159 18.9623 9.10165 18.9623 8.29765H17.5183Z" fill="#E9B584"/>
<path fill-rule="evenodd" clip-rule="evenodd" d="M17.5187 8.29785H18.9297C18.9297 7.52667 18.306 6.88672 17.5187 6.88672C16.731 6.88672 16.1074 7.52667 16.1074 8.29785C16.1074 9.08544 16.731 9.72539 17.5187 9.72539C18.306 9.72539 18.9297 9.08544 18.9297 8.29785H17.5187Z" fill="#EAB786"/>
<path fill-rule="evenodd" clip-rule="evenodd" d="M17.5189 8.29805H18.9135C18.9136 8.11485 18.8777 7.93343 18.8077 7.76415C18.7376 7.59487 18.6349 7.44105 18.5054 7.31151C18.3759 7.18197 18.2221 7.07923 18.0528 7.00919C17.8835 6.93915 17.7021 6.90317 17.5189 6.90332C16.7476 6.90332 16.124 7.52686 16.124 8.29805C16.124 9.06923 16.7476 9.69277 17.5189 9.69277C17.7021 9.69292 17.8835 9.65694 18.0528 9.5869C18.2221 9.51686 18.3759 9.41413 18.5054 9.28459C18.6349 9.15504 18.7376 9.00123 18.8077 8.83195C18.8777 8.66267 18.9136 8.48124 18.9135 8.29805H17.5189Z" fill="#EAB788"/>
<path fill-rule="evenodd" clip-rule="evenodd" d="M17.5191 8.29727H18.8971C18.8971 7.54249 18.2737 6.91895 17.5191 6.91895C16.7642 6.91895 16.1406 7.54249 16.1406 8.29727C16.1406 9.06845 16.7642 9.67559 17.5191 9.67559C18.2737 9.67559 18.8971 9.06845 18.8971 8.29727H17.5191Z" fill="#EBB989"/>
<path fill-rule="evenodd" clip-rule="evenodd" d="M17.5183 8.29766H18.8802C18.8802 7.55928 18.2731 6.95215 17.5183 6.95215C16.7634 6.95215 16.1563 7.55928 16.1563 8.29766C16.1558 8.47665 16.1907 8.65396 16.259 8.8194C16.3273 8.98485 16.4277 9.13517 16.5542 9.26172C16.6808 9.38828 16.8311 9.48858 16.9966 9.55685C17.162 9.62513 17.3393 9.66004 17.5183 9.65958C17.6973 9.66002 17.8746 9.62509 18.04 9.55681C18.2055 9.48852 18.3558 9.38822 18.4823 9.26167C18.6089 9.13511 18.7092 8.9848 18.7775 8.81937C18.8458 8.65393 18.8807 8.47663 18.8802 8.29766H17.5183Z" fill="#EBB98A"/>
<path fill-rule="evenodd" clip-rule="evenodd" d="M17.5187 8.29689H18.8477C18.8484 8.12216 18.8145 7.94901 18.748 7.78743C18.6815 7.62585 18.5836 7.47905 18.4601 7.35548C18.3365 7.23192 18.1897 7.13404 18.0282 7.0675C17.8666 7.00096 17.6935 6.96707 17.5187 6.96778C16.7802 6.96778 16.1895 7.55836 16.1895 8.29689C16.1895 9.03543 16.7802 9.64256 17.5187 9.64256C18.2569 9.64256 18.8477 9.03543 18.8477 8.29689H17.5187Z" fill="#EBBB8C"/>
<path fill-rule="evenodd" clip-rule="evenodd" d="M17.5189 8.29708H18.8313C18.8313 7.57511 18.2409 6.98438 17.5189 6.98438C16.7968 6.98438 16.2061 7.57495 16.2061 8.29708C16.2061 9.03545 16.7968 9.60994 17.5189 9.60994C18.2409 9.60994 18.8313 9.03561 18.8313 8.29708H17.5189Z" fill="#EBBB8C"/>
<path fill-rule="evenodd" clip-rule="evenodd" d="M17.5191 8.29825H18.8154C18.8154 7.59269 18.2413 7.00195 17.5191 7.00195C16.797 7.00195 16.2227 7.59253 16.2227 8.29825C16.2217 8.46878 16.2545 8.63782 16.3193 8.79556C16.3841 8.9533 16.4796 9.09661 16.6002 9.21719C16.7207 9.33777 16.8641 9.43321 17.0218 9.49799C17.1796 9.56276 17.3486 9.59558 17.5191 9.59455C17.6897 9.59559 17.8587 9.56276 18.0164 9.49798C18.1742 9.43321 18.3175 9.33776 18.4381 9.21718C18.5586 9.0966 18.6541 8.95329 18.7189 8.79555C18.7836 8.6378 18.8165 8.46877 18.8154 8.29825H17.5191Z" fill="#ECBD8F"/>
<path fill-rule="evenodd" clip-rule="evenodd" d="M17.5183 8.29767H18.7981C18.7981 7.5921 18.2239 7.03418 17.5183 7.03418C16.8126 7.03418 16.2383 7.59194 16.2383 8.29767C16.2383 9.00339 16.8126 9.57772 17.5183 9.57772C18.2239 9.57772 18.7981 9.00339 18.7981 8.29767H17.5183Z" fill="#ECBD90"/>
<path fill-rule="evenodd" clip-rule="evenodd" d="M17.5187 8.29786H18.7655C18.7656 8.1341 18.7334 7.97192 18.6708 7.8206C18.6081 7.66928 18.5163 7.53178 18.4005 7.41597C18.2847 7.30015 18.1473 7.20829 17.996 7.14563C17.8447 7.08297 17.6825 7.05074 17.5187 7.05078C17.3549 7.0507 17.1927 7.0829 17.0414 7.14554C16.89 7.20818 16.7525 7.30003 16.6367 7.41585C16.5208 7.53166 16.429 7.66917 16.3663 7.82051C16.3036 7.97186 16.2714 8.13406 16.2715 8.29786C16.2715 8.98702 16.8294 9.56135 17.5187 9.56135C18.2077 9.56135 18.7655 8.98702 18.7655 8.29786H17.5187Z" fill="#ECBF93"/>
<path fill-rule="evenodd" clip-rule="evenodd" d="M17.5189 8.29708H18.7496C18.7496 7.62433 18.1915 7.06641 17.5189 7.06641C16.8296 7.06641 16.2881 7.62433 16.2881 8.29708C16.2881 8.98625 16.8296 9.52776 17.5189 9.52776C18.1915 9.52776 18.7496 8.98625 18.7496 8.29708H17.5189Z" fill="#ECBF93"/>
<path fill-rule="evenodd" clip-rule="evenodd" d="M17.5191 8.29728H18.7332C18.7332 7.62453 18.1917 7.08301 17.5191 7.08301C16.8462 7.08301 16.3047 7.62437 16.3047 8.29728C16.3047 8.9702 16.8462 9.51156 17.5191 9.51156C17.6787 9.51191 17.8367 9.48075 17.9842 9.41985C18.1317 9.35895 18.2657 9.26952 18.3785 9.15669C18.4913 9.04386 18.5807 8.90986 18.6416 8.76238C18.7025 8.61489 18.7336 8.45684 18.7332 8.29728H17.5191Z" fill="#EDC195"/>
<path fill-rule="evenodd" clip-rule="evenodd" d="M17.5183 8.29654H18.7161C18.7161 7.64019 18.1749 7.11523 17.5183 7.11523C16.8618 7.11523 16.3203 7.64035 16.3203 8.29654C16.3203 8.95289 16.8618 9.49441 17.5183 9.49441C18.1747 9.49441 18.7161 8.95289 18.7161 8.29654H17.5183Z" fill="#EDC196"/>
<path fill-rule="evenodd" clip-rule="evenodd" d="M17.5187 8.29787H18.6836C18.6836 7.65792 18.1585 7.13281 17.5187 7.13281C16.8786 7.13281 16.3535 7.65792 16.3535 8.29787C16.3535 8.95422 16.8786 9.47934 17.5187 9.47934C18.1587 9.47934 18.6836 8.95422 18.6836 8.29787H17.5187Z" fill="#EEC397"/>
<path fill-rule="evenodd" clip-rule="evenodd" d="M17.519 8.29693H18.6674C18.6674 7.67339 18.1589 7.14844 17.519 7.14844C16.8788 7.14844 16.3701 7.67355 16.3701 8.29693C16.3692 8.44805 16.3983 8.59785 16.4557 8.73764C16.5131 8.87743 16.5977 9.00444 16.7046 9.11129C16.8114 9.21814 16.9384 9.30271 17.0782 9.36009C17.218 9.41748 17.3678 9.44654 17.519 9.44559C17.67 9.44652 17.8198 9.41744 17.9596 9.36004C18.0994 9.30265 18.2264 9.21807 18.3332 9.11122C18.44 9.00437 18.5246 8.87737 18.582 8.73759C18.6393 8.59781 18.6684 8.44803 18.6674 8.29693H17.519Z" fill="#EEC399"/>
<path fill-rule="evenodd" clip-rule="evenodd" d="M17.5191 8.29631H18.6511C18.6511 7.67277 18.1425 7.16406 17.5191 7.16406C16.8954 7.16406 16.3867 7.67277 16.3867 8.29631C16.3867 8.92001 16.8954 9.42856 17.5191 9.42856C18.1425 9.42856 18.6511 8.92001 18.6511 8.29631H17.5191Z" fill="#EEC59B"/>
<path fill-rule="evenodd" clip-rule="evenodd" d="M17.5193 8.29866H18.6349C18.6349 7.69152 18.1263 7.19922 17.5193 7.19922C16.912 7.19922 16.4033 7.69152 16.4033 8.29866C16.4033 8.92236 16.912 9.4145 17.5193 9.4145C18.1263 9.4145 18.6349 8.92236 18.6349 8.29866H17.5193Z" fill="#EEC69D"/>
<path fill-rule="evenodd" clip-rule="evenodd" d="M17.5187 8.29593H18.6016C18.6016 7.70535 18.1257 7.21289 17.5187 7.21289C16.9114 7.21289 16.4355 7.70519 16.4355 8.29593C16.4355 8.90306 16.9114 9.39537 17.5187 9.39537C18.1257 9.39537 18.6016 8.90306 18.6016 8.29593H17.5187Z" fill="#EEC69F"/>
<path fill-rule="evenodd" clip-rule="evenodd" d="M17.5189 8.29808H18.5853C18.5855 8.15796 18.5581 8.01916 18.5046 7.88965C18.4512 7.76014 18.3726 7.64246 18.2736 7.54336C18.1745 7.44427 18.0568 7.3657 17.9273 7.31218C17.7979 7.25865 17.6591 7.23122 17.5189 7.23145C17.3788 7.23115 17.2399 7.25854 17.1104 7.31204C16.9808 7.36554 16.8631 7.44409 16.764 7.54319C16.6649 7.64229 16.5863 7.75999 16.5328 7.88954C16.4793 8.01908 16.4519 8.15792 16.4522 8.29808C16.4519 8.43824 16.4793 8.57708 16.5328 8.70662C16.5863 8.83616 16.6649 8.95386 16.764 9.05296C16.8631 9.15207 16.9808 9.23062 17.1104 9.28412C17.2399 9.33762 17.3788 9.365 17.5189 9.36471C17.6591 9.36496 17.7979 9.33754 17.9274 9.28402C18.0569 9.23051 18.1745 9.15194 18.2736 9.05284C18.3727 8.95374 18.4512 8.83606 18.5047 8.70653C18.5582 8.57701 18.5855 8.43821 18.5853 8.29808H17.5189Z" fill="#EFC89F"/>
<path fill-rule="evenodd" clip-rule="evenodd" d="M17.5191 8.29811H18.5694C18.5694 7.72394 18.0935 7.24805 17.5191 7.24805C16.9447 7.24805 16.4688 7.72394 16.4688 8.29811C16.4683 8.43616 16.4952 8.57293 16.5479 8.70055C16.6005 8.82817 16.6779 8.94412 16.7755 9.04173C16.8731 9.13934 16.9891 9.21668 17.1167 9.2693C17.2443 9.32192 17.3811 9.34878 17.5191 9.34834C17.6572 9.34876 17.7939 9.32188 17.9215 9.26925C18.0491 9.21662 18.1651 9.13928 18.2627 9.04167C18.3603 8.94407 18.4376 8.82812 18.4903 8.70051C18.5429 8.5729 18.5698 8.43615 18.5694 8.29811H17.5191Z" fill="#EFC8A1"/>
<path fill-rule="evenodd" clip-rule="evenodd" d="M17.5184 8.29753H18.552C18.552 7.73977 18.0925 7.28027 17.5184 7.28027C16.9439 7.28027 16.4844 7.73977 16.4844 8.29753C16.4838 8.43347 16.5102 8.56817 16.5619 8.69387C16.6137 8.81956 16.6898 8.93376 16.786 9.02988C16.8821 9.12599 16.9963 9.20212 17.122 9.25386C17.2477 9.30561 17.3824 9.33194 17.5184 9.33135C17.6543 9.3319 17.7889 9.30553 17.9146 9.25377C18.0403 9.20201 18.1545 9.12588 18.2506 9.02977C18.3466 8.93365 18.4228 8.81947 18.4745 8.69379C18.5262 8.56812 18.5526 8.43344 18.552 8.29753H17.5184Z" fill="#EFCAA3"/>
<path fill-rule="evenodd" clip-rule="evenodd" d="M17.5188 8.29775H18.5195C18.5203 8.16609 18.495 8.03556 18.4451 7.91375C18.3951 7.79194 18.3214 7.68127 18.2283 7.58816C18.1352 7.49505 18.0246 7.42136 17.9028 7.37136C17.781 7.32136 17.6504 7.29605 17.5188 7.2969C17.3871 7.29603 17.2565 7.32132 17.1347 7.37131C17.0128 7.4213 16.9021 7.49498 16.809 7.58809C16.7159 7.68119 16.6422 7.79187 16.5921 7.91369C16.5421 8.03551 16.5168 8.16606 16.5176 8.29775C16.5176 8.85567 16.9607 9.31516 17.5188 9.31516C18.0765 9.31516 18.5195 8.85583 18.5195 8.29775H17.5188Z" fill="#EFCAA3"/>
<path fill-rule="evenodd" clip-rule="evenodd" d="M17.5189 8.29695H18.5032C18.5032 7.75543 18.0603 7.3125 17.5189 7.3125C16.9773 7.3125 16.5342 7.75543 16.5342 8.29695C16.5342 8.83846 16.9773 9.28155 17.5189 9.28155C18.0601 9.28155 18.5032 8.83846 18.5032 8.29695H17.5189Z" fill="#F0CCA6"/>
<path fill-rule="evenodd" clip-rule="evenodd" d="M17.5182 8.29714H18.4862C18.4862 7.77219 18.043 7.3291 17.5182 7.3291C16.9765 7.3291 16.5498 7.77219 16.5498 8.29714C16.5498 8.83866 16.9765 9.26535 17.5182 9.26535C18.043 9.26535 18.4862 8.83866 18.4862 8.29714H17.5182Z" fill="#F0CCA8"/>
<path fill-rule="evenodd" clip-rule="evenodd" d="M17.5184 8.29754H18.47C18.47 7.77258 18.0432 7.3623 17.5184 7.3623C16.9932 7.3623 16.5664 7.77258 16.5664 8.29754C16.5666 8.54994 16.6669 8.79196 16.8454 8.97043C17.0239 9.14889 17.266 9.24921 17.5184 9.24933C17.7707 9.24912 18.0127 9.14877 18.1911 8.97032C18.3695 8.79186 18.4698 8.54989 18.47 8.29754H17.5184Z" fill="#F1CEAA"/>
<path fill-rule="evenodd" clip-rule="evenodd" d="M17.5188 8.29774H18.4374C18.4377 8.17702 18.4141 8.05745 18.368 7.94588C18.3219 7.83431 18.2542 7.73293 18.1689 7.64757C18.0835 7.5622 17.9822 7.49453 17.8706 7.44843C17.759 7.40232 17.6395 7.3787 17.5188 7.37891C17.0099 7.37891 16.5996 7.78903 16.5996 8.29774C16.5996 8.80644 17.0099 9.23313 17.5188 9.23313C18.0273 9.23313 18.4374 8.80644 18.4374 8.29774H17.5188Z" fill="#F1CEAA"/>
<path fill-rule="evenodd" clip-rule="evenodd" d="M17.5188 8.29711H18.4212C18.4212 7.80497 18.0109 7.39453 17.5188 7.39453C17.0263 7.39453 16.6162 7.80481 16.6162 8.29711C16.6159 8.41574 16.639 8.53327 16.6842 8.64294C16.7294 8.75261 16.7959 8.85225 16.8798 8.93613C16.9637 9.02002 17.0633 9.08649 17.173 9.13172C17.2826 9.17695 17.4002 9.20005 17.5188 9.1997C17.6374 9.20003 17.7549 9.17692 17.8646 9.13167C17.9742 9.08643 18.0738 9.01996 18.1577 8.93608C18.2416 8.8522 18.308 8.75256 18.3533 8.6429C18.3985 8.53325 18.4216 8.41573 18.4212 8.29711H17.5188Z" fill="#F1D0AD"/>
<path fill-rule="evenodd" clip-rule="evenodd" d="M17.519 8.29813H18.4049C18.4049 7.82223 18.011 7.41211 17.519 7.41211C17.0265 7.41211 16.6328 7.82223 16.6328 8.29813C16.6323 8.41464 16.6549 8.53011 16.6992 8.63785C16.7436 8.7456 16.8089 8.84349 16.8912 8.92588C16.9736 9.00827 17.0715 9.07352 17.1793 9.11788C17.287 9.16223 17.4025 9.18481 17.519 9.18431C17.6355 9.18477 17.7509 9.16216 17.8586 9.11779C17.9663 9.07341 18.0642 9.00815 18.1465 8.92576C18.2289 8.84338 18.2941 8.7455 18.3385 8.63778C18.3828 8.53005 18.4054 8.41462 18.4049 8.29813H17.519Z" fill="#F1D0AE"/>
<path fill-rule="evenodd" clip-rule="evenodd" d="M17.5192 8.29754H18.3886C18.3886 7.82165 17.9948 7.44434 17.5192 7.44434C17.0433 7.44434 16.6494 7.82165 16.6494 8.29754C16.6494 8.77344 17.0433 9.16716 17.5192 9.16716C17.9948 9.16716 18.3886 8.77328 18.3886 8.29754H17.5192Z" fill="#F2D2B1"/>
<path fill-rule="evenodd" clip-rule="evenodd" d="M17.5186 8.29774H18.3554C18.3554 7.83841 17.9778 7.46094 17.5186 7.46094C17.0591 7.46094 16.6816 7.83841 16.6816 8.29774C16.6816 8.77364 17.0593 9.15095 17.5186 9.15095C17.9778 9.15095 18.3554 8.77348 18.3554 8.29774H17.5186Z" fill="#F2D2B3"/>
<path fill-rule="evenodd" clip-rule="evenodd" d="M17.5188 8.29696H18.339C18.339 7.85387 17.9778 7.47656 17.5188 7.47656C17.0593 7.47656 16.6982 7.85387 16.6982 8.29696C16.6982 8.75646 17.0595 9.11736 17.5188 9.11736C17.978 9.11736 18.339 8.7563 18.339 8.29696H17.5188Z" fill="#F3D4B4"/>
<path fill-rule="evenodd" clip-rule="evenodd" d="M17.519 8.29716H18.3228C18.3225 8.08404 18.2378 7.87974 18.0871 7.72903C17.9364 7.57832 17.7321 7.4935 17.519 7.49316C17.0757 7.49316 16.7148 7.85423 16.7148 8.29716C16.7148 8.74009 17.0757 9.10115 17.519 9.10115C17.7321 9.10077 17.9364 9.01594 18.087 8.86524C18.2377 8.71454 18.3225 8.51026 18.3228 8.29716H17.519Z" fill="#F3D4B5"/>
<path fill-rule="evenodd" clip-rule="evenodd" d="M17.5182 8.29657H18.3055C18.3055 7.87005 17.9446 7.52539 17.5182 7.52539C17.0914 7.52539 16.7305 7.87005 16.7305 8.29657C16.7305 8.73966 17.0915 9.08416 17.5182 9.08416C17.9447 9.08416 18.3055 8.7395 18.3055 8.29657H17.5182Z" fill="#F3D4B7"/>
<path fill-rule="evenodd" clip-rule="evenodd" d="M17.5196 8.29678H18.2742C18.2745 8.19759 18.2552 8.09933 18.2173 8.00765C18.1795 7.91596 18.1239 7.83265 18.0538 7.76251C17.9837 7.69237 17.9004 7.63678 17.8087 7.59894C17.717 7.5611 17.6188 7.54174 17.5196 7.542C17.4204 7.5417 17.3221 7.56102 17.2304 7.59885C17.1387 7.63667 17.0553 7.69226 16.9852 7.7624C16.915 7.83254 16.8594 7.91587 16.8216 8.00757C16.7837 8.09928 16.7644 8.19757 16.7647 8.29678C16.7647 8.72346 17.0929 9.06796 17.5196 9.06796C17.9461 9.06796 18.2742 8.7233 18.2742 8.29678H17.5196Z" fill="#F3D6B8"/>
<path fill-rule="evenodd" clip-rule="evenodd" d="M17.5188 8.29893H18.257C18.2574 8.20186 18.2386 8.10568 18.2016 8.01593C18.1647 7.92617 18.1103 7.84462 18.0417 7.77598C17.9731 7.70734 17.8915 7.65296 17.8018 7.61599C17.712 7.57901 17.6159 7.56017 17.5188 7.56055C17.1085 7.56055 16.7803 7.88881 16.7803 8.29893C16.7803 8.70905 17.1085 9.0373 17.5188 9.0373C17.6159 9.03768 17.712 9.01884 17.8018 8.98187C17.8915 8.94489 17.9731 8.89052 18.0417 8.82187C18.1103 8.75323 18.1647 8.67168 18.2016 8.58193C18.2386 8.49217 18.2574 8.39599 18.257 8.29893H17.5188Z" fill="#F4D8BA"/>
<path fill-rule="evenodd" clip-rule="evenodd" d="M17.519 8.29619H18.241C18.241 7.90231 17.9127 7.57422 17.519 7.57422C17.1253 7.57422 16.7969 7.90247 16.7969 8.29619C16.7969 8.70647 17.1253 9.01816 17.519 9.01816C17.9127 9.01816 18.241 8.70631 18.241 8.29619H17.519Z" fill="#F4D9BC"/>
<path fill-rule="evenodd" clip-rule="evenodd" d="M17.5192 8.29854H18.2248C18.2248 7.92107 17.9131 7.60938 17.5192 7.60938C17.1253 7.60938 16.8135 7.92107 16.8135 8.29854C16.8135 8.69241 17.1253 9.0041 17.5192 9.0041C17.9131 9.0041 18.2248 8.69225 18.2248 8.29854H17.5192Z" fill="#F4D9BE"/>
<path fill-rule="evenodd" clip-rule="evenodd" d="M17.5186 8.29776H18.1912C18.1912 7.92029 17.8959 7.625 17.5186 7.625C17.141 7.625 16.8457 7.92029 16.8457 8.29776C16.8457 8.67523 17.141 8.98692 17.5186 8.98692C17.8959 8.98692 18.1912 8.67507 18.1912 8.29776H17.5186Z" fill="#F4DBBF"/>
<path fill-rule="evenodd" clip-rule="evenodd" d="M17.5188 8.29795H18.1752C18.1747 8.12403 18.1053 7.95738 17.9824 7.8344C17.8594 7.71142 17.6927 7.64211 17.5188 7.6416C17.1576 7.6416 16.8623 7.93689 16.8623 8.29795C16.8623 8.65902 17.1576 8.9543 17.5188 8.9543C17.6927 8.9538 17.8594 8.88449 17.9824 8.76151C18.1053 8.63853 18.1747 8.47187 18.1752 8.29795H17.5188Z" fill="#F4DBC0"/>
<path fill-rule="evenodd" clip-rule="evenodd" d="M17.519 8.29815H18.159C18.159 7.95349 17.8635 7.6582 17.519 7.6582C17.1744 7.6582 16.8789 7.95349 16.8789 8.29815C16.8789 8.65921 17.1744 8.9381 17.519 8.9381C17.8634 8.9381 18.159 8.65921 18.159 8.29815H17.519Z" fill="#F5DDC3"/>
<path fill-rule="evenodd" clip-rule="evenodd" d="M17.5182 8.29757H18.1416C18.1416 7.96931 17.8626 7.69043 17.5182 7.69043C17.1736 7.69043 16.8945 7.96931 16.8945 8.29757C16.8945 8.46294 16.9602 8.62154 17.0772 8.73848C17.1941 8.85541 17.3527 8.92111 17.5181 8.92111C17.6834 8.92111 17.842 8.85541 17.959 8.73848C18.0759 8.62154 18.1416 8.46294 18.1416 8.29757H17.5182Z" fill="#F5DDC3"/>
<path fill-rule="evenodd" clip-rule="evenodd" d="M17.5186 8.2976H18.109C18.109 7.96935 17.8469 7.70703 17.5186 7.70703C17.1904 7.70703 16.9277 7.96951 16.9277 8.2976C16.9277 8.6257 17.1904 8.90474 17.5186 8.90474C17.8469 8.90474 18.109 8.62586 18.109 8.2976H17.5186Z" fill="#F6DFC6"/>
<path fill-rule="evenodd" clip-rule="evenodd" d="M17.5188 8.2978H18.093C18.093 7.98595 17.8305 7.72363 17.5188 7.72363C17.2068 7.72363 16.9443 7.98611 16.9443 8.2978C16.9443 8.62606 17.2068 8.87213 17.5188 8.87213C17.8305 8.87213 18.093 8.62606 18.093 8.2978H17.5188Z" fill="#F6DFC7"/>
<path fill-rule="evenodd" clip-rule="evenodd" d="M17.519 8.29702H18.0768C18.0768 8.00173 17.8307 7.73926 17.519 7.73926C17.207 7.73926 16.961 8.00173 16.961 8.29702C16.9603 8.37047 16.9744 8.44331 17.0022 8.51129C17.03 8.57927 17.0711 8.64103 17.1231 8.69296C17.175 8.74489 17.2368 8.78596 17.3048 8.81377C17.3727 8.84159 17.4456 8.85558 17.519 8.85494C17.5925 8.85554 17.6653 8.84151 17.7332 8.81368C17.8012 8.78585 17.8629 8.74478 17.9148 8.69285C17.9667 8.64092 18.0078 8.57918 18.0356 8.51122C18.0634 8.44326 18.0774 8.37045 18.0768 8.29702H17.519Z" fill="#F6E1CA"/>
<path fill-rule="evenodd" clip-rule="evenodd" d="M17.5192 8.29741H18.0604C18.0604 8.00213 17.8143 7.77246 17.5192 7.77246C17.2238 7.77246 16.9775 8.00213 16.9775 8.29741C16.9775 8.59286 17.2236 8.83893 17.5192 8.83893C17.8145 8.83893 18.0604 8.59286 18.0604 8.29741H17.5192Z" fill="#F6E1CC"/>
<path fill-rule="evenodd" clip-rule="evenodd" d="M17.5186 8.29777H18.0272C18.0265 8.16309 17.9727 8.03411 17.8775 7.93886C17.7823 7.8436 17.6533 7.78977 17.5186 7.78906C17.3839 7.78969 17.2549 7.84348 17.1596 7.93874C17.0643 8.034 17.0104 8.16303 17.0098 8.29777C17.0098 8.59322 17.2396 8.82288 17.5186 8.82288C17.7974 8.82288 18.0272 8.59322 18.0272 8.29777H17.5186Z" fill="#F7E3CD"/>
<path fill-rule="evenodd" clip-rule="evenodd" d="M17.5188 8.29781H18.011C18.011 8.03533 17.7976 7.80566 17.5188 7.80566C17.2398 7.80566 17.0264 8.03533 17.0264 8.29781C17.0264 8.57669 17.2398 8.79011 17.5188 8.79011C17.7976 8.79011 18.011 8.57669 18.011 8.29781H17.5188Z" fill="#F7E3CF"/>
<path fill-rule="evenodd" clip-rule="evenodd" d="M17.5184 8.29816H17.994C17.9939 8.17203 17.9438 8.05108 17.8546 7.96186C17.7655 7.87264 17.6446 7.82243 17.5184 7.82227C17.3943 7.82548 17.2764 7.87702 17.1898 7.96592C17.1032 8.05482 17.0547 8.17404 17.0547 8.29816C17.0547 8.42229 17.1032 8.54151 17.1898 8.63041C17.2764 8.7193 17.3943 8.77085 17.5184 8.77406C17.6446 8.77394 17.7655 8.72375 17.8547 8.63452C17.9439 8.54529 17.994 8.42431 17.994 8.29816H17.5184Z" fill="#F7E3D0"/>
<path fill-rule="evenodd" clip-rule="evenodd" d="M17.5181 8.29758H17.9773C17.9773 8.05151 17.7642 7.85449 17.5181 7.85449C17.2717 7.85449 17.0586 8.05151 17.0586 8.29758C17.0585 8.35796 17.0703 8.41777 17.0933 8.47357C17.1164 8.52938 17.1502 8.58008 17.1929 8.62277C17.2356 8.66547 17.2863 8.69931 17.3421 8.72235C17.3979 8.7454 17.4577 8.7572 17.5181 8.75707C17.5784 8.75718 17.6382 8.74536 17.694 8.72231C17.7498 8.69925 17.8005 8.6654 17.8431 8.62271C17.8858 8.58001 17.9196 8.52932 17.9426 8.47352C17.9656 8.41773 17.9774 8.35794 17.9773 8.29758H17.5181Z" fill="#F8E5D1"/>
<path fill-rule="evenodd" clip-rule="evenodd" d="M17.5187 8.29763H17.9452C17.9452 8.06796 17.7647 7.87111 17.5187 7.87111C17.4625 7.87068 17.4068 7.88142 17.3549 7.9027C17.3029 7.92399 17.2557 7.95538 17.216 7.99507C17.1763 8.03475 17.1448 8.08194 17.1235 8.13388C17.1022 8.18582 17.0914 8.24148 17.0918 8.29763C17.0918 8.5437 17.2723 8.74072 17.5187 8.74072C17.7647 8.74072 17.9452 8.54386 17.9452 8.29763H17.5187Z" fill="#F8E8D4"/>
<path fill-rule="evenodd" clip-rule="evenodd" d="M17.5187 8.29702H17.9287C17.9292 8.24301 17.919 8.18944 17.8986 8.13943C17.8782 8.08943 17.848 8.04399 17.8098 8.00579C17.7717 7.96758 17.7263 7.93738 17.6763 7.91693C17.6263 7.89649 17.5727 7.88623 17.5187 7.88674C17.4647 7.88621 17.4111 7.89645 17.3611 7.91688C17.311 7.93731 17.2656 7.96752 17.2274 8.00572C17.1892 8.04393 17.159 8.08937 17.1386 8.13938C17.1181 8.1894 17.1079 8.24299 17.1084 8.29702C17.1079 8.35105 17.1181 8.40465 17.1385 8.45468C17.1589 8.5047 17.1891 8.55015 17.2274 8.58836C17.2656 8.62657 17.311 8.65677 17.361 8.67719C17.4111 8.69762 17.4647 8.70785 17.5187 8.7073C17.5727 8.70781 17.6263 8.69754 17.6763 8.6771C17.7263 8.65666 17.7717 8.62645 17.8098 8.58825C17.848 8.55004 17.8782 8.50461 17.8986 8.4546C17.919 8.4046 17.9292 8.35102 17.9287 8.29702H17.5187Z" fill="#F8E8D6"/>
<path fill-rule="evenodd" clip-rule="evenodd" d="M17.5189 8.29739H17.9127C17.9127 8.08413 17.732 7.91992 17.5189 7.91992C17.3055 7.91992 17.125 8.08397 17.125 8.29739C17.125 8.51081 17.3055 8.69127 17.5189 8.69127C17.732 8.69127 17.9127 8.51081 17.9127 8.29739H17.5189Z" fill="#F8E8D8"/>
<path fill-rule="evenodd" clip-rule="evenodd" d="M17.5183 8.29661H17.8956C17.8956 8.09975 17.7148 7.93555 17.5183 7.93555C17.3211 7.93555 17.1406 8.09975 17.1406 8.29661C17.1406 8.50987 17.3211 8.67408 17.5183 8.67408C17.7148 8.67408 17.8956 8.51003 17.8956 8.29661H17.5183Z" fill="#F9EAD9"/>
<path fill-rule="evenodd" clip-rule="evenodd" d="M17.5185 8.29681H17.8628C17.8628 8.11635 17.715 7.95215 17.5185 7.95215C17.3213 7.95215 17.1738 8.1162 17.1738 8.29681C17.1738 8.49382 17.3213 8.65787 17.5185 8.65787C17.715 8.65787 17.8628 8.49382 17.8628 8.29681H17.5185Z" fill="#FAECDC"/>
<path fill-rule="evenodd" clip-rule="evenodd" d="M17.5197 8.297H17.8479C17.8476 8.21004 17.8129 8.12671 17.7514 8.06522C17.69 8.00372 17.6066 7.96904 17.5197 7.96875C17.3389 7.96875 17.1914 8.11639 17.1914 8.297C17.1914 8.47762 17.3389 8.62526 17.5197 8.62526C17.6066 8.62501 17.69 8.59034 17.7515 8.52884C17.813 8.46733 17.8477 8.38399 17.8479 8.297H17.5197Z" fill="#FAECDD"/>
<path fill-rule="evenodd" clip-rule="evenodd" d="M17.519 8.29626H17.8307C17.8307 8.13221 17.6829 8.00098 17.519 8.00098C17.3548 8.00098 17.207 8.13221 17.207 8.29626C17.207 8.47672 17.3548 8.60811 17.519 8.60811C17.56 8.60811 17.6005 8.60005 17.6384 8.58437C17.6762 8.5687 17.7106 8.54573 17.7395 8.51677C17.7684 8.48781 17.7914 8.45343 17.8071 8.41559C17.8227 8.37776 17.8308 8.33721 17.8307 8.29626H17.519Z" fill="#FAECDF"/>
<path fill-rule="evenodd" clip-rule="evenodd" d="M17.5191 8.29841H17.8144C17.8144 8.15077 17.6831 8.01953 17.5191 8.01953C17.3549 8.01953 17.2236 8.15077 17.2236 8.29841C17.2236 8.46262 17.3549 8.59386 17.5191 8.59386C17.5579 8.59401 17.5964 8.58646 17.6323 8.57167C17.6682 8.55687 17.7008 8.53511 17.7283 8.50764C17.7557 8.48018 17.7775 8.44755 17.7922 8.41164C17.807 8.37573 17.8145 8.33724 17.8144 8.29841H17.5191Z" fill="#FAEEE0"/>
<path fill-rule="evenodd" clip-rule="evenodd" d="M17.5187 8.29763H17.7811C17.7811 8.14999 17.666 8.03516 17.5187 8.03516C17.3709 8.03516 17.2559 8.14999 17.2559 8.29763C17.2559 8.44528 17.371 8.57651 17.5187 8.57651C17.6661 8.57651 17.7811 8.44528 17.7811 8.29763H17.5187Z" fill="#FBF0E3"/>
<path fill-rule="evenodd" clip-rule="evenodd" d="M17.5189 8.29783H17.7649C17.7649 8.16659 17.6498 8.05176 17.5189 8.05176C17.3876 8.05176 17.2725 8.16659 17.2725 8.29783C17.2725 8.44547 17.3876 8.5439 17.5189 8.5439C17.6498 8.5439 17.7649 8.44547 17.7649 8.29783H17.5189Z" fill="#FBF1E5"/>
<path fill-rule="evenodd" clip-rule="evenodd" d="M17.5189 8.29725H17.7484C17.7484 8.18241 17.6498 8.08398 17.5189 8.08398C17.3876 8.08398 17.2891 8.18241 17.2891 8.29725C17.2891 8.42864 17.3876 8.52707 17.5189 8.52707C17.6498 8.52707 17.7484 8.42864 17.7484 8.29725H17.5189Z" fill="#FBF1E7"/>
<path fill-rule="evenodd" clip-rule="evenodd" d="M17.5191 8.29744H17.7322C17.7322 8.18261 17.6339 8.10059 17.5191 8.10059C17.4039 8.10059 17.3057 8.18261 17.3057 8.29744C17.3057 8.41244 17.4039 8.51071 17.5191 8.51071C17.6339 8.51071 17.7322 8.41228 17.7322 8.29744H17.5191Z" fill="#FCF3E8"/>
<path fill-rule="evenodd" clip-rule="evenodd" d="M17.5187 8.29764H17.6991C17.6991 8.19921 17.6169 8.11719 17.5187 8.11719C17.4201 8.11719 17.3379 8.19937 17.3379 8.29764C17.3379 8.41263 17.4201 8.49466 17.5187 8.49466C17.6169 8.49466 17.6991 8.41263 17.6991 8.29764H17.5187Z" fill="#FCF3EA"/>
<path fill-rule="evenodd" clip-rule="evenodd" d="M17.5187 8.29686H17.6826C17.6826 8.21484 17.617 8.13281 17.5187 8.13281C17.4201 8.13281 17.3545 8.21484 17.3545 8.29686C17.3545 8.39545 17.4201 8.46107 17.5187 8.46107C17.617 8.46107 17.6826 8.39545 17.6826 8.29686H17.5187Z" fill="#FCF5ED"/>
<path fill-rule="evenodd" clip-rule="evenodd" d="M17.5189 8.29823H17.6664C17.6664 8.21621 17.6008 8.16699 17.5189 8.16699C17.4367 8.16699 17.3711 8.21621 17.3711 8.29823C17.3711 8.38025 17.4367 8.44587 17.5189 8.44587C17.5383 8.44594 17.5575 8.44216 17.5754 8.43476C17.5934 8.42736 17.6097 8.41649 17.6234 8.40276C17.6371 8.38904 17.6479 8.37273 17.6553 8.35479C17.6627 8.33685 17.6665 8.31763 17.6664 8.29823H17.5189Z" fill="#FCF5EF"/>
<path fill-rule="evenodd" clip-rule="evenodd" d="M17.5189 8.29745H17.6499C17.6499 8.23183 17.5842 8.18262 17.5189 8.18262C17.4533 8.18262 17.3877 8.23199 17.3877 8.29745C17.3877 8.36307 17.4533 8.42885 17.5189 8.42885C17.5842 8.42885 17.6499 8.36307 17.6499 8.29745H17.5189Z" fill="#FDF8F1"/>
<path fill-rule="evenodd" clip-rule="evenodd" d="M17.5185 8.29765H17.6168C17.6168 8.24843 17.5676 8.19922 17.5185 8.19922C17.469 8.19922 17.4199 8.24843 17.4199 8.29765C17.4199 8.36327 17.4691 8.41264 17.5185 8.41264C17.5677 8.41264 17.6168 8.36327 17.6168 8.29765H17.5185Z" fill="#FDF8F3"/>
<path fill-rule="evenodd" clip-rule="evenodd" d="M17.5187 8.29784H17.6006C17.6006 8.26503 17.5679 8.21582 17.5187 8.21582C17.4692 8.21582 17.4365 8.26503 17.4365 8.29784C17.4365 8.34706 17.4692 8.37987 17.5187 8.37987C17.5679 8.37987 17.6006 8.34706 17.6006 8.29784H17.5187Z" fill="#FDF8F5"/>
<path fill-rule="evenodd" clip-rule="evenodd" d="M17.5187 8.29726H17.584C17.584 8.26445 17.5514 8.24805 17.5187 8.24805C17.4858 8.24805 17.4531 8.26445 17.4531 8.29726C17.4531 8.33007 17.4858 8.36288 17.5187 8.36288C17.5514 8.36288 17.584 8.33007 17.584 8.29726H17.5187Z" fill="#FEFBF6"/>
<path fill-rule="evenodd" clip-rule="evenodd" d="M17.5183 8.29746H17.5509C17.5509 8.28105 17.5344 8.26465 17.5183 8.26465C17.5017 8.26465 17.4688 8.28105 17.4688 8.29746C17.4688 8.33027 17.5017 8.34667 17.5183 8.34667C17.5345 8.34667 17.5509 8.33027 17.5509 8.29746H17.5183Z" fill="#FFFFFB"/>
<path fill-rule="evenodd" clip-rule="evenodd" d="M17.5185 8.29765H17.5348C17.5348 8.29765 17.5348 8.28125 17.5185 8.28125C17.502 8.28125 17.502 8.29765 17.502 8.29765C17.502 8.31406 17.502 8.33046 17.5185 8.33046C17.5348 8.33046 17.5348 8.31406 17.5348 8.29765H17.5185Z" fill="white"/>
<path fill-rule="evenodd" clip-rule="evenodd" d="M21.8014 9.05229L20.6364 6.09863H19.6846L21.5554 10.6111H22.0148L23.9183 6.09863H22.9829L21.8014 9.05229ZM24.3122 10.4964H26.7407V9.75786H25.1654V8.5764H26.6749V7.82161H25.1654V6.85341H26.7407V6.09863H24.3122V10.4964ZM30.1373 7.39493C30.1373 6.57453 29.5792 6.09863 28.5785 6.09863H27.3149V10.4962H28.1681V8.74044H28.2829L29.4644 10.4962H30.5146L29.1363 8.64186C29.7761 8.51078 30.1373 8.06769 30.1373 7.39493ZM28.4142 8.13347H28.1681V6.78795H28.4306C28.9721 6.78795 29.2508 7.01762 29.2508 7.44431C29.251 7.88723 28.9722 8.13347 28.4142 8.13347Z" fill="#231F20"/>
<path fill-rule="evenodd" clip-rule="evenodd" d="M8.7373 20.9982C8.7373 20.9982 17.4979 19.4639 23.2041 17.1791C28.8852 15.1002 32.4215 12.5771 32.4215 12.5771V17.9982C32.4215 19.6551 31.0784 20.9982 29.4215 20.9982H8.7373Z" fill="#F18231"/>
<path fill-rule="evenodd" clip-rule="evenodd" d="M10.9131 11.5811L11.868 12.4984C11.9048 12.5336 11.932 12.5612 11.9497 12.5817C11.9674 12.6021 11.9954 12.6354 12.0335 12.6819V11.6394H12.2563V13.2005L11.2812 12.2657C11.228 12.2154 11.1796 12.1593 11.1361 12.0975V13.1422H10.9131V11.5811Z" fill="#231F20"/>
<path fill-rule="evenodd" clip-rule="evenodd" d="M13.0137 11.6387H13.8523V11.8466H13.2576V12.2231H13.8523V12.4372H13.2576V12.9228H13.8523V13.1415H13.0137V11.6387Z" fill="#231F20"/>
<path fill-rule="evenodd" clip-rule="evenodd" d="M14.9553 13.1495H14.7116V11.8388H14.3809V11.6309H15.2837V11.8388H14.9553V13.1495Z" fill="#231F20"/>
<path fill-rule="evenodd" clip-rule="evenodd" d="M16.0465 11.6393L16.3308 12.3978C16.3461 12.4384 16.3601 12.4776 16.3727 12.5155C16.3853 12.5534 16.398 12.5931 16.4103 12.6353C16.4273 12.5805 16.4444 12.527 16.4619 12.4746L16.4923 12.3835L16.7946 11.582L17.1119 12.3981C17.1409 12.476 17.1672 12.5555 17.1906 12.6369C17.1963 12.6103 17.2067 12.5738 17.2218 12.5276C17.2371 12.4813 17.2508 12.44 17.2634 12.4037L17.5464 11.639L17.7909 11.6393L17.2086 13.2004L16.866 12.3432C16.8351 12.2677 16.8107 12.1976 16.7924 12.1331C16.7698 12.2132 16.7462 12.2847 16.7209 12.3475L16.3845 13.2004L15.8047 11.6393H16.0465Z" fill="#231F20"/>
<path fill-rule="evenodd" clip-rule="evenodd" d="M19.3858 11.9945C19.2807 11.8852 19.152 11.8304 18.9991 11.8304C18.8465 11.8304 18.7302 11.8712 18.6504 11.9526C18.5703 12.0338 18.5171 12.1087 18.4905 12.1767C18.4639 12.245 18.4507 12.3175 18.4507 12.3946C18.4507 12.5505 18.5039 12.6832 18.6103 12.7926C18.7167 12.9022 18.8465 12.957 18.9991 12.957C19.1504 12.957 19.2797 12.9016 19.3869 12.7915C19.4941 12.6813 19.5478 12.5491 19.5478 12.3946C19.5478 12.2388 19.4938 12.1055 19.3858 11.9945ZM19.5666 12.9524C19.4084 13.1067 19.2192 13.1838 18.9991 13.1838C18.8898 13.1838 18.7869 13.1642 18.6901 13.1249C18.5937 13.0857 18.5066 13.0285 18.4295 12.9535C18.3527 12.8783 18.2944 12.7934 18.2551 12.6988C18.2159 12.6042 18.1963 12.5026 18.1963 12.3946C18.1963 12.1743 18.2745 11.9878 18.4306 11.8349C18.587 11.682 18.7764 11.6055 18.9991 11.6055C19.2205 11.6055 19.4097 11.6823 19.5666 11.836C19.7235 11.9897 19.802 12.1759 19.802 12.3946C19.802 12.6136 19.7235 12.7995 19.5666 12.9524Z" fill="#231F20"/>
<path fill-rule="evenodd" clip-rule="evenodd" d="M20.6618 12.2798C20.7811 12.2798 20.8644 12.2671 20.9119 12.2419C20.9595 12.2166 20.9834 12.1607 20.9834 12.0737C20.9834 11.9856 20.959 11.9259 20.9098 11.895C20.8609 11.8644 20.7781 11.8491 20.6618 11.8491H20.6177V12.2798H20.6618ZM20.603 13.1415H20.374V11.6387H20.7145C20.8055 11.6387 20.8797 11.6443 20.9372 11.6556C20.9947 11.6669 21.0458 11.6897 21.0906 11.7249C21.1355 11.7599 21.1704 11.8055 21.1957 11.8614C21.2209 11.9176 21.2336 11.9813 21.2336 12.0527C21.2336 12.2951 21.1186 12.4305 20.8888 12.4585L21.4058 13.1415L21.1315 13.1409L20.6306 12.4687L20.603 12.4689V13.1415Z" fill="#231F20"/>
<path fill-rule="evenodd" clip-rule="evenodd" d="M21.9238 11.6387H22.1675V12.2618L22.7079 11.6389L23.0061 11.6387L22.4112 12.3072L23.0776 13.1415L22.7611 13.1426L22.1675 12.3757V13.1415H21.9238V11.6387Z" fill="#231F20"/>
<defs>
<linearGradient id="paint0_linear_21243_71835" x1="18.7375" y1="2.31579" x2="2.42167" y2="20.2105" gradientUnits="userSpaceOnUse">
<stop stop-color="#F0F0F0"/>
<stop offset="1" stop-color="#CACACA"/>
</linearGradient>
</defs>
</svg>
