<svg width="34" height="22" viewBox="0 0 34 22" fill="none" xmlns="http://www.w3.org/2000/svg">
<rect x="1.10547" y="1" width="32.1053" height="20" rx="3" fill="url(#paint0_linear_21243_71823)" stroke="#C9CBD4" stroke-width="0.3"/>
<path fill-rule="evenodd" clip-rule="evenodd" d="M12.8621 4.68359C16.4173 4.68359 19.3175 7.58591 19.3175 11.1435C19.3175 14.7058 16.4173 17.6031 12.8621 17.6031C9.30748 17.6031 6.40723 14.7058 6.40723 11.1435C6.40723 7.58591 9.30748 4.68359 12.8621 4.68359Z" fill="#EB001B"/>
<path fill-rule="evenodd" clip-rule="evenodd" d="M21.4932 4.68359C25.0479 4.68359 27.9481 7.58591 27.9481 11.1435C27.9481 14.7058 25.0479 17.6084 21.4932 17.6084C19.8111 17.6084 18.2804 16.9581 17.1275 15.9003H17.2279C17.4582 15.6868 17.6735 15.4578 17.8725 15.2149H16.4879C16.3106 14.999 16.1475 14.7717 15.9997 14.5346H18.3563C18.4923 14.3126 18.6181 14.0859 18.724 13.8492H15.6316C15.5301 13.6255 15.4395 13.3969 15.3601 13.1644H18.9953C19.2167 12.4992 19.3377 11.6928 19.3279 11.1337C19.3226 10.5694 19.2421 10.2167 19.1768 9.76833H15.1836C15.2391 9.53633 15.2996 9.30965 15.3749 9.08296H18.9802C18.9023 8.85127 18.8115 8.62413 18.7081 8.40262H15.6517C15.7624 8.16561 15.8887 7.93892 16.0248 7.71725H18.3306C18.1828 7.47882 18.0178 7.25144 17.8371 7.03691H16.518C17.7063 5.60036 19.4941 4.68359 21.4932 4.68359Z" fill="#F79E1B"/>
<path fill-rule="evenodd" clip-rule="evenodd" d="M21.2266 9.80723L21.0958 10.5227C20.9494 10.4823 20.733 10.3462 20.6023 10.3362C20.2599 10.3211 20.0931 10.4271 19.9072 10.6638C19.7159 10.8955 19.62 11.2181 19.62 11.636C19.62 11.9082 19.6654 11.9634 19.8062 12.1198C19.9526 12.2813 20.0028 12.3314 20.2496 12.3314C20.3603 12.3314 20.4715 12.3114 20.5822 12.276C20.6675 12.2512 20.7534 12.2154 20.8387 12.1706L20.7026 12.9513C20.6215 12.9744 20.5391 12.9931 20.4559 13.0071C20.331 13.0271 20.2048 13.0371 20.0784 13.0372C19.6404 13.0372 19.4337 12.9212 19.187 12.6393C18.9402 12.3568 18.8446 12.1154 18.8446 11.6115C18.8446 11.3491 18.885 11.0971 18.9606 10.8553C19.0412 10.6136 19.1468 10.4067 19.2829 10.2355C19.4488 10.0239 19.6356 9.87276 19.8467 9.77683C20.0583 9.68621 20.3101 9.63574 20.5973 9.63574C20.8939 9.63604 21.03 9.69153 21.2266 9.80723ZM7.38411 9.72665H8.39651L8.49214 11.6821L9.12172 9.72665H10.2091L9.70053 13.0074H8.94521L9.32272 10.5885L8.51221 13.0074H8.00837L7.94314 10.5885L7.50512 13.0074H6.88086L7.38411 9.72665ZM15.0226 9.92825L14.947 10.3114H15.305L15.2392 10.9563H14.8413L14.7053 11.8232C14.7005 11.8734 14.6752 11.9392 14.6752 11.9793C14.6699 12.0144 14.6648 12.0445 14.6648 12.0646C14.6648 12.1603 14.6849 12.2261 14.7206 12.2665C14.7557 12.3114 14.8157 12.3317 14.8965 12.3317C14.9721 12.3317 15.0072 12.3474 15.0828 12.322L14.9721 12.9672C14.8972 12.9853 14.8216 13.0003 14.7454 13.0121C14.6802 13.0174 14.6197 13.0224 14.5742 13.0224C14.3582 13.0224 14.1763 12.9873 14.0606 12.8512C13.9446 12.7199 13.9349 12.5634 13.9349 12.3167C13.9349 12.2762 13.9349 12.2314 13.9402 12.1909C13.9449 12.1505 13.9449 12.1051 13.9553 12.0596L14.3328 9.93326L15.0226 9.92825ZM16.7097 11.3291C16.7144 11.309 16.7144 11.2836 16.7194 11.2736V11.2385C16.7194 11.1275 16.6893 11.0416 16.6288 10.9764C16.5733 10.9108 16.4928 10.8804 16.3971 10.8804C16.2918 10.8804 16.2059 10.9209 16.1303 11.0015C16.0497 11.0817 15.9942 11.1877 15.9591 11.3288H16.7097V11.3291ZM17.3139 11.8784H15.8889C15.9039 12.0646 15.9541 12.2007 16.04 12.2916C16.1306 12.3769 16.2566 12.4224 16.4228 12.4224C16.5388 12.4224 16.7301 12.417 16.8505 12.3819C16.9729 12.348 17.0912 12.3005 17.2032 12.2405L17.1226 12.8908C17.0016 12.941 16.8706 12.9507 16.7451 12.9761C16.6144 13.0015 16.4125 13.0015 16.2817 13.0015C15.9594 13.0015 15.6879 12.9058 15.501 12.6889C15.3148 12.4773 15.2342 12.1797 15.2342 11.812C15.2342 11.6056 15.2543 11.4038 15.3201 11.2025C15.3853 11.0009 15.4966 10.7942 15.6073 10.6582C15.716 10.5284 15.8541 10.4265 16.0102 10.361C16.1657 10.2904 16.3422 10.2603 16.5388 10.2603C16.826 10.2603 17.0474 10.3914 17.2035 10.5829C17.3591 10.7692 17.3644 11.0413 17.3644 11.3943C17.3644 11.4646 17.3591 11.5401 17.3493 11.621C17.344 11.7022 17.329 11.7875 17.3139 11.8784ZM26.3724 9.70156H27.0879L26.5241 12.9716H25.8789L25.9447 12.6597C25.8139 12.8713 25.4565 12.987 25.2142 12.987C24.9627 12.987 24.7767 12.8958 24.63 12.6948C24.4842 12.4879 24.4237 12.2612 24.4237 11.9138C24.4237 11.4554 24.5143 11.0823 24.7159 10.7951C24.9223 10.5079 25.2094 10.2813 25.5368 10.2813C25.6923 10.2813 25.8635 10.3214 25.9795 10.407C26.0955 10.4929 26.1306 10.513 26.2015 10.6186L26.3724 9.70156ZM26.0604 11.4705C26.0604 11.3143 26.02 11.188 25.9497 11.0924C25.918 11.0474 25.8757 11.011 25.8265 10.9863C25.7773 10.9617 25.7228 10.9497 25.6678 10.9513C25.5214 10.9513 25.3957 11.0319 25.3001 11.2033C25.1947 11.3695 25.1439 11.5811 25.1439 11.8279C25.1439 11.9743 25.179 12.0903 25.2449 12.1806C25.3101 12.2718 25.396 12.3167 25.5067 12.3167C25.6578 12.3167 25.7886 12.2361 25.8945 12.0699C26.0052 11.9032 26.0604 11.7022 26.0604 11.4705ZM19.0061 10.3214L18.7894 11.1074C18.684 11.1074 18.568 11.0873 18.4972 11.1679C18.4022 11.2836 18.3363 11.4905 18.2862 11.7777L18.0843 12.9716H17.3543L17.7522 10.3264H18.452L18.3818 10.7146C18.4872 10.528 18.5627 10.4123 18.6837 10.3518C18.7841 10.301 18.9104 10.3114 19.0061 10.3214ZM24.6808 10.3214L24.4589 11.1074C24.3579 11.1074 24.2375 11.0873 24.1717 11.1679C24.076 11.2836 24.0108 11.4905 23.9606 11.7777L23.7587 12.9716H23.0288L23.4214 10.3264H24.1212L24.056 10.7146C24.1613 10.528 24.2369 10.4123 24.3573 10.3518C24.4589 10.301 24.5852 10.3114 24.6808 10.3214ZM13.9553 10.3415L13.8894 10.9362L13.3159 10.9058C13.215 10.9008 13.1949 10.8908 13.1394 10.9362C13.1125 10.9546 13.0905 10.9794 13.0755 11.0084C13.0605 11.0374 13.0529 11.0697 13.0536 11.1024C13.0536 11.193 13.0692 11.2886 13.2448 11.3642C13.3157 11.3949 13.3711 11.4247 13.4107 11.4448C13.5618 11.5203 13.6828 11.6062 13.7531 11.7066C13.8239 11.8075 13.854 11.9994 13.854 12.1452C13.854 12.4224 13.8039 12.6189 13.6223 12.7904C13.4414 12.9563 13.1489 12.9967 12.8523 12.9967C12.7011 12.9967 12.5547 13.002 12.4142 12.992C12.2581 12.9817 12.1876 12.9867 12.0568 12.9315L12.1324 12.3066C12.2333 12.3672 12.3641 12.3568 12.4597 12.3872C12.56 12.412 12.6557 12.4271 12.7566 12.4271C12.8726 12.4271 12.9629 12.4076 13.0234 12.3672C13.0887 12.3314 13.1542 12.2358 13.1542 12.1653C13.1542 12.0593 13.0181 11.9941 12.8573 11.9185C12.8319 11.9082 12.8118 11.8984 12.7968 11.8931C12.5955 11.7872 12.4744 11.6614 12.4042 11.5552C12.3286 11.4498 12.2929 11.3137 12.2929 11.1473C12.2929 10.9005 12.3841 10.6738 12.5547 10.5023C12.7265 10.3308 12.9278 10.2957 13.2247 10.2957C13.3407 10.2957 13.5019 10.2957 13.6374 10.3058C13.764 10.3114 13.8343 10.3063 13.9553 10.3415ZM12.102 11.5457L11.9815 12.2715C11.9561 12.4173 11.9361 12.5384 11.921 12.6343C11.9107 12.7299 11.8859 12.9011 11.8806 12.987H11.3168L11.3319 12.6791C11.2513 12.8255 11.1861 12.8309 11.0651 12.9064C10.9446 12.982 10.7681 12.9923 10.6067 13.0074C10.38 13.0224 10.2088 12.9162 10.1034 12.76C9.99274 12.6089 9.94728 12.4631 9.94728 12.2361C9.94728 11.9439 10.0175 11.6918 10.2345 11.531C10.4505 11.3695 10.7534 11.2836 11.1406 11.2836C11.1861 11.2836 11.2362 11.2889 11.2917 11.294C11.3472 11.294 11.4128 11.3037 11.478 11.309V11.2789C11.478 11.2633 11.4833 11.2482 11.4833 11.2281C11.4833 11.0971 11.4482 11.0015 11.3779 10.9312C11.3325 10.8857 10.8292 10.8958 10.7283 10.9058C10.6123 10.9159 10.4308 10.946 10.3201 11.0115L10.3708 10.4321C10.4868 10.3816 10.7132 10.3462 10.8292 10.3211C10.9432 10.2954 11.0595 10.2819 11.1763 10.281C11.4836 10.281 11.7303 10.3261 11.9015 10.4722C12.0727 10.6183 12.1483 10.8403 12.1483 11.0921C12.1483 11.1526 12.143 11.2181 12.1332 11.2937C12.1273 11.3745 12.1176 11.4554 12.102 11.5457ZM23.0846 11.5457L22.9636 12.2715C22.9382 12.4173 22.9181 12.5384 22.9031 12.6343C22.8933 12.7299 22.873 12.9011 22.8632 12.987H22.2989L22.3139 12.6791C22.2339 12.8255 22.1731 12.8309 22.0471 12.9064C21.9267 12.982 21.7502 12.9923 21.594 13.0074C21.3623 13.0224 21.1962 12.9162 21.0855 12.76C20.9801 12.6089 20.9343 12.4631 20.9343 12.2361C20.9343 11.9439 21.0046 11.6918 21.2215 11.531C21.4332 11.3695 21.7351 11.2836 22.1227 11.2836C22.1681 11.2836 22.2183 11.2889 22.2738 11.294C22.3296 11.294 22.3948 11.3037 22.4606 11.309C22.4606 11.299 22.4606 11.2889 22.4653 11.2789V11.2281C22.4653 11.0971 22.4302 11.0015 22.36 10.9312C22.3145 10.8857 21.8113 10.8958 21.7103 10.9058C21.5943 10.9159 21.4134 10.946 21.3074 11.0115L21.3529 10.4321C21.4689 10.3816 21.6953 10.3462 21.8113 10.3211C21.9252 10.2954 22.0416 10.282 22.1584 10.281C22.4656 10.281 22.7177 10.3261 22.8889 10.4722C23.0601 10.6183 23.1303 10.8403 23.1303 11.0921C23.1303 11.1526 23.1256 11.2181 23.1206 11.2937C23.1094 11.3745 23.0996 11.4554 23.0846 11.5457ZM11.3924 11.7978C11.367 11.7978 11.3422 11.7925 11.3168 11.7925C11.2914 11.7872 11.251 11.7872 11.2008 11.7872C11.0193 11.7872 10.8838 11.8179 10.7882 11.8834C10.697 11.9433 10.6468 12.0345 10.6468 12.1555C10.6468 12.2355 10.6722 12.3013 10.7171 12.3468C10.74 12.3718 10.7681 12.3916 10.7995 12.4046C10.8308 12.4177 10.8647 12.4237 10.8986 12.4224C11.019 12.4224 11.1303 12.3669 11.2209 12.2512C11.3115 12.1355 11.367 11.984 11.3924 11.7978ZM22.3744 11.7978C22.349 11.7978 22.3243 11.7925 22.2989 11.7925C22.2735 11.7872 22.2336 11.7872 22.1829 11.7872C22.0019 11.7872 21.8659 11.8179 21.7702 11.8834C21.6796 11.9433 21.6289 12.0345 21.6289 12.1555C21.6289 12.2355 21.6542 12.3013 21.6997 12.3468C21.7446 12.397 21.8051 12.4224 21.8806 12.4224C22.0016 12.4224 22.1123 12.3669 22.2029 12.2512C22.2936 12.1355 22.349 11.984 22.3744 11.7978Z" fill="#1B3771"/>
<path fill-rule="evenodd" clip-rule="evenodd" d="M21.4534 9.65277L21.3227 10.3632C21.1763 10.3228 20.9599 10.1867 20.8291 10.177C20.4868 10.1619 20.32 10.2676 20.134 10.5043C19.9428 10.7363 19.8469 11.0586 19.8469 11.4772C19.8469 11.7493 19.8923 11.8045 20.0331 11.9609C20.1795 12.1218 20.2297 12.1726 20.4764 12.1726C20.5871 12.1726 20.6978 12.1525 20.8091 12.1171C20.8944 12.0917 20.9803 12.0566 21.0656 12.0111L20.9295 12.7921C20.8483 12.815 20.7659 12.8336 20.6827 12.8476C20.5579 12.8676 20.4317 12.8776 20.3052 12.8777C19.8672 12.8777 19.6606 12.7617 19.4139 12.4798C19.1671 12.1974 19.0715 11.9559 19.0715 11.4521C19.0715 11.19 19.1119 10.9379 19.1875 10.6962C19.268 10.4544 19.3737 10.2475 19.5098 10.0763C19.6757 9.8647 19.8625 9.71358 20.0735 9.61795C20.2852 9.52704 20.5369 9.47656 20.8241 9.47656C21.1208 9.47627 21.2568 9.53205 21.4534 9.65277ZM7.61067 9.56718H8.62307L8.7187 11.5223L9.34769 9.56718H10.4357L9.92709 12.8476H9.17178L9.54929 10.429L8.73877 12.8476H8.23494L8.1697 10.429L7.73169 12.8476H7.10742L7.61067 9.56718ZM15.2497 9.76877L15.1742 10.1516H15.5316L15.4658 10.7965H15.0679L14.9318 11.6634C14.9271 11.7136 14.9017 11.7794 14.9017 11.8195C14.8964 11.8547 14.8914 11.8854 14.8914 11.9049C14.8914 12.0011 14.9115 12.0663 14.9469 12.1067C14.9826 12.1522 15.0425 12.1726 15.1234 12.1726C15.199 12.1726 15.2341 12.1876 15.3096 12.1622L15.199 12.8075C15.1137 12.8275 15.0381 12.8426 14.9723 12.8529C14.9153 12.8583 14.8582 12.8615 14.8011 12.8626C14.585 12.8626 14.4032 12.8275 14.2875 12.6915C14.1715 12.5607 14.1618 12.4043 14.1618 12.1575C14.1618 12.1171 14.1618 12.0716 14.1671 12.0312C14.1718 11.9907 14.1718 11.9453 14.1821 11.9004L14.5596 9.77379L15.2497 9.76877ZM16.9366 11.1696C16.9419 11.1495 16.9419 11.1244 16.9463 11.1141V11.0787C16.9463 10.968 16.9162 10.8821 16.8557 10.8169C16.8002 10.7514 16.7196 10.7213 16.624 10.7213C16.5186 10.7213 16.4327 10.7614 16.3572 10.8423C16.2772 10.9229 16.2211 11.0285 16.186 11.1696H16.9366ZM17.5408 11.7189H16.1157C16.1308 11.9051 16.1815 12.0412 16.2668 12.1321C16.3575 12.2174 16.4829 12.2629 16.6497 12.2629C16.7657 12.2629 16.9569 12.2576 17.0774 12.2224C17.1999 12.1887 17.3182 12.1413 17.4301 12.0811L17.3495 12.7313C17.2285 12.7815 17.0974 12.7918 16.972 12.8172C16.8412 12.842 16.6393 12.842 16.5086 12.842C16.1863 12.842 15.9147 12.7464 15.7279 12.5294C15.5416 12.3178 15.4617 12.0208 15.4617 11.6525C15.4617 11.4462 15.4811 11.2443 15.5469 11.043C15.6122 10.8414 15.7235 10.6348 15.8341 10.4987C15.9429 10.369 16.081 10.2671 16.237 10.2015C16.3926 10.1309 16.5691 10.1008 16.7657 10.1008C17.0529 10.1008 17.2742 10.2319 17.4304 10.4234C17.5859 10.6097 17.5912 10.8818 17.5912 11.2348C17.5912 11.3051 17.5859 11.3806 17.5762 11.4615C17.5706 11.5424 17.5558 11.6283 17.5408 11.7189ZM26.5995 9.54209H27.3144L26.7501 12.8125H26.1054L26.1713 12.4999C26.0405 12.7115 25.6831 12.8272 25.4413 12.8272C25.1893 12.8272 25.0033 12.7366 24.8569 12.535C24.7111 12.3287 24.6506 12.1014 24.6506 11.754C24.6506 11.2956 24.7412 10.9229 24.9428 10.6354C25.1491 10.3482 25.4363 10.1212 25.7636 10.1212C25.9192 10.1212 26.0904 10.1616 26.2064 10.2472C26.3224 10.3328 26.3575 10.3532 26.4283 10.4589L26.5995 9.54209ZM26.2873 11.3107C26.2873 11.1546 26.2468 11.0285 26.1766 10.9329C26.1449 10.8879 26.1026 10.8514 26.0534 10.8268C26.0042 10.8021 25.9497 10.79 25.8947 10.7915C25.7483 10.7915 25.6226 10.8721 25.5269 11.0436C25.4216 11.2097 25.3708 11.4214 25.3708 11.6687C25.3708 11.8145 25.4059 11.9305 25.4717 12.0214C25.5375 12.1121 25.6228 12.1575 25.7335 12.1575C25.8847 12.1575 26.0154 12.0769 26.1214 11.9102C26.2318 11.744 26.2873 11.5424 26.2873 11.3107ZM19.2326 10.1619L19.016 10.9479C18.9106 10.9479 18.7946 10.9279 18.7244 11.0087C18.6287 11.1247 18.5629 11.3311 18.5127 11.6183L18.3108 12.8128H17.5809L17.9788 10.1672H18.6786L18.6084 10.5551C18.7137 10.3688 18.7893 10.2528 18.9103 10.1923C19.0107 10.1416 19.137 10.1516 19.2326 10.1619ZM24.9077 10.1619L24.6857 10.9479C24.5854 10.9479 24.4643 10.9279 24.3991 11.0087C24.3035 11.1247 24.2377 11.3311 24.1875 11.6183L23.9856 12.8128H23.2557L23.6482 10.1672H24.348L24.2828 10.5551C24.3882 10.3688 24.4638 10.2528 24.5848 10.1923C24.6857 10.1416 24.812 10.1516 24.9077 10.1619ZM14.1821 10.182L14.1163 10.7765L13.5428 10.7461C13.4419 10.741 13.4218 10.731 13.3663 10.7765C13.3393 10.7949 13.3174 10.8197 13.3024 10.8487C13.2874 10.8777 13.2798 10.91 13.2804 10.9426C13.2804 11.0335 13.2961 11.1292 13.4717 11.2047C13.5425 11.2351 13.598 11.2649 13.6376 11.285C13.7893 11.3606 13.9097 11.4465 13.9805 11.5474C14.0508 11.6484 14.0809 11.8396 14.0809 11.9854C14.0809 12.2626 14.0307 12.4592 13.8492 12.6307C13.6683 12.7971 13.3757 12.837 13.0791 12.837C12.928 12.837 12.7822 12.8423 12.6411 12.8322C12.485 12.8219 12.4144 12.8269 12.2837 12.7717L12.3592 12.1469C12.4602 12.2074 12.5909 12.1971 12.6865 12.2275C12.7869 12.2528 12.8825 12.2679 12.9835 12.2679C13.0995 12.2679 13.1898 12.2478 13.2503 12.2074C13.3161 12.1723 13.3811 12.0766 13.3811 12.0055C13.3811 11.9001 13.245 11.8343 13.0841 11.7587C13.0587 11.749 13.0387 11.7387 13.0236 11.7334C12.8217 11.628 12.7013 11.5017 12.6305 11.396C12.5549 11.29 12.5198 11.154 12.5198 10.9878C12.5198 10.7407 12.611 10.5141 12.7822 10.3426C12.9534 10.1714 13.1547 10.136 13.4516 10.136C13.5676 10.136 13.7288 10.136 13.8648 10.1463C13.9909 10.1516 14.0611 10.1466 14.1821 10.182ZM12.3294 11.3863L12.2084 12.1121C12.183 12.2579 12.1629 12.3789 12.1479 12.4748C12.1381 12.5704 12.1128 12.7416 12.1074 12.8275H11.5437L11.5587 12.5203C11.4782 12.6661 11.4129 12.6714 11.2919 12.7469C11.1709 12.8225 10.995 12.8328 10.8335 12.8479C10.6068 12.8629 10.4357 12.7573 10.3303 12.6011C10.2196 12.4494 10.1741 12.3036 10.1741 12.0772C10.1741 11.785 10.2444 11.5329 10.4613 11.3715C10.6783 11.21 10.9802 11.1247 11.3675 11.1247C11.4129 11.1247 11.4631 11.1298 11.5186 11.1348C11.5741 11.1348 11.6396 11.1448 11.7048 11.1498V11.1197C11.7048 11.1047 11.7102 11.0893 11.7102 11.0693C11.7102 10.9382 11.675 10.8426 11.6048 10.772C11.5593 10.7269 11.0561 10.7369 10.9551 10.7469C10.8391 10.757 10.6582 10.7874 10.5469 10.8529L10.5977 10.2732C10.7137 10.223 10.9401 10.1876 11.0561 10.1625C11.17 10.1365 11.2864 10.123 11.4032 10.1221C11.7105 10.1221 11.9572 10.1675 12.1284 10.3136C12.2996 10.4597 12.3752 10.6814 12.3752 10.9335C12.3752 10.9937 12.3698 11.0592 12.3601 11.1351C12.3542 11.2151 12.3442 11.2956 12.3294 11.3863ZM23.3114 11.3863L23.1904 12.1121C23.165 12.2579 23.145 12.3789 23.1299 12.4748C23.1202 12.5704 23.0998 12.7416 23.0895 12.8275H22.5257L22.5408 12.5203C22.4608 12.6661 22.4 12.6714 22.274 12.7469C22.1535 12.8225 21.977 12.8328 21.8209 12.8479C21.5898 12.8629 21.423 12.7573 21.3123 12.6011C21.2069 12.4494 21.1612 12.3036 21.1612 12.0772C21.1612 11.785 21.2314 11.5329 21.4484 11.3715C21.66 11.21 21.962 11.1247 22.3495 11.1247C22.395 11.1247 22.4451 11.1298 22.5012 11.1348C22.5567 11.1348 22.6217 11.1448 22.6875 11.1498C22.6875 11.1398 22.6875 11.1298 22.6922 11.1197V11.0693C22.6922 10.9382 22.6571 10.8426 22.5868 10.772C22.5414 10.7269 22.0381 10.7369 21.9372 10.7469C21.8212 10.757 21.6402 10.7874 21.5343 10.8529L21.5797 10.2732C21.6957 10.223 21.9221 10.1876 22.0381 10.1625C22.1522 10.1366 22.2688 10.123 22.3858 10.1221C22.6925 10.1221 22.9446 10.1675 23.1158 10.3136C23.2869 10.4597 23.3572 10.6814 23.3572 10.9335C23.3572 10.9937 23.3525 11.0592 23.3475 11.1351C23.3368 11.2151 23.3262 11.2956 23.3114 11.3863ZM11.619 11.638C11.5936 11.638 11.5688 11.6327 11.5434 11.6327C11.518 11.628 11.4776 11.628 11.4274 11.628C11.2465 11.628 11.1104 11.6581 11.0148 11.7236C10.9241 11.7841 10.8734 11.8747 10.8734 11.9958C10.8734 12.0763 10.8988 12.1416 10.9442 12.187C10.9891 12.2372 11.0496 12.2626 11.1251 12.2626C11.2462 12.2626 11.3569 12.2071 11.4475 12.0914C11.5381 11.9757 11.5936 11.8249 11.619 11.638ZM22.601 11.638C22.5762 11.638 22.5508 11.6327 22.5254 11.6327C22.5006 11.628 22.4602 11.628 22.4094 11.628C22.2285 11.628 22.0924 11.6581 21.9968 11.7236C21.9062 11.7841 21.856 11.8747 21.856 11.9958C21.856 12.0763 21.8808 12.1416 21.9263 12.187C21.9711 12.2372 22.0316 12.2626 22.1072 12.2626C22.2282 12.2626 22.3389 12.2071 22.4295 12.0914C22.5201 11.9757 22.5762 11.8249 22.601 11.638Z" fill="white"/>
<defs>
<linearGradient id="paint0_linear_21243_71823" x1="8.47389" y1="1.78947" x2="12.6844" y2="20.4737" gradientUnits="userSpaceOnUse">
<stop stop-color="#F7F7F7"/>
<stop offset="1" stop-color="#DDDDDD"/>
</linearGradient>
</defs>
</svg>
