<svg width="34" height="22" viewBox="0 0 34 22" fill="none" xmlns="http://www.w3.org/2000/svg">
<rect x="1" y="1" width="32.1053" height="20" rx="3" fill="url(#paint0_linear_21243_71819)" stroke="#C9CBD4" stroke-width="0.3"/>
<path d="M16.7154 9.46578C16.7004 10.6321 17.7703 11.2831 18.5763 11.67C19.4045 12.0671 19.6826 12.3217 19.6795 12.6768C19.6731 13.2202 19.0188 13.4601 18.4064 13.4694C17.3381 13.4858 16.7169 13.1852 16.2231 12.9579L15.8382 14.7323C16.3337 14.9573 17.2511 15.1535 18.2026 15.1621C20.4357 15.1621 21.8968 14.0759 21.9047 12.3918C21.9134 10.2545 18.9043 10.1362 18.9248 9.1808C18.9319 8.89116 19.2125 8.58205 19.8272 8.50341C20.1315 8.4637 20.9715 8.43333 21.9237 8.86546L22.2975 7.14862C21.7854 6.96487 21.1271 6.7889 20.3077 6.7889C18.2057 6.7889 16.7272 7.88986 16.7154 9.46578ZM25.889 6.93684C25.4812 6.93684 25.1375 7.1712 24.9842 7.53092L21.7941 15.036H24.0257L24.4698 13.8268H27.1968L27.4544 15.036H29.4213L27.7049 6.93684H25.889ZM26.2011 9.12474L26.8451 12.166H25.0814L26.2011 9.12474ZM14.0097 6.93684L12.2506 15.036H14.3771L16.1353 6.93684H14.0097ZM10.8638 6.93684L8.65042 12.4494L7.7551 7.76217C7.65 7.23894 7.23514 6.93684 6.77444 6.93684H3.15604L3.10547 7.17198C3.84827 7.33082 4.69222 7.58698 5.20349 7.86105C5.51642 8.02846 5.60571 8.17483 5.70844 8.57271L7.40425 15.036H9.65162L13.097 6.93684H10.8638Z" fill="url(#paint1_linear_21243_71819)"/>
<defs>
<linearGradient id="paint0_linear_21243_71819" x1="8.36842" y1="1.78947" x2="12.5789" y2="20.4737" gradientUnits="userSpaceOnUse">
<stop stop-color="#F7F7F7"/>
<stop offset="1" stop-color="#DDDDDD"/>
</linearGradient>
<linearGradient id="paint1_linear_21243_71819" x1="15.2039" y1="15.3301" x2="15.4427" y2="6.73048" gradientUnits="userSpaceOnUse">
<stop stop-color="#222357"/>
<stop offset="1" stop-color="#254AA5"/>
</linearGradient>
</defs>
</svg>
