<svg width="75" height="73" viewBox="0 0 75 73" fill="none" xmlns="http://www.w3.org/2000/svg">
<path d="M56.5 37C56.5 47.4934 47.9934 56 37.5 56C27.0066 56 18.5 47.4934 18.5 37C18.5 30.401 21.86 24.5847 26.9857 21.1713C29.9944 19.1677 33.6032 18 37.5 18C47.9934 18 56.5 26.5066 56.5 37Z" stroke="#FF9085" stroke-width="10"/>
<rect opacity="0.5" x="35.5" y="59" width="4" height="14" rx="2" fill="#FF9085"/>
<path opacity="0.5" d="M37.5 0C32.7724 -5.63759e-08 28.0911 0.931168 23.7234 2.74034C19.3557 4.54951 15.3871 7.20125 12.0442 10.5442C8.70124 13.8871 6.0495 17.8557 4.24034 22.2234C2.43117 26.5911 1.5 31.2724 1.5 36L37.5 36V0Z" fill="#FFC7C2"/>
<circle cx="37.5" cy="37" r="8" fill="#FF9085"/>
<rect opacity="0.5" x="36.5" y="1" width="4" height="14" rx="2" fill="#FF9085"/>
<rect opacity="0.5" x="60.5" y="39" width="4" height="14" rx="2" transform="rotate(-90 60.5 39)" fill="#FF9085"/>
<rect opacity="0.5" x="0.5" y="39" width="4" height="14" rx="2" transform="rotate(-90 0.5 39)" fill="#FF9085"/>
</svg>
