<svg width="73" height="72" viewBox="0 0 73 72" fill="none" xmlns="http://www.w3.org/2000/svg">
<path d="M64 36C64 39.5 52.5 53 36.5 53C20.5 53 9 41 9 36C9 31 20.5 19 36.5 19C52.5 19 64 32.5 64 36Z" fill="#6D6DF6"/>
<path fill-rule="evenodd" clip-rule="evenodd" d="M36.5 48C43.1274 48 48.5 42.6274 48.5 36C48.5 29.3726 43.1274 24 36.5 24C29.8726 24 24.5 29.3726 24.5 36C24.5 42.6274 29.8726 48 36.5 48ZM36.5 42C39.8137 42 42.5 39.3137 42.5 36C42.5 32.6863 39.8137 30 36.5 30C33.1863 30 30.5 32.6863 30.5 36C30.5 39.3137 33.1863 42 36.5 42Z" fill="white"/>
<path d="M7.5 51C7.5 51 15.5 31.5 27.5 31.5C36 31.5 35.5 40.5 46.5 40.5C57.5 40.5 65 21 65 21" stroke="url(#paint0_linear)" stroke-width="4" stroke-linecap="round" stroke-linejoin="round"/>
<path d="M57.2354 22.0676L65.1024 18.8491" stroke="url(#paint1_linear)" stroke-width="4" stroke-linecap="round" stroke-linejoin="round"/>
<path d="M65.7964 18.5652L69.0149 26.4323" stroke="url(#paint2_linear)" stroke-width="4" stroke-linecap="round" stroke-linejoin="round"/>
<defs>
<linearGradient id="paint0_linear" x1="36.25" y1="21" x2="36.25" y2="51" gradientUnits="userSpaceOnUse">
<stop stop-color="#50E3C2"/>
<stop offset="1" stop-color="#2DE3BA"/>
</linearGradient>
<linearGradient id="paint1_linear" x1="61.1689" y1="20.4584" x2="61.5475" y2="21.3839" gradientUnits="userSpaceOnUse">
<stop stop-color="#50E3C2"/>
<stop offset="1" stop-color="#2DE3BA"/>
</linearGradient>
<linearGradient id="paint2_linear" x1="67.4057" y1="22.4987" x2="66.4801" y2="22.8774" gradientUnits="userSpaceOnUse">
<stop stop-color="#50E3C2"/>
<stop offset="1" stop-color="#2DE3BA"/>
</linearGradient>
</defs>
</svg>
