<svg width="72" height="72" viewBox="0 0 72 72" fill="none" xmlns="http://www.w3.org/2000/svg">
<path d="M63.5 36C63.5 39.5 52 53 36 53C20 53 8.5 41 8.5 36C8.5 31 20 19 36 19C52 19 63.5 32.5 63.5 36Z" fill="#6D6DF6"/>
<path fill-rule="evenodd" clip-rule="evenodd" d="M36 48C42.6274 48 48 42.6274 48 36C48 29.3726 42.6274 24 36 24C29.3726 24 24 29.3726 24 36C24 42.6274 29.3726 48 36 48ZM36 42C39.3137 42 42 39.3137 42 36C42 32.6863 39.3137 30 36 30C32.6863 30 30 32.6863 30 36C30 39.3137 32.6863 42 36 42Z" fill="white"/>
<path d="M7 51C7 51 15 31.5 27 31.5C35.5 31.5 35 40.5 46 40.5C57 40.5 64.5 21 64.5 21" stroke="url(#paint0_linear)" stroke-width="4" stroke-linecap="round" stroke-linejoin="round"/>
<path d="M56.7354 22.0676L64.6024 18.8491" stroke="url(#paint1_linear)" stroke-width="4" stroke-linecap="round" stroke-linejoin="round"/>
<path d="M65.2969 18.5652L68.5154 26.4323" stroke="url(#paint2_linear)" stroke-width="4" stroke-linecap="round" stroke-linejoin="round"/>
<defs>
<linearGradient id="paint0_linear" x1="35.75" y1="21" x2="35.75" y2="51" gradientUnits="userSpaceOnUse">
<stop stop-color="#50E3C2"/>
<stop offset="1" stop-color="#2DE3BA"/>
</linearGradient>
<linearGradient id="paint1_linear" x1="60.6689" y1="20.4584" x2="61.0475" y2="21.3839" gradientUnits="userSpaceOnUse">
<stop stop-color="#50E3C2"/>
<stop offset="1" stop-color="#2DE3BA"/>
</linearGradient>
<linearGradient id="paint2_linear" x1="66.9061" y1="22.4987" x2="65.9806" y2="22.8774" gradientUnits="userSpaceOnUse">
<stop stop-color="#50E3C2"/>
<stop offset="1" stop-color="#2DE3BA"/>
</linearGradient>
</defs>
</svg>
